<svg id="icon" xmlns="http://www.w3.org/2000/svg" width="30" height="29.995" viewBox="0 0 30 29.995">
  <path id="パス_3966" data-name="パス 3966" d="M659.763,50.512a15,15,0,1,0-15-15,15,15,0,0,0,15,15" transform="translate(-644.763 -20.517)" fill="#13327b"/>
  <path id="パス_3967" data-name="パス 3967" d="M656.236,38.056c0-.062-.009-.124-.009-.189a5.781,5.781,0,0,1,.087-.961l-3.087.984,3.1,1a5.928,5.928,0,0,1-.087-.833m9.473,3.828c-.041.04-.085.077-.126.117a5.59,5.59,0,0,1-.648.537l2.889,1.527-1.5-2.928a5.663,5.663,0,0,1-.614.747m-7.957-7.9c.039-.042.073-.087.113-.126a5.762,5.762,0,0,1,.61-.531l-2.75-1.625,1.5,2.944a5.667,5.667,0,0,1,.532-.663M664.145,43a5.694,5.694,0,0,1-.573.237c-.068.024-.135.047-.2.068l1.262,1.564-.191-2.014c-.1.052-.2.1-.295.144m2.868-3.207a5.523,5.523,0,0,1-.237.571c-.042.085-.082.172-.127.256l1.985.172-1.521-1.3c-.03.1-.065.2-.1.3m-10.212.571a5.194,5.194,0,0,1-.237-.571c-.036-.1-.073-.2-.1-.3l-1.518,1.29,1.979-.173c-.043-.079-.082-.163-.122-.246m-.293-4.26a5.692,5.692,0,0,1,.259-.649c.031-.071.063-.139.1-.207l-1.935-.263,1.522,1.307c.019-.063.036-.126.057-.189m2.849-3.323a5.473,5.473,0,0,1,.566-.244c.1-.037.206-.075.313-.1l-1.289-1.558.166,2.03c.08-.045.163-.082.244-.123m7.455,2.674a5.768,5.768,0,0,1,.256.649c.021.065.041.131.06.2l1.521-1.3-1.969.181c.049.089.089.185.133.278M661.8,43.536h-.015a5.356,5.356,0,0,1-.945-.089l.945,3.162.946-3.162a5.49,5.49,0,0,1-.763.079c-.056,0-.111.009-.168.009M659.432,43c-.1-.045-.193-.088-.284-.139l-.175,2.011,1.283-1.554c-.085-.025-.167-.052-.251-.081a5.564,5.564,0,0,1-.572-.237m-1.567-1.114a5.614,5.614,0,0,1-.612-.744l-1.5,2.928,2.889-1.527a5.551,5.551,0,0,1-.656-.545c-.04-.038-.082-.072-.12-.111m9.475-3.839a5.792,5.792,0,0,1-.086.848l3.095-1-3.086-.984a5.762,5.762,0,0,1,.087.961l0,.011c0,.055-.007.108-.008.163M665.843,34a5.883,5.883,0,0,1,.513.643l1.5-2.944L665.1,33.323a5.8,5.8,0,0,1,.617.536c.045.045.082.094.125.14m-4.055-1.8c.054,0,.1.007.159.008a5.592,5.592,0,0,1,.833.088l-.992-3.168-.991,3.168a5.591,5.591,0,0,1,.984-.1Zm2.432.579c.082.042.165.079.246.126l.169-2.021-1.183,1.577c.068.022.134.05.2.075a5.633,5.633,0,0,1,.567.244m-.021,9.3.1-.063a4.774,4.774,0,0,0,.65-.494c.119-.107.233-.221.342-.34a4.9,4.9,0,0,0,.525-.693c.017-.027.034-.055.051-.084.048-.082.1-.164.142-.249a4.852,4.852,0,0,0,.346-.848c.021-.068.036-.14.053-.209.008-.034.017-.067.025-.1a4.853,4.853,0,0,0,.118-.839c.007-.094.014-.187.014-.283,0-.065-.007-.129-.009-.194s-.005-.129-.01-.191a4.822,4.822,0,0,0-.1-.684c-.007-.03-.015-.059-.022-.089-.013-.053-.027-.108-.042-.163a4.808,4.808,0,0,0-.379-.97c-.033-.064-.071-.124-.105-.186l-.051-.084a4.829,4.829,0,0,0-.458-.634,5.069,5.069,0,0,0-.371-.388,4.816,4.816,0,0,0-.607-.487c-.026-.017-.053-.031-.079-.048-.1-.068-.211-.132-.319-.192a4.841,4.841,0,0,0-.845-.355c-.059-.019-.12-.031-.181-.047l-.016,0a4.625,4.625,0,0,0-.919-.144c-.091-.005-.178-.014-.269-.014-.069,0-.139.008-.208.01a4.707,4.707,0,0,0-.85.114l-.13.034c-.065.017-.132.032-.2.051a4.836,4.836,0,0,0-.845.355c-.108.058-.214.123-.317.19-.026.017-.053.031-.08.05a4.841,4.841,0,0,0-.6.481c-.117.11-.228.226-.334.346a4.869,4.869,0,0,0-.552.767.051.051,0,0,0-.007.013c-.033.058-.069.114-.1.173a4.9,4.9,0,0,0-.379.97c-.016.055-.028.11-.042.163-.007.027-.014.053-.021.081a5.049,5.049,0,0,0-.11.874c0,.068-.01.134-.01.2,0,.114.009.226.016.339,0,.072.008.146.016.218a5.1,5.1,0,0,0,.1.561c.008.036.019.069.026.1.018.07.033.142.053.209a5.03,5.03,0,0,0,.347.848c.045.085.094.167.143.249.016.025.03.051.045.076a4.942,4.942,0,0,0,.528.7,4.711,4.711,0,0,0,.334.334,4.762,4.762,0,0,0,.665.506l.1.06c.059.036.117.072.178.1a4.806,4.806,0,0,0,.849.357c.082.025.168.045.252.065.03.008.062.019.093.025a4.761,4.761,0,0,0,.853.11c.063,0,.123.009.186.009.1,0,.2-.009.293-.016a4.721,4.721,0,0,0,.8-.118l.038-.01c.086-.021.171-.041.253-.065a4.834,4.834,0,0,0,.849-.357c.06-.033.12-.069.178-.1" transform="translate(-646.795 -22.583)" fill="#fff"/>
  <rect id="長方形_59" data-name="長方形 59" width="29.995" height="29.995" transform="translate(0.001 0)" fill="none"/>
</svg>
