<svg xmlns="http://www.w3.org/2000/svg" width="23" height="23" viewBox="0 0 23 23">
  <g id="map" transform="translate(-2.25 -2.25)">
    <path id="パス_21" data-name="パス 21" d="M15.566,20.321l-5-7.064a6.687,6.687,0,0,1,5-11.007,6.637,6.637,0,0,1,6.571,6.678,6.736,6.736,0,0,1-1.479,4.214Zm0-16.429a4.986,4.986,0,0,0-4.929,5.035,5.085,5.085,0,0,0,1.224,3.286l3.7,5.249,3.8-5.356a5.126,5.126,0,0,0,1.125-3.179,4.986,4.986,0,0,0-4.929-5.035Z" transform="translate(-1.816)"/>
    <path id="パス_22" data-name="パス 22" d="M19.036,9.518a1.643,1.643,0,1,1-1.643-1.643A1.643,1.643,0,0,1,19.036,9.518Z" transform="translate(-3.643 -1.518)"/>
    <path id="パス_23" data-name="パス 23" d="M23.607,13.5H21.964v1.643h1.643v11.5H3.893v-11.5H5.536V13.5H3.893A1.643,1.643,0,0,0,2.25,15.143v11.5a1.643,1.643,0,0,0,1.643,1.643H23.607a1.643,1.643,0,0,0,1.643-1.643v-11.5A1.643,1.643,0,0,0,23.607,13.5Z" transform="translate(0 -3.036)"/>
  </g>
</svg>
