<?xml version="1.0" encoding="utf-8"?>
<!-- Generator: Adobe Illustrator 27.0.0, SVG Export Plug-In . SVG Version: 6.00 Build 0)  -->
<svg version="1.1" id="レイヤー_1" xmlns="http://www.w3.org/2000/svg" xmlns:xlink="http://www.w3.org/1999/xlink" x="0px"
	 y="0px" viewBox="0 0 21.9 20.8" style="enable-background:new 0 0 21.9 20.8;" xml:space="preserve">
<style type="text/css">
	.st0{fill:#D84190;}
</style>
<path id="idea" class="st0" d="M3.8,0L2.7,1.1l1.6,1.6l1.1-1.1L3.8,0L3.8,0z M18.1,0l-1.6,1.6l1.1,1.1l1.6-1.6L18.1,0L18.1,0z
	 M10.9,0.5c-0.3,0-0.5,0-0.8,0c0,0,0,0,0,0C6.9,0.9,4.4,3.4,4,6.6C3.7,9,4.6,11.4,6.4,12.9c0.7,0.6,1.2,1.4,1.4,2.4V20h1.8
	c0.4,0.7,1.4,1,2.1,0.6c0.2-0.1,0.4-0.3,0.6-0.6h1.8v-3.1h0.1v-0.9c0.1-1.2,0.6-2.4,1.6-3.2c1.4-1.4,2.2-3.3,2.3-5.2
	C18,3.6,14.8,0.5,10.9,0.5L10.9,0.5z M10.9,2c3,0,5.4,2.4,5.5,5.4c0,0,0,0,0,0.1c0,1.6-0.7,3-1.8,4.1l0,0c-1,1-1.7,2.3-1.9,3.7H9.3
	c-0.1-1.4-0.8-2.6-1.8-3.6C6,10.5,5.3,8.7,5.5,6.8c0.3-2.5,2.3-4.4,4.8-4.7C10.5,2.1,10.7,2.1,10.9,2L10.9,2z M0,7.5v1.6h2.3V7.5H0z
	 M19.5,7.5v1.6h2.3V7.5H19.5z M4.3,13.8l-1.6,1.6l1.1,1.1l1.6-1.6L4.3,13.8z M17.6,13.8l-1.1,1.1l1.6,1.6l1.1-1.1L17.6,13.8z
	 M9.4,16.9h3.1v1.6H9.4L9.4,16.9z"/>
</svg>
