<?xml version="1.0" encoding="UTF-8"?><svg id="_レイヤー_2" xmlns="http://www.w3.org/2000/svg" viewBox="0 0 48 48"><defs><style>.cls-1{fill:none;}.cls-2{fill:#1f1f1f;stroke:#1f1f1f;stroke-miterlimit:10;stroke-width:.5px;}</style></defs><g id="_レイヤー_1-2"><g id="Rectangle"><rect class="cls-1" width="48" height="48"/></g><g><path class="cls-2" d="M24,33.52c-1.17,0-2.12,.95-2.12,2.12s.95,2.12,2.12,2.12,2.12-.95,2.12-2.12-.95-2.12-2.12-2.12Zm0,3.1c-.54,0-.98-.44-.98-.98s.44-.98,.98-.98,.98,.44,.98,.98-.44,.98-.98,.98Z"/><path class="cls-2" d="M42.63,41.25h-3.75v-9.79c0-5.04-4.1-9.15-9.15-9.15h-11.47c-5.04,0-9.15,4.1-9.15,9.15v9.79h-3.75c-.31,0-.57,.25-.57,.57s.25,.57,.57,.57H42.63c.31,0,.57-.25,.57-.57s-.25-.57-.57-.57ZM10.25,31.46c0-4.42,3.59-8.01,8.01-8.01h11.47c4.42,0,8.01,3.59,8.01,8.01v9.79h-3.77l.76-11.76c0-.16-.05-.31-.15-.42-.11-.11-.26-.18-.41-.18H13.84c-.16,0-.31,.06-.41,.18-.11,.11-.16,.27-.15,.42l.76,11.76h-3.77v-9.79Zm4.91,9.79l-.72-11.22h19.12l-.72,11.22H15.16Z"/><path class="cls-2" d="M24,20.51c3.88,0,7.04-3.16,7.04-7.04v-.82c0-3.88-3.16-7.04-7.04-7.04s-7.04,3.16-7.04,7.04v.82c0,3.88,3.16,7.04,7.04,7.04Zm-5.9-7.86c0-3.25,2.65-5.9,5.9-5.9s5.9,2.65,5.9,5.9v.82c0,3.25-2.65,5.9-5.9,5.9s-5.9-2.65-5.9-5.9v-.82Z"/></g></g></svg>