<?xml version="1.0" encoding="UTF-8"?><svg id="_レイヤー_2" xmlns="http://www.w3.org/2000/svg" viewBox="0 0 48 48"><defs><style>.cls-1{fill:none;}.cls-2{fill:#1f1f1f;}</style></defs><g id="_レイヤー_1-2"><g id="Rectangle"><rect class="cls-1" width="48" height="48"/></g><g><path class="cls-2" d="M26.65,34.75c-2.15,0-4.18-.82-5.74-2.32-.72-.69-1.3-1.49-1.73-2.38-.36-.75-.61-1.55-.73-2.38-.06-.4-.09-.81-.09-1.2s.03-.78,.08-1.17c.4-2.81,2.25-5.24,4.84-6.39,.46,.34,.82,.8,1.05,1.32-2.16,.8-3.76,2.64-4.22,4.92-.09,.44-.13,.88-.13,1.32s.05,.91,.14,1.36c.2,.97,.62,1.87,1.23,2.67,.77,1.01,1.8,1.77,2.98,2.21,.75,.28,1.53,.42,2.31,.42h13.07c3.67,0,6.66-2.99,6.66-6.66s-2.99-6.66-6.66-6.66h-6.83c-.08-.55-.2-1.09-.36-1.62h7.19c4.56,0,8.28,3.71,8.28,8.28s-3.71,8.28-8.28,8.28h-13.07Z"/><path class="cls-2" d="M8.28,29.8C3.71,29.8,0,26.09,0,21.53S3.71,13.25,8.28,13.25h13.07c2.15,0,4.18,.82,5.74,2.32,.72,.69,1.3,1.49,1.73,2.38,.36,.75,.61,1.55,.73,2.38,.06,.4,.09,.81,.09,1.2s-.03,.78-.08,1.17c-.4,2.81-2.25,5.24-4.84,6.39-.46-.34-.82-.8-1.05-1.32,2.16-.8,3.76-2.64,4.22-4.92,.09-.44,.13-.88,.13-1.32s-.05-.91-.14-1.36c-.2-.97-.62-1.87-1.23-2.67-.77-1.01-1.8-1.77-2.98-2.21-.75-.28-1.53-.42-2.31-.42H8.28c-3.67,0-6.66,2.99-6.66,6.66s2.99,6.66,6.66,6.66h6.83c.08,.55,.2,1.09,.36,1.62h-7.19Z"/></g></g></svg>