<?xml version="1.0" encoding="utf-8"?>
<!-- Generator: Adobe Illustrator 24.3.0, SVG Export Plug-In . SVG Version: 6.00 Build 0)  -->
<svg version="1.1" id="レイヤー_1" xmlns="http://www.w3.org/2000/svg" xmlns:xlink="http://www.w3.org/1999/xlink" x="0px"
	 y="0px" viewBox="0 0 236.7 87.9" style="enable-background:new 0 0 236.7 87.9;" xml:space="preserve">
<style type="text/css">
	.st0{fill:none;stroke:#ADDAD6;stroke-width:0.85;stroke-miterlimit:10;}
	.st1{fill:none;stroke:#98D1CD;stroke-width:0.85;stroke-miterlimit:10;}
	.st2{fill:#98D1CD;}
	.st3{fill:#ADDAD6;}
	.st4{fill:#231815;}
	.st5{fill:#E1F1F0;}
</style>
<g id="レイヤー_2_1_">
	<g id="レイヤー_2-2">
		<line class="st0" x1="191" y1="60.4" x2="191" y2="4.3"/>
		<line class="st0" x1="152" y1="18.2" x2="95.9" y2="18.2"/>
		<line class="st1" x1="89.7" y1="53.8" x2="139.7" y2="53.8"/>
		<polygon class="st2" points="138.5,58.1 145.8,53.8 138.5,49.6 		"/>
		<path class="st3" d="M0,60V14.1c0-3,2.4-5.4,5.4-5.4l0,0h91c3.1,0,5.7,2.5,5.7,5.7V60c0,3-2.4,5.4-5.4,5.4c0,0,0,0,0,0H5.4
			C2.4,65.4,0,63,0,60C0,60,0,60,0,60"/>
		<path class="st4" d="M20.5,26.6v4.8H20V31h-4.5v-0.5H20v-3.5h-4.4v-0.5H20.5z"/>
		<path class="st4" d="M22.1,26.2c0.7,0.2,1.5,0.6,2.1,1l-0.3,0.5c-0.6-0.4-1.3-0.8-2.1-1L22.1,26.2z M22.1,31.1
			c2.2-0.6,4-2.1,5-4.1c0.1,0.1,0.3,0.2,0.5,0.3c-1,2.1-2.8,3.6-5,4.2c0,0.1,0,0.1-0.1,0.2L22.1,31.1z"/>
		<path class="st4" d="M28.2,26.5h4.5l0,0l0.5,0.4c0,0,0,0.1-0.1,0.1c-0.3,2.3-1.8,4.1-4,4.9c-0.1-0.1-0.2-0.3-0.3-0.4
			c2-0.6,3.4-2.3,3.7-4.4h-4.3V26.5z M33.6,25.2c0.4,0,0.8,0.3,0.8,0.8c0,0.4-0.3,0.8-0.8,0.8c-0.4,0-0.8-0.3-0.8-0.8l0,0
			C32.8,25.5,33.2,25.2,33.6,25.2z M34.2,26c0-0.3-0.2-0.5-0.5-0.5l0,0c-0.3,0-0.5,0.2-0.5,0.5c0,0.3,0.2,0.5,0.5,0.5
			C33.9,26.5,34.1,26.3,34.2,26L34.2,26z"/>
		<path class="st4" d="M40.1,27.9c0,0,0,0.1-0.1,0.1c-0.4,1.9-1.9,3.4-3.9,3.8c-0.1-0.1-0.2-0.3-0.3-0.4c1.7-0.3,3.1-1.5,3.6-3.1
			h-4.7v-0.5h4.9l0.1,0L40.1,27.9z M39.4,26.4h-4v-0.5h4V26.4z"/>
		<path class="st4" d="M46.6,26.1c0,0-0.1,0.1-0.1,0.1h-0.1c-0.6,0.6-1.3,1.2-2,1.7l0.2,0.1c0,0.1-0.1,0.1-0.2,0.1v3.8h-0.5v-3.6
			c-0.9,0.6-1.8,1.1-2.7,1.6c-0.1-0.1-0.2-0.3-0.3-0.4c1.9-0.9,3.7-2.1,5.2-3.7L46.6,26.1z"/>
		<path class="st4" d="M53.1,26.2C53.1,26.2,53.1,26.3,53.1,26.2c-0.5,0.9-1,1.7-1.8,2.3c-0.1-0.1-0.3-0.2-0.4-0.3
			c0.6-0.4,1.1-1.1,1.4-1.8h-5.1V26h5.3h0.1L53.1,26.2z M50.4,27.5c0,0.1-0.1,0.1-0.2,0.1c0,1.6-0.9,3.2-2.2,4.1
			c-0.1-0.1-0.3-0.2-0.4-0.3c1.5-0.8,2-2.3,2.1-4L50.4,27.5z"/>
		<path class="st4" d="M54.2,26.2c0.7,0.2,1.5,0.6,2.1,1L56,27.6c-0.6-0.4-1.3-0.8-2.1-1L54.2,26.2z M54.2,31.1c2.2-0.6,4-2.1,5-4.1
			c0.1,0.1,0.3,0.2,0.5,0.3c-1,2.1-2.8,3.6-5,4.2c0,0.1,0,0.1-0.1,0.2L54.2,31.1z"/>
		<path class="st4" d="M64.7,26.3C64.7,26.4,64.7,26.4,64.7,26.3c-0.5,0.9-0.9,1.8-1.5,2.5c0.9,0.7,1.8,1.5,2.6,2.4l-0.4,0.4
			c-0.8-0.9-1.6-1.6-2.5-2.4c-0.8,0.9-1.7,1.7-2.7,2.4c-0.1-0.1-0.2-0.3-0.4-0.4c1.8-1.1,3.3-2.7,4.2-4.6h-3.5v-0.5h3.7h0.1
			L64.7,26.3z"/>
		<path class="st4" d="M69.9,28.8h-0.5l0,0c0,0-0.1,0-0.1,0c-0.1,0.2-0.2,0.4-0.4,0.6h4v0.4h-1.5c-0.2,0.4-0.5,0.8-0.9,1.1
			c0.7,0.2,1.5,0.4,2.2,0.7L72.4,32c-0.8-0.3-1.6-0.6-2.4-0.8c-1,0.5-2.2,0.7-3.3,0.8c0-0.2-0.1-0.3-0.2-0.4c1,0,2-0.2,2.9-0.6
			c-0.5-0.1-0.9-0.2-1.4-0.3l-0.2,0.2l-0.4-0.2l0.7-1h-1.7v-0.4h2c0.2-0.3,0.4-0.6,0.5-0.8l0.5,0.1v-1.4c-0.8,0.8-1.8,1.4-2.8,1.7
			c-0.1-0.1-0.2-0.3-0.3-0.4c0.9-0.3,1.8-0.7,2.5-1.3h-2.4v-0.4h3v-0.8c-0.8,0.1-1.6,0.1-2.3,0.1c0-0.1,0-0.3-0.1-0.4
			c1.6,0,3.1-0.2,4.7-0.5l0.4,0.4c0,0,0,0-0.1,0h-0.1c-0.7,0.1-1.3,0.2-2,0.3v0.8h3v0.4h-2.5c0.8,0.6,1.6,1,2.6,1.2
			c-0.1,0.1-0.2,0.3-0.3,0.4c-1-0.3-2-0.9-2.8-1.6l0,0L69.9,28.8z M68.2,30.4c0.6,0.1,1.2,0.2,1.7,0.4c0.4-0.2,0.7-0.6,0.9-1h-2.2
			L68.2,30.4z"/>
		<path class="st4" d="M75.9,31.1c0,0-0.1,0-0.2,0c-0.7,0.4-1.4,0.6-2.1,0.8c-0.1-0.1-0.2-0.2-0.3-0.4c0.7-0.2,1.4-0.4,2.1-0.8
			L75.9,31.1z M74.1,27.7h5.1v3.1h-5.1L74.1,27.7z M74.5,25.7h4.2v1.6h-4.3L74.5,25.7z M74.6,28.1v0.5h4.1v-0.5H74.6z M74.6,29v0.5
			h4.1V29L74.6,29z M74.6,29.9v0.6h4.1v-0.6H74.6z M75,26.1v0.8h3.3v-0.8H75z M79.5,32c-0.7-0.3-1.5-0.6-2.3-0.9l0.4-0.3
			c0.8,0.2,1.5,0.5,2.2,0.8L79.5,32z"/>
		<path class="st4" d="M84,25.4c0,0.1-0.1,0.1-0.2,0.1c0.8,1,1.9,1.9,3.1,2.4c-0.1,0.1-0.2,0.3-0.3,0.4c-1.2-0.6-2.3-1.4-3.1-2.5
			c-0.8,1.1-1.8,1.9-3,2.5c-0.1-0.1-0.2-0.3-0.3-0.4c1.2-0.6,2.3-1.5,3-2.6L84,25.4z M80.6,29.4V29h5.9v0.5h-3.4h0.1
			c0,0-0.1,0.1-0.2,0.1c-0.2,0.6-0.5,1.1-0.8,1.6l3.1-0.1c-0.3-0.4-0.6-0.7-1-1.1l0.4-0.2c0.7,0.6,1.2,1.2,1.7,1.9L86,32
			c-0.1-0.2-0.2-0.3-0.3-0.5c-1.7,0.1-3.5,0.2-4.7,0.2c0,0.1-0.1,0.1-0.1,0.1c0,0,0,0,0,0l-0.2-0.6h1c0.3-0.6,0.6-1.2,0.8-1.8
			L80.6,29.4z M81.8,27.6h3.4V28h-3.4L81.8,27.6z"/>
		<path class="st4" d="M19,43.9c-1.8,1.7-1.9,4.6-0.2,6.4c0.1,0.1,0.1,0.1,0.2,0.2l0,0h-0.4c-1.8-1.8-1.8-4.8,0-6.6L19,43.9L19,43.9
			z"/>
		<path class="st4" d="M26,48v0.4h-0.8v1.3h-0.5v-0.3H23v0.5c0,0.3-0.1,0.4-0.3,0.5c-0.4,0.1-0.8,0.1-1.2,0.1c0-0.1-0.1-0.3-0.2-0.4
			H22c0.4,0,0.5,0,0.5-0.2v-0.5h-2.3V49h2.4v-0.6h-3V48h3v-0.5h-2.3v-0.4h2.3v-0.5h-2.1v-1.4h2.1v-0.5h-2.8v-0.4h2.8v-0.6h0.6
			c0,0.1,0,0.1-0.1,0.1v0.5h2.9v0.4H23v0.5h2.2v1.4H23v0.5h2.3V48H26z M20.9,46.3h1.6v-0.7h-1.6L20.9,46.3z M24.7,45.6H23v0.7h1.7
			L24.7,45.6z M23,47.5V48h1.8v-0.5H23z M24.8,49v-0.6H23V49H24.8z"/>
		<path class="st4" d="M33,45h-0.6c-0.2,0.5-0.5,1-0.9,1.4c0.5,0.4,1,0.6,1.6,0.8c-0.1,0.1-0.2,0.3-0.3,0.4
			c-0.6-0.2-1.1-0.5-1.6-0.9c-0.5,0.4-1.1,0.7-1.7,0.9l-0.2-0.3c-0.1,0.3-0.2,0.6-0.4,0.8L28.7,48c0.2-0.4,0.3-0.8,0.4-1.2h-0.7v3
			c0,0.5-0.2,0.5-1.1,0.5c0-0.2-0.1-0.3-0.1-0.5h0.5c0.3,0,0.3,0,0.3-0.1v-2.4c-0.2,0.7-0.6,1.3-1.1,1.9c-0.1-0.2-0.2-0.3-0.2-0.4
			c0.5-0.6,0.9-1.3,1.2-2h-1.1v-0.4h2c-0.5-0.4-1-0.7-1.6-1l0.3-0.3c0.2,0.1,0.5,0.2,0.7,0.3c0.3-0.2,0.6-0.5,0.8-0.8h-2.1v-0.4h2.5
			h0.1l0.4,0.2c0,0-0.1,0.1-0.1,0.1c-0.3,0.4-0.7,0.8-1.2,1.1c0.2,0.1,0.4,0.3,0.6,0.5l-0.3,0.3h0.7h0.2c0,0.1-0.2,0.7-0.2,0.8
			c0.6-0.2,1.1-0.4,1.5-0.8c-0.3-0.3-0.5-0.6-0.7-1c-0.2,0.2-0.3,0.4-0.5,0.6c-0.1-0.1-0.2-0.2-0.4-0.3c0.6-0.6,1-1.2,1.2-2l0.6,0.2
			c0,0-0.1,0.1-0.1,0.1c-0.1,0.2-0.1,0.4-0.2,0.5H33L33,45z M32.5,48h0.3c0,0,0,0.1,0,0.2c-0.1,1.3-0.3,1.8-0.5,2s-0.3,0.2-0.7,0.2
			c-0.2,0-0.3,0-0.5,0c0-0.2-0.1-0.3-0.1-0.4h0.7c0.1,0,0.2,0,0.2-0.1c0.1-0.1,0.2-0.5,0.3-1.5h-1.2c-0.2,0.9-0.9,1.6-1.8,2
			c-0.1-0.1-0.2-0.3-0.3-0.4c0.8-0.3,1.3-0.9,1.6-1.7h-1.1V48h1.2c0.1-0.2,0.1-0.5,0.1-0.8h0.6c0,0.1-0.1,0.1-0.1,0.1
			c0,0.2,0,0.4-0.1,0.6L32.5,48L32.5,48z M30.5,45L30.5,45c0.2,0.4,0.5,0.8,0.8,1c0.3-0.3,0.6-0.7,0.7-1H30.5z"/>
		<path class="st4" d="M39.6,46.7h0.3c0,0,0,0.1,0,0.2c-0.1,2.3-0.2,3.1-0.4,3.3s-0.4,0.2-0.8,0.2c-0.2,0-0.4,0-0.6,0
			c0-0.2-0.1-0.3-0.1-0.5c0.4,0,0.8,0,0.9,0s0.2,0,0.3-0.1s0.3-0.9,0.3-2.8h-4.5c0,1.1-0.4,2.2-1,3.1c-0.1-0.1-0.2-0.2-0.4-0.3
			c0.7-1.2,1-2.6,0.9-4v-1.7h4.9V46h-4.5c0,0.2,0,0.4,0,0.7L39.6,46.7L39.6,46.7z M38.9,44.7h-4v1h4V44.7z M38.2,49.6H36V50h-0.5
			v-2.3h2.7L38.2,49.6z M37.8,48.1H36v1h1.8L37.8,48.1z"/>
		<path class="st4" d="M44.4,45.4c0,0.3-0.2,0.5-0.5,0.5c-0.3,0-0.5-0.2-0.5-0.5c0-0.3,0.2-0.5,0.5-0.5c0,0,0,0,0,0
			C44.2,44.9,44.4,45.1,44.4,45.4C44.4,45.4,44.4,45.4,44.4,45.4z M44.4,48.8c0,0.3-0.2,0.5-0.5,0.5c-0.3,0-0.5-0.2-0.5-0.5
			c0-0.3,0.2-0.5,0.5-0.5c0,0,0,0,0,0C44.2,48.3,44.4,48.6,44.4,48.8C44.4,48.8,44.4,48.8,44.4,48.8z"/>
		<path class="st4" d="M53.8,45.1v4.7c0,0.3-0.1,0.5-0.3,0.6c-0.4,0.1-0.9,0.1-1.3,0.1c0-0.2-0.1-0.3-0.2-0.5h0.7
			c0.6,0,0.6,0,0.6-0.2v-4.2h-2.2c0,0.3-0.1,0.6-0.1,0.9c0.7,0.6,1.4,1.3,2.1,2l-0.4,0.3c-0.6-0.7-1.2-1.3-1.8-1.9
			c-0.3,0.9-1,1.6-1.8,2c-0.1-0.1-0.2-0.3-0.3-0.4c1.2-0.5,1.9-1.7,1.9-3h-2.1v4.9h-0.5v-5.3h2.6v-1.2h0.6c0,0,0,0.1-0.1,0.1V45
			L53.8,45.1z"/>
		<path class="st4" d="M57,46.6c0.2-0.4,0.3-0.9,0.5-1.4l0.5,0.2c0,0-0.1,0.1-0.2,0.1c-0.1,0.4-0.3,0.8-0.4,1.2h1v0.4h-3.7v-0.4h2.5
			L57,46.6z M58.3,44.7v0.4h-3.4v-0.4h1.5v-0.8H57c0,0,0,0.1-0.1,0.1v0.7L58.3,44.7z M55.2,50.4v-2.7H58v2.7h-0.5V50h-1.9v0.4
			L55.2,50.4z M55.8,45.3c0.2,0.4,0.3,0.8,0.3,1.2l-0.4,0.1c-0.1-0.4-0.2-0.8-0.3-1.2L55.8,45.3z M57.6,48.1h-1.9v1.4h1.9L57.6,48.1
			z M61,44.2l0.3,0.2c0,0,0,0.1-0.1,0.1c-0.3,0.6-0.6,1.4-1,2.1c0.8,0.7,1.1,1.2,1.1,1.8c0,1.1-0.8,1.1-1.2,1.1h-0.3
			c0-0.2-0.1-0.3-0.2-0.5l0.4,0c0.5,0,0.8,0,0.8-0.7c0-0.5-0.3-1-1.1-1.7c0.3-0.7,0.7-1.4,0.9-1.9h-1.4v5.7h-0.5v-6.2L61,44.2
			L61,44.2z"/>
		<path class="st4" d="M67.5,49.8h0.9v0.4h-6.5v-0.4h0.9V48h4.8V49.8z M62.5,47.4v0.3h-0.4v-3.6h3v0.4h-1.2v0.6h1.1v1.4h-1.1V47h1.3
			v0.4L62.5,47.4z M63.4,44.5h-0.9v0.6h0.9V44.5z M64.5,46.1v-0.7h-2v0.7H64.5z M63.4,47v-0.6h-0.9V47H63.4z M63.2,48.4v1.4h1v-1.4
			H63.2z M65.6,48.4h-1v1.4h1V48.4z M68.3,45.3h-2.3c-0.2,0.4-0.4,0.8-0.6,1.1c-0.1-0.1-0.2-0.2-0.3-0.3c0.5-0.7,0.8-1.4,1-2.3
			l0.5,0.1c0,0-0.1,0.1-0.2,0.1c-0.1,0.3-0.1,0.6-0.2,0.8h2.1L68.3,45.3z M68.2,47.1h-2.4v-0.4h2.4L68.2,47.1z M67,48.4h-1v1.4h1
			V48.4z"/>
		<path class="st4" d="M75.4,45.2h-2.5c0.7,0.7,1.6,1.3,2.6,1.6c-0.1,0.1-0.2,0.2-0.3,0.4c-1.1-0.4-2-1.1-2.8-2v1.6h-0.5v-1.5
			c-0.7,0.9-1.7,1.6-2.8,2c-0.1-0.1-0.2-0.3-0.3-0.4c1-0.3,1.8-0.9,2.5-1.7H69v-0.4h2.9v-0.9h0.6c0,0,0,0.1-0.1,0.1v0.8h3L75.4,45.2
			z M74.2,47v2.8h1.2v0.4H69v-0.4h1.2V47H74.2z M73.7,47.4h-3V48h3V47.4z M73.7,48.9v-0.6h-3v0.6L73.7,48.9z M70.7,49.3v0.6h3v-0.6
			H70.7z"/>
		<path class="st4" d="M79.5,49.8h3v0.4h-6.4v-0.4H79v-0.9h-2.2v-0.4H79v-0.7l0.6,0c0,0,0,0.1-0.2,0.1v0.6h2.3v0.4h-2.3V49.8z
			 M76.8,45v0.9h-0.5v-1.4H79v-0.7h0.6c0,0,0,0.1-0.2,0.1v0.6h2.7v1.3h-0.5V45H76.8z M81.8,47.9c-0.1-0.1-0.3-0.3-0.4-0.4
			c-1.6,0.1-3.3,0.2-4.4,0.2c0,0.1,0,0.1-0.1,0.1l-0.2-0.5h1c0.3-0.3,0.5-0.7,0.7-1.1h-1.5v-0.4h4.8v0.4h-2.9h0.1
			c0,0-0.1,0.1-0.1,0.1c-0.2,0.3-0.4,0.7-0.7,1l2.8-0.1c-0.3-0.2-0.5-0.4-0.8-0.6l0.3-0.3c0.6,0.4,1.2,0.8,1.7,1.3L81.8,47.9z"/>
		<path class="st4" d="M83.1,50.4c0.9-0.8,1.4-2,1.4-3.3c0-1.2-0.5-2.4-1.4-3.3l0,0h0.4c1.8,1.8,1.8,4.8,0,6.6L83.1,50.4L83.1,50.4z
			"/>
		<path class="st5" d="M228.2,28.4h-73.7c-4.7,0-8.5-3.8-8.5-8.5V8.5c0-4.7,3.8-8.5,8.5-8.5h73.7c4.7,0,8.5,3.8,8.5,8.5v11.3
			C236.7,24.5,232.9,28.3,228.2,28.4C228.2,28.4,228.2,28.4,228.2,28.4"/>
		<path class="st4" d="M181.1,11.7h-0.7v5.8h-0.5V16c-0.9,0.1-1.7,0.3-2.2,0.4c0,0.1-0.1,0.1-0.1,0.1l-0.2-0.5l0.6-0.1v-4.2h-0.6
			v-0.4h3.6V11.7z M179.9,12.7v-1h-1.4v1H179.9z M179.9,14.1v-1h-1.4v1H179.9z M178.5,14.6v1.2l1.4-0.2v-1L178.5,14.6z M183.5,11.9
			l0.3,0.1c0,0,0,0.1,0,0.1c-0.1,1.2-0.5,2.4-1.1,3.5c0.4,0.6,0.9,1.1,1.5,1.5c-0.1,0.1-0.3,0.2-0.3,0.4c-0.6-0.3-1.1-0.8-1.5-1.4
			c-0.4,0.6-0.9,1-1.5,1.4c-0.1-0.1-0.2-0.3-0.3-0.4c0.6-0.4,1.1-0.9,1.5-1.5c-0.5-1-0.8-2-1-3.1l0.4-0.1c0.1,0.9,0.4,1.8,0.8,2.7
			c0.4-0.9,0.7-1.8,0.9-2.7h-2.4v-0.5L183.5,11.9L183.5,11.9z"/>
		<path class="st4" d="M186.5,14c-0.1-0.2-0.3-0.5-0.4-0.7l0.4-0.1c0.3,0.4,0.6,0.9,0.8,1.5l-0.4,0.2c0-0.1-0.1-0.3-0.1-0.4h-0.6v3
			h-0.4v-3h-1c0,0-0.1,0.1-0.1,0.1l-0.1-0.5h0.5c0.2-0.2,0.3-0.4,0.5-0.6c-0.3-0.4-0.6-0.7-0.9-1l0.2-0.3l0.2,0.2
			c0.3-0.4,0.5-0.9,0.7-1.4l0.5,0.2c0,0-0.1,0.1-0.1,0.1c-0.2,0.5-0.5,0.9-0.8,1.4c0.2,0.2,0.3,0.3,0.4,0.5c0.3-0.5,0.6-0.9,0.8-1.3
			l0.5,0.2c0,0.1-0.1,0.1-0.2,0.1c-0.4,0.7-0.9,1.4-1.4,2.1H186.5z M185.4,15.1c0,0,0,0.1-0.1,0.1c-0.1,0.6-0.2,1.2-0.5,1.7
			c-0.1-0.1-0.2-0.1-0.4-0.2c0.2-0.6,0.4-1.1,0.4-1.7L185.4,15.1z M186.8,16.4c-0.1-0.5-0.2-0.9-0.4-1.3l0.4-0.1
			c0.2,0.4,0.4,0.9,0.5,1.3L186.8,16.4z M191,11.6V12h-3.9v-0.4h1.6v-0.7l0.6,0.1c0,0,0,0.1-0.1,0.1v0.6L191,11.6z M188.1,13.2h1.5
			l-0.2-0.1c0.2-0.3,0.3-0.7,0.5-1.1l0.6,0.2c0,0-0.1,0.1-0.1,0.1c-0.1,0.3-0.3,0.6-0.5,0.9h1.2v1.2h-0.4v-0.8h-2.9v0.8h-0.4v-1.2
			H188.1c-0.1-0.3-0.2-0.7-0.3-1l0.4-0.1c0.2,0.3,0.3,0.7,0.4,1L188.1,13.2z M190.6,14.6v1.7c0,0.5-0.2,0.5-1,0.5
			c0-0.1-0.1-0.3-0.1-0.4h0.4c0.3,0,0.3,0,0.3-0.1V15h-1v2.4h-0.4V15h-0.9v1.8h-0.4v-2.2h1.3v-0.8h0.6c0,0.1-0.1,0.1-0.1,0.1v0.6
			L190.6,14.6z"/>
		<path class="st4" d="M192.7,14.2c-0.3,0.3-0.5,0.6-0.9,0.9c-0.1-0.1-0.2-0.3-0.3-0.4c0.7-0.6,1.4-1.4,1.9-2.3l0.5,0.2
			c0,0.1-0.1,0.1-0.2,0.1c-0.2,0.3-0.4,0.7-0.6,1h0.1c0,0.1,0,0.1-0.1,0.1v3.7h-0.5V14.2z M193.7,11.1c0,0.1-0.1,0.1-0.1,0.1
			c-0.5,0.6-1.1,1.1-1.7,1.6c-0.1-0.1-0.2-0.3-0.3-0.4c0.6-0.4,1.2-0.9,1.6-1.5L193.7,11.1z M197.4,14l0.3,0.1c0,0,0,0.1-0.1,0.1
			c-0.3,0.8-0.8,1.5-1.4,2c0.6,0.4,1.3,0.7,2,0.8c-0.1,0.1-0.2,0.3-0.3,0.4c-0.8-0.2-1.5-0.5-2.1-0.9c-0.6,0.4-1.3,0.7-2,0.9
			c-0.1-0.2-0.2-0.3-0.3-0.4c0.7-0.2,1.3-0.5,1.9-0.9c-0.5-0.5-0.8-1-1.1-1.6l0.3-0.1H194V14H197.4L197.4,14z M195,11.6V12
			c0,0.8-0.3,1.5-0.9,1.9c-0.1-0.1-0.2-0.2-0.4-0.3c0.6-0.3,0.9-1,0.9-1.6v-0.9h2.5v1.7c0,0.2,0,0.3,0.2,0.3h0.3
			c0.3,0,0.3,0,0.3-0.8c0.1,0.1,0.2,0.1,0.4,0.2c0,0.7,0,1-0.6,1h-0.4c-0.6,0-0.6-0.3-0.6-0.7v-1.3H195z M194.8,14.5
			c0.2,0.5,0.6,1,1,1.4c0.5-0.4,0.9-0.9,1.2-1.4H194.8z"/>
		<path class="st4" d="M202.4,10.9c0,0.1-0.1,0.1-0.1,0.1c0.8,1,1.9,1.9,3.1,2.4c-0.1,0.1-0.2,0.3-0.3,0.4c-1.2-0.6-2.2-1.4-3.1-2.5
			c-0.8,1.1-1.8,1.9-3,2.5c-0.1-0.1-0.2-0.3-0.3-0.4c1.2-0.6,2.3-1.5,3-2.6L202.4,10.9z M199,14.9v-0.5h6v0.5h-3.4h0.1
			c0,0.1-0.1,0.1-0.2,0.1c-0.2,0.6-0.5,1.1-0.8,1.6l3.1-0.1c-0.3-0.4-0.6-0.7-1-1.1l0.4-0.2c0.7,0.6,1.2,1.2,1.7,1.9l-0.4,0.3
			c-0.1-0.2-0.2-0.3-0.4-0.5c-1.7,0.1-3.5,0.2-4.7,0.2c0,0.1-0.1,0.1-0.1,0.1l-0.2-0.6h1c0.3-0.6,0.6-1.1,0.8-1.8H199z M200.2,13.1
			h3.4v0.4h-3.4V13.1z"/>
		<path class="st5" d="M228.4,87.9h-74c-4.6,0-8.3-3.7-8.3-8.3c0,0,0,0,0,0V45.2c0-4.6,3.7-8.3,8.3-8.3c0,0,0,0,0,0h74
			c4.6,0,8.3,3.7,8.3,8.3c0,0,0,0,0,0v34.3C236.7,84.1,233,87.9,228.4,87.9C228.4,87.9,228.3,87.9,228.4,87.9"/>
		<path class="st4" d="M152.2,59.8c-0.1-0.4-0.2-0.9-0.2-1.3c0-0.8,0.1-1.6,0.2-2.3l0.7,0.1c0,0.1-0.1,0.1-0.2,0.1
			c-0.1,0.7-0.2,1.3-0.2,2c0,0.1,0,0.3,0,0.4c0.2-0.4,0.3-0.7,0.6-1.1c0.1,0.1,0.2,0.2,0.3,0.3c-0.5,0.9-0.7,1.2-0.7,1.5
			c0,0.1,0,0.1,0,0.2L152.2,59.8z M156,55.9c0,0.1-0.1,0.1-0.2,0.2c0,0.6,0.1,1.6,0.1,2.5c0,1.4-0.5,2.6-2.6,3.5
			c-0.1-0.1-0.2-0.3-0.4-0.4c1.9-0.7,2.4-1.9,2.4-3.1c0-0.9-0.1-1.9-0.2-2.7L156,55.9z"/>
		<path class="st4" d="M157,61.7c0.5-1.5,1.4-4,1.7-4.8c0.1-0.4,0.3-0.9,0.4-1.1l0.8,0.2c0,0.1-0.1,0.1-0.3,0.1
			c-0.4,1-1,2.6-1.3,3.3l0,0c0.4-0.5,0.9-0.8,1.6-0.9c0.6,0,0.9,0.4,0.9,1.1v0.8c0,0.5,0.3,0.8,0.7,0.8c0.6,0,1.2-0.7,1.6-2
			c0.1,0.1,0.3,0.2,0.5,0.3c-0.4,1.3-1.1,2.2-2,2.2c-0.6,0.1-1.2-0.4-1.2-1c0-0.1,0-0.1,0-0.2c0-0.1,0-0.8,0-0.9
			c0-0.4-0.2-0.7-0.5-0.7c-0.8,0-1.6,1.2-1.8,1.7c-0.1,0.2-0.2,0.7-0.4,1.1L157,61.7z"/>
		<path class="st4" d="M166.2,55.9c0,0.1-0.1,0.1-0.2,0.1c-0.1,0.4-0.2,1.1-0.3,1.5c0.3,0,0.5-0.1,0.8-0.1c1.1,0,1.4,0.7,1.4,1.8
			c0,0.5-0.1,1.1-0.2,1.6c-0.1,0.6-0.6,1.1-1.3,1.1c-0.5,0-0.9-0.3-1.3-0.6c0.1-0.1,0.1-0.3,0.2-0.4c0.3,0.3,0.7,0.5,1.1,0.5
			c0.4,0,0.6-0.2,0.8-0.7c0.1-0.5,0.2-1,0.2-1.5c0-0.8-0.3-1.3-1-1.3c-0.2,0-0.5,0-0.9,0.1c-0.3,1.3-0.8,2.6-1.4,3.8l-0.5-0.2
			c0.7-1.1,1.1-2.3,1.4-3.5l-1.3,0.2v-0.5l1.4-0.2c0.1-0.5,0.2-1.2,0.3-1.8L166.2,55.9z M169.5,59.3c-0.2-1-0.8-1.8-1.6-2.4l0.4-0.3
			c0.8,0.6,1.4,1.5,1.7,2.5L169.5,59.3z"/>
		<path class="st4" d="M171.4,56.5c0,0.1-0.1,0.1-0.2,0.1c-0.1,0.6-0.1,1.2-0.1,1.8c0,0.3,0,0.5,0,0.7c0.1,1.2,0.6,1.9,1.1,1.9
			c0.3,0,0.6-0.7,0.9-1.5c0.1,0.1,0.3,0.2,0.4,0.3c-0.3,1-0.7,1.7-1.3,1.8c-0.9,0-1.5-1.1-1.6-2.4c0-0.3,0-0.6,0-0.9
			c0-0.6,0-1.3,0.1-1.9L171.4,56.5z M176.1,59.8c-0.1-1.1-0.8-2.1-1.8-2.7l0.3-0.4c1.1,0.6,1.8,1.7,2,2.9L176.1,59.8z"/>
		<path class="st4" d="M177.8,56h4.6v6h-0.5v-0.4h-3.6V62h-0.5L177.8,56z M181.9,56.5h-3.6v2h3.6V56.5z M178.3,61.1h3.6V59h-3.6
			V61.1z"/>
		<path class="st4" d="M188.7,56.8c0,0-0.1,0.1-0.1,0.1c-0.1,0.3-0.3,0.6-0.5,0.9h1.9v0.4h-5.4v0.7c0.1,1.2-0.2,2.3-0.8,3.3
			c-0.1-0.1-0.2-0.2-0.4-0.3c0.5-0.9,0.7-2,0.7-3v-1.1h1.4c-0.1-0.4-0.2-0.7-0.4-1l0.4-0.1H184v-0.4h2.6v-0.7h0.6c0,0,0,0.1-0.1,0.1
			v0.5h2.6v0.4h-1.4L188.7,56.8z M187.6,60.6v1h2.4V62h-5.2v-0.4h2.3v-1h-1.6v-0.4h1.6v-0.8h-1.4c-0.1,0.3-0.3,0.5-0.5,0.7l-0.4-0.2
			c0.4-0.4,0.7-1,0.9-1.5l0.5,0.2c0,0-0.1,0.1-0.1,0.1c0,0.1-0.1,0.3-0.2,0.4h1.2v-0.7h0.6c0,0-0.1,0.1-0.1,0.1V59h2v0.4h-2v0.8h1.8
			v0.4L187.6,60.6z M187.7,57.6c0.2-0.3,0.3-0.7,0.4-1h-2.5c0.2,0.3,0.3,0.6,0.4,1l-0.4,0.1h2.3L187.7,57.6z"/>
		<path class="st4" d="M192.5,58.1l0.3,0.1c0,0,0,0.1,0,0.1c-0.1,0.8-0.3,1.6-0.6,2.4c0.8,0.7,1.9,1,2.9,0.8h2.2
			c-0.1,0.1-0.2,0.3-0.3,0.5h-2c-1.1,0.1-2.3-0.2-3.1-0.9c-0.3,0.4-0.6,0.8-1,1.1c-0.1-0.1-0.2-0.2-0.4-0.3c0.4-0.3,0.8-0.7,1-1.1
			c-0.3-0.4-0.5-0.9-0.7-1.4l0.4-0.2c0.1,0.4,0.3,0.8,0.5,1.1c0.2-0.6,0.4-1.1,0.4-1.7h-0.9l-0.1,0.3l-0.4-0.1
			c0.4-0.7,0.8-1.6,1.1-2.2h-1.2v-0.4h1.5h0.1l0.3,0.1l-0.1,0.1c-0.2,0.5-0.6,1.2-0.9,1.8h0.9L192.5,58.1z M194.6,58.1v-0.6h-2v-0.4
			h2v-0.6h-1.4v-0.4h1.4v-0.6h0.6c0,0,0,0.1-0.1,0.1v0.5h1.6v1h0.6v0.4h-0.6v1H195v0.6h1.7v0.4H195v0.6h2v0.4h-2v0.8h-0.5v-0.8h-1.9
			v-0.4h1.9v-0.6H193v-0.4h1.6v-0.6h-1.5v-0.4L194.6,58.1z M195,56.6v0.6h1.1v-0.6H195z M196.1,58.1v-0.6H195v0.6H196.1z"/>
		<path class="st4" d="M200.4,56.8v0.4h-2.7v-0.4H200.4z M200.1,59.7v2.1h-1.7v0.3H198v-2.4H200.1z M198,58.1v-0.4h2.1v0.4H198z
			 M198,59.1v-0.4h2.1v0.4H198z M200.1,55.9v0.4H198v-0.4H200.1z M199.7,60.1h-1.3v1.3h1.3V60.1z M201.4,56.3v0.4
			c0,0.7-0.3,1.5-0.9,1.9c-0.1-0.1-0.2-0.2-0.3-0.3c0.5-0.3,0.9-0.9,0.8-1.6v-0.9h2.2v1.8c0,0.2,0,0.2,0.1,0.2h0.4
			c0.1,0,0.1-0.1,0.2-0.8c0.1,0.1,0.3,0.1,0.4,0.2c0,0.8-0.1,1-0.5,1h-0.5c-0.4,0-0.5-0.1-0.5-0.6v-1.3L201.4,56.3z M203.6,58.7
			l0.3,0.1c0,0,0,0-0.1,0.1c-0.2,0.8-0.6,1.5-1.2,2c0.5,0.4,1.1,0.7,1.7,0.8c-0.1,0.1-0.2,0.3-0.3,0.4c-0.6-0.2-1.2-0.5-1.7-0.9
			c-0.6,0.4-1.2,0.7-1.9,0.9c-0.1-0.2-0.2-0.3-0.3-0.4c0.6-0.2,1.2-0.4,1.8-0.8c-0.4-0.5-0.8-1-1-1.6l0.4-0.1c0.2,0.6,0.6,1.1,1,1.5
			c0.4-0.4,0.8-0.9,1-1.5h-2.8v-0.4L203.6,58.7L203.6,58.7z"/>
		<path class="st4" d="M210.2,57.2c0,0-0.1,0.1-0.1,0.1c-0.5,2-1.9,3.8-3.8,4.7c-0.1-0.1-0.2-0.3-0.4-0.4c1.7-0.8,3-2.3,3.6-4.2H207
			c-0.4,0.7-0.9,1.2-1.6,1.7c-0.1-0.1-0.3-0.2-0.4-0.3c1-0.8,1.8-1.9,2.2-3.1l0.7,0.2c0,0.1-0.1,0.1-0.2,0.1
			c-0.1,0.3-0.3,0.6-0.5,0.9h2.5h0.1L210.2,57.2z M209.3,55.6c0.4,0.3,0.7,0.6,0.9,1l-0.3,0.2c-0.3-0.4-0.6-0.7-0.9-1L209.3,55.6z
			 M210.3,55.4c0.4,0.3,0.7,0.6,0.9,1l-0.3,0.2c-0.3-0.4-0.6-0.7-0.9-1L210.3,55.4z"/>
		<path class="st4" d="M212.9,56.9c0,0.1-0.1,0.1-0.2,0.1c0,1.9-0.2,3.6-1.3,4.9l-0.4-0.3c1-1.1,1.2-2.9,1.2-4.8L212.9,56.9z
			 M214.7,61c1.1-0.6,2-1.6,2.4-2.8c0.1,0.1,0.3,0.2,0.4,0.3c-0.5,1.4-1.5,2.6-2.9,3.2c0,0.1-0.1,0.1-0.1,0.1l-0.4-0.5l0.1-0.1V56
			h0.6c0,0.1,0,0.1-0.1,0.1V61z"/>
		<path class="st4" d="M218.2,58.5h5.9V59h-5.6c-0.1,0.1-0.1,0.1-0.2,0.1L218.2,58.5z"/>
		<path class="st4" d="M224.2,56.6h4.5l0,0l0.5,0.4c0,0-0.1,0-0.1,0.1c-0.3,2.3-1.8,4.2-4,4.9c-0.1-0.1-0.2-0.3-0.3-0.4
			c2-0.6,3.4-2.3,3.7-4.4h-4.4L224.2,56.6z M229.6,55.4c0.4,0,0.8,0.3,0.8,0.8c0,0.4-0.3,0.8-0.8,0.8c0,0,0,0,0,0
			c-0.4,0-0.8-0.3-0.8-0.7c0,0,0,0,0,0C228.8,55.7,229.2,55.4,229.6,55.4C229.6,55.4,229.6,55.4,229.6,55.4z M230.1,56.2
			c0-0.3-0.2-0.5-0.5-0.5c-0.3,0-0.5,0.2-0.5,0.5c0,0.3,0.2,0.5,0.5,0.5C229.9,56.7,230.2,56.4,230.1,56.2z"/>
		<path class="st4" d="M170.9,66v4.8h-0.5v-0.4H166v-0.5h4.5v-3.5H166V66H170.9z"/>
		<path class="st4" d="M172.4,65.6c0.7,0.2,1.5,0.6,2.1,1l-0.3,0.4c-0.6-0.4-1.3-0.8-2.1-1L172.4,65.6z M172.4,70.5
			c2.2-0.6,4-2.1,5-4.2c0.1,0.1,0.3,0.2,0.5,0.3c-1,2.1-2.8,3.6-5,4.2c0,0.1,0,0.1-0.1,0.2L172.4,70.5z"/>
		<path class="st4" d="M178.4,65.9h4.6l0,0l0.5,0.4c0,0,0,0.1-0.1,0.1c-0.3,2.3-1.8,4.2-4,4.9c-0.1-0.1-0.2-0.3-0.3-0.4
			c2-0.6,3.4-2.3,3.7-4.4h-4.4L178.4,65.9z M183.8,64.6c0.4,0,0.8,0.3,0.8,0.7c0,0,0,0,0,0c0,0.4-0.3,0.8-0.8,0.8c0,0,0,0,0,0
			c-0.4,0-0.8-0.3-0.9-0.7c0-0.4,0.3-0.8,0.7-0.9C183.7,64.6,183.8,64.6,183.8,64.6z M184.4,65.4c0-0.3-0.2-0.5-0.5-0.5
			s-0.5,0.2-0.5,0.5c0,0.3,0.2,0.5,0.5,0.6C184.1,65.9,184.4,65.7,184.4,65.4L184.4,65.4z"/>
		<path class="st4" d="M190.2,67.3C190.2,67.3,190.2,67.4,190.2,67.3c-0.5,2-2,3.5-4,3.8c-0.1-0.1-0.2-0.3-0.3-0.4
			c1.7-0.2,3.1-1.5,3.6-3.1h-4.7v-0.5h4.9h0.1L190.2,67.3z M189.6,65.8h-4v-0.5h4V65.8z"/>
		<path class="st4" d="M196.7,65.5c0,0-0.1,0.1-0.1,0.1h-0.1c-0.6,0.6-1.3,1.2-2,1.7l0.2,0.1c0,0-0.1,0.1-0.1,0.1v3.8H194v-3.7
			c-0.9,0.6-1.8,1.1-2.7,1.6c-0.1-0.1-0.2-0.3-0.3-0.4c1.9-0.9,3.7-2.1,5.2-3.7L196.7,65.5z"/>
		<path class="st4" d="M203.1,65.6c0,0-0.1,0.1-0.1,0.1c-0.4,0.9-0.9,1.7-1.7,2.3c-0.1-0.1-0.3-0.2-0.4-0.3c0.6-0.4,1.1-1.1,1.4-1.8
			h-5.1v-0.5h5.3h0.1L203.1,65.6z M200.4,66.9c0,0-0.1,0.1-0.2,0.1c0,1.6-0.9,3.2-2.2,4.1c-0.1-0.1-0.3-0.2-0.4-0.3
			c1.4-0.8,2-2.3,2.1-4L200.4,66.9z"/>
		<path class="st4" d="M204,65.6c0.7,0.2,1.5,0.6,2.1,1l-0.3,0.4c-0.6-0.4-1.3-0.8-2.1-1L204,65.6z M204,70.5c2.2-0.6,4-2.1,5-4.2
			c0.1,0.1,0.3,0.2,0.5,0.3c-1,2.1-2.8,3.6-5,4.2c0,0.1,0,0.1-0.1,0.2L204,70.5z"/>
		<path class="st4" d="M214.5,65.7C214.5,65.8,214.5,65.8,214.5,65.7c-0.5,1-1,1.8-1.5,2.5c0.9,0.7,1.8,1.5,2.6,2.4l-0.4,0.4
			c-0.8-0.9-1.6-1.6-2.5-2.4c-0.8,0.9-1.7,1.7-2.7,2.4c-0.1-0.1-0.2-0.3-0.4-0.4c1.8-1.1,3.3-2.7,4.1-4.6h-3.5v-0.5h3.7h0.1
			L214.5,65.7z"/>
		<path class="st4" d="M117.1,22.9v0.4h-2.4v-0.4H117.1z M116.9,25.8v2.1h-1.5v0.3H115v-2.4H116.9z M115,24.2v-0.4h1.9v0.4H115z
			 M115,25.2v-0.4h1.9v0.4H115z M116.9,22v0.4H115V22H116.9z M116.5,26.2h-1.1v1.3h1.1V26.2z M117.1,24.4c0.3-0.1,0.9-0.4,1.4-0.7
			l0.1,0.4l-1.1,0.6c0,0,0,0.1-0.1,0.1L117.1,24.4z M117.6,21.9c0.3,0.2,0.6,0.5,0.9,0.8l-0.3,0.3c-0.2-0.3-0.5-0.6-0.8-0.9
			L117.6,21.9z M117.8,28.3v-2.7h3.1v2.7h-0.5v-0.4h-2.2v0.4L117.8,28.3z M120,22.9v0.5c0,0.8,0.6,1.4,1.3,1.7
			c-0.1,0.1-0.2,0.3-0.2,0.4c-0.7-0.2-1.2-0.7-1.4-1.4c-0.3,0.7-0.8,1.2-1.5,1.4c-0.1-0.1-0.1-0.3-0.2-0.4c1.4-0.5,1.5-1.4,1.5-1.7
			v-0.5h-0.4c-0.1,0.3-0.3,0.6-0.5,0.9c-0.1-0.1-0.2-0.2-0.3-0.2c0.4-0.5,0.7-1.1,0.8-1.8l0.5,0.1c0,0-0.1,0.1-0.2,0.1
			c-0.1,0.2-0.1,0.4-0.2,0.6h2c-0.1,0.4-0.2,0.8-0.4,1.2l-0.4-0.1c0.1-0.2,0.2-0.5,0.2-0.8L120,22.9z M120.3,26h-2.2v1.5h2.2V26z"/>
		<path class="st4" d="M124.7,24.5h-2.1v3.8h-0.5V22h2.6L124.7,24.5z M124.2,22.4h-1.6V23h1.6L124.2,22.4z M122.6,24.1h1.6v-0.7
			h-1.6L122.6,24.1z M126.4,27.2h-2.2v0.4h-0.4v-2.5h2.7V27.2z M125.9,25.6h-1.8v1.3h1.8V25.6z M128,22v5.6c0,0.3-0.1,0.5-0.3,0.6
			c-0.4,0.1-0.8,0.1-1.3,0.1c0-0.2-0.1-0.3-0.2-0.5h0.7c0.6,0,0.6,0,0.6-0.2v-3.1h-2.2V22H128z M127.5,22.4h-1.7V23h1.7V22.4z
			 M125.8,24.1h1.7v-0.7h-1.7V24.1z"/>
		<path class="st4" d="M116.8,63.5h0.9v0.4h-6.5v-0.4h0.8v-1.8h4.8L116.8,63.5z M111.8,61.2v0.3h-0.4v-3.6h3v0.4h-1.2v0.6h1.1v1.4
			h-1.1v0.6h1.3v0.4L111.8,61.2z M112.7,58.2h-0.9v0.6h0.9V58.2z M113.8,59.8v-0.7h-2v0.7H113.8z M112.7,60.8v-0.6h-0.9v0.6H112.7z
			 M112.4,62.1v1.4h1v-1.4H112.4z M114.9,62.1h-1v1.4h1V62.1z M117.7,59h-2.3c-0.2,0.4-0.4,0.8-0.6,1.1c-0.1-0.1-0.2-0.2-0.3-0.3
			c0.5-0.7,0.8-1.4,1-2.3l0.5,0.1c0,0.1-0.1,0.1-0.1,0.1c-0.1,0.3-0.2,0.6-0.2,0.8h2.1L117.7,59z M117.5,60.8H115v-0.4h2.4V60.8z
			 M116.3,62.1h-1v1.4h1V62.1z"/>
		<path class="st4" d="M120.9,59.1C120.9,59.1,120.8,59.1,120.9,59.1c-0.3,0.7-0.7,1.2-1.1,1.8c0.3,0.2,0.9,0.7,1,0.8l-0.3,0.4
			c-0.2-0.2-0.5-0.5-0.8-0.8v2.9h-0.5v-2.7c-0.3,0.3-0.6,0.6-0.9,0.8c-0.1-0.2-0.1-0.3-0.2-0.4c0.9-0.7,1.6-1.5,2.1-2.5h-1.9v-0.4h1
			v-1.4h0.6c0,0-0.1,0.1-0.2,0.1v1.2h0.7h0.1L120.9,59.1z M122.3,62.1c0,0-0.1,0.1-0.1,0.1c-0.1,0.9-0.7,1.7-1.6,1.9
			c-0.1-0.1-0.2-0.3-0.3-0.4c0.8-0.2,1.3-0.9,1.4-1.7L122.3,62.1z M123.3,63.4c0,0.2,0,0.2,0.2,0.2h0.6c0.2,0,0.2-0.1,0.2-0.9
			c0.1,0.1,0.3,0.2,0.4,0.2c0,0.9-0.2,1.1-0.6,1.1h-0.8c-0.5,0-0.6-0.1-0.6-0.6v-1.5h-1.6v-4h3v4h-1L123.3,63.4z M121.7,58.2v0.8
			h2.1v-0.8H121.7z M121.7,59.4v0.8h2.1v-0.8H121.7z M121.7,60.6v0.8h2.1v-0.8H121.7z"/>
		<path class="st4" d="M126.9,59.4c-0.1-0.3-0.2-0.6-0.3-0.8h-0.3c-0.2,0.3-0.4,0.6-0.7,0.9c-0.1-0.1-0.2-0.2-0.4-0.2
			c0.5-0.5,0.8-1.1,1-1.7l0.6,0.2c0,0-0.1,0.1-0.1,0.1s-0.1,0.3-0.2,0.4h1.9v0.4h-1.4c0.1,0.2,0.2,0.4,0.3,0.7L126.9,59.4z
			 M131.9,58.2v0.4h-1.7c0.2,0.2,0.3,0.4,0.4,0.7l-0.4,0.2c-0.1-0.3-0.3-0.6-0.5-0.9h-0.6c-0.1,0.2-0.3,0.4-0.5,0.6h0.3
			c0,0,0,0.1-0.1,0.1v0.4h2.3v0.4h-2.3v0.7h3v0.4h-1.4c0,0,0,0.1-0.1,0.1v0.6h1.3v0.4h-1.3v1.2c0,0.6-0.3,0.6-1.5,0.6
			c0-0.2-0.1-0.3-0.2-0.5h0.7c0.4,0,0.4,0,0.4-0.2v-1.2h-4.1v-0.4h4.1v-0.7h-4.4v-0.4h3v-0.7h-2.3v-0.4h2.3v-0.3
			c-0.1-0.1-0.3-0.2-0.4-0.3c0.5-0.4,0.9-1,1.2-1.7l0.6,0.2c0,0-0.1,0.1-0.1,0.1c-0.1,0.1-0.1,0.3-0.2,0.4L131.9,58.2z M127.9,63.8
			c-0.4-0.4-0.8-0.8-1.3-1.1l0.3-0.3c0.5,0.3,0.9,0.6,1.3,1L127.9,63.8z"/>
	</g>
</g>
</svg>
