<svg xmlns="http://www.w3.org/2000/svg" viewBox="0 0 239.53 107.72"><defs><style>.cls-1{fill:#e1f1f0;}.cls-2{fill:#addad6;}.cls-3{fill:#fff;}.cls-4{fill:#231815;}.cls-5{fill:#1cb3ac;}</style></defs><g id="レイヤー_2" data-name="レイヤー 2"><g id="レイヤー_2-2" data-name="レイヤー 2"><path class="cls-1" d="M231,28.35h-73.7a8.51,8.51,0,0,1-8.5-8.51V8.5a8.51,8.51,0,0,1,8.5-8.5H231a8.51,8.51,0,0,1,8.51,8.5V19.84A8.51,8.51,0,0,1,231,28.35"/><path class="cls-2" d="M104.88,107.72H14.17A14.18,14.18,0,0,1,0,93.54V14.17A14.18,14.18,0,0,1,14.17,0h90.71a14.17,14.17,0,0,1,14.17,14.17V93.54a14.17,14.17,0,0,1-14.17,14.18"/><path class="cls-3" d="M8.5,59.82V13.88A5.38,5.38,0,0,1,13.88,8.5h91a5.67,5.67,0,0,1,5.67,5.67V59.82a5.38,5.38,0,0,1-5.38,5.38H13.88A5.38,5.38,0,0,1,8.5,59.82"/><path class="cls-3" d="M8.5,93.83V76.24a5.37,5.37,0,0,1,5.38-5.37h91a5.67,5.67,0,0,1,5.67,5.67V93.83a5.38,5.38,0,0,1-5.38,5.38H13.88A5.38,5.38,0,0,1,8.5,93.83"/><path class="cls-4" d="M14.67,30.45A5.62,5.62,0,0,1,14.45,29a14.48,14.48,0,0,1,.26-2.57l.78.13c0,.1-.12.13-.22.14A11,11,0,0,0,15,28.94c0,.18,0,.32,0,.43.16-.39.45-.92.61-1.21a3.39,3.39,0,0,0,.31.34c-.58,1-.75,1.33-.75,1.66a1.5,1.5,0,0,0,0,.2Zm4.18-4.24c0,.09-.07.13-.2.17.05.68.13,1.81.13,2.7,0,1.51-.55,2.87-2.9,3.84a3.91,3.91,0,0,0-.39-.45c2.13-.81,2.7-2.1,2.7-3.38A29.15,29.15,0,0,0,18,26.17Z"/><path class="cls-4" d="M20.93,32.55c.58-1.66,1.54-4.42,1.84-5.24.15-.42.35-1,.41-1.21l.84.22c0,.11-.15.15-.3.15-.43,1.06-1.1,2.89-1.38,3.67h0a2.52,2.52,0,0,1,1.71-1c.68,0,1,.46,1,1.18l0,.93c0,.59.3.91.81.91.7,0,1.35-.81,1.71-2.15a3.7,3.7,0,0,0,.51.29c-.43,1.49-1.21,2.43-2.24,2.43a1.25,1.25,0,0,1-1.37-1.3c0-.15,0-.86,0-1,0-.49-.21-.75-.55-.75-.9,0-1.8,1.31-2,1.81-.1.28-.28.77-.42,1.23Z"/><path class="cls-4" d="M31.64,26.22c0,.1-.1.14-.25.14-.09.44-.23,1.2-.32,1.66.35,0,.67-.07.86-.07,1.19,0,1.59.78,1.59,1.95a6.29,6.29,0,0,1-.26,1.74,1.42,1.42,0,0,1-1.39,1.18,2.29,2.29,0,0,1-1.41-.68,2.49,2.49,0,0,0,.21-.47,2.09,2.09,0,0,0,1.19.59c.45,0,.71-.28.87-.78a6,6,0,0,0,.25-1.6c0-.89-.3-1.42-1.08-1.41a8.37,8.37,0,0,0-.95.08,15,15,0,0,1-1.6,4.21l-.51-.25a13,13,0,0,0,1.55-3.9c-.4.05-1,.12-1.39.19L29,28.25l1.55-.18c.12-.57.24-1.27.33-2ZM35.25,30a4.65,4.65,0,0,0-1.75-2.66l.42-.33a5,5,0,0,1,1.9,2.78Z"/><path class="cls-4" d="M37.75,26.9a.22.22,0,0,1-.21.13A11.93,11.93,0,0,0,37.39,29c0,.29,0,.57,0,.82.09,1.32.63,2.13,1.23,2.12.31,0,.72-.8,1-1.67a2.36,2.36,0,0,0,.45.33c-.36,1.06-.81,1.91-1.46,1.93-1,0-1.67-1.19-1.78-2.68,0-.3,0-.63,0-1a20.59,20.59,0,0,1,.11-2.09Zm5.17,3.63a3.88,3.88,0,0,0-2-2.93l.35-.43a4.3,4.3,0,0,1,2.19,3.18Z"/><path class="cls-4" d="M45.35,26.36h5.06v6.56h-.55v-.47h-4V33h-.54Zm4.51.53h-4v2.23h4Zm-4,5h4V29.64h-4Z"/><path class="cls-4" d="M57.73,27.19s-.08.07-.17.06c-.14.29-.35.7-.53,1h2.13v.46h-6v.77a6.93,6.93,0,0,1-.83,3.65,1.41,1.41,0,0,0-.4-.33,6.27,6.27,0,0,0,.72-3.32V28.24h1.56a4.12,4.12,0,0,0-.43-1.08l.44-.12H52.56v-.46h2.81v-.73l.67,0c0,.05,0,.09-.15.11v.58h2.88V27h-1.5ZM56.5,31.4v1.06h2.63v.46H53.46v-.46H56V31.4H54.18V31H56v-.87H54.45a4.52,4.52,0,0,1-.58.78,3,3,0,0,0-.4-.24,4.42,4.42,0,0,0,1-1.69l.59.18a.19.19,0,0,1-.16.07,4.58,4.58,0,0,1-.2.46H56v-.73l.67,0c0,.06,0,.09-.14.11v.58h2.16v.44H56.5V31h2v.44Zm.09-3.28A7.46,7.46,0,0,0,57.05,27H54.29a3.76,3.76,0,0,1,.46,1.08l-.4.12h2.54Z"/><path class="cls-4" d="M61.87,28.6l.3.1a.31.31,0,0,1-.05.1,9,9,0,0,1-.67,2.62,4.33,4.33,0,0,0,3.24.95H67.1a1.62,1.62,0,0,0-.21.51H64.68a4.77,4.77,0,0,1-3.46-1,3.89,3.89,0,0,1-1.07,1.22,2,2,0,0,0-.39-.37,3.54,3.54,0,0,0,1.11-1.24,4.82,4.82,0,0,1-.75-1.56l.41-.17A4.46,4.46,0,0,0,61.1,31a7.71,7.71,0,0,0,.48-1.91h-1l-.16.32-.49-.13c.41-.75.89-1.74,1.22-2.44H59.82v-.48h1.63l.1,0,.34.14-.06.1c-.24.5-.63,1.29-1,2h1Zm2.3,0V28H62v-.44h2.21V27H62.58v-.43h1.59v-.7l.67,0c0,.06,0,.1-.15.1v.56H66.4v1H67V28H66.4v1H64.69v.65h1.85v.42H64.69v.65h2.2v.43h-2.2v.87h-.52v-.87H62.06v-.43h2.11v-.65H62.41v-.42h1.76v-.65H62.52v-.43ZM64.69,27v.61h1.2V27Zm1.2,1.67V28h-1.2v.62Z"/><path class="cls-4" d="M70.57,27.17v.43h-3v-.43Zm-.28,3.18v2.29H68.41V33H68V30.35ZM68,28.66v-.43H70.3v.43Zm0,1.06v-.43H70.3v.43Zm2.33-3.59v.43H68v-.43Zm-.45,4.66H68.41V32.2h1.42Zm1.88-4.21v.49a2.3,2.3,0,0,1-1,2.05,2.11,2.11,0,0,0-.38-.35,1.86,1.86,0,0,0,.89-1.71v-1h2.46v2c0,.17,0,.2.16.2h.44c.15,0,.17-.1.19-.88a1.17,1.17,0,0,0,.44.2c0,.92-.17,1.14-.57,1.14h-.57c-.46,0-.59-.14-.59-.65v-1.5Zm2.4,2.68.35.14a.17.17,0,0,1-.06.08,5.07,5.07,0,0,1-1.35,2.26,5,5,0,0,0,1.87.89,2.48,2.48,0,0,0-.35.45,5.17,5.17,0,0,1-1.92-1,6,6,0,0,1-2,1,1.62,1.62,0,0,0-.29-.46,5.55,5.55,0,0,0,1.94-.9,5.57,5.57,0,0,1-1.16-1.81l.47-.15a4.6,4.6,0,0,0,1.08,1.63,4.51,4.51,0,0,0,1.1-1.64H70.68v-.49h3.43Z"/><path class="cls-4" d="M81.7,27.62a.34.34,0,0,1-.12.12A8,8,0,0,1,77.36,33a1.92,1.92,0,0,0-.39-.43,7.21,7.21,0,0,0,3.92-4.59H78.14a7.77,7.77,0,0,1-1.73,1.9,3.11,3.11,0,0,0-.43-.35,7.7,7.7,0,0,0,2.47-3.41l.73.2c0,.08-.12.11-.22.1a10,10,0,0,1-.51,1h2.71l.09-.05Zm-1-1.79a5.49,5.49,0,0,1,1,1.1l-.29.25a5.19,5.19,0,0,0-1-1.1Zm1.13-.23a5.27,5.27,0,0,1,1,1.11L82.6,27a5.76,5.76,0,0,0-1-1.1Z"/><path class="cls-4" d="M85.3,27.29c0,.07-.08.12-.18.13-.05,2.1-.22,4-1.42,5.41a3.46,3.46,0,0,0-.47-.3c1.17-1.26,1.31-3.21,1.33-5.31Zm2,4.49a5.17,5.17,0,0,0,2.6-3.13,3,3,0,0,0,.48.3,5.81,5.81,0,0,1-3.18,3.53.38.38,0,0,1-.13.15l-.41-.51.09-.12V26.28l.72,0a.18.18,0,0,1-.17.15Z"/><path class="cls-4" d="M91.31,29.05h6.51v.56H91.61a.38.38,0,0,1-.25.15Z"/><path class="cls-4" d="M99.49,27h5l0,0,.53.4a.16.16,0,0,1-.09.07c-.64,2.93-2,4.46-4.38,5.37a2.66,2.66,0,0,0-.35-.46,5.92,5.92,0,0,0,4.09-4.82H99.49Zm6-1.39a.85.85,0,1,1-.86.85A.86.86,0,0,1,105.44,25.62Zm.59.85a.6.6,0,0,0-.59-.6.6.6,0,1,0,0,1.2A.59.59,0,0,0,106,26.47Z"/><path class="cls-4" d="M19.3,40.8v5.28h-.57v-.43H13.82v-.52h4.91V41.32H13.89V40.8Z"/><path class="cls-4" d="M21.76,40.34a9.57,9.57,0,0,1,2.32,1.06l-.29.49a9.85,9.85,0,0,0-2.28-1.08Zm0,5.4a8.28,8.28,0,0,0,5.54-4.56,3.16,3.16,0,0,0,.51.31,8.94,8.94,0,0,1-5.52,4.68.28.28,0,0,1-.11.18Z"/><path class="cls-4" d="M29.34,40.65h5l0,0,.53.4a.11.11,0,0,1-.09.07c-.63,2.94-2,4.46-4.37,5.37a4.06,4.06,0,0,0-.36-.46,5.91,5.91,0,0,0,4.09-4.82h-4.8Zm5.94-1.39a.85.85,0,1,1-.86.85A.85.85,0,0,1,35.28,39.26Zm.59.85a.59.59,0,0,0-.59-.6.6.6,0,0,0,0,1.2A.59.59,0,0,0,35.87,40.11Z"/><path class="cls-4" d="M43,42.24a.2.2,0,0,1-.1.08,5.38,5.38,0,0,1-4.28,4.15,2.09,2.09,0,0,0-.33-.45c2.13-.53,3.44-1.62,3.93-3.43H37v-.53h5.4L42.5,42Zm-.74-1.67H37.78v-.51h4.44Z"/><path class="cls-4" d="M50.84,40.21a.18.18,0,0,1-.15.06h-.08a18.87,18.87,0,0,1-2.22,1.87l.19.08a.19.19,0,0,1-.17.1V46.5h-.57v-4a22.36,22.36,0,0,1-3,1.74,3.28,3.28,0,0,0-.33-.43,19.62,19.62,0,0,0,5.71-4Z"/><path class="cls-4" d="M58.92,40.42s-.06,0-.1.07A6.59,6.59,0,0,1,57,43a3.23,3.23,0,0,0-.47-.32,4.73,4.73,0,0,0,1.55-1.93H52.47V40.2h5.87l.09,0Zm-3,1.42c0,.06-.08.11-.18.13-.23,1.84-.86,3.59-2.46,4.52a4.61,4.61,0,0,0-.46-.36c1.59-.87,2.16-2.5,2.34-4.38Z"/><path class="cls-4" d="M60.74,40.34a9.75,9.75,0,0,1,2.32,1.06l-.3.49a9.76,9.76,0,0,0-2.27-1.08Zm0,5.4a8.32,8.32,0,0,0,5.55-4.56,2.49,2.49,0,0,0,.51.31,8.94,8.94,0,0,1-5.52,4.68.28.28,0,0,1-.11.18Z"/><path class="cls-4" d="M73.33,40.51a.22.22,0,0,1-.1.09,12.28,12.28,0,0,1-1.56,2.68,29.7,29.7,0,0,1,2.85,2.64l-.48.42a24.94,24.94,0,0,0-2.73-2.62,12.5,12.5,0,0,1-3,2.62,2.7,2.7,0,0,0-.41-.42,11.17,11.17,0,0,0,4.57-5.1H68.64v-.53h4.13l.1,0Z"/><path class="cls-4" d="M82.6,43.78H80.86a4.38,4.38,0,0,0,1.83,1.28,1.9,1.9,0,0,0-.34.41,4.92,4.92,0,0,1-2-1.69H77.78a5.47,5.47,0,0,1-2.07,1.79,2.57,2.57,0,0,0-.34-.4,5,5,0,0,0,1.83-1.39H75.45v-.45H77.1V40.78H75.8v-.45h1.3v-.84l.68,0c0,.06-.06.09-.16.11v.69h2.8v-.84l.69,0c0,.06-.06.1-.16.11v.69h1.29v.45H81v2.55H82.6ZM79.27,45.2v.89H82v.45h-6v-.45h2.69V45.2H77.08v-.44h1.66V44l.68,0s0,.09-.15.11v.59H81v.44Zm1.15-4.42h-2.8v.57h2.8Zm-2.8,1v.58h2.8v-.58Zm0,1v.59h2.8v-.59Z"/><path class="cls-4" d="M90.26,41.71H87.41A7.21,7.21,0,0,0,90.52,45a1.94,1.94,0,0,0-.39.46,7.8,7.8,0,0,1-3-3.33v2.56h1.56v.53H87.08v1.51h-.55V45.22H85v-.53h1.58V42.15a8.38,8.38,0,0,1-3,3.32,2.6,2.6,0,0,0-.38-.43,7.62,7.62,0,0,0,3.08-3.33H83.38v-.53h3.15V39.5l.7,0c0,.05,0,.09-.15.11v1.53h3.18Z"/><path class="cls-4" d="M92.81,43.26a5.73,5.73,0,0,1-.07.58c.32.31,1.12,1.2,1.31,1.43l-.36.4c-.2-.29-.69-.9-1-1.31a3.84,3.84,0,0,1-1.31,2.2,2.6,2.6,0,0,0-.36-.39,3.83,3.83,0,0,0,1.35-2.91H91v-.49h1.36c0-.19,0-.38,0-.56v-.86H91.18v-.48h1.17V39.5l.64,0s0,.08-.14.1v1.22H94v.48H92.85v.85c0,.18,0,.38,0,.57h1.3v.49Zm2.83,1.24a.17.17,0,0,1-.15.09,2.5,2.5,0,0,1-1.89,2.14,1.67,1.67,0,0,0-.29-.38A2.09,2.09,0,0,0,95,44.43Zm1.17,1.43c0,.18,0,.2.21.2h.56c.19,0,.22-.11.24-1.06a1.38,1.38,0,0,0,.44.21c0,1.06-.17,1.33-.63,1.33H97c-.52,0-.63-.15-.63-.69V44.18H94.45V39.8h3.36v4.38h-1Zm-1.87-5.64v.83h2.37v-.83Zm0,1.27v.85h2.37v-.85Zm0,1.28v.86h2.37v-.86Z"/><path class="cls-4" d="M100.41,45.23c0,.05-.07.07-.16.07a5,5,0,0,1-1.09,1.43,2.64,2.64,0,0,0-.4-.31,4,4,0,0,0,1-1.39Zm-1.19-5.44h3v5h-3Zm.5.48v1h2v-1Zm0,1.48v1h2v-1Zm0,1.48v1.06h2V43.23Zm1.91,1.8a6.81,6.81,0,0,1,.91,1.35,3.54,3.54,0,0,1-.48.25,6,6,0,0,0-.89-1.4Zm1.55-4.59.66,0c0,.06,0,.09-.14.11V44.8h-.52Zm2-.8.67,0c0,.06,0,.09-.15.11V46c0,.37-.11.54-.34.62a5.07,5.07,0,0,1-1.41.1,2,2,0,0,0-.2-.53h.77c.63,0,.66,0,.66-.2Z"/><path class="cls-4" d="M27.09,82.56v5.28h-.57v-.43H21.61v-.52h4.91V83.08H21.69v-.52Z"/><path class="cls-4" d="M29.56,82.1a9.75,9.75,0,0,1,2.32,1.06l-.3.49a9.76,9.76,0,0,0-2.27-1.08Zm0,5.4a8.32,8.32,0,0,0,5.55-4.56,2.49,2.49,0,0,0,.51.31,8.94,8.94,0,0,1-5.53,4.68.24.24,0,0,1-.1.18Z"/><path class="cls-4" d="M37.13,82.41h5l0,0,.53.4a.13.13,0,0,1-.09.07c-.64,2.94-2,4.46-4.38,5.37a3.1,3.1,0,0,0-.35-.46A5.91,5.91,0,0,0,41.94,83H37.13ZM43.07,81a.85.85,0,1,1-.85.85A.85.85,0,0,1,43.07,81Zm.6.85a.6.6,0,0,0-.6-.6.61.61,0,0,0-.6.6.62.62,0,0,0,.6.61A.6.6,0,0,0,43.67,81.87Z"/><path class="cls-4" d="M50.75,84a.14.14,0,0,1-.1.08,5.37,5.37,0,0,1-4.27,4.15,2.09,2.09,0,0,0-.33-.45c2.12-.53,3.44-1.63,3.93-3.43H44.82v-.53h5.39l.08,0ZM50,82.33H45.58v-.51H50Z"/><path class="cls-4" d="M58.63,82a.16.16,0,0,1-.14.06h-.08a19.72,19.72,0,0,1-2.22,1.87l.18.08a.17.17,0,0,1-.17.1v4.19h-.57v-4a21.15,21.15,0,0,1-3,1.74,3.28,3.28,0,0,0-.33-.43,19.81,19.81,0,0,0,5.72-4Z"/><path class="cls-4" d="M66.72,82.18a.26.26,0,0,1-.1.07,6.69,6.69,0,0,1-1.85,2.49,4,4,0,0,0-.48-.32,4.63,4.63,0,0,0,1.55-1.93H60.26V82h5.88l.09,0Zm-3,1.42c0,.06-.08.11-.18.13-.23,1.84-.86,3.59-2.47,4.52a4.61,4.61,0,0,0-.46-.36c1.59-.87,2.16-2.5,2.35-4.38Z"/><path class="cls-4" d="M68.53,82.1a9.83,9.83,0,0,1,2.33,1.06l-.3.49a9.65,9.65,0,0,0-2.28-1.08Zm0,5.4A8.28,8.28,0,0,0,74,82.94a3.16,3.16,0,0,0,.51.31A8.92,8.92,0,0,1,69,87.93a.25.25,0,0,1-.11.18Z"/><path class="cls-4" d="M81.12,82.27a.15.15,0,0,1-.1.09A11.89,11.89,0,0,1,79.46,85a29.81,29.81,0,0,1,2.86,2.64l-.48.42a25,25,0,0,0-2.74-2.62,12.31,12.31,0,0,1-3,2.62,2.25,2.25,0,0,0-.4-.42,11.23,11.23,0,0,0,4.57-5.1H76.44v-.53h4.13l.1,0Z"/><path class="cls-4" d="M85,85a5.7,5.7,0,0,1-.06.58c.31.31,1.11,1.2,1.31,1.43l-.37.4a15.82,15.82,0,0,0-1-1.31,3.89,3.89,0,0,1-1.31,2.19,3.15,3.15,0,0,0-.36-.38A3.86,3.86,0,0,0,84.52,85H83.19v-.49h1.35c0-.19,0-.38,0-.56v-.86H83.38v-.48h1.17V81.26l.65,0s0,.08-.15.1v1.22h1.13v.48H85.05V84c0,.18,0,.38,0,.57h1.3V85Zm2.83,1.24s-.06.08-.15.09a2.48,2.48,0,0,1-1.88,2.14,2.08,2.08,0,0,0-.3-.38,2.1,2.1,0,0,0,1.71-1.92ZM89,87.69c0,.18,0,.2.21.2h.56c.19,0,.23-.11.25-1.06a1.38,1.38,0,0,0,.44.21c0,1.06-.17,1.33-.63,1.33h-.68c-.52,0-.64-.15-.64-.69V85.94H86.66V81.56H90v4.38H89Zm-1.86-5.64v.83h2.36v-.83Zm0,1.27v.85h2.36v-.85Zm0,1.28v.86h2.36V84.6Z"/><path class="cls-4" d="M92.83,84.54c.26.24,1,1,1.12,1.19l-.32.4a12.2,12.2,0,0,0-.8-1.07v3.43h-.51V84.83a9.07,9.07,0,0,1-1.09,2.25,2.43,2.43,0,0,0-.28-.47A9,9,0,0,0,92.19,84H91v-.49h1.29V82.22c-.39.11-.78.21-1.16.29a1.32,1.32,0,0,0-.17-.39,9.65,9.65,0,0,0,2.5-.88l.48.39s0,0-.09,0h-.07a5.87,5.87,0,0,1-1,.39v1.49h1.08V84H92.83Zm3.4,3.28h2v.46H93.7v-.46h2V86.71H94.15v-.46h1.56v-1H94v-.47H98v.47H96.23v1h1.62v.46H96.23Zm1.51-6.2v2.5H94.25v-2.5Zm-.5,2V82.09h-2.5v1.57Z"/><path class="cls-4" d="M156.65,14a9.34,9.34,0,0,1-.93.95,2.85,2.85,0,0,0-.29-.45,10,10,0,0,0,2-2.51l.59.24a.17.17,0,0,1-.18.07,9.81,9.81,0,0,1-.72,1.05l.15,0c0,.05-.06.09-.16.1v4h-.51Zm1.18-3.46a.17.17,0,0,1-.17.06,12.08,12.08,0,0,1-1.9,1.78,3.08,3.08,0,0,0-.3-.41,8.16,8.16,0,0,0,1.77-1.69Zm4,3.22.37.17a.2.2,0,0,1-.08.08,5.1,5.1,0,0,1-1.53,2.15,5.86,5.86,0,0,0,2.24.9,2.24,2.24,0,0,0-.35.46,5.85,5.85,0,0,1-2.3-1,7.56,7.56,0,0,1-2.23,1,2.21,2.21,0,0,0-.3-.45,6.81,6.81,0,0,0,2.12-.94,5,5,0,0,1-1.18-1.77l.35-.11h-.81v-.48h3.61ZM159.26,11v.48a2.33,2.33,0,0,1-1,2.09,1.46,1.46,0,0,0-.41-.32,1.9,1.9,0,0,0,.94-1.78v-.94h2.71v1.91c0,.27,0,.3.2.3H162c.31,0,.31,0,.34-.83a1.69,1.69,0,0,0,.4.21c0,.72,0,1.07-.71,1.07h-.43c-.61,0-.61-.36-.61-.79V11Zm-.24,3.2a4.36,4.36,0,0,0,1.14,1.58,4.72,4.72,0,0,0,1.26-1.58Z"/><path class="cls-4" d="M166.1,11.08h-.52v6.41h-.46V15.91c-.61.15-1.19.3-1.59.38a.13.13,0,0,1-.09.12l-.2-.56.49-.09V11.08h-.46v-.49h2.83Zm-1,1.17V11.08h-.94v1.17Zm0,1.64V12.7h-.94v1.19Zm-.94.45v1.33l.94-.2V14.34Zm5-1c0,.61.08,1.18.15,1.68a7.08,7.08,0,0,0,.51-1.36l.56.14c0,.06-.07.08-.16.09a7.29,7.29,0,0,1-.81,1.84c.14.8.33,1.29.56,1.29s.22-.38.25-1.2a1,1,0,0,0,.34.26c-.08,1.06-.22,1.41-.64,1.41s-.68-.47-.87-1.26a4.93,4.93,0,0,1-1.35,1.23,1.59,1.59,0,0,0-.3-.34,4.56,4.56,0,0,0,1.53-1.47,20,20,0,0,1-.22-2.31h-3v-.44h3c0-.84-.05-1.75-.06-2.66l.62,0c0,.06,0,.1-.14.11,0,.86,0,1.72,0,2.52h1.37v.44ZM166,11.13h1v-.89l.61,0c0,.06-.05.1-.15.11v.74h1v.42H166Zm2.23,5.37H166.6V17h-.43V13.85h2Zm-1.61-4.85a3.71,3.71,0,0,1,.3,1.14l-.39.11a4.21,4.21,0,0,0-.28-1.17Zm1.17,2.61H166.6V15h1.15Zm-1.15,1.83h1.15v-.74H166.6Zm1.68-4.31c0,.05-.07.07-.16.08a7.85,7.85,0,0,1-.38,1.05l-.33-.12a8.79,8.79,0,0,0,.34-1.17Zm1.4-1.24a5,5,0,0,1,.85,1.29l-.39.22a5.12,5.12,0,0,0-.83-1.32Z"/><path class="cls-4" d="M174,16.52a.25.25,0,0,1-.16.05,9.5,9.5,0,0,1-2.3.92c-.09-.1-.26-.28-.38-.39a7.94,7.94,0,0,0,2.3-.9Zm-2-3.72h5.57v3.38h-5.57Zm.44-2.24h4.68v1.76h-4.68Zm.08,2.64v.6H177v-.6Zm0,1v.61H177v-.61Zm0,1v.62H177v-.62ZM172.9,11v.87h3.61V11Zm5,6.51a20.43,20.43,0,0,0-2.5-.94l.46-.35a23.92,23.92,0,0,1,2.48.91Z"/><path class="cls-4" d="M182.94,11.67a.22.22,0,0,1-.2.12c-.28,2.43-1.09,4.54-2.39,4.54-.65,0-1.24-.65-1.24-1.88A3.42,3.42,0,0,1,182.62,11,2.88,2.88,0,0,1,185.84,14c0,1.86-1.07,2.76-3,3.19a2.92,2.92,0,0,0-.33-.47c1.8-.35,2.72-1.22,2.72-2.69a2.39,2.39,0,0,0-2.65-2.46l-.24,0Zm-.75-.1a2.86,2.86,0,0,0-2.55,2.86c0,.83.36,1.36.73,1.36C181.31,15.79,182,13.71,182.19,11.57Z"/><path class="cls-4" d="M188.2,13.38v2.56c.6.94,1.78.94,3.2.94.88,0,1.91,0,2.54-.06a1.9,1.9,0,0,0-.18.49c-.55,0-1.44,0-2.25,0-1.66,0-2.76,0-3.53-1-.34.35-.71.69-1,1a.11.11,0,0,1-.07.12l-.29-.54A13.91,13.91,0,0,0,187.7,16V13.87h-1v-.49Zm-1-2.94a5.17,5.17,0,0,1,1.23,1.32l-.43.3a5.72,5.72,0,0,0-1.21-1.36Zm3.15,5.85a4,4,0,0,0-.9-.82l.21-.16h-1v-.4H192v-.49h-2.89V11.88h1.32v-.45h-1.72V11h1.5a3.33,3.33,0,0,0-.48-.6l.41-.18a2.69,2.69,0,0,1,.59.77h1a7.62,7.62,0,0,0,.52-.79l.58.19c0,.05-.07.07-.15.07l-.43.53h1.53v.39h-1.84v.45h1.42v2.54h-.75a.2.2,0,0,1-.13.06v.43h1.37v.4h-1.37v.76c0,.47-.21.48-1.26.48a1.37,1.37,0,0,0-.15-.38h.57c.31,0,.35,0,.35-.11v-.76h-2.06a3.56,3.56,0,0,1,.77.69Zm.5-4.06a1.26,1.26,0,0,1-.79,1,2.16,2.16,0,0,0-.36-.22,1.07,1.07,0,0,0,.71-.8h-.83v1.12h3.32v-.47a.39.39,0,0,1-.36.15H192c-.41,0-.51-.1-.51-.5v-.3Zm-1.27,1.44v.41h3.32v-.41Zm1.29-2.24v.45h.67v-.45Zm2,.8h-.94v.3c0,.13,0,.15.15.15h.37c.09,0,.12,0,.14-.21a1,1,0,0,0,.28.12Z"/><path class="cls-4" d="M201.61,13.4v.52h-2.12V16.8c0,.37-.1.52-.36.61a5.88,5.88,0,0,1-1.49.09,2.22,2.22,0,0,0-.2-.52h.82c.63,0,.69,0,.69-.19V13.92h-4.41V13.4H199V12.12l.69,0c0,.06,0,.09-.15.11V13.4Zm-6.28-1.68v1.13h-.53V11.21h3v-1l.7,0c0,.05-.05.09-.16.11v.81h3v1.64h-.55V11.72Zm1.57,4.59a7.3,7.3,0,0,0-1.31-1.69l.42-.27A7.45,7.45,0,0,1,197.33,16Z"/><path class="cls-4" d="M209.45,14.85v.43h-.83v1.41h-.53v-.36h-2v.53c0,.35-.1.49-.33.57a5.3,5.3,0,0,1-1.32.08,2.16,2.16,0,0,0-.19-.45h.79c.47,0,.52,0,.52-.2v-.54H203v-.41h2.6v-.64h-3.27v-.43h3.27v-.59h-2.53v-.4h2.53v-.52h-2.29V11.83h2.29v-.49h-3.13V10.9h3.13v-.66l.68,0c0,.06,0,.1-.15.11v.51h3.19v.44h-3.19v.49h2.4v1.51h-2.4v.52h2.51v1ZM203.79,13h1.79v-.74h-1.79Zm4.18-.74h-1.86V13H208Zm-1.86,2v.59h2v-.59Zm2,1.66v-.64h-2v.64Z"/><path class="cls-4" d="M211.73,14.9l1.19-.41.08.45c-1,.37-2,.75-2.64,1a.14.14,0,0,1-.09.13l-.28-.57,1.22-.39V11.67h-1.07v-.49h2.68v.49h-1.09Zm2.88,1.56s-.08.05-.15.06a6.33,6.33,0,0,1-1.91,1,2.33,2.33,0,0,0-.34-.37,6.29,6.29,0,0,0,1.89-.95Zm-1.37-4.53h1.31c.07-.26.14-.56.2-.83h-1.9v-.47h4.46v.47h-2c-.06.24-.16.55-.25.83H217V16h-3.76Zm3.25,1.23v-.82h-2.75v.82Zm0,1.22v-.82h-2.75v.82Zm0,1.23v-.83h-2.75v.83Zm.54,1.9a10.2,10.2,0,0,0-1.59-1l.39-.29a9.67,9.67,0,0,1,1.61,1Z"/><path class="cls-4" d="M220.86,10.48c0,.06-.1.12-.24.13-.06.34-.13.75-.2,1.05a10.53,10.53,0,0,0,2.3-.38l.08.53a15.47,15.47,0,0,1-2.48.37A11.54,11.54,0,0,1,218.67,16l-.52-.21a10.44,10.44,0,0,0,1.58-3.61h-1.55v-.51h1.64a10.69,10.69,0,0,0,.22-1.32Zm2.07,3.32c0,.63.06,1.06.11,1.6a8.27,8.27,0,0,1,1.66.9l-.29.5A7.09,7.09,0,0,0,223,16c0,.78-.32,1.39-1.46,1.39-.87,0-1.53-.39-1.52-1.12s.81-1.16,1.53-1.16a3.57,3.57,0,0,1,.88.14c0-.5-.07-1-.07-1.37Zm-.43,1.95a2.42,2.42,0,0,0-.92-.18c-.47,0-1,.19-1,.67s.43.65,1,.65.92-.27.92-.78C222.51,16,222.51,15.86,222.5,15.75ZM224.64,13a10.51,10.51,0,0,0-2.76.38l-.08-.49a10.69,10.69,0,0,1,2.81-.42Z"/><path class="cls-4" d="M231.73,13h-.07a.33.33,0,0,1-.16,0c-2.31.68-4.41,1.7-4.4,2.74,0,.75.82,1,2.09,1a18.2,18.2,0,0,0,2.76-.18l0,.57a26,26,0,0,1-2.79.14c-1.54,0-2.66-.36-2.67-1.5,0-.84.82-1.57,2.05-2.2a7.46,7.46,0,0,1-.36-3.15l.86.07c0,.11-.09.17-.25.19a7.07,7.07,0,0,0,.26,2.64,21,21,0,0,1,2.44-.94Zm-1-2.43a4.94,4.94,0,0,1,1,1.16l-.34.22a5.11,5.11,0,0,0-.95-1.16Zm1-.45a4.69,4.69,0,0,1,1,1.16l-.32.21a4.92,4.92,0,0,0-1-1.13Z"/><path class="cls-4" d="M128.84,7.19v1h1.9v.48h-1.9v.78h1.59v2.2c0,.51-.21.54-1.16.54a1.14,1.14,0,0,0-.14-.44h.45c.33,0,.37,0,.37-.11V9.89h-1.11v2.86h-.49V9.89h-1.06v2.26h-.49V9.41h1.55V8.63h-2V8.15h2v-1h-1a5.9,5.9,0,0,1-.34.94,3.42,3.42,0,0,0-.43-.21,8.93,8.93,0,0,0,.58-2.2l.63.16s-.07.08-.17.08a6.94,6.94,0,0,1-.15.74h.93V5.52l.65.05s-.05.08-.16.1v1h1.6v.49Zm2.94-.68s-.05.09-.15.1v4.22h-.5V6.47Zm1-.84.66,0s-.05.09-.15.11v6.26c0,.67-.35.7-1.57.68a3.14,3.14,0,0,0-.18-.51h.76c.41,0,.48,0,.48-.18Z"/><path class="cls-4" d="M138.05,10.32V12a7.24,7.24,0,0,0,1.36.1h2a1.62,1.62,0,0,0-.2.53h-1.83c-1.67,0-2.89-.29-3.61-1.69a3.93,3.93,0,0,1-1.23,1.83,2.3,2.3,0,0,0-.4-.34,4.64,4.64,0,0,0,1.49-3.28l.67.11c0,.05-.06.09-.15.09-.05.31-.11.62-.18.91a2.49,2.49,0,0,0,1.54,1.59V8.44h-2v-.5h4.59v.5h-2.06V9.82h2.39v.5ZM135,7V8.14h-.51V6.46h3v-1l.71,0s-.05.09-.16.11v.8h3V8.14h-.54V7Z"/><path class="cls-4" d="M128,48l1-.28.06.45-1,.33v2.36c0,.61-.31.65-1.35.65a1.65,1.65,0,0,0-.17-.5H127c.55,0,.55,0,.55-.16V48.66l-.89.27a.17.17,0,0,1-.1.13l-.2-.61,1.19-.31V46.38h-1.11v-.49h1.11V44.26l.65,0c0,.06-.05.09-.15.11v1.48H129v.49H128Zm5.13-.14.28,0a.5.5,0,0,1,0,.16c-.13,2.17-.26,2.95-.51,3.21s-.35.24-.8.24l-.71,0a1.18,1.18,0,0,0-.14-.45c.4,0,.78,0,.93,0a.36.36,0,0,0,.29-.09c.18-.19.32-.89.44-2.66h-3q-.1.16-.21.3l.32,0c0,.06-.05.09-.14.11v.58a9,9,0,0,0,1.5-.59l.39.36-.06,0h-.08a10.79,10.79,0,0,1-1.75.59v.38c0,.18,0,.21.36.21h1.1c.23,0,.27-.07.29-.59a1.69,1.69,0,0,0,.43.18c0,.67-.2.85-.68.85h-1.19c-.62,0-.78-.14-.78-.65V49a5.64,5.64,0,0,1-.66.64,2.83,2.83,0,0,0-.35-.34,5.75,5.75,0,0,0,1.59-2.1h-.69V44.5h3.84v2.68h-2.47a.17.17,0,0,1-.18.07c-.09.21-.19.41-.3.61h3Zm-3.39-3v.73h2.84V44.9Zm0,1.12v.75h2.84V46Z"/><path class="cls-4" d="M136.21,48.36s-.08.07-.17.07a7.41,7.41,0,0,1-1.57,2.39,3.65,3.65,0,0,0-.43-.31,6.32,6.32,0,0,0,1.51-2.37Zm5.07-1h-3.22v3.49c0,.35-.09.51-.35.59a5.86,5.86,0,0,1-1.41.09,2,2,0,0,0-.19-.52H137c.51,0,.54,0,.54-.17V47.33h-3.2v-.52h7Zm-.7-2.49v.51H135v-.51Zm.31,5.95a9.9,9.9,0,0,0-1.42-2.45l.48-.21a9.86,9.86,0,0,1,1.47,2.42Z"/><path class="cls-1" d="M231,68h-73.7a8.51,8.51,0,0,1-8.5-8.5V48.19a8.51,8.51,0,0,1,8.5-8.51H231a8.51,8.51,0,0,1,8.51,8.51V59.53A8.51,8.51,0,0,1,231,68"/><path class="cls-4" d="M170.37,51.6s-.05.06-.09.08a8.17,8.17,0,0,1-1.12,1.84c.37.25,1.14.81,1.34,1l-.31.44c-.22-.22-.72-.63-1.1-.94v3.2h-.52v-3a8,8,0,0,1-1.23,1,1.77,1.77,0,0,0-.28-.46,7.4,7.4,0,0,0,2.58-2.84h-2.38v-.48h1.31V49.93l.67,0c0,.05-.05.09-.15.11v1.34h.84l.09,0Zm2.24,4.83h1.88v.51H170v-.51h2.05V53.05h-1.74v-.51h1.74V50l.69.05c0,.06-.06.1-.16.11v2.4h1.72v.51h-1.72Z"/><path class="cls-4" d="M181.76,51.29v5.17c0,.37-.09.54-.35.64a6.36,6.36,0,0,1-1.46.09,2.17,2.17,0,0,0-.19-.54l.8,0c.64,0,.67,0,.67-.21V51.8h-2.44a5.08,5.08,0,0,1-.13,1,23.26,23.26,0,0,1,2.28,2.25l-.43.34a20.82,20.82,0,0,0-2-2.08,4.25,4.25,0,0,1-2,2.22,1.79,1.79,0,0,0-.38-.4,3.63,3.63,0,0,0,2.12-3.33H176v5.39h-.52v-5.9h2.84V49.92l.69,0c0,.05-.05.09-.16.11v1.21Z"/><path class="cls-4" d="M186.1,53.46V51.61h-2.57v1.14h-.47V51.22h3v-.53h-2.6v-.42h5.76v.42h-2.65v.53h3.11v1.53h-.5V51.61h-2.61v1.85Zm.48,2.89c0,.26.1.32.61.32H189c.43,0,.5-.14.54-1a1.43,1.43,0,0,0,.46.18c-.08,1-.25,1.21-1,1.21h-1.87c-.85,0-1.09-.14-1.09-.76v-.27h-1.85v.41h-.5V53.74h5.35v2.33h-2.5Zm-2.77-3.11v-.35h1.86v.35Zm.16-1.17h1.69v.36H184Zm2.11,2.06h-1.85v.58h1.85Zm-1.85,1.54h1.85v-.59h-1.85Zm4.32-1v-.58h-2v.58Zm-2,1h2v-.59h-2Zm.48-3.6h1.73v.36h-1.73Zm0,1.17v-.35H189v.35Z"/><path class="cls-4" d="M197.76,53.48V54h-3.3v2.47c0,.38-.1.53-.38.63a7.15,7.15,0,0,1-1.56.09,2.15,2.15,0,0,0-.23-.55l1.08,0c.49,0,.55,0,.55-.21V54h-3.31v-.52h3.31V52.2h.31A9.73,9.73,0,0,0,196,51h-4.59v-.52h5.18l.09,0,.47.31s-.09.06-.13.07a12.4,12.4,0,0,1-2.57,1.81v.84Z"/><path class="cls-4" d="M200,53.67l1-.28.07.45-1,.32v2.37c0,.61-.31.65-1.35.65a1.8,1.8,0,0,0-.17-.51H199c.55,0,.55,0,.55-.16V54.33l-.89.27a.17.17,0,0,1-.1.13l-.2-.61,1.19-.31V52.05h-1.11v-.49h1.11V49.93l.65,0c0,.06,0,.09-.15.11v1.48H201v.49H200Zm5.13-.15.28,0a.5.5,0,0,1,0,.16c-.13,2.17-.26,2.94-.51,3.21s-.35.23-.8.23c-.21,0-.46,0-.71,0a1,1,0,0,0-.14-.45c.4,0,.78,0,.93,0a.33.33,0,0,0,.29-.1c.18-.18.32-.88.44-2.65h-3l-.21.3.32,0c0,.06-.05.09-.14.1V55a9,9,0,0,0,1.5-.59l.39.35a.06.06,0,0,1-.06,0h-.08a10.79,10.79,0,0,1-1.75.59v.38c0,.18,0,.21.36.21h1.1c.23,0,.27-.07.29-.59a1.49,1.49,0,0,0,.43.17c0,.68-.2.85-.68.85h-1.19c-.62,0-.78-.13-.78-.64v-1.1a5.64,5.64,0,0,1-.66.64,2.83,2.83,0,0,0-.35-.34,5.75,5.75,0,0,0,1.59-2.1h-.69V50.16h3.84v2.69h-2.47a.15.15,0,0,1-.17.08c-.1.21-.2.41-.31.61H205Zm-3.39-3v.73h2.84v-.73Zm0,1.12v.75h2.84v-.75Z"/><path class="cls-4" d="M208.18,54c0,.06-.08.08-.17.08a7.41,7.41,0,0,1-1.57,2.39,2.24,2.24,0,0,0-.43-.31,6.32,6.32,0,0,0,1.51-2.37Zm5.07-1H210v3.5c0,.35-.09.5-.34.59a6,6,0,0,1-1.41.09,2.29,2.29,0,0,0-.2-.53l.87,0c.51,0,.54,0,.54-.17V53h-3.2v-.51h7Zm-.69-2.48V51H207v-.51Zm.3,6A9.56,9.56,0,0,0,211.44,54l.48-.21a9.81,9.81,0,0,1,1.47,2.41Z"/><path class="cls-4" d="M215.74,52.88c.25.27.94,1.14,1.1,1.36l-.33.42c-.14-.26-.49-.78-.77-1.17v3.67h-.5V53.28a9,9,0,0,1-1.12,2.39,1.93,1.93,0,0,0-.29-.47,8.59,8.59,0,0,0,1.34-3.07H214v-.49h1.21V49.92l.65,0c0,.05,0,.09-.15.1v1.57h1.06v.49h-1.06Zm4.88-.42.09,0c.25.09.29.1.32.13a.17.17,0,0,1-.06.08,7,7,0,0,1-1.33,3,4.49,4.49,0,0,0,1.65,1.14,2.06,2.06,0,0,0-.35.43A4.67,4.67,0,0,1,219.31,56a5.39,5.39,0,0,1-1.62,1.18,1.87,1.87,0,0,0-.32-.42A4.91,4.91,0,0,0,219,55.59a7.09,7.09,0,0,1-1.13-2.38l.43-.11a6.78,6.78,0,0,0,1,2.11A6.42,6.42,0,0,0,220.39,53h-2.67a7.44,7.44,0,0,1-1.09,4.2,1.67,1.67,0,0,0-.42-.32,7.12,7.12,0,0,0,1-4.2V50.41h3.87v.49h-3.37v1.56Z"/><path class="cls-1" d="M231,107.72h-73.7a8.51,8.51,0,0,1-8.5-8.51V87.87a8.51,8.51,0,0,1,8.5-8.5H231a8.51,8.51,0,0,1,8.51,8.5V99.21a8.51,8.51,0,0,1-8.51,8.51"/><path class="cls-4" d="M177.1,89.94l.34.19a.24.24,0,0,1-.06.08c-.19.58-.46,1.38-.71,2a2.61,2.61,0,0,1,.74,1.7c0,1.1-.64,1.08-1.2,1.06a1.23,1.23,0,0,0-.14-.46l.31,0c.3,0,.55,0,.55-.66a2.48,2.48,0,0,0-.75-1.59c.23-.6.45-1.32.61-1.87h-1v6.44h-.47V90H177Zm1.27,2.38,1.31-.3,0,.39c-.76.21-1.55.43-2,.55a.16.16,0,0,1-.09.12l-.25-.54.55-.12V89.7l.63,0c0,.05-.05.09-.15.1v.87h1.24v.45h-1.24Zm.78,1.28a7.26,7.26,0,0,0,.29-.86l.65.18s-.08.07-.16.07c-.07.18-.18.41-.28.61h2v3.23h-.51v-.29H178.5v.32H178V93.6Zm2,1.24v-.79H178.5v.79Zm-2.67,1.25h2.67v-.82H178.5Zm1.88-3.89c0,.2,0,.24.28.24h.85c.21,0,.25-.1.26-.77a1.41,1.41,0,0,0,.45.2c-.06.81-.19,1-.66,1h-.95c-.58,0-.72-.14-.72-.69V89.69l.64,0c0,.05-.05.09-.15.1v1.09a6.29,6.29,0,0,0,1.26-.7l.42.38s0,0-.08,0h-.06a8,8,0,0,1-1.54.72Z"/><path class="cls-4" d="M189.43,90v1.57h-1l.25.11a.17.17,0,0,1-.16,0c-.09.11-.23.26-.36.39h1.27v2.07h-4.9V92.11h1.07a3.56,3.56,0,0,0-.39-.48l.16-.07h-1.27v.73a8.94,8.94,0,0,1-.93,4.53,1.68,1.68,0,0,0-.45-.27,8.21,8.21,0,0,0,.86-4.26V90Zm-.53,1.14v-.7h-4.82v.7Zm-4,5.73V94.55h4.18v2.29h-.5v-.23h-3.2v.25Zm.1-4.4V93h1.68v-.51Zm0,.85v.52h1.68v-.52Zm3.58,1.61h-3.2v.47h3.2Zm-3.2,1.31h3.2v-.49h-3.2Zm.31-4.67a2.12,2.12,0,0,1,.4.55h1.53a5.7,5.7,0,0,0,.42-.55ZM188.9,93v-.51h-1.73V93Zm0,.86v-.52h-1.73v.52Z"/><path class="cls-4" d="M191.71,91a8.72,8.72,0,0,0,.38-1.34l.67.16c0,.06-.07.08-.17.08a8.12,8.12,0,0,1-.39,1.1h1.31v4.64h-2.13v.64h-.5V91Zm1.3,2V91.43h-1.63V93Zm-1.63,2.11H193V93.46h-1.63Zm5.9-4.14.27,0a.91.91,0,0,0,0,.17c-.11,3.78-.21,5-.51,5.4s-.41.31-.95.31l-.9,0a1.29,1.29,0,0,0-.17-.5c.55,0,1.05,0,1.27,0a.34.34,0,0,0,.29-.12c.25-.27.37-1.49.46-4.79h-2.19a7.31,7.31,0,0,1-.9,1.77,2.64,2.64,0,0,0-.39-.34,9,9,0,0,0,1.27-3.29l.67.16c0,.07-.09.09-.18.08A8.42,8.42,0,0,1,195,91Zm-2.22,1.66a7.37,7.37,0,0,1,1.08,1.94l-.48.22a7.57,7.57,0,0,0-1-2Z"/><path class="cls-4" d="M202.29,94.77l-1.73.26v1.26c0,.52-.22.58-1.36.57a2,2,0,0,0-.16-.45h.55c.45,0,.47,0,.47-.12V95.1l-1.44.21a.12.12,0,0,1-.1.11l-.19-.58,1.73-.21v-.76l.28,0a5.68,5.68,0,0,0,.68-.62h-1a8.24,8.24,0,0,1-1.34,1,3,3,0,0,0-.35-.37,7.27,7.27,0,0,0,.94-.66H199v-.43h.7a6.5,6.5,0,0,0,.57-.6h-1.95v-.47h1.42v-.84H198.7v-.46h1.06v-.86l.64,0s-.05.09-.15.11v.71h1v.41a8.5,8.5,0,0,0,.54-1.09l.61.21c0,.07-.11.08-.19.07a9.43,9.43,0,0,1-1,1.7h.94v.47h-1.29a7.34,7.34,0,0,1-.51.6h1l.08,0,.36.24s-.07.06-.1.07a7.18,7.18,0,0,1-1.22,1.08v.37l1.72-.23Zm-2-3h.43a8.17,8.17,0,0,0,.56-.84h-1Zm5.35-.19h-.53a9,9,0,0,1-1,3.22,3.87,3.87,0,0,0,1.57,1.61,2.12,2.12,0,0,0-.38.46,4.46,4.46,0,0,1-1.51-1.57,4.93,4.93,0,0,1-1.9,1.57,2.31,2.31,0,0,0-.29-.45,4.42,4.42,0,0,0,1.92-1.64,10.33,10.33,0,0,1-.74-2.26,5.91,5.91,0,0,1-.51.94,2.24,2.24,0,0,0-.4-.34A9.21,9.21,0,0,0,203,89.61l.66.15c0,.06-.07.09-.17.09-.08.41-.17.83-.28,1.24h2.36Zm-2.5,0,0,.08a10.65,10.65,0,0,0,.72,2.56,8.87,8.87,0,0,0,.74-2.64Z"/><path class="cls-4" d="M213.27,90.42v.47h-4.15l.07,0A.21.21,0,0,1,209,91c-.2.28-.49.65-.77,1,1,0,2.25,0,3.44-.07a11.89,11.89,0,0,0-1-.7l.41-.27a12.26,12.26,0,0,1,2,1.59l-.44.32a5.28,5.28,0,0,0-.53-.52c-1.93.07-4,.14-5.25.17a.13.13,0,0,1-.11.11l-.22-.61h1a9.11,9.11,0,0,0,.76-1.08h-2.13v-.47h3.2v-.81l.68,0c0,.06,0,.1-.15.11v.66ZM212.11,93v3.26c0,.3-.07.43-.31.51a5.57,5.57,0,0,1-1.27.07,2,2,0,0,0-.18-.44h1.07c.12,0,.16,0,.16-.15v-.72H208v1.31h-.53V93Zm-.53.44H208v.65h3.58ZM208,95.14h3.58V94.5H208Z"/><path class="cls-5" d="M145.09,17.67l-5.19-3.32a.62.62,0,0,0-.63,0,.6.6,0,0,0-.31.53v1.42H123.58v3.81H139V21.5a.62.62,0,0,0,.94.52l5.19-3.32a.62.62,0,0,0,.28-.52.59.59,0,0,0-.28-.51m-.3.55-5.19,3.32s0,0-.06,0a.05.05,0,0,1,0,0v-2H124.14V16.84h15.38v-2l0,0h.06l5.19,3.32a.05.05,0,0,1,0,.08"/><path class="cls-5" d="M144.76,56.54l-5.27-3.36a.37.37,0,0,0-.38,0,.39.39,0,0,0-.19.33v6.73a.39.39,0,0,0,.19.33.39.39,0,0,0,.18,0,.36.36,0,0,0,.2-.06l5.27-3.36a.38.38,0,0,0,0-.63"/><path class="cls-5" d="M129.29,56.48h-1.43a.35.35,0,0,0-.3.37.35.35,0,0,0,.3.38h1.43a.35.35,0,0,0,.3-.38.35.35,0,0,0-.3-.37"/><path class="cls-5" d="M125.29,56.48h-1.43a.34.34,0,0,0-.29.37.34.34,0,0,0,.29.38h1.43a.35.35,0,0,0,.3-.38.35.35,0,0,0-.3-.37"/><path class="cls-5" d="M133.29,56.48h-1.43a.35.35,0,0,0-.3.37.35.35,0,0,0,.3.38h1.43a.34.34,0,0,0,.29-.38.34.34,0,0,0-.29-.37"/><path class="cls-5" d="M137.29,56.48h-1.43a.34.34,0,0,0-.3.37.34.34,0,0,0,.3.38h1.43a.34.34,0,0,0,.29-.38.34.34,0,0,0-.29-.37"/><path class="cls-4" d="M133,84.55v6.08c0,.69-.36.7-1.71.68a2.09,2.09,0,0,0-.18-.49l.73,0c.58,0,.64,0,.64-.21V85.05h-4.66v2a7.51,7.51,0,0,1-1,4.31,2.24,2.24,0,0,0-.41-.35,6.75,6.75,0,0,0,.93-4V84.55Zm-4.85,2.63h1.66v-.83H128.3v-.43h1.46V85.2l.66,0c0,.05-.06.09-.15.11v.57h1.53v.43h-1.53v.83H132v.44H128.1Zm3.49,3.18H129v.45h-.49V88.3h3.08Zm-.5-1.63H129v1.2h2.09Z"/><path class="cls-4" d="M136.41,85.64V87c0,.12,0,.26,0,.4h1.43v.5h-1.47a6.75,6.75,0,0,1-.12.72c.37.37,1.27,1.35,1.5,1.6l-.36.43c-.25-.34-.87-1.08-1.28-1.54a4.29,4.29,0,0,1-1.59,2.14,1.82,1.82,0,0,0-.35-.38,4,4,0,0,0,1.7-3h-1.67v-.5h1.71V85.64h-.69a5.47,5.47,0,0,1-.65,1.35,2.24,2.24,0,0,0-.39-.27,7.39,7.39,0,0,0,.94-2.65l.62.16s-.07.07-.16.07c-.06.28-.13.56-.2.84h2.26v.5Zm1.77-.88h2.89V91h-.53v-.56h-1.85v.64h-.51Zm.51,5.2h1.85v-4.7h-1.85Z"/><path class="cls-5" d="M144.76,96.36,139.49,93a.35.35,0,0,0-.38,0,.36.36,0,0,0-.19.32V100a.37.37,0,0,0,.19.33.39.39,0,0,0,.18,0,.36.36,0,0,0,.2-.06L144.76,97a.38.38,0,0,0,0-.63"/><path class="cls-5" d="M129.29,96.3h-1.43a.35.35,0,0,0-.3.38.35.35,0,0,0,.3.37h1.43a.35.35,0,0,0,.3-.37.35.35,0,0,0-.3-.38"/><path class="cls-5" d="M125.29,96.3h-1.43a.34.34,0,0,0-.29.38.34.34,0,0,0,.29.37h1.43a.35.35,0,0,0,.3-.37.35.35,0,0,0-.3-.38"/><path class="cls-5" d="M133.29,96.3h-1.43a.35.35,0,0,0-.3.38.35.35,0,0,0,.3.37h1.43a.34.34,0,0,0,.29-.37.34.34,0,0,0-.29-.38"/><path class="cls-5" d="M137.29,96.3h-1.43a.34.34,0,0,0-.3.38.34.34,0,0,0,.3.37h1.43a.34.34,0,0,0,.29-.37.34.34,0,0,0-.29-.38"/></g></g></svg>