<svg xmlns="http://www.w3.org/2000/svg" xmlns:xlink="http://www.w3.org/1999/xlink" width="470" height="215" viewBox="0 0 470 215">
  <defs>
    <clipPath id="clip-path">
      <rect id="長方形_923" data-name="長方形 923" width="470" height="215" transform="translate(465 2534)" fill="#fff" stroke="#707070" stroke-width="1"/>
    </clipPath>
    <clipPath id="clip-path-2">
      <path id="パス_22402" data-name="パス 22402" d="M149.54,465.068V483.41a45.657,45.657,0,1,1,0-18.342" transform="translate(-59.152 -428.582)" fill="none"/>
    </clipPath>
  </defs>
  <g id="マスクグループ_61" data-name="マスクグループ 61" transform="translate(-465 -2534)" clip-path="url(#clip-path)">
    <g id="decoration" transform="translate(0 -224.902)">
      <g id="deco02" transform="translate(464.856 2758.902)">
        <g id="グループ_1004" data-name="グループ 1004" transform="translate(236.46 64.934)">
          <path id="パス_22357" data-name="パス 22357" d="M124.9,414.037a6.564,6.564,0,1,1-6.563-6.563,6.564,6.564,0,0,1,6.563,6.563" transform="translate(-10.804 -407.474)" fill="#45a748"/>
          <path id="パス_22358" data-name="パス 22358" d="M150.388,426.2a12.957,12.957,0,1,1-12.955-12.955A12.954,12.954,0,0,1,150.388,426.2" transform="translate(-65.216 -400.115)" fill="#1b9540"/>
          <path id="パス_22359" data-name="パス 22359" d="M166.275,413.243a36.107,36.107,0,1,0,28.146,58.726q1.707-2.874,3.684-5.557a36.227,36.227,0,0,0,2.795-27.34,12.973,12.973,0,0,1-10.839-16.888,35.97,35.97,0,0,0-23.785-8.941" transform="translate(-130.169 -400.115)" fill="#b6c836"/>
          <path id="パス_22360" data-name="パス 22360" d="M131.456,417.172a12.966,12.966,0,0,0,10.837,16.888,36.107,36.107,0,0,0-10.837-16.888" transform="translate(-71.562 -395.102)" fill="#00893d"/>
        </g>
        <g id="グループ_1006" data-name="グループ 1006" transform="translate(379.899 112.97)">
          <g id="グループ_1005" data-name="グループ 1005" transform="translate(0)" clip-path="url(#clip-path-2)">
            <path id="パス_22361" data-name="パス 22361" d="M87.228,430.442a2.024,2.024,0,1,0,2.025,2.023,2.025,2.025,0,0,0-2.025-2.023" transform="translate(-58.15 -426.209)" fill="#e6efe2"/>
            <path id="パス_22362" data-name="パス 22362" d="M82.372,430.442a2.024,2.024,0,1,0,2.025,2.023,2.025,2.025,0,0,0-2.025-2.023" transform="translate(-42.243 -426.209)" fill="#e6efe2"/>
            <path id="パス_22363" data-name="パス 22363" d="M77.516,430.442a2.024,2.024,0,1,0,2.025,2.023,2.025,2.025,0,0,0-2.025-2.023" transform="translate(-26.336 -426.209)" fill="#e6efe2"/>
            <path id="パス_22364" data-name="パス 22364" d="M72.659,430.442a2.024,2.024,0,1,0,2.025,2.023,2.025,2.025,0,0,0-2.025-2.023" transform="translate(-10.426 -426.209)" fill="#e6efe2"/>
            <path id="パス_22365" data-name="パス 22365" d="M86.036,434.29a2.005,2.005,0,0,0-.833.18q1.3,1.444,2.517,2.965a2,2,0,0,0,.341-1.12,2.027,2.027,0,0,0-2.025-2.025" transform="translate(-56.957 -421.3)" fill="#e6efe2"/>
            <path id="パス_22366" data-name="パス 22366" d="M82.372,434.29a2.024,2.024,0,1,0,2.025,2.025,2.027,2.027,0,0,0-2.025-2.025" transform="translate(-42.243 -421.3)" fill="#e6efe2"/>
            <path id="パス_22367" data-name="パス 22367" d="M77.516,434.29a2.024,2.024,0,1,0,2.025,2.025,2.027,2.027,0,0,0-2.025-2.025" transform="translate(-26.336 -421.3)" fill="#e6efe2"/>
            <path id="パス_22368" data-name="パス 22368" d="M72.659,434.29a2.024,2.024,0,1,0,2.025,2.025,2.027,2.027,0,0,0-2.025-2.025" transform="translate(-10.426 -421.3)" fill="#e6efe2"/>
            <path id="パス_22369" data-name="パス 22369" d="M67.8,434.29a2.024,2.024,0,1,0,2.025,2.025A2.023,2.023,0,0,0,67.8,434.29" transform="translate(5.485 -421.3)" fill="#e6efe2"/>
            <path id="パス_22370" data-name="パス 22370" d="M82.372,438.137a2.024,2.024,0,1,0,2.025,2.025,2.025,2.025,0,0,0-2.025-2.025" transform="translate(-42.243 -416.393)" fill="#e6efe2"/>
            <path id="パス_22371" data-name="パス 22371" d="M77.516,438.137a2.024,2.024,0,1,0,2.025,2.025,2.025,2.025,0,0,0-2.025-2.025" transform="translate(-26.336 -416.393)" fill="#e6efe2"/>
            <path id="パス_22372" data-name="パス 22372" d="M72.659,438.137a2.024,2.024,0,1,0,2.025,2.025,2.025,2.025,0,0,0-2.025-2.025" transform="translate(-10.426 -416.393)" fill="#e6efe2"/>
            <path id="パス_22373" data-name="パス 22373" d="M67.8,438.137a2.024,2.024,0,1,0,2.025,2.025,2.022,2.022,0,0,0-2.025-2.025" transform="translate(5.485 -416.393)" fill="#e6efe2"/>
            <path id="パス_22374" data-name="パス 22374" d="M63.022,438.137A2.024,2.024,0,1,0,64.865,441c-.505-.969-1.045-1.923-1.616-2.851-.075-.007-.15-.011-.228-.011" transform="translate(21.315 -416.393)" fill="#e6efe2"/>
            <path id="パス_22375" data-name="パス 22375" d="M80.891,441.985a2.037,2.037,0,0,0-.544.073q.819,1.833,1.534,3.718a2.025,2.025,0,0,0-.99-3.791" transform="translate(-40.761 -411.484)" fill="#e6efe2"/>
            <path id="パス_22376" data-name="パス 22376" d="M77.516,441.985a2.024,2.024,0,1,0,2.025,2.025,2.025,2.025,0,0,0-2.025-2.025" transform="translate(-26.336 -411.484)" fill="#e6efe2"/>
            <path id="パス_22377" data-name="パス 22377" d="M72.659,441.985a2.024,2.024,0,1,0,2.025,2.025,2.025,2.025,0,0,0-2.025-2.025" transform="translate(-10.426 -411.484)" fill="#e6efe2"/>
            <path id="パス_22378" data-name="パス 22378" d="M67.8,441.985a2.024,2.024,0,1,0,2.025,2.025,2.022,2.022,0,0,0-2.025-2.025" transform="translate(5.485 -411.484)" fill="#e6efe2"/>
            <path id="パス_22379" data-name="パス 22379" d="M62.942,441.985a2.024,2.024,0,1,0,2.025,2.025,2.022,2.022,0,0,0-2.025-2.025" transform="translate(21.395 -411.484)" fill="#e6efe2"/>
            <path id="パス_22380" data-name="パス 22380" d="M77.516,445.833a2.023,2.023,0,1,0,2.025,2.021,2.023,2.023,0,0,0-2.025-2.021" transform="translate(-26.336 -406.575)" fill="#e6efe2"/>
            <path id="パス_22381" data-name="パス 22381" d="M72.659,445.833a2.023,2.023,0,1,0,2.025,2.021,2.023,2.023,0,0,0-2.025-2.021" transform="translate(-10.426 -406.575)" fill="#e6efe2"/>
            <path id="パス_22382" data-name="パス 22382" d="M67.8,445.833a2.023,2.023,0,1,0,2.025,2.021,2.019,2.019,0,0,0-2.025-2.021" transform="translate(5.485 -406.575)" fill="#e6efe2"/>
            <path id="パス_22383" data-name="パス 22383" d="M62.942,445.833a2.023,2.023,0,1,0,2.025,2.021,2.019,2.019,0,0,0-2.025-2.021" transform="translate(21.395 -406.575)" fill="#e6efe2"/>
            <path id="パス_22384" data-name="パス 22384" d="M77.516,449.68a2.024,2.024,0,1,0,2.025,2.021,2.023,2.023,0,0,0-2.025-2.021" transform="translate(-26.336 -401.668)" fill="#e6efe2"/>
            <path id="パス_22385" data-name="パス 22385" d="M72.659,449.68a2.024,2.024,0,1,0,2.025,2.021,2.023,2.023,0,0,0-2.025-2.021" transform="translate(-10.426 -401.668)" fill="#e6efe2"/>
            <path id="パス_22386" data-name="パス 22386" d="M67.8,449.68a2.024,2.024,0,1,0,2.025,2.021A2.019,2.019,0,0,0,67.8,449.68" transform="translate(5.485 -401.668)" fill="#e6efe2"/>
            <path id="パス_22387" data-name="パス 22387" d="M62.942,449.68a2.024,2.024,0,1,0,2.025,2.021,2.019,2.019,0,0,0-2.025-2.021" transform="translate(21.395 -401.668)" fill="#e6efe2"/>
            <path id="パス_22388" data-name="パス 22388" d="M77.516,453.527a2.024,2.024,0,1,0,2.025,2.025,2.025,2.025,0,0,0-2.025-2.025" transform="translate(-26.336 -396.76)" fill="#e6efe2"/>
            <path id="パス_22389" data-name="パス 22389" d="M72.659,453.527a2.024,2.024,0,1,0,2.025,2.025,2.025,2.025,0,0,0-2.025-2.025" transform="translate(-10.426 -396.76)" fill="#e6efe2"/>
            <path id="パス_22390" data-name="パス 22390" d="M67.8,453.527a2.024,2.024,0,1,0,2.025,2.025,2.022,2.022,0,0,0-2.025-2.025" transform="translate(5.485 -396.76)" fill="#e6efe2"/>
            <path id="パス_22391" data-name="パス 22391" d="M62.942,453.527a2.024,2.024,0,1,0,2.025,2.025,2.022,2.022,0,0,0-2.025-2.025" transform="translate(21.395 -396.76)" fill="#e6efe2"/>
            <path id="パス_22392" data-name="パス 22392" d="M77.516,457.375a2.024,2.024,0,1,0,2.025,2.025,2.027,2.027,0,0,0-2.025-2.025" transform="translate(-26.336 -391.851)" fill="#e6efe2"/>
            <path id="パス_22393" data-name="パス 22393" d="M72.659,457.375a2.024,2.024,0,1,0,2.025,2.025,2.027,2.027,0,0,0-2.025-2.025" transform="translate(-10.426 -391.851)" fill="#e6efe2"/>
            <path id="パス_22394" data-name="パス 22394" d="M67.8,457.375a2.024,2.024,0,1,0,2.025,2.025,2.023,2.023,0,0,0-2.025-2.025" transform="translate(5.485 -391.851)" fill="#e6efe2"/>
            <path id="パス_22395" data-name="パス 22395" d="M63.022,457.375a2.024,2.024,0,0,0,0,4.048c.075,0,.15,0,.225-.011q.857-1.4,1.618-2.854a2.029,2.029,0,0,0-1.843-1.183" transform="translate(21.315 -391.851)" fill="#e6efe2"/>
            <path id="パス_22396" data-name="パス 22396" d="M77.516,461.222a2.025,2.025,0,1,0,2.025,2.025,2.027,2.027,0,0,0-2.025-2.025" transform="translate(-26.336 -386.944)" fill="#e6efe2"/>
            <path id="パス_22397" data-name="パス 22397" d="M72.659,461.222a2.025,2.025,0,1,0,2.025,2.025,2.027,2.027,0,0,0-2.025-2.025" transform="translate(-10.426 -386.944)" fill="#e6efe2"/>
            <path id="パス_22398" data-name="パス 22398" d="M67.8,461.222a2.025,2.025,0,1,0,2.025,2.025,2.023,2.023,0,0,0-2.025-2.025" transform="translate(5.485 -386.944)" fill="#e6efe2"/>
            <path id="パス_22399" data-name="パス 22399" d="M81.943,465.089q-.744,1.84-1.6,3.623a2.024,2.024,0,1,0,1.6-3.623" transform="translate(-41.402 -382.01)" fill="#e6efe2"/>
            <path id="パス_22400" data-name="パス 22400" d="M77.516,465.07a2.023,2.023,0,1,0,2.025,2.025,2.025,2.025,0,0,0-2.025-2.025" transform="translate(-26.336 -382.035)" fill="#e6efe2"/>
            <path id="パス_22401" data-name="パス 22401" d="M72.659,465.07a2.023,2.023,0,1,0,2.025,2.025,2.025,2.025,0,0,0-2.025-2.025" transform="translate(-10.426 -382.035)" fill="#e6efe2"/>
          </g>
        </g>
        <g id="グループ_1007" data-name="グループ 1007" transform="translate(0 69.261)">
          <path id="パス_22403" data-name="パス 22403" d="M99.588,441.686a20.169,20.169,0,1,1-20.167-20.169,20.169,20.169,0,0,1,20.167,20.169" transform="translate(370.478 -393.886)" fill="#e2a5a7"/>
          <path id="パス_22404" data-name="パス 22404" d="M275.712,409.375a82.5,82.5,0,0,0-7.1,164.68c2.451.214,4.877.319,7.291.319a82.422,82.422,0,0,0,63.155-29.529A58.454,58.454,0,0,1,358.3,492.658,82.5,82.5,0,0,0,283,409.694q-3.673-.321-7.289-.319" transform="translate(-193.304 -409.375)" fill="#e5b2b4"/>
          <path id="パス_22405" data-name="パス 22405" d="M145.884,424.618A66.871,66.871,0,0,0,91.934,451.9a36.055,36.055,0,0,1-3.684,5.56A66.982,66.982,0,1,0,206.383,520.34a2.023,2.023,0,0,1,1.181-3.666,2.076,2.076,0,0,1,.414.041,67.227,67.227,0,0,0,.576-48.786,2.024,2.024,0,1,1-1.534-3.716,66.9,66.9,0,0,0-8.823-14.439,2.024,2.024,0,1,1-2.517-2.967,66.8,66.8,0,0,0-49.8-22.188m39.579,26.059a2.025,2.025,0,1,1,2.023-2.025,2.027,2.027,0,0,1-2.023,2.025m11.051,8.755a2.024,2.024,0,1,1,2.025-2.023,2.025,2.025,0,0,1-2.025,2.023m-11.051,0a2.024,2.024,0,1,1,2.023-2.023,2.025,2.025,0,0,1-2.023,2.023m-11.281-4.037c.075-.007.15-.011.228-.011a2.024,2.024,0,1,1-1.843,2.863c.505-.969,1.047-1.923,1.616-2.851m22.331,12.792a2.024,2.024,0,1,1,2.025-2.021,2.023,2.023,0,0,1-2.025,2.021m-11.051,0a2.024,2.024,0,1,1,2.023-2.021,2.023,2.023,0,0,1-2.023,2.021m-11.053,0a2.024,2.024,0,1,1,2.023-2.021,2.023,2.023,0,0,1-2.023,2.021m33.154,8.755a2.023,2.023,0,1,1,2.025-2.023,2.022,2.022,0,0,1-2.025,2.023m-11.051,0a2.023,2.023,0,1,1,2.025-2.023,2.023,2.023,0,0,1-2.025,2.023m-11.051,0a2.023,2.023,0,1,1,2.023-2.023,2.023,2.023,0,0,1-2.023,2.023m-11.053,0a2.023,2.023,0,1,1,2.023-2.023,2.023,2.023,0,0,1-2.023,2.023m33.154,8.759a2.024,2.024,0,1,1,2.025-2.028,2.025,2.025,0,0,1-2.025,2.028m-11.051,0a2.024,2.024,0,1,1,2.025-2.028,2.027,2.027,0,0,1-2.025,2.028m-11.051,0a2.024,2.024,0,1,1,2.023-2.028,2.027,2.027,0,0,1-2.023,2.028m-11.053,0a2.024,2.024,0,1,1,2.023-2.028,2.027,2.027,0,0,1-2.023,2.028m33.154,8.755a2.024,2.024,0,1,1,2.025-2.025,2.025,2.025,0,0,1-2.025,2.025m-11.051,0a2.024,2.024,0,1,1,2.025-2.025,2.027,2.027,0,0,1-2.025,2.025m-11.051,0a2.024,2.024,0,1,1,2.023-2.025,2.027,2.027,0,0,1-2.023,2.025m-11.053,0a2.024,2.024,0,1,1,2.023-2.025,2.027,2.027,0,0,1-2.023,2.025m33.154,8.757a2.025,2.025,0,1,1,2.025-2.025,2.025,2.025,0,0,1-2.025,2.025m-11.051,0a2.025,2.025,0,1,1,2.025-2.025,2.027,2.027,0,0,1-2.025,2.025m-11.051,0a2.025,2.025,0,1,1,2.023-2.025,2.027,2.027,0,0,1-2.023,2.025m-12.894-2.865a2.024,2.024,0,1,1,1.841,2.865,1.885,1.885,0,0,1-.225-.014q-.857-1.393-1.616-2.851m35,11.622a2.025,2.025,0,1,1,2.025-2.028,2.026,2.026,0,0,1-2.025,2.028m-11.051,0a2.025,2.025,0,1,1,2.025-2.028,2.027,2.027,0,0,1-2.025,2.028m-11.051,0a2.025,2.025,0,1,1,2.023-2.028,2.027,2.027,0,0,1-2.023,2.028m11.051,8.752a2.023,2.023,0,1,1,2.025-2.023,2.023,2.023,0,0,1-2.025,2.023" transform="translate(212.464 -389.93)" fill="#45a748"/>
          <path id="パス_22406" data-name="パス 22406" d="M135.732,436.606q-1.976,2.68-3.684,5.56a36.222,36.222,0,0,0,3.684-5.56" transform="translate(168.666 -374.637)" fill="#00973d"/>
          <path id="パス_22407" data-name="パス 22407" d="M92.085,434.29a2.024,2.024,0,1,0,2.025,2.025,2.027,2.027,0,0,0-2.025-2.025" transform="translate(305.839 -377.591)" fill="#2ea146"/>
          <path id="パス_22408" data-name="パス 22408" d="M86.545,434.369a2.024,2.024,0,1,0,2.517,2.965c-.81-1.01-1.65-2-2.517-2.965" transform="translate(321.599 -377.49)" fill="#2ea146"/>
          <path id="パス_22409" data-name="パス 22409" d="M96.761,438.137c-.077,0-.152,0-.228.011-.571.928-1.111,1.882-1.616,2.851a2.023,2.023,0,1,0,1.843-2.863" transform="translate(290.113 -372.684)" fill="#2ea146"/>
          <path id="パス_22410" data-name="パス 22410" d="M92.085,438.137a2.024,2.024,0,1,0,2.025,2.025,2.025,2.025,0,0,0-2.025-2.025" transform="translate(305.839 -372.684)" fill="#2ea146"/>
          <path id="パス_22411" data-name="パス 22411" d="M87.228,438.137a2.024,2.024,0,1,0,2.025,2.025,2.025,2.025,0,0,0-2.025-2.025" transform="translate(321.749 -372.684)" fill="#2ea146"/>
          <path id="パス_22412" data-name="パス 22412" d="M96.943,441.985a2.024,2.024,0,1,0,2.021,2.025,2.025,2.025,0,0,0-2.021-2.025" transform="translate(289.931 -367.775)" fill="#2ea146"/>
          <path id="パス_22413" data-name="パス 22413" d="M92.085,441.985a2.024,2.024,0,1,0,2.025,2.025,2.025,2.025,0,0,0-2.025-2.025" transform="translate(305.839 -367.775)" fill="#2ea146"/>
          <path id="パス_22414" data-name="パス 22414" d="M87.228,441.985a2.024,2.024,0,1,0,2.025,2.025,2.025,2.025,0,0,0-2.025-2.025" transform="translate(321.749 -367.775)" fill="#2ea146"/>
          <path id="パス_22415" data-name="パス 22415" d="M82.283,442.017a2.024,2.024,0,1,0,1.534,3.716c-.476-1.258-.988-2.494-1.534-3.716" transform="translate(337.201 -367.734)" fill="#2ea146"/>
          <path id="パス_22416" data-name="パス 22416" d="M96.943,445.833a2.023,2.023,0,1,0,2.021,2.021,2.023,2.023,0,0,0-2.021-2.021" transform="translate(289.931 -362.866)" fill="#2ea146"/>
          <path id="パス_22417" data-name="パス 22417" d="M92.085,445.833a2.023,2.023,0,1,0,2.025,2.021,2.023,2.023,0,0,0-2.025-2.021" transform="translate(305.839 -362.866)" fill="#2ea146"/>
          <path id="パス_22418" data-name="パス 22418" d="M87.228,445.833a2.023,2.023,0,1,0,2.025,2.021,2.023,2.023,0,0,0-2.025-2.021" transform="translate(321.749 -362.866)" fill="#2ea146"/>
          <path id="パス_22419" data-name="パス 22419" d="M82.372,445.833a2.023,2.023,0,1,0,2.025,2.021,2.023,2.023,0,0,0-2.025-2.021" transform="translate(337.656 -362.866)" fill="#2ea146"/>
          <path id="パス_22420" data-name="パス 22420" d="M96.943,449.68a2.024,2.024,0,1,0,2.021,2.021,2.023,2.023,0,0,0-2.021-2.021" transform="translate(289.931 -357.958)" fill="#2ea146"/>
          <path id="パス_22421" data-name="パス 22421" d="M92.085,449.68a2.024,2.024,0,1,0,2.025,2.021,2.023,2.023,0,0,0-2.025-2.021" transform="translate(305.839 -357.958)" fill="#2ea146"/>
          <path id="パス_22422" data-name="パス 22422" d="M87.228,449.68a2.024,2.024,0,1,0,2.025,2.021,2.023,2.023,0,0,0-2.025-2.021" transform="translate(321.749 -357.958)" fill="#2ea146"/>
          <path id="パス_22423" data-name="パス 22423" d="M82.372,449.68A2.024,2.024,0,1,0,84.4,451.7a2.023,2.023,0,0,0-2.025-2.021" transform="translate(337.656 -357.958)" fill="#2ea146"/>
          <path id="パス_22424" data-name="パス 22424" d="M96.943,453.527a2.024,2.024,0,1,0,2.021,2.025,2.025,2.025,0,0,0-2.021-2.025" transform="translate(289.931 -353.051)" fill="#2ea146"/>
          <path id="パス_22425" data-name="パス 22425" d="M92.085,453.527a2.024,2.024,0,1,0,2.025,2.025,2.025,2.025,0,0,0-2.025-2.025" transform="translate(305.839 -353.051)" fill="#2ea146"/>
          <path id="パス_22426" data-name="パス 22426" d="M87.228,453.527a2.024,2.024,0,1,0,2.025,2.025,2.025,2.025,0,0,0-2.025-2.025" transform="translate(321.749 -353.051)" fill="#2ea146"/>
          <path id="パス_22427" data-name="パス 22427" d="M82.372,453.527a2.024,2.024,0,1,0,2.025,2.025,2.025,2.025,0,0,0-2.025-2.025" transform="translate(337.656 -353.051)" fill="#2ea146"/>
          <path id="パス_22428" data-name="パス 22428" d="M96.761,457.375a2.029,2.029,0,0,0-1.843,1.183q.761,1.458,1.618,2.854c.075.007.15.011.225.011a2.024,2.024,0,0,0,0-4.048" transform="translate(290.113 -348.142)" fill="#2ea146"/>
          <path id="パス_22429" data-name="パス 22429" d="M92.085,457.375a2.024,2.024,0,1,0,2.025,2.025,2.027,2.027,0,0,0-2.025-2.025" transform="translate(305.839 -348.142)" fill="#2ea146"/>
          <path id="パス_22430" data-name="パス 22430" d="M87.228,457.375a2.024,2.024,0,1,0,2.025,2.025,2.027,2.027,0,0,0-2.025-2.025" transform="translate(321.749 -348.142)" fill="#2ea146"/>
          <path id="パス_22431" data-name="パス 22431" d="M82.372,457.375A2.024,2.024,0,1,0,84.4,459.4a2.027,2.027,0,0,0-2.025-2.025" transform="translate(337.656 -348.142)" fill="#2ea146"/>
          <path id="パス_22432" data-name="パス 22432" d="M92.085,461.222a2.025,2.025,0,1,0,2.025,2.025,2.027,2.027,0,0,0-2.025-2.025" transform="translate(305.839 -343.234)" fill="#2ea146"/>
          <path id="パス_22433" data-name="パス 22433" d="M87.228,461.222a2.025,2.025,0,1,0,2.025,2.025,2.027,2.027,0,0,0-2.025-2.025" transform="translate(321.749 -343.234)" fill="#2ea146"/>
          <path id="パス_22434" data-name="パス 22434" d="M82.372,461.222a2.025,2.025,0,1,0,2.025,2.025,2.027,2.027,0,0,0-2.025-2.025" transform="translate(337.656 -343.234)" fill="#2ea146"/>
          <path id="パス_22435" data-name="パス 22435" d="M87.228,465.07a2.023,2.023,0,1,0,2.025,2.025,2.025,2.025,0,0,0-2.025-2.025" transform="translate(321.749 -338.326)" fill="#2ea146"/>
          <path id="パス_22436" data-name="パス 22436" d="M83.081,465.07a2.023,2.023,0,0,0-1.183,3.666q.85-1.785,1.6-3.625a2.037,2.037,0,0,0-.412-.041" transform="translate(336.947 -338.326)" fill="#2ea146"/>
          <path id="パス_22437" data-name="パス 22437" d="M208.656,439.446c-.562,0-1.133.009-1.7.023A59.217,59.217,0,0,0,169.273,454.3c-.023,2.121-.125,4.262-.314,6.411a82.139,82.139,0,0,1-18.929,45.775,58.974,58.974,0,0,0,58.5,50.3c.564,0,1.133-.009,1.7-.023a59.48,59.48,0,0,0,22.051-4.879l-.009-.014a58.866,58.866,0,0,0,34.752-44.537l0-.011.02-.13,0-.011c.014-.077.025-.152.036-.23l.007-.043.014-.093.011-.077.011-.071c.007-.046.011-.089.018-.134l0-.027c.007-.055.016-.111.025-.166l0-.034c0-.048.011-.093.018-.141l0-.032a58.7,58.7,0,0,0,.537-9.276v-.027c0-.05,0-.1,0-.153v-.032l-.007-.177c-.888-31.828-27.174-57.022-59.075-57.02" transform="translate(-4.279 -371.014)" fill="#b6c836"/>
          <path id="パス_22438" data-name="パス 22438" d="M213.146,445.972a58.353,58.353,0,0,0-19.817,45.47,59.252,59.252,0,0,0,.571,6.716,82.118,82.118,0,0,0,18.931-45.773q.283-3.226.314-6.413" transform="translate(-48.151 -362.689)" fill="#aa9133"/>
          <path id="パス_22439" data-name="パス 22439" d="M148.859,436.414q-.942,0-1.887.027l.193,6.9c.567-.016,1.136-.025,1.7-.025,31.9,0,58.189,25.192,59.077,57.02,0,.059,0,.118,0,.177v.034c0,.05,0,.1,0,.152v.025a58.437,58.437,0,0,1-.535,9.278l0,.032-.02.139,0,.034c-.009.057-.016.112-.023.168l0,.025-.021.134a.66.66,0,0,1-.011.071c0,.027-.007.052-.011.077l-.014.1-.007.041-.034.232,0,.011-.02.127,0,.014a58.876,58.876,0,0,1-34.745,44.549,61.757,61.757,0,0,1,3.548,5.967A65.672,65.672,0,0,0,214.9,500.14c-.992-35.517-30.435-63.726-66.038-63.726" transform="translate(55.512 -374.882)" fill="#e6efe2"/>
          <path id="パス_22440" data-name="パス 22440" d="M185.5,464.579v0m0,.187v0m-.535,9.3,0,.032,0-.032m-.025.173,0,.034,0-.034m-.027.2,0,.025,0-.025m-.025.162-.009.068.009-.068m-.023.148-.014.093.014-.093m-.02.136-.034.23.034-.23m-.036.241-.02.13.02-.13m-.023.141a58.87,58.87,0,0,1-34.752,44.537l.007.011a58.876,58.876,0,0,0,34.745-44.549" transform="translate(77.958 -338.952)" fill="#a5bf37"/>
        </g>
        <g id="グループ_1008" data-name="グループ 1008" transform="translate(264.788 0)">
          <path id="パス_22441" data-name="パス 22441" d="M177.658,404.1A25.157,25.157,0,1,1,152.5,378.94,25.157,25.157,0,0,1,177.658,404.1" transform="translate(-127.345 -378.94)" fill="#e2a5a7"/>
        </g>
      </g>
    </g>
  </g>
</svg>
