<svg xmlns="http://www.w3.org/2000/svg" width="31.409" height="25.054" viewBox="0 0 31.409 25.054">
  <g id="icon" transform="translate(-504.685 -189.496)">
    <circle id="楕円形_31" data-name="楕円形 31" cx="11.705" cy="11.705" r="11.705" transform="translate(506.032 189.789)" fill="#b6c836"/>
    <path id="パス_23890" data-name="パス 23890" d="M534.238,186.215a1.877,1.877,0,1,1-1.877-1.877,1.877,1.877,0,0,1,1.877,1.877" transform="translate(1.855 11.681)" fill="#e2a5a7"/>
    <g id="グループ_1724" data-name="グループ 1724" transform="translate(508.912 201.541)" opacity="0.5">
      <path id="パス_23891" data-name="パス 23891" d="M512.744,208.32a.277.277,0,1,0,.277.277.278.278,0,0,0-.277-.277" transform="translate(-510.953 -207.121)" fill="#e6efe2"/>
      <path id="パス_23892" data-name="パス 23892" d="M514.683,208.353a.277.277,0,1,0,.344.406c-.111-.139-.226-.274-.344-.406" transform="translate(-511.492 -207.129)" fill="#e6efe2"/>
      <path id="パス_23893" data-name="パス 23893" d="M510.7,209.945h-.031q-.117.191-.221.391a.277.277,0,1,0,.252-.392" transform="translate(-510.424 -207.547)" fill="#e6efe2"/>
      <path id="パス_23894" data-name="パス 23894" d="M512.744,209.945a.277.277,0,1,0,.277.277.278.278,0,0,0-.277-.277" transform="translate(-510.953 -207.547)" fill="#e6efe2"/>
      <path id="パス_23895" data-name="パス 23895" d="M514.8,209.945a.277.277,0,1,0,.277.277.278.278,0,0,0-.277-.277" transform="translate(-511.492 -207.547)" fill="#e6efe2"/>
      <path id="パス_23896" data-name="パス 23896" d="M510.692,211.571a.277.277,0,1,0,.277.277.277.277,0,0,0-.277-.277" transform="translate(-510.415 -207.973)" fill="#e6efe2"/>
      <path id="パス_23897" data-name="パス 23897" d="M512.744,211.571a.277.277,0,1,0,.277.277.278.278,0,0,0-.277-.277" transform="translate(-510.953 -207.973)" fill="#e6efe2"/>
      <path id="パス_23898" data-name="パス 23898" d="M514.8,211.571a.277.277,0,1,0,.277.277.278.278,0,0,0-.277-.277" transform="translate(-511.492 -207.973)" fill="#e6efe2"/>
      <path id="パス_23899" data-name="パス 23899" d="M516.774,211.585a.277.277,0,0,0,.074.544.281.281,0,0,0,.136-.035c-.065-.173-.135-.342-.21-.509" transform="translate(-512.03 -207.977)" fill="#e6efe2"/>
      <path id="パス_23900" data-name="パス 23900" d="M510.692,213.2a.277.277,0,1,0,.277.277.277.277,0,0,0-.277-.277" transform="translate(-510.415 -208.4)" fill="#e6efe2"/>
      <path id="パス_23901" data-name="パス 23901" d="M512.744,213.2a.277.277,0,1,0,.277.277.277.277,0,0,0-.277-.277" transform="translate(-510.953 -208.4)" fill="#e6efe2"/>
      <path id="パス_23902" data-name="パス 23902" d="M514.8,213.2a.277.277,0,1,0,.277.277.277.277,0,0,0-.277-.277" transform="translate(-511.492 -208.4)" fill="#e6efe2"/>
      <path id="パス_23903" data-name="パス 23903" d="M516.848,213.2a.277.277,0,1,0,.277.277.277.277,0,0,0-.277-.277" transform="translate(-512.03 -208.4)" fill="#e6efe2"/>
      <path id="パス_23904" data-name="パス 23904" d="M510.692,214.822a.277.277,0,1,0,.277.277.277.277,0,0,0-.277-.277" transform="translate(-510.415 -208.826)" fill="#e6efe2"/>
      <path id="パス_23905" data-name="パス 23905" d="M512.744,214.822a.277.277,0,1,0,.277.277.278.278,0,0,0-.277-.277" transform="translate(-510.953 -208.826)" fill="#e6efe2"/>
      <path id="パス_23906" data-name="パス 23906" d="M514.8,214.822a.277.277,0,1,0,.277.277.278.278,0,0,0-.277-.277" transform="translate(-511.492 -208.826)" fill="#e6efe2"/>
      <path id="パス_23907" data-name="パス 23907" d="M516.848,214.822a.277.277,0,1,0,.277.277.278.278,0,0,0-.277-.277" transform="translate(-512.03 -208.826)" fill="#e6efe2"/>
      <path id="パス_23908" data-name="パス 23908" d="M510.692,216.448a.277.277,0,1,0,.277.277.277.277,0,0,0-.277-.277" transform="translate(-510.415 -209.252)" fill="#e6efe2"/>
      <path id="パス_23909" data-name="パス 23909" d="M512.744,216.448a.277.277,0,1,0,.277.277.278.278,0,0,0-.277-.277" transform="translate(-510.953 -209.252)" fill="#e6efe2"/>
      <path id="パス_23910" data-name="パス 23910" d="M514.8,216.448a.277.277,0,1,0,.277.277.278.278,0,0,0-.277-.277" transform="translate(-511.492 -209.252)" fill="#e6efe2"/>
      <path id="パス_23911" data-name="パス 23911" d="M516.848,216.448a.277.277,0,1,0,.277.277.278.278,0,0,0-.277-.277" transform="translate(-512.03 -209.252)" fill="#e6efe2"/>
      <path id="パス_23912" data-name="パス 23912" d="M510.7,218.073a.278.278,0,0,0-.252.162c.069.134.144.263.222.391h.03a.277.277,0,1,0,0-.555" transform="translate(-510.424 -209.679)" fill="#e6efe2"/>
      <path id="パス_23913" data-name="パス 23913" d="M512.744,218.073a.277.277,0,1,0,.277.278.278.278,0,0,0-.277-.278" transform="translate(-510.953 -209.679)" fill="#e6efe2"/>
      <path id="パス_23914" data-name="パス 23914" d="M514.8,218.073a.277.277,0,1,0,.277.278.278.278,0,0,0-.277-.278" transform="translate(-511.492 -209.679)" fill="#e6efe2"/>
      <path id="パス_23915" data-name="パス 23915" d="M516.848,218.073a.277.277,0,1,0,.277.278.278.278,0,0,0-.277-.278" transform="translate(-512.03 -209.679)" fill="#e6efe2"/>
      <path id="パス_23916" data-name="パス 23916" d="M512.744,219.7a.277.277,0,1,0,.277.277.278.278,0,0,0-.277-.277" transform="translate(-510.953 -210.105)" fill="#e6efe2"/>
      <path id="パス_23917" data-name="パス 23917" d="M514.8,219.7a.277.277,0,1,0,.277.277.278.278,0,0,0-.277-.277" transform="translate(-511.492 -210.105)" fill="#e6efe2"/>
      <path id="パス_23918" data-name="パス 23918" d="M516.848,219.7a.277.277,0,1,0,.277.277.278.278,0,0,0-.277-.277" transform="translate(-512.03 -210.105)" fill="#e6efe2"/>
      <path id="パス_23919" data-name="パス 23919" d="M514.8,221.325a.277.277,0,1,0,.277.277.278.278,0,0,0-.277-.277" transform="translate(-511.492 -210.532)" fill="#e6efe2"/>
      <path id="パス_23920" data-name="パス 23920" d="M516.848,221.325a.277.277,0,0,0-.162.5q.117-.245.219-.5a.293.293,0,0,0-.057-.005" transform="translate(-512.03 -210.532)" fill="#e6efe2"/>
      <path id="パス_23921" data-name="パス 23921" d="M514.8,206.694a.277.277,0,1,0,.277.277.278.278,0,0,0-.277-.277" transform="translate(-511.492 -206.694)" fill="#e6efe2"/>
      <path id="パス_23922" data-name="パス 23922" d="M516.848,206.694a.277.277,0,1,0,.277.277.278.278,0,0,0-.277-.277" transform="translate(-512.03 -206.694)" fill="#e6efe2"/>
      <path id="パス_23923" data-name="パス 23923" d="M518.9,206.694a.277.277,0,1,0,.277.277.278.278,0,0,0-.277-.277" transform="translate(-512.568 -206.694)" fill="#e6efe2"/>
      <path id="パス_23924" data-name="パス 23924" d="M520.952,206.694a.277.277,0,1,0,.277.277.278.278,0,0,0-.277-.277" transform="translate(-513.106 -206.694)" fill="#e6efe2"/>
      <path id="パス_23925" data-name="パス 23925" d="M514.855,208.32a.278.278,0,0,0-.114.024q.178.2.344.406a.277.277,0,0,0-.231-.431" transform="translate(-511.55 -207.121)" fill="#e6efe2"/>
      <path id="パス_23926" data-name="パス 23926" d="M516.848,208.32a.277.277,0,1,0,.277.277.278.278,0,0,0-.277-.277" transform="translate(-512.03 -207.121)" fill="#e6efe2"/>
      <path id="パス_23927" data-name="パス 23927" d="M518.9,208.32a.277.277,0,1,0,.277.277.278.278,0,0,0-.277-.277" transform="translate(-512.568 -207.121)" fill="#e6efe2"/>
      <path id="パス_23928" data-name="パス 23928" d="M520.952,208.32a.277.277,0,1,0,.277.277.278.278,0,0,0-.277-.277" transform="translate(-513.106 -207.121)" fill="#e6efe2"/>
      <path id="パス_23929" data-name="パス 23929" d="M523,208.32a.277.277,0,1,0,.277.277.276.276,0,0,0-.277-.277" transform="translate(-513.645 -207.121)" fill="#e6efe2"/>
      <path id="パス_23930" data-name="パス 23930" d="M516.848,209.945a.277.277,0,1,0,.277.277.278.278,0,0,0-.277-.277" transform="translate(-512.03 -207.547)" fill="#e6efe2"/>
      <path id="パス_23931" data-name="パス 23931" d="M518.9,209.945a.277.277,0,1,0,.277.277.278.278,0,0,0-.277-.277" transform="translate(-512.568 -207.547)" fill="#e6efe2"/>
      <path id="パス_23932" data-name="パス 23932" d="M520.952,209.945a.277.277,0,1,0,.277.277.278.278,0,0,0-.277-.277" transform="translate(-513.106 -207.547)" fill="#e6efe2"/>
      <path id="パス_23933" data-name="パス 23933" d="M523,209.945a.277.277,0,1,0,.277.277.277.277,0,0,0-.277-.277" transform="translate(-513.645 -207.547)" fill="#e6efe2"/>
      <path id="パス_23934" data-name="パス 23934" d="M525.057,209.945a.277.277,0,1,0,.252.392q-.1-.2-.221-.391h-.031" transform="translate(-514.183 -207.547)" fill="#e6efe2"/>
      <path id="パス_23935" data-name="パス 23935" d="M516.921,211.571a.277.277,0,0,0-.075.01q.113.25.21.509a.277.277,0,0,0-.136-.519" transform="translate(-512.102 -207.973)" fill="#e6efe2"/>
      <path id="パス_23936" data-name="パス 23936" d="M518.9,211.571a.277.277,0,1,0,.277.277.278.278,0,0,0-.277-.277" transform="translate(-512.568 -207.973)" fill="#e6efe2"/>
      <path id="パス_23937" data-name="パス 23937" d="M520.952,211.571a.277.277,0,1,0,.277.277.278.278,0,0,0-.277-.277" transform="translate(-513.106 -207.973)" fill="#e6efe2"/>
      <path id="パス_23938" data-name="パス 23938" d="M523,211.571a.277.277,0,1,0,.277.277.276.276,0,0,0-.277-.277" transform="translate(-513.645 -207.973)" fill="#e6efe2"/>
      <path id="パス_23939" data-name="パス 23939" d="M525.057,211.571a.277.277,0,1,0,.277.277.276.276,0,0,0-.277-.277" transform="translate(-514.183 -207.973)" fill="#e6efe2"/>
      <path id="パス_23940" data-name="パス 23940" d="M518.9,213.2a.277.277,0,1,0,.277.277.277.277,0,0,0-.277-.277" transform="translate(-512.568 -208.4)" fill="#e6efe2"/>
      <path id="パス_23941" data-name="パス 23941" d="M520.952,213.2a.277.277,0,1,0,.277.277.277.277,0,0,0-.277-.277" transform="translate(-513.106 -208.4)" fill="#e6efe2"/>
      <path id="パス_23942" data-name="パス 23942" d="M523,213.2a.277.277,0,1,0,.277.277A.276.276,0,0,0,523,213.2" transform="translate(-513.645 -208.4)" fill="#e6efe2"/>
      <path id="パス_23943" data-name="パス 23943" d="M525.057,213.2a.277.277,0,1,0,.277.277.276.276,0,0,0-.277-.277" transform="translate(-514.183 -208.4)" fill="#e6efe2"/>
      <path id="パス_23944" data-name="パス 23944" d="M518.9,214.822a.277.277,0,1,0,.277.277.278.278,0,0,0-.277-.277" transform="translate(-512.568 -208.826)" fill="#e6efe2"/>
      <path id="パス_23945" data-name="パス 23945" d="M520.952,214.822a.277.277,0,1,0,.277.277.278.278,0,0,0-.277-.277" transform="translate(-513.106 -208.826)" fill="#e6efe2"/>
      <path id="パス_23946" data-name="パス 23946" d="M523,214.822a.277.277,0,1,0,.277.277.276.276,0,0,0-.277-.277" transform="translate(-513.645 -208.826)" fill="#e6efe2"/>
      <path id="パス_23947" data-name="パス 23947" d="M525.057,214.822a.277.277,0,1,0,.277.277.276.276,0,0,0-.277-.277" transform="translate(-514.183 -208.826)" fill="#e6efe2"/>
      <path id="パス_23948" data-name="パス 23948" d="M518.9,216.448a.277.277,0,1,0,.277.277.278.278,0,0,0-.277-.277" transform="translate(-512.568 -209.252)" fill="#e6efe2"/>
      <path id="パス_23949" data-name="パス 23949" d="M520.952,216.448a.277.277,0,1,0,.277.277.278.278,0,0,0-.277-.277" transform="translate(-513.106 -209.252)" fill="#e6efe2"/>
      <path id="パス_23950" data-name="パス 23950" d="M523,216.448a.277.277,0,1,0,.277.277.276.276,0,0,0-.277-.277" transform="translate(-513.645 -209.252)" fill="#e6efe2"/>
      <path id="パス_23951" data-name="パス 23951" d="M525.057,216.448a.277.277,0,1,0,.277.277.276.276,0,0,0-.277-.277" transform="translate(-514.183 -209.252)" fill="#e6efe2"/>
      <path id="パス_23952" data-name="パス 23952" d="M518.9,218.073a.277.277,0,1,0,.277.278.278.278,0,0,0-.277-.278" transform="translate(-512.568 -209.679)" fill="#e6efe2"/>
      <path id="パス_23953" data-name="パス 23953" d="M520.952,218.073a.277.277,0,1,0,.277.278.278.278,0,0,0-.277-.278" transform="translate(-513.106 -209.679)" fill="#e6efe2"/>
      <path id="パス_23954" data-name="パス 23954" d="M523,218.073a.277.277,0,1,0,.277.278.277.277,0,0,0-.277-.278" transform="translate(-513.645 -209.679)" fill="#e6efe2"/>
      <path id="パス_23955" data-name="パス 23955" d="M525.057,218.073a.277.277,0,0,0,0,.555h.031c.078-.128.152-.257.221-.391a.278.278,0,0,0-.252-.162" transform="translate(-514.183 -209.679)" fill="#e6efe2"/>
      <path id="パス_23956" data-name="パス 23956" d="M518.9,219.7a.277.277,0,1,0,.277.277.278.278,0,0,0-.277-.277" transform="translate(-512.568 -210.105)" fill="#e6efe2"/>
      <path id="パス_23957" data-name="パス 23957" d="M520.952,219.7a.277.277,0,1,0,.277.277.278.278,0,0,0-.277-.277" transform="translate(-513.106 -210.105)" fill="#e6efe2"/>
      <path id="パス_23958" data-name="パス 23958" d="M523,219.7a.277.277,0,1,0,.277.277A.277.277,0,0,0,523,219.7" transform="translate(-513.645 -210.105)" fill="#e6efe2"/>
      <path id="パス_23959" data-name="パス 23959" d="M516.946,221.333c-.068.167-.141.333-.219.5a.277.277,0,1,0,.219-.5" transform="translate(-512.071 -210.534)" fill="#e6efe2"/>
      <path id="パス_23960" data-name="パス 23960" d="M518.9,221.325a.277.277,0,1,0,.277.277.278.278,0,0,0-.277-.277" transform="translate(-512.568 -210.532)" fill="#e6efe2"/>
      <path id="パス_23961" data-name="パス 23961" d="M520.952,221.325a.277.277,0,1,0,.277.277.278.278,0,0,0-.277-.277" transform="translate(-513.106 -210.532)" fill="#e6efe2"/>
    </g>
    <path id="パス_23962" data-name="パス 23962" d="M524.556,215.141c.108-.064.214-.131.32-.2l-.74-1.163c-.1.061-.192.121-.288.179a11.758,11.758,0,0,1-15.964-3.717l-.018-.03,0-.006-.016-.025,0,0a11.724,11.724,0,0,1-.859-1.644l0-.006-.011-.027,0-.006-.013-.031v-.005l-.01-.025-.005-.013-.006-.014-.007-.018,0-.008-.018-.044v0l-.01-.024v0a11.752,11.752,0,0,1,1.389-11.192,12.3,12.3,0,0,1-1.219-.659,13.07,13.07,0,0,0,17.493,18.685" transform="translate(0 -2.468)" fill="#e6efe2"/>
    <path id="パス_23963" data-name="パス 23963" d="M537.93,194.567a4.2,4.2,0,1,1-4.2-4.2,4.2,4.2,0,0,1,4.2,4.2" transform="translate(-6.517 -0.871)" fill="#1b9540"/>
  </g>
</svg>
