<svg xmlns="http://www.w3.org/2000/svg" viewBox="0 0 9.5 9.4"><defs><style>.cls-1{fill:#fff;}</style></defs><g id="レイヤー_2" data-name="レイヤー 2"><g id="レイヤー_1-2" data-name="レイヤー 1"><g id="レイヤー_2-2" data-name="レイヤー 2"><g id="レイヤー_1-2-2" data-name="レイヤー 1-2"><g id="icon"><g id="グループ_1079" data-name="グループ 1079"><path class="cls-1" d="M3.5,6.3a.6.6,0,0,1-.4-.1.78.78,0,0,1,.1-.8L7.6,1H5.3A.47.47,0,0,1,4.8.5.47.47,0,0,1,5.3,0L8.8.1a.55.55,0,0,1,.5.3.44.44,0,0,1-.1.5L3.9,6.2A.6.6,0,0,1,3.5,6.3Z"/><path class="cls-1" d="M9,4.5A.47.47,0,0,1,8.5,4L8.4.6a.5.5,0,1,1,1,0L9.5,4a.47.47,0,0,1-.5.5Z"/></g><g id="グループ_1078" data-name="グループ 1078"><path class="cls-1" d="M3.4,1.3H.5A.47.47,0,0,1,0,.8.47.47,0,0,1,.5.3H3.4a.47.47,0,0,1,.5.5A.47.47,0,0,1,3.4,1.3Z"/><path class="cls-1" d="M8.6,9.4H.5a.5.5,0,0,1,0-1H8.6a.47.47,0,0,1,.5.5A.54.54,0,0,1,8.6,9.4Z"/><path class="cls-1" d="M8.6,9.4a.47.47,0,0,1-.5-.5v-3a.5.5,0,0,1,1,0v3A.54.54,0,0,1,8.6,9.4Z"/><path class="cls-1" d="M.5,9.4A.47.47,0,0,1,0,8.9V.8A.47.47,0,0,1,.5.3.47.47,0,0,1,1,.8V8.9A.47.47,0,0,1,.5,9.4Z"/></g></g></g></g></g></g></svg>