<svg xmlns="http://www.w3.org/2000/svg" xmlns:xlink="http://www.w3.org/1999/xlink" width="220" height="163.864" viewBox="0 0 220 163.864">
  <defs>
    <clipPath id="clip-path">
      <rect id="長方形_160" data-name="長方形 160" width="220" height="163.864" fill="none"/>
    </clipPath>
  </defs>
  <g id="mv-logo" transform="translate(-335.445 -219.177)">
    <g id="グループ_474" data-name="グループ 474" transform="translate(335.445 219.177)" clip-path="url(#clip-path)">
      <path id="パス_21026" data-name="パス 21026" d="M318.808,152.718v9.491L302.73,174.16a15.766,15.766,0,0,0-6.15,12.666v.374l15.845-11.858v8.928l-15.845,11.753v27.7l-7.234-.191.056-36.712a23.814,23.814,0,0,1,9.267-19.076Z" transform="translate(-192.152 -141.436)" fill="#fff"/>
      <path id="パス_21027" data-name="パス 21027" d="M314.989,154.858v27.118a15.769,15.769,0,0,1-6.119,12.641l-12.512,9.355v9.462L312.9,201.1a23.818,23.818,0,0,0,9.272-19.12V149.551Z" transform="translate(-188.333 -143.576)" fill="#fff"/>
      <path id="パス_21028" data-name="パス 21028" d="M289.345,198.012v1.669c0,3.107,3.208,4.945,5.573,3.192l4.684-3.47-.133-8.9Z" transform="translate(-192.152 -115.91)" fill="#fff"/>
      <path id="パス_21029" data-name="パス 21029" d="M285.354,210.988h.822a2.445,2.445,0,0,0,2.582-2.574,2.527,2.527,0,0,0-2.44-2.624,2.4,2.4,0,0,0-2.3,2.192h-2.394c.187-2.574,2.23-4.789,4.6-4.789a5.015,5.015,0,0,1,4.93,5.171,4.287,4.287,0,0,1-1.784,3.745,4.685,4.685,0,0,1,1.972,3.975c0,3.363-2.23,5.553-5.072,5.553-2.255,0-4.3-1.63-4.743-4.661h2.4c.445,1.247,1.127,2.063,2.488,2.063a2.9,2.9,0,0,0-.046-5.757h-1.01Z" transform="translate(-196.409 -107.336)" fill="#fff"/>
      <path id="パス_21030" data-name="パス 21030" d="M289.057,208.415c0-3.338,2.277-5.223,4.742-5.223s4.745,1.885,4.745,5.223v8c0,3.338-2.278,5.223-4.745,5.223s-4.742-1.885-4.742-5.223Zm7.091.152c0-1.758-.939-2.776-2.349-2.776s-2.348,1.019-2.348,2.776v7.693c0,1.758.939,2.776,2.348,2.776s2.349-1.019,2.349-2.776Z" transform="translate(-192.309 -107.337)" fill="#fff"/>
      <path id="パス_21031" data-name="パス 21031" d="M300.657,203.284h8.9v2.6h-6.645v4.1a3.875,3.875,0,0,1,2.677-.992,4.017,4.017,0,0,1,2.982,1.324c.914,1.071,1.314,1.962,1.314,4.968,0,2.42-.306,3.361-1.033,4.355a4.545,4.545,0,0,1-3.617,1.937,4.809,4.809,0,0,1-4.882-4.713h2.394a2.332,2.332,0,0,0,2.4,2.115c2.348,0,2.348-2.19,2.348-3.9,0-2.012-.446-3.49-2.419-3.49a2.288,2.288,0,0,0-2.159,1.5h-2.255Z" transform="translate(-186.158 -107.275)" fill="#fff"/>
      <path id="パス_21032" data-name="パス 21032" d="M307.616,208.415c0-3.338,2.277-5.223,4.742-5.223s4.745,1.885,4.745,5.223v8c0,3.338-2.278,5.223-4.745,5.223s-4.742-1.885-4.742-5.223Zm7.091.152c0-1.758-.939-2.776-2.349-2.776s-2.348,1.019-2.348,2.776v7.693c0,1.758.939,2.776,2.348,2.776s2.349-1.019,2.349-2.776Z" transform="translate(-182.203 -107.337)" fill="#fff"/>
      <path id="パス_21033" data-name="パス 21033" d="M296.84,207.334l3.175,2.366-3.175,2.366Z" transform="translate(-188.071 -104.539)" fill="#fff"/>
      <path id="パス_21034" data-name="パス 21034" d="M277.895,207.334l3.175,2.366-3.175,2.366Z" transform="translate(-198.387 -104.539)" fill="#fff"/>
      <path id="パス_21035" data-name="パス 21035" d="M275.255,207.334l3.175,2.366-3.175,2.366Z" transform="translate(-199.824 -104.539)" fill="#fff"/>
      <path id="パス_21036" data-name="パス 21036" d="M318.036,207.334l3.176,2.366-3.176,2.366Z" transform="translate(-176.529 -104.539)" fill="#fff"/>
      <path id="パス_21037" data-name="パス 21037" d="M315.4,207.334l3.176,2.366-3.176,2.366Z" transform="translate(-177.967 -104.539)" fill="#fff"/>
      <path id="パス_21038" data-name="パス 21038" d="M235.092,235.742l-2.409-5.335h-1.731v5.335h-2.408V222.364h4.834a3.881,3.881,0,0,1,4,4.1,3.588,3.588,0,0,1-2.252,3.514l2.754,5.769Zm-1.87-11.049h-2.27v3.532h2.27a1.766,1.766,0,0,0,0-3.532" transform="translate(-225.259 -94.384)" fill="#fff"/>
      <path id="パス_21039" data-name="パス 21039" d="M243.446,235.742l-4.884-8.212v8.212h-2.408V222.364H238.3l4.885,8.192v-8.192h2.408v13.378Z" transform="translate(-221.115 -94.385)" fill="#fff"/>
      <path id="パス_21040" data-name="パス 21040" d="M252.439,224.693v11.049h-2.408V224.693h-3.222v-2.329h8.853v2.329Z" transform="translate(-215.313 -94.385)" fill="#fff"/>
      <path id="パス_21041" data-name="パス 21041" d="M260.673,235.742v-5.6H256.5v5.6H254.09V222.364H256.5v5.467h4.175v-5.467h2.408v13.378Z" transform="translate(-211.349 -94.385)" fill="#fff"/>
      <path id="パス_21042" data-name="パス 21042" d="M261.987,235.742V222.364h8.124v2.329h-5.716v3.138h4.867v2.329h-4.867v3.252h5.716v2.329Z" transform="translate(-207.049 -94.385)" fill="#fff"/>
      <path id="パス_21043" data-name="パス 21043" d="M274.456,224.693v3.289h4.867v2.329h-4.867v5.431h-2.408V222.364h8.124v2.329Z" transform="translate(-201.571 -94.385)" fill="#fff"/>
      <path id="パス_21044" data-name="パス 21044" d="M283.38,235.855a4.46,4.46,0,0,1-4.539-4.7v-8.793h2.408v8.7c0,1.542.832,2.461,2.131,2.461s2.145-.92,2.145-2.461v-8.7h2.391v8.793a4.459,4.459,0,0,1-4.536,4.7" transform="translate(-197.872 -94.385)" fill="#fff"/>
      <path id="パス_21045" data-name="パス 21045" d="M291.843,224.693v11.049h-2.408V224.693h-3.222v-2.329h8.852v2.329Z" transform="translate(-193.857 -94.385)" fill="#fff"/>
      <path id="パス_21046" data-name="パス 21046" d="M297.973,235.855a4.459,4.459,0,0,1-4.538-4.7v-8.793h2.406v8.7c0,1.542.832,2.461,2.131,2.461s2.147-.92,2.147-2.461v-8.7h2.391v8.793a4.46,4.46,0,0,1-4.538,4.7" transform="translate(-189.925 -94.385)" fill="#fff"/>
      <path id="パス_21047" data-name="パス 21047" d="M307.852,235.742l-2.408-5.335h-1.731v5.335H301.3V222.364h4.833a3.882,3.882,0,0,1,4,4.1,3.589,3.589,0,0,1-2.25,3.514l2.754,5.769Zm-1.87-11.049h-2.269v3.532h2.269a1.766,1.766,0,0,0,0-3.532" transform="translate(-185.64 -94.384)" fill="#fff"/>
      <path id="パス_21048" data-name="パス 21048" d="M308.916,235.742V222.364h8.124v2.329h-5.716v3.138h4.867v2.329h-4.867v3.252h5.716v2.329Z" transform="translate(-181.495 -94.385)" fill="#fff"/>
      <path id="パス_21049" data-name="パス 21049" d="M323.757,230.7h-2.372v5.037h-2.408V222.364h4.78a4.172,4.172,0,0,1,0,8.341m-.12-6.012h-2.252v3.665h2.252a1.833,1.833,0,0,0,0-3.665" transform="translate(-176.017 -94.384)" fill="#fff"/>
      <path id="パス_21050" data-name="パス 21050" d="M332.833,235.742l-2.408-5.335h-1.732v5.335h-2.408V222.364h4.833a3.882,3.882,0,0,1,4,4.1,3.588,3.588,0,0,1-2.252,3.514l2.755,5.769Zm-1.87-11.049h-2.269v3.532h2.269a1.766,1.766,0,0,0,0-3.532" transform="translate(-172.037 -94.384)" fill="#fff"/>
      <path id="パス_21051" data-name="パス 21051" d="M341.469,234.436a4.529,4.529,0,0,1-6.669,0c-1.246-1.354-1.212-3.026-1.212-5.337s-.034-3.985,1.212-5.337a4.525,4.525,0,0,1,6.669,0c1.246,1.352,1.229,3.024,1.229,5.337s.017,3.983-1.229,5.337m-1.784-9.1a1.934,1.934,0,0,0-1.541-.715,1.974,1.974,0,0,0-1.56.715c-.466.563-.589,1.183-.589,3.758s.122,3.194.589,3.758a1.973,1.973,0,0,0,1.56.714,1.933,1.933,0,0,0,1.541-.714c.468-.565.605-1.185.605-3.758s-.137-3.2-.605-3.758" transform="translate(-168.062 -94.43)" fill="#fff"/>
      <path id="パス_21052" data-name="パス 21052" d="M343.6,235.855a3.884,3.884,0,0,1-3.169-1.372l1.592-1.709a1.9,1.9,0,0,0,1.577.751c1.177,0,1.938-.751,1.938-2.292v-8.869h2.408v8.981a4.225,4.225,0,0,1-4.346,4.511" transform="translate(-164.335 -94.385)" fill="#fff"/>
      <path id="パス_21053" data-name="パス 21053" d="M347.3,235.742V222.364h8.124v2.329h-5.716v3.138h4.867v2.329h-4.867v3.252h5.716v2.329Z" transform="translate(-160.593 -94.385)" fill="#fff"/>
      <path id="パス_21054" data-name="パス 21054" d="M358.508,235.9a4.368,4.368,0,0,1-3.325-1.466c-1.246-1.352-1.212-3.024-1.212-5.337s-.034-3.983,1.212-5.337a4.372,4.372,0,0,1,3.325-1.464c2.3,0,4.105,1.428,4.538,4.227H360.6a2.1,2.1,0,0,0-2.079-1.9,1.921,1.921,0,0,0-1.541.7c-.466.565-.605,1.2-.605,3.777s.139,3.214.605,3.777a1.921,1.921,0,0,0,1.541.7,2.1,2.1,0,0,0,2.079-1.9h2.442c-.432,2.8-2.25,4.228-4.538,4.228" transform="translate(-156.963 -94.43)" fill="#fff"/>
      <path id="パス_21055" data-name="パス 21055" d="M366.631,224.693v11.049h-2.408V224.693H361v-2.329h8.852v2.329Z" transform="translate(-153.135 -94.385)" fill="#fff"/>
      <path id="パス_21056" data-name="パス 21056" d="M259.164,235.5a16.474,16.474,0,0,0,.568,2.82c.388-.168.638-.263,1.053-.422l1.084-.4a2.177,2.177,0,0,0,.3-.131l.307.922a17.6,17.6,0,0,0-2.584.853c-1.239.519-1.853,1.108-1.853,1.783,0,.432.25.712.761.853a5.761,5.761,0,0,0,1.279.116,8.117,8.117,0,0,0,2.454-.335l.073,1.01c-.17.008-.193.008-.632.062a14.8,14.8,0,0,1-1.853.122,4.139,4.139,0,0,1-2.26-.447,1.607,1.607,0,0,1-.689-1.406,2.061,2.061,0,0,1,.72-1.52,5.027,5.027,0,0,1,1.086-.747,20.293,20.293,0,0,1-.567-2.408,2.973,2.973,0,0,0-.13-.571Z" transform="translate(-209.67 -85.513)" fill="#fff"/>
      <path id="パス_21057" data-name="パス 21057" d="M262.711,238.908a3.053,3.053,0,0,0,.785.238c.032.008.252.044.649.1.032-.342.113-.984.17-1.379a8.628,8.628,0,0,1-1.181-.22l-.269-.062.082-.816a5.394,5.394,0,0,0,1.457.333,14.078,14.078,0,0,0,.179-1.485v-.132l.9.087a3.08,3.08,0,0,0-.13.59c-.017.079-.017.079-.073.5-.032.2-.04.288-.073.474.138.008.25.008.315.008a6.189,6.189,0,0,0,1.58-.176l-.032.861c-.1.008-.137.017-.34.035-.5.044-.777.062-1.021.062-.105,0-.21,0-.616-.008-.113.824-.128,1-.168,1.379.25.008.332.008.453.008a6.449,6.449,0,0,0,1.523-.159l-.025.834a1.637,1.637,0,0,0-.235.027,10.154,10.154,0,0,1-1.183.072c-.153,0-.25,0-.59-.018-.025.352-.032.528-.032.712a1.213,1.213,0,0,0,.332.957,1.445,1.445,0,0,0,1.061.352c1.036,0,1.685-.545,1.685-1.424a2.1,2.1,0,0,0-.746-1.5,2.483,2.483,0,0,0,.826-.2,3.512,3.512,0,0,1,.381.528,2.575,2.575,0,0,1,.363,1.282,2.086,2.086,0,0,1-.744,1.592,2.664,2.664,0,0,1-1.758.563,2.3,2.3,0,0,1-1.643-.555,2.075,2.075,0,0,1-.551-1.59,7.556,7.556,0,0,1,.04-.764,9.031,9.031,0,0,1-1.166-.211,1.418,1.418,0,0,0-.283-.052Z" transform="translate(-206.698 -85.517)" fill="#fff"/>
      <path id="パス_21058" data-name="パス 21058" d="M269.821,235.721a10.317,10.317,0,0,0-.443,2.145,22.5,22.5,0,0,0-.154,2.4v.793h.015a6.14,6.14,0,0,1,.439-1.354l.557.271a7.709,7.709,0,0,0-.7,2.559,1.747,1.747,0,0,0,.009.193l-.834.062a3.842,3.842,0,0,0-.042-.387,15.594,15.594,0,0,1-.21-2.592,16.757,16.757,0,0,1,.347-3.427,6.325,6.325,0,0,0,.114-.782Zm2.131,3.629a2.1,2.1,0,0,0-.584,1.282c0,.545.479.834,1.393.834a5.028,5.028,0,0,0,1.9-.325l.074.942c-.105.017-.128.017-.307.052a8.855,8.855,0,0,1-1.67.168,2.213,2.213,0,0,1-1.943-.721,1.5,1.5,0,0,1-.252-.861A2.877,2.877,0,0,1,271.3,239Zm-1.216-2.785a5.2,5.2,0,0,0,1.376.141,7.967,7.967,0,0,0,2.269-.246l.04.895c-.057,0-.105.01-.567.07a12.943,12.943,0,0,1-1.717.116,8.035,8.035,0,0,1-1.183-.07c-.113-.008-.136-.018-.225-.025Z" transform="translate(-203.523 -85.443)" fill="#fff"/>
      <path id="パス_21059" data-name="パス 21059" d="M273.941,236.906a12.2,12.2,0,0,0,1.767-.387,9.877,9.877,0,0,1,2.348-.308,2.3,2.3,0,0,1,2.551,2.356,3.022,3.022,0,0,1-1.75,2.723,6.811,6.811,0,0,1-2.777.712,3.274,3.274,0,0,0-.348-.948,6.906,6.906,0,0,0,2.186-.343,2.33,2.33,0,0,0,1.79-2.126c0-.948-.624-1.5-1.693-1.5a11.2,11.2,0,0,0-3.247.625,2.959,2.959,0,0,0-.624.238Z" transform="translate(-200.54 -85.03)" fill="#fff"/>
      <path id="パス_21060" data-name="パス 21060" d="M282.549,235.551a3.428,3.428,0,0,0-.131.57c-.056.281-.1.467-.185.853a5.843,5.843,0,0,0,1.353-.263l.031.851a1.953,1.953,0,0,0-.275.045,12.447,12.447,0,0,1-1.3.168,18.362,18.362,0,0,1-.891,2.557c-.185.429-.258.58-.575,1.185-.065.124-.122.23-.154.308l-.777-.483a7.14,7.14,0,0,0,.786-1.406,14.02,14.02,0,0,0,.785-2.136c-.17.008-.242.008-.479.008s-.226,0-.55-.007h-.292v-.845a5.462,5.462,0,0,0,1.029.07c.235,0,.382,0,.486-.008a8.837,8.837,0,0,0,.267-1.573Zm3.742,6.992a4.727,4.727,0,0,0-1.305-1.124,1.627,1.627,0,0,1,.008.186,1.39,1.39,0,0,1-1.611,1.441c-1.036,0-1.693-.526-1.693-1.362a1.516,1.516,0,0,1,1.684-1.459,3.8,3.8,0,0,1,.819.1c-.032-.447-.048-.781-.048-1.124a4.487,4.487,0,0,1,.065-.834l.785.06a3,3,0,0,0-.1.844,12.1,12.1,0,0,0,.08,1.273,5.411,5.411,0,0,1,1.337.843c.178.149.178.159.25.219a.644.644,0,0,0,.122.114Zm-2.868-1.572c-.582,0-.956.265-.956.669s.324.623.884.623c.6,0,.891-.271.891-.809,0-.1-.017-.325-.017-.333a2.285,2.285,0,0,0-.8-.149m2.891-2.435a9.2,9.2,0,0,0-2.26-1.22l.4-.7a11.425,11.425,0,0,1,2.227,1.159Z" transform="translate(-197.436 -85.547)" fill="#fff"/>
      <path id="パス_21061" data-name="パス 21061" d="M290.146,236.094a11.437,11.437,0,0,0-1,.984c-.412.412-.939.88-1.9,1.671-.259.219-.323.3-.323.4,0,.141.023.166.72.746a25.728,25.728,0,0,1,2.576,2.337c.1.106.137.132.227.22l-.7.766a7.725,7.725,0,0,0-1.053-1.2,25.007,25.007,0,0,0-2.074-1.862c-.5-.422-.639-.642-.639-1a1.019,1.019,0,0,1,.252-.658,4.782,4.782,0,0,1,.7-.617,13.362,13.362,0,0,0,2.43-2.433Zm-.08,2.557a5.425,5.425,0,0,0-.771-1.186l.511-.308a4.931,4.931,0,0,1,.778,1.17Zm.826-.519a5.987,5.987,0,0,0-.771-1.151l.5-.3a5.2,5.2,0,0,1,.771,1.124Z" transform="translate(-193.986 -85.548)" fill="#fff"/>
      <path id="パス_21062" data-name="パス 21062" d="M300.912,235.437a7.2,7.2,0,0,0-.048.851,10.022,10.022,0,0,0,.219,2.039,7.426,7.426,0,0,0,1.2,2.46,7.831,7.831,0,0,0,1.117,1.168,5.316,5.316,0,0,0,.8.563,2.731,2.731,0,0,0-.544.809,8.205,8.205,0,0,1-2.09-2.143,7.511,7.511,0,0,1-1.069-2.567,7.413,7.413,0,0,1-.6,1.846,6.072,6.072,0,0,1-1.214,1.739,6.874,6.874,0,0,1-1.353,1.116,2.274,2.274,0,0,0-.55-.747,5.57,5.57,0,0,0,1.878-1.609,7.48,7.48,0,0,0,1.4-4.789,6,6,0,0,0-.034-.737Z" transform="translate(-188.101 -85.553)" fill="#fff"/>
      <path id="パス_21063" data-name="パス 21063" d="M305.182,235.488a16.472,16.472,0,0,0,.568,2.82c.389-.166.639-.263,1.053-.422l1.084-.4a2.191,2.191,0,0,0,.3-.131l.307.922a17.58,17.58,0,0,0-2.582.853c-1.24.519-1.855,1.108-1.855,1.785,0,.431.25.712.761.851a5.764,5.764,0,0,0,1.279.116,8.066,8.066,0,0,0,2.454-.335l.073,1.01c-.168.008-.193.008-.63.062a14.85,14.85,0,0,1-1.855.122,4.14,4.14,0,0,1-2.26-.447,1.607,1.607,0,0,1-.689-1.406,2.061,2.061,0,0,1,.72-1.52,5.026,5.026,0,0,1,1.086-.747,20.281,20.281,0,0,1-.567-2.408,2.977,2.977,0,0,0-.13-.571Z" transform="translate(-184.613 -85.518)" fill="#fff"/>
      <path id="パス_21064" data-name="パス 21064" d="M310.321,242.553a6.482,6.482,0,0,0,.04.888h-.819a6.461,6.461,0,0,0,.049-.9l0-2.435a7.088,7.088,0,0,1-1,.88,2.678,2.678,0,0,0-.363-.739,6.151,6.151,0,0,0,1.441-1.265,5.659,5.659,0,0,0,.907-1.441h-1.393a4.974,4.974,0,0,0-.672.035v-.818a4.7,4.7,0,0,0,.639.037l.437,0v-.772a4.088,4.088,0,0,0-.049-.669h.828a4.037,4.037,0,0,0-.049.685v.756h.389a2.627,2.627,0,0,0,.469-.027l.332.4a2.55,2.55,0,0,0-.178.352,7.564,7.564,0,0,1-.851,1.521,5.085,5.085,0,0,0,1.3,1.149,3.106,3.106,0,0,0-.372.712,4.886,4.886,0,0,1-1.084-1.037Zm3.393-.308h1.094a5.947,5.947,0,0,0,.908-.054v.915a5.512,5.512,0,0,0-.908-.062h-2.819a5.475,5.475,0,0,0-.9.062v-.913a6.135,6.135,0,0,0,.905.052h.973l0-3.549h-.68a7.388,7.388,0,0,0-.8.044v-.861a4.808,4.808,0,0,0,.8.054h.68v-1.687a6.218,6.218,0,0,0-.057-.87l.859,0a5.046,5.046,0,0,0-.057.87v1.689h.941a4.772,4.772,0,0,0,.792-.054v.861a7.243,7.243,0,0,0-.794-.045h-.941Z" transform="translate(-181.868 -85.607)" fill="#fff"/>
      <path id="パス_21065" data-name="パス 21065" d="M315.769,238.116a7.837,7.837,0,0,1-1.361.826,2.51,2.51,0,0,0-.422-.739,7.176,7.176,0,0,0,3.361-2.812h.8a5.474,5.474,0,0,0,1.362,1.5,8.219,8.219,0,0,0,2.145,1.273,3.344,3.344,0,0,0-.4.818,9.244,9.244,0,0,1-1.45-.878v.712a5.436,5.436,0,0,0-.714-.035h-2.664a5.5,5.5,0,0,0-.664.035Zm-.487,2.294a6.672,6.672,0,0,0-.939.052V239.6a6.893,6.893,0,0,0,.939.054l5.021,0a6.631,6.631,0,0,0,.941-.054v.861a7.107,7.107,0,0,0-.941-.052l-2.833,0a12.847,12.847,0,0,1-.916,1.862c1.9-.159,1.9-.159,2.809-.273-.34-.412-.5-.6-.882-1l.624-.36a17.737,17.737,0,0,1,1.9,2.327l-.639.484c-.259-.432-.357-.573-.519-.809-1.344.193-2.884.36-4.09.457a10.5,10.5,0,0,0-1.174.132l-.122-.9c.178.008.34.017.454.017.065,0,.187-.008.372-.017.073,0,.073,0,.4-.018a11.465,11.465,0,0,0,.93-1.905Zm3.815-2.383c.235,0,.4-.008.567-.017a7.392,7.392,0,0,1-1.9-1.907,7.805,7.805,0,0,1-1.855,1.907,4.907,4.907,0,0,0,.527.017Z" transform="translate(-178.734 -85.583)" fill="#fff"/>
      <path id="パス_21066" data-name="パス 21066" d="M322.44,235.485a16.45,16.45,0,0,0,.568,2.82c.389-.166.639-.263,1.053-.421l1.084-.4a2.4,2.4,0,0,0,.3-.132l.307.922a17.584,17.584,0,0,0-2.583.853c-1.24.519-1.855,1.108-1.855,1.785,0,.431.25.712.761.851a5.76,5.76,0,0,0,1.279.116,8.065,8.065,0,0,0,2.454-.335l.073,1.01c-.168.01-.193.01-.632.062a14.493,14.493,0,0,1-1.853.122,4.14,4.14,0,0,1-2.26-.447,1.607,1.607,0,0,1-.689-1.406,2.064,2.064,0,0,1,.72-1.52,5.082,5.082,0,0,1,1.086-.747,20.571,20.571,0,0,1-.568-2.406,2.878,2.878,0,0,0-.128-.571Z" transform="translate(-175.216 -85.52)" fill="#fff"/>
      <path id="パス_21067" data-name="パス 21067" d="M326.206,236.424a2.887,2.887,0,0,0-.607.045v-.8a3.055,3.055,0,0,0,.689.052h.8a3.733,3.733,0,0,0,.7-.054v.8a2.709,2.709,0,0,0-.551-.045h-.105v1.863a2.47,2.47,0,0,0,.544-.035V239a3.418,3.418,0,0,0-.544-.027v1.818c.309-.131.446-.2.851-.4v.764a20.517,20.517,0,0,1-1.887.851,3.577,3.577,0,0,0-.42.194l-.195-.853a4.542,4.542,0,0,0,.948-.281v-2.089h-.153a3.38,3.38,0,0,0-.551.035v-.757a3.3,3.3,0,0,0,.558.035h.147l0-1.863Zm6.512,4.665c-.13.124-.7.607-.866.721a4.42,4.42,0,0,0,1.328.623,5.376,5.376,0,0,0-.38.739,5.366,5.366,0,0,1-1.467-.878,3.81,3.81,0,0,1-.849-.975c.025.333.032.464.032.737v.58a4.907,4.907,0,0,0,.04.766h-.769a6.235,6.235,0,0,0,.04-.8v-.509c0-.114.008-.387.008-.439.017-.184.017-.184.025-.263a6.421,6.421,0,0,1-2.22,1.7,2.289,2.289,0,0,0-.462-.669,6.08,6.08,0,0,0,1.481-.764,4.429,4.429,0,0,0,1.03-.95h-.834a6.133,6.133,0,0,0-.639.027,4.835,4.835,0,0,0,.023-.543V239.5c0-.229-.008-.387-.023-.553.193.017.4.025.663.025h2.908c.3,0,.519-.01.7-.027a5.03,5.03,0,0,0-.025.553v.7a4.324,4.324,0,0,0,.025.526,1.529,1.529,0,0,0-.3-.017Zm-4.859-3.249a4.027,4.027,0,0,0,.777.052H332.2a4.942,4.942,0,0,0,.768-.044v.736a5.18,5.18,0,0,0-.76-.044l-3.582,0a4.888,4.888,0,0,0-.768.044Zm.178-1.741a3.963,3.963,0,0,0-.032-.613,4.7,4.7,0,0,0,.647.035l3.427,0c.225,0,.485-.018.655-.035a5.134,5.134,0,0,0-.032.615v.8a4.573,4.573,0,0,0,.032.6c-.177-.017-.355-.025-.632-.025h-3.45c-.275,0-.445.008-.639.025a5.108,5.108,0,0,0,.025-.613Zm1.376.025-.737,0v.766h.737Zm-.486,3.991h2.836v-.563h-2.836Zm1.8-3.991H330v.766h.721Zm-.073,4.578a5.983,5.983,0,0,0,.689.731,3.452,3.452,0,0,0,.777-.731h-1.466Zm1.418-4.578h-.763v.766h.763Z" transform="translate(-172.478 -85.521)" fill="#fff"/>
      <path id="パス_21068" data-name="パス 21068" d="M332.2,236.439a7.779,7.779,0,0,0-.049-.965h.8a6.251,6.251,0,0,0-.048.974v1.213h.042a5.313,5.313,0,0,0,.6-.027v.774a3.886,3.886,0,0,0-.592-.035h-.049v2.311c.244-.114.357-.176.786-.4l.032.781c-.584.307-1.061.536-1.968.932-.137.062-.244.114-.357.176l-.162-.853a4.843,4.843,0,0,0,.964-.323v-2.619h-.219a4.037,4.037,0,0,0-.655.044l0-.8a3.96,3.96,0,0,0,.672.044h.2Zm2.47,4.831c-.242,0-.428.01-.7.027a3.949,3.949,0,0,0,.034-.63v-1.5a5.086,5.086,0,0,0-.034-.684c.2.017.414.027.778.027l2.712,0c.358,0,.544-.008.763-.025a4.975,4.975,0,0,0-.033.692v1.441a5.036,5.036,0,0,0,.033.685,6.481,6.481,0,0,0-.673-.027h-.638v1.153c0,.176.065.2.6.2.355,0,.493-.035.542-.122a3.154,3.154,0,0,0,.088-.9,2.041,2.041,0,0,0,.664.271c-.048.791-.111,1.056-.307,1.232-.178.166-.42.211-1.077.211-.624,0-.826-.027-1-.159a.5.5,0,0,1-.195-.474V241.27h-.673a2.5,2.5,0,0,1-.113.59,2.1,2.1,0,0,1-1,1.2,4.158,4.158,0,0,1-1.2.439,2.052,2.052,0,0,0-.4-.71c1.393-.2,1.928-.608,2.025-1.523Zm2.956-5.173a7.2,7.2,0,0,0,.851-.045v.694a7.6,7.6,0,0,0-.851-.035c-.122.317-.2.5-.315.731h.558a4.786,4.786,0,0,0,.819-.045l0,.746a5.743,5.743,0,0,0-.843-.044l-3.386,0c-.372,0-.5.008-.754.027v-.72a5.725,5.725,0,0,0,.737.035h.4a4.351,4.351,0,0,0-.267-.731h-.105a5.159,5.159,0,0,0-.689.035v-.694a5.373,5.373,0,0,0,.843.045h1.094v-.211a3.447,3.447,0,0,0-.042-.545h.8a2.739,2.739,0,0,0-.039.545v.211Zm-2.939,3.479H337.5v-.459l-2.811,0Zm0,1.091,2.811,0v-.511h-2.811Zm1.9-3.226a4.89,4.89,0,0,0,.307-.731h-1.611a6.35,6.35,0,0,1,.259.731Z" transform="translate(-169.34 -85.617)" fill="#fff"/>
    </g>
  </g>
</svg>
