<svg xmlns="http://www.w3.org/2000/svg" width="32.005" height="41.44" viewBox="0 0 32.005 41.44">
  <g id="電話の受話器のアイコン素材" transform="translate(-1029.583 548.953)">
    <path id="パス_60" data-name="パス 60" d="M62.48,1.71c-2.774,1.8-3.319,7.424-2.272,12.008a41.406,41.406,0,0,0,5.475,12.868A43,43,0,0,0,75.2,36.832c3.758,2.826,9.116,4.622,11.89,2.823a14.05,14.05,0,0,0,3.582-3.842l-1.49-2.3-4.1-6.32c-.3-.47-2.215-.04-3.185.509a9.239,9.239,0,0,0-2.514,2.732c-.9.519-1.649,0-3.22-.721-1.93-.888-4.1-3.648-5.828-6.147-1.578-2.6-3.212-5.7-3.236-7.828-.019-1.729-.185-2.626.655-3.234a9.239,9.239,0,0,0,3.519-1.182c.9-.662,2.068-2.231,1.764-2.7l-4.1-6.32-1.49-2.3A14.052,14.052,0,0,0,62.48,1.71Z" transform="translate(970.385 -548.403)" fill="none" stroke="#fff" stroke-width="1"/>
  </g>
</svg>
