<?xml version="1.0" encoding="utf-8"?>
<!-- Generator: Adobe Illustrator 24.3.0, SVG Export Plug-In . SVG Version: 6.00 Build 0)  -->
<svg version="1.1" id="レイヤー_1" xmlns="http://www.w3.org/2000/svg" xmlns:xlink="http://www.w3.org/1999/xlink" x="0px"
	 y="0px" viewBox="0 0 290 48" style="enable-background:new 0 0 290 48;" xml:space="preserve">
<style type="text/css">
	.st0{fill:#5B8DCD;}
</style>
<path id="パス_1326" class="st0" d="M107.4,2.4c0.4-0.9,0.7-1.3,0.9-1.3h0.1c0.4,0.1,0.8,0.3,1.2,0.6c0.6,0.4,0.9,0.8,0.9,1.2
	c0,0.5-1.7,4.4-5,11.8s-5.2,11.5-5.7,12.4c-0.5,0.9-0.8,1.5-1,1.8c-0.2,0.4-0.5,0.7-0.7,1c-0.5,0.7-1.3,1-2.1,1
	c-0.3,0-0.6,0-0.9,0.1c-0.2,0.1-0.3,0.1-0.5,0.1c-0.4,0-0.6-0.1-0.6-0.3c0-0.2,0.1-0.3,0.2-0.5c0.1-0.3,1.6-3.4,4.5-9.5
	c-3.1-0.1-5.7-0.2-8.1-0.3c-2.2,2.8-4.2,5.7-6.1,8.8c-0.2,0.3-0.4,0.6-0.6,0.9c-0.2,0.2-0.5,0.3-0.8,0.3c-0.4,0-0.8-0.2-1.1-0.5
	c-0.4-0.3-0.6-0.7-0.6-1.2c0-1.3,1.7-4.1,5-8.4c-1,0-2,0-3,0.1c-0.3,0.1-0.5,0.1-0.8,0.1c-0.4,0-0.5-0.3-0.5-0.9
	c0-0.7,0.4-1.3,1-1.6c0.8-0.5,1.8-0.7,2.8-0.7c0.1,0,0.3,0,0.5,0c0.8,0,1.6-0.1,2.5-0.1c2.8-3.3,5.8-6.4,8.9-9.3
	c2.4-2.3,5.1-4.4,8-6c0.3-0.2,0.6-0.2,0.9-0.3C106.9,2,107.2,2.2,107.4,2.4z M106,5.2c-4.8,3.6-9.1,7.7-13,12.3
	c2.3,0.1,4.6,0.1,7,0.3C102.3,12.8,104.3,8.6,106,5.2L106,5.2z M120.9,2c-2.7,4.1-5.4,8.4-8,12.9c0.6-0.3,1.3-0.6,2-0.7
	c0.5-0.1,1.1-0.2,1.6-0.2c0.3,0,0.6,0,0.8,0c0.3,0,0.6,0.1,0.9,0.2c0.3,0.1,0.6,0.3,0.9,0.5c0.6,0.6,1,1.4,0.9,2.3
	c0,1.1-0.3,2.2-0.8,3.2c-0.6,1.2-1.3,2.4-2.1,3.5c-0.9,1.2-1.9,2.3-3,3.3c-1,1-2.2,1.8-3.5,2.5c-1.1,0.6-2.2,0.9-3.5,1
	c-0.7-0.1-1.3-0.4-1.7-1c-0.7-0.7-1-1.6-1-2.5c0.2-1.7,0.6-3.3,1.3-4.8c0.9-2.3,2-4.5,3.3-6.7c1.3-2.3,2.6-4.5,3.9-6.6
	c1.3-2.1,2.5-3.9,3.4-5.3c0.5-0.8,1.1-1.6,1.7-2.4c0.3-0.3,0.7-0.4,1.1-0.5c0.5-0.1,1-0.2,1.4-0.2c0.4,0,0.6,0.2,0.6,0.6
	C121.2,1.4,121.1,1.7,120.9,2L120.9,2z M115.6,20.7c0.5-0.8,0.8-1.7,0.8-2.6c0-0.8-0.2-1.2-0.7-1.2c-0.8,0.1-1.5,0.3-2.2,0.6
	c-0.6,0.3-1.1,0.5-1.7,0.6c-0.2,0-0.4-0.2-0.6-0.4c-2.5,4.6-3.8,7.5-3.8,8.8c0,0.6,0.2,0.9,0.6,0.9c0.9,0,2.2-0.8,3.9-2.3
	C113.3,24,114.6,22.5,115.6,20.7L115.6,20.7z M133,15c0.5,0,0.9,0.2,1.2,0.5c0.4,0.4,0.7,1,0.6,1.6c-0.1,1-0.3,1.9-0.8,2.8
	c-0.6,1.2-1.3,2.4-2.1,3.5c-0.9,1.2-1.9,2.3-2.9,3.4c-1,1-2.2,1.9-3.4,2.6c-1,0.6-2.2,1-3.3,1c-0.9,0-1.8-0.3-2.4-0.9
	c-0.6-0.7-1-1.7-0.9-2.6c0-1.3,0.3-2.6,0.8-3.7c0.5-1.3,1.2-2.5,2.1-3.6c0.9-1,1.8-2,2.8-2.8c2.1-1.7,4-2.6,5.6-2.6
	c0.6,0,1.2,0.1,1.6,0.5c0.1,0.1,0.2,0.2,0.2,0.3V15C132.4,15,132.7,15,133,15L133,15z M131,17.6h-0.1c-0.5,0-0.7-0.3-0.7-1
	c-1.1,0.4-2.1,0.9-3,1.6c-1.1,0.8-2,1.7-2.8,2.8c-1.7,2.1-2.5,3.9-2.5,5.4c0,0.7,0.3,1.1,0.8,1.1c0.9-0.1,1.7-0.5,2.4-1.1
	c1.2-0.8,2.3-1.8,3.1-3c0.9-1.1,1.6-2.2,2.3-3.4c0.4-0.6,0.6-1.3,0.8-2C131.2,17.7,131.2,17.6,131,17.6L131,17.6z M150.9,23.7
	c0.2,0,0.4,0.2,0.4,0.6c0.1,0.4,0.1,0.8,0.1,1.2c0,0.3,0,0.6-0.1,0.8c-0.7,1-1.5,1.9-2.5,2.7c-1,0.9-2.3,1.5-3.6,1.6
	c-0.7,0-1.4-0.2-2-0.6c-0.7-0.5-1-1.4-0.9-2.2c0-1.1,0.3-2.2,0.8-3.1c-3.2,4-5.8,6.1-7.6,6.1c-0.7,0-1.3-0.3-1.8-0.8
	c-0.4-0.4-0.7-1-0.7-1.6c0-0.6,0.1-1.2,0.2-1.7c0.1-0.5,0.3-1.1,0.5-1.6c0.2-0.6,0.5-1.2,0.8-1.7c0.3-0.7,0.6-1.2,0.8-1.5
	c0.2-0.3,0.4-0.8,0.8-1.4c0.4-0.6,0.9-1.5,1.5-2.5c0.4-0.8,0.9-1.6,1.5-2.4c0.3-0.4,0.7-0.7,1.2-0.8c0.4,0,0.8,0.2,1,0.5
	c0.2,0.2,0.4,0.5,0.4,0.8c-0.3,0.9-0.8,1.8-1.3,2.6c-2.6,4.7-3.9,7.4-3.9,8.1c0,0.2,0.1,0.3,0.2,0.3c0.6,0,2.2-1.4,4.7-4.1
	c1.6-1.6,3-3.3,4.3-5.2c0.3-0.7,0.7-1.3,1.1-1.9c0.2-0.4,0.5-0.7,0.8-1c0.7-0.4,1.4-0.6,2.2-0.6c0.1,0,0.2,0,0.3,0
	c0.1,0,0.2,0.1,0.3,0.3c0.1,0.1,0.1,0.3,0.2,0.5c-0.4,1-1,2-1.6,2.9c-0.9,1.6-1.4,2.5-1.5,2.7c-1.5,3.2-2.3,5.2-2.3,6.2
	c0,0.5,0.2,0.8,0.6,0.8c1.1-0.3,2-0.9,2.7-1.8c0.4-0.4,0.8-0.8,1.2-1.2c0.2-0.3,0.5-0.5,0.7-0.7C150.6,23.8,150.8,23.7,150.9,23.7
	L150.9,23.7z M163.6,4.7l0.8,0.2c0.1,0,0.2,0.1,0.3,0.2c0.1,0.1,0.1,0.2,0.1,0.3c-0.1,0.3-0.2,0.6-0.4,0.8c-0.3,0.5-0.6,1-1,1.6
	c-0.4,0.6-0.6,0.9-0.6,0.9c1-0.1,1.7-0.1,2.2-0.1c0.3,0,0.6,0,0.9,0.1c0.2,0.1,0.4,0.3,0.5,0.5c0.2,0.2,0.3,0.4,0.6,0.6
	c0.2,0.2,0.3,0.4,0.3,0.6c0,0.3-0.2,0.6-0.5,0.7c-0.3,0.2-0.7,0.3-1.1,0.3c-3,0.3-4.7,0.5-5,0.5c-1.1,1.6-2.5,4.1-4.4,7.5
	c-1.9,3.4-2.9,5.6-3,6.4c0,0.3-0.1,0.6-0.1,1c0,0.5,0.3,0.8,0.8,0.8c0.6,0,1.3-0.2,1.8-0.6c0.6-0.4,1.2-0.8,1.8-1.3
	c0.7-0.7,1.5-1.4,2.3-2c0.3,0,0.5,0.6,0.5,1.8c0,0.7-0.3,1.3-0.9,1.7c-1,0.9-2.2,1.8-3.3,2.6c-0.8,0.5-1.7,0.8-2.7,0.9
	c-0.2,0-0.4,0-0.5-0.1c-0.9-0.1-1.7-0.5-2.3-1.1c-0.5-0.6-0.8-1.5-0.7-2.3c0.1-1.2,0.4-2.4,0.9-3.5c0.6-1.5,1.3-3,2.1-4.4
	c1.4-2.5,2.8-4.9,4.2-7.1l-0.7,0.1c-1.5,0.2-2.4,0.3-2.6,0.3h-0.2c-0.4,0-0.7-0.1-1.1-0.2c-0.4-0.1-0.5-0.3-0.5-0.6
	c0-0.2,0.1-0.5,0.3-0.6c0.1-0.1,0.3-0.3,0.3-0.5c0.1-0.3,0.4-0.6,1-1c0.4-0.3,0.9-0.5,1.3-0.6c0.3,0,0.6,0,0.9,0s0.6,0,0.9,0
	c0.3,0,0.6,0,0.8,0l1.8-0.1c0.7-1.1,1.5-2.1,2.3-3.2c0.2-0.3,0.5-0.5,0.7-0.8c0.1-0.1,0.3-0.1,0.4-0.1L163.6,4.7z M184.9,2.1
	l1.4-0.3c0.3,0,0.6,0.1,0.9,0.2c0.2,0.2,0.3,0.3,0.3,0.4c0,0.2,0,0.4-0.1,0.6c-0.1,0.3-0.6,2.8-1.6,7.6c-1,4.8-1.7,8.4-2.2,10.8
	c2.2-3,4.8-6.7,7.8-11.1s4.7-7.3,5.2-8.8c0.1-0.4,0.3-0.8,0.6-1.1c0.2-0.2,0.4-0.4,0.7-0.4c0.3-0.1,0.6-0.1,0.9-0.1
	c0.5,0,1,0.1,1.4,0.3c0.6,0.2,0.8,0.5,0.8,0.9c0,0.8-1.1,3-3.4,6.6s-4.9,7.5-7.8,11.7c-2.9,4.1-5.4,7.4-7.3,9.8
	c-0.3,0.4-0.8,0.6-1.3,0.6c-0.5,0-1.1-0.1-1.6-0.3c-0.6-0.2-0.8-0.5-0.8-0.9c0-1.4,1.3-8.3,3.8-20.6c-2.1,2.8-4.8,6.7-7.8,11.6
	c-3.2,5.1-5,8.3-5.4,9.6c-0.2,0.7-0.5,1.2-0.8,1.3c-0.2,0.1-0.4,0.1-0.7,0.1l-1.5,0.2c-0.3,0-0.6-0.1-0.8-0.3
	c-0.3-0.2-0.4-0.3-0.4-0.5c0-0.5,0.7-2.1,2.2-4.7s3.1-5.4,5-8.4c1.9-3,3.9-6,6-8.9c1.4-2.1,3.1-4,4.9-5.8c0.2-0.2,0.5-0.3,0.8-0.3
	L184.9,2.1z M211.7,1.5l0.9,0c0.3,0,0.5,0.1,0.5,0.4c0,0.1,0,0.1,0,0.2c-6.2,9.2-12,18.1-17.4,26.9c-0.3,0.5-0.5,0.7-0.8,0.8
	c-0.1,0-0.1,0-0.2,0.1c-0.4,0.2-0.9,0.3-1.4,0.4c-0.1,0-0.3,0-0.4,0c-0.1,0.1-0.3,0.2-0.4,0.2c-0.2,0-0.3,0-0.3,0
	c-0.2,0-0.3-0.1-0.4-0.2c-0.2-0.1-0.4-0.2-0.4-0.2c0-0.4,0-0.8,0.1-1.2c0.3-0.9,1.8-3.5,4.5-7.8s5.5-8.5,8.3-12.6
	c2.8-4.1,4.5-6.4,5.1-6.8c0.2-0.2,0.5-0.2,0.7-0.2L211.7,1.5z M213.8,27.4c-2.4,2.1-5.5,3.3-8.7,3.2c-2,0-3.5-0.4-4.4-1.3
	c-0.6-0.7-0.8-1.6-0.7-2.5c0-1.8,1.4-3,4.2-3.5c1-0.2,2.1-0.3,3.1-0.3c1.7,0.1,3.4,0.3,5,0.7c1.5-1.8,2.8-3.6,4.1-5.6
	c1.6-2.5,2.8-4.3,3.7-5.7c0.9-1.3,1.9-2.7,3.1-4.1c1.1-1.3,2.3-2.6,3.6-3.8c2.6-2.3,5.1-3.4,7.6-3.4c0.9-0.1,1.8,0.2,2.4,0.9
	c0.5,0.6,0.8,1.3,0.7,2c-0.1,1-0.4,1.9-1.1,2.7c-0.7,1-1.5,1.9-2.5,2.7c-0.9,0.7-1.8,1.4-2.8,2c-0.6,0.5-1.4,0.7-2.1,0.8
	c-0.5,0-1-0.2-1.3-0.7c-0.3-0.3-0.5-0.8-0.6-1.3c0-0.3,0-0.6,0.2-0.9c0.1-0.2,0.2-0.2,0.3-0.2c0.1,0,0.2,0.1,0.2,0.2
	c0.7-0.3,1.4-0.7,2-1.2c0.9-0.7,1.7-1.4,2.5-2.1c0.8-0.7,1.1-1.2,1.1-1.4s-0.1-0.3-0.3-0.3c-0.3,0-0.6,0.1-0.9,0.2
	c-0.6,0.3-1.1,0.6-1.6,1c-0.8,0.6-1.5,1.2-2.1,1.9c-2.3,2.4-4.3,5-6.1,7.8c-0.5,0.8-1.3,1.9-2.2,3.3c-1.9,2.9-3.3,4.9-4.2,6
	c6.7,1.8,11.5,2.6,14.3,2.6c1,0.1,1.9-0.1,2.8-0.5c0.1-0.1,0.3-0.1,0.4-0.2c0.1,0,0.1,0.1,0.1,0.2c0,0.2-0.1,0.3-0.2,0.5
	c-0.1,0.2-0.4,0.7-0.9,1.3c-0.3,0.5-0.6,0.9-1,1.2c-1,0.5-2.1,0.6-3.3,0.6c-1.5,0-2.9-0.1-4.4-0.3c-1.4-0.2-2.5-0.4-3.3-0.7
	s-2.1-0.6-3.8-1C215.4,27.9,214.3,27.5,213.8,27.4L213.8,27.4z M206.6,26.2c-1.7,0-2.6,0.2-2.6,0.6c0,0.2,0.1,0.3,0.4,0.4
	c0.3,0.1,0.7,0.2,1,0.2c1.3,0,2.5-0.4,3.7-1C208.4,26.3,207.5,26.2,206.6,26.2L206.6,26.2z M259,2.4c0.4-0.9,0.7-1.3,0.9-1.3h0.1
	c0.4,0.1,0.8,0.3,1.2,0.6c0.6,0.4,0.9,0.8,0.9,1.2c0,0.5-1.7,4.4-5,11.8s-5.2,11.5-5.7,12.4c-0.5,0.9-0.8,1.5-1,1.8
	c-0.2,0.4-0.5,0.7-0.7,1c-0.5,0.7-1.3,1-2.1,1c-0.3,0-0.6,0-0.9,0.1c-0.2,0.1-0.3,0.1-0.5,0.1c-0.4,0-0.6-0.1-0.6-0.3
	c0-0.2,0.1-0.3,0.2-0.5c0.1-0.3,1.6-3.4,4.5-9.5c-3.1-0.1-5.7-0.2-8.1-0.3c-2.2,2.8-4.2,5.7-6.1,8.8c-0.2,0.3-0.4,0.6-0.6,0.9
	c-0.2,0.2-0.5,0.3-0.8,0.3c-0.4,0-0.8-0.2-1.1-0.5c-0.4-0.3-0.6-0.7-0.6-1.2c0-1.3,1.7-4.1,5-8.4c-1,0-2,0-3,0.1
	c-0.3,0.1-0.5,0.1-0.8,0.1c-0.4,0-0.5-0.3-0.5-0.9c0-0.7,0.4-1.3,1-1.6c0.8-0.5,1.8-0.7,2.8-0.7c0.1,0,0.3,0,0.5,0
	c0.8,0,1.6-0.1,2.5-0.1c2.8-3.3,5.8-6.4,8.9-9.3c2.4-2.3,5.1-4.4,8-6c0.3-0.2,0.6-0.2,0.9-0.3C258.6,2,258.9,2.2,259,2.4L259,2.4z
	 M257.7,5.2c-4.8,3.6-9.1,7.7-13,12.3c2.3,0.1,4.6,0.1,7,0.3C254,12.8,256,8.6,257.7,5.2L257.7,5.2z M256.1,30.2l-0.1,0
	c-0.1,0-0.3-0.1-0.6-0.4l-0.5-0.5c-0.1-0.1-0.2-0.1-0.2-0.2c-0.1-0.1-0.2-0.1-0.2-0.1c0,0-0.1-0.1-0.1-0.1c0,0-0.1-0.1-0.1-0.1
	c0,0,0-0.1-0.1-0.1c0-0.1-0.1-0.2-0.1-0.3c0-0.2,0.1-0.4,0.1-0.7c0.1-0.4,1.5-1.7,4-3.8s6.2-5,11-8.7c0.2-0.7,0.4-1.6,0.7-2.6
	c0.3-1,0.5-1.8,0.7-2.5c0.2-0.6,0.3-1.3,0.5-1.9c0.2-0.7,0.4-1.4,0.5-2.2c0-0.2-0.1-0.3-0.2-0.3c-0.5,0-1.6,0.7-3.2,2.2
	c-1.7,1.5-2.5,2.5-2.5,2.9c0,0.3-0.1,0.4-0.3,0.4c-0.1,0-0.4-0.2-0.6-0.5c-0.2-0.2-0.4-0.5-0.5-0.8c0-0.3-0.1-0.5-0.1-0.7
	c-0.1-0.3-0.1-0.6-0.1-1c0-0.7,0.6-1.6,1.9-2.7c1.3-1.2,2.6-2.2,4.1-3.1c1-0.7,2.1-1.1,3.3-1.3c0.6,0,1.2,0.2,1.6,0.7
	c0.4,0.6,0.7,1.3,0.6,2c-0.3,2.6-0.9,5.1-1.7,7.5c7.3-5.6,11.2-8.5,11.5-8.8c0.5-0.3,1.2-0.4,1.8-0.3c0.8,0,1.6,0.2,2.4,0.5
	c0.2,0.1,0.4,0.2,0.4,0.4c0,0.2-0.1,0.3-0.1,0.5c-0.2,0.2-0.3,0.4-0.5,0.5c-0.3,0.2-0.8,0.6-1.5,1.1c-0.8,0.6-1.7,1.2-2.8,2
	c-2.5,1.8-6.7,5-12.5,9.6c-1.2,4.8-1.9,7.9-1.9,9.3c0,0.4,0,0.5,0.1,0.5c0.1,0,0.2-0.1,0.3-0.2c1.3-0.9,2.6-1.9,3.8-3
	c1.1-0.9,2.1-1.9,3.1-2.9c0.3-0.4,0.6-0.6,0.7-0.6c0.2,0,0.3,0.2,0.3,0.7l0,0.3c0,0,0.1,0.2,0.2,0.6c0.1,0.4,0.2,0.8,0.2,1.2
	c0,0.4-0.1,0.8-0.3,1.1c-0.2,0.4-0.5,0.7-0.8,1c-0.4,0.4-0.9,0.9-1.5,1.5c-0.6,0.6-1.3,1.2-2,1.7c-1.4,1.2-3.1,1.8-4.9,1.9
	c-0.7,0-1.5-0.3-2-0.8c-0.6-0.7-1-1.7-0.9-2.7c0.1-2.1,0.5-4.2,1-6.2c-7.4,6.2-11.2,9.4-11.3,9.4c-0.1,0-0.2,0.1-0.3,0.1L256.1,30.2
	z"/>
</svg>
