<svg xmlns="http://www.w3.org/2000/svg" xmlns:xlink="http://www.w3.org/1999/xlink" width="147" height="59" viewBox="0 0 147 59">
  <defs>
    <clipPath id="clip-path">
      <rect id="長方形_6" data-name="長方形 6" width="147" height="59" transform="translate(0 0)" fill="none"/>
    </clipPath>
  </defs>
  <g id="グループ_1655" data-name="グループ 1655" style="mix-blend-mode: multiply;isolation: isolate">
    <g id="グループ_8" data-name="グループ 8" transform="translate(0 0)" clip-path="url(#clip-path)">
      <path id="パス_17" data-name="パス 17" d="M117.825,58.235h-6.636a4.175,4.175,0,0,0,1.371-2.894,6.956,6.956,0,0,1-1.974-.891c-.191.366-.123.777-.342,1.111-.093-.039-.178-.047-.205-.09a9.654,9.654,0,0,1-.9-1.653,15.877,15.877,0,0,1-.51-3.719.4.4,0,0,1,.146-.44h3.063V47.7c-.295-.226-.618-.046-.882-.179.029-.248.361-.292.353-.582a8,8,0,0,0-1.821-1.523l-.852.827-.2-.684h-2.084c-.1.689.078,1.342-.079,2-2.114.032-4.2-.022-6.344.031a19.721,19.721,0,0,0,.051,2.129h6.441c.055.5.12.946.149,1.392a14.767,14.767,0,0,0,.523,3.176,5.727,5.727,0,0,0,3.145,3.948H38.191A5.9,5.9,0,0,1,39.6,57.7a8.346,8.346,0,0,0,3.927-2.832,13,13,0,0,0,1.857-4.576c.009-.035-.021-.081-.048-.175l-2.145-.592a1.751,1.751,0,0,0-.254.588c-.125.475-.258.949-.413,1.415a6.918,6.918,0,0,1-1.2,2.315,5.922,5.922,0,0,1-3.082,1.819c-.416.118-.837.215-1.287.329a3.84,3.84,0,0,1,.969,2.245H0V38.327l.137-.006H7.328v-.86q0-13.911,0-27.823a4.331,4.331,0,0,1,.083-.869,1.736,1.736,0,0,1,1.33-1.451,1.931,1.931,0,0,1,2.084.776,3.231,3.231,0,0,1,.418.914q1.446,4.825,2.9,9.647,1.9,6.3,3.8,12.6a16.911,16.911,0,0,0,.669,2.041,9.664,9.664,0,0,0,3.172,3.874,10.347,10.347,0,0,0,8.076,1.986,9.068,9.068,0,0,0,7.5-8.926q0-14.385,0-28.77a1.373,1.373,0,0,0-.054-.627H30.051V29.749c0,.181.009.361,0,.541a1.905,1.905,0,0,1-2.856,1.564,2.764,2.764,0,0,1-1.346-1.619c-.637-2.075-1.289-4.146-1.936-6.219q-1.921-6.152-3.84-12.3c-.465-1.5-.957-2.986-1.347-4.5a9.018,9.018,0,0,0-2.358-4.17,10.026,10.026,0,0,0-5.059-2.8C10.925.16,10.5.262,10.157,0h79.5c-.04.14-.162.12-.269.146a9.011,9.011,0,0,0-6.937,6.3C81.912,8.1,81.471,9.8,81,11.475q-1.407,4.974-2.8,9.95c-.746,2.65-1.475,5.305-2.244,7.949a6.889,6.889,0,0,1-.579,1.773c-3.232,0-6.435.008-9.638,0a1.829,1.829,0,0,1-1.86-1.532,3.1,3.1,0,0,1-.066-.8q0-13.607,0-27.213V.853h-7.3v.439q0,13.979.007,27.958a8.877,8.877,0,0,0,.294,2.264,9.081,9.081,0,0,0,9.284,6.807c.18.007.36.02.54.02q6.838,0,13.677,0c.225,0,.45-.016.675-.024.156.034.236-.009.282-.184.272-1.038.556-2.073.841-3.108q2.178-7.892,4.359-15.783,1.305-4.72,2.612-9.44a7.251,7.251,0,0,1,.555-1.649,1.837,1.837,0,0,1,2.53-.582,2.418,2.418,0,0,1,.927,1.425c1.055,4,2.13,8,3.194,12q1.191,4.474,2.373,8.95c.7,2.66,1.41,5.318,2.1,7.982.084.325.205.486.549.4,2.068.008,4.136.019,6.2.022q3.44.006,6.881-.007c.2,0,.456.153.591-.142a7.038,7.038,0,0,0,.308-1.234c.985-4.091,1.881-8.2,2.823-12.3a4.661,4.661,0,0,1,.506-1.594,2.01,2.01,0,0,1,1.72-1.122q5.281.007,10.563,0a1.632,1.632,0,0,1,1.254.555,3.874,3.874,0,0,1,.824,1.676c.22.8.426,1.6.639,2.4q1.252,4.7,2.506,9.409c.207.775.43,1.546.647,2.325h7.582a1.832,1.832,0,0,0-.16-.955q-2.131-7.562-4.185-15.145a9.249,9.249,0,0,0-9.058-6.991c-2.752-.057-5.507-.019-8.26,0a1.948,1.948,0,0,1-1.269-.369,6.943,6.943,0,0,1-2.48-3.384c-.881-2.937-1.65-5.907-2.494-8.854a8.746,8.746,0,0,0-.592-1.855H107.98a.8.8,0,0,0,.015.561q1.355,4.816,2.7,9.634a5.946,5.946,0,0,0,1.609,2.689,7.437,7.437,0,0,0,3.483,1.815c.4.1.815.1,1.212.2-.045.184-.141.184-.221.217a9.018,9.018,0,0,0-5.569,6.261c-.656,2.488-1.185,5.01-1.8,7.508a8.874,8.874,0,0,1-.467,1.763h-2.185a2.7,2.7,0,0,1-.145-.338q-1.243-4.605-2.482-9.212c-.756-2.787-1.529-5.569-2.284-8.357-.6-2.226-1.158-4.464-1.789-6.682A8.919,8.919,0,0,0,93.824.369,4.961,4.961,0,0,1,92.5,0h54.037V55.527c-.07.019-.13.048-.135.133l-2.549-.1-.144-.041V51.6c.8-.1,1.567.05,2.352-.1v-2.09h-2.4v-3.89c-.751,0-1.456-.027-2.232.019V49.4H139.25l.669-1.113c-.133-.124-.245-.233-.362-.337a1.729,1.729,0,0,0-1.512-.57.538.538,0,0,1-.579-.178V45.5a17.327,17.327,0,0,0-2.048.086V47.4h-1.353a15.124,15.124,0,0,0,.051,2.034h2.622a14.646,14.646,0,0,1-3.168,3,5.648,5.648,0,0,1,.981,2.1l.917-.666v4.062H137.5V53.619c.367.242.549.6.943.688a15.343,15.343,0,0,1,1.206-1.528,12.228,12.228,0,0,1-1.663-1.716l1.06-1.394c.173.653-.059,1.269.177,1.905h2.122a20.1,20.1,0,0,1-.04,3.985c-.505,0-1.022-.012-1.538,0a7.3,7.3,0,0,0-1.591.059v2.056h8.2l.152.016v.542H127.169c.028-.228.236-.308.37-.449a8.3,8.3,0,0,0,.939-.854,37.192,37.192,0,0,0-2.59-2.866c1.071-.038,2.03.019,3.01-.038,0-.369.013-.66,0-.949s.092-.584-.085-.841c-.731-.115-11.214-.089-11.721.034a12.619,12.619,0,0,0-.045,1.756c1,.077,1.956-.042,2.977.078-.347.711-.562,1.368-.918,1.965l-1.909.156a10.283,10.283,0,0,1,.631,2.008M12.457,47.272q-4.129-.006-8.257-.01c-.037,0-.075.045-.118.073v.331A14.3,14.3,0,0,0,4.1,49.655h8.633c0-.636.007-1.239,0-1.841a.542.542,0,0,0-.27-.542M50.861.842h-7.35V38.31h7.35Zm32.874,53.4v3.693H85.7V53.25c.3.026.357.338.62.369.3-.218.3-.634.553-.887a17.679,17.679,0,0,0,1.826.113,9.685,9.685,0,0,1-2.864,2.406,18.8,18.8,0,0,1,1.185,1.78,11.512,11.512,0,0,0,2.766-2.321v3.263a18.076,18.076,0,0,0,2.152-.042V54.893a10.443,10.443,0,0,0,2.246,2.135,13.517,13.517,0,0,1,1.2-1.809,8.824,8.824,0,0,1-2.631-2.43h1.88a11.91,11.91,0,0,0-.065-1.964H91.958a4.709,4.709,0,0,1,.014-1.263c.718-.079,1.416.038,2.109-.076a12.077,12.077,0,0,0-.007-1.878c-.694-.1-1.391,0-2.1-.064-.116-.642.03-1.274-.1-1.89h-2.1c0,.269,0,.511,0,.753,0,.316.02.634-.009.947-.026.275-.194.236-.356.131-.074-.3.225-.528.051-.843l-1.737-.335a17.306,17.306,0,0,1-1.009,2.866c-.063-.535.034-1.007-.061-1.458a5.648,5.648,0,0,1-.971-.106V45.675H83.7v1.963c-.509.117-.989-.041-1.423.1v1.916c.483.118.96-.034,1.436.11a16.144,16.144,0,0,1-1.92,3.875c.478.576.669,1.284,1.091,1.9a13.489,13.489,0,0,1,.855-1.3m46.377-40.856h7.761L141.943.71h-7.768l-4.063,12.678m-64.655,42a5.1,5.1,0,0,1,1.555,2.064,15.712,15.712,0,0,0,5.554-3.8,19.445,19.445,0,0,1,3.405,4.066l1.987-1.552a20.167,20.167,0,0,0-3.9-4.339c.731-1.24,1.518-2.364,2.09-3.59a12.058,12.058,0,0,0-1.175-1.362.837.837,0,0,0-.7-.3c-1.376.019-2.753.014-4.129.017-.919,0-1.839,0-2.795,0-.04.847-.038,1.619-.006,2.412h1.906c.609,0,1.219-.014,1.828,0a8.166,8.166,0,0,1,1.811.071,13.314,13.314,0,0,1-7.43,6.3m-9.718-5.509h2.6a6.64,6.64,0,0,1-.65,1.449,7.27,7.27,0,0,1-3.173,3.116,13.642,13.642,0,0,1-2.792.945,2.107,2.107,0,0,0-.563.211A5.424,5.424,0,0,1,52.621,57.7a1.411,1.411,0,0,0,.341-.03c.591-.208,1.187-.405,1.764-.648A9.907,9.907,0,0,0,58.787,54a16.633,16.633,0,0,0,2.4-4.712.588.588,0,0,0-.169-.672,6.868,6.868,0,0,1-.629-.7.611.611,0,0,0-.577-.255c-.54.024-1.082.018-1.623.009A6.008,6.008,0,0,1,57,47.629c.025-.438.34-.725.391-1.129a24.217,24.217,0,0,0-2.489-.611,11.035,11.035,0,0,1-4.4,5.955,5.5,5.5,0,0,1,1.6,1.694c1.673-.806,2.612-2.277,3.633-3.656M20.9,57.916a10.283,10.283,0,0,0,8.736-7.469,9.047,9.047,0,0,0-1.3-1.165h-5.58c-.609,0-1.218-.015-1.827,0a8.219,8.219,0,0,0-1.807.067c.006.708-.032,1.375.027,2.1h7.366a2.53,2.53,0,0,1-.126.319,7.219,7.219,0,0,1-4.734,3.505,9.089,9.089,0,0,0-1.762.446,3.743,3.743,0,0,1,1,2.191m98.369-6.608h6.946c.194-.147-.007-.4.235-.485a17.974,17.974,0,0,0,1.984,1.032,15.591,15.591,0,0,1,1.2-1.813,16.784,16.784,0,0,1-5.732-3.938l.244-.448-2.081-.566a16.63,16.63,0,0,1-5.585,4.814,8.467,8.467,0,0,1,1.341,1.747l1.3-.828c.127.159,0,.348.153.485m-18.879,1.385h1.836v2.52c-.8.3-1.655.206-2.457.47a13.769,13.769,0,0,0,.525,2.151l6.4-1.168V54.694l-2.179.26a20.249,20.249,0,0,1,.051-2.284h1.586V50.807h-5.766ZM14.449,56.15V53.7c-.811-.121-11.469-.092-11.867.011V56.15ZM20.6,48.431a67.952,67.952,0,0,0,7.257-.057V46.35H20.6Zm16.789,1.2a12.711,12.711,0,0,0-1.933,1.091,16.454,16.454,0,0,1,1.533,2.562,16,16,0,0,0,1.931-1.1,9.975,9.975,0,0,0-1.531-2.553m.965.228a22.2,22.2,0,0,1,1.392,2.7,21.661,21.661,0,0,1,1.98-1.053,17.513,17.513,0,0,0-1.458-2.632l-1.914.982" transform="translate(0 0)" fill="#fdfdfd"/>
      <path id="パス_18" data-name="パス 18" d="M462.036,38.318c-.344.09-.465-.07-.549-.4-.688-2.664-1.395-5.323-2.1-7.982q-1.184-4.476-2.373-8.95c-1.065-4-2.14-7.995-3.194-12a2.418,2.418,0,0,0-.927-1.425,1.837,1.837,0,0,0-2.53.582,7.252,7.252,0,0,0-.555,1.649q-1.3,4.722-2.612,9.44-2.182,7.891-4.359,15.783c-.286,1.035-.569,2.07-.842,3.108-.046.175-.126.217-.282.184-.07-.171-.22-.122-.347-.122-.586,0-1.172,0-1.758,0q-6.087,0-12.173.006c-.2,0-.454-.134-.614.123a9.081,9.081,0,0,1-9.284-6.807,8.875,8.875,0,0,1-.294-2.264q-.015-13.979-.006-27.958V.853h7.3v.741q0,13.607,0,27.213a3.1,3.1,0,0,0,.066.8,1.829,1.829,0,0,0,1.86,1.532c3.2.012,6.406,0,9.638,0a6.889,6.889,0,0,0,.579-1.773c.769-2.643,1.5-5.3,2.244-7.949q1.4-4.976,2.8-9.95c.475-1.68.917-3.372,1.454-5.032a9.011,9.011,0,0,1,6.937-6.3c.107-.026.228-.005.269-.146h2.844a4.959,4.959,0,0,0,1.325.369A8.919,8.919,0,0,1,460.788,6.8c.631,2.218,1.187,4.456,1.789,6.682.755,2.787,1.528,5.57,2.284,8.357q1.249,4.6,2.482,9.212a2.7,2.7,0,0,0,.146.338h2.185a8.862,8.862,0,0,0,.467-1.763c.618-2.5,1.148-5.02,1.8-7.508a9.018,9.018,0,0,1,5.569-6.261c.08-.033.176-.033.221-.217-.4-.092-.816-.1-1.212-.2a7.438,7.438,0,0,1-3.483-1.815,5.947,5.947,0,0,1-1.609-2.689q-1.348-4.818-2.7-9.634a.8.8,0,0,1-.015-.561h7.873a8.74,8.74,0,0,1,.592,1.855c.844,2.948,1.613,5.918,2.494,8.854a6.943,6.943,0,0,0,2.48,3.384,1.948,1.948,0,0,0,1.269.369c2.753-.014,5.508-.052,8.26,0a9.249,9.249,0,0,1,9.058,6.991q2.06,7.582,4.185,15.145a1.831,1.831,0,0,1,.159.955H497.5c-.217-.779-.439-1.55-.647-2.325q-1.257-4.7-2.506-9.409c-.213-.8-.419-1.6-.639-2.4a3.875,3.875,0,0,0-.824-1.676,1.633,1.633,0,0,0-1.254-.555q-5.281.007-10.562,0a2.01,2.01,0,0,0-1.72,1.122,4.659,4.659,0,0,0-.506,1.594c-.942,4.1-1.838,8.213-2.823,12.3a7.036,7.036,0,0,1-.308,1.233q-6.53,0-13.06.006c-.2,0-.454-.133-.616.12" transform="translate(-360.731 0)" fill="#237fc4"/>
      <path id="パス_19" data-name="パス 19" d="M10.157,0c.342.262.768.16,1.15.245a10.027,10.027,0,0,1,5.059,2.8,9.017,9.017,0,0,1,2.358,4.17c.39,1.516.882,3.006,1.347,4.5q1.913,6.154,3.84,12.3c.647,2.072,1.3,4.143,1.936,6.218a2.764,2.764,0,0,0,1.346,1.619,1.905,1.905,0,0,0,2.856-1.564c.01-.18,0-.361,0-.541V.834h7.257a1.373,1.373,0,0,1,.054.627q0,14.385,0,28.77a9.068,9.068,0,0,1-7.5,8.926,10.347,10.347,0,0,1-8.076-1.986A9.664,9.664,0,0,1,18.617,33.3a16.909,16.909,0,0,1-.669-2.041q-1.91-6.3-3.8-12.6-1.453-4.823-2.9-9.647a3.227,3.227,0,0,0-.418-.914,1.931,1.931,0,0,0-2.084-.776,1.736,1.736,0,0,0-1.33,1.451,4.331,4.331,0,0,0-.083.869q0,13.911,0,27.823v.86H.137q0-14.455,0-28.911c0-.181,0-.361,0-.542A.189.189,0,0,0,0,8.668V8.126c.043-.047.117-.09.123-.141A8.422,8.422,0,0,1,1,5.114,9.092,9.092,0,0,1,6.674.391,4.985,4.985,0,0,0,8.126,0Z" transform="translate(0 0)" fill="#237fc4"/>
      <path id="パス_20" data-name="パス 20" d="M748.167,348.134a5.727,5.727,0,0,1-3.145-3.948,14.766,14.766,0,0,1-.523-3.176c-.028-.446-.094-.889-.149-1.392h-6.441a19.76,19.76,0,0,1-.051-2.129c2.143-.053,4.23,0,6.344-.031.157-.663-.017-1.315.079-2h2.084l.2.684.852-.827a8,8,0,0,1,1.821,1.523c.008.291-.324.334-.353.582.264.134.587-.047.882.179v1.963H746.7a.4.4,0,0,0-.146.44,15.883,15.883,0,0,0,.51,3.719,9.659,9.659,0,0,0,.9,1.653c.027.044.112.051.2.09.219-.335.151-.746.342-1.111a6.953,6.953,0,0,0,1.974.891,4.175,4.175,0,0,1-1.371,2.894Z" transform="translate(-637.926 -289.899)" fill="#2681c4"/>
      <path id="パス_21" data-name="パス 21" d="M864.965,391.245a10.3,10.3,0,0,0-.631-2.008l1.909-.156c.356-.6.571-1.254.918-1.965-1.021-.12-1.979,0-2.977-.078a12.6,12.6,0,0,1,.045-1.757c.507-.123,10.99-.149,11.721-.034.178.257.069.558.085.841s0,.581,0,.949c-.981.057-1.939,0-3.01.038a37.224,37.224,0,0,1,2.59,2.866,8.324,8.324,0,0,1-.939.854c-.134.141-.342.22-.37.449h-.271c-.076-.194-.27-.3-.368-.472-.284-.495-.66-.519-1.191-.41-1.044.213-2.108.349-3.169.464-1.04.113-2.078.28-3.128.293-.075,0-.111.061-.135.125Zm5.992-3.423c.17-.351.6-.382.721-.734h-2.35l-.808,1.866a17.118,17.118,0,0,0,3.195-.326l-.758-.8" transform="translate(-747.14 -333.01)" fill="#2882c5"/>
      <path id="パス_22" data-name="パス 22" d="M273.817,374.39a3.839,3.839,0,0,0-.969-2.245c.449-.114.871-.211,1.287-.329A5.922,5.922,0,0,0,277.217,370a6.917,6.917,0,0,0,1.2-2.315c.155-.466.288-.94.413-1.415a1.749,1.749,0,0,1,.254-.588l2.145.592c.027.094.057.14.048.175a13,13,0,0,1-1.857,4.576,8.346,8.346,0,0,1-3.927,2.832,5.9,5.9,0,0,0-1.406.536Z" transform="translate(-235.896 -316.155)" fill="#2681c4"/>
      <path id="パス_23" data-name="パス 23" d="M8.126,0A4.985,4.985,0,0,1,6.674.391,9.092,9.092,0,0,0,1,5.114,8.422,8.422,0,0,0,.123,7.985c-.006.051-.08.094-.123.141V0Z" transform="translate(0 0)" fill="#fafcfc"/>
      <path id="パス_24" data-name="パス 24" d="M0,64a.189.189,0,0,1,.139.2c0,.181,0,.361,0,.542q0,14.455,0,28.911L0,93.659V64" transform="translate(0 -55.332)" fill="#579fd8"/>
      <path id="パス_25" data-name="パス 25" d="M878,424.034c.024-.064.061-.124.135-.125,1.051-.012,2.088-.18,3.128-.292,1.061-.115,2.124-.251,3.169-.464.53-.108.907-.085,1.191.41.1.171.291.277.368.471Z" transform="translate(-759.092 -365.799)" fill="#f3f9f9"/>
      <path id="パス_26" data-name="パス 26" d="M1080.891,410.133c.006-.085.066-.114.135-.133v2.167l-.153-.016Z" transform="translate(-934.491 -354.473)" fill="#aacde7"/>
      <rect id="長方形_5" data-name="長方形 5" width="7.35" height="37.468" transform="translate(43.511 0.842)" fill="#2480c4"/>
      <path id="パス_27" data-name="パス 27" d="M605.863,345.7a13.48,13.48,0,0,0-.856,1.3c-.422-.614-.613-1.322-1.091-1.9a16.148,16.148,0,0,0,1.92-3.875c-.476-.144-.953.008-1.436-.11v-1.917c.434-.145.914.014,1.423-.1v-1.963h1.985v1.935a5.66,5.66,0,0,0,.971.106c.1.45,0,.922.061,1.457a17.313,17.313,0,0,0,1.009-2.866l1.737.335c.174.315-.125.548-.051.843.162.105.33.144.356-.131.029-.313.008-.631.009-.947,0-.242,0-.485,0-.754H614c.128.616-.019,1.248.1,1.89.712.068,1.408-.033,2.1.064a12.086,12.086,0,0,1,.007,1.878c-.693.114-1.391,0-2.109.076a4.7,4.7,0,0,0-.014,1.263h2.609a11.931,11.931,0,0,1,.065,1.964H614.88a8.82,8.82,0,0,0,2.631,2.43,13.5,13.5,0,0,0-1.2,1.809,10.442,10.442,0,0,1-2.246-2.135v3.037a18.057,18.057,0,0,1-2.152.042v-3.263a11.517,11.517,0,0,1-2.766,2.321,18.8,18.8,0,0,0-1.185-1.78,9.684,9.684,0,0,0,2.864-2.406,17.648,17.648,0,0,1-1.826-.113c-.254.253-.256.67-.553.888-.262-.031-.317-.344-.62-.369v4.688h-1.965Zm3.336-3.39a.591.591,0,0,0,.438-.007,19.791,19.791,0,0,0,2.238.056V340.96c-1-.116-1-.116-1.358.7a2.433,2.433,0,0,1-.189.351c-.072.11-.2.082-.305.087-.422-.357-.987-.381-1.442-.626-.116-.1.1-.206-.049-.315a1.907,1.907,0,0,0-.76.056c.012.676.175.912,1.238,1.817.12-.21.047-.437.067-.652l.122-.075" transform="translate(-522.127 -291.452)" fill="#2681c4"/>
      <path id="パス_28" data-name="パス 28" d="M960.728,17.92l4.063-12.678h7.768l-4.07,12.678Z" transform="translate(-830.616 -4.532)" fill="#e7330e"/>
      <path id="パス_29" data-name="パス 29" d="M999.091,346.125l-.017,2.018h-8.2v-2.056a7.289,7.289,0,0,1,1.59-.059c.516-.015,1.033,0,1.538,0a20.112,20.112,0,0,0,.04-3.985h-2.122c-.237-.637,0-1.253-.177-1.906l-1.061,1.394a12.237,12.237,0,0,0,1.663,1.716,15.374,15.374,0,0,0-1.206,1.528c-.394-.092-.576-.445-.943-.688V348.4h-2.036v-4.062l-.917.666a5.648,5.648,0,0,0-.981-2.1,14.651,14.651,0,0,0,3.168-3h-2.622a15.1,15.1,0,0,1-.051-2.034h1.353v-1.814a17.273,17.273,0,0,1,2.048-.086v1.7a.538.538,0,0,0,.579.178,1.728,1.728,0,0,1,1.512.57c.117.1.229.213.362.337l-.669,1.113h2.179V336.01c.775-.046,1.481-.023,2.232-.019v3.89h2.4v2.09c-.785.145-1.551,0-2.352.1v3.917c.009.151.063.145.144.041l2.549.1" transform="translate(-852.69 -290.466)" fill="#2681c4"/>
      <path id="パス_30" data-name="パス 30" d="M483.323,352.779a13.313,13.313,0,0,0,7.43-6.3,8.165,8.165,0,0,0-1.811-.071c-.609-.018-1.218,0-1.828,0h-1.906c-.033-.793-.034-1.564.006-2.412.956,0,1.875,0,2.795,0,1.376,0,2.753,0,4.129-.017a.837.837,0,0,1,.7.3,12.044,12.044,0,0,1,1.175,1.362c-.573,1.226-1.359,2.349-2.09,3.59a20.167,20.167,0,0,1,3.9,4.339l-1.987,1.552a19.445,19.445,0,0,0-3.406-4.066,15.71,15.71,0,0,1-5.553,3.8,5.1,5.1,0,0,0-1.555-2.064" transform="translate(-417.866 -297.388)" fill="#2681c4"/>
      <path id="パス_31" data-name="パス 31" d="M378.162,342.837c-1.022,1.38-1.96,2.85-3.633,3.657a5.506,5.506,0,0,0-1.6-1.694,11.036,11.036,0,0,0,4.4-5.955,24.239,24.239,0,0,1,2.489.61c-.051.4-.366.691-.391,1.129a6.017,6.017,0,0,0,1.191.04c.541.008,1.083.015,1.623-.009a.61.61,0,0,1,.577.255,6.885,6.885,0,0,0,.629.7.588.588,0,0,1,.169.672,16.634,16.634,0,0,1-2.4,4.712,9.908,9.908,0,0,1-4.062,3.025c-.577.242-1.173.44-1.764.648a1.406,1.406,0,0,1-.341.029,5.422,5.422,0,0,0-1.459-2.095,2.1,2.1,0,0,1,.563-.211,13.643,13.643,0,0,0,2.792-.945,7.27,7.27,0,0,0,3.173-3.116,6.638,6.638,0,0,0,.65-1.449Z" transform="translate(-322.424 -292.955)" fill="#2580c4"/>
      <path id="パス_32" data-name="パス 32" d="M142.994,372.441a3.744,3.744,0,0,0-1-2.191,9.1,9.1,0,0,1,1.762-.446,7.22,7.22,0,0,0,4.734-3.5,2.544,2.544,0,0,0,.126-.318h-7.366c-.059-.728-.022-1.4-.028-2.1a8.22,8.22,0,0,1,1.807-.067c.608-.019,1.218,0,1.827,0h5.58a9.046,9.046,0,0,1,1.3,1.165,10.283,10.283,0,0,1-8.736,7.469" transform="translate(-122.09 -314.525)" fill="#2681c4"/>
      <path id="パス_33" data-name="パス 33" d="M862.889,339.153c-.149-.137-.026-.326-.153-.485l-1.3.828a8.473,8.473,0,0,0-1.341-1.747,16.63,16.63,0,0,0,5.585-4.814l2.081.566-.244.448a16.784,16.784,0,0,0,5.732,3.938,15.588,15.588,0,0,0-1.2,1.813,17.963,17.963,0,0,1-1.984-1.032c-.242.082-.041.338-.235.485Zm3.526-3.669a10.884,10.884,0,0,0-1.815,1.867h3.653a21.414,21.414,0,0,1-1.838-1.867" transform="translate(-743.615 -287.845)" fill="#2580c3"/>
      <path id="パス_34" data-name="パス 34" d="M737.336,377.036V375.15H743.1v1.863h-1.586a20.236,20.236,0,0,0-.051,2.284l2.179-.26v1.972l-6.4,1.168a13.778,13.778,0,0,1-.525-2.151c.8-.263,1.655-.169,2.457-.47v-2.52Z" transform="translate(-636.941 -324.343)" fill="#2681c4"/>
      <path id="パス_35" data-name="パス 35" d="M30.937,398.44H19.07V396c.4-.1,11.056-.132,11.867-.011Z" transform="translate(-16.487 -342.29)" fill="#2882c5"/>
      <path id="パス_36" data-name="パス 36" d="M38.347,349.049a.542.542,0,0,1,.27.542c.011.6,0,1.2,0,1.841H29.987a14.3,14.3,0,0,1-.016-1.988c.131-.331.42-.265.678-.265,2.362,0,4.723,0,7.085-.008.2,0,.453.134.612-.122" transform="translate(-25.889 -301.777)" fill="#2581c5"/>
      <path id="パス_37" data-name="パス 37" d="M152.073,344.324v-2.08h7.257v2.023a67.969,67.969,0,0,1-7.257.057" transform="translate(-131.478 -295.894)" fill="#2681c5"/>
      <path id="パス_38" data-name="パス 38" d="M263.7,366.445A9.974,9.974,0,0,1,265.234,369a15.968,15.968,0,0,1-1.931,1.1,16.47,16.47,0,0,0-1.534-2.562,12.727,12.727,0,0,1,1.933-1.091" transform="translate(-226.317 -316.817)" fill="#2882c4"/>
      <path id="パス_39" data-name="パス 39" d="M283.171,361.857l1.914-.982a17.519,17.519,0,0,1,1.458,2.632,21.653,21.653,0,0,0-1.98,1.053,22.2,22.2,0,0,0-1.392-2.7" transform="translate(-244.821 -312.001)" fill="#2982c3"/>
      <path id="パス_40" data-name="パス 40" d="M488.013,281.949c.16-.257.411-.122.614-.123q6.087-.013,12.173-.007c.586,0,1.172,0,1.758,0,.127,0,.277-.049.347.122-.225.008-.45.024-.675.024q-6.838,0-13.677,0c-.18,0-.36-.013-.54-.02" transform="translate(-421.921 -243.629)" fill="#1f83b2"/>
      <path id="パス_41" data-name="パス 41" d="M748.02,281.947c.162-.253.413-.12.616-.12q6.53-.013,13.06-.006c-.135.3-.4.141-.591.142q-3.44.017-6.88.007c-2.068,0-4.136-.015-6.2-.022" transform="translate(-646.715 -243.629)" fill="#1f83b2"/>
      <path id="パス_42" data-name="パス 42" d="M38.518,348.987c-.159.256-.41.121-.612.122-2.362.011-4.723.006-7.085.008-.258,0-.547-.066-.678.265v-.331c.043-.028.081-.073.118-.073q4.129,0,8.257.01" transform="translate(-26.061 -301.715)" fill="#2082b2"/>
      <path id="パス_43" data-name="パス 43" d="M1061.256,409.969c-.082.1-.135.11-.144-.041l.144.041" transform="translate(-917.405 -354.411)" fill="#aacde7"/>
      <path id="パス_44" data-name="パス 44" d="M634.637,367.912c-.046.228-.3.057-.386.2a.59.59,0,0,1-.438.007c-.112-.09-.111,0-.122.075-.021.215.053.442-.067.652-1.063-.905-1.226-1.142-1.238-1.817a1.908,1.908,0,0,1,.76-.056c.152.109-.067.22.049.315.455.245,1.021.27,1.442.626" transform="translate(-546.742 -317.263)" fill="#eef6f8"/>
      <path id="パス_45" data-name="パス 45" d="M642.021,375.337c.011-.073.01-.166.122-.075l-.122.075" transform="translate(-555.072 -324.407)" fill="#dcebf3"/>
    </g>
  </g>
</svg>
