<?xml version="1.0" encoding="utf-8"?>
<!-- Generator: Adobe Illustrator 24.3.0, SVG Export Plug-In . SVG Version: 6.00 Build 0)  -->
<svg version="1.1" id="レイヤー_1" xmlns="http://www.w3.org/2000/svg" xmlns:xlink="http://www.w3.org/1999/xlink" x="0px"
	 y="0px" viewBox="0 0 152.1 60.2" style="enable-background:new 0 0 152.1 60.2;" xml:space="preserve">
<style type="text/css">
	.st0{clip-path:url(#SVGID_2_);}
	.st1{fill:#FFFFFF;}
</style>
<g id="グループ_1868" transform="translate(-44.471 -110)">
	<g id="グループ_1593" transform="translate(44.471 110)">
		<g>
			<defs>
				<rect id="SVGID_1_" y="0" width="152.1" height="41.4"/>
			</defs>
			<clipPath id="SVGID_2_">
				<use xlink:href="#SVGID_1_"  style="overflow:visible;"/>
			</clipPath>
			<g id="グループ_1592" class="st0">
				<path id="パス_323" class="st1" d="M106.7,40.4c-0.4,0.1-0.5-0.1-0.6-0.4c-0.7-2.8-1.5-5.6-2.2-8.4c-0.8-3.1-1.7-6.3-2.5-9.4
					c-1.1-4.2-2.3-8.4-3.4-12.6c-0.1-0.6-0.5-1.1-1-1.5c-0.9-0.6-2.1-0.3-2.7,0.6c-0.3,0.6-0.5,1.1-0.6,1.7
					c-0.9,3.3-1.8,6.6-2.8,9.9c-1.5,5.5-3.1,11.1-4.6,16.6c-0.3,1.1-0.6,2.2-0.9,3.3c0,0.2-0.1,0.2-0.3,0.2
					c-0.1-0.2-0.2-0.1-0.4-0.1c-0.6,0-1.2,0-1.9,0c-4.3,0-8.5,0-12.8,0c-0.2,0-0.5-0.1-0.6,0.1c-4.6,0.2-8.6-2.8-9.8-7.2
					c-0.2-0.8-0.3-1.6-0.3-2.4c0-9.8,0-19.6,0-29.4V0.9h7.7v0.8c0,9.6,0,19.1,0,28.7c0,0.3,0,0.6,0.1,0.8c0.2,1,1,1.6,2,1.6
					c3.4,0,6.7,0,10.2,0c0.3-0.6,0.5-1.2,0.6-1.9c0.8-2.8,1.6-5.6,2.4-8.4c1-3.5,2-7,3-10.5c0.5-1.8,1-3.6,1.5-5.3
					c1-3.4,3.8-6,7.3-6.6c0.1,0,0.2,0,0.3-0.2h3c0.4,0.2,0.9,0.3,1.4,0.4c3.2,0.9,5.8,3.5,6.6,6.8c0.7,2.3,1.2,4.7,1.9,7
					c0.8,2.9,1.6,5.9,2.4,8.8c0.9,3.2,1.7,6.5,2.6,9.7c0,0.1,0.1,0.2,0.2,0.4h2.3c0.2-0.6,0.4-1.2,0.5-1.9c0.7-2.6,1.2-5.3,1.9-7.9
					c0.8-3,2.9-5.5,5.9-6.6c0.1,0,0.2,0,0.2-0.2c-0.4-0.1-0.9-0.1-1.3-0.2c-1.4-0.3-2.6-1-3.7-1.9c-0.8-0.8-1.4-1.8-1.7-2.8
					c-1-3.4-1.9-6.8-2.9-10.1c-0.1-0.2-0.1-0.4,0-0.6h8.3c0.3,0.6,0.5,1.3,0.6,2c0.9,3.1,1.7,6.2,2.6,9.3c0.5,1.4,1.4,2.7,2.6,3.6
					c0.4,0.3,0.9,0.4,1.3,0.4c2.9,0,5.8-0.1,8.7,0c4.5,0,8.4,3,9.5,7.4c1.4,5.3,2.9,10.6,4.4,16c0.1,0.3,0.2,0.7,0.2,1h-8
					c-0.2-0.8-0.5-1.6-0.7-2.4c-0.9-3.3-1.8-6.6-2.6-9.9c-0.2-0.8-0.4-1.7-0.7-2.5c-0.1-0.7-0.4-1.3-0.9-1.8
					c-0.3-0.4-0.8-0.6-1.3-0.6c-3.7,0-7.4,0-11.1,0c-0.8,0-1.5,0.5-1.8,1.2c-0.3,0.5-0.5,1.1-0.5,1.7c-1,4.3-1.9,8.6-3,13
					c-0.1,0.4-0.2,0.9-0.3,1.3c-4.6,0-9.2,0-13.8,0C107.1,40.2,106.9,40.1,106.7,40.4"/>
				<path id="パス_324" class="st1" d="M10.7,0c0.4,0.3,0.8,0.2,1.2,0.3c2,0.4,3.9,1.5,5.3,2.9c1.2,1.2,2.1,2.7,2.5,4.4
					c0.4,1.6,0.9,3.2,1.4,4.7c1.3,4.3,2.7,8.6,4,13c0.7,2.2,1.4,4.4,2,6.5c0.2,0.7,0.7,1.3,1.4,1.7c1,0.6,2.2,0.2,2.7-0.7
					c0.2-0.3,0.3-0.6,0.3-0.9c0-0.2,0-0.4,0-0.6V0.9h7.6c0.1,0.2,0.1,0.4,0.1,0.7c0,10.1,0,20.2,0,30.3c0,4.6-3.3,8.6-7.9,9.4
					c-3,0.5-6.1-0.2-8.5-2.1c-1.5-1-2.6-2.5-3.3-4.1c-0.3-0.7-0.5-1.4-0.7-2.1c-1.3-4.4-2.7-8.8-4-13.3c-1-3.4-2-6.8-3.1-10.2
					c-0.1-0.3-0.2-0.7-0.4-1c-0.5-0.7-1.4-1-2.2-0.8C8.5,7.9,7.9,8.5,7.8,9.2c-0.1,0.3-0.1,0.6-0.1,0.9c0,9.8,0,19.5,0,29.3v0.9H0.1
					c0-10.1,0-20.3,0-30.4c0-0.2,0-0.4,0-0.6c0-0.1-0.1-0.2-0.1-0.2V8.6c0,0,0.1-0.1,0.1-0.1c0.1-1.1,0.4-2.1,0.9-3
					c1.2-2.4,3.4-4.2,6-5c0.5-0.1,1-0.2,1.5-0.4H10.7z"/>
				<rect id="長方形_1463" x="45.8" y="0.9" class="st1" width="7.7" height="39.5"/>
				<path id="パス_325" class="st1" d="M137,14.1l4.3-13.4h8.2l-4.3,13.4H137z"/>
			</g>
		</g>
	</g>
	<path id="パス_1326" class="st1" d="M67,161.2c0,1.2-0.7,2.1-2.3,2.1h-2.3v-4.2h2.3C66.3,159.2,67,160,67,161.2z M60.3,157.5V170
		h2.1v-5H64l2.9,5h2.5l-3.1-5.2c1.7-0.3,2.9-1.8,2.9-3.6c0-2-1.5-3.7-4.4-3.7H60.3z M77.7,161.6c1.4-0.1,2.7,1,2.8,2.4
		c0,0,0,0.1,0,0.1H75C75.1,162.7,76.3,161.6,77.7,161.6z M82.3,167h-2.2c-0.4,0.9-1.3,1.5-2.3,1.4c-1.5,0.1-2.8-1.1-2.8-2.6
		c0,0,0,0,0,0h7.6c0.1-0.3,0.1-0.7,0.1-1c0.1-2.6-1.8-4.7-4.4-4.9c-0.2,0-0.3,0-0.5,0c-2.6-0.1-4.8,1.9-5,4.5c0,0.2,0,0.4,0,0.6
		c-0.2,2.7,1.8,4.9,4.5,5.1c0.2,0,0.3,0,0.5,0C79.8,170.3,81.7,169,82.3,167L82.3,167z M85.7,165c0,3.1,2,5.1,4.9,5.1
		c2.1,0.1,4-1.2,4.6-3.3H93c-0.3,1-1.3,1.7-2.4,1.6c-1.7,0-2.8-1.2-2.8-3.4c0-2.2,1.1-3.4,2.8-3.4c1.1-0.1,2,0.6,2.4,1.6h2.2
		c-0.5-2.1-2.4-3.5-4.6-3.3C87.8,159.9,85.7,161.9,85.7,165L85.7,165z M101.1,164.8c0-2.1,0.9-2.7,2.4-2.7h0.5v-2.1
		c-1.2-0.1-2.4,0.6-3,1.6v-1.4H99v9.9h2.1V164.8z M116.7,160.1h-2.1v5.5c0,1.8-1,2.8-2.5,2.8c-1.5,0-2.5-0.9-2.5-2.8v-5.5h-2v5.8
		c-0.2,2.1,1.4,4,3.5,4.2c0.2,0,0.4,0,0.6,0c1.1,0,2.2-0.5,2.9-1.3v1.2h2.1L116.7,160.1z M121.2,170h2.1v-9.9h-2.1V170z
		 M122.3,158.8c0.7,0,1.3-0.6,1.3-1.3c0,0,0,0,0,0c0-0.7-0.6-1.3-1.3-1.3c0,0,0,0,0,0c-0.7,0-1.3,0.6-1.3,1.3c0,0,0,0,0,0
		C120.9,158.2,121.5,158.8,122.3,158.8C122.3,158.8,122.3,158.8,122.3,158.8z M128.1,167.2c0,2,1.1,2.8,2.9,2.8h1.6v-1.7h-1.3
		c-0.9,0-1.2-0.3-1.2-1v-5.5h2.4v-1.7h-2.4v-2.5h-2.1v2.5h-1.2v1.7h1.2V167.2z M151.2,166.5c0-4.6-6.6-2.8-6.6-5.6
		c0-1.2,0.9-1.8,2.1-1.7c1-0.1,1.9,0.6,2.1,1.7h2.3c-0.2-2.1-1.9-3.4-4.3-3.4c-2.6,0-4.3,1.4-4.3,3.6c0,4.6,6.6,2.6,6.6,5.7
		c0,1.1-0.8,1.8-2.2,1.8c-1.1,0.1-2.1-0.7-2.2-1.8c0,0,0-0.1,0-0.1h-2.2c0,2.2,1.9,3.6,4.4,3.6C149.7,170.1,151.2,168.3,151.2,166.5
		z M155.4,170h2.1v-12.5h-2.1V170z M161.3,159.2h3.3V170h2.1v-10.8h3.3v-1.7h-8.7V159.2z M180.8,157.5h-6.9V170h6.9v-1.7H176v-3.8
		h4.3v-1.7H176v-3.7h4.9L180.8,157.5z"/>
</g>
</svg>
