<svg xmlns="http://www.w3.org/2000/svg" xmlns:xlink="http://www.w3.org/1999/xlink" width="239" height="60" viewBox="0 0 239 60">
  <defs>
    <clipPath id="clip-path">
      <rect id="長方形_1826" data-name="長方形 1826" width="199.114" height="39.75" fill="none"/>
    </clipPath>
  </defs>
  <g id="グループ_1871" data-name="グループ 1871" transform="translate(-178)">
    <rect id="長方形_1530" data-name="長方形 1530" width="239" height="60" rx="14" transform="translate(178)" fill="#fff"/>
    <g id="グループ_1782" data-name="グループ 1782" transform="translate(198.25 10.5)">
      <g id="グループ_1860" data-name="グループ 1860" transform="translate(0 0)" clip-path="url(#clip-path)">
        <path id="パス_1247" data-name="パス 1247" d="M232.622,24.339q-.3.945-.649,1.871h7.4q-.086.959-.218,1.913c-.089.639-.2,1.268-.345,1.894a12.282,12.282,0,0,1-.574,1.84,9.06,9.06,0,0,1-.9,1.7,10.235,10.235,0,0,1-2.967,2.815,16.088,16.088,0,0,1-3.736,1.717q-1.03.334-2.068.627L227.227,35.5a27.87,27.87,0,0,0,3.415-.9,9.978,9.978,0,0,0,1.818-.868,7.36,7.36,0,0,0,1.561-1.27,6.41,6.41,0,0,0,1.126-1.659,8.592,8.592,0,0,0,.638-1.911H230.6a10.325,10.325,0,0,1-1.093,1.364,14.237,14.237,0,0,1-2.323,1.877l-1.871-2.59a12.145,12.145,0,0,0,1.495-1.141,7.731,7.731,0,0,0,1.239-1.407,7.575,7.575,0,0,0,.874-1.659,13.535,13.535,0,0,0,.538-1.8Zm4.6-.688a10.848,10.848,0,0,1,.793,2.13h-1.767a16.058,16.058,0,0,0-.768-2.13Zm2.132-.485a15.207,15.207,0,0,1,.951,2.085H238.4a10.065,10.065,0,0,0-.824-2.085Z" transform="translate(-84.814 -8.72)"/>
        <path id="パス_1248" data-name="パス 1248" d="M252.572,27.076v2.939a19.579,19.579,0,0,1-.152,2.443,17.793,17.793,0,0,1-.467,2.411,11.474,11.474,0,0,1-.872,2.281,8.879,8.879,0,0,1-1.394,2l-2.369-2.383a8.783,8.783,0,0,0,1.283-1.99,8.381,8.381,0,0,0,.693-2.373,16.289,16.289,0,0,0,.186-2.269V27.076Zm4.46-1.609v9.215A7.28,7.28,0,0,0,259.581,31a11.416,11.416,0,0,0,.431-2.242l2.98.976a14.983,14.983,0,0,1-.528,2.3,12.14,12.14,0,0,1-.915,2.171,10.534,10.534,0,0,1-1.338,1.934,7.813,7.813,0,0,1-1.792,1.512,8.38,8.38,0,0,1-2.151.944,11.8,11.8,0,0,1-2.317.4V25.467Z" transform="translate(-93.096 -9.586)"/>
        <rect id="長方形_1824" data-name="長方形 1824" width="9.382" height="1.57" transform="translate(171.223 20.769)"/>
        <path id="パス_1249" data-name="パス 1249" d="M301.251,28.776H291.4V25.8h13.161c-.021.614-.05,1.225-.085,1.839s-.1,1.22-.2,1.822a15.474,15.474,0,0,1-.61,2.441,10.784,10.784,0,0,1-1.078,2.27,8.056,8.056,0,0,1-1.635,1.891,9.464,9.464,0,0,1-2.111,1.361,17.9,17.9,0,0,1-3.061,1.117q-1.053.285-2.115.514L292.312,35.8a25.68,25.68,0,0,0,3.155-.691,9.832,9.832,0,0,0,2.753-1.27,6.36,6.36,0,0,0,2.047-2.193,8.146,8.146,0,0,0,.984-2.866" transform="translate(-109.69 -9.711)"/>
        <path id="パス_1250" data-name="パス 1250" d="M315.054,21.7a1.861,1.861,0,0,1,.953.262,1.917,1.917,0,0,1,.712.708,1.93,1.93,0,1,1-3.338,0,1.932,1.932,0,0,1,.711-.708,1.88,1.88,0,0,1,.962-.262m0,1.212a.725.725,0,0,0-.722.716.687.687,0,0,0,.213.5.694.694,0,0,0,.509.212.724.724,0,0,0,.715-.715.7.7,0,0,0-.212-.5.685.685,0,0,0-.5-.212" transform="translate(-117.866 -8.17)"/>
        <path id="パス_1251" data-name="パス 1251" d="M25.222,6.816c1.907-.584,3.592-1.758,5.643-1.833A37.733,37.733,0,0,1,43.4,3.224a3.7,3.7,0,0,1,2.343,1.1,1.884,1.884,0,0,1,0,2.048c-.294.294-.657.587-.513.953A1.733,1.733,0,0,1,46.7,8.574c.144,2.713-2.857,4.1-4.251,6.009.586.952,1.757,1.757,1.757,3a20.649,20.649,0,0,1-.511,2.27,3.046,3.046,0,0,1,.951,2.343,4.355,4.355,0,0,1-1.318,2.492,4.606,4.606,0,0,1-1.171,4.394,5.42,5.42,0,0,1-2.347,1.174,4.16,4.16,0,0,1-1.759,2.931c-.585.44-1.537.44-2.05.952a4.419,4.419,0,0,1,.95,3.516,3.187,3.187,0,0,1-2.273,2.052A2.966,2.966,0,0,1,31.82,38.69a5.442,5.442,0,0,1-.734-1.906C29.4,35.32,26.91,35.32,24.86,35.83a1.521,1.521,0,0,1-1.47-1.462l.149-1.028c-1.468-.072-2.933.66-4.47.806l-3.153.148C14.307,35.683,12.7,37.884,10.276,37a2.516,2.516,0,0,1-1.611-1.9,4.632,4.632,0,0,1,.147-1.759,3.168,3.168,0,0,1-.808-3c.44-.806-.731-1.32-.876-2.126-.37-.585.216-1.686-.808-1.758-2.492-1.1-5.789-2.639-6.3-5.713-.219-1.541,1.758-2.345,1.1-3.813a4.326,4.326,0,0,1,.952-3.734L3.9,11.943A4.831,4.831,0,0,1,6.391,7.328L8.3,6.816C8.518,5.131,9.47,3.3,11.3,2.858a9.115,9.115,0,0,1,2.418-.292A5.083,5.083,0,0,1,17.383,0c3.736.074,6.156,3.958,7.839,6.816" transform="translate(0 0)"/>
        <path id="パス_1252" data-name="パス 1252" d="M24.59,8.067c1.539,4.982,4.178,11.212,1.172,16.413C21.806,29.023,14.845,27.412,9.5,26.9c-2.711-.806-5.57-1.9-7.328-4.321a2.421,2.421,0,0,1-.074-2.345A3.328,3.328,0,0,1,3.7,18.986,3.389,3.389,0,0,1,2.829,16.2,3.46,3.46,0,0,1,4.585,14.15L6.2,13.784a5.083,5.083,0,0,1-.073-3.3A2.714,2.714,0,0,1,8.177,8.873a8,8,0,0,1,2.273.219,3.523,3.523,0,0,1,.144-2.857,2.752,2.752,0,0,1,1.979-1.464,4.447,4.447,0,0,1,2.783.294c.148-1.1.441-2.348,1.687-2.786a3.714,3.714,0,0,1,4.03.732c1.833,1.245,2.713,3.223,3.516,5.055" transform="translate(-0.686 -0.739)" fill="#e60019"/>
        <path id="パス_1253" data-name="パス 1253" d="M63.742,7.685c-.587,2.418-3.516,2.491-4.617,4.4-.071.219.148.587.439.513,1.689,0,2.932-1.611,4.618-1.246.44,1.32-1.321,2.42-2.273,3.225a27.944,27.944,0,0,0-4.031,4.834c-.952.295-1.319-.95-2.05-1.243-1.466-.659-3.81-.586-4.1-2.637a5.848,5.848,0,0,0-1.1-3.959c-.224-.953-.517-2.2.07-3.077l.662-.513c3.808-.586,7.765-1.906,11.649-1.17.292.146.733.437.733.878" transform="translate(-18.955 -2.481)" fill="#ffe000"/>
        <path id="パス_1254" data-name="パス 1254" d="M35.868,11.6c.367,1.905,1.613,3.519,1.613,5.569.731,1.98,3.077,1.76,4.617,2.711.292.585.952.88,1.318,1.174C41.509,24.794,39.6,28.6,36.6,31.75c-.441.293-.81.733-1.395.733-.147-.365-.293-.808-.735-.879-.877.365.807.731.075,1.32a.83.83,0,0,1-.587.22l-.44-.809c-.363.074-.219.515-.146.736.293.219.074.513-.147.658a35.4,35.4,0,0,1-10.4,2.931l.074.074c-.66-.219-1.833,0-2.639-.219-1.392,1.394-2.857,3.664-4.909,3.005-.44-.516-.953-1.1-.587-1.833C15.788,36.295,17.474,36,18.647,34.9c-1.466.15-3.445,1.833-4.618.15-.072-.662,0-1.468.805-1.762,1.028-.365,2.126-.661,3.227-.955l-.223-.143c-1.318-.074-3,.805-4.248-.222a1.256,1.256,0,0,1-.368-1.54l.294-.293c4.175.661,8.793,1.1,12.9,0,2.489-.365,4.465-2.855,5.127-5.126,1.1-4.544-.662-8.572-1.684-12.747.511-1.177,2.049-1.322,3.15-1.908.952-.365,1.978-.659,3-.952.072.658-.293,1.389-.145,2.2" transform="translate(-4.928 -3.54)" fill="#ed6d29"/>
        <path id="パス_1255" data-name="パス 1255" d="M54.95,10.135c.147.584-.365,1.026-.732,1.318a1.494,1.494,0,0,1-1.466-.146,1.134,1.134,0,0,1-.146-1.172A3.294,3.294,0,0,1,53.634,9.4c.584,0,1.243.072,1.316.733" transform="translate(-19.761 -3.539)"/>
        <path id="パス_1256" data-name="パス 1256" d="M54.827,10.576a.859.859,0,0,1-.734.879c-.365.073-.877,0-.951-.441a1.018,1.018,0,0,1,.8-.806c.365-.072.807,0,.88.368" transform="translate(-20.004 -3.833)" fill="#ffe000"/>
        <path id="パス_1257" data-name="パス 1257" d="M44.936,12.457c-.147,1.026,1.538,1.318,1.467,2.419A2.51,2.51,0,0,1,44.936,17c-.44.515-1.54-.368-1.684.587-.149-1.1-1.758-1.759-1.321-3a2.384,2.384,0,0,1,1.905-1.615c.513.222.733-.437,1.1-.511" transform="translate(-15.756 -4.689)"/>
        <path id="パス_1258" data-name="パス 1258" d="M44.221,14.16l-.879,2.42c-.443.145-.587-.515-.66-.88a1.525,1.525,0,0,1,.882-1.54c.216,0,.435-.221.658,0" transform="translate(-16.066 -5.293)" fill="#ed6d1f"/>
        <path id="パス_1259" data-name="パス 1259" d="M46.545,14.806c0,.294-.294.365-.441.441a.347.347,0,0,1-.365-.369l.441-.658a.506.506,0,0,1,.365.587" transform="translate(-17.217 -5.352)" fill="#fff"/>
        <path id="パス_1260" data-name="パス 1260" d="M46.56,17.746c-.074.514-.586.805-.952,1.026-.439,0-1.173,0-.953-.589.22-.658,1.246.077,1.684-.437Z" transform="translate(-16.794 -6.68)" fill="#fff"/>
        <path id="パス_1261" data-name="パス 1261" d="M59.576,25.85a2.37,2.37,0,0,1,.364,2.492,1.535,1.535,0,0,1-.951.953A2.892,2.892,0,0,1,60.6,31.639c0,.953-.953,1.54-1.614,1.979a4.235,4.235,0,0,1,.219,2.709,3.469,3.469,0,0,1-2.05,2.125,3.287,3.287,0,0,1-1.685.073,3.047,3.047,0,0,1-.807,3c-3.005,1.613-5.862-.509-8.721-.95-.147-.148-.294-.294-.22-.514.807-.735,1.905-.66,2.636-1.468,4.4-3.664,5.862-8.715,8.943-12.967.587-.73,1.684-.22,2.27.221" transform="translate(-17.205 -9.509)" fill="#e60019"/>
        <path id="パス_1262" data-name="パス 1262" d="M45.894,38.595a1.44,1.44,0,0,1,.221,1.688,2.181,2.181,0,0,1-1.47,1.315c-.659.222-1.318-.291-1.977,0-2.348.587-3.81,3.3-6.009,4.325-.44,0-.733-.44-.806-.805a3.376,3.376,0,0,1,1.172-2.786c-.148-.658-.367-1.758.585-1.978a1.022,1.022,0,0,1,.736.367c1.974-1.758,4.248-3.224,6.96-2.711Z" transform="translate(-13.488 -14.269)"/>
        <path id="パス_1263" data-name="パス 1263" d="M45.918,39.049a1.315,1.315,0,0,1,0,1.613c-.659,1.1-1.833.659-2.783.805a11.225,11.225,0,0,0-5.5,4.031.772.772,0,0,1-.952,0c-.808-1.465,1.025-2.492,1.684-3.666,2.052-1.757,4.177-3.735,6.963-3.22Z" transform="translate(-13.733 -14.503)" fill="#ffe000"/>
        <path id="パス_1264" data-name="パス 1264" d="M38.841,42.712c-.072.219-.145.584-.513.584h-.146a.7.7,0,0,1,.292-.877c.221,0,.441,0,.367.292" transform="translate(-14.351 -15.968)" fill="#ffe000"/>
        <path id="パス_1265" data-name="パス 1265" d="M43.092,50.277c-.072.143,0,.44-.22.365-.22,0-.22-.222-.364-.294-.516.368.435.512.289.88.955.365,1.98-.075,2.933.218,2.053.438,4.251,1.393,5.2,3.518a2.022,2.022,0,0,1-.145,1.464,1.838,1.838,0,0,1-2.272.809,1.258,1.258,0,0,1-1.1-.883c.291-1.172-.955-1.977-1.687-2.489-1.611-1.174-3.955-.587-5.716-.659a.781.781,0,0,1,0-.88c.44-.731,1.465-.219,1.76-1.026.07-.513-.3-1.391.513-1.391.291-.072.879-.146.806.369" transform="translate(-15.01 -18.768)" fill="#ffe000"/>
        <path id="パス_1266" data-name="パス 1266" d="M142.267,23.9h4.566l1.385,5.281h-4.547Z" transform="translate(-53.552 -8.995)"/>
        <path id="パス_1267" data-name="パス 1267" d="M122.652,26.008l3.079,0,.456-2.206h4.546l-.553,2.068h3.852a1.472,1.472,0,0,1,1.388,1.479v6.289a1.035,1.035,0,0,1-1.016,1.072h-5.864V33.535l1.616.017a.811.811,0,0,0,.857-.905V28.232c.153-.8-.251-1.067-1.14-1.067l-2.1,7.548h-4.611l2.2-7.533-3.085-.023Z" transform="translate(-46.029 -8.961)"/>
        <path id="パス_1268" data-name="パス 1268" d="M108.521,29.951c-1.018,3.23-3.546,5.516-6.481,7.114A10.755,10.755,0,0,1,91.474,36.5c-2.23-1.372-5.4-4.216-5.4-7.595h4.293c0,2.41,1.066,5.3,2.5,6.5A6.78,6.78,0,0,0,99.9,36.547c2.633-1,4.429-2.944,4.429-5.312A7.157,7.157,0,0,1,97.8,34.5c-3.577,0-6.94-2.648-6.94-7.422,0-4.079,3.214-7.248,7.667-7.248,3.808,0,6.077,3.436,6.077,3.436l0-5.116H85.47l.072-1.034h19.043V14h4.308l-.021,2.989,3.829-.018-.017,1.144-3.831.028s.032,8.176.032,9.23a13.985,13.985,0,0,1-.364,2.575m-8.879-7.421c-2.746,0-4.361,1.882-4.361,4.9,0,2.381,2.422,4.306,4.619,4.306s4.651-1.876,4.651-4.09-1.21-5.111-4.909-5.111" transform="translate(-32.173 -5.272)"/>
        <path id="パス_1269" data-name="パス 1269" d="M157.123,29.385l5.241-5.565c.484-.642,1.639-.6,1.84,0l3.014,10.546h-4.43c-.654-2.455-1.215-4.73-1.934-6.935h-.274c-2.036,2.472-4.281,4.749-6.3,6.992a1.033,1.033,0,0,1-1.611-.781V23.667l4.434.017Z" transform="translate(-57.466 -8.792)"/>
        <path id="パス_1270" data-name="パス 1270" d="M154.921,35.706c0,4.315,4.677,8.519,9.62,8.519,5.257,0,8.453-3.326,8.453-6.791a6.552,6.552,0,0,0-3.859-6.246,13.03,13.03,0,0,0-3.342-.523V23.65h4.432v6.775c3.095.153,7.2,2.06,7.2,6.872,0,5.645-6.186,8.024-11.951,8.024-3.884,0-6.663-1.238-9.8-3a14.927,14.927,0,0,1-5.574-6.614Z" transform="translate(-56.501 -8.903)"/>
        <path id="パス_1271" data-name="パス 1271" d="M189.443,28.835h-4.57c-.4-1.728-.8-3.448-1.2-5.184H188.1Z" transform="translate(-69.137 -8.903)"/>
        <path id="パス_1272" data-name="パス 1272" d="M211.233,33.627a1.251,1.251,0,0,0,.1,1.1l3.251,4.172-1.615.016-4.947-6.421a1.812,1.812,0,0,1-.142-1.835l2.949-7.005h4.561Z" transform="translate(-78.182 -8.903)"/>
        <rect id="長方形_1825" data-name="長方形 1825" width="8.994" height="0.906" transform="translate(120.84 19.027)"/>
      </g>
    </g>
  </g>
</svg>
