<?xml version="1.0" encoding="utf-8"?>
<!-- Generator: Adobe Illustrator 26.5.0, SVG Export Plug-In . SVG Version: 6.00 Build 0)  -->
<svg version="1.1" id="レイヤー_1" xmlns="http://www.w3.org/2000/svg" xmlns:xlink="http://www.w3.org/1999/xlink" x="0px"
	 y="0px" viewBox="0 0 25 25" style="enable-background:new 0 0 25 25;" xml:space="preserve">
<path id="arrow-right" d="M6.8,24.6c-0.2,0-0.4-0.1-0.6-0.2C6.1,24.2,6,24,6,23.8s0.1-0.4,0.2-0.6L17,12.4L6.4,1.8
	C6.3,1.7,6.3,1.6,6.2,1.4c0-0.1,0-0.3,0-0.4c0-0.1,0.1-0.3,0.2-0.4C6.6,0.5,6.8,0.4,7,0.4s0.4,0.1,0.6,0.2l11.2,11.2
	c0.1,0.1,0.1,0.2,0.2,0.3c0,0.1,0.1,0.2,0.1,0.3s0,0.2-0.1,0.3c0,0.1-0.1,0.2-0.2,0.3L7.4,24.4c-0.1,0.1-0.2,0.1-0.3,0.2
	C7,24.6,6.9,24.6,6.8,24.6z"/>
</svg>
