<?xml version="1.0" encoding="utf-8"?>
<!-- Generator: Adobe Illustrator 26.5.0, SVG Export Plug-In . SVG Version: 6.00 Build 0)  -->
<svg version="1.1" id="レイヤー_1" xmlns="http://www.w3.org/2000/svg" xmlns:xlink="http://www.w3.org/1999/xlink" x="0px"
	 y="0px" viewBox="0 0 25 25" style="enable-background:new 0 0 25 25;" xml:space="preserve">
<style type="text/css">
	.st0{fill:#D84190;}
</style>
<path id="arrow-right" class="st0" d="M24.6,18.2c0,0.2-0.1,0.4-0.2,0.6C24.2,18.9,24,19,23.8,19s-0.4-0.1-0.6-0.2L12.4,8L1.8,18.6
	c-0.1,0.1-0.2,0.2-0.4,0.2c-0.1,0-0.3,0-0.4,0c-0.1,0-0.3-0.1-0.4-0.2c-0.2-0.2-0.2-0.4-0.2-0.6s0.1-0.4,0.2-0.6L11.9,6.2
	C12,6.1,12.1,6.1,12.2,6c0,0,0.1,0,0.2,0c0.1,0,0.2,0,0.3,0.1c0.1,0,0.2,0.1,0.3,0.2l11.4,11.3c0.1,0.1,0.1,0.2,0.2,0.3
	C24.6,18,24.6,18.1,24.6,18.2z"/>
</svg>
