<svg xmlns="http://www.w3.org/2000/svg" width="29.455" height="25.456" viewBox="0 0 29.455 25.456">
  <g id="グループ_624" data-name="グループ 624" transform="translate(-272 -72)">
    <path id="前面オブジェクトで型抜き_1" data-name="前面オブジェクトで型抜き 1" d="M23.564,25.456a3.928,3.928,0,0,1,0-7.855H9.818a3.928,3.928,0,1,1-3.927,3.928A3.933,3.933,0,0,1,9.818,17.6H7.854a.981.981,0,0,1-.964-.8L3.947,5.119,3.162,1.964H.982A.982.982,0,1,1,.982,0H3.928A.98.98,0,0,1,4.88.744l.737,2.947.481,2.2v0l-.006,0,.034.126.019.086h0l2.52,9.532H24.713l2.26-8.545h.006L27.8,3.928h.671a.982.982,0,0,1,.965,1.162L26.492,16.8a.983.983,0,0,1-.965.8H23.564a3.928,3.928,0,0,1,0,7.855Z" transform="translate(272 72)" fill="#292929"/>
  </g>
</svg>
