<svg xmlns="http://www.w3.org/2000/svg" width="21.874" height="20.776" viewBox="0 0 21.874 20.776">
  <path id="idea" d="M6.01,2.707,4.91,3.8,6.547,5.441l1.1-1.1L6.009,2.707Zm14.355,0L18.729,4.343l1.1,1.1,1.636-1.635-1.1-1.1Zm-7.178.487a7.274,7.274,0,0,0-.781.05.134.134,0,0,0-.024,0A7.093,7.093,0,0,0,6.253,9.322a7,7,0,0,0,2.442,6.324,4.092,4.092,0,0,1,1.367,2.367V22.7h1.781a1.546,1.546,0,0,0,2.687,0h1.781V19.576h.074v-.928a4.5,4.5,0,0,1,1.562-3.2,7.484,7.484,0,0,0,2.27-5.248,7.021,7.021,0,0,0-7.031-7.007Zm0,1.562A5.425,5.425,0,0,1,18.656,10.2a5.871,5.871,0,0,1-1.807,4.125l.025.025a6.087,6.087,0,0,0-1.906,3.662H11.55a5.539,5.539,0,0,0-1.831-3.564A5.418,5.418,0,0,1,7.791,9.518a5.518,5.518,0,0,1,4.785-4.711,5.4,5.4,0,0,1,.61-.05ZM2.25,10.2v1.562H4.594V10.2Zm19.531,0v1.562h2.344V10.2ZM6.547,16.525,4.911,18.16l1.1,1.1,1.634-1.636Zm13.281,0-1.1,1.1,1.635,1.636,1.1-1.1Zm-8.2,3.051H14.75v1.562H11.625Z" transform="translate(-2.25 -2.706)"/>
</svg>
