<?xml version="1.0" encoding="UTF-8"?>
<svg xmlns="http://www.w3.org/2000/svg" version="1.1" viewBox="0 0 330 280">
  <defs>
    <style>
      .cls-1 {
        fill: #f49b00;
      }

      .cls-2 {
        fill: #fff;
      }

      .cls-3 {
        opacity: .5;
      }

      .cls-4 {
        fill: none;
        stroke: #f49b00;
        stroke-width: 3px;
      }
    </style>
  </defs>
  <!-- Generator: Adobe Illustrator 28.7.1, SVG Export Plug-In . SVG Version: 1.2.0 Build 142)  -->
  <g>
    <g id="_レイヤー_1" data-name="レイヤー_1">
      <g id="_グループ_9" data-name="グループ_9">
        <g id="_長方形_7" data-name="長方形_7">
          <rect class="cls-1" x="-2" y="0" width="333" height="280"/>
          <rect class="cls-4" x="-.5" y="1.5" width="330" height="277"/>
        </g>
        <g id="_グループ_1" data-name="グループ_1" class="cls-3">
          <path id="_パス_16" data-name="パス_16" class="cls-2" d="M245.2,180.2c-2.1,0-4.1-1-5.3-2.6-.9-1.1-19.7-23.8-67.9-7.6-30.3,10.2-54.1,2.6-68.8-5.6-9.5-5.3-17.9-12.2-24.8-20.6-2.2-3-1.6-7.1,1.3-9.4,3-2.2,7.2-1.6,9.4,1.3,5.9,7,13.1,12.8,21.1,17.2,17.7,9.8,37.1,11.3,57.4,4.4,58.1-19.6,82,10.9,82.9,12.2,2.2,3,1.6,7.2-1.4,9.4-1.2.8-2.5,1.3-4,1.3h0Z"/>
          <path id="_パス_15" data-name="パス_15" class="cls-2" d="M141.4,98.2c-1.2,0-2.5-.4-3.5-1-2.5-1.6-3.7-4.6-3-7.5,2.3-8.9,9.4-24.6,31.4-31.3,3.2-1.1,6.8.3,8.4,3.3,1.7,3.3.3,7.3-3.1,9-.3.2-.7.3-1,.4-15.3,4.6-20.8,14.5-22.7,22-.8,3-3.4,5-6.5,5Z"/>
          <path id="_パス_14" data-name="パス_14" class="cls-2" d="M213,205.9h-88.6c-3.8,0-6.9-3.1-6.9-6.9v-87.8c0-3.8,3.1-6.8,6.9-6.8,0,0,0,0,0,0h88.6c3.8,0,6.8,3.1,6.8,6.8v87.8c0,3.8-3,6.8-6.8,6.9ZM131.2,192.6h75.1c0,0,.2,0,.2-.1,0,0,0,0,0,0v-74.4c0,0,0-.1-.1-.1h-75.1c0,0-.2,0-.2.1v74.4c0,0,0,.2.2.2Z"/>
          <path id="_パス_13" data-name="パス_13" class="cls-2" d="M150.8,132c-3.7,0-6.6,3-6.6,6.6s3,6.6,6.7,6.5c3.7,0,6.6-3,6.6-6.6,0-1.7-.7-3.4-2-4.6-1.3-1.2-3-1.9-4.7-1.9Z"/>
          <path id="_パス_12" data-name="パス_12" class="cls-2" d="M184.9,132c-3.7,0-6.6,3-6.6,6.6,0,3.6,3,6.5,6.7,6.5,3.6,0,6.6-3,6.6-6.6,0-3.6-3-6.6-6.6-6.6,0,0,0,0,0,0Z"/>
        </g>
      </g>
    </g>
  </g>
</svg>