<svg xmlns="http://www.w3.org/2000/svg" width="80" height="80" viewBox="0 0 80 80">
  <g id="グループ_9" data-name="グループ 9" transform="translate(-81 -356)">
    <g id="パス_17" data-name="パス 17" transform="translate(81 356)" fill="#f49b00">
      <path d="M 40 78 C 34.8691520690918 78 29.89284706115723 76.99556732177734 25.20929336547852 75.01458740234375 C 20.68453025817871 73.10077667236328 16.62044715881348 70.36054992675781 13.1299409866333 66.87005615234375 C 9.639447212219238 63.37955474853516 6.899223327636719 59.31547164916992 4.985411643981934 54.79070663452148 C 3.004435300827026 50.10715484619141 2 45.1308479309082 2 40 C 2 34.8691520690918 3.004435300827026 29.89284706115723 4.985411643981934 25.20929336547852 C 6.899223327636719 20.68453025817871 9.639447212219238 16.62044715881348 13.1299409866333 13.1299409866333 C 16.62044715881348 9.639447212219238 20.68453025817871 6.899223327636719 25.20929336547852 4.985411643981934 C 29.89284706115723 3.004435300827026 34.8691520690918 2 40 2 C 45.1308479309082 2 50.10715484619141 3.004435300827026 54.79070663452148 4.985411643981934 C 59.31547164916992 6.899223327636719 63.37955474853516 9.639447212219238 66.87005615234375 13.1299409866333 C 70.36054992675781 16.62044715881348 73.10077667236328 20.68453025817871 75.01458740234375 25.20929336547852 C 76.99556732177734 29.89284706115723 78 34.8691520690918 78 40 C 78 45.1308479309082 76.99556732177734 50.10715484619141 75.01458740234375 54.79070663452148 C 73.10077667236328 59.31547164916992 70.36054992675781 63.37955474853516 66.87005615234375 66.87005615234375 C 63.37955474853516 70.36054992675781 59.31547164916992 73.10077667236328 54.79070663452148 75.01458740234375 C 50.10715484619141 76.99556732177734 45.1308479309082 78 40 78 Z" stroke="none"/>
      <path d="M 40 4 C 35.13827133178711 4 30.42408752441406 4.951286315917969 25.98839950561523 6.827415466308594 C 21.7020149230957 8.640403747558594 17.85161590576172 11.23668670654297 14.54415893554688 14.54415893554688 C 11.23668670654297 17.85161590576172 8.640403747558594 21.7020149230957 6.827415466308594 25.98839950561523 C 4.951286315917969 30.42408752441406 4 35.13827133178711 4 40 C 4 44.86172866821289 4.951286315917969 49.57591247558594 6.827415466308594 54.01160049438477 C 8.640403747558594 58.2979736328125 11.23668670654297 62.14836883544922 14.54415893554688 65.45584106445312 C 17.85161590576172 68.76331329345703 21.7020149230957 71.35960388183594 25.98839950561523 73.17258453369141 C 30.42408752441406 75.04871368408203 35.13827133178711 76 40 76 C 44.86172866821289 76 49.57591247558594 75.04871368408203 54.01160049438477 73.17258453369141 C 58.2979736328125 71.35960388183594 62.14836883544922 68.76331329345703 65.45584106445312 65.45584106445312 C 68.76331329345703 62.14836883544922 71.35960388183594 58.2979736328125 73.17258453369141 54.01160049438477 C 75.04871368408203 49.57591247558594 76 44.86172866821289 76 40 C 76 35.13827133178711 75.04871368408203 30.42408752441406 73.17258453369141 25.98839950561523 C 71.35960388183594 21.7020149230957 68.76331329345703 17.85161590576172 65.45584106445312 14.54415893554688 C 62.14836883544922 11.23668670654297 58.2979736328125 8.640403747558594 54.01160049438477 6.827415466308594 C 49.57591247558594 4.951286315917969 44.86172866821289 4 40 4 M 40 0 C 62.09138488769531 0 80 17.90859985351562 80 40 C 80 62.09138488769531 62.09138488769531 80 40 80 C 17.90859985351562 80 0 62.09138488769531 0 40 C 0 17.90859985351562 17.90859985351562 0 40 0 Z" stroke="none" fill="#fff"/>
    </g>
    <path id="パス_18" data-name="パス 18" d="M21.07.84a17.9,17.9,0,0,1-9.31-2.45A18.418,18.418,0,0,1,5.215-8.12,17.2,17.2,0,0,1,2.8-17.08a18.493,18.493,0,0,1,2.31-9.31,16.958,16.958,0,0,1,6.37-6.4,18.136,18.136,0,0,1,9.24-2.345,15.377,15.377,0,0,1,7.595,1.925A15.531,15.531,0,0,1,33.88-28.07a12.564,12.564,0,0,1,2.1,7l-3.64-1.82.07-27.16h6.93v32.97a17.645,17.645,0,0,1-2.415,9.135A17.511,17.511,0,0,1,30.38-1.5,18.52,18.52,0,0,1,21.07.84Zm0-6.51a10.961,10.961,0,0,0,5.81-1.575,11.387,11.387,0,0,0,4.06-4.165,11.424,11.424,0,0,0,1.47-5.74,11.482,11.482,0,0,0-1.47-5.7,11.043,11.043,0,0,0-4.06-4.165,11.151,11.151,0,0,0-5.81-1.54A10.967,10.967,0,0,0,15.3-27.02a11.4,11.4,0,0,0-4.06,4.165,11.274,11.274,0,0,0-1.505,5.7,11.217,11.217,0,0,0,1.505,5.74A11.765,11.765,0,0,0,15.3-7.245,10.781,10.781,0,0,0,21.07-5.67Z" transform="translate(97 419)" fill="#fff"/>
  </g>
</svg>
