<svg xmlns="http://www.w3.org/2000/svg" width="80" height="80" viewBox="0 0 80 80">
  <g id="グループ_11" data-name="グループ 11" transform="translate(-282 -356)">
    <g id="パス_21" data-name="パス 21" transform="translate(282 356)" fill="#8d8d8d">
      <path d="M 40 78 C 34.8691520690918 78 29.89284706115723 76.99556732177734 25.20929336547852 75.01458740234375 C 20.68453025817871 73.10077667236328 16.62044715881348 70.36054992675781 13.1299409866333 66.87005615234375 C 9.639447212219238 63.37955474853516 6.899223327636719 59.31547164916992 4.985411643981934 54.79070663452148 C 3.004435300827026 50.10715484619141 2 45.1308479309082 2 40 C 2 34.8691520690918 3.004435300827026 29.89284706115723 4.985411643981934 25.20929336547852 C 6.899223327636719 20.68453025817871 9.639447212219238 16.62044715881348 13.1299409866333 13.1299409866333 C 16.62044715881348 9.639447212219238 20.68453025817871 6.899223327636719 25.20929336547852 4.985411643981934 C 29.89284706115723 3.004435300827026 34.8691520690918 2 40 2 C 45.1308479309082 2 50.10715484619141 3.004435300827026 54.79070663452148 4.985411643981934 C 59.31547164916992 6.899223327636719 63.37955474853516 9.639447212219238 66.87005615234375 13.1299409866333 C 70.36054992675781 16.62044715881348 73.10077667236328 20.68453025817871 75.01458740234375 25.20929336547852 C 76.99556732177734 29.89284706115723 78 34.8691520690918 78 40 C 78 45.1308479309082 76.99556732177734 50.10715484619141 75.01458740234375 54.79070663452148 C 73.10077667236328 59.31547164916992 70.36054992675781 63.37955474853516 66.87005615234375 66.87005615234375 C 63.37955474853516 70.36054992675781 59.31547164916992 73.10077667236328 54.79070663452148 75.01458740234375 C 50.10715484619141 76.99556732177734 45.1308479309082 78 40 78 Z" stroke="none"/>
      <path d="M 40 4 C 35.13827133178711 4 30.42408752441406 4.951286315917969 25.98839950561523 6.827415466308594 C 21.7020149230957 8.640403747558594 17.85161590576172 11.23668670654297 14.54415893554688 14.54415893554688 C 11.23668670654297 17.85161590576172 8.640403747558594 21.7020149230957 6.827415466308594 25.98839950561523 C 4.951286315917969 30.42408752441406 4 35.13827133178711 4 40 C 4 44.86172866821289 4.951286315917969 49.57591247558594 6.827415466308594 54.01160049438477 C 8.640403747558594 58.2979736328125 11.23668670654297 62.14836883544922 14.54415893554688 65.45584106445312 C 17.85161590576172 68.76331329345703 21.7020149230957 71.35960388183594 25.98839950561523 73.17258453369141 C 30.42408752441406 75.04871368408203 35.13827133178711 76 40 76 C 44.86172866821289 76 49.57591247558594 75.04871368408203 54.01160049438477 73.17258453369141 C 58.2979736328125 71.35960388183594 62.14836883544922 68.76331329345703 65.45584106445312 65.45584106445312 C 68.76331329345703 62.14836883544922 71.35960388183594 58.2979736328125 73.17258453369141 54.01160049438477 C 75.04871368408203 49.57591247558594 76 44.86172866821289 76 40 C 76 35.13827133178711 75.04871368408203 30.42408752441406 73.17258453369141 25.98839950561523 C 71.35960388183594 21.7020149230957 68.76331329345703 17.85161590576172 65.45584106445312 14.54415893554688 C 62.14836883544922 11.23668670654297 58.2979736328125 8.640403747558594 54.01160049438477 6.827415466308594 C 49.57591247558594 4.951286315917969 44.86172866821289 4 40 4 M 40 0 C 62.09138488769531 0 80 17.90859985351562 80 40 C 80 62.09138488769531 62.09138488769531 80 40 80 C 17.90859985351562 80 0 62.09138488769531 0 40 C 0 17.90859985351562 17.90859985351562 0 40 0 Z" stroke="none" fill="#fff"/>
    </g>
    <path id="パス_23" data-name="パス 23" d="M17.29.77A17.76,17.76,0,0,1,8.925-1.12,12.87,12.87,0,0,1,3.36-6.86L8.68-9.8a7.971,7.971,0,0,0,3.395,3.64A10.772,10.772,0,0,0,17.01-5.11a11.06,11.06,0,0,0,3.57-.525A5.51,5.51,0,0,0,23.03-7.21a3.718,3.718,0,0,0,.91-2.52,3.019,3.019,0,0,0-1.435-2.73,11.966,11.966,0,0,0-3.64-1.435q-2.2-.525-4.76-1.05a20.731,20.731,0,0,1-4.76-1.575A9.767,9.767,0,0,1,5.7-19.46,8.253,8.253,0,0,1,4.27-24.57a9.1,9.1,0,0,1,1.645-5.355,11.262,11.262,0,0,1,4.55-3.71A15.378,15.378,0,0,1,17.08-35a16.536,16.536,0,0,1,5.7.91,13.273,13.273,0,0,1,4.27,2.485A13.9,13.9,0,0,1,29.96-28.07l-5.32,3.01a6.522,6.522,0,0,0-3.08-3.15,10.181,10.181,0,0,0-4.34-.91,8.219,8.219,0,0,0-2.975.525,5.383,5.383,0,0,0-2.2,1.5,3.533,3.533,0,0,0-.84,2.38,2.9,2.9,0,0,0,1.435,2.59,12.581,12.581,0,0,0,3.64,1.47q2.2.56,4.76,1.12a23.254,23.254,0,0,1,4.76,1.575,9.46,9.46,0,0,1,3.64,2.9A8.38,8.38,0,0,1,30.87-9.87a8.988,8.988,0,0,1-1.855,5.635,11.845,11.845,0,0,1-4.97,3.71A17.421,17.421,0,0,1,17.29.77Z" transform="translate(305 413)" fill="#fff"/>
  </g>
</svg>
