<svg xmlns="http://www.w3.org/2000/svg" viewBox="0 0 47.18 47.18"><defs><style>.cls-1{fill:#e83819;}.cls-2{fill:#fff;}</style></defs><g id="レイヤー_2" data-name="レイヤー 2"><g id="レイヤー_6" data-name="レイヤー 6"><rect class="cls-1" width="47.18" height="47.18"/><path class="cls-2" d="M4.73,12.92A1.64,1.64,0,0,1,4,12a4.93,4.93,0,0,1-.19-1.5H5.5a3.12,3.12,0,0,0,.15,1.13.56.56,0,0,0,.57.35.54.54,0,0,0,.48-.23,1.22,1.22,0,0,0,.2-.6c0-.26,0-.62,0-1.11a3.74,3.74,0,0,0-.15-1.22.6.6,0,0,0-.62-.41c-.4,0-.65.27-.77.81H3.93L4.05,4.1H8.19V5.58H5.46l-.1,2a1.15,1.15,0,0,1,.53-.32,2.75,2.75,0,0,1,.81-.13,1.53,1.53,0,0,1,1.39.75A3.92,3.92,0,0,1,8.56,10a6.79,6.79,0,0,1-.19,1.77,2,2,0,0,1-.72,1.11,2.41,2.41,0,0,1-1.5.4,2.69,2.69,0,0,1-1.42-.32"/><path class="cls-2" d="M23.51,34.28a5.68,5.68,0,1,1,5.68-5.67,5.68,5.68,0,0,1-5.68,5.67m10.9-16.46H28.52a.08.08,0,0,0-.07.08v2a.07.07,0,0,0,.07.07h2.35l-2.61,2.61a7.71,7.71,0,1,0-5.75,13.71v2.26H20.19a.08.08,0,0,0-.08.07v2.1a.09.09,0,0,0,.08.08h2.32V43a.07.07,0,0,0,.08.07h2.09a.07.07,0,0,0,.08-.07V40.76h2.32a.09.09,0,0,0,.08-.08v-2.1a.08.08,0,0,0-.08-.07H24.76V36.22a7.73,7.73,0,0,0,6.46-7.61,7.64,7.64,0,0,0-1.41-4.44l2.57-2.57v2.19a.08.08,0,0,0,.08.08h1.95a.09.09,0,0,0,.08-.08V17.9a.09.09,0,0,0-.08-.08"/><path class="cls-2" d="M27,26.27H20.09a.08.08,0,0,0-.08.07V28a.08.08,0,0,0,.08.07H27a.07.07,0,0,0,.07-.07V26.34a.07.07,0,0,0-.07-.07"/><path class="cls-2" d="M27,29.25H20.09a.08.08,0,0,0-.08.07V31a.08.08,0,0,0,.08.07H27a.07.07,0,0,0,.07-.07V29.32a.07.07,0,0,0-.07-.07"/><path class="cls-2" d="M15.27,4.84a6,6,0,0,0-.3-.56l.25-.15a3.45,3.45,0,0,1,.28.54ZM14.83,5a3.5,3.5,0,0,0-.29-.54l.26-.14a4.25,4.25,0,0,1,.27.52Zm-1.05.22A3.34,3.34,0,0,0,13,4.74l.23-.42a2.56,2.56,0,0,1,.78.49c-.08.14-.17.28-.26.42m-1,2.41s-.24-.47-.24-.49,0,0,.05,0a4.37,4.37,0,0,0,.65-.2,5.38,5.38,0,0,0,1.86-1.43c0,.22,0,.44.07.66a5,5,0,0,1-2.39,1.5m.53-1.49a4.77,4.77,0,0,0-.81-.61c.09-.13.16-.27.25-.41a3.35,3.35,0,0,1,.82.59Z"/><polygon class="cls-2" points="16.16 7.49 16.16 7.11 17.08 7.11 17.08 5.9 16.33 5.9 16.33 5.51 18.28 5.51 18.28 5.9 17.5 5.9 17.5 7.11 18.45 7.11 18.45 7.49 16.16 7.49"/><path class="cls-2" d="M20.22,5.64a4.49,4.49,0,0,0-.69-.75c.14-.11.26-.23.4-.35a3.92,3.92,0,0,1,.66.74,2.1,2.1,0,0,1-.37.36m.08,1.64a2.94,2.94,0,0,1-.61.22L19.46,7s0,0,0,0h.15a4,4,0,0,0,1.11-.48A6.22,6.22,0,0,0,22,5.4l.09.6A5.84,5.84,0,0,1,20.3,7.28"/><path class="cls-2" d="M25.46,4.64a4.63,4.63,0,0,0-.29-.54L25.42,4a2.94,2.94,0,0,1,.27.53ZM25,4.76c-.09-.18-.19-.35-.29-.52L25,4.09a5,5,0,0,1,.26.52Zm.14.39a1.13,1.13,0,0,0,0,.15c0,.13-.08.26-.12.39a4.38,4.38,0,0,1-.31.7,4.31,4.31,0,0,1,.46.39c-.09.12-.19.24-.29.35-.13-.13-.26-.26-.4-.38a2.92,2.92,0,0,1-1.26,1l-.31-.33s0,0,0,0,0,0,0,0a.8.8,0,0,0,.2-.07,2.5,2.5,0,0,0,1-.8c-.14-.11-.29-.21-.44-.31.09-.11.16-.23.25-.34a3.91,3.91,0,0,1,.41.3,2.88,2.88,0,0,0,.3-.82h-.7a4.55,4.55,0,0,1-.73,1L22.81,6a3.34,3.34,0,0,0,1-1.75l.47.2a.06.06,0,0,1,0,0s0,0-.06,0-.09.21-.13.31c.32,0,.64,0,1,0,.05.06.09.12.15.18a.75.75,0,0,0-.06.13"/><path class="cls-2" d="M28.86,6.21a5.06,5.06,0,0,0-.53,0c-.18,0-1.81,0-2.25,0,0-.16,0-.37,0-.49s0,0,.05,0h.2c.21,0,.75,0,1,0l1.56,0c0,.16,0,.38,0,.54"/><path class="cls-2" d="M32.44,5.18c-.12.26-.24.51-.38.76l-.31-.15c.11-.3.22-.61.31-.93l.42.19a.1.1,0,0,1,0,.07s-.05.06-.08.06m-1.93.74c-.12-.28-.25-.58-.39-.85l.37-.2a5.12,5.12,0,0,1,.32.88Zm1,.55V7.8h-.42V6.47H29.76V6.08h1.32V4.73H30V4.35h2.68v.38H31.5V6.08h1.31v.39Z"/><path class="cls-2" d="M35.88,4.83l-.11.35-.3,0,0-.33h-.23c-.06.09-.14.29-.21.37L34.64,5a2.84,2.84,0,0,0,.48-.93l.41.12s0,0,0,0,0,.05-.07.05a1.3,1.3,0,0,1-.08.17h.92v.34Zm-.25,1.41v.25h.69v.36h-.68c0,.62.06,1-.57,1.07l-.24-.34c.24,0,.42-.07.42-.4V6.85h-1a2.13,2.13,0,0,1,.3.3l.22.23-.26.29c-.19-.19-.38-.39-.58-.56l.23-.26h-.65V6.49h1.76V6.24H33.38V5.9h1.27V5.66h-.91V5.31h.9V5l.42,0s0,0,0,0,0,.08,0,.09v.12h1v.35H35V5.9h1.34v.34ZM34.45,4.81l0,.28-.28.08-.11-.36H34a2.46,2.46,0,0,1-.37.48l-.3-.2a2.32,2.32,0,0,0,.51-1l.4.13a0,0,0,0,1,0,0,.06.06,0,0,1-.06.06.55.55,0,0,1-.08.15h.68v.33Z"/><path class="cls-2" d="M39.63,6.07s0,0-.05,0l-.92.38v.63h-.39V6.64q-.39.19-.39.48c0,.16.15.25.45.25a3,3,0,0,0,1-.16v.47a2.64,2.64,0,0,1-.83.12c-.65,0-1-.22-1-.65a.79.79,0,0,1,.27-.58,2.24,2.24,0,0,1,.5-.35c0-.18-.06-.28-.15-.28a.47.47,0,0,0-.35.16c-.06.06-.15.15-.25.27l-.24.29c-.07-.07-.16-.18-.28-.33a2.8,2.8,0,0,0,.83-1.1,4.83,4.83,0,0,1-.58,0c0-.15,0-.29,0-.42a5.35,5.35,0,0,0,.76,0,3.62,3.62,0,0,0,.11-.56l.44.11s0,0,0,0,0,0-.05.06a1.78,1.78,0,0,1-.09.31A4.88,4.88,0,0,0,39,4.64l0,.45c-.18,0-.42.08-.73.12a2.55,2.55,0,0,1-.2.41.49.49,0,0,1,.19,0c.2,0,.33.14.39.43.26-.15.57-.29.89-.45l.16.46a0,0,0,0,1,0,0"/><path class="cls-2" d="M15.06,10.41V9.9H12.92v.51h-.38V9.55h1.23V9.11l.43,0s.06,0,.06,0,0,.06-.06.07v.29h1.26v.86Zm.31,2.45a2.48,2.48,0,0,1-.82-.36,1.71,1.71,0,0,1-.56-.6,2,2,0,0,1-1.31.94l-.24-.36a1.66,1.66,0,0,0,1.19-.71H12.46v-.36h1.3c0-.08,0-.16,0-.23h-1v-.35h1v-.25H13v-.35h.79V10l.4,0a0,0,0,0,1,0,0,0,0,0,0,1,0,.05v.14H15v.35h-.82v.25h1.05v.35H14.17a1.69,1.69,0,0,0,0,.23h1.36v.36H14.34a1.94,1.94,0,0,0,1.26.7Z"/><path class="cls-2" d="M18.76,10.93h-.93v.33h.93Zm-.93-.63v.3h.93v-.3Zm.93-.64h-.93V10h.93Zm.66,3.08a1.35,1.35,0,0,1-.59.11c-.27,0-.54,0-.54-.44v-.83H18s.2.14.2.18,0,0-.05.05a2.65,2.65,0,0,1-.22.4,2.1,2.1,0,0,1-.84.73l-.3-.29a1.65,1.65,0,0,0,1-1.07h-.31V9.3h1.71v2.28h-.49v.7c0,.13,0,.22.16.22a1,1,0,0,0,.62-.26Zm-2.08-1-1,.44s0,.06-.05.06,0,0-.05,0l-.15-.41.51-.17v-.87h-.4v-.35h.4v-.7H16.2V9.34h1.15v.35H17v.7h.28v.35H17v.76l.34-.15Z"/><path class="cls-2" d="M22,12.44a1.61,1.61,0,0,1-.92.28c-.49,0-.8-.33-.82-.91a1.69,1.69,0,0,1,0-.23c0-.21,0-.43,0-.66l0-1.57.32.07.14,0s.06,0,.06.07,0,.05-.05.07c0,.7-.07,1.41-.07,2.12,0,.36.13.58.46.58a1,1,0,0,0,.44-.12,1.68,1.68,0,0,0,.69-.85l.26.53a2.08,2.08,0,0,1-.54.6"/><path class="cls-2" d="M24.49,11.85a1.07,1.07,0,0,0-.46-.11c-.12,0-.31.09-.31.26s.24.31.41.31a.31.31,0,0,0,.36-.35Zm1.21.76a4.27,4.27,0,0,0-.79-.57.65.65,0,0,1-.75.67c-.34,0-.87-.2-.87-.69a.67.67,0,0,1,.76-.65,1.54,1.54,0,0,1,.43.05c0-.56,0-1.14-.07-1.7,0-.14,0-.27,0-.41l.46.07s.06,0,.06.06a.07.07,0,0,1,0,.05v.16c0,.18,0,.35,0,.53h0a3.85,3.85,0,0,0,.48,0l.36-.07c0,.16,0,.32,0,.48a5.63,5.63,0,0,1-.58,0h-.28l0,1a6.09,6.09,0,0,1,1.08.61Z"/><path class="cls-2" d="M28.35,9.85a5.46,5.46,0,0,0-1-.36l.2-.44a4.17,4.17,0,0,1,1,.37c-.07.15-.14.29-.22.43m-.6,2.92c-.13-.11-.26-.24-.39-.34a1.67,1.67,0,0,0,1-.71,1.17,1.17,0,0,0,.14-.59c0-.36-.12-.57-.44-.57a2.77,2.77,0,0,0-1,.44c0-.06-.19-.48-.19-.52s0,0,.05,0a2.82,2.82,0,0,0,.43-.12,2.32,2.32,0,0,1,.8-.21c.56,0,.8.44.8,1a1.72,1.72,0,0,1-1.21,1.6"/></g></g></svg>