<svg xmlns="http://www.w3.org/2000/svg" width="160.781" height="46.168" viewBox="0 0 160.781 46.168">
  <g id="logo" transform="translate(0 0.85)">
    <path id="パス_1" data-name="パス 1" d="M101.97,55.61a11.476,11.476,0,0,1-2.038-.726A7.571,7.571,0,0,1,97.2,52.79l.315-.208a8.732,8.732,0,0,0,2.82,2.322A10.922,10.922,0,0,0,101.97,55.61Zm7-.227a7.268,7.268,0,0,0,1.35-.782,6.751,6.751,0,0,0,1.773-1.893,5.287,5.287,0,0,0,.751-2.827,4.7,4.7,0,0,0-1.748-3.905,10.145,10.145,0,0,0-3.3-1.659,35.536,35.536,0,0,0-3.836-.9,14.006,14.006,0,0,1-3.3-1,6.2,6.2,0,0,1-2.252-1.672,4.177,4.177,0,0,1-.763-2.751,5.123,5.123,0,0,1,.574-2.524,5.558,5.558,0,0,1,1.59-1.8,6.5,6.5,0,0,1,1.142-.681c-.2.1-.385.215-.568.328a6.1,6.1,0,0,0-1.76,1.722,4.662,4.662,0,0,0-.8,2.662A4.48,4.48,0,0,0,99.6,41.547,10.454,10.454,0,0,0,102.91,43.1a34.589,34.589,0,0,0,3.836.839,13.407,13.407,0,0,1,3.287.946A5.962,5.962,0,0,1,112.26,46.6a4.858,4.858,0,0,1,.789,3.041,6.019,6.019,0,0,1-.58,2.757,5.558,5.558,0,0,1-1.609,1.95,7.489,7.489,0,0,1-1.886,1.047Zm2.435-20.309a7.975,7.975,0,0,0-2.006-1.893,5.811,5.811,0,0,0-.852-.461,7.956,7.956,0,0,1,1.06.442A6.088,6.088,0,0,1,111.7,34.89Z" transform="translate(-36.408 -12.973)" fill="#8d8d8d"/>
    <path id="パス_2" data-name="パス 2" d="M103.573,29.368a11.493,11.493,0,0,0-3.153.441,8.763,8.763,0,0,0-2.8,1.363,7.212,7.212,0,0,0-2.032,2.3,6.637,6.637,0,0,0-.776,3.281,5.634,5.634,0,0,0,1.142,3.786,7.836,7.836,0,0,0,2.8,2.082,15.773,15.773,0,0,0,3.666,1.11,33.211,33.211,0,0,1,3.672.864,8.316,8.316,0,0,1,2.8,1.388,3.155,3.155,0,0,1,1.142,2.662,3.684,3.684,0,0,1-.53,1.975,5.123,5.123,0,0,1-1.363,1.47,6.379,6.379,0,0,1-1.893.946,7.041,7.041,0,0,1-2.114.334,9.117,9.117,0,0,1-4.328-1.085,7.161,7.161,0,0,1-3.117-3.155l-2.94,2A9.249,9.249,0,0,0,98,55.077a14.278,14.278,0,0,0,6.088,1.262,12.063,12.063,0,0,0,3.5-.5,9.161,9.161,0,0,0,2.965-1.47A7.1,7.1,0,0,0,112.6,51.9a7.571,7.571,0,0,0,.751-3.47,6.309,6.309,0,0,0-1.136-4.025,7.571,7.571,0,0,0-2.808-2.17,14.858,14.858,0,0,0-3.666-1.11,34.7,34.7,0,0,1-3.634-.782A8.707,8.707,0,0,1,99.3,39.033,2.946,2.946,0,0,1,98.16,36.51a3.091,3.091,0,0,1,.53-1.779A4.486,4.486,0,0,1,100,33.468a6.675,6.675,0,0,1,1.748-.782,6.865,6.865,0,0,1,1.861-.278,6.7,6.7,0,0,1,3.7.921,7.047,7.047,0,0,1,2.36,2.694l2.972-1.842a8.132,8.132,0,0,0-3.584-3.647,11.943,11.943,0,0,0-5.476-1.167Z" transform="translate(-35.13 -11.734)" fill="#8d8d8d"/>
    <path id="パス_3" data-name="パス 3" d="M49.778,52.678a1.994,1.994,0,0,1-1.584-.782c-.259-.328-5.83-7.123-20.088-2.265A24.312,24.312,0,0,1,7.74,47.952,25.514,25.514,0,0,1,.4,41.8a2,2,0,1,1,3.192-2.4,21.887,21.887,0,0,0,6.246,5.129,20.132,20.132,0,0,0,16.984,1.319C44.005,40,51.1,49.094,51.374,49.485a2,2,0,0,1-1.6,3.192Z" transform="translate(0.004 -15.056)" fill="#8d8d8d"/>
    <path id="パス_4" data-name="パス 4" d="M29.043,14.639a2.05,2.05,0,0,1-1.047-.3,2,2,0,0,1-.877-2.227,13.022,13.022,0,0,1,9.306-9.357,2.088,2.088,0,0,1,2.486.984,2,2,0,0,1-1.218,2.8c-4.517,1.375-6.145,4.322-6.719,6.587a2,2,0,0,1-1.931,1.508Z" transform="translate(-9.98 -1.516)" fill="#3a96a5"/>
    <path id="パス_5" data-name="パス 5" d="M47.265,55.519H21.038A2.044,2.044,0,0,1,19,53.469V27.248a2.038,2.038,0,0,1,2.044-2.038H47.265a2.038,2.038,0,0,1,2.019,2.038V53.469a2.044,2.044,0,0,1-2.019,2.05ZM23.032,51.532h22.24a.044.044,0,0,0,.044-.05V29.242a.044.044,0,0,0-.044-.044H23.032a.05.05,0,0,0-.05.044v22.24A.05.05,0,0,0,23.032,51.532Z" transform="translate(-7.01 -10.201)" fill="#f49c00"/>
    <path id="パス_6" data-name="パス 6" d="M33.443,38a1.968,1.968,0,1,0,1.4.57A1.962,1.962,0,0,0,33.443,38Z" transform="translate(-11.623 -14.764)" fill="#3a96a5"/>
    <path id="パス_7" data-name="パス 7" d="M49.86,38a1.962,1.962,0,1,0,1.975,1.962A1.962,1.962,0,0,0,49.86,38Z" transform="translate(-17.924 -14.764)" fill="#3a96a5"/>
    <path id="パス_8" data-name="パス 8" d="M134.55.85h2.4V23.739a8.213,8.213,0,0,1,7.5-4.342,7.6,7.6,0,0,1,6.77,3.391c1.079,1.721,1.2,3.98,1.2,6.12v15.28h-2.4V28.907a8.907,8.907,0,0,0-.959-4.874,5.2,5.2,0,0,0-4.795-2.378,6.445,6.445,0,0,0-5.994,3.391,13.029,13.029,0,0,0-1.319,6.539v12.6h-2.4Z" transform="translate(-50.41 -0.85)" fill="#8d8d8d" stroke="#8d8d8d" stroke-miterlimit="10" stroke-width="1.7"/>
    <path id="パス_9" data-name="パス 9" d="M175.22,17.168a2.158,2.158,0,1,1,2.158,2.158A2.158,2.158,0,0,1,175.22,17.168Zm3.357,8.151V49.774h-2.4V25.319Z" transform="translate(-65.564 -6.436)" fill="#8d8d8d" stroke="#8d8d8d" stroke-miterlimit="10" stroke-width="1.7"/>
    <path id="パス_10" data-name="パス 10" d="M194.59,31.022h2.4v3.155a5.779,5.779,0,0,1,5.394-3.716,5.678,5.678,0,0,1,2.574.631l-1.2,2.158a2.789,2.789,0,0,0-1.8-.479c-4.915,0-4.972,6.536-4.972,9.59V55.476h-2.4Z" transform="translate(-72.852 -12.139)" fill="#8d8d8d" stroke="#8d8d8d" stroke-miterlimit="10" stroke-width="1.7"/>
    <path id="パス_11" data-name="パス 11" d="M240.493,43.317A12.827,12.827,0,1,1,227.667,30.49a12.827,12.827,0,0,1,12.827,12.827Zm-2.524,0a10.312,10.312,0,1,0-20.618,0,10.315,10.315,0,1,0,20.625,0Z" transform="translate(-80.563 -12.15)" fill="#8d8d8d" stroke="#8d8d8d" stroke-miterlimit="10" stroke-width="1.7"/>
  </g>
</svg>
