<?xml version="1.0" encoding="utf-8"?>
<!-- Generator: Adobe Illustrator 28.1.0, SVG Export Plug-In . SVG Version: 6.00 Build 0)  -->
<svg version="1.1" id="レイヤー_1" xmlns="http://www.w3.org/2000/svg" xmlns:xlink="http://www.w3.org/1999/xlink" x="0px"
	 y="0px" viewBox="0 0 120 298.9" style="enable-background:new 0 0 120 298.9;" xml:space="preserve">
<style type="text/css">
	.st0{fill:#7F4F21;}
	.st1{fill:#2B2624;}
	.st2{enable-background:new    ;}
	.st3{fill:#FFFFFF;}
	.st4{fill:#009139;}
	.st5{fill:#07913A;}
</style>
<g id="グループ_1027" transform="translate(-743 -1537.549)">
	<rect id="長方形_654" x="802" y="1592.9" class="st0" width="1.7" height="225.7"/>
	<path id="長方形_652" class="st1" d="M755.5,1537.5h95c6.9,0,12.5,5.6,12.5,12.5l0,0c0,6.9-5.6,12.5-12.5,12.5h-95
		c-6.9,0-12.5-5.6-12.5-12.5l0,0C743,1543.1,748.6,1537.5,755.5,1537.5z"/>
	<g class="st2">
		<path class="st3" d="M765.9,1556.6c0-0.3,0-0.3,0.1-0.7h-5.3c0,0.3,0,0.4,0.1,0.7h-1.5c0.1-0.6,0.2-1.5,0.2-2.1v-2.1
			c-0.7,0.4-1.9,1-3,1.3l-0.8-1.3c1.7-0.4,3.1-0.9,5-2.3c-0.7-0.9-1.4-1.4-1.7-1.6c-0.8,0.5-1,0.7-1.6,0.9l-1-1.2
			c3-1.1,4.4-3.4,4.8-4.3l1.4,0.5c0.1,0,0.3,0.1,0.3,0.3c0,0.2-0.2,0.2-0.6,0.3c-0.3,0.4-0.4,0.6-0.6,0.8h1.3c0.7,0,1.5,0,2.5-0.2
			l0.7,0.8c-0.8,1.2-1.8,2.3-2.9,3.3c-0.5,0.5-1,0.8-1.3,1.1h3.2c0.7,0,1.6,0,2.3-0.1c0,0.8,0,1.4,0,1.7v2.2c0,0.9,0,1.5,0.1,2.1
			H765.9z M760.6,1546.7c-0.4,0.4-0.6,0.6-0.7,0.8c1.3,1.1,1.6,1.3,1.8,1.6c1.3-1.1,1.8-1.7,2.2-2.3H760.6z M765.9,1551.9h-5.3v2.7
			h5.3V1551.9z"/>
		<path class="st3" d="M778.7,1547.8h-1.3v2.5h0.6c1,0,2.2,0,3.2-0.1c0,0.4-0.1,0.9-0.1,2v1.9c0,0.6,0,1.1,0.1,2.2h-1.5
			c0-0.3,0-0.4,0-0.7h-5.9c0,0.1,0,0.5,0,0.8h-1.5c0.1-1,0.1-1.9,0.1-2v-2c0-0.7,0-1.6-0.1-2.2c1.3,0.1,2.5,0.1,2.9,0.1h0.8v-2.5
			h-1.3c-2,0-3,0-4.2,0.1v-1.4c1,0.1,2.1,0.1,4.2,0.1h1.3v-0.3c0-1.2,0-1.8-0.1-2.4l1.6,0.1c0.1,0,0.2,0,0.2,0.1
			c0,0.1-0.1,0.2-0.3,0.3c-0.1,1.1-0.1,1.2-0.1,1.8v0.4h1.3c1.7,0,2.7,0,4.2-0.1v1.4C782,1547.8,781.1,1547.8,778.7,1547.8z
			 M779.7,1551.5h-5.9v3h5.9V1551.5z"/>
		<path class="st3" d="M793.8,1556.1h-3.6c-0.9,0-2.6,0.1-3.4,0.1v-1.3c1.1,0.1,2.3,0.1,3.4,0.1h1.3v-1.1h-0.7c-0.8,0-1.7,0-2.5,0.1
			v-1.3c1,0.1,2.2,0.1,2.5,0.1h0.7v-1c-1.4,0.1-1.6,0.1-2.4,0.1c-0.3,0.4-0.3,0.4-0.4,0.4c-0.1,0-0.2-0.1-0.2-0.2l-0.3-1.4
			c0.4,0,0.8,0,1.2,0c0.5-0.6,0.8-1.1,1-1.6h-2.6c0,0.8,0,2.2-0.5,3.8c-0.1,0.2-0.6,1.7-1.6,3l-1.2-0.5c2.1-2.5,2.1-5,2.1-6.3v-3.1
			c0-0.8-0.1-1.6-0.1-2c1.1,0.1,2.2,0.1,3.3,0.1h3.4c0.2,0,2.2,0,3.7-0.1c0,0.2-0.1,0.6-0.1,1.3v1.1c0,0.4,0,0.7,0.1,1.1
			c-1.1-0.1-2.6-0.1-3.7-0.1h-5.3v0.7h5.3c1,0,3,0,4-0.1v1.2c-0.4,0-2.3,0-2.8-0.1c0.9,0.6,1.8,1.4,2.4,2.4l-1.1,0.9
			c-0.2-0.3-0.3-0.5-0.6-1c-0.4,0-1.6,0.2-2.3,0.2v1.1h0.5c1.1,0,1.8-0.1,2.5-0.1v1.3c-0.4,0-0.8-0.1-2.5-0.1h-0.5v1.1h1.1
			c0.4,0,2.4,0,3.6-0.1v1.3C796.3,1556.1,795,1556.1,793.8,1556.1z M795.5,1545.3h-7.6v1.1h7.6V1545.3z M793.1,1549.8l0.7-0.5h-0.6
			H792c-0.4,0.7-0.6,1-1.1,1.6c0.7,0,2.6-0.1,3.3-0.2C794.2,1550.6,793.8,1550.3,793.1,1549.8z"/>
		<path class="st3" d="M810.8,1547.1c-0.3,0-1.8,0-2.1,0h-2.5c0,0.7-0.1,1.2-0.1,1.7h2.5c1,0,1.7,0,2.3-0.1c0,0.2,0,0.4-0.2,2.2
			c0,0.2-0.4,3.5-1.4,4.8c-0.5,0.7-1.1,0.8-1.9,0.8c-0.1,0-0.6,0-1.1-0.1l-0.4-1.7c0.4,0.1,0.9,0.2,1.5,0.2c0.4,0,0.9,0,1.3-1.2
			c0.4-1.3,0.5-2.1,0.7-3.8h-3.5c-0.3,1.7-1.1,3.2-2.1,4.2c-0.9,1-1.9,1.6-2.9,2l-1.1-1.1c1-0.4,2.7-1.1,3.9-3
			c0.8-1.2,1.1-2.4,1.1-5h-0.9c-0.4,0-2.1,0-2.5,0c-0.6,0-0.9,0-1.4,0.1v-1.4c0.3,0,0.7,0.1,1.9,0.1c0.4,0,1.4,0,1.7,0
			c0.1,0,0.3,0,0.3,0h1.6c0-0.3,0-1.8,0-2.1l1.6,0.2c0.1,0,0.2,0.1,0.2,0.2c0,0.2-0.3,0.3-0.4,0.3c0,0.2,0,1.2,0,1.4h1.8
			c2,0,2.9,0,3.7-0.2v1.4C811.6,1547.2,811.3,1547.2,810.8,1547.1z"/>
		<path class="st3" d="M822.6,1545.4h-1.1c-0.2,0.7-0.2,0.9-0.6,1.9h1.6c0.4,0,1.9,0,2.2,0c1.1,0,1.5-0.1,1.9-0.1
			c0,0.6-0.1,2.5-0.1,3.2v2.9c0,0.2,0,0.9,0,1.4c0,0.8,0.1,1.6,0.1,1.8h-1.6c0.1-0.3,0.1-0.7,0.1-0.9h-9c0,0.4,0,0.4,0.1,0.9h-1.4
			c0.1-1,0.1-1.8,0.1-3.2v-2.5c0-0.9-0.1-2.9-0.1-3.6c1.2,0.1,3.2,0.1,4.5,0.1c0.3-0.6,0.5-1.3,0.7-1.9h-1.4c-1.6,0-2.8,0-4.2,0.2
			v-1.4c0.7,0.1,4,0.1,4.3,0.1h3.7c0.3,0,3,0,3.5-0.1c0.4,0,0.6,0,0.9-0.1v1.3C825.6,1545.5,822.7,1545.4,822.6,1545.4z
			 M818.1,1548.4h-1.8v6h1.8V1548.4z M822.3,1548.4h-3v1.3h3V1548.4z M822.3,1550.8h-3v1.3h3V1550.8z M822.3,1553.1h-3v1.3h3V1553.1
			z M825.3,1548.4h-1.8v6h1.8V1548.4z"/>
	</g>
	<g class="st2">
		<path class="st3" d="M836.9,1555.9c-1.5-1.2-2.5-1.5-3-1.6c0,0.5,0,1-0.3,1.3c-0.5,0.5-1.4,0.6-2,0.6c-0.9,0-2.5-0.4-2.5-1.6
			c0-1.1,1.3-1.6,2.7-1.6c0.4,0,0.8,0,1,0c-0.1-1-0.1-2.1-0.1-3.1c0-2,0-2.2-0.1-2.8l1.5,0.1c0.1,0,0.2,0,0.2,0.2
			c0,0.1,0,0.1-0.4,0.5c-0.1,0.5-0.1,1.1-0.1,1.6c0.6,0,2,0,3.2-0.4v1.1c-0.9,0.3-2.2,0.3-3.2,0.3c0,1.5,0,1.9,0.1,2.8
			c0.7,0.2,1.4,0.4,2,0.7c0.5,0.2,1.1,0.5,1.6,0.8L836.9,1555.9z M831.7,1553.9c-0.5,0-1,0.1-1.3,0.2c-0.1,0.1-0.3,0.2-0.3,0.5
			c0,0.6,1.1,0.7,1.4,0.7c1.5,0,1.4-0.8,1.4-1.3C832.6,1554,832.2,1553.9,831.7,1553.9z"/>
		<path class="st3" d="M840.6,1553.6l-0.8,0.2c-0.4-1-0.6-2.1-0.6-3.2c0-1,0.2-2.2,0.4-3.4l1.2,0.2c0.1,0,0.2,0.1,0.2,0.2
			c0,0.1-0.1,0.2-0.4,0.3c-0.4,0.9-0.5,1.9-0.5,2.9c0,0.4,0,1,0.1,1c0,0,0.1,0,0.1-0.2c0.1-0.2,0.8-1.6,0.8-1.8l0.5,0.7
			C841.3,1551.5,840.8,1552.6,840.6,1553.6z M845.4,1547.7c0,0.3,0,1,0,1.9c0,2.5-0.3,5-2.2,6.6l-1.2-0.7c0.3-0.2,1-0.5,1.6-1.6
			c0.6-1.3,0.8-2.8,0.8-3.8c0-1-0.1-2-0.2-3l1.3,0.1c0.1,0,0.3,0,0.3,0.2C845.7,1547.6,845.5,1547.7,845.4,1547.7z"/>
	</g>
	<rect id="長方形_652-2" x="743" y="1583.1" class="st0" width="120" height="19.6"/>
	<g class="st2">
		<path class="st3" d="M776.2,1598.2c-0.6-0.2-1.9-0.7-3.2-2c-0.6-0.6-0.9-1-0.9-1.1c0,2.1,0,2.3,0.1,3.2h-1.3
			c0-0.5,0.1-2.7,0.1-3.3c-0.6,0.8-1.4,1.5-2.1,2c-0.9,0.7-1.4,0.9-1.8,1l-0.7-0.9c0.6-0.2,1.3-0.4,2.3-1.3c0.3-0.3,0.9-0.8,1.3-1.3
			c-1.4,0-1.5,0-2.3,0c0-0.4,0-1.2,0-1.7v-1.4c0-0.4,0-1,0-1.4c0.4,0,2,0,2.3,0h1v-0.2v-0.6h-1.2c-1.2,0-2.3,0-3.5,0.1v-1.2
			c1.2,0.1,3,0.1,3.5,0.1h1.2c0-0.4,0-0.5,0-1.1l1.3,0.1c0.2,0,0.3,0.1,0.3,0.2c0,0.1-0.1,0.2-0.4,0.3c0,0.1,0,0.5,0,0.6h1.2
			c1.2,0,2.4,0,3.5-0.1v1.2c-1.5-0.1-3.4-0.1-3.5-0.1H772c0,0.1,0,0.6,0,0.8h0.9c0.7,0,1.7,0,2.4,0c0,0.5,0,1,0,1.5v1.4
			c0,0.4,0,1,0,1.6c-0.9,0-1.7,0-2.2,0h-0.2c0.3,0.5,1.2,1.7,3.9,2.6L776.2,1598.2z M771,1591.2h-2.2v0.9h2.2V1591.2z M771,1592.9
			h-2.2v1h2.2V1592.9z M774.2,1591.2H772v0.9h2.2V1591.2z M774.2,1592.9H772v1h2.2V1592.9z"/>
		<path class="st3" d="M787.4,1598.4c0-0.2,0-0.3,0-0.6h-4.6c0,0.2,0,0.3,0,0.6h-1.3c0.1-0.5,0.1-1.3,0.1-1.8v-1.8
			c-0.6,0.3-1.6,0.9-2.5,1.1l-0.7-1.1c1.5-0.3,2.6-0.8,4.3-2c-0.6-0.8-1.2-1.2-1.5-1.4c-0.7,0.5-0.9,0.6-1.3,0.8l-0.8-1
			c2.6-0.9,3.8-2.9,4.1-3.7l1.2,0.4c0.1,0,0.2,0.1,0.2,0.2c0,0.2-0.2,0.2-0.5,0.2c-0.2,0.3-0.4,0.5-0.5,0.7h1.1c0.6,0,1.3,0,2.1-0.1
			l0.6,0.6c-0.7,1.1-1.5,2-2.4,2.9c-0.4,0.4-0.8,0.7-1.1,0.9h2.7c0.6,0,1.4,0,2-0.1c0,0.6,0,1.2,0,1.4v1.9c0,0.8,0,1.3,0.1,1.8
			H787.4z M782.9,1590c-0.4,0.4-0.5,0.5-0.6,0.6c1.1,0.9,1.3,1.1,1.5,1.3c1.1-0.9,1.5-1.5,1.9-2H782.9z M787.5,1594.4h-4.6v2.3h4.6
			V1594.4z"/>
		<path class="st3" d="M798.4,1598.2c0-0.2,0-0.5,0.1-0.9h-5.1c0.1,0.8,0.1,0.9,0.1,0.9h-1.3c0-0.3,0.1-0.5,0.1-0.9c0-0.4,0-2,0-2.3
			v-3.1c0-2.2,0-2.2-0.1-3.3c1.3,0.1,1.4,0.1,2.7,0.1c0.1-0.3,0.3-0.7,0.3-1.5l1.4,0.2c0.1,0,0.3,0,0.3,0.2c0,0.1,0,0.1-0.1,0.2
			c0,0-0.2,0.1-0.3,0.1c-0.2,0.4-0.2,0.5-0.3,0.7h0.9c0.9,0,1.9,0,2.8-0.1c0,0.4-0.1,0.6-0.1,1.7c0,0.3,0,0.8,0,1.1
			c0,0.1,0,0.2,0,0.3v3.3c0,0.5,0,1.1,0,1.5c0,1,0.1,1.2,0.1,1.6H798.4z M798.5,1589.9h-5.1v1.4h5.1V1589.9z M798.5,1592.3h-5.1v1.4
			h5.1V1592.3z M798.5,1594.8h-5.1v1.5h5.1V1594.8z"/>
		<path class="st3" d="M812.3,1597.4c-0.2,0.5-0.5,0.9-1.9,0.8l-0.5-1.3c0.3,0.1,0.6,0.1,0.9,0.1c0.4,0,0.6,0,0.8-1.1
			c0.2-0.8,0.4-3.2,0.3-4.7h-0.9c0,0.9-0.1,2.6-0.8,4.3c-0.4,1-1.1,2.2-2,2.8l-1.2-0.6c0.3-0.2,0.6-0.3,0.9-0.7
			c-2.2,0.3-3,0.4-5.2,0.7c-0.1,0.2-0.2,0.3-0.3,0.3c-0.1,0-0.2-0.1-0.2-0.2l-0.1-1.2c0.7,0,1.2,0,2.8-0.1v-0.8h-0.5
			c-0.4,0-1.3,0-2,0.1v-0.9c0.7,0,1.6,0.1,2,0.1h0.5v-0.6h-0.2c-0.4,0-1.4,0-1.8,0.1c0-0.3,0-1,0-1.4v-0.9c0-0.2,0-1,0-1.2
			c0.3,0,1.2,0,1.5,0h0.5v-0.5h-0.6c-0.2,0-1.1,0-2.1,0.1v-0.9c0.7,0,1.6,0.1,2.1,0.1h0.6v-0.6c-0.5,0-0.8,0-1.1,0
			c-0.3,0-0.6,0-0.8,0l-0.5-0.9c0.3,0.1,0.7,0.1,1.4,0.1c0.6,0,2.3,0,3.7-0.7l0.6,0.8c0,0,0,0.1,0,0.2c0,0.1,0,0.2-0.2,0.2
			c-0.1,0-0.3-0.1-0.4-0.1c-0.2,0.1-1,0.3-1.8,0.4v0.7h0.4c0.4,0,1.4,0,2.1-0.1v0.9c-0.6,0-1.7-0.1-2.1-0.1h-0.4v0.5h0.4
			c0.5,0,1.4,0,1.8,0c0,0.2,0,0.9,0,1v1.2c0,0.2,0,0.9,0,1.3c-0.5,0-1.1-0.1-1.8-0.1h-0.3v0.6h0.2c0.4,0,1.3,0,2-0.1v0.9
			c-0.6,0-1.6-0.1-2-0.1h-0.2v0.7c0.8-0.1,1.6-0.2,2.3-0.3l-0.1,0.7c1.6-1.7,1.8-4.6,1.8-5.6c-0.7,0-1.1,0-1.4,0v-1
			c0.3,0,0.9,0,1.4,0c0-1.4,0-1.9-0.1-2.6l1.3,0.1c0.1,0,0.2,0,0.2,0.2c0,0.1-0.2,0.2-0.3,0.3v0.4c0,0.3,0,1.4,0,1.6h0.2
			c0.3,0,1,0,1.6-0.1C813,1592.3,813,1595.9,812.3,1597.4z M805.1,1591.6h-1v0.6h1V1591.6z M805.1,1592.9h-1v0.6h1V1592.9z
			 M807.2,1591.6h-1.2v0.6h1.2V1591.6z M807.2,1592.9h-1.2v0.6h1.2V1592.9z"/>
		<path class="st3" d="M822.1,1596.3h-1.2c0,0.7,0.1,1.3,0.1,2.1h-1.4c0.1-0.4,0.1-0.6,0.1-2.1h-1.2c-1.7,0-2.6,0-3.7,0.1v-1.1
			c1.5,0.1,3.5,0.1,3.7,0.1h1.2c0-0.4,0-0.4,0-0.8h-1c-0.4,0-1.8,0-2.3,0.1c0-0.3,0.1-1,0.1-1.6v-1.2c0-0.5,0-1.3-0.1-1.5
			c0.5,0.1,2.1,0.1,2.2,0.1h1.1c0-0.3,0-0.5,0-0.8h-1.1c0,0-1.9,0-3.3,0.1v-1.2c1.1,0.1,2.7,0.1,3.3,0.1h1c0-0.7,0-0.8-0.1-1.3
			l1.4,0c0.2,0,0.3,0,0.3,0.1c0,0.1,0,0.1-0.4,0.4c0,0.1,0,0.5,0,0.7h1.1c0.3,0,2.1,0,3.3-0.1v1.2c-1.4-0.1-3.2-0.1-3.3-0.1h-1.1
			v0.8h0.7c0.8,0,2.1,0,2.6-0.1c-0.1,0.4-0.1,1.2-0.1,1.6v1.1c0,0.3,0,1.4,0.1,1.7c-0.5,0-2.3-0.1-2.5-0.1h-0.8c0,0.3,0,0.7,0,0.8
			h1.3c1.2,0,2.4,0,3.7-0.1v1.1C824.7,1596.4,823.7,1596.3,822.1,1596.3z M819.8,1591.3h-2.2v0.8h2.2V1591.3z M819.8,1593h-2.2v0.8
			h2.2V1593z M823.1,1591.3h-2.3v0.8h2.3V1591.3z M823.1,1593h-2.3v0.8h2.3V1593z"/>
		<path class="st3" d="M828.9,1591c-0.3-0.8-0.8-1.9-1.6-2.6l0.9-0.6c0.3,0.4,1.2,1.4,1.6,2.6L828.9,1591z M838.1,1598.1
			c0,0-0.1,0-0.1,0c-0.7,0-6.6,0-6.8,0c-0.8-0.1-1.3-0.2-1.9-1.1c-0.2,0.3-0.6,0.6-1,0.8c0,0.3,0,0.4-0.2,0.4
			c-0.1,0-0.2-0.1-0.2-0.1l-0.5-1.2c0.8-0.4,1-0.5,1.5-0.8v-2.7h-0.6c0,0-0.4,0-0.8,0.1v-1.2c0.3,0,0.5,0.1,0.9,0.1h0.7
			c0.4,0,0.7,0,0.9-0.1c0,0.5-0.1,1-0.1,1.4v1.9v0.2c0,0.6,0.3,0.9,0.5,1.1c0.5,0.4,0.9,0.4,3.3,0.4c1,0,3.7,0,4.9-0.3L838.1,1598.1
			z M835.3,1590h-0.3l-0.3,0.8c0.9,0,2,0,2.7,0c0,0.4,0,1.1,0,1.9v2.8c0,0.4,0,0.7,0,1.4h-1.2c0-0.2,0-0.3,0-0.4h-3.7
			c0,0.1,0,0.2,0,0.4h-1.2c0-0.3,0-0.8,0-1.4v-2.7c0-0.7,0-1.3,0-2c0.6,0,1.5,0,2.1,0l0.3-0.8h-0.8c-0.6,0-2.2,0-2.8,0.1v-1.1
			c0.8,0.1,1.7,0.1,2.5,0.1c-0.2-0.3-0.7-0.9-1.2-1.3l1.1-0.6c0.3,0.2,0.8,0.7,1.2,1.5l-0.6,0.4h2.1h0.5l-0.6-0.3
			c0.3-0.4,0.6-0.8,0.9-1.5l1.1,0.5c0.2,0.1,0.2,0.1,0.2,0.2c0,0.2-0.3,0.2-0.4,0.2c-0.3,0.4-0.4,0.6-0.7,0.9c1.2,0,1.8-0.1,2.3-0.1
			v1.1C837.4,1590,836.6,1590,835.3,1590z M836.1,1591.6h-3.8v0.8h3.8V1591.6z M836.1,1593.2h-3.8v0.8h3.8V1593.2z M836.1,1594.8
			h-3.8v0.8h3.8V1594.8z"/>
	</g>
	<rect id="長方形_652-3" x="743" y="1651.3" class="st0" width="120" height="20"/>
	<g class="st2">
		<path class="st3" d="M775,1663.4c0-0.3,0-0.4,0-0.6h-2.9c0,0.3,0,1.5,0,1.7c0,1.3,0,1.6,0.1,2.1h-1.4c0.1-1.3,0.2-2.5,0.1-3.8H768
			c0,0.2,0,0.4,0,0.6h-1.3c0-0.5,0.1-1.4,0.1-1.9v-1.8c0-0.2,0-1,0-1.5c0.6,0,2,0.1,2.6,0.1h1.6c0-1.7,0-1.9,0-2.5l1.4,0.1
			c0.1,0,0.3,0,0.3,0.2c0,0.1-0.2,0.2-0.4,0.4c0,0.3,0,1.4,0,1.7v0.2h1.2c1,0,2,0,3-0.1c0,0.6,0,1.1,0,1.7v1.7c0,0.9,0,1.4,0,2H775z
			 M770.9,1659.2H768v2.6h2.9V1659.2z M775,1659.2h-2.9v2.6h2.9V1659.2z"/>
		<path class="st3" d="M786.9,1662h-2c0.4,1.2,1.9,3,4.6,3.5l-0.9,1.1c-0.5-0.2-1.8-0.6-3.1-1.7c-0.9-0.8-1.2-1.4-1.4-1.8
			c-0.8,1.7-2.5,3-4.4,3.5l-0.8-1.1c0.6-0.1,1.8-0.3,3-1.3c0.3-0.2,1-1,1.4-2.2h-1.6c-0.9,0-2.1,0-3,0.1v-1.2c0.2,0,0.8,0,1.5,0
			v-1.8c0-0.6,0-1.3-0.1-1.6c0.7,0,1.5,0.1,2.2,0.1h1.2c0-1,0-1.5-0.1-1.9l1.4,0.1c0.1,0,0.3,0,0.3,0.2c0,0.1,0,0.2-0.4,0.3
			c0,0.3,0,0.6,0,1.2h1.5c0.4,0,1.5,0,1.9,0c0,0.5,0,1.3,0,1.8v1.6c0.2,0,1.3,0,1.4,0v1.2C789,1662,788.2,1662,786.9,1662z
			 M781.4,1658.6v2.3h2c0.1-0.6,0.1-0.9,0.1-2.3H781.4z M787,1658.6h-2.2c0,0.2,0,1.3,0,1.6c0,0.2,0,0.4,0,0.7h2.3V1658.6z"/>
		<path class="st3" d="M798.4,1666.5c0-0.2,0-0.5,0.1-0.9h-5.1c0.1,0.8,0.1,0.9,0.1,0.9h-1.3c0-0.3,0.1-0.5,0.1-0.9c0-0.4,0-2,0-2.3
			v-3.1c0-2.2,0-2.2-0.1-3.3c1.3,0.1,1.4,0.1,2.7,0.1c0.1-0.3,0.3-0.7,0.3-1.5l1.4,0.2c0.1,0,0.3,0,0.3,0.2c0,0.1,0,0.1-0.1,0.2
			c0,0-0.2,0.1-0.3,0.1c-0.2,0.4-0.2,0.5-0.3,0.7h0.9c0.9,0,1.9,0,2.8-0.1c0,0.4-0.1,0.6-0.1,1.7c0,0.3,0,0.8,0,1.1
			c0,0.1,0,0.2,0,0.3v3.3c0,0.5,0,1.1,0,1.5c0,1,0.1,1.2,0.1,1.6H798.4z M798.5,1658.1h-5.1v1.4h5.1V1658.1z M798.5,1660.6h-5.1v1.4
			h5.1V1660.6z M798.5,1663.1h-5.1v1.5h5.1V1663.1z"/>
		<path class="st3" d="M812.3,1665.6c-0.2,0.5-0.5,0.9-1.9,0.8l-0.5-1.3c0.3,0.1,0.6,0.1,0.9,0.1c0.4,0,0.6,0,0.8-1.1
			c0.2-0.8,0.4-3.2,0.3-4.7h-0.9c0,0.9-0.1,2.6-0.8,4.3c-0.4,1-1.1,2.2-2,2.8l-1.2-0.6c0.3-0.2,0.6-0.3,0.9-0.7
			c-2.2,0.3-3,0.4-5.2,0.7c-0.1,0.2-0.2,0.3-0.3,0.3c-0.1,0-0.2-0.1-0.2-0.2l-0.1-1.2c0.7,0,1.2,0,2.8-0.1v-0.8h-0.5
			c-0.4,0-1.3,0-2,0.1v-0.9c0.7,0,1.6,0.1,2,0.1h0.5v-0.6h-0.2c-0.4,0-1.4,0-1.8,0.1c0-0.3,0-1,0-1.4v-0.9c0-0.2,0-1,0-1.2
			c0.3,0,1.2,0,1.5,0h0.5v-0.5h-0.6c-0.2,0-1.1,0-2.1,0.1v-0.9c0.7,0,1.6,0.1,2.1,0.1h0.6v-0.6c-0.5,0-0.8,0-1.1,0
			c-0.3,0-0.6,0-0.8,0l-0.5-0.9c0.3,0.1,0.7,0.1,1.4,0.1c0.6,0,2.3,0,3.7-0.7l0.6,0.8c0,0,0,0.1,0,0.2c0,0.1,0,0.2-0.2,0.2
			c-0.1,0-0.3-0.1-0.4-0.1c-0.2,0.1-1,0.3-1.8,0.4v0.7h0.4c0.4,0,1.4,0,2.1-0.1v0.9c-0.6,0-1.7-0.1-2.1-0.1h-0.4v0.5h0.4
			c0.5,0,1.4,0,1.8,0c0,0.2,0,0.9,0,1v1.2c0,0.2,0,0.9,0,1.3c-0.5,0-1.1-0.1-1.8-0.1h-0.3v0.6h0.2c0.4,0,1.3,0,2-0.1v0.9
			c-0.6,0-1.6-0.1-2-0.1h-0.2v0.7c0.8-0.1,1.6-0.2,2.3-0.3l-0.1,0.7c1.6-1.7,1.8-4.6,1.8-5.6c-0.7,0-1.1,0-1.4,0v-1
			c0.3,0,0.9,0,1.4,0c0-1.4,0-1.9-0.1-2.6l1.3,0.1c0.1,0,0.2,0,0.2,0.2c0,0.1-0.2,0.2-0.3,0.3v0.4c0,0.3,0,1.4,0,1.6h0.2
			c0.3,0,1,0,1.6-0.1C813,1660.5,813,1664.1,812.3,1665.6z M805.1,1659.9h-1v0.6h1V1659.9z M805.1,1661.2h-1v0.6h1V1661.2z
			 M807.2,1659.9h-1.2v0.6h1.2V1659.9z M807.2,1661.2h-1.2v0.6h1.2V1661.2z"/>
		<path class="st3" d="M822.1,1664.6h-1.2c0,0.7,0.1,1.3,0.1,2.1h-1.4c0.1-0.4,0.1-0.6,0.1-2.1h-1.2c-1.7,0-2.6,0-3.7,0.1v-1.1
			c1.5,0.1,3.5,0.1,3.7,0.1h1.2c0-0.4,0-0.4,0-0.8h-1c-0.4,0-1.8,0-2.3,0.1c0-0.3,0.1-1,0.1-1.6v-1.2c0-0.5,0-1.3-0.1-1.5
			c0.5,0.1,2.1,0.1,2.2,0.1h1.1c0-0.3,0-0.5,0-0.8h-1.1c0,0-1.9,0-3.3,0.1v-1.2c1.1,0.1,2.7,0.1,3.3,0.1h1c0-0.7,0-0.8-0.1-1.3
			l1.4,0c0.2,0,0.3,0,0.3,0.1c0,0.1,0,0.1-0.4,0.4c0,0.1,0,0.5,0,0.7h1.1c0.3,0,2.1,0,3.3-0.1v1.2c-1.4-0.1-3.2-0.1-3.3-0.1h-1.1
			v0.8h0.7c0.8,0,2.1,0,2.6-0.1c-0.1,0.4-0.1,1.2-0.1,1.6v1.1c0,0.3,0,1.4,0.1,1.7c-0.5,0-2.3-0.1-2.5-0.1h-0.8c0,0.3,0,0.7,0,0.8
			h1.3c1.2,0,2.4,0,3.7-0.1v1.1C824.7,1664.6,823.7,1664.6,822.1,1664.6z M819.8,1659.6h-2.2v0.8h2.2V1659.6z M819.8,1661.2h-2.2
			v0.8h2.2V1661.2z M823.1,1659.6h-2.3v0.8h2.3V1659.6z M823.1,1661.2h-2.3v0.8h2.3V1661.2z"/>
		<path class="st3" d="M828.9,1659.2c-0.3-0.8-0.8-1.9-1.6-2.6l0.9-0.6c0.3,0.4,1.2,1.4,1.6,2.6L828.9,1659.2z M838.1,1666.3
			c0,0-0.1,0-0.1,0c-0.7,0-6.6,0-6.8,0c-0.8-0.1-1.3-0.2-1.9-1.1c-0.2,0.3-0.6,0.6-1,0.8c0,0.3,0,0.4-0.2,0.4
			c-0.1,0-0.2-0.1-0.2-0.1l-0.5-1.2c0.8-0.4,1-0.5,1.5-0.8v-2.7h-0.6c0,0-0.4,0-0.8,0.1v-1.2c0.3,0,0.5,0.1,0.9,0.1h0.7
			c0.4,0,0.7,0,0.9-0.1c0,0.5-0.1,1-0.1,1.4v1.9v0.2c0,0.6,0.3,0.9,0.5,1.1c0.5,0.4,0.9,0.4,3.3,0.4c1,0,3.7,0,4.9-0.3L838.1,1666.3
			z M835.3,1658.2h-0.3l-0.3,0.8c0.9,0,2,0,2.7,0c0,0.4,0,1.1,0,1.9v2.8c0,0.4,0,0.7,0,1.4h-1.2c0-0.2,0-0.3,0-0.4h-3.7
			c0,0.1,0,0.2,0,0.4h-1.2c0-0.3,0-0.8,0-1.4v-2.7c0-0.7,0-1.3,0-2c0.6,0,1.5,0,2.1,0l0.3-0.8h-0.8c-0.6,0-2.2,0-2.8,0.1v-1.1
			c0.8,0.1,1.7,0.1,2.5,0.1c-0.2-0.3-0.7-0.9-1.2-1.3l1.1-0.6c0.3,0.2,0.8,0.7,1.2,1.5l-0.6,0.4h2.1h0.5l-0.6-0.3
			c0.3-0.4,0.6-0.8,0.9-1.5l1.1,0.5c0.2,0.1,0.2,0.1,0.2,0.2c0,0.2-0.3,0.2-0.4,0.2c-0.3,0.4-0.4,0.6-0.7,0.9c1.2,0,1.8-0.1,2.3-0.1
			v1.1C837.4,1658.3,836.6,1658.2,835.3,1658.2z M836.1,1659.9h-3.8v0.8h3.8V1659.9z M836.1,1661.4h-3.8v0.8h3.8V1661.4z
			 M836.1,1663h-3.8v0.8h3.8V1663z"/>
	</g>
	<rect id="長方形_652-4" x="743" y="1726.4" class="st0" width="120" height="20"/>
	<g class="st2">
		<path class="st3" d="M776.1,1741.6c-1.1-0.2-2.6-0.8-3.4-1.4c-1-0.7-2-2.1-2.3-3h-1v2.7c0.6-0.1,1.9-0.4,2.4-0.6l-0.1,1.1
			c-0.6,0.2-3.3,0.9-4.4,1.1c0,0.1-0.1,0.4-0.3,0.4c-0.1,0-0.2-0.2-0.2-0.2l-0.2-1.2c0.4,0,1.3-0.2,1.8-0.3v-2.9
			c-1.4,0-1.4,0-2.2,0.1v-1.1c0.4,0,0.8,0.1,2,0.1c0.1,0,0.6,0,0.7,0v-3.4c0-1.1,0-1.6-0.1-1.9c0.6,0.1,1.3,0.1,2.4,0.1h2.1
			c0.5,0,1.5,0,2.3-0.1v1.1c-0.6-0.1-1.6-0.1-2-0.1h-3.5v0.8h2.4c0.5,0,0.9,0,2.6,0v1c-1.2,0-1.7-0.1-2.6-0.1h-2.4v0.8h2.5
			c0.5,0,0.9,0,2.6-0.1v1.1c-0.9,0-1.7-0.1-2.6-0.1h-2.5v0.8h3.5c1.2,0,2.4,0,3.6-0.1v1.1c-1.6-0.1-3.5-0.1-3.6-0.1h-1.7
			c0.5,0.8,0.9,1.3,1.5,1.8c0.3-0.3,0.9-0.9,1.3-1.7l1.1,0.7c0.1,0.1,0.1,0.1,0.1,0.2c0,0.2-0.3,0.2-0.5,0.1
			c-0.3,0.4-0.7,0.8-1.1,1.2c1.3,0.7,2.5,0.8,3,0.9L776.1,1741.6z"/>
		<path class="st3" d="M784,1740.2c-1.2,0.3-2.5,0.4-4.7,0.7c-0.1,0.1-0.2,0.3-0.3,0.3c-0.1,0-0.1-0.1-0.2-0.2l-0.2-1.2
			c0.9,0,1.2,0,2.5-0.1v-1.3h-0.4c-0.4,0-1.1,0-1.8,0.1v-1.2c0.7,0.1,1.4,0.1,1.8,0.1h0.4v-1.1h-0.3c-0.5,0-0.8,0-1.8,0.1
			c0-0.8,0-1,0-1.8v-1.7c0-0.7,0-0.9,0-1.8c0.7,0.1,1.1,0.1,1.8,0.1h1.6c0.5,0,0.8,0,1.8-0.1c0,0.8,0,1.1,0,1.8v1.7
			c0,0.7,0,0.9,0,1.8c-0.7,0-1.1-0.1-1.8-0.1h-0.3v1.1c0.2,0,1,0,1.8-0.1v1.2c-0.6-0.1-1.2-0.1-1.8-0.1v1.2c0.4,0,1.3-0.2,2.1-0.3
			L784,1740.2z M781.1,1732.1h-1v1.2h1V1732.1z M781.1,1734.2h-1v1.2h1V1734.2z M783.1,1732.1h-1v1.2h1V1732.1z M783.1,1734.2h-1
			v1.2h1V1734.2z M788.7,1736.8c-0.3,0.4-0.6,1-0.8,1.2l-0.8-0.6c0.1-0.2,0.6-0.9,1-1.5h-1v4.8c0,0.9-0.6,0.9-1.4,0.9
			c-0.2,0-0.3,0-0.5,0l-0.5-1.2c0.1,0,0.9,0.2,1.1,0.2c0.3,0,0.3-0.1,0.3-0.5v-4.2c-0.6,0-1.1,0-1.7,0.1v-1c0.4,0,1,0,1.8,0h0.7
			c-0.5-0.7-1-1.3-1.7-1.7l0.8-0.7c0.2,0.1,0.5,0.3,0.9,0.6c0.8-0.8,0.9-0.9,1.1-1.2h-1.3c-0.6,0-1.5,0-2.1,0.1v-1.1
			c0.4,0,0.8,0,1.5,0h1.6c0.7,0,1.2,0,1.4,0l0.6,0.7c-0.3,0.2-0.3,0.3-1,1c-0.1,0.1-0.7,0.7-1.1,1.1c0.3,0.3,0.4,0.5,0.5,0.6
			l-0.4,0.4c0.4,0,1.3-0.1,1.7-0.1l0.5,0.6C789.4,1735.8,789.3,1735.9,788.7,1736.8z"/>
		<path class="st3" d="M798.4,1741.5c0-0.2,0-0.5,0.1-0.9h-5.1c0.1,0.8,0.1,0.9,0.1,0.9h-1.3c0-0.3,0.1-0.5,0.1-0.9c0-0.4,0-2,0-2.3
			v-3.1c0-2.2,0-2.2-0.1-3.3c1.3,0.1,1.4,0.1,2.7,0.1c0.1-0.3,0.3-0.7,0.3-1.5l1.4,0.2c0.1,0,0.3,0,0.3,0.2c0,0.1,0,0.1-0.1,0.2
			c0,0-0.2,0.1-0.3,0.1c-0.2,0.4-0.2,0.5-0.3,0.7h0.9c0.9,0,1.9,0,2.8-0.1c0,0.4-0.1,0.6-0.1,1.7c0,0.3,0,0.8,0,1.1
			c0,0.1,0,0.2,0,0.3v3.3c0,0.5,0,1.1,0,1.5c0,1,0.1,1.2,0.1,1.6H798.4z M798.5,1733.2h-5.1v1.4h5.1V1733.2z M798.5,1735.6h-5.1v1.4
			h5.1V1735.6z M798.5,1738.1h-5.1v1.5h5.1V1738.1z"/>
		<path class="st3" d="M812.3,1740.7c-0.2,0.5-0.5,0.9-1.9,0.8l-0.5-1.3c0.3,0.1,0.6,0.1,0.9,0.1c0.4,0,0.6,0,0.8-1.1
			c0.2-0.8,0.4-3.2,0.3-4.7h-0.9c0,0.9-0.1,2.6-0.8,4.3c-0.4,1-1.1,2.2-2,2.8l-1.2-0.6c0.3-0.2,0.6-0.3,0.9-0.7
			c-2.2,0.3-3,0.4-5.2,0.7c-0.1,0.2-0.2,0.3-0.3,0.3c-0.1,0-0.2-0.1-0.2-0.2l-0.1-1.2c0.7,0,1.2,0,2.8-0.1v-0.8h-0.5
			c-0.4,0-1.3,0-2,0.1v-0.9c0.7,0,1.6,0.1,2,0.1h0.5v-0.6h-0.2c-0.4,0-1.4,0-1.8,0.1c0-0.3,0-1,0-1.4v-0.9c0-0.2,0-1,0-1.2
			c0.3,0,1.2,0,1.5,0h0.5v-0.5h-0.6c-0.2,0-1.1,0-2.1,0.1v-0.9c0.7,0,1.6,0.1,2.1,0.1h0.6v-0.6c-0.5,0-0.8,0-1.1,0
			c-0.3,0-0.6,0-0.8,0l-0.5-0.9c0.3,0.1,0.7,0.1,1.4,0.1c0.6,0,2.3,0,3.7-0.7l0.6,0.8c0,0,0,0.1,0,0.2c0,0.1,0,0.2-0.2,0.2
			c-0.1,0-0.3-0.1-0.4-0.1c-0.2,0.1-1,0.3-1.8,0.4v0.7h0.4c0.4,0,1.4,0,2.1-0.1v0.9c-0.6,0-1.7-0.1-2.1-0.1h-0.4v0.5h0.4
			c0.5,0,1.4,0,1.8,0c0,0.2,0,0.9,0,1v1.2c0,0.2,0,0.9,0,1.3c-0.5,0-1.1-0.1-1.8-0.1h-0.3v0.6h0.2c0.4,0,1.3,0,2-0.1v0.9
			c-0.6,0-1.6-0.1-2-0.1h-0.2v0.7c0.8-0.1,1.6-0.2,2.3-0.3l-0.1,0.7c1.6-1.7,1.8-4.6,1.8-5.6c-0.7,0-1.1,0-1.4,0v-1
			c0.3,0,0.9,0,1.4,0c0-1.4,0-1.9-0.1-2.6l1.3,0.1c0.1,0,0.2,0,0.2,0.2c0,0.1-0.2,0.2-0.3,0.3v0.4c0,0.3,0,1.4,0,1.6h0.2
			c0.3,0,1,0,1.6-0.1C813,1735.6,813,1739.2,812.3,1740.7z M805.1,1734.9h-1v0.6h1V1734.9z M805.1,1736.2h-1v0.6h1V1736.2z
			 M807.2,1734.9h-1.2v0.6h1.2V1734.9z M807.2,1736.2h-1.2v0.6h1.2V1736.2z"/>
		<path class="st3" d="M822.1,1739.6h-1.2c0,0.7,0.1,1.3,0.1,2.1h-1.4c0.1-0.4,0.1-0.6,0.1-2.1h-1.2c-1.7,0-2.6,0-3.7,0.1v-1.1
			c1.5,0.1,3.5,0.1,3.7,0.1h1.2c0-0.4,0-0.4,0-0.8h-1c-0.4,0-1.8,0-2.3,0.1c0-0.3,0.1-1,0.1-1.6v-1.2c0-0.5,0-1.3-0.1-1.5
			c0.5,0.1,2.1,0.1,2.2,0.1h1.1c0-0.3,0-0.5,0-0.8h-1.1c0,0-1.9,0-3.3,0.1v-1.2c1.1,0.1,2.7,0.1,3.3,0.1h1c0-0.7,0-0.8-0.1-1.3
			l1.4,0c0.2,0,0.3,0,0.3,0.1c0,0.1,0,0.1-0.4,0.4c0,0.1,0,0.5,0,0.7h1.1c0.3,0,2.1,0,3.3-0.1v1.2c-1.4-0.1-3.2-0.1-3.3-0.1h-1.1
			v0.8h0.7c0.8,0,2.1,0,2.6-0.1c-0.1,0.4-0.1,1.2-0.1,1.6v1.1c0,0.3,0,1.4,0.1,1.7c-0.5,0-2.3-0.1-2.5-0.1h-0.8c0,0.3,0,0.7,0,0.8
			h1.3c1.2,0,2.4,0,3.7-0.1v1.1C824.7,1739.7,823.7,1739.6,822.1,1739.6z M819.8,1734.6h-2.2v0.8h2.2V1734.6z M819.8,1736.3h-2.2
			v0.8h2.2V1736.3z M823.1,1734.6h-2.3v0.8h2.3V1734.6z M823.1,1736.3h-2.3v0.8h2.3V1736.3z"/>
		<path class="st3" d="M828.9,1734.3c-0.3-0.8-0.8-1.9-1.6-2.6l0.9-0.6c0.3,0.4,1.2,1.4,1.6,2.6L828.9,1734.3z M838.1,1741.4
			c0,0-0.1,0-0.1,0c-0.7,0-6.6,0-6.8,0c-0.8-0.1-1.3-0.2-1.9-1.1c-0.2,0.3-0.6,0.6-1,0.8c0,0.3,0,0.4-0.2,0.4
			c-0.1,0-0.2-0.1-0.2-0.1l-0.5-1.2c0.8-0.4,1-0.5,1.5-0.8v-2.7h-0.6c0,0-0.4,0-0.8,0.1v-1.2c0.3,0,0.5,0.1,0.9,0.1h0.7
			c0.4,0,0.7,0,0.9-0.1c0,0.5-0.1,1-0.1,1.4v1.9v0.2c0,0.6,0.3,0.9,0.5,1.1c0.5,0.4,0.9,0.4,3.3,0.4c1,0,3.7,0,4.9-0.3L838.1,1741.4
			z M835.3,1733.3h-0.3l-0.3,0.8c0.9,0,2,0,2.7,0c0,0.4,0,1.1,0,1.9v2.8c0,0.4,0,0.7,0,1.4h-1.2c0-0.2,0-0.3,0-0.4h-3.7
			c0,0.1,0,0.2,0,0.4h-1.2c0-0.3,0-0.8,0-1.4v-2.7c0-0.7,0-1.3,0-2c0.6,0,1.5,0,2.1,0l0.3-0.8h-0.8c-0.6,0-2.2,0-2.8,0.1v-1.1
			c0.8,0.1,1.7,0.1,2.5,0.1c-0.2-0.3-0.7-0.9-1.2-1.3l1.1-0.6c0.3,0.2,0.8,0.7,1.2,1.5l-0.6,0.4h2.1h0.5l-0.6-0.3
			c0.3-0.4,0.6-0.8,0.9-1.5l1.1,0.5c0.2,0.1,0.2,0.1,0.2,0.2c0,0.2-0.3,0.2-0.4,0.2c-0.3,0.4-0.4,0.6-0.7,0.9c1.2,0,1.8-0.1,2.3-0.1
			v1.1C837.4,1733.3,836.6,1733.3,835.3,1733.3z M836.1,1734.9h-3.8v0.8h3.8V1734.9z M836.1,1736.5h-3.8v0.8h3.8V1736.5z
			 M836.1,1738.1h-3.8v0.8h3.8V1738.1z"/>
	</g>
	<rect id="長方形_652-5" x="743" y="1763.2" class="st4" width="120" height="25"/>
	<g class="st2">
		<path class="st3" d="M761.1,1781.6c-0.1,0.3-0.3,0.6-1.2,0.6H758c-0.7,0-1.1,0-1.4-0.2c-0.4-0.3-0.4-0.7-0.4-1.4v-2
			c-0.7,0.5-1.1,0.7-1.4,0.8l-0.9-0.6c-0.1,0.4-0.2,0.5-0.3,0.9c0.7,0.5,1.1,0.9,1.3,1.3l-0.6,1c-0.3-0.5-0.7-1-1.2-1.3
			c-0.4,0.6-0.8,1-2.1,1.9l-1-0.7c1.1-0.5,1.7-0.9,2.2-1.7c-0.1-0.1-0.2-0.1-0.9-0.3c0,0,0,0.1,0,0.1c0,0.1,0,0.1-0.1,0.4l-1-0.1
			c0.4-1.3,0.6-1.9,0.8-2.6c0.1-0.5,0.4-1.5,0.5-2.3c-0.6,0-0.8,0-1.3,0.1v-1c0.4,0,0.6,0.1,1.4,0.1c0.3-1.4,0.3-1.8,0.4-2.9
			l1.1,0.2c0,0,0.2,0,0.2,0.2c0,0.1-0.1,0.1-0.3,0.2c-0.1,0.9-0.2,1-0.4,2.3h0.4c0.6,0,0.9,0,1.3-0.1c-0.2,3-0.4,3.8-0.5,4.3
			c0.7-0.2,2-0.8,3.3-2.1h-0.5c-1.1,0-1.6,0-2.1,0.1v-1.1c0.5,0,0.9,0.1,1.9,0.1v-1.4h-0.3c-0.5,0-1,0-1.4,0.1v-1.1
			c0.5,0.1,1.3,0.1,1.4,0.1h0.3c0-0.2,0-1.6,0-1.8l1.2,0.1c0.1,0,0.2,0,0.2,0.1c0,0.1-0.1,0.2-0.3,0.3c0,0.3,0,0.9,0,1.2
			c0.2,0,0.9,0,1.4-0.1v0.7c0.4-0.7,0.6-1.3,0.7-1.7l1.1,0.6c0.1,0.1,0.2,0.1,0.2,0.2c0,0.1-0.1,0.1-0.4,0.2c-0.9,1.7-1,1.8-1.5,2.6
			c0.6,0,1.2,0,1.8-0.1v1.1c-0.6-0.1-1.3-0.1-2.1-0.1h-0.4c-0.4,0.5-0.8,0.9-1.2,1.3v0.8c0.4-0.1,1.8-0.5,2.6-1.1l0.8,0.9
			c0.1,0,0.1,0.1,0.1,0.2c0,0.1,0,0.1-0.2,0.1c-0.1,0-0.2,0-0.3,0c-1.1,0.5-1.3,0.5-1.8,0.7c-0.3,0.1-0.8,0.2-1.3,0.3v1.2
			c0,0.5,0.1,0.5,0.6,0.5h1.7c0.4,0,0.6,0,0.6-0.5c0-0.3,0.1-0.9,0-1.4l1.2,0.7C761.4,1780.5,761.2,1781.3,761.1,1781.6z
			 M752.6,1775.2c-0.3,1.2-0.6,2.4-0.9,3.6c0.5,0.1,0.9,0.3,1.1,0.4c0.3-0.9,0.6-2.4,0.7-3.9H752.6z M757.6,1774.1v1.5h0.4
			c0.3-0.4,0.6-0.8,0.9-1.4C758.4,1774.1,757.9,1774.1,757.6,1774.1z"/>
		<path class="st3" d="M773.2,1776c-0.6-0.3-0.8-0.5-1.1-0.7v0.7c-0.6,0-0.9-0.1-1.5-0.1h-0.2v0.9h0.9c1.3,0,2-0.1,2.4-0.1v1.1
			c-0.4,0-0.7-0.1-2.4-0.1h-2.4c-0.8,0-1.6,0-2.4,0.1v-0.6c-0.2,0.1-0.5,0.3-1,0.5v1.5c0,0.3,0,1.4,0,1.7c0,0.4,0,1.1-0.8,1.3
			c-0.2,0-0.3,0-1.2,0l-0.5-1.2c0.6,0.1,0.7,0.1,0.9,0.1c0.5,0,0.5-0.2,0.5-0.7v-2.3c-0.4,0.2-0.7,0.3-1,0.4
			c-0.1,0.2-0.1,0.3-0.2,0.3c0,0-0.1,0-0.2-0.1l-0.3-1.1c0.5-0.1,1.1-0.3,1.6-0.5v-2.5h-0.2c-0.1,0-0.7,0-1.2,0.1v-1.2
			c0.5,0.1,1,0.1,1.2,0.1h0.2c0-0.5,0-1.8-0.1-2.2l1.2,0.1c0.1,0,0.2,0,0.2,0.1c0,0.1-0.1,0.2-0.3,0.3c0,0.7,0,1.3,0,1.6
			c0.5,0,0.8,0,1.1-0.1v1.2c-0.5-0.1-0.9-0.1-1.1-0.1v2.1c0.5-0.2,0.9-0.4,1.1-0.5v0.6c0.7,0.1,1.5,0.1,2.2,0.1h0.3v-0.9
			c-0.7,0-1,0-1.7,0.1v-0.6c-0.5,0.4-0.6,0.5-0.8,0.6l-0.9-0.8c0.7-0.3,1.3-0.6,2-1.5c0.9-1.1,1.2-1.9,1.3-2.3l1.3,0.2
			c0.1,0,0.2,0.1,0.2,0.2c0,0.1-0.1,0.2-0.1,0.2c0.6,1.4,2.6,2.7,3.4,3L773.2,1776z M771.6,1782.3c0-0.1,0-0.5,0-0.5h-3.5
			c0,0.2,0,0.3,0,0.5H767c0-0.4,0-0.8,0-1.2v-1.5c0-0.1,0-0.6,0-1.1c0.7,0,1.4,0,2.1,0h1.5c0.6,0,1.7,0,2.3,0c0,0.5,0,1.1,0,1.1v1.3
			c0,0.6,0,1,0,1.3H771.6z M769.7,1772.8c-0.8,1.3-1.3,1.8-1.7,2.2c0.3,0,0.6,0,1.2,0c0-0.3,0-0.9,0-1.2l1.2,0.1
			c0.1,0,0.2,0,0.2,0.1c0,0.1-0.1,0.2-0.2,0.2c0,0.1,0,0.6,0,0.6h0.2c0.2,0,0.7,0,1.1,0C770.6,1774.2,770.2,1773.6,769.7,1772.8z
			 M771.7,1779.5h-3.5v1.4h3.5V1779.5z"/>
		<path class="st3" d="M779.1,1781.8c-3.2,0-3.5-2.2-3.6-3.1h1.3c0.1,1.7,1.4,2,2.3,2c1.2,0,2.2-0.6,2.2-1.5c0-0.9-1-1.2-2.6-1.5
			c-1.8-0.4-2.9-1-2.9-2.5c0-1.5,1.2-2.7,3.2-2.7c0.5,0,2.1,0.1,2.8,1.2c0.4,0.6,0.5,1.3,0.5,1.6h-1.3c-0.1-1.4-1.2-1.6-2-1.6
			c-0.8,0-1.9,0.3-1.9,1.3c0,0.6,0.3,1,2.3,1.4c2.2,0.5,3.2,1.1,3.2,2.6C782.6,1780.4,781.5,1781.8,779.1,1781.8z"/>
		<path class="st3" d="M790.3,1781.5l-0.8-2.4h-3.2l-0.8,2.4H784l3.1-8.8h1.5l3.1,8.8H790.3z M787.9,1774.3l-1.2,3.6h2.4
			L787.9,1774.3z"/>
		<path class="st3" d="M801.5,1781.3c-1.1-1.8-2.6-2.9-3.1-3.3c-1.7,1.9-3.3,2.8-4.4,3.3l-0.9-1.1c0.6-0.2,1.8-0.6,3.1-1.7
			c1.5-1.2,2.6-2.8,3.2-4.6h-2.1c-0.9,0-2.1,0-2.9,0.1v-1.2c0.4,0,1.9,0.1,2.4,0.1h1.8c1.2,0,1.3,0,1.4-0.1c0.3,0,0.5-0.2,0.6-0.3
			l0.9,1c-0.2,0.2-0.3,0.2-0.6,0.4c-0.7,1.4-1.2,2.3-1.8,3.1c1.8,1.2,3.1,2.9,3.4,3.3L801.5,1781.3z"/>
		<path class="st3" d="M812.1,1776.1c-0.3,0.4-1.8,2.2-2.1,2.6c0.5,0.6,0.8,0.9,1.1,1.4l-1,0.8c-0.8-1.2-1.7-2.5-3.4-3.6l0.8-0.9
			c0.6,0.5,1.2,1,1.8,1.5c0.4-0.4,1.5-1.8,2.3-3.1h-3.8c-0.7,0-2.1,0-3.3,0.1v-1.2c1,0.1,2.2,0.1,3.3,0.1h2.9c1.9,0,2.2-0.1,2.6-0.3
			l0.9,0.9C813.3,1774.7,812.5,1775.7,812.1,1776.1z"/>
		<path class="st3" d="M821.9,1777.4h-2.7c-0.2,0-2,0-3.2,0.1v-1.3c0.9,0.1,2,0.1,3.2,0.1h2.7c1.1,0,2.1,0,3.2-0.1v1.3
			C824,1777.4,822.6,1777.4,821.9,1777.4z"/>
		<path class="st3" d="M832.3,1778.9c-0.6-0.6-1.7-1.7-3.5-2.5v2c0,0.7,0,2.8,0.1,3.4h-1.5c0.1-0.6,0.1-1.5,0.1-1.8
			c0-0.3,0-1.5,0-1.7v-3.1c0-0.5,0-1.8-0.1-2.2c0-0.3-0.1-0.5-0.1-0.8l1.6,0.1c0.1,0,0.2,0,0.2,0.2c0,0.1-0.1,0.2-0.4,0.4
			c0,0.7-0.1,1.5-0.1,2.2v1.3l0.6-1.1c1.7,0.8,3.3,2,3.8,2.6L832.3,1778.9z"/>
		<path class="st3" d="M835.3,1781.5v-8.8h1.3v8.8H835.3z"/>
		<path class="st3" d="M843.1,1781.8c-2.6,0-4.2-2.1-4.2-4.7c0-3,1.9-4.6,4.3-4.6c2,0,3.5,1.1,3.6,2.9h-1.3
			c-0.2-1.2-1.5-1.6-2.4-1.6c-0.6,0-1.2,0.2-1.8,0.6c-0.9,0.7-1.1,1.9-1.1,2.8c0,2.5,1.6,3.4,2.8,3.4c0.8,0,2.3-0.5,2.5-2.3h1.3
			C846.8,1779.1,846.5,1781.8,843.1,1781.8z"/>
	</g>
	<g id="パス_1701" transform="translate(743 1801.442)">
		<path class="st3" d="M119.5,34.5H0.5v-34h119V34.5z"/>
		<path class="st4" d="M1,1v33h118V1H1 M0,0h120v35H0V0z"/>
	</g>
	<g class="st2">
		<path class="st5" d="M754.9,1809.6h-2.8v10.6h-0.9v-11.5h3.6V1809.6z"/>
		<path class="st5" d="M763.5,1810.3h-1.2v0.9h1.4c0.4,0,1.7,0,2.3,0c0,0.3,0,1.1,0,1.4v1.5c0,0.3,0,1.4,0,1.6c-0.6,0-1.4,0-2.3,0
			h-1.5c-0.1,0.9-0.4,1.5-0.6,1.8c0.6,0.5,2,1.5,5.3,1.4l-0.7,1.2c-0.3,0-0.8,0-1.6-0.1c-1.8-0.3-2.8-0.9-3.7-1.5
			c-1,1-2.3,1.5-3.8,1.7l-0.7-1.1c2.1-0.1,2.9-0.6,3.6-1.4c-0.5-0.4-0.8-0.8-1.2-1.2l0.8-0.7c-0.4,0-0.6,0-2.2,0c0-0.9,0-1.1,0-1.5
			v-1.5c0-0.4,0-1.1,0-1.5c0.8,0,1,0,2.7,0h0.9v-0.9h-1.2c-1.5,0-2.6,0-3.5,0.1v-1.1c1.1,0.1,3,0.1,3.5,0.1h3.5c1.2,0,2.4,0,3.6-0.1
			v1.1C766.2,1810.3,765.6,1810.3,763.5,1810.3z M761.2,1812.1h-2.6v0.9h2.6V1812.1z M758.6,1813.8v0.9h2.5c0-0.1,0-0.8,0-0.9H758.6
			z M759.9,1815.6c0.3,0.4,0.4,0.6,0.8,1c0.2-0.4,0.3-0.8,0.3-1H759.9z M764.8,1813.8h-2.5c0,0.4,0,0.4,0,0.9h2.5V1813.8z
			 M764.8,1812.1h-2.5v0.9h2.5V1812.1z"/>
		<path class="st5" d="M773.2,1810.1c-0.1,0-0.2,0-0.2,0c-0.5,0.2-0.9,0.3-1.4,0.4v1.8c0.3,0,1.1,0,1.7-0.1v1.2
			c-0.6-0.1-1.4-0.1-1.7-0.1c0.3,0.7,0.7,1.3,1.7,2.3l-0.7,0.9c-0.6-0.6-0.7-0.8-1-1.3v1.4c0,0.4,0,2,0,2.3c0,0.4,0,0.7,0,1.1h-1.2
			c0.1-0.7,0.1-1.3,0.1-3.3v-1.5c-0.5,1.1-1.2,1.9-1.5,2.3l-1.1-0.7c0.3-0.3,0.9-0.8,1.4-1.8c0.3-0.6,0.6-1.2,0.8-1.7h-0.2
			c-0.4,0-1.2,0-1.6,0.1v-1.2c0.6,0.1,1.4,0.1,1.6,0.1h0.5v-1.6c-0.7,0.1-1,0.1-1.5,0.2l-0.8-1.1c0.3,0,0.4,0,0.6,0
			c1.4,0,3-0.4,3.7-0.7l0.8,0.8c0.1,0.1,0.1,0.1,0.1,0.1C773.4,1810,773.4,1810.1,773.2,1810.1z M777.8,1815.5v0.4
			c0,1.2,0,2.7,0.1,3.9h-1.2c0.1-1.5,0.1-1.9,0.1-3.8v-0.3l-1.1,0.3c-0.5,0.2-1.8,0.6-2,0.7l-0.4-1c0.7-0.2,1.5-0.4,2.2-0.6l1.3-0.4
			v-3c0-2.1,0-2.2-0.1-3l1.2,0.1c0.1,0,0.2,0,0.2,0.1c0,0.1-0.2,0.2-0.3,0.3c0,0.6,0,1.8,0,2.5v2.6c0.2,0,0.9-0.3,1.6-0.6l0.3,1
			C779.4,1815.1,778.1,1815.4,777.8,1815.5z M775.2,1814.8c-0.5-0.8-1.2-1.2-1.7-1.5l0.7-0.8c0.6,0.3,1.3,0.8,1.7,1.4L775.2,1814.8z
			 M775.5,1812.1c-0.4-0.6-1-1.1-1.6-1.5l0.7-0.7c1,0.6,1.4,1.1,1.7,1.4L775.5,1812.1z"/>
		<path class="st5" d="M783.6,1812.8c-0.2,0.8-0.9,2.9-2.1,4.1l-1.2-0.7c1.2-1.4,1.8-2.8,2.1-4.2l1.3,0.4c0.1,0,0.3,0.1,0.3,0.2
			C783.9,1812.8,783.7,1812.8,783.6,1812.8z M786.7,1809.8c0,0.5,0,2.6,0,2.8v3c0,0.4,0,2.9-0.1,3.3c-0.1,0.6-0.4,0.7-0.9,0.7
			c-0.2,0-1.2,0-1.4,0.1l-0.5-1.5c0.5,0.1,0.8,0.1,1.2,0.1c0.4,0,0.4,0,0.4-0.6v-5.1c0-0.3,0-1.5,0-1.8c0-0.8,0-1.1,0-1.9l1.4,0.2
			c0.3,0,0.4,0,0.4,0.2C787.1,1809.6,786.9,1809.7,786.7,1809.8z M790.3,1816.9c-1.1-1.4-1.8-2.6-2.2-4.4l1.2-0.4
			c0.5,1.7,1.1,2.8,2.4,4.2L790.3,1816.9z"/>
		<path class="st5" d="M800,1816.9h-1.1v0.4c0,0.2,0,1.2,0,1.5c0,0.3,0,0.8-0.7,0.9c-0.2,0.1-1.2,0.1-1.5,0.1l-0.5-1.3
			c0.2,0,1.1,0.2,1.2,0.2c0.4,0,0.4-0.3,0.4-0.8v-1h-1.5c-0.4,0-2.3,0-3.5,0.1v-1.2c1.4,0.1,3.5,0.1,3.5,0.1h1.4
			c0-0.4,0-0.9-0.1-1.3l0.8,0.2c0.2-0.2,0.6-0.5,1-0.9h-2.6c-0.5,0-1.1,0-1.6,0v-1.1c0.2,0,1.9,0.1,2.2,0.1h1.3
			c0.5,0,1.7-0.1,2.2-0.1l0.4,0.6c-0.2,0.1-1,0.9-1.1,1l-0.5,0.5l-0.8,0.8h1.1c0.5,0,2.4,0,3.6-0.1v1.2
			C802.5,1817,801.1,1816.9,800,1816.9z M802,1813.8c0-0.7,0-0.8,0-1.6h-7.8c0,0.1,0,0.9,0.1,1.6H793c0-0.2,0.1-0.6,0.1-1.6
			c0-0.5,0-0.8,0-1c0.3,0,1.7,0.1,2.2,0.1c-0.3-0.6-0.6-1-1.1-1.5l1-0.6c0.4,0.3,0.9,1.1,1.1,1.6l-0.9,0.5c0.2,0,1.4,0,1.5,0h2.2
			c0,0,1.5,0,1.6,0l-0.7-0.3c0.3-0.4,0.7-1,1-1.8l1.1,0.4c0.1,0,0.3,0.1,0.3,0.2c0,0.2-0.3,0.3-0.4,0.3c-0.2,0.4-0.6,1.1-0.8,1.2
			c0.6,0,1.5,0,2.2-0.1c0,0.3,0,0.6,0,1.2c0,0.8,0,1.1,0.1,1.4H802z M798,1811.1c-0.1-0.4-0.4-1-1-1.6l0.9-0.5
			c0.7,0.5,0.9,1.3,1,1.7L798,1811.1z"/>
		<path class="st5" d="M808.9,1816.1c-0.2-0.1-0.6-0.4-1.2-1.4v1.8c0,0.9,0,1.4,0.1,3.3h-1.2c0-1,0.1-2.1,0.1-3.4v-1.2
			c-0.5,1.1-1,1.7-1.3,2l-0.9-0.7c1.1-1.1,1.9-3.3,2-4.3h-0.2c0,0-0.7,0-1.3,0.1v-1.2c0.4,0.1,1.1,0.1,1.3,0.1h0.3
			c0-1.3,0-1.4,0-2.4l1.3,0.1c0.1,0,0.2,0.1,0.2,0.2c0,0.1-0.2,0.2-0.4,0.3c0,0.2,0,1.3,0,1.5v0.2c0.2,0,0.7,0,1.2-0.1v1.2
			c-0.5-0.1-1-0.1-1.2-0.1v0.4c0.3,0.7,1.1,1.9,1.8,2.4L808.9,1816.1z M815.2,1819.9c-0.5-0.1-1.7-0.4-3.1-1.6
			c-1.2,1.1-2.7,1.4-3.3,1.6l-0.7-1c1.3-0.2,2.3-0.5,3.2-1.4c-0.8-1-1.2-1.9-1.4-3l1-0.4c0.3,1,0.6,1.8,1.1,2.5
			c0.2-0.4,0.4-0.7,0.9-2.6l1,0.4c0.1,0,0.3,0.1,0.3,0.3c0,0.2-0.3,0.2-0.4,0.2c-0.2,0.7-0.5,1.7-1.1,2.5c0.9,0.9,1.9,1.2,2.9,1.4
			L815.2,1819.9z M811.4,1812.8c-0.4,0.6-0.8,1.1-1.6,1.6l-1-0.7c1-0.5,1.6-1.3,1.9-1.9l1,0.6c0.1,0,0.1,0.1,0.1,0.2
			C811.7,1812.8,811.6,1812.8,811.4,1812.8z M813.4,1811.6h-2c-0.7,0-1.3,0-2,0.1v-1.2c0.7,0.1,1.7,0.1,2,0.1h0.4c0-0.2,0-1.5,0-1.6
			l1.2,0.1c0.1,0,0.3,0,0.3,0.2c0,0.1-0.1,0.2-0.1,0.2c-0.1,0.1-0.1,0.1-0.2,0.1c0,0.2,0,0.7,0,1h0.5c0.7,0,1.3,0,2-0.1v1.2
			C814.6,1811.6,813.5,1811.6,813.4,1811.6z M814.5,1814.4c-0.3-0.4-1-1.2-1.9-1.8l0.7-0.7c0.9,0.6,1.4,1,2.1,1.7L814.5,1814.4z"/>
		<path class="st5" d="M826.8,1819.5c-3.2-1.8-3.9-4.3-4.2-5.7c-0.4,1.7-1.7,4.3-4.4,5.7l-1.1-1c1.2-0.6,2.7-1.5,3.7-3.6
			c0.3-0.6,0.8-1.7,0.8-2.9l0.7,0.2c0-0.3-0.1-0.7-0.1-1c0-0.3,0-0.4,0-0.6h-1.2c-0.2,0-1.1,0-1.3,0v-1.3c0.2,0,1,0,1.2,0h1.1
			c0.4,0,1,0,1.4,0c-0.1,0.4-0.1,0.8-0.1,1.6c0,1.5,0.3,3.5,1.4,5.1c0.5,0.8,1.3,1.5,3,2.4L826.8,1819.5z"/>
		<path class="st5" d="M837.5,1818.9c0-0.1,0.1-0.7,0.1-0.9h-6.3c0,0.1,0,0.6,0.1,0.9H830c0.1-0.8,0.2-1.7,0.2-2.5v-3
			c0-0.5,0-1.1,0-1.6c0-1.1-0.1-1.2-0.1-1.4c0.4,0,0.7,0,1.7,0c0.3,0,1.7,0,1.9,0h2.2c0.6,0,2.6-0.1,3.1-0.1c0,0.6-0.1,2.2-0.1,2.9
			v2.6c0,0.2,0,1,0,1.7c0,0.6,0.1,1.2,0.1,1.5H837.5z M837.7,1811.6h-6.3v5.3h6.3V1811.6z"/>
		<path class="st5" d="M841.3,1819.4h2.8v-10.6h0.9v11.5h-3.6V1819.4z"/>
	</g>
	<g class="st2">
		<path class="st5" d="M783.1,1821.9c-0.1,0.3-0.3,0.8-0.8,1.8c0.2,0.1,0.2,0.1,0.2,0.2c0,0.1,0,0.1-0.2,0.3c0,0.3,0,1.6,0,2v3
			c0,0.8,0.1,1.9,0.1,2.8H781c0.2-0.9,0.2-2.5,0.2-2.9v-3.6c-0.5,0.6-0.7,0.8-0.8,0.9l-0.9-0.8c0.6-0.5,1.2-1.1,1.8-2.3
			c0.4-0.7,0.8-1.5,0.9-2.3l1.2,0.6c0.1,0,0.1,0.1,0.1,0.2C783.5,1821.8,783.3,1821.8,783.1,1821.9z M788.1,1824h-2.5
			c-0.9,0-1.7,0-2.6,0.1v-1.2c0.9,0.1,2.2,0.1,2.6,0.1h2.5c0.9,0,1.8,0,2.6-0.1v1.2C789.6,1824,788.2,1824,788.1,1824z
			 M788.6,1831.9c0-0.1,0-0.3,0-0.4h-3.6c0,0,0,0.3,0,0.4h-1.2c0-0.6,0.1-1.1,0.1-1.3v-1.2c0-0.2,0-0.9,0-1.1c0.3,0,1.6,0,1.9,0h2.1
			c1.2,0,1.4,0,1.9,0c0,0.3,0,0.8,0,1v1.3c0,0.4,0,0.9,0.1,1.3H788.6z M787.7,1822.2H786c-0.6,0-1.2,0-1.7,0.1v-1.2
			c0.6,0.1,1.5,0.1,1.7,0.1h1.7c0.6,0,1.2,0,1.7-0.1v1.2C788.7,1822.2,787.7,1822.2,787.7,1822.2z M787.7,1825.8H786
			c0,0-1,0-1.7,0.1v-1.2c0.6,0.1,1.4,0.1,1.7,0.1h1.7c0.6,0,1.2,0,1.7-0.1v1.2C788.7,1825.8,787.7,1825.8,787.7,1825.8z
			 M787.7,1827.6H786c0,0-1,0-1.7,0.1v-1.2c0.6,0.1,1.4,0.1,1.7,0.1h1.7c0.6,0,1.2,0,1.7-0.1v1.2
			C788.7,1827.6,787.7,1827.6,787.7,1827.6z M788.7,1829.3H785v1.3h3.7V1829.3z"/>
		<path class="st5" d="M799.1,1826.6h-2.7c-0.3,0.9-0.3,0.9-0.5,1.1h3.3c0.5,0,1.5-0.1,2.1-0.1c-0.2,1.9-0.7,3.1-0.9,3.4
			c-0.5,0.9-1.2,0.9-2.1,0.9c-0.4,0-0.5,0-0.6,0l-0.6-1.3c0.4,0.1,0.9,0.2,1.4,0.2c0.8,0,1.2-0.4,1.5-2h-4.5c-0.1,0.2-0.4,0.7-0.6,1
			l-1.2-0.6c0.7-0.8,1.3-2.3,1.4-2.6c-0.3,0-0.9,0-1.5,0.1c-0.2,0-1.3,0.1-1.5,0.1v-1.3c1.1,0.1,2.9,0.1,3.5,0.1h3.5
			c0.3,0,2.2,0,3.5-0.1v1.2C801.1,1826.6,799.2,1826.6,799.1,1826.6z M798.2,1824.9h-2.1c-0.6,0-1.6,0-2.1,0.1
			c0.1-0.3,0.1-0.8,0.1-1.2v-0.8c0-0.4,0-1.3-0.1-1.7c0.4,0,1.9,0.1,2.3,0.1h1.9c0.5,0,1.4,0,2.1-0.1c0.1,0,0.2,0,0.3,0
			c0,0.2,0,1.2,0,1.4v0.9c0,0.3,0,1.1,0.1,1.4C800.3,1824.9,798.7,1824.9,798.2,1824.9z M799.5,1822.3h-4.3v1.5h4.3V1822.3z"/>
		<path class="st5" d="M811.3,1824.4h-2.1c-0.3,1-0.5,1.5-0.7,1.8c0.1,0,0.7,0,0.8,0h2.1c0.6,0,1.7,0,2.3-0.1c0,0.7,0,1.3,0,2v1.9
			c0,0.9,0,1.4,0.1,1.8h-1.2c0,0,0.1-0.6,0.1-0.7h-4.2c0,0.2,0,0.5,0.1,0.7h-1.3c0-0.2,0-0.7,0-0.9c0-0.3,0-0.9,0-1.1v-1.6
			c-0.8,1-2,1.8-2.6,2.1l-0.9-1.1c2.1-0.9,3.6-2.8,4.2-4.8h-0.3c-1.2,0-2.4,0-3.6,0.1v-1.2c1.2,0.1,3,0.1,3.6,0.1h0.6
			c0.2-1.2,0.2-1.9,0.2-2.4l1.4,0.3c0.3,0,0.3,0.1,0.3,0.2c0,0.2-0.3,0.3-0.4,0.3c-0.1,0.5-0.1,1-0.3,1.6h1.9c1.2,0,2.4,0,3.6-0.1
			v1.2C813.4,1824.4,811.5,1824.4,811.3,1824.4z M812.7,1827.3h-4.2v2.8h4.2V1827.3z"/>
		<path class="st5" d="M819.1,1827.4v1.6v1.8c0,0.6-0.1,1.2-1.9,1l-0.7-1.3c0.4,0.1,0.7,0.1,1.1,0.1c0.4,0,0.4,0,0.4-0.7v-2.2
			c-0.5,0.2-0.7,0.3-1,0.4c-0.1,0.2-0.1,0.3-0.2,0.3c-0.1,0-0.1-0.1-0.2-0.2l-0.3-1.2c0.9-0.2,1.4-0.4,1.8-0.5v-2.3h-0.3
			c-0.5,0-0.9,0-1.4,0.1v-1.2c0.5,0.1,1.2,0.1,1.4,0.1h0.3c0-1.1,0-1.3,0-2.4l1.2,0.1c0.1,0,0.2,0,0.2,0.1c0,0.1-0.1,0.1-0.2,0.2
			c0,0.9,0,1,0,1.9c0.1,0,0.8,0,1.4-0.1v1.2c-0.6-0.1-1.3-0.1-1.4-0.1v1.9c0.7-0.3,1.1-0.4,1.4-0.6v1.1
			C820,1827,819.6,1827.2,819.1,1827.4z M825.1,1825.9v2.6c0,0.2,0.1,2.2,0.1,2.6l0,0.8h-1.3c0-0.9,0.1-2.6,0.1-3.3v-2.6h-1.7
			c-0.1,1.8-0.3,3.9-1.9,5.6l-1-0.8c1-0.9,1.4-2.2,1.5-2.7c0.2-0.7,0.3-2.1,0.3-2.6v-1.7c0-0.4,0-1.2-0.1-1.9c0.2,0,0.7,0,1.1,0
			c1.2,0,2.5-0.2,3.5-0.8l1,0.8c0.1,0.1,0.1,0.1,0.1,0.1c0,0.1-0.1,0.1-0.2,0.1c-0.1,0-0.1,0-0.2,0c-1.3,0.6-2.7,0.8-4,0.8l0,1.9
			h2.1c0.6,0,2.1,0,2.7-0.1v1.2C826.6,1825.9,826.4,1825.9,825.1,1825.9z"/>
	</g>
	<g id="パス_1701-2" transform="translate(768 1616.346)">
		<path class="st3" d="M69.5,24.5h-69v-24h69V24.5z"/>
		<path class="st4" d="M1,1v23h68V1H1 M0,0h70v25H0V0z"/>
	</g>
	<g class="st2">
		<path class="st5" d="M781.8,1627.9c-0.2,0.8-0.9,2.9-2.1,4.1l-1.2-0.7c1.2-1.4,1.8-2.8,2.1-4.2l1.3,0.4c0.1,0,0.3,0.1,0.3,0.2
			C782.2,1627.9,781.9,1627.9,781.8,1627.9z M784.9,1624.9c0,0.5,0,2.6,0,2.8v3c0,0.4,0,2.9-0.1,3.3c-0.1,0.6-0.4,0.7-0.9,0.7
			c-0.2,0-1.2,0-1.4,0.1l-0.5-1.5c0.5,0.1,0.8,0.1,1.2,0.1c0.4,0,0.4,0,0.4-0.6v-5.1c0-0.3,0-1.5,0-1.8c0-0.8,0-1.1,0-1.9l1.4,0.2
			c0.3,0,0.4,0,0.4,0.2C785.4,1624.7,785.1,1624.8,784.9,1624.9z M788.5,1632c-1.1-1.4-1.8-2.6-2.2-4.4l1.2-0.4
			c0.5,1.7,1.1,2.8,2.4,4.2L788.5,1632z"/>
		<path class="st5" d="M801.5,1635c-1.4-0.8-1.9-1.2-2.4-1.8c-0.5,0.6-1.5,1.4-2.7,1.8l-0.9-0.9c1-0.2,2-0.6,3-1.7
			c-0.3-0.4-0.9-1.4-1.2-3.4c-0.3,0.4-0.4,0.6-0.6,0.7l-0.2-0.1l-0.2,0.9c-0.3,0.2-0.4,0.2-1.3,0.6c0,0.4,0,1.5,0,1.9
			c0,0.9,0,1.5,0,2h-1.2c0-0.2,0-0.5,0.1-0.8c0-0.7,0-1.1,0-2.7c-0.3,0.1-1.5,0.6-1.8,0.7c0,0.1-0.1,0.3-0.2,0.3
			c-0.1,0-0.1-0.1-0.2-0.2l-0.4-1.1c1.3-0.4,1.5-0.4,2.5-0.8v-2.4H793c-0.3,0.9-0.5,1.4-0.7,1.6l-1.2-0.3c1-1.2,1.3-3.2,1.3-4.1
			l1.1,0.3c0.1,0,0.2,0,0.2,0.1c0,0.1-0.1,0.2-0.3,0.2c0,0.3-0.1,0.6-0.2,1.2h0.7c0-2.2,0-2.5,0-2.9l1.2,0.1c0.1,0,0.2,0,0.2,0.1
			c0,0.1,0,0.1-0.3,0.2c0,0.4,0,0.7,0,1.6c0,0.4,0,0.7,0,0.8c0.4,0,1,0,1.4-0.1v1.2c-0.4-0.1-0.8-0.1-1.4-0.1v2
			c0.2-0.1,1.2-0.4,1.5-0.5l-0.8-0.4c0.9-0.8,1.4-2,1.5-2.2c0.5-1.2,0.6-2.2,0.7-2.8l1.3,0.3c0.1,0,0.2,0,0.2,0.1
			c0,0.1-0.2,0.2-0.3,0.2c-0.2,0.9-0.4,1.6-0.6,2.2h1.5c0.8,0,1.7,0,2.5-0.1v1.2c-0.3,0-0.6-0.1-1.3-0.1c0,1-0.2,1.9-0.3,2.4
			c-0.2,0.9-0.6,1.5-0.9,1.9c1.1,1.1,2.2,1.5,2.6,1.6L801.5,1635z M799.7,1628h-1.8c-0.1,0.1-0.1,0.2-0.3,0.5l0.6-0.2
			c0.1,0.8,0.3,2.2,1,3.2c0.1-0.2,0.3-0.6,0.5-1.2c0.2-0.6,0.3-1.4,0.3-2.2C799.9,1628,799.8,1628,799.7,1628z"/>
		<path class="st5" d="M806.4,1634.4c-1.2,0-2-0.7-2.3-1.4c-0.2-0.5-0.2-0.8-0.2-1.7h1.3c0,0.1,0,0.4,0,0.5c0,0.8,0.3,1.5,1.2,1.5
			c0.7,0,1.1-0.4,1.1-1.4v-6.5h1.3v6.6C808.8,1632.5,808.8,1634.4,806.4,1634.4z"/>
		<path class="st5" d="M815.2,1634.4c-2.6,0-4.2-2.1-4.2-4.7c0-3,1.9-4.6,4.3-4.6c2,0,3.5,1.1,3.6,2.9h-1.3
			c-0.2-1.2-1.5-1.6-2.4-1.6c-0.6,0-1.2,0.2-1.8,0.6c-0.9,0.7-1.1,1.9-1.1,2.8c0,2.5,1.6,3.4,2.8,3.4c0.8,0,2.3-0.5,2.5-2.3h1.3
			C818.9,1631.7,818.6,1634.4,815.2,1634.4z"/>
		<path class="st5" d="M824.6,1626.6v7.6h-1.3v-7.6h-2.9v-1.2h7.1v1.2H824.6z"/>
	</g>
	<g id="パス_1701-3" transform="translate(768 1684.584)">
		<path class="st3" d="M69.5,24.5h-69v-24h69V24.5z"/>
		<path class="st4" d="M1,1v23h68V1H1 M0,0h70v25H0V0z"/>
	</g>
	<g class="st2">
		<path class="st5" d="M787.6,1703.1c-0.2,0-0.5,0-0.7,0l-0.6-1.3c0.3,0.1,0.6,0.1,1,0.1c0.7,0,0.7-0.1,0.7-0.6v-7.6h-7.6v5.9
			c0,0.1,0,1.3,0,1.5c0,0.7,0,1.3,0.1,2h-1.4c0.2-1.1,0.2-2.8,0.2-3.8v-3.5c0-0.8,0-2.4,0-3.1c1.3,0.1,1.4,0.1,2.9,0.1h3.4
			c2.3,0,2.9,0,3.6-0.1c0,0.3,0,1.1,0,1.4v3.8c0,0.6,0,0.7,0,2.1c0,0.2,0,1.8,0,1.9C789.2,1703.1,788.4,1703.1,787.6,1703.1z
			 M785.3,1697h-0.6v2.9h1.3v-1.2c0-0.1,0-0.5,0-1.1l1.1,0.1c0.3,0,0.3,0.1,0.3,0.1c0,0.2-0.3,0.3-0.3,0.3c0,0.2,0,0.9,0,1v0.6
			c0,0.1,0,0.5,0,1.1c-0.3,0-0.8,0-1.3,0h-3.4c0,0.4,0,0.5,0,0.7h-1.1c0-0.3,0-0.7,0-1.4v-1.2c0-0.3,0-0.6,0-1.3l1.1,0.1
			c0.1,0,0.3,0,0.3,0.2c0,0.1-0.1,0.1-0.3,0.3c0,0.7,0,0.8,0,1v0.8h1.3v-2.9h-0.8c-1.1,0-1.6,0-2,0.1v-1.1c0.6,0.1,1.4,0.1,1.8,0.1
			c-0.1-0.5-0.5-1.2-1-1.6l1-0.6c0.4,0.3,0.9,1.1,1,1.8l-0.7,0.4h2.3l-0.6-0.3c0.5-0.6,0.8-1.7,0.8-1.9l1.1,0.5
			c0.1,0,0.2,0.1,0.2,0.2c0,0.1-0.2,0.2-0.4,0.2c-0.2,0.6-0.6,1.2-0.7,1.4c0.7,0,1,0,1.8-0.1v1.1C787,1697,787,1697,785.3,1697z"/>
		<path class="st5" d="M801.6,1699.6c-0.6-0.2-1-0.4-1.5-0.7c0,0.1,0,0.8,0,0.9v1.2c0,0.1,0,1.7,0.1,2.2h-1.3c0-0.1,0-0.4,0-0.5h-4
			c0,0,0,0.5,0,0.5h-1.3c0-0.4,0.1-1.3,0.1-1.7v-1.3c0-0.1,0-0.6,0-0.9c0-0.3,0-0.3,0-0.5c-0.8,0.5-1.2,0.6-1.5,0.7l-0.8-1
			c2.2-0.6,4-2.1,5.1-4.1l1.3,0.5c0.3,0.1,0.3,0.1,0.3,0.2c0,0.1-0.2,0.2-0.3,0.2c0.4,0.6,2,2.5,4.7,3.1L801.6,1699.6z
			 M795.8,1693.6c-0.1,0-0.3,0-0.3,0c-0.5,0.6-1.2,1.2-2.3,1.7l-0.8-0.9c0.9-0.4,1.7-0.9,2.5-1.9l1,0.8c0.1,0.1,0.2,0.1,0.2,0.2
			C796,1693.5,795.9,1693.6,795.8,1693.6z M796.8,1695.9c-1.1,1.5-2.2,2.2-2.7,2.6c0.2,0,1.3,0,1.5,0h2.2c0.2,0,1.2,0,1.5,0
			C798.9,1698.1,797.8,1697.3,796.8,1695.9z M798.9,1699.5h-4v2.1h4V1699.5z M800.5,1695.2c-0.8-0.2-2-1.2-2.6-2l0.9-0.8
			c0.8,0.9,1.8,1.5,2.5,1.8L800.5,1695.2z"/>
		<path class="st5" d="M806.4,1702.7c-1.2,0-2-0.7-2.3-1.4c-0.2-0.5-0.2-0.8-0.2-1.7h1.3c0,0.1,0,0.4,0,0.5c0,0.8,0.3,1.5,1.2,1.5
			c0.7,0,1.1-0.4,1.1-1.4v-6.5h1.3v6.6C808.8,1700.8,808.8,1702.7,806.4,1702.7z"/>
		<path class="st5" d="M815.2,1702.7c-2.6,0-4.2-2.1-4.2-4.7c0-3,1.9-4.6,4.3-4.6c2,0,3.5,1.1,3.6,2.9h-1.3
			c-0.2-1.2-1.5-1.6-2.4-1.6c-0.6,0-1.2,0.2-1.8,0.6c-0.9,0.7-1.1,1.9-1.1,2.8c0,2.5,1.6,3.4,2.8,3.4c0.8,0,2.3-0.5,2.5-2.3h1.3
			C818.9,1699.9,818.6,1702.7,815.2,1702.7z"/>
		<path class="st5" d="M824.6,1694.8v7.6h-1.3v-7.6h-2.9v-1.2h7.1v1.2H824.6z"/>
	</g>
</g>
</svg>
