<?xml version="1.0" encoding="utf-8"?>
<!-- Generator: Adobe Illustrator 28.1.0, SVG Export Plug-In . SVG Version: 6.00 Build 0)  -->
<svg version="1.1" id="レイヤー_1" xmlns="http://www.w3.org/2000/svg" xmlns:xlink="http://www.w3.org/1999/xlink" x="0px"
	 y="0px" viewBox="0 0 120 298.3" style="enable-background:new 0 0 120 298.3;" xml:space="preserve">
<style type="text/css">
	.st0{fill:#7F4F21;}
	.st1{fill:#2B2624;}
	.st2{enable-background:new    ;}
	.st3{fill:#FFFFFF;}
	.st4{fill:#009139;}
	.st5{fill:#07913A;}
</style>
<g id="グループ_1029" transform="translate(-930 -1537.549)">
	<path id="パス_1704" class="st0" d="M989,1589.3h1.7V1813H989V1589.3z"/>
	<path id="長方形_652" class="st1" d="M942.5,1537.5h95c6.9,0,12.5,5.6,12.5,12.5l0,0c0,6.9-5.6,12.5-12.5,12.5h-95
		c-6.9,0-12.5-5.6-12.5-12.5l0,0C930,1543.1,935.6,1537.5,942.5,1537.5z"/>
	<g class="st2">
		<path class="st3" d="M955,1544.7c0,0.3-0.1,1.1-0.1,1.7v3.5c0,0.4,0,2.4,0,2.8c0,2.2,0,2.7,0.1,3.7h-1.6c0-0.7,0-1,0-1.2
			c0-0.4,0-1.9,0-2.3c-0.5,0.3-1.2,0.6-1.7,0.8c-0.2,0.1-1,0.4-1.2,0.5c-0.1,0.3-0.2,0.4-0.3,0.4c-0.1,0-0.1,0-0.2-0.3l-0.4-1.3
			c1.1-0.3,3.2-1.1,3.7-1.4c0-0.5,0-0.6,0-1.6v-1.5h-2.4c-0.4,0-0.9,0-1.3,0.1v-1.4c0.4,0.1,1.1,0.1,1.3,0.1h2.4c0-0.6,0-0.7,0-1.7
			c0-0.6,0-1.1-0.1-1.4l1.5,0.1c0.2,0,0.4,0,0.4,0.2C955.4,1544.6,955.3,1544.7,955,1544.7z M960.5,1555.8h-2.1
			c-1.9,0-1.9-0.8-1.9-2.5v-6.1c0-0.3-0.1-2.5-0.1-3.1l1.4,0.1c0.2,0,0.4,0,0.4,0.2c0,0.2-0.1,0.2-0.4,0.3c0,1,0,1.2,0,1.7v2.1
			c0.1-0.1,1.4-0.8,2.8-2.3l1.1,1c0.1,0.1,0.1,0.1,0.1,0.2c0,0.1-0.1,0.2-0.2,0.2c0,0-0.1,0-0.3-0.1c-1,0.9-2.2,1.8-3.5,2.5v3.2
			c0,0.9,0.1,1.3,0.9,1.3h1.1c0.7,0,0.8-0.2,1-2.2l1.3,0.9C961.9,1555.1,961.5,1555.8,960.5,1555.8z"/>
		<path class="st3" d="M968.3,1546.5c-0.8,1.7-0.9,1.9-1,2.1c1,1.6,1.1,2.3,1.1,2.8c0,0.5-0.1,1.2-0.6,1.7c-0.4,0.4-1.1,0.4-1.5,0.5
			l-0.5-0.9c0,0.4,0,0.5,0.1,2c0,1.1,0,1.3,0,1.8h-1.4c0-0.4,0.1-4.3,0.1-4.4v-4.5v-0.5c0-0.4-0.1-2.4-0.1-2.8
			c0.7,0,1.2,0.1,1.3,0.1h1.3c0.2,0,0.9-0.1,1.1-0.1l0.5,0.7C968.8,1545.1,968.8,1545.3,968.3,1546.5z M965.9,1545.3v6.9
			c0.1,0.1,0.3,0.1,0.5,0.1c0.5,0,0.8-0.3,0.8-1.2c0-0.8-0.4-1.5-1.1-2.5l1.2-3.3H965.9z M975.7,1551.2h-1c-0.6,0-1.1-0.1-1.2-0.6
			c-0.1,0.1-0.1,0.1-0.3,0.2c0,0.1,0,0.8,0,1.2h0.8c0.8,0,1.6,0,2.5-0.1v1.4c-1.1-0.1-2.4-0.1-2.5-0.1h-0.8v1.9h0.7
			c1.1,0,2.1,0,3.1-0.1v1.4c-1.3-0.1-3-0.1-3.1-0.1h-3c-1,0-2.1,0-3.1,0.1v-1.4c1.1,0.1,2.6,0.1,3.1,0.1h1v-1.9h-0.2
			c-0.8,0-1.6,0-2.4,0.1v-1.4c0.8,0.1,2.1,0.1,2.4,0.1h0.2c0-0.2,0-1.1,0-1.3c0-0.1,0-0.2,0-0.4l1.5,0c0.1,0,0.2,0,0.2,0.1
			c0-0.2,0-0.2,0-0.6v-1.1h-2.2l0.8,0.4c0.1,0,0.3,0.1,0.3,0.3c0,0.1-0.1,0.2-0.5,0.2c-0.4,0.7-1.1,1.7-2.3,2.2l-1-1
			c1.3-0.7,1.8-1.1,2.2-2.1c-1.4,0-1.9,0.1-2.3,0.1v-1.4c1,0.1,2.5,0.1,2.9,0.1h0.5v-1.3h-0.2c-0.8,0-1.6,0-2.4,0.1v-1.4
			c0.8,0.1,2.1,0.1,2.4,0.1h0.2c0-1,0-1.1,0-1.4l1.6,0.1c0.3,0,0.3,0.1,0.3,0.2c0,0.2-0.2,0.3-0.4,0.4c0,0.5,0,0.5,0,0.7h0.8
			c0.8,0,1.7,0,2.5-0.1v1.4c-1.1-0.1-2.4-0.1-2.5-0.1h-0.8v1.3h1c1,0,1.9,0,2.9-0.1v1.4c-0.9-0.1-1.7-0.1-2.5-0.1v1
			c0,0.3,0,0.5,0.4,0.5h0.6c0.2,0,0.5-0.1,0.7-1.1l1,0.8C976.9,1551.1,976.3,1551.2,975.7,1551.2z"/>
		<path class="st3" d="M990.1,1547.1c-0.3,0-1.8,0-2.1,0h-2.5c0,0.7-0.1,1.2-0.1,1.7h2.5c1,0,1.7,0,2.3-0.1c0,0.2,0,0.4-0.2,2.2
			c0,0.2-0.4,3.5-1.4,4.8c-0.5,0.7-1.1,0.8-1.9,0.8c-0.1,0-0.6,0-1.1-0.1l-0.4-1.7c0.4,0.1,0.9,0.2,1.5,0.2c0.4,0,0.9,0,1.3-1.2
			c0.4-1.3,0.5-2.1,0.7-3.8h-3.5c-0.3,1.7-1.1,3.2-2.1,4.2c-0.9,1-1.9,1.6-2.9,2l-1.1-1.1c1-0.4,2.7-1.1,3.9-3
			c0.8-1.2,1.1-2.4,1.1-5h-0.9c-0.4,0-2.1,0-2.5,0c-0.6,0-0.9,0-1.4,0.1v-1.4c0.3,0,0.7,0.1,1.9,0.1c0.4,0,1.4,0,1.7,0
			c0.1,0,0.3,0,0.3,0h1.6c0-0.3,0-1.8,0-2.1l1.6,0.2c0.1,0,0.2,0.1,0.2,0.2c0,0.2-0.3,0.3-0.4,0.3c0,0.2,0,1.2,0,1.4h1.8
			c2,0,2.9,0,3.7-0.2v1.4C990.9,1547.2,990.6,1547.2,990.1,1547.1z"/>
		<path class="st3" d="M1001.9,1545.4h-1.1c-0.2,0.7-0.2,0.9-0.6,1.9h1.6c0.4,0,1.9,0,2.2,0c1.1,0,1.5-0.1,1.9-0.1
			c0,0.6-0.1,2.5-0.1,3.2v2.9c0,0.2,0,0.9,0,1.4c0,0.8,0.1,1.6,0.1,1.8h-1.6c0.1-0.3,0.1-0.7,0.1-0.9h-9c0,0.4,0,0.4,0.1,0.9h-1.4
			c0.1-1,0.1-1.8,0.1-3.2v-2.5c0-0.9-0.1-2.9-0.1-3.6c1.2,0.1,3.2,0.1,4.5,0.1c0.3-0.6,0.5-1.3,0.7-1.9h-1.4c-1.6,0-2.8,0-4.2,0.2
			v-1.4c0.7,0.1,4,0.1,4.3,0.1h3.7c0.3,0,3,0,3.5-0.1c0.4,0,0.6,0,0.9-0.1v1.3C1004.9,1545.5,1002,1545.4,1001.9,1545.4z
			 M997.4,1548.4h-1.8v6h1.8V1548.4z M1001.6,1548.4h-3v1.3h3V1548.4z M1001.6,1550.8h-3v1.3h3V1550.8z M1001.6,1553.1h-3v1.3h3
			V1553.1z M1004.6,1548.4h-1.8v6h1.8V1548.4z"/>
	</g>
	<g class="st2">
		<path class="st3" d="M1016.2,1555.9c-1.5-1.2-2.5-1.5-3-1.6c0,0.5,0,1-0.3,1.3c-0.5,0.5-1.4,0.6-2,0.6c-0.9,0-2.5-0.4-2.5-1.6
			c0-1.1,1.3-1.6,2.7-1.6c0.4,0,0.8,0,1,0c-0.1-1-0.1-2.1-0.1-3.1c0-2,0-2.2-0.1-2.8l1.5,0.1c0.1,0,0.2,0,0.2,0.2
			c0,0.1,0,0.1-0.4,0.5c-0.1,0.5-0.1,1.1-0.1,1.6c0.6,0,2,0,3.2-0.4v1.1c-0.9,0.3-2.2,0.3-3.2,0.3c0,1.5,0,1.9,0.1,2.8
			c0.7,0.2,1.4,0.4,2,0.7c0.5,0.2,1.1,0.5,1.6,0.8L1016.2,1555.9z M1011,1553.9c-0.5,0-1,0.1-1.3,0.2c-0.1,0.1-0.3,0.2-0.3,0.5
			c0,0.6,1.1,0.7,1.4,0.7c1.5,0,1.4-0.8,1.4-1.3C1011.9,1554,1011.5,1553.9,1011,1553.9z"/>
		<path class="st3" d="M1019.9,1553.6l-0.8,0.2c-0.4-1-0.6-2.1-0.6-3.2c0-1,0.2-2.2,0.4-3.4l1.2,0.2c0.1,0,0.2,0.1,0.2,0.2
			c0,0.1-0.1,0.2-0.4,0.3c-0.4,0.9-0.5,1.9-0.5,2.9c0,0.4,0,1,0.1,1c0,0,0.1,0,0.1-0.2c0.1-0.2,0.8-1.6,0.8-1.8l0.5,0.7
			C1020.6,1551.5,1020.1,1552.6,1019.9,1553.6z M1024.7,1547.7c0,0.3,0,1,0,1.9c0,2.5-0.3,5-2.2,6.6l-1.2-0.7c0.3-0.2,1-0.5,1.6-1.6
			c0.6-1.3,0.8-2.8,0.8-3.8c0-1-0.1-2-0.2-3l1.3,0.1c0.1,0,0.3,0,0.3,0.2C1025,1547.6,1024.8,1547.7,1024.7,1547.7z"/>
	</g>
	<rect id="長方形_652-2" x="930" y="1583.1" class="st0" width="120" height="20"/>
	<g class="st2">
		<path class="st3" d="M956.6,1588.3c0,0.3,0,0.9,0,1.5v3c0,0.4,0,2.1,0,2.4c0,1.9,0,2.3,0.1,3.1h-1.4c0-0.6,0-0.9,0-1.1
			c0-0.3,0-1.7,0-1.9c-0.4,0.2-1.1,0.5-1.4,0.7c-0.2,0.1-0.9,0.4-1,0.4c-0.1,0.3-0.1,0.4-0.3,0.4c-0.1,0-0.1,0-0.2-0.3l-0.3-1.1
			c1-0.2,2.7-1,3.2-1.2c0-0.4,0-0.5,0-1.4v-1.3h-2.1c-0.4,0-0.7,0-1.1,0.1v-1.2c0.4,0.1,0.9,0.1,1.1,0.1h2.1c0-0.5,0-0.6,0-1.5
			c0-0.5,0-1,0-1.2l1.3,0.1c0.2,0,0.4,0,0.4,0.2C957,1588.2,956.9,1588.2,956.6,1588.3z M961.3,1597.7h-1.8c-1.6,0-1.6-0.7-1.6-2.1
			v-5.2c0-0.3,0-2.2,0-2.6l1.2,0.1c0.2,0,0.3,0,0.3,0.2c0,0.1-0.1,0.2-0.3,0.3c0,0.9,0,1,0,1.4v1.8c0.1-0.1,1.2-0.7,2.4-2l0.9,0.9
			c0.1,0.1,0.1,0.1,0.1,0.2c0,0.1-0.1,0.1-0.2,0.1c0,0-0.1,0-0.2,0c-0.8,0.8-1.9,1.6-3,2.1v2.8c0,0.8,0.1,1.1,0.7,1.1h1
			c0.6,0,0.7-0.2,0.9-1.9l1.1,0.8C962.5,1597.2,962.2,1597.7,961.3,1597.7z"/>
		<path class="st3" d="M968,1589.7c-0.6,1.5-0.7,1.6-0.8,1.8c0.9,1.4,1,2,1,2.4c0,0.4-0.1,1.1-0.5,1.5c-0.4,0.4-0.9,0.4-1.2,0.4
			l-0.4-0.8c0,0.3,0,0.5,0,1.7c0,1,0,1.1,0,1.5h-1.2c0-0.4,0.1-3.7,0.1-3.8v-3.9v-0.4c0-0.4,0-2.1-0.1-2.4c0.6,0,1,0.1,1.1,0.1h1.1
			c0.1,0,0.8,0,0.9,0l0.5,0.6C968.5,1588.6,968.5,1588.7,968,1589.7z M966,1588.7v5.9c0.1,0,0.2,0.1,0.4,0.1c0.4,0,0.7-0.3,0.7-1
			c0-0.7-0.3-1.3-0.9-2.2l1-2.8H966z M974.4,1593.8h-0.9c-0.5,0-0.9,0-1-0.5c-0.1,0.1-0.1,0.1-0.3,0.2c0,0.1,0,0.7,0,1h0.7
			c0.7,0,1.4,0,2.1-0.1v1.2c-0.9-0.1-2-0.1-2.1-0.1h-0.7v1.6h0.6c0.9,0,1.8,0,2.7-0.1v1.2c-1.2-0.1-2.6-0.1-2.7-0.1h-2.6
			c-0.9,0-1.8,0-2.6,0.1v-1.2c0.9,0.1,2.2,0.1,2.6,0.1h0.8v-1.6h-0.2c-0.7,0-1.4,0-2.1,0.1v-1.2c0.7,0.1,1.8,0.1,2.1,0.1h0.2
			c0-0.2,0-1,0-1.1c0-0.1,0-0.2,0-0.4l1.3,0c0.1,0,0.1,0,0.2,0c0-0.2,0-0.2,0-0.5v-0.9h-1.9l0.7,0.3c0.1,0,0.2,0.1,0.2,0.2
			c0,0.1-0.1,0.2-0.4,0.2c-0.3,0.6-0.9,1.4-1.9,1.9l-0.9-0.8c1.2-0.6,1.5-0.9,1.9-1.8c-1.2,0-1.7,0.1-2,0.1v-1.2
			c0.9,0.1,2.1,0.1,2.5,0.1h0.4v-1.1h-0.2c-0.7,0-1.4,0-2.1,0.1v-1.2c0.7,0.1,1.8,0.1,2.1,0.1h0.2c0-0.8,0-0.9,0-1.2l1.3,0.1
			c0.3,0,0.3,0.1,0.3,0.2c0,0.2-0.2,0.2-0.3,0.3c0,0.4,0,0.5,0,0.6h0.7c0.7,0,1.4,0,2.1-0.1v1.2c-0.9-0.1-2-0.1-2.1-0.1h-0.7v1.1
			h0.9c0.8,0,1.7,0,2.5-0.1v1.2c-0.7-0.1-1.5-0.1-2.2-0.1v0.8c0,0.3,0,0.4,0.3,0.4h0.5c0.2,0,0.4-0.1,0.6-0.9l0.8,0.7
			C975.4,1593.7,974.9,1593.8,974.4,1593.8z"/>
		<path class="st3" d="M984.4,1598.2c0-0.2,0-0.5,0.1-0.9h-5.1c0.1,0.8,0.1,0.9,0.1,0.9h-1.3c0-0.3,0.1-0.5,0.1-0.9c0-0.4,0-2,0-2.3
			v-3.1c0-2.2,0-2.2-0.1-3.3c1.3,0.1,1.4,0.1,2.7,0.1c0.1-0.3,0.3-0.7,0.3-1.5l1.4,0.2c0.1,0,0.3,0,0.3,0.2c0,0.1,0,0.1-0.1,0.2
			c0,0-0.2,0.1-0.3,0.1c-0.2,0.4-0.2,0.5-0.3,0.7h0.9c0.9,0,1.9,0,2.8-0.1c0,0.4-0.1,0.6-0.1,1.7c0,0.3,0,0.8,0,1.1
			c0,0.1,0,0.2,0,0.3v3.3c0,0.5,0,1.1,0,1.5c0,1,0.1,1.2,0.1,1.6H984.4z M984.5,1589.9h-5.1v1.4h5.1V1589.9z M984.5,1592.3h-5.1v1.4
			h5.1V1592.3z M984.5,1594.8h-5.1v1.5h5.1V1594.8z"/>
		<path class="st3" d="M998.3,1597.4c-0.2,0.5-0.5,0.9-1.9,0.8l-0.5-1.3c0.3,0.1,0.6,0.1,0.9,0.1c0.4,0,0.6,0,0.8-1.1
			c0.2-0.8,0.4-3.2,0.3-4.7h-0.9c0,0.9-0.1,2.6-0.8,4.3c-0.4,1-1.1,2.2-2,2.8l-1.2-0.6c0.3-0.2,0.6-0.3,0.9-0.7
			c-2.2,0.3-3,0.4-5.2,0.7c-0.1,0.2-0.2,0.3-0.3,0.3c-0.1,0-0.2-0.1-0.2-0.2l-0.1-1.2c0.7,0,1.2,0,2.8-0.1v-0.8h-0.5
			c-0.4,0-1.3,0-2,0.1v-0.9c0.7,0,1.6,0.1,2,0.1h0.5v-0.6h-0.2c-0.4,0-1.4,0-1.8,0.1c0-0.3,0-1,0-1.4v-0.9c0-0.2,0-1,0-1.2
			c0.3,0,1.2,0,1.5,0h0.5v-0.5h-0.6c-0.2,0-1.1,0-2.1,0.1v-0.9c0.7,0,1.6,0.1,2.1,0.1h0.6v-0.6c-0.5,0-0.8,0-1.1,0
			c-0.3,0-0.6,0-0.8,0l-0.5-0.9c0.3,0.1,0.7,0.1,1.4,0.1c0.6,0,2.4,0,3.7-0.7l0.6,0.8c0,0,0,0.1,0,0.2c0,0.1,0,0.2-0.2,0.2
			c-0.1,0-0.3-0.1-0.4-0.1c-0.2,0.1-1,0.3-1.8,0.4v0.7h0.4c0.4,0,1.4,0,2.1-0.1v0.9c-0.6,0-1.7-0.1-2.1-0.1h-0.4v0.5h0.4
			c0.5,0,1.4,0,1.8,0c0,0.2,0,0.9,0,1v1.2c0,0.2,0,0.9,0,1.3c-0.5,0-1.1-0.1-1.8-0.1h-0.3v0.6h0.2c0.4,0,1.3,0,2-0.1v0.9
			c-0.6,0-1.6-0.1-2-0.1h-0.2v0.7c0.8-0.1,1.6-0.2,2.3-0.3l-0.1,0.7c1.6-1.7,1.8-4.6,1.8-5.6c-0.7,0-1.1,0-1.4,0v-1
			c0.3,0,0.9,0,1.4,0c0-1.4,0-1.9-0.1-2.6l1.3,0.1c0.1,0,0.2,0,0.2,0.2c0,0.1-0.2,0.2-0.3,0.3v0.4c0,0.3,0,1.4,0,1.6h0.2
			c0.3,0,1,0,1.6-0.1C999,1592.3,999,1595.9,998.3,1597.4z M991.1,1591.6h-1v0.6h1V1591.6z M991.1,1592.9h-1v0.6h1V1592.9z
			 M993.2,1591.6h-1.2v0.6h1.2V1591.6z M993.2,1592.9h-1.2v0.6h1.2V1592.9z"/>
		<path class="st3" d="M1008.1,1596.3h-1.2c0,0.7,0.1,1.3,0.1,2.1h-1.4c0.1-0.4,0.1-0.6,0.1-2.1h-1.2c-1.7,0-2.6,0-3.7,0.1v-1.1
			c1.5,0.1,3.5,0.1,3.7,0.1h1.2c0-0.4,0-0.4,0-0.8h-1c-0.4,0-1.8,0-2.3,0.1c0-0.3,0.1-1,0.1-1.6v-1.2c0-0.5,0-1.3-0.1-1.5
			c0.5,0.1,2.1,0.1,2.2,0.1h1.1c0-0.3,0-0.5,0-0.8h-1.1c0,0-1.9,0-3.3,0.1v-1.2c1.1,0.1,2.7,0.1,3.3,0.1h1c0-0.7,0-0.8-0.1-1.3
			l1.4,0c0.2,0,0.3,0,0.3,0.1c0,0.1,0,0.1-0.4,0.4c0,0.1,0,0.5,0,0.7h1.1c0.3,0,2.1,0,3.3-0.1v1.2c-1.4-0.1-3.2-0.1-3.3-0.1h-1.1
			v0.8h0.7c0.8,0,2.1,0,2.6-0.1c-0.1,0.4-0.1,1.2-0.1,1.6v1.1c0,0.3,0,1.4,0.1,1.7c-0.5,0-2.3-0.1-2.5-0.1h-0.8c0,0.3,0,0.7,0,0.8
			h1.3c1.2,0,2.4,0,3.7-0.1v1.1C1010.7,1596.4,1009.7,1596.3,1008.1,1596.3z M1005.8,1591.3h-2.2v0.8h2.2V1591.3z M1005.8,1593h-2.2
			v0.8h2.2V1593z M1009.1,1591.3h-2.3v0.8h2.3V1591.3z M1009.1,1593h-2.3v0.8h2.3V1593z"/>
		<path class="st3" d="M1014.9,1591c-0.3-0.8-0.8-1.9-1.6-2.6l0.9-0.6c0.3,0.4,1.2,1.4,1.6,2.6L1014.9,1591z M1024.1,1598.1
			c0,0-0.1,0-0.1,0c-0.7,0-6.6,0-6.8,0c-0.8-0.1-1.3-0.2-1.9-1.1c-0.2,0.3-0.6,0.6-1,0.8c0,0.3,0,0.4-0.2,0.4
			c-0.1,0-0.2-0.1-0.2-0.1l-0.5-1.2c0.8-0.4,1-0.5,1.5-0.8v-2.7h-0.6c0,0-0.4,0-0.8,0.1v-1.2c0.3,0,0.5,0.1,0.9,0.1h0.7
			c0.4,0,0.7,0,0.9-0.1c0,0.5-0.1,1-0.1,1.4v1.9v0.2c0,0.6,0.3,0.9,0.5,1.1c0.5,0.4,0.9,0.4,3.3,0.4c1,0,3.7,0,4.9-0.3
			L1024.1,1598.1z M1021.3,1590h-0.3l-0.3,0.8c0.9,0,2,0,2.7,0c0,0.4,0,1.1,0,1.9v2.8c0,0.4,0,0.7,0,1.4h-1.2c0-0.2,0-0.3,0-0.4
			h-3.7c0,0.1,0,0.2,0,0.4h-1.2c0-0.3,0-0.8,0-1.4v-2.7c0-0.7,0-1.3,0-2c0.6,0,1.5,0,2.1,0l0.3-0.8h-0.8c-0.6,0-2.2,0-2.8,0.1v-1.1
			c0.8,0.1,1.7,0.1,2.5,0.1c-0.2-0.3-0.7-0.9-1.2-1.3l1.1-0.6c0.3,0.2,0.8,0.7,1.2,1.5l-0.6,0.4h2.1h0.5l-0.6-0.3
			c0.3-0.4,0.6-0.8,0.9-1.5l1.1,0.5c0.2,0.1,0.2,0.1,0.2,0.2c0,0.2-0.3,0.2-0.4,0.2c-0.3,0.4-0.4,0.6-0.7,0.9c1.2,0,1.8-0.1,2.3-0.1
			v1.1C1023.4,1590,1022.6,1590,1021.3,1590z M1022.1,1591.6h-3.8v0.8h3.8V1591.6z M1022.1,1593.2h-3.8v0.8h3.8V1593.2z
			 M1022.1,1594.8h-3.8v0.8h3.8V1594.8z"/>
	</g>
	<rect id="長方形_652-3" x="930" y="1668" class="st0" width="120" height="20"/>
	<g class="st2">
		<path class="st3" d="M953.9,1682.5h-3.5c-1.2,0-2.4,0-3.6,0.1v-1.2c1.3,0.1,3.1,0.1,3.6,0.1h1.1v-4.7c0-0.4,0-2.3,0-2.7
			c0-0.5,0-0.8,0-1.3l1.5,0.1c0.1,0,0.3,0.1,0.3,0.2c0,0.2-0.1,0.2-0.5,0.3c0,0.7,0,3,0,3h2.4c0.4,0,0.9,0,1.3-0.1v1.2
			c-0.6-0.1-1.2-0.1-1.3-0.1h-2.4v4h1.3c1.2,0,2.4,0,3.7-0.1v1.2C956,1682.5,954.1,1682.5,953.9,1682.5z"/>
		<path class="st3" d="M962.6,1673.3c-0.1,0.3-0.3,0.8-0.8,1.8c0.2,0.1,0.2,0.1,0.2,0.2c0,0.1,0,0.1-0.2,0.3c0,0.3,0,1.6,0,2v3
			c0,0.8,0.1,1.9,0.1,2.8h-1.4c0.2-0.9,0.2-2.5,0.2-2.9v-3.6c-0.5,0.6-0.7,0.8-0.8,0.9l-0.9-0.8c0.6-0.5,1.2-1.1,1.8-2.3
			c0.4-0.7,0.8-1.5,0.9-2.3l1.2,0.6c0.1,0,0.1,0.1,0.1,0.2C963,1673.2,962.8,1673.2,962.6,1673.3z M967.6,1675.4h-2.5
			c-0.9,0-1.7,0-2.6,0.1v-1.2c0.9,0.1,2.2,0.1,2.6,0.1h2.5c0.9,0,1.8,0,2.6-0.1v1.2C969.1,1675.4,967.7,1675.4,967.6,1675.4z
			 M968.2,1683.3c0-0.1,0-0.3,0-0.4h-3.6c0,0,0,0.3,0,0.4h-1.2c0-0.6,0.1-1.1,0.1-1.3v-1.2c0-0.2,0-0.9,0-1.1c0.3,0,1.6,0,1.9,0h2.1
			c1.2,0,1.4,0,1.9,0c0,0.3,0,0.8,0,1v1.3c0,0.4,0,0.9,0.1,1.3H968.2z M967.2,1673.5h-1.7c-0.6,0-1.2,0-1.7,0.1v-1.2
			c0.6,0.1,1.5,0.1,1.7,0.1h1.7c0.6,0,1.2,0,1.7-0.1v1.2C968.2,1673.5,967.3,1673.5,967.2,1673.5z M967.2,1677.2h-1.7
			c0,0-1,0-1.7,0.1v-1.2c0.6,0.1,1.4,0.1,1.7,0.1h1.7c0.6,0,1.2,0,1.7-0.1v1.2C968.2,1677.2,967.2,1677.2,967.2,1677.2z
			 M967.2,1678.9h-1.7c0,0-1,0-1.7,0.1v-1.2c0.6,0.1,1.4,0.1,1.7,0.1h1.7c0.6,0,1.2,0,1.7-0.1v1.2
			C968.2,1678.9,967.2,1678.9,967.2,1678.9z M968.2,1680.7h-3.7v1.3h3.7V1680.7z"/>
		<path class="st3" d="M981.9,1681.2c-0.6,0-1.1-0.6-1.4-1.1c-0.2,0.2-0.8,0.9-1.5,1.4l-1-0.7c0.4-0.2,1.1-0.6,2-1.7
			c-0.4-1-0.6-2.3-0.6-3.6h-0.9v3.3c0.7-0.2,0.8-0.3,1.1-0.4l-0.1,1c-0.5,0.3-0.9,0.4-2.1,0.9c-0.1,0.2-0.1,0.3-0.2,0.3
			c0,0-0.1,0-0.2-0.2l-0.2-0.7c-0.2,0-0.5,0-0.7,0h-0.5v2c0.6,0.2,1.3,0.4,3.3,0.4c1.4,0,2.7-0.1,4.1-0.3l-0.4,1.2
			c-0.5,0-0.8,0.1-2,0.1c-3.8,0-4.4-0.2-5.2-0.4c-1.3-0.4-1.8-1-2-1.3c-0.3,0.9-0.4,1.3-0.7,1.7l-1.1-0.4c0.8-1.1,1.1-2.5,1.1-3.9
			c0-0.3,0-0.4,0-0.6l1.3,0.3c0.1,0,0.2,0.1,0.2,0.2c0,0.1-0.1,0.2-0.3,0.3c0,0.4-0.1,0.9-0.2,1.3c0.2,0.3,0.4,0.6,0.8,0.9v-3.9
			h-0.7c0,0-1.1,0-1.7,0.1v-1.1c0.5,0.1,1.5,0.1,1.7,0.1h0.7v-1.2h-0.6c-0.5,0-1,0-1.4,0.1v-1.2c0.5,0.1,1.2,0.1,1.4,0.1h0.6
			c0-0.2,0-0.9,0-1.1c0-0.1,0-0.2,0-0.4l1.3,0.1c0.1,0,0.2,0,0.2,0.1c0,0.1,0,0.1-0.3,0.3c0,0.4,0,0.4,0,1c0.4,0,0.9,0,1.2-0.1v1.2
			c-0.4-0.1-0.7-0.1-1.2-0.1v1.2c0.1,0,1,0,1.7-0.1v1.1c-0.6-0.1-1.3-0.1-1.7-0.1v1.4h0.5c0.2,0,0.7,0,0.9-0.1v0.6
			c0.1,0,0.2,0,0.5-0.1v-2.4c0-0.2,0-1.4,0-1.6c0-0.2,0-0.4,0-0.6c0.7,0.1,1.5,0.1,1.7,0.1h0.3c0-0.7-0.1-1.4-0.1-2l1.3,0.1
			c0.1,0,0.2,0,0.2,0.2c0,0.1-0.1,0.1-0.3,0.3c-0.1,0.8-0.1,1.1-0.1,1.5h0.6c0.1,0,0.7,0,0.9,0c-0.5-0.9-1-1.2-1.2-1.2l0.8-0.7
			c0.2,0.1,0.6,0.3,1.3,1.3l-0.8,0.7c0.5,0,0.6,0,0.8-0.1v1.1c-0.6-0.1-1.4-0.1-2-0.1h-0.3c0.1,1.1,0.2,1.8,0.3,2.4
			c0.2-0.6,0.4-1.2,0.5-1.8l1.2,0.4c0.1,0,0.2,0.1,0.2,0.2c0,0.1-0.1,0.2-0.3,0.2c-0.3,0.9-0.5,1.5-1,2.2c0.1,0.1,0.3,0.6,0.6,0.6
			c0.2,0,0.3-0.3,0.4-0.5c0.1-0.3,0.1-0.5,0.2-0.7l0.8,0.8C982.8,1680.5,982.4,1681.2,981.9,1681.2z"/>
		<path class="st3" d="M991.7,1683.2c0-0.2,0-0.5,0.1-0.9h-5.1c0.1,0.8,0.1,0.9,0.1,0.9h-1.3c0-0.3,0.1-0.5,0.1-0.9c0-0.4,0-2,0-2.3
			v-3.1c0-2.2,0-2.2-0.1-3.3c1.3,0.1,1.4,0.1,2.7,0.1c0.1-0.3,0.3-0.7,0.3-1.5l1.4,0.2c0.1,0,0.3,0,0.3,0.2c0,0.1,0,0.1-0.1,0.2
			c0,0-0.2,0.1-0.3,0.1c-0.2,0.4-0.2,0.5-0.3,0.7h0.9c0.9,0,1.9,0,2.8-0.1c0,0.4-0.1,0.6-0.1,1.7c0,0.3,0,0.8,0,1.1
			c0,0.1,0,0.2,0,0.3v3.3c0,0.5,0,1.1,0,1.5c0,1,0.1,1.2,0.1,1.6H991.7z M991.8,1674.8h-5.1v1.4h5.1V1674.8z M991.8,1677.3h-5.1v1.4
			h5.1V1677.3z M991.8,1679.7h-5.1v1.5h5.1V1679.7z"/>
		<path class="st3" d="M1005.6,1682.3c-0.2,0.5-0.5,0.9-1.9,0.8l-0.5-1.3c0.3,0.1,0.6,0.1,0.9,0.1c0.4,0,0.6,0,0.8-1.1
			c0.2-0.8,0.4-3.2,0.3-4.7h-0.9c0,0.9-0.1,2.6-0.8,4.3c-0.4,1-1.1,2.2-2,2.8l-1.2-0.6c0.3-0.2,0.6-0.3,0.9-0.7
			c-2.2,0.3-3,0.4-5.2,0.7c-0.1,0.2-0.2,0.3-0.3,0.3c-0.1,0-0.2-0.1-0.2-0.2l-0.1-1.2c0.7,0,1.2,0,2.8-0.1v-0.8h-0.5
			c-0.4,0-1.3,0-2,0.1v-0.9c0.7,0,1.6,0.1,2,0.1h0.5v-0.6h-0.2c-0.4,0-1.4,0-1.8,0.1c0-0.3,0-1,0-1.4v-0.9c0-0.2,0-1,0-1.2
			c0.3,0,1.2,0,1.5,0h0.5v-0.5h-0.6c-0.2,0-1.1,0-2.1,0.1v-0.9c0.7,0,1.6,0.1,2.1,0.1h0.6v-0.6c-0.5,0-0.8,0-1.1,0
			c-0.3,0-0.6,0-0.8,0l-0.5-0.9c0.3,0.1,0.7,0.1,1.4,0.1c0.6,0,2.4,0,3.7-0.7l0.6,0.8c0,0,0,0.1,0,0.2c0,0.1,0,0.2-0.2,0.2
			c-0.1,0-0.3-0.1-0.4-0.1c-0.2,0.1-1,0.3-1.8,0.4v0.7h0.4c0.4,0,1.4,0,2.1-0.1v0.9c-0.6,0-1.7-0.1-2.1-0.1h-0.4v0.5h0.4
			c0.5,0,1.4,0,1.8,0c0,0.2,0,0.9,0,1v1.2c0,0.2,0,0.9,0,1.3c-0.5,0-1.1-0.1-1.8-0.1h-0.3v0.6h0.2c0.4,0,1.3,0,2-0.1v0.9
			c-0.6,0-1.6-0.1-2-0.1h-0.2v0.7c0.8-0.1,1.6-0.2,2.3-0.3l-0.1,0.7c1.6-1.7,1.8-4.6,1.8-5.6c-0.7,0-1.1,0-1.4,0v-1
			c0.3,0,0.9,0,1.4,0c0-1.4,0-1.9-0.1-2.6l1.3,0.1c0.1,0,0.2,0,0.2,0.2c0,0.1-0.2,0.2-0.3,0.3v0.4c0,0.3,0,1.4,0,1.6h0.2
			c0.3,0,1,0,1.6-0.1C1006.3,1677.2,1006.3,1680.8,1005.6,1682.3z M998.4,1676.6h-1v0.6h1V1676.6z M998.4,1677.8h-1v0.6h1V1677.8z
			 M1000.5,1676.6h-1.2v0.6h1.2V1676.6z M1000.5,1677.8h-1.2v0.6h1.2V1677.8z"/>
		<path class="st3" d="M1015.4,1681.3h-1.2c0,0.7,0.1,1.3,0.1,2.1h-1.4c0.1-0.4,0.1-0.6,0.1-2.1h-1.2c-1.7,0-2.6,0-3.7,0.1v-1.1
			c1.5,0.1,3.5,0.1,3.7,0.1h1.2c0-0.4,0-0.4,0-0.8h-1c-0.4,0-1.8,0-2.3,0.1c0-0.3,0.1-1,0.1-1.6v-1.2c0-0.5,0-1.3-0.1-1.5
			c0.5,0.1,2.1,0.1,2.2,0.1h1.1c0-0.3,0-0.5,0-0.8h-1.1c0,0-1.9,0-3.3,0.1v-1.2c1.1,0.1,2.7,0.1,3.3,0.1h1c0-0.7,0-0.8-0.1-1.3
			l1.4,0c0.2,0,0.3,0,0.3,0.1c0,0.1,0,0.1-0.4,0.4c0,0.1,0,0.5,0,0.7h1.1c0.3,0,2.1,0,3.3-0.1v1.2c-1.4-0.1-3.2-0.1-3.3-0.1h-1.1
			v0.8h0.7c0.8,0,2.1,0,2.6-0.1c-0.1,0.4-0.1,1.2-0.1,1.6v1.1c0,0.3,0,1.4,0.1,1.7c-0.5,0-2.3-0.1-2.5-0.1h-0.8c0,0.3,0,0.7,0,0.8
			h1.3c1.2,0,2.4,0,3.7-0.1v1.1C1018,1681.3,1017,1681.3,1015.4,1681.3z M1013.1,1676.2h-2.2v0.8h2.2V1676.2z M1013.1,1677.9h-2.2
			v0.8h2.2V1677.9z M1016.4,1676.2h-2.3v0.8h2.3V1676.2z M1016.4,1677.9h-2.3v0.8h2.3V1677.9z"/>
		<path class="st3" d="M1022.2,1675.9c-0.3-0.8-0.8-1.9-1.6-2.6l0.9-0.6c0.3,0.4,1.2,1.4,1.6,2.6L1022.2,1675.9z M1031.4,1683
			c0,0-0.1,0-0.1,0c-0.7,0-6.6,0-6.8,0c-0.8-0.1-1.3-0.2-1.9-1.1c-0.2,0.3-0.6,0.6-1,0.8c0,0.3,0,0.4-0.2,0.4
			c-0.1,0-0.2-0.1-0.2-0.1l-0.5-1.2c0.8-0.4,1-0.5,1.5-0.8v-2.7h-0.6c0,0-0.4,0-0.8,0.1v-1.2c0.3,0,0.5,0.1,0.9,0.1h0.7
			c0.4,0,0.7,0,0.9-0.1c0,0.5-0.1,1-0.1,1.4v1.9v0.2c0,0.6,0.3,0.9,0.5,1.1c0.5,0.4,0.9,0.4,3.3,0.4c1,0,3.7,0,4.9-0.3L1031.4,1683z
			 M1028.6,1674.9h-0.3l-0.3,0.8c0.9,0,2,0,2.7,0c0,0.4,0,1.1,0,1.9v2.8c0,0.4,0,0.7,0,1.4h-1.2c0-0.2,0-0.3,0-0.4h-3.7
			c0,0.1,0,0.2,0,0.4h-1.2c0-0.3,0-0.8,0-1.4v-2.7c0-0.7,0-1.3,0-2c0.6,0,1.5,0,2.1,0l0.3-0.8h-0.8c-0.6,0-2.2,0-2.8,0.1v-1.1
			c0.8,0.1,1.7,0.1,2.5,0.1c-0.2-0.3-0.7-0.9-1.2-1.3l1.1-0.6c0.3,0.2,0.8,0.7,1.2,1.5l-0.6,0.4h2.1h0.5l-0.6-0.3
			c0.3-0.4,0.6-0.8,0.9-1.5l1.1,0.5c0.2,0.1,0.2,0.1,0.2,0.2c0,0.2-0.3,0.2-0.4,0.2c-0.3,0.4-0.4,0.6-0.7,0.9c1.2,0,1.8-0.1,2.3-0.1
			v1.1C1030.7,1675,1029.9,1674.9,1028.6,1674.9z M1029.4,1676.5h-3.8v0.8h3.8V1676.5z M1029.4,1678.1h-3.8v0.8h3.8V1678.1z
			 M1029.4,1679.7h-3.8v0.8h3.8V1679.7z"/>
	</g>
	<rect id="長方形_652-4" x="930" y="1764.3" class="st0" width="120" height="20"/>
	<g class="st2">
		<path class="st3" d="M975,1771.4c0,0.2,0,0.4,0,0.5v4.2c0,0.4,0,1,0,1.3c0,0.5,0.1,1.8,0.1,2.1h-1.2c0-0.2,0-0.3,0-0.5h-7.6
			c0,0.1,0,0.4,0,0.5h-1.3c0-0.3,0-0.4,0.1-1.8c0-0.4,0.1-2,0.1-2.3v-0.2v-3.4c0-0.8,0-2-0.1-2.8c0.7,0,2.5,0.1,3.3,0.1h3.2
			c0.1,0,0.5,0,0.6,0c0.6,0,0.8,0,2.8-0.1C975.1,1769.7,975,1770.7,975,1771.4z M973.9,1770h-7.6v8h7.6V1770z M971.2,1777.2H969
			c-0.7,0-1.5,0-2.2,0.1v-1.2c0.7,0.1,1.8,0.1,2.2,0.1h0.5v-2h-0.3c0,0-1,0-1.7,0.1v-1.1c0.6,0.1,1.5,0.1,1.7,0.1h0.3v-1.5
			c-0.7,0-1.1,0-2.4,0.1v-1.1c1.1,0.1,1.2,0.1,1.8,0.1h2.5c0.6,0,0.7,0,1.7-0.1v1c-1.5-0.1-2-0.1-2.5-0.1v1.5h0.3
			c0.6,0,1.2,0,1.8-0.1v1.1c-0.8-0.1-1.7-0.1-1.8-0.1h-0.3v2h0.5c0.1,0,0.7,0,0.8,0c-0.1-0.1-0.4-0.7-1-1.2l0.7-0.7
			c0.4,0.3,0.8,0.9,1,1.2l-0.7,0.6c0.8,0,0.9,0,1.3-0.1v1.2C972.4,1777.2,971.2,1777.2,971.2,1777.2z"/>
		<path class="st3" d="M978.7,1772.2c-0.3-0.8-0.8-1.9-1.6-2.6l0.9-0.6c0.3,0.4,1.2,1.4,1.6,2.6L978.7,1772.2z M987.9,1779.3
			c0,0-0.1,0-0.1,0c-0.7,0-6.6,0-6.8,0c-0.8-0.1-1.3-0.2-1.9-1.1c-0.2,0.3-0.6,0.6-1,0.8c0,0.3,0,0.4-0.2,0.4
			c-0.1,0-0.2-0.1-0.2-0.1l-0.5-1.2c0.8-0.4,1-0.5,1.5-0.8v-2.7h-0.6c0,0-0.4,0-0.8,0.1v-1.2c0.3,0,0.5,0.1,0.9,0.1h0.7
			c0.4,0,0.7,0,0.9-0.1c0,0.5-0.1,1-0.1,1.4v1.9v0.2c0,0.6,0.3,0.9,0.5,1.1c0.5,0.4,0.9,0.4,3.3,0.4c1,0,3.7,0,4.9-0.3L987.9,1779.3
			z M985.1,1771.2h-0.3l-0.3,0.8c0.9,0,2,0,2.7,0c0,0.4,0,1.1,0,1.9v2.8c0,0.4,0,0.7,0,1.4h-1.2c0-0.2,0-0.3,0-0.4h-3.7
			c0,0.1,0,0.2,0,0.4h-1.2c0-0.3,0-0.8,0-1.4v-2.7c0-0.7,0-1.3,0-2c0.6,0,1.5,0,2.1,0l0.3-0.8h-0.8c-0.6,0-2.2,0-2.8,0.1v-1.1
			c0.8,0.1,1.7,0.1,2.5,0.1c-0.2-0.3-0.7-0.9-1.2-1.3l1.1-0.6c0.3,0.2,0.8,0.7,1.2,1.5l-0.6,0.4h2.1h0.5l-0.6-0.3
			c0.3-0.4,0.6-0.8,0.9-1.5l1.1,0.5c0.2,0.1,0.2,0.1,0.2,0.2c0,0.2-0.3,0.2-0.4,0.2c-0.3,0.4-0.4,0.6-0.7,0.9c1.2,0,1.8-0.1,2.3-0.1
			v1.1C987.2,1771.2,986.4,1771.2,985.1,1771.2z M985.9,1772.8h-3.8v0.8h3.8V1772.8z M985.9,1774.4h-3.8v0.8h3.8V1774.4z
			 M985.9,1776h-3.8v0.8h3.8V1776z"/>
		<path class="st3" d="M992.4,1778.7v-6.3h-1.9v-0.8c1.9-0.1,2.1-1,2.3-1.7h0.8v8.8H992.4z"/>
		<path class="st3" d="M999.9,1779c-1.5,0-3-0.8-3-2.8c0-1.5,0.8-2,1.4-2.3c-0.7-0.3-1.1-1-1.1-1.9c0-1.6,1.1-2.3,2.7-2.3
			c1.6,0,2.7,0.8,2.7,2.3c0,0.9-0.4,1.6-1.2,1.9c0.5,0.3,1.4,0.8,1.4,2.3C1002.9,1778.3,1001.3,1779,999.9,1779z M999.9,1774.5
			c-0.8,0-1.7,0.5-1.7,1.6c0,1.2,0.7,1.7,1.7,1.7c1.1,0,1.7-0.7,1.7-1.7C1001.6,1774.9,1000.7,1774.5,999.9,1774.5z M999.9,1770.8
			c-0.9,0-1.4,0.5-1.4,1.3c0,0.7,0.4,1.4,1.4,1.4s1.4-0.7,1.4-1.4C1001.3,1771.3,1000.9,1770.8,999.9,1770.8z"/>
		<path class="st3" d="M1011.5,1774.3h-2.7c-0.3,0.9-0.3,0.9-0.5,1.1h3.3c0.5,0,1.5-0.1,2.1-0.1c-0.2,1.9-0.7,3.1-0.9,3.4
			c-0.5,0.9-1.2,0.9-2.1,0.9c-0.4,0-0.5,0-0.6,0l-0.6-1.3c0.4,0.1,0.9,0.2,1.4,0.2c0.8,0,1.2-0.4,1.5-2h-4.5c-0.1,0.2-0.4,0.7-0.6,1
			l-1.2-0.6c0.7-0.8,1.3-2.3,1.4-2.6c-0.3,0-0.9,0-1.5,0.1c-0.2,0-1.3,0.1-1.5,0.1v-1.3c1.1,0.1,2.9,0.1,3.5,0.1h3.5
			c0.3,0,2.2,0,3.5-0.1v1.2C1013.6,1774.3,1011.6,1774.3,1011.5,1774.3z M1010.7,1772.6h-2.1c-0.6,0-1.6,0-2.1,0.1
			c0.1-0.3,0.1-0.8,0.1-1.2v-0.8c0-0.4,0-1.3-0.1-1.7c0.4,0,1.9,0.1,2.3,0.1h1.9c0.5,0,1.4,0,2.1-0.1c0.1,0,0.2,0,0.3,0
			c0,0.2,0,1.2,0,1.4v0.9c0,0.3,0,1.1,0.1,1.4C1012.7,1772.6,1011.1,1772.6,1010.7,1772.6z M1012,1770h-4.3v1.5h4.3V1770z"/>
	</g>
	<rect id="長方形_652-5" x="955" y="1712.3" class="st4" width="70" height="25"/>
	<g class="st2">
		<path class="st3" d="M978.5,1721.2h-1.2v0.9h1.4c0.4,0,1.7,0,2.3,0c0,0.3,0,1.1,0,1.4v1.5c0,0.3,0,1.4,0,1.6c-0.6,0-1.4,0-2.3,0
			h-1.5c-0.1,0.9-0.4,1.5-0.6,1.8c0.6,0.5,2,1.5,5.3,1.4l-0.7,1.2c-0.3,0-0.8,0-1.6-0.1c-1.8-0.3-2.8-0.9-3.7-1.5
			c-1,1-2.3,1.5-3.8,1.7l-0.7-1.1c2.1-0.1,2.9-0.6,3.6-1.4c-0.5-0.4-0.8-0.8-1.2-1.2l0.8-0.7c-0.4,0-0.6,0-2.2,0c0-0.9,0-1.1,0-1.5
			v-1.5c0-0.4,0-1.1,0-1.5c0.8,0,1,0,2.7,0h0.9v-0.9H975c-1.5,0-2.6,0-3.5,0.1v-1.1c1.1,0.1,3,0.1,3.5,0.1h3.5c1.2,0,2.4,0,3.6-0.1
			v1.1C981.2,1721.2,980.6,1721.2,978.5,1721.2z M976.2,1723h-2.6v0.9h2.6V1723z M973.7,1724.8v0.9h2.5c0-0.1,0-0.8,0-0.9H973.7z
			 M975,1726.5c0.3,0.4,0.4,0.6,0.8,1c0.2-0.4,0.3-0.8,0.3-1H975z M979.9,1724.8h-2.5c0,0.4,0,0.4,0,0.9h2.5V1724.8z M979.9,1723
			h-2.5v0.9h2.5V1723z"/>
		<path class="st3" d="M986.4,1723.5v3.5c0.5-0.2,0.8-0.3,1.1-0.4v0.9c-1.2,0.5-1.9,0.7-2.9,1c-0.1,0.1-0.2,0.2-0.2,0.2
			c-0.1,0-0.1,0-0.2-0.3l-0.3-0.8c0.3,0,0.8-0.1,1.5-0.3v-3.8h-0.2c-0.1,0-0.8,0-1.2,0.1v-1c0.4,0,1.1,0.1,1.2,0.1h0.2
			c0-0.8,0-2.1,0-2.5l1.1,0.1c0.2,0,0.2,0,0.2,0.1c0,0.1-0.1,0.1-0.2,0.2c0,0.9,0,1.1,0,2c0.4,0,0.8,0,1.2-0.1v1
			C987.1,1723.6,986.7,1723.5,986.4,1723.5z M991.5,1730.4h-2.7l0,0.4h-1.1c0-0.5,0-2.3,0-2.5v-2.3c0-0.6,0-1.7,0-2.2l1,0.1
			c0.2,0,0.3,0,0.3,0.1c0,0.1-0.1,0.2-0.3,0.3c0,0.3,0,2.1,0,2.4v2.6h2.7c0.3,0,2.4,0,3.4-0.1v1.1
			C993.9,1730.4,991.8,1730.4,991.5,1730.4z M992.5,1722.1h-0.5v0.8h1.1c0.1,0,1.1,0,1.3,0c0,0.2,0,1.3,0,1.4v3c0,0.1,0,1.1,0,1.6
			c-0.2,0-1.3,0-1.3,0h-2.6c-0.1,0-1.1,0-1.3,0c0-0.3,0-1.4,0-1.6v-3c0-0.1,0-1,0-1.4c0.4,0,1.2,0,1.3,0h0.5v-0.8h-0.8
			c-0.2,0-1.6,0-2.3,0.1v-1.1c0.9,0.1,2.1,0.1,2.3,0.1h0.8c0-0.2,0-0.7,0-1.2l1,0.1c0.2,0,0.3,0,0.3,0.1c0,0,0,0.1-0.1,0.1
			c0,0-0.1,0.1-0.2,0.1c0,0.2,0,0.4,0,0.8h0.5c0.1,0,1.5,0,2.3-0.1v1.1C994.1,1722.1,992.9,1722.1,992.5,1722.1z M993.4,1723.9h-3
			v0.7h3V1723.9z M993.4,1725.4h-3v0.8h3V1725.4z M993.4,1726.9h-3v0.8h3V1726.9z"/>
		<path class="st3" d="M997.1,1730v-8.8h1.3v8.8H997.1z"/>
		<path class="st3" d="M1004.8,1730.2c-2.6,0-4.2-2.1-4.2-4.7c0-3,1.9-4.6,4.3-4.6c2,0,3.5,1.1,3.6,2.9h-1.3
			c-0.2-1.2-1.5-1.6-2.4-1.6c-0.6,0-1.2,0.2-1.8,0.6c-0.9,0.7-1.1,1.9-1.1,2.8c0,2.5,1.6,3.4,2.8,3.4c0.8,0,2.3-0.5,2.5-2.3h1.3
			C1008.6,1727.5,1008.3,1730.2,1004.8,1730.2z"/>
	</g>
	<g id="パス_1701" transform="translate(930 1810.853)">
		<path class="st3" d="M119.5,24.5H0.5v-24h119V24.5z"/>
		<path class="st4" d="M1,1v23h118V1H1 M0,0h120v25H0V0z"/>
	</g>
	<g class="st2">
		<path class="st5" d="M945.9,1819.1h-2.8v10.6h-0.9v-11.5h3.6V1819.1z"/>
		<path class="st5" d="M956.1,1825.4c0-0.3,0-0.3,0-0.5h-5.4c-0.1,1.2-0.4,3-2,4.6l-1.1-0.7c1.8-1.6,2-3.5,2-5.6
			c0-1.2-0.1-1.7-0.1-2.1c0.4,0,0.6,0,1.2,0c0.2,0,1.2,0,1.4,0h2.9c0.2,0,2.1,0,2.4-0.1c0,0.7,0,1,0,1.3v1.3c0,0.3,0,1.4,0,1.6
			H956.1z M954.9,1820h-3.6c-1.1,0-2.3,0-3.4,0.1v-1.2c1.2,0.1,2.9,0.1,3.4,0.1h3.6c1.2,0,2.3,0,3.4-0.1v1.2
			C956.9,1820,955.1,1820,954.9,1820z M956.1,1822.3h-5.3c0,0.3,0,0.5,0,1.6h5.4V1822.3z"/>
		<path class="st5" d="M970.7,1822.5c-0.8-0.2-1.4-0.5-2.1-0.8v0.4c-0.7-0.1-1.5-0.1-1.8-0.1H965c-0.8,0-1.4,0-1.8,0.1v-0.4
			c-0.8,0.5-1.4,0.8-2.3,1.1l-0.9-1c2.4-0.6,4.1-1.9,4.9-3.3l1.5,0.3c0.2,0,0.3,0.1,0.3,0.2c0,0,0,0.1,0,0.1c0.3,0.4,1.8,2,4.6,2.4
			L970.7,1822.5z M967.3,1825.9h-3.9c-0.3,1.2-0.8,2.2-1.8,3.2l-1.1-0.6c1.3-0.8,2.2-2.2,2.2-5.3c0-0.3,0-0.5,0-0.7
			c0.6,0,1.2,0.1,2.4,0.1h1.8c1,0,1.5,0,2.5-0.1c0,0.3,0,0.9,0,1.2v1c0,0.4,0,0.9,0,1.3C969,1826,967.8,1825.9,967.3,1825.9z
			 M968.5,1829.4c0-0.1,0-0.2,0-0.4h-3.9c0,0.2,0,0.3,0,0.4h-1.2c0-0.4,0-1,0-1.1v-0.8c0-0.3,0-0.8,0-1.1c0.5,0,1.2,0,2,0h2.2
			c0.2,0,1,0,2.2,0c0,0.2,0,0.6,0,1v0.8c0,0.5,0,0.9,0.1,1.1H968.5z M968.3,1824.6h-4.7c0,0.4-0.1,0.5-0.1,0.6h4.8V1824.6z
			 M968.3,1823.3h-4.6c0,0.1,0,0.5,0,0.6h4.6V1823.3z M965.7,1819.6c-0.6,0.8-1.4,1.4-1.5,1.5c0.5,0,0.8,0,0.9,0h1.7
			c0.2,0,0.5,0,0.7,0C966.8,1820.6,966.3,1820.2,965.7,1819.6z M968.6,1827.3h-4.1v1h4.1V1827.3z"/>
		<path class="st5" d="M973,1828.9h2.8v-10.6h0.9v11.5H973V1828.9z"/>
		<path class="st5" d="M983.4,1819.4c-0.1,0.3-0.3,0.8-0.8,1.8c0.2,0.1,0.2,0.1,0.2,0.2c0,0.1,0,0.1-0.2,0.3c0,0.3,0,1.6,0,2v3
			c0,0.8,0.1,1.9,0.1,2.8h-1.4c0.2-0.9,0.2-2.5,0.2-2.9v-3.6c-0.5,0.6-0.7,0.8-0.8,0.9l-0.9-0.8c0.6-0.5,1.2-1.1,1.8-2.3
			c0.4-0.7,0.8-1.5,0.9-2.3l1.2,0.6c0.1,0,0.1,0.1,0.1,0.2C983.8,1819.3,983.7,1819.3,983.4,1819.4z M988.5,1821.5h-2.5
			c-0.9,0-1.7,0-2.6,0.1v-1.2c0.9,0.1,2.2,0.1,2.6,0.1h2.5c0.9,0,1.8,0,2.6-0.1v1.2C990,1821.5,988.6,1821.5,988.5,1821.5z
			 M989,1829.4c0-0.1,0-0.3,0-0.4h-3.6c0,0,0,0.3,0,0.4h-1.2c0-0.6,0.1-1.1,0.1-1.3v-1.2c0-0.2,0-0.9,0-1.1c0.3,0,1.6,0,1.9,0h2.1
			c1.2,0,1.4,0,1.9,0c0,0.3,0,0.8,0,1v1.3c0,0.4,0,0.9,0.1,1.3H989z M988,1819.7h-1.7c-0.6,0-1.2,0-1.7,0.1v-1.2
			c0.6,0.1,1.5,0.1,1.7,0.1h1.7c0.6,0,1.2,0,1.7-0.1v1.2C989,1819.7,988.1,1819.7,988,1819.7z M988,1823.3h-1.7c0,0-1,0-1.7,0.1
			v-1.2c0.6,0.1,1.4,0.1,1.7,0.1h1.7c0.6,0,1.2,0,1.7-0.1v1.2C989,1823.3,988.1,1823.3,988,1823.3z M988,1825.1h-1.7
			c0,0-1,0-1.7,0.1v-1.2c0.6,0.1,1.4,0.1,1.7,0.1h1.7c0.6,0,1.2,0,1.7-0.1v1.2C989,1825.1,988.1,1825.1,988,1825.1z M989,1826.8
			h-3.7v1.3h3.7V1826.8z"/>
		<path class="st5" d="M999.9,1824.1h-2.7c-0.3,0.9-0.3,0.9-0.5,1.1h3.3c0.5,0,1.5-0.1,2.1-0.1c-0.2,1.9-0.7,3.1-0.9,3.4
			c-0.5,0.9-1.2,0.9-2.1,0.9c-0.4,0-0.5,0-0.6,0l-0.6-1.3c0.4,0.1,0.9,0.2,1.4,0.2c0.8,0,1.2-0.4,1.5-2h-4.5c-0.1,0.2-0.4,0.7-0.6,1
			l-1.2-0.6c0.7-0.8,1.3-2.3,1.4-2.6c-0.3,0-0.9,0-1.5,0.1c-0.2,0-1.3,0.1-1.5,0.1v-1.3c1.1,0.1,2.9,0.1,3.5,0.1h3.5
			c0.3,0,2.2,0,3.5-0.1v1.2C1001.9,1824.1,1000,1824.1,999.9,1824.1z M999.1,1822.4H997c-0.6,0-1.6,0-2.1,0.1
			c0.1-0.3,0.1-0.8,0.1-1.2v-0.8c0-0.4,0-1.3-0.1-1.7c0.4,0,1.9,0.1,2.3,0.1h1.9c0.5,0,1.4,0,2.1-0.1c0.1,0,0.2,0,0.3,0
			c0,0.2,0,1.2,0,1.4v0.9c0,0.3,0,1.1,0.1,1.4C1001.1,1822.4,999.5,1822.4,999.1,1822.4z M1000.4,1819.8h-4.3v1.5h4.3V1819.8z"/>
		<path class="st5" d="M1012.6,1821.9h-2.1c-0.3,1-0.5,1.5-0.7,1.8c0.1,0,0.7,0,0.8,0h2.1c0.6,0,1.7,0,2.3-0.1c0,0.7,0,1.3,0,2v1.9
			c0,0.9,0,1.4,0.1,1.8h-1.2c0,0,0.1-0.6,0.1-0.7h-4.2c0,0.2,0,0.5,0.1,0.7h-1.3c0-0.2,0-0.7,0-0.9c0-0.3,0-0.9,0-1.1v-1.6
			c-0.8,1-2,1.8-2.6,2.1l-0.9-1.1c2.1-0.9,3.6-2.8,4.2-4.8h-0.3c-1.2,0-2.4,0-3.6,0.1v-1.2c1.2,0.1,3,0.1,3.6,0.1h0.6
			c0.2-1.2,0.2-1.9,0.2-2.4l1.4,0.3c0.3,0,0.3,0.1,0.3,0.2c0,0.2-0.3,0.3-0.4,0.3c-0.1,0.5-0.1,1-0.3,1.6h1.9c1.2,0,2.4,0,3.6-0.1
			v1.2C1014.7,1821.9,1012.8,1821.9,1012.6,1821.9z M1014,1824.8h-4.2v2.8h4.2V1824.8z"/>
		<path class="st5" d="M1020.8,1824.9v1.6v1.8c0,0.6-0.1,1.2-1.9,1l-0.7-1.3c0.4,0.1,0.7,0.1,1.1,0.1c0.4,0,0.4,0,0.4-0.7v-2.2
			c-0.5,0.2-0.7,0.3-1,0.4c-0.1,0.2-0.1,0.3-0.2,0.3c-0.1,0-0.1-0.1-0.2-0.2l-0.3-1.2c0.9-0.2,1.4-0.4,1.8-0.5v-2.3h-0.3
			c-0.5,0-0.9,0-1.4,0.1v-1.2c0.5,0.1,1.2,0.1,1.4,0.1h0.3c0-1.1,0-1.3,0-2.4l1.2,0.1c0.1,0,0.2,0,0.2,0.1c0,0.1-0.1,0.1-0.2,0.2
			c0,0.9,0,1,0,1.9c0.1,0,0.8,0,1.4-0.1v1.2c-0.6-0.1-1.3-0.1-1.4-0.1v1.9c0.7-0.3,1.1-0.4,1.4-0.6v1.1
			C1021.7,1824.5,1021.3,1824.7,1020.8,1824.9z M1026.9,1823.4v2.6c0,0.2,0.1,2.2,0.1,2.6l0,0.8h-1.3c0-0.9,0.1-2.6,0.1-3.3v-2.6
			h-1.7c-0.1,1.8-0.3,3.9-1.9,5.6l-1-0.8c1-0.9,1.4-2.2,1.5-2.7c0.2-0.7,0.3-2.1,0.3-2.6v-1.7c0-0.4,0-1.2-0.1-1.9
			c0.2,0,0.7,0,1.1,0c1.2,0,2.5-0.2,3.5-0.8l1,0.8c0.1,0.1,0.1,0.1,0.1,0.1c0,0.1-0.1,0.1-0.2,0.1c-0.1,0-0.1,0-0.2,0
			c-1.3,0.6-2.7,0.8-4,0.8l0,1.9h2.1c0.6,0,2.1,0,2.7-0.1v1.2C1028.3,1823.4,1028.1,1823.4,1026.9,1823.4z"/>
	</g>
	<g id="パス_1701-2" transform="translate(955 1616.346)">
		<path class="st3" d="M69.5,24.5h-69v-24h69V24.5z"/>
		<path class="st4" d="M1,1v23h68V1H1 M0,0h70v25H0V0z"/>
	</g>
	<g class="st2">
		<path class="st5" d="M973,1633.4h-3.5c-1.2,0-2.4,0-3.6,0.1v-1.2c1.3,0.1,3.1,0.1,3.6,0.1h1.1v-4.7c0-0.4,0-2.3,0-2.7
			c0-0.5,0-0.8,0-1.3l1.5,0.1c0.1,0,0.3,0.1,0.3,0.2c0,0.2-0.1,0.2-0.5,0.3c0,0.7,0,3,0,3h2.4c0.4,0,0.9,0,1.3-0.1v1.2
			c-0.6-0.1-1.2-0.1-1.3-0.1h-2.4v4h1.3c1.2,0,2.4,0,3.7-0.1v1.2C975.1,1633.4,973.1,1633.4,973,1633.4z"/>
		<path class="st5" d="M988.3,1632.1c-0.6,0-1.1-0.6-1.4-1.1c-0.2,0.2-0.8,0.9-1.5,1.4l-1-0.7c0.4-0.2,1.1-0.6,2-1.7
			c-0.4-1-0.6-2.3-0.6-3.6h-0.9v3.3c0.7-0.2,0.8-0.3,1.1-0.4l-0.1,1c-0.5,0.3-0.9,0.4-2.1,0.9c-0.1,0.2-0.1,0.3-0.2,0.3
			c0,0-0.1,0-0.2-0.2l-0.2-0.7c-0.2,0-0.5,0-0.7,0h-0.5v2c0.6,0.2,1.3,0.4,3.3,0.4c1.4,0,2.7-0.1,4.1-0.3l-0.4,1.2
			c-0.5,0-0.8,0.1-2,0.1c-3.8,0-4.4-0.2-5.2-0.4c-1.3-0.4-1.8-1-2-1.3c-0.3,0.9-0.4,1.3-0.7,1.7l-1.1-0.4c0.8-1.1,1.1-2.5,1.1-3.9
			c0-0.3,0-0.4,0-0.6l1.3,0.3c0.1,0,0.2,0.1,0.2,0.2c0,0.1-0.1,0.2-0.3,0.3c0,0.4-0.1,0.9-0.2,1.3c0.2,0.3,0.4,0.6,0.8,0.9v-3.9
			h-0.7c0,0-1.1,0-1.7,0.1v-1.1c0.5,0.1,1.5,0.1,1.7,0.1h0.7v-1.2h-0.6c-0.5,0-1,0-1.4,0.1v-1.2c0.5,0.1,1.2,0.1,1.4,0.1h0.6
			c0-0.2,0-0.9,0-1.1c0-0.1,0-0.2,0-0.4l1.3,0.1c0.1,0,0.2,0,0.2,0.1c0,0.1,0,0.1-0.3,0.3c0,0.4,0,0.4,0,1c0.4,0,0.9,0,1.2-0.1v1.2
			c-0.4-0.1-0.7-0.1-1.2-0.1v1.2c0.1,0,1,0,1.7-0.1v1.1c-0.6-0.1-1.3-0.1-1.7-0.1v1.4h0.5c0.2,0,0.7,0,0.9-0.1v0.6
			c0.1,0,0.2,0,0.5-0.1v-2.4c0-0.2,0-1.4,0-1.6c0-0.2,0-0.4,0-0.6c0.7,0.1,1.5,0.1,1.7,0.1h0.3c0-0.7-0.1-1.4-0.1-2l1.3,0.1
			c0.1,0,0.2,0,0.2,0.2c0,0.1-0.1,0.1-0.3,0.3c-0.1,0.8-0.1,1.1-0.1,1.5h0.6c0.1,0,0.7,0,0.9,0c-0.5-0.9-1-1.2-1.2-1.2l0.8-0.7
			c0.2,0.1,0.6,0.3,1.3,1.3l-0.8,0.7c0.5,0,0.6,0,0.8-0.1v1.1c-0.6-0.1-1.4-0.1-2-0.1h-0.3c0.1,1.1,0.2,1.8,0.3,2.4
			c0.2-0.6,0.4-1.2,0.5-1.8l1.2,0.4c0.1,0,0.2,0.1,0.2,0.2c0,0.1-0.1,0.2-0.3,0.2c-0.3,0.9-0.5,1.5-1,2.2c0.1,0.1,0.3,0.6,0.6,0.6
			c0.2,0,0.3-0.3,0.4-0.5c0.1-0.3,0.1-0.5,0.2-0.7l0.8,0.8C989.2,1631.4,988.9,1632.1,988.3,1632.1z"/>
		<path class="st5" d="M993.4,1633.6c-1.2,0-2-0.7-2.3-1.4c-0.2-0.5-0.2-0.8-0.2-1.7h1.3c0,0.1,0,0.4,0,0.5c0,0.8,0.3,1.5,1.2,1.5
			c0.7,0,1.1-0.4,1.1-1.4v-6.5h1.3v6.6C995.8,1631.7,995.8,1633.6,993.4,1633.6z"/>
		<path class="st5" d="M1002.2,1633.6c-2.6,0-4.2-2.1-4.2-4.7c0-3,1.9-4.6,4.3-4.6c2,0,3.5,1.1,3.6,2.9h-1.3
			c-0.2-1.2-1.5-1.6-2.4-1.6c-0.6,0-1.2,0.2-1.8,0.6c-0.9,0.7-1.1,1.9-1.1,2.8c0,2.5,1.6,3.4,2.8,3.4c0.8,0,2.3-0.5,2.5-2.3h1.3
			C1005.9,1630.9,1005.6,1633.6,1002.2,1633.6z"/>
		<path class="st5" d="M1011.6,1625.8v7.6h-1.3v-7.6h-2.9v-1.2h7.1v1.2H1011.6z"/>
	</g>
</g>
</svg>
