<?xml version="1.0" encoding="utf-8"?>
<!-- Generator: Adobe Illustrator 28.1.0, SVG Export Plug-In . SVG Version: 6.00 Build 0)  -->
<svg version="1.1" id="レイヤー_1" xmlns="http://www.w3.org/2000/svg" xmlns:xlink="http://www.w3.org/1999/xlink" x="0px"
	 y="0px" viewBox="0 0 140 256.1" style="enable-background:new 0 0 140 256.1;" xml:space="preserve">
<style type="text/css">
	.st0{fill:#7F4F21;}
	.st1{fill:#FFFFFF;}
	.st2{enable-background:new    ;}
	.st3{fill:#2B2624;}
</style>
<g id="グループ_1332" transform="translate(-894 -823.914)">
	<path id="パス_1705" class="st0" d="M963,869.3h2v192.6h-2V869.3z"/>
	<g id="パス_1701" transform="translate(904 962.324)">
		<path class="st1" d="M119,24H1V1h118V24z"/>
		<path class="st0" d="M2,2v21h116V2H2 M0,0h120v25H0V0z"/>
	</g>
	<g id="パス_1701-2" transform="translate(904 1055.063)">
		<path class="st1" d="M119,24H63H1V1h118V24z"/>
		<path class="st0" d="M2,2v21h116V2H2 M0,0h120v25H0V0z"/>
	</g>
	<g class="st2">
		<path class="st3" d="M948.8,1069.8c0,0.3-0.1,0.6-0.2,0.9c-0.2,1.1-0.6,2-1.3,2.9c-0.1,0.1-0.2,0.2-0.2,0.2
			c-0.1,0-0.1-0.1-0.2-0.2c-0.3-0.3-0.6-0.5-0.9-0.7c0.8-0.8,1.2-1.9,1.4-3c0.1-0.8,0.2-1.3,0.2-2.2c0-1.3,0-1.9,0-1.9
			c0-0.1,0-0.1,0.1-0.1c0.1,0,0.5,0,1.7,0h4.4c1.2,0,1.6,0,1.7,0c0.1,0,0.1,0,0.1,0.1c0,0.1,0,0.4,0,1.2v2.1c0,0.8,0,1.1,0,1.2
			c0,0.1,0,0.1-0.1,0.1h-1.1c-0.1,0-0.1,0-0.1-0.1v-0.5H948.8z M948,1064.7c-1.1,0-1.5,0-1.5,0c-0.1,0-0.1,0-0.1-0.1v-1
			c0-0.1,0-0.1,0.1-0.1c0.1,0,0.5,0,1.5,0h7.1c1.1,0,1.5,0,1.5,0c0.1,0,0.1,0,0.1,0.1v1c0,0.1,0,0.1-0.1,0.1c-0.1,0-0.4,0-1.5,0H948
			z M948.9,1066.9v1.7h5.4v-1.7H948.9z"/>
		<path class="st3" d="M961.4,1070.8c-0.3,0.9-0.8,1.6-1.6,2.4c-0.1,0.1-0.2,0.2-0.2,0.2s-0.1-0.1-0.2-0.2c-0.2-0.3-0.5-0.5-0.7-0.7
			c0.9-0.7,1.3-1.3,1.6-2.2c0.2-0.6,0.4-1.4,0.4-2.6c0-0.6,0-1,0-1.1c-0.4,0.2-0.9,0.5-1.3,0.7c-0.1,0.1-0.2,0.1-0.3,0.1
			c-0.1,0-0.1-0.1-0.2-0.3c-0.1-0.3-0.3-0.5-0.5-0.7c2-0.8,3.7-1.9,4.6-2.9c0.2-0.2,0.4-0.4,0.5-0.6c0.5,0.1,0.9,0.1,1.3,0.2
			c0.1,0,0.2,0.1,0.2,0.1s-0.1,0.1-0.2,0.2c1.2,1.2,3,2.2,5,2.9c-0.2,0.3-0.3,0.5-0.4,0.8c-0.1,0.2-0.1,0.3-0.2,0.3
			c-0.1,0-0.1,0-0.3-0.1c-1.2-0.5-2.2-1.1-3.2-1.8v0.4c0,0.1,0,0.1-0.1,0.1c-0.1,0-0.3,0-1,0h-1c-0.7,0-0.9,0-1,0
			c-0.1,0-0.1,0-0.1-0.1v-0.4c-0.5,0.4-1,0.7-1.6,1c0.1,0,0.5,0,1.6,0h3.4c1.1,0,1.5,0,1.6,0c0.1,0,0.1,0,0.1,0.1c0,0.1,0,0.3,0,1
			v1.5c0,0.7,0,0.9,0,1c0,0.1,0,0.1-0.1,0.1c-0.1,0-0.5,0-1.6,0h-4.1C961.5,1070.3,961.5,1070.5,961.4,1070.8
			c0.1-0.1,0.1-0.1,0.1-0.1c0.1,0,0.5,0,1.6,0h3.2c1.1,0,1.5,0,1.6,0c0.1,0,0.1,0,0.1,0.1c0,0.1,0,0.3,0,0.7v0.7c0,1.2,0,1.4,0,1.5
			c0,0.1,0,0.1-0.1,0.1h-1c-0.1,0-0.1,0-0.1-0.1v-0.3h-4.2v0.3c0,0.1,0,0.1-0.1,0.1h-1c-0.1,0-0.1,0-0.1-0.1c0-0.1,0-0.3,0-1.5v-0.6
			C961.4,1071.1,961.4,1070.9,961.4,1070.8L961.4,1070.8z M966.2,1068.7h-4.4c0,0.2,0,0.4-0.1,0.6h4.4V1068.7z M961.9,1067.3v0.6
			h4.3v-0.6H961.9z M962.6,1072.4h4.2v-0.8h-4.2V1072.4z M964.5,1065.1c0.4,0,0.6,0,0.7,0c-0.5-0.4-0.9-0.7-1.3-1.1
			c-0.4,0.4-0.8,0.8-1.2,1.1H964.5z"/>
		<path class="st3" d="M972.2,1070c0.2,0.1,0.2,0.1,0.2,0.2c0,1-0.2,1.9-0.4,2.7c0,0.1-0.1,0.1-0.2,0.1l-0.4-0.3
			c-0.1-0.1-0.1-0.1-0.1-0.2c0.2-0.7,0.4-1.5,0.4-2.5c0-0.1,0-0.1,0.2-0.1L972.2,1070z M973.1,1069.4c-0.8,0-1.1,0-1.3,0
			c-0.1,0-0.1,0-0.1-0.1c0-0.1,0-0.5,0-1.5v-3c0-0.9,0-1.4,0-1.5c0-0.1,0-0.1,0.1-0.1c0.1,0,0.4,0,1.3,0h1.9c0.8,0,1.1,0,1.2,0
			c0.1,0,0.1,0,0.1,0.1v0.8c0,0.1,0,0.1-0.1,0.1c-0.1,0-0.4,0-1.2,0h-0.2v0.8c0.8,0,1,0,1.1,0c0.1,0,0.1,0,0.1,0.1v0.7
			c0,0.1,0,0.1-0.1,0.1c-0.1,0-0.3,0-1.1,0v0.8c0.7,0,1,0,1.1,0c0.1,0,0.1,0,0.1,0.1v0.7c0,0.1,0,0.1-0.1,0.1c-0.1,0-0.3,0-1.1,0
			v0.9h0.2c0.8,0,1,0,1.1,0c0.1,0,0.1,0,0.1,0.2l0,0.8c0,1.7-0.1,2.6-0.3,3.2c0.5-0.8,0.8-1.8,1-2.9c0.1-1,0.2-2.2,0.2-4.3
			c0-1.2,0-1.8,0-1.9c0-0.1,0-0.1,0.1-0.1c0.1,0,0.4,0,1.3,0h1.8c0.9,0,1.3,0,1.3,0c0.1,0,0.1,0,0.1,0.1c0,0.1,0,0.4,0,1.2v2.3
			c0,0.8,0,1.1,0,1.2c0,0.1,0,0.1-0.1,0.1h-0.9c-0.1,0-0.1,0-0.1-0.1v-0.2h-0.4c0.2,2,0.8,3.5,2.2,4.8c-0.2,0.2-0.5,0.4-0.7,0.7
			c-0.1,0.2-0.2,0.2-0.2,0.2c-0.1,0-0.1-0.1-0.2-0.2c-1.4-1.5-1.9-3.3-2.1-5.5h-0.9c0,0.8-0.1,1.5-0.2,2.2c-0.2,1.2-0.5,2.4-1.1,3.4
			c-0.1,0.1-0.1,0.2-0.2,0.2c-0.1,0-0.1-0.1-0.3-0.2c-0.2-0.2-0.4-0.4-0.6-0.6c-0.2,0.4-0.7,0.7-1.2,0.7c-0.2,0-0.4,0-0.5,0
			c-0.2,0-0.2,0-0.3-0.4c0-0.3-0.1-0.6-0.2-0.8c0.4,0,0.6,0.1,0.9,0.1s0.4-0.1,0.5-0.3c0.1-0.3,0.2-1,0.3-2.8H973.1z M973,1070
			c0.1,0,0.2,0,0.2,0.1c0.1,0.7,0.2,1.4,0.2,2.1c0,0.1,0,0.1-0.1,0.2l-0.4,0.1c-0.1,0-0.2,0-0.2-0.1c0-0.8,0-1.5-0.1-2.2
			c0-0.1,0-0.1,0.1-0.2L973,1070z M973.8,1065.1v-0.8h-1v0.8H973.8z M973.8,1066.8v-0.8h-1v0.8H973.8z M973.8,1068.5v-0.9h-1v0.9
			H973.8z M973.7,1069.9c0.1,0,0.1,0,0.2,0.1c0.1,0.5,0.2,1.1,0.3,1.7c0,0.1,0,0.1-0.1,0.2l-0.3,0.1c-0.1,0.1-0.2,0.1-0.2-0.1
			c0-0.6-0.1-1.3-0.3-1.8c0-0.1,0-0.1,0.1-0.2L973.7,1069.9z M974.4,1069.8c0.1,0,0.1,0,0.2,0.1c0.1,0.4,0.2,0.8,0.3,1.3
			c0,0.1,0,0.1-0.1,0.2l-0.3,0.1c-0.1,0.1-0.1,0-0.2-0.1c-0.1-0.5-0.2-1-0.3-1.4c0-0.1,0-0.1,0.1-0.2L974.4,1069.8z M978.1,1064.6
			v1.1c0,0.5,0,0.9,0,1.2h2.4v-2.3H978.1z"/>
	</g>
	<path id="長方形_652" class="st3" d="M906.5,823.9h115c6.9,0,12.5,5.6,12.5,12.5l0,0c0,6.9-5.6,12.5-12.5,12.5h-115
		c-6.9,0-12.5-5.6-12.5-12.5l0,0C894,829.5,899.6,823.9,906.5,823.9z"/>
	<g class="st2">
		<path class="st1" d="M926.6,832.8c-1.2,0-1.6,0-1.7,0c-0.1,0-0.2,0-0.2-0.2v-1c0-0.1,0-0.2,0.2-0.2c0.1,0,0.5,0,1.7,0h3.6
			c0-0.6,0-1-0.1-1.5c0.5,0,1,0,1.5,0.1c0.1,0,0.2,0.1,0.2,0.1c0,0.1,0,0.2-0.1,0.3c-0.1,0.2-0.1,0.4-0.1,0.9h3.8c1.2,0,1.6,0,1.7,0
			c0.1,0,0.1,0,0.1,0.2v1c0,0.1,0,0.2-0.1,0.2c-0.1,0-0.5,0-1.7,0h-3.8v0.9h2.2c1.4,0,1.9,0,1.9,0c0.2,0,0.2,0,0.2,0.2
			c0,0.1,0,0.4,0,1.3v2.3c0,0.9,0,1.2,0,1.3c0,0.1,0,0.2-0.2,0.2c-0.1,0-0.6,0-1.9,0h-1.2c1.4,1.2,3.2,2,5.1,2.5
			c-0.3,0.3-0.4,0.6-0.6,1c-0.1,0.3-0.2,0.4-0.3,0.4c-0.1,0-0.2,0-0.3-0.1c-1.8-0.7-3.7-1.7-5-3.1c0,1.7,0.1,3.1,0.1,3.3
			c0,0.1,0,0.2-0.2,0.2h-1.3c-0.1,0-0.2,0-0.2-0.2c0-0.2,0.1-1.6,0.1-3.3c-1.2,1.4-2.8,2.4-4.6,3.1c-0.2,0.1-0.3,0.1-0.3,0.1
			c-0.1,0-0.2-0.1-0.3-0.3c-0.2-0.4-0.4-0.6-0.6-0.9c1.9-0.6,3.5-1.4,4.8-2.6h-0.9c-1.4,0-1.9,0-1.9,0c-0.1,0-0.2,0-0.2-0.2
			c0-0.1,0-0.4,0-1.3v-2.3c0-0.9,0-1.2,0-1.3c0-0.2,0-0.2,0.2-0.2c0.1,0,0.6,0,1.9,0h1.9v-0.9H926.6z M930.1,835.8v-1h-2.6v1H930.1z
			 M930.1,837.8v-1h-2.6v1H930.1z M931.6,834.8v1h2.8v-1H931.6z M934.4,836.8h-2.8v1h2.8V836.8z"/>
		<path class="st1" d="M941.8,839.2c0.2-0.2,0.3-0.5,0.4-0.8c0.4,0.2,0.9,0.4,1.2,0.6c0.1,0.1,0.2,0.1,0.2,0.2
			c0,0.1-0.1,0.2-0.2,0.2c-0.1,0.1-0.2,0.2-0.4,0.4c-0.5,0.7-1.3,1.5-2.3,2.2c-0.2,0.1-0.3,0.2-0.3,0.2c-0.1,0-0.2-0.1-0.3-0.3
			c-0.2-0.3-0.5-0.6-0.7-0.7C940.4,840.6,941.2,840,941.8,839.2z M941.6,833c-1.3,0-1.7,0-1.8,0c-0.2,0-0.2,0-0.2-0.1v-1.1
			c0-0.1,0-0.2,0.2-0.2c0.1,0,0.5,0,1.8,0h3.3v-0.2c0-0.6,0-1-0.1-1.3c0.5,0,1,0,1.5,0.1c0.1,0,0.2,0.1,0.2,0.1
			c0,0.1-0.1,0.2-0.1,0.3c0,0.1-0.1,0.3-0.1,0.8v0.2h3.5c1.3,0,1.7,0,1.8,0c0.1,0,0.2,0,0.2,0.2v1.1c0,0.1,0,0.1-0.2,0.1
			c-0.1,0-0.5,0-1.8,0H941.6z M947.9,834c1.4,0,1.8,0,1.9,0c0.1,0,0.2,0,0.2,0.2c0,0.1,0,0.4,0,1.1v1.5c0,0.7,0,1.1,0,1.1
			c0,0.1,0,0.2-0.2,0.2c-0.1,0-0.6,0-1.9,0h-1.4v1.4c0,0.6,0,1.2,0,1.8c0,0.6-0.1,0.9-0.4,1.2c-0.3,0.3-0.7,0.3-2,0.3
			c-0.4,0-0.4,0-0.5-0.4c-0.1-0.4-0.2-0.7-0.4-1c0.5,0.1,0.9,0.1,1.3,0.1c0.5,0,0.6-0.2,0.6-0.5v-2.9h-1.6c-1.3,0-1.8,0-1.9,0
			c-0.2,0-0.2,0-0.2-0.2c0-0.1,0-0.4,0-1.1v-1.5c0-0.8,0-1,0-1.1c0-0.1,0-0.2,0.2-0.2c0.1,0,0.6,0,1.9,0H947.9z M948.5,835.3h-5.7
			v1.5h5.7V835.3z M948.8,838.5c0.2-0.1,0.2-0.1,0.3,0c0.8,1,1.8,1.8,3,2.5c-0.3,0.2-0.5,0.5-0.7,0.9c-0.1,0.2-0.2,0.3-0.3,0.3
			c-0.1,0-0.2-0.1-0.3-0.2c-1.2-0.8-2.1-1.8-2.9-2.8c-0.1-0.1,0-0.2,0.1-0.3L948.8,838.5z"/>
		<path class="st1" d="M956.1,833.9c-1.2,0-1.7,0-1.8,0c-0.1,0-0.2,0-0.2-0.2v-1.1c0-0.2,0-0.2,0.2-0.2c0.1,0,0.5,0,1.8,0h3.4v-0.9
			c0-0.6,0-1-0.1-1.4c0.5,0,1.1,0,1.5,0.1c0.1,0,0.2,0.1,0.2,0.2c0,0.1,0,0.2-0.1,0.3c-0.1,0.1-0.1,0.3-0.1,0.8v1h3.7
			c1.3,0,1.7,0,1.8,0c0.1,0,0.1,0,0.1,0.2v1.1c0,0.2,0,0.2-0.1,0.2c-0.1,0-0.5,0-1.8,0h-4.8c0,0.6-0.1,1.2-0.1,1.7h3.4
			c1.2,0,1.6,0,1.7,0c0.1,0,0.2,0,0.2,0.2c0,0.4,0,0.7-0.1,1.1c-0.1,2.1-0.3,3.4-0.5,4.2c-0.3,1.3-0.9,1.7-2.3,1.7
			c-0.3,0-0.6,0-1.1,0c-0.4,0-0.4-0.1-0.4-0.5c-0.1-0.4-0.2-0.8-0.3-1.1c0.7,0.1,1.4,0.1,1.7,0.1c0.5,0,0.7-0.2,0.8-0.7
			c0.2-0.7,0.4-2,0.4-3.6h-3.8c-0.5,2.6-1.7,4.2-4.1,5.6c-0.2,0.1-0.3,0.2-0.3,0.2c-0.1,0-0.2-0.1-0.3-0.3c-0.2-0.3-0.5-0.6-0.8-0.9
			c3.2-1.6,4.3-3.5,4.3-7.8H956.1z"/>
		<path class="st1" d="M970.8,832.1c-1.2,0-1.7,0-1.8,0c-0.1,0-0.2,0-0.2-0.1v-1.1c0-0.1,0-0.2,0.2-0.2c0.1,0,0.5,0,1.8,0h8.5
			c1.3,0,1.7,0,1.8,0c0.2,0,0.2,0,0.2,0.2v1.1c0,0.1,0,0.1-0.2,0.1c-0.1,0-0.5,0-1.8,0h-3.6c-0.2,0.6-0.4,1.1-0.7,1.6h3.7
			c1.3,0,1.8,0,1.9,0c0.1,0,0.2,0,0.2,0.2c0,0.1,0,0.7,0,2.6v2.5c0,3.1,0,3.7,0,3.8c0,0.1,0,0.2-0.2,0.2h-1.2c-0.1,0-0.2,0-0.2-0.2
			v-0.5h-8.3v0.6c0,0.1,0,0.2-0.2,0.2h-1.2c-0.1,0-0.2,0-0.2-0.2c0-0.1,0-0.7,0-3.8v-2.2c0-2.2,0-2.9,0-3c0-0.1,0-0.2,0.2-0.2
			c0.1,0,0.6,0,1.9,0h1.9c0.3-0.5,0.5-1.1,0.7-1.6H970.8z M970.9,841h1.7v-6.1h-1.7V841z M976.2,836.1v-1.2H974v1.2H976.2z
			 M976.2,838.5v-1.2H974v1.2H976.2z M976.2,841v-1.3H974v1.3H976.2z M977.5,834.9v6.1h1.8v-6.1H977.5z"/>
	</g>
	<g class="st2">
		<path class="st1" d="M990.5,835.5c0.1,0,0.1,0,0.1,0.1c0.1,0.3,0.2,0.6,0.3,0.9c0,0.1,0,0.1-0.1,0.2c-0.9,0.3-1.9,0.4-2.8,0.5
			c0,0.9,0.1,1.5,0.2,2.5c1.1,0.3,2.2,0.8,3.2,1.4c0.1,0,0.1,0.1,0,0.2c-0.2,0.3-0.4,0.7-0.6,0.9c-0.1,0.1-0.1,0.1-0.2,0
			c-0.8-0.6-1.5-1-2.4-1.4c0,0.1,0,0.2,0,0.3c0,0.9-0.7,1.7-2.2,1.7c-1.4,0-2.3-0.6-2.3-1.6c0-1,1-1.7,2.4-1.7c0.4,0,0.7,0,0.9,0
			c-0.1-1.4-0.2-2.5-0.2-3.5c0-0.4,0-1,0-1.5c0-0.4,0-0.7-0.2-1c0.5,0,0.9,0.1,1.4,0.2c0.1,0,0.2,0.1,0.2,0.2c0,0.1,0,0.1-0.1,0.2
			c-0.1,0.2-0.1,0.3-0.1,0.6c0,0.3,0,0.8,0,1.4C988.9,835.9,989.7,835.8,990.5,835.5z M987,840.6c-0.4-0.1-0.7-0.1-1-0.1
			c-0.8,0-1.3,0.3-1.3,0.6c0,0.4,0.4,0.6,1.1,0.6c0.8,0,1.2-0.5,1.2-0.9L987,840.6z"/>
		<path class="st1" d="M995.8,833.8c0.1,0.1,0.2,0.1,0.2,0.2c0,0.1,0,0.1-0.1,0.2c-0.1,0.1-0.1,0.2-0.2,0.5
			c-0.2,0.7-0.2,1.5-0.3,2.1c0,0.4-0.1,0.8,0,1.2c0.2-0.4,0.5-0.8,0.8-1.4c0.1,0.3,0.2,0.5,0.3,0.7c0.1,0.1,0.1,0.1,0.1,0.2
			c0,0.1,0,0.2-0.1,0.3c-0.2,0.5-0.5,0.9-0.6,1.4c0,0.1,0,0.2-0.1,0.3c0,0.1,0,0.2-0.1,0.2c-0.1,0-0.6,0.1-0.9,0.1
			c-0.1,0-0.1-0.1-0.2-0.1c-0.2-0.5-0.3-1.3-0.3-2.2c0-0.7,0.1-1.6,0.3-2.7c0-0.4,0.1-0.8,0.1-1.3
			C995.1,833.5,995.5,833.7,995.8,833.8z M999.4,833.6c0.2,0.1,0.2,0.1,0.2,0.3c0,0.2,0,0.4,0,0.5c0.1,1,0.2,2,0.2,2.8
			c0,1.6-0.3,2.9-0.8,3.8c-0.4,0.7-1.1,1.3-1.8,1.8c-0.1,0.1-0.2,0.1-0.2,0.1c-0.1,0-0.1,0-0.2-0.1c-0.2-0.2-0.6-0.4-0.9-0.5
			c0.9-0.5,1.4-0.9,1.9-1.5c0.6-0.9,0.9-1.8,0.9-3.5c0-0.8-0.1-1.9-0.1-2.6c-0.1-0.5-0.1-0.8-0.2-1.2
			C998.6,833.5,999.1,833.5,999.4,833.6z"/>
	</g>
	<g id="パス_1701-3" transform="translate(904 866.563)">
		<path class="st1" d="M119,24H1V1h118V24z"/>
		<path class="st0" d="M2,2v21h116V2H2 M0,0h120v25H0V0z"/>
	</g>
	<g id="パス_1702" transform="translate(919 911.563)">
		<path class="st0" d="M44.9,24.4L1,14.5V1h88v13.5L44.9,24.4z"/>
		<path class="st0" d="M2,2v11.7l42.9,9.7L88,13.7V2H2 M0,0h90v15.3L44.9,25.4L0,15.3V0z"/>
	</g>
	<g class="st2">
		<path class="st3" d="M947.6,876.7c-1,0-1.4,0-1.5,0c-0.1,0-0.1,0-0.1-0.1v-0.9c0-0.1,0-0.1,0.1-0.1c0.1,0,0.4,0,1.5,0h3.1
			c0-0.5,0-0.8-0.1-1.2c0.4,0,0.9,0,1.3,0.1c0.1,0,0.2,0.1,0.2,0.1c0,0.1,0,0.2-0.1,0.3c-0.1,0.1-0.1,0.3-0.1,0.8h3.3
			c1,0,1.4,0,1.5,0c0.1,0,0.1,0,0.1,0.1v0.9c0,0.1,0,0.1-0.1,0.1c-0.1,0-0.4,0-1.5,0h-3.3v0.7h1.9c1.2,0,1.6,0,1.7,0
			c0.1,0,0.1,0,0.1,0.1c0,0.1,0,0.4,0,1.1v2c0,0.7,0,1.1,0,1.1c0,0.1,0,0.1-0.1,0.1c-0.1,0-0.5,0-1.7,0h-1c1.2,1,2.7,1.7,4.4,2.1
			c-0.2,0.3-0.4,0.5-0.5,0.8c-0.1,0.2-0.1,0.3-0.2,0.3c-0.1,0-0.1,0-0.3-0.1c-1.6-0.6-3.2-1.4-4.3-2.7c0,1.5,0.1,2.7,0.1,2.8
			c0,0.1,0,0.1-0.1,0.1h-1.1c-0.1,0-0.1,0-0.1-0.1c0-0.2,0.1-1.3,0.1-2.8c-1,1.2-2.4,2.1-4,2.6c-0.1,0-0.2,0.1-0.3,0.1
			c-0.1,0-0.1-0.1-0.2-0.3c-0.1-0.3-0.3-0.5-0.5-0.8c1.6-0.5,3-1.2,4.1-2.2H949c-1.2,0-1.6,0-1.7,0c-0.1,0-0.1,0-0.1-0.1
			c0-0.1,0-0.4,0-1.1v-2c0-0.7,0-1.1,0-1.1c0-0.1,0-0.1,0.1-0.1c0.1,0,0.5,0,1.7,0h1.6v-0.7H947.6z M950.7,879.2v-0.8h-2.2v0.8
			H950.7z M950.7,880.9v-0.9h-2.2v0.9H950.7z M951.9,878.3v0.8h2.4v-0.8H951.9z M954.3,880.1h-2.4v0.9h2.4V880.1z"/>
		<path class="st3" d="M960.6,882.1c0.1-0.2,0.3-0.5,0.3-0.7c0.3,0.1,0.7,0.3,1,0.5c0.1,0.1,0.1,0.1,0.1,0.2c0,0.1-0.1,0.2-0.1,0.2
			c-0.1,0-0.2,0.1-0.3,0.3c-0.5,0.6-1.1,1.3-2,1.9c-0.1,0.1-0.2,0.2-0.3,0.2c-0.1,0-0.1-0.1-0.3-0.3c-0.2-0.3-0.4-0.5-0.6-0.6
			C959.5,883.3,960.1,882.7,960.6,882.1z M960.4,876.8c-1.1,0-1.5,0-1.5,0c-0.1,0-0.1,0-0.1-0.1v-0.9c0-0.1,0-0.1,0.1-0.1
			c0.1,0,0.4,0,1.5,0h2.9v-0.2c0-0.5,0-0.8-0.1-1.1c0.4,0,0.9,0,1.3,0.1c0.1,0,0.2,0,0.2,0.1c0,0.1,0,0.2-0.1,0.3c0,0.1,0,0.3,0,0.7
			v0.2h3c1.1,0,1.5,0,1.5,0c0.1,0,0.1,0,0.1,0.1v0.9c0,0.1,0,0.1-0.1,0.1c-0.1,0-0.4,0-1.5,0H960.4z M965.9,877.6c1.2,0,1.6,0,1.7,0
			c0.1,0,0.1,0,0.1,0.1c0,0.1,0,0.3,0,1v1.3c0,0.6,0,0.9,0,1c0,0.1,0,0.1-0.1,0.1c-0.1,0-0.5,0-1.7,0h-1.2v1.2c0,0.6,0,1.1,0,1.5
			c0,0.5-0.1,0.8-0.4,1.1c-0.3,0.2-0.6,0.3-1.7,0.3c-0.4,0-0.4,0-0.5-0.4c-0.1-0.3-0.2-0.6-0.4-0.9c0.4,0,0.7,0.1,1.1,0.1
			c0.4,0,0.5-0.1,0.5-0.4v-2.5h-1.3c-1.2,0-1.6,0-1.6,0c-0.1,0-0.1,0-0.1-0.1c0-0.1,0-0.3,0-1v-1.3c0-0.6,0-0.9,0-1
			c0-0.1,0-0.1,0.1-0.1c0.1,0,0.5,0,1.6,0H965.9z M966.4,878.7h-4.9v1.3h4.9V878.7z M966.7,881.5c0.1-0.1,0.2-0.1,0.2,0
			c0.6,0.9,1.5,1.6,2.6,2.1c-0.3,0.2-0.4,0.4-0.6,0.8c-0.1,0.2-0.2,0.3-0.3,0.3c-0.1,0-0.1,0-0.3-0.1c-1-0.7-1.8-1.5-2.5-2.4
			c-0.1-0.1,0-0.1,0.1-0.2L966.7,881.5z"/>
		<path class="st3" d="M972.2,881.5c0.2,0.1,0.2,0.1,0.2,0.2c0,1-0.2,1.9-0.4,2.7c0,0.1-0.1,0.1-0.2,0.1l-0.4-0.3
			c-0.1-0.1-0.1-0.1-0.1-0.2c0.2-0.7,0.4-1.5,0.4-2.5c0-0.1,0-0.1,0.2-0.1L972.2,881.5z M973.1,880.9c-0.8,0-1.1,0-1.3,0
			c-0.1,0-0.1,0-0.1-0.1c0-0.1,0-0.5,0-1.5v-3c0-0.9,0-1.4,0-1.5c0-0.1,0-0.1,0.1-0.1c0.1,0,0.4,0,1.3,0h1.9c0.8,0,1.1,0,1.2,0
			c0.1,0,0.1,0,0.1,0.1v0.8c0,0.1,0,0.1-0.1,0.1c-0.1,0-0.4,0-1.2,0h-0.2v0.8c0.8,0,1,0,1.1,0c0.1,0,0.1,0,0.1,0.1v0.7
			c0,0.1,0,0.1-0.1,0.1c-0.1,0-0.3,0-1.1,0v0.8c0.7,0,1,0,1.1,0c0.1,0,0.1,0,0.1,0.1v0.7c0,0.1,0,0.1-0.1,0.1c-0.1,0-0.3,0-1.1,0
			v0.9h0.2c0.8,0,1,0,1.1,0c0.1,0,0.1,0,0.1,0.2l0,0.8c0,1.7-0.1,2.6-0.3,3.2c0.5-0.8,0.8-1.8,1-2.9c0.1-1,0.2-2.2,0.2-4.3
			c0-1.2,0-1.8,0-1.9c0-0.1,0-0.1,0.1-0.1c0.1,0,0.4,0,1.3,0h1.8c0.9,0,1.3,0,1.3,0c0.1,0,0.1,0,0.1,0.1c0,0.1,0,0.4,0,1.2v2.3
			c0,0.8,0,1.1,0,1.2c0,0.1,0,0.1-0.1,0.1h-0.9c-0.1,0-0.1,0-0.1-0.1v-0.2h-0.4c0.2,2,0.8,3.5,2.2,4.8c-0.2,0.2-0.5,0.4-0.7,0.7
			c-0.1,0.2-0.2,0.2-0.2,0.2c-0.1,0-0.1-0.1-0.2-0.2c-1.4-1.5-1.9-3.3-2.1-5.5h-0.9c0,0.8-0.1,1.5-0.2,2.2c-0.2,1.2-0.5,2.4-1.1,3.4
			c-0.1,0.1-0.1,0.2-0.2,0.2c-0.1,0-0.1-0.1-0.3-0.2c-0.2-0.2-0.4-0.4-0.6-0.6c-0.2,0.4-0.7,0.7-1.2,0.7c-0.2,0-0.4,0-0.5,0
			c-0.2,0-0.2,0-0.3-0.4c0-0.3-0.1-0.6-0.2-0.8c0.4,0,0.6,0.1,0.9,0.1s0.4-0.1,0.5-0.3c0.1-0.3,0.2-1,0.3-2.8H973.1z M973,881.5
			c0.1,0,0.2,0,0.2,0.1c0.1,0.7,0.2,1.4,0.2,2.1c0,0.1,0,0.1-0.1,0.2l-0.4,0.1c-0.1,0-0.2,0-0.2-0.1c0-0.8,0-1.5-0.1-2.2
			c0-0.1,0-0.1,0.1-0.2L973,881.5z M973.8,876.6v-0.8h-1v0.8H973.8z M973.8,878.3v-0.8h-1v0.8H973.8z M973.8,880v-0.9h-1v0.9H973.8z
			 M973.7,881.4c0.1,0,0.1,0,0.2,0.1c0.1,0.5,0.2,1.1,0.3,1.7c0,0.1,0,0.1-0.1,0.2l-0.3,0.1c-0.1,0.1-0.2,0.1-0.2-0.1
			c0-0.6-0.1-1.3-0.3-1.8c0-0.1,0-0.1,0.1-0.2L973.7,881.4z M974.4,881.3c0.1,0,0.1,0,0.2,0.1c0.1,0.4,0.2,0.8,0.3,1.3
			c0,0.1,0,0.1-0.1,0.2l-0.3,0.1c-0.1,0.1-0.1,0-0.2-0.1c-0.1-0.5-0.2-1-0.3-1.4c0-0.1,0-0.1,0.1-0.2L974.4,881.3z M978.1,876.1v1.1
			c0,0.5,0,0.9,0,1.2h2.4v-2.3H978.1z"/>
	</g>
	<g class="st2">
		<path class="st1" d="M936.5,917.9c0-0.9,0-1.2-0.1-1.8c0.5,0,0.9,0,1.3,0.1c0.1,0,0.2,0.1,0.2,0.1c0,0.1,0,0.2-0.1,0.2
			c-0.1,0.2-0.1,0.5-0.1,1.3v6.7c0,1.3,0,1.9,0,2c0,0.1,0,0.1-0.1,0.1h-1c-0.1,0-0.1,0-0.1-0.1c0-0.1,0-0.7,0-2v-0.7
			c-0.7,0.4-1.4,0.8-2,1c-0.2,0.1-0.3,0.2-0.4,0.2c-0.1,0.1-0.1,0.1-0.2,0.1c-0.1,0-0.1-0.1-0.2-0.2c-0.1-0.3-0.3-0.8-0.4-1.2
			c0.4-0.1,0.6-0.1,1-0.3c0.7-0.3,1.4-0.6,2.1-1v-2.6h-1.3c-1.1,0-1.5,0-1.5,0c-0.1,0-0.1,0-0.1-0.1v-0.9c0-0.1,0-0.1,0.1-0.1
			c0.1,0,0.4,0,1.5,0h1.3V917.9z M940.6,924.4c0,0.5,0,0.6,0.2,0.7s0.3,0.1,0.8,0.1c0.6,0,1-0.1,1.2-0.3c0.2-0.2,0.3-0.8,0.3-1.8
			c0.3,0.2,0.6,0.3,0.9,0.4c0.3,0.1,0.3,0.1,0.3,0.4c-0.1,1.3-0.3,1.7-0.7,2c-0.3,0.3-0.9,0.4-1.8,0.4c-1.2,0-1.6-0.1-1.9-0.3
			c-0.3-0.2-0.4-0.4-0.4-1.1V918c0-0.8,0-1.4-0.1-1.9c0.5,0,0.9,0,1.3,0.1c0.1,0,0.2,0.1,0.2,0.2s0,0.2-0.1,0.2
			c0,0.1-0.1,0.5-0.1,1.4v1.8c0.7-0.5,1.4-1,1.8-1.4c0.2-0.2,0.4-0.4,0.6-0.7c0.3,0.3,0.6,0.6,0.9,0.9c0.1,0.1,0.1,0.1,0.1,0.2
			c0,0.1-0.1,0.1-0.2,0.1c-0.1,0-0.3,0.2-0.6,0.4c-0.7,0.6-1.7,1.2-2.6,1.8V924.4z"/>
		<path class="st1" d="M949,916.2c0.1,0,0.2,0,0.2,0c0,0,0.1,0,0.2,0c0.1,0,0.2,0,0.5,0.3c0.3,0.3,0.3,0.4,0.3,0.5
			c0,0.1,0,0.1-0.1,0.2c-0.1,0.1-0.1,0.2-0.2,0.5c-0.3,0.8-0.5,1.5-0.9,2.3c0.8,1.3,0.9,2,0.9,2.8c0,0.9-0.4,1.5-1.5,1.6
			c-0.4,0-0.4,0-0.4-0.3c0-0.3-0.1-0.5-0.3-0.7c0.7,0,1-0.1,1-0.7c0-0.7-0.2-1.3-1-2.5c0.5-1,0.7-1.7,1-2.7h-1.1v6.8
			c0,1.6,0,2.5,0,2.6c0,0.1,0,0.1-0.1,0.1h-0.9c-0.1,0-0.1,0-0.1-0.1c0-0.1,0-0.9,0-2.6v-5.2c0-1.7,0-2.5,0-2.6c0-0.1,0-0.1,0.1-0.1
			c0.1,0,0.4,0,1,0H949z M951,926.4c-1.2,0-1.6,0-1.7,0c-0.1,0-0.1,0-0.1-0.1v-0.8c0-0.1,0-0.1,0.1-0.1c0.1,0,0.5,0,1.7,0h1.5v-1.2
			h-0.6c-1.1,0-1.4,0-1.5,0c-0.1,0-0.1,0-0.1-0.1v-0.8c0-0.1,0-0.1,0.1-0.1c0.1,0,0.4,0,1.5,0h0.6v0c0-0.5,0-0.8-0.1-1.2
			c0.4,0,0.8,0,1.2,0.1c0.1,0,0.2,0.1,0.2,0.1c0,0.1,0,0.1-0.1,0.2c-0.1,0.1-0.1,0.4-0.1,0.8v0h0.8c1.1,0,1.4,0,1.5,0
			c0.1,0,0.1,0,0.1,0.1v0.8c0,0.1,0,0.1-0.1,0.1c-0.1,0-0.4,0-1.5,0h-0.8v1.2h1.4c1.2,0,1.6,0,1.7,0c0.1,0,0.1,0,0.1,0.1v0.8
			c0,0.1,0,0.1-0.1,0.1c-0.1,0-0.5,0-1.7,0H951z M952,918.1c-1.1,0-1.4,0-1.5,0c-0.1,0-0.1,0-0.1-0.1v-0.8c0-0.1,0-0.1,0.1-0.1
			c0.1,0,0.4,0,1.5,0h0.5V917c0-0.4,0-0.7-0.1-1c0.5,0,0.8,0,1.2,0.1c0.1,0,0.2,0.1,0.2,0.1c0,0.1,0,0.1-0.1,0.2
			c0,0.1-0.1,0.2-0.1,0.6v0.2h0.8c1.1,0,1.4,0,1.5,0c0.1,0,0.1,0,0.1,0.1v0.8c0,0.1,0,0.1-0.1,0.1c-0.1,0-0.4,0-1.5,0h-0.8v1h1.4
			c1.2,0,1.6,0,1.6,0c0.1,0,0.1,0,0.1,0.1v0.8c0,0.1,0,0.1-0.1,0.1c-0.1,0-0.5,0-1.6,0h-0.5v0.8c0,0.1,0,0.2,0.1,0.3
			c0.1,0,0.2,0.1,0.5,0.1c0.3,0,0.5,0,0.5-0.1c0.1-0.1,0.1-0.2,0.1-0.6c0.2,0.1,0.4,0.2,0.7,0.3c0.3,0.1,0.3,0.1,0.3,0.4
			c-0.1,0.5-0.2,0.7-0.4,0.8c-0.3,0.2-0.5,0.2-1.3,0.2c-0.7,0-1.1-0.1-1.2-0.2c-0.2-0.1-0.3-0.3-0.3-0.6v-1.3h-0.9
			c-0.2,1.1-0.8,2-1.8,2.4c-0.1,0.1-0.2,0.1-0.3,0.1c-0.1,0-0.1-0.1-0.2-0.3c-0.1-0.3-0.3-0.4-0.4-0.6c1-0.3,1.5-0.9,1.6-1.6
			c-1.1,0-1.5,0-1.6,0c-0.1,0-0.1,0-0.1-0.1v-0.8c0-0.1,0-0.1,0.1-0.1c0.1,0,0.5,0,1.6,0h1v-1H952z"/>
		<path class="st1" d="M960.1,920.8c-1.1,0-1.4,0-1.5,0c-0.1,0-0.1,0-0.1-0.1v-0.9c0-0.1,0-0.1,0.1-0.1c0.1,0,0.4,0,1.5,0h1.5
			c0.2-0.4,0.3-0.8,0.5-1.1c0.1-0.2,0.1-0.3,0.1-0.5c0.4,0.1,0.7,0.2,1,0.3c0.1,0,0.1,0.1,0.1,0.2c0,0.1,0,0.1-0.1,0.2
			c-0.1,0.1-0.1,0.1-0.2,0.3c-0.1,0.3-0.2,0.5-0.4,0.8c0.8,0,1.2,0,1.3,0c0.1,0,0.1,0,0.1,0.1v0.9c0,0.1,0,0.1-0.1,0.1
			c-0.1,0-0.4,0-1.5,0H962c0,0.1,0,0.2,0,0.7v0.2h0.4c1,0,1.4,0,1.4,0c0.1,0,0.1,0,0.1,0.1v0.9c0,0.1,0,0.1-0.1,0.1
			c-0.1,0-0.4,0-1.4,0h-0.1c0.5,0.5,1,0.9,1.5,1.3c-0.1,0.2-0.3,0.4-0.4,0.8c0,0.1-0.1,0.2-0.1,0.2c0,0-0.1,0-0.3-0.2
			c-0.4-0.3-0.7-0.7-1.1-1.2c0,1.7,0.1,2.6,0.1,3c0,0.1,0,0.1-0.1,0.1H961c-0.1,0-0.1,0-0.1-0.1c0-0.4,0-1.3,0-2.8
			c-0.4,0.7-0.9,1.3-1.6,1.9c-0.1,0.1-0.2,0.2-0.3,0.2c-0.1,0-0.1-0.1-0.2-0.2c-0.1-0.3-0.3-0.6-0.5-0.8c0.9-0.6,1.6-1.3,2.1-2.1
			h-0.3c-1,0-1.4,0-1.5,0c-0.1,0-0.1,0-0.1-0.1v-0.9c0-0.1,0-0.1,0.1-0.1c0.1,0,0.4,0,1.5,0h0.6v-0.2c0-0.3,0-0.5,0-0.7H960.1z
			 M960.4,918c-1,0-1.3,0-1.4,0c-0.1,0-0.1,0-0.1-0.1V917c0-0.1,0-0.1,0.1-0.1c0.1,0,0.4,0,1.4,0h0.5v-0.3c0-0.3,0-0.5-0.1-0.8
			c0.4,0,0.8,0,1.2,0.1c0.1,0,0.2,0,0.2,0.1c0,0.1,0,0.1-0.1,0.2c-0.1,0.1-0.1,0.2-0.1,0.4v0.3h0.4c1,0,1.3,0,1.4,0
			c0.1,0,0.1,0,0.1,0.1v0.8c0,0.1,0,0.1-0.1,0.1c-0.1,0-0.4,0-1.4,0H960.4z M960.2,919.7c-0.2,0-0.2,0-0.2-0.1
			c-0.1-0.4-0.2-0.7-0.3-1.1c-0.1-0.1-0.1-0.2,0.1-0.2l0.6-0.2c0.1,0,0.2,0,0.2,0.1c0.2,0.3,0.3,0.7,0.4,1.1c0,0.1,0,0.2-0.1,0.2
			L960.2,919.7z M965.8,920.8c0,1.4-0.1,2.5-0.3,3.5c-0.2,0.8-0.4,1.4-1,2.3c-0.1,0.1-0.2,0.2-0.3,0.2c-0.1,0-0.1-0.1-0.3-0.2
			c-0.3-0.2-0.5-0.4-0.8-0.5c0.7-0.8,1-1.5,1.2-2.4c0.2-0.7,0.2-1.7,0.2-3.5v-1.3c0-0.7,0-1.3-0.1-2.1c0.4,0.1,0.7,0.2,1.1,0.3
			c0.8-0.2,1.5-0.5,2.1-0.8c0.3-0.1,0.4-0.3,0.6-0.4c0.3,0.2,0.6,0.5,0.8,0.9c0.1,0.1,0.1,0.2,0.1,0.2c0,0.1-0.1,0.1-0.2,0.1
			c-0.1,0-0.3,0-0.5,0.1c-0.8,0.4-1.7,0.7-2.8,1v1.5h2.1c1.2,0,1.6,0,1.6,0c0.1,0,0.1,0,0.1,0.1v0.9c0,0.1,0,0.1-0.1,0.1
			c-0.1,0-0.4,0-1.2,0v4.2c0,1.1,0,1.6,0,1.7c0,0.1,0,0.1-0.1,0.1h-1c-0.1,0-0.1,0-0.1-0.1c0-0.1,0-0.5,0-1.7v-4.2H965.8z"/>
		<path class="st1" d="M978,923.3c-1,0-1.4,0-1.5,0c-0.1,0-0.1,0-0.1-0.1v-0.9c0-0.1,0-0.1,0.1-0.1c0.1,0,0.4,0,1.5,0h0.5v-1.5h-0.1
			c-0.9,0-1.2,0-1.2,0c-0.1,0-0.1,0-0.1-0.1v-0.7l-0.3,0.2c-0.1,0.1-0.2,0.1-0.3,0.1c-0.1,0-0.1-0.1-0.2-0.3
			c-0.1-0.3-0.2-0.5-0.4-0.7c0,0.2,0,0.5,0,0.9v1.7c0,0.7,0,1,0,1.1c0,0.1,0,0.1-0.1,0.1c-0.1,0-0.4,0-1.3,0h-0.2v0.9h0.4
			c1,0,1.4,0,1.4,0c0.1,0,0.1,0,0.1,0.1v0.8c0,0.1,0,0.1-0.1,0.1c-0.1,0-0.4,0-1.4,0h-0.4v0c0,1.1,0,1.6,0,1.7c0,0.1,0,0.1-0.1,0.1
			h-0.9c-0.1,0-0.1,0-0.1-0.1c0-0.1,0-0.6,0-1.7h-0.5c-1,0-1.3,0-1.4,0c-0.1,0-0.1,0-0.1-0.1v-0.8c0-0.1,0-0.1,0.1-0.1
			c0.1,0,0.4,0,1.4,0h0.5v-0.9h-0.1c-0.9,0-1.2,0-1.3,0c-0.1,0-0.1,0-0.1-0.1c0-0.1,0-0.4,0-1.1v-1.7c0-0.7,0-1,0-1.1
			c0-0.1,0-0.1,0.1-0.1c0.1,0,0.4,0,1.3,0h0.1v-0.9h-0.4c-1,0-1.3,0-1.4,0c-0.1,0-0.1,0-0.1-0.1v-0.8c0-0.1,0-0.1,0.1-0.1
			c0.1,0,0.4,0,1.4,0h0.4c0-0.6,0-0.9-0.1-1.3c0.5,0,0.8,0,1.2,0.1c0.1,0,0.2,0.1,0.2,0.1c0,0.1,0,0.1-0.1,0.2
			c0,0.1-0.1,0.3-0.1,0.7v0.2h0.4c1,0,1.3,0,1.4,0c0.1,0,0.1,0,0.1,0.1v0.8c0,0.1,0,0.1-0.1,0.1c-0.1,0-0.4,0-1.4,0h-0.4v0.9h0.2
			c0.9,0,1.2,0,1.3,0c0.1,0,0.1,0,0.1,0.1v0.1c1-0.7,1.8-1.6,2.3-2.6c0.1-0.3,0.2-0.5,0.3-0.7c0.4,0,0.7,0.1,1.1,0.1
			c0.1,0,0.2,0.1,0.2,0.1s0,0.1-0.1,0.2l-0.1,0.1c0.6,1.1,1.6,2,2.8,2.6c-0.2,0.2-0.3,0.5-0.4,0.8c-0.1,0.2-0.1,0.3-0.2,0.3
			c-0.1,0-0.1,0-0.3-0.1c-0.1-0.1-0.2-0.1-0.3-0.2v0.8c0,0.1,0,0.1-0.1,0.1c-0.1,0-0.3,0-1.2,0h-0.2v1.5h0.7c1,0,1.4,0,1.5,0
			c0.1,0,0.1,0,0.1,0.1v0.9c0,0.1,0,0.1-0.1,0.1c-0.1,0-0.4,0-1.5,0h-0.7v1.8c0,1.1,0,1.6,0,1.7c0,0.1,0,0.1-0.1,0.1h-1
			c-0.1,0-0.1,0-0.1-0.1c0-0.1,0-0.6,0-1.7v-1.8H978z M972.7,920.6h2v-0.7h-2V920.6z M974.8,921.5h-2v0.7h2V921.5z M979.8,919.6
			c0.6,0,0.9,0,1.1,0c-0.8-0.7-1.4-1.3-1.9-2.1c-0.5,0.8-1,1.5-1.7,2.1c0.2,0,0.5,0,1.1,0H979.8z"/>
		<path class="st1" d="M990.7,922.7c0,0-0.1,0.1-0.1,0.1c-0.1,0.1-0.2,0.2-0.3,0.4c-0.3,1-0.9,1.9-1.9,2.8c-0.1,0.1-0.2,0.2-0.3,0.2
			c-0.1,0-0.1-0.1-0.3-0.2c-0.2-0.2-0.4-0.4-0.6-0.5c1-0.7,1.7-1.6,2-2.5H989c-0.4,0-0.7,0-0.7,0c-0.1,0-0.1,0-0.1-0.1V922l-0.4,0.1
			c-0.2,0-0.2,0-0.2-0.1l-0.1-0.3c-0.3,0-0.5,0.1-0.8,0.1v3.3c0,1.1,0,1.5,0,1.6c0,0.1,0,0.1-0.1,0.1h-0.9c-0.1,0-0.1,0-0.1-0.1
			c0-0.1,0-0.5,0-1.6v-3.2l-0.9,0.1c-0.2,0-0.4,0-0.5,0.1c-0.1,0-0.1,0-0.2,0c-0.1,0-0.1-0.1-0.1-0.2c-0.1-0.3-0.1-0.6-0.1-1
			c0.3,0,0.6,0,0.9,0c0.2-0.3,0.5-0.6,0.7-0.9c-0.5-0.6-1-1.2-1.6-1.8c0,0-0.1-0.1-0.1-0.1c0,0,0-0.1,0.1-0.2l0.4-0.6
			c0.1-0.1,0.1-0.1,0.2,0l0.3,0.3c0.2-0.4,0.5-0.9,0.7-1.3c0.1-0.2,0.2-0.4,0.2-0.6c0.3,0.1,0.7,0.3,1,0.4c0.1,0.1,0.2,0.1,0.2,0.2
			c0,0.1,0,0.1-0.1,0.2c-0.1,0.1-0.1,0.1-0.2,0.3c-0.3,0.6-0.6,1.1-1,1.7l0.5,0.6c0.3-0.5,0.6-0.9,0.8-1.4c0.1-0.3,0.2-0.5,0.3-0.8
			c0.3,0.1,0.7,0.3,1,0.4c0.1,0.1,0.1,0.1,0.1,0.2c0,0.1,0,0.1-0.1,0.2c-0.1,0.1-0.2,0.2-0.4,0.5c-0.6,1-1.3,1.9-1.9,2.7
			c0.5,0,0.9,0,1.4-0.1c-0.1-0.3-0.2-0.6-0.3-0.8c0-0.1,0-0.2,0.1-0.2l0.5-0.2c0.1,0,0.2,0,0.2,0.1c0.3,0.7,0.5,1.4,0.7,2.1
			c0,0.1,0,0.1,0,0.1c0.1,0,0.3,0,0.7,0h0.5c0.1,0,0.2,0,0.2,0c0,0,0.1,0,0.1,0c0.1,0,0.1,0,0.4,0.3c0.2,0.2,0.3,0.3,0.3,0.4v-1.4
			h-0.5c-1,0-1.4,0-1.5,0c-0.1,0-0.1,0-0.1-0.1c0-0.1,0-0.4,0-1.1v-1.8c0-0.7,0-1,0-1.1c0-0.1,0-0.1,0.1-0.1c0.1,0,0.4,0,1.5,0h0.2
			c0.1-0.2,0.1-0.3,0.2-0.5c0.1-0.2,0.1-0.4,0.1-0.7c0.4,0,0.8,0.1,1.1,0.1c0.2,0,0.2,0.1,0.2,0.2c0,0.1,0,0.1-0.1,0.2
			c-0.1,0.1-0.1,0.2-0.2,0.3c-0.1,0.2-0.1,0.3-0.2,0.4h0.8c1,0,1.4,0,1.5,0c0.1,0,0.1,0,0.1,0.1c0,0.1,0,0.4,0,1.1v1.8
			c0,0.7,0,1,0,1.1c0,0.1,0,0.1-0.1,0.1c-0.1,0-0.4,0-1.5,0h-0.6c0.2,0.6,0.4,1.1,0.7,1.6c0.3-0.3,0.6-0.6,0.9-0.8
			c0.2-0.2,0.3-0.3,0.4-0.5c0.3,0.2,0.5,0.4,0.7,0.6c0.1,0.1,0.1,0.2,0.1,0.2c0,0.1,0,0.1-0.1,0.2c-0.1,0.1-0.3,0.2-0.5,0.4
			c-0.3,0.3-0.6,0.5-1,0.9c0.5,0.6,1.1,1.1,1.8,1.6c-0.2,0.2-0.4,0.5-0.5,0.8c-0.1,0.2-0.1,0.2-0.2,0.2s-0.1-0.1-0.2-0.2
			c-0.9-0.8-1.6-1.7-2.1-2.8c0,1,0.1,1.7,0.1,2.4c0,0.4-0.1,0.7-0.4,1c-0.3,0.1-0.5,0.2-1.2,0.2c-0.4,0-0.4,0-0.5-0.4
			c-0.1-0.3-0.2-0.5-0.3-0.8c0.4,0,0.7,0,0.9,0c0.3,0,0.4-0.1,0.4-0.4V922.7z M984.2,923.4c0-0.3,0-0.5,0-0.8c0.4,0,0.7,0.1,0.9,0.2
			c0.1,0,0.2,0.1,0.2,0.1c0,0.1,0,0.1-0.1,0.2c0,0.1-0.1,0.2-0.1,0.4c-0.1,0.7-0.2,1.5-0.4,2.2c-0.1,0.2-0.1,0.3-0.2,0.3
			c-0.1,0-0.1-0.1-0.3-0.1c-0.2-0.1-0.5-0.3-0.7-0.3C983.9,924.9,984.1,924.2,984.2,923.4z M987.6,922.5c0.1,0,0.2,0,0.2,0.1
			c0.1,0.4,0.3,1.2,0.4,1.8c0,0.1,0,0.2-0.1,0.2l-0.6,0.2c-0.2,0.1-0.2,0-0.2-0.1c-0.1-0.7-0.2-1.4-0.4-1.8c0-0.1,0-0.1,0.1-0.2
			L987.6,922.5z M989.8,918.5h3v-0.8h-3V918.5z M992.8,919.4h-3v0.8h3V919.4z"/>
	</g>
	<g class="st2">
		<path class="st3" d="M946.5,978.7c-1.2,0-1.6,0-1.7,0c-0.1,0-0.1,0-0.1-0.1v-1.2c0-0.1,0-0.1,0.1-0.1c0.1,0,0.5,0,1.7,0h2.7v-7.3
			c0-1.1,0-1.6-0.1-2.2c0.5,0,1.1,0,1.5,0.1c0.1,0,0.2,0.1,0.2,0.2c0,0.1-0.1,0.2-0.1,0.3c-0.1,0.1-0.1,0.5-0.1,1.2v2.1h2.5
			c1.1,0,1.5,0,1.6,0c0.1,0,0.1,0,0.1,0.1v1.2c0,0.1,0,0.1-0.1,0.1c-0.1,0-0.5,0-1.6,0h-2.5v4.2h3.5c1.2,0,1.6,0,1.7,0
			c0.1,0,0.1,0,0.1,0.1v1.2c0,0.1,0,0.1-0.1,0.1c-0.1,0-0.5,0-1.7,0H946.5z"/>
		<path class="st3" d="M959,979.1c-0.1,0-0.1,0-0.1-0.1c0-0.1,0-0.9,0-4.6v-2.5c0-2.5,0-3.3,0-3.4c0-0.1,0-0.1,0.1-0.1
			c0.1,0,0.5,0,1.8,0h6.6c1.2,0,1.7,0,1.8,0c0.1,0,0.1,0,0.1,0.1c0,0.1,0,0.9,0,3v2.9c0,3.8,0,4.5,0,4.6c0,0.1,0,0.1-0.1,0.1h-1.1
			c-0.1,0-0.1,0-0.1-0.1v-0.7h-7.6v0.7c0,0.1,0,0.1-0.1,0.1H959z M960.2,972.6h3.1v-3.1h-3.1V972.6z M963.3,977v-3.2h-3.1v3.2H963.3
			z M964.6,969.6v3.1h3.2v-3.1H964.6z M967.8,977v-3.2h-3.2v3.2H967.8z"/>
		<path class="st3" d="M972.8,975.3c0.2,0.1,0.2,0.1,0.2,0.2c0,1-0.2,2.1-0.5,2.9c-0.1,0.1-0.1,0.1-0.2,0.1l-0.5-0.3
			c-0.2-0.1-0.2-0.1-0.1-0.2c0.3-0.8,0.4-1.7,0.5-2.7c0-0.2,0-0.1,0.2-0.1L972.8,975.3z M973.9,974.6c-0.9,0-1.2,0-1.4,0
			c-0.1,0-0.1,0-0.1-0.2c0-0.1,0-0.6,0-1.6v-3.2c0-1,0-1.5,0-1.6c0-0.1,0-0.1,0.1-0.1c0.1,0,0.5,0,1.4,0h2.1c0.8,0,1.2,0,1.3,0
			c0.1,0,0.1,0,0.1,0.1v0.8c0,0.1,0,0.1-0.1,0.1c-0.1,0-0.4,0-1.3,0h-0.2v0.9c0.8,0,1.1,0,1.2,0c0.1,0,0.1,0,0.1,0.1v0.7
			c0,0.1,0,0.1-0.1,0.1c-0.1,0-0.4,0-1.2,0v0.9c0.8,0,1.1,0,1.2,0c0.1,0,0.1,0,0.1,0.1v0.7c0,0.1,0,0.1-0.1,0.1c-0.1,0-0.4,0-1.2,0
			v0.9h0.2c0.8,0,1.1,0,1.1,0c0.1,0,0.2,0,0.1,0.2l0,0.9c-0.1,1.9-0.2,2.8-0.3,3.4c0.6-0.9,0.9-1.9,1-3.1c0.1-1.1,0.2-2.4,0.2-4.6
			c0-1.3,0-2,0-2c0-0.1,0-0.1,0.2-0.1c0.1,0,0.4,0,1.5,0h1.9c1,0,1.4,0,1.5,0c0.1,0,0.2,0,0.2,0.1c0,0.1,0,0.5,0,1.3v2.4
			c0,0.9,0,1.2,0,1.3c0,0.1,0,0.1-0.2,0.1h-1c-0.1,0-0.1,0-0.1-0.2v-0.2h-0.5c0.2,2.2,0.9,3.8,2.4,5.2c-0.2,0.2-0.5,0.5-0.8,0.8
			c-0.1,0.2-0.2,0.2-0.2,0.2c-0.1,0-0.1-0.1-0.3-0.2c-1.5-1.6-2.1-3.5-2.3-6h-0.9c0,0.9-0.1,1.6-0.2,2.4c-0.2,1.2-0.6,2.5-1.2,3.6
			c-0.1,0.2-0.2,0.2-0.2,0.2c-0.1,0-0.1-0.1-0.3-0.2c-0.2-0.3-0.5-0.5-0.7-0.6c-0.3,0.5-0.7,0.7-1.3,0.7c-0.2,0-0.4,0-0.6,0
			c-0.2,0-0.2,0-0.3-0.4c-0.1-0.4-0.1-0.6-0.3-0.9c0.4,0.1,0.7,0.1,1,0.1c0.3,0,0.4-0.1,0.5-0.3c0.1-0.3,0.3-1.1,0.3-3H973.9z
			 M973.7,975.3c0.2,0,0.2,0,0.2,0.1c0.1,0.7,0.2,1.5,0.2,2.3c0,0.1,0,0.1-0.2,0.2l-0.4,0.1c-0.2,0.1-0.2,0.1-0.2-0.1
			c0-0.9-0.1-1.7-0.1-2.4c0-0.1,0-0.2,0.2-0.2L973.7,975.3z M974.6,969.9V969h-1.1v0.9H974.6z M974.6,971.7v-0.9h-1.1v0.9H974.6z
			 M974.6,973.6v-0.9h-1.1v0.9H974.6z M974.5,975.1c0.1-0.1,0.2,0,0.2,0.1c0.1,0.6,0.2,1.2,0.3,1.9c0,0.1,0,0.2-0.2,0.2l-0.3,0.1
			c-0.1,0.1-0.2,0.1-0.2-0.1c-0.1-0.7-0.1-1.4-0.3-1.9c0-0.1,0-0.1,0.1-0.2L974.5,975.1z M975.3,975c0.1,0,0.1,0,0.2,0.1
			c0.1,0.4,0.3,0.8,0.4,1.4c0,0.1,0,0.1-0.1,0.2l-0.3,0.1c-0.1,0.1-0.2,0-0.2-0.1c-0.1-0.6-0.2-1.1-0.3-1.5c0-0.1,0-0.1,0.1-0.2
			L975.3,975z M979.3,969.4v1.1c0,0.5,0,0.9,0,1.3h2.5v-2.5H979.3z"/>
	</g>
	<g id="パス_1777" transform="translate(919 1005.563)">
		<path class="st0" d="M44.9,24.4L1,14.5V1h88v13.5L44.9,24.4z"/>
		<path class="st0" d="M2,2v11.7l42.9,9.7L88,13.7V2H2 M0,0h90v15.3L44.9,25.4L0,15.3V0z"/>
	</g>
	<g class="st2">
		<path class="st1" d="M938.9,1014.8c-0.2,0.4-0.5,0.7-0.8,1c-0.1,0.1-0.2,0.2-0.2,0.2s-0.1-0.1-0.1-0.2c-0.1-0.5-0.3-0.9-0.4-1.1
			c1-1.2,1.7-2.6,2.2-4.2c0.1-0.4,0.2-0.6,0.2-0.9c0.5,0.1,0.8,0.2,1.2,0.4c0.2,0.1,0.2,0.1,0.2,0.2c0,0.1-0.1,0.2-0.1,0.2
			c-0.1,0.1-0.1,0.2-0.3,0.5c-0.2,0.5-0.4,1.1-0.6,1.6v6.9c0,1.3,0,1.9,0,2c0,0.1,0,0.1-0.1,0.1H939c-0.1,0-0.1,0-0.1-0.1
			c0-0.1,0-0.7,0-2V1014.8z M942.8,1013.1c-1.3,0-1.7,0-1.8,0c-0.1,0-0.1,0-0.1-0.2v-0.9c0-0.1,0-0.2,0.1-0.2c0.1,0,0.5,0,1.8,0h4.7
			c1.3,0,1.7,0,1.8,0c0.1,0,0.2,0,0.2,0.2v0.9c0,0.1,0,0.2-0.2,0.2c-0.1,0-0.5,0-1.8,0H942.8z M941.8,1021.4c-0.1,0-0.1,0-0.1-0.1
			c0-0.1,0-0.4,0-1.7v-0.9c0-0.8,0-1.1,0-1.2c0-0.1,0-0.1,0.1-0.1c0.1,0,0.5,0,1.7,0h3.1c1.2,0,1.6,0,1.7,0c0.1,0,0.1,0,0.1,0.1
			c0,0.1,0,0.4,0,1v1c0,1.3,0,1.6,0,1.7c0,0.1,0,0.1-0.1,0.1h-1.1c-0.1,0-0.1,0-0.1-0.1v-0.4H943v0.4c0,0.1,0,0.1-0.1,0.1H941.8z
			 M943.7,1011.2c-1.2,0-1.5,0-1.6,0c-0.1,0-0.1,0-0.1-0.1v-0.9c0-0.1,0-0.1,0.1-0.1c0.1,0,0.5,0,1.6,0h2.8c1.1,0,1.5,0,1.6,0
			c0.1,0,0.2,0,0.2,0.1v0.9c0,0.1,0,0.1-0.2,0.1c-0.1,0-0.5,0-1.6,0H943.7z M943.7,1014.9c-1.1,0-1.5,0-1.6,0c-0.1,0-0.1,0-0.1-0.1
			v-0.9c0-0.1,0-0.1,0.1-0.1c0.1,0,0.5,0,1.6,0h2.7c1.1,0,1.5,0,1.6,0c0.1,0,0.1,0,0.1,0.1v0.9c0,0.1,0,0.1-0.1,0.1
			c-0.1,0-0.5,0-1.6,0H943.7z M943.7,1016.7c-1.1,0-1.5,0-1.6,0c-0.1,0-0.1,0-0.1-0.1v-0.8c0-0.1,0-0.1,0.1-0.1c0.1,0,0.5,0,1.6,0
			h2.7c1.1,0,1.5,0,1.6,0c0.1,0,0.1,0,0.1,0.1v0.8c0,0.1,0,0.1-0.1,0.1c-0.1,0-0.5,0-1.6,0H943.7z M943,1019.8h4.1v-1.2H943V1019.8z
			"/>
		<path class="st1" d="M951.8,1013.1c0.1-0.1,0.1-0.1,0.3,0c0.6,0.4,1.1,0.8,1.7,1.3c0.1,0.1,0.1,0.1,0.1,0.1s0,0.1-0.1,0.2
			l-0.5,0.8c-0.1,0.1-0.1,0.2-0.2,0.1c-0.5-0.5-1.1-1-1.7-1.4c-0.1,0-0.1-0.1-0.1-0.1s0-0.1,0.1-0.2L951.8,1013.1z M953.5,1017.1
			c0.4,0.3,0.4,0.3,0.2,0.6c-0.3,1-0.6,2-1,2.8c-0.1,0.2-0.2,0.4-0.2,0.5c0,0.1-0.1,0.2-0.1,0.2c-0.1,0-0.1,0-0.2-0.1
			c-0.3-0.2-0.6-0.4-1-0.7c0.2-0.3,0.4-0.6,0.6-1c0.4-1,0.7-1.7,1-3C953,1016.7,953.2,1016.9,953.5,1017.1z M952.2,1009.9
			c0.1-0.1,0.1-0.1,0.2-0.1c0.6,0.4,1.1,0.8,1.6,1.3c0.1,0.1,0.1,0.1,0.1,0.1s0,0.1-0.1,0.2l-0.6,0.8c-0.1,0.1-0.1,0.1-0.2,0
			c-0.5-0.5-1.1-1-1.6-1.4c-0.1,0-0.1-0.1-0.1-0.1c0,0,0-0.1,0.1-0.1L952.2,1009.9z M963.1,1018.1c0,0.1,0,0.1-0.1,0.1
			c-0.1,0-0.4,0-1.2,0c0.3,0.2,0.6,0.4,0.8,0.5c0.1,0.1,0.1,0.1,0.1,0.2c0,0.1-0.1,0.1-0.2,0.2c-0.1,0-0.2,0.1-0.4,0.2
			c-0.2,0.2-0.4,0.3-0.7,0.5c0.5,0.2,1.1,0.4,1.8,0.5c-0.2,0.2-0.3,0.5-0.4,0.8c-0.1,0.2-0.1,0.3-0.2,0.3c-0.1,0-0.2,0-0.3-0.1
			c-1.3-0.4-2.2-0.9-2.9-1.6c0,0.1,0,0.3,0,0.5c0,0.3,0,0.3-0.4,0.4c-1,0.3-1.9,0.5-2.7,0.6c-0.2,0.1-0.4,0.1-0.5,0.1
			c-0.1,0-0.1,0.1-0.2,0.1s-0.1-0.1-0.2-0.2c-0.1-0.2-0.2-0.6-0.3-0.9c0.4,0,0.8-0.1,1.1-0.1c0.1,0,0.1,0,0.2,0v-1.9h-0.9
			c0,0.3-0.1,0.6-0.2,0.8c-0.2,0.8-0.5,1.4-1,2.1c-0.1,0.2-0.2,0.2-0.2,0.2c-0.1,0-0.1-0.1-0.3-0.2c-0.2-0.2-0.6-0.5-0.8-0.6
			c0.5-0.5,0.9-1.1,1.1-2c0.2-0.6,0.3-1.5,0.3-2.6c0-0.8,0-1.1,0-1.2c0-0.1,0-0.1,0.1-0.1c0.1,0,0.5,0,1.8,0h4.5c1.3,0,1.7,0,1.8,0
			c0.1,0,0.1,0,0.1,0.1v0.7c0,0.1,0,0.1-0.1,0.1c-0.1,0-0.5,0-1.8,0h-5.3v0.5c0,0.5,0,0.9-0.1,1.3h5.4c1.2,0,1.7,0,1.8,0
			c0.1,0,0.1,0,0.1,0.1V1018.1z M957,1010.5c0-0.4,0-0.6-0.1-0.9c0.4,0,0.7,0,1.1,0.1c0.1,0,0.2,0.1,0.2,0.1c0,0.1,0,0.1-0.1,0.2
			c0,0.1-0.1,0.2-0.1,0.5h1c0-0.4,0-0.6-0.1-0.9c0.4,0,0.7,0,1.1,0.1c0.1,0,0.2,0.1,0.2,0.1c0,0.1,0,0.1-0.1,0.2
			c0,0.1-0.1,0.2-0.1,0.5h0.2c1.2,0,1.7,0,1.8,0c0.1,0,0.1,0,0.1,0.1c0,0.1,0,0.4,0,1.1v1.3c0,0.7,0,1,0,1.1c0,0.1,0,0.1-0.1,0.1
			c-0.1,0-0.5,0-1.8,0h-3.7c-1.2,0-1.7,0-1.7,0c-0.1,0-0.1,0-0.1-0.1c0-0.1,0-0.4,0-1.1v-1.3c0-0.7,0-1,0-1.1c0-0.1,0-0.1,0.1-0.1
			c0.1,0,0.5,0,1.7,0H957z M957,1011.9v-0.7h-1v0.7H957z M957,1013.3v-0.7h-1v0.7H957z M958,1016.9c-1.1,0-1.5,0-1.5,0
			c-0.1,0-0.1,0-0.1-0.1v-0.6c0-0.1,0-0.2,0.1-0.2c0.1,0,0.4,0,1.5,0h2.4c1.1,0,1.5,0,1.6,0c0.1,0,0.1,0,0.1,0.2v0.6
			c0,0.1,0,0.1-0.1,0.1c-0.1,0-0.5,0-1.6,0H958z M957.7,1020c0.5-0.1,1.1-0.2,1.6-0.4c-0.4-0.4-0.7-0.9-0.9-1.4h-0.7V1020z
			 M959.1,1011.9v-0.7h-1v0.7H959.1z M959.1,1012.6h-1v0.7h1V1012.6z M959.6,1018.3c0.2,0.4,0.5,0.8,0.9,1.1
			c0.3-0.2,0.5-0.4,0.8-0.7c0.1-0.1,0.2-0.2,0.3-0.4H959.6z M960.2,1011.3v0.7h1v-0.7H960.2z M961.2,1012.6h-1v0.7h1V1012.6z"/>
		<path class="st1" d="M966,1013.3c-0.1,0.1-0.2,0.2-0.4,0.3c-0.1,0.1-0.2,0.1-0.3,0.1c-0.1,0-0.1-0.1-0.2-0.3
			c-0.1-0.3-0.3-0.6-0.4-0.8c1-0.7,1.8-1.5,2.2-2.3c0.2-0.3,0.2-0.5,0.3-0.7c0.4,0.1,0.9,0.1,1.2,0.2c0.1,0,0.2,0.1,0.2,0.2
			c0,0.1,0,0.1-0.1,0.2l-0.1,0.1c0.5,0.7,1.1,1.1,1.9,1.7c-0.2,0.2-0.4,0.4-0.5,0.7c-0.1,0.2-0.2,0.3-0.2,0.3
			c-0.1,0-0.1-0.1-0.3-0.2c-0.6-0.5-1-1-1.4-1.5c-0.4,0.6-0.9,1.2-1.4,1.7c0.2,0,0.4,0,0.8,0h1.1c0.8,0,1,0,1.1,0
			c0.1,0,0.1,0,0.1,0.2v0.8c0,0.1,0,0.1-0.1,0.1c-0.1,0-0.3,0-1.1,0v1h0c1,0,1.3,0,1.4,0c0.1,0,0.2,0,0.2,0.1v0.9
			c0,0.1,0,0.1-0.2,0.1c-0.1,0-0.4,0-1.4,0h0v3.1c0.6-0.2,1.1-0.4,1.7-0.5c-0.1,0.2-0.1,0.5-0.1,0.7c0,0.4,0,0.4-0.4,0.5
			c-1,0.4-2.3,0.8-3.4,1.1c-0.2,0.1-0.4,0.1-0.5,0.2c-0.1,0-0.1,0.1-0.2,0.1c-0.1,0-0.2-0.1-0.2-0.2c-0.1-0.4-0.2-0.7-0.3-1.1
			c0.4,0,0.8-0.1,1.3-0.2l0.9-0.2v-3.5h-0.4c-1,0-1.3,0-1.4,0c-0.1,0-0.1,0-0.1-0.1v-0.9c0-0.1,0-0.1,0.1-0.1c0.1,0,0.4,0,1.4,0h0.4
			v-1c-0.7,0-0.9,0-0.9,0c-0.1,0-0.1,0-0.1-0.1V1013.3z M966,1016.7c0.2-0.1,0.2-0.1,0.2,0.1c0.2,0.7,0.4,1.2,0.5,2
			c0,0.1,0,0.1-0.2,0.2l-0.6,0.2c-0.2,0.1-0.2,0.1-0.2-0.1c-0.1-0.7-0.2-1.3-0.5-2c-0.1-0.1,0-0.2,0.1-0.2L966,1016.7z
			 M970.1,1016.9c0.1,0,0.1,0.1,0.1,0.1c0,0.1,0,0.1-0.1,0.1c-0.1,0.1-0.1,0.1-0.2,0.3c-0.1,0.3-0.2,0.7-0.4,1
			c-0.1,0.2-0.1,0.3-0.2,0.3c-0.1,0-0.1,0-0.3-0.1c-0.1-0.1-0.4-0.2-0.5-0.2c0.2-0.5,0.4-1,0.5-1.5c0-0.1,0.1-0.3,0.1-0.5
			C969.4,1016.6,969.9,1016.8,970.1,1016.9z M971.5,1013.3c-0.1,0.4-0.3,0.8-0.5,1.1c-0.1,0.2-0.1,0.3-0.2,0.3
			c-0.1,0-0.1-0.1-0.3-0.2c-0.2-0.2-0.5-0.4-0.7-0.6c0.5-0.8,0.8-1.8,1-2.9c0-0.2,0.1-0.5,0.1-0.8c0.4,0.1,0.8,0.2,1.1,0.3
			c0.2,0.1,0.2,0.1,0.2,0.2c0,0.1,0,0.1-0.1,0.2c-0.1,0.1-0.1,0.3-0.2,0.6c0,0.2-0.1,0.4-0.1,0.6h0.9v-0.6c0-0.8,0-1.3-0.1-1.8
			c0.4,0,0.9,0,1.4,0.1c0.1,0,0.2,0.1,0.2,0.1c0,0.1,0,0.2-0.1,0.3c-0.1,0.1-0.1,0.5-0.1,1.3v0.6h0.7c1,0,1.4,0,1.5,0
			c0.1,0,0.1,0,0.1,0.2v1c0,0.1,0,0.1-0.1,0.1c-0.1,0-0.4,0-1.5,0H974c0,0.6-0.1,1.2-0.1,1.8h1.1c1.2,0,1.6,0,1.7,0
			c0.1,0,0.1,0,0.1,0.1v1c0,0.1,0,0.1-0.1,0.1c-0.1,0-0.5,0-1.7,0h-0.8c0.5,1.6,1.4,2.9,2.9,3.9c-0.2,0.2-0.5,0.5-0.7,0.9
			c-0.1,0.2-0.2,0.3-0.2,0.3c-0.1,0-0.1-0.1-0.3-0.2c-1.2-1.1-2-2.2-2.5-3.6c-0.6,1.6-1.6,2.8-3.1,3.7c-0.2,0.1-0.2,0.1-0.3,0.1
			c-0.1,0-0.1-0.1-0.2-0.3c-0.2-0.3-0.4-0.6-0.7-0.8c1.8-0.8,2.8-1.9,3.2-3.5l0.2-0.7H972c-1.2,0-1.6,0-1.7,0c-0.1,0-0.1,0-0.1-0.1
			v-1c0-0.1,0-0.1,0.1-0.1c0.1,0,0.5,0,1.7,0h0.6c0.1-0.5,0.1-1.1,0.1-1.8H971.5z"/>
		<path class="st1" d="M981.6,1018.6c0.3,0.5,0.5,0.9,1.1,1.1c0.5,0.2,1.3,0.2,2.4,0.2c1.7,0,3.7-0.1,5.6-0.3
			c-0.2,0.3-0.3,0.7-0.4,1c-0.1,0.4-0.1,0.4-0.5,0.4c-1.7,0.1-3.2,0.1-4.5,0.1c-1.3,0-2.5-0.1-3-0.4c-0.6-0.3-1.1-0.7-1.4-1.2
			c-0.4,0.4-0.9,0.8-1.3,1.2c-0.1,0.1-0.2,0.2-0.3,0.3c-0.1,0.1-0.1,0.1-0.2,0.1c-0.1,0-0.1-0.1-0.2-0.2c-0.2-0.3-0.4-0.8-0.5-1.2
			c0.3-0.2,0.5-0.2,0.8-0.4c0.4-0.2,0.8-0.5,1.1-0.8v-2.9h-0.6c-0.7,0-0.9,0-0.9,0c-0.1,0-0.2,0-0.2-0.2v-1c0-0.1,0-0.1,0.2-0.1
			c0.1,0,0.2,0,0.9,0h0.8c0.7,0,0.9,0,1,0c0.1,0,0.1,0,0.1,0.1c0,0.1,0,0.4,0,1.2V1018.6z M979.7,1010c0.1-0.1,0.1-0.1,0.2-0.1
			s0.1,0,0.1,0.1c0.6,0.6,1.2,1.2,1.6,1.9c0.1,0.1,0.1,0.1-0.1,0.2l-0.7,0.6c-0.1,0.1-0.1,0.1-0.2,0.1c-0.1,0-0.1,0-0.1-0.1
			c-0.4-0.7-1-1.5-1.6-2c-0.1-0.1-0.1-0.1,0.1-0.2L979.7,1010z M984,1012.3c-1.4,0-1.8,0-1.9,0c-0.1,0-0.1,0-0.1-0.2v-0.8
			c0-0.1,0-0.2,0.1-0.2c0.1,0,0.5,0,1.9,0h0.1c-0.2-0.4-0.4-0.9-0.7-1.2c-0.1-0.1-0.1-0.2,0.1-0.2l0.9-0.2c0.2,0,0.2,0,0.3,0.1
			c0.3,0.3,0.5,0.7,0.7,1.1c0.1,0.1,0,0.2-0.1,0.2l-0.8,0.3h2.1c0.2-0.4,0.4-0.7,0.5-1c0.1-0.2,0.2-0.4,0.2-0.7
			c0.4,0.1,0.9,0.2,1.2,0.3c0.1,0,0.2,0.1,0.2,0.2c0,0.1-0.1,0.1-0.1,0.2c-0.1,0.1-0.2,0.2-0.2,0.3c-0.1,0.2-0.3,0.5-0.5,0.8h0.4
			c1.3,0,1.7,0,1.8,0c0.1,0,0.2,0,0.2,0.2v0.8c0,0.1,0,0.2-0.2,0.2c-0.1,0-0.5,0-1.8,0h-1.7c-0.1,0.3-0.2,0.5-0.3,0.8h1.2
			c1.2,0,1.6,0,1.6,0c0.1,0,0.2,0,0.2,0.1c0,0.1,0,0.5,0,1.4v3.1c0,0.9,0,1.3,0,1.4c0,0.1,0,0.2-0.2,0.2c-0.1,0-0.5,0-1.6,0h-2.8
			c-1.2,0-1.6,0-1.7,0c-0.1,0-0.2,0-0.2-0.2c0-0.1,0-0.4,0-1.4v-3.1c0-0.9,0-1.3,0-1.4c0-0.1,0-0.1,0.2-0.1c0.1,0,0.5,0,1.7,0h0.3
			c0.1-0.2,0.2-0.5,0.3-0.8H984z M984.1,1014.8h3.8v-0.7h-3.8V1014.8z M988,1016.5v-0.7h-3.8v0.7H988z M988,1017.4h-3.8v0.8h3.8
			V1017.4z"/>
	</g>
</g>
</svg>
