<svg xmlns="http://www.w3.org/2000/svg" viewBox="0 0 120 298.85"><defs><style>.cls-1{fill:#7f4f21;}.cls-2{fill:#2b2624;}.cls-3{isolation:isolate;}.cls-4{fill:#fff;}.cls-5{fill:#009139;}.cls-6{fill:#07913a;}</style></defs><g id="レイヤー_2" data-name="レイヤー 2"><g id="レイヤー_1-2" data-name="レイヤー 1"><g id="グループ_1028" data-name="グループ 1028"><rect id="長方形_741" data-name="長方形 741" class="cls-1" x="59.15" y="61" width="1.7" height="220.1"/><path id="長方形_740" data-name="長方形 740" class="cls-2" d="M12.5,0h95A12.5,12.5,0,0,1,120,12.5h0A12.5,12.5,0,0,1,107.5,25h-95A12.5,12.5,0,0,1,0,12.5H0A12.5,12.5,0,0,1,12.5,0Z"/><g class="cls-3"><path class="cls-4" d="M31.5,18.8a10.18,10.18,0,0,1-3.7-2.3,6.37,6.37,0,0,1-1.1-1.3,33.58,33.58,0,0,0,.1,3.8H25.3c0-.6.1-3.2.1-3.8a14.06,14.06,0,0,1-2.5,2.4,8.27,8.27,0,0,1-2.2,1.2l-.8-1.1a6.78,6.78,0,0,0,2.7-1.5,12,12,0,0,0,1.5-1.6H21.5V9.4h3.8V8.5H24c-1.4,0-2.7,0-4.1.1V7.2c1.4.1,3.5.1,4.1.1h1.4V6l1.5.1c.2,0,.3.1.3.2s-.1.2-.4.4v.7h1.4c1.4,0,2.8,0,4.1-.1V8.7c-1.8-.1-4-.1-4.1-.1H26.8v.9h1.1a26.2,26.2,0,0,0,2.8-.1v3.4a12.83,12.83,0,0,0,.1,1.8H28c.4.6,1.4,2,4.6,3Zm-6.1-8.1H22.8v1.1h2.6Zm0,2H22.8v1.1h2.6Zm3.8-2H26.6v1.1h2.6Zm0,2H26.6v1.1h2.6Z"/><path class="cls-4" d="M42.7,8.9h-4c-1.3,0-2.7,0-4.1.1V7.6c1.4.1,3.4.1,4.1.1h1.4V6.2l1.4.1c.3,0,.4.1.4.2s-.2.2-.4.3v.8h1.2c1.4,0,2.7,0,4.1-.1V8.9Zm-4.4,7a11.16,11.16,0,0,1-2.6,2.2l-1.1-1a7.31,7.31,0,0,0,2.8-2.3l1.2.9c.1.1.1.1.1.2S38.6,16,38.3,15.9Zm4-1.9h-1v3.4c0,.9,0,1-.3,1.3s-1.1.4-2.3.4l-.5-1.4c.3,0,.9.1,1.3.1s.4-.1.4-.4V14.2h-1a21.75,21.75,0,0,0-2.5.1,11,11,0,0,0,.1-1.6V10.1h8.3v4.2A11.86,11.86,0,0,0,42.3,14Zm1.2-2.9H37.9V13h5.6ZM45.4,18c-.4-.4-1.1-1-1.3-1.2a11.07,11.07,0,0,0-1.6-1.1l.9-.9a14.8,14.8,0,0,1,3,2.1Z"/><path class="cls-4" d="M60.1,9.6H55.5c0,.7-.1,1.2-.1,1.7h2.5a14.84,14.84,0,0,0,2.3-.1,21,21,0,0,1-.2,2.2c0,.2-.4,3.5-1.4,4.8a2,2,0,0,1-1.9.8,5.94,5.94,0,0,1-1.1-.1l-.4-1.7a6.05,6.05,0,0,0,1.5.2c.4,0,.9,0,1.3-1.2a18.45,18.45,0,0,0,.7-3.8H55.2a8,8,0,0,1-2.1,4.2,7.59,7.59,0,0,1-2.9,2l-1.1-1.1a7.57,7.57,0,0,0,3.9-3c.8-1.2,1.1-2.4,1.1-5H50.7a6.15,6.15,0,0,0-1.4.1V8.2c.3,0,.7.1,1.9.1h3.6V6.2l1.6.2a.22.22,0,0,1,.2.2c0,.2-.3.3-.4.3V8.3H58a16.36,16.36,0,0,0,3.7-.2V9.5A3,3,0,0,1,60.1,9.6Z"/><path class="cls-4" d="M71.9,7.9H70.8a13,13,0,0,1-.6,1.9H74c1.1,0,1.5-.1,1.9-.1,0,.6-.1,2.5-.1,3.2v4.3c0,.8.1,1.6.1,1.8H74.3a3.08,3.08,0,0,0,.1-.9h-9a3.08,3.08,0,0,0,.1.9H64.1a30.14,30.14,0,0,0,.1-3.2V13.3c0-.9-.1-2.9-.1-3.6,1.2.1,3.2.1,4.5.1a14.58,14.58,0,0,0,.7-1.9H67.9a28.17,28.17,0,0,0-4.2.2V6.7c.7.1,4,.1,4.3.1h3.7c.3,0,3,0,3.5-.1a2.48,2.48,0,0,0,.9-.1V7.9C74.9,8,72,7.9,71.9,7.9Zm-4.5,3H65.6v6h1.8Zm4.2,0h-3v1.3h3Zm0,2.4h-3v1.3h3Zm0,2.3h-3v1.3h3Zm3-4.7H72.8v6h1.8Z"/></g><g class="cls-3"><path class="cls-4" d="M86.2,18.4a7.08,7.08,0,0,0-3-1.6,1.81,1.81,0,0,1-.3,1.3,3,3,0,0,1-2,.6c-.9,0-2.5-.4-2.5-1.6s1.3-1.6,2.7-1.6h1c-.1-1-.1-2.1-.1-3.1a15.06,15.06,0,0,0-.1-2.8l1.5.1c.1,0,.2,0,.2.2s0,.1-.4.5a8.6,8.6,0,0,0-.1,1.6,10.57,10.57,0,0,0,3.2-.4v1.1a11.23,11.23,0,0,1-3.2.3,21,21,0,0,0,.1,2.8,11.76,11.76,0,0,1,2,.7,11.94,11.94,0,0,1,1.6.8Zm-5.2-2a4.44,4.44,0,0,0-1.3.2.62.62,0,0,0-.3.5c0,.6,1.1.7,1.4.7,1.5,0,1.4-.8,1.4-1.3C81.9,16.5,81.5,16.4,81,16.4Z"/><path class="cls-4" d="M89.9,16.1l-.8.2a8.66,8.66,0,0,1-.6-3.2,22.27,22.27,0,0,1,.4-3.4l1.2.2a.22.22,0,0,1,.2.2c0,.1-.1.2-.4.3a7.1,7.1,0,0,0-.5,2.9c0,.4,0,1,.1,1s.1,0,.1-.2a14.17,14.17,0,0,0,.8-1.8l.5.7C90.6,14,90.1,15.1,89.9,16.1Zm4.8-5.9v1.9c0,2.5-.3,5-2.2,6.6L91.3,18a3.8,3.8,0,0,0,1.6-1.6,9.61,9.61,0,0,0,.8-3.8c0-1-.1-2-.2-3l1.3.1c.1,0,.3,0,.3.2A.54.54,0,0,1,94.7,10.2Z"/></g><rect id="長方形_652" data-name="長方形 652" class="cls-1" y="45.6" width="120" height="19.6"/><g class="cls-3"><path class="cls-4" d="M34.1,52.8v6.8c0,.4,0,.7-.3.9s-.5.3-1.2.3h-.5l-.4-.8-.3.4a5.44,5.44,0,0,1-2.5-2.1,4.51,4.51,0,0,1-2.4,2.3l-1-.8a3.23,3.23,0,0,0,2.3-1.7,16.2,16.2,0,0,0-2.2.1v-.9c.9,0,1.7.1,2.2.1h.4a2.81,2.81,0,0,0,.1-.8h-.2a14.93,14.93,0,0,0-1.9.1v-1h1.3a7.3,7.3,0,0,0-.9-1l.8-.4H25v4.3a12.34,12.34,0,0,0,.1,2.5H23.8a19.27,19.27,0,0,0,.1-2.4V52.2a14.38,14.38,0,0,0-.1-1.8c.2,0,1.2.1,1.7.1h2.9c0,.2-.1,1.5-.1,1.6v1a7.57,7.57,0,0,0,.1,1.5,4.4,4.4,0,0,1-.9-.1,2.84,2.84,0,0,1,.8,1.1l-.6.3h2.2l-.4-.3a3.58,3.58,0,0,0,.6-1.1h-.7a9.51,9.51,0,0,0,.1-1.4V52a9.15,9.15,0,0,0-.1-1.6c.3,0,.9.1,1.3.1h1.5c.1,0,1.3-.1,1.8-.1C34.2,50.6,34.1,51,34.1,52.8Zm-6.6-1.7H25.1v.7h2.4Zm0,1.5H25.1v.8h2.4Zm5.7,1.5H30.6l.7.3a.37.37,0,0,1,.2.3c0,.2-.1.1-.4.2-.1.1-.3.5-.4.6h1.2v1c-.8,0-1.6-.1-1.9-.1h-.5a1.72,1.72,0,0,1-.1.8H30a18.48,18.48,0,0,0,2.3-.1V58c-1,0-1.8-.1-2.2-.1a5,5,0,0,0,2.2,1.5l-.2.2c.1,0,.6.1.7.1.3,0,.3-.2.3-.7V54.1Zm0-3H30.6v.7h2.5v-.7Zm0,1.5H30.6v.8h2.5v-.8Z"/><path class="cls-4" d="M46.2,58.8c-.6,0-1.1-.6-1.4-1.1a11,11,0,0,1-1.5,1.4l-1-.7a5.94,5.94,0,0,0,2-1.7,10.06,10.06,0,0,1-.6-3.6H42.6v3.3a10,10,0,0,0,1.1-.4l-.1,1a17.89,17.89,0,0,1-2.1.9c-.1.2-.1.3-.2.3s-.1,0-.2-.2l-.2-.7H39.7v2a9.17,9.17,0,0,0,3.3.4,28.28,28.28,0,0,0,4.1-.3l-.4,1.2c-.5,0-.8.1-2,.1-3.8,0-4.4-.2-5.2-.4a3.45,3.45,0,0,1-2-1.3,5.75,5.75,0,0,1-.7,1.7l-1.1-.4a6.59,6.59,0,0,0,1.1-3.9v-.6l1.3.3a.22.22,0,0,1,.2.2q0,.15-.3.3a5.85,5.85,0,0,1-.2,1.3,3.24,3.24,0,0,0,.8.9V54.9h-.7a13.92,13.92,0,0,0-1.7.1V53.9a11.56,11.56,0,0,0,1.7.1h.7V52.8H38a6.15,6.15,0,0,0-1.4.1V51.7a8.17,8.17,0,0,0,1.4.1h.6V50.3l1.3.1c.1,0,.2,0,.2.1s0,.1-.3.3v1a4.48,4.48,0,0,0,1.2-.1v1.2a4.48,4.48,0,0,0-1.2-.1V54a13.92,13.92,0,0,0,1.7-.1V55a10.9,10.9,0,0,0-1.7-.1v1.4h.5a2.77,2.77,0,0,0,.9-.1v.6a1.34,1.34,0,0,0,.5-.1V52.1a13.05,13.05,0,0,0,1.7.1h.3c0-.7-.1-1.4-.1-2l1.3.1c.1,0,.2,0,.2.2s-.1.1-.3.3a9.89,9.89,0,0,0-.1,1.5h1.5c-.5-.9-1-1.2-1.2-1.2l.8-.7a3.41,3.41,0,0,1,1.3,1.3l-.8.7c.5,0,.6,0,.8-.1v1.1a13.4,13.4,0,0,0-2-.1h-.5c.1,1.1.2,1.8.3,2.4a12.09,12.09,0,0,0,.5-1.8l1.2.4a.22.22,0,0,1,.2.2c0,.1-.1.2-.3.2a7.39,7.39,0,0,1-1,2.2c.1.1.3.6.6.6s.3-.3.4-.5a6.37,6.37,0,0,1,.2-.7l.8.8C47.1,58,46.7,58.8,46.2,58.8Z"/><path class="cls-4" d="M56,60.7a3.44,3.44,0,0,1,.1-.9H51c.1.8.1.9.1.9H49.8c0-.3.1-.5.1-.9V54.4a25.6,25.6,0,0,0-.1-3.3,24.37,24.37,0,0,0,2.7.1,3.81,3.81,0,0,0,.3-1.5l1.4.2c.1,0,.3,0,.3.2s0,.1-.1.2a1,1,0,0,1-.3.1c-.2.4-.2.5-.3.7h.9a26.2,26.2,0,0,0,2.8-.1c0,.4-.1.6-.1,1.7v6.2c0,1,.1,1.2.1,1.6H56Zm.1-8.3H51v1.4h5.1Zm0,2.4H51v1.4h5.1Zm0,2.5H51v1.5h5.1Z"/><path class="cls-4" d="M69.9,59.9c-.2.5-.5.9-1.9.8l-.5-1.3a2.77,2.77,0,0,0,.9.1c.4,0,.6,0,.8-1.1a21.31,21.31,0,0,0,.3-4.7h-.9a11.59,11.59,0,0,1-.8,4.3,6.29,6.29,0,0,1-2,2.8l-1.2-.6a2.76,2.76,0,0,0,.9-.7l-5.2.7q-.15.3-.3.3a.22.22,0,0,1-.2-.2l-.1-1.2c.7,0,1.2,0,2.8-.1v-.8H62a15.56,15.56,0,0,0-2,.1v-.9c.7,0,1.6.1,2,.1h.5v-.6h-.2a10.87,10.87,0,0,0-1.8.1V53.5h2V53h-.6c-.2,0-1.1,0-2.1.1v-.9c.7,0,1.6.1,2.1.1h.6v-.6H60.6l-.5-.9a4.92,4.92,0,0,0,1.4.1,8.36,8.36,0,0,0,3.7-.7l.6.8v.2c0,.1,0,.2-.2.2s-.3-.1-.4-.1a8.24,8.24,0,0,1-1.8.4v.7h.4a17,17,0,0,0,2.1-.1v.9c-.6,0-1.7-.1-2.1-.1h-.4v.5h2.2v3.5c-.5,0-1.1-.1-1.8-.1h-.3v.6h.2a15.56,15.56,0,0,0,2-.1v.9c-.6,0-1.6-.1-2-.1h-.2V59l2.3-.3-.1.7c1.6-1.7,1.8-4.6,1.8-5.6H66.1v-1h1.4a17.1,17.1,0,0,0-.1-2.6l1.3.1c.1,0,.2,0,.2.2s-.2.2-.3.3v2h.2a10.36,10.36,0,0,0,1.6-.1C70.6,54.8,70.6,58.4,69.9,59.9Zm-7.2-5.8h-1v.6h1Zm0,1.3h-1V56h1Zm2.1-1.3H63.6v.6h1.2Zm0,1.3H63.6V56h1.2Z"/><path class="cls-4" d="M79.7,58.8H78.5c0,.7.1,1.3.1,2.1H77.2a8.24,8.24,0,0,0,.1-2.1H76.1c-1.7,0-2.6,0-3.7.1V57.8c1.5.1,3.5.1,3.7.1h1.2v-.8h-1a18.48,18.48,0,0,0-2.3.1c0-.3.1-1,.1-1.6V54.4a6.18,6.18,0,0,0-.1-1.5,19.42,19.42,0,0,0,2.2.1h1.1v-.8H76.2s-1.9,0-3.3.1V51.1c1.1.1,2.7.1,3.3.1h1a4.89,4.89,0,0,0-.1-1.3h1.4c.2,0,.3,0,.3.1s0,.1-.4.4v.7h1.1c.3,0,2.1,0,3.3-.1v1.2c-1.4-.1-3.2-.1-3.3-.1H78.4v.8h.7a20.12,20.12,0,0,0,2.6-.1,8.6,8.6,0,0,0-.1,1.6v1.1a9.7,9.7,0,0,0,.1,1.7c-.5,0-2.3-.1-2.5-.1h-.8v.8h1.3c1.2,0,2.4,0,3.7-.1v1.1C82.3,58.9,81.3,58.8,79.7,58.8Zm-2.3-5H75.2v.8h2.2Zm0,1.7H75.2v.8h2.2Zm3.3-1.7H78.4v.8h2.3Zm0,1.7H78.4v.8h2.3Z"/><path class="cls-4" d="M86.5,53.5a6.57,6.57,0,0,0-1.6-2.6l.9-.6a9.06,9.06,0,0,1,1.6,2.6Zm9.2,7.1H88.8a2.17,2.17,0,0,1-1.9-1.1,2.72,2.72,0,0,1-1,.8c0,.3,0,.4-.2.4a.35.35,0,0,1-.2-.1L85,59.4c.8-.4,1-.5,1.5-.8V55.9h-.6a3.75,3.75,0,0,0-.8.1V54.8c.3,0,.5.1.9.1h.7a2.22,2.22,0,0,0,.9-.1c0,.5-.1,1-.1,1.4v2.1a1.43,1.43,0,0,0,.5,1.1c.5.4.9.4,3.3.4a28,28,0,0,0,4.9-.3Zm-2.8-8.1h-.3l-.3.8H95v6.1H93.8V59H90.1v.4H88.9V53.3H91l.3-.8h-.8a26.2,26.2,0,0,0-2.8.1V51.5a20.9,20.9,0,0,0,2.5.1A6.77,6.77,0,0,0,89,50.3l1.1-.6a4,4,0,0,1,1.2,1.5l-.6.4h2.6l-.6-.3a6.56,6.56,0,0,0,.9-1.5l1.1.5c.2.1.2.1.2.2s-.3.2-.4.2a7.05,7.05,0,0,1-.7.9c1.2,0,1.8-.1,2.3-.1v1.1C95,52.5,94.2,52.5,92.9,52.5Zm.8,1.6H89.9v.8h3.8Zm0,1.6H89.9v.8h3.8Zm0,1.6H89.9v.8h3.8Z"/></g><rect id="長方形_652-2" data-name="長方形 652-2" class="cls-1" y="120.2" width="120" height="19.6"/><g class="cls-3"><path class="cls-4" d="M24.55,134.8h-3.5c-1.2,0-2.4,0-3.6.1v-1.2c1.3.1,3.1.1,3.6.1h1.1v-8.7l1.5.1c.1,0,.3.1.3.2s-.1.2-.5.3v3h2.4a5.7,5.7,0,0,0,1.3-.1v1.2a8.47,8.47,0,0,0-1.3-.1h-2.4v4h1.3c1.2,0,2.4,0,3.7-.1v1.2Z"/><path class="cls-4" d="M33.25,125.5a14.46,14.46,0,0,1-.8,1.8c.2.1.2.1.2.2s0,.1-.2.3v5c0,.8.1,1.9.1,2.8h-1.4a16.79,16.79,0,0,0,.2-2.9v-3.6c-.5.6-.7.8-.8.9l-.9-.8a6.54,6.54,0,0,0,1.8-2.3,6.5,6.5,0,0,0,.9-2.3l1.2.6c.1,0,.1.1.1.2A1,1,0,0,1,33.25,125.5Zm5,2.1h-2.5a22.6,22.6,0,0,0-2.6.1v-1.2c.9.1,2.2.1,2.6.1h2.5a21.75,21.75,0,0,0,2.6-.1v1.2C39.75,127.6,38.35,127.6,38.25,127.6Zm.6,7.9v-.4h-3.6v.4h-1.2c0-.6.1-1.1.1-1.3v-2.3h5.9v2.3a5.7,5.7,0,0,0,.1,1.3Zm-1-9.7h-1.7a9.15,9.15,0,0,0-1.7.1v-1.2a12.27,12.27,0,0,0,1.7.1h1.7a9.15,9.15,0,0,0,1.7-.1v1.2A13.92,13.92,0,0,0,37.85,125.8Zm0,3.6h-1.7a14.89,14.89,0,0,0-1.7.1v-1.2a11.56,11.56,0,0,0,1.7.1h1.7a9.15,9.15,0,0,0,1.7-.1v1.2A14.89,14.89,0,0,0,37.85,129.4Zm0,1.8h-1.7a14.89,14.89,0,0,0-1.7.1v-1.2a11.56,11.56,0,0,0,1.7.1h1.7a9.15,9.15,0,0,0,1.7-.1v1.2A14.89,14.89,0,0,0,37.85,131.2Zm1,1.7h-3.7v1.3h3.7Z"/><path class="cls-4" d="M52.55,133.4c-.6,0-1.1-.6-1.4-1.1a11,11,0,0,1-1.5,1.4l-1-.7a5.94,5.94,0,0,0,2-1.7,10.06,10.06,0,0,1-.6-3.6h-.9V131a10,10,0,0,0,1.1-.4l-.1,1a17.89,17.89,0,0,1-2.1.9c-.1.2-.1.3-.2.3s-.1,0-.2-.2l-.2-.7h-1.2v2a9.17,9.17,0,0,0,3.3.4,28.28,28.28,0,0,0,4.1-.3l-.4,1.2c-.5,0-.8.1-2,.1-3.8,0-4.4-.2-5.2-.4a3.45,3.45,0,0,1-2-1.3,5.75,5.75,0,0,1-.7,1.7l-1.1-.4a6.59,6.59,0,0,0,1.1-3.9v-.6l1.3.3a.22.22,0,0,1,.2.2q0,.15-.3.3a5.85,5.85,0,0,1-.2,1.3,3.24,3.24,0,0,0,.8.9v-3.9h-.7a13.92,13.92,0,0,0-1.7.1v-1.1a11.56,11.56,0,0,0,1.7.1h.7v-1.2h-.6a6.15,6.15,0,0,0-1.4.1v-1.2a8.17,8.17,0,0,0,1.4.1h.6v-1.5l1.3.1c.1,0,.2,0,.2.1s0,.1-.3.3v1a4.48,4.48,0,0,0,1.2-.1v1.2a4.48,4.48,0,0,0-1.2-.1v1.2a13.92,13.92,0,0,0,1.7-.1v1.1a10.9,10.9,0,0,0-1.7-.1v1.4h.5a2.77,2.77,0,0,0,.9-.1v.6a1.34,1.34,0,0,0,.5-.1v-4.6a13.05,13.05,0,0,0,1.7.1h.3c0-.7-.1-1.4-.1-2l1.3.1c.1,0,.2,0,.2.2s-.1.1-.3.3a9.89,9.89,0,0,0-.1,1.5h1.5c-.5-.9-1-1.2-1.2-1.2l.8-.7a3.41,3.41,0,0,1,1.3,1.3l-.8.7c.5,0,.6,0,.8-.1V128a13.4,13.4,0,0,0-2-.1h-.3c.1,1.1.2,1.8.3,2.4a12.09,12.09,0,0,0,.5-1.8l1.2.4a.22.22,0,0,1,.2.2c0,.1-.1.2-.3.2a7.39,7.39,0,0,1-1,2.2c.1.1.3.6.6.6s.3-.3.4-.5a6.37,6.37,0,0,1,.2-.7l.8.8C53.45,132.7,53.05,133.4,52.55,133.4Z"/><path class="cls-4" d="M62.35,135.4a3.44,3.44,0,0,1,.1-.9h-5.1c.1.8.1.9.1.9h-1.3c0-.3.1-.5.1-.9v-5.4a25.6,25.6,0,0,0-.1-3.3,24.37,24.37,0,0,0,2.7.1,3.81,3.81,0,0,0,.3-1.5l1.4.2c.1,0,.3,0,.3.2s0,.1-.1.2a1,1,0,0,1-.3.1c-.2.4-.2.5-.3.7h.9a26.2,26.2,0,0,0,2.8-.1c0,.4-.1.6-.1,1.7v6.2c0,1,.1,1.2.1,1.6h-1.5Zm.1-8.4h-5.1v1.4h5.1Zm0,2.5h-5.1v1.4h5.1Zm0,2.5h-5.1v1.5h5.1Z"/><path class="cls-4" d="M76.25,134.6c-.2.5-.5.9-1.9.8l-.5-1.3a2.77,2.77,0,0,0,.9.1c.4,0,.6,0,.8-1.1a21.31,21.31,0,0,0,.3-4.7H75a11.59,11.59,0,0,1-.8,4.3,6.29,6.29,0,0,1-2,2.8l-1.2-.6a2.76,2.76,0,0,0,.9-.7l-5.2.7q-.15.3-.3.3a.22.22,0,0,1-.2-.2l-.1-1.2c.7,0,1.2,0,2.8-.1v-.8h-.5a15.56,15.56,0,0,0-2,.1v-.9c.7,0,1.6.1,2,.1h.5v-.6h-.2a10.87,10.87,0,0,0-1.8.1v-3.5h2v-.5h-.6c-.2,0-1.1,0-2.1.1v-.9c.7,0,1.6.1,2.1.1h.6v-.6H67l-.5-.9a4.92,4.92,0,0,0,1.4.1,8.36,8.36,0,0,0,3.7-.7l.6.8v.2c0,.1,0,.2-.2.2s-.3-.1-.4-.1a8.24,8.24,0,0,1-1.8.4v.7h.4a17,17,0,0,0,2.1-.1v.9c-.6,0-1.7-.1-2.1-.1h-.4v.5H72v3.5c-.5,0-1.1-.1-1.8-.1h-.3v.6h.2a15.56,15.56,0,0,0,2-.1v.9c-.6,0-1.6-.1-2-.1h-.2v.7l2.3-.3-.1.7c1.6-1.7,1.8-4.6,1.8-5.6h-1.4v-1h1.4a17.1,17.1,0,0,0-.1-2.6l1.3.1c.1,0,.2,0,.2.2s-.2.2-.3.3v2h.2a10.36,10.36,0,0,0,1.6-.1C77,129.4,77,133.1,76.25,134.6Zm-7.2-5.8h-1v.6h1Zm0,1.3h-1v.6h1Zm2.1-1.3H70v.6h1.2Zm0,1.3H70v.6h1.2Z"/><path class="cls-4" d="M86.05,133.5h-1.2c0,.7.1,1.3.1,2.1h-1.4a8.24,8.24,0,0,0,.1-2.1h-1.2c-1.7,0-2.6,0-3.7.1v-1.1c1.5.1,3.5.1,3.7.1h1.2v-.8h-1a18.48,18.48,0,0,0-2.3.1c0-.3.1-1,.1-1.6v-1.2a6.18,6.18,0,0,0-.1-1.5,19.42,19.42,0,0,0,2.2.1h1.1v-.8h-1s-1.9,0-3.3.1v-1.2c1.1.1,2.7.1,3.3.1h1a4.89,4.89,0,0,0-.1-1.3H85c.2,0,.3,0,.3.1s0,.1-.4.4v.7H86c.3,0,2.1,0,3.3-.1v1.2c-1.4-.1-3.2-.1-3.3-.1h-1.1v.8h.7a20.12,20.12,0,0,0,2.6-.1,8.6,8.6,0,0,0-.1,1.6v1.1a9.7,9.7,0,0,0,.1,1.7c-.5,0-2.3-.1-2.5-.1h-.8v.8h1.3c1.2,0,2.4,0,3.7-.1v1.1C88.65,133.5,87.65,133.5,86.05,133.5Zm-2.3-5h-2.2v.8h2.2Zm0,1.6h-2.2v.8h2.2Zm3.3-1.6h-2.3v.8h2.3Zm0,1.6h-2.3v.8h2.3Z"/><path class="cls-4" d="M92.85,128.1a6.57,6.57,0,0,0-1.6-2.6l.9-.6a9.06,9.06,0,0,1,1.6,2.6Zm9.2,7.1h-6.9a2.17,2.17,0,0,1-1.9-1.1,2.72,2.72,0,0,1-1,.8c0,.3,0,.4-.2.4a.35.35,0,0,1-.2-.1l-.5-1.2c.8-.4,1-.5,1.5-.8v-2.7h-.6a3.75,3.75,0,0,0-.8.1v-1.2c.3,0,.5.1.9.1h.7a2.22,2.22,0,0,0,.9-.1c0,.5-.1,1-.1,1.4v2.1a1.43,1.43,0,0,0,.5,1.1c.5.4.9.4,3.3.4a28,28,0,0,0,4.9-.3Zm-2.8-8.1H99l-.3.8h2.7V134h-1.2v-.4h-3.7v.4h-1.2v-6.1h2.1l.3-.8h-.8a26.2,26.2,0,0,0-2.8.1v-1.1a20.9,20.9,0,0,0,2.5.1,6.77,6.77,0,0,0-1.2-1.3l1.1-.6a4,4,0,0,1,1.2,1.5l-.6.4h2.6l-.6-.3a6.56,6.56,0,0,0,.9-1.5l1.1.5c.2.1.2.1.2.2s-.3.2-.4.2a7.05,7.05,0,0,1-.7.9c1.2,0,1.8-.1,2.3-.1v1.1C101.35,127.2,100.55,127.1,99.25,127.1Zm.8,1.7h-3.8v.8h3.8Zm0,1.5h-3.8v.8h3.8Zm0,1.6h-3.8v.8h3.8Z"/></g><rect id="長方形_652-3" data-name="長方形 652-3" class="cls-1" y="238.2" width="120" height="19.6"/><g class="cls-3"><path class="cls-4" d="M45,245.3v6c0,.5.1,1.8.1,2.1H43.9v-.5H36.3v.5H35c0-.3,0-.4.1-1.8,0-.4.1-2,.1-2.3v-3.6a26.2,26.2,0,0,0-.1-2.8c.7,0,2.5.1,3.3.1h3.8c.6,0,.8,0,2.8-.1A19.2,19.2,0,0,1,45,245.3ZM43.9,244H36.3v8h7.6Zm-2.7,7.2H39a16.2,16.2,0,0,0-2.2.1v-1.2a18.55,18.55,0,0,0,2.2.1h.5v-2h-.3a14.89,14.89,0,0,0-1.7.1v-1.1a12.27,12.27,0,0,0,1.7.1h.3v-1.5c-.7,0-1.1,0-2.4.1v-1.1a14.38,14.38,0,0,0,1.8.1h2.5a12.27,12.27,0,0,0,1.7-.1v1c-1.5-.1-2-.1-2.5-.1v1.5h.3a10.87,10.87,0,0,0,1.8-.1v1.1a16.24,16.24,0,0,0-1.8-.1h-.3v2h1.3a5.8,5.8,0,0,0-1-1.2l.7-.7a5.3,5.3,0,0,1,1,1.2l-.7.6a4.15,4.15,0,0,0,1.3-.1v1.2C42.4,251.2,41.2,251.2,41.2,251.2Z"/><path class="cls-4" d="M48.7,246.1a6.57,6.57,0,0,0-1.6-2.6l.9-.6a9.06,9.06,0,0,1,1.6,2.6Zm9.2,7.1H51a2.17,2.17,0,0,1-1.9-1.1,2.72,2.72,0,0,1-1,.8c0,.3,0,.4-.2.4a.35.35,0,0,1-.2-.1l-.5-1.2c.8-.4,1-.5,1.5-.8v-2.7h-.6a3.75,3.75,0,0,0-.8.1v-1.2c.3,0,.5.1.9.1h.7a2.22,2.22,0,0,0,.9-.1c0,.5-.1,1-.1,1.4v2.1a1.43,1.43,0,0,0,.5,1.1c.5.4.9.4,3.3.4a28,28,0,0,0,4.9-.3Zm-2.8-8.1h-.3l-.3.8h2.7V252H56v-.4H52.3v.4H51.1v-6.1h2.1l.3-.8h-.8a26.2,26.2,0,0,0-2.8.1v-1.1a20.9,20.9,0,0,0,2.5.1,6.77,6.77,0,0,0-1.2-1.3l1.1-.6a4,4,0,0,1,1.2,1.5l-.6.4h2.6l-.6-.3a6.56,6.56,0,0,0,.9-1.5l1.1.5c.2.1.2.1.2.2s-.3.2-.4.2a7.05,7.05,0,0,1-.7.9c1.2,0,1.8-.1,2.3-.1v1.1C57.2,245.2,56.4,245.1,55.1,245.1Zm.8,1.7H52.1v.8h3.8Zm0,1.6H52.1v.8h3.8Zm0,1.5H52.1v.8h3.8Z"/><path class="cls-4" d="M62.4,252.6v-6.3H60.5v-.8c1.9-.1,2.1-1,2.3-1.7h.8v8.8Z"/><path class="cls-4" d="M69.9,252.9a2.72,2.72,0,0,1-3-2.8,2.27,2.27,0,0,1,1.4-2.3,1.94,1.94,0,0,1-1.1-1.9c0-1.6,1.1-2.3,2.7-2.3s2.7.8,2.7,2.3a1.87,1.87,0,0,1-1.2,1.9,2.41,2.41,0,0,1,1.4,2.3C72.9,252.3,71.3,252.9,69.9,252.9Zm0-4.4a1.6,1.6,0,0,0-1.7,1.6,1.53,1.53,0,0,0,1.7,1.7,1.58,1.58,0,0,0,1.7-1.7A1.54,1.54,0,0,0,69.9,248.5Zm0-3.8a1.24,1.24,0,0,0-1.4,1.3,1.4,1.4,0,1,0,2.8,0C71.3,245.2,70.9,244.7,69.9,244.7Z"/><path class="cls-4" d="M81.5,248.2H78.8c-.3.9-.3.9-.5,1.1h3.3c.5,0,1.5-.1,2.1-.1a9.07,9.07,0,0,1-.9,3.4c-.5.9-1.2.9-2.1.9h-.6l-.6-1.3a5.9,5.9,0,0,0,1.4.2c.8,0,1.2-.4,1.5-2H77.9c-.1.2-.4.7-.6,1l-1.2-.6a9.7,9.7,0,0,0,1.4-2.6,9.23,9.23,0,0,0-1.5.1c-.2,0-1.3.1-1.5.1v-1.3c1.1.1,2.9.1,3.5.1h3.5c.3,0,2.2,0,3.5-.1v1.2C83.6,248.2,81.6,248.2,81.5,248.2Zm-.8-1.7H78.6a14.08,14.08,0,0,0-2.1.1,4.48,4.48,0,0,0,.1-1.2v-.8a9.7,9.7,0,0,0-.1-1.7c.4,0,1.9.1,2.3.1h1.9a16.23,16.23,0,0,0,2.1-.1h.3v2.3a6.6,6.6,0,0,0,.1,1.4A21.75,21.75,0,0,0,80.7,246.5ZM82,244H77.7v1.5H82Z"/></g><rect id="長方形_652-4" data-name="長方形 652-4" class="cls-5" x="25" y="152.4" width="70" height="25"/><g class="cls-3"><path class="cls-4" d="M44.14,163v3.2a6.57,6.57,0,0,1,1.3-.3l-.2,1-1.5.4c-.3.1-1.3.4-1.7.5-.1.2-.1.3-.2.3s-.1-.1-.2-.1l-.3-1.2c.1,0,1-.2,1.8-.3v-3.4h-.2a9.29,9.29,0,0,0-1.3.1V162a7.17,7.17,0,0,0,1.3.1h.2v-2.6l1.2.1s.2,0,.2.1-.1.2-.3.2v2.2a8.17,8.17,0,0,0,1.4-.1v1.2A5,5,0,0,0,44.14,163Zm7.3,7.1a9.33,9.33,0,0,1-2.4-1.7,8.18,8.18,0,0,1-2.6,1.7l-1-1a5.26,5.26,0,0,0,2.9-1.6,11.41,11.41,0,0,1-1.3-3.4,6.58,6.58,0,0,1-.4,2.8,5.79,5.79,0,0,1-2.3,3l-1.2-.7a5.85,5.85,0,0,0,2.3-2.2,5.56,5.56,0,0,0,.6-3v-3a4.1,4.1,0,0,0-.1-1.1c.7,0,1.5.1,2.1.1h2.1a13.4,13.4,0,0,0,2-.1V161c-.6,0-1.8-.1-2.7-.1h-2.3v1.8h3.7l.4.4a9.58,9.58,0,0,1-1.5,4.5,7.18,7.18,0,0,0,2.6,1.6Zm-3.3-6.5a8.34,8.34,0,0,0,1,2.9,7.59,7.59,0,0,0,.9-2.9Z"/><path class="cls-4" d="M56.34,163v3.3c.5-.2.7-.2,1.2-.4l-.1.9a11.43,11.43,0,0,1-1.4.6,8.8,8.8,0,0,1-1.5.5c-.1.2-.1.3-.2.3s-.1-.1-.1-.2l-.4-1.2a5.56,5.56,0,0,0,1.5-.3v-3.6a5.7,5.7,0,0,0-1.3.1v-1.2a5.7,5.7,0,0,0,1.3.1v-2.6l1.2.1c.1,0,.2,0,.2.1s-.1.2-.3.3c0,.5-.1,1.6-.1,2.1a5.74,5.74,0,0,0,1.2-.1V163Zm7.6,7.1c-.3,0-1.1-.5-1.8-2.1a5.51,5.51,0,0,1-2.1,1.8l-1.1-.7a5.6,5.6,0,0,0,2.7-2.2,21.2,21.2,0,0,1-.6-4.3h-2.3V164h1a3.75,3.75,0,0,0,1.1-.1,18,18,0,0,1-.3,3.1,1.48,1.48,0,0,1-1.7,1.2l-.5-1a6.87,6.87,0,0,1-1.7,2.6l-1.1-.5c2.1-1.6,2.1-3.1,2.1-4.7v-2a2.51,2.51,0,0,0-.1-1,20.74,20.74,0,0,0,2.1.1h1.2c0-.4-.1-2.1-.1-2.4l1.2.1c.1,0,.2,0,.2.1s-.1.2-.3.3c0,.5-.1,1.1-.1,1.9h.4a14.08,14.08,0,0,0,2.1-.1v1c-.5,0-1.7-.1-2.2-.1h.1a16.28,16.28,0,0,0,.3,3.1,6.88,6.88,0,0,0,.6-2.1l1.2.3a.35.35,0,0,1,.2.1c0,.2-.2.2-.3.2a16.12,16.12,0,0,1-1.2,2.7c.1.2.6,1.6,1,1.6s.5-1.3.5-1.4l.7.9C64.84,169.2,64.44,170.1,63.94,170.1Zm-5.1-5.2a9.08,9.08,0,0,1-.3,2.3c.1,0,.5.1.7.1a.54.54,0,0,0,.5-.3,7.85,7.85,0,0,0,.3-2.1Zm4.8-3.3a3,3,0,0,0-1.2-1.3l.9-.6a4.34,4.34,0,0,1,1.2,1.4Z"/><path class="cls-4" d="M67.24,169.3v-8.8h1.3v8.8Z"/><path class="cls-4" d="M74.94,169.6c-2.6,0-4.2-2.1-4.2-4.7,0-3,1.9-4.6,4.3-4.6,2,0,3.5,1.1,3.6,2.9h-1.3c-.2-1.2-1.5-1.6-2.4-1.6a3.23,3.23,0,0,0-1.8.6A3.48,3.48,0,0,0,72,165c0,2.5,1.6,3.4,2.8,3.4a2.5,2.5,0,0,0,2.5-2.3h1.3C78.74,166.9,78.44,169.6,74.94,169.6Z"/></g><g id="パス_1701" data-name="パス 1701"><path class="cls-4" d="M119.5,298.35H.5v-25.5h119Z"/><path class="cls-5" d="M1,273.35v24.5H119v-24.5H1m-1-1H120v26.5H0Z"/></g><g class="cls-3"><path class="cls-6" d="M21.9,280.5H19.1v10.6h-.9V279.6h3.6v.9Z"/><path class="cls-6" d="M31.6,286.8v-.5H26.2a7,7,0,0,1-2,4.6l-1.1-.7c1.8-1.6,2-3.5,2-5.6,0-1.2-.1-1.7-.1-2.1h5.5a20.08,20.08,0,0,0,2.4-.1v4.2H31.6Zm-1.1-5.4H26.9c-1.1,0-2.3,0-3.4.1v-1.2c1.2.1,2.9.1,3.4.1h3.6c1.2,0,2.3,0,3.4-.1v1.2C32.4,281.4,30.6,281.4,30.5,281.4Zm1.2,2.3H26.4v1.6h5.4v-1.6Z"/><path class="cls-6" d="M45.7,283.9a13.06,13.06,0,0,1-2.1-.8v.4a13.57,13.57,0,0,0-1.8-.1H40.1a8.66,8.66,0,0,0-1.8.1v-.4a9.73,9.73,0,0,1-2.3,1.1l-.9-1a7.68,7.68,0,0,0,4.9-3.3l1.5.3c.2,0,.3.1.3.2v.1a7.23,7.23,0,0,0,4.6,2.4Zm-3.3,3.5H38.5a6.47,6.47,0,0,1-1.8,3.2l-1.1-.6c1.3-.8,2.2-2.2,2.2-5.3V284c.6,0,1.2.1,2.4.1H42a20.9,20.9,0,0,0,2.5-.1v3.5A14.77,14.77,0,0,0,42.4,287.4Zm1.2,3.4v-.4H39.7v.4H38.5v-3h6.4v1.8a3.11,3.11,0,0,0,.1,1.1H43.6Zm-.2-4.8H38.7a2.18,2.18,0,0,1-.1.6h4.8Zm0-1.3H38.8v.6h4.6ZM40.8,281a9.68,9.68,0,0,1-1.5,1.5h3.3A13,13,0,0,1,40.8,281Zm2.9,7.7H39.6v1h4.1Z"/><path class="cls-6" d="M47.7,290.3h2.8V279.7h.9v11.5H47.8v-.9Z"/><path class="cls-6" d="M57.6,280.8a14.46,14.46,0,0,1-.8,1.8c.2.1.2.1.2.2s0,.1-.2.3v5c0,.8.1,1.9.1,2.8H55.5a16.79,16.79,0,0,0,.2-2.9v-3.6c-.5.6-.7.8-.8.9l-.9-.8a9.29,9.29,0,0,0,2.7-4.6l1.2.6c.1,0,.1.1.1.2A1,1,0,0,1,57.6,280.8Zm5,2.1H60.1a22.6,22.6,0,0,0-2.6.1v-1.2c.9.1,2.2.1,2.6.1h2.5a21.75,21.75,0,0,0,2.6-.1V283C64.1,282.9,62.7,282.9,62.6,282.9Zm.6,7.9v-.4H59.6v.4H58.4c0-.6.1-1.1.1-1.3v-2.3h5.9v2.3a5.7,5.7,0,0,0,.1,1.3Zm-1-9.7H60.5a9.15,9.15,0,0,0-1.7.1V280a12.27,12.27,0,0,0,1.7.1h1.7a9.15,9.15,0,0,0,1.7-.1v1.2A13.92,13.92,0,0,0,62.2,281.1Zm0,3.6H60.5a14.89,14.89,0,0,0-1.7.1v-1.2a11.56,11.56,0,0,0,1.7.1h1.7a9.15,9.15,0,0,0,1.7-.1v1.2A13.92,13.92,0,0,0,62.2,284.7Zm0,1.8H60.5a14.89,14.89,0,0,0-1.7.1v-1.2a11.56,11.56,0,0,0,1.7.1h1.7a9.15,9.15,0,0,0,1.7-.1v1.2A13.92,13.92,0,0,0,62.2,286.5Zm1,1.7H59.5v1.3h3.7Z"/><path class="cls-6" d="M73.6,285.5H70.9c-.3.9-.3.9-.5,1.1h3.3c.5,0,1.5-.1,2.1-.1a9.07,9.07,0,0,1-.9,3.4c-.5.9-1.2.9-2.1.9h-.6l-.6-1.3a5.9,5.9,0,0,0,1.4.2c.8,0,1.2-.4,1.5-2H70c-.1.2-.4.7-.6,1l-1.2-.6a9.7,9.7,0,0,0,1.4-2.6,9.23,9.23,0,0,0-1.5.1c-.2,0-1.3.1-1.5.1v-1.3c1.1.1,2.9.1,3.5.1h3.5c.3,0,2.2,0,3.5-.1v1.2C75.6,285.5,73.7,285.5,73.6,285.5Zm-.8-1.7H70.7a14.08,14.08,0,0,0-2.1.1,4.48,4.48,0,0,0,.1-1.2v-.8a9.7,9.7,0,0,0-.1-1.7c.4,0,1.9.1,2.3.1h1.9a16.23,16.23,0,0,0,2.1-.1h.3v2.3a6.6,6.6,0,0,0,.1,1.4A21.75,21.75,0,0,0,72.8,283.8Zm1.3-2.5H69.8v1.5h4.3Z"/><path class="cls-6" d="M85.8,283.4H83.7a16.4,16.4,0,0,1-.8,2.2h4.4c.9,0,.9,0,1.2-.1v1.1H85.8v3h.9a25.28,25.28,0,0,0,2.7-.1v1.1c-.6,0-1.1-.1-3-.1H84.2c-1,0-2.7.1-3.7.1v-1.1c.4,0,1.4.1,2.4.1h1.8v-3H82.5a7.55,7.55,0,0,1-1.3,1.6,11.51,11.51,0,0,1-1.7,1.4l-1-.9a7.45,7.45,0,0,0,4.1-5.2h-.2c-1.2,0-2.4,0-3.6.1v-1.2c1.4.1,3,.1,3.6.1h.4a23.73,23.73,0,0,0,.1-2.4l1.5.1c.1,0,.3,0,.3.2s-.2.2-.4.3a7.74,7.74,0,0,1-.2,1.8h1.8c.2,0,1.8,0,3.7-.1v1.2A24.84,24.84,0,0,0,85.8,283.4Z"/><path class="cls-6" d="M93.6,286.3v3.4c0,.6-.1,1.2-1.9,1l-.7-1.3a4.1,4.1,0,0,0,1.1.1c.4,0,.4,0,.4-.7v-2.2c-.5.2-.7.3-1,.4-.1.2-.1.3-.2.3s-.1-.1-.2-.2l-.3-1.2c.9-.2,1.4-.4,1.8-.5v-2.3h-.3a6.6,6.6,0,0,0-1.4.1V282a8.17,8.17,0,0,0,1.4.1h.3v-2.4l1.2.1c.1,0,.2,0,.2.1s-.1.1-.2.2V282a9.51,9.51,0,0,0,1.4-.1v1.2a9.51,9.51,0,0,0-1.4-.1v1.9a11.32,11.32,0,0,0,1.4-.6v1.1A6.79,6.79,0,0,1,93.6,286.3Zm6.1-1.5v2.6c0,.2.1,2.2.1,2.6v.8H98.5c0-.9.1-2.6.1-3.3v-2.6H96.9a8.28,8.28,0,0,1-1.9,5.6l-1-.8a5.29,5.29,0,0,0,1.5-2.7,13,13,0,0,0,.3-2.6v-1.7a14.16,14.16,0,0,0-.1-1.9h1.1a6.94,6.94,0,0,0,3.5-.8l1,.8.1.1c0,.1-.1.1-.2.1H101a9.53,9.53,0,0,1-4,.8v1.9h2.1a24.37,24.37,0,0,0,2.7-.1v1.2Z"/></g><g id="パス_1701-2" data-name="パス 1701-2"><path class="cls-4" d="M119.5,225.18H.5v-34h119Z"/><path class="cls-5" d="M1,191.68v33H119v-33H1m-1-1H120v35H0Z"/></g><g class="cls-3"><path class="cls-6" d="M28.55,198.8h-2.8v10.6h-.9V197.9h3.6v.9Z"/><path class="cls-6" d="M32.55,202v3.2a6.57,6.57,0,0,1,1.3-.3l-.2,1-1.5.4c-.3.1-1.3.4-1.7.5-.1.2-.1.3-.2.3s-.1-.1-.2-.1l-.3-1.2c.1,0,1-.2,1.8-.3v-3.4h-.2a9.29,9.29,0,0,0-1.3.1V201a7.17,7.17,0,0,0,1.3.1h.2v-2.6l1.2.1s.2,0,.2.1-.1.2-.3.2v2.2a8.17,8.17,0,0,0,1.4-.1v1.2A5,5,0,0,0,32.55,202Zm7.4,7a9.33,9.33,0,0,1-2.4-1.7A8.18,8.18,0,0,1,35,209l-1-1a5.26,5.26,0,0,0,2.9-1.6,11.41,11.41,0,0,1-1.3-3.4,6.58,6.58,0,0,1-.4,2.8,5.79,5.79,0,0,1-2.3,3l-1.2-.7a5.85,5.85,0,0,0,2.3-2.2,5.56,5.56,0,0,0,.6-3v-3a4.1,4.1,0,0,0-.1-1.1c.7,0,1.5.1,2.1.1h2.1a13.4,13.4,0,0,0,2-.1v1.1c-.6,0-1.8-.1-2.7-.1h-2.3v1.8h3.7l.4.4a9.58,9.58,0,0,1-1.5,4.5,7.18,7.18,0,0,0,2.6,1.6Zm-3.4-6.4a8.34,8.34,0,0,0,1,2.9,7.59,7.59,0,0,0,.9-2.9Z"/><path class="cls-6" d="M44.35,201.9v3.3c.5-.2.7-.2,1.2-.4l-.1.9a11.43,11.43,0,0,1-1.4.6,8.8,8.8,0,0,1-1.5.5c-.1.2-.1.3-.2.3s-.1-.1-.1-.2l-.4-1.2a5.56,5.56,0,0,0,1.5-.3v-3.6a5.7,5.7,0,0,0-1.3.1v-1.2a5.7,5.7,0,0,0,1.3.1v-2.6l1.2.1c.1,0,.2,0,.2.1s-.1.2-.3.3c0,.5-.1,1.6-.1,2.1a5.74,5.74,0,0,0,1.2-.1v1.2Zm7.5,7.2c-.3,0-1.1-.5-1.8-2.1a5.51,5.51,0,0,1-2.1,1.8l-1.1-.7a5.6,5.6,0,0,0,2.7-2.2,21.2,21.2,0,0,1-.6-4.3h-2.1V203h1a3.75,3.75,0,0,0,1.1-.1,18,18,0,0,1-.3,3.1,1.48,1.48,0,0,1-1.7,1.2l-.5-1a6.87,6.87,0,0,1-1.7,2.6l-1.1-.5c2.1-1.6,2.1-3.1,2.1-4.7v-2a2.51,2.51,0,0,0-.1-1,20.74,20.74,0,0,0,2.1.1H49c0-.4-.1-2.1-.1-2.4l1.2.1c.1,0,.2,0,.2.1s-.1.2-.3.3c0,.5-.1,1.1-.1,1.9h.4a14.08,14.08,0,0,0,2.1-.1v1c-.5,0-1.7-.1-2.2-.1h-.3a16.28,16.28,0,0,0,.3,3.1,6.88,6.88,0,0,0,.6-2.1l1.2.3a.35.35,0,0,1,.2.1c0,.2-.2.2-.3.2a16.12,16.12,0,0,1-1.2,2.7c.1.2.6,1.6,1,1.6s.5-1.3.5-1.4l.7.9C52.75,208.2,52.45,209.1,51.85,209.1Zm-5-5.2a9.08,9.08,0,0,1-.3,2.3c.1,0,.5.1.7.1a.54.54,0,0,0,.5-.3,7.85,7.85,0,0,0,.3-2.1Zm4.7-3.4a3,3,0,0,0-1.2-1.3l.9-.6a4.34,4.34,0,0,1,1.2,1.4Z"/><path class="cls-6" d="M54.75,208.3v-8.8h1.3v8.8Z"/><path class="cls-6" d="M62.05,208.6c-2.6,0-4.2-2.1-4.2-4.7,0-3,1.9-4.6,4.3-4.6,2,0,3.5,1.1,3.6,2.9h-1.3c-.2-1.2-1.5-1.6-2.4-1.6a3.23,3.23,0,0,0-1.8.6,3.48,3.48,0,0,0-1.1,2.8c0,2.5,1.6,3.4,2.8,3.4a2.5,2.5,0,0,0,2.5-2.3h1.3A3.39,3.39,0,0,1,62.05,208.6Z"/><path class="cls-6" d="M76.85,208.8a8,8,0,0,1-4.2-5.7,8.88,8.88,0,0,1-4.4,5.7l-1.1-1a7.42,7.42,0,0,0,3.7-3.6,6.71,6.71,0,0,0,.8-2.9l.7.2c0-.3-.1-.7-.1-1v-.6h-2.5v-1.3h3.7a6.66,6.66,0,0,0-.1,1.6,9.18,9.18,0,0,0,1.4,5.1,7.18,7.18,0,0,0,3,2.4Z"/><path class="cls-6" d="M87.65,208.1c0-.1.1-.7.1-.9h-6.3a3.44,3.44,0,0,0,.1.9h-1.5a21.05,21.05,0,0,0,.2-2.5V201a7.9,7.9,0,0,0-.1-1.4H86c.6,0,2.6-.1,3.1-.1,0,.6-.1,2.2-.1,2.9v4.3c0,.6.1,1.2.1,1.5h-1.4Zm.1-7.3h-6.3v5.3h6.3Z"/><path class="cls-6" d="M91.45,208.6h2.8V198h.9v11.5h-3.6v-.9Z"/></g><g class="cls-3"><path class="cls-6" d="M39.75,211.1a14.46,14.46,0,0,1-.8,1.8c.2.1.2.1.2.2s0,.1-.2.3v5c0,.8.1,1.9.1,2.8h-1.4a16.79,16.79,0,0,0,.2-2.9v-3.6c-.5.6-.7.8-.8.9l-.9-.8a6.54,6.54,0,0,0,1.8-2.3,6.5,6.5,0,0,0,.9-2.3l1.2.6c.1,0,.1.1.1.2S40,211.1,39.75,211.1Zm5,2.2h-2.5a22.6,22.6,0,0,0-2.6.1v-1.2c.9.1,2.2.1,2.6.1h2.5a21.75,21.75,0,0,0,2.6-.1v1.2C46.25,213.3,44.85,213.3,44.75,213.3Zm.5,7.8v-.4h-3.6v.4h-1.2c0-.6.1-1.1.1-1.3v-2.3h5.9v2.3a5.7,5.7,0,0,0,.1,1.3Zm-.9-9.7h-1.7a9.15,9.15,0,0,0-1.7.1v-1.2a12.27,12.27,0,0,0,1.7.1h1.7a9.15,9.15,0,0,0,1.7-.1v1.2A14.89,14.89,0,0,0,44.35,211.4Zm0,3.7h-1.7a14.89,14.89,0,0,0-1.7.1V214a11.56,11.56,0,0,0,1.7.1h1.7a9.15,9.15,0,0,0,1.7-.1v1.2A14.89,14.89,0,0,0,44.35,215.1Zm0,1.7h-1.7a14.89,14.89,0,0,0-1.7.1v-1.2a11.56,11.56,0,0,0,1.7.1h1.7a9.15,9.15,0,0,0,1.7-.1v1.2A14.89,14.89,0,0,0,44.35,216.8Zm1,1.7h-3.7v1.3h3.7Z"/><path class="cls-6" d="M55.75,215.8h-2.7c-.3.9-.3.9-.5,1.1h3.3c.5,0,1.5-.1,2.1-.1a9.07,9.07,0,0,1-.9,3.4c-.5.9-1.2.9-2.1.9h-.6l-.6-1.3a5.9,5.9,0,0,0,1.4.2c.8,0,1.2-.4,1.5-2h-4.5c-.1.2-.4.7-.6,1l-1.2-.6a9.7,9.7,0,0,0,1.4-2.6,9.23,9.23,0,0,0-1.5.1c-.2,0-1.3.1-1.5.1v-1.3c1.1.1,2.9.1,3.5.1h3.5c.3,0,2.2,0,3.5-.1v1.2C57.75,215.8,55.85,215.8,55.75,215.8Zm-.9-1.7h-2.1a14.08,14.08,0,0,0-2.1.1,4.48,4.48,0,0,0,.1-1.2v-.8a9.7,9.7,0,0,0-.1-1.7c.4,0,1.9.1,2.3.1h1.9a16.23,16.23,0,0,0,2.1-.1h.3v2.3a6.6,6.6,0,0,0,.1,1.4C57,214.2,55.35,214.1,54.85,214.1Zm1.3-2.5h-4.3v1.5h4.3Z"/><path class="cls-6" d="M68,213.7h-2.1a7.23,7.23,0,0,1-.7,1.8h2.9a17.7,17.7,0,0,0,2.3-.1v3.9a8.16,8.16,0,0,0,.1,1.8h-1.2s.1-.6.1-.7h-4.2a1.7,1.7,0,0,0,.1.7H64v-3.6a8.81,8.81,0,0,1-2.6,2.1l-.9-1.1a7.66,7.66,0,0,0,4.2-4.8h-.3c-1.2,0-2.4,0-3.6.1v-1.2c1.2.1,3,.1,3.6.1H65a13,13,0,0,0,.2-2.4l1.4.3c.3,0,.3.1.3.2s-.3.3-.4.3a11,11,0,0,1-.3,1.6h1.9c1.2,0,2.4,0,3.6-.1v1.2C70.05,213.7,68.15,213.7,68,213.7Zm1.4,2.8h-4.2v2.8h4.2Z"/><path class="cls-6" d="M75.75,216.7v3.4c0,.6-.1,1.2-1.9,1l-.7-1.3a4.1,4.1,0,0,0,1.1.1c.4,0,.4,0,.4-.7V217c-.5.2-.7.3-1,.4-.1.2-.1.3-.2.3s-.1-.1-.2-.2l-.3-1.2c.9-.2,1.4-.4,1.8-.5v-2.3h-.3a6.6,6.6,0,0,0-1.4.1v-1.2a8.17,8.17,0,0,0,1.4.1h.3v-2.4l1.2.1c.1,0,.2,0,.2.1s-.1.1-.2.2v1.9a9.51,9.51,0,0,0,1.4-.1v1.2a9.51,9.51,0,0,0-1.4-.1v1.9a11.32,11.32,0,0,0,1.4-.6v1.1A14.56,14.56,0,0,1,75.75,216.7Zm6-1.6v2.6c0,.2.1,2.2.1,2.6v.8h-1.3c0-.9.1-2.6.1-3.3v-2.6H79a8.28,8.28,0,0,1-1.9,5.6l-1-.8a5.29,5.29,0,0,0,1.5-2.7,13,13,0,0,0,.3-2.6V213a14.16,14.16,0,0,0-.1-1.9h1.1a6.94,6.94,0,0,0,3.5-.8l1,.8.1.1c0,.1-.1.1-.2.1h-.2a9.53,9.53,0,0,1-4,.8V214h2.1a24.37,24.37,0,0,0,2.7-.1v1.2Z"/></g><g id="パス_1701-3" data-name="パス 1701-3"><path class="cls-4" d="M94.5,107.26h-69v-24h69Z"/><path class="cls-5" d="M26,83.76v23H94v-23H26m-1-1H95v25H25Z"/></g><g class="cls-3"><path class="cls-6" d="M46.25,98.1a2.77,2.77,0,0,1-.9-.5,3.93,3.93,0,0,1-1.1.8l-.6-.6v1.6c0,1.1,0,1.4-1.6,1.4l-.6-1.1c.1,0,.7.1.9.1s.3-.2.3-.6V97.6a3.4,3.4,0,0,0-.1-1l1,.1c.1,0,.2,0,.2.1a.22.22,0,0,1-.2.2v.6a1.85,1.85,0,0,0,.9-.7,2.13,2.13,0,0,1-.6-.9h-1.5a6.23,6.23,0,0,1-.9,1.2,3.21,3.21,0,0,1,1,.7l-.6.7a5.22,5.22,0,0,0-1.1-.8c-.2.1-.2.2-.4.2l-.7-.4v1a8.08,8.08,0,0,1-.1,1.6c-.2.6-1,.6-1.7.6l-.5-1.2a3.87,3.87,0,0,0,.9.1c.5,0,.5-.1.5-.9v-1h-1.4a5.94,5.94,0,0,1-1,2.9l-1-.4c.8-1.1,1.1-2,1.1-5a13.52,13.52,0,0,0-.1-2.3h2.3a4.1,4.1,0,0,0,1.1-.1c0,.3-.1,1.6-.1,1.8v2.6a3.17,3.17,0,0,0,1.5-1.2h-1.3v-.9a9.18,9.18,0,0,1,1.8.1,4.88,4.88,0,0,1,.3-.7,7.16,7.16,0,0,0-1.7.1v-.9a3.44,3.44,0,0,1,.9.1,3.13,3.13,0,0,0-1.1-.9l.8-.6a10,10,0,0,1,1.1,1l-.7.5h.9c0-.1.1-.7.1-1.3l1.2.1c.1,0,.2,0,.2.1s-.2.2-.3.2a3.71,3.71,0,0,1-.2.9h1.3l-.6-.3c.5-.7.6-1,.6-1.2l1,.3a.1.1,0,0,1,.1.1c0,.1-.2.2-.3.2a3.49,3.49,0,0,1-.6.9,3.14,3.14,0,0,0,1.2-.1v.9a16.24,16.24,0,0,0-1.8-.1c.1.4.2.6.2.7a19.42,19.42,0,0,0,2.2-.1v.9a10.87,10.87,0,0,1-1.8-.1,3.41,3.41,0,0,0,1.9,1.3Zm-2.5-6.5v.8h-1.1v-.8H40v.9h-1.1v-.9a27.19,27.19,0,0,0-3,.1v-1c.8,0,1,0,3,.1a2.81,2.81,0,0,0-.1-.8l1.2.1c.1,0,.2,0,.2.1s-.1.2-.3.2v.4h2.7a3.44,3.44,0,0,0-.1-.9l1.1.1c.1,0,.2,0,.2.1s-.1.1-.2.2v.5a18,18,0,0,0,3-.1v1A21.85,21.85,0,0,0,43.75,91.6ZM39,95.8h-1.3V97h1.4V95.8Zm0-2h-1.3V95h1.4V93.8Zm3.4,5.4a12.62,12.62,0,0,1-1.6.7c0,.1,0,.3-.1.3a.1.1,0,0,1-.1-.1l-.5-.9c.5-.1,1-.2,2.4-.6Zm1.2-4.6h-.3a3.63,3.63,0,0,1-.3.7h.7C43.65,95,43.55,94.8,43.55,94.6Zm2.2,5.9a7.57,7.57,0,0,0-2-1.3l.6-.7a19.61,19.61,0,0,1,2.1,1.2Z"/><path class="cls-6" d="M57.35,100.6h-.7l-.6-1.3a3.08,3.08,0,0,0,1,.1c.7,0,.7-.1.7-.6V91.2h-7.6v7.4a13.4,13.4,0,0,0,.1,2h-1.4a24.84,24.84,0,0,0,.2-3.8V90.2a26.22,26.22,0,0,0,2.9.1h3.4a26.67,26.67,0,0,0,3.6-.1v9.2C59,100.6,58.15,100.6,57.35,100.6Zm-2.3-6.1h-.6v2.9h1.3V95.1l1.1.1c.3,0,.3.1.3.1,0,.2-.3.3-.3.3v2.7h-4.7V99h-1.1V95.1l1.1.1c.1,0,.3,0,.3.2s-.1.1-.3.3v1.8h1.3V94.6h-.8a9.27,9.27,0,0,0-2,.1V93.6a12.13,12.13,0,0,0,1.8.1,3.09,3.09,0,0,0-1-1.6l1-.6a3.17,3.17,0,0,1,1,1.8l-.7.4h2.3l-.6-.3a4.5,4.5,0,0,0,.8-1.9l1.1.5a.22.22,0,0,1,.2.2c0,.1-.2.2-.4.2a8.81,8.81,0,0,1-.7,1.4,11.48,11.48,0,0,0,1.8-.1v1.1C56.75,94.5,56.75,94.5,55.05,94.5Z"/><path class="cls-6" d="M63.55,100.2a2.44,2.44,0,0,1-2.3-1.4,3.92,3.92,0,0,1-.2-1.7h1.3v.5c0,.8.3,1.5,1.2,1.5.7,0,1.1-.4,1.1-1.4V91.2H66v6.6A2.15,2.15,0,0,1,63.55,100.2Z"/><path class="cls-6" d="M72.35,100.2c-2.6,0-4.2-2.1-4.2-4.7,0-3,1.9-4.6,4.3-4.6,2,0,3.5,1.1,3.6,2.9h-1.3c-.2-1.2-1.5-1.6-2.4-1.6a3.23,3.23,0,0,0-1.8.6,3.48,3.48,0,0,0-1.1,2.8c0,2.5,1.6,3.4,2.8,3.4a2.5,2.5,0,0,0,2.5-2.3h1.3A3.39,3.39,0,0,1,72.35,100.2Z"/><path class="cls-6" d="M81.75,92.3v7.6h-1.3V92.3h-2.9V91.1h7.1v1.2Z"/></g></g></g></g></svg>