<svg xmlns="http://www.w3.org/2000/svg" viewBox="0 0 210.46 101.95"><defs><style>.cls-1{fill:#9ad2cd;}.cls-2{fill:#e9f5f4;}.cls-3{fill:#c0e2df;}.cls-4{fill:#231815;}.cls-5,.cls-6{fill:none;stroke-miterlimit:10;stroke-width:0.28px;}.cls-5{stroke:#9fa0a0;}.cls-6{stroke:#1cb3ac;}.cls-7{fill:#1cb3ac;}</style></defs><g id="レイヤー_2" data-name="レイヤー 2"><g id="レイヤー_2-2" data-name="レイヤー 2"><polygon class="cls-1" points="102.17 0.12 74.14 45.33 130.19 45.33 102.17 0.12"/><polygon class="cls-2" points="39.21 101.68 165.12 101.68 148.57 74.98 55.76 74.98 39.21 101.68"/><polygon class="cls-3" points="74.14 45.33 55.76 74.98 148.57 74.98 130.19 45.33 74.14 45.33"/><path class="cls-4" d="M94.05,30.73H92.32A4.3,4.3,0,0,0,94.15,32a2.79,2.79,0,0,0-.35.42,5,5,0,0,1-2-1.69H89.23a5.52,5.52,0,0,1-2.06,1.79,2.64,2.64,0,0,0-.34-.41,4.83,4.83,0,0,0,1.83-1.38H86.9v-.46h1.66V27.72h-1.3v-.45h1.3v-.83l.67,0c0,.06,0,.09-.15.11v.68h2.8v-.83l.68,0c0,.06,0,.1-.15.11v.68H93.7v.45H92.41v2.55h1.64Zm-3.33,1.42V33h2.76v.46h-6V33h2.69v-.88H88.53v-.44h1.66V31l.69,0s-.06.09-.16.11v.59h1.7v.44Zm1.16-4.43h-2.8v.58h2.8Zm-2.8,1v.57h2.8v-.57Zm0,1v.58h2.8v-.58Z"/><path class="cls-4" d="M101.72,28.66H98.87A7.18,7.18,0,0,0,102,31.94a2.54,2.54,0,0,0-.4.46,7.89,7.89,0,0,1-3-3.32v2.56h1.56v.53H98.53v1.51H98V32.17H96.41v-.53H98V29.1a8.52,8.52,0,0,1-3,3.32,3.16,3.16,0,0,0-.38-.43,7.55,7.55,0,0,0,3.07-3.33H94.84v-.53H98V26.45l.7,0c0,.06,0,.1-.16.11v1.54h3.19Z"/><path class="cls-4" d="M109.6,28.32h-4c0,.44-.07.9-.13,1.36h2.9l.31,0a.76.76,0,0,1,0,.16c-.16,2.35-.32,3.22-.63,3.54s-.42.26-.91.26c-.28,0-.67,0-1.06,0a1.33,1.33,0,0,0-.19-.51c.58,0,1.14,0,1.33,0a.57.57,0,0,0,.38-.08c.24-.22.39-1,.53-2.92h-2.72a4.5,4.5,0,0,1-2.51,3.52,1.67,1.67,0,0,0-.38-.42c2.21-1,2.45-3.1,2.54-5h-2.47v-.5h3.23V26.41l.69.05c0,.06,0,.09-.15.11v1.25h3.29Z"/><path class="cls-4" d="M112.33,28.89v1h1.42v.47h-1.42v2.16l1.37-.23,0,.45c-1.15.22-2.37.43-3.14.57a.1.1,0,0,1-.1.1l-.18-.59c.42,0,1-.14,1.54-.22V30.33h-1.49v-.47h1.49v-1h-1v-.2c-.11.12-.24.23-.36.35a1.62,1.62,0,0,0-.37-.37,7.16,7.16,0,0,0,1.7-2.22l.65.1c0,.05-.06.09-.16.1A11.14,11.14,0,0,1,113.89,28l-.33.42a11,11,0,0,0-1.46-1.32,9.87,9.87,0,0,1-1,1.36h2.22v.46ZM111,32.26a7.24,7.24,0,0,0-.39-1.48l.4-.11a6,6,0,0,1,.4,1.47Zm2.71-1.46a.17.17,0,0,1-.16.07,12.7,12.7,0,0,1-.5,1.31l-.37-.13a9.35,9.35,0,0,0,.48-1.44Zm3.83-1.58v.52h-1.68v3.94h-.54V29.74h-1.63v-.52h1.63V26.47l.7.05c0,.05-.06.09-.16.1v2.6Z"/><path class="cls-4" d="M87.61,58.52c.42.45.88,1,1.28,1.47a9.63,9.63,0,0,0,.52-2.1l.65.13c0,.06-.07.09-.17.1a10.82,10.82,0,0,1-.65,2.33,10.55,10.55,0,0,1,.9,1.38l-.42.36A9.67,9.67,0,0,0,89,61a5,5,0,0,1-1.84,2,2.88,2.88,0,0,0-.32-.39,4.7,4.7,0,0,0,1.84-2.09c-.45-.6-1-1.21-1.43-1.72Zm3-1.3v.49H86.86v-.49h1.65V55.88l.65,0s0,.09-.14.11v1.19Zm3.43.59v.5h-1v4.07c0,.71-.4.73-1.63.73a2.08,2.08,0,0,0-.18-.55H92c.57,0,.59,0,.59-.19V58.31H90.4v-.5h2.2V55.87l.68,0c0,.07,0,.11-.15.11v1.8ZM91,59.18a6.73,6.73,0,0,1,.89,1.75l-.46.24a7.18,7.18,0,0,0-.87-1.8Z"/><path class="cls-4" d="M98.52,59.88v.59A6.49,6.49,0,0,0,102,62.39a3.73,3.73,0,0,0-.35.46,7.21,7.21,0,0,1-3.09-1.76v2H98v-2a7.13,7.13,0,0,1-3,1.76,2.07,2.07,0,0,0-.32-.44,6.52,6.52,0,0,0,3.36-2v-.59H96.07v1.54h-.51v-2H98v-.59H94.78v-.48H98v-.49l-.39-.27a4.08,4.08,0,0,0,1.27-1.75l.61.19c0,.06-.08.07-.16.07-.07.16-.16.33-.25.49h2.79V57H100a4.59,4.59,0,0,1,.49.78L100,58a5,5,0,0,0-.58-1h-.63a4.32,4.32,0,0,1-.58.68l.44,0c0,.06,0,.09-.15.1v.53h3.27v.48H98.52v.59H101v1.53c0,.51-.27.51-1.11.51a2.09,2.09,0,0,0-.17-.41h.41c.31,0,.35,0,.35-.1V59.88Zm-2-2a6.21,6.21,0,0,0-.34-.91h-.36A4.89,4.89,0,0,1,95,58a2.86,2.86,0,0,0-.4-.28,5.21,5.21,0,0,0,1.15-1.88l.59.2s-.07.08-.16.06a5.27,5.27,0,0,1-.22.49h2.16V57H96.65a3.88,3.88,0,0,1,.3.77Z"/><path class="cls-4" d="M109.64,60.16h-1.73a4.38,4.38,0,0,0,1.83,1.28,2.3,2.3,0,0,0-.35.41,5,5,0,0,1-2-1.69h-2.53A5.54,5.54,0,0,1,102.76,62a2.57,2.57,0,0,0-.34-.4,4.75,4.75,0,0,0,1.83-1.39h-1.76v-.45h1.66V57.16h-1.3v-.45h1.3v-.84l.68,0c0,.06-.06.1-.16.11v.69h2.8v-.84l.68,0c0,.06-.05.1-.15.11v.69h1.29v.45H108v2.55h1.64Zm-3.33,1.42v.89h2.76v.45h-6v-.45h2.69v-.89h-1.66v-.44h1.66V60.4l.69,0c0,.06,0,.1-.16.11v.59H108v.44Zm1.16-4.42h-2.8v.58h2.8Zm-2.8,1v.58h2.8v-.58Zm0,1v.59h2.8v-.59Z"/><path class="cls-4" d="M110.49,57.24a6.27,6.27,0,0,1,1.31.52l-.26.42a6.92,6.92,0,0,0-1.3-.57Zm6.93,3.81v.48H114.1v1.59h-.54V61.53h-3.22v-.48h3.22v-.68l.69.05s0,.09-.15.1v.53Zm-7-.87c.42-.39,1-1,1.55-1.63l.28.35c-.44.55-1,1.16-1.36,1.55a.19.19,0,0,1,0,.07.13.13,0,0,1-.06.12Zm.63-4.26a6.77,6.77,0,0,1,1.29.6l-.28.42a7.25,7.25,0,0,0-1.28-.65Zm1.75,4.39v-2.6a4.86,4.86,0,0,1-.6.6,2.09,2.09,0,0,0-.38-.34,6,6,0,0,0,1.6-2.14l.62.21c0,.07-.11.08-.18.08a5,5,0,0,1-.35.63h1.13a5.55,5.55,0,0,0,.44-.88l.65.16s-.07.08-.17.08c-.1.18-.24.42-.38.64H117v.43h-1.82v.62h1.61v.4h-1.61v.62h1.63v.41h-1.63v.64h2.08v.44Zm1.87-2.51v-.62h-1.36v.62Zm0,1V58.2h-1.36v.62Zm0,1v-.64h-1.36v.64Z"/><path class="cls-4" d="M94,89.63H91.06a4.07,4.07,0,0,0,3,1.63,2,2,0,0,0-.32.47,4.24,4.24,0,0,1-3.23-2.1h-.12c-.4.79-1.27,1.53-3.13,2.1a2.08,2.08,0,0,0-.32-.43,4.74,4.74,0,0,0,2.85-1.67H87v-.46h3a2.72,2.72,0,0,0,.15-.72H88V88h2.23v-.67H87.75v-.45h2.44V86.1l.67.05s0,.09-.14.11v.62H93.2v-1H87.73v1h-.51v-1.5h3v-1l.69,0c0,.06-.06.1-.16.1v.81h3v1.5h-.5v.41H90.72V88h2.34v.45H90.7a3,3,0,0,1-.13.72H94Z"/><path class="cls-4" d="M97.26,87.41h.26a1.21,1.21,0,0,1,0,.18c-.05,2.71-.1,3.6-.31,3.87s-.41.25-.72.25l-.58,0a1.22,1.22,0,0,0-.13-.47c.35,0,.67,0,.81,0a.2.2,0,0,0,.19-.1c.14-.18.21-1,.25-3.25H96a7.24,7.24,0,0,1-1,3.82,1.46,1.46,0,0,0-.39-.35c.82-1.1.92-3.12,1-5.09h-.89v-.5h1.42V84.49l.67,0s-.06.09-.16.11v1.14H98v.5h-2l0,1.13Zm4.63-1.29H98.74A5.21,5.21,0,0,1,98,87.46a3,3,0,0,0-.37-.34,6.55,6.55,0,0,0,1.17-2.65l.63.16c0,.05-.07.08-.16.08-.08.31-.17.61-.28.92h3Zm-3,4.65c0,.3.07.36.52.36H101c.35,0,.42-.14.46-.87a1.58,1.58,0,0,0,.44.19c-.06.89-.22,1.14-.86,1.14H99.39c-.77,0-1-.16-1-.82V89l-.51.24-.19-.43.7-.33V87.06l.63,0c0,.06-.05.1-.15.1v1.06l.84-.39V86.43l.62,0s0,.09-.15.1v1.08l.82-.39.16-.14a2.42,2.42,0,0,1,.4.14.16.16,0,0,1-.07.07c0,1.1,0,2.1-.06,2.32,0,.42-.35.45-.94.45a2.1,2.1,0,0,0-.12-.42h.43c.11,0,.16,0,.18-.16s0-.84,0-1.76l-.84.39v2.29h-.47V88.39l-.84.4Z"/><path class="cls-4" d="M109.64,88.73v.52h-3.3V91c0,.4-.12.56-.4.64a5.93,5.93,0,0,1-1.64.1,2.62,2.62,0,0,0-.22-.52h1c.67,0,.72,0,.72-.23V89.25h-3.28v-.52h3.28V87.41H103v-.5h2.76V85.65c-.86.1-1.76.18-2.6.23a1.29,1.29,0,0,0-.14-.46,24.19,24.19,0,0,0,5.31-.78l.46.44a.15.15,0,0,1-.1,0h-.07a13.71,13.71,0,0,1-2.17.46s0,.08-.15.09v1.26h2.85v.5h-2.85v1.32Z"/><path class="cls-4" d="M111.09,87.9a8.36,8.36,0,0,1-.6,3.79,2.17,2.17,0,0,0-.36-.31,8.31,8.31,0,0,0,.52-3.48V84.75l.59,0s0,.09-.15.1Zm.63,2.68V85.32l.54,0c0,.05,0,.08-.13.1v5.13Zm1.09-5.85.59,0s-.05.09-.15.1v6.57h-.44Zm2.45,6a.23.23,0,0,1-.15.06,5.23,5.23,0,0,1-1.46,1,2.28,2.28,0,0,0-.34-.36,4.72,4.72,0,0,0,1.45-.94ZM114,86.13h1.13c.06-.25.13-.55.18-.81h-1.64v-.46h3.86v.46H115.8c0,.24-.14.54-.22.81h1.65v4.11H114Zm2.76,1.24v-.82h-2.28v.82Zm0,1.21v-.82h-2.28v.82Zm0,1.24V89h-2.28v.83Zm.48,1.92a8.93,8.93,0,0,0-1.31-1l.39-.26a8.72,8.72,0,0,1,1.32,1Z"/><line class="cls-5" x1="0.45" y1="0.14" x2="210.46" y2="0.14"/><line class="cls-5" x1="130.19" y1="45.45" x2="210.46" y2="45.45"/><line class="cls-5" x1="148.57" y1="74.76" x2="210.46" y2="74.76"/><line class="cls-5" x1="165.12" y1="101.8" x2="210.46" y2="101.8"/><line class="cls-5" y1="74.76" x2="55.6" y2="74.76"/><line class="cls-6" x1="205.79" y1="100.24" x2="205.79" y2="76.73"/><path class="cls-7" d="M205.79,102a8.66,8.66,0,0,1,1.35-2.42l-1.35.49-1.35-.49a8.66,8.66,0,0,1,1.35,2.42"/><path class="cls-7" d="M205.79,75a8.53,8.53,0,0,0,1.35,2.42L205.79,77l-1.35.48A8.53,8.53,0,0,0,205.79,75"/><line class="cls-6" x1="205.79" y1="73.31" x2="205.79" y2="47.42"/><path class="cls-7" d="M205.79,75a8.53,8.53,0,0,1,1.35-2.42l-1.35.48-1.35-.48A8.53,8.53,0,0,1,205.79,75"/><path class="cls-7" d="M205.79,45.71a8.66,8.66,0,0,0,1.35,2.42l-1.35-.49-1.35.49a8.66,8.66,0,0,0,1.35-2.42"/><line class="cls-6" x1="205.79" y1="43.57" x2="205.79" y2="1.97"/><path class="cls-7" d="M205.79,45.28a8.66,8.66,0,0,1,1.35-2.42l-1.35.49-1.35-.49a8.66,8.66,0,0,1,1.35,2.42"/><path class="cls-7" d="M205.79.26a8.66,8.66,0,0,0,1.35,2.42l-1.35-.49-1.35.49A8.66,8.66,0,0,0,205.79.26"/><line class="cls-6" x1="4.83" y1="72.84" x2="4.83" y2="1.97"/><path class="cls-7" d="M4.83,74.55a8.58,8.58,0,0,1,1.35-2.43l-1.35.49-1.35-.49a8.58,8.58,0,0,1,1.35,2.43"/><path class="cls-7" d="M4.83.26A8.66,8.66,0,0,0,6.18,2.68L4.83,2.19l-1.35.49A8.66,8.66,0,0,0,4.83.26"/><path class="cls-4" d="M166,56.89a.15.15,0,0,1-.1.09,11.89,11.89,0,0,1-1.56,2.68,28.68,28.68,0,0,1,2.86,2.65l-.48.41A24.94,24.94,0,0,0,164,60.1a12.56,12.56,0,0,1-3,2.62,2.61,2.61,0,0,0-.4-.42,11.2,11.2,0,0,0,4.57-5.09h-3.83v-.53h4.13l.1,0Z"/><path class="cls-4" d="M173.7,57.41a.15.15,0,0,1-.1.09,10,10,0,0,1-1.14,2.58,10.73,10.73,0,0,1,1,.64l-.32.52a11.11,11.11,0,0,0-1-.68,7.39,7.39,0,0,1-2.81,2.37,1.87,1.87,0,0,0-.43-.41,7.43,7.43,0,0,0,2.76-2.24,13.44,13.44,0,0,0-1.73-.81l.3-.44a12.67,12.67,0,0,1,1.75.79,8,8,0,0,0,.95-2.07h-2.65a8.34,8.34,0,0,1-1.8,2.15,3.08,3.08,0,0,0-.44-.35A8.06,8.06,0,0,0,170.48,56l.75.17c0,.09-.11.11-.21.1-.11.26-.29.64-.44.93h2.59l.11,0Z"/><path class="cls-4" d="M175.34,56.72a10,10,0,0,1,2.32,1.06l-.29.49a10.06,10.06,0,0,0-2.28-1.08Zm0,5.41a8.29,8.29,0,0,0,5.54-4.57,4.23,4.23,0,0,0,.51.32,9,9,0,0,1-5.52,4.68.23.23,0,0,1-.11.17Z"/><path class="cls-4" d="M187.78,57.45s-.05.06-.1.08a10.08,10.08,0,0,1-1.13,2.58,11.5,11.5,0,0,1,1,.64l-.33.5c-.28-.21-.71-.47-1-.67a7,7,0,0,1-2.79,2.34,1.69,1.69,0,0,0-.43-.41,7,7,0,0,0,2.74-2.21,13.07,13.07,0,0,0-1.75-.82l.31-.43a15.18,15.18,0,0,1,1.77.8,8.05,8.05,0,0,0,.93-2.07h-2.57a8,8,0,0,1-1.75,2.13c-.1-.09-.32-.26-.44-.35a7.91,7.91,0,0,0,2.38-3.48l.72.21c0,.09-.12.11-.22.11a6.53,6.53,0,0,1-.39.86h2.52l.07,0Zm-.72-1.55a5.9,5.9,0,0,1,1,1.09l-.3.24a6.48,6.48,0,0,0-1-1.09Zm1-.29a7.12,7.12,0,0,1,1.06,1.07l-.31.24a5.75,5.75,0,0,0-1-1.07Z"/><path class="cls-4" d="M189.33,59.08h6.51v.55h-6.22a.38.38,0,0,1-.25.15Z"/><path class="cls-4" d="M201.87,60.25A27.22,27.22,0,0,0,199.13,59v3.89h-.58V56.09l.79,0c0,.08-.07.14-.21.16v2.29l.12-.17a30.14,30.14,0,0,1,2.93,1.3Zm-.82-3.67a6.45,6.45,0,0,1,1.08,1.14l-.3.24a7,7,0,0,0-1.06-1.14Zm1-.68A7,7,0,0,1,203.16,57l-.28.24a6.66,6.66,0,0,0-1.07-1.13Z"/><path class="cls-4" d="M159.86,85.64h5l.05,0,.53.41a.26.26,0,0,1-.1.07c-.63,2.93-2,4.46-4.37,5.36a4,4,0,0,0-.35-.46,5.87,5.87,0,0,0,4.08-4.82h-4.8Zm5.94-1.4a.86.86,0,1,1-.86.86A.85.85,0,0,1,165.8,84.24Zm.59.86a.59.59,0,0,0-.59-.6.6.6,0,0,0-.6.6.6.6,0,1,0,1.19,0Z"/><path class="cls-4" d="M173,85.76v5.15h-.56v-.49h-4.3v.5h-.54V85.76Zm-.56,4.13V86.28h-4.3v3.61Z"/><path class="cls-4" d="M174.62,86.93a11.36,11.36,0,0,1,2.09.7l-.23.49a11,11,0,0,0-2.1-.71Zm.46,3.81a8.13,8.13,0,0,0,5.31-4.53,5.09,5.09,0,0,0,.47.34,8.56,8.56,0,0,1-5.25,4.61.17.17,0,0,1-.09.19Zm.39-5.74a12.06,12.06,0,0,1,2.09.76l-.25.48a12.22,12.22,0,0,0-2.07-.79Z"/><path class="cls-4" d="M181.83,87.68h6.51v.55h-6.22a.33.33,0,0,1-.25.15Z"/><path class="cls-4" d="M189.61,87a11.36,11.36,0,0,1,2.09.7l-.23.5a10.74,10.74,0,0,0-2.1-.72Zm.46,3.82a8.21,8.21,0,0,0,5.31-4.54,5.2,5.2,0,0,0,.47.35,8.62,8.62,0,0,1-5.25,4.6.16.16,0,0,1-.08.19Zm.39-5.75a12.94,12.94,0,0,1,2.09.76l-.25.48a13.13,13.13,0,0,0-2.07-.79Zm3.65-.26a6.09,6.09,0,0,1,1,1.13l-.3.23a7.1,7.1,0,0,0-1-1.14Zm1.09-.47a6.77,6.77,0,0,1,1,1.12l-.3.22a7.49,7.49,0,0,0-1-1.12Z"/><path class="cls-4" d="M202.39,87.32s0,.05-.08.05a6.89,6.89,0,0,1-1.41,2.17,1.92,1.92,0,0,0-.39-.27,5.34,5.34,0,0,0,1.17-1.66l-2.18.48.72,3.33-.46.1L199,88.19l-1.78.41-.1-.44,1.79-.39-.35-1.63.65-.06c0,.06,0,.11-.14.16l.3,1.42L202,87.1l.06,0Z"/><path class="cls-4" d="M176.43,22a6.69,6.69,0,0,1-1.47,2.3l-.45-.3a5.43,5.43,0,0,0,1.41-2.2Zm1.66-1.2v3.66c0,.84-.6.84-1.85.84a3.47,3.47,0,0,0-.17-.52h1.14a.3.3,0,0,0,.32-.33V20.75h-2.65v-.53h2.65V18.57l.74,0q0,.12-.18.15v1.46h2.64v.53Zm1.4.95A15.83,15.83,0,0,1,181.14,24l-.5.29A15,15,0,0,0,179.05,22Zm1-3.59a.87.87,0,1,1-.88.87A.87.87,0,0,1,180.5,18.11Zm.61.87a.62.62,0,0,0-.61-.63.62.62,0,1,0,0,1.24A.61.61,0,0,0,181.11,19Z"/><path class="cls-4" d="M182.79,22.81V19l.74,0c0,.07-.06.13-.18.14v3.61Zm4.35-4.1c0,.08-.07.12-.19.14v2.48a3.9,3.9,0,0,1-2.8,4,2.65,2.65,0,0,0-.4-.43,3.47,3.47,0,0,0,2.64-3.57V18.67Z"/><path class="cls-4" d="M188.82,20.73a11.74,11.74,0,0,1,2.1.7l-.24.5a10.87,10.87,0,0,0-2.09-.72Zm.47,3.82a8.12,8.12,0,0,0,5.3-4.54c.12.1.36.26.47.34A8.54,8.54,0,0,1,189.82,25a.19.19,0,0,1-.1.19Zm.39-5.75a13.3,13.3,0,0,1,2.09.76l-.26.48a12.77,12.77,0,0,0-2.07-.79Z"/><path class="cls-4" d="M196,21.48h6.51V22h-6.21a.37.37,0,0,1-.25.14Z"/><path class="cls-4" d="M11.1,28.25a4.14,4.14,0,0,1-.45,2l-.39-.22a4,4,0,0,0,.42-1.88Zm.31-1.6.66.05c0,.05-.05.09-.15.1v7.08h-.51Zm1.2,2.52A9.11,9.11,0,0,0,12.05,28l.35-.18A5.91,5.91,0,0,1,13,29Zm2.73.11h2.18v.44H12.69v-.44H14.8v-.57H13.28V28.3H14.8v-.53H13v-.42H14.8v-.7l.7.05c0,.05-.05.09-.16.1v.55h1.91v.42H15.34v.53h1.59v.41H15.34Zm1.48,1v3.1c0,.51-.21.56-1.29.56a1.62,1.62,0,0,0-.16-.45h.57c.32,0,.35,0,.35-.12v-.7H13.87v1.24h-.51V30.24Zm-.53.43H13.87v.59h2.42Zm-2.42,1.58h2.42v-.6H13.87Z"/><path class="cls-4" d="M20.16,27.9v.88h1.57v.46H18.11v-.46h1.56V27.9H18.42v-.45h1.25v-.79l.64,0c0,.06,0,.1-.15.1v.65H21.4v.45Zm.13,2.59a7.33,7.33,0,0,0,.47-1.17l.55.19s-.07.07-.16.07a8.15,8.15,0,0,1-.5,1h.94V31H20.15v.9h1.34v.46H20.15v1.54h-.49V32.37H18.32v-.46h1.34V31H18.22v-.46h2.21ZM19,30.5a3.6,3.6,0,0,0-.36-1.08l.41-.1a3.9,3.9,0,0,1,.37,1.05ZM24.74,30l.32.11a.23.23,0,0,1,0,.1,6.64,6.64,0,0,1-.86,2.35,3.54,3.54,0,0,0,1.19.9,2,2,0,0,0-.37.45A3.87,3.87,0,0,1,23.85,33a4.32,4.32,0,0,1-.91.85,1.7,1.7,0,0,0-.36-.35,3.94,3.94,0,0,0,1-.92,6.45,6.45,0,0,1-.88-1.85l.42-.11a5.73,5.73,0,0,0,.74,1.51,5.85,5.85,0,0,0,.62-1.65h-2v3.44h-.5V27h3v2c0,.56-.28.56-1.34.56a1.62,1.62,0,0,0-.16-.45H24c.43,0,.46,0,.46-.13V27.51h-2V30h2.2Z"/><path class="cls-4" d="M32.56,28.65a.34.34,0,0,1-.13.1,8.3,8.3,0,0,1-1.63,2.54,3.07,3.07,0,0,0-.47-.28,5.56,5.56,0,0,0,1.34-1.94l-3,.78v2c0,.77.46,1,1.08,1H31a11.3,11.3,0,0,0,1.16-.08c0,.17,0,.38,0,.54a11.43,11.43,0,0,1-1.15.07h-1.3c-1,0-1.64-.46-1.64-1.54V30l-2,.51L26,30l2.1-.52V27.08l.76,0a.2.2,0,0,1-.2.15v2l3.3-.85.08-.06Z"/><path class="cls-4" d="M36.88,31.16l.28,2.45-.56.06-.27-2.44-2.93.38-.07-.52,2.94-.37L36.07,29l-2.45.32-.07-.52L36,28.45l-.17-1.54.76,0c0,.08-.07.14-.18.18l.14,1.32,2.37-.31.06.53-2.37.3.21,1.75,2.93-.37.07.52Z"/><path class="cls-4" d="M46.45,32.61v.45H41.13v-.45H44.3c.13-.79.34-2.34.42-3.14h-3V29h3.13l.1,0,.38.18a.12.12,0,0,1-.1.08c-.1.81-.35,2.52-.48,3.36Z"/><path class="cls-4" d="M48.22,31.19V27.4l.74,0c0,.07-.06.13-.18.14v3.61Zm4.35-4.1c0,.08-.07.12-.19.14V29.7a3.88,3.88,0,0,1-2.8,4,3.1,3.1,0,0,0-.4-.42,3.47,3.47,0,0,0,2.64-3.58V27.05Z"/><path class="cls-4" d="M60.41,29.94H57.77l.14,0a.19.19,0,0,1-.16.09,4.21,4.21,0,0,1-2.41,3.56,4,4,0,0,0-.42-.38,3.72,3.72,0,0,0,2.25-3.31h-3v-.52h6.27Zm-.77-2.2H54.85v-.52h4.79Z"/><path class="cls-4" d="M66.64,28.7a.16.16,0,0,1-.14.05h-.11a13.16,13.16,0,0,1-1.71,1.44l.17.07a.23.23,0,0,1-.13.09v3.38h-.48V30.47A20.54,20.54,0,0,1,61.68,32a3,3,0,0,0-.28-.37,15.49,15.49,0,0,0,4.7-3.27Z"/><path class="cls-4" d="M12.33,40a6.35,6.35,0,0,1-1.46,2.3L10.42,42a5.57,5.57,0,0,0,1.41-2.2ZM14,38.76v3.66c0,.85-.61.85-1.85.85a3.14,3.14,0,0,0-.17-.52h1.14a.29.29,0,0,0,.32-.32V38.76H10.79v-.53h2.65V36.59l.74,0c0,.07-.06.13-.18.14v1.46h2.64v.53Zm1.4,1A16.11,16.11,0,0,1,17,42l-.49.29A14.84,14.84,0,0,0,15,40Zm1-3.59a.88.88,0,1,1-.88.87A.87.87,0,0,1,16.41,36.12ZM17,37a.61.61,0,0,0-.61-.62A.62.62,0,1,0,17,37Z"/><path class="cls-4" d="M18.71,40.82V37l.74,0c0,.07-.06.12-.19.14v3.6Zm4.34-4.09c0,.08-.06.11-.18.13v2.48a3.89,3.89,0,0,1-2.8,4,2.32,2.32,0,0,0-.41-.42,3.48,3.48,0,0,0,2.65-3.58V36.68Z"/><path class="cls-4" d="M24.74,38.75a10.54,10.54,0,0,1,2.1.7l-.23.49a11.71,11.71,0,0,0-2.1-.72Zm.47,3.81A8.07,8.07,0,0,0,30.51,38c.12.1.36.27.48.35A8.57,8.57,0,0,1,25.74,43a.18.18,0,0,1-.09.2Zm.39-5.75a12.36,12.36,0,0,1,2.09.77l-.26.47a11.79,11.79,0,0,0-2.06-.78Z"/><path class="cls-4" d="M32,39.5h6.52v.55H32.25a.38.38,0,0,1-.25.15Z"/></g></g></svg>