<svg xmlns="http://www.w3.org/2000/svg" viewBox="0 0 271.63 219.59"><defs><style>.cls-1{fill:#231815;}.cls-2{fill:#e1f1f0;}.cls-3,.cls-5{fill:none;stroke:#1cb3ac;stroke-miterlimit:10;}.cls-3{stroke-width:0.59px;}.cls-4{fill:#d1eae7;}.cls-5{stroke-width:0.71px;}.cls-6{fill:#fff;}.cls-7{fill:#1cb3ac;}</style></defs><g id="レイヤー_2" data-name="レイヤー 2"><g id="レイヤー_1-2" data-name="レイヤー 1"><g id="レイヤー_2-2" data-name="レイヤー 2"><g id="レイヤー_2-2-2" data-name="レイヤー 2-2"><path class="cls-1" d="M117.22,171.81s0,.07-.09.08a10.28,10.28,0,0,1-1.15,2.58,11.54,11.54,0,0,1,1,.65l-.33.51c-.28-.21-.68-.47-1-.67a7.55,7.55,0,0,1-2.8,2.37,1.4,1.4,0,0,0-.43-.41,7.7,7.7,0,0,0,2.76-2.24,12.87,12.87,0,0,0-1.72-.82l.3-.43a11.89,11.89,0,0,1,1.75.79,7.9,7.9,0,0,0,.94-2.07h-2.6a8.61,8.61,0,0,1-1.8,2.14,4.58,4.58,0,0,0-.45-.35,8.11,8.11,0,0,0,2.46-3.51l.74.17a.19.19,0,0,1-.21.1c-.11.26-.29.64-.44.93h2.7Z"/><path class="cls-1" d="M123.79,171.29a.22.22,0,0,1-.1.09,12.42,12.42,0,0,1-1.56,2.68A28.48,28.48,0,0,1,125,176.7l-.48.42a25,25,0,0,0-2.73-2.62,12.94,12.94,0,0,1-3,2.62,2.35,2.35,0,0,0-.4-.43A11.17,11.17,0,0,0,123,171.6h-3.83v-.54h4.23Z"/><path class="cls-1" d="M131.58,172l-.12.11a8.23,8.23,0,0,1-4.25,5.24,1.83,1.83,0,0,0-.4-.43,7.36,7.36,0,0,0,4-4.62H128a8.23,8.23,0,0,1-1.75,1.93,2.48,2.48,0,0,0-.44-.36,8.18,8.18,0,0,0,2.49-3.38l.74.21c0,.08-.13.1-.23.1-.15.34-.32.67-.5,1h2.84Z"/><path class="cls-1" d="M138.66,171.49a.16.16,0,0,1-.1.08,6.9,6.9,0,0,1-4.71,5.61l-.36-.45a6.22,6.22,0,0,0,4.36-4.89h-5.1v-.53h5.31l.1-.07Z"/><path class="cls-1" d="M145.25,173.69h-1.86v2.9c0,.67-.57.69-1.45.67a4.26,4.26,0,0,0-.11-.42h.85a.3.3,0,0,0,.25-.25v-2.48a8.37,8.37,0,0,1-2.62,2.3,1.32,1.32,0,0,0-.31-.35,7.77,7.77,0,0,0,2.67-2.36h-2.41v-.45h2.66v-1.4h.62c0,.07-.07.11-.15.12v1.24h1.87Z"/><path class="cls-1" d="M146.71,173.48h6.51v.58H147a.41.41,0,0,1-.25.15Z"/><path class="cls-1" d="M158.85,171.29a.22.22,0,0,1-.1.09,12.42,12.42,0,0,1-1.56,2.68A27.34,27.34,0,0,1,160,176.7l-.47.42a24,24,0,0,0-2.72-2.62,12.94,12.94,0,0,1-3,2.62,2.4,2.4,0,0,0-.41-.43A11.17,11.17,0,0,0,158,171.6h-3.83v-.54h4.24Z"/><path class="cls-2" d="M74.54,206.7h-51a8.52,8.52,0,0,1-8.5-8.5v-5.67a8.51,8.51,0,0,1,8.5-8.51h51a8.5,8.5,0,0,1,8.5,8.51v5.67a8.51,8.51,0,0,1-8.5,8.5"/><path class="cls-1" d="M27.69,193.56a10.18,10.18,0,0,1,2.1.71l-.24.49a11,11,0,0,0-2.09-.72Zm.47,3.82a8.13,8.13,0,0,0,5.3-4.54c.12.1.36.26.47.34a8.56,8.56,0,0,1-5.24,4.61.21.21,0,0,1-.1.2Zm.39-5.75a11.9,11.9,0,0,1,2.09.77l-.26.47a11.48,11.48,0,0,0-2.07-.79Z"/><path class="cls-1" d="M39.63,192.13a.15.15,0,0,1-.1.09A12,12,0,0,1,38,194.9a27.44,27.44,0,0,1,2.86,2.64l-.48.41a23.3,23.3,0,0,0-2.74-2.61,12.11,12.11,0,0,1-3,2.61,2.28,2.28,0,0,0-.4-.42,11.17,11.17,0,0,0,4.57-5.09H35v-.53h4.23Z"/><path class="cls-1" d="M47.93,194.39h-2.5a.15.15,0,0,1-.15.09,4.24,4.24,0,0,1-2.41,3.58,3.88,3.88,0,0,0-.42-.39,3.69,3.69,0,0,0,2.25-3.31h-3v-.52H48Zm-.77-2.2H42.38v-.52h4.77Z"/><path class="cls-1" d="M54.61,197.92a4.93,4.93,0,0,0-.41-.83c-1.62.17-4.29.34-5.48.4a.19.19,0,0,1-.15.15l-.21-.7h.82c.51-1.5,1.26-3.83,1.68-5.39l.76.21c0,.07-.11.1-.23.1-.42,1.44-1.09,3.53-1.63,5.06,1.29-.06,3.14-.19,4.17-.28a13.13,13.13,0,0,0-1.39-1.91l.47-.26a14.66,14.66,0,0,1,2.14,3.2Z"/><path class="cls-1" d="M62.56,196.22H61a3,3,0,0,0,2,1.72,1.44,1.44,0,0,0-.31.45,3.41,3.41,0,0,1-2.11-1.87,3.25,3.25,0,0,1-2.29,1.86A1.45,1.45,0,0,0,58,198c1.42-.46,2-1.09,2.17-1.77H58.5v-2h1.73v-.77H59v-.39c-.21.14-.43.28-.67.41,0-.05-.06-.11-.09-.17h-.88v.64c.23.29.83,1.16,1,1.37l-.3.42a10.54,10.54,0,0,0-.67-1.18v3.78h-.5v-3.8a8.6,8.6,0,0,1-1,2.31,2.39,2.39,0,0,0-.29-.46,9.27,9.27,0,0,0,1.26-3.07h-1.1v-.49h1.14v-1.76l.65.05a.25.25,0,0,1-.15.1v1.57h.88v.15a5.39,5.39,0,0,0,2-1.85h.66s0,.08-.1.09A6.24,6.24,0,0,0,63,192.94a3,3,0,0,0-.28.46c-.24-.13-.47-.28-.7-.43v.41H60.75v.77h1.8ZM59,195.79h1.25a3.38,3.38,0,0,0,0-.45v-.7H59ZM62,193a7.18,7.18,0,0,1-1.47-1.39A5.87,5.87,0,0,1,59.15,193Zm.08,1.66H60.76v1.15H62.1Z"/><path class="cls-1" d="M63.45,192.86v-.43h3.11v.43Zm2.8,2.75v2.29h-2v.37h-.47v-2.66Zm-2.43-1.69v-.43h2.45v.43Zm0,1.06v-.43h2.45V195Zm2.45-3.59v.43H63.86v-.43Zm-.5,4.66H64.28v1.41h1.49Zm5-3.1v.51h-1v4.14c0,.39-.1.55-.34.64a5,5,0,0,1-1.39.11,1.78,1.78,0,0,0-.2-.56h.86c.51,0,.55,0,.55-.21v-4.12H66.65V193H69.2v-1.84h.67c0,.06,0,.09-.15.11v1.69Zm-3.2,1.35a7.7,7.7,0,0,1,1,1.85l-.46.24a8.85,8.85,0,0,0-1-1.87Z"/><path class="cls-2" d="M251.4,206.7h-51a8.51,8.51,0,0,1-8.5-8.5v-5.67a8.5,8.5,0,0,1,8.5-8.5h51a8.5,8.5,0,0,1,8.5,8.5h0v5.67a8.51,8.51,0,0,1-8.5,8.5"/><path class="cls-1" d="M209.27,197.37a.28.28,0,0,1-.18,0,10.68,10.68,0,0,1-2,1,2.31,2.31,0,0,0-.36-.34,7.8,7.8,0,0,0,2-1Zm2.57-2.16s-.09.06-.17.06c-.64.45-1.31.87-2,1.26h2.66a6.66,6.66,0,0,0-.91-.49l.35-.29a8.75,8.75,0,0,1,2,1.23l-.36.33a3.9,3.9,0,0,0-.51-.4l-2.35.06v1.67H210V197l-2.84.07a.15.15,0,0,1-.12.1l-.19-.56h1.95l.37-.21a9.73,9.73,0,0,0-1.52-.83l.35-.3.58.27a10.81,10.81,0,0,0,.92-.72h-2v.28H207v-3.41h3.22v.41h-1.32v.48h1.15v1.33h-1.15v.48h1.37v.4H210l.24.13h-.17c-.28.22-.7.52-1.07.75a5,5,0,0,1,.65.4,18.12,18.12,0,0,0,1.69-1.17ZM208.49,192h-1v.48h1Zm1.11,1.45v-.6h-2.07v.6Zm-2.07.36v.52h1v-.5Zm5.78-2.12.31.12a.16.16,0,0,1-.06.08,4.59,4.59,0,0,1-1.13,2,4.57,4.57,0,0,0,1.49.76,2,2,0,0,0-.33.42,4.57,4.57,0,0,1-1.52-.86,5.55,5.55,0,0,1-1.43.79,1.56,1.56,0,0,0-.27-.4,4.29,4.29,0,0,0,1.35-.72,4.91,4.91,0,0,1-1-1.55l.44-.12a4.19,4.19,0,0,0,.88,1.36,4.17,4.17,0,0,0,.9-1.38h-2.47v-.45h2.81Zm0,6.69a8.36,8.36,0,0,0-1.92-1l.38-.3a9,9,0,0,1,1.95,1Z"/><path class="cls-1" d="M215.53,193.72v-.15c-.2.17-.42.34-.65.5a1.37,1.37,0,0,0-.38-.38,6,6,0,0,0,2.14-2.32l.67.11c0,.06-.07.09-.16.09l-.25.43h2.34l.41.27a.24.24,0,0,1-.11.06,9,9,0,0,1-.65,1h1.73v2.75h-3a4.22,4.22,0,0,1,1.26.74l-.35.38a4.92,4.92,0,0,0-1.44-.86l.25-.26h-2v-.46h4.75v-.71h-4.51v-.54h4.51v-.69Zm.55,3a2.88,2.88,0,0,1-1.15,1.65l-.43-.32a2.64,2.64,0,0,0,1.1-1.5Zm2.2-3.45a8.75,8.75,0,0,0,.57-.83h-2.27c-.22.29-.46.56-.71.83Zm-1.22,4.54c0,.2.07.24.47.24h1.36c.34,0,.4-.11.43-.92a1.86,1.86,0,0,0,.46.19c-.06,1-.22,1.19-.84,1.19h-1.45c-.76,0-.94-.15-.94-.69v-1.2h.66c0,.06-.05.1-.15.11Zm4.2.54a7.33,7.33,0,0,0-1.45-1.64l.43-.25a7,7,0,0,1,1.48,1.6Z"/><path class="cls-1" d="M224.76,191.9v5.16H223v.63h-.5V191.9Zm-.49.48H223v1.84h1.22Zm-1.26,4.2h1.22v-1.89H223Zm4.4-2.68h2.05v.47h-4.6v-.47h2v-1.07h-1.7v-.46h1.7v-1h.67c0,.06-.06.1-.16.11v.89h1.74v.47h-1.74Zm1.24.69s0,.09-.15.1v.68h1v.47h-1V198c0,.32-.07.47-.31.55a5.48,5.48,0,0,1-1.28.08,1.37,1.37,0,0,0-.18-.49h.78c.44,0,.48,0,.48-.17v-2.16h-3.1v-.46H228v-.81Zm-2.22,3.24a6.11,6.11,0,0,0-1-1.41l.42-.25a5.87,5.87,0,0,1,1.05,1.37Z"/><path class="cls-1" d="M230.82,194c.42.44.87,1,1.28,1.46a11.11,11.11,0,0,0,.52-2.1l.65.13c0,.06-.07.09-.17.1a10.63,10.63,0,0,1-.65,2.33,10.91,10.91,0,0,1,.9,1.38l-.43.36a9.08,9.08,0,0,0-.72-1.2,5.27,5.27,0,0,1-1.84,2,2.6,2.6,0,0,0-.33-.4,4.78,4.78,0,0,0,1.84-2.09c-.44-.59-1-1.2-1.42-1.72Zm3-1.31v.5H230v-.5h1.65v-1.36h.65c0,.06-.05.1-.15.11v1.19Zm3.44.59v.5h-1v4.07c0,.72-.4.73-1.62.73a1.72,1.72,0,0,0-.18-.54h.69c.57,0,.59,0,.59-.18v-4.08h-2.21v-.45h2.21v-2h.68c0,.06-.06.1-.16.11v1.89Zm-3.13,1.37a6,6,0,0,1,.89,1.76l-.46.23a6.88,6.88,0,0,0-.86-1.79Z"/><path class="cls-1" d="M245,192.93h-6v1.56a9.13,9.13,0,0,1-.77,4.15,1.9,1.9,0,0,0-.45-.31,8.21,8.21,0,0,0,.7-3.84v-2.06h2.94v-1.06h.69c0,.06,0,.1-.15.11v.89h3Zm-4.69,2.44a6.94,6.94,0,0,1-.74,2.54l-.47-.23a6.12,6.12,0,0,0,.73-2.42Zm1.08,2.44c0,.26,0,.3.37.3h1.06c.32,0,.38-.2.41-1.38a1.56,1.56,0,0,0,.47.22c-.06,1.3-.2,1.65-.84,1.65h-1.16c-.65,0-.83-.18-.83-.79v-3h.67c0,.06-.05.1-.15.11Zm0-4.65a9.78,9.78,0,0,1,2,1.17l-.38.39a10.71,10.71,0,0,0-2-1.25Zm3.27,4.77a8.56,8.56,0,0,0-1.15-2.56l.47-.19a8.08,8.08,0,0,1,1.16,2.55Z"/><path class="cls-2" d="M161.32,206.7h-51a8.51,8.51,0,0,1-8.5-8.51v-5.68a8.49,8.49,0,0,1,8.5-8.5h51a8.51,8.51,0,0,1,8.5,8.5v5.67a8.52,8.52,0,0,1-8.5,8.51"/><path class="cls-1" d="M115.77,194.77a6.63,6.63,0,0,1-1.46,2.3l-.46-.29a5.48,5.48,0,0,0,1.41-2.2Zm1.67-1.2v3.66c0,.85-.61.85-1.86.85a4.1,4.1,0,0,0-.16-.53h1.14a.3.3,0,0,0,.32-.26v-3.72h-2.65V193h2.7V191.4h.74c0,.08-.06.14-.18.15V193h2.64v.53Zm1.4,1a15.43,15.43,0,0,1,1.64,2.27l-.5.29a14.79,14.79,0,0,0-1.59-2.31Zm1-3.59a.87.87,0,1,1-.87.87A.86.86,0,0,1,119.84,191Zm.61.87a.62.62,0,0,0-.62-.62.61.61,0,0,0-.62.62.62.62,0,0,0,.62.62h0a.62.62,0,0,0,.62-.62v0Z"/><path class="cls-1" d="M122.15,195.63v-3.79h.74c0,.07-.06.12-.19.14v3.6Zm4.34-4.09c0,.07-.06.11-.19.13v2.48a3.91,3.91,0,0,1-2.8,4,2,2,0,0,0-.4-.42,3.5,3.5,0,0,0,2.64-3.58v-2.66Z"/><path class="cls-1" d="M128.17,193.55a10.6,10.6,0,0,1,2.1.71l-.23.49a11.33,11.33,0,0,0-2.1-.72Zm.47,3.82a8.13,8.13,0,0,0,5.3-4.54c.12.1.36.26.48.34a8.6,8.6,0,0,1-5.25,4.61.21.21,0,0,1-.09.2Zm.39-5.75a12.52,12.52,0,0,1,2.09.77l-.26.47a12.31,12.31,0,0,0-2.06-.79Z"/><path class="cls-1" d="M135.38,194.3h6.55v.56h-6.21a.44.44,0,0,1-.25.14Z"/><path class="cls-1" d="M146.73,195.11v.59a6.58,6.58,0,0,0,3.44,1.93,2.24,2.24,0,0,0-.35.46,7.4,7.4,0,0,1-3.09-1.76v2h-.53v-2a7.19,7.19,0,0,1-3,1.76,1.76,1.76,0,0,0-.33-.43,6.57,6.57,0,0,0,3.36-2v-.59h-1.92v1.53h-.52v-2h2.44V194H143v-.48h3.21V193l-.38-.27a4.42,4.42,0,0,0,1.27-1.75l.6.19s-.07.07-.15.07c-.07.16-.16.32-.25.49h2.79v.42h-1.86a5.14,5.14,0,0,1,.49.78l-.48.17a4.83,4.83,0,0,0-.58-.95h-.63a7.44,7.44,0,0,1-.58.68h.44c0,.06,0,.09-.15.11v.53H150V194h-3.29v.59h2.52v1.53c0,.5-.27.5-1.11.5a2.52,2.52,0,0,0-.17-.41h.41c.31,0,.34,0,.34-.1v-1Zm-2-2a6.94,6.94,0,0,0-.34-.9H144a6,6,0,0,1-.73,1,2.07,2.07,0,0,0-.41-.27,5.24,5.24,0,0,0,1.16-1.88l.59.19c0,.05-.07.08-.16.07l-.22.49h2.16v.42h-1.51a3.88,3.88,0,0,1,.3.76Z"/><path class="cls-1" d="M154.53,195.9v1.7a8.17,8.17,0,0,0,1.4.1h2a1.27,1.27,0,0,0-.2.53H155.9c-1.67,0-2.89-.29-3.61-1.69a4.16,4.16,0,0,1-1.23,1.83,2.12,2.12,0,0,0-.4-.34,4.72,4.72,0,0,0,1.49-3.28l.67.11s-.06.09-.15.09c0,.31-.11.62-.18.91a2.49,2.49,0,0,0,1.54,1.59V194h-2v-.5h4.59v.5h-2.09v1.38h2.4v.5Zm-3-3.36v1.16H151V192h3v-1h.71a.24.24,0,0,1-.16.11v.8h3v1.75H157v-1.16Z"/><path class="cls-3" d="M261.47,219.29H10.16C4.72,219.3.3,213.45.3,206.22c0,0,0,0,0-.05V167.29c0-7.23,4.41-13.09,9.86-13.09H261.47c5.45,0,9.87,5.86,9.87,13.09h0v38.88c0,7.23-4.39,13.1-9.84,13.12h0"/><path class="cls-4" d="M261.47,118.62H10.16c-5.44,0-9.86-5.84-9.86-13.06,0,0,0,0,0-.06V13.09C.3,5.86,4.71,0,10.16,0H261.47c5.45,0,9.87,5.86,9.87,13.09h0V105.5c0,7.23-4.39,13.11-9.84,13.12h0"/><line class="cls-5" x1="126.26" y1="23.61" x2="148.12" y2="23.61"/><path class="cls-6" d="M251.4,40.62H155a8.51,8.51,0,0,1-8.5-8.5h0v-17A8.51,8.51,0,0,1,155,6.6H251.4a8.51,8.51,0,0,1,8.5,8.5h0v17a8.51,8.51,0,0,1-8.49,8.51h0"/><path class="cls-6" d="M251.4,40.62H155a8.51,8.51,0,0,1-8.5-8.5h0v-17A8.51,8.51,0,0,1,155,6.6H251.4a8.51,8.51,0,0,1,8.5,8.5h0v17a8.51,8.51,0,0,1-8.49,8.51h0"/><path class="cls-1" d="M186.84,15.3v-.46h4.37v.46Zm.31,6.38V18.35h3.76v3.23h-.5v-.34h-2.73v.44Zm.37-5.73h3v1.8h-3Zm1.26,2.8h-1.1v.78h1.14Zm-1.14,2h1.14v-.84h-1.1Zm2.41-3.49v-.93H188v.93Zm.36,2.24v-.75h-1.16v.78Zm-1.16,1.25h1.16v-.84h-1.16Zm2.92-5.34s0,.09-.14.11v4.23h-.5V15.43Zm1-.84h.67c0,.06-.06.1-.16.11v6.25c0,.63-.27.72-1.61.7a3.24,3.24,0,0,0-.19-.52h.68c.54,0,.61,0,.61-.19Z"/><path class="cls-1" d="M198.47,18.19h-.63l-.42.66h4.39v.46h-1.66a3.29,3.29,0,0,1-1,1.22,22.34,22.34,0,0,1,2.4.77l-.32.43a21.49,21.49,0,0,0-2.61-.85,9.37,9.37,0,0,1-3.68.87,1.46,1.46,0,0,0-.21-.48,10.25,10.25,0,0,0,3.15-.57c-.5-.12-1-.24-1.55-.34l-.19.25-.48-.18c.23-.3.52-.7.82-1.12h-1.8v-.46h2.17c.21-.31.4-.63.58-.9l.56.16V16.57a7.57,7.57,0,0,1-3.06,1.84,1.86,1.86,0,0,0-.33-.41,7.54,7.54,0,0,0,2.75-1.43h-2.67v-.46h3.25v-.85c-.85.07-1.74.11-2.55.14a1.55,1.55,0,0,0-.12-.42,30.43,30.43,0,0,0,5.13-.5l.41.41h-.12a20.79,20.79,0,0,1-2.22.31v.89h3.28v.46h-2.62a7.6,7.6,0,0,0,2.75,1.35,1.58,1.58,0,0,0-.34.43,7.44,7.44,0,0,1-3.06-1.78h0ZM196.68,20c.64.12,1.28.26,1.89.41a3,3,0,0,0,1-1.07h-2.44Z"/><path class="cls-1" d="M205.2,20.75a.3.3,0,0,1-.16.05,9.15,9.15,0,0,1-2.3.92,2.34,2.34,0,0,0-.38-.39,8,8,0,0,0,2.3-.9Zm-2-3.72h5.58v3.38H203.2Zm.45-2.24h4.67v1.75h-4.67Zm.07,2.63V18h4.52v-.6Zm0,1V19h4.52v-.6Zm0,1V20h4.52v-.61Zm.45-4.17v.87h3.61v-.87Zm5,6.51a20.6,20.6,0,0,0-2.49-1l.46-.34c.81.24,1.87.64,2.48.9Z"/><path class="cls-1" d="M213.74,18.75a4.22,4.22,0,0,0,.85,1.2,12.3,12.3,0,0,0,1.75-1.11l.5.36a.17.17,0,0,1-.17,0c-.46.3-1.16.7-1.74,1a5.23,5.23,0,0,0,2.33,1,2.15,2.15,0,0,0-.33.46,5.05,5.05,0,0,1-3.73-3H212v2.17l2.13-.36v.44c-1.24.24-2.57.48-3.38.62a.15.15,0,0,1,0,.2l-.07,0-.23-.57,1-.15V18.75h-1.4v-.49h1.4V14.8h4.9v.45H212V16h4.11v.43H212v.71h4.11v.44H212v.73h5.11v.48Z"/><path class="cls-1" d="M173,25.85a4.73,4.73,0,0,0-1.55,3.59A4.65,4.65,0,0,0,173,33h-.47a5.15,5.15,0,0,1,0-7.25H173Z"/><path class="cls-1" d="M174.4,27.41a4.1,4.1,0,0,1-.45,2,2.42,2.42,0,0,0-.39-.21,4.07,4.07,0,0,0,.42-1.88Zm.3-1.6.67.05c0,.05-.05.09-.15.1v7.09h-.54Zm1.2,2.53a8.14,8.14,0,0,0-.56-1.15l.36-.18a5.78,5.78,0,0,1,.58,1.1Zm2.74.1h2.18v.44H176v-.44h2.1v-.57h-1.52v-.41h1.52v-.53h-1.83v-.42h1.83v-.7l.71.05c0,.05-.05.09-.16.11v.54h1.9v.42h-1.86v.53h1.58v.41h-1.58Zm1.47,1v3.09c0,.51-.2.56-1.28.56a2.2,2.2,0,0,0-.17-.45h.57c.32,0,.36,0,.36-.13v-.69h-2.42v1.23h-.49V29.41Zm-.52.42h-2.42v.59h2.42Zm-2.42,1.58h2.42v-.59h-2.42Z"/><path class="cls-1" d="M183.46,27.07v.87H185v.46h-3.62v-.46H183v-.87h-1.29v-.46h1.25v-.78h.64c0,.05,0,.09-.15.1v.64h1.26V27Zm.13,2.58a7.82,7.82,0,0,0,.47-1.16l.55.18a.29.29,0,0,1-.16.07,9.33,9.33,0,0,1-.5,1h.93v.46h-1.43v.9h1.33v.46h-1.33V33.1H183V31.53h-1.34v-.46H183v-.9h-1.44v-.42h2.21Zm-1.28,0a4.09,4.09,0,0,0-.36-1.07l.41-.11a3.86,3.86,0,0,1,.37,1.05Zm5.73-.51.32.11a.37.37,0,0,1-.05.11,6.74,6.74,0,0,1-.86,2.34,3.3,3.3,0,0,0,1.19.9,2,2,0,0,0-.37.45,3.8,3.8,0,0,1-1.12-.91,3.91,3.91,0,0,1-.92.85,1.33,1.33,0,0,0-.36-.35,3.51,3.51,0,0,0,1-.92,6.3,6.3,0,0,1-.88-1.85l.42-.11a5.58,5.58,0,0,0,.74,1.51,5.38,5.38,0,0,0,.61-1.65h-2v3.44h-.5V26.18h3v2c0,.56-.28.56-1.34.56a2.18,2.18,0,0,0-.16-.45h.55c.43,0,.46,0,.46-.13V26.67h-2v2.5H188Z"/><path class="cls-1" d="M189.51,28.27a11,11,0,0,1,2.1.71l-.23.49a11.33,11.33,0,0,0-2.1-.72Zm.47,3.82a8.09,8.09,0,0,0,5.31-4.54,5.09,5.09,0,0,0,.47.34,8.52,8.52,0,0,1-5.25,4.61.18.18,0,0,1-.09.2Zm.39-5.75a11.9,11.9,0,0,1,2.09.77l-.26.47a12.51,12.51,0,0,0-2.06-.79Z"/><path class="cls-1" d="M201.46,26.84a.22.22,0,0,1-.1.09,12,12,0,0,1-1.56,2.68,28.79,28.79,0,0,1,2.88,2.64l-.47.41A27.12,27.12,0,0,0,199.47,30a12.12,12.12,0,0,1-3,2.62,4.07,4.07,0,0,0-.41-.42,11.17,11.17,0,0,0,4.57-5.09H196.8v-.53H201Z"/><path class="cls-1" d="M209.76,29.1h-2.5a.15.15,0,0,1-.16.09,4.23,4.23,0,0,1-2.42,3.61,3.88,3.88,0,0,0-.42-.39,3.68,3.68,0,0,0,2.25-3.31h-3v-.52h6.27ZM209,26.9H204.2v-.52H209Z"/><path class="cls-1" d="M216.45,32.63c-.12-.27-.26-.55-.41-.83-1.63.17-4.29.33-5.49.4a.21.21,0,0,1-.14.15l-.21-.7H211c.52-1.5,1.26-3.83,1.69-5.39l.75.2c0,.07-.1.11-.22.11-.43,1.44-1.1,3.53-1.64,5.06,1.3-.06,3.14-.19,4.17-.28a13.13,13.13,0,0,0-1.39-1.91l.47-.26A14.89,14.89,0,0,1,217,32.41Z"/><path class="cls-1" d="M220,28.82a11.47,11.47,0,0,0,.5-1.5l.6.17a.31.31,0,0,1-.16.08,12.51,12.51,0,0,1-.5,1.33h1.17v.48h-4.11V28.9h2.74Zm1.47-2.07v.47h-3.8v-.47h1.62v-.91H220c0,.05-.05.09-.15.11v.8ZM218,33.09v-3h3.09V33h-.45v-.39h-2.09v.44Zm.61-5.68a5.61,5.61,0,0,1,.37,1.27l-.46.11a5.62,5.62,0,0,0-.34-1.28Zm2,3.19h-2.09v1.58h2.12Zm3.79-4.32.34.17a.1.1,0,0,1-.07.08c-.3.66-.71,1.51-1.14,2.33.84.78,1.19,1.37,1.19,1.93,0,1.22-.85,1.22-1.35,1.22h-.36a1.24,1.24,0,0,0-.18-.52h.48c.52,0,.9,0,.9-.75,0-.5-.38-1-1.23-1.83.38-.77.71-1.5,1-2.13h-1.55v6.27H222V26.29h2.48Z"/><path class="cls-1" d="M229,30.1a4.26,4.26,0,0,0,.86,1.2,12.6,12.6,0,0,0,1.78-1.11l.5.36a.17.17,0,0,1-.17,0,19.22,19.22,0,0,1-1.74,1,5.27,5.27,0,0,0,2.33,1,1.86,1.86,0,0,0-.32.47,5.05,5.05,0,0,1-3.73-3h-1.18v2.17c.67-.1,1.41-.23,2.13-.35v.43c-1.24.24-2.56.48-3.38.62a.17.17,0,0,1-.1.12l-.24-.57,1-.16V30.1h-1.4v-.48h1.4V26.14h4.9v.45h-4.36v.71h4.12v.45h-4.12v.71h4.12v.43h-4.12v.74h5.12v.48Z"/><path class="cls-1" d="M233.08,33a4.92,4.92,0,0,0,.22-7l-.22-.22h.47a5.15,5.15,0,0,1,0,7.25h-.47Z"/><polyline class="cls-5" points="151.25 70.86 137.05 70.86 137.05 23.61"/><path class="cls-6" d="M251.4,87.87H155a8.51,8.51,0,0,1-8.5-8.5v-17a8.49,8.49,0,0,1,8.48-8.5h96.4a8.49,8.49,0,0,1,8.5,8.48v17a8.51,8.51,0,0,1-8.5,8.5"/><path class="cls-1" d="M198.47,65.44h-.63c-.13.2-.28.42-.42.65h4.39v.46h-1.67a3.24,3.24,0,0,1-1,1.23,23,23,0,0,1,2.4.76l-.32.44a19.88,19.88,0,0,0-2.61-.85,9.4,9.4,0,0,1-3.68.86,1.33,1.33,0,0,0-.21-.47,10,10,0,0,0,3.15-.58c-.5-.12-1-.23-1.55-.34l-.19.25-.49-.18c.24-.3.53-.7.82-1.12h-1.78v-.46h2.17c.21-.31.4-.62.57-.9l.56.16V63.82a7.72,7.72,0,0,1-3,1.85,2.18,2.18,0,0,0-.33-.42,7.58,7.58,0,0,0,2.74-1.43h-2.71v-.45h3.24v-.85c-.85.06-1.74.11-2.55.13a1.46,1.46,0,0,0-.11-.41,32.65,32.65,0,0,0,5.13-.5l.41.4h-.12a20.61,20.61,0,0,1-2.21.31v.9h3.28v.45h-2.63a7.72,7.72,0,0,0,2.76,1.35,2.12,2.12,0,0,0-.35.44,7.61,7.61,0,0,1-3.05-1.79h0Zm-1.79,1.76c.64.12,1.28.26,1.9.41a2.78,2.78,0,0,0,1-1.07h-2.44Z"/><path class="cls-1" d="M205.2,68a.22.22,0,0,1-.16,0,9.15,9.15,0,0,1-2.3.92c-.09-.1-.26-.28-.38-.39a8,8,0,0,0,2.3-.9Zm-2-3.72h5.57v3.38H203.2Zm.44-2.24h4.68V63.8h-4.68Zm.08,2.64v.6h4.52v-.6Zm0,1v.61h4.52v-.61Zm0,1v.62h4.52v-.65Zm.45-4.17v.87h3.61v-.87Zm5,6.51a20.34,20.34,0,0,0-2.5-.94l.46-.35c.81.25,1.87.64,2.48.91Z"/><path class="cls-1" d="M157.45,73.1a5,5,0,0,0-.11,7.07l.11.11H157A5.16,5.16,0,0,1,157,73h.47Z"/><path class="cls-1" d="M165.07,75.29h-2.85a7.23,7.23,0,0,0,3.11,3.29,2.49,2.49,0,0,0-.4.46,7.77,7.77,0,0,1-3-3.32v2.55h1.56v.53h-1.56v1.52h-.55V78.8H159.8v-.53h1.58V75.75a8.42,8.42,0,0,1-3,3.32,3.89,3.89,0,0,0-.38-.43,7.55,7.55,0,0,0,3.07-3.33h-2.81v-.56h3.15V73.08h.7a.24.24,0,0,1-.15.11v1.56h3.18Z"/><path class="cls-1" d="M169,74.75s0,.06-.09.08a8.23,8.23,0,0,1-1.12,1.84c.37.25,1.13.81,1.34,1l-.31.43c-.22-.22-.72-.63-1.1-.93v3.19h-.53v-3a7.3,7.3,0,0,1-1.22,1,2.69,2.69,0,0,0-.28-.46,7.27,7.27,0,0,0,2.58-2.84h-2.38v-.48h1.3V73.07h.68c0,.06-.05.1-.15.11v1.34h.93Zm2.23,4.83h1.89v.51h-4.44v-.51h2V76.19H169v-.51h1.73V73.13h.7c0,.06-.06.1-.17.11v2.4h1.73v.51h-1.73Z"/><path class="cls-1" d="M179.31,73.83l.4.23a.16.16,0,0,1-.1.08,6.94,6.94,0,0,1-1.93,2,10.49,10.49,0,0,0,3.23,1.28,2.21,2.21,0,0,0-.33.47c-.34-.08-.67-.17-1-.28v2.68h-.53V80H175.4v.35h-.52V77.59a10.69,10.69,0,0,1-1.09.36,1.69,1.69,0,0,0-.27-.47,11.62,11.62,0,0,0,3.24-1.34,8,8,0,0,1-1.39-1.34,9,9,0,0,1-1.38,1,3.15,3.15,0,0,0-.36-.37A7.33,7.33,0,0,0,176.24,73l.6.24a.29.29,0,0,1-.18.06c-.12.18-.26.37-.4.55h2.93Zm-.12,3.63a10.68,10.68,0,0,1-2-1,11.32,11.32,0,0,1-2,1Zm-3.77,2h3.65V78h-3.65Zm.45-5.17-.13.14a6.94,6.94,0,0,0,1.48,1.38,6.69,6.69,0,0,0,1.62-1.52Z"/><path class="cls-1" d="M183.9,76.07a11.47,11.47,0,0,0,.5-1.5l.6.17c0,.05-.07.07-.16.08a12.51,12.51,0,0,1-.5,1.33h1.17v.49H181.4v-.49h2.74ZM185.37,74v.47H181.6V74h1.62v-.91h.66c0,.06,0,.1-.15.11v.76Zm-3.44,6.34v-3H185v2.92h-.5v-.4h-2.09v.44Zm.61-5.67a5.61,5.61,0,0,1,.37,1.27l-.46.11a5.85,5.85,0,0,0-.34-1.29Zm2,3.18h-2.09v1.58h2.09Zm3.79-4.31.34.17a.18.18,0,0,1-.07.08c-.3.66-.71,1.5-1.14,2.32.84.79,1.19,1.37,1.19,1.93,0,1.23-.85,1.23-1.35,1.23h-.36a1.16,1.16,0,0,0-.18-.51h.48c.52,0,.9,0,.9-.74,0-.51-.38-1-1.23-1.83.38-.78.71-1.51,1-2.14h-1.55v6.28h-.51V73.54h2.39Z"/><path class="cls-1" d="M192.39,73.45v2.87h-2.28v4h-.51V73.45Zm-.5.45h-1.78v.75h1.78Zm-1.78,2h1.78v-.82h-1.78Zm5.94-2.43v6.12c0,.71-.27.73-1.77.73a2.79,2.79,0,0,0-.2-.55h.9c.5,0,.55,0,.55-.2V76.33h-2.37V73.45Zm-.52.45h-1.85v.75h1.86Zm-1.86,2h1.86v-.83h-1.85Z"/><path class="cls-1" d="M197.31,75.53a10.92,10.92,0,0,1,2.09.7l-.23.49a11.33,11.33,0,0,0-2.1-.72Zm.46,3.81a8.09,8.09,0,0,0,5.31-4.54,5.2,5.2,0,0,0,.47.35,8.53,8.53,0,0,1-5.25,4.6.18.18,0,0,1-.09.2Zm.39-5.75a11.9,11.9,0,0,1,2.09.77l-.25.48a11.77,11.77,0,0,0-2.07-.79Z"/><path class="cls-1" d="M209.25,74.09a.15.15,0,0,1-.1.09,12,12,0,0,1-1.56,2.68,28.47,28.47,0,0,1,2.85,2.64l-.47.42a25.11,25.11,0,0,0-2.74-2.62,12.52,12.52,0,0,1-3,2.62,2.71,2.71,0,0,0-.41-.42,11.22,11.22,0,0,0,4.57-5.09h-3.83v-.53h4.22Z"/><path class="cls-1" d="M217.54,76.36H215a.28.28,0,0,1-.15.1A4.24,4.24,0,0,1,212.48,80a3.88,3.88,0,0,0-.42-.39,3.7,3.7,0,0,0,2.25-3.3h-3V75.8h6.26Zm-.77-2.2H212v-.53h4.78Z"/><path class="cls-1" d="M224.23,79.88a8,8,0,0,0-.41-.83c-1.62.17-4.29.34-5.48.4a.26.26,0,0,1-.15.16L218,78.9h.82c.51-1.49,1.25-3.83,1.68-5.38l.76.2c0,.07-.11.11-.23.11-.43,1.43-1.1,3.52-1.64,5,1.3,0,3.15-.19,4.18-.28a13.61,13.61,0,0,0-1.39-1.9l.47-.27a15.53,15.53,0,0,1,2.15,3.23Z"/><path class="cls-1" d="M227.14,75a3.66,3.66,0,0,0-.38-.83h-.38a5.25,5.25,0,0,1-.71.85,2.76,2.76,0,0,0-.39-.28A4.62,4.62,0,0,0,226.41,73l.6.21a.18.18,0,0,1-.17.06c-.05.12-.12.26-.19.39h2.15v.44h-1.51a4.37,4.37,0,0,1,.33.69Zm5.36-1.27v.44h-1.82a3.76,3.76,0,0,1,.44.68l-.47.16a3.93,3.93,0,0,0-.55-.84h-.68a5.07,5.07,0,0,1-.49.55h.35c0,.06,0,.09-.15.1v.49h3.11v1.48h-.52v-1h-5.61v1h-.5V75.29h3v-.45l-.36-.21a3.86,3.86,0,0,0,1.22-1.6l.61.19a.26.26,0,0,1-.16.07,3,3,0,0,1-.21.4Zm-5.25,4.06v.59h4.35v1.92h-.52V80h-3.83v.28h-.51v-4h4.37v1.51Zm3.34-1.14h-3.34v.73h3.34Zm.49,2.15h-3.83v.82h3.83Z"/><path class="cls-1" d="M234.68,76.32v1.93l1.06-.31a3.68,3.68,0,0,0,.06.45c-.9.29-1.86.6-2.46.78a.17.17,0,0,1-.1.12l-.21-.58,1.14-.31V76.32h-1v-.49h1V74.07h-1v-.5h2.51v.5h-1v1.76h.94v.49Zm3.54,3.26h2.18v.49h-5v-.49h2.34v-1.2h-1.83V77.9h1.83V77H236V73.52h4.09V77h-1.82v.91h1.93v.48h-1.93Zm-1.8-5.6v1h1.31V74Zm0,2.55h1.31V75.47h-1.31Zm3.13-1.5V74h-1.33v1Zm0,1.5V75.47h-1.33v1.06Z"/><path class="cls-1" d="M248,76.12h-3c-.43.31-.88.6-1.34.87H247v3.3h-.52v-.24h-3.22v.27h-.55V77.51c-.5.25-1,.47-1.54.68a3.15,3.15,0,0,0-.31-.41,16.35,16.35,0,0,0,3.32-1.66h-3.21v-.46h2.79v-1h-2v-.51h2V73.06h.67c0,.06-.06.1-.16.11v.93h2v.26a8.64,8.64,0,0,0,.91-1l.55.32h-.21a12.39,12.39,0,0,1-1.91,1.92H248Zm-1.62,2.16v-.83H243.2v.83Zm-3.22,1.31h3.22v-.84H243.2Zm1.05-3.93h.57a13.48,13.48,0,0,0,1.26-1h-1.83Z"/><path class="cls-1" d="M248.68,80.28a4.93,4.93,0,0,0,.21-7l-.21-.21h.47a5.18,5.18,0,0,1,0,7.26h-.47Z"/><path class="cls-6" d="M119.92,109.8H23.54a8.51,8.51,0,0,1-8.5-8.5v-17a8.5,8.5,0,0,1,8.48-8.5h96.4a8.49,8.49,0,0,1,8.5,8.5v17a8.51,8.51,0,0,1-8.5,8.5"/><path class="cls-6" d="M119.92,48.66H23.54a8.5,8.5,0,0,1-8.5-8.5V15.1a8.5,8.5,0,0,1,8.48-8.5h96.4a8.5,8.5,0,0,1,8.5,8.5V40.16a8.5,8.5,0,0,1-8.5,8.5"/><path class="cls-1" d="M67.71,88.27v.42h-.82v1.42h-.53v-.36h-2v.53c0,.35-.11.49-.34.57a5.33,5.33,0,0,1-1.32.08,1.86,1.86,0,0,0-.19-.46h.79c.48,0,.53,0,.53-.2v-.54h-2.6v-.42h2.6v-.64H60.58v-.4h3.27v-.6H61.32v-.39h2.53v-.53h-2.3v-1.5h2.3v-.49H60.72v-.45h3.13v-.65h.67c0,.06,0,.1-.14.11v.5h3.18v.45H64.38v.49h2.4v1.5h-2.4v.53h2.51v1Zm-5.65-1.9h1.79v-.74H62.06Zm4.18-.74H64.38v.74h1.86Zm-1.86,2v.6h2v-.6Zm2,1.66v-.64h-2v.64Z"/><path class="cls-1" d="M75.44,85h-.65a4.59,4.59,0,0,1-1,1.5,5.15,5.15,0,0,0,1.75.84,1.87,1.87,0,0,0-.33.45,5.49,5.49,0,0,1-1.78-1,5.93,5.93,0,0,1-1.85,1,2.62,2.62,0,0,0-.24-.34,5.39,5.39,0,0,1-.39.93l-.37-.19A8.86,8.86,0,0,0,71,86.86h-.82v3.37c0,.56-.26.6-1.22.6a1.64,1.64,0,0,0-.17-.5h.55c.31,0,.34,0,.34-.12V87.56a6.58,6.58,0,0,1-1.2,2,2,2,0,0,0-.28-.47,6.37,6.37,0,0,0,1.3-2.22h-1.2v-.4h2.18a7.42,7.42,0,0,0-1.79-1.13l.33-.34a6.18,6.18,0,0,1,.77.39,5.24,5.24,0,0,0,.91-.85h-2.3v-.46h2.77l.39.24a.53.53,0,0,1-.1.07,6.94,6.94,0,0,1-1.29,1.25,4.1,4.1,0,0,1,.68.5l-.32.35h1.07c-.07.31-.15.62-.25.92a5.7,5.7,0,0,0,1.73-.94,4.82,4.82,0,0,1-.8-1,7.68,7.68,0,0,1-.59.69,2.53,2.53,0,0,0-.42-.31,5.31,5.31,0,0,0,1.35-2.16l.63.19c0,.05-.07.08-.16.07a4.41,4.41,0,0,1-.26.59h2.58Zm-.62,3.24.31.06a.43.43,0,0,1,0,.16c-.14,1.46-.28,2-.49,2.25s-.35.2-.81.2h-.55a1.4,1.4,0,0,0-.15-.49h.8a.4.4,0,0,0,.28-.08,3.69,3.69,0,0,0,.37-1.66H73.31a3.26,3.26,0,0,1-2,2.24,1.35,1.35,0,0,0-.31-.4,2.81,2.81,0,0,0,1.73-1.84H71.52V88.2h1.33a8.13,8.13,0,0,0,.13-.84l.67.07c0,.06-.07.09-.16.1a3.75,3.75,0,0,1-.11.67h1.43ZM72.61,85h0a4.64,4.64,0,0,0,.88,1.14,3.78,3.78,0,0,0,.78-1.19Z"/><path class="cls-1" d="M82.59,86.78h.3V87c-.1,2.5-.2,3.37-.44,3.66s-.43.25-.9.25h-.7a1.39,1.39,0,0,0-.15-.5h1c.16,0,.23,0,.3-.11a11.33,11.33,0,0,0,.37-3h-5a7.45,7.45,0,0,1-1,3.44,1.53,1.53,0,0,0-.42-.34A8,8,0,0,0,77,86V84.09h5.43v2H77.47v.72h5.17Zm-.78-2.23H77.43v1.06h4.38Zm-.69,5.38h-2.5v.46h-.5V87.92h3Zm-.49-1.57h-2v1.11h2Z"/><path class="cls-1" d="M45.61,95a4.92,4.92,0,0,0,0,7.17h-.47a5.17,5.17,0,0,1,0-7.25h.47Z"/><path class="cls-1" d="M47,96.6a4.1,4.1,0,0,1-.45,2l-.39-.22a3.91,3.91,0,0,0,.42-1.87Zm.3-1.6h.67s0,.09-.15.1v7.09h-.52Zm1.2,2.53a6.9,6.9,0,0,0-.5-1.15l.36-.18a5,5,0,0,1,.58,1.1Zm2.74.1h2.18v.44H48.56v-.44h2.1v-.57H49.14v-.41h1.52v-.53H48.83V95.7h1.83V95h.71s0,.09-.16.11v.54h1.9v.42h-1.9v.53h1.58V97H51.21Zm1.47,1v3.1c0,.51-.2.56-1.28.56a1.44,1.44,0,0,0-.17-.45h.57c.32,0,.36,0,.36-.12V101H49.74v1.24h-.51V98.59Zm-.52.43H49.74v.59h2.42Zm-2.42,1.58h2.43v-.59H49.74Z"/><path class="cls-1" d="M56,96.26v.87h1.56v.46H54v-.46h1.56v-.87H54.29V95.8h1.25V95h.64c0,.06,0,.1-.15.11v.64h1.24v.46Zm.13,2.58a7.33,7.33,0,0,0,.47-1.17l.55.19a.29.29,0,0,1-.16.07,8.48,8.48,0,0,1-.5,1h.93v.46H56v.9h1.33v.46H56v1.54h-.49v-1.57H54.19v-.46h1.34v-.9H54.09V98.9H56.3Zm-1.28,0a4.09,4.09,0,0,0-.36-1.07l.44-.1a3.54,3.54,0,0,1,.37,1Zm5.72-.51.36.14a.2.2,0,0,1,0,.11,6.36,6.36,0,0,1-.86,2.34,3.57,3.57,0,0,0,1.18.9,2.3,2.3,0,0,0-.36.45,4.07,4.07,0,0,1-1.12-.91,4.39,4.39,0,0,1-.92.85,1.1,1.1,0,0,0-.36-.35,3.82,3.82,0,0,0,1-.92,6.72,6.72,0,0,1-.89-1.85l.43-.11a5.88,5.88,0,0,0,.62,1.49,5.48,5.48,0,0,0,.61-1.65h-2v3.44H57.8V95.37h3v2c0,.56-.28.56-1.34.56a1.42,1.42,0,0,0-.16-.45h.55c.43,0,.46,0,.46-.13V95.86h-2v2.5h2.21Z"/><path class="cls-1" d="M62.08,97.47a10.18,10.18,0,0,1,2.1.71l-.23.49a10.84,10.84,0,0,0-2.1-.72Zm.47,3.82a8,8,0,0,0,5.3-4.54c.12.1.36.26.48.34a8.55,8.55,0,0,1-5.25,4.61.17.17,0,0,1-.09.19ZM63,95.53a12.72,12.72,0,0,1,2.09.76l-.26.48A12.51,12.51,0,0,0,62.73,96Z"/><path class="cls-1" d="M74,96a.14.14,0,0,1-.1.08,12.25,12.25,0,0,1-1.56,2.69,26.65,26.65,0,0,1,2.85,2.67l-.48.41A24.15,24.15,0,0,0,72,99.26a11.94,11.94,0,0,1-3,2.62,3.25,3.25,0,0,0-.41-.42,11.17,11.17,0,0,0,4.57-5.09H69.34v-.53h4.23Z"/><path class="cls-1" d="M82.33,98.29h-2.5a.29.29,0,0,1-.16.09A4.21,4.21,0,0,1,77.26,102a2.62,2.62,0,0,0-.42-.39,3.71,3.71,0,0,0,2.25-3.31h-3v-.48h6.27Zm-.77-2.2H76.77v-.52h4.79Z"/><path class="cls-1" d="M89,101.81c-.12-.26-.26-.54-.42-.82-1.62.17-4.28.33-5.48.4a.19.19,0,0,1-.14.15l-.22-.7h.82c.52-1.5,1.26-3.83,1.69-5.39l.75.2a.22.22,0,0,1-.22.11c-.43,1.44-1.1,3.53-1.64,5.06,1.29-.06,3.14-.19,4.17-.29a11.72,11.72,0,0,0-1.39-1.9l.47-.26a14.71,14.71,0,0,1,2.15,3.22Z"/><path class="cls-1" d="M92.58,98a9.21,9.21,0,0,0,.5-1.51l.6.18a.26.26,0,0,1-.16.07,11.43,11.43,0,0,1-.5,1.34h1.17v.48H90.08v-.48h2.74Zm1.47-2.09v.47H90.28v-.47H91.9V95h.66s0,.09-.15.11v.76Zm-3.44,6.34v-3H93.7v2.91h-.51v-.4H91.11v.45Zm.6-5.68a5,5,0,0,1,.38,1.27l-.46.11a5.15,5.15,0,0,0-.34-1.28Zm2,3.18H91.13v1.59h2.08ZM97,95.47l.35.17a.09.09,0,0,1-.07.08c-.3.66-.71,1.51-1.14,2.32.84.79,1.19,1.38,1.19,1.94,0,1.22-.85,1.22-1.35,1.22h-.36a1.08,1.08,0,0,0-.18-.52h.48c.52,0,.9,0,.9-.74,0-.5-.38-1-1.23-1.83.38-.77.71-1.5,1-2.14H95v6.28h-.51V95.47H97Z"/><path class="cls-1" d="M97.86,102.21a5,5,0,0,0,.19-7L97.86,95h.46a5.15,5.15,0,0,1,0,7.25h-.46Z"/><path class="cls-1" d="M64.29,18.19h-.63l-.42.66h4.39v.46H66a3.29,3.29,0,0,1-1,1.22,23.08,23.08,0,0,1,2.4.77l-.32.43a21.49,21.49,0,0,0-2.61-.85,9.41,9.41,0,0,1-3.68.87,1.46,1.46,0,0,0-.21-.48,10.25,10.25,0,0,0,3.15-.57c-.5-.12-1-.24-1.55-.34l-.19.25-.48-.18c.23-.3.52-.7.82-1.12H60.47v-.46h2.17c.21-.31.4-.63.57-.9l.57.16V16.57a7.8,7.8,0,0,1-3.06,1.84,1.86,1.86,0,0,0-.33-.41,7.62,7.62,0,0,0,2.75-1.43H60.53v-.46h3.25v-.85c-.86.07-1.74.11-2.55.14a1.55,1.55,0,0,0-.12-.42,30.43,30.43,0,0,0,5.13-.5l.41.41H66.5a20.61,20.61,0,0,1-2.21.31v.89h3.28v.46H64.94A7.72,7.72,0,0,0,67.7,17.9a2.06,2.06,0,0,0-.35.43,7.52,7.52,0,0,1-3-1.78h0ZM62.46,20c.64.12,1.28.26,1.9.41a3,3,0,0,0,1-1.07H62.92Z"/><path class="cls-1" d="M71,20.75a.3.3,0,0,1-.16.05,9.15,9.15,0,0,1-2.3.92,2.79,2.79,0,0,0-.38-.39,8,8,0,0,0,2.3-.9ZM69,17h5.58v3.38H69Zm.44-2.24h4.68v1.75H69.45Zm.08,2.63V18H74v-.6Zm0,1V19H74v-.6Zm0,1V20H74v-.61ZM70,15.25v.87h3.61v-.87Zm5,6.51a20.39,20.39,0,0,0-2.5-1l.46-.34c.84.26,1.67.56,2.48.9Z"/><path class="cls-1" d="M79.55,18.75a4.63,4.63,0,0,0,.86,1.2,13.26,13.26,0,0,0,1.75-1.11l.5.36a.19.19,0,0,1-.18,0c-.45.3-1.15.7-1.73,1a5.23,5.23,0,0,0,2.33,1,2.15,2.15,0,0,0-.33.46A5,5,0,0,1,79,18.75H77.83v2.17c.68-.11,1.42-.23,2.13-.36V21c-1.24.24-2.57.48-3.39.62a.12.12,0,0,1-.1.11l-.23-.57,1-.15V18.75H75.83v-.49h1.41V14.8h4.89v.45H77.77V16H82v.43H77.89v.71H82v.44H77.89v.73H83v.48Z"/><path class="cls-1" d="M23.41,25.85a4.76,4.76,0,0,0-1.55,3.59A4.69,4.69,0,0,0,23.41,33h-.47a5.17,5.17,0,0,1,0-7.25h.47Z"/><path class="cls-1" d="M31.12,29.32H27.26v3.74h-.51v-.91c-.93.14-1.85.27-2.46.34a.09.09,0,0,1-.1.1h0L24,32.05l.75-.08V29.32H24v-.44h7.08Zm-1-3.17v2.22h-5V26.15Zm-3.35,3.72v-.55H25.24v.55Zm0,1V30.3H25.24v.57Zm-1.51.4v.67l1.49-.19v-.5Zm4.34-4.18v-.53h-4v.53Zm0,.92v-.55h-4V28Zm.86,1.84.33.14a.28.28,0,0,1-.07.09,4.43,4.43,0,0,1-1.08,1.8,4.37,4.37,0,0,0,1.6.76,2.15,2.15,0,0,0-.32.41,4.67,4.67,0,0,1-1.64-.85,5.15,5.15,0,0,1-1.53.87,1.73,1.73,0,0,0-.3-.41,4.66,4.66,0,0,0,1.47-.8,4.37,4.37,0,0,1-1-1.48l.3-.09h-.74v-.44h2.93Zm-2.08.46a3.81,3.81,0,0,0,.86,1.27,4.05,4.05,0,0,0,.87-1.27Z"/><path class="cls-1" d="M35.64,26.58h3.22v.47H32v-.47h3.15v-.77l.68.05c0,.05,0,.09-.15.11Zm2.89,3.07v2.76c0,.3-.07.47-.31.55a5.06,5.06,0,0,1-1.35.09,1.85,1.85,0,0,0-.17-.5h.82c.44,0,.49,0,.49-.16V30.12h-5.2v2.94H32.3V29.65ZM33.3,27.52h4.24v1.61H33.26ZM37,28.75v-.81H33.76v.81Zm-.09,3.58H34.34v.42h-.47v-2.1h3Zm-.47-1.26H34.34v.87h2.07Z"/><path class="cls-1" d="M40.36,27.41a4,4,0,0,1-.45,2,2.42,2.42,0,0,0-.39-.21,4.07,4.07,0,0,0,.42-1.88Zm.3-1.6.67.05c0,.05,0,.09-.15.1v7.09h-.54Zm1.2,2.53a7.18,7.18,0,0,0-.56-1.15l.36-.18a5.26,5.26,0,0,1,.58,1.1Zm2.74.1h2.18v.44H42v-.44h2.1v-.57H42.53v-.41h1.52v-.53H42.22v-.42h1.83v-.7l.71.05c0,.05,0,.09-.16.11v.54h1.9v.42H44.64v.53h1.58v.41H44.64Zm1.47,1v3.09c0,.51-.2.56-1.28.56a1.44,1.44,0,0,0-.17-.45h.57c.32,0,.36,0,.36-.13v-.69H43.13v1.23h-.49V29.41Zm-.52.42H43.13v.59h2.42Zm-2.42,1.58h2.42v-.59H43.13Z"/><path class="cls-1" d="M49.42,27.07v.87H51v.46H47.37v-.46h1.56v-.87H47.64v-.46h1.25v-.78h.64c0,.05-.05.09-.15.1v.64h1.26V27Zm.13,2.58A6.87,6.87,0,0,0,50,28.49l.55.18a.29.29,0,0,1-.16.07,7.77,7.77,0,0,1-.5,1h.93v.46H49.41v.9h1.33v.46H49.41V33.1h-.49V31.53H47.58v-.46h1.34v-.9H47.48v-.42h2.21Zm-1.28,0a4.09,4.09,0,0,0-.36-1.07l.41-.11a3.55,3.55,0,0,1,.37,1.05ZM54,29.14l.32.11a.16.16,0,0,1,0,.11,6.6,6.6,0,0,1-.86,2.39,3.38,3.38,0,0,0,1.19.9,2.34,2.34,0,0,0-.37.45,4.07,4.07,0,0,1-1.12-.91,3.91,3.91,0,0,1-.92.85,1.1,1.1,0,0,0-.36-.35,3.51,3.51,0,0,0,1-.92A6.3,6.3,0,0,1,52,29.92l.42-.11a5.89,5.89,0,0,0,.74,1.51,5.29,5.29,0,0,0,.53-1.69h-2v3.44h-.5V26.18h3v2c0,.56-.28.56-1.34.56a1.42,1.42,0,0,0-.16-.45h.55c.43,0,.46,0,.46-.13V26.67h-2v2.5h2.2Z"/><path class="cls-1" d="M61.81,27.81a.27.27,0,0,1-.13.1,8.12,8.12,0,0,1-1.63,2.54,3.64,3.64,0,0,0-.47-.28,5.5,5.5,0,0,0,1.34-1.93l-3,.78v2c0,.76.46,1,1.08,1h1.28a11.11,11.11,0,0,0,1.16-.09v.55a10.93,10.93,0,0,1-1.15.06H59c-1,0-1.64-.46-1.64-1.54V29.16l-2,.5-.13-.52,2.1-.52V26.25h.75c0,.09-.08.14-.19.15v2l3.3-.85.08-.06Z"/><path class="cls-1" d="M66.13,30.33l.28,2.42-.56.07-.27-2.44-2.94.37-.07-.52,2.94-.37-.2-1.75-2.45.32-.07-.53,2.46-.31-.17-1.54h.76c0,.08-.07.14-.18.17l.14,1.32,2.37-.31.06.53-2.37.31.21,1.74L69,29.45l.07.51Z"/><path class="cls-1" d="M75.7,31.75v.45H70.38v-.45h3.17c.13-.79.34-2.34.42-3.14H71v-.45h3.22l.38.19a.13.13,0,0,1-.1.07c-.1.82-.35,2.52-.48,3.36Z"/><path class="cls-1" d="M77.47,30.35V26.56l.74.05c0,.07-.06.12-.18.14v3.6Zm4.35-4.1c0,.08-.07.12-.19.14v2.48a3.9,3.9,0,0,1-2.8,4,1.81,1.81,0,0,0-.41-.42,3.48,3.48,0,0,0,2.65-3.58V26.21Z"/><path class="cls-1" d="M89.64,29.1h-2.5a.17.17,0,0,1-.16.09,4.22,4.22,0,0,1-2.34,3.61,3.88,3.88,0,0,0-.42-.39,3.68,3.68,0,0,0,2.25-3.31h-3v-.52h6.17Zm-.77-2.2H84.08v-.52h4.79Z"/><path class="cls-1" d="M95.89,27.86a.15.15,0,0,1-.13.06h-.11a14.8,14.8,0,0,1-1.71,1.44l.17.07a.25.25,0,0,1-.13.09V32.9H93.5V29.63a18.69,18.69,0,0,1-2.57,1.49,2.06,2.06,0,0,0-.29-.37,15.27,15.27,0,0,0,4.71-3.27Z"/><path class="cls-1" d="M104.2,28.06v.4h-7v-.4h3.22v-.5H98v-.37h2.4v-.44H97.64v-.4h2.76v-.52l.69.05c0,.05,0,.09-.15.11v.36h2.83v.4h-2.83v.46h2.51v.37h-2.51v.5Zm-4.11,4.21h-.17a13.72,13.72,0,0,1-2.38.75,3,3,0,0,0-.35-.37,9.9,9.9,0,0,0,2.34-.71Zm3.22-.38H98.18v-3h5.13ZM98.7,29.27v.48h4.08v-.52Zm0,.87v.51h4.08v-.51Zm0,.86v.53h4.08V31Zm4.94,2.06a21.33,21.33,0,0,0-2.25-.78l.43-.27a24.2,24.2,0,0,1,2.41.78Z"/><path class="cls-1" d="M106,28.59a7.59,7.59,0,0,1-1,1.33c-.07-.13-.2-.37-.28-.49a9.89,9.89,0,0,0,2-3.56l.63.21c0,.06-.08.08-.17.08a12.27,12.27,0,0,1-.75,1.65l.22.06c0,.05,0,.09-.15.1v5.09H106Zm6.17,1.16h-2.39v2.52H112v.48h-4.8v-.51h2.1V29.75h-2.35v-.51h2.35V27.15c-.65.12-1.35.23-2,.31a1.44,1.44,0,0,0-.17-.45,21.76,21.76,0,0,0,4.15-.89l.47.46h-.16a16.52,16.52,0,0,1-1.71.45h.1c0,.06,0,.1-.16.11v2.09h2.39Z"/><path class="cls-1" d="M119.83,28.87h-3a13.14,13.14,0,0,1-1.33.86h3.27V33h-.53V32.8H115v.26h-.5V30.25a16.52,16.52,0,0,1-1.55.68,2,2,0,0,0-.31-.4A15.62,15.62,0,0,0,116,28.87h-3.2v-.46h2.78V27.35h-2v-.46h2V25.81l.67.05c0,.05,0,.09-.15.11v.92h2v.27a9.65,9.65,0,0,0,.92-1l.55.32a.15.15,0,0,1-.13,0h-.08a12.08,12.08,0,0,1-1.92,1.93h2.43ZM118.2,31v-.84H115V31ZM115,32.34h3.22v-.88H115ZM116,28.41h.6a11.77,11.77,0,0,0,1.26-1.06H116Z"/><path class="cls-1" d="M120.87,26.28A5.66,5.66,0,0,1,122,29.87a5.71,5.71,0,0,1-1.14,3.6h-.53a5.82,5.82,0,0,0,1.11-3.6,5.77,5.77,0,0,0-1.11-3.59Z"/><path class="cls-1" d="M63,42.76a5.69,5.69,0,0,1-1.16-3.58A5.79,5.79,0,0,1,63,35.57h.52a5.88,5.88,0,0,0-1.11,3.62,6,6,0,0,0,1.11,3.57Z"/><path class="cls-1" d="M68,41.51a3.79,3.79,0,0,1-1.49.27,2.73,2.73,0,0,1-2.76-3,2.86,2.86,0,0,1,2.58-3.1h.36a3.24,3.24,0,0,1,1.31.24l-.18.55a2.68,2.68,0,0,0-1.12-.24,2.24,2.24,0,0,0-2.29,2.17c0,.12,0,.25,0,.37a2.17,2.17,0,0,0,1.84,2.46,1.7,1.7,0,0,0,.39,0A2.85,2.85,0,0,0,67.82,41Z"/><path class="cls-1" d="M68.91,35.75h.64v5.94h-.64Z"/><path class="cls-1" d="M73.54,36.48a2,2,0,0,0-1-.27c-.82,0-1.13.5-1.13.93,0,.59.35.88,1.15,1.22,1,.41,1.45.9,1.45,1.75a1.78,1.78,0,0,1-2,1.67,2.62,2.62,0,0,1-1.41-.38l.18-.54a2.38,2.38,0,0,0,1.27.37c.8,0,1.27-.43,1.27-1.07s-.32-.94-1.09-1.25-1.51-.86-1.51-1.68a1.65,1.65,0,0,1,1.7-1.58h.12a2.4,2.4,0,0,1,1.21.28Z"/><path class="cls-1" d="M79.74,38.66c0,2.09-1.17,3.12-2.57,3.12s-2.52-1.16-2.52-3,1.1-3.12,2.59-3.12S79.74,36.87,79.74,38.66Zm-4.41.09c0,1.26.66,2.5,1.86,2.5s1.88-1.2,1.88-2.55-.59-2.51-1.86-2.51-1.87,1.3-1.87,2.56Z"/><path class="cls-1" d="M80.45,35.57a5.55,5.55,0,0,1,1.15,3.59,5.68,5.68,0,0,1-1.15,3.6h-.53A5.87,5.87,0,0,0,81,39.16a5.78,5.78,0,0,0-1.12-3.59Z"/><path class="cls-7" d="M70.4,46.25,61.66,53a.49.49,0,0,0-.2.65.8.8,0,0,0,.15.17,2.27,2.27,0,0,0,1.42.41H67.3V71.08H63a2.27,2.27,0,0,0-1.42.41.49.49,0,0,0-.12.67.61.61,0,0,0,.17.15l8.72,6.76a2.72,2.72,0,0,0,2.73,0l8.75-6.76a.49.49,0,0,0,.19-.67.5.5,0,0,0-.14-.15,2.24,2.24,0,0,0-1.42-.41H76.19V54.24h4.28a2.3,2.3,0,0,0,1.42-.41.52.52,0,0,0,.2-.39.54.54,0,0,0-.25-.43l-8.72-6.76a2.69,2.69,0,0,0-2.74,0m1.47.4,8.72,6.76v.06H75.25V71.79h5.21a.2.2,0,0,1,.11,0v.06l-8.74,6.76a.18.18,0,0,1-.2,0l-8.72-6.76v-.06a.2.2,0,0,1,.11,0h5.2V53.47h-5.3v-.06l8.74-6.76a.18.18,0,0,1,.2,0"/><path class="cls-6" d="M71.87,46.65l8.72,6.76v.06H75.27V71.79h5.21a.2.2,0,0,1,.11,0v.06l-8.74,6.76a.18.18,0,0,1-.2,0l-8.72-6.76v-.06a.2.2,0,0,1,.11,0h5.2V53.47H62.92v-.06l8.74-6.76a.18.18,0,0,1,.2,0"/><path class="cls-7" d="M137.21,163,146,150.25a1.38,1.38,0,0,0,.06-1.53,1.69,1.69,0,0,0-1.43-.78h-3.77V114.63H130.75V148H127a1.69,1.69,0,0,0-1.43.78,1.42,1.42,0,0,0-.2.72,1.37,1.37,0,0,0,.26.81L134.48,163a1.72,1.72,0,0,0,2.75,0"/></g></g></g></g></svg>