<svg xmlns="http://www.w3.org/2000/svg" width="812.301" height="91.1" viewBox="0 0 812.301 91.1">
  <g id="グループ_1881" data-name="グループ 1881" transform="translate(-113.399 -225.9)">
    <path id="パス_1321" data-name="パス 1321" d="M25.1-55.3a27.831,27.831,0,0,0-1.4-4.4c-1.3-3.3-1.6-4.2-3.1-4.2-1.4,0-6.7,1.1-6.7,2.8a10.261,10.261,0,0,0,.4,1.4c.6,1.7,1,2.8,1.3,3.8,1,3.1,1.1,3.3,2.8,3.3a17.122,17.122,0,0,0,4.5-.9C23.9-53.8,25.1-54.1,25.1-55.3ZM71.1-42c2,0,2.8.9,2.8,2.8V-7.7c0,3.7-.3,7.5-.3,11.2,0,3,1.2,3.1,5.3,3.1,4.2,0,5.3-.1,5.3-3.1,0-3.7-.3-7.5-.3-11.2V-39.2c0-1.8.7-2.6,2.6-2.7,1.8,0,3.5.2,5.2.2,2.6,0,2.5-1.3,2.5-4.9,0-3.5.1-4.9-2.5-4.9-2.7,0-6,.2-9.2.2H68.3c-2,0-2.8-.8-2.8-2.8v-7.3c0-5,.2-5.5,3.8-5.9a114.31,114.31,0,0,0,19.1-4.2,5.019,5.019,0,0,1,1.2-.2,4.671,4.671,0,0,1,1.7.3,7.972,7.972,0,0,0,1.5.3c.7,0,1.4-.3,1.4-1.2,0-1.2-2-3.2-2.7-4.2C90.6-77.8,88.4-81,87-81a2.016,2.016,0,0,0-1.1.3c-4.7,2.5-18.2,5.2-23.7,5.8-5.4.6-6.7,1.1-6.7,5.3v27.1C55.5-28,53.3-13.7,44-2A4.8,4.8,0,0,0,42.6.5c0,1.9,6.1,4.4,7.8,4.4a2.4,2.4,0,0,0,2-1.2,52.6,52.6,0,0,0,5.9-10c4.9-10.5,6.8-21.5,7.2-33,.1-1.9.9-2.7,2.8-2.7ZM33.9-75.8c0-1.8,0-2.9,1.1-3.7.6-.5,1.2-.8,1.2-1.4,0-.8-.8-1.1-2.6-1.3-1.6-.2-7.3-.7-8.6-.7-.9,0-1.7.2-1.7,1.3v.9a25.923,25.923,0,0,1,.4,4.8c-.1,2-.9,2.7-2.8,2.7H19.2c-2.9,0-5.7-.2-8.6-.2C8.1-73.4,8.2-72,8.2-69s-.1,4.4,2.4,4.4c2.9,0,5.7-.2,8.6-.2H38.8c2.9,0,5.7.2,8.6.2,2.4,0,2.4-1.3,2.4-4.4s0-4.4-2.4-4.4c-2.9,0-5.7.2-8.6.2H36.7C34.8-73.2,34-73.9,33.9-75.8ZM19.5-24.2A77.041,77.041,0,0,1,8.2-8.4C7.6-7.8,7-7.4,7-6.5c0,2,5,5.9,6.6,5.9,1.9,0,7.9-10.2,9.1-12.2a.6.6,0,0,1,.6-.3c.5,0,.6.4.7.8v4.9c0,3.7-.3,7.5-.3,11.2,0,2.8,1.1,2.8,5.1,2.8s5,0,5-2.8c0-3.8-.2-7.5-.2-11.2v-6.5c0-.5.2-1,.7-1,.3,0,.5.2.8.4.9,1.3,4.4,6.4,5.9,6.4,1.8,0,5.3-4.7,5.3-6.4,0-.7-.4-1-.9-1.4a64.475,64.475,0,0,1-7.9-8.6,1.4,1.4,0,0,1-.3-.9c0-.9.7-1.2,1.5-1.2,2.7,0,5.5.2,8.3.2,2.5,0,2.4-1.3,2.4-4.6s.1-4.7-2.4-4.7c-3.2,0-6.4.3-9.7.3h-.9c-1.4,0-2.7-.7-2.7-2.3a1.8,1.8,0,0,1,.9-1.6c.7-.5,1.1-.7,1.1-1.3,0-1.1-1.6-1.2-2.4-1.2-1.8-.1-6.3-.4-8-.4-.7,0-1.7,0-1.7,1.2a2.483,2.483,0,0,0,.1.9,14.919,14.919,0,0,1,.2,2.1c0,1.8-1,2.6-2.7,2.6H19.9c-3.3,0-6.5-.3-9.7-.3-2.5,0-2.4,1.2-2.4,4.7,0,3.4-.1,4.6,2.4,4.6,2.1,0,5.6-.2,7.8-.2.9.1,1.7.4,1.7,1.4A3.553,3.553,0,0,1,19.5-24.2ZM18.4-51.8c-3.5,0-7-.2-10.5-.2-2.5,0-2.5,1.2-2.5,4.4,0,3.1-.1,4.4,2.5,4.4,3.5,0,7-.2,10.5-.2H39.1c3.4,0,6.9.2,10.4.2,2.6,0,2.5-1.1,2.5-4.4,0-3.1.1-4.4-2.4-4.4-.6,0-6,.2-6.7.2-1-.1-1.8-.4-1.8-1.5A36.7,36.7,0,0,1,43-58.1a2.037,2.037,0,0,1,1.4-1.3c.5-.2,1.3-.5,1.3-1.2,0-1.4-7.6-3.4-9-3.4-.9,0-1,.7-1.2,1.4A49.658,49.658,0,0,1,32.1-54c-1,1.8-1.9,2.2-3.9,2.2ZM163.8-62.6c.8,0,1.6.3,1.6,1.3a1.613,1.613,0,0,1-.3.9A109.877,109.877,0,0,1,143.9-38c-.7.6-2.2,1.7-2.2,2.6,0,.8.9,1.7,1.4,2.2a4.352,4.352,0,0,1,1.3,2.5,19.527,19.527,0,0,1,.2,2.3c.1,2-.8,2.7-2.7,2.7H120.6c-4.1,0-8.3-.2-12.4-.2-2.4,0-2.4,1.2-2.4,5,0,3.7-.1,5,2.4,5,4.1,0,8.3-.3,12.4-.3h21.3c2,0,2.8.8,2.8,2.8v7.1c0,3.5-.2,6.8-.2,9.8,0,3.3,1.6,3.2,5.7,3.2,4.2,0,5.2-.2,5.2-3.3,0-3.2-.2-6.5-.2-9.7v-7.1c0-2,.8-2.8,2.7-2.8h21.7c4.2,0,8.3.3,12.4.3,2.5,0,2.4-1.3,2.4-5,0-3.8.1-5-2.4-5-4.1,0-8.2.2-12.4.2H158c-1.8,0-2.7-.7-2.7-2.6a2.512,2.512,0,0,1,1-2.1c.7-.5,1.2-.8,1.2-1.4,0-1.2-1.6-1.3-2.4-1.4-.4,0-.9-.2-.9-.7a1.374,1.374,0,0,1,.5-.8c3.3-3,5.6-5.2,8.7-8.4a2.289,2.289,0,0,1,1.7-.8,2.227,2.227,0,0,1,1.7.9c2,2.2,12.4,13.4,14.8,13.4,1.5,0,6.6-4.4,6.6-6,0-.9-1.2-1.8-1.8-2.3a100.744,100.744,0,0,1-13.5-12.6,3.227,3.227,0,0,1-.8-2.1,3.553,3.553,0,0,1,.8-2c.4-.6.7-1,1-1.4,1-1.4,1.2-1.8,2.5-1.9.6,0,1.7-.2,1.7-1.1s-1.8-1.6-3.8-2.5c-.1-.1-.5-.4-.5-.6,0-.4.3-.5.6-.5H177c3.9,0,7.8.2,11.8.2,2.4,0,2.4-1.1,2.4-4.8,0-3.8.1-5-2.4-5-4,0-7.9.2-11.8.2H157.9c-1.9,0-2.7-.7-2.7-2.7v-1.7c0-1.6.1-2.6,1.1-3.3.7-.5,1.2-.7,1.2-1.3,0-1.3-1.8-1.3-2.7-1.4-1.9-.2-6.8-.7-8.5-.7-1,0-1.9.2-1.9,1.4,0,.3.1.9.1,1.2a56.554,56.554,0,0,1,.4,5.7c-.1,2-.9,2.8-2.8,2.8H123.4c-3.9,0-7.9-.2-11.8-.2-2.5,0-2.4,1.2-2.4,5,0,3.7,0,4.8,2.4,4.8,3.9,0,7.9-.2,11.8-.2h4c.8,0,1.6.3,1.6,1.3a1.689,1.689,0,0,1-.3,1,112.013,112.013,0,0,1-19.2,21.5c-.7.5-2.2,1.7-2.2,2.6,0,1.6,4.8,5.7,6.6,5.7a4.723,4.723,0,0,0,2.7-1.4c3-2.6,8-7.7,10.7-10.7a2.43,2.43,0,0,1,1.8-.9,2.616,2.616,0,0,1,1.8.9c1.1,1.3,6.2,6.6,7.8,6.6,1.7,0,6.4-4.6,6.4-6.4,0-.7-.7-1.1-1.2-1.6a84.159,84.159,0,0,1-7.1-6.3,2.665,2.665,0,0,1-.9-2,3.157,3.157,0,0,1,.7-1.9c.5-.7.8-1.2,1.1-1.7,1-1.5,1.3-1.9,2.6-2,.6-.1,1.4-.2,1.4-1,0-.9-1.4-1.6-3-2.3-.3-.1-1.3-.5-1.3-.9s.3-.5.6-.5Zm106,9c0-1.5-1.3-6.6-1.7-8.4-1.3-5.4-1.6-7.8-3.9-7.8-.8,0-6.9.6-6.9,2.7a8.468,8.468,0,0,0,.4,1.7,86.729,86.729,0,0,1,2.8,12c.2,1.3.3,2.6,2.7,2.6C265-50.8,269.8-51.3,269.8-53.6Zm14.1-17.8c-.8,0-1.1.9-1.3,1.6-1.6,5.9-4.7,11.5-7.7,16.8a3.672,3.672,0,0,0-.9,2c0,1.7,5.5,3.8,6.9,3.8,1.1,0,1.6-1,2.1-1.8a115.3,115.3,0,0,0,7.7-15.8,2.1,2.1,0,0,1,1.3-1.3c.5-.1,1.7-.3,1.7-1.1,0-1-1.3-1.5-2-1.7C290.3-69.3,284.8-71.4,283.9-71.4Zm-31,20.3c0-1.3-2.2-7.5-2.8-9.1-1.9-5.3-2.9-7.3-4.4-7.3-.9,0-6.4,1.4-6.4,3.6a4.939,4.939,0,0,0,.5,1.6c1.1,2.4,2.7,6.4,3.5,8.9,1.3,4.3,1.4,5.6,3.2,5.6C247.4-47.8,252.9-48.9,252.9-51.1Zm39.8-24.3c0-.9-1.2-2.2-1.7-2.8-.6-.7-1.1-1.5-1.7-2.3-1.3-1.8-2.5-3.5-3.5-3.5a3.708,3.708,0,0,0-1.4.4c-10.4,3.6-31.3,5.3-42.5,5.4-2.1,0-4-.2-4,1.8a15.047,15.047,0,0,0,1.1,5.1c.6,1.2,1,2.1,2.8,2.1,15.1-.4,30.5-1.9,45.2-5.7a11.27,11.27,0,0,1,1.8-.3,4.19,4.19,0,0,1,1.5.4,4.962,4.962,0,0,0,1.3.3A1.009,1.009,0,0,0,292.7-75.4Zm-11.3,46c3.5,0,7.1.2,10.1.2,2.4,0,2.3-1.2,2.3-4.9,0-3.5.1-4.7-2.3-4.7-3.4,0-6.7.2-10.1.2H270.9c-1.9,0-2.8-.7-2.8-2.7v-1c0-1.6.1-2.6,1.2-3.4.7-.5,1.4-.8,1.4-1.4,0-1.1-1.7-1.2-2.5-1.3-1.9-.2-6.7-.6-8.4-.6-.9,0-1.8.2-1.8,1.3,0,.3.1.6.1.9a34.434,34.434,0,0,1,.3,5.5c-.1,2-.8,2.7-2.8,2.7h-7.1c-3,0-5.9,0-8.9-.2-1.5-.1-2.1-.7-2.3-2.3-.2-1.1-.3-3.4-1.9-3.4a48.6,48.6,0,0,0-5.7,2.3,2.354,2.354,0,0,1-.8.2c-1.2,0-1.5-.9-1.6-1.9v-9.6c0-1.9.6-2.6,2.5-2.8.9,0,4.6.2,5.2.2,2.1,0,2-1.3,2-5,0-3.4.1-4.7-2-4.7-.2,0-4.6.1-5.2.2-1.9-.2-2.5-1-2.5-2.8v-6.8c0-2.8.1-4.1,1.1-4.7.7-.5,1.4-.8,1.4-1.6,0-1.2-1.6-1.3-2.5-1.4-1.9-.1-6.6-.4-8.2-.4-1.1,0-2,.1-2,1.4,0,.3.1.7.1.9a67.806,67.806,0,0,1,.3,7.8v4.8c0,1.9-.8,2.8-2.8,2.8-2.2.1-4.7-.2-6.3-.2-2.3,0-2.1,1.5-2.1,4.9,0,3.3-.2,4.8,2.1,4.8,1.8,0,4.2-.3,6.3-.2,2,0,2.8.8,2.8,2.8v13.1c0,2-.5,2.8-2.5,3.5a85.579,85.579,0,0,1-8.3,2.3c-1.1.3-2.7.4-2.7,1.6,0,.8,1.7,6.3,2,7.4.6,1.9.9,3.6,2.2,3.6,1,0,1.3-1.2,1.6-2,.3-.9.7-1,2.9-1.8a8.507,8.507,0,0,1,3.1-.9c1.2,0,1.7.9,1.7,2v13.8c0,4.9.2,6.5-4.1,6.5-1.4,0-2.8-.2-4.1-.2-1.8,0-2.3,1-2.3,2.6,0,8.3,3,8,5.6,8,11.3,0,14.8-2.8,14.8-10.9,0-2.1-.1-4.3-.1-6.4V-28.7c0-2.1.5-2.9,2.4-3.8,1.4-.7,2.9-1.3,4.3-2a2.354,2.354,0,0,1,.8-.2c.8,0,1.2.7,1.3,1.4,0,2.9-.1,4.1,2.4,4.1,2.8,0,6.5-.2,10-.2h.7c.8,0,1.6.3,1.6,1.3a1.613,1.613,0,0,1-.3.9A91.051,91.051,0,0,1,231.4-7.1c-.6.5-1.5,1.1-1.5,2,0,1.8,4,6.7,5.7,6.7,1,0,2.2-1.1,2.9-1.7A96.851,96.851,0,0,0,257-20.5a.755.755,0,0,1,.7-.4c.5,0,.7.4.7.9V-7.9c0,3.8-.2,7.5-.2,11.3,0,3.1,1.1,3.2,5.2,3.2,3.9,0,4.9-.1,4.9-3.2,0-3.8-.2-7.5-.2-11.3V-19.6c0-.5.2-1,.7-1a1.039,1.039,0,0,1,.8.4A132.121,132.121,0,0,0,283.4-3.3c1,1,3.7,4,5.1,4,1.7,0,6.3-4.2,6.3-6.1,0-.9-.9-1.6-1.5-2.1a138.376,138.376,0,0,1-17.8-19.7,1.929,1.929,0,0,1-.3-1c0-.9.8-1.2,1.5-1.2Zm73.9-15.5a2.862,2.862,0,0,1,2.8-2.8h17.6c1.7.2,2.7,1.1,2.7,2.8v7.8c0,1.7-1,2.6-2.7,2.8H358.1a2.862,2.862,0,0,1-2.8-2.8Zm-13.1-2.8c2,0,2.8.8,2.8,2.8v7.8c0,2-.8,2.8-2.8,2.8H327.7c-1.9,0-2.6-.8-2.7-2.7.1-2.2.1-4.5.1-6.7v-1.2c0-2,.8-2.8,2.8-2.8ZM358.1-57a2.862,2.862,0,0,1-2.8-2.8v-7.6a2.8,2.8,0,0,1,2.8-2.8h17.6c1.7.2,2.7,1,2.7,2.8v7.6c0,1.7-1,2.6-2.7,2.8ZM345-59.8a2.8,2.8,0,0,1-2.8,2.8H327.9a2.862,2.862,0,0,1-2.8-2.8v-7.6a2.8,2.8,0,0,1,2.8-2.8h14.3a2.734,2.734,0,0,1,2.8,2.8Zm-2.8,34.7c2,0,2.8.8,2.8,2.7v8.7c0,4.9-.2,9.8-.2,14.7,0,3.1,1.1,3.2,5.4,3.2s5.4-.1,5.4-3.2c0-4.9-.3-9.8-.3-14.7v-8.7c0-1.9.8-2.7,2.8-2.7h17.6c1.9,0,2.7.8,2.7,2.7v12.1c0,5-.2,6-5,6-1.6,0-3.1-.2-4.7-.2-1.8,0-2.2,1-2.2,2.6,0,8.3,4,8,5.8,8,4.2,0,9.7-.1,13.2-2.7,3-2.3,3.4-6,3.4-9.5,0-2.5-.2-5.1-.2-7.6V-65.4c0-3.2.1-6.3.1-9.5,0-4.1-1.6-5.2-5.6-5.2-2.8,0-5.7.2-8.6.2H328.9c-2.9,0-5.7-.2-8.6-.2-4,0-5.6,1.2-5.6,5.2,0,3.2.2,6.3.2,9.5v21.1c0,15.8-.6,29.2-9.6,42.9a3.287,3.287,0,0,0-.7,1.6c0,2,5.2,5.7,7,5.7,1.5,0,2.5-1.4,3.3-2.5,5.2-7.7,7.8-16.8,9-25.9.3-2,1.2-2.6,3.1-2.6Zm222-16.7a2.232,2.232,0,0,1,2.3,2.4v.2a2.232,2.232,0,0,1-2.3,2.4h-12a2.257,2.257,0,0,1-2.4-2.4v-.2a2.257,2.257,0,0,1,2.4-2.4Zm.4-11.5a1.736,1.736,0,0,1,1.9,1.9v1.1a1.736,1.736,0,0,1-1.9,1.9H551.7a1.736,1.736,0,0,1-1.9-1.9v-1.1a1.736,1.736,0,0,1,1.9-1.9Zm-.4-11.6a2.232,2.232,0,0,1,2.3,2.4v.3a2.232,2.232,0,0,1-2.3,2.4h-12a2.257,2.257,0,0,1-2.4-2.4v-.3a2.257,2.257,0,0,1,2.4-2.4Zm12.3,2.4c0-1.7.7-2.4,2.3-2.4h13.9c3.8,0,7.5.2,11.3.2,2.3,0,2.4-.7,2.4-3.5,0-2.9-.1-3.6-2.4-3.6-3.8,0-7.5.2-11.3.2h-12c-.9-.1-1.6-.4-1.6-1.4a1.486,1.486,0,0,1,.2-.9c.5-.8,1.7-3.2,2.1-3.8a2.322,2.322,0,0,1,1.9-.9c.5-.1,1.2-.2,1.2-1.1,0-1-1.7-1.5-2.5-1.7-1.4-.5-7.3-2.4-8.4-2.4a1.3,1.3,0,0,0-1.2,1,89.892,89.892,0,0,1-3.8,9c-1,1.8-2,2.2-4,2.2h-9.9c-.8-.1-1.6-.3-1.6-1.3a1.689,1.689,0,0,1,.3-1c.7-1.1,1.2-2,1.6-2.7,1.1-1.9,1.3-2.3,2.8-2.7.6-.1,1.3-.5,1.3-1.2,0-.9-1-1.2-3.1-1.8-2-.5-5.8-1.8-7.3-1.8-.8,0-1.1.7-1.4,1.3-3.7,8.2-11.6,18.9-18.2,24.9-.5.4-1.6,1.4-1.6,2.1,0,1.6,3.9,6,5.4,6,1.4,0,4.3-3.3,5.3-4.4a1.489,1.489,0,0,1,.9-.4c.7,0,.9.6.9,1.2v12.6c0,2.3-.1,4.6-.1,6.9,0,3.6,2.1,4,5.2,4,2.6,0,5.2-.1,7.7-.1h10.7c1.7,0,2.1.8,2.4,2.4,0,.4.1.7.1,1.1,0,1.9-.8,2.6-2.6,2.6H541.5c-3.9,0-7.9-.2-11.9-.2-2.3,0-2.3.9-2.3,4.2s0,4.2,2.3,4.2c4,0,8-.2,11.9-.2h12.6c.4.1,1,.2,1,.8a.891.891,0,0,1-.5.8A103.431,103.431,0,0,1,530.2-3.2a3.091,3.091,0,0,1-.8.2c-1.4.5-2.3.7-2.3,1.9,0,1.6,3,6.5,5.2,6.5,1.6,0,4.1-1,5.7-1.6,9.4-3.8,18.2-8.4,26.1-14.9a1.689,1.689,0,0,1,1-.3c.8,0,1,.7,1.1,1.4v4.8c0,2.9-.2,5.8-.2,8.6,0,3.3,1.5,3.2,5.4,3.2,3.8,0,5.2,0,5.2-3.2,0-2.9-.3-5.7-.3-8.6v-5c.1-.7.3-1.4,1.1-1.4a1.489,1.489,0,0,1,.9.4A99.047,99.047,0,0,0,595.2,0c2.5,1.4,11.7,5.9,14,5.9,2.6,0,5.8-5.2,5.8-6.8,0-.9-.8-1.2-1.5-1.4a102.418,102.418,0,0,1-26-12,.824.824,0,0,1-.5-.8c0-.6.6-.7,1-.8h13.2c4,0,8,.2,11.9.2,2.4,0,2.4-.9,2.4-4.2,0-3.2,0-4.2-2.4-4.2-3.9,0-7.9.2-11.9.2H578.5c-.9,0-1.9-.3-1.9-1.4a2.062,2.062,0,0,1,1-1.7c.8-.5,1.4-.8,1.4-1.4,0-.8-.7-1.2-2.6-1.3a.215.215,0,0,1-.2-.2c0-.1.1-.1.2-.1h21.2c3.9,0,7.7.1,11.5.1,2.2,0,2.3-.7,2.3-3.5,0-2.9-.1-3.6-2.4-3.6-3.8,0-7.6.2-11.4.2H578.8c-1.6,0-2.3-.7-2.3-2.4v-.2c0-1.7.7-2.4,2.3-2.4h9.6c3.7,0,7.3.2,11,.2,2.4,0,2.4-.8,2.4-3.5,0-2.8-.1-3.5-2.4-3.5-3.7,0-7.3.2-11,.2H578.3c-1.3,0-1.8-.5-1.8-1.9v-1.1c0-1.4.5-1.9,1.9-1.9h10.1c3.6,0,7.2.2,10.9.2,2.3,0,2.4-.6,2.4-3.5,0-2.8-.1-3.4-2.4-3.4-3.7,0-7.3.2-10.9.2h-9.7c-1.6,0-2.3-.7-2.3-2.4Zm98-9.8a2.311,2.311,0,0,1,2.4,2.4v1a2.311,2.311,0,0,1-2.4,2.4h-5.4a2.311,2.311,0,0,1-2.4-2.4v-1a2.311,2.311,0,0,1,2.4-2.4Zm-17,19.8a2.862,2.862,0,0,1-2.8,2.8h-4.8a2.862,2.862,0,0,1-2.8-2.8v-3.3a2.8,2.8,0,0,1,2.8-2.8h4.8a2.8,2.8,0,0,1,2.8,2.8Zm19.4,0a2.862,2.862,0,0,1-2.8,2.8h-4.6a2.862,2.862,0,0,1-2.8-2.8v-3.3a2.8,2.8,0,0,1,2.8-2.8h4.6a2.8,2.8,0,0,1,2.8,2.8Zm20.2,0c0,1.7-1,2.6-2.7,2.8H689c-1.8-.2-2.8-1.1-2.8-2.8v-3.3a2.734,2.734,0,0,1,2.8-2.8h5.4c1.7.2,2.7,1,2.7,2.8ZM673.8-15.1c-4.2-1.2-8.4-2.4-12.6-3.5-.7-.3-1.4-.6-1.4-1.5a1.656,1.656,0,0,1,.5-1.2,22.683,22.683,0,0,1,1.8-2.5,3.6,3.6,0,0,1,3.5-1.7h16.2c.9.1,1.9.4,1.9,1.5a1.613,1.613,0,0,1-.3.9,32.043,32.043,0,0,1-5.2,6.9,3.721,3.721,0,0,1-2.8,1.3A9.971,9.971,0,0,1,673.8-15.1Zm-3-20.9c.3-.4.5-.8.7-1.1.7-1.1.9-1.4,2.1-1.6.7-.1,2-.3,2-1.2s-1.1-1.4-1.8-1.6a.215.215,0,0,1-.2-.2c0-.1.2-.2.3-.2h21.2a3.848,3.848,0,0,1,2.4,1.7c.6.6,2.3.7,3.6.7h.8c3.7,0,4.9,0,4.9-2.6,0-1.8-.2-3.6-.2-5.4v-8.7c0-2.1.2-4.2.2-6.3,0-3.6-2.3-4.1-5.3-4.1-2.9,0-5.8.1-8.6.1h-4.4c-1.6,0-2.3-.7-2.3-2.4v-1c0-1.7.7-2.4,2.3-2.4h12.1c4,0,7.9.2,11.9.2,2.2,0,2.1-1.1,2.1-4.1s.1-4.2-2.1-4.2c-4,0-7.9.2-11.9.2H643.8c-4,0-8-.2-11.9-.2-2.1,0-2.1,1.1-2.1,4.2,0,3-.1,4.1,2.1,4.1,3.9,0,7.9-.2,11.9-.2h11.3c1.7,0,2.4.7,2.4,2.4v1c0,1.7-.7,2.4-2.4,2.4h-3.7c-2.9,0-5.9-.1-8.8-.1-3,0-5.3.5-5.3,4,0,2,.2,4,.2,6.4v8.7c0,1.9-.3,3.7-.3,5.6,0,2.5,1.7,2.4,5.1,2.4h1.4c1.2,0,2.6-.1,3.2-.7.6-.7,1.2-1.6,2.3-1.7H660c.9.1,1.7.4,1.7,1.4a1.4,1.4,0,0,1-.3.9c-.8,1.2-1.6,2.5-2.4,3.7-1.3,1.8-2,2.1-4.1,2.1H641c-3.6,0-7.1-.2-10.7-.2-2.4,0-2.3,1-2.3,4.4,0,3.2-.1,4.3,2.3,4.3,3.6,0,7.1-.2,10.7-.2h7.7c.8.1,1.5.3,1.5,1.2a1.4,1.4,0,0,1-.3.9c-2.5,3.2-5,6.2-7.7,9.1-.6.6-1.7,1.6-1.7,2.5,0,2.1,6.4,3.7,7.6,3.7,1.3,0,2.3-1.3,3.2-2.2a3.646,3.646,0,0,1,2.9-1.5,6.882,6.882,0,0,1,1.3.2l8.4,2.4a.849.849,0,0,1,.7.8,1.013,1.013,0,0,1-.6.9,97.869,97.869,0,0,1-26.3,4.4c-4.1.2-5-.1-5,2.1A14.217,14.217,0,0,0,634,4c.7,1.7,1.4,2.4,3.3,2.4,1.2,0,2.7-.2,3.9-.3,10.8-1,25.2-4,34.5-9.4a4.627,4.627,0,0,1,2.5-.8,6.456,6.456,0,0,1,1.9.4c7.3,2.8,14.6,5.9,21.6,9.4a12.129,12.129,0,0,0,3,1.1c2.7,0,4.9-4.8,4.9-7.1,0-1.3-1-1.8-3.1-2.8-5.8-2.9-11.9-5-17.9-7.3a1.6,1.6,0,0,1-1.3-1.5,2.232,2.232,0,0,1,.6-1.3,56.7,56.7,0,0,0,5-6.8,2.779,2.779,0,0,1,1.2-1.2l1.1-.3c.7-.2,1.7-.4,1.7-1.3,0-1-1.7-1.5-2.8-2a.451.451,0,0,1-.3-.3c0-.3.2-.4.5-.4H703c3.6,0,7.1.2,10.7.2,2.4,0,2.3-1,2.3-4.3,0-3.4.1-4.4-2.3-4.4-3.6,0-7.1.2-10.7.2H672c-.8-.1-1.5-.3-1.5-1.3A1.613,1.613,0,0,1,670.8-36ZM784.1-4.8c0-.7-1.1-1.9-1.6-2.4a3.19,3.19,0,0,0-.6-.7c-1.2-1.4-3.4-4-4.5-4a2.349,2.349,0,0,0-1.4.7c-3.2,2.9-15.6,7.7-20.1,9-.7.2-1.6.4-1.6,1.5,0,1.2,2.8,6.7,5,6.7,3.5,0,17.1-6.9,20.4-9.1a5.069,5.069,0,0,1,1.8-.9h.7a1.7,1.7,0,0,0,.7.1C783.5-3.9,784.1-4.2,784.1-4.8ZM817.7-.3c0-.8-.8-1.1-1.5-1.4A74.311,74.311,0,0,1,800-10.9a3.52,3.52,0,0,0-1.9-1c-2,0-5.6,4.8-5.6,5.9,0,2.4,17.3,12.4,19.7,12.4C814.4,6.4,817.7,1.7,817.7-.3ZM777.1-25.1c0-1.7,1-2.6,2.7-2.8h17.8c1.7.2,2.7,1.1,2.7,2.8v1a2.472,2.472,0,0,1-2.7,2.7H779.8a2.472,2.472,0,0,1-2.7-2.7Zm0-13.7a2.232,2.232,0,0,1,2.3-2.4H798a2.232,2.232,0,0,1,2.3,2.4v1.1a2.232,2.232,0,0,1-2.3,2.4H779.4a2.232,2.232,0,0,1-2.3-2.4ZM798-54.9a2.232,2.232,0,0,1,2.3,2.4v1.4a2.232,2.232,0,0,1-2.3,2.4H779.4a2.232,2.232,0,0,1-2.3-2.4v-1.4a2.232,2.232,0,0,1,2.3-2.4Zm-6.5-8.6c-.8-.1-1.7-.4-1.7-1.5a1.613,1.613,0,0,1,.3-.9c.5-1.1,1.1-2.1,1.6-3.1,1-1.8,1.7-2.3,3.8-2.3h7.6c3.6,0,7.2.2,10.8.2,2.2,0,2.2-1.1,2.2-4.6s.1-4.7-2.2-4.7c-3.6,0-7.2.2-10.8.2H775.5c-3.6,0-7.2-.2-10.8-.2-2.3,0-2.2,1.2-2.2,4.7s-.1,4.6,2.2,4.6c3.6,0,7.2-.2,10.8-.2h3.8c.9,0,1.8.3,1.8,1.4a1.69,1.69,0,0,1-.3,1c-.6,1.1-1.2,2.2-1.8,3.2-1.2,1.7-1.9,2.2-3.9,2.1-1.2,0-2.4-.1-3.7-.1-3.3,0-4.7,1-4.7,4.5,0,2.5.1,4.9.1,7.4v27.3c0,2.5-.1,5-.1,7.5,0,3.5,1.5,4.4,4.8,4.4,2.4,0,4.8-.1,7.2-.1h20c2.5,0,4.9.1,7.3.1,3.3,0,4.7-1,4.7-4.4,0-2.5-.1-5-.1-7.5V-51.8c0-2.5.1-5,.1-7.5,0-3.5-1.5-4.4-4.8-4.4-2.4,0-4.8.2-7.2.2Zm-41.1,8.3c0-2,.8-2.7,2.7-2.8,2.6.1,5.3.2,7.9.2,2.2,0,2.1-1.2,2.1-4.7s.2-4.9-2.1-4.9c-3.1,0-6.1.2-9.1.2H739.2c-3.1,0-6.2-.2-9.1-.2-2.3,0-2.2,1.3-2.2,4.9,0,3.5-.1,4.7,2.2,4.7,2.7,0,5.4-.3,8.1-.2,1.9,0,2.7.9,2.7,2.8v27.3c0,2-.5,2.9-2.4,3.5-3,1-5.2,1.5-6.9,1.9-4.1,1.1-5,1.3-5,2.4a11.329,11.329,0,0,0,.9,2.8c.4,1,.8,2,1.1,2.8,1,2.6,1.5,3.9,2.6,3.9.7,0,1-.5,1.2-1.1.4-1.2.6-1.2,2.2-1.7a284.3,284.3,0,0,0,26.8-9.5c1.6-.7,2.5-1.3,2.5-3.6,0-1.3-.2-5.8-2-5.8-.4,0-5,1.7-7.5,2.7-.6.2-1.2.4-1.4.5a2.92,2.92,0,0,1-.9.2c-1.2,0-1.6-1-1.7-2.1Z" transform="translate(108 310)" fill="#396cae"/>
    <path id="パス_1320" data-name="パス 1320" d="M489.4-48.9a1.577,1.577,0,0,1,1.6,1.6v.7a1.645,1.645,0,0,1-1.6,1.6H454c-1-.1-1.6-.6-1.6-1.6v-.7a1.472,1.472,0,0,1,1.6-1.6Zm1.6-7.3a1.577,1.577,0,0,1-1.6,1.6H454a1.472,1.472,0,0,1-1.6-1.6v-.5a1.446,1.446,0,0,1,1.6-1.5h35.4a1.558,1.558,0,0,1,1.6,1.5ZM477.7-70c1.8,0,2.6.7,2.6,2.6v.7c0,1.3-.5,2-1.9,2H464.5c-1.1-.1-1.3-.7-1.3-1.7a3.751,3.751,0,0,0-.1-1c.1-1.9.8-2.6,2.7-2.6Zm9.2,49.9c-2.3.1-4.5.1-6.8.1h-4c-1.2,0-2.2-.2-2.2-1.6a1.335,1.335,0,0,1,.9-1.4c.6-.3,1.3-.7,1.3-1.4,0-.9-1-.9-2.3-1-1.7-.2-6.5-.6-8-.6-1.2,0-1.5.5-1.5,1.5,0,.7.1,1.3.1,1.9,0,2-1.1,2.6-2.8,2.6h-6.1c-.8-.1-1.1-.5-1.1-.9s.2-.6.5-.9c1.4-1.2,2.8-2.4,4.1-3.6a5.269,5.269,0,0,1,4.4-1.7h16.3c2.1,0,2.9.2,4.4,1.7,1.2,1.2,2.3,2.4,3.5,3.5.2.3.4.5.4.8C488-20.4,487.4-20.2,486.9-20.1Zm-26,10.3C457-5.5,450-3.1,444.3-2.3c-1.3.2-2.6.3-2.6,1.7s2.3,7,4.9,7c1.9,0,7.2-1.8,9.1-2.6,6.8-2.8,12-6.7,15.3-13.4.9-1.8,1.7-2.4,3.8-2.4h6c3.2,0,4.3-.1,4.3,1.8a18.932,18.932,0,0,1-.9,5.2c-1,3-2.5,3.3-5.4,3.3-1.7,0-3.3-.2-5-.2-1.8,0-2.1,1.1-2.1,2.7a11.351,11.351,0,0,0,1.2,4.8C473.7,7,476,7,478,7c12.5,0,15.3-2,17.1-20.1.2-.7.5-1.5,1.4-1.5a1.689,1.689,0,0,1,1,.3c2.4,1.5,11.5,7.2,13.9,7.2,1.9,0,5.2-5.4,5.2-6.7,0-1-1.1-1.4-1.9-1.7a85.921,85.921,0,0,1-18.4-9.9,1.086,1.086,0,0,1-.4-.9c0-.6.6-.8,1.1-.8h4.7c4,0,8,.2,12,.2,2.3,0,2.3-.9,2.3-4,0-3,0-3.8-2.3-3.8-4,0-8,.2-12,.2H468.5c-.5-.1-.9-.2-.9-.7a.764.764,0,0,1,.2-.5,2.925,2.925,0,0,1,1.2-.7c.6,0,1.4-.2,1.4-.9s-1-1-1.5-1.2c-.2-.1-.1-.3.1-.3h19.4c2.7,0,5.3.2,7.9.2,2.7,0,4.6-.6,4.6-3.7,0-1.6-.1-3.2-.1-5.2V-56c0-1.9.1-3.6.1-5.2,0-3.2-2.1-3.7-4.8-3.7-.9,0-1.8.1-2.7.1-1.9.1-2.9-.5-2.9-2.5,0-1.9.8-2.7,2.6-2.7h8.7c3.9,0,7.9.2,11.8.2,2.3,0,2.3-.9,2.3-4s.1-4-2.3-4c-3.9,0-7.9.2-11.8.2h-9.4c-.9-.1-1.8-.2-2-1.3a4.169,4.169,0,0,1,.2-.6l.1-.2c.2-.4.4-.5.8-.8.5-.3,1.1-.6,1.1-1.1,0-.9-1.1-1-1.7-1.1-1.9-.1-7.5-.6-9.2-.6-.8,0-1.6.1-1.6,1.1a1.95,1.95,0,0,0,.1.8,7.568,7.568,0,0,1,.1,1.5c.1,1.6-.6,2.3-2.2,2.3H465.2c-1-.1-1.9-.2-2.1-1.3,0-.3.1-.4.1-.6l.1-.2a1.765,1.765,0,0,1,.9-.8c.7-.5,1-.7,1-1.2,0-1-1.6-1-2.3-1.1-1.9-.2-6.8-.6-8.5-.6-.8,0-1.6.1-1.6,1.2,0,.2.2,1.9.2,2.4,0,1.6-.7,2.2-2.2,2.2h-9c-3.9,0-7.8-.2-11.8-.2-2.3,0-2.3.9-2.3,4s0,4,2.3,4c4,0,7.9-.2,11.8-.2h8.9c1.6,0,2.3.6,2.3,2.2-.1,1.6,0,3-2,3h-.5c-1.2,0-2.3-.1-3.4-.1-2.8,0-4.7.6-4.7,3.8,0,1.7.2,3.4.2,5.1v8.5c0,1.7-.2,3.4-.2,5.1,0,3.3,2,3.8,4.8,3.8,2.6,0,5.1-.2,7.7-.2h1.3c.7.1,1.5.3,1.5,1.3a1.33,1.33,0,0,1-.3.8c-.2.3-.5.6-.7.9a3.1,3.1,0,0,1-2.9,1.3H442c-4,0-8-.2-12-.2-2.4,0-2.4.8-2.4,3.8,0,3.1,0,4,2.3,4,4,0,8-.2,12.1-.2h3.2c.4,0,1,.2,1,.8a.812.812,0,0,1-.4.8,66.332,66.332,0,0,1-16.1,8.8c-.8.3-2.4.8-2.4,1.9,0,1.7,2.9,6.8,4.7,6.8,2.3,0,11.1-5.3,13.4-6.8.2-.1.3-.2.5-.2.5,0,.7.5.7.9.1,1.6.4,2.3,2.2,2.3,3.2,0,6.4-.2,9.6-.2h1.2c.8,0,1.7.3,1.7,1.3A1.489,1.489,0,0,1,460.9-9.8Z" transform="translate(108 310)" fill="#ff1901"/>
  </g>
</svg>
