<svg xmlns="http://www.w3.org/2000/svg" width="700.379" height="517.362" viewBox="0 0 700.379 517.362">
  <path id="パス_1324" data-name="パス 1324" d="M101.716-147.79l7.592-1.664a7.956,7.956,0,0,1,4.68,1.248q1.768,1.248,1.768,2.34a14.272,14.272,0,0,1-.52,3.172q-.52,2.08-8.424,40.562T95.268-44.722q17.681-24.025,41.29-59.178t27.561-46.7a14.448,14.448,0,0,1,3.224-5.616,8.038,8.038,0,0,1,3.536-2.34,22.913,22.913,0,0,1,4.784-.364,25.857,25.857,0,0,1,7.644,1.4q4.42,1.4,4.42,4.628,0,6.136-18.2,35.361t-41.55,62.09q-23.349,32.865-39.053,52A8.518,8.518,0,0,1,82.111,0a27.827,27.827,0,0,1-8.424-1.4q-4.42-1.4-4.42-4.94,0-11.44,20.073-109.932Q72.179-94.02,47.634-54.29,22.049-13.208,18.721-3.328,16.849,2.6,14.457,3.536a8.726,8.726,0,0,1-3.536.728L2.7,5.2a7.809,7.809,0,0,1-4.42-1.352Q-3.744,2.5-3.744,1.04q0-4.16,11.492-24.857T34.581-68.8q15.341-24.285,32.085-47.27t25.9-30.889a6.24,6.24,0,0,1,4.264-1.664ZM215.808-77.795a16.055,16.055,0,0,1-5.564,12.064,18.01,18.01,0,0,1-12.636,5.2q-2.288,0-3.016-1.092a5.071,5.071,0,0,1-.728-2.86,14.1,14.1,0,0,1,.416-3.432,47.724,47.724,0,0,0-8.32,3.848,103.668,103.668,0,0,0-11.232,7.7q-6.656,5.1-6.656,7.592,0,.832,2.444.832a26.7,26.7,0,0,0,7.54-1.716,26.892,26.892,0,0,1,7.124-1.716,10.448,10.448,0,0,1,2.652.208A9.092,9.092,0,0,1,190.743-48a8.028,8.028,0,0,1,1.56,3.848q0,1.4-2.7,3.692a19.181,19.181,0,0,1-6.136,3.484,36.48,36.48,0,0,0-4.576,1.82Q156.942-22.881,156.942-18.3q0,8.112,13.833,8.112,8.84,0,17.785-5.616a140.624,140.624,0,0,0,13.677-9.724q6.084-4.94,7.7-6.084a5.007,5.007,0,0,1,2.444-1.144q2.7,0,2.7,6.032t-.728,7.956q-.728,1.924-4.16,4.732-22.257,18.1-42.122,18.1-10.608,0-16.953-2.912-11.648-5.3-11.648-16.225,0-14.353,19.865-21.737-3.952-1.768-5.1-4.524t-1.144-8.84q0-6.084,5.668-12.9a45.805,45.805,0,0,1,13.885-11.18q18.3-9.88,32.657-9.88a16.277,16.277,0,0,1,6.968,1.664Q215.808-80.811,215.808-77.795Zm104.108.52-1.248-4.992a8.226,8.226,0,0,1,2.964-6.708,11.3,11.3,0,0,1,7.436-2.444q8.736,0,8.736,11.128,0,8.008-7.9,22.1a189.187,189.187,0,0,1-18.669,27.249A156.516,156.516,0,0,1,288.4-8.06q-12.064,9.724-18.565,9.724t-9.2-3.536a11.338,11.338,0,0,1-2.7-6.812,58.174,58.174,0,0,1,.312-6.188,59.7,59.7,0,0,1,5.616-19.449A194.948,194.948,0,0,1,239.937-8.164q-12.792,11.6-21.425,11.6a9,9,0,0,1-6.656-2.5q-2.5-2.5-2.5-8.476t7.176-22.465a180.7,180.7,0,0,1,13.729-26.469,8.4,8.4,0,0,1-4.212,1.456,6.043,6.043,0,0,1-3.952-2.028q-2.132-2.028-2.132-3.172a6.758,6.758,0,0,1,1.56-3.328q1.56-2.184,11.96-10.764t14.249-8.58a18.826,18.826,0,0,1,7.332,1.456q3.484,1.456,3.484,4T244.1-47.738Q229.641-20.593,229.641-18.3q0,.312.208.312,2.184,0,21.789-22.257t30.837-36.609a5.108,5.108,0,0,1,4.68-2.6l.936.1,5.72-1.144a4.22,4.22,0,0,1,2.652,1.04q1.3,1.04,1.3,1.872T294.071-70.1q-3.692,6.656-12.012,25.169t-8.32,26q0,1.872,1.352,1.872,3.952,0,16.485-14.3a194.9,194.9,0,0,0,20.437-27.405Q319.916-71.867,319.916-77.275ZM38.793,118.941a95.988,95.988,0,0,1,19.761-10.712q9.672-3.744,16.745-3.744t9.048,4.056a13.819,13.819,0,0,1,10.088-4.992q1.768-.1,4.368-.1t3.224.676a6.514,6.514,0,0,1,1.144,2.548q.52,1.872.624,2.08a1.611,1.611,0,0,1,.1.676,2.037,2.037,0,0,1-.52,1.144,10.416,10.416,0,0,1-1.2,1.3q-.676.624-.78.728-22.985,32.969-47.01,75.195Q79.147,165.847,98.7,156.279a5.349,5.349,0,0,1,2.392-.624q1.664,0,2.184,2.132a27.2,27.2,0,0,1,.52,6.084q0,3.952-.468,4.888T98.492,172.5q-4.368,2.808-11.336,7.28t-14.769,9.88q-18.721,13-30.785,27.353Q26,235.842,19.241,247.386q-2.5,4.472-8.424,4.472-11.752,0-11.752-11.128,0-11.336,11.128-23.193a155.86,155.86,0,0,1,15.289-14.457q6.968-5.616,7.592-6.344,7.7-11.544,20.9-32.761A129.3,129.3,0,0,1,32.189,182.7q-10.556,6.968-15.757,6.968Q.52,189.664.52,176.04A48.532,48.532,0,0,1,6.032,154.2,75.95,75.95,0,0,1,20.177,134.49,130.237,130.237,0,0,1,38.793,118.941Zm39.625-2.7a80.379,80.379,0,0,0-22.673,8.58A81.41,81.41,0,0,0,38.273,137.61,101.213,101.213,0,0,0,26.417,151.6q-9.36,13.417-9.36,20.8,0,1.768.884,1.768t3.952-1.872a90.62,90.62,0,0,0,8.684-6.4q5.616-4.524,12.48-10.764Q58.97,140.47,78.419,116.237Zm51.17,15.081q24.545-27.873,41.81-27.873a9.936,9.936,0,0,1,7.02,2.548,8.582,8.582,0,0,1,2.756,6.6q0,4.056-5.772,13.573t-10.66,16.069q-2.6,3.328-5.876,3.328a6.036,6.036,0,0,1-5.1-2.392,9.012,9.012,0,0,1-1.82-5.616q0-7.176,7.7-16.225l-.208-.208q-3.432.312-17,13.521t-23.089,23.661q-9.516,10.452-20.645,25.429-3.224,4.472-5.46,4.472a17.772,17.772,0,0,1-5.928-1.4,22.317,22.317,0,0,1-4.472-2.028,2.513,2.513,0,0,1-.78-2.08,8.716,8.716,0,0,1,.832-3.38,43.952,43.952,0,0,1,3.068-5.46q2.236-3.536,6.76-11.44t14.093-23.921q9.568-16.017,11.44-19.345a85.113,85.113,0,0,1,6.448-9.984q4.68-5.928,15.809-5.928,2.5,0,2.5,3.12,0,4.888-9.048,18.409ZM249.3,108.957q7.9,0,7.9,5.408a5.828,5.828,0,0,1-1.352,4.264q-1.352,1.352-5.772,9T240.3,147.178q-5.356,11.908-6.916,20.333a10.607,10.607,0,0,0-.312,2.912q0,5.72,3.12,5.72t7.384-2.964a53.322,53.322,0,0,0,7.592-6.344q3.328-3.38,6.5-6.916t3.8-4.056a2.871,2.871,0,0,1,1.872-.52q1.976,0,2.392,3.016a45.639,45.639,0,0,1,.416,6.24,11.071,11.071,0,0,1-.624,4.472q-3.016,5.928-13.26,14.249t-18.617,8.32q-8.372,0-12.324-5.1a17.982,17.982,0,0,1-3.952-11.284,26.545,26.545,0,0,1,2.08-10.868,89.522,89.522,0,0,1-19.813,19.033q-11.18,7.8-18.253,7.8a16.043,16.043,0,0,1-11.544-4.264q-5.72-5.3-5.72-14.717a46.462,46.462,0,0,1,4.212-18.929,68.162,68.162,0,0,1,11.076-17.369,111.043,111.043,0,0,1,15.081-14.3q17.265-13.521,31.825-13.521A19.518,19.518,0,0,1,235.465,110a8.551,8.551,0,0,1,4.472,4.68q2.5-3.744,4.212-4.732A10.571,10.571,0,0,1,249.3,108.957ZM235.465,120.5q-17.785,0-36.817,19.761a87.135,87.135,0,0,0-12.428,16.953q-5.668,9.88-5.668,13.521t2.08,3.64q2.912,0,16.225-11.492t17.681-16.9Q221.32,139.95,235.465,120.5ZM387.311,32.1a4.023,4.023,0,0,1,3.12,1.248,3.777,3.777,0,0,1,1.144,2.548q0,1.3-2.028,4.784t-9.308,15.185q-7.28,11.7-11.336,18.357-23.609,38.377-37.025,64.9T318.46,171.151v.832q0,4.264,3.12,4.264t7.54-2.912a49.131,49.131,0,0,0,7.748-6.24q3.328-3.328,6.708-6.916t4.108-4.212a2.775,2.775,0,0,1,1.872-.624q1.768,0,2.288,2.236a29.011,29.011,0,0,1,.52,6.24q0,4-.624,5.252-3.016,5.824-13.26,14.2t-19.4,8.372q-15.6,0-15.6-13.208,0-8.216,6.24-21.529a132.809,132.809,0,0,1-17.161,18.617q-16.225,14.145-28.185,14.145-6.656,0-9.828-4.68t-3.172-13.469q0-8.788,6.864-21.061a94.207,94.207,0,0,1,17.109-22.1,100.729,100.729,0,0,1,22.725-16.433q12.48-6.6,22.985-6.6,3.328,0,7.8,4.056,3.016-4.784,11.128-19.137,25.481-42.954,33.7-52.418Q378.054,32.1,387.311,32.1Zm-64.794,87.051a66.146,66.146,0,0,0-27.873,13.937q-12.9,10.608-19.345,22.2t-6.448,15.029q0,3.432,1.456,3.432,6.24,0,30.889-27.873A282.706,282.706,0,0,0,322.516,119.149Zm109.932,36.193q1.976,0,2.392,3.016a45.639,45.639,0,0,1,.416,6.24,11.071,11.071,0,0,1-.624,4.472q-3.016,5.824-13.208,14.2t-19.345,8.372a17.655,17.655,0,0,1-10.4-3.38q-4.784-3.38-4.784-11.8a33.888,33.888,0,0,1,4.472-16.537q-25.793,32.345-40.458,32.345a11.83,11.83,0,0,1-9.412-4.16,13.062,13.062,0,0,1-3.588-8.58,35.842,35.842,0,0,1,1.248-9.152,88.675,88.675,0,0,1,2.652-8.476,100.191,100.191,0,0,1,4.16-9.256q2.756-5.512,4.108-8.008t4.316-7.54q2.964-5.044,7.8-13.573a113.846,113.846,0,0,1,8.008-12.636q3.172-4.108,6.188-4.16a6.832,6.832,0,0,1,5.3,2.444q2.288,2.5,2.288,4.056t-6.968,14.041q-20.593,37.233-20.593,43.37,0,1.56,1.144,1.56,4.992,0,24.857-21.633t22.985-27.717a83.333,83.333,0,0,1,6.084-10.244q2.964-4.16,4.42-5.1,4.472-2.912,11.544-3.12a11.446,11.446,0,0,1,1.768.1q.624.1,1.456,1.768a6.41,6.41,0,0,1,.832,2.6q-.936,2.912-8.268,15.5T415.08,138.6q-12.272,25.377-12.272,33.073,0,4.368,3.328,4.368,6.032-.832,14.561-9.672,3.12-3.224,6.188-6.552a53.754,53.754,0,0,1,3.8-3.9A2.774,2.774,0,0,1,432.448,155.343Zm75.507-46.386q7.9,0,7.9,5.408a5.828,5.828,0,0,1-1.352,4.264q-1.352,1.352-5.772,9t-9.776,19.553q-5.356,11.908-6.916,20.333a10.607,10.607,0,0,0-.312,2.912q0,5.72,3.12,5.72t7.384-2.964a53.322,53.322,0,0,0,7.592-6.344q3.328-3.38,6.5-6.916t3.8-4.056a2.871,2.871,0,0,1,1.872-.52q1.976,0,2.392,3.016a45.639,45.639,0,0,1,.416,6.24,11.071,11.071,0,0,1-.624,4.472q-3.016,5.928-13.26,14.249T492.3,191.64q-8.372,0-12.324-5.1a17.982,17.982,0,0,1-3.952-11.284,26.545,26.545,0,0,1,2.08-10.868,89.522,89.522,0,0,1-19.813,19.033q-11.18,7.8-18.253,7.8A16.043,16.043,0,0,1,428.5,186.96q-5.72-5.3-5.72-14.717a46.462,46.462,0,0,1,4.212-18.929,68.162,68.162,0,0,1,11.076-17.369,111.043,111.043,0,0,1,15.081-14.3q17.265-13.521,31.825-13.521A19.518,19.518,0,0,1,494.123,110a8.551,8.551,0,0,1,4.472,4.68q2.5-3.744,4.212-4.732A10.571,10.571,0,0,1,507.955,108.957ZM494.123,120.5q-17.785,0-36.817,19.761a87.135,87.135,0,0,0-12.428,16.953q-5.668,9.88-5.668,13.521t2.08,3.64q2.912,0,16.225-11.492t17.681-16.9Q479.978,139.95,494.123,120.5Zm92.771-66.458,4.264,1.04a2.091,2.091,0,0,1,1.664.936,2.938,2.938,0,0,1,.728,1.768q0,.832-2.184,4.472t-5.148,8.268q-2.964,4.628-3.172,5.044,8.112-.624,11.492-.624a15.211,15.211,0,0,1,4.628.468,7.46,7.46,0,0,1,2.86,2.6,18.563,18.563,0,0,0,2.964,3.224,3.961,3.961,0,0,1,1.352,3.276q0,2.184-2.652,3.692a14.332,14.332,0,0,1-5.668,1.82q-24.129,2.392-26.625,2.5-8.424,12.9-23.557,40.2t-16.069,34.165a40.158,40.158,0,0,0-.416,5.1q0,4.056,4.264,4.056t9.464-3.276a74.558,74.558,0,0,0,9.568-7.124q11.648-10.4,12.48-10.4,2.7,0,2.7,9.36,0,5.1-4.68,9.152a162.683,162.683,0,0,1-17.681,13.625,26.517,26.517,0,0,1-14.353,4.576,12.933,12.933,0,0,1-2.912-.312q-8.32-1.56-12.22-6.084t-3.848-12.22q.052-7.7,4.576-18.669a226.558,226.558,0,0,1,11.388-23.349q11.232-20.177,22.465-37.857l-3.952.52q-12.064,1.352-14.041,1.352h-.936a14.718,14.718,0,0,1-5.824-1.2q-2.808-1.2-2.808-2.964a5.1,5.1,0,0,1,1.508-3.432,8.667,8.667,0,0,0,1.82-2.6q.728-2.288,5.46-5.1t7.124-2.964q2.392-.156,4.628-.26t4.992-.208q2.756-.1,4.212-.208l9.36-.416q8.736-13.1,12.012-16.849a49.256,49.256,0,0,1,3.8-4.108,4,4,0,0,1,2.08-.364Zm45.762,56.162a16.055,16.055,0,0,1-5.564,12.064,18.01,18.01,0,0,1-12.636,5.2q-2.288,0-3.016-1.092a5.071,5.071,0,0,1-.728-2.86,14.1,14.1,0,0,1,.416-3.432,47.724,47.724,0,0,0-8.32,3.848,103.668,103.668,0,0,0-11.232,7.7q-6.656,5.1-6.656,7.592,0,.832,2.444.832a26.7,26.7,0,0,0,7.54-1.716,26.892,26.892,0,0,1,7.124-1.716,10.448,10.448,0,0,1,2.652.208A9.092,9.092,0,0,1,607.591,140a8.028,8.028,0,0,1,1.56,3.848q0,1.4-2.7,3.692a19.181,19.181,0,0,1-6.136,3.484,36.48,36.48,0,0,0-4.576,1.82Q573.79,165.119,573.79,169.7q0,8.112,13.833,8.112,8.84,0,17.785-5.616a140.624,140.624,0,0,0,13.677-9.724q6.084-4.94,7.7-6.084a5.007,5.007,0,0,1,2.444-1.144q2.7,0,2.7,6.032t-.728,7.956q-.728,1.924-4.16,4.732-22.257,18.1-42.122,18.1-10.608,0-16.953-2.912-11.648-5.3-11.648-16.225,0-14.353,19.865-21.737-3.952-1.768-5.1-4.524t-1.144-8.84q0-6.084,5.668-12.9a45.805,45.805,0,0,1,13.885-11.18q18.3-9.88,32.657-9.88a16.277,16.277,0,0,1,6.968,1.664Q632.656,107.189,632.656,110.205Z" transform="matrix(0.985, -0.174, 0.174, 0.985, 32.442, 267.522)" fill="none" stroke="#396cae" stroke-width="2"/>
</svg>
