<?xml version="1.0" encoding="utf-8"?>
<!-- Generator: Adobe Illustrator 28.1.0, SVG Export Plug-In . SVG Version: 6.00 Build 0)  -->
<svg version="1.1" id="レイヤー_1" xmlns="http://www.w3.org/2000/svg" xmlns:xlink="http://www.w3.org/1999/xlink" x="0px"
	 y="0px" viewBox="0 0 375 213" style="enable-background:new 0 0 375 213;" xml:space="preserve">
<style type="text/css">
	.st0{fill:#5B8DCD;}
	.st1{enable-background:new    ;}
	.st2{fill:#FF1901;}
	.st3{fill:#396CAE;}
</style>
<g id="グループ_2437" transform="translate(0 -7505)">
	<g id="グループ_2436">
		<path id="パス_1617" class="st0" d="M0,7557.8l375-52.8v243H0V7557.8z"/>
		<g class="st1">
			<path class="st2" d="M57.5,7620.6l2-0.8c0.5-0.1,1-0.1,1.3,0.1c0.4,0.2,0.6,0.3,0.6,0.5s0,0.5,0,0.9s-0.1,4.1-0.3,11.3
				c-0.2,7.1-0.3,12.4-0.4,15.9c2.4-4.9,5.2-10.8,8.3-17.8c3.1-7,4.8-11.6,5.2-13.8c0.1-0.7,0.3-1.2,0.6-1.7
				c0.3-0.4,0.6-0.7,0.8-0.8c0.3-0.1,0.7-0.2,1.3-0.3c0.6-0.1,1.3-0.1,2.1,0c0.8,0.1,1.3,0.5,1.4,1c0.2,1.1-0.9,4.5-3.2,10.3
				c-2.3,5.8-5.1,12-8.2,18.6s-5.8,11.9-8,15.8c-0.4,0.7-0.9,1.1-1.7,1.2c-0.7,0.1-1.5,0.1-2.3,0s-1.3-0.5-1.4-1.1
				c-0.4-2-0.3-12.2,0.2-30.4c-2.4,4.5-5.1,10.7-8.2,18.6c-3.3,8.2-5.1,13.2-5.3,15c-0.1,1.1-0.4,1.8-0.8,2
				c-0.3,0.2-0.6,0.3-0.9,0.4l-2.2,0.6c-0.4,0.1-0.8,0-1.2-0.2s-0.6-0.4-0.7-0.7c-0.1-0.7,0.5-3.1,1.9-7.2s3.1-8.5,5.1-13.3
				s4.1-9.6,6.4-14.2c2.3-4.6,4.1-7.8,5.5-9.5c0.3-0.4,0.6-0.6,1.1-0.6L57.5,7620.6z"/>
		</g>
		<g class="st1">
			<path class="st3" d="M95.5,7613.1l1.3-0.3c0.5-0.1,0.8,0.1,0.8,0.4c0,0.1,0,0.2,0,0.3c-6.6,14.6-12.6,28.9-18.1,42.8
				c-0.3,0.7-0.6,1.2-0.9,1.3c0,0-0.1,0.1-0.3,0.2c-0.9,0.5-1.5,0.8-1.9,0.9s-0.6,0.1-0.6,0.1c-0.1,0.2-0.3,0.3-0.6,0.4
				c-0.2,0-0.4,0.1-0.5,0.1s-0.3,0-0.7-0.1c-0.4-0.1-0.6-0.2-0.6-0.2c-0.2-0.9-0.2-1.5-0.2-1.7c0.2-1.4,1.6-5.5,4.5-12.3
				c2.8-6.8,5.7-13.5,8.8-20c3-6.5,4.9-10.2,5.6-11c0.2-0.2,0.5-0.4,1-0.5L95.5,7613.1z"/>
			<path class="st3" d="M105.1,7649.5c-2.9,3.7-6.8,6-11.6,6.8c-2.9,0.5-5.1,0.3-6.5-0.7c-0.8-0.5-1.4-1.7-1.7-3.4
				c-0.5-2.6,1.2-4.6,5-6.1c1.2-0.5,2.7-0.8,4.4-1.2c1.7-0.3,4.2-0.4,7.3-0.3c1.3-2.1,2.8-5.1,4.4-9s2.9-6.9,3.9-9s2.1-4.3,3.4-6.6
				c1.3-2.3,2.7-4.4,4.2-6.3c3.1-3.9,6.4-6.2,10-6.8c1.6-0.3,2.8-0.1,3.7,0.6s1.4,1.6,1.6,2.7c0.2,1.1-0.1,2.5-0.8,4.1
				c-0.8,1.6-1.7,3.2-2.8,4.5c-1.1,1.4-2.3,2.6-3.4,3.6c-1.2,1-2.1,1.6-2.8,1.7c-0.7,0.1-1.4-0.1-2.1-0.6s-1-1.1-1.1-1.7
				s-0.1-1,0-1.3s0.3-0.4,0.4-0.4c0.2,0,0.3,0.1,0.4,0.3c0.6-0.3,1.4-1,2.6-2.2c1.1-1.2,2.2-2.4,3-3.7c0.9-1.2,1.3-2,1.3-2.3
				s-0.2-0.4-0.6-0.3c-0.3,0.1-0.7,0.2-1.3,0.6c-0.5,0.3-1.2,0.9-2,1.8s-1.7,1.9-2.5,3.2c-2.1,3.1-4.4,7.3-6.7,12.6
				c-0.6,1.2-1.3,3-2.3,5.3c-2,4.7-3.5,7.9-4.4,9.6c10,0.8,17,0.9,21.1,0.2c1.9-0.3,3.2-0.8,3.9-1.4c0.2-0.2,0.4-0.3,0.5-0.3
				s0.2,0,0.2,0.2c0,0.1,0,0.4-0.1,0.7c-0.1,0.3-0.4,1-0.9,2.1s-0.9,1.7-1.2,2c-0.8,0.7-2.3,1.2-4.5,1.6s-4.3,0.6-6.3,0.6
				s-3.7,0-4.9-0.1c-1.3-0.1-3.1-0.3-5.6-0.5C107.5,7649.7,105.8,7649.6,105.1,7649.5z M94.6,7649.6c-2.4,0.4-3.6,0.9-3.5,1.5
				c0,0.2,0.3,0.4,0.7,0.5c0.4,0.1,1,0.1,1.5,0c1.8-0.3,3.5-1.1,5-2.3C96.8,7649.3,95.6,7649.4,94.6,7649.6z"/>
			<path class="st3" d="M163.4,7602.4c0.4-1.4,0.6-2.1,0.9-2.1h0.1c0.3,0,0.9,0.1,1.9,0.6c1,0.4,1.5,0.9,1.6,1.4
				c0.1,0.7-1.3,6.8-4.2,18.1c-2.9,11.3-4.6,17.7-5.1,19.1s-0.8,2.3-1,2.8s-0.5,1-0.8,1.6c-0.6,1.1-1.5,1.8-2.7,2
				c-0.5,0.1-0.9,0.2-1.3,0.4c-0.4,0.2-0.6,0.3-0.6,0.3c-0.6,0.1-0.9,0-1-0.3c0-0.1,0-0.3,0.1-0.7c0.1-0.4,1.4-5.3,4-14.7
				c-4.4,0.6-8.3,1.2-11.6,1.6c-2.5,4.6-4.6,9.3-6.4,14.1c-0.2,0.7-0.4,1.2-0.7,1.5c-0.2,0.3-0.6,0.5-1.1,0.6s-1-0.1-1.7-0.5
				c-0.6-0.4-1-0.9-1.1-1.6c-0.3-1.9,1.4-6.3,5.1-13.2c-2.3,0.4-3.7,0.7-4.3,0.9c-0.6,0.2-1,0.3-1.1,0.4c-0.5,0.1-0.8-0.3-1-1.1
				c-0.1-0.8,0.2-1.7,1.1-2.5c0.9-0.8,2.2-1.4,3.8-1.7c0.1,0,0.4-0.1,0.7-0.2c1.1-0.3,2.3-0.5,3.5-0.8c3.2-5.5,6.7-10.6,10.4-15.5
				s7-8.4,10-10.6c0.5-0.4,0.9-0.6,1.2-0.6S162.9,7602,163.4,7602.4z M162.2,7606.7c-5.9,6.4-11,13.3-15.5,20.8
				c3.3-0.5,6.7-1,10.1-1.3C158.8,7618.5,160.7,7612,162.2,7606.7z"/>
			<path class="st3" d="M166.3,7642.8l-0.2,0.1c-0.1,0-0.4-0.1-0.9-0.4s-0.7-0.5-0.9-0.5c-0.1-0.1-0.2-0.1-0.4-0.2
				c-0.1-0.1-0.2-0.1-0.3-0.1s-0.1-0.1-0.2-0.1c-0.1-0.1-0.1-0.1-0.2-0.2l-0.1-0.1c-0.1-0.1-0.1-0.3-0.2-0.5c0-0.2,0-0.5,0-1
				c0.1-0.7,1.7-2.8,4.8-6.4s7.6-8.7,13.6-15.2c0.1-1.1,0.2-2.3,0.3-3.9c0.1-1.5,0.2-2.7,0.3-3.7c0.1-0.9,0.2-1.9,0.2-2.9
				c0.1-1.9,0.2-3,0.2-3.2c0-0.3-0.2-0.4-0.3-0.3c-0.7,0.1-2,1.5-4.1,4c-2,2.6-3,4.2-2.8,4.8c0.1,0.4,0,0.7-0.4,0.7
				c-0.2,0-0.5-0.1-1-0.5s-0.8-0.7-0.9-1.1c-0.1-0.4-0.2-0.7-0.3-0.9c-0.2-0.6-0.3-1-0.4-1.4c-0.2-0.9,0.5-2.4,2-4.4
				s3.2-3.8,5.1-5.4c1.9-1.6,3.4-2.6,4.3-2.7s1.8,0,2.5,0.6s1.2,1.5,1.4,2.7c0.2,1.3,0.1,5-0.5,11.2c9-9.9,13.8-15,14.3-15.4
				s1.3-0.7,2.4-0.9c1.1-0.2,2.3-0.2,3.5,0.1c0.4,0.1,0.6,0.2,0.6,0.5c0,0.2,0,0.5-0.1,0.7s-0.3,0.5-0.6,0.9s-0.9,1-1.9,2
				s-2.1,2.2-3.5,3.6c-3.1,3.3-8.3,8.9-15.5,16.9c-0.6,7.2-0.7,11.8-0.3,13.8c0.1,0.5,0.2,0.8,0.3,0.7s0.3-0.1,0.4-0.3
				c1-0.8,2.5-2.6,4.6-5.2s3.4-4.3,3.8-4.9c0.4-0.7,0.7-1,0.9-1c0.3,0,0.5,0.3,0.6,0.9l0.1,0.5c0,0,0.1,0.3,0.4,0.7
				c0.3,0.5,0.5,1.1,0.6,1.7c0.1,0.7,0.1,1.2-0.1,1.7c-0.2,0.4-0.5,1-0.9,1.7s-1,1.5-1.7,2.6c-0.8,1-1.6,2-2.5,2.9
				c-2.2,2.3-4.4,3.6-6.6,4c-1,0.2-2.1-0.1-3-0.7c-1-0.7-1.6-1.9-1.9-3.6c-0.3-1.8-0.3-4.8-0.1-9.1c-9.1,10.8-13.7,16.2-13.8,16.3
				c-0.1,0.1-0.2,0.1-0.3,0.1L166.3,7642.8z"/>
			<path class="st3" d="M251.1,7585.6l1.1,0.1c2.4-0.1,3.7,0.4,3.9,1.5c0.1,0.3,0,0.6-0.2,0.8c-2.1,2.7-5,5.7-8.7,9.1
				c-5.7,5.1-12.2,10.2-19.6,15.3c2.9,1,6.9,2.9,12.1,5.6c6.9,3.4,11,5,12.4,4.7c0.5-0.1,0.9-0.3,1.2-0.6c0.3-0.3,0.5-0.5,0.5-0.5
				c0.3-0.1,0.5,0.1,0.6,0.4c0,0.3-0.1,1.1-0.5,2.4s-0.8,2.2-1.2,2.7s-1,0.8-2,1c-0.9,0.2-2.3-0.1-4-0.7c-1.7-0.7-3.7-1.5-5.8-2.6
				s-4.2-2.2-6.3-3.3c-5.3-2.8-8.9-4.4-10.7-4.8c-4.1,10-6.2,15.2-6.3,15.6c-0.1,0.3-0.3,0.6-0.5,0.9c-0.2,0.2-0.4,0.4-0.4,0.4
				l-1.2,0.4l-1,0.1c-0.3,0-0.4,0.1-0.5,0.2s-0.2,0.2-0.3,0.2c-0.1,0.1-0.2,0.1-0.3,0.2s-0.2,0.2-0.4,0.2s-0.5-0.1-0.9-0.3
				c-0.4-0.2-0.6-0.5-0.7-0.7c0-0.2,0-0.6,0.2-1.2s2.7-6.4,7.5-17.4l-0.5,0.1c-1.2,0.2-1.9,0-2-0.7s0.1-1.4,0.6-2.2
				c0.5-0.8,1.1-1.2,1.7-1.4c0.6-0.1,1.3-0.2,2.1-0.2c2.6-5.8,4.6-10.4,6-13.7c-1.8,2.4-3.7,3.8-5.6,4.1c-0.9,0.2-1.7,0-2.4-0.6
				c-0.7-0.5-1.1-1.2-1.2-2c-0.1-0.8-0.1-1.5,0.3-2.1c0.3-0.6,0.7-1,1-1.3c0.4-0.3,0.6-0.4,0.8-0.5c0.1,0,0.2,0,0.3,0.2l-0.1,0.7
				c0,0.3,0.5,0.3,1.3,0.2c0.8-0.1,1.8-0.8,3.1-1.9s2.5-2.3,3.7-3.4s2.2-1.8,2.9-1.9s1.2-0.1,1.4,0s0.5,0.2,0.6,0.2
				c0.2,0,0.3,0.1,0.5,0.1c0.1,0.1,0.2,0.2,0.3,0.3c0.1,0.1,0.3,0.3,0.5,0.4s0.4,0.3,0.4,0.6s0,0.6-0.1,0.8c-1.7,4-3.8,9-6.3,15
				c4.2-3.2,8.9-7.2,14.2-12s8.1-7.6,8.5-8.3C250.7,7585.8,250.9,7585.7,251.1,7585.6z"/>
			<path class="st3" d="M268.3,7602.3c0.6-0.1,1.2,0.1,1.8,0.5s1.1,1.1,1.3,2.1s0.1,2.4-0.4,4.2c-0.4,1.8-1.1,3.6-2.1,5.5
				s-2.1,3.8-3.3,5.5c-1.3,1.8-2.7,3.3-4.3,4.5c-1.6,1.3-3.1,2-4.5,2.3s-2.7,0-3.7-0.7s-1.7-1.9-2-3.5s-0.2-3.5,0.2-5.6
				s1.2-4,2.1-5.7c1-1.7,2.1-3.3,3.3-4.7c2.6-3,5-4.7,7.3-5.1c1-0.2,1.8-0.1,2.4,0.3c0.2,0.1,0.3,0.3,0.4,0.4v0.2
				C267.3,7602.5,267.7,7602.4,268.3,7602.3z M266.1,7606.6h-0.2c-0.7,0.1-1.1-0.3-1.2-1.3c-1.3,0.7-2.6,1.7-3.9,3.1
				s-2.4,2.9-3.3,4.7c-1.8,3.5-2.6,6.3-2.3,8.4c0.2,1,0.7,1.5,1.4,1.4c0.8-0.1,1.8-0.8,3.1-2.1c1.3-1.3,2.6-3,3.7-5.1
				c1.2-2.1,2-3.9,2.5-5.4s0.7-2.5,0.6-3C266.6,7606.7,266.4,7606.5,266.1,7606.6z"/>
			<path class="st3" d="M276.1,7617.1l0.1,0.5c0.1,0.5,0.3,0.8,0.7,1.1s0.8,0.4,1.1,0.3c2.2-0.4,4.1-1.1,5.8-2.1
				c1.6-1,2.3-1.8,2.2-2.5c-0.1-0.3-0.4-0.5-1.1-0.7c-0.7-0.1-1.8-0.2-3.3-0.3s-2.7-0.2-3.4-0.2c-0.7-0.1-1.3-0.2-1.7-0.3
				c-0.4-0.1-0.9-0.3-1.3-0.5c-1-0.5-1.6-1.3-1.8-2.5c-0.2-1.2,0-2.5,0.7-3.9s1.6-2.6,2.8-3.7c1.2-1.1,2.5-2.1,4-3
				c2.9-1.8,5.3-2.9,7.4-3.3s3.4-0.1,4.1,0.7c0.2,0.3,0.3,0.6,0.4,1v0.2c0.2,1,0.1,1.8-0.2,2.4c-0.3,0.6-0.9,1.2-1.7,1.9
				c-0.8,0.6-1.5,1-2,1s-0.9,0.1-1,0.1s-0.3-0.1-0.4-0.2s-0.2-0.2-0.4-0.2c-0.1,0-0.2-0.2-0.3-0.4c0-0.2,0-0.5,0.2-0.7
				c0.1-0.3,0.2-0.5,0.3-0.8c-1.2,0.3-2.5,0.8-3.7,1.5s-2.3,1.5-3.1,2.3c-0.8,0.8-1.5,1.5-2.1,2.2c-0.5,0.7-0.8,1.2-0.7,1.4
				c0,0.3,0.5,0.4,1.4,0.4c4,0.1,6.6,0.3,7.9,0.6c1.3,0.3,2.3,0.8,2.8,1.5c0.6,0.6,0.9,1.2,1,1.8c0.2,1.2-0.1,2.4-0.8,3.6
				c-0.8,1.2-1.8,2.3-3.1,3.2c-2.7,2-5.2,3.2-7.4,3.6c-2.2,0.4-3.8,0.3-4.8-0.2s-1.5-1.3-1.7-2.2c-0.2-0.9-0.1-1.8,0.3-2.7
				c0.3-0.9,0.9-1.4,1.6-1.5C275.6,7616.6,276,7616.7,276.1,7617.1z"/>
			<path class="st3" d="M318.1,7607c0.3,0.8,0.5,1.5,0.6,2s0.1,0.9,0,1.3s-0.4,1-0.9,1.7c-0.5,0.8-1.1,1.6-1.8,2.4
				c-1.8,2-3.7,3.2-5.8,3.5c-3.1,0.5-4.8-0.5-5.3-3.3c-0.4-2.4,0.8-7.4,3.7-15.2c0.1-0.3,0.2-0.5,0.2-0.6c-1.3,1.3-3.5,4.5-6.8,9.7
				s-5.4,8.8-6.4,10.9c-0.1,0.2-0.3,0.4-0.7,0.7c-0.4,0.3-0.7,0.4-1,0.5s-0.5,0-0.9-0.1c-0.3-0.1-0.5-0.2-0.6-0.1
				c-0.2,0-0.4,0-0.4-0.2s0.2-1.1,0.5-2.7c0.4-1.7,0.9-3.8,1.6-6.2c1.8-6.9,4.8-15.9,8.8-27.2c1.4-3.9,2.6-6.7,3.5-8.4
				c0.6-1.2,1.9-2,3.8-2.3c0.4-0.1,0.7,0,0.8,0.2c0.1,0.2,0.2,0.5,0.2,0.8s0,0.6,0,0.9l-2.2,5.2c-4.3,10.3-7.4,18.7-9.3,25.3
				c2.3-4,4.6-7.3,7-9.7c1.5-1.5,2.6-2.3,3.5-2.5c0.8-0.1,1.6-0.1,2.4,0s1.2,0.7,1.4,1.8c0.1,0.4-0.3,1.9-1.1,4.4
				c-2.4,7.8-3.5,12.1-3.3,12.9c0.1,0.8,0.5,1.1,1.2,1c0.9-0.2,2.2-1.3,3.9-3.5c1.2-1.7,2-2.7,2.3-3.2c0.2-0.2,0.4-0.3,0.6-0.4
				C317.8,7606.5,318,7606.6,318.1,7607z"/>
			<path class="st3" d="M330,7606.9c0.1,0.6,0.1,1,0,1.2c-0.6,2-1.8,3.8-3.6,5.3c-1.8,1.5-3.4,2.4-4.9,2.6c-1.5,0.3-2.8,0-4.1-0.8
				c-1.2-0.8-1.9-1.7-2.1-2.7s0.1-2.6,0.7-4.7c0.7-2.1,1.4-4.1,2.1-6c0.7-1.8,1.1-2.8,1.1-3s-0.3-0.4-0.7-0.7
				c-0.5-0.3-0.7-0.6-0.7-0.8c0-0.2,0.3-0.8,0.9-1.7c0.6-1,1.4-1.9,2.4-3c1-1,1.7-1.6,2.3-1.7c0.6-0.1,1.2,0.1,1.7,0.5
				c0.6,0.4,0.9,0.9,0.9,1.3c0.1,0.4-1.4,4.8-4.5,13.3c0,0.1-0.1,0.4-0.3,0.8c-0.2,0.4-0.3,0.8-0.4,1.1s-0.2,0.6-0.3,1
				c-0.2,0.8-0.3,1.5-0.2,2c0.1,0.6,0.6,0.9,1.5,0.7c0.9-0.2,1.7-0.6,2.5-1.3c0.8-0.7,1.5-1.5,2-2.4c1.4-2.2,2.2-3.3,2.5-3.3
				C329.3,7604.4,329.7,7605.2,330,7606.9z M330.2,7581.7c0.2,1.1-0.1,2.2-0.9,3.5c-0.8,1.2-1.7,2-2.8,2.1c-1.1,0.2-1.7-0.3-1.9-1.4
				s0.1-2.3,0.8-3.4c0.8-1.2,1.7-1.9,2.8-2.1c0.5-0.1,0.9,0,1.3,0.2S330.1,7581.2,330.2,7581.7z"/>
			<path class="st3" d="M344.6,7589.3c0.2,1.2-0.1,2.4-0.9,3.5s-1.9,1.8-3.1,2c-0.4,0.1-0.7,0-0.9-0.1c-0.2-0.2-0.3-0.4-0.3-0.7
				c-0.1-0.3-0.1-0.6-0.1-0.9c-0.6,0.3-1.3,0.8-2,1.4s-1.6,1.5-2.6,2.6s-1.5,1.9-1.4,2.4c0,0.1,0.3,0.2,0.7,0.1
				c0.4-0.1,1.1-0.4,1.9-0.8c0.9-0.5,1.5-0.7,1.8-0.8c0.4-0.1,0.6-0.1,0.7-0.1c0.3,0.1,0.6,0.3,0.9,0.7c0.4,0.4,0.6,0.7,0.6,1
				s-0.1,0.6-0.5,1.1s-0.9,0.9-1.5,1.2c-0.6,0.3-1,0.6-1.1,0.7c-3.5,2.9-5.2,4.7-5.1,5.6c0.3,1.5,1.6,2,4.1,1.5
				c1.6-0.3,3.1-1.1,4.5-2.3c1.2-1.1,2.3-2.2,3.2-3.3c0.9-1.1,1.5-1.7,1.8-2s0.5-0.4,0.6-0.4c0.5-0.1,0.8,0.4,1,1.5s0.3,1.8,0.2,2.2
				s-0.4,0.9-0.9,1.5c-3.4,3.9-6.9,6.2-10.4,6.9c-1.9,0.3-3.5,0.3-4.7,0c-2.2-0.6-3.5-1.8-3.9-3.8c-0.5-2.6,1-4.8,4.3-6.8
				c-0.8-0.2-1.3-0.5-1.6-1c-0.3-0.5-0.5-1.2-0.7-2.3c-0.2-1.1,0.1-2.3,0.9-3.7c0.8-1.4,1.9-2.6,3.2-3.7c3-2.3,5.7-3.7,8.3-4.2
				c0.6-0.1,1.3-0.1,1.9,0.1C344.1,7588.4,344.5,7588.7,344.6,7589.3z"/>
		</g>
		<g class="st1">
			<path class="st2" d="M361,7603.5c0.1,0.8,0.8,1.1,1.9,0.9c0.6-0.1,1.3-0.5,2.1-1.3c0.8-0.8,1.5-1.5,2.1-2.4
				c1.6-2.3,2.5-3.4,2.8-3.5c0.5-0.1,0.8,0.6,1.1,2c0.2,1.4,0,2.4-0.8,3.1c-2.2,2.9-4,4.7-5.4,5.5c-0.8,0.4-1.6,0.7-2.6,0.9
				c-1,0.2-2-0.1-3.2-0.8c-1.1-0.7-1.8-1.6-2-2.8s-0.1-2.6,0.2-4.3c0.4-1.6,0.8-3.1,1.2-4.3c0.5-1.2,1.1-2.6,1.8-4.2
				c0.7-1.6,1.1-2.6,1.1-3h-0.1c-0.6,0.2-1.9,1.6-3.9,4.4s-3.7,5.2-4.9,7.2c-1.3,2-2.7,4.7-4.4,8c-0.5,0.9-0.9,1.4-1.3,1.5
				s-0.9,0-1.6-0.1s-1.1-0.2-1.3-0.3c-0.2-0.1-0.3-0.2-0.3-0.5c0-0.2,0-0.5,0-0.9c0.1-0.3,0.2-0.6,0.2-0.9c0.1-0.2,0.2-0.6,0.4-1.1
				s0.6-1.5,1.2-3.1s1.5-4,2.7-7.1c1.2-3.2,1.9-5.1,2.2-5.7c0.5-1.4,0.9-2.3,1.3-3c0.6-1.2,2-2,4-2.3c0.4-0.1,0.7,0.2,0.8,0.7
				c0.2,0.9-0.4,2.7-1.6,5.4l-0.9,2c2.6-4.1,4.9-6.9,6.9-8.2c1-0.7,1.9-1.1,2.8-1.2c0.9-0.2,1.6,0,2.2,0.3c0.6,0.4,0.9,0.8,1,1.4
				s0,1.3-0.2,2.1c-0.3,0.9-0.5,1.6-0.8,2.3c-0.3,0.7-0.7,1.6-1.2,2.6c-0.5,1.1-0.7,1.6-0.8,1.7c0,0.1-0.1,0.3-0.3,0.7
				c-0.2,0.4-0.3,0.7-0.4,0.9c-0.1,0.2-0.2,0.5-0.4,1c-0.2,0.5-0.3,0.9-0.4,1.2c-0.1,0.3-0.2,0.7-0.4,1.1c-0.2,0.5-0.3,0.8-0.4,1.2
				c-0.1,0.3-0.2,0.7-0.3,1.1C361,7602.5,360.9,7603,361,7603.5z"/>
		</g>
	</g>
</g>
</svg>
