<svg xmlns="http://www.w3.org/2000/svg" xmlns:xlink="http://www.w3.org/1999/xlink" width="118" height="118" viewBox="0 0 118 118">
  <defs>
    <clipPath id="clip-path">
      <rect id="長方形_2027" data-name="長方形 2027" width="76.713" height="42.503" fill="none"/>
    </clipPath>
  </defs>
  <g id="グループ_2427" data-name="グループ 2427" transform="translate(-500 -8327)">
    <circle id="楕円形_16" data-name="楕円形 16" cx="59" cy="59" r="59" transform="translate(500 8327)" fill="#fff"/>
    <g id="グループ_2072" data-name="グループ 2072" transform="translate(521 8365.5)">
      <g id="グループ_2072-2" data-name="グループ 2072" transform="translate(0 0)" clip-path="url(#clip-path)">
        <path id="パス_1556" data-name="パス 1556" d="M12.386,5.67a1.463,1.463,0,0,0-1.46,1.544v7.354c0,.836-.43,1.236-1.09,1.236a.988.988,0,0,1-.957-1.087L8.847,7.078a1.622,1.622,0,0,0-3.243,0v7.639A1.013,1.013,0,0,1,4.613,15.8c-.658,0-1.089-.4-1.089-1.236V7.214A1.463,1.463,0,0,0,2.065,5.67,1.53,1.53,0,0,0,.633,7.159c-.094.737-.579,6-.632,9.367a6.54,6.54,0,0,0,3.655,5.959,2.706,2.706,0,0,1,1.587,2.452l-.55,18.431H9.759l-.55-18.431a2.706,2.706,0,0,1,1.586-2.452,6.539,6.539,0,0,0,3.656-5.959c-.053-3.365-.537-8.63-.632-9.367A1.531,1.531,0,0,0,12.386,5.67" transform="translate(0 -0.865)" fill="#5b8dcd"/>
        <path id="パス_1557" data-name="パス 1557" d="M81.112,5.842c-3.506,0-7.225,3.741-7.225,9.617,0,3.366,2.544,6.1,3.656,7.081,1.088.961,1.587,1.347,1.587,2.452l-.55,18.43h5.067l-.551-18.43c0-1.106.5-1.491,1.588-2.452,1.111-.983,3.655-3.715,3.655-7.081,0-5.876-3.72-9.617-7.225-9.617" transform="translate(-11.624 -0.919)" fill="#5b8dcd"/>
        <path id="パス_1558" data-name="パス 1558" d="M62.358,20.705A20.7,20.7,0,1,1,41.653,0,20.706,20.706,0,0,1,62.358,20.705" transform="translate(-3.296 0)" fill="#5b8dcd"/>
      </g>
    </g>
  </g>
</svg>
