<svg xmlns="http://www.w3.org/2000/svg" xmlns:xlink="http://www.w3.org/1999/xlink" width="118" height="118" viewBox="0 0 118 118">
  <defs>
    <clipPath id="clip-path">
      <rect id="長方形_2029" data-name="長方形 2029" width="73.802" height="71.814" fill="none"/>
    </clipPath>
  </defs>
  <g id="グループ_2428" data-name="グループ 2428" transform="translate(-1100 -8327)">
    <circle id="楕円形_17" data-name="楕円形 17" cx="59" cy="59" r="59" transform="translate(1100 8327)" fill="#fff"/>
    <g id="グループ_2074" data-name="グループ 2074" transform="translate(1121 8349.769)">
      <g id="グループ_2074-2" data-name="グループ 2074" transform="translate(0 0)" clip-path="url(#clip-path)">
        <path id="パス_1565" data-name="パス 1565" d="M71.707,31.264H20.049L15.385,19.752a2.1,2.1,0,0,0-1.941-1.308H2.1a2.095,2.095,0,1,0,0,4.19h9.937L26.64,58.684c.005.012.009.024.015.037l2.582,6.373A7.632,7.632,0,1,0,39.75,72.159a7.536,7.536,0,0,0-.861-3.447H51.464a7.536,7.536,0,0,0-.861,3.447,7.637,7.637,0,1,0,7.637-7.637H33.526l-1.838-4.537h30.09a2.1,2.1,0,0,0,1.943-1.309L73.65,34.144a2.1,2.1,0,0,0-1.943-2.88M35.561,72.159a3.447,3.447,0,1,1-3.446-3.447,3.449,3.449,0,0,1,3.446,3.447m26.126,0a3.447,3.447,0,1,1-3.447-3.447,3.45,3.45,0,0,1,3.447,3.447M60.365,55.795H29.99L21.747,35.454H68.6Z" transform="translate(0 -7.98)" fill="#5b8dcd"/>
        <path id="パス_1566" data-name="パス 1566" d="M61.989,41.969,57.4,46.185l-2.63-5.652-5.857,2.137-.267-6.228-6.229-.267,2.137-5.858L38.9,27.687l4.216-4.595L38.9,18.5l5.653-2.631-2.137-5.857,6.229-.267.267-6.228,5.857,2.137L57.4,0l4.594,4.216L66.582,0l2.631,5.653L75.07,3.516l.267,6.228,6.229.267-2.137,5.857L85.082,18.5l-4.216,4.593,4.216,4.595-5.653,2.629,2.137,5.858-6.229.267-.267,6.228-5.857-2.137-2.631,5.652Z" transform="translate(-16.829 0)" fill="#fff"/>
        <path id="パス_1567" data-name="パス 1567" d="M63.493,7.332l4.2-3.856L70.1,8.646l5.357-1.954.244,5.7,5.7.244L79.443,17.99l5.17,2.405-3.856,4.2,3.856,4.2L79.443,31.2,81.4,36.56l-5.7.244-.244,5.7L70.1,40.547l-2.406,5.17-4.2-3.856-4.2,3.856-2.406-5.17L51.529,42.5l-.244-5.7-5.7-.244L47.542,31.2,42.372,28.8l3.856-4.2-3.856-4.2,5.17-2.405-1.954-5.357,5.7-.244.244-5.7,5.357,1.954,2.406-5.17Z" transform="translate(-18.333 -1.504)" fill="#5b8dcd"/>
        <path id="パス_1568" data-name="パス 1568" d="M56.26,30.447q4.7-1,5.765,4.02L63.393,40.9q1.07,5.029-3.629,6.027-4.72,1-5.788-4.025l-1.368-6.435q-1.066-5.017,3.653-6.022m.473,2.223a1.32,1.32,0,0,0-1.088.912,4.75,4.75,0,0,0,.09,2.222L57.1,42.238a4.786,4.786,0,0,0,.822,2.071,1.495,1.495,0,0,0,2.443-.519,4.779,4.779,0,0,0-.092-2.227l-1.367-6.435a4.756,4.756,0,0,0-.82-2.066,1.309,1.309,0,0,0-1.355-.393" transform="translate(-22.677 -13.102)" fill="#fff"/>
        <path id="パス_1569" data-name="パス 1569" d="M76.55,42.761,73.24,27.186l7.638-1.623.472,2.221-4.51.959.869,4.09,4.278-.909.473,2.223-4.278.909,1.5,7.042Z" transform="translate(-31.689 -11.06)" fill="#fff"/>
        <path id="パス_1570" data-name="パス 1570" d="M94.262,39l-3.31-15.575L98.589,21.8l.472,2.221-4.51.959.87,4.09,4.278-.909.473,2.223-4.278.909,1.5,7.041Z" transform="translate(-39.352 -9.431)" fill="#fff"/>
      </g>
    </g>
  </g>
</svg>
