<svg xmlns="http://www.w3.org/2000/svg" xmlns:xlink="http://www.w3.org/1999/xlink" width="118" height="118" viewBox="0 0 118 118">
  <defs>
    <clipPath id="clip-path">
      <rect id="長方形_2031" data-name="長方形 2031" width="51.857" height="80.071" fill="none"/>
    </clipPath>
  </defs>
  <g id="グループ_2432" data-name="グループ 2432" transform="translate(-500 -8980)">
    <circle id="楕円形_23" data-name="楕円形 23" cx="59" cy="59" r="59" transform="translate(500 8980)" fill="#fff"/>
    <g id="グループ_2077" data-name="グループ 2077" transform="translate(533.071 8998.965)">
      <g id="グループ_2076" data-name="グループ 2076" clip-path="url(#clip-path)">
        <path id="パス_1575" data-name="パス 1575" d="M51.754,27.519h0a24.464,24.464,0,0,0-4.007-12.113A33.3,33.3,0,0,0,41.91,8.675,44.069,44.069,0,0,0,32.353,2.23,32.811,32.811,0,0,0,28.54.6C28,.412,27.527.269,27.1.167c-.213-.05-.411-.089-.6-.119A3.848,3.848,0,0,0,25.929,0a3.691,3.691,0,0,0-.51.039A8.351,8.351,0,0,0,24.35.273,22.706,22.706,0,0,0,21.7,1.22a42.411,42.411,0,0,0-6.237,3.295,38.852,38.852,0,0,0-10.01,8.977,27.283,27.283,0,0,0-3.665,6.379A23.621,23.621,0,0,0,.1,27.518c-.067,1.312-.1,2.753-.1,4.3A106.089,106.089,0,0,0,1.036,46.5,80.427,80.427,0,0,0,3.581,58.338,50.832,50.832,0,0,0,6.813,66.57,27.623,27.623,0,0,0,14.39,76.2a18.559,18.559,0,0,0,5.26,2.848,19.074,19.074,0,0,0,6.278,1.023,18.877,18.877,0,0,0,7.33-1.424,19.181,19.181,0,0,0,5.237-3.29,28.934,28.934,0,0,0,6.657-9,63.5,63.5,0,0,0,5.3-17.5,105.261,105.261,0,0,0,1.4-17.04c0-1.545-.038-2.986-.1-4.3" fill="#5b8dcd"/>
        <path id="パス_1576" data-name="パス 1576" d="M45.164,31.509a16.609,16.609,0,0,0-32.49.031,4.961,4.961,0,0,0,.66,9.879c.093,0,.185,0,.277-.006a16.657,16.657,0,0,0,2.866,4.557L32.1,67.412l1.84-1.366-3.1-4.174L40.8,46.578a16.663,16.663,0,0,0,3.439-5.19,5.1,5.1,0,0,0,.548.031,4.962,4.962,0,0,0,.372-9.91" transform="translate(-3.134 -6.879)" fill="#fff"/>
        <path id="パス_1577" data-name="パス 1577" d="M38.467,58.936A4.981,4.981,0,1,0,41.989,60.4a4.974,4.974,0,0,0-3.523-1.459m2.318,5.96A2.532,2.532,0,0,1,39.871,66a2.525,2.525,0,0,1-2.384.231,2.519,2.519,0,0,1-1.107-.912,2.484,2.484,0,0,1-.429-1.4,2.514,2.514,0,0,1,4.6-1.4,2.486,2.486,0,0,1,.429,1.4,2.526,2.526,0,0,1-.2.978" transform="translate(-12.538 -22.068)" fill="#5b8dcd"/>
        <path id="パス_1578" data-name="パス 1578" d="M37.781,54.16c-3.383,0-6.127,1.64-6.127,3.665a2.564,2.564,0,0,0,.68,1.679,6.367,6.367,0,0,1,.953-1.212A6.37,6.37,0,0,1,43.229,59.5a2.564,2.564,0,0,0,.68-1.679c0-2.025-2.742-3.665-6.127-3.665" transform="translate(-11.853 -20.28)" fill="#5b8dcd"/>
      </g>
    </g>
  </g>
</svg>
