<svg xmlns="http://www.w3.org/2000/svg" xmlns:xlink="http://www.w3.org/1999/xlink" width="118" height="118" viewBox="0 0 118 118">
  <defs>
    <clipPath id="clip-path">
      <rect id="長方形_2030" data-name="長方形 2030" width="64.876" height="55.729" fill="none"/>
    </clipPath>
  </defs>
  <g id="グループ_2431" data-name="グループ 2431" transform="translate(-1596 -8538)">
    <circle id="楕円形_19" data-name="楕円形 19" cx="59" cy="59" r="59" transform="translate(1596 8538)" fill="#fff"/>
    <g id="グループ_2075" data-name="グループ 2075" transform="translate(1622.562 8569.136)">
      <g id="グループ_2075-2" data-name="グループ 2075" transform="translate(0 0)" clip-path="url(#clip-path)">
        <path id="パス_1571" data-name="パス 1571" d="M14.553,10.5A5.248,5.248,0,1,0,9.3,5.248,5.248,5.248,0,0,0,14.553,10.5" transform="translate(-4.588 0)" fill="#5b8dcd"/>
        <path id="パス_1572" data-name="パス 1572" d="M60.464,41.1v.008c.013,0,.024,0,.038,0s.024,0,.037,0V41.1a3.626,3.626,0,0,0,0-7.25v-.008c-.013,0-.024,0-.037,0s-.025,0-.038,0v.008a3.626,3.626,0,0,0,0,7.25" transform="translate(-28.063 -16.688)" fill="#5b8dcd"/>
        <path id="パス_1573" data-name="パス 1573" d="M103.234,10.5a5.248,5.248,0,1,0-5.248-5.248,5.248,5.248,0,0,0,5.248,5.248" transform="translate(-48.322 0)" fill="#5b8dcd"/>
        <path id="パス_1574" data-name="パス 1574" d="M59.567,25.614H52.633a7.12,7.12,0,0,0-6.34,3.88L42.049,41.908a1.025,1.025,0,0,1-1.61.285L37.8,39.907a4.27,4.27,0,0,0-2.9-1.137H29.978a4.27,4.27,0,0,0-2.9,1.137l-2.64,2.286a1.025,1.025,0,0,1-1.61-.285L18.583,29.494a7.12,7.12,0,0,0-6.34-3.88H5.309A5.9,5.9,0,0,0,0,30.925v17.64a2.3,2.3,0,0,0,2.3,2.3H3.908l.875,15.044a2.451,2.451,0,0,0,2.451,2.45h5.353a2.451,2.451,0,0,0,2.451-2.45l.875-15.044L15.9,40.126a.367.367,0,0,1,.694-.167l3.367,8.287a2.849,2.849,0,0,0,4.468.795l3.222-2.373a.367.367,0,0,1,.618.269l.012,9.314.606,10.414a1.7,1.7,0,0,0,1.7,1.7h3.7a1.7,1.7,0,0,0,1.7-1.7l.605-10.414.012-9.314a.367.367,0,0,1,.618-.269l3.222,2.373a2.848,2.848,0,0,0,4.467-.795l3.367-8.287a.367.367,0,0,1,.694.167l-.011,10.741.875,15.044a2.451,2.451,0,0,0,2.451,2.45h5.352a2.451,2.451,0,0,0,2.451-2.45l.875-15.044h1.607a2.3,2.3,0,0,0,2.3-2.3V30.925a5.9,5.9,0,0,0-5.31-5.311" transform="translate(0 -12.632)" fill="#5b8dcd"/>
      </g>
    </g>
  </g>
</svg>
