<svg xmlns="http://www.w3.org/2000/svg" width="621.03" height="442.041" viewBox="0 0 621.03 442.041">
  <path id="パス_1990" data-name="パス 1990" d="M205.2-143.941q-1.144,0-1.144-1.56a2.083,2.083,0,0,1,.884-2.028q.884-.468,3.016-1.56t2.964-1.456q.832-.364,2.6-1.2a20.139,20.139,0,0,1,2.86-1.144q1.092-.312,2.652-.832a24.538,24.538,0,0,1,6.5-.728,14.573,14.573,0,0,1,8.008,2.7,8.161,8.161,0,0,1,4.108,7.072q0,9.048-7.9,23.973a222.422,222.422,0,0,1-20.281,31.045Q197.087-73.531,181.695-56.89T151.638-27.145A223.393,223.393,0,0,1,124.025-5.72Q111.076,2.6,104.108,2.6q-14.769,0-14.769-13.417,0-18.825,21.321-54.394-41.5,49.09-69.475,63.338-7.28,3.744-11.128,3.744T20.645-2.86q-5.564-4.732-5.564-9.308,0-25.9,35.985-72.491,13.729-17.785,34.217-39.729-17.889,15.5-27.249,15.5-4.992,0-7.384-4.888a12.852,12.852,0,0,1-2.184-6.708q0-3.172,4.16-6.916t4.888-3.744a2.071,2.071,0,0,1,1.352.52q.624.52.624.936-1.456,1.56-1.456,2.028t1.248.468q1.248,0,20.8-11.908t21.425-11.908a20.089,20.089,0,0,1,10.4,2.964q4.992,2.964,4.992,4.992t-2.08,5.356q-2.08,3.328-24.753,32.605T57.1-60.79A218.641,218.641,0,0,0,42.018-36.141q-4.784,9.62-4.784,11.7t.624,2.08q4.368,0,31.253-26.365t51.222-52.106q24.337-25.741,26.469-28.549a12.982,12.982,0,0,1,4.628-4,18.053,18.053,0,0,1,7.488-1.2q13.937,0,13.937,5.3,0,2.184-6.084,9.256t-8.58,10.3q-13,16.537-28.965,46.594T113.26-24.649q0,2.288,1.508,2.288t8.944-5.876q7.436-5.876,19.6-17.577t27.665-28.965A341.881,341.881,0,0,0,200.572-113.1q14.093-21.061,14.093-26.469t-4.16-5.408Zm62.714,64.69a9.964,9.964,0,0,1,6.4,2.808q3.276,2.808,3.276,8.58T273.53-52.886A97.6,97.6,0,0,1,262.4-34.165a155.391,155.391,0,0,1-15.549,17.889,81.573,81.573,0,0,1-18.3,13.729q-9.828,5.356-17.837,5.356T197.867-2.236q-4.836-5.044-4.836-14.041t4.42-19.917A72.322,72.322,0,0,1,208.84-55.486,112.27,112.27,0,0,1,223.92-70.515q16.953-13.625,29.745-13.625,5.72,0,8.632,2.808a2.512,2.512,0,0,1,1.04,1.664v.624A35.861,35.861,0,0,1,267.914-79.251Zm-10.5,13.833h-.728q-3.64,0-3.64-5.3a56.318,56.318,0,0,0-15.913,8.736,76.9,76.9,0,0,0-14.873,14.769q-13.312,17.057-13.521,28.809,0,5.824,4.264,5.824T225.688-18.2a75.252,75.252,0,0,0,16.693-16.017,126.7,126.7,0,0,0,12.376-18.045q4.108-7.644,4.108-10.4T257.41-65.418Zm51.9,8.736q24.545-27.873,41.81-27.873a9.936,9.936,0,0,1,7.02,2.548,8.582,8.582,0,0,1,2.756,6.6q0,4.056-5.772,13.573t-10.66,16.069q-2.6,3.328-5.876,3.328a6.036,6.036,0,0,1-5.1-2.392,9.012,9.012,0,0,1-1.82-5.616q0-7.176,7.7-16.225l-.208-.208q-3.432.312-17,13.521T299.063-29.693q-9.516,10.452-20.645,25.429Q275.194.208,272.958.208a17.772,17.772,0,0,1-5.928-1.4,22.317,22.317,0,0,1-4.472-2.028,2.513,2.513,0,0,1-.78-2.08,8.716,8.716,0,0,1,.832-3.38,43.952,43.952,0,0,1,3.068-5.46q2.236-3.536,6.76-11.44t14.093-23.921q9.568-16.017,11.44-19.345a85.113,85.113,0,0,1,6.448-9.984q4.68-5.928,15.809-5.928,2.5,0,2.5,3.12,0,4.888-9.048,18.409ZM351.325,2.5,344.669,1.04q-3.016-.312-4.992-3.848-.52-.936-.676-1.144a.842.842,0,0,1-.156-.52,2.825,2.825,0,0,1,.208-.884q.208-.572.624-1.56a20.122,20.122,0,0,0,.728-2.028q2.184-7.384,36.505-69.475t35.933-64.014q1.612-1.924,2.392-2.808A8.155,8.155,0,0,1,417-146.75a13.115,13.115,0,0,1,1.456-.832q.468-.208,1.872-.676t2.912-.988a22.3,22.3,0,0,0,3.172-1.4q1.664-.884,2.288-1.248a3.171,3.171,0,0,1,1.612-.364,2.575,2.575,0,0,1,1.872.936,3.344,3.344,0,0,1,.884,2.392v.728q-.52,1.976-27.093,49.3T377.014-47.114q8.112-3.224,23.921-15.913T416.9-79.875q.156-4.16,2.86-6.032a10.115,10.115,0,0,1,5.876-1.872,7.552,7.552,0,0,1,5.408,2.132q2.236,2.132,2.132,6.968t-5.408,12.272A77.557,77.557,0,0,1,415.08-52.626q-15.913,13.521-26.521,17.889Q396.983-11.96,407.9-11.96q5.928-.832,14.561-9.672,3.224-3.224,6.24-6.5t3.692-3.9a2.734,2.734,0,0,1,1.924-.624q1.976,0,2.392,3.016a45.639,45.639,0,0,1,.416,6.24,11.071,11.071,0,0,1-.624,4.472Q433.488-13.1,423.3-4.732T403.951,3.64q-6.552,0-10.4-2.5t-6.032-4.16a26.343,26.343,0,0,1-4.472-4.524q-2.288-2.86-3.8-4.732a42.161,42.161,0,0,1-3.432-5.2q-1.924-3.328-2.756-4.732t-2.444-4.576q-1.612-3.172-1.82-3.484-1.872,3.848-4.16,8.32t-4.16,8.32q-1.872,3.848-3.432,7.02T354.5-1.352q-.988,2.08-1.092,2.184A2.293,2.293,0,0,1,351.325,2.5Zm214.088,14.97q-9.372,0-13.845-4.473Q535.594-3.195,535.594-5.751,523.027,0,506.945,0T480.639-6.177q-10.224-6.177-10.224-18.957,0-21.513,29.607-37.275Q491.5-78.6,491.5-90.738a27.511,27.511,0,0,1,9.159-20.768q9.159-8.626,20.874-8.626t18.531,5.858q6.816,5.857,6.816,15.655,0,20.022-25.986,35.784a283.258,283.258,0,0,0,21.939,36.21q7.881-3.621,11.608-7.987t3.728-11.608q0-2.343,3.834-2.343a15.1,15.1,0,0,1,7.668,2.236q3.834,2.237,3.834,5.431,0,14.484-22.365,26.625Q560.089-5.964,564.987-1.7a53.884,53.884,0,0,0,6.5,3.408,73.629,73.629,0,0,1,7.668,4.047q3.089,1.917,3.089,4.047t-4.9,4.9A23.9,23.9,0,0,1,565.414,17.466ZM506.839-14.7a58.524,58.524,0,0,0,20.022-3.621,201.739,201.739,0,0,1-22.152-35.145Q489.16-41.748,489.159-27.69q0,6.6,4.9,9.8T506.839-14.7Zm4.686-76.68q0,8.733,5.964,19.17.213-.213,2.556-2.236A31.144,31.144,0,0,0,522.813-77q.426-.533,2.45-2.556a23.607,23.607,0,0,0,2.662-2.982q.639-.958,2.982-4.367t2.343-10.011q0-7.881-9.8-7.881Q511.524-104.8,511.525-91.377ZM120.437,127.366q2.5,0,2.5,4a90.5,90.5,0,0,1-1.768,13.781q-1.352,6.552-14.977,18.721a99.454,99.454,0,0,1-36.089,20.8,76.627,76.627,0,0,1-23.141,3.744q-11.284,0-20.593-9.516a31.183,31.183,0,0,1-9.308-22.569,76.756,76.756,0,0,1,5.252-27.041,120.757,120.757,0,0,1,14.145-26.729A168.778,168.778,0,0,1,57.462,78.068,172.853,172.853,0,0,1,82.683,57.683,127.087,127.087,0,0,1,110.14,43.955a81.482,81.482,0,0,1,27.249-5.1,23.327,23.327,0,0,1,17.369,7.384,13.871,13.871,0,0,1,3.744,9.932q0,5.98-5.824,15.081A87.424,87.424,0,0,1,138.9,87.844a101.444,101.444,0,0,1-16.433,12.688q-8.476,5.2-13.573,5.2a12.849,12.849,0,0,1-8.736-3.172q-3.64-3.172-3.64-5.668a16.329,16.329,0,0,1,1.092-5.512q1.092-3.016,2.756-3.016a1.665,1.665,0,0,0-.416,1.04q0,1.248,3.588,1.248t12.012-6.344A97.393,97.393,0,0,0,130.785,70.06q6.812-7.9,6.812-11.856,0-2.7-3.64-2.7-9.776,0-26.989,9.1A159.084,159.084,0,0,0,74.051,88.052a146.11,146.11,0,0,0-27.3,34.061q-11.6,19.709-11.6,35.413,0,6.552,3.484,10.5t10.712,3.952q7.228,0,17.109-4.16a108.052,108.052,0,0,0,18.773-10.192q8.892-6.032,16.8-12.376a151.686,151.686,0,0,0,12.636-11.128q4.732-4.784,4.836-5.772T120.437,127.366Zm86.427-18.409q7.9,0,7.9,5.408a5.828,5.828,0,0,1-1.352,4.264q-1.352,1.352-5.772,9t-9.776,19.553q-5.356,11.908-6.916,20.333a10.607,10.607,0,0,0-.312,2.912q0,5.72,3.12,5.72t7.384-2.964a53.322,53.322,0,0,0,7.592-6.344q3.328-3.38,6.5-6.916t3.8-4.056a2.871,2.871,0,0,1,1.872-.52q1.976,0,2.392,3.016a45.639,45.639,0,0,1,.416,6.24,11.071,11.071,0,0,1-.624,4.472q-3.016,5.928-13.26,14.249t-18.617,8.32q-8.372,0-12.324-5.1a17.982,17.982,0,0,1-3.952-11.284,26.545,26.545,0,0,1,2.08-10.868A89.522,89.522,0,0,1,157.2,183.424q-11.18,7.8-18.253,7.8A16.043,16.043,0,0,1,127.4,186.96q-5.72-5.3-5.72-14.717a46.462,46.462,0,0,1,4.212-18.929,68.162,68.162,0,0,1,11.076-17.369,111.043,111.043,0,0,1,15.081-14.3q17.265-13.521,31.825-13.521A19.518,19.518,0,0,1,193.031,110a8.551,8.551,0,0,1,4.472,4.68q2.5-3.744,4.212-4.732A10.571,10.571,0,0,1,206.864,108.957ZM193.031,120.5q-17.785,0-36.817,19.761a87.135,87.135,0,0,0-12.428,16.953q-5.668,9.88-5.668,13.521t2.08,3.64q2.912,0,16.225-11.492t17.681-16.9Q178.887,139.95,193.031,120.5Zm55.226,10.816q24.545-27.873,41.81-27.873a9.936,9.936,0,0,1,7.02,2.548,8.582,8.582,0,0,1,2.756,6.6q0,4.056-5.772,13.573t-10.66,16.069q-2.6,3.328-5.876,3.328a6.036,6.036,0,0,1-5.1-2.392,9.012,9.012,0,0,1-1.82-5.616q0-7.176,7.7-16.225l-.208-.208q-3.432.312-17,13.521t-23.089,23.661q-9.516,10.452-20.645,25.429-3.224,4.472-5.46,4.472a17.772,17.772,0,0,1-5.928-1.4,22.317,22.317,0,0,1-4.472-2.028,2.513,2.513,0,0,1-.78-2.08,8.716,8.716,0,0,1,.832-3.38,43.952,43.952,0,0,1,3.068-5.46q2.236-3.536,6.76-11.44t14.093-23.921q9.568-16.017,11.44-19.345a85.113,85.113,0,0,1,6.448-9.984q4.68-5.928,15.809-5.928,2.5,0,2.5,3.12,0,4.888-9.048,18.409Zm111.908-21.113A16.055,16.055,0,0,1,354.6,122.27a18.01,18.01,0,0,1-12.636,5.2q-2.288,0-3.016-1.092a5.071,5.071,0,0,1-.728-2.86,14.1,14.1,0,0,1,.416-3.432,47.724,47.724,0,0,0-8.32,3.848,103.668,103.668,0,0,0-11.232,7.7q-6.656,5.1-6.656,7.592,0,.832,2.444.832a26.7,26.7,0,0,0,7.54-1.716,26.892,26.892,0,0,1,7.124-1.716,10.448,10.448,0,0,1,2.652.208A9.092,9.092,0,0,1,335.1,140a8.028,8.028,0,0,1,1.56,3.848q0,1.4-2.7,3.692a19.181,19.181,0,0,1-6.136,3.484,36.48,36.48,0,0,0-4.576,1.82Q301.3,165.119,301.3,169.7q0,8.112,13.833,8.112,8.84,0,17.785-5.616a140.624,140.624,0,0,0,13.677-9.724q6.084-4.94,7.7-6.084a5.007,5.007,0,0,1,2.444-1.144q2.7,0,2.7,6.032t-.728,7.956q-.728,1.924-4.16,4.732-22.257,18.1-42.122,18.1-10.608,0-16.953-2.912-11.648-5.3-11.648-16.225,0-14.353,19.865-21.737-3.952-1.768-5.1-4.524t-1.144-8.84q0-6.084,5.668-12.9A45.805,45.805,0,0,1,317,113.741q18.3-9.88,32.657-9.88a16.277,16.277,0,0,1,6.968,1.664Q360.166,107.189,360.166,110.205Zm67.6,0A16.055,16.055,0,0,1,422.2,122.27a18.01,18.01,0,0,1-12.636,5.2q-2.288,0-3.016-1.092a5.071,5.071,0,0,1-.728-2.86,14.1,14.1,0,0,1,.416-3.432,47.724,47.724,0,0,0-8.32,3.848,103.668,103.668,0,0,0-11.232,7.7q-6.656,5.1-6.656,7.592,0,.832,2.444.832a26.7,26.7,0,0,0,7.54-1.716,26.892,26.892,0,0,1,7.124-1.716,10.448,10.448,0,0,1,2.652.208A9.092,9.092,0,0,1,402.7,140a8.028,8.028,0,0,1,1.56,3.848q0,1.4-2.7,3.692a19.181,19.181,0,0,1-6.136,3.484,36.48,36.48,0,0,0-4.576,1.82Q368.9,165.119,368.9,169.7q0,8.112,13.833,8.112,8.84,0,17.785-5.616a140.624,140.624,0,0,0,13.677-9.724q6.084-4.94,7.7-6.084a5.007,5.007,0,0,1,2.444-1.144q2.7,0,2.7,6.032t-.728,7.956q-.728,1.924-4.16,4.732-22.257,18.1-42.122,18.1-10.608,0-16.953-2.912-11.648-5.3-11.648-16.225,0-14.353,19.865-21.737-3.952-1.768-5.1-4.524t-1.144-8.84q0-6.084,5.668-12.9a45.805,45.805,0,0,1,13.885-11.18q18.3-9.88,32.657-9.88a16.277,16.277,0,0,1,6.968,1.664Q427.768,107.189,427.768,110.205Zm30.057,21.113q24.545-27.873,41.81-27.873a9.936,9.936,0,0,1,7.02,2.548,8.582,8.582,0,0,1,2.756,6.6q0,4.056-5.772,13.573t-10.66,16.069q-2.6,3.328-5.876,3.328a6.036,6.036,0,0,1-5.1-2.392,9.012,9.012,0,0,1-1.82-5.616q0-7.176,7.7-16.225l-.208-.208q-3.432.312-17,13.521t-23.089,23.661q-9.516,10.452-20.645,25.429-3.224,4.472-5.46,4.472a17.772,17.772,0,0,1-5.928-1.4,22.317,22.317,0,0,1-4.472-2.028,2.513,2.513,0,0,1-.78-2.08,8.716,8.716,0,0,1,.832-3.38,43.952,43.952,0,0,1,3.068-5.46q2.236-3.536,6.76-11.44t14.093-23.921q9.568-16.017,11.44-19.345a85.113,85.113,0,0,1,6.448-9.984q4.68-5.928,15.809-5.928,2.5,0,2.5,3.12,0,4.888-9.048,18.409Z" transform="matrix(0.985, -0.174, 0.174, 0.985, 13.126, 254.363)" fill="none" stroke="#396cae" stroke-width="2"/>
</svg>
