<?xml version="1.0" encoding="utf-8"?>
<!-- Generator: Adobe Illustrator 28.1.0, SVG Export Plug-In . SVG Version: 6.00 Build 0)  -->
<svg version="1.1" id="レイヤー_1" xmlns="http://www.w3.org/2000/svg" xmlns:xlink="http://www.w3.org/1999/xlink" x="0px"
	 y="0px" viewBox="0 0 630.4 443.1" style="enable-background:new 0 0 630.4 443.1;" xml:space="preserve">
<style type="text/css">
	.st0{fill:#FFFFFF;}
</style>
<path id="パス_1991" class="st0" d="M78,92.9l7.2-3c1.6-0.4,3.3-0.2,4.8,0.4c1.3,0.6,2,1.3,2.1,2c0.1,1.1,0.1,2.1,0,3.2
	C92.1,97,91.7,110.8,91,137c-0.7,26.2-1.2,45.7-1.4,58.6c8.8-17.8,18.9-39.7,30.4-65.5c11.4-25.8,17.8-42.8,19-50.8
	c0.3-2.2,1-4.3,2.2-6.1c0.7-1.2,1.8-2.2,3.1-2.9c1.5-0.6,3.1-1,4.6-1.2c2.6-0.4,5.2-0.4,7.8,0c3.1,0.4,4.8,1.7,5.2,3.8
	c0.7,4-3.2,16.7-11.8,38S131.5,155,120,179.3c-11.5,24.3-21.3,43.6-29.4,58c-1.2,2.4-3.5,4.1-6.1,4.6c-2.8,0.5-5.7,0.5-8.5,0.1
	c-3.1-0.4-4.8-1.8-5.2-4.1c-1.3-7.5-1.1-44.8,0.6-111.8c-8.7,16.6-18.8,39.4-30.3,68.3c-12,29.9-18.6,48.4-19.6,55.2
	c-0.5,4.1-1.5,6.6-3,7.5c-1,0.7-2.2,1.1-3.4,1.3l-7.9,2.4c-1.6,0.3-3.2,0.1-4.6-0.6c-1.5-0.7-2.3-1.5-2.5-2.4
	c-0.5-2.7,1.8-11.6,7-26.5s11.3-31.2,18.6-49c7.3-17.7,15-35.1,23.4-52.1s15-28.7,20.1-34.9c1-1.3,2.4-2.1,3.9-2.4L78,92.9z
	 M217.7,65.2l4.8-1.1c1.8-0.3,2.8,0.2,3,1.6c0.1,0.3,0.1,0.6,0,1c-24.2,53.8-46.3,106.2-66.5,157.3c-1.1,2.7-2.2,4.4-3.3,4.9
	c-0.3,0.2-0.7,0.4-1,0.6c-3.2,1.9-5.5,3-6.8,3.2c-0.8,0.1-1.5,0.3-2.2,0.5c-0.4,0.7-1.2,1.3-2,1.4c-0.9,0.2-1.4,0.2-1.7,0.2
	c-0.8-0.1-1.7-0.2-2.5-0.4c-1.4-0.3-2.1-0.6-2.2-0.8c-0.6-3.3-0.8-5.4-0.7-6.1c0.6-5.1,6-20.2,16.4-45.2s21.1-49.6,32.2-73.6
	s18-37.6,20.7-40.6c1-1,2.2-1.6,3.6-1.8L217.7,65.2z M252.7,199c-10.7,13.6-24.9,21.9-42.5,25c-10.7,1.9-18.7,1-24-2.7
	c-3-2-5.1-6.1-6.2-12.3c-1.7-9.6,4.5-17,18.5-22.4c5.3-1.9,10.7-3.3,16.3-4.2c6.4-1.1,15.4-1.5,27-1.1c4.8-7.7,10.1-18.7,16.1-33
	c6-14.3,10.7-25.4,14.3-33.2s7.7-15.9,12.5-24.2c4.6-8.1,9.8-15.8,15.6-23.1C311.5,53.3,323.8,45,337,42.6c5.9-1,10.4-0.3,13.5,2.2
	c3.1,2.5,5.1,6,5.8,9.9c0.7,4.1-0.3,9.1-3.1,15.2c-2.7,6-6.2,11.6-10.4,16.6c-3.8,4.7-8,9.1-12.6,13.2c-4.2,3.7-7.7,5.9-10.4,6.3
	c-2.8,0.5-5.6-0.4-7.7-2.2c-2.4-2-3.8-4-4.2-6.2c-0.4-2.2-0.4-3.7,0.1-4.7c0.4-1,1-1.5,1.6-1.6c0.6-0.1,1.1,0.2,1.3,0.9
	c2.1-1.1,5.2-3.8,9.4-8.3c4-4.3,7.8-8.8,11.2-13.5c3.3-4.6,4.8-7.4,4.6-8.4s-0.9-1.4-2.1-1.2c-1.7,0.4-3.2,1.1-4.6,2.1
	c-2.7,1.9-5.1,4.1-7.3,6.5c-3.4,3.7-6.5,7.7-9.3,11.8c-7.9,11.3-16.1,26.7-24.8,46.3c-2,4.4-4.9,10.9-8.5,19.4
	c-7.5,17.2-12.9,29-16.2,35.4c36.7,3,62.5,3.2,77.5,0.6c7-1.2,11.7-3,14.2-5.2c0.5-0.6,1.2-1,1.9-1.3c0.3-0.1,0.6,0.2,0.7,0.7
	c0,0.9-0.1,1.8-0.5,2.6c-0.4,1.2-1.5,3.8-3.3,7.8s-3.2,6.4-4.3,7.3c-3,2.6-8.5,4.6-16.5,6c-7.7,1.4-15.5,2.2-23.3,2.3
	c-7.5,0.1-13.5,0-18.2-0.3c-4.6-0.3-11.5-1-20.7-2C261.6,199.9,255.6,199.2,252.7,199z M214.2,199.3c-8.9,1.6-13.2,3.4-12.9,5.5
	c0.1,0.8,1,1.4,2.7,1.7c1.9,0.3,3.8,0.3,5.6,0c6.7-1.2,13-4.2,18.2-8.6C223.3,198.1,218.7,198.6,214.2,199.3L214.2,199.3z M467,26.1
	c1.3-5.1,2.4-7.7,3.3-7.9l0.5-0.1c1-0.2,3.3,0.5,6.8,2.2c3.5,1.6,5.5,3.4,5.8,5.3c0.5,2.7-4.6,24.8-15.3,66.5s-16.9,65.1-18.6,70.2
	c-1.7,5.1-2.9,8.6-3.6,10.3c-0.8,2-1.8,4-3,5.9c-2,3.9-5.7,6.6-10,7.4c-1.6,0.3-3.2,0.8-4.6,1.5c-0.7,0.4-1.5,0.8-2.3,1.1
	c-2.2,0.4-3.4,0.1-3.5-1c0.1-0.9,0.2-1.8,0.4-2.7c0.3-1.6,5.2-19.5,14.6-53.9c-16.2,2.2-30.3,4.2-42.6,6
	c-9.1,16.7-16.9,33.9-23.6,51.7c-0.5,1.9-1.3,3.7-2.4,5.3c-1,1.2-2.4,1.9-4,2.1c-1.8,0.3-3.8-0.3-6.2-1.7c-2.2-1.2-3.7-3.3-4.2-5.8
	c-1.2-6.8,5-23,18.7-48.5c-8.3,1.5-13.5,2.6-15.6,3.4c-1.3,0.5-2.7,1-4.1,1.4c-1.8,0.3-3-1.1-3.6-4.2c-0.5-3.1,0.8-6.2,4-9.2
	c3.2-3,7.9-5,14.1-6.1c0.5-0.1,1.3-0.3,2.5-0.6c4.2-1,8.5-1.9,12.9-2.8c11.5-19.7,24.3-38.7,38.1-56.9
	c13.6-17.8,25.8-30.8,36.7-38.9c1.2-1.1,2.7-1.8,4.3-2.2C463.7,24,465.2,24.7,467,26.1z M462.4,41.8c-21.6,23.4-40.7,49.1-56.9,76.5
	c12.1-1.9,24.5-3.5,36.9-4.9C450.2,85,456.9,61.2,462.4,41.8L462.4,41.8z M477.5,174.5l-0.6,0.2c-0.5,0.1-1.6-0.4-3.3-1.5
	c-1.7-1.1-2.8-1.7-3.1-2c-0.5-0.3-0.9-0.5-1.4-0.8c-0.5-0.3-0.9-0.4-1.1-0.5c-0.3-0.2-0.5-0.3-0.8-0.5c-0.2-0.2-0.5-0.4-0.7-0.6
	c-0.1-0.2-0.3-0.3-0.5-0.5c-0.3-0.5-0.5-1.1-0.6-1.7c-0.1-1.2-0.1-2.4,0.1-3.6c0.3-2.4,6.1-10.3,17.5-23.4
	c11.4-13.2,28-31.8,49.8-56c0.3-3.9,0.7-8.6,1.2-14.2c0.5-5.6,0.9-10.1,1.2-13.5c0.3-3.4,0.6-6.9,0.8-10.6
	c0.5-6.9,0.7-10.9,0.6-11.8c-0.2-1-0.6-1.4-1.2-1.3c-2.5,0.4-7.5,5.4-14.9,14.7c-7.4,9.4-10.9,15.3-10.5,17.6
	c0.3,1.6-0.2,2.5-1.3,2.7c-0.8,0.1-2-0.5-3.8-1.8c-1.5-1-2.6-2.4-3.2-4c-0.4-1.3-0.8-2.4-1.2-3.3c-0.6-1.6-1.1-3.3-1.4-5
	c-0.6-3.5,1.8-8.9,7.3-16.1c5.5-7.3,11.8-14,18.8-20c7.1-6,12.4-9.4,15.9-10c3.2-0.7,6.6,0.1,9.2,2.2c2.6,2.1,4.3,5.4,5.1,10.1
	s0.2,18.3-1.8,41.1c33.1-36.2,50.6-55.1,52.4-56.6c1.8-1.6,4.8-2.7,8.9-3.4c4.3-0.7,8.7-0.6,12.9,0.3c1.4,0.3,2.2,0.9,2.3,1.8
	c0.1,0.9,0,1.8-0.3,2.5c-0.6,1.2-1.4,2.2-2.3,3.2c-1.1,1.3-3.5,3.7-7,7.4c-3.5,3.6-7.7,8-12.7,13.2c-11.5,12-30.4,32.7-56.8,61.9
	c-2.1,26.4-2.5,43.2-1.2,50.6c0.3,1.9,0.7,2.8,1.2,2.8c0.6-0.2,1.2-0.6,1.6-1.1c3.6-3.1,9.3-9.5,17.1-19.1
	c7.8-9.6,12.4-15.7,13.8-18.2c1.4-2.5,2.5-3.7,3.2-3.8c1-0.2,1.8,1,2.2,3.4l0.2,1.8c0,0.1,0.5,1,1.5,2.7c1.1,2,1.8,4.2,2.1,6.4
	c0.5,2.1,0.3,4.2-0.4,6.2c-1,2.1-2.1,4.2-3.3,6.2c-1.5,2.5-3.6,5.7-6.4,9.4c-2.8,3.8-5.8,7.4-9.1,10.7c-8,8.4-16,13.3-24.1,14.7
	c-3.9,0.7-7.9-0.3-11.1-2.6c-3.6-2.4-6-6.8-7.1-13.3c-1.1-6.5-1.3-17.6-0.4-33.5c-33.3,39.7-50.1,59.7-50.6,60
	c-0.4,0.3-0.8,0.5-1.3,0.5L477.5,174.5z M185.7,262l3.9,0.4c8.9-0.2,13.7,1.6,14.4,5.5c0.2,1.1-0.1,2.1-0.7,3
	c-7.8,9.9-18.4,21-32.1,33.2c-22.8,20.3-46.9,39-72,56.3c10.7,3.8,25.4,10.7,44.3,20.6c25.2,12.5,40.3,18.3,45.4,17.4
	c1.7-0.2,3.2-1.1,4.3-2.3c0.5-0.7,1.2-1.3,1.8-1.9c1.2-0.2,1.8,0.2,2,1.3c0.2,1-0.5,3.9-2,8.8c-1.5,4.9-2.9,8.2-4.3,9.9
	c-1.4,1.7-3.8,2.9-7.3,3.5s-8.4-0.3-14.8-2.7c-7.3-2.8-14.4-5.9-21.3-9.5c-7.8-3.9-15.5-8-23.3-12.1C104.4,383.3,91.4,377.4,85,376
	C69.8,413,62,432,61.6,433.3c-0.3,1.2-0.9,2.3-1.8,3.2c-0.4,0.6-1,1.1-1.6,1.4l-4.3,1.4l-3.6,0.4c-0.7,0.1-1.4,0.4-2,0.8
	c-0.3,0.4-0.8,0.7-1.2,0.9c-0.4,0.2-0.8,0.5-1.1,0.9c-0.4,0.4-0.9,0.7-1.5,0.7c-0.7,0.1-1.8-0.3-3.3-1.2s-2.3-1.8-2.4-2.6
	c0-1.6,0.2-3.1,0.7-4.6c0.6-2.2,9.9-23.5,27.7-63.7l-1.9,0.3c-4.6,0.8-7.1,0-7.5-2.5c-0.4-2.5,0.3-5.2,2.1-8.1
	c1.8-2.9,3.9-4.6,6.3-5c2.6-0.4,5.2-0.7,7.8-0.7c9.5-21.3,16.8-38,21.9-50.1c-6.6,8.8-13.5,13.9-20.6,15.1c-3.1,0.7-6.3-0.1-8.7-2.1
	c-2.3-1.9-3.9-4.6-4.4-7.5c-0.6-2.6-0.2-5.4,1-7.8c0.9-1.8,2.2-3.5,3.8-4.8c0.8-0.7,1.7-1.3,2.8-1.7c0.4-0.1,0.8,0.1,0.9,0.5
	c0,0.1,0,0.1,0,0.2l-0.4,2.6c0.2,1,1.7,1.2,4.7,0.7c2.9-0.5,6.7-2.9,11.4-7c4.7-4.2,9.3-8.3,13.7-12.5c4.5-4.1,8-6.4,10.5-6.9
	c2.5-0.4,4.2-0.4,5.1,0c0.7,0.4,1.5,0.6,2.4,0.7c0.6,0,1.2,0.2,1.7,0.5c0.5,0.3,0.9,0.7,1.3,1.1c0.5,0.6,1.1,1.1,1.8,1.4
	c0.8,0.5,1.4,1.3,1.6,2.3c0.2,1,0.1,2.1-0.3,3c-6.4,14.6-14.1,33-23.2,55.2c15.4-11.8,32.7-26.5,52.1-44.1
	c19.4-17.6,29.7-27.8,31-30.6C184.3,262.6,184.9,262.1,185.7,262z M248.8,323.3c2.4-0.3,4.8,0.3,6.8,1.7c2.5,1.5,4.1,4.1,4.7,7.9
	c0.7,3.8,0.2,8.9-1.4,15.5c-1.8,7.1-4.4,13.9-7.7,20.4c-3.5,7.1-7.6,13.9-12.2,20.3c-4.4,6.3-9.7,11.9-15.6,16.7
	c-5.8,4.7-11.4,7.5-16.6,8.4s-9.8,0-13.5-2.7c-3.8-2.8-6.2-7.1-7.2-13c-1-5.9-0.7-12.7,0.9-20.4c1.5-7.4,4.2-14.4,7.9-21
	c3.5-6.2,7.6-12,12.2-17.4c9.5-10.9,18.5-17.1,26.9-18.6c3.8-0.7,6.8-0.2,9,1.3c0.6,0.3,1.1,0.8,1.3,1.5l0.1,0.6
	C245.8,323.9,247.3,323.6,248.8,323.3L248.8,323.3z M240.9,338.8l-0.7,0.1c-2.4,0.4-3.9-1.1-4.5-4.6c-5.3,3-10.1,6.8-14.2,11.4
	c-4.8,5.1-8.9,10.9-12.1,17.1c-6.8,12.7-9.5,23-8.3,30.7c0.7,3.8,2.4,5.5,5.2,5s6.6-3.1,11.5-7.7c5.5-5.5,10.1-11.8,13.7-18.7
	c3.6-6.4,6.6-13,9.1-19.9c1.8-5.5,2.6-9.1,2.2-11C242.4,339.4,241.8,338.6,240.9,338.8L240.9,338.8z M277.5,377.6l0.2,1.7
	c0.3,1.7,1.3,3.2,2.7,4.1c1.1,0.9,2.5,1.3,3.9,1.2c7.4-1.2,14.6-3.7,21.1-7.5c5.9-3.6,8.6-6.6,8.2-9c-0.2-1.2-1.5-2-4-2.4
	c-4-0.6-8.1-1-12.1-1.1c-5.7-0.3-9.8-0.6-12.4-0.9c-2.1-0.2-4.1-0.5-6.2-1c-1.7-0.4-3.3-1-4.9-1.8c-3.6-1.7-5.8-4.8-6.6-9.2
	s0.1-9.2,2.6-14.2c2.6-5.1,6.2-9.7,10.4-13.5c4.6-4.1,9.4-7.8,14.6-11.1c10.5-6.7,19.6-10.8,27.3-12.1c7.6-1.3,12.5-0.5,14.9,2.4
	c0.8,1.1,1.3,2.4,1.5,3.7l0.1,0.7c0.6,3.6,0.4,6.6-0.8,8.9c-1.5,2.7-3.7,5.1-6.3,6.8c-3,2.2-5.5,3.5-7.5,3.9
	c-1.2,0.3-2.5,0.4-3.8,0.2c-0.5-0.2-1-0.5-1.5-0.8c-0.4-0.4-0.9-0.6-1.5-0.7c-0.5-0.1-0.9-0.6-1-1.4c-0.1-0.9,0.1-1.9,0.6-2.7
	c0.5-0.9,0.8-1.9,1-3c-4.8,1.1-9.4,3-13.6,5.6c-4.1,2.4-8,5.3-11.5,8.5c-2.7,2.5-5.3,5.3-7.6,8.2c-1.9,2.5-2.8,4.3-2.7,5.3
	c0.2,1,1.9,1.5,5.1,1.6c14.6,0.3,24.3,1.1,29.1,2.4s8.3,3,10.5,5.3c1.9,1.8,3.2,4.1,3.8,6.6c0.8,4.4-0.2,8.8-3,13.3
	c-2.9,4.6-6.7,8.7-11.2,11.8c-10,7.3-19.1,11.7-27.3,13.2c-8.2,1.4-14,1.2-17.6-0.8c-3.5-1.9-5.6-4.6-6.2-8
	c-0.6-3.3-0.3-6.8,0.9-9.9c1.2-3.2,3.2-5.1,5.9-5.5C275.8,375.7,277.3,376.2,277.5,377.6z M431.8,340.3c0.8,2.4,1.5,4.8,2,7.3
	c0.3,1.6,0.3,3.3-0.1,4.9c-0.8,2.3-1.9,4.4-3.3,6.4c-2,3.1-4.2,6-6.6,8.7c-6.5,7.3-13.6,11.6-21.5,13c-11.3,2-17.8-2-19.5-12
	c-1.5-8.7,3-27.3,13.5-55.8c0.4-1.1,0.6-1.8,0.8-2.2c-4.6,4.6-12.9,16.4-24.8,35.5c-12,19-19.8,32.4-23.5,40.1
	c-0.7,1.1-1.6,2-2.7,2.6c-1.1,0.8-2.3,1.5-3.6,1.8c-1.1,0.1-2.1,0-3.1-0.3c-0.7-0.3-1.4-0.5-2.2-0.5c-0.9,0.2-1.4-0.1-1.5-0.6
	c-0.1-0.6,0.6-3.9,2-10.1c1.4-6.1,3.4-13.8,5.8-22.9c6.7-25.3,17.5-58.5,32.4-99.7c5.2-14.4,9.4-24.8,12.7-31
	c2.3-4.4,7-7.3,14.1-8.5c1.5-0.3,2.4,0,2.8,0.9c0.4,0.9,0.7,1.8,0.8,2.8c0.2,1.1,0.2,2.1-0.1,3.2l-7.9,19.1
	c-15.7,37.7-27.1,68.7-34.2,92.9c8.4-14.9,16.9-26.7,25.7-35.5c5.4-5.5,9.7-8.6,12.8-9.1c2.9-0.5,5.8-0.6,8.7,0
	c2.7,0.5,4.4,2.7,5,6.5c0.2,1.4-1.1,6.8-4,16.3c-8.7,28.6-12.8,44.3-12.3,47.2s2,4.1,4.4,3.7c3.5-0.6,8.2-4.9,14.3-13
	c4.6-6.1,7.4-10,8.6-11.7c0.5-0.7,1.3-1.1,2.1-1.3c1-0.3,2.1,0.3,2.4,1.3C431.8,340.2,431.8,340.3,431.8,340.3L431.8,340.3z
	 M476.3,247.6c0.7,3.9-0.4,8.1-3.4,12.7c-2.9,4.6-6.4,7.2-10.3,7.9c-3.9,0.7-6.3-1-7-5.1c-0.7-4.1,0.3-8.3,3.1-12.6
	c2.8-4.3,6.3-6.9,10.4-7.6c1.6-0.4,3.3-0.1,4.7,0.8C475.2,244.6,476.1,246,476.3,247.6z M475.5,340c0.4,1.5,0.4,3,0.2,4.5
	c-2.3,7.6-6.8,14.4-13.1,19.4c-6.6,5.5-12.5,8.7-17.9,9.7c-5.2,1-10.5-0.1-14.9-3c-4.5-2.9-7.1-6.3-7.8-10
	c-0.7-3.8,0.2-9.6,2.7-17.4c2.5-7.8,5.1-15.1,7.8-21.9c2.7-6.7,4-10.4,3.9-10.9c-0.1-0.5-1-1.4-2.6-2.7c-1.7-1.3-2.6-2.2-2.7-3
	c-0.1-0.7,1-2.8,3.3-6.4c2.6-3.9,5.5-7.5,8.8-10.8c3.5-3.7,6.4-5.7,8.5-6.1c2.3-0.3,4.6,0.3,6.3,1.8c2,1.6,3.2,3.2,3.5,4.8
	s-5.2,17.8-16.5,48.7c-0.1,0.4-0.5,1.5-1.2,3c-0.7,1.6-1.2,2.9-1.5,3.9c-0.3,1-0.8,2.2-1.2,3.6c-0.8,2.3-1.1,4.8-0.8,7.2
	c0.4,2.3,2.2,3.2,5.3,2.7c3.5-0.7,6.7-2.5,9.2-5c2.8-2.6,5.4-5.5,7.5-8.7c5.2-8,8.2-12.1,9.1-12.3C473,331,474.4,333.9,475.5,340z
	 M528.9,275.3c0.8,4.6-0.5,9.3-3.4,12.9c-2.7,3.9-6.9,6.5-11.5,7.3c-1.5,0.3-2.6,0.1-3.2-0.6c-0.7-0.8-1.1-1.7-1.2-2.7
	c-0.2-1.1-0.3-2.3-0.2-3.5c-2.7,1.5-5.2,3.3-7.5,5.2c-3.4,3-6.7,6.1-9.7,9.5c-3.8,4.1-5.5,7-5.2,8.6c0.1,0.5,0.9,0.7,2.6,0.4
	c2.5-0.6,4.9-1.7,7.1-3c2.1-1.3,4.4-2.3,6.7-2.9c0.9-0.2,1.8-0.3,2.6-0.3c1.3,0.6,2.5,1.5,3.4,2.6c1,1,1.8,2.2,2.2,3.5
	c0.2,0.9-0.5,2.3-2,4.1c-1.5,1.8-3.4,3.3-5.4,4.5c-1.5,0.8-2.9,1.6-4.2,2.6c-13,10.6-19.2,17.4-18.7,20.4c0.9,5.3,6,7.2,15,5.6
	c5.8-1,11.3-3.9,16.5-8.6c4.2-3.7,8.1-7.7,11.8-12c3.4-3.9,5.6-6.4,6.5-7.3c0.6-0.7,1.3-1.2,2.2-1.6c1.8-0.3,3,1.5,3.7,5.5
	c0.7,4,0.9,6.6,0.7,8s-1.3,3.1-3.3,5.4c-12.5,14.5-25.3,22.9-38.3,25.2c-7,1.2-12.7,1.3-17.2,0.1c-8.3-2.1-13-6.8-14.3-14
	c-1.7-9.4,3.6-17.7,15.8-24.9c-2.8-0.7-4.7-1.9-5.8-3.6c-1.1-1.7-2-4.5-2.7-8.5c-0.7-4,0.4-8.6,3.3-13.7c3-5.2,7-9.8,11.7-13.4
	c10.9-8.6,21-13.7,30.4-15.4c2.4-0.4,4.8-0.2,7.2,0.4C527.1,272,528.6,273.3,528.9,275.3L528.9,275.3z M589.3,327.4
	c0.5,3,2.8,4.1,6.9,3.4c2.2-0.4,4.7-2,7.7-4.7c2.8-2.7,5.4-5.6,7.7-8.8c5.9-8.3,9.3-12.5,10.2-12.7c1.8-0.3,3.1,2.1,4,7.2
	c0.9,5.1-0.1,8.9-3,11.4c-8.2,10.5-14.8,17.2-19.8,20.1c-3,1.6-6.3,2.7-9.7,3.2c-3.6,0.6-7.5-0.4-11.6-2.8
	c-3.9-2.1-6.6-5.9-7.3-10.3c-0.8-4.4-0.5-9.6,0.8-15.6c1.1-5.3,2.7-10.6,4.6-15.7c1.7-4.4,3.9-9.6,6.5-15.5
	c2.6-5.9,3.9-9.5,3.9-10.9l-0.2-0.2c-2.2,0.6-7,6-14.4,16.3s-13.4,19.1-18.1,26.5c-4.7,7.4-10.1,17.2-16.3,29.4
	c-1.7,3.3-3.3,5.1-4.8,5.4c-2,0.2-4.1,0.1-6-0.4c-1.6-0.2-3.3-0.6-4.8-1.2c-0.6-0.3-1.1-1-1.1-1.7c-0.1-1.1-0.1-2.1,0.2-3.1
	c0.2-1.1,0.5-2.2,0.9-3.2c0.3-0.9,0.8-2.2,1.6-4c0.7-1.8,2.2-5.6,4.3-11.5c2.1-5.8,5.4-14.6,9.8-26.2c4.4-11.6,7.1-18.6,7.9-21
	c1.3-3.8,2.8-7.4,4.6-11c2.4-4.4,7.2-7.3,14.5-8.6c1.6-0.3,2.6,0.6,3,2.6c0.6,3.2-1.3,9.8-5.7,19.7l-3.2,7.2
	c9.5-15.2,18-25.3,25.5-30.2c3.1-2.2,6.6-3.7,10.3-4.5c2.7-0.6,5.6-0.2,8,1.2c2,1.1,3.4,3,3.8,5.2c0.3,2.6,0,5.3-0.8,7.9
	c-0.8,2.9-1.8,5.8-3,8.6c-1.1,2.5-2.5,5.8-4.3,9.7c-1.8,3.9-2.7,6-2.9,6.4c-0.2,0.3-0.5,1.3-1.2,2.7c-0.6,1.5-1.1,2.6-1.4,3.3
	c-0.3,0.7-0.8,1.9-1.5,3.6c-0.7,1.7-1.2,3.1-1.6,4.2c-0.4,1.1-0.9,2.5-1.5,4.2c-0.6,1.7-1,3.1-1.4,4.3c-0.3,1.2-0.6,2.5-1,3.9
	C589.1,323.2,589,325.3,589.3,327.4L589.3,327.4z"/>
</svg>
