<svg xmlns="http://www.w3.org/2000/svg" xmlns:xlink="http://www.w3.org/1999/xlink" width="131.845" height="39.648" viewBox="0 0 131.845 39.648">
  <defs>
    <clipPath id="clip-path">
      <rect id="長方形_625" data-name="長方形 625" width="131.845" height="39.648" fill="#fff"/>
    </clipPath>
  </defs>
  <g id="グループ_757" data-name="グループ 757" clip-path="url(#clip-path)">
    <path id="パス_1676" data-name="パス 1676" d="M34.383,12.521h7.31v3.384H30.322V.338h4.061ZM53.334,9.814a2.882,2.882,0,0,1-3.046,2.91,2.826,2.826,0,0,1-2.978-2.91V.338H43.249V9.746c0,3.723,2.707,6.565,7.039,6.565s7.107-2.775,7.107-6.565V.338H53.334Zm14.484,6.091H59.7V.338h7.851c3.79,0,5.279,2.166,5.279,4.264a3.36,3.36,0,0,1-2.1,3.249,3.792,3.792,0,0,1,2.64,3.587c0,2.572-1.9,4.467-5.55,4.467m-4.129-9.34H66.87c1.354,0,1.963-.609,1.963-1.557,0-.812-.609-1.624-2.03-1.624H63.622V6.565Zm3.384,6.227c1.354,0,2.166-.541,2.166-1.692,0-1.015-.745-1.692-2.166-1.692H63.757v3.384ZM53.131,30.525l-7.107-9.408H42.369V36.684H46.43V27.276l7.107,9.408h3.655V21.117H53.131ZM74.654,28.9c0,3.993-2.978,7.783-8.393,7.783h-6.5V21.117h6.5c5.347,0,8.393,3.79,8.393,7.783m-4.129,0a4.321,4.321,0,0,0-4.467-4.4H63.892v8.8h2.166a4.36,4.36,0,0,0,4.467-4.4M86.7,27.276H80.475V21.117H76.414V36.684h4.061V30.66h6.159v6.024h4.061V21.117H86.634Zm15.5-6.159,6.091,15.567h-4.129l-.744-2.166h-6.43l-.812,2.166H92.048l6.159-15.567Zm.068,10.288-2.1-5.888L98,31.4Zm20.711-10.288-4.67,7.513L113.5,21.117h-3.926V36.684H113.5v-9l3.519,5.482h2.369l3.52-5.55v9h3.926V21.049h-3.858Zm-85.957.068L33.3,27.75l-3.723-6.633H25.043L31.134,31.54v5.076h4.129V31.4l6.091-10.355ZM16.785,30.863l-3.113-9.746H10.491L7.445,30.863,4.264,21.117H0L5.685,36.684H9.137l3.046-9.2,2.978,9.2h3.452L24.3,21.117H20.034Zm4.129-14.552a8.332,8.332,0,0,0,7.377-4.129l-3.316-1.827a4.831,4.831,0,0,1-4.264,2.369A4.287,4.287,0,0,1,16.379,8.19a4.287,4.287,0,0,1,4.332-4.535,4.831,4.831,0,0,1,4.264,2.369l3.316-1.9A8.332,8.332,0,0,0,20.914,0C15.7,0,12.251,3.655,12.251,8.19s3.384,8.122,8.663,8.122" transform="translate(0 0)" fill="#fff"/>
  </g>
</svg>
