<svg xmlns="http://www.w3.org/2000/svg" xmlns:xlink="http://www.w3.org/1999/xlink" width="31" height="32" viewBox="0 0 31 32">
  <defs>
    <clipPath id="clip-path">
      <rect id="長方形_647" data-name="長方形 647" width="31" height="32" transform="translate(-1 -2)" fill="none"/>
    </clipPath>
  </defs>
  <g id="グループ_802" data-name="グループ 802" transform="translate(1 2)">
    <g id="グループ_801" data-name="グループ 801" clip-path="url(#clip-path)">
      <path id="パス_1679" data-name="パス 1679" d="M14.186,0A14.186,14.186,0,1,0,28.372,14.186,14.186,14.186,0,0,0,14.186,0" fill="#039be5"/>
      <path id="パス_1680" data-name="パス 1680" d="M19.009,19.923H22.68l.576-3.729H19.008V14.155c0-1.549.506-2.923,1.955-2.923h2.329V7.977a19.781,19.781,0,0,0-2.91-.176c-3.414,0-5.416,1.8-5.416,5.911v2.481h-3.51v3.729h3.51V30.173a14.215,14.215,0,0,0,2.122.175,14.279,14.279,0,0,0,1.92-.145Z" transform="translate(-2.903 -1.977)" fill="#fff"/>
    </g>
  </g>
</svg>
