<svg xmlns="http://www.w3.org/2000/svg" width="80" height="80" viewBox="0 0 80 80">
  <g id="グループ_12" data-name="グループ 12" transform="translate(-381 -356)">
    <g id="パス_22" data-name="パス 22" transform="translate(381 356)" fill="#00a1e0">
      <path d="M 40 78 C 34.8691520690918 78 29.89284706115723 76.99556732177734 25.20929336547852 75.01458740234375 C 20.68453025817871 73.10077667236328 16.62044715881348 70.36054992675781 13.1299409866333 66.87005615234375 C 9.639447212219238 63.37955474853516 6.899223327636719 59.31547164916992 4.985411643981934 54.79070663452148 C 3.004435300827026 50.10715484619141 2 45.1308479309082 2 40 C 2 34.8691520690918 3.004435300827026 29.89284706115723 4.985411643981934 25.20929336547852 C 6.899223327636719 20.68453025817871 9.639447212219238 16.62044715881348 13.1299409866333 13.1299409866333 C 16.62044715881348 9.639447212219238 20.68453025817871 6.899223327636719 25.20929336547852 4.985411643981934 C 29.89284706115723 3.004435300827026 34.8691520690918 2 40 2 C 45.1308479309082 2 50.10715484619141 3.004435300827026 54.79070663452148 4.985411643981934 C 59.31547164916992 6.899223327636719 63.37955474853516 9.639447212219238 66.87005615234375 13.1299409866333 C 70.36054992675781 16.62044715881348 73.10077667236328 20.68453025817871 75.01458740234375 25.20929336547852 C 76.99556732177734 29.89284706115723 78 34.8691520690918 78 40 C 78 45.1308479309082 76.99556732177734 50.10715484619141 75.01458740234375 54.79070663452148 C 73.10077667236328 59.31547164916992 70.36054992675781 63.37955474853516 66.87005615234375 66.87005615234375 C 63.37955474853516 70.36054992675781 59.31547164916992 73.10077667236328 54.79070663452148 75.01458740234375 C 50.10715484619141 76.99556732177734 45.1308479309082 78 40 78 Z" stroke="none"/>
      <path d="M 40 4 C 35.13827133178711 4 30.42408752441406 4.951286315917969 25.98839950561523 6.827415466308594 C 21.7020149230957 8.640403747558594 17.85161590576172 11.23668670654297 14.54415893554688 14.54415893554688 C 11.23668670654297 17.85161590576172 8.640403747558594 21.7020149230957 6.827415466308594 25.98839950561523 C 4.951286315917969 30.42408752441406 4 35.13827133178711 4 40 C 4 44.86172866821289 4.951286315917969 49.57591247558594 6.827415466308594 54.01160049438477 C 8.640403747558594 58.2979736328125 11.23668670654297 62.14836883544922 14.54415893554688 65.45584106445312 C 17.85161590576172 68.76331329345703 21.7020149230957 71.35960388183594 25.98839950561523 73.17258453369141 C 30.42408752441406 75.04871368408203 35.13827133178711 76 40 76 C 44.86172866821289 76 49.57591247558594 75.04871368408203 54.01160049438477 73.17258453369141 C 58.2979736328125 71.35960388183594 62.14836883544922 68.76331329345703 65.45584106445312 65.45584106445312 C 68.76331329345703 62.14836883544922 71.35960388183594 58.2979736328125 73.17258453369141 54.01160049438477 C 75.04871368408203 49.57591247558594 76 44.86172866821289 76 40 C 76 35.13827133178711 75.04871368408203 30.42408752441406 73.17258453369141 25.98839950561523 C 71.35960388183594 21.7020149230957 68.76331329345703 17.85161590576172 65.45584106445312 14.54415893554688 C 62.14836883544922 11.23668670654297 58.2979736328125 8.640403747558594 54.01160049438477 6.827415466308594 C 49.57591247558594 4.951286315917969 44.86172866821289 4 40 4 M 40 0 C 62.09138488769531 0 80 17.90859985351562 80 40 C 80 62.09138488769531 62.09138488769531 80 40 80 C 17.90859985351562 80 0 62.09138488769531 0 40 C 0 17.90859985351562 17.90859985351562 0 40 0 Z" stroke="none" fill="#fff"/>
    </g>
    <path id="パス_24" data-name="パス 24" d="M14.82.66A15.223,15.223,0,0,1,7.65-.96,11.032,11.032,0,0,1,2.88-5.88L7.44-8.4a6.832,6.832,0,0,0,2.91,3.12,9.233,9.233,0,0,0,4.23.9,9.48,9.48,0,0,0,3.06-.45,4.723,4.723,0,0,0,2.1-1.35,3.187,3.187,0,0,0,.78-2.16,2.587,2.587,0,0,0-1.23-2.34,10.256,10.256,0,0,0-3.12-1.23q-1.89-.45-4.08-.9a17.769,17.769,0,0,1-4.08-1.35,8.372,8.372,0,0,1-3.12-2.52,7.074,7.074,0,0,1-1.23-4.38,7.8,7.8,0,0,1,1.41-4.59,9.653,9.653,0,0,1,3.9-3.18A13.181,13.181,0,0,1,14.64-30a14.174,14.174,0,0,1,4.89.78,11.377,11.377,0,0,1,3.66,2.13,11.913,11.913,0,0,1,2.49,3.03l-4.56,2.58a5.59,5.59,0,0,0-2.64-2.7,8.727,8.727,0,0,0-3.72-.78,7.045,7.045,0,0,0-2.55.45,4.614,4.614,0,0,0-1.89,1.29,3.028,3.028,0,0,0-.72,2.04,2.482,2.482,0,0,0,1.23,2.22,10.783,10.783,0,0,0,3.12,1.26q1.89.48,4.08.96a19.932,19.932,0,0,1,4.08,1.35,8.109,8.109,0,0,1,3.12,2.49,7.183,7.183,0,0,1,1.23,4.44,7.7,7.7,0,0,1-1.59,4.83A10.153,10.153,0,0,1,20.61-.45,14.933,14.933,0,0,1,14.82.66ZM40.68,0H34.74V-32.46a11.834,11.834,0,0,1,1.29-5.58,9.53,9.53,0,0,1,3.81-3.9,12.283,12.283,0,0,1,6.18-1.44,14.511,14.511,0,0,1,2.85.27,10.691,10.691,0,0,1,2.49.81v5.64a7.862,7.862,0,0,0-2.25-.99,9.8,9.8,0,0,0-2.55-.33,6.611,6.611,0,0,0-4.29,1.29,5.141,5.141,0,0,0-1.59,4.23ZM51-24.24H29.16V-29.4H51Z" transform="translate(392 415)" fill="#fff"/>
  </g>
</svg>
