<svg xmlns="http://www.w3.org/2000/svg" width="80" height="80" viewBox="0 0 80 80">
  <g id="グループ_10" data-name="グループ 10" transform="translate(-179 -356)">
    <g id="パス_19" data-name="パス 19" transform="translate(179 356)" fill="#3a96a5">
      <path d="M 40 78 C 34.8691520690918 78 29.89284706115723 76.99556732177734 25.20929336547852 75.01458740234375 C 20.68453025817871 73.10077667236328 16.62044715881348 70.36054992675781 13.1299409866333 66.87005615234375 C 9.639447212219238 63.37955474853516 6.899223327636719 59.31547164916992 4.985411643981934 54.79070663452148 C 3.004435300827026 50.10715484619141 2 45.1308479309082 2 40 C 2 34.8691520690918 3.004435300827026 29.89284706115723 4.985411643981934 25.20929336547852 C 6.899223327636719 20.68453025817871 9.639447212219238 16.62044715881348 13.1299409866333 13.1299409866333 C 16.62044715881348 9.639447212219238 20.68453025817871 6.899223327636719 25.20929336547852 4.985411643981934 C 29.89284706115723 3.004435300827026 34.8691520690918 2 40 2 C 45.1308479309082 2 50.10715484619141 3.004435300827026 54.79070663452148 4.985411643981934 C 59.31547164916992 6.899223327636719 63.37955474853516 9.639447212219238 66.87005615234375 13.1299409866333 C 70.36054992675781 16.62044715881348 73.10077667236328 20.68453025817871 75.01458740234375 25.20929336547852 C 76.99556732177734 29.89284706115723 78 34.8691520690918 78 40 C 78 45.1308479309082 76.99556732177734 50.10715484619141 75.01458740234375 54.79070663452148 C 73.10077667236328 59.31547164916992 70.36054992675781 63.37955474853516 66.87005615234375 66.87005615234375 C 63.37955474853516 70.36054992675781 59.31547164916992 73.10077667236328 54.79070663452148 75.01458740234375 C 50.10715484619141 76.99556732177734 45.1308479309082 78 40 78 Z" stroke="none"/>
      <path d="M 40 4 C 35.13827133178711 4 30.42408752441406 4.951286315917969 25.98839950561523 6.827415466308594 C 21.7020149230957 8.640403747558594 17.85161590576172 11.23668670654297 14.54415893554688 14.54415893554688 C 11.23668670654297 17.85161590576172 8.640403747558594 21.7020149230957 6.827415466308594 25.98839950561523 C 4.951286315917969 30.42408752441406 4 35.13827133178711 4 40 C 4 44.86172866821289 4.951286315917969 49.57591247558594 6.827415466308594 54.01160049438477 C 8.640403747558594 58.2979736328125 11.23668670654297 62.14836883544922 14.54415893554688 65.45584106445312 C 17.85161590576172 68.76331329345703 21.7020149230957 71.35960388183594 25.98839950561523 73.17258453369141 C 30.42408752441406 75.04871368408203 35.13827133178711 76 40 76 C 44.86172866821289 76 49.57591247558594 75.04871368408203 54.01160049438477 73.17258453369141 C 58.2979736328125 71.35960388183594 62.14836883544922 68.76331329345703 65.45584106445312 65.45584106445312 C 68.76331329345703 62.14836883544922 71.35960388183594 58.2979736328125 73.17258453369141 54.01160049438477 C 75.04871368408203 49.57591247558594 76 44.86172866821289 76 40 C 76 35.13827133178711 75.04871368408203 30.42408752441406 73.17258453369141 25.98839950561523 C 71.35960388183594 21.7020149230957 68.76331329345703 17.85161590576172 65.45584106445312 14.54415893554688 C 62.14836883544922 11.23668670654297 58.2979736328125 8.640403747558594 54.01160049438477 6.827415466308594 C 49.57591247558594 4.951286315917969 44.86172866821289 4 40 4 M 40 0 C 62.09138488769531 0 80 17.90859985351562 80 40 C 80 62.09138488769531 62.09138488769531 80 40 80 C 17.90859985351562 80 0 62.09138488769531 0 40 C 0 17.90859985351562 17.90859985351562 0 40 0 Z" stroke="none" fill="#fff"/>
    </g>
    <path id="パス_20" data-name="パス 20" d="M20.72.77A16.68,16.68,0,0,1,13.79-.56,17.712,17.712,0,0,1,8.05-4.445,18.409,18.409,0,0,1,4.2-10.22a17.69,17.69,0,0,1-1.4-7,17.439,17.439,0,0,1,1.4-6.965,18.522,18.522,0,0,1,3.85-5.74,17.259,17.259,0,0,1,5.74-3.85,17.905,17.905,0,0,1,6.93-1.365,18.42,18.42,0,0,1,8.82,2.17,15.357,15.357,0,0,1,6.44,6.86l-5.74,3.22a10.351,10.351,0,0,0-4.025-4.27,11,11,0,0,0-5.495-1.4,10.226,10.226,0,0,0-5.5,1.54,11.674,11.674,0,0,0-3.99,4.13A11.085,11.085,0,0,0,9.73-17.22a11.217,11.217,0,0,0,1.505,5.74,11.974,11.974,0,0,0,3.99,4.165,10.057,10.057,0,0,0,5.5,1.575,10.791,10.791,0,0,0,5.495-1.435A10.7,10.7,0,0,0,30.24-11.41l5.74,3.15a15.636,15.636,0,0,1-6.44,6.825A18.186,18.186,0,0,1,20.72.77Z" transform="translate(199 413)" fill="#fff"/>
  </g>
</svg>
