<svg xmlns="http://www.w3.org/2000/svg" viewBox="0 0 10.5 10.4"><defs><style>.cls-1,.cls-3{fill:#fff;}.cls-1,.cls-2{stroke:#888;stroke-miterlimit:10;}.cls-2{fill:#888;}</style></defs><g id="レイヤー_2" data-name="レイヤー 2"><g id="レイヤー_1-2" data-name="レイヤー 1"><path class="cls-1" d="M9.9,1.1A.5.5,0,0,0,9.4.6H9.3L5.8.5H5.74A.47.47,0,0,0,5.3,1v.06a.47.47,0,0,0,.5.44H8.1L3.7,5.9a.78.78,0,0,0-.1.8.58.58,0,0,0,.4.1.58.58,0,0,0,.4-.1L8.93,2.17,9,4.5v.06A.47.47,0,0,0,9.5,5h.06A.47.47,0,0,0,10,4.5Z"/><path class="cls-2" d="M9.1,5.9a.5.5,0,0,0-.5.5V8.9H1.5V1.8H4a.47.47,0,0,0,.44-.5V1.24A.47.47,0,0,0,3.9.8h-3a.47.47,0,0,0-.44.5V9.46A.47.47,0,0,0,1,9.9H9.1a.54.54,0,0,0,.5-.5v-3A.5.5,0,0,0,9.1,5.9Z"/></g><g id="レイヤー_2-2" data-name="レイヤー 2"><path class="cls-3" d="M9.9,1.1A.5.5,0,0,0,9.4.6H9.3L5.8.5H5.74A.47.47,0,0,0,5.3,1v.06a.47.47,0,0,0,.5.44H8.1L3.7,5.9a.78.78,0,0,0-.1.8.58.58,0,0,0,.4.1.58.58,0,0,0,.4-.1L8.93,2.17,9,4.5v.06A.47.47,0,0,0,9.5,5h.06A.47.47,0,0,0,10,4.5Z"/><path class="cls-3" d="M9.1,5.9a.5.5,0,0,0-.5.5V8.9H1.5V1.8H4a.47.47,0,0,0,.44-.5V1.24A.47.47,0,0,0,3.9.8h-3a.47.47,0,0,0-.44.5V9.46A.47.47,0,0,0,1,9.9H9.1a.54.54,0,0,0,.5-.5v-3A.5.5,0,0,0,9.1,5.9Z"/></g></g></svg>