<?xml version="1.0" encoding="UTF-8"?><svg id="_レイヤー_2" xmlns="http://www.w3.org/2000/svg" viewBox="0 0 173.35 147.87"><defs><style>.cls-1{fill:#fff;}.cls-2{opacity:.5;}</style></defs><g id="_レイヤー_1-2"><g id="_グループ_9"><g id="_グループ_1" class="cls-2"><path id="_パス_16" class="cls-1" d="M166.63,122.17c-2.1,0-4-1-5.3-2.6-.9-1.1-19.5-23.8-67.2-7.6-30,10.2-53.6,2.6-68.2-5.6-9.4-5.3-17.8-12.2-24.6-20.6-2.2-3-1.6-7.1,1.3-9.4,3-2.2,7.1-1.6,9.4,1.3,5.8,7,12.9,12.8,20.9,17.2,17.6,9.8,36.8,11.3,56.9,4.4,57.5-19.6,81.3,10.9,82.2,12.2,2.2,3,1.6,7.2-1.4,9.4-1.1.8-2.5,1.3-4,1.3h0Z"/><path id="_パス_15" class="cls-1" d="M63.83,40.17c-1.2,0-2.4-.4-3.5-1-2.5-1.6-3.7-4.6-2.9-7.5,2.3-8.9,9.4-24.6,31.2-31.3,3.2-1.1,6.7.3,8.3,3.3,1.6,3.3.3,7.3-3,9-.3.2-.7.3-1,.4-15.1,4.6-20.6,14.5-22.5,22-.9,3-3.5,5-6.6,5.1Z"/><path id="_パス_14" class="cls-1" d="M134.83,147.87H47.03c-3.8,0-6.8-3.1-6.8-6.9V53.27c0-3.8,3.1-6.8,6.8-6.8h87.8c3.7,0,6.8,3.1,6.8,6.8v87.8c-.1,3.7-3.1,6.8-6.8,6.8ZM53.63,134.57h74.4c.1,0,.1-.1.1-.1h0V59.97c0-.1-.1-.1-.1-.1H53.63c-.1,0-.2.1-.2.1v74.4c.1.1.1.2.2.2Z"/><path id="_パス_13" class="cls-1" d="M73.03,73.97c-3.6,0-6.6,3-6.5,6.6,0,3.6,3,6.6,6.6,6.5,3.6,0,6.6-3,6.5-6.6,0-1.7-.7-3.4-2-4.6-1.1-1.2-2.8-1.9-4.6-1.9Z"/><path id="_パス_12" class="cls-1" d="M106.93,73.97c-3.6,0-6.5,3-6.5,6.6s3,6.5,6.6,6.5,6.5-3,6.5-6.6-2.9-6.5-6.6-6.5h0Z"/></g></g></g></svg>