<?xml version="1.0" encoding="utf-8"?>
<!-- Generator: Adobe Illustrator 26.5.0, SVG Export Plug-In . SVG Version: 6.00 Build 0)  -->
<svg version="1.1" id="レイヤー_1" xmlns="http://www.w3.org/2000/svg" xmlns:xlink="http://www.w3.org/1999/xlink" x="0px"
	 y="0px" viewBox="0 0 25 25" style="enable-background:new 0 0 25 25;" xml:space="preserve">
<path id="arrow-right" d="M0.4,6.8c0-0.2,0.1-0.4,0.2-0.6C0.8,6.1,1,6,1.2,6s0.4,0.1,0.6,0.2L12.6,17L23.2,6.4
	c0.1-0.1,0.2-0.2,0.4-0.2c0.1,0,0.3,0,0.4,0s0.3,0.1,0.4,0.2c0.2,0.2,0.2,0.4,0.2,0.6s-0.1,0.4-0.2,0.6L13.2,18.8
	c-0.1,0.1-0.2,0.1-0.3,0.2c-0.1,0-0.2,0.1-0.3,0.1s-0.2,0-0.3-0.1c-0.1,0-0.2-0.1-0.3-0.2L0.6,7.4c0-0.1-0.1-0.2-0.1-0.3
	C0.4,7,0.4,6.9,0.4,6.8z"/>
</svg>
