<svg xmlns="http://www.w3.org/2000/svg" width="1003.9" height="90.6" viewBox="0 0 1003.9 90.6">
  <g id="グループ_1931" data-name="グループ 1931" transform="translate(-119.8 -226.2)">
    <path id="パス_1319" data-name="パス 1319" d="M27-23.6c-4,0-8-.2-12-.2-3.3,0-3.2.9-3.2,6,0,3.4,0,5.3,2.8,5.3,4.1,0,8.3-.2,12.4-.2H73c4.1,0,8.3.2,12.4.2,2.8,0,2.8-1.9,2.8-5.2,0-5.2.1-6.1-3.2-6.1-4,0-8,.2-12,.2ZM37-65.8c-4.3,0-8.6-.2-12.9-.2-2.5,0-2.8.9-2.8,5.5,0,4-.1,5.8,3,5.8,4.2,0,8.4-.2,12.6-.2H63.1c4.2,0,8.4.2,12.6.2,3.1,0,3-1.8,3-5.7,0-4.6-.2-5.6-2.8-5.6-4.3,0-8.6.2-12.9.2Zm83.3,12.5c-4.3,0-8.6-.2-12.8-.2-2.8,0-2.9.7-2.9,5.8,0,3.9,0,4.9,2.8,4.9,4.3,0,8.5-.2,12.7-.2h37.2c1.6,0,4.3-.2,4.3,2.2,0,1.3-2,5.2-2.7,6.5-6.4,11.5-18.7,23-30.7,28.4-1,.5-3.5,1.4-3.5,2.6,0,1.7,4.6,7.4,6.9,7.4,3.1,0,13.9-7.7,16.7-10A83.49,83.49,0,0,0,169-29.5,69.571,69.571,0,0,0,174.8-43a25.641,25.641,0,0,0,1.3-4.1c0-1.8-5-6.6-7.1-6.6a11.019,11.019,0,0,0-1.8.2c-2.1.2-6.7.2-9,.2ZM127-74.9c-3.9,0-9-.3-11.8-.3-2.5,0-2.7,1.2-2.7,5.9,0,3.7,0,4.9,2.8,4.9,3.9,0,7.8-.2,11.7-.2h24.5c3.9,0,7.8.2,11.8.2,2.7,0,2.7-1.3,2.7-4.7,0-5-.2-6.1-2.7-6.1-2.6,0-7.7.3-11.8.3ZM246.4-54.2c-1.1,0-1.2,1.1-1.3,2a58.025,58.025,0,0,1-8.2,22.7c-7.2,11.7-18.1,17.6-31,21.1-1,.3-1.6.7-1.6,1.8,0,1.4,3.7,6.9,5.6,6.9A17.677,17.677,0,0,0,213-.5c10.7-3.4,19.9-8.8,27.2-17.4,6.9-8.3,10.7-17.7,13.7-28,.4-1.2.5-1.5,1.3-2.1.5-.4,1.2-.8,1.2-1.5,0-1-1-1.5-1.8-1.8C253.4-51.8,247.3-54.2,246.4-54.2Zm-17.7,3.6c-1.7-2.8-3.6-5.6-5-5.6-1.3,0-6.7,2.5-6.7,4.2a3.373,3.373,0,0,0,.9,2,107.718,107.718,0,0,1,7,11.8c.4.8,1,1.9,2,1.9,1.4,0,7.2-2.6,7.2-4.6,0-1.3-3.6-6.8-4.5-8.2Zm-25.3,0c-1.3,0-6.7,2.5-6.7,4.3a3.7,3.7,0,0,0,.8,1.8,98.9,98.9,0,0,1,7.2,12.1c.4.8.9,1.7,1.9,1.7,1.2,0,7.2-2.5,7.2-4.6,0-1.3-3.4-6.5-4.3-7.9-1-1.6-3.3-5.2-4.4-6.5A2.227,2.227,0,0,0,203.4-50.6ZM310.8-64.1c-1-.1-1.7-.6-1.7-1.7,0-.8,1.4-2.8,1.8-3.6,1.7-3.1,2-3.6,3.4-4.1.4-.2.9-.6.9-1.1,0-1.1-5.1-3-6-3.5a33.359,33.359,0,0,0-5.3-2.2c-.9,0-1.2,1.4-1.6,2.4-4.6,12.6-16.2,27.5-26.7,35.8a1.568,1.568,0,0,0-.9,1.4c0,2.1,7.3,5.9,8.5,5.9,2.7,0,14.2-13.7,16.1-16.4,1.3-1.8,1.9-2.8,4.2-2.8h19c1.4,0,3,.1,3,1.4,0,2.5-6,12.2-7.7,14.7-9.9,14.6-22.5,24.8-38.6,32-.8.3-2,.8-2,1.8,0,1.9,6.3,6.8,8.5,6.8,2.1,0,11.5-5.9,13.7-7.3,18.4-11.9,28.2-26.5,38-45.5a58.888,58.888,0,0,1,3.1-5.4,6.349,6.349,0,0,0,1.2-2.5c0-1.3-4.4-6.8-6.4-6.8-.4,0-.8.1-1.1.1a23.776,23.776,0,0,1-5.6.6Zm70-4.1c-4.4,0-8.7-.2-13-.2-2.5,0-2.4,1.5-2.4,5,0,4.6-.2,6.1,2.5,6.1,4.3,0,8.6-.2,12.9-.2h20.7c1.5,0,2.9.2,2.9,1.7,0,.9-1.2,2.6-1.7,3.4-10.1,15.8-26.9,31.1-44.6,37.9-.9.3-2.1.8-2.1,2,0,1.8,4.6,8.5,6.7,8.5.9,0,3.5-1.4,4.4-1.9a111.318,111.318,0,0,0,25-17.5c.8-.7,1.7-1.7,3-1.7a3.523,3.523,0,0,1,2.3.9c8.9,6.4,14.9,11.2,22.1,19.8A3.343,3.343,0,0,0,422-2.9c2.1,0,7.6-5.9,7.6-8a1.91,1.91,0,0,0-.7-1.4c-2.3-2.4-4.8-4.7-7.2-6.8A160.587,160.587,0,0,0,404.8-32a2.672,2.672,0,0,1-1.5-2.4,2.732,2.732,0,0,1,.8-1.9,144.968,144.968,0,0,0,13-19c.4-.7,1-1.7,1.6-2.6,1.1-1.8,2.2-3.4,2.2-3.9,0-1.3-4.3-6.8-6.4-6.8-.6,0-1.6.2-2.2.2a26.887,26.887,0,0,1-4.3.2Zm95.5,8c1.1,0,1.6.8,1.6,1.8,0,4.8-1.9,14.7-3.2,19.5-2.8,10.2-8.4,21.6-13.4,21.6-5.1,0-6.4-9.3-6.4-13,0-12.7,6.6-23.4,18-28.8A11.249,11.249,0,0,1,476.3-60.2Zm9.6-11.7c-23.6,0-41.5,18.6-41.5,42,0,4.7.9,10.1,3.1,14.2,2.7,5.1,7.5,9.5,13.6,9.5,5.5,0,9.9-3.7,13.2-7.7,9.6-11.5,13.1-29.3,14.2-43.9.1-1.7.1-3.9,2.4-3.9a17.465,17.465,0,0,1,3.8.9c10.4,3.6,16,13.2,16,23.9,0,14.3-10.3,22.9-23.4,26-1,.2-2.5.4-2.5,1.4,0,2.2,4.1,8.4,6.7,8.4,2.4,0,8.6-2.8,10.9-4a35.931,35.931,0,0,0,19.5-32.3A33.824,33.824,0,0,0,511.8-62C504.7-69,495.7-71.9,485.9-71.9ZM665-70a2.862,2.862,0,0,1,2.8-2.8h30.8a2.862,2.862,0,0,1,2.8,2.8v.9a2.862,2.862,0,0,1-2.8,2.8H667.8a2.862,2.862,0,0,1-2.8-2.8Zm46.5-2c0-1.7.1-3.3.1-5,0-3.2-2-3.8-4.8-3.8-2.5,0-5.1.2-7.6.2h-32c-2.5,0-5.1-.2-7.7-.2-2.8,0-4.7.6-4.7,3.8,0,1.7.2,3.3.2,5v4.9c0,1.6-.2,3.3-.2,5,0,3.3,2.1,3.8,4.9,3.8,2.5,0,5-.2,7.5-.2h32c2.6,0,5.1.2,7.7.2,2.8,0,4.7-.6,4.7-3.8,0-1.7-.1-3.4-.1-5Zm-7.3,48.5a2.311,2.311,0,0,1,2.4,2.4v.9a2.232,2.232,0,0,1-2.4,2.3H661.8a2.181,2.181,0,0,1-2.4-2.3v-.9a2.257,2.257,0,0,1,2.4-2.4Zm0-11.5a2.311,2.311,0,0,1,2.4,2.4v.6a2.311,2.311,0,0,1-2.4,2.4H661.8a2.257,2.257,0,0,1-2.4-2.4v-.6a2.257,2.257,0,0,1,2.4-2.4Zm2.4-8.5a2.311,2.311,0,0,1-2.4,2.4H661.8a2.257,2.257,0,0,1-2.4-2.4v-.7a2.257,2.257,0,0,1,2.4-2.4h42.4a2.311,2.311,0,0,1,2.4,2.4ZM692.4-8.7c-.5.7-2,2.5-2,3.4,0,.8.6,1.2,1.5,1.7a88.505,88.505,0,0,0,12.5,5.7c3.4,1.2,14.4,4.7,17.5,4.7,2.5,0,4.4-5.7,4.4-6.9,0-1.5-1.3-1.7-2.4-1.9a97.58,97.58,0,0,1-23.6-7.2.675.675,0,0,1-.4-.6c0-.5.4-.6.8-.6h1.4c3,0,6,.1,9,.1,3.1,0,6-.4,6-4.2,0-2.2-.2-4.3-.2-6.5V-43.5c0-2.1.2-4.3.2-6.5,0-3.8-3-4.1-6.1-4.1-2.9,0-5.9.1-8.9.1H663.8c-3,0-6-.1-8.9-.1-3.1,0-6.1.4-6.1,4.2,0,2.1.2,4.3.2,6.4V-21c0,2.2-.2,4.3-.2,6.5,0,3.8,3,4.2,6.1,4.2,3,0,5.9-.1,8.9-.1h.8c.4,0,.8.1.8.6a.634.634,0,0,1-.5.6c-6,2.9-15.3,5.3-22,6.1-2.5.3-3.6.4-3.6,1.7,0,1.1,1.4,7.4,4.8,7.4,4.1,0,18.1-4.5,22.2-6.2,1.6-.7,6-2.8,7.1-2.8.3,0,.7.1,1,.1a4.253,4.253,0,0,0,1.1.2c.6,0,1-.3,1-.9,0-.9-2.5-3.9-3.2-4.8a1.4,1.4,0,0,1-.3-.9c0-.8.7-1.1,1.4-1.1h17.2c.6,0,1.1.2,1.1.9A1.33,1.33,0,0,1,692.4-8.7Zm86.4-74.2c-1,0-1.2,1-1.4,2.1-.7,2.9-3.7,10.7-5.4,12.9-.9,1.2-3.6,1.3-6.2,1.3h-2.9c-2.9,0-5.5-.2-7.2-.2-2.5,0-2.9.6-2.9,4.6,0,5.1.4,5.6,2.6,5.6,3.1,0,5.4-.3,7-.3,1.4,0,2.2.3,2.2,1.2,0,1.9-14.5,22-16.8,24.5-.5.6-1.3,1.4-1.3,2.2,0,1.8,6.7,5.8,8.5,5.8a1.663,1.663,0,0,0,1.4-1c2.1-3.6,5.5-8.8,8.4-11.7,3.9-4,13.1-8.8,18.7-8.8a4.16,4.16,0,0,1,4.4,3.4,13.736,13.736,0,0,1,.5,2.8c0,1.2-.8,1.8-1.8,2.3-2.1,1-4.2,2.1-6.2,3.3-6.9,4.1-14.2,9-14.2,18,0,6.8,3.9,11.6,10,14.3C781.5,1.7,786.3,2,792,2c4.3,0,15.4-.4,19.2-1.3,2.2-.5,2.3-1.3,2.3-4.3,0-5.7-.7-6.8-2-6.8a12.31,12.31,0,0,0-2,.2,73.116,73.116,0,0,1-18.6,2.5c-4.8,0-14.5-.6-14.5-7.3,0-6.2,10.3-10.6,10.8-10.6,1,0,1.3.8,1.3,1.7,0,2.1-.2,4.3-.2,6.5,0,2.6,1.8,2.8,6.1,2.8,3.8,0,4.3-.4,4.3-4,0-3.1-.1-6.1-.1-9.2v-1.3c0-2,.8-2.6,2.6-3.3,3.9-1.7,7.8-3.4,11.8-4.9.5-.2,1-.3,1.4-.5,1.9-.6,3-1,3-2.2,0-1.7-2.4-9.4-4.3-9.4a8.248,8.248,0,0,0-2.6,1c-1.6.9-10.5,5.7-11.7,5.7-1,0-1.3-.8-1.5-1.7-1.3-6.3-5-9-11.4-9A27.668,27.668,0,0,0,775-50.8a3.854,3.854,0,0,1-1.8.6.773.773,0,0,1-.8-.7c0-.7,2.8-5,3.4-5.8a3.526,3.526,0,0,1,3-1.6c6.3-.7,12.6-1.8,18.9-3.1,2.1-.4,5.3-.8,5.3-2.5a31.955,31.955,0,0,0-.8-5.4c-.3-1.4-.8-3-2.5-3a7.6,7.6,0,0,0-2.5.6c-2.1.7-9.6,2.8-11.6,2.8a.972.972,0,0,1-1.1-1,6.715,6.715,0,0,1,1-2.3c1.3-2.3,1.7-2.8,3.3-3.4.5-.2,1.2-.6,1.2-1.2C790-78.3,779.7-82.9,778.8-82.9Zm122.6,68c-1.8-.2-2.8-1.1-2.8-2.8V-58.3c0-1.7,1-2.6,2.8-2.8H912c1.7.2,2.7,1.1,2.7,2.8v40.6c0,1.7-1,2.6-2.7,2.8Zm10.5,9.6c1.8,0,2.6.8,2.7,2.7,0,.8-.1,1.6-.1,2.4,0,2.7,1.2,2.6,5.1,2.6s5.2.1,5.2-2.6c0-4-.2-7.9-.2-11.8V-56.8c0-3.1.1-6.1.1-9.2,0-4.2-2.2-5.1-5.9-5.1-2.3,0-4.6.1-6.9.1H901.1c-2.3,0-4.6-.1-6.9-.1-3.8,0-5.9,1-5.9,5.1,0,3.1.2,6.2.2,9.2V-11c0,4-.3,7.9-.3,11.9,0,2.6,1.4,2.5,5.4,2.5s5.2.1,5.2-2.6c0-1.2,0-2.3-.1-3.4.1-1.9.9-2.7,2.7-2.7ZM868.2-44.7c.1-3.4.1-6.8.1-10.2.2-1.9.9-2.7,2.9-2.7,3.2-.1,6.6.2,9.4.2,2.4,0,2.3-1,2.3-4.8,0-3.9.1-5-2.3-5-2.9,0-6.2.2-9.4.2H860.4c-1.1-.1-2-.4-2-1.7,0-.2.1-.5.1-.8,1-2.7,1.6-4.5,2-5.8.9-2.5,1-2.9,2.5-3.4.6-.3,1.6-.8,1.6-1.6,0-1-1-1.2-3.4-1.8-.7-.2-1.4-.4-2.2-.6-.9-.2-4.4-1.1-5.1-1.1-.9,0-1.1.8-1.2,1.4a89.855,89.855,0,0,1-13.5,30.1c-.4.6-1.6,2.2-1.6,2.9,0,1.8,5.8,4.7,6.7,4.7,2.2,0,6.9-8.8,7.9-10.9,1-1.6,1.6-2,3.5-2,2.1,0,2.8.7,2.8,2.8v10.1c0,1.8-1,2.6-2.8,2.6h-5.2c-3.3,0-6.8-.3-9.7-.3-2.2,0-2.1,1.4-2.1,5,0,3.5-.1,4.9,2.1,4.9,2.7,0,6.3-.3,9.7-.3H855c1.8.2,2.6.8,2.5,2.6C855.8-19,849.3-10.3,840.1-4c-1.6,1.1-3.2,2-3.2,3.1C836.9.8,841,6,842.8,6c1,0,2.4-1,3.3-1.6,8-5.8,13.9-12.2,17.9-21.3.3-.5.6-.9,1.2-.9a1.087,1.087,0,0,1,1,.7,67.3,67.3,0,0,0,8.9,12.9c.9,1,3.3,3.7,4.6,3.7,1.8,0,6.4-4.5,6.4-6.3,0-.9-.8-1.6-1.4-2.2a81.71,81.71,0,0,1-15.9-20.6,3.686,3.686,0,0,1-.5-1.7c0-1.2,1.1-1.4,2.1-1.5h3.3c3.5,0,7.1.3,9.7.3,2.2,0,2.1-1.2,2.1-4.9,0-3.8.1-5-2.1-5-2.8,0-6.4.3-9.7.3h-2.8C869.1-42.1,868.4-42.9,868.2-44.7ZM983-11c0,1.6-.8,3.4-2.7,3.4-3,0-7.8-1.7-7.8-5.3a4.142,4.142,0,0,1,4.3-4A6.11,6.11,0,0,1,983-11Zm9.3-64.8a13.643,13.643,0,0,0-3.8,1.1c-5.8,2.3-18.9,3.7-25.3,3.7h-2.4c-3,0-3.1.2-3.1,2.5,0,1.7.3,9.2,2.5,9.2,1.6,0,15.7-2.9,18.1-3.5a23.994,23.994,0,0,1,2.4-.4c.8,0,1.7.3,1.7,1.2,0,1-1.8,2.8-2.6,3.6C970.6-48.3,959-35.9,948.7-27c-.9.7-2.4,1.8-2.4,3,0,1.6,5.1,7.2,7.2,7.2a1.356,1.356,0,0,0,1.1-.7c3.6-4.1,7.2-8.2,11.1-12,6.4-6.3,13.3-9.8,22.4-9.8,8.7,0,16.9,4,16.9,13.7,0,10.1-9.5,15.4-12.1,15.4-.8,0-1.1-.6-1.2-1.3a9.944,9.944,0,0,0-1.8-6.4A16.312,16.312,0,0,0,976.6-25c-6.7,0-12.8,5.2-12.8,12.1C963.8-2.7,975.6.7,983.9.7c16.1,0,31.8-9.2,31.8-26.9,0-8.7-4.1-15.4-11.9-19.4a29.328,29.328,0,0,0-12.3-3,19,19,0,0,0-4.1.4,5.853,5.853,0,0,1-1.3.2c-.9,0-1.7-.5-1.7-1.3a2.989,2.989,0,0,1,1-1.7c4.7-4.9,8.9-9.5,14.5-13.4,1.1-.8,2.2-1.4,2.2-2.1C1002.1-68.2,996.3-75.8,992.3-75.8Z" transform="translate(108 310)" fill="#396cae"/>
    <path id="パス_1320" data-name="パス 1320" d="M75-53.9c-2,0-2.8-.8-2.8-2.7V-72.7c0-3.4.1-5.5,1.1-6.3.6-.6,1.2-.9,1.2-1.6,0-.9-1-1.1-1.7-1.2-1.4-.2-8.3-.9-9.5-.9-1,0-1.8.2-1.8,1.4a3.751,3.751,0,0,0,.1,1,48.669,48.669,0,0,1,.3,6.9v16.8c0,1.9-.8,2.7-2.7,2.7h-.9c-3.6,0-7.3-.2-11-.2-2.5,0-2.3,1.2-2.3,5s-.2,5,2.3,5c3.7,0,7.4-.2,11-.2h.9c1.9,0,2.7.8,2.7,2.8V-10c0,2-.8,2.8-2.7,2.8H50.4c-3.6,0-7.3-.3-11-.3-2.4,0-2.3,1.3-2.3,5,0,3.8-.1,5.1,2.3,5.1,3.7,0,7.4-.3,11-.3H81.2c3.7,0,7.4.3,11.1.3,2.4,0,2.3-1.3,2.3-5.1,0-3.6.1-5-2.3-5-3.7,0-7.4.3-11.1.3H75c-2,0-2.8-.8-2.8-2.8V-41.5c0-2,.8-2.8,2.8-2.8h2.3c3.7,0,7.3.2,11,.2,2.4,0,2.3-1.2,2.3-5s.1-5-2.3-5c-3.7,0-7.4.2-11,.2ZM31.3-27.2c1.4,1.6,8.2,8.5,9.9,8.5,2.1,0,5.9-4.6,5.9-6.3,0-.9-1-1.7-1.7-2.2A108.09,108.09,0,0,1,33.9-37a3.206,3.206,0,0,1-1-2,3.861,3.861,0,0,1,.8-2c2.5-3.1,10.9-14.8,10.9-18.3,0-1.2-2.2-6.3-6.6-6.3-1.9,0-3.8.2-5.8.1-1.9,0-2.6-.9-2.6-2.8v-6.1c0-2.8.1-3.9,1.1-4.6.9-.6,1.7-1,1.7-1.9,0-1.3-1.4-1.4-2.4-1.5-2-.2-7.3-.8-9.2-.8-.9,0-1.7.2-1.7,1.4a2.769,2.769,0,0,0,.1.9,45.717,45.717,0,0,1,.3,6.4v6.2c0,2-.7,2.8-2.7,2.8-2.6.1-6.3-.2-8.2-.2-2.1,0-2,1.2-2,4.9s-.2,5.1,2.1,5.1c2.5,0,6.2-.3,9.4-.3H29.4c1.2,0,2.3.1,2.3.8,0,.8-2.2,4-2.7,4.7A114.806,114.806,0,0,1,7-27.4c-.9.7-2.5,1.7-2.5,2.9,0,1.5,4,6.3,6,6.3,1.9,0,5.4-3.6,6.9-5a1.489,1.489,0,0,1,.9-.4c.8,0,1,.7,1.1,1.3V-8.7c0,4.1-.3,8.3-.3,12.4,0,2.9,1.1,3,5.3,3,4.3,0,5.3-.1,5.3-3,0-4.2-.3-8.3-.3-12.4V-26.4c.1-.5.3-1.2,1-1.2A1.489,1.489,0,0,1,31.3-27.2Z" transform="translate(641 310)" fill="#ff1901"/>
  </g>
</svg>
