<svg xmlns="http://www.w3.org/2000/svg" width="232.83" height="97.195" viewBox="0 0 232.83 97.195">
  <g id="グループ_1932" data-name="グループ 1932" transform="translate(-39.025 -99.865)">
    <path id="パス_1321" data-name="パス 1321" d="M12.15-10.62c-1.8,0-3.6-.09-5.4-.09-1.485,0-1.44.4-1.44,2.7,0,1.53,0,2.385,1.26,2.385,1.845,0,3.735-.09,5.58-.09h20.7c1.845,0,3.735.09,5.58.09,1.26,0,1.26-.855,1.26-2.34,0-2.34.045-2.745-1.44-2.745-1.8,0-3.6.09-5.4.09Zm4.5-18.99c-1.935,0-3.87-.09-5.8-.09-1.125,0-1.26.4-1.26,2.475,0,1.8-.045,2.61,1.35,2.61,1.89,0,3.78-.09,5.67-.09h11.79c1.89,0,3.78.09,5.67.09,1.395,0,1.35-.81,1.35-2.565,0-2.07-.09-2.52-1.26-2.52-1.935,0-3.87.09-5.8.09Zm37.485,5.625c-1.935,0-3.87-.09-5.76-.09-1.26,0-1.305.315-1.305,2.61,0,1.755,0,2.2,1.26,2.2,1.935,0,3.825-.09,5.715-.09h16.74c.72,0,1.935-.09,1.935.99a11.541,11.541,0,0,1-1.215,2.925A32.382,32.382,0,0,1,57.69-2.655c-.45.225-1.575.63-1.575,1.17,0,.765,2.07,3.33,3.105,3.33,1.395,0,6.255-3.465,7.515-4.5a37.57,37.57,0,0,0,9.315-10.62,31.308,31.308,0,0,0,2.61-6.075,11.539,11.539,0,0,0,.585-1.845c0-.81-2.25-2.97-3.195-2.97a4.958,4.958,0,0,0-.81.09c-.945.09-3.015.09-4.05.09Zm3.015-9.72c-1.755,0-4.05-.135-5.31-.135-1.125,0-1.215.54-1.215,2.655,0,1.665,0,2.205,1.26,2.205,1.755,0,3.51-.09,5.265-.09H68.175c1.755,0,3.51.09,5.31.09,1.215,0,1.215-.585,1.215-2.115,0-2.25-.09-2.745-1.215-2.745-1.17,0-3.465.135-5.31.135Zm53.73,9.315c-.5,0-.54.495-.585.9a26.112,26.112,0,0,1-3.69,10.215c-3.24,5.265-8.145,7.92-13.95,9.495-.45.135-.72.315-.72.81,0,.63,1.665,3.105,2.52,3.105a7.955,7.955,0,0,0,1.4-.36,25.7,25.7,0,0,0,12.24-7.83c3.105-3.735,4.815-7.965,6.165-12.6.18-.54.225-.675.585-.945.225-.18.54-.36.54-.675,0-.45-.45-.675-.81-.81A30.542,30.542,0,0,0,110.88-24.39Zm-7.965,1.62c-.765-1.26-1.62-2.52-2.25-2.52-.585,0-3.015,1.125-3.015,1.89a1.518,1.518,0,0,0,.4.9,48.473,48.473,0,0,1,3.15,5.31c.18.36.45.855.9.855.63,0,3.24-1.17,3.24-2.07,0-.585-1.62-3.06-2.025-3.69Zm-11.385,0c-.585,0-3.015,1.125-3.015,1.935a1.667,1.667,0,0,0,.36.81,44.505,44.505,0,0,1,3.24,5.445c.18.36.4.765.855.765.54,0,3.24-1.125,3.24-2.07,0-.585-1.53-2.925-1.935-3.555-.45-.72-1.485-2.34-1.98-2.925A1,1,0,0,0,91.53-22.77Zm48.33-6.075c-.45-.045-.765-.27-.765-.765a6.814,6.814,0,0,1,.81-1.62c.765-1.4.9-1.62,1.53-1.845.18-.09.4-.27.4-.495,0-.5-2.295-1.35-2.7-1.575a15.012,15.012,0,0,0-2.385-.99c-.4,0-.54.63-.72,1.08-2.07,5.67-7.29,12.375-12.015,16.11a.706.706,0,0,0-.4.63c0,.945,3.285,2.655,3.825,2.655,1.215,0,6.39-6.165,7.245-7.38.585-.81.855-1.26,1.89-1.26h8.55c.63,0,1.35.045,1.35.63,0,1.125-2.7,5.49-3.465,6.615a39.876,39.876,0,0,1-17.37,14.4c-.36.135-.9.36-.9.81,0,.855,2.835,3.06,3.825,3.06.945,0,5.175-2.655,6.165-3.285,8.28-5.355,12.69-11.925,17.1-20.475a26.491,26.491,0,0,1,1.4-2.43,2.857,2.857,0,0,0,.54-1.125c0-.585-1.98-3.06-2.88-3.06-.18,0-.36.045-.495.045a10.7,10.7,0,0,1-2.52.27Zm31.5-1.845c-1.98,0-3.915-.09-5.85-.09-1.125,0-1.08.675-1.08,2.25,0,2.07-.09,2.745,1.125,2.745,1.935,0,3.87-.09,5.8-.09h9.315c.675,0,1.305.09,1.305.765a4.445,4.445,0,0,1-.765,1.53c-4.545,7.11-12.105,13.995-20.07,17.055-.4.135-.945.36-.945.9,0,.81,2.07,3.825,3.015,3.825a7.538,7.538,0,0,0,1.98-.855,50.093,50.093,0,0,0,11.25-7.875,2.156,2.156,0,0,1,1.35-.765,1.585,1.585,0,0,1,1.035.4,47.86,47.86,0,0,1,9.945,8.91A1.5,1.5,0,0,0,189.9-1.3c.945,0,3.42-2.655,3.42-3.6a.86.86,0,0,0-.315-.63c-1.035-1.08-2.16-2.115-3.24-3.06a72.263,72.263,0,0,0-7.605-5.8,1.2,1.2,0,0,1-.675-1.08,1.229,1.229,0,0,1,.36-.855,65.236,65.236,0,0,0,5.85-8.55c.18-.315.45-.765.72-1.17a8.71,8.71,0,0,0,.99-1.755c0-.585-1.935-3.06-2.88-3.06-.27,0-.72.09-.99.09a12.1,12.1,0,0,1-1.935.09Zm42.975,3.6c.495,0,.72.36.72.81a45.764,45.764,0,0,1-1.44,8.775c-1.26,4.59-3.78,9.72-6.03,9.72-2.295,0-2.88-4.185-2.88-5.85a13.924,13.924,0,0,1,8.1-12.96A5.062,5.062,0,0,1,214.335-27.09Zm4.32-5.265a18.539,18.539,0,0,0-18.675,18.9,14.106,14.106,0,0,0,1.395,6.39c1.215,2.3,3.375,4.275,6.12,4.275,2.475,0,4.455-1.665,5.94-3.465,4.32-5.175,5.9-13.185,6.39-19.755.045-.765.045-1.755,1.08-1.755a7.859,7.859,0,0,1,1.71.405c4.68,1.62,7.2,5.94,7.2,10.755,0,6.435-4.635,10.3-10.53,11.7-.45.09-1.125.18-1.125.63,0,.99,1.845,3.78,3.015,3.78,1.08,0,3.87-1.26,4.9-1.8a16.169,16.169,0,0,0,8.775-14.535A15.221,15.221,0,0,0,230.31-27.9,16,16,0,0,0,218.655-32.355ZM59.4,26.5a1.288,1.288,0,0,1,1.26-1.26H74.52a1.288,1.288,0,0,1,1.26,1.26v.405a1.288,1.288,0,0,1-1.26,1.26H60.66a1.288,1.288,0,0,1-1.26-1.26Zm20.925-.9c0-.765.045-1.485.045-2.25,0-1.44-.9-1.71-2.16-1.71-1.125,0-2.295.09-3.42.09H60.39c-1.125,0-2.295-.09-3.465-.09-1.26,0-2.115.27-2.115,1.71,0,.765.09,1.485.09,2.25v2.205c0,.72-.09,1.485-.09,2.25,0,1.485.945,1.71,2.205,1.71,1.125,0,2.25-.09,3.375-.09h14.4c1.17,0,2.295.09,3.465.09,1.26,0,2.115-.27,2.115-1.71,0-.765-.045-1.53-.045-2.25ZM77.04,47.425a1.04,1.04,0,0,1,1.08,1.08v.4a1,1,0,0,1-1.08,1.035H57.96a.982.982,0,0,1-1.08-1.035v-.4a1.016,1.016,0,0,1,1.08-1.08Zm0-5.175a1.04,1.04,0,0,1,1.08,1.08v.27a1.04,1.04,0,0,1-1.08,1.08H57.96a1.016,1.016,0,0,1-1.08-1.08v-.27a1.016,1.016,0,0,1,1.08-1.08Zm1.08-3.825a1.04,1.04,0,0,1-1.08,1.08H57.96a1.016,1.016,0,0,1-1.08-1.08V38.11a1.016,1.016,0,0,1,1.08-1.08H77.04a1.04,1.04,0,0,1,1.08,1.08Zm-6.39,15.66c-.225.315-.9,1.125-.9,1.53,0,.36.27.54.675.765a39.828,39.828,0,0,0,5.625,2.565c1.53.54,6.48,2.115,7.875,2.115,1.125,0,1.98-2.565,1.98-3.1,0-.675-.585-.765-1.08-.855a43.911,43.911,0,0,1-10.62-3.24.3.3,0,0,1-.18-.27c0-.225.18-.27.36-.27h.63c1.35,0,2.7.045,4.05.045,1.395,0,2.7-.18,2.7-1.89,0-.99-.09-1.935-.09-2.925V38.425c0-.945.09-1.935.09-2.925,0-1.71-1.35-1.845-2.745-1.845-1.305,0-2.655.045-4,.045H58.86c-1.35,0-2.7-.045-4.005-.045-1.4,0-2.745.18-2.745,1.89,0,.945.09,1.935.09,2.88V48.55c0,.99-.09,1.935-.09,2.925,0,1.71,1.35,1.89,2.745,1.89,1.35,0,2.655-.045,4.005-.045h.36c.18,0,.36.045.36.27a.285.285,0,0,1-.225.27,35.551,35.551,0,0,1-9.9,2.745c-1.125.135-1.62.18-1.62.765,0,.5.63,3.33,2.16,3.33,1.845,0,8.145-2.025,9.99-2.79a18.625,18.625,0,0,1,3.195-1.26c.135,0,.315.045.45.045a1.914,1.914,0,0,0,.495.09c.27,0,.45-.135.45-.4,0-.405-1.125-1.755-1.44-2.16A.628.628,0,0,1,63,53.815c0-.36.315-.495.63-.495h7.74c.27,0,.495.09.495.4A.6.6,0,0,1,71.73,54.085Zm38.88-33.39c-.45,0-.54.45-.63.945a24.691,24.691,0,0,1-2.43,5.805c-.4.54-1.62.585-2.79.585h-1.305c-1.305,0-2.475-.09-3.24-.09-1.125,0-1.3.27-1.3,2.07,0,2.3.18,2.52,1.17,2.52,1.395,0,2.43-.135,3.15-.135.63,0,.99.135.99.54,0,.855-6.525,9.9-7.56,11.025-.225.27-.585.63-.585.99,0,.81,3.015,2.61,3.825,2.61a.748.748,0,0,0,.63-.45,29.5,29.5,0,0,1,3.78-5.265c1.755-1.8,5.9-3.96,8.415-3.96a1.872,1.872,0,0,1,1.98,1.53,6.18,6.18,0,0,1,.225,1.26c0,.54-.36.81-.81,1.035-.945.45-1.89.945-2.79,1.485-3.105,1.845-6.39,4.05-6.39,8.1,0,3.06,1.755,5.22,4.5,6.435a16.672,16.672,0,0,0,7.11,1.17,59.681,59.681,0,0,0,8.64-.585c.99-.225,1.035-.585,1.035-1.935,0-2.565-.315-3.06-.9-3.06a5.539,5.539,0,0,0-.9.09,32.9,32.9,0,0,1-8.37,1.125c-2.16,0-6.525-.27-6.525-3.285,0-2.79,4.635-4.77,4.86-4.77.45,0,.585.36.585.765,0,.945-.09,1.935-.09,2.925,0,1.17.81,1.26,2.745,1.26,1.71,0,1.935-.18,1.935-1.8,0-1.4-.045-2.745-.045-4.14V44.9c0-.9.36-1.17,1.17-1.485,1.755-.765,3.51-1.53,5.31-2.2.225-.09.45-.135.63-.225.855-.27,1.35-.45,1.35-.99,0-.765-1.08-4.23-1.935-4.23a3.711,3.711,0,0,0-1.17.45,40.058,40.058,0,0,1-5.265,2.565c-.45,0-.585-.36-.675-.765-.585-2.835-2.25-4.05-5.13-4.05a12.45,12.45,0,0,0-4.9,1.17,1.734,1.734,0,0,1-.81.27.348.348,0,0,1-.36-.315,14.529,14.529,0,0,1,1.53-2.61,1.587,1.587,0,0,1,1.35-.72c2.835-.315,5.67-.81,8.5-1.4.945-.18,2.385-.36,2.385-1.125a14.379,14.379,0,0,0-.36-2.43c-.135-.63-.36-1.35-1.125-1.35a3.422,3.422,0,0,0-1.125.27,32.558,32.558,0,0,1-5.22,1.26.437.437,0,0,1-.495-.45,3.022,3.022,0,0,1,.45-1.035c.585-1.035.765-1.26,1.485-1.53.225-.09.54-.27.54-.54C115.65,22.765,111.015,20.695,110.61,20.695Zm55.17,30.6c-.81-.09-1.26-.495-1.26-1.26V31.765c0-.765.45-1.17,1.26-1.26h4.77a1.193,1.193,0,0,1,1.215,1.26v18.27a1.193,1.193,0,0,1-1.215,1.26Zm4.725,4.32c.81,0,1.17.36,1.215,1.215,0,.36-.045.72-.045,1.08,0,1.215.54,1.17,2.295,1.17s2.34.045,2.34-1.17c0-1.8-.09-3.555-.09-5.31V32.44c0-1.395.045-2.745.045-4.14,0-1.89-.99-2.3-2.655-2.3-1.035,0-2.07.045-3.1.045h-4.86c-1.035,0-2.07-.045-3.105-.045-1.71,0-2.655.45-2.655,2.3,0,1.4.09,2.79.09,4.14V53.05c0,1.8-.135,3.555-.135,5.355,0,1.17.63,1.125,2.43,1.125s2.34.045,2.34-1.17c0-.54,0-1.035-.045-1.53.045-.855.4-1.215,1.215-1.215ZM150.84,37.885c.045-1.53.045-3.06.045-4.59.09-.855.4-1.215,1.305-1.215,1.44-.045,2.97.09,4.23.09,1.08,0,1.035-.45,1.035-2.16,0-1.755.045-2.25-1.035-2.25-1.3,0-2.79.09-4.23.09h-4.86c-.495-.045-.9-.18-.9-.765,0-.09.045-.225.045-.36.45-1.215.72-2.025.9-2.61.4-1.125.45-1.3,1.125-1.53.27-.135.72-.36.72-.72,0-.45-.45-.54-1.53-.81-.315-.09-.63-.18-.99-.27-.4-.09-1.98-.495-2.295-.495-.4,0-.495.36-.54.63a40.435,40.435,0,0,1-6.075,13.545,4.16,4.16,0,0,0-.72,1.305c0,.81,2.61,2.115,3.015,2.115.99,0,3.1-3.96,3.555-4.905a1.483,1.483,0,0,1,1.575-.9c.945,0,1.26.315,1.26,1.26v4.545c0,.81-.45,1.17-1.26,1.17h-2.34c-1.485,0-3.06-.135-4.365-.135-.99,0-.945.63-.945,2.25,0,1.575-.045,2.205.945,2.205,1.215,0,2.835-.135,4.365-.135H144.9c.81.09,1.17.36,1.125,1.17A17.319,17.319,0,0,1,138.2,56.2c-.72.495-1.44.9-1.44,1.4,0,.765,1.845,3.1,2.655,3.1a3.5,3.5,0,0,0,1.485-.72A22.83,22.83,0,0,0,148.95,50.4c.135-.225.27-.405.54-.405a.489.489,0,0,1,.45.315,30.286,30.286,0,0,0,4.005,5.805c.4.45,1.485,1.665,2.07,1.665.81,0,2.88-2.025,2.88-2.835,0-.4-.36-.72-.63-.99a36.769,36.769,0,0,1-7.155-9.27,1.659,1.659,0,0,1-.225-.765c0-.54.5-.63.945-.675h1.485c1.575,0,3.195.135,4.365.135.99,0,.945-.54.945-2.205,0-1.71.045-2.25-.945-2.25-1.26,0-2.88.135-4.365.135h-1.26C151.245,39.055,150.93,38.695,150.84,37.885ZM202.5,53.05c0,.72-.36,1.53-1.215,1.53-1.35,0-3.51-.765-3.51-2.385a1.864,1.864,0,0,1,1.935-1.8A2.75,2.75,0,0,1,202.5,53.05Zm4.185-29.16a6.139,6.139,0,0,0-1.71.5c-2.61,1.035-8.505,1.665-11.385,1.665h-1.08c-1.35,0-1.395.09-1.395,1.125,0,.765.135,4.14,1.125,4.14.72,0,7.065-1.305,8.145-1.575a10.8,10.8,0,0,1,1.08-.18c.36,0,.765.135.765.54,0,.45-.81,1.26-1.17,1.62a180.321,180.321,0,0,1-13.995,14.13c-.4.315-1.08.81-1.08,1.35,0,.72,2.295,3.24,3.24,3.24a.61.61,0,0,0,.495-.315c1.62-1.845,3.24-3.69,4.995-5.4a13.661,13.661,0,0,1,10.08-4.41c3.915,0,7.6,1.8,7.6,6.165,0,4.545-4.275,6.93-5.445,6.93-.36,0-.5-.27-.54-.585a4.475,4.475,0,0,0-.81-2.88,7.34,7.34,0,0,0-5.985-3.195,5.65,5.65,0,0,0-5.76,5.445c0,4.59,5.31,6.12,9.045,6.12,7.245,0,14.31-4.14,14.31-12.1a9.3,9.3,0,0,0-5.355-8.73,13.2,13.2,0,0,0-5.535-1.35,8.55,8.55,0,0,0-1.845.18,2.633,2.633,0,0,1-.585.09c-.4,0-.765-.225-.765-.585a1.345,1.345,0,0,1,.45-.765,43.579,43.579,0,0,1,6.525-6.03c.5-.36.99-.63.99-.945C211.1,27.31,208.485,23.89,206.685,23.89Z" transform="translate(37 136)" fill="#396cae"/>
    <path id="パス_1322" data-name="パス 1322" d="M33.75,33.745c-.9,0-1.26-.36-1.26-1.215V25.285c0-1.53.045-2.475.495-2.835.27-.27.54-.405.54-.72,0-.4-.45-.495-.765-.54-.63-.09-3.735-.4-4.275-.4-.45,0-.81.09-.81.63a1.688,1.688,0,0,0,.045.45,21.9,21.9,0,0,1,.135,3.1v7.56c0,.855-.36,1.215-1.215,1.215h-.4c-1.62,0-3.285-.09-4.95-.09-1.125,0-1.035.54-1.035,2.25s-.09,2.25,1.035,2.25c1.665,0,3.33-.09,4.95-.09h.4c.855,0,1.215.36,1.215,1.26V53.5c0,.9-.36,1.26-1.215,1.26H22.68c-1.62,0-3.285-.135-4.95-.135-1.08,0-1.035.585-1.035,2.25,0,1.71-.045,2.295,1.035,2.295,1.665,0,3.33-.135,4.95-.135H36.54c1.665,0,3.33.135,5,.135,1.08,0,1.035-.585,1.035-2.295,0-1.62.045-2.25-1.035-2.25-1.665,0-3.33.135-5,.135H33.75c-.9,0-1.26-.36-1.26-1.26V39.325c0-.9.36-1.26,1.26-1.26h1.035c1.665,0,3.285.09,4.95.09,1.08,0,1.035-.54,1.035-2.25s.045-2.25-1.035-2.25c-1.665,0-3.33.09-4.95.09ZM14.085,45.76c.63.72,3.69,3.825,4.455,3.825.945,0,2.655-2.07,2.655-2.835,0-.4-.45-.765-.765-.99a48.641,48.641,0,0,1-5.175-4.41,1.443,1.443,0,0,1-.45-.9,1.738,1.738,0,0,1,.36-.9c1.125-1.4,4.9-6.66,4.9-8.235,0-.54-.99-2.835-2.97-2.835-.855,0-1.71.09-2.61.045-.855,0-1.17-.405-1.17-1.26V24.52c0-1.26.045-1.755.5-2.07.4-.27.765-.45.765-.855,0-.585-.63-.63-1.08-.675-.9-.09-3.285-.36-4.14-.36-.405,0-.765.09-.765.63a1.246,1.246,0,0,0,.045.405,20.573,20.573,0,0,1,.135,2.88v2.79c0,.9-.315,1.26-1.215,1.26-1.17.045-2.835-.09-3.69-.09-.945,0-.9.54-.9,2.205s-.09,2.3.945,2.3c1.125,0,2.79-.135,4.23-.135H13.23c.54,0,1.035.045,1.035.36a9.154,9.154,0,0,1-1.215,2.115A51.663,51.663,0,0,1,3.15,45.67c-.4.315-1.125.765-1.125,1.305,0,.675,1.8,2.835,2.7,2.835.855,0,2.43-1.62,3.105-2.25a.67.67,0,0,1,.4-.18c.36,0,.45.315.5.585v6.12c0,1.845-.135,3.735-.135,5.58,0,1.305.495,1.35,2.385,1.35,1.935,0,2.385-.045,2.385-1.35,0-1.89-.135-3.735-.135-5.58V46.12c.045-.225.135-.54.45-.54A.67.67,0,0,1,14.085,45.76Z" transform="translate(37 136)" fill="#ff1901"/>
  </g>
</svg>
