<?xml version="1.0" encoding="utf-8"?>
<!-- Generator: Adobe Illustrator 24.3.0, SVG Export Plug-In . SVG Version: 6.00 Build 0)  -->
<svg version="1.1" id="レイヤー_1" xmlns="http://www.w3.org/2000/svg" xmlns:xlink="http://www.w3.org/1999/xlink" x="0px"
	 y="0px" viewBox="0 0 374.3 149.3" style="enable-background:new 0 0 374.3 149.3;" xml:space="preserve">
<style type="text/css">
	.st0{clip-path:url(#SVGID_2_);}
	.st1{fill:#5B8DCD;}
	.st2{fill:#CBDAEE;}
</style>
<g>
	<g>
		<defs>
			<rect id="SVGID_1_" y="0" width="374.3" height="125.6"/>
		</defs>
		<clipPath id="SVGID_2_">
			<use xlink:href="#SVGID_1_"  style="overflow:visible;"/>
		</clipPath>
		<g id="グループ_1856" transform="translate(0 0)" class="st0">
			<path id="パス_1200" class="st1" d="M218.5,22.5c-0.2,0-0.3,0-0.5,0c-5.9-0.2-10.5-5.2-10.3-11.2c0.2-5.8,5-10.3,10.7-10.3
				c0.2,0,0.3,0,0.5,0c5.9,0.2,10.5,5.2,10.3,11.2C229,17.9,224.2,22.5,218.5,22.5"/>
			<path id="パス_1201" class="st2" d="M218.4,2c0.1,0,0.3,0,0.4,0c5.4,0.2,9.6,4.8,9.3,10.1c-0.2,5.2-4.5,9.4-9.7,9.3
				c-0.1,0-0.3,0-0.4,0c-5.4-0.2-9.5-4.8-9.3-10.1C208.9,6.1,213.2,2,218.4,2 M218.4,0c-6.5,0-11.7,5.2-11.8,11.7
				c0,6.3,5,11.5,11.3,11.7c0.2,0,0.3,0,0.5,0c6.5,0,11.7-5.2,11.8-11.7c0-6.3-5-11.5-11.3-11.7C218.8,0,218.6,0,218.4,0"/>
			<path id="パス_1202" class="st1" d="M204.1,48.7l-0.6-0.9l0.3-0.7l4.2-4.8l-2.7,6.3h-0.7h-0.5V48.7z"/>
			<path id="パス_1203" class="st2" d="M204.6,47.6C204.6,47.7,204.6,47.7,204.6,47.6C204.6,47.7,204.6,47.7,204.6,47.6
				L204.6,47.6z M211.4,37l-8.2,9.3l0,0l-0.2,0.3l-0.1,0.3l-0.4,1l0.6,0.9l0.6,0.9h2.4l0.5-1.3L211.4,37z"/>
			<path id="パス_1204" class="st1" d="M229.5,124.6c-3,0-5.5-2.2-5.9-5.1l-4-22.3c-0.4,1-0.9,1.8-1.6,2.6l-15.7,16.6
				c-2.1,2.2-5.5,2.2-7.7,0.1c-2.1-2.1-2.2-5.4-0.2-7.6l12.2-17.5l4.3-17.1c-0.1-2.4-2.9-18.9-4.3-27.3l-1.2,1.3l-9.5,17.4
				c-1.2,2.4-4.1,3.3-6.4,2.1c-2.4-1.2-3.3-4.1-2.1-6.4l7.9-17.8c0.1-0.2,0.2-0.4,0.4-0.6c0.2-0.5,0.5-1,0.8-1.4
				c0.5-1.1,4.9-9.7,8.7-13.4c3.1-3.2,6.3-4.7,9.9-4.7c5.4,0,9.4,2.1,11.9,6.2l8.4,13.6l14.5,11.2c2.1,1.5,2.6,4.5,1.1,6.7
				s-4.5,2.7-6.7,1.1l0,0l-13.8-8.9c0.8,11.4,5,64.1,5,64.7c0.4,3.2-1.9,6.2-5.1,6.6C230.1,124.6,229.8,124.6,229.5,124.6"/>
			<path id="パス_1205" class="st2" d="M215,24.3L215,24.3c6,0,9.2,2.8,11,5.8l8.5,13.8l14.6,11.4c1.7,1.2,2.1,3.6,0.9,5.3
				c-1.2,1.7-3.6,2.1-5.3,0.9l-15.5-10c0.2,4.1,5.2,66.7,5.2,66.7c0.4,2.7-1.5,5.2-4.2,5.6c-0.2,0-0.4,0-0.7,0
				c-2.5,0-4.6-1.8-4.9-4.3l-4.7-26l-0.9,2.7c-0.4,1.1-1,2.2-1.8,3.1l-15.6,16.6c-1.7,1.8-4.5,1.8-6.3,0.1c-1.8-1.7-1.8-4.5-0.1-6.3
				l0,0L207.6,92l4.3-17.4c0-2.6-4.6-29.7-4.6-29.7l-2.6,3l0,0l0,0L195,65.1c-0.9,1.9-3.2,2.6-5.1,1.7c-1.9-0.9-2.6-3.2-1.7-5.1
				l7.9-17.9c0.1-0.2,0.2-0.4,0.4-0.6c0.2-0.5,0.4-0.9,0.7-1.3c0,0,4.7-9.5,8.6-13.3C208.5,26,211.4,24.3,215,24.3 M215,22.3
				L215,22.3c-3.8,0-7.3,1.6-10.6,5c-3.8,3.7-8.2,12.2-8.9,13.6c-0.3,0.4-0.6,0.9-0.8,1.4c-0.1,0.2-0.3,0.4-0.4,0.6l0,0l0,0
				l-7.9,17.9c-1.4,2.9-0.2,6.3,2.6,7.8c2.9,1.4,6.3,0.2,7.8-2.6l9.2-16.8c1.7,9.9,3.7,22.5,3.9,24.9L205.7,91l-12.1,17.3
				c-2.4,2.6-2.3,6.7,0.3,9.1s6.7,2.3,9.1-0.3l15.6-16.6l0,0l0,0c0.1-0.1,0.2-0.3,0.3-0.4l3.5,19.6c0.5,3.4,3.4,6,6.9,6
				c0.3,0,0.6,0,0.9-0.1c3.8-0.5,6.4-4,6-7.8c-0.1-1.8-3.9-48.4-4.9-62.7l12.2,7.8c2.6,1.9,6.2,1.2,8.1-1.4c1.9-2.6,1.2-6.2-1.4-8.1
				l-14.3-11.1L227.7,29C225,24.6,220.7,22.3,215,22.3L215,22.3z"/>
			<path id="パス_1206" class="st1" d="M190,22.5c-0.2,0-0.3,0-0.5,0c-5.9-0.2-10.5-5.2-10.3-11.2c0.2-5.8,5-10.3,10.7-10.3
				c0.2,0,0.3,0,0.5,0c5.9,0.2,10.5,5.2,10.3,11.2C200.5,17.9,195.7,22.5,190,22.5"/>
			<path id="パス_1207" class="st2" d="M189.9,2c0.1,0,0.3,0,0.4,0c5.4,0.2,9.6,4.8,9.3,10.1c-0.2,5.2-4.5,9.4-9.7,9.3
				c-0.1,0-0.3,0-0.4,0c-5.4-0.2-9.5-4.8-9.3-10.1C180.4,6.1,184.7,2,189.9,2 M189.9,0c-6.5,0-11.7,5.2-11.8,11.7
				c0,6.3,5,11.5,11.3,11.7c0.2,0,0.3,0,0.5,0c6.5,0,11.7-5.2,11.8-11.7c0-6.3-5-11.5-11.3-11.7C190.3,0,190.1,0,189.9,0"/>
			<path id="パス_1208" class="st1" d="M175.6,48.7l-0.6-0.9l0.3-0.7l4.2-4.8l-2.7,6.3h-0.7h-0.5V48.7z"/>
			<path id="パス_1209" class="st2" d="M176.1,47.6C176.1,47.7,176.1,47.7,176.1,47.6C176.1,47.7,176.1,47.7,176.1,47.6
				L176.1,47.6z M182.9,37l-8.2,9.3l0,0l-0.2,0.3l-0.1,0.3l-0.4,1l0.6,0.9l0.6,0.9h2.4l0.5-1.3L182.9,37z"/>
			<path id="パス_1210" class="st1" d="M201,124.6c-3,0-5.5-2.2-5.9-5.1l-4-22.3c-0.4,1-0.9,1.8-1.6,2.6l-15.7,16.6
				c-2.1,2.2-5.5,2.2-7.7,0.1c-2.1-2.1-2.2-5.4-0.2-7.6l12.2-17.5l4.3-17.1c-0.1-2.4-2.9-18.9-4.3-27.3l-1.2,1.3l-9.5,17.4
				c-1.2,2.4-4.1,3.3-6.4,2.1c-2.4-1.2-3.3-4.1-2.1-6.4l0,0l7.9-17.8c0.1-0.2,0.2-0.4,0.4-0.6c0.2-0.5,0.5-1,0.8-1.4
				c0.5-1.1,4.9-9.7,8.7-13.4c3.1-3.2,6.3-4.7,9.9-4.7c5.4,0,9.4,2.1,11.9,6.2l8.4,13.6l14.5,11.2c2.1,1.5,2.6,4.5,1.1,6.7
				s-4.5,2.7-6.7,1.1l0,0L202,53.4c0.8,11.4,5,64.1,5,64.7c0.4,3.2-1.9,6.2-5.1,6.6C201.6,124.6,201.3,124.6,201,124.6"/>
			<path id="パス_1211" class="st2" d="M186.5,24.3L186.5,24.3c6,0,9.2,2.8,11,5.8l8.5,13.8l14.6,11.4c1.7,1.2,2.1,3.6,0.9,5.3
				c-1.2,1.7-3.6,2.1-5.3,0.9l-15.5-10c0.2,4.1,5.2,66.7,5.2,66.7c0.4,2.7-1.5,5.2-4.2,5.6c-0.2,0-0.4,0-0.7,0
				c-2.5,0-4.6-1.8-4.9-4.3l-4.7-26l-0.9,2.7c-0.4,1.1-1,2.2-1.8,3.1l-15.6,16.6c-1.7,1.8-4.5,1.8-6.3,0.1c-1.8-1.7-1.8-4.5-0.1-6.3
				l0,0L179.1,92l4.3-17.4c0-2.6-4.6-29.7-4.6-29.7l-2.6,3l0,0l0,0l-9.6,17.5c-0.9,1.9-3.2,2.6-5.1,1.7c-1.9-0.9-2.6-3.2-1.7-5.1
				l7.9-17.9c0.1-0.2,0.2-0.4,0.4-0.6c0.2-0.5,0.4-0.9,0.7-1.3c0,0,4.7-9.5,8.6-13.3C180,26,182.9,24.3,186.5,24.3 M186.5,22.3
				L186.5,22.3c-3.8,0-7.3,1.6-10.6,5c-3.8,3.7-8.2,12.2-8.9,13.6c-0.3,0.4-0.6,0.9-0.8,1.4c-0.1,0.2-0.3,0.4-0.4,0.6l0,0l0,0
				l-7.9,17.9c-1.4,2.9-0.2,6.3,2.6,7.8c2.9,1.4,6.3,0.2,7.8-2.6l9.2-16.8c1.7,9.9,3.7,22.5,3.9,24.9L177.2,91l-12.1,17.3
				c-2.4,2.6-2.3,6.7,0.3,9.1s6.7,2.3,9.1-0.3l15.6-16.6l0,0l0,0c0.1-0.1,0.2-0.3,0.3-0.4l3.5,19.6c0.5,3.4,3.4,6,6.9,6
				c0.3,0,0.6,0,0.9-0.1c3.8-0.5,6.4-4,6-7.8c-0.1-1.8-3.9-48.4-4.9-62.7l12.2,7.8c2.6,1.9,6.2,1.2,8.1-1.4c1.9-2.6,1.2-6.2-1.4-8.1
				l-14.3-11.1L199.2,29C196.5,24.6,192.2,22.3,186.5,22.3L186.5,22.3z"/>
			<path id="パス_1212" class="st1" d="M161.5,22.5c-0.2,0-0.3,0-0.5,0c-5.9-0.2-10.5-5.2-10.3-11.2c0.2-5.8,5-10.3,10.7-10.3
				c0.2,0,0.3,0,0.5,0c5.9,0.2,10.5,5.2,10.3,11.2C172,17.9,167.2,22.5,161.5,22.5"/>
			<path id="パス_1213" class="st2" d="M161.4,2c0.1,0,0.3,0,0.4,0c5.4,0.2,9.6,4.8,9.3,10.1c-0.2,5.2-4.5,9.4-9.7,9.3
				c-0.1,0-0.3,0-0.4,0c-5.4-0.2-9.5-4.8-9.3-10.1C151.9,6.1,156.2,2,161.4,2 M161.4,0c-6.5,0-11.7,5.2-11.8,11.7
				c0,6.3,5,11.5,11.3,11.7c0.2,0,0.3,0,0.5,0c6.5,0,11.7-5.2,11.8-11.7c0-6.3-5-11.5-11.3-11.7C161.8,0,161.6,0,161.4,0"/>
			<path id="パス_1214" class="st1" d="M147.1,48.7l-0.6-0.9l0.3-0.7l4.2-4.8l-2.7,6.3h-0.7h-0.5V48.7z"/>
			<path id="パス_1215" class="st2" d="M147.6,47.6C147.6,47.7,147.6,47.7,147.6,47.6C147.6,47.7,147.6,47.7,147.6,47.6
				L147.6,47.6z M154.4,37l-8.2,9.3l0,0l-0.2,0.3l-0.1,0.3l-0.4,1l0.6,0.9l0.6,0.9h2.4l0.5-1.3L154.4,37z"/>
			<path id="パス_1216" class="st1" d="M172.5,124.6c-3,0-5.5-2.2-5.9-5.1l-4-22.3c-0.4,1-0.9,1.8-1.6,2.6l-15.7,16.6
				c-2.1,2.2-5.5,2.2-7.7,0.1c-2.1-2.1-2.2-5.4-0.2-7.6l12.2-17.5l4.3-17.1c-0.1-2.4-2.9-18.9-4.3-27.3l-1.2,1.3l-9.5,17.4
				c-1.2,2.4-4.1,3.3-6.4,2.1c-2.4-1.2-3.3-4.1-2.1-6.4l0,0l7.9-17.8c0.1-0.2,0.2-0.4,0.4-0.6c0.2-0.5,0.5-1,0.8-1.4
				c0.5-1.1,4.9-9.7,8.7-13.4c3.1-3.2,6.3-4.7,9.9-4.7c5.4,0,9.4,2.1,11.9,6.2l8.4,13.6l14.5,11.2c2.1,1.5,2.6,4.5,1.1,6.7
				s-4.5,2.7-6.7,1.1l0,0l-13.8-8.9c0.8,11.4,5,64.1,5,64.7c0.4,3.2-1.9,6.2-5.1,6.6C173.1,124.6,172.8,124.6,172.5,124.6"/>
			<path id="パス_1217" class="st2" d="M158,24.3L158,24.3c6,0,9.2,2.8,11,5.8l8.5,13.8l14.6,11.4c1.7,1.2,2.1,3.6,0.9,5.3
				c-1.2,1.7-3.6,2.1-5.3,0.9l0,0l-15.5-10c0.2,4.1,5.2,66.7,5.2,66.7c0.4,2.7-1.5,5.2-4.2,5.6c-0.2,0-0.4,0-0.7,0
				c-2.5,0-4.6-1.8-4.9-4.3l-4.7-26l-0.9,2.7c-0.4,1.1-1,2.2-1.8,3.1l-15.6,16.6c-1.7,1.8-4.5,1.8-6.3,0.1c-1.8-1.7-1.8-4.5-0.1-6.3
				l0,0L150.6,92l4.3-17.4c0-2.6-4.6-29.7-4.6-29.7l-2.6,3l0,0l0,0L138,65.1c-0.9,1.9-3.2,2.6-5.1,1.7c-1.9-0.9-2.6-3.2-1.7-5.1
				l7.9-17.9c0.1-0.2,0.2-0.4,0.4-0.6c0.2-0.5,0.4-0.9,0.7-1.3c0,0,4.7-9.5,8.6-13.3C151.5,26,154.4,24.3,158,24.3 M158,22.3
				L158,22.3c-3.8,0-7.3,1.6-10.6,5c-3.8,3.7-8.2,12.2-8.9,13.6c-0.3,0.4-0.6,0.9-0.8,1.4c-0.1,0.2-0.3,0.4-0.4,0.6l0,0l0,0
				l-7.9,17.9c-1.4,2.9-0.2,6.3,2.6,7.8c2.9,1.4,6.3,0.2,7.8-2.6l9.2-16.8c1.7,9.9,3.7,22.5,3.9,24.9L148.7,91l-12.1,17.3
				c-2.4,2.6-2.3,6.7,0.3,9.1s6.7,2.3,9.1-0.3l15.6-16.6l0,0l0,0c0.1-0.1,0.2-0.3,0.3-0.4l3.5,19.6c0.5,3.4,3.4,6,6.9,6
				c0.3,0,0.6,0,0.9-0.1c3.8-0.5,6.4-4,6-7.8c-0.1-1.8-3.9-48.4-4.9-62.7l12.2,7.8c2.6,1.9,6.2,1.2,8.1-1.4c1.9-2.6,1.2-6.2-1.4-8.1
				l-14.3-11.1L170.7,29C168,24.6,163.7,22.3,158,22.3L158,22.3z"/>
			<path id="パス_1218" class="st1" d="M134.8,22.9c-5.5,0-10-4.5-10-10s4.5-10,10-10s10,4.5,10,10c0,5.1-3.9,9.4-9,10
				C135.5,22.9,135.1,22.9,134.8,22.9"/>
			<path id="パス_1219" class="st2" d="M134.8,3.9c5,0,9,4,9,9c0,4.6-3.5,8.5-8.1,9c-0.3,0-0.6,0-0.9,0c-5,0-9-4-9-9
				c0-4.6,3.5-8.5,8.1-9C134.1,3.9,134.5,3.9,134.8,3.9 M134.8,1.9L134.8,1.9c-0.4,0-0.8,0-1.2,0.1c-6,0.6-10.5,6-9.8,12
				c0.6,5.6,5.3,9.9,11,9.9c0.4,0,0.8,0,1.2-0.1c6-0.6,10.5-6,9.8-12C145.2,6.2,140.4,1.9,134.8,1.9"/>
			<path id="パス_1220" class="st1" d="M127.1,117.1c-3.1,0-5.6-2.5-5.6-5.6c0-0.7,0.1-1.5,0.4-2.1l6.8-19.6l5.9,18.8l-2.4,5.1
				C131.4,115.8,129.4,117.1,127.1,117.1"/>
			<path id="パス_1221" class="st2" d="M128.7,93l4.9,15.6l-2.3,4.8c-1,2.3-3.6,3.4-6,2.5c-2.3-1-3.4-3.6-2.5-6l0,0L128.7,93z
				 M128.8,86.6l-2,5.7l-5.8,16.8c-1.4,3.4,0.2,7.2,3.6,8.6c3.3,1.4,7.1-0.2,8.5-3.5l2.3-4.7l0.3-0.7l-0.2-0.8l-4.9-15.6L128.8,86.6
				z"/>
			<path id="パス_1222" class="st1" d="M142.6,122c-2.6-0.1-4.8-2-5.5-4.5l-12.5-41.8c-1.1-4.1-1.8-8.2-2.1-12.4
				c-0.2-3.7-0.4-10.8-0.5-14.6l-17,18.6c-1.6,1.9-4.4,2.1-6.3,0.5s-2.1-4.4-0.5-6.3l20.7-29.8c3-4.5,8.1-6.8,15.7-7.3
				c0.4,0,0.9,0,1.3,0c8.5,0,14.9,5.1,17.3,9.9l5.8,12.3l7.2,15.2c1.1,2.2,0.3,4.9-1.9,6c-2.2,1.2-4.9,0.3-6.1-1.9l0,0l-8.6-14.4
				l-2.9-4.9l-1.8,40l3.2,29.1c0.5,3-1.6,5.9-4.6,6.4C143.2,121.9,142.9,122,142.6,122"/>
			<path id="パス_1223" class="st2" d="M135.7,25.2c8.1,0,14.2,4.8,16.4,9.3l5.8,12.3l7.2,15.2c0.9,1.7,0.2,3.8-1.5,4.7
				c-1.7,0.9-3.8,0.2-4.7-1.5l-8.6-14.5l-4.6-7.8l-1.9,43.4l3.2,29.2c0.4,2.5-1.3,4.8-3.8,5.3c-0.2,0-0.5,0.1-0.7,0.1
				c-2.2-0.1-4-1.7-4.5-3.8l-12.5-41.8c-1.1-4-1.7-8.1-2.1-12.2c-0.3-5.1-0.6-17-0.6-17l-18.7,20.4c-1.2,1.5-3.5,1.7-4.9,0.4
				c-1.5-1.2-1.7-3.5-0.4-4.9l20.7-29.9c3-4.6,8.3-6.5,14.9-6.9C134.9,25.3,135.3,25.2,135.7,25.2 M135.7,23.2c-0.4,0-0.9,0-1.3,0
				c-7.9,0.5-13.3,3-16.5,7.7L97.3,60.8c-1.9,2.3-1.6,5.8,0.7,7.7s5.8,1.6,7.7-0.7l0,0L121,51.1c0.1,3.9,0.3,9.2,0.4,12.2
				c0.3,4.2,1,8.5,2.1,12.6l0,0l0,0l12.5,41.8c0.8,3,3.4,5.1,6.5,5.2c0.3,0,0.7,0,1-0.1c3.6-0.6,6-3.9,5.4-7.5l-3.2-29l1.6-36.5
				l1.1,2l8.6,14.5c1.4,2.7,4.8,3.7,7.4,2.3s3.7-4.8,2.3-7.4l0,0l-7-15.2l-5.8-12.3C151.3,28.5,144.7,23.2,135.7,23.2"/>
			<path id="パス_1224" class="st1" d="M108.8,22.9c-5.5,0-10-4.5-10-10s4.5-10,10-10s10,4.5,10,10c0,5.1-3.9,9.4-9,10
				C109.5,22.9,109.1,22.9,108.8,22.9"/>
			<path id="パス_1225" class="st2" d="M108.8,3.9c5,0,9,4,9,9c0,4.6-3.5,8.5-8.1,9c-0.3,0-0.6,0-0.9,0c-5,0-9-4-9-9
				c0-4.6,3.5-8.5,8.1-9C108.1,3.9,108.5,3.9,108.8,3.9 M108.8,1.9L108.8,1.9c-0.4,0-0.8,0-1.2,0.1c-6,0.6-10.5,6-9.8,12
				c0.6,5.6,5.3,9.9,11,9.9c0.4,0,0.8,0,1.2-0.1c6-0.6,10.5-6,9.8-12C119.2,6.2,114.4,1.9,108.8,1.9"/>
			<path id="パス_1226" class="st1" d="M101.1,117.1c-3.1,0-5.6-2.5-5.6-5.6c0-0.7,0.1-1.5,0.4-2.1l6.8-19.6l5.9,18.8l-2.4,5.1
				C105.4,115.8,103.4,117.1,101.1,117.1"/>
			<path id="パス_1227" class="st2" d="M102.7,93l4.9,15.6l-2.3,4.8c-1,2.3-3.6,3.4-6,2.5c-2.3-1-3.4-3.6-2.5-6L102.7,93z
				 M102.8,86.6l-2,5.7L95,109.1c-1.3,3.4,0.3,7.2,3.7,8.5c3.3,1.3,7.1-0.2,8.5-3.5l2.3-4.7l0.3-0.7l-0.2-0.8l-4.9-15.6L102.8,86.6z
				"/>
			<path id="パス_1228" class="st1" d="M116.6,122c-2.6-0.1-4.8-2-5.5-4.5L98.6,75.7c-1.1-4.1-1.8-8.2-2.1-12.4
				c-0.2-3.7-0.4-10.8-0.5-14.6L79,67.2c-1.6,1.9-4.4,2.1-6.3,0.5s-2.1-4.4-0.5-6.3l20.7-29.8c3-4.5,8.1-6.8,15.7-7.3
				c0.4,0,0.9,0,1.3,0c8.5,0,14.9,5.1,17.3,9.9l5.8,12.3l7.2,15.2c1.1,2.2,0.3,4.9-1.9,6c-2.2,1.2-4.9,0.3-6.1-1.9l0,0l-8.6-14.4
				l-2.9-4.9l-1.8,40l3.2,29.1c0.5,3-1.6,5.9-4.6,6.4C117.2,121.9,116.9,122,116.6,122"/>
			<path id="パス_1229" class="st2" d="M109.7,25.2c8.1,0,14.2,4.8,16.4,9.3l5.8,12.3l7.2,15.2c0.9,1.7,0.2,3.8-1.5,4.7
				c-1.7,0.9-3.8,0.2-4.7-1.5l-8.6-14.5l-4.6-7.8l-1.9,43.4l3.2,29.2c0.4,2.5-1.3,4.8-3.8,5.3c-0.2,0-0.5,0.1-0.7,0.1
				c-2.2-0.1-4-1.7-4.5-3.8L99.6,75.4c-1.1-4-1.7-8.1-2.1-12.2c-0.3-5.1-0.6-17-0.6-17L78.2,66.5C77,68,74.8,68.2,73.3,67
				s-1.7-3.5-0.4-4.9l0,0l20.7-29.9c3-4.6,8.3-6.5,14.9-6.9C108.9,25.3,109.3,25.2,109.7,25.2 M109.7,23.2c-0.4,0-0.9,0-1.3,0
				c-7.9,0.5-13.3,3-16.5,7.7L71.3,60.8c-1.9,2.3-1.6,5.8,0.7,7.7s5.8,1.6,7.7-0.7l0,0L95,51.1c0.1,3.9,0.3,9.2,0.4,12.2
				c0.3,4.2,1,8.5,2.1,12.6l0,0l0,0l12.5,41.8c0.8,3,3.4,5.1,6.5,5.2c0.3,0,0.7,0,1-0.1c3.6-0.6,6-3.9,5.4-7.5l-3.2-29l1.6-36.5
				l1.1,2l8.6,14.5c1.4,2.7,4.8,3.7,7.4,2.3s3.7-4.8,2.3-7.4L133.5,46l-5.8-12.3C125.3,28.5,118.7,23.2,109.7,23.2"/>
		</g>
	</g>
</g>
</svg>
