<?xml version="1.0" encoding="utf-8"?>
<!-- Generator: Adobe Illustrator 24.3.0, SVG Export Plug-In . SVG Version: 6.00 Build 0)  -->
<svg version="1.1" id="レイヤー_1" xmlns="http://www.w3.org/2000/svg" xmlns:xlink="http://www.w3.org/1999/xlink" x="0px"
	 y="0px" viewBox="0 0 374.3 149.3" style="enable-background:new 0 0 374.3 149.3;" xml:space="preserve">
<style type="text/css">
	.st0{fill:#FFFFFF;}
	.st1{fill:#5B8DCD;}
</style>
<path class="st0" d="M157.9,149.3l-4.6-18.9c-0.5-2.2-2.5-3.8-4.8-3.8h-12.8c-6.6,0-12-5.4-12-12V36.9c0-6.6,5.4-12,12-12h100.1
	c6.6,0,12,5.4,12,12v77.7c0,6.6-5.4,12-12,12h-53.5c-2.9,0-5.6,1.2-7.5,3.4L157.9,149.3z M135.8,28.9c-4.4,0-8,3.6-8,8v77.7
	c0,4.4,3.6,8,8,8h12.8c4.1,0,7.7,2.8,8.7,6.8l2.8,11.4l11.8-13.4c2.7-3,6.5-4.8,10.5-4.8h53.5c4.4,0,8-3.6,8-8V36.9c0-4.4-3.6-8-8-8
	L135.8,28.9z"/>
<g id="レイヤー_4">
	<path id="パス_1167" class="st0" d="M162.1,75.8c-0.4,0-0.7,0.3-0.7,0.7l0,0v15c0,0.4,0.3,0.7,0.7,0.7l0,0h12.2
		c0.4,0,0.7-0.3,0.7-0.7l0,0l0,0v-15c0-0.4-0.3-0.7-0.7-0.7l0,0H162.1z M173.6,90.8h-10.8v-6.1h10.9L173.6,90.8z M173.6,83.2h-10.8
		v-6.1h10.9L173.6,83.2z"/>
	<path id="パス_1168" class="st0" d="M196.8,76.5v15c0,0.4,0.3,0.7,0.7,0.7l0,0h12.3c0.4,0,0.7-0.3,0.7-0.7l0,0v-15
		c0-0.4-0.3-0.7-0.7-0.7l0,0h-12.3C197.1,75.8,196.8,76.1,196.8,76.5L196.8,76.5L196.8,76.5 M198.1,77.1H209v6.2h-10.9V77.1z
		 M198.1,84.7H209v6.2h-10.9V84.7z"/>
	<rect id="長方形_1810" x="162.6" y="42.3" class="st0" width="46.6" height="16"/>
	<path id="パス_1169" class="st0" d="M215.9,54.9c0-1-0.8-1.9-1.9-1.9l0,0h-3.4v6c0,0.4-0.3,0.7-0.7,0.7l0,0H205v5.8
		c0,3,2.4,5.4,5.4,5.4h0.1c0.9,0,1.8-0.2,2.7-0.7v31.5h-19.4V84.1c0-4.3-3.5-7.7-7.7-7.7l0,0H186c-4.3,0-7.7,3.5-7.7,7.7l0,0v17.5
		h-19.4V70.2c0.8,0.5,1.7,0.7,2.7,0.7h0.1c3,0,5.4-2.4,5.4-5.4v-5.8h-4.9c-0.4,0-0.7-0.3-0.7-0.7l0,0v-6h-3.4c-1,0-1.9,0.8-1.9,1.9
		v10.6c0,1.3,0.5,2.5,1.3,3.5v33.3c0,0.4,0.3,0.7,0.7,0.7l0,0h55.6c0.4,0,0.7-0.3,0.7-0.7l0,0l0,0V69c0.9-1,1.4-2.2,1.4-3.6
		L215.9,54.9z"/>
	<path id="パス_1170" class="st0" d="M192.6,65.5c0,3,2.4,5.4,5.4,5.4h0.1c3,0,5.4-2.4,5.4-5.4v-5.8h-10.9V65.5z"/>
	<path id="パス_1171" class="st0" d="M185.9,70.9h0.1c3,0,5.4-2.4,5.4-5.4v-5.8h-10.9v5.8C180.4,68.4,182.9,70.8,185.9,70.9"/>
	<path id="パス_1172" class="st0" d="M179.1,65.5v-5.8h-10.9v5.8c0,3,2.4,5.4,5.4,5.4h0.1C176.6,70.8,179.1,68.4,179.1,65.5"/>
	<path id="パス_1173" class="st1" d="M178.1,45.2c-0.2,0-0.4,0.2-0.4,0.4v2.2c0,0.2-0.1,0.4-0.3,0.4s-0.3-0.1-0.3-0.3v-2.3
		c0-0.3-0.2-0.5-0.5-0.5s-0.5,0.2-0.5,0.5l0,0v2.3c0,0.2-0.1,0.3-0.3,0.3l0,0c-0.2,0-0.3-0.1-0.3-0.4v-2.2c0-0.2-0.2-0.4-0.4-0.5
		l0,0c-0.2,0-0.4,0.2-0.4,0.4s-0.2,1.8-0.2,2.8c0,0.7,0.4,1.4,1.1,1.8c0.3,0.1,0.5,0.4,0.5,0.7l-0.2,5.5h1.5l-0.2-5.5
		c0-0.3,0.2-0.6,0.5-0.7c0.6-0.4,1-1,1-1.8c0-1-0.1-2.5-0.2-2.8C178.6,45.4,178.4,45.2,178.1,45.2"/>
	<path id="パス_1174" class="st1" d="M195.1,45.2c-1,0-2.1,1.1-2.1,2.8c0.1,0.8,0.4,1.6,1.1,2.1c0.3,0.3,0.5,0.4,0.5,0.7l-0.2,5.5
		h1.5l-0.2-5.5c0-0.3,0.1-0.4,0.5-0.7c0.6-0.5,1-1.3,1.1-2.1C197.2,46.3,196.1,45.2,195.1,45.2"/>
	<path id="パス_1175" class="st1" d="M192.1,49.9c0,3.4-2.7,6.1-6.1,6.1s-6.1-2.7-6.1-6.1c0-3.4,2.7-6.1,6.1-6.1l0,0l0,0
		C189.2,43.8,192.1,46.5,192.1,49.9L192.1,49.9"/>
</g>
</svg>
