<?xml version="1.0" encoding="utf-8"?>
<!-- Generator: Adobe Illustrator 24.3.0, SVG Export Plug-In . SVG Version: 6.00 Build 0)  -->
<svg version="1.1" id="レイヤー_1" xmlns="http://www.w3.org/2000/svg" xmlns:xlink="http://www.w3.org/1999/xlink" x="0px"
	 y="0px" viewBox="0 0 374.3 149.3" style="enable-background:new 0 0 374.3 149.3;" xml:space="preserve">
<style type="text/css">
	.st0{clip-path:url(#SVGID_2_);}
	.st1{fill:#5B8DCD;}
	.st2{fill:#CBDAEE;}
</style>
<g>
	<g>
		<g>
			<defs>
				<rect id="SVGID_1_" y="0" width="374.3" height="125.6"/>
			</defs>
			<clipPath id="SVGID_2_">
				<use xlink:href="#SVGID_1_"  style="overflow:visible;"/>
			</clipPath>
			<g id="グループ_1856" transform="translate(0 0)" class="st0">
				<path id="パス_1230" class="st1" d="M37.3,78.1c-4.3,0-7.8-3.5-7.8-7.8s3.5-7.8,7.8-7.8s7.8,3.5,7.8,7.8
					c0,0.8-0.1,1.6-0.4,2.4C43.7,75.9,40.7,78.1,37.3,78.1"/>
				<path id="パス_1231" class="st2" d="M37.3,63.5c3.8,0,6.8,3,6.8,6.8s-3,6.8-6.8,6.8s-6.8-3-6.8-6.8c0-0.7,0.1-1.4,0.3-2.1
					C31.7,65.4,34.3,63.5,37.3,63.5 M37.3,61.5c-4.9,0-8.8,3.9-8.8,8.8s3.9,8.8,8.8,8.8s8.8-3.9,8.8-8.8c0-3.8-2.4-7.2-6.1-8.4
					C39.1,61.6,38.2,61.5,37.3,61.5"/>
				<path id="パス_1232" class="st1" d="M48.9,122.1c-1.2,0-2.3-0.5-3.1-1.4l-17.4-13.3l-6.1,7.7c-0.9,1.3-2.3,2-3.9,2
					c-0.9,0-1.9-0.2-2.7-0.5h-0.1l-0.1-0.1l-12-5.4c-2-0.7-3.1-3-2.3-5c0.7-2,2.9-3,4.9-2.3l9.6,2.1l8.9-21.4
					c1.8-4.2,5.1-6.6,8.9-6.6c2.6,0.1,5.1,1,7.2,2.5l13.4,10.3c1.5,1.1,1.9,3.3,0.7,4.8c-0.7,0.9-1.7,1.4-2.8,1.4
					c-0.7,0-1.4-0.2-2-0.6l-10.7-5.6l-4,6.7L52,115.1c1.5,1.8,1.4,4.4-0.4,6C50.9,121.7,49.9,122.1,48.9,122.1"/>
				<path id="パス_1233" class="st2" d="M33.6,78.8c2.4,0.1,4.7,0.9,6.6,2.4l13.3,10.2c1.1,0.8,1.3,2.4,0.5,3.5s-2.4,1.3-3.5,0.5
					L39,89.3l-4.8,8.2l17.1,18.3c1.2,1.4,1,3.4-0.3,4.5c-1.4,1.2-3.4,1-4.5-0.3l-18.3-14l-6.7,8.4c-0.7,1-1.8,1.6-3.1,1.6
					c-0.8,0-1.6-0.2-2.4-0.5l0,0L3.9,110c-1.5-0.5-2.3-2.2-1.8-3.7s2.2-2.3,3.7-1.8l10.5,2.3l9.2-22.2
					C27.2,80.9,30.1,78.8,33.6,78.8 M33.6,76.8c-4.3,0-7.9,2.6-9.9,7.1l-8.6,20.7l-8.7-1.9c-2.6-0.9-5.3,0.5-6.2,3
					c-0.9,2.6,0.5,5.3,3,6.2l0,0l11.9,5.4h0.1h0.1h0.1c1,0.4,2,0.6,3.1,0.6c1.9,0,3.6-0.9,4.7-2.4l5.4-6.8L45,121.4
					c2,2.1,5.3,2.2,7.4,0.2c2-1.9,2.2-5.1,0.4-7.2l0,0l0,0L36.7,97.2l3.1-5.2l9.8,5.1c0.7,0.5,1.6,0.8,2.5,0.8
					c1.4,0,2.8-0.7,3.6-1.8c1.5-2,1-4.8-1-6.2L41.4,79.6l0,0l0,0C39.1,77.8,36.4,76.9,33.6,76.8"/>
				<path id="パス_1234" class="st1" d="M60.7,123.3c-0.2,0-0.5,0-0.7-0.1c-2.1-0.4-3.5-2.4-3.3-4.6l2.8-39.5
					c0.6-4.3,3.2-6.6,7.2-6.6c2,0.1,3.9,0.5,5.7,1.2l15.1,7.5c1.7,0.7,2.5,2.7,1.8,4.4c-0.4,1.3-1.6,2.1-3,2.1
					c-0.5,0-0.9-0.1-1.4-0.2l-11.8-2.6L71,93.5l9.7,5.3c1.7,0.9,2.3,3.1,1.5,5.3l-3.7,10.1c-0.4,1.7-2,2.9-3.7,3
					c-0.2,0-0.4,0-0.7-0.1c-2.1-0.4-3.4-2.4-3.1-4.4l1.6-7.6l-4.3-0.9L64.7,120C64.3,121.9,62.6,123.3,60.7,123.3"/>
				<path id="パス_1235" class="st2" d="M66.7,73.5c1.8,0.1,3.6,0.4,5.3,1.2l15,7.5c1.2,0.5,1.8,1.9,1.3,3.1
					c-0.3,0.9-1.1,1.5-2.1,1.5c-0.4,0-0.7-0.1-1.1-0.2l-12.8-2.8L70,94.2l10.3,5.7c1.3,0.7,1.6,2.5,1.1,4.1l-3.7,10.1
					c-0.3,1.3-1.4,2.2-2.8,2.3c-0.2,0-0.3,0-0.5,0c-1.5-0.3-2.5-1.7-2.3-3.3l0,0l1.8-8.5l-6.2-1.3l-4,16.5c-0.3,1.7-1.9,2.8-3.5,2.5
					c-1.6-0.4-2.7-1.9-2.5-3.5l2.8-39.5C61.2,74.9,63.8,73.5,66.7,73.5 M66.7,71.5c-4.5,0-7.5,2.7-8.2,7.3v0.1V79l-2.8,39.5
					c-0.3,2.7,1.5,5.1,4.1,5.6c2.7,0.5,5.3-1.3,5.8-4l3.5-14.5l2.4,0.5l-1.4,6.6l0,0l0,0c-0.5,2.6,1.3,5.1,3.9,5.6l0,0
					c0.3,0.1,0.6,0.1,0.8,0.1c2.2-0.1,4.1-1.6,4.7-3.7l3.7-10.1c1-2.7,0.1-5.4-2-6.6l-9-5l1.7-6.9l10.8,2.3c0.5,0.2,1,0.2,1.6,0.2
					c1.8,0,3.3-1.1,3.9-2.7c0.9-2.2-0.1-4.8-2.3-5.7l-15-7.5h-0.1h-0.1C70.9,72,68.8,71.6,66.7,71.5"/>
				<path id="パス_1236" class="st1" d="M67.5,72c-0.5,0-1-0.1-1.6-0.2c-4.3-0.9-7.1-5.1-6.3-9.4c0.9-4.3,5.1-7.1,9.4-6.3
					c4.3,0.9,7.1,5.1,6.3,9.4C74.6,69.3,71.3,72,67.5,72"/>
				<path id="パス_1237" class="st2" d="M67.5,57c3.9,0,7,3.1,7,7s-3.1,7-7,7s-7-3.1-7-7c0-0.5,0-0.9,0.1-1.4
					C61.3,59.4,64.2,57,67.5,57 M67.5,55L67.5,55c-5,0-9,4-9,9s4,9,9,9s9-4,9-9c0-4.3-3-8-7.2-8.8C68.7,55.1,68.1,55,67.5,55"/>
			</g>
		</g>
	</g>
</g>
</svg>
