<?xml version="1.0" encoding="utf-8"?>
<!-- Generator: Adobe Illustrator 24.3.0, SVG Export Plug-In . SVG Version: 6.00 Build 0)  -->
<svg version="1.1" id="レイヤー_1" xmlns="http://www.w3.org/2000/svg" xmlns:xlink="http://www.w3.org/1999/xlink" x="0px"
	 y="0px" viewBox="0 0 374.3 149.3" style="enable-background:new 0 0 374.3 149.3;" xml:space="preserve">
<style type="text/css">
	.st0{fill:#FFFFFF;}
	.st1{fill:#5B8DCD;}
</style>
<path class="st0" d="M105.7,124.4l-16.8-19.2c-1.9-2.2-4.6-3.4-7.5-3.4H27.8c-6.6,0-12-5.4-12-12V12c0-6.6,5.4-12,12-12h100.1
	c6.6,0,12,5.4,12,12v77.7c0,6.6-5.4,12-12,12h-12.8c-2.3,0-4.3,1.6-4.8,3.8L105.7,124.4z M81.4,97.8c4,0,7.9,1.7,10.5,4.8l11.8,13.4
	l2.8-11.4c1-4,4.6-6.8,8.7-6.8H128c4.4,0,8-3.6,8-8V12c0-4.4-3.6-8-8-8H27.8c-4.4,0-8,3.6-8,8v77.7c0,4.4,3.6,8,8,8L81.4,97.8z"/>
<g id="レイヤー_3">
	<path id="パス_1186" class="st0" d="M119.2,37.2h-3.4l-4.2-8.8H89.3V24c0-0.5-0.4-0.9-0.9-0.9l0,0h-3.3l-6.4-7H46.3l-6.4,7.1
		h-3.3c-0.5,0-0.9,0.4-0.9,0.9l0,0l0,0v20.3c0,0.5,0.4,0.9,0.9,0.9l0,0h2.3v36.9c0,0.5,0.4,0.9,0.9,0.9l0,0h75
		c0.5,0,0.9-0.4,0.9-0.9l0,0V50.4h3.6c0.5,0,0.9-0.4,0.9-0.9l0,0V38.2C120.2,37.6,119.8,37.2,119.2,37.2L119.2,37.2 M84.3,81.3H40.7
		v-36h43.5L84.3,81.3z M37.5,25h50v18.4h-50V25z M113.9,81.3h-6.1V63.4c0-4.3-3.5-7.8-7.8-7.8l0,0h-0.2c-4.3,0-7.8,3.5-7.8,7.8l0,0
		v17.9h-5.9V50.4h27.7L113.9,81.3L113.9,81.3z M118.4,48.5H86.1v-3.2h2.3c0.5,0,0.9-0.4,0.9-0.9l0,0l0,0v-5.2h29L118.4,48.5z"/>
	<rect id="長方形_1814" x="47.3" y="51.6" class="st0" width="8.9" height="10.8"/>
	<rect id="長方形_1815" x="68.8" y="51.6" class="st0" width="8.9" height="10.8"/>
	<rect id="長方形_1816" x="58.1" y="51.6" class="st0" width="8.9" height="10.8"/>
	<rect id="長方形_1817" x="68.8" y="64.2" class="st0" width="8.9" height="11.3"/>
	<rect id="長方形_1818" x="47.3" y="64.2" class="st0" width="8.9" height="11.3"/>
	<rect id="長方形_1819" x="58.1" y="64.2" class="st0" width="8.9" height="11.3"/>
	<path id="パス_1187" class="st1" d="M54.7,28.7c-0.2,0-0.4,0.2-0.4,0.4v2.2c0,0.2-0.1,0.4-0.3,0.4s-0.3-0.1-0.3-0.3l0,0v-2.3
		c0-0.3-0.2-0.5-0.5-0.5l0,0c-0.3,0-0.5,0.2-0.5,0.5v2.3c0,0.2-0.1,0.3-0.3,0.3l0,0l0,0c-0.2,0-0.3-0.1-0.3-0.4v-2.2
		c0-0.2-0.2-0.4-0.4-0.5l0,0c-0.2,0-0.4,0.2-0.4,0.4c0,0.2-0.2,1.8-0.2,2.8c0,0.7,0.4,1.4,1.1,1.8c0.3,0.1,0.5,0.4,0.5,0.7l-0.2,5.5
		H54l-0.2-5.4c0-0.3,0.2-0.6,0.5-0.7c0.7-0.3,1.1-1,1.1-1.8c0-1-0.2-2.6-0.2-2.8C55.2,28.9,55,28.7,54.7,28.7"/>
	<path id="パス_1188" class="st1" d="M71.6,28.7c-1,0-2.1,1.1-2.1,2.9c0.1,0.8,0.5,1.6,1.1,2.1c0.3,0.3,0.5,0.4,0.5,0.7l-0.2,5.5
		h1.5l-0.2-5.5c0-0.3,0.1-0.4,0.5-0.7c0.6-0.5,1-1.3,1.1-2.1C73.8,29.8,72.7,28.7,71.6,28.7"/>
	<path id="パス_1189" class="st1" d="M68.6,33.4c0,3.4-2.7,6.1-6.1,6.1c-3.4,0-6.1-2.7-6.1-6.1s2.7-6.1,6.1-6.1l0,0
		C65.8,27.3,68.6,30,68.6,33.4L68.6,33.4L68.6,33.4"/>
</g>
</svg>
