<svg xmlns="http://www.w3.org/2000/svg" width="352.476" height="185.088" viewBox="0 0 352.476 185.088">
  <path id="パス_1325" data-name="パス 1325" d="M26.4-25.542a2.4,2.4,0,0,1-2.408-2.408V-38.184c.172-1.462.86-2.322,2.408-2.322h9.2a2.126,2.126,0,0,1,2.322,2.322V-27.95A2.28,2.28,0,0,1,35.6-25.542ZM37.84-15.566c0,.258-.086.516-.086.774,0,1.892,1.462,1.806,4.472,1.806,3.354,0,4.386,0,4.386-1.978,0-2.236-.172-4.472-.172-6.708V-39.9c0-1.806.086-3.526.086-5.332,0-2.924-1.892-3.526-4.472-3.526-1.892,0-3.784.086-5.762.086H25.628c-1.892,0-3.87-.086-5.762-.086-2.58,0-4.472.6-4.472,3.526,0,1.806.086,3.526.086,5.332v20.812c0,2.236-.172,4.472-.172,6.794,0,1.892,1.118,1.892,4.386,1.892,3.44,0,4.472,0,4.472-1.892,0-1.032-.086-1.978-.086-2.924,0-1.634.688-2.322,2.322-2.322h9.46C37.238-17.544,37.754-16.942,37.84-15.566Zm21.328,4.644c0,5.418.43,7.138-5.934,7.138-2.322,0-4.128-.344-5.332-.344-1.72,0-1.892,1.376-1.892,2.752a12.056,12.056,0,0,0,1.376,5.418c.86,1.2,2.924,1.2,4.3,1.2,3.784,0,10.406-.6,13.588-2.58C68.026.946,68.542-2.15,68.542-5.16c0-1.978-.086-4.042-.086-6.02v-46.1c0-1.634.516-2.236,2.15-2.408,2.838.086,5.676.172,8.6.172,2.064,0,2.15-.86,2.15-4.386s0-4.558-2.236-4.558c-3.612,0-7.224.258-10.836.258H18.576c-3.612,0-7.224-.258-10.836-.258-2.236,0-2.15,1.118-2.15,4.558,0,3.354-.086,4.386,2.15,4.386,3.612,0,7.224-.172,10.836-.172H56.76c1.634,0,2.408.688,2.408,2.408Zm52.288-10.32a1.987,1.987,0,0,1,2.064-2.064h9.89a1.987,1.987,0,0,1,2.064,2.064v1.376a1.919,1.919,0,0,1-2.064,1.978h-9.89a1.919,1.919,0,0,1-2.064-1.978Zm2.064-8.686a1.987,1.987,0,0,1-2.064-2.064V-33.11a1.987,1.987,0,0,1,2.064-2.064h9.89a1.987,1.987,0,0,1,2.064,2.064v1.118a1.987,1.987,0,0,1-2.064,2.064Zm11.954,23.65c0,2.666-.258,3.268-3.7,3.268-1.72,0-2.494-.172-3.268-.172-1.72,0-1.806,1.118-1.806,2.494,0,5.074,1.462,5.5,4.472,5.5,7.138,0,12.47,0,12.47-7.482,0-1.72-.086-3.354-.086-5.074V-33.024c0-2.064.086-4.042.086-6.106,0-2.924-1.548-3.354-4.128-3.354-1.892,0-3.7.086-5.59.086H113c-1.892,0-3.784-.086-5.676-.086-2.58,0-3.956.6-3.956,3.44,0,1.978.086,4.042.086,6.106V-5.332c0,2.752-.172,5.59-.172,8.342,0,1.892,1.032,1.978,4.214,1.978,3.526,0,4.128-.086,4.128-2.15,0-2.752-.172-5.418-.172-8.17V-8.858c0-1.634.688-2.408,2.408-2.408h9.2c1.72,0,2.408.774,2.408,2.408ZM165.98-28.724c-3.01,2.322-10.062,5.848-13.674,7.4a2.511,2.511,0,0,1-.774.172c-.946,0-1.29-.774-1.376-1.72,0-3.1-.086-5.246,1.2-6.02.516-.258,1.2-.516,1.2-1.2,0-1.118-1.462-1.2-2.322-1.2-1.2-.172-6.622-.6-7.654-.6-.774,0-1.376.172-1.376,1.118a3.528,3.528,0,0,0,.086.946,69.217,69.217,0,0,1,.258,7.31v13.76c0,1.892-.086,3.784-.086,5.676,0,6.88,5.246,6.708,10.406,6.708H164.69c3.354,0,6.45-.258,8.342-3.526,1.2-2.236,3.1-7.74,3.1-10.148,0-2.494-4.3-3.7-5.934-3.7-1.806,0-1.806,1.032-2.064,2.58-.946,6.45-2.494,6.88-5.5,6.88h-8.858c-2.838,0-3.612-.6-3.612-3.44v-3.182a2.714,2.714,0,0,1,2.15-3.1c6.536-2.236,11.008-3.784,17.2-7.138a1.96,1.96,0,0,1,.946-.258,3.629,3.629,0,0,1,1.032.258,2.544,2.544,0,0,0,.86.172.91.91,0,0,0,1.032-.86c0-.774-1.29-2.064-2.064-3.1-1.548-1.892-3.268-4.472-4.128-4.472A1.937,1.937,0,0,0,165.98-28.724Zm.258-39.13c-2.58,2.236-10.406,6.106-13.674,7.482a1.414,1.414,0,0,1-.774.172c-.946,0-1.376-.688-1.376-1.548v-1.634c0-1.634.086-3.354,1.118-3.87.516-.344,1.118-.516,1.118-1.2,0-.774-.86-1.118-1.548-1.2-1.032-.086-7.31-.6-8.342-.6-.774,0-1.376.258-1.376,1.118,0,.344.086.688.086.946.172,2.408.258,5.074.258,7.4V-49.02c0,1.978-.086,3.87-.086,5.848,0,6.708,4.988,6.708,10.406,6.708H164.69c3.354,0,6.364-.258,8.17-3.526,1.376-2.408,3.182-6.794,3.182-9.546,0-2.838-3.784-3.612-5.848-3.612-1.72,0-1.892.688-2.15,2.15-.86,5.074-1.29,6.364-5.246,6.364H153.94c-2.838,0-3.526-.6-3.526-3.44v-2.064c0-1.806.43-2.408,2.15-3.01a121.556,121.556,0,0,0,17.028-6.88,1.816,1.816,0,0,1,.86-.344,5.252,5.252,0,0,1,1.118.258,1.96,1.96,0,0,0,.946.258.9.9,0,0,0,.946-.946c0-.946-2.752-4.042-3.526-5.16-.946-1.29-1.806-2.494-2.494-2.494A3.177,3.177,0,0,0,166.238-67.854Zm-61.4,20.726c8-.6,15.91-1.548,23.822-2.408h.6a2.729,2.729,0,0,1,2.58,1.72c.774,1.548.946,2.15,1.892,2.15,1.462,0,5.762-1.548,5.762-3.354,0-1.29-3.612-7.74-4.472-9.2s-3.268-5.5-4.214-6.794c-.516-.6-.86-1.118-1.72-1.118s-5.418,1.462-5.418,2.924c0,.774,1.892,3.612,2.408,4.386a1.96,1.96,0,0,1,.258.946c0,.86-.6,1.2-1.376,1.376-2.752.258-5.5.516-8.256.688-.774,0-1.376-.258-1.376-1.118a2.511,2.511,0,0,1,.172-.774c1.634-2.924,3.01-5.848,4.472-8.858a1.971,1.971,0,0,1,1.29-1.032c.688-.172,1.634-.258,1.634-1.118,0-1.032-2.666-1.72-3.44-1.978-.86-.258-4.9-1.548-5.5-1.548s-.774.688-.946,1.118a144.806,144.806,0,0,1-5.848,14.19c-.86,1.72-1.892,1.978-3.7,1.978-3.7,0-4.214.258-4.214,1.2a46.279,46.279,0,0,0,1.634,6.106c.344,1.29.688,2.494,1.634,2.494.6,0,.946-.516,1.29-1.032A1.435,1.435,0,0,1,104.834-47.128Zm100.1,38.442c0,3.784-.172,7.482-.172,11.266,0,2.236.6,3.1,4.386,3.1,3.1,0,4.3-.43,4.3-2.752,0-3.87-.172-7.74-.172-11.61v-53.75c0-3.182.086-5.074,1.032-5.934.516-.344,1.2-.774,1.2-1.462,0-1.118-1.462-1.29-2.236-1.376-1.548-.172-5.074-.43-6.536-.43-1.118,0-1.978.086-1.978,1.462,0,.86.172,5.934.172,10.148Zm-.6-45.236c0-1.032-1.548-1.2-2.494-1.376-.172,0-.344-.086-.516-.086-.688-.086-3.87-.516-4.3-.516-1.118,0-1.29.774-1.29,1.72v1.032a72.822,72.822,0,0,1-3.01,18.232,7.512,7.512,0,0,0-.43,1.892c0,1.548,3.784,2.322,5.074,2.322,1.634,0,1.892-.946,2.236-2.322a111.082,111.082,0,0,0,3.01-17.63c.172-1.806.172-1.978,1.032-2.408C203.906-53.234,204.336-53.492,204.336-53.922ZM240.8-7.74c0,1.634-.688,2.322-2.408,2.322h-7.654c-3.182,0-6.278-.172-9.46-.172-2.236,0-2.15,1.032-2.15,4.128s-.086,4.214,2.15,4.214c3.182,0,6.278-.172,9.46-.172h27.52c3.182,0,6.278.172,9.46.172,2.236,0,2.15-1.032,2.15-4.128s.086-4.214-2.15-4.214c-3.1,0-6.278.172-9.46.172H251.98c-1.72,0-2.408-.688-2.408-2.322V-19.35c0-1.72.688-2.408,2.408-2.408h2.408c3.1,0,6.192.258,9.288.258,2.15,0,2.064-1.29,2.064-4.214,0-3.01.086-4.214-2.236-4.214-3.01,0-6.02.258-9.116.258H251.98c-1.72,0-2.408-.688-2.408-2.408V-42.14c0-1.634.688-2.408,2.408-2.408h4.644c3.268,0,6.45.258,9.632.258,2.064,0,1.978-1.118,1.978-4.128,0-3.182.086-4.214-1.978-4.214-3.182,0-6.364.258-9.632.258H251.98c-1.72,0-2.408-.688-2.408-2.408v-8.944c0-3.01.086-4.386,1.032-4.988.774-.6,1.2-.774,1.2-1.376,0-.946-1.29-1.032-1.978-1.032-1.376-.172-6.794-.688-7.912-.688-.86,0-1.548.172-1.548,1.2,0,.258.086.6.086.86.172,2.064.344,4.988.344,7.568v7.4c0,1.72-.688,2.408-2.408,2.408h-2.408c-1.118,0-1.978-.516-1.978-1.72v-.516c.344-1.892.6-3.268.774-4.386.43-2.494.516-3.01,1.548-3.7a1.424,1.424,0,0,0,.86-1.118c0-1.032-1.72-1.29-2.494-1.462-1.032-.172-5.16-1.032-5.934-1.032-1.29,0-1.29,1.2-1.376,2.15a84.785,84.785,0,0,1-3.1,16.77c-.172.258-.344.43-.6.43a.644.644,0,0,1-.6-.516c-.516-2.322-1.032-4.644-1.72-6.88-.86-3.1-1.2-4.472-2.752-4.472-.6,0-4.3.774-4.3,2.408a5.252,5.252,0,0,0,.258,1.118,75.767,75.767,0,0,1,2.666,11.61c.258,1.462.516,2.15,2.15,2.15.43,0,.86-.086,1.29-.086.688-.086,1.2.172,1.2.774a7.188,7.188,0,0,1-.688,1.72,29.869,29.869,0,0,0-1.806,4.558c0,1.892,4.472,3.1,5.934,3.1a1.754,1.754,0,0,0,1.72-1.2,55.83,55.83,0,0,0,3.87-9.718c.516-1.634,1.29-1.978,3.01-2.15h4.472c1.72,0,2.408.774,2.408,2.408v10.062c0,1.72-.688,2.408-2.408,2.408h-3.1c-3.1,0-6.106-.258-9.116-.258-2.322,0-2.236,1.2-2.236,4.214s-.086,4.214,2.15,4.214c3.1,0,6.106-.258,9.2-.258h3.1c1.72,0,2.408.774,2.408,2.408Zm94.824-5.134c0,3.362-2.05,4.51-5.166,4.51-2.05,0-5.986-.9-5.986-3.526,0-2.542,4.018-3.2,5.9-3.2C331.934-15.088,335.624-15.006,335.624-12.874Zm-1.64-49.692a1,1,0,0,0-1.148,1.148c0,.246.082.574.082.82.328,2.05.984,10,.984,11.726,0,1.8-1.886,1.968-3.854,1.968h-1.312c-4.264,0-11.562-.82-12.546-.82-1.23,0-1.312.984-1.312,2.05s.082,5.74.82,6.232c.738.574,4.182.656,6.232.656H323c3.28,0,9.1-.328,9.758-.328,2.05,0,1.886,2.3,1.968,3.116.082,2.378.492,10.168.492,12.218,0,1.066-.492,1.722-1.64,1.722H333a21,21,0,0,0-3.2-.246c-6.4,0-12.874,2.952-12.874,10.332,0,7.544,7.134,10.66,13.694,10.66,4.92,0,10.414-1.64,11.89-6.888.164-.656.41-1.312,1.23-1.312,1.066,0,5.166,3.608,6.068,4.51a3.751,3.751,0,0,0,2.3,1.23c1.886,0,4.756-3.772,4.756-5.658,0-1.394-1.148-2.3-2.132-3.116a45.534,45.534,0,0,0-8.856-5.74c-1.8-.9-2.624-1.066-2.788-3.2-.082-2.132-.656-14.678-.656-16.318,0-2.05.984-2.378,2.788-2.624,9.676-1.312,10.25-1.886,10.25-3.444,0-1.23-.574-6.888-2.214-6.888a6.537,6.537,0,0,0-1.23.246c-1.476.492-6.806,2.05-8.2,2.05-1.23,0-1.722-.984-1.722-2.132v-2.3c0-3.608.41-5,.9-5.822.41-.738.9-.9.9-1.64,0-.492-.41-.656-.82-.738A77.6,77.6,0,0,0,333.984-62.566ZM307.908-59.86a31.056,31.056,0,0,0-5.248-2.132c-.738,0-.984.82-1.066,1.394-.9,3.608-2.05,7.134-2.952,10.742a94.189,94.189,0,0,0-2.87,22.96c0,8.692,1.148,17.384,4.838,25.256.574,1.148,1.23,2.706,2.624,2.706.41,0,6.232-.984,6.232-4.182,0-1.312-.164-2.624-.164-3.936,0-4.756,4.018-13.776,4.018-14.924,0-.984-2.624-2.624-3.526-2.624-.984,0-1.8,2.706-2.214,3.608-.82,1.886-1.23,2.952-1.8,2.952-1.558,0-1.8-7.79-1.8-9.1,0-7.462,1.722-18.04,4.51-24.928.984-2.542,1.476-3.28,3.362-4.182.41-.164.738-.328.738-.82,0-.82-1.476-1.394-2.132-1.64C309.958-58.876,308.974-59.368,307.908-59.86ZM79.808,108.29c0-.86-2.752-4.558-3.44-5.5-2.15-2.838-4.3-5.676-6.622-8.342a3.266,3.266,0,0,0-2.15-1.376c-1.29,0-5.762,2.666-5.762,4.128,0,.6,1.032,1.548,1.462,2.064a97.809,97.809,0,0,1,8.342,11.266c.6.86,1.2,1.978,2.408,1.978C75.68,112.5,79.808,110.1,79.808,108.29Zm-21.414.946c0-1.118-2.064-7.224-2.58-8.772C54.18,95.39,53.492,94.1,51.858,94.1c-1.032,0-6.106.688-6.106,2.408a3.189,3.189,0,0,0,.344,1.2,93.7,93.7,0,0,1,2.924,9.89c.6,2.838.774,4.3,2.58,4.3C52.374,111.9,58.394,111.386,58.394,109.236Zm-19.006.172a65.5,65.5,0,0,0-1.29-8.772c-.86-4.73-1.032-6.106-3.526-6.106-.86,0-6.02.43-6.02,2.15a7.744,7.744,0,0,0,.258,1.376A80.269,80.269,0,0,1,30.358,108.2c.258,2.838.344,3.956,2.408,3.956a17.611,17.611,0,0,0,4.816-.688C38.7,111.128,39.388,110.612,39.388,109.408ZM23.736,97.024c0-.86-.946-1.2-1.634-1.376-.43-.172-1.118-.43-1.892-.688a26.355,26.355,0,0,0-4.988-1.72c-.774,0-1.118.946-1.548,1.72A73.879,73.879,0,0,1,6.02,107.086a2.571,2.571,0,0,0-.86,1.462c0,1.548,4.558,3.956,6.192,3.956,1.118,0,1.548-.6,2.236-1.548A100.03,100.03,0,0,0,20.726,99.69c.43-.86.6-1.376,1.72-1.634C22.79,97.97,23.736,97.884,23.736,97.024Zm6.536-25.112a2.28,2.28,0,0,1,2.322,2.408v7.74a2.152,2.152,0,0,1-2.322,2.408H28.81c-1.462,0-2.236-.86-2.408-2.408V74.32a2.461,2.461,0,0,1,2.408-2.408Zm13.932,0a2.461,2.461,0,0,1,2.408,2.408v7.74c-.172,1.548-.946,2.408-2.408,2.408H42.742c-1.462,0-2.236-.86-2.408-2.408V74.32a2.461,2.461,0,0,1,2.408-2.408Zm14.018,0a2.28,2.28,0,0,1,2.322,2.408v7.74a2.152,2.152,0,0,1-2.322,2.408H56.674a2.152,2.152,0,0,1-2.322-2.408V74.32a2.28,2.28,0,0,1,2.322-2.408ZM30.272,52.046a2.28,2.28,0,0,1,2.322,2.408v7.31a2.28,2.28,0,0,1-2.322,2.408H28.81A2.461,2.461,0,0,1,26.4,61.764v-7.31a2.461,2.461,0,0,1,2.408-2.408Zm13.932,0a2.461,2.461,0,0,1,2.408,2.408v7.31A2.461,2.461,0,0,1,44.2,64.172H42.742a2.461,2.461,0,0,1-2.408-2.408v-7.31a2.461,2.461,0,0,1,2.408-2.408Zm14.018,0a2.28,2.28,0,0,1,2.322,2.408v7.31a2.28,2.28,0,0,1-2.322,2.408H56.674a2.28,2.28,0,0,1-2.322-2.408v-7.31a2.28,2.28,0,0,1,2.322-2.408Zm10.062,2.408c0-1.548.688-2.236,2.322-2.322,1.548,0,3.1.172,4.73.172,2.064,0,2.064-.86,2.064-4.128s.086-4.214-2.064-4.214c-3.268,0-6.536.172-9.8.172H26.316c-.774-.086-1.548-.344-1.548-1.29a2.511,2.511,0,0,1,.172-.774c.258-.43.43-.86.6-1.2.6-1.376.946-1.978,1.806-2.236.688-.172,1.978-.516,1.978-1.376,0-.344-.516-.946-3.268-1.634-.946-.258-5.074-1.2-5.676-1.2a1.114,1.114,0,0,0-1.118.86A76.409,76.409,0,0,1,5.5,56.776c-.344.43-1.118,1.118-1.118,1.72,0,1.634,4.3,4.042,5.762,4.042a2.875,2.875,0,0,0,2.064-1.2c1.892-2.15,3.526-4.386,5.16-6.622.258-.172.43-.344.688-.344.516,0,.6.43.688.86v6.536c0,1.72-.688,2.408-2.408,2.408-3.1.086-6.192-.258-9.374-.258C4.9,63.914,4.9,64.946,4.9,68.042c0,2.924-.086,4.042,2.064,4.042,3.1,0,6.278-.258,9.374-.172,1.72,0,2.408.688,2.408,2.408v7.74c0,1.634-.6,2.408-2.236,2.408-2.666.086-5.246-.172-7.912-.172-2.236,0-2.236.86-2.236,4.214,0,3.1,0,4.128,2.15,4.128,3.268,0,6.45-.172,9.718-.172h49.02c3.182,0,6.45.172,9.632.172,2.236,0,2.236-1.032,2.236-4.128s0-4.214-2.236-4.214c-.86,0-5.332.172-6.278.172-1.634-.086-2.322-.688-2.322-2.408V74.32c0-1.548.6-2.408,2.236-2.408,2.666,0,5.418.172,8.084.172,2.15,0,2.064-1.032,2.064-4.042s.086-4.128-2.064-4.128c-2.666,0-5.418.258-8.084.258-1.634,0-2.236-.86-2.236-2.408Zm43.344-5.676c0-1.72.688-2.408,2.408-2.408h4.558c.774,0,1.806,0,1.806,1.032,0,1.634-4.988,10.578-6.106,12.47-.516.774-1.634,2.322-1.634,3.268a2.875,2.875,0,0,0,1.29,2.15c4.042,4.042,7.31,9.8,7.31,15.652,0,3.354-.86,6.364-4.73,6.364-.774,0-1.462-.172-2.064-.172-1.2,0-1.376,1.118-1.376,2.064a16.507,16.507,0,0,0,.6,4.128c.6,1.806,1.29,2.408,3.268,2.408,8.944,0,12.986-5.418,12.986-14.018,0-7.052-2.752-11.868-6.622-17.458-.344-.516-1.2-1.548-1.2-2.15A10.757,10.757,0,0,1,123.5,59.27c1.548-2.752,7.4-13.76,7.4-16.34,0-1.72-2.236-4.386-5.074-4.386-1.548,0-3.526.086-5.418.086h-6.192c-2.236,0-4.472-.086-6.794-.086-3.1,0-4.214,1.118-4.214,4.214,0,2.494.086,4.9.086,7.31V97.454c0,4.214-.172,8.428-.172,12.642,0,2.666.86,2.752,4.386,2.752,3.44,0,4.386-.086,4.386-2.838,0-4.214-.258-8.428-.258-12.556ZM159.1,60.216a2.461,2.461,0,0,1,2.408,2.408V65.29A2.461,2.461,0,0,1,159.1,67.7H145.254a2.461,2.461,0,0,1-2.408-2.408V62.624a2.461,2.461,0,0,1,2.408-2.408Zm-13.846-6.45a2.461,2.461,0,0,1-2.408-2.408V48.606a2.28,2.28,0,0,1,2.408-2.322H159.1a2.28,2.28,0,0,1,2.408,2.322v2.752a2.461,2.461,0,0,1-2.408,2.408Zm-2.408,23.65c0-1.634.688-2.322,2.408-2.408a2.2,2.2,0,0,1,2.408,1.892,51.89,51.89,0,0,0,13.244,25.2c1.548,1.72,9.116,9.116,11.008,9.116,2.15,0,5.246-4.386,5.246-6.192,0-.688-.43-.946-.946-1.29a67.8,67.8,0,0,1-11.266-9.718,2.44,2.44,0,0,1-.6-1.462,2.336,2.336,0,0,1,.946-1.72c2.58-2.15,4.816-4.214,7.224-6.536a1.253,1.253,0,0,1,1.032-.43c.344,0,.6.086.946.086a.923.923,0,0,0,1.032-.946c0-.946-2.236-3.01-3.01-3.784l-1.2-1.2c-1.2-1.2-1.892-1.892-2.58-1.892-.6,0-1.118.688-1.462,1.376a82.471,82.471,0,0,1-6.45,6.966,1.971,1.971,0,0,1-1.29.516c-.688,0-1.032-.43-1.376-1.032a44.721,44.721,0,0,1-2.494-6.708c0-.172-.086-.43-.086-.6,0-1.2.946-1.548,1.892-1.634h1.118c2.236,0,4.558.172,6.88.172,3.182,0,4.558-.946,4.558-4.214,0-2.666-.172-5.246-.172-7.912v-12.3c0-2.666.172-5.332.172-8,0-3.354-1.376-4.3-4.644-4.3-2.236,0-4.558.172-6.794.172H145.856c-2.322,0-4.644-.172-6.88-.172-3.268,0-4.558.946-4.558,4.3,0,2.666.086,5.332.086,8V97.54c0,1.548-.43,2.408-2.064,2.752-2.494.43-4.386.774-5.762.946-3.354.516-3.784.6-3.784,1.548a18.111,18.111,0,0,0,1.2,3.87c.258.688.43,1.376.6,1.892.688,2.064,1.032,3.1,1.806,3.1.6,0,.946-.516,1.2-1.032.688-1.2.86-1.376,6.966-2.494,4.988-.946,14.018-2.924,18.748-4.214,1.548-.43,1.978-.946,1.978-3.182,0-1.462-.344-4.988-2.322-4.988-.172,0-7.052,1.806-8,1.978-.172,0-.43.086-.6.086-1.2,0-1.634-.946-1.634-1.978Zm82.646-7.31c-4.128,15.91-14.964,26.144-29.5,32.852a4.194,4.194,0,0,1-.6.258c-.86.43-1.892.946-1.892,1.978,0,1.376,2.236,7.138,4.386,7.138a7.4,7.4,0,0,0,3.01-1.032c.172,0,.258-.086.43-.172,13.072-6.622,24.424-17.286,30.014-31.046.258-.344.516-.688.946-.688a.935.935,0,0,1,.86.6c5.676,11.438,12.3,19.952,22.7,27.434,1.376,1.032,6.966,4.9,8.428,4.9,1.978,0,5.074-4.73,5.074-6.536,0-1.118-.774-1.462-1.634-1.978a63.359,63.359,0,0,1-29.584-33.8c0-.258-.086-.43-.086-.774,0-1.032.86-1.29,1.72-1.376h18.49c3.354,0,6.708.172,10.062.172,2.236,0,2.064-1.032,2.064-4.472,0-3.354.172-4.558-1.978-4.558-3.44,0-6.794.258-10.148.258h-19.35c-1.548,0-2.236-.688-2.322-2.236.258-5.332.086-10.578.258-15.824a2.606,2.606,0,0,1,1.29-2.666c.344-.258.688-.516.688-.946,0-.86-1.032-1.032-1.634-1.118-1.548-.172-6.622-.6-8.084-.6-.946,0-1.892.172-1.892,1.376a1.464,1.464,0,0,0,.086.6,65.29,65.29,0,0,1,.258,7.4v3.612c0,2.666-.086,5.418-.258,8.084-.172,1.72-.86,2.322-2.494,2.322H205.626c-3.354,0-6.708-.258-10.062-.258-2.15,0-2.064,1.118-2.064,4.558,0,3.354-.086,4.472,2.064,4.472,3.354,0,6.708-.172,10.062-.172H223.6c1.032,0,1.892.43,1.892,1.634Z" transform="translate(-4.386 72.24)" fill="#fff"/>
</svg>
