<svg xmlns="http://www.w3.org/2000/svg" width="1717.759" height="210.672" viewBox="0 0 1717.759 210.672">
  <path id="パス_1324" data-name="パス 1324" d="M70.917-68.607c-4.158-.462-6.006-2.541-6.468-6.468v-27.489c.462-3.927,2.31-6.237,6.468-6.237H95.634c3.927,0,6.237,2.31,6.237,6.237v27.489c0,3.927-2.31,6.006-6.237,6.468Zm30.723,26.8c0,.693-.231,1.386-.231,2.079,0,5.082,3.927,4.851,12.012,4.851,9.009,0,11.781,0,11.781-5.313,0-6.006-.462-12.012-.462-18.018v-48.972c0-4.851.231-9.471.231-14.322,0-7.854-5.082-9.471-12.012-9.471-5.082,0-10.164.231-15.477.231H68.838c-5.082,0-10.4-.231-15.477-.231-6.93,0-12.012,1.617-12.012,9.471,0,4.851.231,9.471.231,14.322v55.9c0,6.006-.462,12.012-.462,18.249,0,5.082,3,5.082,11.781,5.082,9.24,0,12.012,0,12.012-5.082,0-2.772-.231-5.313-.231-7.854,0-4.389,1.848-6.237,6.237-6.237h25.41C100.023-47.124,101.409-45.507,101.64-41.811Zm57.288,12.474c0,14.553,1.155,19.173-15.939,19.173-6.237,0-11.088-.924-14.322-.924-4.62,0-5.082,3.7-5.082,7.392,0,4.158,1.386,10.857,3.7,14.553,2.31,3.234,7.854,3.234,11.55,3.234,10.164,0,27.951-1.617,36.5-6.93,7.392-4.62,8.778-12.936,8.778-21.021,0-5.313-.231-10.857-.231-16.17V-153.846c0-4.389,1.386-6.006,5.775-6.468,7.623.231,15.246.462,23.1.462,5.544,0,5.775-2.31,5.775-11.781s0-12.243-6.006-12.243c-9.7,0-19.4.693-29.106.693H49.9c-9.7,0-19.4-.693-29.106-.693-6.006,0-5.775,3-5.775,12.243,0,9.009-.231,11.781,5.775,11.781,9.7,0,19.4-.462,29.106-.462H152.46c4.389,0,6.468,1.848,6.468,6.468Zm140.448-27.72A5.338,5.338,0,0,1,304.92-62.6h26.565a5.338,5.338,0,0,1,5.544,5.544v3.7c0,3.234-2.31,5.313-5.544,5.313H304.92c-3.234,0-5.544-2.079-5.544-5.313Zm5.544-23.331a5.338,5.338,0,0,1-5.544-5.544v-3a5.338,5.338,0,0,1,5.544-5.544h26.565a5.338,5.338,0,0,1,5.544,5.544v3a5.338,5.338,0,0,1-5.544,5.544Zm32.109,63.525c0,7.161-.693,8.778-9.933,8.778-4.62,0-6.7-.462-8.778-.462-4.62,0-4.851,3-4.851,6.7,0,13.629,3.927,14.784,12.012,14.784,19.173,0,33.495,0,33.495-20.1,0-4.62-.231-9.009-.231-13.629V-88.7c0-5.544.231-10.857.231-16.4,0-7.854-4.158-9.009-11.088-9.009-5.082,0-9.933.231-15.015.231H303.534c-5.082,0-10.164-.231-15.246-.231-6.93,0-10.626,1.617-10.626,9.24,0,5.313.231,10.857.231,16.4v74.151c0,7.392-.462,15.015-.462,22.407,0,5.082,2.772,5.313,11.319,5.313,9.471,0,11.088-.231,11.088-5.775,0-7.392-.462-14.553-.462-21.945v-9.471c0-4.389,1.848-6.468,6.468-6.468h24.717c4.62,0,6.468,2.079,6.468,6.468Zm108.8-60.291C437.745-70.917,418.8-61.446,409.1-57.288a6.745,6.745,0,0,1-2.079.462c-2.541,0-3.465-2.079-3.7-4.62,0-8.316-.231-14.091,3.234-16.17,1.386-.693,3.234-1.386,3.234-3.234,0-3-3.927-3.234-6.237-3.234C400.323-84.546,385.77-85.7,383-85.7c-2.079,0-3.7.462-3.7,3a9.475,9.475,0,0,0,.231,2.541,185.92,185.92,0,0,1,.693,19.635v36.96c0,5.082-.231,10.164-.231,15.246,0,18.48,14.091,18.018,27.951,18.018h34.419c9.009,0,17.325-.693,22.407-9.471,3.234-6.006,8.316-20.79,8.316-27.258,0-6.7-11.55-9.933-15.939-9.933-4.851,0-4.851,2.772-5.544,6.93-2.541,17.325-6.7,18.48-14.784,18.48H413.028c-7.623,0-9.7-1.617-9.7-9.24v-8.547c0-4.851,1.386-6.7,5.775-8.316,17.556-6.006,29.568-10.164,46.2-19.173a5.265,5.265,0,0,1,2.541-.693,9.748,9.748,0,0,1,2.772.693,6.834,6.834,0,0,0,2.31.462c2.079,0,2.772-1.386,2.772-2.31,0-2.079-3.465-5.544-5.544-8.316C455.994-72.072,451.374-79,449.064-79A5.2,5.2,0,0,0,445.83-77.154Zm.693-105.1c-6.93,6.006-27.951,16.4-36.729,20.1a3.8,3.8,0,0,1-2.079.462c-2.541,0-3.7-1.848-3.7-4.158v-4.389c0-4.389.231-9.009,3-10.4,1.386-.924,3-1.386,3-3.234,0-2.079-2.31-3-4.158-3.234-2.772-.231-19.635-1.617-22.407-1.617-2.079,0-3.7.693-3.7,3,0,.924.231,1.848.231,2.541.462,6.468.693,13.629.693,19.866v31.647c0,5.313-.231,10.4-.231,15.708,0,18.018,13.4,18.018,27.951,18.018h33.957c9.009,0,17.094-.693,21.945-9.471,3.7-6.468,8.547-18.249,8.547-25.641,0-7.623-10.164-9.7-15.708-9.7-4.62,0-5.082,1.848-5.775,5.775-2.31,13.629-3.465,17.094-14.091,17.094H413.49c-7.623,0-9.471-1.617-9.471-9.24v-5.544c0-4.851,1.155-6.468,5.775-8.085a326.5,326.5,0,0,0,45.738-18.48,4.878,4.878,0,0,1,2.31-.924,14.106,14.106,0,0,1,3,.693,5.265,5.265,0,0,0,2.541.693,2.424,2.424,0,0,0,2.541-2.541c0-2.541-7.392-10.857-9.471-13.86-2.541-3.465-4.851-6.7-6.7-6.7C448.833-183.876,447.216-182.721,446.523-182.259ZM281.589-126.588c21.483-1.617,42.735-4.158,63.987-6.468h1.617c3.465,0,5.544,1.848,6.93,4.62,2.079,4.158,2.541,5.775,5.082,5.775,3.927,0,15.477-4.158,15.477-9.009,0-3.465-9.7-20.79-12.012-24.717s-8.778-14.784-11.319-18.249c-1.386-1.617-2.31-3-4.62-3s-14.553,3.927-14.553,7.854c0,2.079,5.082,9.7,6.468,11.781a5.265,5.265,0,0,1,.693,2.541c0,2.31-1.617,3.234-3.7,3.7-7.392.693-14.784,1.386-22.176,1.848-2.079,0-3.7-.693-3.7-3a6.745,6.745,0,0,1,.462-2.079c4.389-7.854,8.085-15.708,12.012-23.793a5.294,5.294,0,0,1,3.465-2.772c1.848-.462,4.389-.693,4.389-3,0-2.772-7.161-4.62-9.24-5.313-2.31-.693-13.167-4.158-14.784-4.158s-2.079,1.848-2.541,3a388.95,388.95,0,0,1-15.708,38.115c-2.31,4.62-5.082,5.313-9.933,5.313-9.933,0-11.319.693-11.319,3.234,0,2.31,3.465,13.629,4.389,16.4.924,3.465,1.848,6.7,4.389,6.7,1.617,0,2.541-1.386,3.465-2.772A3.855,3.855,0,0,1,281.589-126.588ZM550.473-23.331c0,10.164-.462,20.1-.462,30.261,0,6.006,1.617,8.316,11.781,8.316,8.316,0,11.55-1.155,11.55-7.392,0-10.4-.462-20.79-.462-31.185V-167.706c0-8.547.231-13.629,2.772-15.939,1.386-.924,3.234-2.079,3.234-3.927,0-3-3.927-3.465-6.006-3.7-4.158-.462-13.629-1.155-17.556-1.155-3,0-5.313.231-5.313,3.927,0,2.31.462,15.939.462,27.258Zm-1.617-121.506c0-2.772-4.158-3.234-6.7-3.7-.462,0-.924-.231-1.386-.231-1.848-.231-10.395-1.386-11.55-1.386-3,0-3.465,2.079-3.465,4.62v2.772c0,14.322-3.927,35.343-8.085,48.972a20.175,20.175,0,0,0-1.155,5.082c0,4.158,10.164,6.237,13.629,6.237,4.389,0,5.082-2.541,6.006-6.237a298.366,298.366,0,0,0,8.085-47.355c.462-4.851.462-5.313,2.772-6.468C547.7-142.989,548.856-143.682,548.856-144.837ZM646.8-20.79c0,4.389-1.848,6.237-6.468,6.237H619.773c-8.547,0-16.863-.462-25.41-.462-6.006,0-5.775,2.772-5.775,11.088s-.231,11.319,5.775,11.319c8.547,0,16.863-.462,25.41-.462h73.92c8.547,0,16.863.462,25.41.462,6.006,0,5.775-2.772,5.775-11.088s.231-11.319-5.775-11.319c-8.316,0-16.863.462-25.41.462H676.83c-4.62,0-6.468-1.848-6.468-6.237V-51.975c0-4.62,1.848-6.468,6.468-6.468H683.3c8.316,0,16.632.693,24.948.693,5.775,0,5.544-3.465,5.544-11.319,0-8.085.231-11.319-6.006-11.319-8.085,0-16.17.693-24.486.693H676.83c-4.62,0-6.468-1.848-6.468-6.468V-113.19c0-4.389,1.848-6.468,6.468-6.468H689.3c8.778,0,17.325.693,25.872.693,5.544,0,5.313-3,5.313-11.088,0-8.547.231-11.319-5.313-11.319-8.547,0-17.094.693-25.872.693H676.83c-4.62,0-6.468-1.848-6.468-6.468v-24.024c0-8.085.231-11.781,2.772-13.4,2.079-1.617,3.234-2.079,3.234-3.7,0-2.541-3.465-2.772-5.313-2.772-3.7-.462-18.249-1.848-21.252-1.848-2.31,0-4.158.462-4.158,3.234,0,.693.231,1.617.231,2.31.462,5.544.924,13.4.924,20.328v19.866c0,4.62-1.848,6.468-6.468,6.468h-6.468c-3,0-5.313-1.386-5.313-4.62v-1.386c.924-5.082,1.617-8.778,2.079-11.781,1.155-6.7,1.386-8.085,4.158-9.933,1.155-.693,2.31-1.617,2.31-3,0-2.772-4.62-3.465-6.7-3.927-2.772-.462-13.86-2.772-15.939-2.772-3.465,0-3.465,3.234-3.7,5.775-1.386,16.632-3.927,29.106-8.316,45.045-.462.693-.924,1.155-1.617,1.155a1.73,1.73,0,0,1-1.617-1.386c-1.386-6.237-2.772-12.474-4.62-18.48C592.284-154.308,591.36-158,587.2-158c-1.617,0-11.55,2.079-11.55,6.468a14.1,14.1,0,0,0,.693,3,203.513,203.513,0,0,1,7.161,31.185c.693,3.927,1.386,5.775,5.775,5.775,1.155,0,2.31-.231,3.465-.231,1.848-.231,3.234.462,3.234,2.079,0,1.155-1.386,3.465-1.848,4.62-1.848,4.389-4.851,10.626-4.851,12.243,0,5.082,12.012,8.316,15.939,8.316,2.31,0,3.7-1.155,4.62-3.234,4.389-7.623,7.623-17.787,10.395-26.1,1.386-4.389,3.465-5.313,8.085-5.775h12.012c4.62,0,6.468,2.079,6.468,6.468v27.027c0,4.62-1.848,6.468-6.468,6.468h-8.316c-8.316,0-16.4-.693-24.486-.693-6.237,0-6.006,3.234-6.006,11.319S601.293-57.75,607.3-57.75c8.316,0,16.4-.693,24.717-.693h8.316c4.62,0,6.468,2.079,6.468,6.468ZM902.6-34.854c0,9.1-5.55,12.21-13.986,12.21-5.55,0-16.206-2.442-16.206-9.546,0-6.882,10.878-8.658,15.984-8.658C892.614-40.848,902.6-40.626,902.6-34.854Zm-4.44-134.532c-2.22,0-3.108,1.11-3.108,3.108,0,.666.222,1.554.222,2.22.888,5.55,2.664,27.084,2.664,31.746,0,4.884-5.106,5.328-10.434,5.328h-3.552c-11.544,0-31.3-2.22-33.966-2.22-3.33,0-3.552,2.664-3.552,5.55s.222,15.54,2.22,16.872c2,1.554,11.322,1.776,16.872,1.776h2.886c8.88,0,24.642-.888,26.418-.888,5.55,0,5.106,6.216,5.328,8.436.222,6.438,1.332,27.528,1.332,33.078,0,2.886-1.332,4.662-4.44,4.662H895.5a56.861,56.861,0,0,0-8.658-.666c-17.316,0-34.854,7.992-34.854,27.972,0,20.424,19.314,28.86,37.074,28.86,13.32,0,28.194-4.44,32.19-18.648.444-1.776,1.11-3.552,3.33-3.552,2.886,0,13.986,9.768,16.428,12.21,1.776,1.554,3.774,3.33,6.216,3.33,5.106,0,12.876-10.212,12.876-15.318,0-3.774-3.108-6.216-5.772-8.436a123.275,123.275,0,0,0-23.976-15.54c-4.884-2.442-7.1-2.886-7.548-8.658-.222-5.772-1.776-39.738-1.776-44.178,0-5.55,2.664-6.438,7.548-7.1,26.2-3.552,27.75-5.106,27.75-9.324,0-3.33-1.554-18.648-5.994-18.648a17.7,17.7,0,0,0-3.33.666c-4,1.332-18.426,5.55-22.2,5.55-3.33,0-4.662-2.664-4.662-5.772v-6.216c0-9.768,1.11-13.542,2.442-15.762,1.11-2,2.442-2.442,2.442-4.44,0-1.332-1.11-1.776-2.22-2C918.366-166.5,901.938-169.386,898.164-169.386Zm-70.6,7.326c-5.772-2.664-12.654-5.772-14.208-5.772-2,0-2.664,2.22-2.886,3.774-2.442,9.768-5.55,19.314-7.992,29.082a255,255,0,0,0-7.77,62.16c0,23.532,3.108,47.064,13.1,68.376,1.554,3.108,3.33,7.326,7.1,7.326,1.11,0,16.872-2.664,16.872-11.322,0-3.552-.444-7.1-.444-10.656,0-12.876,10.878-37.3,10.878-40.4,0-2.664-7.1-7.1-9.546-7.1-2.664,0-4.884,7.326-5.994,9.768-2.22,5.106-3.33,7.992-4.884,7.992-4.218,0-4.884-21.09-4.884-24.642,0-20.2,4.662-48.84,12.21-67.488,2.664-6.882,4-8.88,9.1-11.322,1.11-.444,2-.888,2-2.22,0-2.22-4-3.774-5.772-4.44C833.118-159.4,830.454-160.728,827.568-162.06Zm393.3,165.525c0-2.31-7.392-12.243-9.24-14.784-5.775-7.623-11.55-15.246-17.787-22.407-1.386-1.617-3.465-3.7-5.775-3.7-3.465,0-15.477,7.161-15.477,11.088,0,1.617,2.772,4.158,3.927,5.544a262.719,262.719,0,0,1,22.407,30.261c1.617,2.31,3.234,5.313,6.468,5.313C1209.78,14.784,1220.868,8.316,1220.868,3.465Zm-57.519,2.541c0-3-5.544-19.4-6.93-23.562-4.389-13.629-6.237-17.094-10.626-17.094-2.772,0-16.4,1.848-16.4,6.468a8.567,8.567,0,0,0,.924,3.234,251.669,251.669,0,0,1,7.854,26.565c1.617,7.623,2.079,11.55,6.93,11.55C1147.179,13.167,1163.349,11.781,1163.349,6.006Zm-51.051.462c0-5.313-2.31-17.787-3.465-23.562-2.31-12.705-2.772-16.4-9.471-16.4-2.31,0-16.17,1.155-16.17,5.775a20.806,20.806,0,0,0,.693,3.7,215.6,215.6,0,0,1,4.158,27.258c.693,7.623.924,10.626,6.468,10.626a47.3,47.3,0,0,0,12.936-1.848C1110.45,11.088,1112.3,9.7,1112.3,6.468ZM1070.256-26.8c0-2.31-2.541-3.234-4.389-3.7-1.155-.462-3-1.155-5.082-1.848-5.082-2.079-11.55-4.62-13.4-4.62-2.079,0-3,2.541-4.158,4.62A198.435,198.435,0,0,1,1022.67.231c-.924.924-2.31,2.541-2.31,3.927,0,4.158,12.243,10.626,16.632,10.626,3,0,4.158-1.617,6.006-4.158a268.66,268.66,0,0,0,19.173-30.261c1.155-2.31,1.617-3.7,4.62-4.389C1067.715-24.255,1070.256-24.486,1070.256-26.8Zm17.556-67.452c3.927.462,6.237,2.541,6.237,6.468v20.79c0,4.158-2.31,6.468-6.237,6.468h-3.927c-3.927,0-6.006-2.31-6.468-6.468V-87.78c.462-3.927,2.541-6.006,6.468-6.468Zm37.422,0c3.927.462,6.006,2.541,6.468,6.468v20.79c-.462,4.158-2.541,6.468-6.468,6.468h-3.927c-3.927,0-6.006-2.31-6.468-6.468V-87.78c.462-3.927,2.541-6.006,6.468-6.468Zm37.653,0c3.927.462,6.237,2.541,6.237,6.468v20.79c0,4.158-2.31,6.468-6.237,6.468h-4.158c-3.927,0-6.237-2.31-6.237-6.468V-87.78c0-3.927,2.31-6.006,6.237-6.468Zm-75.075-53.361c3.927.462,6.237,2.541,6.237,6.468v19.635c0,3.927-2.31,6.006-6.237,6.468h-3.927c-3.927-.462-6.006-2.541-6.468-6.468v-19.635c.462-3.927,2.541-6.006,6.468-6.468Zm37.422,0c3.927.462,6.006,2.541,6.468,6.468v19.635c-.462,3.927-2.541,6.006-6.468,6.468h-3.927c-3.927-.462-6.006-2.541-6.468-6.468v-19.635c.462-3.927,2.541-6.006,6.468-6.468Zm37.653,0c3.927.462,6.237,2.541,6.237,6.468v19.635c0,3.927-2.31,6.006-6.237,6.468h-4.158c-3.927-.462-6.237-2.541-6.237-6.468v-19.635c0-3.927,2.31-6.006,6.237-6.468Zm27.027,6.468c0-4.158,1.848-6.006,6.237-6.237,4.158,0,8.316.462,12.7.462,5.544,0,5.544-2.31,5.544-11.088s.231-11.319-5.544-11.319c-8.778,0-17.556.462-26.334.462H1077.186c-2.079-.231-4.158-.924-4.158-3.465a6.743,6.743,0,0,1,.462-2.079c.693-1.155,1.155-2.31,1.617-3.234,1.617-3.7,2.541-5.313,4.851-6.006,1.848-.462,5.313-1.386,5.313-3.7,0-.924-1.386-2.541-8.778-4.389-2.541-.693-13.629-3.234-15.246-3.234a2.992,2.992,0,0,0-3,2.31c-8.778,20.559-21.714,41.349-36.96,57.75-.924,1.155-3,3-3,4.62,0,4.389,11.55,10.857,15.477,10.857,2.31,0,4.158-1.617,5.544-3.234,5.082-5.775,9.471-11.781,13.86-17.787.693-.462,1.155-.924,1.848-.924,1.386,0,1.617,1.155,1.848,2.31v17.556c0,4.62-1.848,6.468-6.468,6.468-8.316.231-16.632-.693-25.179-.693-5.544,0-5.544,2.772-5.544,11.088,0,7.854-.231,10.857,5.544,10.857,8.316,0,16.863-.693,25.179-.462,4.62,0,6.468,1.848,6.468,6.468v20.79c0,4.389-1.617,6.468-6.006,6.468-7.161.231-14.091-.462-21.252-.462-6.006,0-6.006,2.31-6.006,11.319,0,8.316,0,11.088,5.775,11.088,8.778,0,17.325-.462,26.1-.462h131.67c8.547,0,17.325.462,25.872.462,6.006,0,6.006-2.772,6.006-11.088s0-11.319-6.006-11.319c-2.31,0-14.322.462-16.863.462-4.389-.231-6.237-1.848-6.237-6.468V-87.78c0-4.158,1.617-6.468,6.006-6.468,7.161,0,14.553.462,21.714.462,5.775,0,5.544-2.772,5.544-10.857s.231-11.088-5.544-11.088c-7.161,0-14.553.693-21.714.693-4.389,0-6.006-2.31-6.006-6.468Zm116.424-15.246c0-4.62,1.848-6.468,6.468-6.468h12.243c2.079,0,4.851,0,4.851,2.772,0,4.389-13.4,28.413-16.4,33.5-1.386,2.079-4.389,6.237-4.389,8.778s1.617,4.158,3.465,5.775c10.857,10.857,19.635,26.334,19.635,42.042,0,9.009-2.31,17.094-12.7,17.094-2.079,0-3.927-.462-5.544-.462-3.234,0-3.7,3-3.7,5.544a44.342,44.342,0,0,0,1.617,11.088c1.617,4.851,3.465,6.468,8.778,6.468,24.024,0,34.881-14.553,34.881-37.653,0-18.942-7.392-31.878-17.787-46.893-.924-1.386-3.234-4.158-3.234-5.775s2.772-6.006,3.7-7.623c4.158-7.392,19.866-36.96,19.866-43.89,0-4.62-6.006-11.781-13.629-11.781-4.158,0-9.471.231-14.553.231h-16.632c-6.006,0-12.012-.231-18.249-.231-8.316,0-11.319,3-11.319,11.319,0,6.7.231,13.167.231,19.635V-25.641c0,11.319-.462,22.638-.462,33.957,0,7.161,2.31,7.392,11.781,7.392,9.24,0,11.781-.231,11.781-7.623,0-11.319-.693-22.638-.693-33.726Zm127.512,30.723c3.927.462,6.006,2.541,6.468,6.468v7.161c-.462,3.927-2.541,6.006-6.468,6.468h-37.191c-3.927-.462-6.006-2.541-6.468-6.468V-119.2c.462-3.927,2.541-6.006,6.468-6.468Zm-37.191-17.325c-3.927-.462-6.006-2.541-6.468-6.468v-7.392c.462-3.927,2.541-6.237,6.468-6.237h37.191c3.927,0,6.006,2.31,6.468,6.237v7.392c-.462,3.927-2.541,6.006-6.468,6.468Zm-6.468,63.525c0-4.389,1.848-6.237,6.468-6.468,3.927.231,5.313,1.386,6.468,5.082,5.313,26.1,17.556,48.048,35.574,67.683,4.158,4.62,24.486,24.486,29.568,24.486,5.775,0,14.091-11.781,14.091-16.632,0-1.848-1.155-2.541-2.541-3.465a182.107,182.107,0,0,1-30.261-26.1c-.924-1.386-1.617-2.31-1.617-3.927,0-2.079,1.155-3.234,2.541-4.62,6.93-5.775,12.936-11.319,19.4-17.556a3.365,3.365,0,0,1,2.772-1.155c.924,0,1.617.231,2.541.231a2.479,2.479,0,0,0,2.772-2.541c0-2.541-6.006-8.085-8.085-10.164l-3.234-3.234c-3.234-3.234-5.082-5.082-6.93-5.082-1.617,0-3,1.848-3.927,3.7a221.513,221.513,0,0,1-17.325,18.711,5.293,5.293,0,0,1-3.465,1.386c-1.848,0-2.772-1.155-3.7-2.772a120.123,120.123,0,0,1-6.7-18.018c0-.462-.231-1.155-.231-1.617,0-3.234,2.541-4.158,5.082-4.389h3c6.006,0,12.243.462,18.48.462,8.547,0,12.243-2.541,12.243-11.319,0-7.161-.462-14.091-.462-21.252v-33.033c0-7.161.462-14.322.462-21.483,0-9.009-3.7-11.55-12.474-11.55-6.006,0-12.243.462-18.249.462h-34.188c-6.237,0-12.474-.462-18.48-.462-8.778,0-12.243,2.541-12.243,11.55,0,7.161.231,14.322.231,21.483V-25.41c0,4.158-1.155,6.468-5.544,7.392-6.7,1.155-11.781,2.079-15.477,2.541-9.009,1.386-10.164,1.617-10.164,4.158,0,1.848,2.31,8.316,3.234,10.4.693,1.848,1.155,3.7,1.617,5.082,1.848,5.544,2.772,8.316,4.851,8.316,1.617,0,2.541-1.386,3.234-2.772,1.848-3.234,2.31-3.7,18.711-6.7,13.4-2.541,37.653-7.854,50.358-11.319,4.158-1.155,5.313-2.541,5.313-8.547,0-3.927-.924-13.4-6.237-13.4-.462,0-18.942,4.851-21.483,5.313-.462,0-1.155.231-1.617.231-3.234,0-4.389-2.541-4.389-5.313ZM1612.182-99.1c-11.088,42.735-40.194,70.224-79.233,88.242a11.265,11.265,0,0,1-1.617.693c-2.31,1.155-5.082,2.541-5.082,5.313,0,3.7,6.006,19.173,11.781,19.173,2.31,0,5.544-1.386,8.085-2.772.462,0,.693-.231,1.155-.462,35.112-17.787,65.6-46.431,80.619-83.391.693-.924,1.386-1.848,2.541-1.848a2.512,2.512,0,0,1,2.31,1.617c15.246,30.723,33.033,53.592,60.984,73.689,3.7,2.772,18.711,13.167,22.638,13.167,5.313,0,13.629-12.705,13.629-17.556,0-3-2.079-3.927-4.389-5.313-37.422-20.1-64.218-51.282-79.464-90.783,0-.693-.231-1.155-.231-2.079,0-2.772,2.31-3.465,4.62-3.7h49.665c9.009,0,18.018.462,27.027.462,6.006,0,5.544-2.772,5.544-12.012,0-9.009.462-12.243-5.313-12.243-9.24,0-18.249.693-27.258.693h-51.975c-4.158,0-6.006-1.848-6.237-6.006.693-14.322.231-28.413.693-42.5,0-3.465.462-5.082,3.465-7.161.924-.693,1.848-1.386,1.848-2.541,0-2.31-2.772-2.772-4.389-3-4.158-.462-17.787-1.617-21.714-1.617-2.541,0-5.082.462-5.082,3.7a3.932,3.932,0,0,0,.231,1.617c.693,5.313.693,12.936.693,19.866v9.7c0,7.161-.231,14.553-.693,21.714-.462,4.62-2.31,6.237-6.7,6.237h-51.513c-9.009,0-18.018-.693-27.027-.693-5.775,0-5.544,3-5.544,12.243,0,9.009-.231,12.012,5.544,12.012,9.009,0,18.018-.462,27.027-.462H1607.1c2.772,0,5.082,1.155,5.082,4.389Z" transform="translate(-15.014 194.964)" fill="#fff"/>
</svg>
