<svg xmlns="http://www.w3.org/2000/svg" xmlns:xlink="http://www.w3.org/1999/xlink" width="458.594" height="192.292" viewBox="0 0 458.594 192.292">
  <defs>
    <clipPath id="clip-path">
      <rect id="長方形_1440" data-name="長方形 1440" width="154.404" height="173.79" fill="#f1e9d6"/>
    </clipPath>
    <clipPath id="clip-path-2">
      <rect id="長方形_1442" data-name="長方形 1442" width="184.882" height="153.292" fill="#f1e9d6"/>
    </clipPath>
  </defs>
  <g id="グループ_1936" data-name="グループ 1936" transform="translate(35.441 -1233)">
    <g id="グループ_1684" data-name="グループ 1684" transform="matrix(-0.995, 0.105, -0.105, -0.995, 423.153, 1405.838)" style="mix-blend-mode: multiply;isolation: isolate">
      <g id="グループ_1575" data-name="グループ 1575" clip-path="url(#clip-path)">
        <path id="パス_138" data-name="パス 138" d="M154.4,113.024a27.919,27.919,0,0,0-3.637-7.107c-1.509-.649-2.5-2.863-3.877-3.845a51.145,51.145,0,0,0-8.927-5.336c-8.481-3.655-17.743-6.382-27-5.944-2.5.119-4.952,1.547-7.486,1.73-.835.061-1.76-.751-2.564-1.028a23.511,23.511,0,0,0-6.6-1.045A43.747,43.747,0,0,0,79.747,92.7c-2.919,1.017-5.863,3.575-8.581,4.649l-2.737,1.878c-2.108.627-2.7.477-5,2.192-.16.835-.311,1.649-.463,2.486-.471,1.017-6.12,3.578-7.871,4.781a70.222,70.222,0,0,0-11.414,10c-1.746,1.886-4.728,2.983-5.529,5.033l-.632.433-.145-.211c2.4-3.137,3.027-7.181,4.535-10.545A112.207,112.207,0,0,1,53.766,94.108c2.862-3.772,7.708-5.506,11.806-7.172,3.867-1.571,8.819-6.544,10.86-9,5.509-6.629,11.139-14.363,14.305-21.586,1.565-3.569,2.847-8.281,4.734-11.611-.114-.457-.1-.234-.078-.566-2.066-2.6-5.089-.239-7.854.743-5.617,1.995-18.385,9.269-23.112,14.619-5.328,6.03-9.119,11.751-11.3,18.287-.692,2.071-.826,6.623-.731,8.865.04.959.576,1.754.247,2.618-1.664,4.37-6.558,8.612-9.18,12.8-4.415,7.055-7.06,15.23-11.32,22.325-.067-3.813,1.55-7.808,2.326-11.507,1.662-7.921,2.029-16.407,5.2-24.015.616-1.475,1.924-2.492,2.568-3.931,1.359-3.031,2.429-6.414,3.771-9.4q1.178-1.894,2.358-3.786c1.454-3.221,2.9-6.566,4.048-9.9a20.3,20.3,0,0,0,.847-5.536c.161-3.536,1.6-6.876,1.417-10.575-.171-3.5-1.957-7.15-1.7-10.6a10.5,10.5,0,0,0-1.944-2.382c-4.42,3.073-6.768,7.005-8.928,10.462-5.558,8.893-6.753,17.715-7.142,27.512-.094,2.348-.941,4.794-.967,7.168-.037,3.358.736,6.693.7,10.05-.083,7.893-3.075,18.589-5.6,26.145q-.621,3.834-1.244,7.668a102.1,102.1,0,0,1-3.841,14.716c-.864,2.525-.687,5.409-2.02,7.89-.082-2.464.553-4.867.612-7.234.183-7.377-.132-14.537.2-21.822.234-5.068,3.281-9.837,3.342-14.993.053-4.441-1.866-9.507-2.526-14.064l-1.036-3.316c.176-1.364,1.272-2.96,1.714-4.274a26.447,26.447,0,0,0,.9-6.813q.462-2.485.925-4.971c.111-2.6-.029-5.326-.177-7.932-.075-1.313-.709-2.3-.97-3.671-.381-1.992-.37-4.5-.8-6.577-.86-4.187-2.818-7.89-3.633-12.066-.374-1.919.372-3.958.348-5.814a52.122,52.122,0,0,0-2.3-13.288c-.935-3.183-3.224-6.937-5.305-9.988C12.024,5.724,9.7,3.107,9.668,1.4A3.372,3.372,0,0,0,8.09,0C4.181,2.375,3.876,5.6,2.754,8.927.355,16.034.79,23.226.709,30.774c-.127,11.635-1.917,21.211.732,33.57.736,3.431,2.331,6.384,3.319,9.8,2.623,9.073,5.556,19,8.313,28.367.775,2.631,2.1,5.17,3.005,7.541q1.268,2.072,2.535,4.146c1.495,5.207-.6,12.106-.831,17.3-.192,4.314-.766,8.7-.96,13.048-.111,2.5-1.134,5.149-1.244,7.668-.142,3.265.339,7.051-.43,10.207-.538,2.208-3.75,8.958.07,10.484a2.851,2.851,0,0,0,2.986.74,7.674,7.674,0,0,0,3.791-2.6q.021-1.1.041-2.2c.2-.711.659-1.15.9-1.854q.456-2.946.913-5.892c.563-1.59,1.621-2.743,2.28-4.352q.3-1.6.594-3.2c2.713-8.016,6.314-16.249,11.94-23.679,3.012-3.978,6.984-6.64,10.626-10.7,2.634-2.936,7.125-5.82,11.149-8.58l4.212-2.89c2.439-.965,5.347-2.776,7.685-2.795,1.9-.016,3.747,1.1,5.55,1.768,3.659,1.362,8.046,2.836,11.941,2.958,7.034.22,13.943-.062,20.9.216l5.76,1.623c5.628.247,10.923,1.691,16.4,2.686,2.6.473,5.307.464,7.879,1.1,2.257.557,4.719,1.578,7.035,1.677,1.392.059,2.877-.337,4.249-.128,1.825-1.317,1.772-2.328,2.358-3.786M2.547,19.911A30.082,30.082,0,0,1,7.97,1.632c.375,1.05.687,3.341,2.036,3.869,2.067,3.548-5.629,10.492-6.827,13.977l-.632.433m-.12,1.631c.96-1.959,3.734-4.276,5.018-6.23a59.967,59.967,0,0,0,3.8-7.56c1.85,2.614,5.5,8.184,5.738,10.621.285,2.887-2.35,6.041-3.994,8.625Q7.739,35.251,2.012,43.509l.415-21.967M3.873,66.083c-.972-4.258-2.384-8.6-2.58-12.788-.072-1.54.443-3.191.5-4.682.043-1.049-.291-2.518.1-3.473.994-2.458,4.455-5.435,6.058-7.874a145.629,145.629,0,0,0,9.486-16.421c1.991,4.056,1.418,8.955,1.3,12.734a18.62,18.62,0,0,0,.194,3.894l.957,2.75c-.082,2.355-2.487,4.66-3.663,6.85-2.013,3.749-3.923,8.117-6.22,11.7-1.5,2.347-4.842,4.464-5.715,7.019l-.421.289M9.511,85.136C7.819,80.9,7.067,76.113,5.932,71.794Q5.086,69.432,4.24,67.07l6.558-7.6c3.518-5.489,6.393-12.047,9.54-17.7l2.609,9.671c.23,1.181-.018,2.767.194,3.894.367,1.959,1.167,3.164.561,4.881-.761,2.156-2.369,3.841-3.321,6a88.661,88.661,0,0,1-5.732,11.057c-1.667,2.655-4.089,4.76-4.716,7.573l-.422.289M14.168,99.6c-1.692-4.327-1.894-9.052-4.355-13.119,2.511-4.308,5.553-8.427,8.259-12.792,2.4-3.868,3.834-8.314,6.141-12.267.622,2.088-.121,4.086-.2,6.025a51.076,51.076,0,0,1-2.92,14.7c-.632,1.893.944,3.933-.059,6.235a60.32,60.32,0,0,1-2.9,5.706C16.953,96,15.044,97.3,14.588,99.307l-.421.289m.3,1.342c2.4-4.077,6.3-8.376,7.339-12.778l.21-.145a39.584,39.584,0,0,1,2.406,15.7c-.047.951-.831,1.642-1.028,2.564-.379,1.771-.382,3.794-1.912,5.339l.71.132q-.093.993-.186,1.986l-1.119,1.077c-3.375-5.08-4.113-9.445-6.42-13.87m81.919-8.816,7.18,1.888c1.187-.029,2.091-.783,3.316-1.036a38.516,38.516,0,0,1,6.933-.73c8.7-.13,17.53,3.348,25.525,6.956a42.039,42.039,0,0,1,7.862,5.138l3.232,3.357,1.734,2.527c-1.173.018-1.84-1.543-2.866-2.371a17.535,17.535,0,0,0-5.5-3.043,26.109,26.109,0,0,0-9.01-.942c-1.4.075-2.617.692-3.96.549-.938-.1-1.746-1.2-2.642-1.594a25.755,25.755,0,0,0-7.89-2.02c-3.717-.159-7.661-.418-11.339-.273-2.169.085-4.262.856-6.367.651a15.1,15.1,0,0,1-2.919-1.094l-3.762-.517c-2.229-.439-4.453-1.206-6.746-1.256-5.683-.124-12.111,2.066-17.628.944l-.211.145-.144-.211c9.394-6.366,17.114-7.413,25.2-7.067M85.155,62.659a27.5,27.5,0,0,1-3.742,6.285c-2.15,2.514-6.17,2.582-8.316,3.228a25.883,25.883,0,0,0-5.843,2.77c.441-1.438,1.977-2.525,2.924-3.865,1.446-2.047,5.685-8.758,8.651-9.963,2.937-1.192,5.725-1.736,8.395-2.662-.032,1.615-1.388,2.7-2.068,4.207m3.531-6.14c-3.193,1.967-5.9,1.077-9.237,3.24.625-1.768,2.9-2.914,4.332-4.521,3.017-3.395,6.863-6.429,9.783-10.12-.216,3.913-4.01,7.574-4.877,11.4m3.1-11.731c.019,1.123-2.377,2.142-3.147,3.089C85.831,51.333,81.6,54.449,78.858,58c.04-2.7,1.875-5.365,1.875-8.1,3.715-2.251,7.55-3.233,11.055-5.107M79.115,50.7c.315,1.23-.444,2.406-.661,3.551-.328,1.727-.495,4.465-1.479,5.971C74.7,63.706,69.864,66.986,68.613,70.6l-.632.433c-.173-2.5.409-11.8,1.8-13.626.625-1.468,7.441-5.457,9.332-6.713M54.4,88.716c-1.724-10.4,3.588-21.669,13.274-29.861.4,3.118-1.013,6.582-1.075,9.72-.035,1.768.491,3.677-.426,5.248a98.807,98.807,0,0,1-6.954,9.728c-1.3,1.694-3.671,3.031-4.4,4.876l-.421.289m13.074-13c3.951-1.579,8.12-2.3,11.842-4.409-.421,1.99-2.658,3.486-4.108,5.3a38.365,38.365,0,0,1-16.7,11.77c-.9.3-1.773,1.151-2.606,1.169l-.421.288c.7-1.713,2.86-2.814,4.122-4.376,1.59-1.97,5.3-8.709,7.875-9.74M52.289,41.845c2.26,11.71-1.767,23.107-7.489,33.326-.135-2.164.621-4.272.624-6.314,0-1.807-.838-3.466-.85-5.3q.337-1.315.673-2.63c.344-8.995,2.668-17.462,6.1-25.869,1.031,2.159.53,4.659.941,6.788M38.4,57.262A38.16,38.16,0,0,1,49.519,36c-.107,2.2-1.776,4.042-2.61,6.128-1.306,3.264-.864,7.481-2.338,10.587-1.255,2.643-5.332,5.768-7.045,8.241a21.63,21.63,0,0,1,.871-3.7m-2.557,20.65c-.149-3.578.951-7.123,1.062-10.641.043-1.361-.348-3.343.294-4.538l6.913-7.53c.023,3.883-1.757,8.189-.261,12.259-2.116,2.468-6.944,7.4-7.587,10.161l-.421.289m.52,7.077q-.314-2.263-.627-4.526c.993-3.277,5.118-7.759,7.863-10.661.364,8.292-2.332,14.963-7.636,22.276-.1-2.335.5-4.745.4-7.09m8.213,36.8c-4.152,4.676-7.9,8-10.811,12.684a82.651,82.651,0,0,0-7.1,14.476c-.837,2.263-.985,4.971-1.888,7.18-.829,2.03-2.01,3.567-2.688,5.561-.843,2.479-.742,5.46-1.664,7.957-.285.771-1.061,1.38-1.318,2.143a5.976,5.976,0,0,1-2.118.524,5,5,0,0,0-1-.553l-1.235-2.251c-.1-1,.759-1.967,1.095-2.919l1.243-7.668c.122-9.459,1.472-18.491,1.894-27.937.185-4.158,2.571-10.479,1.079-14.679l1.408-.657c.313,1.233-.354,1.953-.384,3.051-.088,3.09-.139,6.168-.232,9.142-.1,3.161.348,6.225.267,9.419-.081,3.218-.857,6.7-.93,9.93-.056,2.443.111,4.936-.612,7.234l.578.842.842-.578c.043-3.32,1.552-7,2.627-10.165.775-2.278.758-4.986,1.533-7.246.717-2.09,1.667-3.9,2.4-5.983a17.006,17.006,0,0,0,.5-4.682,12.112,12.112,0,0,1,.95-3.13c.75-2.246.535-4.848.967-7.169,1.354-7.273,5.048-14.337,4.808-21.884a5.249,5.249,0,0,0,2.028-2.011l.632-.433.144.211c-2.607,4.744-2.792,11.05-3.751,16.2q-1.136,5.115-2.272,10.231-.253,2.342-.5,4.683a51.962,51.962,0,0,0-2.23,8.035l-.211.145.289.421c3.493-3.618,4.537-7.606,6.364-11.491,1.017-2.159,2.513-3.656,3.465-5.785a97.347,97.347,0,0,1,5.654-11.623c2.508-4.029,7.27-7.879,8.338-12.226.689-.048.922.395,1.565.475.044,1.2-1.629,2.156-2.437,3.221-1.906,2.513-3.649,5.287-5.348,8.005-5.543,8.872-7.932,18.216-13.455,26.888a4.016,4.016,0,0,0,.933.908c2.465-1.929,3.811-4.518,5.649-6.664l6.095-5.111a55.585,55.585,0,0,1,8.821-7.911c4.557-3.18,9.4-6.792,13.238-5.986l.211-.145.145.211a75.672,75.672,0,0,1-7.739,4.07l-3.58,2.456a65.145,65.145,0,0,0-12.257,10.578M87.389,107.9c-1.292.009-2.748-.868-3.985-1.293-4.474-1.536-8.958-3.121-13.717-3.288-1.681-.059-3.292-.735-5.17.14l-.289-.421c3.254-3.339,7.347-1.828,11.025-1.989,5.365-.236,10.438-1.336,15.641-1.13,3.266.13,6.421,2.068,9.732,2-.614,1.335-7.066,3.791-8.515,4.294-1.824.632-3.065,1.681-4.723,1.692m26.083,1c-1.748-.6-7.031-.9-9.01-.942-3.09-.068-9.9.807-12.47-.117l-.422.289-.144-.211a59.562,59.562,0,0,1,7.606-3.36l3.514-2.1a18.625,18.625,0,0,1,1.987.186c5.987-.33,13.585-1.6,19.06.242,1.791.6,3.63,1.75,5.483,2.123l.289.422c-3.148,2.14-6,4-8.936,4.582-2.253.448-4.858-.394-6.958-1.111m30.039,5.408c-4.526-.863-9.3-2.012-13.915-2.223l-7.1-1.322-.289-.421A44.507,44.507,0,0,0,127,108.289l3.791-2.6a23.745,23.745,0,0,1,2.907.173c4.635-.254,8.2-.617,12.416,1.393,2.218,1.058,3.661,4.167,5.875,4.951L153,113.68a4.787,4.787,0,0,0-.619,1.355c-2.972,1.574-6.2-.224-8.865-.732" transform="translate(0 0)" fill="#f1e9d6" fill-rule="evenodd"/>
      </g>
    </g>
    <g id="グループ_1688" data-name="グループ 1688" transform="translate(-35.441 1272)" style="mix-blend-mode: multiply;isolation: isolate">
      <g id="グループ_1577" data-name="グループ 1577" clip-path="url(#clip-path-2)">
        <path id="パス_139" data-name="パス 139" d="M196.546,1.347c-.023-1,.081-1.051-.673-1.346-.45,1.151-1.736,9.383-1.122,10.321l.224.225c.811-1.814.865-4.574,1.346-6.731.195-.872-.129-1.877.225-2.468" transform="translate(-101.637 -0.001)" fill="#f1e9d6" fill-rule="evenodd"/>
        <path id="パス_140" data-name="パス 140" d="M215.324,4.656c-.089-.461-.056-.432-.225-.673l-.224-.225c-1.464,2.178-5.346,6.562-5.385,9.648,2.22-.343,4.023-7.212,5.833-8.751" transform="translate(-109.421 -1.963)" fill="#f1e9d6" fill-rule="evenodd"/>
        <path id="パス_141" data-name="パス 141" d="M178.179,13.448h.225c-.06-1.986-.914-6.81-1.8-8.078-.26-.634-.029-.422-.673-.673-.773,2.44,1.019,6.784,2.019,8.526l.225.225" transform="translate(-91.796 -2.453)" fill="#f1e9d6" fill-rule="evenodd"/>
        <path id="パス_142" data-name="パス 142" d="M70.229,34.837c-1.617-.993-3.946-3.1-6.058-3.366-1.6,2.327-6.2,4.258-8.077,6.731-5.329,7.037-10.788,13.243-13.911,22.662-1.15,3.467-2.387,14.129-1.346,18.623.727,3.138,1.983,7.7,1.122,11.218C39.1,102.36,34.042,112.069,28.5,120.995c-3.234,5.2-5.626,11.289-9.872,15.482-.325.316-2.966-1.378-3.59-1.8-2.29-1.531-4.537-3.278-7.629-4.038-1.673-.411-3.26.34-4.712.448-.934.991-1.742,2.146-2.692,3.142-.032,6.62,5.142,11.906,8.975,14.809l5.609,5.833c2.123,1.6,4.159,2.8,6.506,4.263,2.6,1.616,8.126,4.727,12.116,2.692,2.248-1.146,4.167-4.929,2.917-8.751-1.132-3.461-4.327-5.038-6.282-7.629-1.2-1.59-2.623-3.618-4.712-4.263,4.062-8,9.588-14.981,14.136-22.437,1.953-3.2,3.187-6.517,5.16-9.648,2.331-3.7,5.5-6.9,8.078-10.321A16.7,16.7,0,0,1,55.2,95.417c1.8-1.351,3.636-1.823,5.833-2.917,6.219-3.094,13.178-6.39,17.052-11.891,4.473-6.351,6.294-14.8,8.975-23.111.927-2.873,1.335-5.948,2.019-8.75.286-1.169-.064-2.109.449-2.917V43.587c-.018-.031-4.5-1.793-4.936-2.02-4.719-2.447-9.9-4-14.36-6.731m16.6,17.725c-2.312,7.65-3.706,16.234-7.18,22.886A28.5,28.5,0,0,1,67.536,87.564c-5.258,2.722-12.055,4.429-15.482,8.975-3.054,4.051-6.5,7.99-9.2,12.34-1.91,3.084-3.01,6.314-4.936,9.423-2.781,4.491-6.039,9.024-8.975,13.463-2.5,3.782-4.074,8.688-7.18,11.892A4.12,4.12,0,0,0,21.989,145c1.135-.231,1.966-1.883,2.244-2.917h.449c3.189,3.207,6.676,5.984,9.2,9.872.618.953,1.83,3.044,1.346,4.936a11.03,11.03,0,0,1-2.02,3.366c-7.44,1.93-13.221-3.149-17.949-6.731-1.3-.987-2.061-2.822-3.366-3.814a28.789,28.789,0,0,1-6.058-5.834c-1.805-2.466-4.466-4.8-4.487-8.975l1.346-2.019C9.6,130.168,12.785,136.277,17.5,137.6a11.534,11.534,0,0,1-3.814,4.936,3.525,3.525,0,0,0,.225,1.122c1.889-.245,3.119-2.941,4.038-4.264,1.669-2.4,3.979-4.506,5.609-6.955.928-1.393,1.355-2.817,2.244-4.263,7.078-11.518,14.19-22.7,17.725-37.919.782-3.368-.761-8.961-1.346-11.667V74.775c0-5.007.1-9.4,1.346-13.238C46.158,53.45,50.59,47.431,55.2,41.344l5.833-5.834c.989-.742,2.212-1.23,2.917-2.244a12.4,12.4,0,0,1,4.712,2.244,77.031,77.031,0,0,0,9.423,4.936c2.972,1.265,8.148,2.392,10.321,4.263.236.4-1.216,6.68-1.571,7.853" transform="translate(0 -16.438)" fill="#f1e9d6" fill-rule="evenodd"/>
        <path id="パス_143" data-name="パス 143" d="M271.694,147.169c-1.617.418-4.848.342-6.058,1.122-1.487-.338-1.548-1.8-2.244-2.917-2.027-3.255-3.761-6.711-5.833-10.1-3.256-5.319-6.124-10.739-9.424-16.155-2.751-4.515-5.6-9.306-7.4-14.808-.98-2.994-.836-6.816-1.571-10.1-1.064-4.755,2.205-6.728,3.365-9.424,1.93-4.484,3.262-12.1,1.571-18.174-2.87-10.3-8.709-17.663-14.36-25.13l-2.692-2.468a16.3,16.3,0,0,0-2.917-3.365c-.54-.4-.943-.375-1.346-.9h-.673c-1.073,1.766-4.964,2.278-6.955,3.141-6.063,2.627-12.823,5.169-18.623,8.3a52.5,52.5,0,0,0,.225,18.174c.941,4.238-.176,8.606.9,12.564,2.406,8.867,3.106,9.419,8.671,14.985,1.224,1.224,2.978,3.623,4.554,4.438a37.93,37.93,0,0,0,7.241,1.869c1.683.3,3.766.8,5.786,1.37,2.863.813,6.729,4.123,8.3,6.282,7.738,10.621,12.6,23.863,19.52,35.226,2.013,3.305,2.846,7.745,5.385,10.545-.274,1.048-3.181,2.955-4.039,3.814a32.316,32.316,0,0,0-5.385,8.078c-.512.985-2,3.891-.9,5.609.155,1.389,1.125,1.934,2.244,2.244,1.022.283,9.561-.79,10.545-1.122,3.9-1.315,7.476-3.814,10.77-5.833,4.836-2.964,9.529-5.228,13.911-8.526,1.244-.937,1.845-2.476,2.916-3.59.067-8.172-9.484-6.713-15.481-5.16m6.731,10.77c-6.5,4.568-19.553,13.678-30.29,11.892l-.225-.225c-.509-7.432,5.7-12.1,9.648-15.93.77.425,2.446,4.691,2.693,5.833h1.122c-.136-2.186-1.122-3.378-1.8-4.936-1.752-4.06-3.462-7.518-5.385-11.218-4.976-9.576-9.736-19.634-15.257-28.72-3.141-5.169-5.356-10.625-10.1-14.135a14.936,14.936,0,0,0-5.16-2.468,86.023,86.023,0,0,1-10.349-3.07c-2.245-.865-8.1-6.66-9.576-8.759-3.055-4.347-4.056-8.162-5.428-14.423V68.19c-.607-2.795-.3-6.472-.9-9.2-.511-2.314.377-10.365-.225-11.443.6-1.164,4.422-2.076,5.834-2.692,4.411-1.925,8.916-3.834,13.462-5.834,2.107-.927,4.4-2.288,6.507-2.692,2,3,5.257,5.213,7.4,8.077,4.8,6.411,9.5,13.432,12.116,21.989,1.634,5.35,1.039,13.1-1.122,17.276-1.159,2.24-2.909,4.542-3.59,7.18-.623,2.413.8,10.324,1.346,12.116,3.118,10.247,7.979,17.494,13.013,25.578.86,1.381,1.159,2.86,2.019,4.263,3.2,5.217,6.4,10.781,9.648,15.93.57.9,3.079,6.454,3.814,5.833h.449a8.875,8.875,0,0,0-2.468-5.16v-.225c5.2.884,12.154-3.874,17.949-1.346,1.259.549,1.66,1.892,2.468,2.917-.5,4-4.935,5.286-7.629,7.18" transform="translate(-102.294 -18.155)" fill="#f1e9d6" fill-rule="evenodd"/>
        <path id="パス_144" data-name="パス 144" d="M136.607,42.744c-.52,1.85,1.878,2.354,3.141,3.141a68.262,68.262,0,0,0,8.3,4.487c1.181.515,2.777.449,3.814,1.122.52-.051.633-.044.9-.225l.225-.225c-4.421-1.714-8.529-3.018-12.34-5.385-1.3-.806-2.543-2.413-4.039-2.917" transform="translate(-71.314 -22.326)" fill="#f1e9d6" fill-rule="evenodd"/>
        <path id="パス_145" data-name="パス 145" d="M127.86,49.769V49.32h-.9a8.343,8.343,0,0,1-2.019,2.244v.673c1.681.064,1.675-1.532,2.917-2.468" transform="translate(-65.26 -25.761)" fill="#f1e9d6" fill-rule="evenodd"/>
        <path id="パス_146" data-name="パス 146" d="M223.072,52.811c-.2-.722.122-.346-.449-.673-1.094,1.013-3.1.821-4.712,1.346a76.745,76.745,0,0,0-10.77,4.263,3.166,3.166,0,0,0,.224.9c2.622-.454,5.193-1.985,7.4-2.917,2.762-1.164,5.776-1.607,8.3-2.917" transform="translate(-108.194 -27.233)" fill="#f1e9d6" fill-rule="evenodd"/>
        <path id="パス_147" data-name="パス 147" d="M247.74,53.933l.225-.225q-.113-.785-.225-1.571h-.449c-.145.387-.044.22-.224.449a1.939,1.939,0,0,0,.224,1.122c.231.181.055.083.449.225" transform="translate(-129.048 -27.233)" fill="#f1e9d6" fill-rule="evenodd"/>
        <path id="パス_148" data-name="パス 148" d="M101.415,90.466c-.419,1.488-1.631,2.748-2.17,4.188-1.96,5.233-3.04,11.561,1.6,17.669a11.289,11.289,0,0,0,2.938,3.121c5.621,3.231,15.607.479,21-7.234a42.784,42.784,0,0,0,5.975-12.157c.253-.849-.059-1.823.206-2.694-.357-.442-.526-.647-.858-.757-1.434-.93-4.039-.549-5.66-.769-5.244-.712-10.557-.818-15.806-1.507-2.152-.282-4.873-1.563-7.224.139m1.53.528c1.771.585,3.861.25,5.7.454,6.849.76,13.9.915,20.7,2.012-.91,5.938-3.424,11.014-8.009,16.524-3.352,4.029-10.915,6.146-13.7,5.344C97.823,112.5,98.5,101.8,100.732,95.5c.533-1.5.8-3.1,2.213-4.5" transform="translate(-50.961 -46.799)" fill="#f1e9d6" fill-rule="evenodd"/>
        <path id="パス_149" data-name="パス 149" d="M239.826,120.991c8.39-3.733,8.938-9.758,7.458-16.094-.478-2.046-.839-4.638-2.736-6.585-3.346.775-6.96-.224-10.313.148a71.342,71.342,0,0,1-16.829-.134c-2.876-.342-4.751.114-7.675-.931a7.443,7.443,0,0,0-1.05,6c.21,1.186.5,3.606.825,4.8,1.259,4.675,5.638,10.93,11.28,13.045a24.882,24.882,0,0,0,19.039-.249m-21.018-2.232c-5-2.553-7.794-9.108-8.577-12.485q-.028-.952-.056-1.9c-.321-1.731-.8-3.651.157-5.4,2.316,1.228,4.158.337,6.478.643,6.332.835,12.165.583,18.424.4,1.408-.041,8.678-.375,9.053.207a15.428,15.428,0,0,1,1.573,4.873c.447,1.931,1.294,4.238.977,6.161-.64,3.883-5.287,7.419-8.626,8.828-5.944,2.508-13.308,1.784-19.4-1.327" transform="translate(-108.895 -50.871)" fill="#f1e9d6" fill-rule="evenodd"/>
        <path id="パス_150" data-name="パス 150" d="M158.292,116.938h.224c-.145-.387-.044-.22-.224-.449Z" transform="translate(-82.679 -60.845)" fill="#f1e9d6" fill-rule="evenodd"/>
        <path id="パス_151" data-name="パス 151" d="M95.247,145.61c-.352,1.274.472,3.942,0,5.833A23.857,23.857,0,0,1,93,157.277l.449.673H93.9l2.244-6.282c.541-2.128-.339-4.232-.449-6.058Z" transform="translate(-48.577 -76.055)" fill="#f1e9d6" fill-rule="evenodd"/>
        <rect id="長方形_1441" data-name="長方形 1441" width="0.449" height="0.449" transform="translate(123.628 78.081)" fill="#f1e9d6"/>
        <path id="パス_152" data-name="パス 152" d="M264.447,164.4c.482,1.627,2.868,2.118,3.814,3.366a73.156,73.156,0,0,1,4.488,7.18h.449l.224-.224c-.483-3.244-5.557-10.03-8.974-10.321" transform="translate(-138.126 -85.868)" fill="#f1e9d6" fill-rule="evenodd"/>
        <path id="パス_153" data-name="パス 153" d="M11.007,246.529a13.444,13.444,0,0,1-.673,1.8q.112.785.225,1.571l.673.224a14.643,14.643,0,0,1,.449-2.244c.294-.54.458-.53,1.122-.673v-.673a6.475,6.475,0,0,0-1.8,0" transform="translate(-5.398 -128.734)" fill="#f1e9d6" fill-rule="evenodd"/>
        <path id="パス_154" data-name="パス 154" d="M364.706,276.189a17.505,17.505,0,0,1-6.507,7.18c-1.381.907-2.885,1.128-3.814,2.468l-.224.224c.181.231.083.055.224.449,2.332-.439,7.693-4.778,8.975-6.507.718-.968,1.041-2.2,1.8-3.141-.2-.53-.085-.37-.449-.673" transform="translate(-184.985 -144.259)" fill="#f1e9d6" fill-rule="evenodd"/>
        <path id="パス_155" data-name="パス 155" d="M35.228,279.947v.449H35.9c-.33-.558.055-.263-.673-.449" transform="translate(-18.4 -146.222)" fill="#f1e9d6" fill-rule="evenodd"/>
        <path id="パス_156" data-name="パス 156" d="M40.354,282.3a3.17,3.17,0,0,0-.9.225c.3,1.548,1.8,1.954,2.917,2.692,3.128,2.064,4.217,3.591,9.2,3.366.8-.8,1.97-1.907.9-3.366v-.449H51.8c.113,1.08.415,1.773-.225,2.468a4.556,4.556,0,0,1-3.141.449c-1.764-.479-7.135-4.013-8.077-5.385" transform="translate(-20.609 -147.448)" fill="#f1e9d6" fill-rule="evenodd"/>
        <path id="パス_157" data-name="パス 157" d="M348.055,300.1a1.6,1.6,0,0,0,.9-.449h.225V299.2h-.9a2.84,2.84,0,0,0-.224.9" transform="translate(-181.796 -156.281)" fill="#f1e9d6" fill-rule="evenodd"/>
      </g>
    </g>
  </g>
</svg>
