<svg xmlns="http://www.w3.org/2000/svg" viewBox="0 0 261.94 39.92"><defs><style>.cls-1{isolation:isolate;}.cls-2{fill:#fff;}.cls-3{fill:none;stroke:#b9b9b9;}</style></defs><g id="レイヤー_2" data-name="レイヤー 2"><g id="レイヤー_1-2" data-name="レイヤー 1"><g id="About_NILAX" data-name="About NILAX" class="cls-1"><g class="cls-1"><path class="cls-2" d="M33.14,3.55c.51-1.12.86-1.68,1.08-1.68h.12a3.86,3.86,0,0,1,1.49.78c.75.52,1.12,1,1.12,1.46q0,1-6.25,14.75T23.53,34.33c-.61,1.11-1,1.86-1.25,2.23a10,10,0,0,1-.93,1.24,3.22,3.22,0,0,1-2.61,1.3,3.54,3.54,0,0,0-1.13.16,3.9,3.9,0,0,1-.58.16c-.52,0-.78-.13-.78-.37a4,4,0,0,1,.2-.6q.21-.53,5.58-11.85Q16.3,26.38,12,26.26a97.35,97.35,0,0,0-7.57,11,4.23,4.23,0,0,1-.78,1.14,1.44,1.44,0,0,1-1,.33,2.18,2.18,0,0,1-1.37-.65,1.94,1.94,0,0,1-.73-1.5q0-2.45,6.3-10.45a27.4,27.4,0,0,0-3.75.15,8.91,8.91,0,0,1-1,.14q-.66,0-.66-1.11a2.35,2.35,0,0,1,1.31-1.95,6.38,6.38,0,0,1,3.5-.84l.61,0c1,0,2-.09,3.1-.12A133.4,133.4,0,0,1,21,10.75,47.92,47.92,0,0,1,31.09,3.26a2.44,2.44,0,0,1,1.09-.33A1.59,1.59,0,0,1,33.14,3.55ZM31.43,7A105,105,0,0,0,15.15,22.35q4.32.11,8.74.37Q28.33,13.36,31.43,7Z"/><path class="cls-2" d="M50,3q-5.15,7.74-10,16.18a8.9,8.9,0,0,1,2.52-.84,13.27,13.27,0,0,1,2-.26c.38,0,.71,0,1,0a4.43,4.43,0,0,1,1.06.27,3.22,3.22,0,0,1,1.11.65,3.58,3.58,0,0,1,1.13,2.83,9.77,9.77,0,0,1-1,4,22.38,22.38,0,0,1-2.69,4.39,35.94,35.94,0,0,1-3.71,4.09,19,19,0,0,1-4.33,3.08,9.5,9.5,0,0,1-4.32,1.2,3.34,3.34,0,0,1-2.14-1.2,4.2,4.2,0,0,1-1.21-3.15,18.08,18.08,0,0,1,1.69-6,72.68,72.68,0,0,1,4.09-8.34q2.4-4.23,4.9-8.26C41.73,8.92,43.15,6.73,44.32,5a36.31,36.31,0,0,1,2.15-3A3.23,3.23,0,0,1,47.9,1.4a6.7,6.7,0,0,1,1.79-.25c.51,0,.76.24.76.69A2.29,2.29,0,0,1,50,3ZM43.42,26.4a6.52,6.52,0,0,0,1-3.19c0-1-.3-1.45-.91-1.45a8.31,8.31,0,0,0-2.81.8,11.82,11.82,0,0,1-2.16.79,1.16,1.16,0,0,1-.71-.44q-4.76,8.57-4.76,10.94c0,.73.23,1.1.71,1.1q1.68,0,4.85-2.82A22.1,22.1,0,0,0,43.42,26.4Z"/><path class="cls-2" d="M65.12,19.2a2.37,2.37,0,0,1,1.51.66,2.52,2.52,0,0,1,.76,2,9.15,9.15,0,0,1-1,3.51,22.85,22.85,0,0,1-2.61,4.4A37.14,37.14,0,0,1,60.18,34a19.3,19.3,0,0,1-4.3,3.23,8.94,8.94,0,0,1-4.18,1.25,4,4,0,0,1-3-1.18A4.56,4.56,0,0,1,47.55,34a12.61,12.61,0,0,1,1-4.67,17,17,0,0,1,2.68-4.53,26.23,26.23,0,0,1,3.54-3.53q4-3.19,7-3.2a2.83,2.83,0,0,1,2,.66.61.61,0,0,1,.24.39v.15A8.92,8.92,0,0,1,65.12,19.2Zm-2.46,3.25h-.17c-.57,0-.86-.42-.86-1.25a13.29,13.29,0,0,0-3.73,2.05,18.2,18.2,0,0,0-3.49,3.47q-3.13,4-3.18,6.76c0,.92.34,1.37,1,1.37a6.34,6.34,0,0,0,3-1.32,17.52,17.52,0,0,0,3.92-3.76A30.7,30.7,0,0,0,62,25.54a6.83,6.83,0,0,0,1-2.44C63,22.66,62.89,22.45,62.66,22.45Z"/><path class="cls-2" d="M87.54,30.14c.31,0,.49.24.56.71a11.54,11.54,0,0,1,.1,1.46,2.51,2.51,0,0,1-.15,1A12.34,12.34,0,0,1,85,36.69a7.34,7.34,0,0,1-4.54,2A4.18,4.18,0,0,1,78,37.87a3.18,3.18,0,0,1-1.13-2.78,8,8,0,0,1,1-3.88q-6,7.6-9.49,7.6a2.77,2.77,0,0,1-2.21-1,3,3,0,0,1-.85-2,8.17,8.17,0,0,1,.3-2.14,19,19,0,0,1,.62-2,21.94,21.94,0,0,1,1-2.18c.43-.86.75-1.49,1-1.88s.55-1,1-1.77S70.29,24,71,22.67a27.49,27.49,0,0,1,1.88-3,2.06,2.06,0,0,1,1.46-1,2,2,0,0,1,1.78,1.53,17.56,17.56,0,0,1-1.64,3.3q-4.83,8.73-4.83,10.18,0,.36.27.36,1.17,0,5.83-5.07t5.4-6.51a19.94,19.94,0,0,1,1.43-2.41,5.09,5.09,0,0,1,1-1.19,5.13,5.13,0,0,1,2.71-.73,2.43,2.43,0,0,1,.42,0c.1,0,.21.16.34.42a1.51,1.51,0,0,1,.2.61,32.17,32.17,0,0,1-1.94,3.63c-1.15,2-1.79,3.09-1.92,3.35q-2.88,6-2.88,7.76c0,.69.26,1,.78,1a6.77,6.77,0,0,0,3.42-2.27c.49-.51,1-1,1.45-1.54s.78-.83.89-.92A.64.64,0,0,1,87.54,30.14Z"/><path class="cls-2" d="M103.43,6.36l1,.24a.5.5,0,0,1,.39.22.67.67,0,0,1,.17.42,3.54,3.54,0,0,1-.51,1c-.34.57-.75,1.21-1.21,1.94s-.71,1.12-.74,1.18c1.27-.09,2.16-.14,2.69-.14a3.36,3.36,0,0,1,1.09.11A1.63,1.63,0,0,1,107,12a4.36,4.36,0,0,0,.7.75.94.94,0,0,1,.32.77,1,1,0,0,1-.63.87,3.31,3.31,0,0,1-1.33.43c-3.77.37-5.86.57-6.25.58q-2,3-5.53,9.44c-2.37,4.27-3.62,6.94-3.77,8a8.71,8.71,0,0,0-.1,1.19c0,.64.34,1,1,1a4.33,4.33,0,0,0,2.23-.77,18.37,18.37,0,0,0,2.24-1.67,23.09,23.09,0,0,1,2.93-2.45c.42,0,.64.74.64,2.2a2.8,2.8,0,0,1-1.1,2.15,39.14,39.14,0,0,1-4.15,3.2,6.3,6.3,0,0,1-3.37,1.07,3,3,0,0,1-.69-.07,4.77,4.77,0,0,1-2.86-1.43,4.19,4.19,0,0,1-.91-2.87A12.17,12.17,0,0,1,87.43,30,52.37,52.37,0,0,1,90.1,24.5q2.64-4.74,5.27-8.89l-.92.12c-1.89.22-3,.32-3.3.32h-.22a3.43,3.43,0,0,1-1.37-.28q-.66-.29-.66-.69a1.19,1.19,0,0,1,.36-.81,1.88,1.88,0,0,0,.42-.61A2.79,2.79,0,0,1,91,12.46a4.21,4.21,0,0,1,1.67-.69l1.09-.06,1.17-.05,1-.05,2.19-.1a47.45,47.45,0,0,1,2.82-3.95c.52-.59.81-.91.89-1a1,1,0,0,1,.49-.08Z"/><path class="cls-2" d="M130.11,3.11l1.79-.39A1.93,1.93,0,0,1,133,3c.27.2.41.38.41.55a3.49,3.49,0,0,1-.12.75c-.08.32-.74,3.5-2,9.52s-2.14,10.51-2.71,13.48q4.16-5.64,9.69-13.89t6.47-11a3.45,3.45,0,0,1,.76-1.32,1.9,1.9,0,0,1,.83-.54A5.08,5.08,0,0,1,147.47.5a6.06,6.06,0,0,1,1.8.33c.69.22,1,.58,1,1.09q0,1.44-4.27,8.3t-9.75,14.57q-5.49,7.73-9.17,12.21a2,2,0,0,1-1.6.8,6.31,6.31,0,0,1-2-.33c-.69-.21-1-.6-1-1.15q0-2.68,4.71-25.81-4,5.22-9.79,14.55-6,9.65-6.79,12c-.29.93-.63,1.47-1,1.61a2,2,0,0,1-.83.18l-1.93.22a1.87,1.87,0,0,1-1-.32c-.31-.21-.47-.43-.47-.66q0-1,2.7-5.84t6.29-10.56Q118,16,121.89,10.56A46.35,46.35,0,0,1,128,3.31a1.45,1.45,0,0,1,1-.39Z"/><path class="cls-2" d="M163.51,2.4l1.15,0q.63,0,.63.48a.43.43,0,0,1,0,.22q-11.67,17.17-21.81,33.65c-.35.58-.67.92-.95,1l-.24.09a6,6,0,0,1-1.71.47,3.82,3.82,0,0,0-.54,0,.65.65,0,0,1-.52.25h-.41a5.33,5.33,0,0,1-.56-.2c-.31-.12-.46-.22-.46-.28a5.45,5.45,0,0,1,.1-1.44q.51-1.74,5.64-9.78t10.43-15.7q5.31-7.65,6.44-8.53a1.4,1.4,0,0,1,.9-.27Z"/><path class="cls-2" d="M166.15,34.75a15.7,15.7,0,0,1-10.84,4.06q-3.81,0-5.44-1.62a4.15,4.15,0,0,1-.93-3.1c0-2.27,1.73-3.75,5.2-4.42a21.14,21.14,0,0,1,3.93-.31,31.65,31.65,0,0,1,6.27.85,55.4,55.4,0,0,0,5.07-7q2.94-4.6,4.65-7.09t3.88-5.09a44.15,44.15,0,0,1,4.54-4.7q4.82-4.29,9.52-4.3a3.87,3.87,0,0,1,3,1.06A3.71,3.71,0,0,1,196,5.64,6.19,6.19,0,0,1,194.63,9a17.35,17.35,0,0,1-3.08,3.42A27,27,0,0,1,188.11,15a5.63,5.63,0,0,1-2.67,1,2.14,2.14,0,0,1-1.69-.83,2.51,2.51,0,0,1-.71-1.6,2,2,0,0,1,.21-1.07c.14-.2.28-.31.43-.31s.23.09.27.27a10.36,10.36,0,0,0,2.5-1.52,31.05,31.05,0,0,0,3.14-2.68c.94-.92,1.41-1.51,1.41-1.74s-.14-.36-.42-.36a3.23,3.23,0,0,0-1.16.3,9,9,0,0,0-2,1.21A23.7,23.7,0,0,0,184.83,10a65.49,65.49,0,0,0-7.62,9.69c-.65.95-1.57,2.32-2.76,4.13q-3.63,5.49-5.2,7.52,12.52,3.3,17.9,3.3a7,7,0,0,0,3.49-.64,1.23,1.23,0,0,1,.48-.22c.09,0,.13.07.13.2a1.47,1.47,0,0,1-.22.58c-.15.26-.51.82-1.09,1.66a5.9,5.9,0,0,1-1.28,1.52,8.54,8.54,0,0,1-4.07.7,34.4,34.4,0,0,1-5.47-.41c-1.73-.28-3.12-.55-4.18-.82s-2.63-.7-4.7-1.31Zm-8.91-1.49c-2.13,0-3.2.26-3.2.76,0,.2.18.37.55.51a3.46,3.46,0,0,0,1.31.22,9.12,9.12,0,0,0,4.56-1.24A26.24,26.24,0,0,0,157.24,33.26Z"/><path class="cls-2" d="M222.74,3.55c.51-1.12.86-1.68,1.08-1.68h.12a3.86,3.86,0,0,1,1.49.78c.75.52,1.12,1,1.12,1.46q0,1-6.25,14.75t-7.17,15.47c-.61,1.11-1,1.86-1.25,2.23A10,10,0,0,1,211,37.8a3.22,3.22,0,0,1-2.61,1.3,3.54,3.54,0,0,0-1.13.16,3.9,3.9,0,0,1-.58.16c-.52,0-.78-.13-.78-.37a4,4,0,0,1,.2-.6q.21-.53,5.58-11.85-5.73-.23-10.08-.34a97.35,97.35,0,0,0-7.57,11,4,4,0,0,1-.78,1.14,1.44,1.44,0,0,1-1,.33,2.18,2.18,0,0,1-1.37-.65,1.94,1.94,0,0,1-.73-1.5q0-2.45,6.3-10.45a27.4,27.4,0,0,0-3.75.15,8.91,8.91,0,0,1-1,.14q-.66,0-.66-1.11a2.35,2.35,0,0,1,1.31-1.95,6.38,6.38,0,0,1,3.5-.84l.61,0c1,0,2-.09,3.1-.12a133.4,133.4,0,0,1,11.13-11.6,47.92,47.92,0,0,1,10.06-7.49,2.44,2.44,0,0,1,1.09-.33A1.61,1.61,0,0,1,222.74,3.55ZM221,7a105,105,0,0,0-16.28,15.36q4.32.11,8.74.37Q217.93,13.36,221,7Z"/><path class="cls-2" d="M219.1,38.27l-.14,0c-.12,0-.35-.16-.7-.47s-.56-.52-.65-.59a2.67,2.67,0,0,0-.29-.23l-.23-.17-.16-.15a.76.76,0,0,1-.13-.16l-.09-.13a1,1,0,0,1-.07-.43,3.12,3.12,0,0,1,.17-.82q.24-.82,5-4.7t13.8-10.9c.22-.88.51-1.95.85-3.22s.62-2.29.82-3.06.41-1.58.62-2.41a21.28,21.28,0,0,0,.61-2.71c0-.23-.07-.34-.22-.34q-.9,0-4,2.8t-3.13,3.65c0,.37-.14.56-.42.56s-.44-.19-.79-.58a2,2,0,0,1-.59-1.05c0-.31-.08-.59-.13-.81a8.59,8.59,0,0,1-.13-1.23c0-.83.79-2,2.35-3.43a29.82,29.82,0,0,1,5.16-3.84,9.71,9.71,0,0,1,4.09-1.66,2.56,2.56,0,0,1,2,.88,3.74,3.74,0,0,1,.77,2.54c0,1.1-.7,4.25-2.1,9.42q13.69-10.52,14.43-11a4.52,4.52,0,0,1,2.2-.43,8.22,8.22,0,0,1,3,.59c.31.13.47.3.47.5a.93.93,0,0,1-.19.57,3.26,3.26,0,0,1-.65.65c-.32.25-1,.73-1.92,1.42l-3.47,2.52q-4.71,3.48-15.65,12-2.34,9-2.34,11.65c0,.45.05.68.16.68a.77.77,0,0,0,.42-.2,38.17,38.17,0,0,0,4.73-3.72,49,49,0,0,0,3.93-3.64c.43-.51.73-.76.89-.74s.37.29.37.88l0,.41s.08.25.23.7a4.65,4.65,0,0,1,.24,1.56,2.55,2.55,0,0,1-.35,1.42,11.51,11.51,0,0,1-1,1.3,26.2,26.2,0,0,1-1.87,1.92,23.49,23.49,0,0,1-2.54,2.11,10.58,10.58,0,0,1-6.17,2.42,3.49,3.49,0,0,1-2.47-1,4.48,4.48,0,0,1-1.1-3.36,40.13,40.13,0,0,1,1.27-7.75q-14,11.72-14.13,11.79a.83.83,0,0,1-.32.08Z"/></g><g class="cls-1"><path class="cls-3" d="M33.14,3.55c.51-1.12.86-1.68,1.08-1.68h.12a3.86,3.86,0,0,1,1.49.78c.75.52,1.12,1,1.12,1.46q0,1-6.25,14.75T23.53,34.33c-.61,1.11-1,1.86-1.25,2.23a10,10,0,0,1-.93,1.24,3.22,3.22,0,0,1-2.61,1.3,3.54,3.54,0,0,0-1.13.16,3.9,3.9,0,0,1-.58.16c-.52,0-.78-.13-.78-.37a4,4,0,0,1,.2-.6q.21-.53,5.58-11.85Q16.3,26.38,12,26.26a97.35,97.35,0,0,0-7.57,11,4.23,4.23,0,0,1-.78,1.14,1.44,1.44,0,0,1-1,.33,2.18,2.18,0,0,1-1.37-.65,1.94,1.94,0,0,1-.73-1.5q0-2.45,6.3-10.45a27.4,27.4,0,0,0-3.75.15,8.91,8.91,0,0,1-1,.14q-.66,0-.66-1.11a2.35,2.35,0,0,1,1.31-1.95,6.38,6.38,0,0,1,3.5-.84l.61,0c1,0,2-.09,3.1-.12A133.4,133.4,0,0,1,21,10.75,47.92,47.92,0,0,1,31.09,3.26a2.44,2.44,0,0,1,1.09-.33A1.59,1.59,0,0,1,33.14,3.55ZM31.43,7A105,105,0,0,0,15.15,22.35q4.32.11,8.74.37Q28.33,13.36,31.43,7Z"/><path class="cls-3" d="M50,3q-5.15,7.74-10,16.18a8.9,8.9,0,0,1,2.52-.84,13.27,13.27,0,0,1,2-.26c.38,0,.71,0,1,0a4.43,4.43,0,0,1,1.06.27,3.22,3.22,0,0,1,1.11.65,3.58,3.58,0,0,1,1.13,2.83,9.77,9.77,0,0,1-1,4,22.38,22.38,0,0,1-2.69,4.39,35.94,35.94,0,0,1-3.71,4.09,19,19,0,0,1-4.33,3.08,9.5,9.5,0,0,1-4.32,1.2,3.34,3.34,0,0,1-2.14-1.2,4.2,4.2,0,0,1-1.21-3.15,18.08,18.08,0,0,1,1.69-6,72.68,72.68,0,0,1,4.09-8.34q2.4-4.23,4.9-8.26C41.73,8.92,43.15,6.73,44.32,5a36.31,36.31,0,0,1,2.15-3A3.23,3.23,0,0,1,47.9,1.4a6.7,6.7,0,0,1,1.79-.25c.51,0,.76.24.76.69A2.29,2.29,0,0,1,50,3ZM43.42,26.4a6.52,6.52,0,0,0,1-3.19c0-1-.3-1.45-.91-1.45a8.31,8.31,0,0,0-2.81.8,11.82,11.82,0,0,1-2.16.79,1.16,1.16,0,0,1-.71-.44q-4.76,8.57-4.76,10.94c0,.73.23,1.1.71,1.1q1.68,0,4.85-2.82A22.1,22.1,0,0,0,43.42,26.4Z"/><path class="cls-3" d="M65.12,19.2a2.37,2.37,0,0,1,1.51.66,2.52,2.52,0,0,1,.76,2,9.15,9.15,0,0,1-1,3.51,22.85,22.85,0,0,1-2.61,4.4A37.14,37.14,0,0,1,60.18,34a19.3,19.3,0,0,1-4.3,3.23,8.94,8.94,0,0,1-4.18,1.25,4,4,0,0,1-3-1.18A4.56,4.56,0,0,1,47.55,34a12.61,12.61,0,0,1,1-4.67,17,17,0,0,1,2.68-4.53,26.23,26.23,0,0,1,3.54-3.53q4-3.19,7-3.2a2.83,2.83,0,0,1,2,.66.61.61,0,0,1,.24.39v.15A8.92,8.92,0,0,1,65.12,19.2Zm-2.46,3.25h-.17c-.57,0-.86-.42-.86-1.25a13.29,13.29,0,0,0-3.73,2.05,18.2,18.2,0,0,0-3.49,3.47q-3.13,4-3.18,6.76c0,.92.34,1.37,1,1.37a6.34,6.34,0,0,0,3-1.32,17.52,17.52,0,0,0,3.92-3.76A30.7,30.7,0,0,0,62,25.54a6.83,6.83,0,0,0,1-2.44C63,22.66,62.89,22.45,62.66,22.45Z"/><path class="cls-3" d="M87.54,30.14c.31,0,.49.24.56.71a11.54,11.54,0,0,1,.1,1.46,2.51,2.51,0,0,1-.15,1A12.34,12.34,0,0,1,85,36.69a7.34,7.34,0,0,1-4.54,2A4.18,4.18,0,0,1,78,37.87a3.18,3.18,0,0,1-1.13-2.78,8,8,0,0,1,1-3.88q-6,7.6-9.49,7.6a2.77,2.77,0,0,1-2.21-1,3,3,0,0,1-.85-2,8.17,8.17,0,0,1,.3-2.14,19,19,0,0,1,.62-2,21.94,21.94,0,0,1,1-2.18c.43-.86.75-1.49,1-1.88s.55-1,1-1.77S70.29,24,71,22.67a27.49,27.49,0,0,1,1.88-3,2.06,2.06,0,0,1,1.46-1,2,2,0,0,1,1.78,1.53,17.56,17.56,0,0,1-1.64,3.3q-4.83,8.73-4.83,10.18,0,.36.27.36,1.17,0,5.83-5.07t5.4-6.51a19.94,19.94,0,0,1,1.43-2.41,5.09,5.09,0,0,1,1-1.19,5.13,5.13,0,0,1,2.71-.73,2.43,2.43,0,0,1,.42,0c.1,0,.21.16.34.42a1.51,1.51,0,0,1,.2.61,32.17,32.17,0,0,1-1.94,3.63c-1.15,2-1.79,3.09-1.92,3.35q-2.88,6-2.88,7.76c0,.69.26,1,.78,1a6.77,6.77,0,0,0,3.42-2.27c.49-.51,1-1,1.45-1.54s.78-.83.89-.92A.64.64,0,0,1,87.54,30.14Z"/><path class="cls-3" d="M103.43,6.36l1,.24a.5.5,0,0,1,.39.22.67.67,0,0,1,.17.42,3.54,3.54,0,0,1-.51,1c-.34.57-.75,1.21-1.21,1.94s-.71,1.12-.74,1.18c1.27-.09,2.16-.14,2.69-.14a3.36,3.36,0,0,1,1.09.11A1.63,1.63,0,0,1,107,12a4.36,4.36,0,0,0,.7.75.94.94,0,0,1,.32.77,1,1,0,0,1-.63.87,3.31,3.31,0,0,1-1.33.43c-3.77.37-5.86.57-6.25.58q-2,3-5.53,9.44c-2.37,4.27-3.62,6.94-3.77,8a8.71,8.71,0,0,0-.1,1.19c0,.64.34,1,1,1a4.33,4.33,0,0,0,2.23-.77,18.37,18.37,0,0,0,2.24-1.67,23.09,23.09,0,0,1,2.93-2.45c.42,0,.64.74.64,2.2a2.8,2.8,0,0,1-1.1,2.15,39.14,39.14,0,0,1-4.15,3.2,6.3,6.3,0,0,1-3.37,1.07,3,3,0,0,1-.69-.07,4.77,4.77,0,0,1-2.86-1.43,4.19,4.19,0,0,1-.91-2.87A12.17,12.17,0,0,1,87.43,30,52.37,52.37,0,0,1,90.1,24.5q2.64-4.74,5.27-8.89l-.92.12c-1.89.22-3,.32-3.3.32h-.22a3.43,3.43,0,0,1-1.37-.28q-.66-.29-.66-.69a1.19,1.19,0,0,1,.36-.81,1.88,1.88,0,0,0,.42-.61A2.79,2.79,0,0,1,91,12.46a4.21,4.21,0,0,1,1.67-.69l1.09-.06,1.17-.05,1-.05,2.19-.1a47.45,47.45,0,0,1,2.82-3.95c.52-.59.81-.91.89-1a1,1,0,0,1,.49-.08Z"/><path class="cls-3" d="M130.11,3.11l1.79-.39A1.93,1.93,0,0,1,133,3c.27.2.41.38.41.55a3.49,3.49,0,0,1-.12.75c-.08.32-.74,3.5-2,9.52s-2.14,10.51-2.71,13.48q4.16-5.64,9.69-13.89t6.47-11a3.45,3.45,0,0,1,.76-1.32,1.9,1.9,0,0,1,.83-.54A5.08,5.08,0,0,1,147.47.5a6.06,6.06,0,0,1,1.8.33c.69.22,1,.58,1,1.09q0,1.44-4.27,8.3t-9.75,14.57q-5.49,7.73-9.17,12.21a2,2,0,0,1-1.6.8,6.31,6.31,0,0,1-2-.33c-.69-.21-1-.6-1-1.15q0-2.68,4.71-25.81-4,5.22-9.79,14.55-6,9.65-6.79,12c-.29.93-.63,1.47-1,1.61a2,2,0,0,1-.83.18l-1.93.22a1.87,1.87,0,0,1-1-.32c-.31-.21-.47-.43-.47-.66q0-1,2.7-5.84t6.29-10.56Q118,16,121.89,10.56A46.35,46.35,0,0,1,128,3.31a1.45,1.45,0,0,1,1-.39Z"/><path class="cls-3" d="M163.51,2.4l1.15,0q.63,0,.63.48a.43.43,0,0,1,0,.22q-11.67,17.17-21.81,33.65c-.35.58-.67.92-.95,1l-.24.09a6,6,0,0,1-1.71.47,3.82,3.82,0,0,0-.54,0,.65.65,0,0,1-.52.25h-.41a5.33,5.33,0,0,1-.56-.2c-.31-.12-.46-.22-.46-.28a5.45,5.45,0,0,1,.1-1.44q.51-1.74,5.64-9.78t10.43-15.7q5.31-7.65,6.44-8.53a1.4,1.4,0,0,1,.9-.27Z"/><path class="cls-3" d="M166.15,34.75a15.7,15.7,0,0,1-10.84,4.06q-3.81,0-5.44-1.62a4.15,4.15,0,0,1-.93-3.1c0-2.27,1.73-3.75,5.2-4.42a21.14,21.14,0,0,1,3.93-.31,31.65,31.65,0,0,1,6.27.85,55.4,55.4,0,0,0,5.07-7q2.94-4.6,4.65-7.09t3.88-5.09a44.15,44.15,0,0,1,4.54-4.7q4.82-4.29,9.52-4.3a3.87,3.87,0,0,1,3,1.06A3.71,3.71,0,0,1,196,5.64,6.19,6.19,0,0,1,194.63,9a17.35,17.35,0,0,1-3.08,3.42A27,27,0,0,1,188.11,15a5.63,5.63,0,0,1-2.67,1,2.14,2.14,0,0,1-1.69-.83,2.51,2.51,0,0,1-.71-1.6,2,2,0,0,1,.21-1.07c.14-.2.28-.31.43-.31s.23.09.27.27a10.36,10.36,0,0,0,2.5-1.52,31.05,31.05,0,0,0,3.14-2.68c.94-.92,1.41-1.51,1.41-1.74s-.14-.36-.42-.36a3.23,3.23,0,0,0-1.16.3,9,9,0,0,0-2,1.21A23.7,23.7,0,0,0,184.83,10a65.49,65.49,0,0,0-7.62,9.69c-.65.95-1.57,2.32-2.76,4.13q-3.63,5.49-5.2,7.52,12.52,3.3,17.9,3.3a7,7,0,0,0,3.49-.64,1.23,1.23,0,0,1,.48-.22c.09,0,.13.07.13.2a1.47,1.47,0,0,1-.22.58c-.15.26-.51.82-1.09,1.66a5.9,5.9,0,0,1-1.28,1.52,8.54,8.54,0,0,1-4.07.7,34.4,34.4,0,0,1-5.47-.41c-1.73-.28-3.12-.55-4.18-.82s-2.63-.7-4.7-1.31Zm-8.91-1.49c-2.13,0-3.2.26-3.2.76,0,.2.18.37.55.51a3.46,3.46,0,0,0,1.31.22,9.12,9.12,0,0,0,4.56-1.24A26.24,26.24,0,0,0,157.24,33.26Z"/><path class="cls-3" d="M222.74,3.55c.51-1.12.86-1.68,1.08-1.68h.12a3.86,3.86,0,0,1,1.49.78c.75.52,1.12,1,1.12,1.46q0,1-6.25,14.75t-7.17,15.47c-.61,1.11-1,1.86-1.25,2.23A10,10,0,0,1,211,37.8a3.22,3.22,0,0,1-2.61,1.3,3.54,3.54,0,0,0-1.13.16,3.9,3.9,0,0,1-.58.16c-.52,0-.78-.13-.78-.37a4,4,0,0,1,.2-.6q.21-.53,5.58-11.85-5.73-.23-10.08-.34a97.35,97.35,0,0,0-7.57,11,4,4,0,0,1-.78,1.14,1.44,1.44,0,0,1-1,.33,2.18,2.18,0,0,1-1.37-.65,1.94,1.94,0,0,1-.73-1.5q0-2.45,6.3-10.45a27.4,27.4,0,0,0-3.75.15,8.91,8.91,0,0,1-1,.14q-.66,0-.66-1.11a2.35,2.35,0,0,1,1.31-1.95,6.38,6.38,0,0,1,3.5-.84l.61,0c1,0,2-.09,3.1-.12a133.4,133.4,0,0,1,11.13-11.6,47.92,47.92,0,0,1,10.06-7.49,2.44,2.44,0,0,1,1.09-.33A1.61,1.61,0,0,1,222.74,3.55ZM221,7a105,105,0,0,0-16.28,15.36q4.32.11,8.74.37Q217.93,13.36,221,7Z"/><path class="cls-3" d="M219.1,38.27l-.14,0c-.12,0-.35-.16-.7-.47s-.56-.52-.65-.59a2.67,2.67,0,0,0-.29-.23l-.23-.17-.16-.15a.76.76,0,0,1-.13-.16l-.09-.13a1,1,0,0,1-.07-.43,3.12,3.12,0,0,1,.17-.82q.24-.82,5-4.7t13.8-10.9c.22-.88.51-1.95.85-3.22s.62-2.29.82-3.06.41-1.58.62-2.41a21.28,21.28,0,0,0,.61-2.71c0-.23-.07-.34-.22-.34q-.9,0-4,2.8t-3.13,3.65c0,.37-.14.56-.42.56s-.44-.19-.79-.58a2,2,0,0,1-.59-1.05c0-.31-.08-.59-.13-.81a8.59,8.59,0,0,1-.13-1.23c0-.83.79-2,2.35-3.43a29.82,29.82,0,0,1,5.16-3.84,9.71,9.71,0,0,1,4.09-1.66,2.56,2.56,0,0,1,2,.88,3.74,3.74,0,0,1,.77,2.54c0,1.1-.7,4.25-2.1,9.42q13.69-10.52,14.43-11a4.52,4.52,0,0,1,2.2-.43,8.22,8.22,0,0,1,3,.59c.31.13.47.3.47.5a.93.93,0,0,1-.19.57,3.26,3.26,0,0,1-.65.65c-.32.25-1,.73-1.92,1.42l-3.47,2.52q-4.71,3.48-15.65,12-2.34,9-2.34,11.65c0,.45.05.68.16.68a.77.77,0,0,0,.42-.2,38.17,38.17,0,0,0,4.73-3.72,49,49,0,0,0,3.93-3.64c.43-.51.73-.76.89-.74s.37.29.37.88l0,.41s.08.25.23.7a4.65,4.65,0,0,1,.24,1.56,2.55,2.55,0,0,1-.35,1.42,11.51,11.51,0,0,1-1,1.3,26.2,26.2,0,0,1-1.87,1.92,23.49,23.49,0,0,1-2.54,2.11,10.58,10.58,0,0,1-6.17,2.42,3.49,3.49,0,0,1-2.47-1,4.48,4.48,0,0,1-1.1-3.36,40.13,40.13,0,0,1,1.27-7.75q-14,11.72-14.13,11.79a.83.83,0,0,1-.32.08Z"/></g></g></g></g></svg>