<?xml version="1.0" encoding="utf-8"?>
<!-- Generator: Adobe Illustrator 24.3.0, SVG Export Plug-In . SVG Version: 6.00 Build 0)  -->
<svg version="1.1" id="レイヤー_1" xmlns="http://www.w3.org/2000/svg" xmlns:xlink="http://www.w3.org/1999/xlink" x="0px"
	 y="0px" viewBox="0 0 1280 154.5" style="enable-background:new 0 0 1280 154.5;" xml:space="preserve">
<style type="text/css">
	.st0{fill:none;stroke:#5B8DCD;}
</style>
<g id="レイヤー_2_1_">
	<g id="レイヤー_1-2">
		<g id="Message">
			<g>
				<path class="st0" d="M130,82l0.6,2.8c-0.1,1.6-0.8,3-1.8,4.2c-3.2,4.2-8.4,9-15.5,14.5c-7.1,5.4-12.3,8.2-15.7,8.2
					c-2.9,0.2-5.8-0.9-7.9-3c-1.8-1.8-2.9-4.2-2.9-6.8c0-3,3.2-9.7,9.5-20.1c9.5-15.4,21.7-33.3,36.5-53.9
					c-3.1,3.2-11.4,11.9-24.9,26.1C78,85.3,60.6,103,55.6,107.1c-1.1,0.7-2.3,1.1-3.6,1c-1.8-0.1-3.6-0.8-5-1.9
					c-1.8-1.3-2.6-2.7-2.6-4.4v-0.4c0.2-2.1,4.9-12.1,14.1-30.1s17-32.3,23.2-43c-9.2,10.2-18.6,21.5-28,34
					c-17.9,23.7-31,43.9-39.3,60.7c-0.7,1.6-1.6,2.3-2.7,2.3c-1.6-0.1-3.1-0.4-4.6-0.8c-4.3-1.2-6.5-3.2-6.5-6.2
					c0-1.8,3.6-8,10.8-18.9s15.5-22.6,25-35.5c9.5-12.8,19.3-25.2,29.5-37c14-16.4,23-24.6,27-24.6c0.6,0,1.3,0.2,1.8,0.5
					c0.3,0.2,0.7,0.4,1.1,0.5c0.2,0,0.3-0.1,0.4-0.2C96.7,2.4,98,2,99.8,2c1.9,0,3.8,0.4,5.5,1.1c1.8,0.7,2.7,1.5,2.7,2.5
					c0,0.6-2.4,5.3-7.3,14c-16.4,29-27.4,48.9-33,59.8c5.4-6.5,13-15.1,23-25.9s20.5-21.5,31.6-32.2c14.3-13.9,22.8-20.8,25.6-20.8
					c1.4,0.1,2.9,0.3,4.2,0.7c2.8,0.9,5.8,1.3,8.7,1.3c0.7,0.1,1.4,0.5,2,1c0.5,0.4,0.8,1,0.8,1.6c0,0.5-0.1,1-0.4,1.3
					c-15.9,21.1-29.2,39.7-40.1,55.8s-17.6,27-20.1,32.7c5.1-1.1,12.8-7.2,22.9-18.4c0.3-0.4,0.6-0.8,1-1.2c0.2-0.2,0.4-0.4,0.5-0.6
					c0.8-1,1.5-0.4,1.9,1.8c0.2,1.3,0.3,2.2,0.4,2.7s0.1,1,0.2,1.6C130,81.3,130,81.6,130,82z"/>
				<path class="st0" d="M184.2,54.3c0,3.3-1.5,6.4-3.9,8.5c-2.4,2.3-5.6,3.7-8.9,3.7c-0.8,0.1-1.6-0.2-2.1-0.8
					c-0.4-0.6-0.5-1.3-0.5-2c0-0.8,0.1-1.6,0.3-2.4c-2,0.7-4,1.6-5.9,2.7c-2.8,1.6-5.4,3.4-7.9,5.4c-3.1,2.4-4.7,4.2-4.7,5.3
					c0,0.4,0.6,0.6,1.7,0.6c1.8-0.1,3.6-0.5,5.3-1.2c1.6-0.6,3.3-1,5-1.2c0.6,0,1.3,0,1.9,0.2c0.8,0.6,1.5,1.3,2,2.2
					c0.6,0.8,1,1.7,1.1,2.7c0,0.7-0.6,1.5-1.9,2.6c-1.3,1.1-2.7,1.9-4.2,2.4c-1.1,0.4-2.2,0.8-3.2,1.3c-10.3,5.8-15.4,9.7-15.4,11.9
					c0,3.8,3.2,5.7,9.7,5.7c4.5-0.1,8.8-1.5,12.5-4c3.3-2.1,6.6-4.4,9.6-6.8c2.9-2.3,4.7-3.7,5.4-4.3c0.5-0.4,1.1-0.7,1.7-0.8
					c1.3,0,1.9,1.4,1.9,4.2c0.1,1.9-0.1,3.8-0.5,5.6c-0.7,1.3-1.7,2.5-2.9,3.3c-10.5,8.5-20.3,12.7-29.7,12.7c-5,0-9-0.7-11.9-2.1
					c-5.5-2.5-8.2-6.3-8.2-11.4c0-6.7,4.7-11.8,14-15.3c-1.6-0.6-2.9-1.7-3.6-3.2c-0.6-2-0.9-4.1-0.8-6.2c0-2.9,1.3-5.9,4-9.1
					c2.7-3.2,6-5.9,9.8-7.9c8.6-4.7,16.3-7,23-7c1.7,0.1,3.4,0.5,4.9,1.3C183.4,51.8,184.2,52.8,184.2,54.3z"/>
				<path class="st0" d="M189.5,94.4l-0.1,1.2c0,1.2,0.5,2.3,1.4,3.2c0.7,0.7,1.6,1.2,2.6,1.3c5.3,0.1,10.6-0.8,15.6-2.6
					c4.5-1.8,6.8-3.5,6.8-5.3c0-0.8-0.8-1.6-2.5-2.2c-2.7-0.9-5.4-1.7-8.2-2.3c-3.9-0.9-6.7-1.6-8.5-2.1c-1.4-0.4-2.8-0.9-4.2-1.4
					c-1.1-0.5-2.2-1.1-3.1-1.8c-2.3-1.6-3.6-4.4-3.4-7.2c0.1-3.5,1.3-6.8,3.6-9.5c2.4-3.2,5.5-6,8.9-8.1c3.7-2.3,7.5-4.3,11.5-5.9
					c8.1-3.4,14.9-5,20.4-5c5.4,0,8.8,1.2,10,3.5c0.4,0.9,0.6,1.8,0.6,2.8v0.5c0.1,2.2-0.4,4.3-1.6,6.1c-1.4,1.7-3.2,3.1-5.2,4
					c-1.7,1-3.7,1.6-5.6,1.8c-0.9,0.1-1.8,0-2.6-0.3c-0.4-0.2-0.7-0.5-0.9-0.8c-0.2-0.3-0.5-0.6-0.9-0.7c-0.4-0.1-0.6-0.5-0.6-1.1
					c0-0.7,0.3-1.3,0.7-1.8c0.5-0.6,0.8-1.2,1-1.9c-3.5,0.2-6.9,0.9-10.1,2.2c-3.2,1.2-6.2,2.7-9,4.5c-2.2,1.4-4.3,2.9-6.3,4.6
					c-1.7,1.5-2.5,2.6-2.5,3.3c0,0.7,1.1,1.3,3.4,1.7c10.1,2,16.8,3.7,19.9,5.2c3.2,1.5,5.4,3.1,6.6,5c1.1,1.5,1.7,3.2,1.8,5.1
					c-0.1,3.3-1.4,6.5-3.7,8.9c-2.6,2.9-5.7,5.2-9.2,6.8c-7.9,3.9-14.7,5.8-20.5,5.8s-9.9-0.9-12.1-2.7c-2.1-1.5-3.3-3.8-3.3-6.3
					c0-2.4,0.6-4.7,1.9-6.8c1.2-2.1,2.8-3.1,4.8-3.1C188.5,92.9,189.5,93.4,189.5,94.4z"/>
				<path class="st0" d="M244.6,94.4l-0.1,1.2c0,1.2,0.5,2.3,1.4,3.2c0.7,0.7,1.6,1.2,2.6,1.3c5.3,0.1,10.6-0.8,15.6-2.6
					c4.5-1.8,6.8-3.5,6.8-5.3c0-0.8-0.8-1.6-2.5-2.2c-2.7-0.9-5.5-1.7-8.3-2.3c-3.9-0.9-6.7-1.6-8.5-2.1c-1.4-0.4-2.8-0.9-4.2-1.4
					c-1.1-0.5-2.2-1.1-3.1-1.8c-2.3-1.6-3.6-4.4-3.4-7.2c0.1-3.5,1.3-6.8,3.6-9.5c2.4-3.2,5.5-6,8.9-8.1c3.7-2.3,7.5-4.3,11.5-5.9
					c8.1-3.4,14.9-5,20.4-5s8.8,1.2,10,3.5c0.4,0.9,0.6,1.8,0.6,2.8v0.5c0.1,2.2-0.5,4.3-1.6,6.1c-1.4,1.7-3.2,3.1-5.2,4
					c-1.7,1-3.7,1.6-5.6,1.8c-0.9,0.1-1.8,0-2.6-0.3c-0.4-0.2-0.7-0.4-0.9-0.8c-0.2-0.3-0.6-0.6-0.9-0.7c-0.4-0.1-0.5-0.5-0.5-1.1
					c0-0.7,0.3-1.3,0.7-1.8c0.5-0.6,0.8-1.2,1-1.9c-3.5,0.2-6.9,0.9-10.1,2.2c-3.2,1.2-6.2,2.7-9,4.5c-2.2,1.4-4.3,3-6.3,4.8
					c-1.7,1.5-2.5,2.6-2.5,3.3c0,0.7,1.1,1.3,3.4,1.7c10.1,2,16.7,3.7,19.9,5.2c3.2,1.5,5.4,3.1,6.6,5c1.1,1.5,1.8,3.2,1.9,5
					c-0.1,3.3-1.4,6.5-3.7,8.9c-2.6,2.9-5.7,5.2-9.3,6.8c-7.9,3.9-14.7,5.8-20.5,5.8c-5.8,0-9.9-0.9-12.1-2.7
					c-2.1-1.5-3.3-3.8-3.3-6.3c0-2.4,0.6-4.7,1.9-6.8c1.2-2.1,2.8-3.1,4.8-3.1C243.6,92.9,244.6,93.4,244.6,94.4z"/>
				<path class="st0" d="M347.6,53.4c3.7,0,5.6,1.3,5.6,3.8c0.1,1.1-0.3,2.2-1,3c-1.5,2-2.9,4.1-4.1,6.3c-2.1,3.6-4.3,8.2-6.8,13.8
					c-2.2,4.6-3.8,9.4-4.9,14.3c-0.2,0.7-0.2,1.3-0.2,2c0,2.7,0.7,4,2.2,4c1.9-0.2,3.7-0.9,5.2-2.1c1.9-1.3,3.7-2.8,5.3-4.5
					c1.6-1.6,3.1-3.2,4.6-4.9c1.5-1.7,2.4-2.6,2.7-2.9c0.4-0.3,0.9-0.4,1.3-0.4c0.9,0,1.5,0.7,1.7,2.1c0.2,1.5,0.3,2.9,0.3,4.4
					c0.1,1.1-0.1,2.1-0.4,3.1c-1.4,2.8-4.5,6.1-9.3,10s-9.2,5.8-13.1,5.9c-3.9,0-6.8-1.2-8.7-3.6c-1.8-2.3-2.8-5.1-2.8-8
					c-0.1-2.6,0.4-5.2,1.5-7.7c-3.9,5.2-8.6,9.7-14,13.4c-5.2,3.7-9.5,5.5-12.9,5.5c-3,0.1-5.9-1-8.1-3c-2.7-2.5-4-5.9-4-10.4
					c0-4.6,1.1-9.1,3-13.3c2-4.5,4.6-8.6,7.8-12.2c3.2-3.6,6.7-6.9,10.6-9.9c8.1-6.3,15.6-9.5,22.4-9.5c2.2-0.1,4.4,0.4,6.4,1.3
					c1.4,0.6,2.6,1.8,3.1,3.3c0.8-1.3,1.8-2.4,3-3.3C345.1,53.5,346.4,53.3,347.6,53.4z M337.9,61.5c-8.4,0-17,4.6-25.9,13.9
					c-3.4,3.6-6.3,7.6-8.8,11.9c-2.7,4.6-4,7.8-4,9.5c0,1.7,0.5,2.6,1.5,2.6c1.3,0,5.1-2.7,11.4-8.1c6.3-5.4,10.4-9.4,12.5-11.9
					C326.8,76.6,331.2,70.6,337.9,61.5z"/>
				<path class="st0" d="M375.6,60.4c4.3-3,9-5.6,13.9-7.5c3.7-1.6,7.7-2.5,11.8-2.6c3.3,0,5.5,1,6.4,2.9c1.8-2.1,4.3-3.4,7.1-3.5
					c0.8,0,1.9-0.1,3.1-0.1c0.8-0.1,1.6,0.1,2.3,0.5c0.4,0.5,0.7,1.1,0.8,1.8c0.1,0.5,0.3,1,0.4,1.5c0.1,0.2,0.1,0.3,0.1,0.5
					c0,0.3-0.2,0.6-0.4,0.8c-0.3,0.3-0.5,0.6-0.9,0.9l-0.5,0.5c-10.8,15.5-21.8,33.1-33.1,53c11.6-10.3,22-17.7,31.2-22.2
					c0.5-0.3,1.1-0.4,1.7-0.4c0.8,0,1.3,0.5,1.5,1.5c0.3,1.4,0.4,2.8,0.4,4.3c0.1,1.2,0,2.3-0.4,3.5c-0.2,0.4-1.4,1.3-3.4,2.6
					l-8,5.1c-3.3,2.1-6.7,4.4-10.4,7c-8,5.4-15.3,11.9-21.7,19.3c-7.3,8.8-12.6,16-15.8,21.4c-1.2,2.1-3.1,3.1-5.9,3.1
					c-5.5,0-8.3-2.6-8.3-7.8c0-5.2,2.6-10.7,7.8-16.3c3.4-3.6,7-7,10.8-10.2c3.3-2.7,5.1-4.2,5.3-4.5c3.6-5.4,8.5-13.1,14.7-23.1
					c-4.6,4.9-9.8,9.4-15.4,13.2c-5,3.3-8.6,4.9-11.1,4.9c-7.5,0-11.2-3.2-11.2-9.6c0.1-5.4,1.4-10.6,3.9-15.4
					c2.6-5.1,5.9-9.8,10-13.9C366.5,67.3,370.9,63.6,375.6,60.4z M403.5,58.5c-5.6,1.2-11,3.2-16,6c-4.5,2.4-8.6,5.5-12.3,9
					c-3.1,3-5.9,6.3-8.4,9.8c-4.4,6.3-6.6,11.2-6.6,14.7c0,0.8,0.2,1.2,0.6,1.2c1-0.2,2-0.7,2.8-1.2c2.1-1.4,4.2-2.9,6.1-4.5
					c2.6-2.1,5.6-4.6,8.8-7.6C387.5,77.4,395.9,68.2,403.5,58.5L403.5,58.5z"/>
				<path class="st0" d="M466,54.3c0,3.3-1.4,6.4-3.9,8.5c-2.4,2.3-5.6,3.7-8.9,3.7c-0.8,0.1-1.6-0.2-2.1-0.8
					c-0.4-0.6-0.5-1.3-0.5-2c0-0.8,0.1-1.6,0.3-2.4c-2,0.7-4,1.6-5.9,2.7c-2.8,1.6-5.4,3.4-8,5.4c-3.1,2.4-4.7,4.2-4.7,5.3
					c0,0.4,0.6,0.6,1.7,0.6c1.8-0.1,3.6-0.6,5.3-1.2c1.6-0.6,3.3-1,5-1.2c0.6,0,1.3,0,1.9,0.2c0.9,0.6,1.6,1.3,2,2.2
					c0.6,0.8,1,1.8,1.1,2.8c0,0.7-0.6,1.5-1.9,2.6c-1.3,1.1-2.7,1.9-4.3,2.4c-1.1,0.4-2.1,0.8-3.2,1.3c-10.3,5.8-15.5,9.7-15.5,11.9
					c0,3.8,3.2,5.7,9.7,5.7c4.5-0.1,8.8-1.5,12.5-4c3.3-2.1,6.6-4.4,9.6-6.8c2.9-2.3,4.7-3.7,5.4-4.3c0.5-0.4,1.1-0.7,1.7-0.8
					c1.3,0,1.9,1.4,1.9,4.2c0.1,1.9-0.1,3.8-0.5,5.6c-0.7,1.3-1.7,2.5-2.9,3.4c-10.4,8.5-20.3,12.7-29.7,12.7c-5,0-9-0.7-11.9-2.1
					c-5.5-2.5-8.2-6.3-8.2-11.4c0-6.7,4.7-11.8,14-15.3c-1.6-0.6-2.8-1.7-3.6-3.2c-0.6-2-0.9-4.1-0.8-6.2c0-2.9,1.3-5.9,4-9.1
					c2.7-3.2,6-5.9,9.8-7.9c8.6-4.7,16.3-7,23-7c1.7,0,3.4,0.4,4.9,1.2C465.1,51.8,466,52.8,466,54.3z"/>
			</g>
		</g>
	</g>
</g>
</svg>
