<svg xmlns="http://www.w3.org/2000/svg" viewBox="0 0 254.54 41.35"><defs><style>.cls-1{isolation:isolate;}.cls-2{fill:#fff;}.cls-3{fill:none;stroke:#b9b9b9;}</style></defs><g id="レイヤー_2" data-name="レイヤー 2"><g id="レイヤー_1-2" data-name="レイヤー 1"><g id="Work_Career" data-name="Work Career" class="cls-1"><g class="cls-1"><path class="cls-2" d="M45.13,3c-.18,0-.27-.13-.27-.37a.5.5,0,0,1,.21-.48l.71-.36c.33-.17.56-.29.69-.34s.34-.15.61-.29a4.86,4.86,0,0,1,.67-.26l.63-.2A5.85,5.85,0,0,1,49.9.5a3.43,3.43,0,0,1,1.88.63,1.94,1.94,0,0,1,1,1.66,13,13,0,0,1-1.86,5.63,51.79,51.79,0,0,1-4.76,7.29q-2.91,3.78-6.52,7.69t-7,7a52.46,52.46,0,0,1-6.49,5c-2,1.3-3.58,2-4.67,2q-3.46,0-3.47-3.15,0-4.42,5-12.77Q13.19,33,6.63,36.32A6.49,6.49,0,0,1,4,37.19a3.74,3.74,0,0,1-2.21-1.11A3,3,0,0,1,.5,33.9q0-6.07,8.45-17,3.23-4.17,8-9.32-4.2,3.63-6.4,3.63a1.82,1.82,0,0,1-1.73-1.14,3.05,3.05,0,0,1-.51-1.58,2.34,2.34,0,0,1,1-1.62A4.19,4.19,0,0,1,10.46,6a.51.51,0,0,1,.32.12.31.31,0,0,1,.14.22c-.22.24-.34.4-.34.48s.1.11.3.11a45.27,45.27,0,0,0,4.88-2.8,31.73,31.73,0,0,1,5-2.79A4.75,4.75,0,0,1,23.23,2q1.17.71,1.17,1.17a2.56,2.56,0,0,1-.49,1.26q-.48.78-5.81,7.65T10.36,22.49a52.07,52.07,0,0,0-3.54,5.78A10.42,10.42,0,0,0,5.7,31c0,.32,0,.49.15.49q1,0,7.33-6.19t12-12.24q5.71-6,6.21-6.7a3.05,3.05,0,0,1,1.09-.94,4.32,4.32,0,0,1,1.75-.28c2.19,0,3.28.42,3.28,1.25,0,.34-.48,1.06-1.43,2.17s-1.63,1.91-2,2.42a75.86,75.86,0,0,0-6.8,10.94Q23.56,29,23.55,31c0,.36.11.54.35.54A6.9,6.9,0,0,0,26,30.13c1.16-.92,2.7-2.3,4.6-4.13s4.07-4.1,6.5-6.8a79.7,79.7,0,0,0,6.94-9Q47.36,5.27,47.35,4c0-.84-.33-1.27-1-1.27Z"/><path class="cls-2" d="M59.85,18.15a2.33,2.33,0,0,1,1.5.66,2.52,2.52,0,0,1,.77,2,9.34,9.34,0,0,1-.95,3.51,23.6,23.6,0,0,1-2.61,4.4,38.17,38.17,0,0,1-3.65,4.19,19.3,19.3,0,0,1-4.3,3.23,8.86,8.86,0,0,1-4.19,1.25,4,4,0,0,1-3-1.18,4.56,4.56,0,0,1-1.14-3.3,12.64,12.64,0,0,1,1-4.67A16.92,16.92,0,0,1,46,23.73a26.23,26.23,0,0,1,3.54-3.53c2.66-2.13,5-3.2,7-3.2a2.79,2.79,0,0,1,2,.66.63.63,0,0,1,.25.39v.15A8.68,8.68,0,0,1,59.85,18.15ZM57.38,21.4h-.17c-.57,0-.85-.42-.85-1.25a13.47,13.47,0,0,0-3.74,2.05,18.49,18.49,0,0,0-3.49,3.47Q46,29.67,46,32.43c0,.92.33,1.37,1,1.37a6.34,6.34,0,0,0,3-1.32,17.74,17.74,0,0,0,3.92-3.76,29.65,29.65,0,0,0,2.9-4.23,6.93,6.93,0,0,0,1-2.44C57.73,21.61,57.61,21.4,57.38,21.4Z"/><path class="cls-2" d="M69.57,23.45q5.76-6.54,9.81-6.54A2.37,2.37,0,0,1,81,17.5a2,2,0,0,1,.65,1.55,7.58,7.58,0,0,1-1.36,3.19c-.9,1.49-1.74,2.75-2.5,3.77a1.75,1.75,0,0,1-1.38.78,1.42,1.42,0,0,1-1.2-.56,2.12,2.12,0,0,1-.42-1.32,6.21,6.21,0,0,1,1.8-3.8l-.05-.05c-.53.05-1.86,1.1-4,3.17s-3.93,3.92-5.42,5.55-3.1,3.63-4.84,6q-.76,1.05-1.29,1a4.17,4.17,0,0,1-1.39-.33,5.75,5.75,0,0,1-1-.47.6.6,0,0,1-.18-.49,2,2,0,0,1,.2-.79,10.82,10.82,0,0,1,.72-1.29c.35-.55.87-1.44,1.58-2.68s1.81-3.11,3.31-5.62,2.39-4,2.69-4.54a19.44,19.44,0,0,1,1.51-2.34,4.45,4.45,0,0,1,3.71-1.39c.39,0,.59.24.59.73q0,1.15-2.13,4.32Z"/></g><g class="cls-1"><path class="cls-3" d="M45.13,3c-.18,0-.27-.13-.27-.37a.5.5,0,0,1,.21-.48l.71-.36c.33-.17.56-.29.69-.34s.34-.15.61-.29a4.86,4.86,0,0,1,.67-.26l.63-.2A5.85,5.85,0,0,1,49.9.5a3.43,3.43,0,0,1,1.88.63,1.94,1.94,0,0,1,1,1.66,13,13,0,0,1-1.86,5.63,51.79,51.79,0,0,1-4.76,7.29q-2.91,3.78-6.52,7.69t-7,7a52.46,52.46,0,0,1-6.49,5c-2,1.3-3.58,2-4.67,2q-3.46,0-3.47-3.15,0-4.42,5-12.77Q13.19,33,6.63,36.32A6.49,6.49,0,0,1,4,37.19a3.74,3.74,0,0,1-2.21-1.11A3,3,0,0,1,.5,33.9q0-6.07,8.45-17,3.23-4.17,8-9.32-4.2,3.63-6.4,3.63a1.82,1.82,0,0,1-1.73-1.14,3.05,3.05,0,0,1-.51-1.58,2.34,2.34,0,0,1,1-1.62A4.19,4.19,0,0,1,10.46,6a.51.51,0,0,1,.32.12.31.31,0,0,1,.14.22c-.22.24-.34.4-.34.48s.1.11.3.11a45.27,45.27,0,0,0,4.88-2.8,31.73,31.73,0,0,1,5-2.79A4.75,4.75,0,0,1,23.23,2q1.17.71,1.17,1.17a2.56,2.56,0,0,1-.49,1.26q-.48.78-5.81,7.65T10.36,22.49a52.07,52.07,0,0,0-3.54,5.78A10.42,10.42,0,0,0,5.7,31c0,.32,0,.49.15.49q1,0,7.33-6.19t12-12.24q5.71-6,6.21-6.7a3.05,3.05,0,0,1,1.09-.94,4.32,4.32,0,0,1,1.75-.28c2.19,0,3.28.42,3.28,1.25,0,.34-.48,1.06-1.43,2.17s-1.63,1.91-2,2.42a75.86,75.86,0,0,0-6.8,10.94Q23.56,29,23.55,31c0,.36.11.54.35.54A6.9,6.9,0,0,0,26,30.13c1.16-.92,2.7-2.3,4.6-4.13s4.07-4.1,6.5-6.8a79.7,79.7,0,0,0,6.94-9Q47.36,5.27,47.35,4c0-.84-.33-1.27-1-1.27Z"/><path class="cls-3" d="M59.85,18.15a2.33,2.33,0,0,1,1.5.66,2.52,2.52,0,0,1,.77,2,9.34,9.34,0,0,1-.95,3.51,23.6,23.6,0,0,1-2.61,4.4,38.17,38.17,0,0,1-3.65,4.19,19.3,19.3,0,0,1-4.3,3.23,8.86,8.86,0,0,1-4.19,1.25,4,4,0,0,1-3-1.18,4.56,4.56,0,0,1-1.14-3.3,12.64,12.64,0,0,1,1-4.67A16.92,16.92,0,0,1,46,23.73a26.23,26.23,0,0,1,3.54-3.53c2.66-2.13,5-3.2,7-3.2a2.79,2.79,0,0,1,2,.66.63.63,0,0,1,.25.39v.15A8.68,8.68,0,0,1,59.85,18.15ZM57.38,21.4h-.17c-.57,0-.85-.42-.85-1.25a13.47,13.47,0,0,0-3.74,2.05,18.49,18.49,0,0,0-3.49,3.47Q46,29.67,46,32.43c0,.92.33,1.37,1,1.37a6.34,6.34,0,0,0,3-1.32,17.74,17.74,0,0,0,3.92-3.76,29.65,29.65,0,0,0,2.9-4.23,6.93,6.93,0,0,0,1-2.44C57.73,21.61,57.61,21.4,57.38,21.4Z"/><path class="cls-3" d="M69.57,23.45q5.76-6.54,9.81-6.54A2.37,2.37,0,0,1,81,17.5a2,2,0,0,1,.65,1.55,7.58,7.58,0,0,1-1.36,3.19c-.9,1.49-1.74,2.75-2.5,3.77a1.75,1.75,0,0,1-1.38.78,1.42,1.42,0,0,1-1.2-.56,2.12,2.12,0,0,1-.42-1.32,6.21,6.21,0,0,1,1.8-3.8l-.05-.05c-.53.05-1.86,1.1-4,3.17s-3.93,3.92-5.42,5.55-3.1,3.63-4.84,6q-.76,1.05-1.29,1a4.17,4.17,0,0,1-1.39-.33,5.75,5.75,0,0,1-1-.47.6.6,0,0,1-.18-.49,2,2,0,0,1,.2-.79,10.82,10.82,0,0,1,.72-1.29c.35-.55.87-1.44,1.58-2.68s1.81-3.11,3.31-5.62,2.39-4,2.69-4.54a19.44,19.44,0,0,1,1.51-2.34,4.45,4.45,0,0,1,3.71-1.39c.39,0,.59.24.59.73q0,1.15-2.13,4.32Z"/></g><g class="cls-1"><path class="cls-2" d="M79.43,37.34,77.87,37a1.55,1.55,0,0,1-1.17-.9,3.09,3.09,0,0,0-.16-.27.19.19,0,0,1,0-.12.76.76,0,0,1,0-.21c0-.09.08-.21.15-.37s.12-.31.17-.47q.51-1.74,8.57-16.31t8.43-15l.56-.66a1.74,1.74,0,0,1,.42-.35,2.52,2.52,0,0,1,.34-.2L95.63,2l.68-.23a4.78,4.78,0,0,0,.75-.33c.26-.14.44-.23.53-.29A.74.74,0,0,1,98,1a.62.62,0,0,1,.44.22.79.79,0,0,1,.21.56V2q-.12.46-6.36,11.58T85.46,25.7A26,26,0,0,0,91.08,22c2.47-2,3.72-3.3,3.74-4a1.67,1.67,0,0,1,.68-1.41,2.38,2.38,0,0,1,1.37-.44,1.78,1.78,0,0,1,1.27.5,2.1,2.1,0,0,1,.5,1.64,5.6,5.6,0,0,1-1.26,2.88,18.82,18.82,0,0,1-3,3.23,25.35,25.35,0,0,1-6.23,4.2q2,5.35,4.54,5.35a6.85,6.85,0,0,0,3.42-2.27c.5-.51,1-1,1.46-1.53s.77-.82.87-.91a.64.64,0,0,1,.45-.15c.31,0,.5.24.56.71a9.94,9.94,0,0,1,.1,1.46,2.74,2.74,0,0,1-.14,1.05,12.5,12.5,0,0,1-3.1,3.33,7.34,7.34,0,0,1-4.55,2A4.45,4.45,0,0,1,89.34,37c-.6-.39-1.07-.71-1.41-1A5.86,5.86,0,0,1,86.88,35c-.36-.45-.66-.82-.89-1.12a9.15,9.15,0,0,1-.81-1.22l-.65-1.11c-.13-.22-.32-.58-.57-1.07s-.4-.77-.43-.82c-.29.6-.62,1.25-1,2s-.69,1.36-1,2-.56,1.15-.81,1.64-.44.91-.59,1.24-.24.49-.26.51C79.8,37.21,79.64,37.34,79.43,37.34Z"/></g><g class="cls-1"><path class="cls-3" d="M79.43,37.34,77.87,37a1.55,1.55,0,0,1-1.17-.9,3.09,3.09,0,0,0-.16-.27.19.19,0,0,1,0-.12.76.76,0,0,1,0-.21c0-.09.08-.21.15-.37s.12-.31.17-.47q.51-1.74,8.57-16.31t8.43-15l.56-.66a1.74,1.74,0,0,1,.42-.35,2.52,2.52,0,0,1,.34-.2L95.63,2l.68-.23a4.78,4.78,0,0,0,.75-.33c.26-.14.44-.23.53-.29A.74.74,0,0,1,98,1a.62.62,0,0,1,.44.22.79.79,0,0,1,.21.56V2q-.12.46-6.36,11.58T85.46,25.7A26,26,0,0,0,91.08,22c2.47-2,3.72-3.3,3.74-4a1.67,1.67,0,0,1,.68-1.41,2.38,2.38,0,0,1,1.37-.44,1.78,1.78,0,0,1,1.27.5,2.1,2.1,0,0,1,.5,1.64,5.6,5.6,0,0,1-1.26,2.88,18.82,18.82,0,0,1-3,3.23,25.35,25.35,0,0,1-6.23,4.2q2,5.35,4.54,5.35a6.85,6.85,0,0,0,3.42-2.27c.5-.51,1-1,1.46-1.53s.77-.82.87-.91a.64.64,0,0,1,.45-.15c.31,0,.5.24.56.71a9.94,9.94,0,0,1,.1,1.46,2.74,2.74,0,0,1-.14,1.05,12.5,12.5,0,0,1-3.1,3.33,7.34,7.34,0,0,1-4.55,2A4.45,4.45,0,0,1,89.34,37c-.6-.39-1.07-.71-1.41-1A5.86,5.86,0,0,1,86.88,35c-.36-.45-.66-.82-.89-1.12a9.15,9.15,0,0,1-.81-1.22l-.65-1.11c-.13-.22-.32-.58-.57-1.07s-.4-.77-.43-.82c-.29.6-.62,1.25-1,2s-.69,1.36-1,2-.56,1.15-.81,1.64-.44.91-.59,1.24-.24.49-.26.51C79.8,37.21,79.64,37.34,79.43,37.34Z"/></g><g class="cls-1"><path class="cls-2" d="M129.31,40.85a4.42,4.42,0,0,1-3.25-1.05c-2.5-2.53-3.75-4-3.75-4.39a16.17,16.17,0,0,1-6.73,1.34,11.77,11.77,0,0,1-6.17-1.45,4.83,4.83,0,0,1-2.4-4.45q0-5,6.95-8.75a14.76,14.76,0,0,1-2-6.64,6.46,6.46,0,0,1,2.15-4.88,7,7,0,0,1,4.9-2,6.45,6.45,0,0,1,4.35,1.38A4.59,4.59,0,0,1,125,13.6q0,4.71-6.1,8.4A65.81,65.81,0,0,0,124,30.5a7.93,7.93,0,0,0,2.73-1.87,4.06,4.06,0,0,0,.87-2.72c0-.37.3-.56.9-.56a3.55,3.55,0,0,1,1.8.53,1.51,1.51,0,0,1,.9,1.28q0,3.39-5.25,6.25,2.1,2,3.25,2.94a13.25,13.25,0,0,0,1.53.81,18.17,18.17,0,0,1,1.8.94c.48.31.72.62.72.95s-.38.72-1.15,1.16A5.65,5.65,0,0,1,129.31,40.85ZM115.56,33.3a13.88,13.88,0,0,0,4.7-.84,47.66,47.66,0,0,1-5.2-8.25q-3.65,2.74-3.65,6a2.54,2.54,0,0,0,1.15,2.3A5.42,5.42,0,0,0,115.56,33.3Zm1.1-18a9.22,9.22,0,0,0,1.4,4.5l.6-.52a8.61,8.61,0,0,0,.65-.6c.07-.08.26-.28.58-.6a6.26,6.26,0,0,0,.62-.7l.7-1a4.1,4.1,0,0,0,.55-2.35c0-1.23-.77-1.84-2.3-1.84C117.59,12.16,116.66,13.21,116.66,15.3Z"/></g><g class="cls-1"><path class="cls-3" d="M129.31,40.85a4.42,4.42,0,0,1-3.25-1.05c-2.5-2.53-3.75-4-3.75-4.39a16.17,16.17,0,0,1-6.73,1.34,11.77,11.77,0,0,1-6.17-1.45,4.83,4.83,0,0,1-2.4-4.45q0-5,6.95-8.75a14.76,14.76,0,0,1-2-6.64,6.46,6.46,0,0,1,2.15-4.88,7,7,0,0,1,4.9-2,6.45,6.45,0,0,1,4.35,1.38A4.59,4.59,0,0,1,125,13.6q0,4.71-6.1,8.4A65.81,65.81,0,0,0,124,30.5a7.93,7.93,0,0,0,2.73-1.87,4.06,4.06,0,0,0,.87-2.72c0-.37.3-.56.9-.56a3.55,3.55,0,0,1,1.8.53,1.51,1.51,0,0,1,.9,1.28q0,3.39-5.25,6.25,2.1,2,3.25,2.94a13.25,13.25,0,0,0,1.53.81,18.17,18.17,0,0,1,1.8.94c.48.31.72.62.72.95s-.38.72-1.15,1.16A5.65,5.65,0,0,1,129.31,40.85ZM115.56,33.3a13.88,13.88,0,0,0,4.7-.84,47.66,47.66,0,0,1-5.2-8.25q-3.65,2.74-3.65,6a2.54,2.54,0,0,0,1.15,2.3A5.42,5.42,0,0,0,115.56,33.3Zm1.1-18a9.22,9.22,0,0,0,1.4,4.5l.6-.52a8.61,8.61,0,0,0,.65-.6c.07-.08.26-.28.58-.6a6.26,6.26,0,0,0,.62-.7l.7-1a4.1,4.1,0,0,0,.55-2.35c0-1.23-.77-1.84-2.3-1.84C117.59,12.16,116.66,13.21,116.66,15.3Z"/></g><g class="cls-1"><path class="cls-2" d="M162.73,22.52c.39,0,.59.31.59.94a21,21,0,0,1-.42,3.24c-.21,1-1.38,2.49-3.51,4.39A23.26,23.26,0,0,1,150.92,36a17.92,17.92,0,0,1-5.44.88,6.64,6.64,0,0,1-4.83-2.23,7.32,7.32,0,0,1-2.19-5.3A17.88,17.88,0,0,1,139.7,23,28.2,28.2,0,0,1,143,16.7,39.52,39.52,0,0,1,148,11a40.88,40.88,0,0,1,5.92-4.79,30.06,30.06,0,0,1,6.44-3.22,19.08,19.08,0,0,1,6.4-1.19,5.45,5.45,0,0,1,4.08,1.73,3.27,3.27,0,0,1,.88,2.33,7.08,7.08,0,0,1-1.37,3.54,20.68,20.68,0,0,1-3.23,3.89,23.66,23.66,0,0,1-3.86,3A6.66,6.66,0,0,1,160,17.44,3,3,0,0,1,158,16.7a2,2,0,0,1-.85-1.33,3.91,3.91,0,0,1,.25-1.3c.17-.47.39-.7.65-.7a.36.36,0,0,0-.1.24c0,.2.28.29.84.29a6,6,0,0,0,2.82-1.49,22.68,22.68,0,0,0,3.58-3.34c1.07-1.24,1.6-2.16,1.6-2.78,0-.43-.29-.64-.85-.64-1.53,0-3.65.71-6.34,2.14a37.56,37.56,0,0,0-7.73,5.5,34.37,34.37,0,0,0-6.41,8,16.81,16.81,0,0,0-2.72,8.31,3.58,3.58,0,0,0,.82,2.47A3.17,3.17,0,0,0,146,33a10.72,10.72,0,0,0,4-1,25.38,25.38,0,0,0,4.41-2.39q2.09-1.43,3.94-2.91a34.46,34.46,0,0,0,3-2.61c.74-.75,1.12-1.2,1.13-1.36S162.6,22.52,162.73,22.52Z"/><path class="cls-2" d="M183,18.2c1.24,0,1.86.42,1.86,1.27a1.36,1.36,0,0,1-.32,1,14.78,14.78,0,0,0-1.36,2.11q-1,1.8-2.29,4.59A22.14,22.14,0,0,0,179.28,32a2.89,2.89,0,0,0-.07.68c0,.89.25,1.34.73,1.34a3.24,3.24,0,0,0,1.74-.69,13.24,13.24,0,0,0,1.78-1.49c.52-.53,1-1.07,1.53-1.63s.79-.87.89-.95a.66.66,0,0,1,.44-.12c.3,0,.49.24.56.71a11.56,11.56,0,0,1,.09,1.46,2.55,2.55,0,0,1-.14,1.05,12,12,0,0,1-3.11,3.35,7.26,7.26,0,0,1-4.38,2,3.42,3.42,0,0,1-2.89-1.2,4.2,4.2,0,0,1-.93-2.65,6.37,6.37,0,0,1,.49-2.55,20.93,20.93,0,0,1-4.65,4.47,8.26,8.26,0,0,1-4.28,1.83,3.75,3.75,0,0,1-2.71-1A4.46,4.46,0,0,1,163,33.06a10.9,10.9,0,0,1,1-4.45,15.93,15.93,0,0,1,2.6-4.07,26.77,26.77,0,0,1,3.54-3.36q4-3.18,7.47-3.18a4.61,4.61,0,0,1,2.15.44,2,2,0,0,1,1,1.1,3.77,3.77,0,0,1,1-1.11A2.54,2.54,0,0,1,183,18.2Zm-3.25,2.71q-4.17,0-8.64,4.64a20.49,20.49,0,0,0-2.92,4,8.53,8.53,0,0,0-1.33,3.17c0,.57.16.86.49.86s1.72-.9,3.81-2.7a37.29,37.29,0,0,0,4.15-4C176.08,26,177.56,24,179.77,20.91Z"/><path class="cls-2" d="M192.74,23.45q5.76-6.54,9.81-6.54a2.37,2.37,0,0,1,1.65.59,2,2,0,0,1,.65,1.55,7.72,7.72,0,0,1-1.36,3.19c-.9,1.49-1.74,2.75-2.5,3.77a1.75,1.75,0,0,1-1.38.78,1.42,1.42,0,0,1-1.2-.56,2.12,2.12,0,0,1-.42-1.32,6.21,6.21,0,0,1,1.8-3.8l0-.05c-.53.05-1.86,1.1-4,3.17s-3.93,3.92-5.42,5.55-3.1,3.63-4.84,6q-.77,1.05-1.29,1a4.17,4.17,0,0,1-1.39-.33,5.12,5.12,0,0,1-1.05-.47.6.6,0,0,1-.18-.49,2,2,0,0,1,.19-.79,13,13,0,0,1,.73-1.29c.34-.55.87-1.44,1.58-2.68s1.81-3.11,3.31-5.62,2.39-4,2.69-4.54a19.44,19.44,0,0,1,1.51-2.34,4.45,4.45,0,0,1,3.71-1.39c.39,0,.59.24.59.73q0,1.15-2.13,4.32Z"/><path class="cls-2" d="M219,18.49a3.79,3.79,0,0,1-1.31,2.84,4.24,4.24,0,0,1-3,1.22.79.79,0,0,1-.7-.26,1.13,1.13,0,0,1-.18-.67,3.59,3.59,0,0,1,.1-.81,11.37,11.37,0,0,0-1.95.91,23.69,23.69,0,0,0-2.64,1.8c-1,.8-1.56,1.39-1.56,1.78,0,.14.19.2.57.2a6.08,6.08,0,0,0,1.77-.4,6.39,6.39,0,0,1,1.68-.41,2.6,2.6,0,0,1,.62,0,2.22,2.22,0,0,1,.68.75,1.82,1.82,0,0,1,.37.9c0,.22-.21.51-.64.87a4.46,4.46,0,0,1-1.44.82,9.45,9.45,0,0,0-1.07.42c-3.44,1.92-5.15,3.24-5.15,4,0,1.27,1.08,1.9,3.24,1.9A7.8,7.8,0,0,0,212.61,33a31.61,31.61,0,0,0,3.21-2.28c1-.77,1.55-1.25,1.81-1.43a1.16,1.16,0,0,1,.57-.27c.42,0,.63.48.63,1.42a6.25,6.25,0,0,1-.17,1.87,3.16,3.16,0,0,1-1,1.11q-5.24,4.24-9.89,4.25a9.58,9.58,0,0,1-4-.69,4,4,0,0,1-2.73-3.81q0-3.36,4.66-5.1a2.13,2.13,0,0,1-1.2-1.06,5.78,5.78,0,0,1-.27-2.07,4.87,4.87,0,0,1,1.33-3,10.92,10.92,0,0,1,3.26-2.63A16.62,16.62,0,0,1,216.54,17a3.86,3.86,0,0,1,1.64.39A1.23,1.23,0,0,1,219,18.49Z"/><path class="cls-2" d="M234.88,18.49a3.79,3.79,0,0,1-1.31,2.84,4.24,4.24,0,0,1-3,1.22.81.81,0,0,1-.71-.26,1.21,1.21,0,0,1-.17-.67,3.59,3.59,0,0,1,.1-.81,11.37,11.37,0,0,0-1.95.91,23.69,23.69,0,0,0-2.64,1.8c-1,.8-1.56,1.39-1.56,1.78,0,.14.19.2.57.2a6.22,6.22,0,0,0,1.77-.4,6.43,6.43,0,0,1,1.67-.41,2.64,2.64,0,0,1,.63,0,2.22,2.22,0,0,1,.68.75,1.82,1.82,0,0,1,.37.9c0,.22-.21.51-.64.87a4.46,4.46,0,0,1-1.44.82,9.45,9.45,0,0,0-1.07.42c-3.44,1.92-5.15,3.24-5.15,4,0,1.27,1.08,1.9,3.24,1.9A7.8,7.8,0,0,0,228.48,33a31.61,31.61,0,0,0,3.21-2.28c.95-.77,1.55-1.25,1.81-1.43a1.16,1.16,0,0,1,.57-.27c.42,0,.63.48.63,1.42a6.25,6.25,0,0,1-.17,1.87,3.16,3.16,0,0,1-1,1.11q-5.24,4.24-9.89,4.25a9.58,9.58,0,0,1-4-.69A4,4,0,0,1,217,33.21q0-3.36,4.66-5.1a2.13,2.13,0,0,1-1.2-1.06,5.78,5.78,0,0,1-.27-2.07,4.87,4.87,0,0,1,1.33-3,10.92,10.92,0,0,1,3.26-2.63A16.62,16.62,0,0,1,232.41,17a3.78,3.78,0,0,1,1.63.39A1.22,1.22,0,0,1,234.88,18.49Z"/><path class="cls-2" d="M241.93,23.45q5.76-6.54,9.82-6.54a2.36,2.36,0,0,1,1.64.59,2,2,0,0,1,.65,1.55,7.58,7.58,0,0,1-1.36,3.19,44.81,44.81,0,0,1-2.5,3.77,1.73,1.73,0,0,1-1.38.78,1.39,1.39,0,0,1-1.19-.56,2.07,2.07,0,0,1-.43-1.32,6.17,6.17,0,0,1,1.81-3.8l-.05-.05c-.54.05-1.87,1.1-4,3.17s-3.94,3.92-5.42,5.55-3.11,3.63-4.85,6c-.51.7-.93,1-1.28,1a4.12,4.12,0,0,1-1.39-.33,5.12,5.12,0,0,1-1-.47.57.57,0,0,1-.19-.49,2,2,0,0,1,.2-.79,10.82,10.82,0,0,1,.72-1.29c.35-.55.88-1.44,1.59-2.68s1.81-3.11,3.3-5.62,2.4-4,2.69-4.54a20.77,20.77,0,0,1,1.51-2.34,4.46,4.46,0,0,1,3.71-1.39c.39,0,.59.24.59.73q0,1.15-2.12,4.32Z"/></g><g class="cls-1"><path class="cls-3" d="M162.73,22.52c.39,0,.59.31.59.94a21,21,0,0,1-.42,3.24c-.21,1-1.38,2.49-3.51,4.39A23.26,23.26,0,0,1,150.92,36a17.92,17.92,0,0,1-5.44.88,6.64,6.64,0,0,1-4.83-2.23,7.32,7.32,0,0,1-2.19-5.3A17.88,17.88,0,0,1,139.7,23,28.2,28.2,0,0,1,143,16.7,39.52,39.52,0,0,1,148,11a40.88,40.88,0,0,1,5.92-4.79,30.06,30.06,0,0,1,6.44-3.22,19.08,19.08,0,0,1,6.4-1.19,5.45,5.45,0,0,1,4.08,1.73,3.27,3.27,0,0,1,.88,2.33,7.08,7.08,0,0,1-1.37,3.54,20.68,20.68,0,0,1-3.23,3.89,23.66,23.66,0,0,1-3.86,3A6.66,6.66,0,0,1,160,17.44,3,3,0,0,1,158,16.7a2,2,0,0,1-.85-1.33,3.91,3.91,0,0,1,.25-1.3c.17-.47.39-.7.65-.7a.36.36,0,0,0-.1.24c0,.2.28.29.84.29a6,6,0,0,0,2.82-1.49,22.68,22.68,0,0,0,3.58-3.34c1.07-1.24,1.6-2.16,1.6-2.78,0-.43-.29-.64-.85-.64-1.53,0-3.65.71-6.34,2.14a37.56,37.56,0,0,0-7.73,5.5,34.37,34.37,0,0,0-6.41,8,16.81,16.81,0,0,0-2.72,8.31,3.58,3.58,0,0,0,.82,2.47A3.17,3.17,0,0,0,146,33a10.72,10.72,0,0,0,4-1,25.38,25.38,0,0,0,4.41-2.39q2.09-1.43,3.94-2.91a34.46,34.46,0,0,0,3-2.61c.74-.75,1.12-1.2,1.13-1.36S162.6,22.52,162.73,22.52Z"/><path class="cls-3" d="M183,18.2c1.24,0,1.86.42,1.86,1.27a1.36,1.36,0,0,1-.32,1,14.78,14.78,0,0,0-1.36,2.11q-1,1.8-2.29,4.59A22.14,22.14,0,0,0,179.28,32a2.89,2.89,0,0,0-.07.68c0,.89.25,1.34.73,1.34a3.24,3.24,0,0,0,1.74-.69,13.24,13.24,0,0,0,1.78-1.49c.52-.53,1-1.07,1.53-1.63s.79-.87.89-.95a.66.66,0,0,1,.44-.12c.3,0,.49.24.56.71a11.56,11.56,0,0,1,.09,1.46,2.55,2.55,0,0,1-.14,1.05,12,12,0,0,1-3.11,3.35,7.26,7.26,0,0,1-4.38,2,3.42,3.42,0,0,1-2.89-1.2,4.2,4.2,0,0,1-.93-2.65,6.37,6.37,0,0,1,.49-2.55,20.93,20.93,0,0,1-4.65,4.47,8.26,8.26,0,0,1-4.28,1.83,3.75,3.75,0,0,1-2.71-1A4.46,4.46,0,0,1,163,33.06a10.9,10.9,0,0,1,1-4.45,15.93,15.93,0,0,1,2.6-4.07,26.77,26.77,0,0,1,3.54-3.36q4-3.18,7.47-3.18a4.61,4.61,0,0,1,2.15.44,2,2,0,0,1,1,1.1,3.77,3.77,0,0,1,1-1.11A2.54,2.54,0,0,1,183,18.2Zm-3.25,2.71q-4.17,0-8.64,4.64a20.49,20.49,0,0,0-2.92,4,8.53,8.53,0,0,0-1.33,3.17c0,.57.16.86.49.86s1.72-.9,3.81-2.7a37.29,37.29,0,0,0,4.15-4C176.08,26,177.56,24,179.77,20.91Z"/><path class="cls-3" d="M192.74,23.45q5.76-6.54,9.81-6.54a2.37,2.37,0,0,1,1.65.59,2,2,0,0,1,.65,1.55,7.72,7.72,0,0,1-1.36,3.19c-.9,1.49-1.74,2.75-2.5,3.77a1.75,1.75,0,0,1-1.38.78,1.42,1.42,0,0,1-1.2-.56,2.12,2.12,0,0,1-.42-1.32,6.21,6.21,0,0,1,1.8-3.8l0-.05c-.53.05-1.86,1.1-4,3.17s-3.93,3.92-5.42,5.55-3.1,3.63-4.84,6q-.77,1.05-1.29,1a4.17,4.17,0,0,1-1.39-.33,5.12,5.12,0,0,1-1.05-.47.6.6,0,0,1-.18-.49,2,2,0,0,1,.19-.79,13,13,0,0,1,.73-1.29c.34-.55.87-1.44,1.58-2.68s1.81-3.11,3.31-5.62,2.39-4,2.69-4.54a19.44,19.44,0,0,1,1.51-2.34,4.45,4.45,0,0,1,3.71-1.39c.39,0,.59.24.59.73q0,1.15-2.13,4.32Z"/><path class="cls-3" d="M219,18.49a3.79,3.79,0,0,1-1.31,2.84,4.24,4.24,0,0,1-3,1.22.79.79,0,0,1-.7-.26,1.13,1.13,0,0,1-.18-.67,3.59,3.59,0,0,1,.1-.81,11.37,11.37,0,0,0-1.95.91,23.69,23.69,0,0,0-2.64,1.8c-1,.8-1.56,1.39-1.56,1.78,0,.14.19.2.57.2a6.08,6.08,0,0,0,1.77-.4,6.39,6.39,0,0,1,1.68-.41,2.6,2.6,0,0,1,.62,0,2.22,2.22,0,0,1,.68.75,1.82,1.82,0,0,1,.37.9c0,.22-.21.51-.64.87a4.46,4.46,0,0,1-1.44.82,9.45,9.45,0,0,0-1.07.42c-3.44,1.92-5.15,3.24-5.15,4,0,1.27,1.08,1.9,3.24,1.9A7.8,7.8,0,0,0,212.61,33a31.61,31.61,0,0,0,3.21-2.28c1-.77,1.55-1.25,1.81-1.43a1.16,1.16,0,0,1,.57-.27c.42,0,.63.48.63,1.42a6.25,6.25,0,0,1-.17,1.87,3.16,3.16,0,0,1-1,1.11q-5.24,4.24-9.89,4.25a9.58,9.58,0,0,1-4-.69,4,4,0,0,1-2.73-3.81q0-3.36,4.66-5.1a2.13,2.13,0,0,1-1.2-1.06,5.78,5.78,0,0,1-.27-2.07,4.87,4.87,0,0,1,1.33-3,10.92,10.92,0,0,1,3.26-2.63A16.62,16.62,0,0,1,216.54,17a3.86,3.86,0,0,1,1.64.39A1.23,1.23,0,0,1,219,18.49Z"/><path class="cls-3" d="M234.88,18.49a3.79,3.79,0,0,1-1.31,2.84,4.24,4.24,0,0,1-3,1.22.81.81,0,0,1-.71-.26,1.21,1.21,0,0,1-.17-.67,3.59,3.59,0,0,1,.1-.81,11.37,11.37,0,0,0-1.95.91,23.69,23.69,0,0,0-2.64,1.8c-1,.8-1.56,1.39-1.56,1.78,0,.14.19.2.57.2a6.22,6.22,0,0,0,1.77-.4,6.43,6.43,0,0,1,1.67-.41,2.64,2.64,0,0,1,.63,0,2.22,2.22,0,0,1,.68.75,1.82,1.82,0,0,1,.37.9c0,.22-.21.51-.64.87a4.46,4.46,0,0,1-1.44.82,9.45,9.45,0,0,0-1.07.42c-3.44,1.92-5.15,3.24-5.15,4,0,1.27,1.08,1.9,3.24,1.9A7.8,7.8,0,0,0,228.48,33a31.61,31.61,0,0,0,3.21-2.28c.95-.77,1.55-1.25,1.81-1.43a1.16,1.16,0,0,1,.57-.27c.42,0,.63.48.63,1.42a6.25,6.25,0,0,1-.17,1.87,3.16,3.16,0,0,1-1,1.11q-5.24,4.24-9.89,4.25a9.58,9.58,0,0,1-4-.69A4,4,0,0,1,217,33.21q0-3.36,4.66-5.1a2.13,2.13,0,0,1-1.2-1.06,5.78,5.78,0,0,1-.27-2.07,4.87,4.87,0,0,1,1.33-3,10.92,10.92,0,0,1,3.26-2.63A16.62,16.62,0,0,1,232.41,17a3.78,3.78,0,0,1,1.63.39A1.22,1.22,0,0,1,234.88,18.49Z"/><path class="cls-3" d="M241.93,23.45q5.76-6.54,9.82-6.54a2.36,2.36,0,0,1,1.64.59,2,2,0,0,1,.65,1.55,7.58,7.58,0,0,1-1.36,3.19,44.81,44.81,0,0,1-2.5,3.77,1.73,1.73,0,0,1-1.38.78,1.39,1.39,0,0,1-1.19-.56,2.07,2.07,0,0,1-.43-1.32,6.17,6.17,0,0,1,1.81-3.8l-.05-.05c-.54.05-1.87,1.1-4,3.17s-3.94,3.92-5.42,5.55-3.11,3.63-4.85,6c-.51.7-.93,1-1.28,1a4.12,4.12,0,0,1-1.39-.33,5.12,5.12,0,0,1-1-.47.57.57,0,0,1-.19-.49,2,2,0,0,1,.2-.79,10.82,10.82,0,0,1,.72-1.29c.35-.55.88-1.44,1.59-2.68s1.81-3.11,3.3-5.62,2.4-4,2.69-4.54a20.77,20.77,0,0,1,1.51-2.34,4.46,4.46,0,0,1,3.71-1.39c.39,0,.59.24.59.73q0,1.15-2.12,4.32Z"/></g></g></g></g></svg>