<svg xmlns="http://www.w3.org/2000/svg" viewBox="0 0 498.97 102.34"><defs><style>.cls-1{isolation:isolate;}.cls-2{fill:#5b8dcd;}</style></defs><g id="レイヤー_2" data-name="レイヤー 2"><g id="レイヤー_1-2" data-name="レイヤー 1"><g id="TOP_Message" data-name="TOP Message" class="cls-1"><g class="cls-1"><path class="cls-2" d="M9.91,56.84l-.24,1a.71.71,0,0,0,.27.54.94.94,0,0,0,.66.24.72.72,0,0,0,.63-.39q7.27-9.66,12.06-17t7-10.82l3.54-5.52a114.67,114.67,0,0,1,7-9.62Q27.64,18.61,20.17,18.6c-5,0-8.57-.31-10.75-1S5.81,16.3,5.13,15.5a3.7,3.7,0,0,1-1-2.44c0-.83,0-1.63.1-2.42a5.08,5.08,0,0,1,3-4,9.9,9.9,0,0,1,4.57-1.56c1.2,0,1.81.18,1.81.54a2.59,2.59,0,0,1-.81,1.44c-.54.6-.81,1-.81,1.24q0,1.56,11.28,1.56a131.6,131.6,0,0,0,25.93-3Q57.52.06,63.62.05c2.7,0,4.5.76,5.37,2.29a5,5,0,0,1,.88,2.74,3.77,3.77,0,0,1-1.58,2.73A13.74,13.74,0,0,1,64,10.16a62,62,0,0,1-11.52,2.78Q49.7,16.51,44.6,24t-7,10.16q-1.86,2.64-6,9.37T24.51,55.2q-3,4.9-6.44,9.69-7,9.87-12.45,9.87a6.52,6.52,0,0,1-4-1.22,4.61,4.61,0,0,1-1.66-4q0-2.76,3.05-6.89a35.28,35.28,0,0,1,4.47-5.3,4.49,4.49,0,0,1,1.9-1.17C9.75,56.2,9.91,56.41,9.91,56.84Z"/><path class="cls-2" d="M112.74,7a7.51,7.51,0,0,1,5,2.15,6.33,6.33,0,0,1,2.42,4.79,24.28,24.28,0,0,1-1.32,6.86,61.49,61.49,0,0,1-3.69,9,92.23,92.23,0,0,1-5.76,9.86A117.83,117.83,0,0,1,102,49.54a90.4,90.4,0,0,1-8.74,9.13,80.12,80.12,0,0,1-9.65,7.54q-10.64,7-20.8,7a10.92,10.92,0,0,1-6.25-1.85,20.69,20.69,0,0,1-4.25-3.67C50,65,48.88,61.12,48.88,56.23S50.5,45.57,53.74,39A74.61,74.61,0,0,1,67,20.24,75.48,75.48,0,0,1,85.89,5.79Q96.33.15,105.76.15a7.69,7.69,0,0,1,3.52.83c1.1.55,1.66,1.19,1.66,1.93a2.88,2.88,0,0,1-.54,1.8,15.48,15.48,0,0,0-1,1.52,6.31,6.31,0,0,1-.84,1.14A18.49,18.49,0,0,1,112.74,7ZM94.53,29.54c0,.65-.23,1-.68,1s-1.4-.79-2.83-2.37-2.15-2.91-2.15-4c0-2.51,1.68-5.35,5-8.55a35.65,35.65,0,0,1,11.26-7.27q-6.84.39-15.87,5.81A67.11,67.11,0,0,0,73.49,27.22a74.69,74.69,0,0,0-11,15.94q-4.17,8.31-4.17,13.48a10,10,0,0,0,1.42,5.44q1.41,2.28,4.81,2.28A19.37,19.37,0,0,0,72.75,62a46.06,46.06,0,0,0,9.33-6.15,103.06,103.06,0,0,0,24.41-29.4q3.57-6.63,3.57-9.17c0-.69-.23-1-.68-1q-2,0-5.67,2.56a39.6,39.6,0,0,0-6.49,5.64c-1.89,2.05-2.84,3.54-2.84,4.45Z"/><path class="cls-2" d="M134.47,20a3.28,3.28,0,0,0-1.61,2.61c0,1,.72,1.44,2.15,1.44a7.44,7.44,0,0,0,2.39-.53h0c.16,0,.25.33.25,1a2.05,2.05,0,0,1-.2,1.19q-5,3.57-8.5,3.57c-2.31,0-4-.65-5-2a7.92,7.92,0,0,1-1.56-5.1q0-3.15,3.47-6.69A35.71,35.71,0,0,1,135.21,9a62.13,62.13,0,0,1,14.52-5,89,89,0,0,1,19.48-1.95q10.81,0,18.09,4.22t7.28,9.62a19.52,19.52,0,0,1-3.78,11,39.08,39.08,0,0,1-9.48,9.69,54.25,54.25,0,0,1-12.62,6.76A35.38,35.38,0,0,1,156.3,46a9.74,9.74,0,0,1-8.5-4.4q-7.43,11.67-10.06,16c-1.75,2.84-3.24,5.24-4.46,7.17s-2.17,3.46-2.84,4.57-1,1.68-1.05,1.71a3,3,0,0,1-2.19,1.12l-2.4.44-1.17-.1h-.83q-2.88,0-2.88-1.8,0-2.3,9.62-17.29t18.14-27.2q8.52-12.2,9.94-13.72a5.65,5.65,0,0,1,2.51-1.78,16.41,16.41,0,0,1,3.54-.27h2.44c.43,0,.64.34.64,1a2.71,2.71,0,0,1-.25,1.39q-4.29,6-15.52,23.73a1.77,1.77,0,0,0,1.29,1,9.14,9.14,0,0,0,1.93.2h1.42a25.41,25.41,0,0,0,9.71-2.18,40.31,40.31,0,0,0,9.18-5.2A38.26,38.26,0,0,0,181.13,24q2.66-3.3,2.66-5.64a6.6,6.6,0,0,0-1.47-4.2,9.93,9.93,0,0,0-4-2.93,31.07,31.07,0,0,0-12.08-2.1q-7.11,0-17.14,3.69T134.47,20Z"/><path class="cls-2" d="M275,54.35l.39,1.85A4.93,4.93,0,0,1,274.17,59a56.6,56.6,0,0,1-10.33,9.65q-7.09,5.45-10.47,5.44a7,7,0,0,1-5.27-2,6.31,6.31,0,0,1-1.91-4.51q0-3,6.35-13.38,9.53-15.37,24.32-35.94-3.14,3.22-16.61,17.38Q230.42,66.9,225.39,71a3.69,3.69,0,0,1-2.42.69,5.68,5.68,0,0,1-3.34-1.3,3.64,3.64,0,0,1-1.76-2.9v-.24q.19-2.06,9.42-20.07t15.48-28.67q-9.22,10.17-18.65,22.66Q206.2,64.94,197.9,81.64c-.49,1-1.09,1.56-1.81,1.56a13.88,13.88,0,0,1-3.12-.53c-2.87-.79-4.3-2.15-4.3-4.11q0-1.75,7.18-12.57T212.5,42.36Q222,29.54,232.13,17.68q14-16.41,18-16.41a2.56,2.56,0,0,1,1.22.32,2.36,2.36,0,0,0,.73.31.4.4,0,0,0,.29-.14A3.17,3.17,0,0,1,254.91,1a9.52,9.52,0,0,1,3.66.73c1.19.49,1.78,1,1.78,1.66q0,.58-4.88,9.33-16.36,29-22,39.84Q238.87,46,248.85,35.3t21-21.43Q284.13,0,286.91,0a10.6,10.6,0,0,1,2.84.49,21,21,0,0,0,5.81.88A2.54,2.54,0,0,1,296.9,2a1.46,1.46,0,0,1,.56,1.05,1.35,1.35,0,0,1-.29.88Q281.3,25,270.41,41.16T257,62.94q5.13-1.08,15.29-12.26a8.18,8.18,0,0,1,.63-.78,4,4,0,0,0,.34-.39c.55-.65,1-.24,1.27,1.22.13.85.22,1.44.27,1.78s.1.7.15,1.08A6.6,6.6,0,0,1,275,54.35Z"/><path class="cls-2" d="M311.13,35.84a7.52,7.52,0,0,1-2.61,5.66A8.45,8.45,0,0,1,302.59,44a1.61,1.61,0,0,1-1.42-.52,2.36,2.36,0,0,1-.34-1.34,6.18,6.18,0,0,1,.2-1.61,21.64,21.64,0,0,0-3.91,1.81,47.24,47.24,0,0,0-5.27,3.61q-3.14,2.39-3.13,3.56c0,.26.38.39,1.15.39a12.8,12.8,0,0,0,3.54-.8,12.54,12.54,0,0,1,3.34-.81,5.17,5.17,0,0,1,1.25.1,4.29,4.29,0,0,1,1.37,1.49,3.84,3.84,0,0,1,.73,1.81c0,.44-.43,1-1.27,1.73A8.92,8.92,0,0,1,296,55a16.83,16.83,0,0,0-2.15.86q-10.31,5.76-10.3,7.91,0,3.81,6.49,3.81a15.6,15.6,0,0,0,8.35-2.64,66.53,66.53,0,0,0,6.42-4.56q2.87-2.33,3.61-2.86a2.37,2.37,0,0,1,1.15-.54c.85,0,1.27,1,1.27,2.83a12.8,12.8,0,0,1-.34,3.74,6.37,6.37,0,0,1-1.95,2.22q-10.46,8.51-19.78,8.5a19.37,19.37,0,0,1-8-1.37q-5.46-2.49-5.47-7.62,0-6.73,9.33-10.2A4.22,4.22,0,0,1,282.23,53a11.58,11.58,0,0,1-.54-4.15q0-2.85,2.66-6a21.56,21.56,0,0,1,6.52-5.25q8.6-4.64,15.33-4.64a7.6,7.6,0,0,1,3.27.78A2.42,2.42,0,0,1,311.13,35.84Z"/><path class="cls-2" d="M314.65,62.6l0,.78a2.8,2.8,0,0,0,.93,2.1,2.64,2.64,0,0,0,1.71.88,28.49,28.49,0,0,0,10.37-1.76q4.51-1.75,4.52-3.52c0-.55-.55-1-1.64-1.44A52.12,52.12,0,0,0,325,58.13q-3.89-.9-5.64-1.42a25.81,25.81,0,0,1-2.79-1,11,11,0,0,1-2.1-1.22,5.49,5.49,0,0,1-2.29-4.81,10.52,10.52,0,0,1,2.37-6.35A22,22,0,0,1,320.46,38a51.17,51.17,0,0,1,7.66-4q8.11-3.36,13.63-3.37c3.61,0,5.84.79,6.69,2.35a4.29,4.29,0,0,1,.39,1.85v.35a6.65,6.65,0,0,1-1.1,4,9.54,9.54,0,0,1-3.47,2.63,9.12,9.12,0,0,1-3.76,1.18,4.66,4.66,0,0,1-1.75-.2,1.93,1.93,0,0,1-.62-.51,1.42,1.42,0,0,0-.61-.47c-.24-.09-.36-.34-.36-.73a1.88,1.88,0,0,1,.49-1.19,3.78,3.78,0,0,0,.68-1.3,21.91,21.91,0,0,0-6.74,1.49,32,32,0,0,0-6,3,33.54,33.54,0,0,0-4.17,3.18c-1.11,1-1.66,1.75-1.66,2.22s.74.85,2.24,1.15q10.11,2,13.28,3.46a10.35,10.35,0,0,1,4.4,3.32,6.33,6.33,0,0,1,1.22,3.37,8.73,8.73,0,0,1-2.49,5.91,19.31,19.31,0,0,1-6.15,4.54q-7.86,3.85-13.7,3.86c-3.89,0-6.57-.59-8.06-1.78a5.3,5.3,0,0,1-2.22-4.23,8.61,8.61,0,0,1,1.25-4.51,3.66,3.66,0,0,1,3.2-2.08C314,61.57,314.65,61.91,314.65,62.6Z"/><path class="cls-2" d="M351.42,62.6l-.05.78a2.83,2.83,0,0,0,.92,2.1,2.66,2.66,0,0,0,1.71.88,28.51,28.51,0,0,0,10.38-1.76q4.51-1.75,4.52-3.52c0-.55-.55-1-1.64-1.44a51.77,51.77,0,0,0-5.52-1.51q-3.87-.9-5.64-1.42a25.52,25.52,0,0,1-2.78-1,11,11,0,0,1-2.1-1.22,5.49,5.49,0,0,1-2.29-4.81,10.5,10.5,0,0,1,2.36-6.35A22,22,0,0,1,357.23,38a51.17,51.17,0,0,1,7.66-4q8.12-3.36,13.63-3.37c3.61,0,5.84.79,6.69,2.35a4.44,4.44,0,0,1,.39,1.85v.35a6.65,6.65,0,0,1-1.1,4A9.63,9.63,0,0,1,381,41.89a9.12,9.12,0,0,1-3.76,1.18,4.73,4.73,0,0,1-1.76-.2,1.89,1.89,0,0,1-.61-.51,1.42,1.42,0,0,0-.61-.47c-.24-.09-.36-.34-.36-.73a1.92,1.92,0,0,1,.48-1.19,3.64,3.64,0,0,0,.69-1.3,21.85,21.85,0,0,0-6.74,1.49,32,32,0,0,0-6,3,34.49,34.49,0,0,0-4.18,3.18c-1.1,1-1.66,1.75-1.66,2.22s.75.85,2.25,1.15q10.11,2,13.28,3.46a10.35,10.35,0,0,1,4.4,3.32,6.33,6.33,0,0,1,1.22,3.37,8.73,8.73,0,0,1-2.49,5.91A19.24,19.24,0,0,1,369,70.31q-7.86,3.85-13.69,3.86t-8.06-1.78A5.3,5.3,0,0,1,345,68.16a8.6,8.6,0,0,1,1.24-4.51,3.67,3.67,0,0,1,3.2-2.08C350.76,61.57,351.42,61.91,351.42,62.6Z"/><path class="cls-2" d="M420.07,35.25q3.71,0,3.71,2.54a2.68,2.68,0,0,1-.64,2A31.34,31.34,0,0,0,420.43,44q-2.07,3.58-4.59,9.18a44,44,0,0,0-3.24,9.54,4.94,4.94,0,0,0-.15,1.37c0,1.79.49,2.69,1.47,2.69a6.46,6.46,0,0,0,3.46-1.39,24.72,24.72,0,0,0,3.57-3q1.56-1.59,3.05-3.25c1-1.11,1.59-1.74,1.78-1.9a1.32,1.32,0,0,1,.88-.25c.62,0,1,.47,1.12,1.42a21.4,21.4,0,0,1,.2,2.93,5.3,5.3,0,0,1-.29,2.1q-1.43,2.77-6.23,6.69t-8.74,3.9q-3.93,0-5.79-2.39a8.49,8.49,0,0,1-1.85-5.3,12.47,12.47,0,0,1,1-5.1,42,42,0,0,1-9.3,8.93q-5.25,3.67-8.57,3.67a7.56,7.56,0,0,1-5.42-2A9,9,0,0,1,380.08,65a21.8,21.8,0,0,1,2-8.89,31.78,31.78,0,0,1,5.2-8.16,51.71,51.71,0,0,1,7.08-6.71q8.1-6.35,14.94-6.35a9.18,9.18,0,0,1,4.29.88,4,4,0,0,1,2.1,2.2,7.41,7.41,0,0,1,2-2.22A5,5,0,0,1,420.07,35.25Zm-6.5,5.42q-8.34,0-17.28,9.28a41.28,41.28,0,0,0-5.84,8q-2.65,4.64-2.66,6.35c0,1.14.33,1.71,1,1.71q1.37,0,7.62-5.4a76.69,76.69,0,0,0,8.3-7.93Q406.93,49.81,413.57,40.67Z"/><path class="cls-2" d="M438.75,39.92a44.69,44.69,0,0,1,9.25-5,22.43,22.43,0,0,1,7.86-1.76q3.31,0,4.25,1.91a6.49,6.49,0,0,1,4.73-2.35c.56,0,1.24,0,2.05,0s1.32.1,1.52.31a3.31,3.31,0,0,1,.54,1.2c.16.59.26.91.29,1a.76.76,0,0,1,.05.31A.92.92,0,0,1,469,36a4.55,4.55,0,0,1-.56.61l-.36.34Q457.32,52.44,446,72.27q11.63-10.3,20.81-14.8a2.56,2.56,0,0,1,1.12-.29c.52,0,.86.33,1,1a12.33,12.33,0,0,1,.25,2.86,6.76,6.76,0,0,1-.22,2.29,8.67,8.67,0,0,1-2.27,1.76l-5.32,3.42q-3.29,2.1-6.94,4.63A73,73,0,0,0,440,86a117.69,117.69,0,0,0-10.5,14.25,4.16,4.16,0,0,1-4,2.1q-5.52,0-5.52-5.22t5.22-10.89a73.91,73.91,0,0,1,7.18-6.79c2.18-1.75,3.37-2.75,3.57-3q3.6-5.42,9.81-15.38a60.93,60.93,0,0,1-10.23,8.79q-5,3.27-7.4,3.27-7.47,0-7.47-6.39a22.77,22.77,0,0,1,2.59-10.26A35.6,35.6,0,0,1,430,47.24,60.69,60.69,0,0,1,438.75,39.92Zm18.57-1.25a40,40,0,0,0-18.84,10,47.45,47.45,0,0,0-5.57,6.56q-4.4,6.3-4.39,9.77c0,.55.13.83.41.83a5.29,5.29,0,0,0,1.86-.88,43.34,43.34,0,0,0,4.07-3c1.76-1.42,3.71-3.1,5.86-5.06A167.45,167.45,0,0,0,457.32,38.67Z"/><path class="cls-2" d="M499,35.84a7.52,7.52,0,0,1-2.61,5.66A8.45,8.45,0,0,1,490.43,44a1.61,1.61,0,0,1-1.42-.52,2.44,2.44,0,0,1-.34-1.34,6.64,6.64,0,0,1,.2-1.61A22,22,0,0,0,485,42.29a47.24,47.24,0,0,0-5.27,3.61q-3.13,2.39-3.13,3.56c0,.26.38.39,1.15.39a12.8,12.8,0,0,0,3.54-.8,12.54,12.54,0,0,1,3.34-.81,5.17,5.17,0,0,1,1.25.1,4.29,4.29,0,0,1,1.37,1.49,3.73,3.73,0,0,1,.73,1.81c0,.44-.42,1-1.27,1.73A8.92,8.92,0,0,1,483.79,55a16.83,16.83,0,0,0-2.15.86q-10.31,5.76-10.3,7.91,0,3.81,6.49,3.81a15.6,15.6,0,0,0,8.35-2.64,66.53,66.53,0,0,0,6.42-4.56c1.91-1.55,3.11-2.5,3.62-2.86a2.31,2.31,0,0,1,1.14-.54c.85,0,1.27,1,1.27,2.83a12.8,12.8,0,0,1-.34,3.74,6.37,6.37,0,0,1-2,2.22q-10.45,8.51-19.78,8.5a19.37,19.37,0,0,1-8-1.37q-5.46-2.49-5.47-7.62,0-6.73,9.33-10.2A4.26,4.26,0,0,1,470.07,53a11.58,11.58,0,0,1-.54-4.15q0-2.85,2.66-6a21.68,21.68,0,0,1,6.52-5.25q8.6-4.64,15.33-4.64a7.6,7.6,0,0,1,3.27.78A2.42,2.42,0,0,1,499,35.84Z"/></g></g></g></g></svg>