<?xml version="1.0" encoding="utf-8"?>
<!-- Generator: Adobe Illustrator 24.3.0, SVG Export Plug-In . SVG Version: 6.00 Build 0)  -->
<svg version="1.1" id="コンポーネント_74_1" xmlns="http://www.w3.org/2000/svg" xmlns:xlink="http://www.w3.org/1999/xlink"
	 x="0px" y="0px" viewBox="0 0 136.7 136.7" style="enable-background:new 0 0 136.7 136.7;" xml:space="preserve">
<style type="text/css">
	.st0{opacity:0.86;fill:#FFFFFF;enable-background:new    ;}
	.st1{fill:#FF1901;}
	.st2{clip-path:url(#SVGID_2_);}
	.st3{fill:#FFFFFF;}
</style>
<g id="グループ_1659" transform="translate(16 16.322)">
	<circle id="楕円形_12" class="st0" cx="52.5" cy="52.5" r="52.5"/>
	<path id="多角形_8" class="st1" d="M69,53L46,66V40L69,53z"/>
</g>
<g id="グループ_1702">
	<g>
		<defs>
			<rect id="SVGID_1_" y="0" width="136.7" height="136.7"/>
		</defs>
		<clipPath id="SVGID_2_">
			<use xlink:href="#SVGID_1_"  style="overflow:visible;"/>
		</clipPath>
		<g id="グループ_1701" class="st2">
			<path id="パス_829" class="st3" d="M52.7,1.8c0.7-0.3,1.4-0.5,2.1-0.6c3-0.6,3.6,1.3,3.7,2c0.4,2.2-1.2,3.3-2.8,3.6
				c-0.3,0.1-0.6,0.1-1,0.1l0.8,3.8l-1,0.2L52.7,1.8z M54.6,6.1c0.3,0,0.7,0,1-0.1c1.5-0.3,2.2-1.2,1.9-2.5S56.2,1.7,54.9,2
				c-0.4,0.1-0.7,0.2-1.1,0.3L54.6,6.1z"/>
			<path id="パス_830" class="st3" d="M67.1,9.2l-4.9,0.3l-0.7-9.4l1-0.1l0.6,8.5l3.9-0.3L67.1,9.2z"/>
			<path id="パス_831" class="st3" d="M76,9.7l-1.1-0.1l-0.8-3.1l-3.3-0.2l-1.2,3l-1-0.1L72.3,0l1.2,0.1L76,9.7z M73.9,5.7
				l-0.7-2.8C73,2.2,72.9,1.6,72.8,1h0c-0.2,0.6-0.4,1.1-0.6,1.7l-1.1,2.8L73.9,5.7z"/>
			<path id="パス_832" class="st3" d="M85.6,2l-4,4.7l-0.8,4l-1-0.2l0.8-3.9l-1.7-5.9L80,0.8l0.8,2.8c0.2,0.8,0.4,1.4,0.5,2.1l0,0
				c0.4-0.6,0.8-1.1,1.3-1.8l1.9-2.3L85.6,2z"/>
			<path id="パス_833" class="st3" d="M97.2,16.6l-0.9-0.4l1.6-3.9c0.5-1.3,1.1-2.9,1.6-3.7l0,0c-0.7,0.8-1.6,1.7-2.5,2.7
				l-3.5,3.6l-0.7-0.3l0.5-4.9c0.2-1.4,0.3-2.7,0.5-3.8l0,0c-0.5,1-1.2,2.4-1.9,3.7l-2,3.7l-0.9-0.4l4.5-8.3L94.6,5l-0.5,5
				c-0.1,1.2-0.3,2.3-0.5,3.3l0,0c0.6-0.8,1.3-1.5,2.2-2.5l3.6-3.6l1.2,0.5L97.2,16.6z"/>
			<path id="パス_834" class="st3" d="M108.3,18.4c-1.9,2.7-4.4,3-6.2,1.7c-1.9-1.3-2.2-3.8-0.5-6.2c1.8-2.5,4.3-3,6.2-1.7
				C109.8,13.6,109.9,16,108.3,18.4 M102.5,14.5c-1.1,1.6-1.4,3.8,0.1,4.9c1.6,1.1,3.5,0.2,4.7-1.6c1.1-1.5,1.5-3.8-0.1-4.9
				C105.6,11.7,103.6,12.8,102.5,14.5"/>
			<path id="パス_835" class="st3" d="M118.4,21.4l-8.9,4.6l-0.8-0.8l4.4-8.9l0.8,0.8l-2.2,4.4c-0.6,1.2-1.2,2.3-1.7,3.3l0,0
				c1-0.7,2.1-1.3,3.2-1.8l4.4-2.3L118.4,21.4z"/>
			
				<rect id="長方形_1531" x="112.3" y="26.6" transform="matrix(0.7623 -0.6473 0.6473 0.7623 10.267 82.1541)" class="st3" width="9.4" height="1"/>
			<path id="パス_836" class="st3" d="M118.4,36.9l-2.8-4.1l7.7-5.4l2.7,3.9l-0.7,0.5l-2.1-3.1l-2.6,1.8l2,2.9l-0.7,0.5l-2-2.9
				l-3,2.1l2.2,3.2L118.4,36.9z"/>
			<path id="パス_837" class="st3" d="M134.5,51.2c0.3,0.7,0.5,1.3,0.6,2c0.6,3-1.2,3.6-1.9,3.8c-2.2,0.5-3.3-1.1-3.7-2.7
				c-0.1-0.3-0.1-0.6-0.1-1l-3.8,0.8l-0.2-1L134.5,51.2z M130.3,53.2c0,0.3,0,0.7,0.1,1c0.3,1.4,1.2,2.2,2.5,1.9s1.7-1.4,1.4-2.6
				c-0.1-0.4-0.2-0.7-0.3-1.1L130.3,53.2z"/>
			<path id="パス_838" class="st3" d="M127.4,65.8l-0.4-4.9l9.4-0.8l0.1,1l-8.5,0.8l0.3,3.9L127.4,65.8z"/>
			<path id="パス_839" class="st3" d="M127.1,74.7l0-1.1l3.1-0.9l0.1-3.3l-3-1.1l0-1l9.3,3.5l-0.1,1.2L127.1,74.7z M131.1,72.5
				l2.8-0.8c0.6-0.2,1.2-0.3,1.8-0.4v0c-0.6-0.1-1.1-0.3-1.7-0.5l-2.8-1.1L131.1,72.5z"/>
			<path id="パス_840" class="st3" d="M135,84.1l-4.7-3.9l-4-0.7l0.2-1l3.9,0.7l5.8-1.8l-0.2,1.2l-2.8,0.8
				c-0.8,0.2-1.4,0.4-2.1,0.6l0,0c0.6,0.4,1.1,0.8,1.8,1.3l2.3,1.8L135,84.1z"/>
			<path id="パス_841" class="st3" d="M120.6,96l0.4-0.9l4,1.5c1.3,0.5,2.9,1.1,3.8,1.5l0,0c-0.9-0.7-1.8-1.5-2.8-2.5l-3.7-3.4
				l0.3-0.7l4.9,0.4c1.4,0.1,2.7,0.3,3.8,0.5l0,0c-1-0.5-2.4-1.2-3.7-1.8l-3.7-1.9l0.4-0.9l8.4,4.4l-0.5,1.2l-5-0.4
				c-1.2-0.1-2.3-0.2-3.3-0.4l0,0c0.8,0.6,1.6,1.3,2.5,2.2l3.7,3.5l-0.5,1.2L120.6,96z"/>
			<path id="パス_842" class="st3" d="M119.1,107.1c-2.7-1.8-3.1-4.3-1.8-6.1c1.3-1.9,3.8-2.3,6.2-0.6c2.5,1.7,3.1,4.2,1.8,6.2
				C123.9,108.5,121.5,108.7,119.1,107.1 M122.9,101.3c-1.7-1.1-3.9-1.3-4.9,0.2c-1.1,1.6-0.1,3.5,1.7,4.7c1.6,1.1,3.8,1.4,4.9-0.2
				C125.7,104.3,124.5,102.4,122.9,101.3"/>
			<path id="パス_843" class="st3" d="M116.2,117.3l-4.7-8.8l0.7-0.8l8.9,4.2l-0.8,0.8l-4.5-2.1c-1.2-0.6-2.3-1.1-3.3-1.7l0,0
				c0.7,1,1.3,2.1,1.9,3.2l2.4,4.4L116.2,117.3z"/>
			
				<rect id="長方形_1532" x="110.1" y="111.3" transform="matrix(0.749 -0.6625 0.6625 0.749 -49.0849 102.366)" class="st3" width="1" height="9.4"/>
			<path id="パス_844" class="st3" d="M100.8,117.6l4-2.9l5.5,7.6l-3.8,2.8l-0.5-0.7l3-2.2l-1.9-2.6l-2.8,2.1l-0.5-0.7l2.8-2.1
				l-2.1-2.9l-3.2,2.3L100.8,117.6z"/>
			<path id="パス_845" class="st3" d="M86.9,134c-0.7,0.3-1.3,0.5-2,0.7c-3,0.7-3.7-1.1-3.8-1.8c-0.5-2.2,1-3.3,2.6-3.7
				c0.3-0.1,0.6-0.1,1-0.1l-0.9-3.8l1-0.2L86.9,134z M84.8,129.8c-0.3,0-0.7,0-1,0.1c-1.4,0.3-2.1,1.3-1.8,2.6s1.4,1.7,2.6,1.4
				c0.4-0.1,0.7-0.2,1.1-0.4L84.8,129.8z"/>
			<path id="パス_846" class="st3" d="M72.1,127.2l4.9-0.5l1,9.4l-1,0.1l-0.9-8.5l-3.9,0.4L72.1,127.2z"/>
			<path id="パス_847" class="st3" d="M63.2,127.1l1.1,0l0.9,3.1l3.3,0.1l1.1-3l1.1,0l-3.3,9.3l-1.2,0L63.2,127.1z M65.5,131.1
				l0.9,2.8c0.2,0.6,0.3,1.2,0.4,1.8h0c0.1-0.6,0.3-1.2,0.5-1.7l1-2.8L65.5,131.1z"/>
			<path id="パス_848" class="st3" d="M53.9,135.2l3.8-4.8l0.6-4l1,0.2l-0.6,4l2,5.8l-1.2-0.2l-0.9-2.8c-0.2-0.8-0.4-1.4-0.6-2.1
				l0,0c-0.4,0.6-0.8,1.2-1.3,1.8l-1.8,2.4L53.9,135.2z"/>
			<path id="パス_849" class="st3" d="M41.7,121.1l0.9,0.4l-1.4,4c-0.4,1.3-1,2.9-1.4,3.8l0,0c0.7-0.9,1.5-1.8,2.4-2.8l3.3-3.7
				l0.7,0.3l-0.3,4.9c-0.1,1.4-0.2,2.7-0.4,3.8l0,0c0.5-1.1,1.1-2.5,1.8-3.8l1.8-3.7l0.9,0.4L46,133l-1.2-0.5l0.3-5.1
				c0.1-1.2,0.2-2.3,0.3-3.3l0,0c-0.6,0.8-1.3,1.6-2.1,2.5l-3.4,3.8l-1.2-0.5L41.7,121.1z"/>
			<path id="パス_850" class="st3" d="M30.6,119.8c1.8-2.8,4.2-3.2,6.1-2c2,1.3,2.4,3.7,0.8,6.2c-1.7,2.6-4.1,3.2-6.1,1.9
				C29.3,124.6,29,122.2,30.6,119.8 M36.5,123.4c1.1-1.7,1.3-3.9-0.3-4.9c-1.6-1-3.5,0-4.7,1.8c-1,1.6-1.4,3.8,0.3,4.9
				C33.6,126.4,35.5,125.1,36.5,123.4"/>
			<path id="パス_851" class="st3" d="M20.4,117.1l8.7-4.9l0.8,0.7l-4,9l-0.8-0.7l2-4.5c0.5-1.2,1.1-2.3,1.6-3.3l0,0
				c-1,0.7-2.1,1.4-3.1,2l-4.3,2.5L20.4,117.1z"/>
			
				<rect id="長方形_1533" x="16.9" y="110.9" transform="matrix(0.735 -0.6781 0.6781 0.735 -69.8434 44.1664)" class="st3" width="9.4" height="1"/>
			<path id="パス_852" class="st3" d="M19.7,101.7l3,4l-7.5,5.7l-2.9-3.8L13,107l2.3,3l2.5-1.9l-2.1-2.8l0.7-0.5l2.1,2.8l2.9-2.2
				l-2.4-3.1L19.7,101.7z"/>
			<path id="パス_853" class="st3" d="M3,88.1c-0.3-0.7-0.5-1.3-0.7-2c-0.8-2.9,1-3.7,1.8-3.9c2.1-0.6,3.4,0.9,3.8,2.6
				c0.1,0.3,0.1,0.6,0.2,1l3.7-1l0.3,1L3,88.1z M7.2,86c0-0.3-0.1-0.7-0.2-1c-0.4-1.4-1.3-2.1-2.6-1.8s-1.6,1.4-1.3,2.7
				c0.1,0.4,0.2,0.7,0.4,1.1L7.2,86z"/>
			<path id="パス_854" class="st3" d="M9.6,73.2l0.6,4.9l-9.3,1.2l-0.1-1l8.5-1.1l-0.5-3.9L9.6,73.2z"/>
			<path id="パス_855" class="st3" d="M9.5,64.3l0,1.1l-3.1,1l-0.1,3.3l3,1l0,1.1L0,68.5l0-1.2L9.5,64.3z M5.6,66.6l-2.8,0.9
				c-0.6,0.2-1.2,0.3-1.8,0.5v0c0.6,0.1,1.2,0.3,1.7,0.5l2.8,1L5.6,66.6z"/>
			<path id="パス_856" class="st3" d="M1.2,55.2l4.9,3.7l4,0.6l-0.1,1l-4-0.6l-5.7,2.1l0.2-1.2L3.2,60c0.7-0.3,1.4-0.5,2.1-0.7v0
				c-0.6-0.3-1.2-0.8-1.8-1.2L1,56.3L1.2,55.2z"/>
			<path id="パス_857" class="st3" d="M15,42.7l-0.4,0.9l-4-1.3c-1.3-0.4-2.9-1-3.8-1.3l0,0c0.9,0.7,1.8,1.4,2.9,2.3l3.8,3.3
				l-0.3,0.7l-4.9-0.2c-1.4-0.1-2.7-0.2-3.8-0.3l0,0C5.6,47.4,7,48,8.3,48.6l3.8,1.7l-0.4,0.9l-8.5-4l0.5-1.2l5.1,0.2
				c1.2,0.1,2.3,0.1,3.3,0.2l0,0c-0.8-0.6-1.6-1.2-2.6-2l-3.8-3.3L6,39.9L15,42.7z"/>
			<path id="パス_858" class="st3" d="M16.1,31.5c2.8,1.7,3.2,4.2,2.1,6.1c-1.2,2-3.7,2.4-6.2,0.9c-2.6-1.6-3.3-4.1-2.1-6.1
				C11.3,30.4,13.7,30,16.1,31.5 M12.6,37.6c1.7,1,3.9,1.2,4.9-0.4c1-1.7-0.1-3.5-1.9-4.6c-1.6-1-3.9-1.3-4.9,0.4
				C9.6,34.7,10.9,36.5,12.6,37.6"/>
			<path id="パス_859" class="st3" d="M18.5,21.3l5.1,8.5l-0.7,0.8l-9.1-3.8l0.7-0.8l4.5,1.9c1.2,0.5,2.4,1,3.4,1.5l0,0
				c-0.7-1-1.4-2-2-3.1l-2.6-4.2L18.5,21.3z"/>
			
				<rect id="長方形_1534" x="23.8" y="17.6" transform="matrix(0.7217 -0.6922 0.6922 0.7217 -8.7085 23.0282)" class="st3" width="1" height="9.4"/>
			<path id="パス_860" class="st3" d="M34,20.3l-3.9,3.1L24.3,16L28,13l0.5,0.7L25.6,16l2,2.5l2.8-2.2l0.5,0.7l-2.8,2.2l2.3,2.9
				l3.1-2.4L34,20.3z"/>
		</g>
	</g>
</g>
</svg>
