<svg id="コンポーネント_74_1" data-name="コンポーネント 74 – 1" xmlns="http://www.w3.org/2000/svg" xmlns:xlink="http://www.w3.org/1999/xlink" width="136.73" height="136.651" viewBox="0 0 136.73 136.651">
  <defs>
    <clipPath id="clip-path">
      <rect id="長方形_1535" data-name="長方形 1535" width="136.73" height="136.652" fill="#fff"/>
    </clipPath>
  </defs>
  <g id="グループ_1659" data-name="グループ 1659" transform="translate(16 16.322)">
    <circle id="楕円形_12" data-name="楕円形 12" cx="52.5" cy="52.5" r="52.5" fill="#ff1901" opacity="0.86"/>
    <path id="多角形_8" data-name="多角形 8" d="M13,0,26,23H0Z" transform="translate(69 40) rotate(90)" fill="#fff"/>
  </g>
  <g id="グループ_1702" data-name="グループ 1702">
    <g id="グループ_1701" data-name="グループ 1701" clip-path="url(#clip-path)">
      <path id="パス_829" data-name="パス 829" d="M46.885,1.67a11.914,11.914,0,0,1,2.06-.6c2.982-.59,3.6,1.276,3.747,2,.429,2.169-1.15,3.288-2.786,3.612a3.863,3.863,0,0,1-.963.1l.751,3.793-1.005.2Zm1.894,4.284a3.762,3.762,0,0,0,.988-.1c1.455-.289,2.195-1.191,1.934-2.51s-1.322-1.716-2.582-1.466a5.524,5.524,0,0,0-1.084.315Z" transform="translate(5.777 0.118)" fill="#fff"/>
      <path id="パス_830" data-name="パス 830" d="M60.359,9.228l-4.9.341L54.8.178,55.824.107l.592,8.515,3.882-.27Z" transform="translate(6.753 0.013)" fill="#fff"/>
      <path id="パス_831" data-name="パス 831" d="M68.469,9.67,67.384,9.6l-.811-3.11-3.266-.213L62.123,9.254l-1.048-.067L64.8,0l1.182.076ZM66.417,5.662l-.742-2.845C65.52,2.163,65.4,1.561,65.311,1l-.037,0c-.16.559-.372,1.138-.582,1.719L63.571,5.476Z" transform="translate(7.526)" fill="#fff"/>
      <path id="パス_832" data-name="パス 832" d="M76.96,1.915,72.921,6.574l-.806,3.957-1-.206.8-3.932L70.184.533l1.149.235.757,2.838c.211.762.38,1.414.522,2.135l.036.008c.381-.565.823-1.131,1.332-1.77l1.854-2.294Z" transform="translate(8.648 0.066)" fill="#fff"/>
      <path id="パス_833" data-name="パス 833" d="M87.47,16.115l-.92-.425,1.561-3.949c.5-1.255,1.138-2.879,1.552-3.748l-.034-.016c-.726.836-1.56,1.73-2.524,2.729L83.6,14.29l-.685-.315.51-4.857c.155-1.426.326-2.654.546-3.75l-.035-.016c-.5,1.033-1.222,2.417-1.907,3.694L80.061,12.7l-.887-.409,4.539-8.28,1.146.528-.5,5.039c-.133,1.231-.272,2.27-.456,3.261l.034.016c.612-.767,1.318-1.531,2.207-2.454l3.564-3.625,1.167.538Z" transform="translate(9.756 0.494)" fill="#fff"/>
      <path id="パス_834" data-name="パス 834" d="M97.272,17.109c-1.9,2.71-4.356,2.981-6.175,1.7-1.911-1.34-2.209-3.8-.52-6.2,1.76-2.508,4.257-3.034,6.188-1.678,1.972,1.383,2.14,3.854.508,6.18m-5.8-3.9c-1.149,1.638-1.422,3.831.146,4.932,1.587,1.113,3.512.155,4.747-1.6,1.086-1.548,1.52-3.779-.129-4.935-1.7-1.192-3.615-.031-4.764,1.607" transform="translate(11.025 1.257)" fill="#fff"/>
      <path id="パス_835" data-name="パス 835" d="M106.437,19.632,97.58,24.194l-.785-.751,4.356-8.857.8.769-2.223,4.412c-.6,1.194-1.166,2.289-1.748,3.256l.026.025a36.2,36.2,0,0,1,3.221-1.844l4.411-2.334Z" transform="translate(11.928 1.797)" fill="#fff"/>
      <rect id="長方形_1531" data-name="長方形 1531" width="9.415" height="1.026" transform="translate(113.053 29.756) rotate(-40.335)" fill="#fff"/>
      <path id="パス_836" data-name="パス 836" d="M105.751,33.919l-2.832-4.08,7.731-5.367,2.713,3.905-.71.494-2.127-3.065-2.618,1.817,2,2.882-.7.486-2-2.882-2.993,2.078,2.248,3.237Z" transform="translate(12.682 3.016)" fill="#fff"/>
      <path id="パス_837" data-name="パス 837" d="M120.773,45.562a11.975,11.975,0,0,1,.638,2.049c.649,2.968-1.205,3.627-1.929,3.785-2.16.473-3.309-1.084-3.666-2.713a3.921,3.921,0,0,1-.121-.96l-3.777.826-.218-1Zm-4.246,1.979a3.726,3.726,0,0,0,.116.986c.317,1.448,1.232,2.171,2.547,1.883s1.688-1.355,1.414-2.61a5.421,5.421,0,0,0-.337-1.077Z" transform="translate(13.764 5.614)" fill="#fff"/>
      <path id="パス_838" data-name="パス 838" d="M113.451,59.183l-.437-4.9,9.378-.836.091,1.021-8.5.757.345,3.877Z" transform="translate(13.926 6.586)" fill="#fff"/>
      <path id="パス_839" data-name="パス 839" d="M113.19,67.274l.048-1.085,3.093-.876.145-3.271-3-1.122.046-1.049,9.264,3.527-.053,1.185Zm3.965-2.135,2.831-.8c.65-.168,1.249-.3,1.811-.4V63.9c-.563-.148-1.147-.347-1.732-.547l-2.784-1.064Z" transform="translate(13.948 7.378)" fill="#fff"/>
      <path id="パス_840" data-name="パス 840" d="M121.163,75.638l-4.741-3.947-3.973-.728.184-1.01,3.95.726,5.826-1.847-.211,1.155-2.825.813c-.757.227-1.406.409-2.125.565l-.007.037c.573.368,1.147.8,1.8,1.3l2.332,1.81Z" transform="translate(13.856 8.482)" fill="#fff"/>
      <path id="パス_841" data-name="パス 841" d="M107.4,86.419l.4-.929,3.98,1.477c1.265.471,2.9,1.076,3.781,1.473l.015-.034c-.851-.708-1.762-1.523-2.781-2.467l-3.656-3.426.3-.691,4.865.408c1.429.124,2.66.268,3.761.466l.015-.035c-1.043-.482-2.442-1.173-3.732-1.829l-3.692-1.892.39-.9,8.371,4.363-.5,1.155-5.046-.392c-1.234-.106-2.276-.224-3.269-.386l-.016.034c.778.6,1.557,1.285,2.5,2.154l3.7,3.484-.514,1.178Z" transform="translate(13.235 9.617)" fill="#fff"/>
      <path id="パス_842" data-name="パス 842" d="M106.306,96.251c-2.746-1.847-3.066-4.293-1.826-6.137,1.3-1.938,3.754-2.285,6.192-.645,2.542,1.708,3.118,4.194,1.8,6.152-1.343,2-3.81,2.215-6.168.63m3.788-5.877c-1.661-1.116-3.859-1.343-4.928.245-1.082,1.608-.085,3.515,1.7,4.713,1.568,1.055,3.808,1.442,4.931-.228,1.157-1.722-.042-3.613-1.7-4.73" transform="translate(12.789 10.896)" fill="#fff"/>
      <path id="パス_843" data-name="パス 843" d="M104.007,105.459,99.263,96.7l.737-.8,8.942,4.172-.753.82-4.456-2.131c-1.205-.571-2.314-1.119-3.29-1.68l-.025.026a36.274,36.274,0,0,1,1.909,3.183l2.423,4.359Z" transform="translate(12.232 11.817)" fill="#fff"/>
      <rect id="長方形_1532" data-name="長方形 1532" width="1.025" height="9.418" transform="translate(107.074 112.786) rotate(-41.493)" fill="#fff"/>
      <path id="パス_844" data-name="パス 844" d="M89.7,105.061l4.017-2.915,5.524,7.614L95.4,112.552l-.508-.7,3.018-2.189-1.87-2.578L93.2,109.144l-.5-.69,2.837-2.06L93.4,103.447l-3.188,2.313Z" transform="translate(11.054 12.587)" fill="#fff"/>
      <path id="パス_845" data-name="パス 845" d="M77.994,120.332a11.918,11.918,0,0,1-2.036.682c-2.955.712-3.653-1.128-3.827-1.849-.518-2.151,1.014-3.334,2.637-3.725a3.855,3.855,0,0,1,.956-.142l-.905-3.761,1-.242Zm-2.069-4.2a3.734,3.734,0,0,0-.985.135c-1.441.348-2.144,1.28-1.829,2.59s1.391,1.66,2.642,1.359a5.419,5.419,0,0,0,1.069-.361Z" transform="translate(8.876 13.715)" fill="#fff"/>
      <path id="パス_846" data-name="パス 846" d="M64.2,113.3l4.891-.538,1.031,9.363-1.02.112-.935-8.492-3.871.427Z" transform="translate(7.91 13.894)" fill="#fff"/>
      <path id="パス_847" data-name="パス 847" d="M56.3,113.188l1.087.025.941,3.077,3.275.077,1.059-3.029,1.051.025L60.374,122.7l-1.186-.027Zm2.219,3.921.862,2.815c.183.647.329,1.245.439,1.8h.037c.137-.565.323-1.154.511-1.743l1.006-2.807Z" transform="translate(6.937 13.948)" fill="#fff"/>
      <path id="パス_848" data-name="パス 848" d="M48.012,121.349l3.847-4.825.645-3.991,1.012.164-.64,3.966,1.97,5.79-1.159-.188-.875-2.808c-.24-.753-.437-1.4-.61-2.114l-.036-.006c-.356.58-.776,1.164-1.259,1.825l-1.76,2.369Z" transform="translate(5.916 13.867)" fill="#fff"/>
      <path id="パス_849" data-name="パス 849" d="M37.48,107.8l.937.385-1.393,4.01c-.444,1.275-1.014,2.924-1.393,3.811l.035.013c.69-.865,1.486-1.794,2.406-2.833l3.349-3.728.7.286-.306,4.871c-.093,1.432-.212,2.665-.385,3.771l.034.013c.459-1.054,1.12-2.467,1.75-3.771l1.813-3.731.9.372-4.184,8.461-1.166-.479.285-5.053c.08-1.236.175-2.28.317-3.278l-.034-.012c-.58.791-1.252,1.583-2.1,2.543l-3.407,3.772-1.188-.489Z" transform="translate(4.245 13.284)" fill="#fff"/>
      <path id="パス_850" data-name="パス 850" d="M27.331,106.92c1.793-2.788,4.236-3.159,6.108-1.956,1.966,1.264,2.363,3.71.773,6.186-1.657,2.58-4.133,3.208-6.12,1.932-2.029-1.3-2.3-3.77-.76-6.162m5.963,3.67c1.083-1.686,1.265-3.891-.348-4.928-1.633-1.049-3.519-.011-4.683,1.8-1.022,1.592-1.365,3.841.33,4.931,1.749,1.123,3.617-.117,4.7-1.8" transform="translate(3.247 12.854)" fill="#fff"/>
      <path id="パス_851" data-name="パス 851" d="M18.162,104.819,26.821,99.9l.817.72-3.987,9.026-.835-.736,2.038-4.5c.545-1.216,1.07-2.336,1.613-3.325l-.028-.025a35.8,35.8,0,0,1-3.143,1.976l-4.309,2.513Z" transform="translate(2.238 12.31)" fill="#fff"/>
      <rect id="長方形_1533" data-name="長方形 1533" width="9.418" height="1.025" transform="translate(17.776 114.257) rotate(-42.692)" fill="#fff"/>
      <path id="パス_852" data-name="パス 852" d="M18.348,90.51l3,3.955-7.5,5.695-2.878-3.788.69-.523,2.257,2.971,2.537-1.927L14.34,94.1l.678-.516,2.123,2.795,2.9-2.2-2.385-3.138Z" transform="translate(1.353 11.153)" fill="#fff"/>
      <path id="パス_853" data-name="パス 853" d="M2.79,79.11a11.9,11.9,0,0,1-.726-2.02c-.775-2.938,1.049-3.675,1.767-3.864,2.137-.565,3.353.941,3.779,2.554a3.861,3.861,0,0,1,.162.954l3.739-.987.263.992Zm4.158-2.158a3.75,3.75,0,0,0-.157-.982c-.379-1.432-1.324-2.116-2.627-1.772s-1.63,1.426-1.3,2.67a5.417,5.417,0,0,0,.383,1.061Z" transform="translate(0.231 9.008)" fill="#fff"/>
      <path id="パス_854" data-name="パス 854" d="M9.477,65.16l.64,4.877L.779,71.266.646,70.247l8.468-1.113-.508-3.859Z" transform="translate(0.08 8.029)" fill="#fff"/>
      <path id="パス_855" data-name="パス 855" d="M9.489,57.266l-.018,1.087-3.07.961L6.347,62.59l3.036,1.039L9.365,64.68,0,61.408l.02-1.185ZM5.582,59.512l-2.808.879c-.646.188-1.241.338-1.8.453v.037c.567.133,1.158.316,1.748.5l2.815.986Z" transform="translate(0 7.057)" fill="#fff"/>
      <path id="パス_856" data-name="パス 856" d="M1.142,49.145l4.9,3.744,4,.56L9.9,54.465l-3.976-.557L.183,56l.162-1.164L3.133,53.9c.748-.256,1.389-.466,2.1-.654l0-.036c-.587-.345-1.179-.753-1.85-1.221L.983,50.284Z" transform="translate(0.023 6.056)" fill="#fff"/>
      <path id="パス_857" data-name="パス 857" d="M14.678,38.347l-.365.945-4.036-1.31C9,37.565,7.337,37.028,6.443,36.67l-.015.035c.879.671,1.824,1.447,2.881,2.345L13.1,42.319l-.273.7-4.873-.2c-1.432-.063-2.667-.156-3.774-.307l-.012.034c1.061.438,2.486,1.068,3.8,1.671l3.765,1.734-.353.91-8.54-4.007L3.3,41.677l5.055.182c1.237.055,2.28.127,3.28.249l.013-.035c-.8-.563-1.608-1.219-2.585-2.047L5.225,36.7l.463-1.2Z" transform="translate(0.351 4.375)" fill="#fff"/>
      <path id="パス_858" data-name="パス 858" d="M15.1,28.166c2.82,1.732,3.241,4.164,2.077,6.058-1.221,1.989-3.655,2.436-6.159.9-2.61-1.6-3.288-4.062-2.054-6.072,1.26-2.052,3.716-2.369,6.136-.884m-3.542,6.027c1.705,1.048,3.91,1.184,4.912-.447,1.014-1.652-.06-3.513-1.89-4.638-1.61-.99-3.863-1.286-4.916.429-1.085,1.769.19,3.609,1.895,4.656" transform="translate(1.031 3.357)" fill="#fff"/>
      <path id="パス_859" data-name="パス 859" d="M17.024,18.986l5.095,8.542-.7.83-9.095-3.793.718-.849,4.533,1.941c1.227.52,2.354,1.022,3.354,1.542l.022-.028a36.233,36.233,0,0,1-2.036-3.1l-2.6-4.249Z" transform="translate(1.518 2.34)" fill="#fff"/>
      <rect id="長方形_1534" data-name="長方形 1534" width="1.025" height="9.413" transform="translate(20.659 19.303) rotate(-43.802)" fill="#fff"/>
      <path id="パス_860" data-name="パス 860" d="M31.355,18.839l-3.893,3.079-5.837-7.378,3.728-2.95.537.677-2.925,2.315,1.977,2.5,2.75-2.176.529.668-2.75,2.175L27.729,20.6l3.089-2.444Z" transform="translate(2.665 1.428)" fill="#fff"/>
    </g>
  </g>
</svg>
