<svg xmlns="http://www.w3.org/2000/svg" xmlns:xlink="http://www.w3.org/1999/xlink" width="65" height="65" viewBox="0 0 65 65">
  <defs>
    <clipPath id="clip-path">
      <rect id="長方形_1589" data-name="長方形 1589" width="35" height="38.451" fill="#396cae"/>
    </clipPath>
  </defs>
  <g id="グループ_1883" data-name="グループ 1883" transform="translate(-521 -4204)">
    <circle id="楕円形_22" data-name="楕円形 22" cx="32.5" cy="32.5" r="32.5" transform="translate(521 4204)" fill="#cbdaee"/>
    <g id="グループ_1692" data-name="グループ 1692" transform="translate(536 4213.789)">
      <g id="グループ_1691" data-name="グループ 1691" clip-path="url(#clip-path)">
        <path id="パス_914" data-name="パス 914" d="M39.852,32.953a1.993,1.993,0,0,1-1.418-.587l-3.619-3.619a.732.732,0,0,1,0-1.037L36.9,25.624a.733.733,0,0,1,1.036,0l1.912,1.912,4.885-4.886a.755.755,0,0,1,1.037,0l2.086,2.086a.733.733,0,0,1,0,1.037l-6.59,6.592a1.993,1.993,0,0,1-1.419.588M36.37,28.229l3.1,3.1a.553.553,0,0,0,.763,0l6.072-6.074-1.049-1.049L40.37,29.091a.733.733,0,0,1-1.037,0l-1.912-1.912Z" transform="translate(-22.59 -14.653)" fill="#396cae"/>
        <path id="パス_915" data-name="パス 915" d="M34.267,62.849H.733A.733.733,0,0,1,0,62.116V38.1a.733.733,0,0,1,1.466,0V61.383H33.534V38.1A.733.733,0,0,1,35,38.1V62.116a.733.733,0,0,1-.733.733" transform="translate(0 -24.398)" fill="#396cae"/>
        <path id="パス_916" data-name="パス 916" d="M68.573,85.743a.728.728,0,0,1-.453-.157L53.8,74.308a2.954,2.954,0,0,0-.79-.459.733.733,0,0,1,.537-1.364,4.388,4.388,0,0,1,1.169.679l14.311,11.27a.733.733,0,0,1-.454,1.309" transform="translate(-34.306 -47.291)" fill="#396cae"/>
        <path id="パス_917" data-name="パス 917" d="M.734,85.731A.733.733,0,0,1,.28,84.422L14.593,73.145a4.542,4.542,0,0,1,1.167-.678.733.733,0,1,1,.536,1.364,3.1,3.1,0,0,0-.793.463L1.187,85.574a.728.728,0,0,1-.453.157" transform="translate(0 -47.28)" fill="#396cae"/>
        <path id="パス_918" data-name="パス 918" d="M18.973,26.61a.736.736,0,0,1-.283-.057,3.149,3.149,0,0,0-2.384,0,.732.732,0,0,1-.733-.1L.278,14.279a.733.733,0,0,1-.012-1.138L15.182.771l.038-.03a3.874,3.874,0,0,1,4.557,0l.036.028L34.735,13.14a.733.733,0,0,1-.011,1.138L19.429,26.45a.735.735,0,0,1-.456.159M17.5,24.849a4.546,4.546,0,0,1,1.338.2L33.1,13.693,18.9,1.915a2.444,2.444,0,0,0-2.8,0L1.9,13.693,16.168,25.044a4.6,4.6,0,0,1,1.329-.2" transform="translate(-0.001 -0.001)" fill="#396cae"/>
        <path id="パス_919" data-name="パス 919" d="M34.751,34.514a7.338,7.338,0,1,1,2.922-14.07.733.733,0,1,1-.584,1.344,5.872,5.872,0,1,0-2.337,11.26,5.9,5.9,0,0,0,5.813-5.038.733.733,0,1,1,1.452.206,7.368,7.368,0,0,1-7.265,6.3" transform="translate(-17.898 -12.953)" fill="#396cae"/>
      </g>
    </g>
  </g>
</svg>
