<svg xmlns="http://www.w3.org/2000/svg" xmlns:xlink="http://www.w3.org/1999/xlink" width="66" height="65" viewBox="0 0 66 65">
  <defs>
    <clipPath id="clip-path">
      <rect id="長方形_1588" data-name="長方形 1588" width="65" height="45.172" fill="#969696"/>
    </clipPath>
  </defs>
  <g id="グループ_1885" data-name="グループ 1885" transform="translate(-1417 -4204)">
    <circle id="楕円形_21" data-name="楕円形 21" cx="32.5" cy="32.5" r="32.5" transform="translate(1417 4204)" fill="#f8f4ea"/>
    <g id="グループ_1695" data-name="グループ 1695" transform="translate(1418 4207.069)">
      <g id="グループ_1689" data-name="グループ 1689" clip-path="url(#clip-path)">
        <path id="パス_909" data-name="パス 909" d="M35.577,14.566A6.163,6.163,0,0,0,41.733,8.41V6.156a6.156,6.156,0,1,0-12.312,0V8.41a6.163,6.163,0,0,0,6.156,6.156m-4.663-8.41a4.663,4.663,0,1,1,9.325,0V8.41a4.663,4.663,0,0,1-9.325,0Z" transform="translate(-19.876)" fill="#969696"/>
        <path id="パス_910" data-name="パス 910" d="M141.164,57.726a6.163,6.163,0,0,0,6.156-6.156V49.316a6.156,6.156,0,0,0-12.312,0V51.57a6.163,6.163,0,0,0,6.156,6.156m-4.663-8.41a4.663,4.663,0,0,1,9.325,0V51.57a4.663,4.663,0,1,1-9.325,0Z" transform="translate(-91.208 -29.158)" fill="#969696"/>
        <path id="パス_911" data-name="パス 911" d="M130.078,119.374a.746.746,0,0,0-.746.746v4.751a.746.746,0,0,0,1.493,0V120.12a.746.746,0,0,0-.747-.746" transform="translate(-87.374 -80.646)" fill="#969696"/>
        <path id="パス_912" data-name="パス 912" d="M174.78,119.374a.746.746,0,0,0-.746.746v4.751a.746.746,0,0,0,1.493,0V120.12a.746.746,0,0,0-.746-.746" transform="translate(-117.573 -80.646)" fill="#969696"/>
        <path id="パス_913" data-name="パス 913" d="M64.253,61.861h-35.8V56.619a8.693,8.693,0,0,0-8.683-8.683h-8.13a8.693,8.693,0,0,0-8.683,8.683v5.241H.746A.746.746,0,0,0,0,62.607v5.251a.746.746,0,0,0,.746.747H9.3l.032,8.208a.747.747,0,0,0,.746.744h0a.746.746,0,0,0,.744-.75l-.032-8.2h1.493l.032,8.208a.747.747,0,0,0,.747.744h0a.747.747,0,0,0,.744-.75l-.032-8.2H37.17a.742.742,0,0,0,.289-.058,8.652,8.652,0,0,0-.253,2.075v5.988a.747.747,0,1,0,1.493,0V70.622a7.2,7.2,0,0,1,7.19-7.19h8.13a7.2,7.2,0,0,1,7.19,7.19v5.988a.747.747,0,1,0,1.493,0V70.622a8.666,8.666,0,0,0-.239-2.017h1.788A.747.747,0,0,0,65,67.858V62.607a.747.747,0,0,0-.747-.746M4.446,56.619a7.2,7.2,0,0,1,7.19-7.19h8.13a7.2,7.2,0,0,1,7.19,7.19v5.241H23.7v-4a.746.746,0,1,0-1.493,0v4H9.2v-4a.747.747,0,1,0-1.493,0v4H4.446ZM37.8,67.466a.744.744,0,0,0-.633-.355H1.493V63.354H41.147A8.729,8.729,0,0,0,37.8,67.466m25.7-.355H61.96a8.738,8.738,0,0,0-3.2-3.757h4.742Z" transform="translate(0 -32.384)" fill="#969696"/>
      </g>
    </g>
  </g>
</svg>
