<svg id="グループ_1685" data-name="グループ 1685" xmlns="http://www.w3.org/2000/svg" xmlns:xlink="http://www.w3.org/1999/xlink" width="79.464" height="69.844" viewBox="0 0 79.464 69.844">
  <defs>
    <clipPath id="clip-path">
      <rect id="長方形_1573" data-name="長方形 1573" width="79.464" height="69.844" fill="#969696"/>
    </clipPath>
  </defs>
  <g id="グループ_1675" data-name="グループ 1675" clip-path="url(#clip-path)">
    <path id="パス_884" data-name="パス 884" d="M70.35,88.958l-1.872-1.579A11.492,11.492,0,0,0,66.1,92.673l2.406.459a9.078,9.078,0,0,1,1.849-4.174" transform="translate(-25.062 -33.133)" fill="#969696"/>
    <path id="パス_885" data-name="パス 885" d="M79.7,82.739l-1.443-1.981A8.3,8.3,0,0,1,75.8,81.965a10.047,10.047,0,0,0-2.162.953l1.252,2.1a7.469,7.469,0,0,1,1.633-.717A10.759,10.759,0,0,0,79.7,82.739" transform="translate(-27.922 -30.622)" fill="#969696"/>
    <path id="パス_886" data-name="パス 886" d="M84.968,71.359a7.99,7.99,0,0,1-1.379,4.263l2,1.413a10.427,10.427,0,0,0,1.825-5.571Z" transform="translate(-31.696 -27.058)" fill="#969696"/>
    <path id="パス_887" data-name="パス 887" d="M39.35,95.418a12.588,12.588,0,0,0-2.088-4.906l-2.006,1.4h0a10.151,10.151,0,0,1,1.688,3.958Z" transform="translate(-13.369 -34.321)" fill="#969696"/>
    <path id="パス_888" data-name="パス 888" d="M28.307,82.3,27.113,84.44a16.9,16.9,0,0,1,3.629,2.68l1.723-1.739A19.266,19.266,0,0,0,28.307,82.3" transform="translate(-10.281 -31.208)" fill="#969696"/>
    <path id="パス_889" data-name="パス 889" d="M79.433,90.993l-1.35-2.971L64.031,57.067h-19.6c-.264.464-.5.906-.783,1.382-.755,1.29-1.453,2.458-2.1,3.516H52.391l-.017.017a3.925,3.925,0,0,1,.7,1.646l2.386-.544a9.356,9.356,0,0,0-.344-1.119h5.758l11.177,24.62H41.246l2.051-.317,0-.02a14.027,14.027,0,0,1-.109-1.82c0-.124,0-.253,0-.386l-2.447-.057q-.006.227-.006.443a16.372,16.372,0,0,0,.132,2.157H26.139c.038-.4.065-.792.07-1.175l-2.449-.035c-.006.389-.036.794-.083,1.21H7.412l6.011-13.24c.358.122.816.291,1.348.517l.957-2.253c-.489-.209-.923-.371-1.289-.5l4.15-9.143h6.03c-.646-1.058-1.345-2.226-2.1-3.516-.278-.476-.52-.918-.783-1.382h-6.3L.032,90.993a.346.346,0,0,0,.315.49h78.77a.345.345,0,0,0,.316-.49" transform="translate(0 -21.639)" fill="#969696"/>
    <path id="パス_890" data-name="パス 890" d="M43.322,48.06c.777,0,16.321-22.722,16.321-31.737a16.322,16.322,0,1,0-32.644,0C27,25.338,42.546,48.06,43.322,48.06M37.079,16.323a6.243,6.243,0,1,1,6.244,6.244,6.244,6.244,0,0,1-6.244-6.244" transform="translate(-10.238)" fill="#969696"/>
  </g>
</svg>
