<svg xmlns="http://www.w3.org/2000/svg" xmlns:xlink="http://www.w3.org/1999/xlink" width="65" height="65" viewBox="0 0 65 65">
  <defs>
    <clipPath id="clip-path">
      <rect id="長方形_1591" data-name="長方形 1591" width="41.276" height="48.288" fill="#969696"/>
    </clipPath>
  </defs>
  <g id="グループ_1884" data-name="グループ 1884" transform="translate(-1193 -4204)">
    <circle id="楕円形_20" data-name="楕円形 20" cx="32.5" cy="32.5" r="32.5" transform="translate(1193 4204)" fill="#f8f4ea"/>
    <g id="グループ_1697" data-name="グループ 1697" transform="translate(1205.362 4210.952)">
      <g id="グループ_1696" data-name="グループ 1696" transform="translate(0 0)" clip-path="url(#clip-path)">
        <path id="パス_931" data-name="パス 931" d="M17.767,12.319A5.215,5.215,0,0,0,22.977,7.11v-1.9a5.209,5.209,0,1,0-10.419,0v1.9a5.215,5.215,0,0,0,5.209,5.209m-3.913-7.11a3.913,3.913,0,1,1,7.826,0v1.9a3.913,3.913,0,1,1-7.826,0Z" transform="translate(-6.999 0)" fill="#969696"/>
        <path id="パス_932" data-name="パス 932" d="M14.2,29.625H7.341A7.349,7.349,0,0,0,0,36.965v9.793a2.646,2.646,0,0,0,4.006,2.275V64.152a.648.648,0,0,0,.648.648H16.882a.649.649,0,0,0,.648-.648V49.033a2.646,2.646,0,0,0,4.006-2.275V36.965a7.349,7.349,0,0,0-7.341-7.34m6.044,8.384v8.75a1.355,1.355,0,0,1-2.709,0v-8.75a.648.648,0,0,0-1.3,0V63.5H11.417V48.761a.648.648,0,1,0-1.3,0V63.5H5.3v-25.5a.648.648,0,0,0-1.3,0v8.75a1.355,1.355,0,0,1-2.709,0V36.965a6.051,6.051,0,0,1,6.044-6.044H14.2a6.051,6.051,0,0,1,6.044,6.044Z" transform="translate(0 -16.512)" fill="#969696"/>
        <path id="パス_933" data-name="パス 933" d="M74,0H60.518a.648.648,0,0,0-.648.648v13.48a.648.648,0,0,0,.648.648H74a.648.648,0,0,0,.648-.648V.648A.648.648,0,0,0,74,0M73.35,13.48H61.166V1.3H73.35Z" transform="translate(-33.369 0)" fill="#969696"/>
        <path id="パス_934" data-name="パス 934" d="M74,75.611H60.518a.648.648,0,0,0-.648.648v13.48a.648.648,0,0,0,.648.648H74a.648.648,0,0,0,.648-.648V76.259A.648.648,0,0,0,74,75.611m-.648,13.48H61.166V76.907H73.35Z" transform="translate(-33.369 -42.143)" fill="#969696"/>
        <path id="パス_935" data-name="パス 935" d="M74,37.805H60.518a.648.648,0,0,0-.648.648v13.48a.648.648,0,0,0,.648.648H74a.648.648,0,0,0,.648-.648V38.453A.648.648,0,0,0,74,37.805m-.648,13.48H61.166V39.1H73.35Z" transform="translate(-33.369 -21.071)" fill="#969696"/>
        <path id="パス_936" data-name="パス 936" d="M65.589,53.089a.649.649,0,0,0,.917,0l3.822-3.781,3.823,3.781a.648.648,0,0,0,.911-.922L71.249,48.4l3.812-3.771a.648.648,0,0,0-.911-.922l-3.823,3.781-3.822-3.781a.648.648,0,0,0-.912.922L69.406,48.4l-3.812,3.771a.648.648,0,0,0,0,.917" transform="translate(-36.452 -24.257)" fill="#969696"/>
        <path id="パス_937" data-name="パス 937" d="M67.065,13.94a.649.649,0,0,0,.482.22h0a.648.648,0,0,0,.481-.214l6.859-7.589a.648.648,0,0,0-.962-.869l-6.372,7.05-2.731-3.1a.648.648,0,0,0-.973.856Z" transform="translate(-35.5 -2.94)" fill="#969696"/>
        <path id="パス_938" data-name="パス 938" d="M67.065,90.1a.649.649,0,0,0,.482.22h0a.648.648,0,0,0,.481-.214l6.859-7.589a.648.648,0,0,0-.962-.869L67.558,88.7l-2.731-3.1a.648.648,0,1,0-.973.857Z" transform="translate(-35.5 -45.389)" fill="#969696"/>
      </g>
    </g>
  </g>
</svg>
