<?xml version="1.0" encoding="utf-8"?>
<!-- Generator: Adobe Illustrator 26.5.0, SVG Export Plug-In . SVG Version: 6.00 Build 0)  -->
<svg version="1.1" id="レイヤー_1" xmlns="http://www.w3.org/2000/svg" xmlns:xlink="http://www.w3.org/1999/xlink" x="0px"
	 y="0px" viewBox="0 0 350.7 124.6" style="enable-background:new 0 0 350.7 124.6;" xml:space="preserve">
<style type="text/css">
	.st0{fill:#F49C00;}
</style>
<g>
	<path class="st0" d="M7.7,45.7c0,1.2,0,2.8-1.7,2.8c-1.7,0-1.7-1.6-1.7-2.8V7.8c0-2,1.8-4.2,4.4-4.2h10c2.2,0,4.4,1.9,4.4,4.2v10.5
		c0,2-1.8,4.1-4.4,4.1h-11V45.7z M7.7,11.4h12.1V8.3c0-0.9-0.9-1.4-1.7-1.4H9.4c-0.9,0-1.7,0.7-1.7,1.4V11.4z M19.7,14.5H7.7v4.8H18
		c0.9,0,1.7-0.6,1.7-1.5V14.5z M32.5,33.3h5.5c1.1,0,2.5,0,2.5,1.5c0,1.6-1.3,1.6-2.5,1.6h-5.5v8.5c0,1.2,0,2.8-1.7,2.8
		c-1.7,0-1.7-1.5-1.7-2.8v-8.5h-7.6c-0.6,4.7-2.1,7.8-6.5,10.1c-1.1,0.6-2.9,1.3-3.6,1.3c-1,0-1.5-0.8-1.5-1.5
		c0-1.1,0.9-1.4,1.6-1.6c3.6-1.2,6.3-3.5,6.8-8.3h-6.7c-1.1,0-2.5,0-2.5-1.6c0-1.5,1.4-1.5,2.5-1.5h6.8v-5.2h-6
		c-1.1,0-2.5,0-2.5-1.5c0-1.5,1.4-1.5,2.5-1.5h25.1c1.1,0,2.5,0,2.5,1.4c0,1.5-1.4,1.5-2.5,1.5h-5.1V33.3z M29.2,28.1h-7.4v5.2h7.4
		V28.1z M31.5,22.4c-2.2,0-4.4-1.8-4.4-4.1V7.8c0-2,1.8-4.2,4.4-4.2h9.8c2.2,0,4.4,1.9,4.4,4.2v35.8c0,4.4-4.9,4.5-5.9,4.5
		c-1.2,0-3.2-0.3-4.4-0.6c-0.5-0.2-1.3-0.5-1.3-1.6c0-0.6,0.5-1.5,1.4-1.5c0.4,0,2.1,0.3,2.5,0.4c0.7,0.1,1.5,0.2,2.2,0.2
		c0.9,0,2.2-0.4,2.2-2.1V22.4H31.5z M30.5,11.4h11.9V8.3c0-0.9-0.9-1.4-1.7-1.4h-8.5c-0.9,0-1.7,0.7-1.7,1.4V11.4z M42.4,14.5H30.5
		v3.3c0,0.9,0.9,1.5,1.7,1.5h10.2V14.5z"/>
	<path class="st0" d="M57.8,7.8c-1.2,0-2.7,0-2.7-1.6c0-1.6,1.5-1.6,2.7-1.6h15.3c1.5,0,2.9,1.1,2.9,3.2c0,3-3.7,8.3-7.3,11.4
		c-5,4.5-12.6,7.1-13.9,7.1c-0.9,0-1.5-0.8-1.5-1.6c0-1.1,0.8-1.4,1.3-1.5c5-1.6,7.8-3.3,10.2-4.9c-2.4-2.6-2.8-3.1-5.8-5.7
		c-1.2-1-1.4-1.2-1.4-1.9c0-1,0.9-1.7,1.7-1.7c1.5,0,6.9,5.7,8.1,7c4.7-4.4,5-7.1,5-7.3c0-0.8-0.8-1-1-1H57.8z M69.6,24.8h-2
		c-1.2,0-2.8,0-2.8-1.6c0-1.6,1.6-1.6,2.8-1.6h20.5c1.2,0,2.8,0,2.8,1.6c0,1.6-1.5,1.6-2.8,1.6h-3.2v5.7h12.4c1.2,0,2.8,0,2.8,1.7
		c0,1.6-1.5,1.6-2.8,1.6H84.8v8c0,1.9,1,2.6,2.5,2.6h6.7c2.2,0,2.7-1.4,2.9-5.5c0.1-2.1,0.2-3.1,1.6-3.1c1.6,0,1.6,1.5,1.6,2.9
		c0,5.2-1.2,8.9-6.1,8.9h-7.4c-3.5,0-5.2-2.4-5.2-4.8v-9.1h-8.7c-0.6,4.2-1.7,8.3-7.4,11.6c-4.2,2.4-9.1,3-9.9,3
		c-1.6,0-1.7-1.2-1.7-1.5c0-1.5,1.5-1.7,2.9-1.9c2.6-0.4,7.7-2,10.5-5.4c1.2-1.6,1.8-3.2,2.2-5.8H57.1c-1.2,0-2.8,0-2.8-1.6
		c0-1.7,1.5-1.7,2.8-1.7h12.5V24.8z M72.9,30.5h8.5v-5.7h-8.5V30.5z M95.2,9.9c2.5-2.2,2.6-2.4,3.2-2.4c1,0,1.7,0.8,1.7,1.7
		c0,1-1.4,2.1-3.9,4.1c-1.5,1.2-3.4,2.6-5.8,4.3c4.1,3.2,6.7,4.1,9.2,5c0.6,0.2,1.7,0.6,1.7,1.9c0,0.6-0.4,1.6-1.6,1.6
		c-2.3,0-9.5-3.5-14.5-8.4c-5.7-5.8-8.1-13-8.1-14.2c0-0.9,0.8-1.6,1.7-1.6c1.2,0,1.4,0.8,1.6,1.4c1.1,3.4,2,5.1,2.8,6.3
		c2.2-1.6,4.4-3.1,6.4-4.9c2.2-1.9,2.4-2.1,3-2.1c1,0,1.7,0.8,1.7,1.8c0,1.7-8,7.1-9.2,8c1.4,1.8,2.2,2.5,2.9,3.2
		C91.2,13.1,93.1,11.8,95.2,9.9z"/>
	<path class="st0" d="M141.1,8.6c1.6,0,5,0,5,4.6c0,2.4-1.3,10.8-8,18.8c-10.3,12.3-22.3,14.1-22.9,14.1c-1.2,0-2-1-2-2.1
		c0-1.5,0.8-1.7,2.6-2.2c21.5-5.7,26.5-24.5,26.5-27.9c0-1.6-0.9-1.6-3-1.6h-27.3c-1.5,0-3.2,0-3.2-1.9s1.8-1.9,3.2-1.9H141.1z
		 M148.6,10.1c-2.6,0-4.7-2.1-4.7-4.8c0-2.6,2.1-4.7,4.7-4.7c2.7,0,4.8,2.1,4.8,4.7C153.3,8,151.2,10.1,148.6,10.1z M148.6,2.3
		c-1.7,0-3.1,1.4-3.1,3.1c0,1.7,1.4,3.1,3.1,3.1c1.8,0,3.1-1.4,3.1-3.1C151.7,3.6,150.3,2.3,148.6,2.3z"/>
	<path class="st0" d="M189.6,8.4c4,0,6.2,1.9,6.2,5.8v22.9c0,5-3.6,5.8-6.2,5.8h-23.1c-4,0-6.2-1.9-6.2-5.8V14.2
		c0-5,3.6-5.8,6.2-5.8H189.6z M167.4,12.1c-3,0-3.5,0.9-3.5,3.3v20.5c0,2.4,0.5,3.3,3.5,3.3h21.2c3,0,3.4-0.9,3.4-3.3V15.4
		c0-2.4-0.4-3.3-3.4-3.3H167.4z"/>
	<path class="st0" d="M220,7.8c0-1.5,0-3.3,2-3.3s2,1.9,2,3.3v9.1l17.5-3.2c0.5-0.1,1-0.2,1.7-0.2c2.3,0,3.3,1.6,3.3,3.4
		c0,6.4-10.2,14.3-12.8,14.3c-1.1,0-1.8-1-1.8-2c0-1,0.2-1.2,2.7-2.6c1.5-1,4.7-2.8,6.5-5.7c0.6-1,1.2-2.2,1.2-3
		c0-0.2-0.1-0.6-0.7-0.6c-0.1,0-0.6,0.2-0.9,0.2l-16.6,3.2v15.3c0,4.6,1.1,5,8.3,5c2.7,0,6.2-0.1,10.2-0.6c0.9-0.1,2.3-0.4,2.9-0.4
		c1.4,0,1.6,1.2,1.6,1.8c0,1.4-0.9,1.6-1.5,1.8c-1.3,0.4-8,0.9-13.3,0.9c-7,0-12.1-0.2-12.1-7.1V21.5l-9.9,1.9
		c-1,0.2-1.4,0.2-1.8,0.2c-1,0-1.9-1-1.9-2c0-1.6,1.3-1.9,3-2.2l10.6-2V7.8z"/>
	<path class="st0" d="M263.4,12.4c-1.5,0-3.3,0-3.3-1.9c0-1.9,1.8-1.9,3.3-1.9h22.4c1.2,0,4.2,0,4.2,3.4c0,4.6-6.3,12.3-7.8,14.1
		c1.9,1.7,6.5,5.7,12.2,12.6c1.8,2.1,2.1,2.7,2.1,3.4c0,1.2-1.2,2.1-2.1,2.1c-1.1,0-1.5-0.7-2.1-1.5c-2.9-4.2-7.6-9.1-12.5-13.8
		c-6.1,6.8-18.8,15.1-21.2,15.1c-1.1,0-2-1-2-2.1c0-1.2,1-1.7,1.8-2.1c17.5-7.5,27.6-24.2,27.6-26.6c0-0.7-0.4-0.7-1.6-0.7H263.4z"
		/>
	<path class="st0" d="M315.1,21.8c1.2-0.8,2.9-1.8,5.8-1.8c1.1,0,5.6,0,7,5.8c1.1-0.5,11-4.7,12.3-4.7s1.9,1.1,1.9,1.9
		c0,1.4-1.1,1.8-3.4,2.6c-3.2,1.1-8.1,2.9-10.1,3.8c0.1,1.4,0.2,3.1,0.2,4.5c0,2.7,0,4.3-1.9,4.3c-0.4,0-1.8-0.1-1.8-2v-5.1
		c-2.2,1.2-8,4.5-8,7.7c0,4.8,8.1,4.8,10,4.8c0.8,0,4.6,0,8.1-0.8c0.5-0.1,1.8-0.4,2.2-0.4c1.2,0,1.8,0.9,1.8,1.7
		c0,1.4-1.1,1.8-1.5,1.9c-0.8,0.2-4.9,1-10.7,1c-1.5,0-6.4,0-9.6-1.9c-1-0.6-3.9-2.6-3.9-6.1c0-5.6,7.2-9.5,11.4-11.7
		c-0.2-1.3-0.8-4.1-4.6-4.1c-2.9,0-6,0.9-11.8,7c-2.9,2.9-3.2,3.3-3.9,3.3c-1.2,0-2-0.9-2-2c0-0.8,0.3-1.3,2.4-3.4
		c2.4-2.3,6.7-6.7,9.8-12.5c-2.7,0-4.1,0.1-7,0.1c-1.8,0-3.5,0-3.5-1.8c0-1.9,1.2-1.9,4-1.9c1.3,0,7.1,0.1,8.3,0.1
		c1.2-2.7,1.4-3.3,2.6-6.8c0.2-0.7,0.6-1.8,2-1.8c1.1,0,1.8,0.9,1.8,1.7c0,1.2-1.6,5.2-2.3,6.7c4.6-0.1,6.5-0.2,8.7-0.5
		c1.4-0.1,3.6-0.5,5-0.5c1.5,0,1.5,1.5,1.5,1.7c0,1.6-1.3,1.9-3.4,2.1c-3.9,0.4-9.7,0.7-13.5,0.8C316.6,19.6,316.1,20.4,315.1,21.8z
		"/>
	<path class="st0" d="M40,91c0.3-0.1,1-0.1,1.3-0.1c1.8,0,2.1,1,2.1,1.9c0,1.8-1.4,1.9-3.2,2l-12.9,0.9l0.2,10.9
		c5.5,2.2,9.9,5.7,10.6,6.2c4.9,3.9,4.9,4.5,4.9,5.2c0,1.2-0.9,2-2.1,2c-0.8,0-1.1-0.2-3.2-2.3c-3.8-3.8-7.8-6.1-10.2-7.4
		c0,4-0.1,6.5-2,8.9c-2.3,2.8-6.5,3.2-8.5,3.2c-7.1,0-12.3-3.8-12.3-9.2c0-6.5,6.5-9.1,12.2-9.1c2,0,4.3,0.2,7.1,1.1l-0.5-23
		c0-1.5-0.1-3.3,1.8-3.3c1.9,0,1.9,1.8,1.9,3.2l0.1,9.9L40,91z M17.3,107.6c-3.6,0-8.8,1.2-8.8,5.4c0,3.4,3.7,5.8,8.5,5.8
		c6.6,0,7.5-4.2,7-9.6C22,108.3,20.2,107.6,17.3,107.6z"/>
	<path class="st0" d="M61,82c0,1.6-0.6,4-0.8,5.7c-0.5,4-0.7,6.1-0.7,8.5c0,2.4,0,7.5,3,7.5c0.8,0,1.8-0.6,2.5-1.1
		c1-0.8,1.3-1.1,1.8-1.1c1,0,1.8,0.8,1.8,1.8c0,1.5-3.3,4.2-6.8,4.2c-4.2,0-5.7-4.2-5.7-10.9c0-4.2,0.8-11.5,1.4-14.5
		c0.1-0.8,0.5-1.5,1.4-1.8C59.6,80,61,80.4,61,82z M75.3,118.6c-5.6,3-10.5,3.4-11.2,3.4c-1.1,0-2-0.8-2-1.9c0-1.5,0.7-1.7,3.1-2.1
		c5.2-0.8,10-3,13.3-6.3c3.5-3.5,4.7-8,4.7-17.4c0-1.8-0.1-7.4-0.6-12c-0.1-0.4-0.1-0.7-0.1-0.8c0-1.3,1-2,1.9-2
		c0.8,0,1.3,0.5,1.5,0.8c0.9,1.1,1.1,9.9,1.1,11.6C87,105.2,86,112.8,75.3,118.6z"/>
	<path class="st0" d="M103.7,87.4c-1.5,0-3.3,0-3.3-1.9c0-1.8,1.8-1.8,3.3-1.8h22.4c1.2,0,4.2,0,4.2,3.4c0,4.7-6.3,12.3-7.9,14.1
		c2,1.7,6.5,5.7,12.2,12.6c1.8,2,2.1,2.7,2.1,3.4c0,1.2-1.2,2-2.1,2c-1.1,0-1.5-0.7-2.1-1.5c-2.9-4.2-7.6-9.1-12.5-13.8
		c-6.1,6.8-18.8,15.1-21.2,15.1c-1.1,0-2-1-2-2.2c0-1.2,1-1.7,1.8-2c17.5-7.5,27.6-24.2,27.6-26.6c0-0.7-0.4-0.7-1.6-0.7H103.7z"/>
	<path class="st0" d="M146.4,87c-1.4,0-3.3,0-3.3-1.9c0-1.8,1.9-1.8,3.3-1.8h32.7c1,0,4.2,0,4.2,3.5c0,5.2-8.4,14.8-17.8,20.5
		c3.1,4,6,8.6,6,10c0,0.9-0.8,2-2,2c-1.2,0-1.7-0.8-2.2-1.9c-1.9-4.2-7.6-12-13.6-16.5c-0.5-0.4-1.1-0.9-1.1-1.8c0-1,0.6-2,2-2
		c1.5,0,6.9,5.5,8.6,7.5c13.5-8.5,16-16.2,16-17c0-0.6-0.4-0.6-1.5-0.6H146.4z"/>
	<path class="st0" d="M230.7,98.6c1.4,0,2.1,1,2.1,2.1c0,1.1-0.8,2.1-2.1,2.1h-40.2c-1.5,0-2.2-1-2.2-2.1c0-0.9,0.6-2.1,2.2-2.1
		H230.7z"/>
	<path class="st0" d="M250.7,118.9c0,1.6,0,3.4-2.1,3.4c-2.1,0-2.1-1.8-2.1-3.4V82.2c0-1.6,0-3.4,2.1-3.4c2.1,0,2.1,1.8,2.1,3.4v12
		c5.8,0.9,14.1,4,18.3,6c3.2,1.5,3.7,2,3.7,3c0,0.9-0.5,2-1.8,2c-0.6,0-1.2-0.3-1.9-0.7c-8.1-4.4-16.2-6-18.3-6.4V118.9z"/>
	<path class="st0" d="M290.1,109.7c0.2-0.7,0.6-1.1,1.5-1.1c0.5,0,1.5,0.3,1.5,1.5c0,0.7-1,3.8-1,4.5c-0.2,0.7-0.4,3.1-0.6,4.7
		c0,0.8-0.1,1.9-2,1.9c-0.3,0-1.5,0-2.2-1.8c-0.3-0.8-2.5-6.8-2.5-16.6c0-8.6,1.8-18.2,2.8-21.1c0.2-0.4,0.6-1.8,2-1.8
		c1,0,1.9,0.7,1.9,1.8c0,0.9-1.1,4.7-1.3,5.5c-1.9,8-2,13.3-2,15.7c0,1.5,0,7.3,1.3,11.2C289.5,112.8,289.8,110.5,290.1,109.7z
		 M302.6,107.8c0,0.3,0,0.4-0.5,1.7c-0.2,0.6-0.6,1.5-0.6,2.5c0,3.7,5.2,4.5,11.5,4.5c2.7,0,5.1-0.2,7.5-0.8c0.3,0,2.3-0.6,2.7-0.6
		c0.8,0,1.7,0.7,1.7,1.8c0,1.3-0.8,1.6-1.4,1.8c-1,0.4-5.2,1.2-10.8,1.2c-3.9,0-14.7-0.2-14.7-8c0-1.2,0.7-6,2.8-6
		C301.9,106.1,302.6,107,302.6,107.8z M298.5,85.8c0-1,0.9-1.8,2.1-1.8c0.8,0,4.5,0.2,5.2,0.2c2.3,0,7.4-0.2,10.7-0.5
		c0.8,0,4-0.6,4.6-0.6c1.3,0,1.7,1.2,1.7,1.9c0,1.4-0.9,1.7-1.4,1.8c-2.3,0.7-15.3,1.2-16.2,1.2c-5.4,0-6.2,0-6.7-1.3
		C298.5,86.4,298.5,86,298.5,85.8z"/>
	<path class="st0" d="M348.4,114.9c0,4.2-3.3,7.6-7.5,7.6c-4.1,0-7.4-3.4-7.4-7.6c0-4.2,3.3-7.6,7.4-7.6
		C345.1,107.3,348.4,110.7,348.4,114.9z M336.1,114.9c0,2.8,2.2,5,4.9,5c2.8,0,4.9-2.3,4.9-5c0-2.7-2.2-5-4.9-5
		C338.2,109.9,336.1,112.2,336.1,114.9z"/>
</g>
</svg>
