<svg xmlns="http://www.w3.org/2000/svg" xmlns:xlink="http://www.w3.org/1999/xlink" width="118" height="118" viewBox="0 0 118 118">
  <defs>
    <clipPath id="clip-path">
      <rect id="長方形_2048" data-name="長方形 2048" width="70.418" height="71.211" transform="translate(0 0)" fill="none"/>
    </clipPath>
  </defs>
  <g id="グループ_2434" data-name="グループ 2434" transform="translate(-1100 -9000)">
    <circle id="楕円形_22" data-name="楕円形 22" cx="59" cy="59" r="59" transform="translate(1100 9000)" fill="#fff"/>
    <g id="グループ_2080" data-name="グループ 2080" transform="translate(1123.791 9023.395)">
      <g id="グループ_2080-2" data-name="グループ 2080" clip-path="url(#clip-path)">
        <rect id="長方形_2047" data-name="長方形 2047" width="13.848" height="8.308" rx="3.375" transform="translate(22.562 59.05)" fill="#5b8dcd"/>
        <path id="パス_1589" data-name="パス 1589" d="M5.5,50.862H4.91a3.377,3.377,0,0,0-3.375,3.375V58.9c0,1.864.869,3.377,2.358,3.377h.371c1.61,0,1.239,1.51,1.239,3.375v2.186a3.378,3.378,0,0,0,3.375,3.375h5.159a3.376,3.376,0,0,0,3.375-3.375v-13.6a3.375,3.375,0,0,0-3.375-3.375Z" fill="#5b8dcd"/>
        <path id="パス_1590" data-name="パス 1590" d="M47.426,22.454a3.372,3.372,0,0,0-3.3,2.66l-1.886,8.7a3.374,3.374,0,0,1-3.3,2.66H17.81a3.377,3.377,0,0,0-3.375,3.375V42.4a3.377,3.377,0,0,0,3.375,3.375H18.5a3.377,3.377,0,0,1,3.375,3.377v1.68a3.377,3.377,0,0,0,3.375,3.375H51.418a3.377,3.377,0,0,0,3.3-2.656l5.468-25.005a3.375,3.375,0,0,0-3.3-4.094Z" fill="#5b8dcd"/>
        <path id="パス_1591" data-name="パス 1591" d="M68.236,15.125a3.372,3.372,0,0,1-3.316,2.738H50.244a3.375,3.375,0,0,1-3.316-4.007L49.049,2.742A3.375,3.375,0,0,1,52.365,0H67.043a3.378,3.378,0,0,1,3.314,4.011Z" fill="#5b8dcd"/>
        <path id="パス_1592" data-name="パス 1592" d="M6.418,39.082A21,21,0,0,1,40.24,22.45" fill="none" stroke="#5b8dcd" stroke-linecap="round" stroke-miterlimit="10" stroke-width="3"/>
        <path id="パス_1593" data-name="パス 1593" d="M12.484,35.979,5.637,40.117,1.5,33.27" fill="none" stroke="#5b8dcd" stroke-linecap="round" stroke-miterlimit="10" stroke-width="3"/>
      </g>
    </g>
  </g>
</svg>
