<svg xmlns="http://www.w3.org/2000/svg" xmlns:xlink="http://www.w3.org/1999/xlink" width="118" height="118" viewBox="0 0 118 118">
  <defs>
    <clipPath id="clip-path">
      <rect id="長方形_2032" data-name="長方形 2032" width="87.925" height="66.456" fill="none"/>
    </clipPath>
  </defs>
  <g id="グループ_2433" data-name="グループ 2433" transform="translate(-1100 -8769)">
    <circle id="楕円形_18" data-name="楕円形 18" cx="59" cy="59" r="59" transform="translate(1100 8769)" fill="#fff"/>
    <g id="グループ_2078" data-name="グループ 2078" transform="translate(1115.038 8794.771)">
      <g id="グループ_2078-2" data-name="グループ 2078" clip-path="url(#clip-path)">
        <path id="パス_1579" data-name="パス 1579" d="M48.472,130.192v10.379H96.019V126.156" transform="translate(-28.789 -74.928)" fill="none" stroke="#5b8dcd" stroke-miterlimit="10" stroke-width="4"/>
        <path id="パス_1580" data-name="パス 1580" d="M41.569,113.576c0,3.813-9.09,6.9-20.3,6.9s-20.3-3.091-20.3-6.9,9.09-6.9,20.3-6.9,20.3,3.091,20.3,6.9" transform="translate(-0.571 -63.356)" fill="#5b8dcd"/>
        <ellipse id="楕円形_24" data-name="楕円形 24" cx="20.304" cy="6.903" rx="20.304" ry="6.903" transform="translate(0.391 43.317)" fill="none" stroke="#fff" stroke-miterlimit="10" stroke-width="1.924"/>
        <path id="パス_1581" data-name="パス 1581" d="M156.171,113.576c0,3.813-9.09,6.9-20.3,6.9s-20.3-3.091-20.3-6.9,9.09-6.9,20.3-6.9,20.3,3.091,20.3,6.9" transform="translate(-68.637 -63.356)" fill="#5b8dcd"/>
        <ellipse id="楕円形_25" data-name="楕円形 25" cx="20.304" cy="6.903" rx="20.304" ry="6.903" transform="translate(46.927 43.317)" fill="none" stroke="#fff" stroke-miterlimit="10" stroke-width="1.924"/>
        <path id="パス_1582" data-name="パス 1582" d="M44.017,10.5a4.748,4.748,0,1,1,4.749-4.748A4.754,4.754,0,0,1,44.017,10.5" transform="translate(-23.322 -0.594)" fill="#5b8dcd"/>
        <path id="パス_1583" data-name="パス 1583" d="M43.422.812a4.342,4.342,0,1,1-4.343,4.343A4.342,4.342,0,0,1,43.422.812m0-.812a5.154,5.154,0,1,0,5.155,5.155A5.161,5.161,0,0,0,43.422,0" transform="translate(-22.728)" fill="#fff"/>
        <path id="パス_1584" data-name="パス 1584" d="M38.507,68.285A2.913,2.913,0,0,1,35.6,65.479a2.909,2.909,0,0,1-5.816-.1V33.207h-.066V44.8a2.311,2.311,0,1,1-4.622,0V30.206a5.274,5.274,0,0,1,4.8-4.8H41.3a5.274,5.274,0,0,1,4.8,4.8V44.8a2.31,2.31,0,1,1-4.621,0V33.207h-.068V65.376a2.912,2.912,0,0,1-2.908,2.909" transform="translate(-14.905 -15.089)" fill="#5b8dcd"/>
        <path id="パス_1585" data-name="パス 1585" d="M40.709,25.218A4.882,4.882,0,0,1,45.1,29.612v14.6a1.9,1.9,0,1,1-3.809,0v-12h-.88V64.782a2.5,2.5,0,1,1-5,0v-18.9H34.6v18.9a2.5,2.5,0,1,1-5.005,0V32.207h-.878v12a1.905,1.905,0,0,1-3.811,0v-14.6A4.882,4.882,0,0,1,29.3,25.218Zm0-.812H29.3a5.72,5.72,0,0,0-5.205,5.206v14.6a2.716,2.716,0,0,0,4.689,1.868V64.782A3.314,3.314,0,0,0,35,66.374a3.314,3.314,0,0,0,6.221-1.592V46.074a2.715,2.715,0,0,0,4.689-1.867v-14.6a5.72,5.72,0,0,0-5.205-5.206" transform="translate(-14.31 -14.495)" fill="#fff"/>
        <path id="パス_1586" data-name="パス 1586" d="M153.97,24.664a.639.639,0,0,1-.638-.638V21.581a.64.64,0,0,0-.638-.638h-10.67a.64.64,0,0,0-.638.638v2.445a.639.639,0,0,1-.637.638h-5.188a.64.64,0,0,0-.638.638V61.289a.64.64,0,0,0,.638.638h7.78a.64.64,0,0,0,.638-.638V55.841a.64.64,0,0,1,.638-.638H150.1a.64.64,0,0,1,.639.638v5.448a.639.639,0,0,0,.638.638h7.779a.64.64,0,0,0,.639-.638V25.3a.64.64,0,0,0-.639-.638ZM140.682,50.232a.639.639,0,0,1-.637.638h-1.4a.639.639,0,0,1-.638-.638V47.168a.639.639,0,0,1,.638-.638h1.4a.639.639,0,0,1,.637.638Zm0-8.763a.639.639,0,0,1-.637.638h-1.4a.639.639,0,0,1-.638-.638V38.4a.639.639,0,0,1,.638-.638h1.4a.639.639,0,0,1,.637.638Zm0-8.763a.639.639,0,0,1-.637.637h-1.4a.639.639,0,0,1-.638-.637V29.641A.639.639,0,0,1,138.65,29h1.4a.639.639,0,0,1,.637.638Zm5.341,17.526a.639.639,0,0,1-.638.638h-1.4a.639.639,0,0,1-.637-.638V47.168a.639.639,0,0,1,.637-.638h1.4a.639.639,0,0,1,.638.638Zm0-8.763a.639.639,0,0,1-.638.638h-1.4a.639.639,0,0,1-.637-.638V38.4a.639.639,0,0,1,.637-.638h1.4a.639.639,0,0,1,.638.638Zm0-8.763a.639.639,0,0,1-.638.637h-1.4a.639.639,0,0,1-.637-.637V29.641a.639.639,0,0,1,.637-.638h1.4a.639.639,0,0,1,.638.638Zm5.342,17.526a.64.64,0,0,1-.638.638h-1.4a.639.639,0,0,1-.637-.638V47.168a.639.639,0,0,1,.637-.638h1.4a.64.64,0,0,1,.638.638Zm0-8.763a.64.64,0,0,1-.638.638h-1.4a.639.639,0,0,1-.637-.638V38.4a.639.639,0,0,1,.637-.638h1.4a.64.64,0,0,1,.638.638Zm0-8.763a.639.639,0,0,1-.638.637h-1.4a.639.639,0,0,1-.637-.637V29.641a.639.639,0,0,1,.637-.638h1.4a.64.64,0,0,1,.638.638Zm5.341,17.526a.64.64,0,0,1-.638.638h-1.4a.64.64,0,0,1-.638-.638V47.168a.64.64,0,0,1,.638-.638h1.4a.64.64,0,0,1,.638.638Zm0-8.763a.64.64,0,0,1-.638.638h-1.4a.64.64,0,0,1-.638-.638V38.4a.64.64,0,0,1,.638-.638h1.4a.64.64,0,0,1,.638.638Zm0-8.763a.639.639,0,0,1-.638.637h-1.4a.64.64,0,0,1-.638-.637V29.641a.64.64,0,0,1,.638-.638h1.4a.64.64,0,0,1,.638.638Z" transform="translate(-80.135 -12.439)" fill="#5b8dcd"/>
        <path id="パス_1587" data-name="パス 1587" d="M153.97,24.664a.639.639,0,0,1-.638-.638V21.581a.64.64,0,0,0-.638-.638h-10.67a.64.64,0,0,0-.638.638v2.445a.639.639,0,0,1-.637.638h-5.188a.64.64,0,0,0-.638.638V61.289a.64.64,0,0,0,.638.638h7.78a.64.64,0,0,0,.638-.638V55.841a.64.64,0,0,1,.638-.638H150.1a.64.64,0,0,1,.639.638v5.448a.639.639,0,0,0,.638.638h7.779a.64.64,0,0,0,.639-.638V25.3a.64.64,0,0,0-.639-.638ZM140.682,50.232a.639.639,0,0,1-.637.638h-1.4a.639.639,0,0,1-.638-.638V47.168a.639.639,0,0,1,.638-.638h1.4a.639.639,0,0,1,.637.638Zm0-8.763a.639.639,0,0,1-.637.638h-1.4a.639.639,0,0,1-.638-.638V38.4a.639.639,0,0,1,.638-.638h1.4a.639.639,0,0,1,.637.638Zm0-8.763a.639.639,0,0,1-.637.637h-1.4a.639.639,0,0,1-.638-.637V29.641A.639.639,0,0,1,138.65,29h1.4a.639.639,0,0,1,.637.638Zm5.341,17.526a.639.639,0,0,1-.638.638h-1.4a.639.639,0,0,1-.637-.638V47.168a.639.639,0,0,1,.637-.638h1.4a.639.639,0,0,1,.638.638Zm0-8.763a.639.639,0,0,1-.638.638h-1.4a.639.639,0,0,1-.637-.638V38.4a.639.639,0,0,1,.637-.638h1.4a.639.639,0,0,1,.638.638Zm0-8.763a.639.639,0,0,1-.638.637h-1.4a.639.639,0,0,1-.637-.637V29.641a.639.639,0,0,1,.637-.638h1.4a.639.639,0,0,1,.638.638Zm5.342,17.526a.64.64,0,0,1-.638.638h-1.4a.639.639,0,0,1-.637-.638V47.168a.639.639,0,0,1,.637-.638h1.4a.64.64,0,0,1,.638.638Zm0-8.763a.64.64,0,0,1-.638.638h-1.4a.639.639,0,0,1-.637-.638V38.4a.639.639,0,0,1,.637-.638h1.4a.64.64,0,0,1,.638.638Zm0-8.763a.639.639,0,0,1-.638.637h-1.4a.639.639,0,0,1-.637-.637V29.641a.639.639,0,0,1,.637-.638h1.4a.64.64,0,0,1,.638.638Zm5.341,17.526a.64.64,0,0,1-.638.638h-1.4a.64.64,0,0,1-.638-.638V47.168a.64.64,0,0,1,.638-.638h1.4a.64.64,0,0,1,.638.638Zm0-8.763a.64.64,0,0,1-.638.638h-1.4a.64.64,0,0,1-.638-.638V38.4a.64.64,0,0,1,.638-.638h1.4a.64.64,0,0,1,.638.638Zm0-8.763a.639.639,0,0,1-.638.637h-1.4a.64.64,0,0,1-.638-.637V29.641a.64.64,0,0,1,.638-.638h1.4a.64.64,0,0,1,.638.638Z" transform="translate(-80.135 -12.439)" fill="none" stroke="#fff" stroke-miterlimit="10" stroke-width="1"/>
      </g>
    </g>
  </g>
</svg>
