<svg id="コンポーネント_72_1" data-name="コンポーネント 72 – 1" xmlns="http://www.w3.org/2000/svg" xmlns:xlink="http://www.w3.org/1999/xlink" width="120.967" height="120.897" viewBox="0 0 120.967 120.897">
  <defs>
    <clipPath id="clip-path">
      <rect id="長方形_1535" data-name="長方形 1535" width="120.967" height="120.897" fill="#cbdaee"/>
    </clipPath>
  </defs>
  <g id="グループ_1659" data-name="グループ 1659" transform="translate(14.156 14.44)">
    <circle id="楕円形_12" data-name="楕円形 12" cx="46.447" cy="46.447" r="46.447" fill="#fff" opacity="0.86"/>
    <path id="多角形_8" data-name="多角形 8" d="M11.5,0,23,20.348H0Z" transform="translate(61.045 35.388) rotate(90)" fill="#ff1901"/>
  </g>
  <g id="グループ_1702" data-name="グループ 1702">
    <g id="グループ_1701" data-name="グループ 1701" clip-path="url(#clip-path)">
      <path id="パス_829" data-name="パス 829" d="M46.885,1.588a10.54,10.54,0,0,1,1.823-.529c2.638-.522,3.187,1.129,3.315,1.772C52.4,4.75,51,5.74,49.558,6.027a3.418,3.418,0,0,1-.852.09l.665,3.356-.889.176Zm1.675,3.79a3.328,3.328,0,0,0,.874-.084c1.287-.255,1.942-1.053,1.711-2.221s-1.17-1.518-2.285-1.3a4.887,4.887,0,0,0-.959.278Z" transform="translate(-0.294 -0.006)" fill="#cbdaee"/>
      <path id="パス_830" data-name="パス 830" d="M59.718,8.176l-4.339.3L54.8.17l.9-.063.524,7.533L59.664,7.4Z" transform="translate(-0.344 -0.001)" fill="#cbdaee"/>
      <path id="パス_831" data-name="パス 831" d="M67.617,8.555l-.96-.063-.717-2.752-2.89-.189L62,8.187l-.927-.06L64.366,0l1.045.068ZM65.8,5.009l-.657-2.517c-.137-.578-.244-1.111-.322-1.609l-.033,0c-.141.495-.329,1.007-.515,1.52l-.992,2.443Z" transform="translate(-0.383)" fill="#cbdaee"/>
      <path id="パス_832" data-name="パス 832" d="M76.179,1.755,72.606,5.877l-.713,3.5L71,9.2l.71-3.479L70.184.533,71.2.741l.67,2.511c.187.674.336,1.251.462,1.889l.032.007c.337-.5.728-1,1.179-1.566l1.641-2.029Z" transform="translate(-0.44 -0.003)" fill="#cbdaee"/>
      <path id="パス_833" data-name="パス 833" d="M86.514,14.719l-.814-.376,1.381-3.494c.44-1.11,1.007-2.547,1.373-3.316l-.03-.014c-.642.739-1.38,1.53-2.233,2.415l-3.1,3.17-.606-.278.451-4.3c.137-1.262.288-2.348.483-3.318L83.388,5.2c-.445.914-1.081,2.139-1.687,3.268L79.959,11.7l-.785-.362L83.19,4.01l1.014.467-.441,4.458c-.117,1.089-.24,2.008-.4,2.885l.03.014c.542-.679,1.166-1.354,1.953-2.171l3.153-3.207,1.032.476Z" transform="translate(-0.497 -0.025)" fill="#cbdaee"/>
      <path id="パス_834" data-name="パス 834" d="M96.372,16.312c-1.682,2.4-3.854,2.637-5.464,1.506-1.69-1.186-1.955-3.361-.46-5.489,1.557-2.219,3.766-2.684,5.474-1.485,1.745,1.223,1.893,3.409.449,5.467M91.24,12.858c-1.017,1.449-1.258,3.39.129,4.363,1.4.985,3.107.137,4.2-1.419.961-1.369,1.345-3.343-.114-4.366-1.5-1.054-3.2-.028-4.214,1.422" transform="translate(-0.561 -0.064)" fill="#cbdaee"/>
      <path id="パス_835" data-name="パス 835" d="M105.325,19.05,97.49,23.086l-.695-.665,3.854-7.836.712.681-1.967,3.9c-.527,1.056-1.031,2.025-1.546,2.881l.023.022a32.029,32.029,0,0,1,2.85-1.632l3.9-2.065Z" transform="translate(-0.607 -0.091)" fill="#cbdaee"/>
      <rect id="長方形_1531" data-name="長方形 1531" width="8.33" height="0.907" transform="translate(100.019 26.325) rotate(-40.335)" fill="#cbdaee"/>
      <path id="パス_836" data-name="パス 836" d="M105.425,32.83l-2.505-3.609,6.84-4.748,2.4,3.455-.628.437-1.882-2.712-2.316,1.608,1.77,2.55-.619.43-1.77-2.55-2.648,1.838,1.988,2.864Z" transform="translate(-0.645 -0.153)" fill="#cbdaee"/>
      <path id="パス_837" data-name="パス 837" d="M119.727,45.562a10.594,10.594,0,0,1,.564,1.813c.574,2.625-1.066,3.209-1.706,3.349-1.911.418-2.928-.959-3.244-2.4a3.469,3.469,0,0,1-.107-.85l-3.342.73-.193-.885Zm-3.756,1.751a3.3,3.3,0,0,0,.1.872c.28,1.281,1.09,1.921,2.254,1.665s1.494-1.2,1.251-2.309a4.8,4.8,0,0,0-.3-.953Z" transform="translate(-0.701 -0.286)" fill="#cbdaee"/>
      <path id="パス_838" data-name="パス 838" d="M113.4,58.522l-.387-4.333,8.3-.739.08.9-7.523.67.305,3.43Z" transform="translate(-0.709 -0.335)" fill="#cbdaee"/>
      <path id="パス_839" data-name="パス 839" d="M113.19,66.421l.043-.96,2.737-.775.128-2.894L113.44,60.8l.041-.928,8.2,3.12-.047,1.048Zm3.508-1.889,2.5-.71c.575-.149,1.105-.267,1.6-.355v-.033c-.5-.131-1.015-.307-1.532-.484l-2.463-.941Z" transform="translate(-0.71 -0.376)" fill="#cbdaee"/>
      <path id="パス_840" data-name="パス 840" d="M120.158,74.853l-4.195-3.492-3.515-.644.163-.893,3.495.642,5.154-1.634-.187,1.022-2.5.719c-.67.2-1.244.362-1.88.5l-.006.033c.507.326,1.015.708,1.589,1.147l2.063,1.6Z" transform="translate(-0.705 -0.432)" fill="#cbdaee"/>
      <path id="パス_841" data-name="パス 841" d="M107.4,85.453l.358-.822,3.521,1.307c1.119.416,2.567.952,3.345,1.3l.013-.03c-.753-.626-1.559-1.347-2.46-2.182L108.946,82l.265-.611,4.3.361c1.264.109,2.353.238,3.327.412l.013-.031c-.923-.426-2.16-1.037-3.3-1.618l-3.266-1.673.345-.792,7.406,3.86-.445,1.022-4.464-.347c-1.092-.093-2.013-.2-2.892-.342l-.014.03c.689.527,1.377,1.137,2.212,1.906l3.271,3.083-.455,1.042Z" transform="translate(-0.674 -0.489)" fill="#cbdaee"/>
      <path id="パス_842" data-name="パス 842" d="M106.016,95.348c-2.43-1.634-2.713-3.8-1.616-5.43,1.153-1.714,3.321-2.021,5.478-.57,2.249,1.511,2.759,3.711,1.594,5.443-1.189,1.768-3.371,1.96-5.457.557m3.351-5.2c-1.47-.988-3.414-1.189-4.359.217-.957,1.423-.076,3.109,1.5,4.17,1.387.933,3.369,1.276,4.362-.2,1.024-1.523-.037-3.2-1.505-4.185" transform="translate(-0.651 -0.555)" fill="#cbdaee"/>
      <path id="パス_843" data-name="パス 843" d="M103.461,104.357l-4.2-7.748.652-.709,7.911,3.691-.666.725-3.942-1.885c-1.066-.5-2.047-.99-2.911-1.487l-.022.023a32.091,32.091,0,0,1,1.689,2.816l2.143,3.857Z" transform="translate(-0.623 -0.601)" fill="#cbdaee"/>
      <rect id="長方形_1532" data-name="長方形 1532" width="0.907" height="8.332" transform="translate(94.729 99.783) rotate(-41.493)" fill="#cbdaee"/>
      <path id="パス_844" data-name="パス 844" d="M89.7,104.725l3.554-2.579,4.887,6.736-3.4,2.469-.449-.619,2.67-1.937-1.655-2.281L92.8,108.337l-.442-.61,2.51-1.822L92.972,103.3l-2.82,2.046Z" transform="translate(-0.563 -0.641)" fill="#cbdaee"/>
      <path id="パス_845" data-name="パス 845" d="M77.307,119.291a10.542,10.542,0,0,1-1.8.6c-2.614.63-3.232-1-3.386-1.636-.458-1.9.9-2.949,2.333-3.3a3.411,3.411,0,0,1,.846-.125l-.8-3.327.881-.214Zm-1.83-3.72a3.3,3.3,0,0,0-.871.119c-1.275.308-1.9,1.133-1.618,2.292s1.23,1.469,2.337,1.2a4.8,4.8,0,0,0,.946-.319Z" transform="translate(-0.452 -0.698)" fill="#cbdaee"/>
      <path id="パス_846" data-name="パス 846" d="M64.2,113.233l4.327-.476.912,8.284-.9.1-.827-7.513-3.424.378Z" transform="translate(-0.403 -0.707)" fill="#cbdaee"/>
      <path id="パス_847" data-name="パス 847" d="M56.3,113.188l.962.022.833,2.722,2.9.069.937-2.68.93.022L59.9,121.607l-1.049-.024Zm1.964,3.469.762,2.49c.162.572.291,1.1.389,1.595h.033c.121-.5.286-1.021.452-1.542l.89-2.483Z" transform="translate(-0.353 -0.71)" fill="#cbdaee"/>
      <path id="パス_848" data-name="パス 848" d="M48.012,120.333l3.4-4.269.57-3.531.9.145-.566,3.509,1.743,5.123-1.026-.166-.774-2.484c-.213-.666-.387-1.237-.54-1.87l-.032,0c-.315.513-.687,1.03-1.114,1.615l-1.557,2.1Z" transform="translate(-0.301 -0.706)" fill="#cbdaee"/>
      <path id="パス_849" data-name="パス 849" d="M37.131,107.8l.829.341-1.232,3.548c-.393,1.128-.9,2.587-1.232,3.372l.031.012c.61-.765,1.315-1.587,2.129-2.506l2.963-3.3.617.253-.27,4.31c-.082,1.267-.188,2.358-.341,3.336l.03.012c.406-.932.991-2.182,1.548-3.336l1.6-3.3.8.329-3.7,7.486-1.031-.423.252-4.471c.071-1.093.155-2.017.28-2.9l-.03-.011c-.513.7-1.108,1.4-1.858,2.25L35.5,116.14l-1.051-.432Z" transform="translate(-0.216 -0.676)" fill="#cbdaee"/>
      <path id="パス_850" data-name="パス 850" d="M27.218,106.619c1.586-2.466,3.747-2.794,5.4-1.73,1.739,1.118,2.091,3.282.684,5.472-1.466,2.283-3.657,2.838-5.415,1.709-1.795-1.153-2.032-3.335-.673-5.452m5.276,3.246c.958-1.492,1.119-3.442-.308-4.359-1.445-.928-3.113-.01-4.143,1.591-.9,1.408-1.207,3.4.292,4.362,1.547.994,3.2-.1,4.159-1.594" transform="translate(-0.165 -0.654)" fill="#cbdaee"/>
      <path id="パス_851" data-name="パス 851" d="M18.162,104.252,25.823,99.9l.722.637-3.528,7.986-.738-.651,1.8-3.98c.482-1.076.947-2.067,1.427-2.941l-.025-.022a31.672,31.672,0,0,1-2.78,1.748L18.891,104.9Z" transform="translate(-0.114 -0.627)" fill="#cbdaee"/>
      <rect id="長方形_1533" data-name="長方形 1533" width="8.332" height="0.907" transform="translate(15.727 101.084) rotate(-42.692)" fill="#cbdaee"/>
      <path id="パス_852" data-name="パス 852" d="M17.5,90.51l2.658,3.5-6.632,5.038L10.978,95.7l.61-.463,2,2.628,2.245-1.705-1.877-2.472.6-.456L16.431,95.7,19,93.749l-2.11-2.776Z" transform="translate(-0.069 -0.568)" fill="#cbdaee"/>
      <path id="パス_853" data-name="パス 853" d="M2.685,78.417a10.525,10.525,0,0,1-.642-1.787c-.686-2.6.928-3.251,1.563-3.418,1.891-.5,2.966.833,3.343,2.26a3.416,3.416,0,0,1,.143.844l3.308-.873.233.877Zm3.679-1.909a3.318,3.318,0,0,0-.139-.869C5.89,74.373,5.053,73.768,3.9,74.072s-1.442,1.262-1.152,2.362a4.792,4.792,0,0,0,.339.939Z" transform="translate(-0.012 -0.459)" fill="#cbdaee"/>
      <path id="パス_854" data-name="パス 854" d="M8.458,65.16l.566,4.315L.764,70.562l-.118-.9,7.492-.985-.449-3.414Z" transform="translate(-0.004 -0.409)" fill="#cbdaee"/>
      <path id="パス_855" data-name="パス 855" d="M8.4,57.266l-.016.962-2.716.851-.048,2.9L8.3,62.9l-.016.93L0,60.931l.018-1.048ZM4.939,59.253l-2.484.778c-.571.166-1.1.3-1.593.4v.033c.5.117,1.025.279,1.546.441l2.49.872Z" transform="translate(0 -0.359)" fill="#cbdaee"/>
      <path id="パス_856" data-name="パス 856" d="M1.032,49.145l4.338,3.312,3.541.5-.126.9-3.518-.493L.183,55.209l.143-1.03,2.466-.825c.662-.227,1.229-.412,1.859-.578l0-.032c-.52-.305-1.043-.666-1.637-1.08L.891,50.153Z" transform="translate(-0.001 -0.308)" fill="#cbdaee"/>
      <path id="パス_857" data-name="パス 857" d="M13.314,38.019l-.323.836L9.421,37.7c-1.134-.369-2.6-.844-3.393-1.161l-.013.031c.778.593,1.614,1.28,2.549,2.075l3.356,2.892-.241.621-4.311-.181c-1.267-.056-2.359-.138-3.339-.271l-.011.03c.939.388,2.2.945,3.364,1.479l3.331,1.534-.312.8L2.845,42l.4-1.039,4.472.161c1.094.049,2.017.112,2.9.221l.012-.031c-.71-.5-1.423-1.078-2.287-1.811l-3.4-2.942L5.36,35.5Z" transform="translate(-0.018 -0.223)" fill="#cbdaee"/>
      <path id="パス_858" data-name="パス 858" d="M14.32,28.06c2.5,1.532,2.867,3.684,1.837,5.359-1.08,1.76-3.234,2.155-5.449.795C8.4,32.8,7.8,30.621,8.892,28.842c1.115-1.816,3.287-2.1,5.429-.782m-3.133,5.332c1.508.927,3.459,1.047,4.346-.4.9-1.462-.053-3.108-1.672-4.1-1.424-.875-3.417-1.138-4.35.38-.96,1.565.168,3.193,1.676,4.119" transform="translate(-0.052 -0.171)" fill="#cbdaee"/>
      <path id="パス_859" data-name="パス 859" d="M16.482,18.986l4.508,7.557-.621.734-8.046-3.356.635-.751,4.011,1.717c1.085.46,2.083.9,2.967,1.364l.02-.025a32.056,32.056,0,0,1-1.8-2.74l-2.3-3.759Z" transform="translate(-0.077 -0.119)" fill="#cbdaee"/>
      <rect id="長方形_1534" data-name="長方形 1534" width="0.907" height="8.327" transform="translate(18.277 17.077) rotate(-43.802)" fill="#cbdaee"/>
      <path id="パス_860" data-name="パス 860" d="M30.233,18l-3.444,2.724L21.624,14.2l3.3-2.61.475.6L22.81,14.237l1.749,2.21,2.433-1.925.468.591-2.433,1.924,2,2.528L29.758,17.4Z" transform="translate(-0.136 -0.073)" fill="#cbdaee"/>
    </g>
  </g>
</svg>
