<svg xmlns="http://www.w3.org/2000/svg" xmlns:xlink="http://www.w3.org/1999/xlink" width="118" height="118" viewBox="0 0 118 118">
  <defs>
    <clipPath id="clip-path">
      <rect id="長方形_2028" data-name="長方形 2028" width="75.212" height="57.453" fill="none"/>
    </clipPath>
  </defs>
  <g id="グループ_2430" data-name="グループ 2430" transform="translate(-500 -8769)">
    <circle id="楕円形_21" data-name="楕円形 21" cx="59" cy="59" r="59" transform="translate(500 8769)" fill="#fff"/>
    <g id="グループ_2073" data-name="グループ 2073" transform="translate(521 8799.5)">
      <g id="グループ_2073-2" data-name="グループ 2073" transform="translate(0 0)" clip-path="url(#clip-path)">
        <path id="パス_1559" data-name="パス 1559" d="M97.59,0H61.523A2.119,2.119,0,0,0,59.4,2.12v33.3a2.119,2.119,0,0,0,2.119,2.12H97.59a2.12,2.12,0,0,0,2.12-2.12V2.12A2.12,2.12,0,0,0,97.59,0" transform="translate(-24.499 0)" fill="#5b8dcd"/>
        <path id="パス_1560" data-name="パス 1560" d="M24.159,73.474a7.14,7.14,0,1,0,7.14,7.139,7.141,7.141,0,0,0-7.14-7.139m0,10.354a3.214,3.214,0,1,1,3.213-3.215,3.214,3.214,0,0,1-3.213,3.215" transform="translate(-7.019 -30.301)" fill="#5b8dcd"/>
        <path id="パス_1561" data-name="パス 1561" d="M95.939,73.474a7.14,7.14,0,1,0,7.14,7.139,7.14,7.14,0,0,0-7.14-7.139m0,10.354a3.214,3.214,0,1,1,3.213-3.215,3.214,3.214,0,0,1-3.213,3.215" transform="translate(-36.622 -30.301)" fill="#5b8dcd"/>
        <path id="パス_1562" data-name="パス 1562" d="M29.4,17.044h-16.1a1.761,1.761,0,0,0-1.356.636L.41,31.513A1.759,1.759,0,0,0,0,32.644V51.121a1.767,1.767,0,0,0,1.767,1.767H7.179a10.906,10.906,0,0,1,19.923,0h4.065V18.811A1.768,1.768,0,0,0,29.4,17.044M6.454,32.826a1.821,1.821,0,0,1,.408-1.149l7.36-9.063a1.824,1.824,0,0,1,1.416-.674h7.209a1.822,1.822,0,0,1,1.822,1.823V34.047a1.821,1.821,0,0,1-1.822,1.822H8.274a1.822,1.822,0,0,1-1.821-1.822Z" transform="translate(0 -7.029)" fill="#5b8dcd"/>
        <path id="パス_1563" data-name="パス 1563" d="M60.186,69.587a.993.993,0,0,0-.994.995v2.982a.993.993,0,0,0,.994.994H73.768a10.975,10.975,0,0,1,4.469-4.97Z" transform="translate(-24.411 -28.698)" fill="#5b8dcd"/>
        <path id="パス_1564" data-name="パス 1564" d="M119.58,69.587H110.3a10.972,10.972,0,0,1,4.469,4.97h4.814a.993.993,0,0,0,.994-.994V70.582a.993.993,0,0,0-.994-.995" transform="translate(-45.487 -28.698)" fill="#5b8dcd"/>
      </g>
    </g>
  </g>
</svg>
