<svg xmlns="http://www.w3.org/2000/svg" width="626.6" height="89.906" viewBox="0 0 626.6 89.906">
  <g id="グループ_2435" data-name="グループ 2435" transform="translate(-112.2 -228.6)">
    <path id="パス_1986" data-name="パス 1986" d="M53.5-44c2,0,2.8.9,2.8,2.8v30.6c0,2-.8,2.8-2.8,2.8H47.8c-3.7,0-7.4-.3-11.2-.3-2.5,0-2.5,1-2.5,5.2,0,3.9,0,5.1,2.4,5.1,3.8,0,7.6-.3,11.3-.3H75.7c3.8,0,7.5.3,11.3.3,2.5,0,2.4-1.1,2.4-5.1s.1-5.2-2.4-5.2c-3.8,0-7.5.3-11.3.3H69.5c-2,0-2.8-.8-2.8-2.8V-41.2c0-1.9.8-2.8,2.8-2.8H80.6c3.8,0,7.6.3,11.4.3,2.5,0,2.4-1.2,2.4-5.1,0-3.8.1-5.1-2.4-5.1-3.8,0-7.6.2-11.4.2H69.5c-2,0-2.8-.8-2.8-2.7V-73.2c0-4.1.1-5.1,1.4-5.9.8-.6,1.6-1,1.6-1.8,0-1-1-1.3-1.8-1.3-1.6-.2-8.9-.8-10.2-.8-1.1,0-1.7.3-1.7,1.5a3.085,3.085,0,0,0,.1.9c.2,1.9.2,4.9.2,7.8v16.4c0,1.9-.8,2.7-2.8,2.7H44.8c-3.8,0-7.6-.2-11.4-.2-2.5,0-2.4,1.2-2.4,5.1s-.1,5.1,2.4,5.1c3.8,0,7.6-.3,11.4-.3ZM17.2-10.5C17.2-6,17-1.4,17,3.1,17,6,18.1,6,22.2,6c4.2,0,5.3,0,5.3-2.9,0-4.5-.3-9.1-.3-13.6V-47.6c0-3.3.1-5.1,1.2-5.9.6-.4,1.1-.7,1.1-1.4,0-1-1.2-1.1-2-1.2-.5-.1-.9-.3-.9-.9a1.087,1.087,0,0,1,.1-.5,139.359,139.359,0,0,0,9-17.1c.9-2,.9-2,2.5-2.6.6-.2,1.4-.7,1.4-1.4,0-1.3-2.7-2.1-4-2.6s-5.4-2.2-6.6-2.2c-1.3,0-1.6,1-1.9,2-4.7,14.2-12.8,25-21.3,35.6a5.219,5.219,0,0,0-1.6,3c0,1.7,3.6,7.4,5.5,7.4,1.4,0,3.3-2.4,4.8-4.3l1.1-1.4a.891.891,0,0,1,.8-.5c.6,0,.8.6.8,1.1ZM210.3-75a5.274,5.274,0,0,0,.3,1.2,63.559,63.559,0,0,1,1.9,6.6c1,4.1,3.8,14.7,5,18.3a3.424,3.424,0,0,1,.4,1.8,3.1,3.1,0,0,1-1.7,2.6c-8.3,5.4-17.3,12.5-17.3,23.4a17.6,17.6,0,0,0,9.2,15.4c6.6,3.9,13.1,4.3,20.5,4.3,4.8,0,23.7-.6,27.5-1.6,2-.5,2.1-1.6,2.1-4.2V-8.4c0-2.1-.1-6.2-1.5-6.2a2.769,2.769,0,0,0-.9.1,150.92,150.92,0,0,1-26.1,2.6,39.962,39.962,0,0,1-13.3-1.8c-3.1-1.1-6.6-3.6-6.6-7.2,0-3.8,2.3-6.5,4.9-9,4.2-4,12.7-8.9,18-11.8,6.8-3.7,17.5-9.1,24.7-11.5.8-.3,1.9-.6,1.9-1.6,0-1.4-2.1-4.8-2.9-6.1-.6-1-2.3-4-3.6-4a6.4,6.4,0,0,0-2.6,1c-2.6,1.7-18.6,11.1-20.4,11.1-1.7,0-2-1.7-2.3-3a136.751,136.751,0,0,1-3.1-17.9c-.2-2.3,0-3.8-2.8-3.8a37.128,37.128,0,0,0-4.8.5C213.6-76.5,210.3-76.5,210.3-75Zm88.6,16.1c-3.6.5-6.5.9-8.6,1.1-5.2.6-6.6.8-6.6,2.7,0,1.2.6,4.6.8,6,.2,1.2.8,2.4,2.1,2.4.6,0,11.8-1.8,13.6-2.1l8.8-1.3a2.936,2.936,0,0,1,3.5,2.5l2,10.9a2.524,2.524,0,0,1-2.2,3.1l-17.2,2.5c-3.5.5-6.2.8-8.2,1-5.3.5-6.6.7-6.6,2.6a46.308,46.308,0,0,0,1,6.5c.3,1.2.7,2,2.1,2,.9,0,11.2-1.8,13.1-2.1l17.6-2.5a3.1,3.1,0,0,1,3.4,2.4l1.3,7c.7,3.9,1.6,9,2.3,13a5.019,5.019,0,0,1,.2,1.2c.3,2.2.5,4.1,2.4,4.1a38.186,38.186,0,0,0,6.6-1.2c1.1-.4,2.2-.7,2.2-2.1,0-1.5-2.9-14.3-3.4-17l-1.2-6.6a2.522,2.522,0,0,1,2.1-3.1l15.8-2.3c3.4-.5,6-.8,8-1,6.1-.7,7.1-.9,7.1-3.1,0-.8-.2-2.2-.3-3.1-.1-.5-.1-.9-.2-1.3-.3-2.2-.5-3.7-2.4-3.7-.5,0-11.9,2-13.6,2.2l-16.2,2.3a2.916,2.916,0,0,1-3.3-2.4l-2.1-11a2.566,2.566,0,0,1,2.1-3.1l8.1-1.2c3.2-.5,5.7-.7,7.7-.9,5.8-.7,7.1-.8,7.1-2.9a46.149,46.149,0,0,0-.7-5c-.3-1.5-.4-3.3-2.2-3.3-.6,0-11.6,1.8-13.4,2.1l-8.3,1.2a3.067,3.067,0,0,1-3.3-2.6l-.4-1.7c-.2-1.4-1.2-6.9-1.2-7.9,0-2,1.2-2.7,1.2-3.7,0-.9-1.2-.9-1.8-.9-2.4,0-4.8.1-7.2.2-2.5.1-4.2.1-4.2,1.4a3.545,3.545,0,0,0,.3,1.1c.8,2.6,1.6,7.2,2.2,9.9l.5,2.3a9.971,9.971,0,0,1,.2,1.6,2.59,2.59,0,0,1-2.2,2.6Zm90.7,19c-2,.4-3.6.7-5,.9-5.9,1-6.9,1.2-6.9,2.8a37.128,37.128,0,0,0,1.1,5.8c.4.9.8,1.5,1.9,1.5.4,0,9.2-1.8,10.5-2.1l7.2-1.5c.1,0,.5-.1.7-.1a2.676,2.676,0,0,1,2.7,2.2L406-10c.5,2.4.8,4.5,1.1,6.1.7,4.7,1.2,6.6,3,6.6a31.035,31.035,0,0,0,5-.9c1.6-.5,2.4-.8,2.4-2.1,0-1.6-1.9-9.4-2.4-11.6l-4.2-20.4V-33a2.682,2.682,0,0,1,2.2-2.6l11.5-2.3a3.6,3.6,0,0,1,1.1-.2,1.11,1.11,0,0,1,1.1,1.1c0,.9-5.7,8.2-6.7,9.3-.4.6-1.2,1.4-1.2,2.2,0,1.9,5.4,4,6.8,4a2.609,2.609,0,0,0,2.1-1.1c1.1-1.1,5.1-7.2,6.2-8.9a69.669,69.669,0,0,1,7.2-9.7,2.525,2.525,0,0,0,1.1-1.9c0-1.9-4.8-6.2-6.4-6.2-.1,0-7.5,1.6-8.5,1.8l-16.2,3.3a2.659,2.659,0,0,1-3.2-2.2l-.9-4.5a68.626,68.626,0,0,1-1.3-6.9,2.46,2.46,0,0,1,.4-1.1,3.545,3.545,0,0,0,.3-1.1c0-1.4-1.7-1.5-2.8-1.5-2,0-4.8.2-6.8.4-.7.1-1.6.3-1.6,1.2,0,.2.5,1.8.9,3.7.7,2.9,1.5,6.4,1.6,6.9l1,4.6a2.7,2.7,0,0,1-2.2,3.4ZM524.7-68.7c0-1.6.1-3.7.7-4.3.5-.5.9-.8.9-1.4,0-.9-1.2-1-2-1.2a87.381,87.381,0,0,0-9.9-1c-.8,0-1.2.2-1.2,1a9.849,9.849,0,0,0,.2,1.7,53.108,53.108,0,0,1,.3,6.9v21.7A125.07,125.07,0,0,1,512.5-26c-1.7,11.3-8,17-17.8,22.1-.8.4-2.7,1.2-2.7,2.1C492,0,498.9,5,500.4,5c1.8,0,9.3-5.6,11-7,7.5-6.2,10.9-13.7,12.2-23.2a152.022,152.022,0,0,0,1.1-21.3Zm-39.2,9.3c0-2.3-.1-4.1-.1-5.6,0-3.1.2-4.6,1.1-5.8a2.22,2.22,0,0,0,.5-1.1c0-.9-1.4-.9-3.5-1.3-1.4-.2-7.6-1.1-8.6-1.1-.7,0-.9.3-.9,1,0,.6.1,1.2.1,1.8.1,2.6.3,5.2.3,7.9v21.1c0,4.7-.3,9.3-.3,14,0,2.7,1.3,3,6,3s5.6-.4,5.6-3.5c0-4.5-.2-9.1-.2-13.6Zm98.6,6.7c-1,0-1,.5-1,1.3a53.629,53.629,0,0,1-1.6,14.9A47.368,47.368,0,0,1,560.6-7.4c-1.4.9-2.4,1.3-2.4,2.2,0,1.8,6.5,7,8.2,7,1.1,0,2.5-1.2,3.3-1.8,14.9-11.5,21.1-24.2,24-42.5.3-1.9.7-5.8,2-7.2a1.524,1.524,0,0,0,.6-1c0-1.1-1.4-1.1-2.1-1.2C592.7-52.1,585.4-52.7,584.1-52.7ZM566.6-67.9c-4.6,0-9.2-.2-13.8-.2-2.3,0-2.5,1.2-2.5,3.8v2c0,4,.1,5.1,2.7,5.1,4.5,0,9-.3,13.6-.3h42.9c.9,0,3.1-.2,3.1,1.2s-11.1,11.2-12.9,12.8c-.7.6-2.5,2-2.5,3,0,1.7,5.6,6.1,7.3,6.1,1,0,1.7-.8,2.4-1.4,3.7-3.3,8.9-8.4,12.4-12,1.2-1.3,8.7-9.1,9.3-9.6.8-.6,2.2-1.6,2.2-2.7,0-1.8-2.5-4.5-3.7-5.8s-2.2-2.6-3.7-2.6a5.283,5.283,0,0,0-1.3.1,71.759,71.759,0,0,1-10.4.5Z" transform="translate(108 312)" fill="#396cae"/>
    <path id="パス_1987" data-name="パス 1987" d="M55.2-53a2.311,2.311,0,0,1,2.4-2.4H67.7A2.311,2.311,0,0,1,70.1-53v.6A2.311,2.311,0,0,1,67.7-50H57.6a2.311,2.311,0,0,1-2.4-2.4ZM42.4-55.4A2.311,2.311,0,0,1,44.8-53v.6A2.311,2.311,0,0,1,42.4-50H32.3a2.311,2.311,0,0,1-2.4-2.4V-53a2.311,2.311,0,0,1,2.4-2.4ZM70.7-21.7a1.967,1.967,0,0,1,1.9,1.9v.5a1.784,1.784,0,0,1-1.9,1.9H57.1a1.784,1.784,0,0,1-1.9-1.9v-.5a1.967,1.967,0,0,1,1.9-1.9ZM55.2-30.4a1.967,1.967,0,0,1,1.9-1.9H70.7a1.967,1.967,0,0,1,1.9,1.9v.4a1.784,1.784,0,0,1-1.9,1.9H57.1A1.784,1.784,0,0,1,55.2-30ZM83-30.8c0-1.4.2-2.9.2-4.4,0-3.1-1.6-4-4.5-4-2.7,0-5.4.2-8.1.2H57.1c-1.4,0-1.9-.6-1.9-1.9v-.5c0-1.4.6-1.9,1.9-1.9h8.3c3.1,0,6.1.1,9.1.1,2.3,0,5.6-.2,5.6-3.2,0-1-.2-1.9-.2-3.6v-5.4c0-1.7.2-2.6.2-3.6,0-3.1-3.4-3.3-5.7-3.3-3,0-6,.2-9,.2H57.1c-1.4,0-1.9-.6-1.9-1.9v-.6c0-1.4.6-1.9,1.9-1.9H77.4c4.1,0,8.3.2,12.4.2,2.3,0,2.2-1.2,2.2-3.9s.1-3.8-2.2-3.8c-4.1,0-8.2.2-12.4.2H58c-1.9,0-2.7-.8-2.7-2.8,0-1.2,0-2.1,1-2.9.7-.5,1.2-.8,1.2-1.4,0-1.2-1.7-1.2-2.7-1.3-1.6-.2-7.4-.8-8.7-.8-1,0-1.8.2-1.8,1.4,0,.2.1.6.1.9.2,1.4.3,2.8.4,4.2-.2,2-.9,2.7-2.8,2.7H22.5c-4.1,0-8.3-.2-12.4-.2-2.2,0-2.2,1-2.2,3.8s0,3.9,2.2,3.9c4.2,0,8.3-.2,12.4-.2H42.9c1.3,0,1.9.5,1.9,1.9v.6a1.654,1.654,0,0,1-1.9,1.9H34.6c-3,0-6-.2-9-.2-2.3,0-5.7.2-5.7,3.3,0,1,.2,1.9.2,3.6V-50c0,1.7-.2,2.6-.2,3.6,0,3,3.4,3.2,5.7,3.2,3,0,6-.1,9-.1h8.3a1.654,1.654,0,0,1,1.9,1.9v.5A1.654,1.654,0,0,1,42.9-39H22.3c-2.5,0-5.1-.2-7.6-.2-1.7,0-1.7.9-1.7,3.5,0,2.7,0,3.6,1.8,3.6,2.5,0,5-.2,7.5-.2H42.9a1.654,1.654,0,0,1,1.9,1.9v.5c0,1.3-.6,1.8-1.9,1.8H20.4c-4.2,0-8.5-.1-12.7-.1-2.1,0-2,1.2-2,3.3s-.1,3.4,1.9,3.4c4.3,0,8.6-.2,12.8-.2H42.9a1.654,1.654,0,0,1,1.9,1.9v.6c0,1.3-.6,1.8-1.9,1.8H27.3c-4,0-8.1-.1-12.2-.1-2.3,0-2.4.7-2.4,3.5s.1,3.6,2.4,3.6c4.1,0,8.2-.2,12.2-.2H42c1.9,0,2.6.7,2.8,2.6-.2,3.9-.6,5.2-5.6,5.2-2.4,0-4.3-.4-5.6-.4-1.5,0-1.9.9-1.9,2.3,0,7.9,3.3,7.4,6.1,7.4,7.3,0,17.6-.2,17.6-9.9,0-1,0-3.6-.1-4.6.1-1.9.8-2.6,2.7-2.6H71c.9,0,1.2.5,1.6,1.2.5,1.2,1.9,1.2,4.9,1.2,4.2,0,5.8.1,5.8-2.3,0-1.9-.3-4.5-.3-7.1v-1.3c0-1.8.8-2.7,2.7-2.7,2.1,0,4.2.1,6.3.1,2,0,2-1.1,2-3.4,0-2.1.1-3.3-2-3.3s-4.2,0-6.4.1C83.9-28.2,83.1-29,83-30.8Z" transform="translate(198 312)" fill="#ff1901"/>
  </g>
</svg>
