<?xml version="1.0" encoding="utf-8"?>
<!-- Generator: Adobe Illustrator 28.1.0, SVG Export Plug-In . SVG Version: 6.00 Build 0)  -->
<svg version="1.1" id="レイヤー_1" xmlns="http://www.w3.org/2000/svg" xmlns:xlink="http://www.w3.org/1999/xlink" x="0px"
	 y="0px" viewBox="0 0 1044.8 290.4" style="enable-background:new 0 0 1044.8 290.4;" xml:space="preserve">
<style type="text/css">
	.st0{enable-background:new    ;}
	.st1{fill:#FF1901;}
	.st2{fill:#396CAE;}
</style>
<g class="st0">
	<path class="st1" d="M66.3,147.6l6.1-2.5c1.6-0.3,3-0.2,4.1,0.4c1.1,0.5,1.7,1.1,1.8,1.7c0.1,0.6,0.1,1.5,0,2.7
		c-0.1,1.2-0.4,12.9-1.1,35.2c-0.6,22.3-1,38.8-1.2,49.8c7.5-15.1,16.1-33.7,25.8-55.6c9.7-21.9,15.1-36.3,16.2-43.2
		c0.3-2.2,1-3.9,1.9-5.2c0.9-1.3,1.8-2.1,2.6-2.5c0.8-0.4,2.2-0.7,4-1c1.8-0.3,4-0.3,6.6,0c2.6,0.3,4.1,1.4,4.4,3.2
		c0.6,3.4-2.7,14.2-10,32.3c-7.3,18.1-15.8,37.5-25.6,58.1c-9.8,20.6-18.1,37.1-25,49.3c-1.2,2.2-3,3.5-5.2,3.9
		c-2.2,0.4-4.7,0.4-7.3,0.1c-2.6-0.3-4.1-1.5-4.4-3.5c-1.1-6.4-0.9-38,0.5-95c-7.4,14.1-16,33.5-25.7,58.1
		c-10.2,25.4-15.8,41.1-16.7,46.9c-0.5,3.5-1.3,5.6-2.6,6.4c-0.9,0.6-1.8,0.9-2.9,1.1l-6.7,2c-1.3,0.2-2.6,0.1-3.9-0.5
		c-1.3-0.6-2-1.2-2.1-2.1c-0.4-2.3,1.6-9.8,5.9-22.5c4.4-12.7,9.6-26.6,15.8-41.6c6.2-15.1,12.8-29.8,19.9-44.3
		c7.1-14.5,12.8-24.4,17.1-29.7c0.9-1.1,2-1.8,3.3-2L66.3,147.6z"/>
</g>
<g class="st0">
	<path class="st2" d="M185,124.1l4.1-0.9c1.5-0.3,2.4,0.2,2.6,1.3c0.1,0.3,0,0.6,0,0.8C171,171,152.2,215.6,135,259
		c-0.9,2.3-1.8,3.7-2.8,4.2c-0.1,0-0.3,0.2-0.8,0.5c-2.7,1.6-4.6,2.5-5.8,2.7c-1.2,0.2-1.8,0.3-1.9,0.4c-0.4,0.7-1,1.1-1.7,1.2
		c-0.7,0.1-1.2,0.2-1.4,0.2c-0.2,0-0.9-0.1-2.1-0.3c-1.2-0.2-1.8-0.5-1.8-0.7c-0.5-2.8-0.7-4.6-0.6-5.2c0.5-4.3,5.1-17.1,14-38.4
		c8.8-21.3,17.9-42.1,27.3-62.5c9.4-20.4,15.3-31.9,17.6-34.5c0.7-0.8,1.7-1.3,3.1-1.5L185,124.1z"/>
	<path class="st2" d="M214.7,237.7c-9.1,11.5-21.1,18.6-36.1,21.3c-9.1,1.6-15.9,0.8-20.4-2.3c-2.6-1.7-4.3-5.2-5.3-10.5
		c-1.4-8.1,3.8-14.5,15.8-19c3.8-1.4,8.4-2.6,13.8-3.6c5.5-1,13.1-1.3,22.9-0.9c4.1-6.5,8.6-15.9,13.7-28
		c5.1-12.2,9.1-21.6,12.1-28.2c3-6.6,6.6-13.5,10.6-20.6c4.1-7.1,8.5-13.6,13.2-19.6c9.6-12.2,20-19.3,31.2-21.3
		c5-0.9,8.8-0.3,11.5,1.9c2.7,2.1,4.3,4.9,4.9,8.4c0.6,3.5-0.3,7.8-2.6,12.9c-2.4,5.1-5.3,9.9-8.8,14.1c-3.5,4.3-7.1,8-10.7,11.2
		c-3.6,3.2-6.6,5-8.9,5.4c-2.3,0.4-4.5-0.2-6.5-1.9c-2-1.7-3.2-3.4-3.5-5.3c-0.3-1.8-0.3-3.1,0.1-4c0.4-0.8,0.8-1.3,1.3-1.4
		c0.5-0.1,0.9,0.2,1.1,0.8c1.8-0.9,4.4-3.2,8-7c3.6-3.8,6.7-7.6,9.5-11.5c2.8-3.9,4.1-6.3,3.9-7.1c-0.1-0.8-0.7-1.2-1.7-1
		c-1,0.2-2.3,0.8-4,1.8c-1.6,1-3.7,2.9-6.2,5.5c-2.5,2.7-5.2,6-7.9,10.1c-6.7,9.6-13.7,22.7-21.1,39.4c-1.7,3.8-4.1,9.3-7.2,16.5
		c-6.3,14.6-10.9,24.6-13.8,30.1c31.2,2.6,53.1,2.7,65.9,0.5c5.9-1,9.9-2.5,12-4.5c0.8-0.7,1.3-1,1.6-1.1c0.3-0.1,0.5,0.2,0.6,0.6
		c0.1,0.5-0.1,1.2-0.4,2.2c-0.4,1-1.3,3.2-2.8,6.6s-2.7,5.5-3.6,6.2c-2.5,2.2-7.2,3.9-14,5.1c-6.8,1.2-13.4,1.9-19.8,2
		c-6.4,0.1-11.5,0-15.4-0.3c-3.9-0.3-9.8-0.9-17.6-1.7C222.3,238.5,217.2,238,214.7,237.7z M182,238c-7.6,1.3-11.2,2.9-10.9,4.7
		c0.1,0.7,0.9,1.2,2.3,1.5c1.4,0.3,3,0.3,4.8,0c5.6-1,10.8-3.4,15.5-7.3C189.1,237.1,185.2,237.5,182,238z"/>
	<path class="st2" d="M396.9,90.8c1.1-4.3,2-6.5,2.8-6.7l0.4-0.1c0.9-0.2,2.8,0.5,5.8,1.8c3,1.4,4.6,2.9,4.9,4.5
		c0.4,2.3-3.9,21.1-13,56.5c-9.1,35.4-14.3,55.3-15.8,59.7c-1.5,4.4-2.5,7.3-3.1,8.8c-0.6,1.5-1.4,3.2-2.5,5c-2,3.5-4.8,5.6-8.5,6.3
		c-1.5,0.3-2.8,0.7-3.9,1.3c-1.1,0.6-1.8,0.9-2,0.9c-1.9,0.3-2.9,0.1-3-0.8c0-0.2,0.1-0.9,0.4-2.3c0.3-1.3,4.4-16.6,12.4-45.8
		c-13.7,1.9-25.8,3.6-36.2,5.1c-7.7,14.2-14.4,28.9-20.1,43.9c-0.7,2.1-1.3,3.6-2.1,4.5c-0.7,0.9-1.9,1.5-3.4,1.8
		c-1.5,0.3-3.3-0.2-5.3-1.4c-2-1.2-3.2-2.9-3.6-4.9c-1-5.8,4.3-19.5,15.9-41.2c-7,1.2-11.4,2.2-13.3,2.9c-1.8,0.7-3,1.1-3.5,1.2
		c-1.6,0.3-2.6-0.9-3.1-3.5c-0.5-2.6,0.7-5.2,3.4-7.8c2.8-2.5,6.7-4.3,12-5.2c0.4-0.1,1.1-0.2,2.2-0.5c3.6-0.8,7.2-1.6,11-2.4
		c10-17.1,20.8-33.2,32.4-48.4c11.6-15.1,21.9-26.2,31.1-33.1c1.5-1.1,2.7-1.7,3.7-1.9C394,89.1,395.3,89.6,396.9,90.8z M393,104.2
		c-18.3,19.8-34.5,41.5-48.4,65c10.3-1.6,20.8-3,31.4-4.2C382.6,140.9,388.3,120.6,393,104.2z"/>
	<path class="st2" d="M405.8,216.9l-0.5,0.2c-0.4,0.1-1.3-0.3-2.8-1.3c-1.4-0.9-2.3-1.5-2.7-1.7c-0.3-0.2-0.7-0.4-1.2-0.6
		c-0.5-0.2-0.8-0.4-0.9-0.5c-0.2-0.1-0.4-0.2-0.7-0.4c-0.3-0.2-0.5-0.4-0.6-0.5c-0.1-0.1-0.2-0.3-0.4-0.4c-0.2-0.3-0.4-0.8-0.5-1.5
		c-0.1-0.7-0.1-1.7,0.1-3c0.2-2.1,5.2-8.7,14.9-19.9c9.7-11.2,23.8-27,42.3-47.6c0.3-3.3,0.6-7.3,1-12s0.7-8.6,1-11.4
		c0.2-2.9,0.5-5.9,0.7-9c0.5-5.9,0.6-9.2,0.5-10c-0.1-0.8-0.5-1.2-1-1.1c-2.1,0.4-6.4,4.6-12.6,12.5c-6.3,8-9.2,13-8.9,15
		c0.2,1.3-0.1,2.1-1.1,2.3c-0.6,0.1-1.7-0.4-3.2-1.5c-1.5-1.1-2.4-2.3-2.8-3.4c-0.3-1.1-0.7-2-1-2.8c-0.6-1.7-1-3.2-1.2-4.3
		c-0.5-3,1.5-7.5,6.2-13.7c4.7-6.2,10-11.8,16-17c6-5.1,10.5-8,13.5-8.5s5.6,0.1,7.8,1.8c2.2,1.8,3.6,4.6,4.3,8.6
		c0.7,3.9,0.2,15.6-1.6,34.9c28.1-30.8,43-46.8,44.6-48.1c1.6-1.3,4.1-2.3,7.6-2.9s7.1-0.5,11,0.2c1.2,0.3,1.8,0.8,2,1.5
		c0.1,0.7,0,1.4-0.3,2.2c-0.3,0.7-1,1.6-1.9,2.7c-1,1.1-3,3.2-5.9,6.3c-3,3.1-6.6,6.8-10.8,11.2c-9.7,10.2-25.8,27.8-48.3,52.6
		c-1.8,22.4-2.1,36.7-1,43c0.3,1.6,0.6,2.4,1,2.3c0.4-0.1,0.8-0.4,1.4-1c3.1-2.6,7.9-8.1,14.5-16.3c6.6-8.2,10.5-13.3,11.7-15.4
		s2.1-3.2,2.7-3.2c0.9-0.2,1.5,0.8,1.9,2.9l0.2,1.5c0,0.1,0.4,0.8,1.3,2.3c0.8,1.5,1.4,3.3,1.8,5.4c0.4,2.1,0.3,3.9-0.3,5.3
		c-0.6,1.4-1.5,3.2-2.8,5.3c-1.3,2.1-3.1,4.8-5.5,8c-2.4,3.2-4.9,6.2-7.7,9.1c-6.8,7.1-13.6,11.3-20.5,12.5
		c-3.3,0.6-6.4-0.2-9.5-2.2c-3.1-2-5.1-5.8-6-11.3c-1-5.5-1.1-15-0.4-28.4c-28.3,33.7-42.6,50.7-43,51c-0.4,0.2-0.7,0.4-1.1,0.5
		L405.8,216.9z"/>
	<path class="st2" d="M670.5,38.5l3.3,0.3c7.6-0.2,11.6,1.4,12.2,4.7c0.2,0.9,0,1.8-0.6,2.5c-6.6,8.4-15.7,17.8-27.2,28.2
		c-17.7,15.9-38.1,31.8-61.2,47.8c9.1,3.2,21.6,9.1,37.7,17.5c21.4,10.6,34.3,15.6,38.6,14.8c1.5-0.3,2.7-0.9,3.7-1.9
		c0.9-1,1.4-1.6,1.6-1.6c1-0.2,1.6,0.2,1.7,1.1c0.1,0.8-0.4,3.3-1.7,7.5c-1.3,4.2-2.5,7-3.6,8.4c-1.1,1.5-3.2,2.5-6.2,3
		s-7.2-0.2-12.6-2.3c-5.4-2-11.5-4.7-18.1-8.1c-6.6-3.4-13.2-6.8-19.8-10.3c-16.7-8.7-27.8-13.7-33.2-14.9
		c-12.9,31.4-19.5,47.6-19.8,48.7c-0.3,1.1-0.8,2-1.5,2.7s-1.1,1.1-1.4,1.2l-3.7,1.2l-3.1,0.4c-0.8,0.1-1.4,0.4-1.7,0.7
		c-0.3,0.3-0.6,0.6-1,0.8c-0.4,0.2-0.7,0.4-0.9,0.8c-0.2,0.3-0.7,0.5-1.3,0.6c-0.6,0.1-1.5-0.2-2.8-1c-1.2-0.8-1.9-1.5-2-2.2
		s0.1-2,0.6-3.9c0.5-1.9,8.4-19.9,23.5-54.2l-1.7,0.3c-3.9,0.7-6,0-6.4-2.1c-0.4-2.1,0.2-4.4,1.8-6.9c1.6-2.5,3.3-3.9,5.3-4.2
		c2-0.3,4.2-0.6,6.6-0.6c8.1-18.1,14.3-32.3,18.6-42.6c-5.6,7.5-11.4,11.8-17.5,12.9c-2.9,0.5-5.4-0.1-7.4-1.8
		c-2-1.7-3.3-3.8-3.7-6.4s-0.2-4.8,0.9-6.6c1-1.9,2.1-3.2,3.2-4.1c1.1-0.9,1.9-1.3,2.4-1.4s0.7,0.1,0.8,0.6l-0.3,2.2
		c0.1,0.8,1.5,1,4,0.6c2.5-0.4,5.7-2.4,9.7-6c4-3.5,7.9-7.1,11.7-10.6c3.8-3.5,6.8-5.5,8.9-5.8c2.1-0.4,3.6-0.4,4.4,0
		c0.8,0.4,1.4,0.6,2,0.6c0.6,0,1.1,0.2,1.5,0.4c0.4,0.2,0.8,0.5,1.1,0.9c0.3,0.4,0.8,0.8,1.6,1.2c0.7,0.4,1.2,1,1.3,1.9
		c0.2,0.9,0.1,1.7-0.3,2.6c-5.4,12.4-12,28.1-19.7,46.9c13.1-10,27.8-22.5,44.3-37.5c16.4-15,25.2-23.6,26.4-26
		C669.4,39,669.8,38.6,670.5,38.5z"/>
	<path class="st2" d="M724.1,90.6c1.7-0.3,3.7,0.2,5.8,1.4c2.1,1.2,3.4,3.5,4,6.7c0.6,3.2,0.2,7.6-1.2,13.1
		c-1.4,5.5-3.5,11.3-6.5,17.3c-3,6-6.5,11.8-10.4,17.3c-3.9,5.5-8.3,10.2-13.3,14.2c-5,4-9.7,6.3-14.1,7.1c-4.5,0.8-8.3,0-11.5-2.3
		c-3.2-2.3-5.2-6-6.1-11c-0.9-5-0.6-10.8,0.8-17.3c1.4-6.5,3.6-12.5,6.7-17.8c3.1-5.4,6.5-10.3,10.4-14.8
		c8.1-9.3,15.7-14.5,22.9-15.8c3.2-0.6,5.7-0.2,7.6,1.1c0.7,0.4,1,0.8,1.1,1.2l0.1,0.5C721.1,91.2,722.4,90.9,724.1,90.6z
		 M717.4,103.7l-0.6,0.1c-2,0.4-3.3-0.9-3.8-3.9c-4,2.1-8,5.4-12,9.7c-4,4.3-7.4,9.2-10.3,14.6c-5.7,10.8-8.1,19.5-7.1,26.1
		c0.6,3.2,2.1,4.7,4.4,4.2c2.4-0.4,5.6-2.6,9.8-6.6c4.1-4,8-9.3,11.6-15.9c3.6-6.6,6.2-12.3,7.7-16.9c1.5-4.7,2.2-7.8,1.9-9.3
		C718.7,104.3,718.2,103.6,717.4,103.7z"/>
	<path class="st2" d="M748.5,136.7l0.2,1.4c0.3,1.5,1,2.6,2.3,3.5c1.3,0.9,2.4,1.2,3.3,1c7-1.2,12.9-3.4,17.9-6.4
		c5-3,7.3-5.6,6.9-7.7c-0.2-1-1.3-1.7-3.4-2.1c-2.1-0.4-5.5-0.7-10.3-1c-4.8-0.3-8.3-0.5-10.5-0.7c-2.2-0.2-4-0.5-5.3-0.8
		c-1.3-0.3-2.7-0.8-4.1-1.5c-3.1-1.4-4.9-4-5.6-7.9c-0.7-3.8,0.1-7.8,2.2-12.1c2.2-4.2,5.1-8.1,8.9-11.5c3.8-3.4,7.9-6.6,12.4-9.5
		c8.9-5.7,16.7-9.1,23.2-10.3c6.4-1.1,10.7-0.4,12.7,2.1c0.6,0.9,1.1,2,1.3,3.2l0.1,0.6c0.5,3.1,0.3,5.6-0.7,7.6
		c-1,2-2.8,3.9-5.4,5.8c-2.6,1.9-4.7,3-6.3,3.3c-1.7,0.3-2.7,0.4-3.2,0.2c-0.5-0.2-0.9-0.4-1.2-0.7c-0.4-0.3-0.8-0.5-1.2-0.6
		c-0.5-0.1-0.8-0.5-0.9-1.2s0-1.5,0.5-2.3c0.5-0.8,0.7-1.7,0.8-2.5c-3.8,0.9-7.6,2.4-11.5,4.8c-3.9,2.3-7.2,4.8-9.8,7.3
		c-2.6,2.5-4.8,4.8-6.4,7c-1.7,2.1-2.4,3.6-2.3,4.5c0.1,0.8,1.6,1.3,4.4,1.3c12.4,0.3,20.7,0.9,24.8,2c4.1,1.1,7,2.6,8.9,4.5
		c1.8,1.9,2.9,3.8,3.2,5.6c0.7,3.7-0.2,7.5-2.6,11.3c-2.4,3.8-5.6,7.2-9.5,10c-8.5,6.2-16.3,10-23.2,11.2c-6.9,1.2-11.9,1-14.9-0.6
		c-3-1.7-4.8-3.9-5.3-6.8c-0.5-2.9-0.2-5.7,0.8-8.4c1-2.7,2.7-4.3,5-4.7C747,135.1,748.3,135.5,748.5,136.7z"/>
	<path class="st2" d="M879.6,105c0.9,2.6,1.5,4.7,1.7,6.2c0.3,1.5,0.2,2.9-0.1,4.2c-0.4,1.2-1.3,3-2.8,5.4c-1.5,2.4-3.4,4.9-5.6,7.4
		c-5.5,6.2-11.6,9.9-18.2,11c-9.6,1.7-15.1-1.7-16.6-10.2c-1.3-7.4,2.5-23.2,11.5-47.4c0.3-0.9,0.5-1.5,0.6-1.9
		c-3.9,3.9-11,14-21.1,30.2c-10.2,16.2-16.8,27.6-20,34.1c-0.3,0.6-1,1.3-2.3,2.2s-2.3,1.4-3.1,1.5c-0.8,0.1-1.7,0-2.7-0.3
		c-1-0.3-1.6-0.5-1.8-0.4c-0.8,0.1-1.2,0-1.3-0.5s0.5-3.3,1.7-8.6c1.2-5.2,2.9-11.7,4.9-19.5c5.7-21.5,14.9-49.7,27.5-84.8
		c4.4-12.3,8-21,10.8-26.3c2-3.8,6-6.2,12-7.2c1.3-0.2,2.1,0,2.4,0.7c0.3,0.7,0.5,1.5,0.7,2.4c0.2,0.9,0.1,1.8-0.1,2.7L851,22.1
		c-13.4,32-23.1,58.4-29.1,78.9c7.1-12.6,14.4-22.7,21.9-30.2c4.6-4.7,8.2-7.3,10.9-7.8c2.6-0.5,5.1-0.5,7.4,0
		c2.3,0.5,3.7,2.3,4.3,5.5c0.2,1.2-0.9,5.8-3.4,13.9c-7.4,24.3-10.9,37.7-10.4,40.1c0.4,2.5,1.7,3.5,3.7,3.2c3-0.5,7-4.2,12.1-11
		c3.9-5.2,6.3-8.5,7.3-9.9c0.6-0.6,1.2-1,1.8-1.1C878.6,103.5,879.3,103.9,879.6,105z"/>
	<path class="st2" d="M916.8,104.7c0.3,1.7,0.4,3,0.1,3.8c-1.8,6.3-5.5,11.8-11.1,16.5c-5.6,4.7-10.7,7.4-15.2,8.2
		c-4.6,0.8-8.8,0-12.7-2.5c-3.9-2.5-6.1-5.3-6.6-8.5c-0.6-3.2,0.2-8.1,2.3-14.8c2.1-6.7,4.3-12.9,6.6-18.6c2.3-5.7,3.4-8.8,3.3-9.2
		c-0.1-0.4-0.8-1.2-2.2-2.3c-1.4-1.1-2.2-1.9-2.3-2.5c-0.1-0.6,0.8-2.4,2.8-5.4c2-3,4.4-6.1,7.4-9.2c3-3.1,5.4-4.9,7.3-5.2
		c1.8-0.3,3.6,0.2,5.3,1.6c1.7,1.4,2.7,2.7,3,4.1c0.2,1.3-4.5,15.1-14.1,41.4c-0.1,0.4-0.5,1.2-1,2.6c-0.6,1.3-1,2.4-1.3,3.3
		c-0.3,0.9-0.6,1.9-1,3.1c-0.8,2.5-1,4.6-0.7,6.1c0.3,2,1.9,2.7,4.5,2.3c2.7-0.5,5.3-1.9,7.8-4.2c2.5-2.3,4.7-4.8,6.4-7.4
		c4.4-6.8,7-10.3,7.8-10.4C914.6,97,915.8,99.5,916.8,104.7z M917.4,26.3c0.6,3.3-0.4,6.9-2.9,10.8c-2.5,3.9-5.4,6.1-8.7,6.7
		c-3.3,0.6-5.3-0.9-5.9-4.3c-0.6-3.5,0.3-7.1,2.6-10.7c2.4-3.7,5.3-5.8,8.9-6.5c1.6-0.3,2.9-0.1,4,0.6
		C916.5,23.6,917.2,24.7,917.4,26.3z"/>
	<path class="st2" d="M962.2,49.8c0.7,3.8-0.3,7.5-2.9,10.9c-2.6,3.5-5.9,5.5-9.8,6.2c-1.3,0.2-2.2,0.1-2.7-0.5
		c-0.5-0.5-0.9-1.3-1-2.3c-0.2-1-0.2-2-0.2-2.9c-2,1.1-4.1,2.5-6.4,4.5c-2.3,1.9-5.1,4.6-8.3,8.1c-3.2,3.5-4.7,5.9-4.4,7.3
		c0.1,0.5,0.8,0.6,2.2,0.3c1.4-0.2,3.4-1.1,6.1-2.6c2.7-1.5,4.6-2.3,5.7-2.5c1.1-0.2,1.9-0.3,2.2-0.2c0.8,0.3,1.8,1,2.9,2.2
		c1.1,1.2,1.7,2.2,1.9,3c0.1,0.8-0.4,1.9-1.7,3.5c-1.3,1.5-2.8,2.8-4.6,3.8c-1.8,1-3,1.7-3.6,2.2c-11,9-16.3,14.8-15.9,17.3
		c0.8,4.5,5.1,6.1,12.8,4.7c4.9-0.9,9.6-3.3,14.1-7.3c3.8-3.4,7.1-6.8,10-10.2c2.9-3.4,4.8-5.4,5.5-6.2c0.8-0.8,1.4-1.2,1.9-1.3
		c1.5-0.3,2.6,1.3,3.2,4.6s0.8,5.6,0.6,6.8c-0.2,1.1-1.1,2.7-2.8,4.6c-10.6,12.3-21.5,19.4-32.6,21.4c-5.9,1-10.8,1.1-14.6,0.1
		c-7-1.8-11.1-5.8-12.1-11.9c-1.4-8,3.1-15.1,13.4-21.1c-2.4-0.6-4-1.6-4.9-3c-0.9-1.4-1.7-3.8-2.3-7.2c-0.6-3.4,0.3-7.3,2.8-11.6
		c2.5-4.4,5.8-8.2,10-11.4c9.2-7.3,17.9-11.7,25.9-13.1c1.9-0.3,3.9-0.2,6.1,0.4C960.7,47,961.9,48.1,962.2,49.8z"/>
</g>
<g class="st0">
	<path class="st1" d="M1013.4,94c0.5,2.6,2.4,3.5,5.9,2.9c1.9-0.3,4-1.7,6.5-4c2.5-2.4,4.7-4.8,6.5-7.4c5-7,7.9-10.6,8.7-10.8
		c1.5-0.3,2.6,1.8,3.4,6.1c0.8,4.4-0.1,7.6-2.5,9.7c-7,9-12.6,14.6-16.8,17.1c-2.4,1.3-5.1,2.2-8.2,2.7c-3.1,0.5-6.4-0.3-9.8-2.4
		c-3.5-2.1-5.5-5-6.2-8.7c-0.7-3.7-0.4-8.2,0.7-13.3c1.1-5.1,2.4-9.5,3.9-13.3c1.5-3.8,3.3-8.2,5.5-13.2c2.2-5,3.3-8.1,3.3-9.2
		l-0.2-0.1c-1.9,0.5-6,5.1-12.2,13.8c-6.3,8.7-11.4,16.2-15.4,22.6c-4,6.3-8.6,14.7-13.8,25c-1.5,2.8-2.8,4.4-4,4.6
		s-2.9,0.1-5.1-0.3c-2.2-0.4-3.6-0.8-4.1-1c-0.5-0.3-0.8-0.7-1-1.4c-0.1-0.7-0.1-1.6,0.2-2.7c0.2-1.1,0.5-2,0.7-2.7
		c0.3-0.7,0.7-1.9,1.3-3.4c0.6-1.5,1.8-4.8,3.6-9.8c1.8-5,4.6-12.4,8.3-22.3c3.8-9.9,6-15.8,6.7-17.9c1.5-4.2,2.8-7.3,3.9-9.3
		c2-3.8,6.1-6.2,12.4-7.3c1.4-0.2,2.2,0.5,2.6,2.2c0.5,2.7-1.1,8.3-4.9,16.7l-2.7,6.1c8.1-12.9,15.3-21.5,21.7-25.6
		c3.1-2,6-3.3,8.7-3.8c2.7-0.5,5-0.1,6.8,1c1.9,1.2,2.9,2.6,3.2,4.4c0.3,1.8,0.1,4-0.7,6.7c-0.8,2.7-1.6,5.1-2.5,7.3
		c-0.9,2.2-2.1,4.9-3.6,8.2c-1.5,3.3-2.3,5.1-2.5,5.4c-0.1,0.3-0.5,1.1-1,2.3c-0.5,1.3-0.9,2.2-1.2,2.8c-0.3,0.6-0.7,1.6-1.3,3
		c-0.6,1.5-1,2.7-1.4,3.6c-0.3,1-0.8,2.1-1.3,3.5c-0.5,1.4-0.9,2.6-1.2,3.6c-0.3,1-0.5,2.1-0.8,3.3C1013.3,91,1013.2,92.7,1013.4,94
		z"/>
</g>
</svg>
