<svg xmlns="http://www.w3.org/2000/svg" xmlns:xlink="http://www.w3.org/1999/xlink" width="27" height="27" viewBox="0 0 27 27">
  <defs>
    <clipPath id="clip-path">
      <rect id="長方形_649" data-name="長方形 649" width="27" height="27" transform="translate(-0.318 0.253)" fill="none"/>
    </clipPath>
  </defs>
  <g id="グループ_804" data-name="グループ 804" transform="translate(0.318 -0.253)">
    <g id="グループ_803" data-name="グループ 803" clip-path="url(#clip-path)">
      <path id="パス_1681" data-name="パス 1681" d="M27.937,5.585a5.415,5.415,0,0,0-.9.575.246.246,0,0,0-.09.217v.769L26.72,7.9l-.224.747-.246.821-.508,1.68L25.249,12.8l-.373,1.247c0,.194-.007.388-.022.575a7.4,7.4,0,0,1-.441,2.046,6.8,6.8,0,0,1-.523,1.135,4.8,4.8,0,0,1-.254.418,7,7,0,0,1-1.053,1.284,6.335,6.335,0,0,1-1.008.829h-.007a.949.949,0,0,1-.2.134,5.4,5.4,0,0,1-.732.411,4.638,4.638,0,0,1-.523.231.83.83,0,0,1-.119.052,4.888,4.888,0,0,1-1.411.4c-.03.007-.052.007-.082.015-.3.052-.59.1-.888.119a3.784,3.784,0,0,1-.411.022l-.53-.03-2.553-.134c0-.007-.007,0-.007,0L12.825,21.5c-.1,0-.2,0-.3-.007a6.883,6.883,0,0,1-1.18-.142H11.34a7.635,7.635,0,0,1-2.023-.694A7.8,7.8,0,0,1,8.3,20.04c-.134-.1-.261-.2-.388-.314a9.826,9.826,0,0,1-.978-.948c-.045-.045-.082-.09-.119-.134s-.09-.1-.127-.142a6.4,6.4,0,0,1-.717-1.112,5.65,5.65,0,0,1-.433-1.112,3.953,3.953,0,0,1-.112-.426.057.057,0,0,1-.015-.037,7.875,7.875,0,0,1-.179-.948,4.145,4.145,0,0,1-.067-.747,2,2,0,0,1-.015-.3l1.426-2.2,1.4-2.15.635-.978.575-.881L9.376,7.3V6.533a4,4,0,0,0,.015-.515A4.74,4.74,0,0,0,9.107,4.5a8.758,8.758,0,0,0-.635-1.448c-.284-.515-.582-.978-.829-1.4A2.575,2.575,0,0,1,7.091.194,7.336,7.336,0,0,1,8.771,0H20.717a7.5,7.5,0,0,1,6.921,4.674,6.191,6.191,0,0,1,.3.911" transform="translate(-1.305)" fill="#304ffe"/>
      <path id="パス_1682" data-name="パス 1682" d="M27.163,7.466v.2l-1.03.6-.657.381-.724.418L23.3,9.908l-1.419.821-1.448.836-.575.336a2.017,2.017,0,0,1-.254.986,3.017,3.017,0,0,1-1.112,1.1,6.714,6.714,0,0,1-1.8.732s0-.007-.007,0c-2.658.687-6.287.373-8.049-.941a2.566,2.566,0,0,1-.986-1.329,2.18,2.18,0,0,1-.067-.545V6.533a.436.436,0,0,0-.2-.336,8.653,8.653,0,0,0-2.412-.933c-.829-.231-1.717-.463-2.464-.687a7.476,7.476,0,0,1-1.389-.53,8,8,0,0,1,.455-.769A7.5,7.5,0,0,1,6.07.194,7.336,7.336,0,0,1,7.75,0h8.064a25.147,25.147,0,0,1,10.8,4.674,6.191,6.191,0,0,1,.3.911,6.893,6.893,0,0,1,.239,1.531c.007.112.007.231.007.351" transform="translate(-0.284)" fill="#4928f4"/>
      <path id="パス_1683" data-name="パス 1683" d="M26.922,7.862v3.293l-.164.508L26.2,13.4l-.582,1.792-.306.956-.284.888-.276.844-.269.836-.142.441-.187.582c0,.567-.015,1.068-.052,1.493a.822.822,0,0,0-.015.134,4.877,4.877,0,0,1-.2,1.015.631.631,0,0,1-.037.127,1.86,1.86,0,0,1-.918,1.105,2.156,2.156,0,0,1-.351.149A5.958,5.958,0,0,1,21.068,24c-.448.03-.963.037-1.546.037h-.515L18.119,24,17.962,24l-1.62-.067L14.7,23.862l-5.413-.224-1.4-.06H7.689a12.275,12.275,0,0,1-1.516-.1,3.612,3.612,0,0,1-1.478-.508A2.386,2.386,0,0,1,3.687,21.45a3.6,3.6,0,0,1-.1-.523,11.781,11.781,0,0,1-.134-1.493c0-.112,0-.224-.007-.343-.007-.007,0-.007,0-.007V18.65c-.007-.217-.007-.441-.007-.672l.037-1.2.022-.859.03-1v-.142l.052-1.837L3.627,11.1l.052-1.725.045-1.695.015-.448c0-.231-.784-.366-1.658-.478C1.387,6.667.625,6.585.17,6.48c.037-.172.075-.343.119-.508a6.909,6.909,0,0,1,.59-1.531,8,8,0,0,1,.455-.769,24.884,24.884,0,0,1,5.047-1.62,23.764,23.764,0,0,1,19.39,4.5c.388.3.769.62,1.142.956.007.112.007.231.007.351" transform="translate(-0.043 -0.395)" fill="#6200ea"/>
      <path id="パス_1684" data-name="パス 1684" d="M26.879,10.151v3.39l-.411.791-.784,1.531-.418.806-.381.739-.164.321c0,.231,0,.455-.015.672,0,.321-.015.627-.037.911-.03.336-.075.642-.119.926a5.316,5.316,0,0,1-.493,1.516c-.03.052-.06.1-.09.149a2.8,2.8,0,0,1-.284.381,2.235,2.235,0,0,1-.455.426,3.184,3.184,0,0,1-.9.47,6.145,6.145,0,0,1-1.5.321c-.381.037-.8.06-1.254.06l-.314.015-1.553.09H17.7l-1.65.1-1.68.1-2.315.134-2.815.164-.411.022a8.345,8.345,0,0,1-1.083-.067.5.5,0,0,0-.1-.015,5.579,5.579,0,0,1-1.389-.4,4.546,4.546,0,0,1-1.322-.881,4.88,4.88,0,0,1-.844-1.1c-.052-.1-.1-.187-.149-.291A6.975,6.975,0,0,1,3.4,19.954c-.022-.09-.045-.187-.06-.284a4.029,4.029,0,0,1-.1-.538,11.981,11.981,0,0,1-.149-1.516v-.007c-.007-.217-.015-.426-.015-.65l-.366-.874-.052-.134-.045-.112L2.053,14.5l-.09-.217L1.426,13l-.6-1.441H.821L.217,10.1,0,9.568V8.381A7.665,7.665,0,0,1,.127,7c.037-.172.075-.343.119-.508a20.451,20.451,0,0,1,1.979-1A21.59,21.59,0,0,1,7.168,3.968,22.456,22.456,0,0,1,11.14,3.61a22.189,22.189,0,0,1,14.276,5.2c.149.119.291.239.433.366.351.306.694.627,1.03.971" transform="translate(0 -0.915)" fill="#673ab7"/>
      <path id="パス_1685" data-name="パス 1685" d="M26.879,12.9v3.838l-.426.888-.806,1.68-.007.022c0,.321-.015.612-.037.874a2.665,2.665,0,0,1-.627,1.74,1.691,1.691,0,0,1-.933.47c-.022.007-.052.007-.075.015a2.058,2.058,0,0,1-.381.037,10.254,10.254,0,0,1-1.635-.03c-.067,0-.142-.007-.217-.015-.455-.03-.941-.06-1.478-.082-.291-.007-.6-.015-.911-.015H19.33l-.754.06h-.007l-1.695.119-1.934.149-.284.022-2.262.164-1.172.09-1.157.082c-.2,0-.4,0-.59-.007,0,0-.007-.007-.007,0a13.69,13.69,0,0,1-2.27-.194A5.345,5.345,0,0,1,5.57,22.29a3.305,3.305,0,0,1-1.195-.978A4.077,4.077,0,0,1,3.7,19.766v-.007a8.556,8.556,0,0,1-.164-1.74l-.112-.2-.665-1.187-.1-.164-.052-.1L1.919,15.13l-.343-.62-.433-.769L.4,12.4,0,11.7V8.955A18.326,18.326,0,0,1,2.038,7.8,18.332,18.332,0,0,1,4.689,6.7,20.562,20.562,0,0,1,11.14,5.67,20.662,20.662,0,0,1,24.467,10.5c.164.127.321.269.478.4a19.162,19.162,0,0,1,1.77,1.8,1.892,1.892,0,0,1,.164.194" transform="translate(0 -1.437)" fill="#8e24aa"/>
      <path id="パス_1686" data-name="パス 1686" d="M26.879,15.925v5.4a7.328,7.328,0,0,0-.732-.366c-.164-.082-.351-.164-.545-.239-.284-.127-.59-.246-.933-.366a2.1,2.1,0,0,0-.231-.075c-.134-.052-.276-.1-.418-.142-.441-.134-.926-.261-1.434-.373-.194-.037-.4-.075-.6-.1a12.985,12.985,0,0,0-2.068-.187,1.561,1.561,0,0,0-.187-.007l-1.919.015-2.613.015h-.007L9.6,19.539a11.413,11.413,0,0,0-3.524.6.007.007,0,0,0-.007.007c-.694.179-.911.067-.971-1.15q-.022-.5-.022-1.3l-.418-.321-.732-.553-.448-.343-.09-.067L2.15,15.47l-.187-.142-.388-.3-.717-.538L0,13.835V11.3a1.971,1.971,0,0,1,.217-.157,19.227,19.227,0,0,1,3.464-1.9A19.623,19.623,0,0,1,7.1,8.153c.321-.067.65-.134.986-.179A17.933,17.933,0,0,1,11.14,7.72a19.1,19.1,0,0,1,11.879,4.144A17.2,17.2,0,0,1,24.437,13.1a19.257,19.257,0,0,1,1.717,1.859c.1.134.209.269.314.411.142.179.276.366.411.553" transform="translate(0 -1.956)" fill="#c2185b"/>
      <path id="パス_1687" data-name="パス 1687" d="M26.879,19.441V21.89a7.507,7.507,0,0,1-.134,1.426,7.413,7.413,0,0,1-.679,1.956,1.55,1.55,0,0,1-.56.007,5.807,5.807,0,0,1-1.62-.65.276.276,0,0,1-.082-.037c-.187-.1-.381-.2-.575-.321-.4-.217-.814-.455-1.232-.679-.09-.045-.179-.09-.261-.134a11.46,11.46,0,0,0-1.463-.642h-.007c-.1-.037-.217-.075-.329-.1a4.773,4.773,0,0,0-1.277-.194l-.821-.239L14.2,21.226h-.007l-2.232-.65h-.007l-.971-.284c-2.807,0-4.532,1.195-5.368.739-.329-.172-.523-.6-.59-1.456-.022-.239-.03-.508-.03-.821l-.874-.426-.037-.015H4.077L3.449,18l-.687-.329L2.71,17.65l-.127-.067L1.12,16.873,0,16.328V13.767c.127-.112.261-.217.4-.321s.284-.217.426-.329H.829A17.336,17.336,0,0,1,3.636,11.46,16.734,16.734,0,0,1,7.3,10.206c.187-.045.381-.09.575-.119A17.647,17.647,0,0,1,21.6,13.207a18.274,18.274,0,0,1,2.344,2.076,17.39,17.39,0,0,1,1.628,1.994c.037.052.075.1.112.149.276.4.53.814.769,1.239.157.254.291.515.426.776" transform="translate(0 -2.478)" fill="#d81b60"/>
      <path id="パス_1688" data-name="パス 1688" d="M26.744,23.836a7.413,7.413,0,0,1-.679,1.956,7.619,7.619,0,0,1-.47.791c-.1.157-.217.306-.329.448-.269-.1-.665-.254-1.15-.418v-.007c-.366-.127-.784-.261-1.232-.388-.127-.037-.254-.075-.388-.112a13.6,13.6,0,0,0-1.62-.343,8.007,8.007,0,0,0-1.3-.119l-.343-.1h-.007l-1.807-.523L16.306,24.7l-1.239-.358H15.06l-.4-.112-4.876-1.4-1.4-.4-1.045-.246-1.7-.4-.209-.052H5.413l-1.71-.4V21.32L3.4,21.253l-.157-.037-1.247-.291-.142-.037-1.06-.874L0,19.349V16.3c.276-.269.56-.523.859-.769.09-.082.187-.157.284-.231s.187-.149.284-.224A15.082,15.082,0,0,1,3.584,13.7a14.8,14.8,0,0,1,3.084-1.239,6.117,6.117,0,0,1,.635-.172,15.8,15.8,0,0,1,3.838-.463,16.11,16.11,0,0,1,12.409,5.794,14.905,14.905,0,0,1,1.336,1.867,1.689,1.689,0,0,1,.1.149c.239.4.463.806.665,1.224.187.373.351.747.5,1.135a15.511,15.511,0,0,1,.6,1.837" transform="translate(0 -2.997)" fill="#f50057"/>
      <path id="パス_1689" data-name="パス 1689" d="M25.595,27.105c-.1.157-.217.306-.329.448a7.318,7.318,0,0,1-1.09,1.112,7.682,7.682,0,0,1-1.12.776A3.96,3.96,0,0,1,22.6,29.3a7.735,7.735,0,0,1-1.486-.754A17.841,17.841,0,0,1,19.5,27.374l-.157-.134-1.269-.112-.157-.015-1.643-.142-1.7-.149L12.058,26.6l-3.987-.351-.015-.007-1.4-.679-1.419-.687L4.092,24.32,3.845,24.2l-.306-.149-1.06-.515-1.411-.679-.441-.217L0,22.446V19.109a15.365,15.365,0,0,1,1.12-1.195c.254-.239.523-.478.8-.7a1.64,1.64,0,0,1,.134-.1.283.283,0,0,1,.1-.075,12.442,12.442,0,0,1,1.381-.971,12.509,12.509,0,0,1,1.74-.926A13.379,13.379,0,0,1,7.3,14.413a14.133,14.133,0,0,1,3.838-.523,14.449,14.449,0,0,1,11.969,6.3,13.943,13.943,0,0,1,.911,1.508c.1.194.194.388.276.582s.172.373.254.56c.157.388.3.776.426,1.18a13.905,13.905,0,0,1,.53,2.3q.056.392.09.784" transform="translate(0 -3.519)" fill="#ff1744"/>
      <path id="パス_1690" data-name="パス 1690" d="M24.183,28.991a1.754,1.754,0,0,1-.007.194,7.682,7.682,0,0,1-1.12.777c-.164.09-.329.179-.5.254s-.343.157-.523.224c-.254-.134-.6-.3-.963-.455a6.52,6.52,0,0,0-1.508-.508,1.377,1.377,0,0,0-.291-.03l-1.224-.157h-.015l-1.523-.2-1.538-.2-.717-.09-5.645-.732a9.014,9.014,0,0,1-1.157-.075,14.157,14.157,0,0,1-1.523-.224c-.508-.09-1.023-.209-1.516-.336-.515-.119-1.023-.261-1.493-.4-.545-.164-1.053-.321-1.478-.463-.351-.112-.65-.217-.881-.3a6.536,6.536,0,0,1-.329-1A7,7,0,0,1,0,23.451V22.2a10.838,10.838,0,0,1,.791-1.15,12.435,12.435,0,0,1,1.792-1.911.3.3,0,0,1,.075-.067l.007-.007a7.644,7.644,0,0,1,.724-.575.791.791,0,0,1,.09-.075c.119-.09.246-.179.381-.261a12.872,12.872,0,0,1,3.509-1.672A13.131,13.131,0,0,1,18.21,18.023a12.9,12.9,0,0,1,3.778,3.718c.119.172.231.343.343.523a13.7,13.7,0,0,1,1.254,2.8c.037.112.067.224.1.343.06.2.112.411.157.62.015.052.03.1.045.164a13.149,13.149,0,0,1,.231,1.456v.007a13.238,13.238,0,0,1,.067,1.336" transform="translate(0 -4.039)" fill="#ff5722"/>
      <path id="パス_1691" data-name="パス 1691" d="M22.724,29.513a8.027,8.027,0,0,1-.045.829c-.015.134-.03.269-.045.4-.172.082-.343.157-.523.224a7.1,7.1,0,0,1-1.03.306,5.978,5.978,0,0,1-.732.119h-.007c-.231-.142-.5-.314-.776-.508-.5-.351-1.023-.747-1.441-1.068L18.11,29.8c-.441-.336-.754-.59-.754-.59l-.791.03-1.523.052-.709.03-2.852.1-2.412.09c-.157.007-.343.007-.575,0H8.486c-.314-.007-.687-.03-1.1-.067-.478-.037-1-.082-1.531-.134s-1.038-.119-1.538-.179c-.553-.06-1.075-.127-1.523-.187-.351-.045-.657-.082-.9-.112a7.168,7.168,0,0,1-.575-.754A6.809,6.809,0,0,1,.639,26.8a6.536,6.536,0,0,1-.329-1,10.759,10.759,0,0,1,.836-1.9,10.93,10.93,0,0,1,.926-1.411,10.106,10.106,0,0,1,1.1-1.224v-.007q.168-.168.336-.314c.209-.194.426-.373.65-.545h.007c.007-.015.015-.015.022-.022.179-.142.366-.269.553-.4a11.311,11.311,0,0,1,3.7-1.643A11.754,11.754,0,0,1,11.218,18a11.352,11.352,0,0,1,5.264,1.277h.007A11.343,11.343,0,0,1,20,22.077a10.566,10.566,0,0,1,1.359,1.994,11.048,11.048,0,0,1,.672,1.486c.015.045.03.082.045.119.127.373.239.762.336,1.15.067.276.119.56.164.844.015.09.03.172.037.261a11.049,11.049,0,0,1,.112,1.583" transform="translate(-0.079 -4.561)" fill="#ff6f00"/>
      <path id="パス_1692" data-name="パス 1692" d="M21.535,30.035v.075c0,.254-.022.575-.045.918-.022.254-.045.515-.067.762a5.978,5.978,0,0,1-.732.119h-.007a6.433,6.433,0,0,1-.851.052H18.526l-.284-.082-1.471-.448-1.493-.448-3.457-1.038L10.328,29.5s-.62.246-1.493.538H8.828c-.336.112-.7.231-1.09.351-.485.142-1,.284-1.508.4a10.8,10.8,0,0,1-1.5.246,4,4,0,0,1-.411.022,7.594,7.594,0,0,1-1.187-.814,7.677,7.677,0,0,1-.9-.881A7.168,7.168,0,0,1,1.66,28.6a8.532,8.532,0,0,1,.2-.986A9.418,9.418,0,0,1,2.9,25.1a9,9,0,0,1,.866-1.262.133.133,0,0,1,.052-.06c-.007-.007,0-.007,0-.007.1-.127.2-.246.306-.358V23.4a11.368,11.368,0,0,1,.963-.933c.119-.1.231-.194.358-.291a.653.653,0,0,1,.075-.06,9.938,9.938,0,0,1,14.836,3.2,2.418,2.418,0,0,1,.127.239c.067.134.134.276.194.426a8.816,8.816,0,0,1,.575,1.687l.045.179c.06.276.112.56.149.844a9.991,9.991,0,0,1,.09,1.344" transform="translate(-0.421 -5.083)" fill="#ff9800"/>
      <path id="パス_1693" data-name="パス 1693" d="M20.491,30.554c0,.149-.007.314-.015.485-.015.276-.037.575-.075.881-.015.187-.045.373-.075.56H16.236l-.791-.127-3.091-.493-.441-.067L10.9,31.63a20,20,0,0,0-2.4.381c-.53.1-1.068.2-1.553.269l-.172.022H6.768a7.032,7.032,0,0,1-1.508-.508q-.224-.1-.448-.224a7.594,7.594,0,0,1-1.187-.814c-.007-.09-.015-.164-.015-.2,0-.194.007-.381.022-.567a8.41,8.41,0,0,1,.2-1.389,8.3,8.3,0,0,1,.724-1.941,3.6,3.6,0,0,1,.2-.373c.03-.06.067-.112.1-.172.134-.217.284-.426.433-.635a9.5,9.5,0,0,1,1.038-1.15h.007a.9.9,0,0,1,.09-.082,1.115,1.115,0,0,1,.1-.09,5.142,5.142,0,0,1,.455-.366.007.007,0,0,1,.007-.007,8.495,8.495,0,0,1,9.116-.642h.007A8.45,8.45,0,0,1,18.752,25.4a7.612,7.612,0,0,1,.732,1.142h.007l.112.224a7.565,7.565,0,0,1,.538,1.381h.007c.007.037.022.075.03.112a8.563,8.563,0,0,1,.217.986c.007.067.015.142.022.209a7.6,7.6,0,0,1,.075,1.1" transform="translate(-0.915 -5.602)" fill="#ffc107"/>
      <path id="パス_1694" data-name="パス 1694" d="M19.483,30.994a3,3,0,0,1-.015.366v.015a7.283,7.283,0,0,1-.209,1.546.17.17,0,0,1-.022.082H15.75l-2.875-.62-.381-.082-.06.015-3.188.657L9.1,33H8.9a7.274,7.274,0,0,1-1.4-.134l-.2-.045H7.29a7.032,7.032,0,0,1-1.508-.508c-.015-.082-.03-.164-.037-.246a6.219,6.219,0,0,1-.075-.993c0-.127,0-.254.007-.381a6.807,6.807,0,0,1,.172-1.18,5.8,5.8,0,0,1,.239-.821,6.711,6.711,0,0,1,.284-.672c.09-.187.194-.366.3-.545s.217-.336.336-.5A6.741,6.741,0,0,1,8.044,25.85a6.556,6.556,0,0,1,.724-.545,6.9,6.9,0,0,1,3.808-1.135,5.7,5.7,0,0,1,.806.052H13.4a6.776,6.776,0,0,1,2.232.65h.007a6.912,6.912,0,0,1,2.673,2.315,6.11,6.11,0,0,1,.321.523,4.879,4.879,0,0,1,.224.441,7.672,7.672,0,0,1,.284.724h.007a7.735,7.735,0,0,1,.209.844v.007a6.476,6.476,0,0,1,.127,1.269" transform="translate(-1.437 -6.124)" fill="#ffd54f"/>
      <path id="パス_1695" data-name="パス 1695" d="M18.464,31.7v.022a5.427,5.427,0,0,1-.157,1.3,3.318,3.318,0,0,1-.157.53H14.806l-1.71-.47-1.71.47H9.422a7.274,7.274,0,0,1-1.4-.134.265.265,0,0,1-.03-.067A5.294,5.294,0,0,1,7.72,31.7a1.714,1.714,0,0,1,.015-.276A4.231,4.231,0,0,1,7.884,30.4a3.275,3.275,0,0,1,.2-.65,1.5,1.5,0,0,1,.127-.3,5.871,5.871,0,0,1,.4-.739,5.229,5.229,0,0,1,.545-.672,4.151,4.151,0,0,1,.814-.717,4.991,4.991,0,0,1,1.77-.821A5.1,5.1,0,0,1,13.1,26.32a5.366,5.366,0,0,1,3.8,1.56,1.086,1.086,0,0,1,.119.134h.007c.1.112.2.224.3.351a5.1,5.1,0,0,1,.687,1.15,4.183,4.183,0,0,1,.224.6c.007.03.015.052.022.082a4.807,4.807,0,0,1,.187,1.142,2.683,2.683,0,0,1,.022.351" transform="translate(-1.956 -6.669)" fill="#ffe082"/>
      <path id="パス_1696" data-name="パス 1696" d="M17.455,32.218a3.049,3.049,0,0,1-.119.874,3.792,3.792,0,0,1-.329.851c-.022.045-.075.127-.075.127H10.3a.057.057,0,0,1-.015-.03,2.444,2.444,0,0,1-.224-.441,3.427,3.427,0,0,1-.269-1.105,1.714,1.714,0,0,1-.015-.276.9.9,0,0,1,.007-.142,3.437,3.437,0,0,1,.142-.933,3.691,3.691,0,0,1,.3-.754.026.026,0,0,0,.007-.015,4.427,4.427,0,0,1,.3-.463,3.732,3.732,0,0,1,1.411-1.157h.007a3,3,0,0,1,.56-.217h.007a3.787,3.787,0,0,1,1.1-.157,3.656,3.656,0,0,1,1.254.209,2.143,2.143,0,0,1,.411.164h.007a3.728,3.728,0,0,1,1.56,1.381,2.775,2.775,0,0,1,.2.358,1.685,1.685,0,0,1,.082.164,3.726,3.726,0,0,1,.306,1.262.6.6,0,0,1,.007.119,1.439,1.439,0,0,1,.007.179" transform="translate(-2.478 -7.191)" fill="#ffecb3"/>
      <rect id="長方形_648" data-name="長方形 648" width="19" height="20" rx="7" transform="translate(3.682 3.253)" fill="none" stroke="#fff" stroke-linecap="round" stroke-linejoin="round" stroke-width="2"/>
      <path id="パス_1697" data-name="パス 1697" d="M24.747,9A.747.747,0,1,1,24,9.747.747.747,0,0,1,24.747,9" transform="translate(-6.081 -2.28)" fill="#fff"/>
      <circle id="楕円形_1" data-name="楕円形 1" cx="4.5" cy="4.5" r="4.5" transform="translate(8.682 9.253)" fill="none" stroke="#fff" stroke-linecap="round" stroke-linejoin="round" stroke-width="2"/>
    </g>
  </g>
</svg>
