<?xml version="1.0" encoding="utf-8"?>
<!-- Generator: Adobe Illustrator 28.3.0, SVG Export Plug-In . SVG Version: 6.00 Build 0)  -->
<svg version="1.1" id="レイヤー_1" xmlns="http://www.w3.org/2000/svg" xmlns:xlink="http://www.w3.org/1999/xlink" x="0px"
	 y="0px" viewBox="0 0 310 180" style="enable-background:new 0 0 310 180;" xml:space="preserve">
<style type="text/css">
	.st0{opacity:0.7;fill:#231815;enable-background:new    ;}
	.st1{fill:#FFFFFF;}
	.st2{enable-background:new    ;}
</style>
<rect y="0.2" class="st0" width="310" height="180"/>
<rect id="長方形_685" x="7.5" y="144.2" class="st1" width="295.8" height="0.6"/>
<rect id="長方形_686_00000047773359003127259520000008438130882271670150_" x="7.5" y="40.3" class="st1" width="295.8" height="0.6"/>
<g class="st2">
	<path class="st1" d="M44.6,65.2c4.1,0.1,8.4,1,8.1,5.7c0,0.7-0.6,1.9-1.6,1.9c-1.3,0-2.1-2.3-3-3.4c-1-0.4-2.9-0.5-4.1-0.5
		c-8.2-0.3-15.7,7.2-15.7,16.3c0,8.4,6.3,12.9,13.8,12.7c5.9-0.2,10.3-0.9,15.7-3.5c1.7-0.8,0.8,2-1.2,3.1
		c-5.3,2.8-11.4,4.4-17.4,4.6c-10.3,0.2-17.7-5.4-16.5-17.1C23.8,74.6,36,64.8,44.6,65.2z"/>
	<path class="st1" d="M60.2,99.2c-1,0-1.6-1.1-1.9-2.1c-0.3-1.4-0.7-8.3-0.8-9.7c0-6.6,0.6-10.5,0.5-17.3c0-1.2,0.9-4.4,2.9-5.1
		c0.9-0.1,2,0.1,2.2,1.3c0.5,6.7-1.3,10.5-1.3,17.6c0,2.1,0.1,3.2,0.1,3.8c0,0.7,0.1,1,0.5,1c2.1,0,4.6-6.3,8.2-6.3
		c1.2,0,1.9,0.6,1.9,1.2c0.2,0.9,0.9,4.8,1.2,5.7c0.8,3.1,2.6,7.1,6.8,7.1c1.1,0,2.9-0.9,3.9-1.3c0.7-0.2,1.1-0.1,1.2,0.2
		c-0.1,2.6-4.9,5.8-7.8,5.8c-8,0-8.6-12.8-10.1-12.8C64.5,88.3,63.9,99.2,60.2,99.2z"/>
	<path class="st1" d="M87.1,81.5c0.6,0,1.1,0.5,1.1,1c0,1.4,0.3,4.2,0.4,6.2c0.2,3.1,1.5,7.3,5.6,7.3c1.8,0,3.5-0.7,4.8-1.1
		c0.6-0.2,0.9,0.1,0.9,0.4c-0.1,0.5-0.5,1-0.8,1.2c-2,1.9-4.9,3.3-8.1,3.3c-6.7,0-7.1-6.7-6.8-11.4C84.2,86.3,84.5,81.5,87.1,81.5z
		 M86.9,72.6c1.8,0,3.2,2.5,3.2,3.9c0,1-0.8,2.1-1.8,2.1c-1.9,0-4.1-2.3-4.1-3.9C84.2,73.5,85.7,72.6,86.9,72.6z"/>
	<path class="st1" d="M105.4,100.4c0.1,0.9,0,1.1-1.2,1.1c-3.5,0-4.8-4.4-4.9-6.9c-0.5-4.3-0.8-8.6-0.8-13s0.4-8.2,1.2-12.4
		c0.2-1.3,1.6-2.6,3.1-2.6c1,0,1.6,0.6,1.5,1.3c-0.7,6-0.9,13.3-0.9,19.5c0,2.1,0.1,4.1,0.4,6c5.5-2.5,8.5-7.3,12.9-11.6
		c0.9-1,2.4-2.6,4-2.6c0.5,0,1,0.3,1,0.8c0,0.4,0,0.6-0.4,1c-1,1.2-5.6,6-6.5,6.8c-1.3,1.2-2.4,2.2-3.5,3.1c0.3,2.6,4.5,3.4,4.7,5.8
		c0,1.1-0.7,1.9-2,1.9c-3,0-5.2-2.4-7.9-4c-0.7,0.3-1.3,0.7-2,0.9c0,0.4,0.2,0.7,0.3,1.1C104.9,98.1,105.4,99,105.4,100.4z"/>
	<path class="st1" d="M125.1,81.4c0.5-0.5,1.9-0.2,1.9,0.8c-0.2,2.8-0.2,4.4,0,9.5c0,1.2,0.6,2.7,2,2.7c2.5,0,5.4-3.6,6.6-6.5
		c0.8-3.6,2.1-4.3,3.5-5.1c1-0.5,2-0.6,2.3,0.3c0.2,0.9,0.5,4.1,0.3,5.6c0,2.3,0.9,4.9,2.7,5.5c2,0.7,3.6,0.2,5.2-0.1
		c0.4,0,0.7,0.7,0.4,1.1c-2.1,2.4-5.7,3.5-7.8,3.5c-4.6,0-5.8-4.5-6.5-6.4c-1.1,0.4-4.9,7.1-9.2,7.1c-4.3,0-4.4-4.7-4.6-7.3
		C121.8,89.1,121.2,84.4,125.1,81.4z"/>
	<path class="st1" d="M151.8,80.4c1.2,0,1.8,0.8,1.8,1.7c-0.3,3.4-0.4,6.8,0,10.3c0,0.4,0.2,1.2,0.9,1.2c1,0,1.6-1.4,4.6-5.5
		c1-1.5,3.3-4,5.5-4c1.2,0,1.8,0.5,1.7,1.7c0,0.9-0.2,1.9-0.2,3c0,0.7,0.2,1,0.7,1c1.5,0,5.5-6.2,9.4-6.2c0.8,0,1.7,0.4,1.7,1.2
		c0.3,2.9,0.3,10.7,5.5,10.7c2,0,3-0.9,5.1-1.3c0.8-0.1,0.4,0.9,0.1,1.3c-1.4,2.4-6.4,4.6-8.8,4.6c-5.4,0-6.1-6.8-6.7-10.5
		c0-0.5-0.2-0.9-0.7-0.9c-2.6,0-5.7,7.9-9.3,7.9c-2,0-2.4-3.2-2.4-4.1c0-0.5-0.2-0.5-0.5-0.3c-1.9,1-4.6,7.6-7.9,7.6
		c-2.4,0-3.3-2.1-3.4-3.8c-0.1-1.9-0.1-3.6-0.1-5.3c0-1.9,0.2-4,0.7-6.4C149.4,83.1,150.4,80.4,151.8,80.4z"/>
	<path class="st1" d="M193,99.2c-2.7,0.1-6-1.6-6.3-4.2c-0.5-6,5.5-11.5,12-13.2c1.6-0.3,3.8,0.4,4.8,2c0.6,1.1,1.3,2.4,0.2,3.3
		c-0.3,0.4-1,0.6-1.1,0.3c-0.5-0.7-1.8-2.4-3.1-2.2c-4.4,0.2-7.2,2.8-7.5,6c-0.4,2.7,0.9,4.4,3.2,4.3c2.5-0.1,4.1-0.9,5.5-1.8
		c0.9-0.6,1.6-2.1,2.8-2.1c1.3,0,1.6,2.4,3.2,3.1c2,0.9,4.8,0.1,6.7-0.4c0.4,0,0.5,0.5,0.3,0.7c-2.8,2.9-6.7,4.2-8.6,4.2
		c-2,0-3.3-1.2-4.4-2.3C199.7,95.9,196,98.9,193,99.2z"/>
	<path class="st1" d="M218.4,100.4c0.1,0.9,0,1.1-1.2,1.1c-3.5,0-4.8-4.4-4.9-6.9c-0.5-4.3-0.8-8.6-0.8-13s0.4-8.2,1.2-12.4
		c0.2-1.3,1.6-2.6,3.1-2.6c1,0,1.6,0.6,1.5,1.3c-0.7,6-0.9,13.3-0.9,19.5c0,2.1,0.1,4.1,0.4,6c5.5-2.5,8.5-7.3,12.9-11.6
		c1-1,2.4-2.6,4-2.6c0.5,0,1,0.3,1,0.8c0,0.4,0,0.6-0.4,1c-1,1.2-5.6,6-6.5,6.8c-1.3,1.2-2.4,2.2-3.5,3.1c0.3,2.6,4.5,3.4,4.7,5.8
		c0,1.1-0.7,1.9-2,1.9c-3,0-5.2-2.4-7.9-4c-0.7,0.3-1.3,0.7-2,0.9c0,0.4,0.2,0.7,0.3,1.1C217.9,98.1,218.4,99,218.4,100.4z"/>
	<path class="st1" d="M240.4,99.2c-2.7,0.1-6-1.6-6.3-4.2c-0.5-6,5.5-11.5,12-13.2c1.6-0.3,3.8,0.4,4.8,2c0.6,1.1,1.3,2.4,0.2,3.3
		c-0.3,0.4-1,0.6-1.1,0.3c-0.5-0.7-1.8-2.4-3.1-2.2c-4.4,0.2-7.2,2.8-7.5,6c-0.4,2.7,0.9,4.4,3.2,4.3c2.5-0.1,4.1-0.9,5.5-1.8
		c0.9-0.6,1.6-2.1,2.8-2.1c1.3,0,1.6,2.4,3.2,3.1c2,0.9,4.8,0.1,6.7-0.4c0.4,0,0.5,0.5,0.3,0.7c-2.8,2.9-6.7,4.2-8.6,4.2
		c-2,0-3.3-1.2-4.4-2.3C247.1,95.9,243.5,98.9,240.4,99.2z"/>
	<path class="st1" d="M270.3,88.8c-1,0.2-2,1.3-2.7,2.1c-2,2.4-4.1,7.9-6.8,8.1c-1.5,0-1.5-1.2-1.4-2.1c0.4-4.3,0.1-7.9,0.1-12.4
		c0.1-1.3,1.3-3.2,3.3-3.6c0.5,0,1.2,0.8,1.4,1.2c0.1,0.9-0.4,5.3-0.3,6.6c0,0.8-0.2,2,1,1.5c2.2-0.9,5.5-7.1,8.5-7.4
		c1.4-0.1,2.3,1,2.5,1.9c0.9,3,1.4,5.9,2.6,8.8c0.6,1.6,1.8,2.5,3.3,2.5c1,0,2.1-0.2,3.3-0.8c0.9-0.5,0.7,0.8,0.3,1.4
		c-1.4,2.1-4.9,4.1-6.7,4.1c-2.8,0-4.4-2.9-5.1-5c-0.2-0.9-1.1-4.9-1.4-5.7C271.7,89.2,271,88.7,270.3,88.8z"/>
</g>
<g class="st2">
	<path class="st1" d="M116.9,118.7c-0.7-0.9-1.3-1.8-2-2.8c-0.5-0.7-1.6-1.5-1.7-2.1c0-0.5,1.6-0.9,2.3-0.8c1.3,0.2,2.2,2.2,2.9,3.1
		c0.5,0.6,3.1,3.8,3.7,4.6c2.9,3.6,4.4,5.4,6.7,6.9c-0.1-4.5,0.1-6.9,0.5-9.9c0.4-2.4,1.6-6.6,3.3-8.2c1.1-1,3-1.8,4.2-0.4
		c0.3,0.4-1.6,1.4-2.8,2c-1.4,1.8-2.5,5.4-2.7,8.5c-0.3,3.1-0.1,4.7,0.8,9.6c0.6,0.3,1.1,0.6,1.1,0.9c-0.1,0.8-1.5,1.1-2.3,1.1
		c-1.3,0-4.4-2-6.5-4c-1.8-1.8-3.5-3.5-5-5.3c-0.6,1-0.5,3.8-0.6,5.2c0.2,0.7,0.5,0.6,0.5,1.2c0,0.6-1.2,1.4-1.9,1.4
		c-1,0-1.1-1.3-1.1-1.9C116.3,124.7,116.5,121.7,116.9,118.7z"/>
	<path class="st1" d="M139.3,129.3c-1.4,0.1-3.2-0.8-3.3-2.2c-0.3-3.1,2.9-6,6.3-6.9c0.8-0.2,2,0.2,2.5,1.1c0.3,0.6,0.7,1.2,0.1,1.7
		c-0.1,0.2-0.5,0.3-0.6,0.2c-0.2-0.4-0.9-1.2-1.6-1.1c-2.3,0.1-3.8,1.4-3.9,3.1c-0.2,1.4,0.4,2.3,1.7,2.2c1.3-0.1,2.1-0.4,2.9-0.9
		c0.4-0.3,0.8-1.1,1.5-1.1c0.7,0,0.8,1.3,1.7,1.6c1.1,0.5,2.5,0,3.5-0.2c0.2,0,0.2,0.3,0.2,0.4c-1.4,1.5-3.5,2.2-4.5,2.2
		c-1,0-1.7-0.6-2.3-1.2C142.8,127.6,140.9,129.1,139.3,129.3z"/>
	<path class="st1" d="M155.7,130.3c0-0.7,0-1.6-0.1-2.1c-1,0.9-2.6,1.6-4.1,1.6c-1.9,0-2.7-1.5-2.7-2.9c0-2.3,3.6-6.8,7.2-6.8
		c1.1,0,3.4,1.2,3.2,2.4c-0.1,0.5-0.9,1-1.6,1c-0.5,0-1.7-1.6-2.8-1.6c-1.4,0-3.3,2.5-3.4,3.7c-0.1,1.2,0.2,2.1,1.7,2.1
		c1.9,0,2.7-1.9,3.8-1.9c0.9,0,1.1,1.1,1.1,1.6c0,0.3,0.1,1.2,0,2.3c0.9,0,1.8,0,1.5,0.7c-0.1,0.3-0.8,0.7-1.8,0.8
		c-0.6,2.4-2.2,4.4-3.7,4.6c-1,0.2-1.8-1.1-1.7-1.8C152.6,132.5,154.1,131,155.7,130.3z M155.7,131.6c-1.4,0.4-1.5,1.5-1.5,1.9
		c0,0.2,0,0.7,0.4,0.7C155.4,134.1,155.6,132.4,155.7,131.6z"/>
	<path class="st1" d="M164.2,129.3c-1.4,0.1-3.2-0.8-3.3-2.2c-0.3-3.1,2.9-6,6.3-6.9c0.8-0.2,2,0.2,2.5,1.1c0.3,0.6,0.7,1.2,0.1,1.7
		c-0.1,0.2-0.5,0.3-0.6,0.2c-0.2-0.4-0.9-1.2-1.6-1.1c-2.3,0.1-3.8,1.4-3.9,3.1c-0.2,1.4,0.4,2.3,1.7,2.2c1.3-0.1,2.1-0.4,2.9-0.9
		c0.4-0.3,0.8-1.1,1.5-1.1c0.7,0,0.8,1.3,1.7,1.6c1.1,0.5,2.5,0,3.5-0.2c0.2,0,0.2,0.3,0.2,0.4c-1.4,1.5-3.5,2.2-4.5,2.2
		c-1,0-1.7-0.6-2.3-1.2C167.7,127.6,165.8,129.1,164.2,129.3z"/>
	<path class="st1" d="M179.8,123.8c-0.5,0.1-1,0.7-1.4,1.1c-1,1.3-2.2,4.2-3.6,4.2c-0.8,0-0.8-0.6-0.7-1.1c0.2-2.3,0-4.2,0-6.5
		c0.1-0.7,0.7-1.7,1.7-1.9c0.3,0,0.6,0.4,0.7,0.6c0.1,0.5-0.2,2.8-0.2,3.4c0,0.4-0.1,1,0.5,0.8c1.2-0.5,2.9-3.7,4.4-3.9
		c0.7,0,1.2,0.5,1.3,1c0.4,1.6,0.7,3.1,1.3,4.6c0.3,0.8,0.9,1.3,1.7,1.3c0.5,0,1.1-0.1,1.7-0.4c0.5-0.2,0.3,0.4,0.2,0.7
		c-0.7,1.1-2.6,2.2-3.5,2.2c-1.4,0-2.3-1.5-2.7-2.6c-0.1-0.4-0.6-2.6-0.7-3C180.5,124,180.2,123.8,179.8,123.8z"/>
	<path class="st1" d="M192,123.1c0-0.3-0.2-0.6-0.7-0.5c-0.5,0.2-1,1-1,2.5c0,1.7,1,2.3,2.8,2.3c1.9,0,3.1-0.8,3.2-2.8
		c0-0.7-0.3-1.1-0.3-1.7c0-0.6,1.3-0.8,1.8-0.8c0.6,0,1,0.5,2.7,0.5c1.1,0,1.7-0.3,2.9-0.3c0.2,0,0.1,0.4-0.1,0.6
		c-0.8,0.7-2.3,1-2.9,1.2c-0.8,0.2-1.4,0.4-1.8,0.4c0,0.3-0.1,1-1.1,2c-1.7,1.8-4.1,2.4-6.7,2.5c-2.1,0.1-3.8-1.5-3.7-3.2
		c0-2.1,1.6-4.9,4.5-4.9c1,0,1.9,0.4,2,1.4c0,1-1.1,1.4-1.4,1.3C191.9,123.6,192,123.3,192,123.1z"/>
</g>
<g>
	<g class="st2">
		<path class="st1" d="M102.8,167.8c-0.7,0.5-1.6,0.7-2.7,0.7c-1.8,0-3.2-0.6-4.4-1.8c-1.2-1.2-1.8-2.9-1.8-5.1
			c0-2.2,0.6-3.9,1.8-5.2s2.8-2,4.7-2c1.7,0,3.1,0.4,4.1,1.3c1,0.9,1.6,1.9,1.8,3.2h-2.7c-0.2-0.9-0.7-1.6-1.6-1.9
			c-0.5-0.2-1-0.3-1.5-0.3c-1.1,0-2,0.4-2.7,1.2c-0.7,0.8-1,2-1,3.7c0,1.6,0.4,2.8,1.1,3.5c0.7,0.7,1.6,1,2.6,1
			c0.9,0,1.7-0.3,2.3-0.8c0.6-0.5,1-1.2,1.1-2.1h-3.1v-2.2h5.6v7.2h-1.8l-0.3-1.7C103.7,167.1,103.2,167.5,102.8,167.8z"/>
		<path class="st1" d="M114.8,160.6c-1,0-1.7,0.3-2.1,1c-0.2,0.4-0.3,1-0.3,1.8v4.7h-2.6v-9.9h2.5v1.7c0.4-0.7,0.7-1.1,1-1.4
			c0.5-0.4,1.1-0.6,1.9-0.6c0,0,0.1,0,0.1,0c0,0,0.1,0,0.2,0v2.6c-0.2,0-0.3,0-0.4,0S114.8,160.6,114.8,160.6z"/>
		<path class="st1" d="M118.4,159.3c0.7-0.9,1.9-1.3,3.5-1.3c1.1,0,2,0.2,2.9,0.6s1.3,1.2,1.3,2.4v4.5c0,0.3,0,0.7,0,1.1
			c0,0.3,0.1,0.6,0.2,0.7s0.2,0.2,0.4,0.3v0.4h-2.8c-0.1-0.2-0.1-0.4-0.2-0.6c0-0.2-0.1-0.4-0.1-0.6c-0.4,0.4-0.8,0.7-1.2,1
			c-0.6,0.3-1.2,0.5-1.9,0.5c-0.9,0-1.6-0.3-2.2-0.8s-0.9-1.2-0.9-2.2c0-1.2,0.5-2.1,1.4-2.6c0.5-0.3,1.3-0.5,2.3-0.6l0.9-0.1
			c0.5-0.1,0.8-0.1,1-0.2c0.4-0.2,0.6-0.4,0.6-0.7c0-0.4-0.1-0.7-0.4-0.8c-0.3-0.2-0.7-0.2-1.2-0.2c-0.6,0-1,0.2-1.3,0.5
			c-0.2,0.2-0.3,0.5-0.4,0.9h-2.5C117.7,160.6,117.9,159.9,118.4,159.3z M120.3,166.3c0.2,0.2,0.5,0.3,0.9,0.3
			c0.6,0,1.1-0.2,1.5-0.5c0.5-0.3,0.7-0.9,0.7-1.8v-1c-0.2,0.1-0.3,0.2-0.5,0.2s-0.4,0.1-0.7,0.2l-0.6,0.1c-0.5,0.1-0.9,0.2-1.2,0.4
			c-0.4,0.2-0.6,0.6-0.6,1.1C119.9,165.7,120.1,166.1,120.3,166.3z"/>
		<path class="st1" d="M134,160.2c-0.9,0-1.5,0.4-1.8,1.1c-0.2,0.4-0.3,0.9-0.3,1.5v5.3h-2.6v-9.9h2.5v1.4c0.3-0.5,0.6-0.9,0.9-1.1
			c0.5-0.4,1.2-0.6,2-0.6c1,0,1.9,0.3,2.5,0.8c0.6,0.5,1,1.4,1,2.7v6.7h-2.6v-6c0-0.5-0.1-0.9-0.2-1.2
			C135.2,160.4,134.7,160.2,134,160.2z"/>
		<path class="st1" d="M150.6,154.8v13.3h-2.5v-1.4c-0.4,0.6-0.8,1-1.3,1.3c-0.5,0.3-1.1,0.4-1.8,0.4c-1.2,0-2.1-0.5-2.9-1.4
			c-0.8-0.9-1.2-2.1-1.2-3.6c0-1.7,0.4-3,1.2-4s1.8-1.5,3.1-1.5c0.6,0,1.1,0.1,1.6,0.4c0.5,0.3,0.8,0.6,1.1,1.1v-4.7H150.6z
			 M143.7,163.2c0,0.9,0.2,1.6,0.5,2.2c0.4,0.5,0.9,0.8,1.6,0.8s1.3-0.3,1.7-0.8s0.6-1.2,0.6-2.1c0-1.2-0.3-2.1-0.9-2.6
			c-0.4-0.3-0.8-0.5-1.3-0.5c-0.8,0-1.3,0.3-1.7,0.9C143.8,161.7,143.7,162.4,143.7,163.2z"/>
		<path class="st1" d="M168.3,159.5c0.8,1,1.3,2.3,1.3,3.7c0,1.5-0.4,2.7-1.3,3.7s-2.1,1.5-3.8,1.5s-3-0.5-3.8-1.5s-1.3-2.3-1.3-3.7
			c0-1.4,0.4-2.7,1.3-3.7c0.8-1,2.1-1.6,3.8-1.6S167.5,158.4,168.3,159.5z M164.5,160.1c-0.8,0-1.3,0.3-1.7,0.8
			c-0.4,0.5-0.6,1.3-0.6,2.3s0.2,1.8,0.6,2.3s1,0.8,1.7,0.8c0.8,0,1.3-0.3,1.7-0.8s0.6-1.3,0.6-2.3s-0.2-1.8-0.6-2.3
			C165.9,160.4,165.3,160.1,164.5,160.1z"/>
		<path class="st1" d="M180.7,159.3c0.8,0.9,1.2,2.1,1.2,3.8c0,1.7-0.4,3.1-1.2,4c-0.8,0.9-1.8,1.4-3,1.4c-0.8,0-1.4-0.2-2-0.6
			c-0.3-0.2-0.6-0.5-0.8-1v5.1h-2.6v-13.8h2.5v1.5c0.3-0.4,0.6-0.8,0.9-1c0.6-0.4,1.3-0.7,2-0.7C178.9,158,179.9,158.4,180.7,159.3z
			 M179.2,163.2c0-0.8-0.2-1.4-0.5-2s-0.9-0.9-1.7-0.9c-0.9,0-1.6,0.4-1.9,1.3c-0.2,0.5-0.3,1.1-0.3,1.8c0,1.1,0.3,2,0.9,2.4
			c0.4,0.3,0.8,0.4,1.3,0.4c0.7,0,1.3-0.3,1.6-0.8C179,164.8,179.2,164.1,179.2,163.2z"/>
		<path class="st1" d="M193.2,165.2c-0.1,0.6-0.4,1.2-0.9,1.8c-0.8,1-2,1.4-3.6,1.4c-1.3,0-2.4-0.4-3.3-1.2c-1-0.8-1.4-2.1-1.4-4
			c0-1.7,0.4-3,1.3-3.9c0.9-0.9,2-1.4,3.4-1.4c0.8,0,1.6,0.2,2.2,0.5c0.7,0.3,1.2,0.8,1.6,1.5c0.4,0.6,0.6,1.3,0.8,2
			c0.1,0.5,0.1,1.1,0.1,2h-6.8c0,1,0.3,1.7,0.9,2.1c0.4,0.2,0.8,0.4,1.3,0.4c0.5,0,1-0.2,1.3-0.5c0.2-0.2,0.3-0.4,0.5-0.7H193.2z
			 M190.7,162.2c0-0.7-0.2-1.2-0.6-1.6c-0.4-0.4-0.8-0.5-1.4-0.5c-0.6,0-1.1,0.2-1.4,0.6s-0.5,0.9-0.6,1.5H190.7z"/>
		<path class="st1" d="M200.7,160.2c-0.9,0-1.5,0.4-1.8,1.1c-0.2,0.4-0.3,0.9-0.3,1.5v5.3h-2.6v-9.9h2.5v1.4
			c0.3-0.5,0.6-0.9,0.9-1.1c0.5-0.4,1.2-0.6,2-0.6c1,0,1.9,0.3,2.5,0.8c0.6,0.5,1,1.4,1,2.7v6.7h-2.6v-6c0-0.5-0.1-0.9-0.2-1.2
			C201.9,160.4,201.4,160.2,200.7,160.2z"/>
	</g>
</g>
<g>
	<polygon class="st1" points="158.6,20.6 155.7,15.5 152.3,15.5 157,23.6 157,27.5 160.1,27.5 160.1,23.5 164.8,15.5 161.4,15.6 	
		"/>
	<polygon class="st1" points="145.9,23 143.5,15.5 141.2,15.5 138.8,23.1 136.3,15.5 133.1,15.5 137.3,27.5 140,27.5 142.4,20.4 
		144.6,27.5 147.2,27.5 151.7,15.5 148.3,15.5 	"/>
	<polygon class="st1" points="173.8,22.7 168.5,15.5 165.6,15.5 165.6,27.5 168.7,27.5 168.7,20.2 174.1,27.5 176.9,27.5 
		176.9,15.5 173.8,15.5 	"/>
	<polygon class="st1" points="199.6,20.2 194.8,20.2 194.8,15.5 191.7,15.5 191.7,27.5 194.8,27.5 194.8,22.9 199.6,22.9 
		199.6,27.5 202.7,27.5 202.7,15.5 199.6,15.5 	"/>
	<polygon class="st1" points="227.5,15.5 223.9,21.3 220.2,15.5 217.2,15.5 217.2,27.5 220.2,27.5 220.2,20.6 223,24.8 224.7,24.8 
		227.5,20.5 227.5,27.5 230.5,27.5 230.5,15.5 	"/>
	<path class="st1" d="M208.4,15.5l-4.8,11.9h3.2l0.6-1.7h4.9l0.6,1.7h3.2l-4.6-11.9H208.4z M208.3,23.5L210,19l1.6,4.5H208.3z"/>
	<path class="st1" d="M184,15.5h-5v11.9h5c4.2,0,6.4-2.9,6.4-6S188,15.5,184,15.5z M183.7,24.9H182v-6.8h1.7c2.1,0,3.5,1.7,3.5,3.3
		C187.2,23.1,185.9,24.9,183.7,24.9z"/>
</g>
<g>
	<polygon class="st1" points="97.4,15.5 94.3,15.5 94.3,27.5 103,27.5 103,24.9 97.4,24.9 	"/>
	<path class="st1" d="M87.2,27.7c2.4,0,4.7-1.2,5.7-3.2l-2.5-1.4c-0.7,1.2-1.8,1.8-3.2,1.8c-1.9,0-3.3-1.4-3.3-3.5s1.4-3.5,3.3-3.5
		c1.4,0,2.5,0.7,3.2,1.8l2.5-1.4c-1.1-2-3.3-3.2-5.7-3.2c-4.1,0-6.7,2.9-6.7,6.3C80.5,25,83.1,27.7,87.2,27.7z"/>
	<path class="st1" d="M112.1,22.9c0,1.3-1,2.3-2.4,2.3c-1.3,0-2.3-1-2.3-2.3v-7.4h-3.1v7.3c0,2.9,2.1,5,5.5,5c3.3,0,5.5-2.1,5.5-5
		v-7.3h-3.1L112.1,22.9L112.1,22.9z"/>
	<path class="st1" d="M127.5,24c0-1.2-0.7-2.3-2-2.7c1-0.5,1.7-1.3,1.7-2.5c0-1.7-1.1-3.3-4.1-3.3H117v11.9h6.2
		C125.9,27.5,127.5,26,127.5,24z M119.9,17.8h2.4c1.1,0,1.5,0.6,1.5,1.2c0,0.7-0.5,1.2-1.5,1.2h-2.5L119.9,17.8L119.9,17.8z
		 M119.9,25.1v-2.6h2.6c1.1,0,1.7,0.6,1.7,1.3c0,0.8-0.6,1.3-1.7,1.3C122.5,25.1,119.9,25.1,119.9,25.1z"/>
</g>
</svg>
