<?xml version="1.0" encoding="utf-8"?>
<!-- Generator: Adobe Illustrator 27.6.1, SVG Export Plug-In . SVG Version: 6.00 Build 0)  -->
<svg version="1.1" id="レイヤー_1" xmlns="http://www.w3.org/2000/svg" xmlns:xlink="http://www.w3.org/1999/xlink" x="0px"
	 y="0px" viewBox="0 0 19.2 16.1" style="enable-background:new 0 0 19.2 16.1;" xml:space="preserve">
<style type="text/css">
	.st0{fill:#010101;}
</style>
<path id="合体_2" class="st0" d="M10.5,16.1c-0.1-0.1-0.3-0.1-0.4-0.2c-0.4-0.4-0.4-1,0-1.4c0,0,0,0,0,0l5.5-5.4H1
	c-0.6,0-1-0.4-1-1s0.4-1,1-1h14.7l-5.5-5.4c-0.4-0.4-0.4-1,0-1.4c0.4-0.4,1-0.4,1.4,0l7.3,7.1c0.2,0.2,0.3,0.5,0.3,0.8
	c0,0.3-0.1,0.5-0.3,0.7l-7.3,7.1c-0.2,0.2-0.4,0.3-0.7,0.3C10.7,16.1,10.6,16.1,10.5,16.1z"/>
</svg>
