<?xml version="1.0" encoding="utf-8"?>
<!-- Generator: Adobe Illustrator 27.0.0, SVG Export Plug-In . SVG Version: 6.00 Build 0)  -->
<svg version="1.1" id="レイヤー_1" xmlns="http://www.w3.org/2000/svg" xmlns:xlink="http://www.w3.org/1999/xlink" x="0px"
	 y="0px" viewBox="0 0 15.2 15.2" style="enable-background:new 0 0 15.2 15.2;" xml:space="preserve">
<style type="text/css">
	.st0{fill-rule:evenodd;clip-rule:evenodd;fill:#000000;}
</style>
<g id="__TEMP__SVG__" transform="translate(-2.25 -2.25)">
	<path id="パス_104" class="st0" d="M9.9,2.2c-4.2,0-7.6,3.4-7.6,7.6s3.4,7.6,7.6,7.6s7.6-3.4,7.6-7.6S14.1,2.2,9.9,2.2z
		 M9.9,16.3c-3.6,0-6.5-2.9-6.5-6.5c0-3.6,2.9-6.5,6.5-6.5c3.6,0,6.5,2.9,6.5,6.5v0C16.3,13.4,13.4,16.3,9.9,16.3z M11.7,6.4
		C11.5,6.2,11.2,6.1,11,6c-0.3-0.1-0.7-0.2-1.1-0.2c-0.4,0-0.7,0.1-1,0.2C8.6,6.1,8.3,6.3,8.1,6.5C8,6.7,7.8,7,7.7,7.2
		C7.6,7.5,7.6,7.8,7.5,8.1H9c0-0.4,0.2-0.7,0.6-0.9c0.1,0,0.2-0.1,0.4-0.1c0.1,0,0.2,0,0.3,0c0.1,0,0.2,0.1,0.3,0.2
		c0.1,0.1,0.1,0.2,0.2,0.3c0,0.1,0.1,0.2,0.1,0.4c0,0.2,0,0.4-0.1,0.6c-0.1,0.2-0.2,0.4-0.3,0.5L9.9,9.5C9.8,9.7,9.6,9.9,9.5,10
		c-0.1,0.2-0.2,0.3-0.3,0.5c-0.1,0.2-0.1,0.4-0.1,0.6v0.8h1.4v-0.6c0-0.2,0-0.3,0.1-0.5c0.1-0.2,0.2-0.3,0.3-0.5l0.4-0.5
		c0.2-0.2,0.3-0.4,0.4-0.6c0.1-0.2,0.2-0.4,0.3-0.6c0.1-0.2,0.1-0.5,0.1-0.8c0-0.3,0-0.5-0.1-0.8C12,6.8,11.9,6.6,11.7,6.4L11.7,6.4
		z M9.1,12.6h1.4V14H9.1V12.6z"/>
</g>
</svg>
