<svg xmlns="http://www.w3.org/2000/svg" width="624.906" height="37.093" viewBox="0 0 624.906 37.093">
  <path id="パス_463" data-name="パス 463" d="M120.363,36.613h-2.649v-23.7h-8.721V10.56h20.092v2.355h-8.721Zm14.462-14.388a5.2,5.2,0,0,1,2.318-2.392,7.114,7.114,0,0,1,3.459-.883,6.052,6.052,0,0,1,4.913,1.95,7.746,7.746,0,0,1,1.638,5.152V36.613h-2.5V27.082a12.616,12.616,0,0,0-.221-2.465,5.162,5.162,0,0,0-.754-1.9,3.607,3.607,0,0,0-1.435-1.233,5.131,5.131,0,0,0-2.263-.442,4.831,4.831,0,0,0-1.932.4,4.747,4.747,0,0,0-1.674,1.233,6.162,6.162,0,0,0-1.178,2.1,9.144,9.144,0,0,0-.442,3v8.832h-2.5V8.794h2.5V22.225ZM164.484,25.5a4.38,4.38,0,0,0-1.178-3.349,4.825,4.825,0,0,0-3.422-1.1,7.388,7.388,0,0,0-2.87.552,6.863,6.863,0,0,0-2.245,1.472l-1.4-1.656a8.257,8.257,0,0,1,2.815-1.766,10.577,10.577,0,0,1,3.956-.7,8.571,8.571,0,0,1,2.613.386,6.2,6.2,0,0,1,2.134,1.159,5.249,5.249,0,0,1,1.435,1.95,6.84,6.84,0,0,1,.515,2.76v7.544q0,.994.074,2.061a14.463,14.463,0,0,0,.221,1.8h-2.245q-.11-.626-.184-1.362t-.074-1.435h-.074a7.259,7.259,0,0,1-2.668,2.484,7.867,7.867,0,0,1-3.588.754,8.009,8.009,0,0,1-2.042-.276,5.718,5.718,0,0,1-1.913-.9,5.1,5.1,0,0,1-1.435-1.619,4.808,4.808,0,0,1-.57-2.429,4.618,4.618,0,0,1,1.012-3.146,6.072,6.072,0,0,1,2.7-1.73,15.943,15.943,0,0,1,3.882-.736q2.189-.166,4.545-.166Zm-.736,2.5q-1.546,0-3.109.129a13.562,13.562,0,0,0-2.833.515,5.358,5.358,0,0,0-2.079,1.122,2.509,2.509,0,0,0-.81,1.95,3.131,3.131,0,0,0,.35,1.546,2.86,2.86,0,0,0,.938,1.012,4,4,0,0,0,1.306.552,6.444,6.444,0,0,0,1.454.166,5.722,5.722,0,0,0,2.355-.46,4.983,4.983,0,0,0,1.73-1.251,5.53,5.53,0,0,0,1.067-1.822,6.406,6.406,0,0,0,.368-2.171V28Zm11.775-8.611q.074.7.11,1.546t.037,1.4h.074a5.667,5.667,0,0,1,2.392-2.447,6.985,6.985,0,0,1,3.5-.938,6.052,6.052,0,0,1,4.913,1.95,7.746,7.746,0,0,1,1.638,5.152V36.613h-2.5V27.082a12.616,12.616,0,0,0-.221-2.465,5.162,5.162,0,0,0-.754-1.9,3.607,3.607,0,0,0-1.435-1.233,5.131,5.131,0,0,0-2.263-.442,4.831,4.831,0,0,0-1.932.4,4.746,4.746,0,0,0-1.674,1.233,6.162,6.162,0,0,0-1.178,2.1,9.144,9.144,0,0,0-.442,3v8.832h-2.5V23.182q0-.7-.037-1.8t-.11-1.987Zm21.711,7.764h.11l7.948-7.764H208.9l-8.684,7.875,9.568,9.347H206.1l-8.758-9.052h-.11v9.052h-2.5V8.794h2.5Zm31.315,6.771h.074l5.336-14.535h2.723l-8.574,21.674a9.09,9.09,0,0,1-1.969,3.183,4.657,4.657,0,0,1-3.441,1.2,11.417,11.417,0,0,1-2.245-.221l.258-2.281a5.78,5.78,0,0,0,1.84.294,2.629,2.629,0,0,0,2.024-.791,6.827,6.827,0,0,0,1.288-2.263l1.4-3.606L219.9,19.391h2.8ZM257.693,28a9.393,9.393,0,0,1-.681,3.606,8.675,8.675,0,0,1-1.9,2.87,8.588,8.588,0,0,1-2.907,1.9,9.872,9.872,0,0,1-3.717.681,9.771,9.771,0,0,1-3.68-.681,8.588,8.588,0,0,1-2.907-1.9,8.675,8.675,0,0,1-1.9-2.87,9.892,9.892,0,0,1,0-7.212,8.675,8.675,0,0,1,1.9-2.87,8.588,8.588,0,0,1,2.907-1.9,9.771,9.771,0,0,1,3.68-.681,9.872,9.872,0,0,1,3.717.681,8.588,8.588,0,0,1,2.907,1.9,8.675,8.675,0,0,1,1.9,2.87A9.393,9.393,0,0,1,257.693,28Zm-2.649,0a7.879,7.879,0,0,0-.46-2.7,6.627,6.627,0,0,0-1.306-2.208,6.181,6.181,0,0,0-2.061-1.49,6.507,6.507,0,0,0-2.723-.552,6.382,6.382,0,0,0-2.7.552,6.232,6.232,0,0,0-2.042,1.49,6.627,6.627,0,0,0-1.306,2.208,8.182,8.182,0,0,0,0,5.409,6.627,6.627,0,0,0,1.306,2.208,6.014,6.014,0,0,0,2.042,1.472,6.571,6.571,0,0,0,2.7.534,6.7,6.7,0,0,0,2.723-.534,5.969,5.969,0,0,0,2.061-1.472,6.627,6.627,0,0,0,1.306-2.208A7.879,7.879,0,0,0,255.044,28Zm20.533,8.611q-.074-.7-.11-1.546t-.037-1.4h-.074a5.667,5.667,0,0,1-2.392,2.447,6.985,6.985,0,0,1-3.5.938,6.052,6.052,0,0,1-4.913-1.95,7.746,7.746,0,0,1-1.638-5.152V19.391h2.5v9.531a12.616,12.616,0,0,0,.221,2.465,5.163,5.163,0,0,0,.754,1.9,3.607,3.607,0,0,0,1.435,1.233,5.131,5.131,0,0,0,2.263.442,4.831,4.831,0,0,0,1.932-.4A4.747,4.747,0,0,0,273.7,33.32a6.162,6.162,0,0,0,1.178-2.1,9.145,9.145,0,0,0,.442-3V19.391h2.5V32.823q0,.7.037,1.8t.11,1.987Zm25.354-15.124h-4.048V36.613h-2.5V21.489h-3.606v-2.1h3.606v-4.71a6.943,6.943,0,0,1,1.435-4.637,5.47,5.47,0,0,1,4.416-1.693q.478,0,1.03.055a5.287,5.287,0,0,1,1.03.2l-.442,2.208q-.4-.11-.81-.184a5.177,5.177,0,0,0-.92-.074,3.568,3.568,0,0,0-1.637.331,2.368,2.368,0,0,0-.994.938,4.11,4.11,0,0,0-.478,1.417,11.013,11.013,0,0,0-.129,1.73v4.416h4.048ZM321.612,28a9.393,9.393,0,0,1-.681,3.606,8.5,8.5,0,0,1-4.8,4.765,9.872,9.872,0,0,1-3.717.681,9.771,9.771,0,0,1-3.68-.681,8.588,8.588,0,0,1-2.907-1.9,8.675,8.675,0,0,1-1.9-2.87,9.892,9.892,0,0,1,0-7.212,8.675,8.675,0,0,1,1.9-2.87,8.588,8.588,0,0,1,2.907-1.9,9.771,9.771,0,0,1,3.68-.681,9.872,9.872,0,0,1,3.717.681,8.5,8.5,0,0,1,4.8,4.765A9.393,9.393,0,0,1,321.612,28Zm-2.649,0a7.878,7.878,0,0,0-.46-2.7A6.626,6.626,0,0,0,317.2,23.09a6.181,6.181,0,0,0-2.061-1.49,6.507,6.507,0,0,0-2.723-.552,6.382,6.382,0,0,0-2.7.552,6.232,6.232,0,0,0-2.042,1.49,6.626,6.626,0,0,0-1.306,2.208,8.181,8.181,0,0,0,0,5.409,6.626,6.626,0,0,0,1.306,2.208,6.014,6.014,0,0,0,2.042,1.472,6.571,6.571,0,0,0,2.7.534,6.7,6.7,0,0,0,2.723-.534,5.969,5.969,0,0,0,2.061-1.472,6.626,6.626,0,0,0,1.306-2.208A7.878,7.878,0,0,0,318.962,28Zm8.022-4.821q0-.7-.037-1.8t-.11-1.987h2.392q.074.7.11,1.546t.037,1.4h.074a5.965,5.965,0,0,1,2.208-2.447,6.03,6.03,0,0,1,3.312-.938q.478,0,.865.037a4.7,4.7,0,0,1,.791.147l-.331,2.355a4.707,4.707,0,0,0-.736-.147,7.277,7.277,0,0,0-1.03-.074,5.106,5.106,0,0,0-1.914.368,4.1,4.1,0,0,0-1.6,1.159,6.108,6.108,0,0,0-1.1,2.024,9.166,9.166,0,0,0-.423,2.962v8.832h-2.5Zm28.371,10.745h.074l5.336-14.535h2.723l-8.574,21.674a9.09,9.09,0,0,1-1.969,3.183,4.657,4.657,0,0,1-3.441,1.2,11.417,11.417,0,0,1-2.245-.221l.258-2.281a5.78,5.78,0,0,0,1.84.294,2.629,2.629,0,0,0,2.024-.791,6.826,6.826,0,0,0,1.288-2.263l1.4-3.606-7.36-17.185h2.8ZM384.5,28a9.393,9.393,0,0,1-.681,3.606,8.5,8.5,0,0,1-4.8,4.765,9.872,9.872,0,0,1-3.717.681,9.771,9.771,0,0,1-3.68-.681,8.588,8.588,0,0,1-2.907-1.9,8.675,8.675,0,0,1-1.9-2.87,9.892,9.892,0,0,1,0-7.212,8.675,8.675,0,0,1,1.9-2.87,8.588,8.588,0,0,1,2.907-1.9,9.771,9.771,0,0,1,3.68-.681,9.872,9.872,0,0,1,3.717.681,8.5,8.5,0,0,1,4.8,4.765A9.393,9.393,0,0,1,384.5,28Zm-2.649,0a7.878,7.878,0,0,0-.46-2.7,6.626,6.626,0,0,0-1.306-2.208,6.181,6.181,0,0,0-2.061-1.49,6.507,6.507,0,0,0-2.723-.552,6.382,6.382,0,0,0-2.7.552,6.232,6.232,0,0,0-2.042,1.49,6.626,6.626,0,0,0-1.306,2.208,8.182,8.182,0,0,0,0,5.409,6.626,6.626,0,0,0,1.306,2.208,6.014,6.014,0,0,0,2.042,1.472,6.571,6.571,0,0,0,2.7.534,6.7,6.7,0,0,0,2.723-.534,5.969,5.969,0,0,0,2.061-1.472,6.626,6.626,0,0,0,1.306-2.208A7.878,7.878,0,0,0,381.85,28Zm20.533,8.611q-.074-.7-.11-1.546t-.037-1.4h-.074a5.667,5.667,0,0,1-2.392,2.447,6.986,6.986,0,0,1-3.5.938,6.052,6.052,0,0,1-4.913-1.95,7.746,7.746,0,0,1-1.638-5.152V19.391h2.5v9.531a12.616,12.616,0,0,0,.221,2.465,5.162,5.162,0,0,0,.754,1.9,3.606,3.606,0,0,0,1.435,1.233,5.131,5.131,0,0,0,2.263.442,4.831,4.831,0,0,0,1.932-.4,4.747,4.747,0,0,0,1.674-1.233,6.162,6.162,0,0,0,1.178-2.1,9.145,9.145,0,0,0,.442-3V19.391h2.5V32.823q0,.7.037,1.8t.11,1.987Zm8.868-13.431q0-.7-.037-1.8t-.11-1.987H413.5q.074.7.11,1.546t.037,1.4h.074a5.965,5.965,0,0,1,2.208-2.447,6.03,6.03,0,0,1,3.312-.938q.478,0,.865.037a4.7,4.7,0,0,1,.791.147l-.331,2.355a4.707,4.707,0,0,0-.736-.147,7.276,7.276,0,0,0-1.03-.074,5.106,5.106,0,0,0-1.914.368,4.1,4.1,0,0,0-1.6,1.159,6.108,6.108,0,0,0-1.1,2.024,9.167,9.167,0,0,0-.423,2.962v8.832h-2.5Zm22.447,0q0-.7-.037-1.8t-.11-1.987h2.392q.074.7.11,1.546t.037,1.4h.074a5.965,5.965,0,0,1,2.208-2.447,6.03,6.03,0,0,1,3.312-.938q.478,0,.865.037a4.7,4.7,0,0,1,.791.147l-.331,2.355a4.707,4.707,0,0,0-.736-.147,7.276,7.276,0,0,0-1.03-.074,5.106,5.106,0,0,0-1.914.368,4.1,4.1,0,0,0-1.6,1.159,6.108,6.108,0,0,0-1.1,2.024,9.167,9.167,0,0,0-.423,2.962v8.832h-2.5Zm25.722,3.5a6.207,6.207,0,0,0-1.564-4.029,5.307,5.307,0,0,0-4.14-1.6,5.794,5.794,0,0,0-2.318.46,6.131,6.131,0,0,0-1.877,1.251,6.22,6.22,0,0,0-1.288,1.8,5.814,5.814,0,0,0-.552,2.116Zm2.539.81v.552a5.684,5.684,0,0,1-.037.626H447.645a6.722,6.722,0,0,0,.515,2.429,6.133,6.133,0,0,0,1.325,1.987,6.385,6.385,0,0,0,1.987,1.343,6.579,6.579,0,0,0,5.833-.4,6.738,6.738,0,0,0,2.153-2.079l1.877,1.472a9.335,9.335,0,0,1-3.4,2.8,9.518,9.518,0,0,1-3.993.846,9.158,9.158,0,0,1-3.551-.681,8.318,8.318,0,0,1-2.815-1.9,8.978,8.978,0,0,1-1.858-2.87A9.393,9.393,0,0,1,445.033,28,9.622,9.622,0,0,1,445.7,24.4a8.731,8.731,0,0,1,1.84-2.87,8.461,8.461,0,0,1,2.76-1.9,8.567,8.567,0,0,1,3.422-.681,8.782,8.782,0,0,1,3.569.681,7.357,7.357,0,0,1,2.576,1.84,7.9,7.9,0,0,1,1.564,2.7A10.08,10.08,0,0,1,461.96,27.487ZM477.967,25.5a4.38,4.38,0,0,0-1.178-3.349,4.825,4.825,0,0,0-3.422-1.1,7.388,7.388,0,0,0-2.87.552,6.864,6.864,0,0,0-2.245,1.472l-1.4-1.656a8.257,8.257,0,0,1,2.815-1.766,10.577,10.577,0,0,1,3.956-.7,8.571,8.571,0,0,1,2.613.386,6.2,6.2,0,0,1,2.134,1.159,5.249,5.249,0,0,1,1.435,1.95,6.84,6.84,0,0,1,.515,2.76v7.544q0,.994.074,2.061a14.468,14.468,0,0,0,.221,1.8h-2.245q-.11-.626-.184-1.362t-.074-1.435h-.074a7.259,7.259,0,0,1-2.668,2.484,7.867,7.867,0,0,1-3.588.754,8.009,8.009,0,0,1-2.042-.276,5.718,5.718,0,0,1-1.914-.9,5.1,5.1,0,0,1-1.435-1.619,4.808,4.808,0,0,1-.57-2.429,4.618,4.618,0,0,1,1.012-3.146,6.072,6.072,0,0,1,2.7-1.73,15.943,15.943,0,0,1,3.882-.736q2.189-.166,4.545-.166Zm-.736,2.5q-1.546,0-3.109.129a13.563,13.563,0,0,0-2.833.515,5.358,5.358,0,0,0-2.079,1.122,2.509,2.509,0,0,0-.81,1.95,3.131,3.131,0,0,0,.35,1.546,2.859,2.859,0,0,0,.938,1.012,4,4,0,0,0,1.306.552,6.443,6.443,0,0,0,1.454.166,5.722,5.722,0,0,0,2.355-.46,4.983,4.983,0,0,0,1.729-1.251,5.529,5.529,0,0,0,1.067-1.822,6.406,6.406,0,0,0,.368-2.171V28Zm23.7,5.7a7.065,7.065,0,0,1-2.87,2.5,8.339,8.339,0,0,1-3.643.846,9.236,9.236,0,0,1-3.661-.7,8.343,8.343,0,0,1-2.8-1.914,8.642,8.642,0,0,1-1.8-2.87,10.215,10.215,0,0,1,0-7.139,8.642,8.642,0,0,1,1.8-2.87,8.343,8.343,0,0,1,2.8-1.914,9.236,9.236,0,0,1,3.661-.7,8.193,8.193,0,0,1,3.643.865,7.111,7.111,0,0,1,2.87,2.557H501V8.794h2.5V36.613H501V33.706ZM488.16,28a8.175,8.175,0,0,0,.442,2.7,6.546,6.546,0,0,0,1.27,2.208,5.785,5.785,0,0,0,2.042,1.472,6.8,6.8,0,0,0,2.76.534,6.5,6.5,0,0,0,4.747-1.987,6.587,6.587,0,0,0,1.38-2.189,7.812,7.812,0,0,0,0-5.483,6.8,6.8,0,0,0-1.38-2.208,6.359,6.359,0,0,0-2.1-1.472,6.513,6.513,0,0,0-2.649-.534,6.6,6.6,0,0,0-2.76.552,5.986,5.986,0,0,0-2.042,1.49A6.546,6.546,0,0,0,488.6,25.3,8.175,8.175,0,0,0,488.16,28Zm24.581,8.611h-2.5V19.391h2.5Zm.515-23.845a1.632,1.632,0,0,1-.552,1.27,1.733,1.733,0,0,1-2.429,0,1.736,1.736,0,0,1,0-2.539,1.733,1.733,0,0,1,2.429,0A1.632,1.632,0,0,1,513.257,12.768Zm8.39,6.624q.074.7.11,1.546t.037,1.4h.074a5.668,5.668,0,0,1,2.392-2.447,6.986,6.986,0,0,1,3.5-.938,6.052,6.052,0,0,1,4.913,1.95,7.746,7.746,0,0,1,1.638,5.152V36.613h-2.5V27.082a12.618,12.618,0,0,0-.221-2.465,5.163,5.163,0,0,0-.754-1.9,3.607,3.607,0,0,0-1.435-1.233,5.131,5.131,0,0,0-2.263-.442,4.831,4.831,0,0,0-1.932.4,4.746,4.746,0,0,0-1.674,1.233,6.163,6.163,0,0,0-1.178,2.1,9.145,9.145,0,0,0-.442,3v8.832h-2.5V23.182q0-.7-.037-1.8t-.11-1.987ZM541.7,40.072a8.318,8.318,0,0,0,2.815,2.245,8.7,8.7,0,0,0,6.9.386A5.419,5.419,0,0,0,553.5,41.25a5.8,5.8,0,0,0,1.159-2.153,9.155,9.155,0,0,0,.368-2.631V33.228h-.074a6.583,6.583,0,0,1-2.815,2.5,8.4,8.4,0,0,1-3.7.883,9.685,9.685,0,0,1-3.661-.662,8.3,8.3,0,0,1-2.8-1.822,8.119,8.119,0,0,1-1.8-2.778,9.374,9.374,0,0,1-.644-3.5,9.274,9.274,0,0,1,.644-3.459,8.732,8.732,0,0,1,1.8-2.833,8.343,8.343,0,0,1,2.8-1.914,9.236,9.236,0,0,1,3.661-.7,8.282,8.282,0,0,1,3.68.883,6.769,6.769,0,0,1,2.833,2.539h.074V19.391h2.5V36.466a12.591,12.591,0,0,1-.386,2.981,7.512,7.512,0,0,1-1.435,2.907,8.106,8.106,0,0,1-2.852,2.208,10.654,10.654,0,0,1-4.673.883,11.576,11.576,0,0,1-4.563-.92,11,11,0,0,1-3.717-2.539Zm.478-12.291a7.477,7.477,0,0,0,.442,2.576,6.45,6.45,0,0,0,1.27,2.134,5.9,5.9,0,0,0,2.042,1.454,6.8,6.8,0,0,0,2.76.534,7.167,7.167,0,0,0,2.65-.478,6.078,6.078,0,0,0,2.1-1.362,6.263,6.263,0,0,0,1.38-2.116,7.274,7.274,0,0,0,.5-2.741,6.708,6.708,0,0,0-3.974-6.182,6.327,6.327,0,0,0-2.65-.552,6.6,6.6,0,0,0-2.76.552,6.1,6.1,0,0,0-2.042,1.472,6.449,6.449,0,0,0-1.27,2.134A7.477,7.477,0,0,0,542.18,27.781ZM581,21.489h-4.857V31.535a5.717,5.717,0,0,0,.184,1.582,2.247,2.247,0,0,0,.534.975,1.82,1.82,0,0,0,.828.478,3.951,3.951,0,0,0,1.03.129,4.347,4.347,0,0,0,1.086-.147,5.484,5.484,0,0,0,1.086-.4l.11,2.171a7.41,7.41,0,0,1-1.38.386,8.868,8.868,0,0,1-1.564.129,6.358,6.358,0,0,1-1.472-.184,3.725,3.725,0,0,1-1.435-.7,3.825,3.825,0,0,1-1.086-1.4,5.4,5.4,0,0,1-.423-2.318V21.489h-3.569v-2.1h3.569V14.534h2.5v4.857H581ZM602.014,28a9.394,9.394,0,0,1-.681,3.606,8.675,8.675,0,0,1-1.9,2.87,8.589,8.589,0,0,1-2.907,1.9,9.872,9.872,0,0,1-3.717.681,9.771,9.771,0,0,1-3.68-.681,8.588,8.588,0,0,1-2.907-1.9,8.676,8.676,0,0,1-1.9-2.87,9.892,9.892,0,0,1,0-7.212,8.676,8.676,0,0,1,1.9-2.87,8.588,8.588,0,0,1,2.907-1.9,9.771,9.771,0,0,1,3.68-.681,9.872,9.872,0,0,1,3.717.681,8.589,8.589,0,0,1,2.907,1.9,8.675,8.675,0,0,1,1.9,2.87A9.394,9.394,0,0,1,602.014,28Zm-2.649,0a7.879,7.879,0,0,0-.46-2.7A6.627,6.627,0,0,0,597.6,23.09a6.181,6.181,0,0,0-2.061-1.49,6.507,6.507,0,0,0-2.723-.552,6.383,6.383,0,0,0-2.7.552,6.232,6.232,0,0,0-2.042,1.49,6.626,6.626,0,0,0-1.306,2.208,8.182,8.182,0,0,0,0,5.409,6.626,6.626,0,0,0,1.306,2.208,6.014,6.014,0,0,0,2.042,1.472,6.571,6.571,0,0,0,2.7.534,6.7,6.7,0,0,0,2.723-.534,5.97,5.97,0,0,0,2.061-1.472,6.627,6.627,0,0,0,1.306-2.208A7.879,7.879,0,0,0,599.364,28Zm19.8,5.7v2.907h-2.5V8.794h2.5V22.372h.074a7.111,7.111,0,0,1,2.87-2.557,8.193,8.193,0,0,1,3.643-.865,9.236,9.236,0,0,1,3.661.7,8.341,8.341,0,0,1,2.8,1.914,8.64,8.64,0,0,1,1.8,2.87,10.214,10.214,0,0,1,0,7.139,8.64,8.64,0,0,1-1.8,2.87,8.341,8.341,0,0,1-2.8,1.914,9.236,9.236,0,0,1-3.661.7,8.339,8.339,0,0,1-3.643-.846,7.065,7.065,0,0,1-2.87-2.5ZM632,28a8.177,8.177,0,0,0-.442-2.7,6.547,6.547,0,0,0-1.27-2.208,5.985,5.985,0,0,0-2.042-1.49,6.6,6.6,0,0,0-2.76-.552,6.514,6.514,0,0,0-2.65.534,6.359,6.359,0,0,0-2.1,1.472,6.8,6.8,0,0,0-1.38,2.208,7.812,7.812,0,0,0,0,5.483,6.587,6.587,0,0,0,1.38,2.189,6.5,6.5,0,0,0,4.747,1.987,6.8,6.8,0,0,0,2.76-.534,5.784,5.784,0,0,0,2.042-1.472,6.547,6.547,0,0,0,1.27-2.208A8.177,8.177,0,0,0,632,28Zm25.133,0a9.394,9.394,0,0,1-.681,3.606,8.676,8.676,0,0,1-1.9,2.87,8.589,8.589,0,0,1-2.907,1.9,9.873,9.873,0,0,1-3.717.681,9.771,9.771,0,0,1-3.68-.681,8.588,8.588,0,0,1-2.907-1.9,8.675,8.675,0,0,1-1.9-2.87,9.892,9.892,0,0,1,0-7.212,8.675,8.675,0,0,1,1.9-2.87,8.588,8.588,0,0,1,2.907-1.9,9.771,9.771,0,0,1,3.68-.681,9.873,9.873,0,0,1,3.717.681,8.589,8.589,0,0,1,2.907,1.9,8.676,8.676,0,0,1,1.9,2.87A9.394,9.394,0,0,1,657.137,28Zm-2.649,0a7.879,7.879,0,0,0-.46-2.7,6.627,6.627,0,0,0-1.306-2.208,6.182,6.182,0,0,0-2.061-1.49,6.508,6.508,0,0,0-2.723-.552,6.382,6.382,0,0,0-2.7.552,6.231,6.231,0,0,0-2.042,1.49,6.626,6.626,0,0,0-1.306,2.208,8.181,8.181,0,0,0,0,5.409,6.626,6.626,0,0,0,1.306,2.208,6.013,6.013,0,0,0,2.042,1.472,6.571,6.571,0,0,0,2.7.534,6.7,6.7,0,0,0,2.723-.534,5.97,5.97,0,0,0,2.061-1.472,6.627,6.627,0,0,0,1.306-2.208A7.879,7.879,0,0,0,654.488,28Zm15.786-6.513h-4.857V31.535a5.715,5.715,0,0,0,.184,1.582,2.249,2.249,0,0,0,.534.975,1.82,1.82,0,0,0,.828.478,3.951,3.951,0,0,0,1.03.129,4.347,4.347,0,0,0,1.086-.147,5.483,5.483,0,0,0,1.086-.4l.11,2.171a7.41,7.41,0,0,1-1.38.386,8.868,8.868,0,0,1-1.564.129,6.358,6.358,0,0,1-1.472-.184,3.725,3.725,0,0,1-1.435-.7,3.825,3.825,0,0,1-1.086-1.4,5.4,5.4,0,0,1-.423-2.318V21.489h-3.569v-2.1h3.569V14.534h2.5v4.857h4.857Zm11.223,0H676.64V31.535a5.717,5.717,0,0,0,.184,1.582,2.247,2.247,0,0,0,.534.975,1.82,1.82,0,0,0,.828.478,3.951,3.951,0,0,0,1.03.129,4.347,4.347,0,0,0,1.086-.147,5.484,5.484,0,0,0,1.086-.4l.11,2.171a7.41,7.41,0,0,1-1.38.386,8.868,8.868,0,0,1-1.564.129,6.358,6.358,0,0,1-1.472-.184,3.725,3.725,0,0,1-1.435-.7,3.825,3.825,0,0,1-1.086-1.4,5.4,5.4,0,0,1-.423-2.318V21.489h-3.569v-2.1h3.569V14.534h2.5v4.857H681.5ZM702.509,28a9.394,9.394,0,0,1-.681,3.606,8.495,8.495,0,0,1-4.8,4.765,9.872,9.872,0,0,1-3.717.681,9.771,9.771,0,0,1-3.68-.681,8.588,8.588,0,0,1-2.907-1.9,8.676,8.676,0,0,1-1.9-2.87,9.893,9.893,0,0,1,0-7.212,8.676,8.676,0,0,1,1.9-2.87,8.588,8.588,0,0,1,2.907-1.9,9.771,9.771,0,0,1,3.68-.681,9.872,9.872,0,0,1,3.717.681,8.495,8.495,0,0,1,4.8,4.765A9.394,9.394,0,0,1,702.509,28Zm-2.649,0a7.879,7.879,0,0,0-.46-2.7,6.627,6.627,0,0,0-1.306-2.208,6.181,6.181,0,0,0-2.061-1.49,6.507,6.507,0,0,0-2.723-.552,6.382,6.382,0,0,0-2.7.552,6.231,6.231,0,0,0-2.042,1.49,6.626,6.626,0,0,0-1.306,2.208,8.181,8.181,0,0,0,0,5.409,6.626,6.626,0,0,0,1.306,2.208,6.013,6.013,0,0,0,2.042,1.472,6.571,6.571,0,0,0,2.7.534,6.7,6.7,0,0,0,2.723-.534,5.97,5.97,0,0,0,2.061-1.472,6.627,6.627,0,0,0,1.306-2.208A7.879,7.879,0,0,0,699.86,28Zm10.487-5.667a5.858,5.858,0,0,1,2.263-2.447,6.372,6.372,0,0,1,3.4-.938,7.589,7.589,0,0,1,1.454.147,4.636,4.636,0,0,1,1.472.57,5.378,5.378,0,0,1,1.325,1.122,6.3,6.3,0,0,1,1.049,1.8,6.486,6.486,0,0,1,2.41-2.7,6.787,6.787,0,0,1,3.625-.938,6.052,6.052,0,0,1,4.913,1.95,7.746,7.746,0,0,1,1.638,5.152V36.613h-2.5V27.082a8.326,8.326,0,0,0-1.012-4.379,3.708,3.708,0,0,0-3.441-1.656,4.466,4.466,0,0,0-2.3.552,4.391,4.391,0,0,0-1.509,1.454,6.438,6.438,0,0,0-.828,2.042,10.658,10.658,0,0,0-.258,2.355v9.163h-2.5V26.567a13.02,13.02,0,0,0-.184-2.281,4.758,4.758,0,0,0-.644-1.748,3.012,3.012,0,0,0-1.27-1.1,4.789,4.789,0,0,0-2.061-.386,4.331,4.331,0,0,0-1.785.4,4.672,4.672,0,0,0-1.619,1.233,6.349,6.349,0,0,0-1.159,2.1,9.145,9.145,0,0,0-.442,3v8.832h-2.5V23.182q0-.7-.037-1.8t-.11-1.987h2.392q.074.7.11,1.546t.037,1.4Z" transform="translate(-108.992 -8.352)" fill="#fff"/>
</svg>
