<svg xmlns="http://www.w3.org/2000/svg" viewBox="0 0 47.18 47.18"><defs><style>.cls-1{fill:#d7a600;}.cls-2{fill:#fff;}</style></defs><g id="レイヤー_2" data-name="レイヤー 2"><g id="レイヤー_6" data-name="レイヤー 6"><rect class="cls-1" width="47.18" height="47.18"/><path class="cls-2" d="M3.81,11.89,6,8.52l.14-.2a9,9,0,0,0,.62-1.06,2.2,2.2,0,0,0,.2-.94,1.15,1.15,0,0,0-.17-.66.55.55,0,0,0-.48-.22.66.66,0,0,0-.64.35,2.23,2.23,0,0,0-.18,1v.41H3.81V6.74a3.09,3.09,0,0,1,.59-2A2.25,2.25,0,0,1,6.26,4,2.37,2.37,0,0,1,8,4.61a2.4,2.4,0,0,1,.61,1.75,3,3,0,0,1-.16,1,3.8,3.8,0,0,1-.37.81c-.14.24-.36.58-.65,1l-1.73,2.6H8.4V13.1H3.81Z"/><path class="cls-2" d="M18.8,40.16v.69h0a.3.3,0,0,0,.3.3H27a.31.31,0,0,0,.31-.31h0v-.75a12.16,12.16,0,0,0,8.42-9.36v0a.09.09,0,0,0,0-.05.31.31,0,0,0-.32-.31H10.46a.31.31,0,0,0-.32.31l0,.14a12.2,12.2,0,0,0,8.64,9.36"/><path class="cls-2" d="M27.25,19.71c-.1.15-2.51,3.61.05,6.42A2.78,2.78,0,0,1,28,29.31h1.65a4.06,4.06,0,0,0-1.14-4c-1.89-2.06,0-4.85.05-4.9a.6.6,0,0,0-.27-.91.87.87,0,0,0-1.08.22"/><path class="cls-2" d="M23.09,29.31h1.64a4.06,4.06,0,0,0-1.14-4c-1.89-2.06,0-4.85.05-4.9a.61.61,0,0,0-.27-.92.88.88,0,0,0-1.08.23c-.1.15-2.51,3.61.06,6.42a2.82,2.82,0,0,1,.74,3.18"/><path class="cls-2" d="M17.34,19.71c-.11.15-2.52,3.61.05,6.42a2.82,2.82,0,0,1,.74,3.18h1.64a4,4,0,0,0-1.14-4c-1.89-2.06,0-4.85.05-4.9a.6.6,0,0,0-.26-.91.86.86,0,0,0-1.08.22"/><path class="cls-2" d="M23.39,6a.06.06,0,0,1-.05,0l-1,.38V7H22a1,1,0,0,0,0-.18V6.55c-.28.13-.42.3-.42.48s.16.25.47.25a5.85,5.85,0,0,0,1-.07v.45a4,4,0,0,1-.89,0c-.68,0-1-.22-1-.65a.82.82,0,0,1,.28-.58A2.55,2.55,0,0,1,22,6.13c0-.18-.06-.28-.16-.28a.5.5,0,0,0-.36.16,2.49,2.49,0,0,0-.27.28l-.25.28-.29-.33a2.8,2.8,0,0,0,.87-1.1c-.18,0-.39,0-.61.06,0-.16,0-.3-.05-.43a5.72,5.72,0,0,0,.79,0,3.43,3.43,0,0,0,.12-.55l.47.1a.07.07,0,0,1,0,0s0,0-.06.06-.05.17-.09.31a5.15,5.15,0,0,0,.65-.15l0,.45c-.19,0-.45.08-.77.12a4,4,0,0,1-.21.41.54.54,0,0,1,.2,0c.21,0,.35.14.41.43l.93-.45.16.46s0,0,0,0"/><path class="cls-2" d="M13.93,6.11h-.47v.22h.47Zm0-.53h-.47v.24h.47Zm2.28,2a.78.78,0,0,1-.41.14c-.42,0-.48-.25-.48-.65,0-.78,0-1.55,0-2.33H15v.84a2.92,2.92,0,0,1-.63,2.24L14,7.6a1,1,0,0,0,.22-.24l-.1.07A.8.8,0,0,1,14,7.27c-.32.15-.64.27-1,.41,0,0,0,.06-.05.06s0,0,0,0l-.19-.37.31-.08V5.46a1.58,1.58,0,0,1-.15.12l-.25-.28a2.82,2.82,0,0,0,.88-1.23l.42.1s0,0,0,0,0,0,0,0a2.9,2.9,0,0,0,.5.6l-.27.3a4.6,4.6,0,0,1-.45-.54,3.68,3.68,0,0,1-.53.7h.31V5l.38,0S14,5,14,5s0,.06-.06.07v.21h.36V6.6h-.85v.55L13.85,7c-.06-.07-.11-.14-.17-.2L14,6.61l.33.53a3.37,3.37,0,0,0,.21-1.34c0-.48,0-1,0-1.44h1.23c0,.91,0,1.82,0,2.72,0,.09,0,.22.11.22a.64.64,0,0,0,.39-.25Z"/><path class="cls-2" d="M19.9,4.71l-.24.47-.28-.13c.07-.21.12-.44.17-.65l.41.21s0,0,0,0-.05,0-.08,0m-1,0h-.05l-.19.11v.53h.25c0-.21,0-.42,0-.63m0,1h-.27v.43L18.93,6v.37l-.25.11v.6a.94.94,0,0,1-.05.3,1.52,1.52,0,0,0,.49-.57A3.8,3.8,0,0,1,19,5.71m-.63,0H18V5.36h.29V5l-.23.1L18,5l-.13.12a3.3,3.3,0,0,1-.3-.43,3.45,3.45,0,0,1-.2.32l.32,0s.08,0,.08.05,0,.06-.06.07v.2H18v1l.34-.12Zm-.68.44H17.3v.24h.34Zm-.34-.54v.25h.34V5.61ZM17.35,5a3.92,3.92,0,0,1-.25.32h.25Zm2.37,2.82a2,2,0,0,1-.43-.61,2.09,2.09,0,0,1-.54.53l-.18-.24a.72.72,0,0,1-.37.32L18,7.57c.27-.11.35-.24.35-.58V6.65l-.14.07s0,.09-.06.09,0,0,0,0L18,6.47v.18H17.3v.56l.35-.16-.13-.21.28-.16c.12.21.23.42.33.64l-.26.19s-.06-.1-.08-.15L17,7.73s0,.08-.06.08l0,0-.21-.37L17,7.33V5.47l-.12.11-.24-.31a2.54,2.54,0,0,0,.75-1.16l.42.13s0,0,0,0,0,0,0,0a1.94,1.94,0,0,0,.27.41,2.14,2.14,0,0,0,.68-.4c.07.1.14.19.2.29V4.17l.44.08s0,0,0,0,0,.07-.08.08c0,.28,0,.58,0,.86v.11h.6v.36h-.59a5.21,5.21,0,0,0,.05.69,2.85,2.85,0,0,0,.12-.58l.36.25a.08.08,0,0,1,0,0,.07.07,0,0,1-.06.07,2.85,2.85,0,0,1-.26.65,1.41,1.41,0,0,0,.48.64Z"/><path class="cls-2" d="M15.81,9.86a4.48,4.48,0,0,0-.35-.6l.28-.17a3.64,3.64,0,0,1,.33.58Zm-.53.18a3,3,0,0,0-.34-.58l.29-.17a6.22,6.22,0,0,1,.32.56Zm.5.52a1.71,1.71,0,0,1-.13.23,4.08,4.08,0,0,1-.81,1.07,2.47,2.47,0,0,0-.38-.28,3.28,3.28,0,0,0,.64-.84c-.14,0-.27,0-.41.06l-.6.11c0,.16,0,.32,0,.48V12c0,.34.16.37.42.37a4.34,4.34,0,0,0,1.14-.14c0,.18,0,.36-.05.54-.37,0-.75,0-1.13,0s-.86-.12-.86-.71V11l-.82.16-.06-.51a8.58,8.58,0,0,0,.87-.1v-1l.52.06s.07,0,.07.07,0,.05-.06.07c0,.23,0,.46,0,.69.37,0,.74-.13,1.11-.19a.79.79,0,0,0,.29-.08,4.37,4.37,0,0,1,.31.34,0,0,0,0,1,0,0"/><path class="cls-2" d="M18.93,10.39H17.39v1.66h1.54Zm0,2.31v-.21H17.39v.23h-.48c0-.92,0-1.84,0-2.76h2.5c0,.87,0,1.74,0,2.62v.12Z"/><path class="cls-2" d="M23.18,10.45a2.76,2.76,0,0,0-.81,0,5,5,0,0,0-.56.1c0-.15,0-.34,0-.49a4.26,4.26,0,0,1,.8-.09,2.92,2.92,0,0,1,.66,0c0,.17,0,.34,0,.5m.13,2.26a2.32,2.32,0,0,1-.64,0c-.5,0-1-.1-1-.86.12-.09.23-.19.36-.27,0,.43.2.63.52.64a2.1,2.1,0,0,0,.79-.1v.55m-2.23.2L20.7,13a5.29,5.29,0,0,1-.18-1.59,9.79,9.79,0,0,1,.18-1.79l.3.07.15,0s0,0,0,.05a.06.06,0,0,1-.05.06,7.72,7.72,0,0,0-.21,1.85c0,.16,0,.31,0,.46.06-.19.12-.39.19-.58l.26.25a3.86,3.86,0,0,0-.31,1.13"/></g></g></svg>