<svg xmlns="http://www.w3.org/2000/svg" viewBox="0 0 47.18 47.18"><defs><style>.cls-1{fill:#427935;}.cls-2{fill:#fff;}</style></defs><g id="レイヤー_2" data-name="レイヤー 2"><g id="レイヤー_6" data-name="レイヤー 6"><rect class="cls-1" x="0.03" y="0.03" width="47.11" height="47.11" transform="translate(-0.03 47.15) rotate(-89.92)"/><path class="cls-2" d="M4.18,5.88a5.83,5.83,0,0,1-.71.28,5.84,5.84,0,0,0-.59.21V5.09a6.08,6.08,0,0,0,.91-.44,2.75,2.75,0,0,0,.76-.55H5.9v9H4.18Z"/><path class="cls-2" d="M7.35,12.54a3.18,3.18,0,0,1-.56-2v-.31H8.5v.3a2.34,2.34,0,0,0,.16,1,.6.6,0,0,0,.57.3.55.55,0,0,0,.55-.3,2.69,2.69,0,0,0,.14-1,2.12,2.12,0,0,0-.21-1.07.87.87,0,0,0-.78-.36H8.62V7.81H8.9a.92.92,0,0,0,.8-.31,1.86,1.86,0,0,0,.22-1,1.71,1.71,0,0,0-.16-.85.6.6,0,0,0-.57-.28.55.55,0,0,0-.54.3,2.2,2.2,0,0,0-.15.89v.4H6.79V6.45a2.52,2.52,0,0,1,.62-1.82A2.37,2.37,0,0,1,9.19,4,2.46,2.46,0,0,1,11,4.6a2.38,2.38,0,0,1,.64,1.79A2.54,2.54,0,0,1,11.3,7.7a1.4,1.4,0,0,1-.83.66c.77.28,1.15,1,1.15,2.12a3.21,3.21,0,0,1-.58,2,2.19,2.19,0,0,1-1.83.74,2.23,2.23,0,0,1-1.86-.72"/><path class="cls-2" d="M31.11,31.3c-.2-.05-1-1.19-.37-1.93.11-.13-.22-.49-.13-.5a.6.6,0,0,1,.64.52c0,.14,0,.28,0,.42a7.31,7.31,0,0,1-.15,1.49M29.1,35a1.27,1.27,0,0,1-.23-.08c-.4-.21-.35.12-.55.05s.22-.53-.37-.15-.42-.06-.68-.71A1.33,1.33,0,0,1,28,32.54a8.88,8.88,0,0,1,1.33-.35c.88-.22,1.06-.74,1.22-.42l.09.17a1.08,1.08,0,0,1,.11.47A7.34,7.34,0,0,1,29.1,35m-5.16,2.13a7.71,7.71,0,0,1-2.06-.3.33.33,0,0,1-.09-.36,1.63,1.63,0,0,1,1.44-.87c1.18-.12,2.74.77,3,.63s.75-.79,1.49-.77a1.16,1.16,0,0,1,.66.17,7.28,7.28,0,0,1-4.43,1.5m-1-4.77c-.1.16-.38,1.39-.56,1.25s.07-1.43.13-1.53c.29-.53.91-.5.43.28m3-1.45a.67.67,0,0,1-.7-.07c-.18-.14.12-.38.23-.39s.61.33.47.46m3.23,0c-.08,0-.15-.1-.21-.28s.09-.28.24-.21a.71.71,0,0,1,.34.42c0,.12-.29.11-.37.07m.31.23c.24,0,.61.32.47.45a.67.67,0,0,1-.7-.06c-.18-.15.12-.38.23-.39m-7.85,2.91a2.1,2.1,0,0,1-.45.93,1.51,1.51,0,0,1-1,.38c-.33,0-.38-.91-.38-1.37,0-.16-.22.31-.34-.64-.07-.61-.46.06-.49-.34s-.22-.33-.43-.58-.46,0-.74.15-.17.19-.57.07h0a7.32,7.32,0,0,1-.57-2.85c0-.25,0-.49,0-.73l0-.07c.39-.46.38-.56.38-.56l.43-.15a7.8,7.8,0,0,1,1.2.3c.42.16,1.09.52,1.48.36s.5-.27.47-.5-.26-.36-.54-.17c-.1.08-.32-.44-.49-.41s.21.6.06.63-.44-.61-.49-.71-.27-.35-.48-.16c-.43.41-1.13.38-1.27.49-.43.32-.54-.11-.53-.37a1.21,1.21,0,0,1,.05-.18.88.88,0,0,1,.82-.08c.18.12.32,0,.4-.11a.29.29,0,0,0,0-.3c-.05-.1.09-.18.19-.2s.42-.26.56-.33a1.76,1.76,0,0,1,1.1,0,.6.6,0,0,0,.74-.14,1.8,1.8,0,0,1,.53-.44c.1-.05-.26-.4-.57,0s-.45.4-.6.4-1-.21-1.09-.48.27-.46.58-.61A7.65,7.65,0,0,1,21,25c.45-.1,1-.32,1.3-.12s-1.19.52-.71.79c.17.09,1-.45,1.22-.59.63-.32-.61-.43-.45-1.09s-1.51-.46-2.36-.4a7.3,7.3,0,0,1,11,4.47,1.35,1.35,0,0,1,0,.34.48.48,0,0,1-.86.06c-.07-.11-.39-.4-.38.1s.49.56,0,.87a1.76,1.76,0,0,1-.77.3,1,1,0,0,0-.38.88c0,.28.72,1,.23,1a2.84,2.84,0,0,1-1.14-1c-.15-.4-.31-.8-.43-1.1a.44.44,0,0,0-.69-.21c-.26.18.07.36-.12.74s-.32.72-.59.41c-.72-.82-1.75-.42-1.91-1.33-.09-.5-.52-.45-.87-.73s-.56-.43-.62-.23,1.12,1.11,1.2,1.35-.35.66-.7.74-.5-.19-.84-.55-.49-.61-.51-.33a1.6,1.6,0,0,0,.67,1.22c.3.19.63.27.53.57s0,.14-.33.47a.88.88,0,0,0-.38.89c0,.45-.09.48-.16.86s-.24.05-.38.61M17.71,26s0,0,0,0a1,1,0,0,1,.57-.22c.19,0,.43.07.46.19s-.46.34-.55.42c-.25.23-.65.71-.88.76a.39.39,0,0,1-.19,0A7,7,0,0,1,17.71,26m.37-.75c.1-.14.41-.53.45-.58a.53.53,0,0,1,.36-.15c.11,0,.26.05.27.13a1,1,0,0,1-.09.46,1.21,1.21,0,0,1-.78.35c-.17,0-.24-.16-.21-.21m23.25,4.36a21.67,21.67,0,0,0-34.79-.05c-.06.07-.1.14-.14.19a1.86,1.86,0,0,0,.14.2A21.67,21.67,0,0,0,41.33,30l.14-.2c0-.05-.08-.12-.14-.19"/><path class="cls-2" d="M17.65,8a2,2,0,0,1-.78-1.79H16.2l.3.14s.06,0,.06.06-.06.07-.09.08a2.26,2.26,0,0,1-.25.49,6,6,0,0,1,.51.5l-.28.3A5.44,5.44,0,0,0,16,7.28a2.35,2.35,0,0,1-.88.63l-.31-.3A2.15,2.15,0,0,0,15.7,7a5.74,5.74,0,0,0-.53-.32c.08-.11.16-.24.23-.36a3.8,3.8,0,0,1,.53.36,2.25,2.25,0,0,0,.2-.51H14.92V5.85l2.42,0a2.29,2.29,0,0,0-.05.52,1.34,1.34,0,0,0,.65,1.27ZM15.59,5.05l-.15.22h1.94v.36h-2V5.3a2.13,2.13,0,0,1-.33.4l-.33-.24a2.54,2.54,0,0,0,.68-1.26l.43.14s.06,0,.06.07,0,.06-.07.06l-.1.21h1.86v.37Z"/><path class="cls-2" d="M21.32,8a1.91,1.91,0,0,1-.85-.9,1.64,1.64,0,0,1-.85.85l-.23-.27a1.41,1.41,0,0,0,.81-.83h-.58V6.53h.65V6.16H20a1.21,1.21,0,0,1-.2.33l-.27-.17a2.73,2.73,0,0,0,.32-.79h-.25V5.2h1V4.81h-.86V4.46H21l0,.73h.4v.34H20.15l.14.06,0,0s0,0-.06,0l-.06.14H21.3v.35h-.63c0,.12,0,.25,0,.37h.81v.35h-.74a1.56,1.56,0,0,0,.84.8ZM19.56,5V7.28H19.2V5c-.05.14-.1.28-.16.41V8h-.38V6.07a1.73,1.73,0,0,1-.22.31l-.23-.3A4.48,4.48,0,0,0,19,4.25l.43.18s.05,0,.05.06a.06.06,0,0,1-.08.06l-.1.3.33.05s0,0,0,0a.06.06,0,0,1-.05.06"/><path class="cls-2" d="M25,6.19a3.2,3.2,0,0,1-.63-.82l.34-.25a2.26,2.26,0,0,0,.59.77Zm-1.61.48a2.33,2.33,0,0,0,.39.38,1.38,1.38,0,0,0,.34-.38ZM24.27,5c0,.24,0,.48,0,.72a.47.47,0,0,1-.41.52L23.59,6c.21-.06.3-.07.3-.34V5h-.22a1.57,1.57,0,0,1-.44,1.12,1,1,0,0,1-.31.23l-.27-.26a2.53,2.53,0,0,0,.27-.18A1.09,1.09,0,0,0,23.27,5h-1V4.67h1.24V4.22l.43,0a0,0,0,0,1,0,0s0,.05-.06.06v.3h1.29V5ZM25,8a3.77,3.77,0,0,1-1.19-.46A3.59,3.59,0,0,1,22.46,8l-.25-.35a2.47,2.47,0,0,0,1.29-.37,3.34,3.34,0,0,1-.32-.33,2.17,2.17,0,0,1-.6.4l-.25-.28a2.12,2.12,0,0,0,1-1l.35.15a.09.09,0,0,1,0,0s0,0-.06,0l-.05.06h1.07v.23a2.48,2.48,0,0,1-.56.64,3.19,3.19,0,0,0,1.12.32ZM23,5.4a2.35,2.35,0,0,1-.57.71l-.29-.25a1.72,1.72,0,0,0,.55-.76l.35.21a.05.05,0,0,1,0,0s0,.06-.06.05"/><path class="cls-2" d="M27.69,5.6V5.31h-.62v.15h.58V6.62h-.58v.15h.59v.29h-.59v.19l.58-.09,0,.24A3.3,3.3,0,0,0,28,5.6Zm-.39.58h-.24v.19h.24Zm0-.46h-.24v.2h.24Zm-.59.46h-.26v.19h.26Zm0-.46h-.25v.2h.25ZM29,7c0,.57-.14.84-.66.94l-.22-.34c.34-.06.47-.19.49-.6s0-.91,0-1.37h-.19A3.29,3.29,0,0,1,27.64,8l-.31-.25a1.39,1.39,0,0,0,.21-.21c-.45.1-.91.17-1.37.25,0,0,0,.07-.05.07s0,0,0,0l-.15-.41.77-.08V7.07H26v-.3h.67V6.62h-.59V5.46h.59V5.31H26V5h.71V4.81l-.57,0L26,4.51h.33a3.39,3.39,0,0,0,1.13-.22,4,4,0,0,1,.28.37,0,0,0,0,1,0,0l-.07,0a5.07,5.07,0,0,1-.54.09V5h.63v.26H28c0-.32,0-.63,0-1l.4,0s.08,0,.08.06a.1.1,0,0,1-.05.08c0,.25,0,.51,0,.76H29C29,5.82,29,6.4,29,7"/><path class="cls-2" d="M17.05,11.1H15.66v.25h1.39Zm0-.57H15.66v.25h1.39Zm0-.57H15.66v.25h1.39Zm-1.77-.35h2.15v2.06H15.28Zm1.64,2.61a1.86,1.86,0,0,0,.94.61l-.25.36a3.29,3.29,0,0,1-1-.69l.3-.28H15.77a2.23,2.23,0,0,1,.31.3s0,0-.08,0a2.57,2.57,0,0,1-.93.62l-.23-.31a1.92,1.92,0,0,0,.88-.65h-.93v-.37h3.12v.37Z"/><path class="cls-2" d="M20.52,11.19V12h.41a3.77,3.77,0,0,1-.41-.8m-.78.8h.4v-.8a3.18,3.18,0,0,1-.41.8m1.56.47A3.75,3.75,0,0,1,21,12v.33h-.43v.78h-.38v-.78h-.43V12a2.18,2.18,0,0,1-.34.4l-.23-.25v.92h-.39V11.18a1.45,1.45,0,0,1-.28.36l-.24-.29a4.11,4.11,0,0,0,.83-1.82l.43.2a.07.07,0,0,1,0,.06s-.06.06-.08.06c-.09.26-.2.53-.31.77v1.6A3.71,3.71,0,0,0,20,10.61h-.68v-.39h.79V9.45l.41,0a0,0,0,0,1,.05,0s0,.05-.05.06v.63h.93v.39h-.82a3.72,3.72,0,0,0,1,1.5Z"/><path class="cls-2" d="M24.21,12.05a8,8,0,0,0-.51-.64l.3-.31a5.77,5.77,0,0,1,.48.7Zm-1.12-.4h-.55v.87h.55Zm0-1.08h-.55v.73h.55ZM25,11.1c0,.18,0,.35,0,.52,0,.76-.06,1.39-.82,1.53l-.26-.34a.71.71,0,0,0,.67-.64c0-.14,0-.27,0-.4V10.59H24a3.12,3.12,0,0,1-.34.59L23.46,11v1.87H22.17V10.24h.39c.07-.24.13-.48.18-.73l.45.13a.06.06,0,0,1,.06.06s-.06.06-.08.07a3,3,0,0,1-.25.47h.54v.55a3.87,3.87,0,0,0,.42-1.31l.41.17a.08.08,0,0,1,0,.06s0,0-.06,0c-.06.16-.11.31-.17.46H25Z"/><path class="cls-2" d="M28.41,11.09a2.07,2.07,0,0,0-.84-.47l.2-.4a2,2,0,0,1,.86.46Zm-.92,1.23a.51.51,0,0,0-.25,0c-.13,0-.29,0-.29.23s.2.27.33.27.23,0,.23-.2a2.28,2.28,0,0,0,0-.26m.88.58a2.61,2.61,0,0,0-.47-.41v.13c0,.42-.26.53-.57.53A1.14,1.14,0,0,1,27,13.1a.65.65,0,0,1-.43-.58.57.57,0,0,1,.61-.61l.28,0c0-.19,0-.38,0-.57a.8.8,0,0,1,0-.27h.31s.12,0,.12,0h0a.57.57,0,0,0-.06.25c0,.22,0,.43,0,.64a2.73,2.73,0,0,1,.75.48,2.75,2.75,0,0,1-.26.4m-.95-2.39-.51.12a8.74,8.74,0,0,1-.75,1.9c-.13-.07-.26-.14-.38-.22a7.13,7.13,0,0,0,.69-1.63,3,3,0,0,1-.52,0c0-.14,0-.28-.05-.43h.19l.48,0a4.19,4.19,0,0,0,.09-.7,3.43,3.43,0,0,1,.48.08c0,.19-.08.38-.13.56a3.31,3.31,0,0,0,.41-.14v.44"/><path class="cls-2" d="M32,10.85v1.4c0,.66-.07.87-.65,1l-.25-.37c.47-.07.49-.23.49-.74V10.85H31v-.38h.64V9.56l.43,0a.05.05,0,0,1,.05.05s0,0-.05.06v.77h.42v.38Zm-.77,1.26q-.23-.37-.48-.72l.33-.28a6.86,6.86,0,0,1,.42.75Zm-.48.77c-.15-.24-.31-.48-.48-.7a2.67,2.67,0,0,1-.76,1l-.3-.28a2.12,2.12,0,0,0,.78-1,3.5,3.5,0,0,0-.6-.67l.24-.36a4.65,4.65,0,0,1,.53.63,4.3,4.3,0,0,0,.16-.87h-1v-.35H30V9.56l.43,0a.05.05,0,0,1,0,.05s0,0,0,.06v.57h.47v.35h-.26s.17.05.17.11,0,0,0,0a4.71,4.71,0,0,1-.28,1,6,6,0,0,1,.56.76Z"/><path class="cls-2" d="M34.21,10.18c0,.11,0,.22,0,.33l-.3.09c-.05-.14-.09-.28-.14-.42h-.13a2.32,2.32,0,0,1-.42.5L33,10.47a2.22,2.22,0,0,0,.61-1l.39.1s.06,0,.06.06,0,.07-.08.08a1.51,1.51,0,0,1-.09.18h.67v.29Zm1.69,3a2.68,2.68,0,0,1-1.14-.85v1h-.39v-1a2.63,2.63,0,0,1-1.16.84l-.24-.3a2.72,2.72,0,0,0,1.4-1.14v-.09h-.63v.73h-.38v-1h1v-.17H33.06v-.34h1.3v-.29l.22,0-.17-.09a2.07,2.07,0,0,0,.45-.93l.37.07s.09,0,.09.07,0,.07-.08.07a1.67,1.67,0,0,1-.08.2h.92v.3h-.43l-.14.41-.3,0,0-.38H35a2,2,0,0,1-.24.33s.07,0,.07.07,0,.06-.07.07v.11h1.29v.34H34.76v.17h1.1v.6a.46.46,0,0,1-.43.51l-.22-.26c.3-.1.25-.22.25-.54h-.7v.1a2.12,2.12,0,0,0,.58.68,2.43,2.43,0,0,0,.82.41Z"/><path class="cls-2" d="M39.44,11.49l-.06,0-1,.38v.63H38v-.41q-.42.19-.42.48c0,.16.16.25.48.25a3.32,3.32,0,0,0,1-.16l0,.47a2.88,2.88,0,0,1-.87.12c-.68,0-1-.22-1-.65a.78.78,0,0,1,.29-.58,2.3,2.3,0,0,1,.53-.35c0-.18-.07-.28-.17-.28a.47.47,0,0,0-.35.16,3.37,3.37,0,0,0-.27.27l-.26.29-.29-.33a3.09,3.09,0,0,0,.88-1.1l-.61,0q0-.22-.06-.42a5.88,5.88,0,0,0,.8,0,2.86,2.86,0,0,0,.11-.56l.47.11s0,0,0,.05,0,0,0,.06-.05.17-.1.31a5.15,5.15,0,0,0,.65-.15l0,.44c-.19,0-.44.09-.76.13a2.3,2.3,0,0,1-.22.4.87.87,0,0,1,.2,0c.21,0,.35.14.41.43.28-.15.6-.3.94-.45l.16.45a0,0,0,0,1,0,.05"/><path class="cls-2" d="M32.69,5.34a3.16,3.16,0,0,0-.81,0,5,5,0,0,0-.56.1c0-.15,0-.34-.05-.49a4.36,4.36,0,0,1,.8-.09,2.92,2.92,0,0,1,.66,0c0,.17,0,.34,0,.5m.13,2.27a2.77,2.77,0,0,1-.64,0c-.5,0-1-.09-1-.86l.36-.27c0,.44.2.63.53.64a2.37,2.37,0,0,0,.79-.09c0,.18,0,.36,0,.55m-2.23.19-.38,0A5.29,5.29,0,0,1,30,6.26a9.79,9.79,0,0,1,.18-1.79l.3.07.15,0s0,0,0,0a.06.06,0,0,1-.05.06,8.29,8.29,0,0,0-.21,1.86c0,.15,0,.3,0,.45.06-.19.12-.39.19-.58l.26.25a4.3,4.3,0,0,0-.31,1.13"/></g></g></svg>