<svg xmlns="http://www.w3.org/2000/svg" viewBox="0 0 54.39 54.39"><defs><style>.cls-1{fill:#50a135;}.cls-2{fill:#fff;}</style></defs><g id="レイヤー_2" data-name="レイヤー 2"><g id="レイヤー_6" data-name="レイヤー 6"><path class="cls-1" d="M27.2,54.39A27.2,27.2,0,1,0,0,27.2,27.2,27.2,0,0,0,27.2,54.39"/><path class="cls-2" d="M17.21,24.14c1.29,1,2.73,1.08,4.67.88l0,.05A8.06,8.06,0,0,1,23.44,28a7.78,7.78,0,0,1,.25,2.25A41.72,41.72,0,0,0,24,41.14h3c-.32-1.09-.6-2.2-.82-3.32a8.05,8.05,0,0,1,.34-4,8.93,8.93,0,0,1,3-3.73c1-.76,2-1.43,3.05-2.14A5.6,5.6,0,0,0,37,26.61c2.06-1.88,2.57-4.52,3.43-6.86-2.41.64-4.82.84-6.88,2.72-1.18,1.07-1.51,2.44-1.66,4.32.36-.19.72-.37,1.07-.57a23.89,23.89,0,0,0,2.19-1.4,19.08,19.08,0,0,0,1.58-1.27l.07-.07a15.39,15.39,0,0,0,2.12-2.29A16,16,0,0,1,36.52,24l-.32.31-.86.77a25.45,25.45,0,0,1-3.55,2.45h0l.06,0c-1,.53-2,1.05-3,1.68a10.72,10.72,0,0,0-3.42,3.29c0-.82-.09-1.64-.09-2.46A35.06,35.06,0,0,1,26,23.25c2.08-.66,3.55-1.41,4.47-3,1.65-2.91,1.25-5.78,1.36-8.77-2.51,1.62-5.18,2.77-6.83,5.68-.87,1.54-.81,3.12-.37,5.11.12-.27.23-.55.35-.81a30.21,30.21,0,0,1,1.52-2.87,20.86,20.86,0,0,1,4-5,19.73,19.73,0,0,0-3.15,4.27c-.17.3-.34.59-.5.9A30.37,30.37,0,0,0,25.17,23l-.18.59h0c-.32,1.06-.58,2.14-.8,3.24a9,9,0,0,0-1.68-2.27l0,0v-.05A28.75,28.75,0,0,0,19,21.31c-.51-.37-1-.73-1.57-1.08l-.05,0a22.45,22.45,0,0,0-2.58-1.45,21.08,21.08,0,0,1,2.57,1.16h0c.64.33,1.26.68,1.87,1.06a28.33,28.33,0,0,1,3.06,2.18A5.11,5.11,0,0,0,20.44,20c-2.23-1.72-4.67-1.73-7.14-2.18,1,2.28,1.69,4.64,3.91,6.36"/><path class="cls-2" d="M32.8,34.47A10.69,10.69,0,0,0,34,32.82a6.51,6.51,0,0,1-.7,1.69,6.81,6.81,0,0,0-1.11,3.17,2.64,2.64,0,0,0,2.24,2.6,3,3,0,0,1-.43,0,2.67,2.67,0,0,1-2.68-2.64c0-1.15.68-2.06,1.53-3.21M34,41.36a3.71,3.71,0,0,0,3.71-3.68c0-2.71-2.75-4.2-3.71-7.32-1,3.12-3.71,4.61-3.71,7.32A3.71,3.71,0,0,0,34,41.36"/></g></g></svg>