<svg xmlns="http://www.w3.org/2000/svg" viewBox="0 0 54.39 54.39"><defs><style>.cls-1{fill:#ce7828;}.cls-2{fill:#fff;}</style></defs><g id="レイヤー_2" data-name="レイヤー 2"><g id="レイヤー_6" data-name="レイヤー 6"><path class="cls-1" d="M27.2,54.39A27.2,27.2,0,1,0,0,27.2,27.2,27.2,0,0,0,27.2,54.39"/><path class="cls-2" d="M30.5,23.32c-3.86.22-6.07,2.26-6.22,4.35a2.77,2.77,0,0,0,1.16,2.64,10.49,10.49,0,0,1,.34-1.6c.09-.32.19-.62.3-.91A8.38,8.38,0,0,1,27,26.1c.11-.16.21-.31.32-.44l.31-.36h0q.32-.32.54-.51l.48-.35-.26.27a2.51,2.51,0,0,0-.28.33l-.26.31-.08.13a9,9,0,0,0-1.24,2.71h0c-.15.53-.25,1.07-.34,1.57,0,.3-.07.59-.1.86s0,.37-.05.53c0,.41,0,.75,0,1s0,.38,0,.38h.67q0-.91.06-1.74a2.8,2.8,0,0,0,3.12-2.24c.31-1.68-.59-4.14.71-5.23"/><path class="cls-2" d="M36.1,19.61a1.81,1.81,0,1,0-1.8-1.81,1.81,1.81,0,0,0,1.8,1.81m2,6.37V21.54l4-4.53a.77.77,0,0,0,0-1A.75.75,0,0,0,41,16l-4.16,4.25H35.34L31.17,16a.74.74,0,0,0-1,0A.76.76,0,0,0,30.08,17l4,4.53V26l-1,7.22a.86.86,0,0,0,1.69.28L36,27.09h.19l1.26,6.39a.86.86,0,0,0,1.69-.28Z"/><path class="cls-2" d="M20.55,20.88a2.41,2.41,0,1,0-2.41-2.4,2.4,2.4,0,0,0,2.41,2.4m2.71,8.5V23.47l5.32-6a1,1,0,0,0-1.46-1.35l-5.55,5.66h-2L14,16.07a1,1,0,0,0-1.46,1.35l5.33,6v5.91L16.49,39a1.15,1.15,0,0,0,2.26.38l1.67-8.53h.26l1.67,8.53A1.15,1.15,0,0,0,24.61,39Z"/></g></g></svg>