<svg xmlns="http://www.w3.org/2000/svg" width="539.727" height="429.094" viewBox="0 0 539.727 429.094">
  <path id="パス_1324" data-name="パス 1324" d="M165.574-38.377l.832,3.952q0,2.5-2.6,5.928-6.864,8.944-22,20.541T119.5,3.64q-7.176,0-11.232-4.212a13.489,13.489,0,0,1-4.056-9.62q0-6.448,13.521-28.5,20.281-32.761,51.794-76.547-6.656,6.864-35.361,37.025Q70.619-11.648,59.906-2.808a7.924,7.924,0,0,1-5.148,1.456,12.18,12.18,0,0,1-7.124-2.756Q43.89-6.864,43.89-10.3v-.52q.416-4.368,20.073-42.746t32.969-61.05Q77.275-92.979,57.2-66.354,19.033-15.809,1.352,19.761-.208,23.089-2.5,23.089a28.713,28.713,0,0,1-6.656-1.144q-9.152-2.5-9.152-8.736,0-3.744,15.289-26.781T32.449-63.91q20.177-27.3,41.81-52.574,29.849-34.945,38.377-34.945a5.388,5.388,0,0,1,2.6.676,5.223,5.223,0,0,0,1.56.676.9.9,0,0,0,.624-.312q1.352-1.664,5.356-1.664a20.341,20.341,0,0,1,7.8,1.56q3.8,1.56,3.8,3.536,0,1.248-10.4,19.865-34.841,61.778-46.8,84.867,11.44-13.833,32.709-36.713T154.55-124.6q30.473-29.537,36.4-29.537a22.848,22.848,0,0,1,6.032,1.04,44.357,44.357,0,0,0,12.376,1.872,5.712,5.712,0,0,1,2.86,1.4,3.086,3.086,0,0,1,1.2,2.236,2.775,2.775,0,0,1-.624,1.872q-33.8,44.93-56.994,79.251T127.2-20.073q10.92-2.288,32.553-26.1a18.022,18.022,0,0,1,1.352-1.664,7.81,7.81,0,0,0,.728-.832q1.768-2.08,2.7,2.6.416,2.7.572,3.8t.312,2.288A15.4,15.4,0,0,1,165.574-38.377ZM238.689-114.2q0,5.928-5.512,11.908t-11.492,5.98q-5.98,0-5.98-6.24t5.252-11.908q5.252-5.668,11.6-5.668a6.275,6.275,0,0,1,4.472,1.56A5.7,5.7,0,0,1,238.689-114.2ZM221.84-23.4a11.535,11.535,0,0,1-.624,4.472,39.156,39.156,0,0,1-16.225,16.8q-11.128,6.4-19.345,6.4A20.057,20.057,0,0,1,171.5-1.248q-5.928-5.512-5.928-11.232t5.72-16.641q5.72-10.92,11.44-20.177t5.72-10.036q0-.78-2.132-3.068t-2.132-3.38q0-1.092,4.316-5.72a74.18,74.18,0,0,1,10.5-9.152q6.188-4.524,9.464-4.524a7.737,7.737,0,0,1,5.876,2.912q2.6,2.912,2.6,5.3T192.2-31.929q-.312.624-1.716,2.756T188.3-25.637q-.78,1.4-1.82,3.38a16.389,16.389,0,0,0-2.08,6.968q0,3.536,4.784,3.536a18.547,18.547,0,0,0,9.932-3.276,46.7,46.7,0,0,0,8.892-7.228q9.776-10.5,11.128-10.5Q221.84-32.761,221.84-23.4ZM344.773-155.9a4.023,4.023,0,0,1,3.12,1.248,3.777,3.777,0,0,1,1.144,2.548q0,1.3-2.028,4.784T337.7-132.137q-7.28,11.7-11.336,18.357-23.609,38.377-37.025,64.9T275.922-16.849v.832q0,4.264,3.12,4.264t7.54-2.912a49.131,49.131,0,0,0,7.748-6.24q3.328-3.328,6.708-6.916t4.108-4.212a2.775,2.775,0,0,1,1.872-.624q1.768,0,2.288,2.236a29.011,29.011,0,0,1,.52,6.24q0,4-.624,5.252-3.016,5.824-13.26,14.2t-19.4,8.372q-15.6,0-15.6-13.208,0-8.216,6.24-21.529A132.809,132.809,0,0,1,250.025-12.48Q233.8,1.664,221.84,1.664q-6.656,0-9.828-4.68T208.84-16.485q0-8.788,6.864-21.061a94.207,94.207,0,0,1,17.109-22.1,100.729,100.729,0,0,1,22.725-16.433q12.48-6.6,22.985-6.6,3.328,0,7.8,4.056,3.016-4.784,11.128-19.137,25.481-42.954,33.7-52.418Q335.517-155.9,344.773-155.9ZM279.979-68.851a66.146,66.146,0,0,0-27.873,13.937q-12.9,10.608-19.345,22.2t-6.448,15.029q0,3.432,1.456,3.432,6.24,0,30.889-27.873A282.706,282.706,0,0,0,279.979-68.851ZM317.628-41.5h-.52A6.174,6.174,0,0,1,313-42.642a3.936,3.936,0,0,1-2.028-3.328,6.018,6.018,0,0,1,1.092-3.536,8.94,8.94,0,0,0,1.456-3.224q.364-1.664,3.744-4.784t5.72-3.38q2.34-.26,8.268-.676t11.856-.884q5.928-.468,11.44-.468t6.4.572a7.245,7.245,0,0,1,1.976,2.808,14.7,14.7,0,0,0,2.028,3.276,4.986,4.986,0,0,1,.936,3.38,5.33,5.33,0,0,1-1.872,4.056,7.948,7.948,0,0,1-4.212,2.08q-2.34.364-5.252.728t-6.5.728q-3.588.364-6.812.78t-7.384,1.248A97.624,97.624,0,0,1,317.628-41.5ZM74.051,164.911a83.142,83.142,0,0,0,6.968-4.732q1.56-1.3,3.64-3.068a5.97,5.97,0,0,1,3.432-1.768q2.08,0,2.08,4.732t-4.628,10.192a40.661,40.661,0,0,1-11.492,9.256,100.769,100.769,0,0,1-14.665,6.6q-15.5,5.72-26.365,5.72a30.229,30.229,0,0,1-19.6-7.124A22.875,22.875,0,0,1,4.68,166.107a51.187,51.187,0,0,1,5.72-22.985,72.579,72.579,0,0,1,35.621-34.269,56.633,56.633,0,0,1,23.557-5.408,16.829,16.829,0,0,1,10.088,3.224,10.312,10.312,0,0,1,4.472,8.84q0,5.616-5.564,13.469T67.291,136.83q-6.656,0-6.656-6.344,0-1.664,3.12-5.928t3.12-5.772q0-1.508-1.144-1.508-5.72,0-12.272,3.952a102.9,102.9,0,0,0-11.908,8.32,86.715,86.715,0,0,0-10.14,9.776q-10.4,11.752-10.4,24.441a12.8,12.8,0,0,0,3.276,8.788q3.276,3.692,11.024,3.692a68.232,68.232,0,0,0,15.549-1.82A80.856,80.856,0,0,0,63.7,170.475,67.587,67.587,0,0,0,74.051,164.911Zm89.443-55.954q7.9,0,7.9,5.408a5.828,5.828,0,0,1-1.352,4.264q-1.352,1.352-5.772,9T154.5,147.178q-5.356,11.908-6.916,20.333a10.607,10.607,0,0,0-.312,2.912q0,5.72,3.12,5.72t7.384-2.964a53.322,53.322,0,0,0,7.592-6.344q3.328-3.38,6.5-6.916t3.8-4.056a2.871,2.871,0,0,1,1.872-.52q1.976,0,2.392,3.016a45.639,45.639,0,0,1,.416,6.24,11.071,11.071,0,0,1-.624,4.472Q176.7,175,166.458,183.32t-18.617,8.32q-8.372,0-12.324-5.1a17.982,17.982,0,0,1-3.952-11.284,26.545,26.545,0,0,1,2.08-10.868,89.522,89.522,0,0,1-19.813,19.033q-11.18,7.8-18.253,7.8a16.043,16.043,0,0,1-11.544-4.264q-5.72-5.3-5.72-14.717a46.462,46.462,0,0,1,4.212-18.929A68.162,68.162,0,0,1,93.6,135.946a111.043,111.043,0,0,1,15.081-14.3q17.265-13.521,31.825-13.521A19.518,19.518,0,0,1,149.662,110a8.551,8.551,0,0,1,4.472,4.68q2.5-3.744,4.212-4.732A10.571,10.571,0,0,1,163.494,108.957ZM149.662,120.5q-17.785,0-36.817,19.761a87.135,87.135,0,0,0-12.428,16.953q-5.668,9.88-5.668,13.521t2.08,3.64q2.912,0,16.225-11.492t17.681-16.9Q135.517,139.95,149.662,120.5Zm55.226,10.816q24.545-27.873,41.81-27.873a9.936,9.936,0,0,1,7.02,2.548,8.582,8.582,0,0,1,2.756,6.6q0,4.056-5.772,13.573t-10.66,16.069q-2.6,3.328-5.876,3.328a6.036,6.036,0,0,1-5.1-2.392,9.012,9.012,0,0,1-1.82-5.616q0-7.176,7.7-16.225l-.208-.208q-3.432.312-17,13.521t-23.089,23.661Q185.127,168.759,174,183.736q-3.224,4.472-5.46,4.472a17.772,17.772,0,0,1-5.928-1.4,22.317,22.317,0,0,1-4.472-2.028,2.513,2.513,0,0,1-.78-2.08,8.716,8.716,0,0,1,.832-3.38,43.952,43.952,0,0,1,3.068-5.46q2.236-3.536,6.76-11.44t14.093-23.921q9.568-16.017,11.44-19.345A85.113,85.113,0,0,1,200,109.165q4.68-5.928,15.809-5.928,2.5,0,2.5,3.12,0,4.888-9.048,18.409ZM316.8,110.205a16.055,16.055,0,0,1-5.564,12.064,18.01,18.01,0,0,1-12.636,5.2q-2.288,0-3.016-1.092a5.071,5.071,0,0,1-.728-2.86,14.1,14.1,0,0,1,.416-3.432,47.724,47.724,0,0,0-8.32,3.848,103.668,103.668,0,0,0-11.232,7.7q-6.656,5.1-6.656,7.592,0,.832,2.444.832a26.7,26.7,0,0,0,7.54-1.716,26.892,26.892,0,0,1,7.124-1.716,10.448,10.448,0,0,1,2.652.208A9.092,9.092,0,0,1,291.731,140a8.028,8.028,0,0,1,1.56,3.848q0,1.4-2.7,3.692a19.181,19.181,0,0,1-6.136,3.484,36.48,36.48,0,0,0-4.576,1.82Q257.93,165.119,257.93,169.7q0,8.112,13.833,8.112,8.84,0,17.785-5.616a140.624,140.624,0,0,0,13.677-9.724q6.084-4.94,7.7-6.084a5.007,5.007,0,0,1,2.444-1.144q2.7,0,2.7,6.032t-.728,7.956q-.728,1.924-4.16,4.732-22.257,18.1-42.122,18.1-10.608,0-16.953-2.912-11.648-5.3-11.648-16.225,0-14.353,19.865-21.737-3.952-1.768-5.1-4.524t-1.144-8.84q0-6.084,5.668-12.9a45.805,45.805,0,0,1,13.885-11.18q18.3-9.88,32.657-9.88a16.277,16.277,0,0,1,6.968,1.664Q316.8,107.189,316.8,110.205Zm67.6,0a16.055,16.055,0,0,1-5.564,12.064,18.01,18.01,0,0,1-12.636,5.2q-2.288,0-3.016-1.092a5.071,5.071,0,0,1-.728-2.86,14.1,14.1,0,0,1,.416-3.432,47.724,47.724,0,0,0-8.32,3.848,103.668,103.668,0,0,0-11.232,7.7q-6.656,5.1-6.656,7.592,0,.832,2.444.832a26.7,26.7,0,0,0,7.54-1.716,26.892,26.892,0,0,1,7.124-1.716,10.448,10.448,0,0,1,2.652.208A9.092,9.092,0,0,1,359.333,140a8.028,8.028,0,0,1,1.56,3.848q0,1.4-2.7,3.692a19.181,19.181,0,0,1-6.136,3.484,36.48,36.48,0,0,0-4.576,1.82q-21.945,12.272-21.945,16.849,0,8.112,13.833,8.112,8.84,0,17.785-5.616a140.624,140.624,0,0,0,13.677-9.724q6.084-4.94,7.7-6.084a5.007,5.007,0,0,1,2.444-1.144q2.7,0,2.7,6.032t-.728,7.956q-.728,1.924-4.16,4.732-22.257,18.1-42.122,18.1-10.608,0-16.953-2.912-11.648-5.3-11.648-16.225,0-14.353,19.865-21.737-3.952-1.768-5.1-4.524t-1.144-8.84q0-6.084,5.668-12.9a45.805,45.805,0,0,1,13.885-11.18q18.3-9.88,32.657-9.88a16.277,16.277,0,0,1,6.968,1.664Q384.4,107.189,384.4,110.205Zm30.057,21.113q24.545-27.873,41.81-27.873a9.936,9.936,0,0,1,7.02,2.548,8.582,8.582,0,0,1,2.756,6.6q0,4.056-5.772,13.573t-10.66,16.069q-2.6,3.328-5.876,3.328a6.036,6.036,0,0,1-5.1-2.392,9.012,9.012,0,0,1-1.82-5.616q0-7.176,7.7-16.225l-.208-.208q-3.432.312-17,13.521t-23.089,23.661q-9.516,10.452-20.645,25.429-3.224,4.472-5.46,4.472a17.772,17.772,0,0,1-5.928-1.4,22.317,22.317,0,0,1-4.472-2.028,2.513,2.513,0,0,1-.78-2.08,8.716,8.716,0,0,1,.832-3.38,43.952,43.952,0,0,1,3.068-5.46q2.236-3.536,6.76-11.44t14.093-23.921q9.568-16.017,11.44-19.345a85.113,85.113,0,0,1,6.448-9.984q4.68-5.928,15.809-5.928,2.5,0,2.5,3.12,0,4.888-9.048,18.409Z" transform="matrix(0.985, -0.174, 0.174, 0.985, 46.257, 235.619)" fill="none" stroke="#396cae" stroke-width="2"/>
</svg>
