<?xml version="1.0" encoding="utf-8"?>
<!-- Generator: Adobe Illustrator 28.1.0, SVG Export Plug-In . SVG Version: 6.00 Build 0)  -->
<svg version="1.1" id="グループ_1997" xmlns="http://www.w3.org/2000/svg" xmlns:xlink="http://www.w3.org/1999/xlink" x="0px"
	 y="0px" viewBox="0 0 173.8 135" style="enable-background:new 0 0 173.8 135;" xml:space="preserve">
<style type="text/css">
	.st0{fill:#5B8DCD;}
	.st1{fill:#FFFFFF;}
</style>
<g id="グループ_2010">
	<path id="パス_1497" class="st0" d="M64.7,124.2c-0.5,0-1-0.1-1.4-0.2l-7.4-2h17.8l-7.4,2C65.7,124.1,65.2,124.2,64.7,124.2"/>
	<path id="パス_1498" class="st1" d="M65.9,123c-0.8,0.2-1.6,0.2-2.4,0H65.9z M81.3,121H48.1l14.9,3.9c1.1,0.3,2.3,0.3,3.4,0
		L81.3,121z"/>
	<path id="パス_1499" class="st0" d="M41.7,70.2c-6.4,0-11.6-5.2-11.6-11.6S35.3,47,41.7,47s11.6,5.2,11.6,11.6c0,0,0,0,0,0
		C53.3,65,48.1,70.2,41.7,70.2"/>
	<path id="パス_1500" class="st1" d="M41.7,48c5.9,0,10.6,4.7,10.6,10.6c0,5.9-4.7,10.6-10.6,10.6s-10.6-4.7-10.6-10.6l0,0
		C31.1,52.8,35.9,48,41.7,48C41.7,48,41.7,48,41.7,48 M41.7,46c-7,0-12.6,5.6-12.6,12.6s5.6,12.6,12.6,12.6s12.6-5.6,12.6-12.6
		c0,0,0,0,0,0C54.3,51.7,48.7,46,41.7,46"/>
	<path id="パス_1501" class="st0" d="M60.4,124l-0.1,0c-2.5-0.7-4.2-2.9-4.2-5.4V90.3h-0.1V123H32.5c-2.8,0-5-2.2-5-5V92
		c0-1.6-0.5-3.1-1.4-4.3l-24-32.8c-1.9-2.5-1.3-6,1.2-7.9c0.1-0.1,0.3-0.2,0.5-0.3c0.8-0.5,1.8-0.8,2.8-0.8c1.9,0,3.6,0.9,4.7,2.4
		l12.3,16.6c3,4,7.7,6.3,12.6,6.4h19.4c6.5,0,11.7,5.2,11.7,11.7v35.6c0,2.6-1.7,4.8-4.2,5.4l-0.1,0L60.4,124z"/>
	<path id="パス_1502" class="st1" d="M6.6,46.8c1.6,0,3,0.8,3.9,2l12.3,16.6c3.2,4.3,8.1,6.8,13.4,6.8h19.4
		c5.9,0,10.7,4.8,10.7,10.7v35.6c0,2.1-1.4,3.9-3.5,4.5h-2.4c-2-0.5-3.5-2.4-3.5-4.5V89.3h-2.1V122H32.5c-2.2,0-4-1.8-4-4V92
		c0-1.8-0.6-3.5-1.6-4.9l-24-32.8c-1.5-2.1-1.1-5,1-6.5c0.1-0.1,0.2-0.2,0.4-0.3C5,47.1,5.7,46.8,6.6,46.8 M6.6,44.8L6.6,44.8
		c-1.2,0-2.3,0.3-3.3,0.9c-3.2,1.9-4.2,6-2.3,9.1c0.1,0.2,0.2,0.4,0.4,0.5l24,32.8c0.8,1.1,1.2,2.4,1.2,3.8v26c0,3.3,2.7,6,6,6h24.4
		v-0.9c0.8,0.9,1.9,1.5,3.1,1.8l0.3,0.1h2.9l0.3-0.1c2.9-0.8,4.9-3.4,4.9-6.4V82.9c0-7-5.7-12.7-12.7-12.7H36.2c-4.7,0-9-2.2-11.8-6
		L12.1,47.7C10.8,45.9,8.7,44.9,6.6,44.8"/>
	<path id="パス_1503" class="st0" d="M130.8,69.2c-6.5,0-11.7-5.2-11.7-11.7s5.2-11.7,11.7-11.7s11.7,5.2,11.7,11.7c0,0,0,0,0,0
		C142.5,64,137.3,69.2,130.8,69.2"/>
	<path id="パス_1504" class="st1" d="M130.8,46.8c5.9,0,10.7,4.8,10.7,10.7c0,5.9-4.8,10.7-10.7,10.7c-5.9,0-10.7-4.8-10.7-10.7
		C120.1,51.6,124.9,46.8,130.8,46.8C130.8,46.8,130.8,46.8,130.8,46.8 M130.8,44.8c-7,0-12.7,5.7-12.7,12.7s5.7,12.7,12.7,12.7
		c7,0,12.7-5.7,12.7-12.7C143.5,50.5,137.8,44.8,130.8,44.8"/>
	<path id="パス_1505" class="st0" d="M110.7,123.7c-0.2,0-0.4,0-0.6,0c-3-0.4-5.2-2.9-5.1-5.9V82c0-6.5,5.3-11.8,11.8-11.8h28.1
		c5.5,0,10.5,4.9,11.8,11.6l2.5,13.3h7.9c3.1,0,5.7,2.5,5.7,5.7c0,0.2,0,0.4,0,0.5c-0.4,3-2.9,5.2-5.9,5.1H154
		c-3.4,0-6.2-2.4-6.7-5.8l-1.8-11.4h-0.3V117c0,2.8-2.2,5-5,5h-23.6V89.4h-0.2V118C116.3,121.1,113.8,123.7,110.7,123.7"/>
	<path id="パス_1506" class="st1" d="M144.9,71.2c5.2,0,9.7,4.8,10.8,10.8l2.7,14.2h8.7c2.6,0,4.7,2.1,4.7,4.7c0,0.2,0,0.3,0,0.5
		c-0.3,2.4-2.4,4.3-4.9,4.2H154c-2.9,0-5.3-2.1-5.7-4.9l-1.9-12.2h-2.2V117c0,2.2-1.8,4-4,4h-22.6V88.4h-2.2V118
		c0,2.6-2.1,4.7-4.7,4.7c-0.2,0-0.3,0-0.5,0c-2.4-0.3-4.3-2.4-4.2-4.9V82c0-6,4.9-10.8,10.8-10.8H144.9z M144.9,69.2h-28.1
		C109.7,69.2,104,75,104,82v35.7c0,3.5,2.6,6.4,6,6.9c0.2,0,0.4,0,0.7,0c1.8,0,3.6-0.8,4.9-2.1v0.4h24.6c3.3,0,6-2.7,6-6v-16.7
		l0.1,0.7c0.6,3.8,3.9,6.6,7.7,6.6h12.9c3.5,0,6.5-2.6,6.9-6.1c0.4-3.7-2.3-6.9-6-7.3c-0.2,0-0.4,0-0.6,0h-7l-2.4-12.5
		C156.3,74.5,150.9,69.2,144.9,69.2"/>
	<path id="パス_1507" class="st0" d="M86.1,78.6c-6.5,0-11.7-5.2-11.7-11.7s5.2-11.7,11.7-11.7s11.7,5.2,11.7,11.7c0,0,0,0,0,0
		C97.8,73.3,92.6,78.6,86.1,78.6"/>
	<path id="パス_1508" class="st1" d="M86.1,56.2c5.9,0,10.7,4.8,10.7,10.7S92,77.6,86.1,77.6c-5.9,0-10.7-4.8-10.7-10.7
		C75.4,61,80.2,56.2,86.1,56.2C86.1,56.2,86.1,56.2,86.1,56.2 M86.1,54.2c-7,0-12.7,5.7-12.7,12.7s5.7,12.7,12.7,12.7
		c7,0,12.7-5.7,12.7-12.7C98.8,59.9,93.1,54.2,86.1,54.2"/>
	<path id="パス_1509" class="st0" d="M76.8,134c-2.8,0-5-2.2-5-5V98.8h-0.2v28.6c0,3.1-2.6,5.7-5.7,5.7c-0.2,0-0.4,0-0.6,0
		c-3-0.4-5.2-2.9-5.1-5.9V91.4c0-6.5,5.3-11.8,11.8-11.8h28.1c6.5,0,11.8,5.3,11.8,11.8v35.9c0,3.1-2.5,5.7-5.7,5.7c0,0,0,0,0,0
		c-0.2,0-0.4,0-0.5,0c-3-0.4-5.2-2.9-5.1-5.9V98.8h-0.2V129c0,2.8-2.2,5-5,5H76.8z"/>
	<path id="パス_1510" class="st1" d="M100.2,80.6c6,0,10.8,4.9,10.8,10.8v35.9c0,2.6-2.1,4.7-4.7,4.7c0,0,0,0,0,0
		c-0.1,0-0.3,0-0.5,0c-2.5-0.3-4.3-2.4-4.2-4.9V97.8h-2.2V129c0,2.2-1.8,4-4,4H76.8c-2.2,0-4-1.8-4-4V97.8h-2.2v29.6
		c0,2.6-2.1,4.7-4.7,4.7c-0.2,0-0.3,0-0.5,0c-2.4-0.3-4.3-2.4-4.2-4.9V91.4c0-6,4.9-10.8,10.8-10.8H100.2z M100.2,78.6H72.1
		c-7.1,0-12.8,5.7-12.8,12.8v35.7c0,3.5,2.6,6.4,6,6.9c0.2,0,0.4,0,0.7,0c2.1,0,4.1-1,5.3-2.7c1,2.2,3.1,3.6,5.5,3.6h18.6
		c2.4,0,4.6-1.5,5.5-3.7c1.1,1.5,2.8,2.5,4.7,2.7c0.2,0,0.4,0,0.6,0c3.7,0,6.7-3,6.7-6.7V91.4C113,84.3,107.2,78.6,100.2,78.6"/>
</g>
</svg>
