<?xml version="1.0" encoding="utf-8"?>
<!-- Generator: Adobe Illustrator 28.1.0, SVG Export Plug-In . SVG Version: 6.00 Build 0)  -->
<svg version="1.1" id="レイヤー_1" xmlns="http://www.w3.org/2000/svg" xmlns:xlink="http://www.w3.org/1999/xlink" x="0px"
	 y="0px" viewBox="0 0 122.2 111.3" style="enable-background:new 0 0 122.2 111.3;" xml:space="preserve">
<style type="text/css">
	.st0{fill:#5B8DCD;}
</style>
<g id="グループ_1926" transform="translate(0 0.001)">
	<g id="グループ_2006">
		<path id="パス_1372" class="st0" d="M61.1,81.1c4.9,0,8.9-4,8.9-8.9c0-4.9-4-8.9-8.9-8.9c-4.9,0-8.9,4-8.9,8.9c0,0,0,0,0,0
			C52.2,77.1,56.2,81.1,61.1,81.1 M61.1,65.8c3.5,0,6.4,2.9,6.4,6.4s-2.9,6.4-6.4,6.4c-3.5,0-6.4-2.9-6.4-6.4c0,0,0,0,0,0
			C54.7,68.7,57.5,65.8,61.1,65.8"/>
		<path id="パス_1373" class="st0" d="M52,92.8c-0.7,0-1.3,0.6-1.3,1.3V110c0,0.7,0.5,1.3,1.2,1.3c0.7,0,1.3-0.5,1.3-1.2
			c0,0,0-0.1,0-0.1V94.1C53.3,93.4,52.7,92.8,52,92.8"/>
		<path id="パス_1374" class="st0" d="M70.1,92.8c-0.7,0-1.3,0.6-1.3,1.3V110c0,0.7,0.5,1.3,1.2,1.3c0.7,0,1.3-0.5,1.3-1.2
			c0,0,0-0.1,0-0.1V94.1C71.4,93.4,70.8,92.8,70.1,92.8"/>
		<path id="パス_1375" class="st0" d="M39,83.8c4.9,0,8.9-4,8.9-8.9c0-4.9-4-8.9-8.9-8.9s-8.9,4-8.9,8.9c0,0,0,0,0,0
			C30.1,79.9,34.1,83.8,39,83.8 M39,68.6c3.5,0,6.4,2.9,6.4,6.4c0,3.5-2.9,6.4-6.4,6.4c-3.5,0-6.4-2.9-6.4-6.4l0,0
			C32.6,71.4,35.5,68.6,39,68.6"/>
		<path id="パス_1376" class="st0" d="M30,95.5L30,95.5c-0.7,0-1.3,0.6-1.3,1.2L28.7,110c0,0.7,0.6,1.2,1.2,1.2h0
			c0.7,0,1.2-0.6,1.3-1.2l0.1-13.2C31.2,96.1,30.7,95.5,30,95.5C30,95.5,30,95.5,30,95.5"/>
		<path id="パス_1377" class="st0" d="M17,86.6c4.9,0,8.9-4,8.9-8.9c0-4.9-4-8.9-8.9-8.9c-4.9,0-8.9,4-8.9,8.9c0,0,0,0,0,0
			C8.1,82.6,12.1,86.6,17,86.6 M17,71.3c3.5,0,6.4,2.9,6.4,6.4c0,3.5-2.9,6.4-6.4,6.4c-3.5,0-6.4-2.9-6.4-6.4
			C10.6,74.1,13.4,71.3,17,71.3"/>
		<path id="パス_1378" class="st0" d="M7.9,98.3L7.9,98.3c-0.7,0-1.3,0.6-1.3,1.2L6.6,110c0,0.7,0.6,1.3,1.2,1.3h0
			c0.7,0,1.2-0.6,1.2-1.2l0.1-10.5C9.2,98.8,8.6,98.3,7.9,98.3"/>
		<path id="パス_1379" class="st0" d="M83.1,83.8c4.9,0,8.9-4,8.9-8.9s-4-8.9-8.9-8.9c-4.9,0-8.9,4-8.9,8.9c0,0,0,0,0,0
			C74.2,79.9,78.2,83.8,83.1,83.8 M83.1,68.6c3.5,0,6.4,2.9,6.4,6.4s-2.9,6.4-6.4,6.4c-3.5,0-6.4-2.9-6.4-6.4c0,0,0,0,0,0
			C76.7,71.4,79.6,68.6,83.1,68.6"/>
		<path id="パス_1380" class="st0" d="M92.2,95.5c-0.7,0-1.2,0.6-1.2,1.3c0,0,0,0,0,0L91,110c0,0.7,0.6,1.2,1.3,1.2h0
			c0.7,0,1.2-0.6,1.2-1.3c0,0,0,0,0,0l-0.1-13.2C93.4,96.1,92.9,95.5,92.2,95.5C92.2,95.5,92.2,95.5,92.2,95.5"/>
		<path id="パス_1381" class="st0" d="M105.2,86.6c4.9,0,8.9-4,8.9-8.9s-4-8.9-8.9-8.9s-8.9,4-8.9,8.9c0,0,0,0,0,0
			C96.3,82.6,100.3,86.6,105.2,86.6 M105.2,71.3c3.5,0,6.4,2.9,6.4,6.4s-2.9,6.4-6.4,6.4c-3.5,0-6.4-2.9-6.4-6.4c0,0,0,0,0,0
			C98.8,74.1,101.6,71.3,105.2,71.3"/>
		<path id="パス_1382" class="st0" d="M111.5,88.2H98.9c-0.7,0-1.4,0.1-2.1,0.2c-2-1.9-4.6-2.9-7.4-2.9H76.8
			c-0.7,0-1.4,0.1-2.1,0.2c-2-1.9-4.6-2.9-7.4-2.9H54.8c-2.7,0-5.4,1.1-7.4,2.9c-0.7-0.1-1.4-0.2-2.1-0.2H32.7
			c-2.7,0-5.4,1.1-7.4,2.9c-0.7-0.1-1.4-0.2-2.1-0.2H10.7C4.8,88.2,0,93,0,98.9L0.1,110c0,0.7,0.6,1.2,1.3,1.2h0
			c0.7,0,1.2-0.6,1.2-1.3L2.5,98.9c0-4.5,3.7-8.2,8.2-8.2h12.6c0.1,0,0.2,0,0.3,0c-1,1.7-1.5,3.5-1.5,5.5l0.1,13.8
			c0,0.7,0.6,1.2,1.3,1.2h0c0.7,0,1.2-0.6,1.2-1.3l-0.1-13.8c0-4.5,3.7-8.2,8.2-8.2h12.6c0.1,0,0.2,0,0.3,0c-1,1.7-1.5,3.5-1.5,5.5
			V110c0,0.7,0.5,1.3,1.2,1.3c0.7,0,1.3-0.5,1.3-1.2c0,0,0-0.1,0-0.1V93.5c0-4.5,3.7-8.2,8.2-8.2h12.6c4.5,0,8.2,3.7,8.2,8.2V110
			c0,0.7,0.5,1.3,1.2,1.3c0.7,0,1.3-0.5,1.3-1.2c0,0,0-0.1,0-0.1V93.5c0-1.9-0.5-3.8-1.5-5.5c0.1,0,0.2,0,0.3,0h12.6
			c4.5,0,8.2,3.7,8.2,8.2L97.5,110c0,0.7,0.6,1.3,1.2,1.3h0c0.7,0,1.2-0.6,1.3-1.2l0.1-13.8c0-1.9-0.5-3.8-1.5-5.5
			c0.1,0,0.2,0,0.3,0h12.6c4.5,0,8.2,3.7,8.2,8.2l-0.1,11.1c0,0.7,0.6,1.3,1.2,1.3h0c0.7,0,1.2-0.6,1.3-1.2l0.1-11.1
			C122.1,93,117.4,88.2,111.5,88.2"/>
		<path id="パス_1383" class="st0" d="M114.2,98.3L114.2,98.3c-0.7,0-1.3,0.6-1.3,1.3c0,0,0,0,0,0L113,110c0,0.7,0.6,1.2,1.3,1.2
			h0c0.7,0,1.2-0.6,1.2-1.3c0,0,0,0,0,0l-0.1-10.5C115.5,98.8,114.9,98.3,114.2,98.3"/>
	</g>
</g>
</svg>
