<?xml version="1.0" encoding="utf-8"?>
<!-- Generator: Adobe Illustrator 28.1.0, SVG Export Plug-In . SVG Version: 6.00 Build 0)  -->
<svg version="1.1" id="グループ_1916" xmlns="http://www.w3.org/2000/svg" xmlns:xlink="http://www.w3.org/1999/xlink" x="0px"
	 y="0px" viewBox="0 0 276.9 92.9" style="enable-background:new 0 0 276.9 92.9;" xml:space="preserve">
<style type="text/css">
	.st0{fill:#5B8DCD;}
	.st1{fill:#FFFFFF;}
</style>
<g>
	<g id="グループ_1915" transform="translate(0 0)">
		<path id="パス_1319" class="st0" d="M27.6,57.8c-3.2,0-5.8-2.6-5.8-5.8s2.6-5.8,5.8-5.8c3.2,0,5.8,2.6,5.8,5.8
			c0,0.6-0.1,1.2-0.3,1.8C32.3,56.2,30.1,57.8,27.6,57.8"/>
		<path id="パス_1320" class="st1" d="M27.6,47c2.8,0,5,2.3,5,5c0,2.8-2.3,5-5,5c-2.8,0-5-2.3-5-5c0-0.5,0.1-1.1,0.2-1.6
			C23.5,48.4,25.4,47,27.6,47 M27.6,45.5c-3.6,0-6.5,2.9-6.5,6.5c0,3.6,2.9,6.5,6.5,6.5c3.6,0,6.5-2.9,6.5-6.5
			c0-2.8-1.8-5.3-4.5-6.2C29,45.6,28.3,45.5,27.6,45.5"/>
		<path id="パス_1321" class="st0" d="M36.1,90.3c-0.9,0-1.7-0.4-2.3-1L21,79.5l-4.5,5.7c-0.6,0.9-1.7,1.5-2.9,1.4
			c-0.7,0-1.4-0.1-2-0.4l0,0l-0.1,0l-8.9-4c-1.5-0.6-2.2-2.2-1.7-3.7c0.5-1.4,2.1-2.2,3.6-1.7l7.1,1.5l6.6-15.8
			c1.3-3.1,3.8-4.8,6.6-4.8c1.9,0.1,3.8,0.7,5.3,1.9L40,67c1.1,0.8,1.4,2.4,0.5,3.6c-0.5,0.7-1.3,1-2.1,1c-0.5,0-1-0.2-1.5-0.5
			L29.1,67l-2.9,5l12.3,13.1c1.1,1.3,1,3.3-0.3,4.4C37.6,90.1,36.9,90.3,36.1,90.3"/>
		<path id="パス_1322" class="st1" d="M24.8,58.3c1.8,0.1,3.5,0.7,4.9,1.7l9.9,7.6c0.8,0.6,1,1.7,0.4,2.6s-1.7,1-2.6,0.4l0,0
			l-8.6-4.5l-3.6,6.1L38,85.6c0.9,1,0.8,2.5-0.2,3.4c-1,0.9-2.5,0.8-3.4-0.2c0,0-0.1-0.1-0.1-0.1L20.9,78.5l-4.9,6.2
			c-0.5,0.8-1.4,1.2-2.3,1.2c-0.6,0-1.2-0.1-1.8-0.4c0,0,0,0,0,0l-8.9-4c-1.1-0.4-1.7-1.6-1.3-2.7C2,77.6,3.2,77,4.3,77.4l7.7,1.7
			l6.8-16.4C20.1,59.9,22.3,58.3,24.8,58.3 M24.8,56.8c-3.2,0-5.8,1.9-7.3,5.3l-6.4,15.3L4.7,76c-1.9-0.6-3.9,0.5-4.5,2.4
			c-0.6,1.8,0.4,3.8,2.2,4.5l8.8,4l0,0l0.1,0l0.1,0c0.7,0.3,1.5,0.4,2.3,0.4c1.4,0,2.7-0.6,3.5-1.8l4-5l12.2,9.3
			c1.5,1.6,3.9,1.7,5.5,0.2c1.5-1.4,1.7-3.8,0.3-5.4l0,0l0,0L27.1,71.9l2.3-3.9l7.2,3.8c0.5,0.4,1.2,0.6,1.9,0.6
			c1.1,0,2-0.5,2.7-1.4c1.1-1.5,0.8-3.5-0.7-4.6l-9.8-7.5l0,0l0,0C28.9,57.6,26.9,56.9,24.8,56.8"/>
		<path id="パス_1323" class="st0" d="M44.9,91.2c-0.2,0-0.3,0-0.5,0c-1.6-0.3-2.6-1.8-2.5-3.4L44,58.5c0.5-3.2,2.4-4.9,5.4-4.9
			c1.4,0,2.9,0.4,4.2,0.9l11.2,5.6c1.3,0.5,1.8,2,1.3,3.3c-0.3,0.9-1.2,1.6-2.2,1.6c-0.3,0-0.7-0.1-1-0.2l-8.7-1.9l-1.6,6.4l7.2,4
			c1.3,0.9,1.8,2.5,1.1,3.9l-2.8,7.5c-0.3,1.3-1.4,2.2-2.8,2.2c-0.2,0-0.3,0-0.5,0c-1.5-0.3-2.6-1.7-2.3-3.3l1.2-5.6l-3.2-0.7
			l-2.8,11.5C47.6,90.2,46.4,91.2,44.9,91.2"/>
		<path id="パス_1324" class="st1" d="M49.4,54.4c1.4,0,2.7,0.3,3.9,0.9l11.1,5.6c0.9,0.4,1.3,1.4,1,2.3c-0.2,0.7-0.8,1.1-1.5,1.1
			c-0.3,0-0.5-0.1-0.8-0.1l-9.5-2.1l-1.9,7.6l7.6,4.2c1,0.7,1.3,2,0.8,3l-2.8,7.5c-0.2,1-1.1,1.7-2.1,1.7c-0.1,0-0.2,0-0.4,0
			c-1.1-0.2-1.9-1.3-1.7-2.4c0,0,0,0,0,0l1.3-6.3l-4.6-1l-2.9,12.2c-0.2,1.2-1.4,2-2.6,1.8c-1.2-0.3-2-1.4-1.8-2.6l2.1-29.2
			C45.3,55.4,47.2,54.4,49.4,54.4 M49.4,52.9c-3.3,0-5.6,2-6.1,5.4l0,0.1v0.1l-2.1,29.2c-0.2,2,1.1,3.8,3.1,4.2c2,0.3,3.9-1,4.3-3
			l2.6-10.7l1.7,0.4l-1,4.9v0v0c-0.4,1.9,0.9,3.8,2.9,4.1c0,0,0,0,0,0c0.2,0,0.4,0.1,0.6,0.1c1.6-0.1,3-1.2,3.5-2.7l2.8-7.4
			c0.8-1.8,0.2-3.8-1.5-4.8l-6.6-3.7l1.2-5.1l8,1.7c0.4,0.1,0.8,0.2,1.2,0.2c1.3,0,2.5-0.8,2.9-2c0.7-1.6-0.1-3.5-1.7-4.2L54,54l0,0
			l0,0C52.5,53.3,50.9,53,49.4,52.9"/>
		<path id="パス_1325" class="st0" d="M49.9,53.3c-0.4,0-0.8,0-1.2-0.1c-3.2-0.6-5.3-3.7-4.6-6.9c0.6-3.2,3.7-5.3,6.9-4.6
			c1.5,0.3,2.9,1.2,3.7,2.5c0.9,1.3,1.2,2.9,0.9,4.4C55.2,51.3,52.8,53.2,49.9,53.3"/>
		<path id="パス_1326" class="st1" d="M49.9,42.2c2.9,0,5.2,2.3,5.2,5.2c0,2.9-2.3,5.2-5.2,5.2c-2.9,0-5.2-2.3-5.2-5.2
			c0-0.3,0-0.7,0.1-1C45.4,43.9,47.5,42.2,49.9,42.2 M49.9,40.7L49.9,40.7c-3.7,0-6.6,3-6.6,6.6s3,6.6,6.6,6.6c3.7,0,6.6-3,6.6-6.6
			c0-3.2-2.2-5.9-5.3-6.5C50.8,40.8,50.4,40.7,49.9,40.7"/>
	</g>
</g>
</svg>
