<?xml version="1.0" encoding="utf-8"?>
<!-- Generator: Adobe Illustrator 28.1.0, SVG Export Plug-In . SVG Version: 6.00 Build 0)  -->
<svg version="1.1" id="グループ_1997" xmlns="http://www.w3.org/2000/svg" xmlns:xlink="http://www.w3.org/1999/xlink" x="0px"
	 y="0px" viewBox="0 0 173.8 135" style="enable-background:new 0 0 173.8 135;" xml:space="preserve">
<style type="text/css">
	.st0{fill:#5B8DCD;}
</style>
<path id="パス_1496" class="st0" d="M127.3,28.2c-0.7-2-1.7-4-2.7-5.9c-2-3.5-4.4-6.8-7.3-9.7l-0.2-0.2l0,0
	c-0.1-0.1-0.2-0.2-0.2-0.2h0c-0.2-0.2-0.5-0.5-0.8-0.7c-12.9-12-31.8-14.9-47.7-7.4c-0.4,0.2-0.8,0.4-1.1,0.6
	C57.1,9.8,49.3,18.8,45.7,29.5c-0.1,0.3-0.2,0.7-0.3,1l0,0c-0.1,0.2-0.1,0.5-0.2,0.7c-0.2,0.5-0.3,1.1-0.4,1.6
	c-0.1,0.2-0.1,0.4-0.1,0.6c-4.9,21.2,6.8,42.8,27.3,50.3c0.2,0.1,0.4,0.1,0.6,0.2c1.1,0.4,2.3,0.8,3.5,1.1c0.2,0.1,0.4,0.1,0.6,0.2
	c14.6,3.5,30.1-0.8,40.7-11.4c1.4-1.4,2.8-3,4-4.6C130.1,57.4,132.3,42,127.3,28.2 M59.5,70.4c-7.2-7.2-11.3-17-11.3-27.2
	c0-1.9,0.1-3.9,0.4-5.8c1.3,0.9,3.7,2.2,3.7,2.2c0.1,0,0.2,0,0.3,0c0.2,0,0.4,0,0.7-0.1c0.2,0,0.5-0.1,0.7-0.1c0.1,0,0.1,0,0.2,0
	c0.1,0,0.2,0.4,0.3,0.6c0.1,0.4,0.3,0.7,0.7,0.9c0.6,0.2,1.3,0.3,2,0.3c0.3,0,0.7,0.1,0.8,0.1c0.1,0.2,0.1,0.4,0.2,0.6
	c0.1,0.5,0.3,1,0.7,1.4c0.8,0.6,1.5,1.3,2.2,2c0.1,0.1,0.2,0.1,0.3,0.1c0.1,0,0.1,0,0.2-0.1c0.1,0,1.2-0.7,1.6-0.9
	c0.1,0.1,0.3,0.1,0.4,0.2c0,0.6,0.1,2.7,0.1,3.1c-0.5,0.7-1.2,1.4-1.9,2c-0.1,0.1-0.2,0.2-0.2,0.3c0,0.1-0.1,2.8,0,3.9
	c0.1,1.1,1.9,3.3,2.4,3.8c0.3,0.8,0.6,1.6,1,2.4c1.2,1.1,2.5,2.1,3.8,3v6.4c0,0.6,0.2,1.1,0.5,1.6c0.1,0.2,0.2,0.4,0.2,0.6v4.5
	c0,0.5,0.1,1,0.4,1.5C66.2,76,62.6,73.5,59.5,70.4 M120,27.3c-0.6-0.4-1.2-0.6-1.9-0.8l-0.9-0.1c-0.4-0.9-0.2-2.8-1.7-2.4
	s-6.4,1.3-7.5,1.5s-2.4,1.9-3.2,3.2s-3.2,5.4-3.7,6s-0.6,4.7-0.6,5.8s4.7,5.6,6.2,5.8s5.6-0.9,6.7-1.1s1.7,1.3,2.6,1.3
	s1.9,0.4,1.1,1.7s-0.9,1.9,0,2.8s2.6,4.1,1.5,6.7c-0.8,1.6-0.7,3.5,0.4,4.9c0.1,0.3,0.3,0.5,0.4,0.8c-1.5,2.5-3.4,4.8-5.4,6.8
	c-9.8,9.8-24.1,13.6-37.5,9.9c0-0.1,0-0.1,0-0.2c0-0.3-0.1-0.7-0.3-0.9c0.2-0.1,0.4-0.3,0.6-0.5c0.2-0.4,0.3-0.8,0.2-1.2h0.2
	c0.6,0,1.1-0.1,1.6-0.4c0.6-0.6,0.9-1.6,0.6-2.5c0.1,0,0.1,0,0.2,0.1c0.1,0,0.1,0,0.2,0c0.7,0,1.4-1.2,1.7-2.1
	c0.2-0.5,0.4-1.1,0.6-1.6c0.5-0.9,0.8-1.9,1-3c0.5-0.7,1.3-1.3,2.2-1.4c1.2-0.2,1.7-0.7,2.2-2.2c0.4-1.6,0.6-3.2,0.6-4.9
	c0.3-0.8,0.7-1.4,1.2-2.1c0.8-1.1,1.3-1.8,1.3-2.4c-0.1-1.2-0.9-2.2-1.9-2.7c-1-0.5-2.1-0.7-3.2-0.8c-0.3,0-0.5,0-0.6-0.1
	s-0.3-0.2-0.4-0.4c-0.3-0.4-0.8-0.7-1.3-0.8c-0.1,0-0.1,0-0.2,0c-0.4,0-0.8,0.1-1.1,0.3c-0.3,0.1-0.6,0.2-0.9,0.2
	c-0.1,0-0.2,0-0.3,0c-0.1,0-0.2,0-0.2-0.1c0.1-0.2,0.3-0.4,0.5-0.5c0.3-0.2,0.6-0.7,0.3-1.8c-0.2-0.6-0.5-1.2-0.9-1.8
	c-0.5-0.7-1.4-1.1-2.3-1c-0.4,0-0.7,0-1.1,0.1h-0.1c-0.4,0-0.6-0.3-1-1c-0.3-0.5-0.6-0.9-0.9-1.3c-0.8-0.8-1.9-1.2-3-1.1
	c-0.1,0-0.3,0-0.4,0c-0.1,0-0.2,0-0.3,0c-0.1,0-0.2,0-0.4,0c-0.5-0.1-1-0.3-1.4-0.6c-0.5-0.3-1-0.5-1.5-0.6l-0.1,0
	c-0.6,0-1.3,0.7-2.3,1.8c-0.2,0.3-0.6,0.6-0.7,0.8c0,0-0.1-0.1-0.1-0.1c-0.2-0.3-0.5-0.5-0.9-0.7c-0.1,0-0.2,0-0.3,0
	c-0.3,0-0.6,0.2-0.8,0.4c-0.2,0.1-0.4,0.2-0.6,0.3c-0.1,0-0.3-0.1-0.4-0.1c-0.6-0.3-0.4-1.6-0.2-2.6c0.1-0.4,0.1-0.8,0.1-1.3
	c0-0.8-0.5-0.9-0.7-0.9c-0.2,0-0.4,0.1-0.6,0.2c-0.3,0.1-0.6,0.2-0.9,0.2c-0.1,0-0.3,0-0.4-0.1c-0.2-0.1-0.4-0.2-0.4-0.2
	c-0.1-0.2,0.3-0.6,0.5-1c0.1-0.2,0.2-0.3,0.3-0.5c0.4-0.7,0.7-1.3,0.4-1.7c-0.2-0.3-0.5-0.4-0.8-0.4c-0.2,0-0.3,0-0.5,0.1
	c-0.1,0-0.3,0-0.4,0c-0.2,0-0.3,0-0.5,0c-0.1,0-0.2,0-0.3,0c-0.6,0-0.7,0.6-0.7,0.8c0,0.8-0.7,1.4-1.5,1.4c0,0-0.1,0-0.1,0
	c-0.1,0-0.1,0-0.2,0c-1-0.1-1.4-0.8-1.4-2.4c0-0.5,0.1-1,0.4-1.4c0.2-0.3,0.4-0.6,0.6-1.1c0.3-0.7,0.8-1.2,1.5-1.5
	c0.2-0.1,0.3-0.2,0.5-0.2c0.1-0.1,0.2-0.1,0.3-0.1c0.1,0,0.1,0,0.2,0.1c0.2,0.1,0.4,0.1,0.6,0.1c0.1,0,0.2,0,0.2,0
	c0.5-0.1,1-0.5,1.1-1c0,0,0-0.1,0.1-0.1c0,0,0.1,0,0.1,0c0.6,0.2,1.2,0.3,1.9,0.3c0.3,0,0.5,0,0.7,0c-0.2,1.1,0.2,2.3,1.1,3.1
	c0.2,0.4,0.6,0.6,1.1,0.6c1.1,0,1.2-1.9,1.2-3.9c0-1.2,0.5-1.6,1.9-2.6l0.1-0.1c0.7-0.5,1.2-1.1,1.7-1.8c0.4-0.7,1-1.3,1.8-1.8
	c1-0.6,2.1-1.1,3.2-1.6c1.1-0.4,2.2-1,3.3-1.7c0.5-0.6,0.7-1.4,0.4-2.1c-0.1-0.9-0.1-1.1,0.3-1.2c0.6-0.2,1.3-0.3,1.9-0.4
	c1-0.1,2.1-0.4,3-0.7c1.1-0.4,1.3-1,1.4-1.4c0-0.7-0.5-1.3-1.1-1.5c-0.2-0.1-0.3-0.7-0.3-1.2c0.1-0.6-0.1-1.2-0.5-1.7
	c-0.2-0.2-0.6-0.4-0.9-0.4c-0.5,0-1,0.2-1.5,0.4c-0.4,0.2-0.8,0.3-1.2,0.5c0,0-0.1,0-0.1,0c-0.2,0-0.3-0.3-0.4-0.8
	c-0.2-0.7-0.6-1.8-1.8-1.8c-0.1,0-0.3,0-0.4,0c-1.5,0.3-1.9,1.9-2.1,3.1c-0.1,0.4-0.2,0.8-0.4,1.2c-0.9,0-1.2,0.6-1.5,1.1
	c-0.2,0.4-0.4,0.8-0.8,1.1c-0.1,0.1-0.3,0.3-0.5,0.3c-0.1-0.1-0.2-0.6,0.3-1.5c0.3-0.4,0.3-1,0.1-1.4c-0.3-0.5-1.1-0.6-2-0.6
	c-0.4,0-0.7,0-1.1-0.1c-0.7-0.1-0.9-0.3-0.9-0.3c0,0,0-0.1,0.2-0.4c13.4-8,30.3-7,42.8,2.4c-0.2,0.5-0.4,1-0.7,1.5
	c-0.3,0.3-0.3,0.8-0.2,1.2c0.8-0.1,1.7-0.3,2.5-0.5c0.2-0.1,0.3-0.3,0.4-0.6c0.2,0.2,0.4,0.4,0.6,0.6c-0.5,0.5-1.1,0.9-1.2,1.1
	c-0.3,0.2-1.4,0.5-1.8,0.8s1.3,1,1.3,1.3s0,1.8-0.6,1.9s-3.7,0.1-3.7,0.1s-1,3.4-0.8,3.8c0.7,0.6,1.6,1,2.5,1c1-0.3,1.9-0.6,2.8-1.1
	l0.9-1.9l1.7-1.8c0,0,1.3,0.5,1.7,0.1c0.4-0.3,0.8-0.6,1.3-0.9c0,0,0.9,1.6,1.4,1.8l0.1,0v0c0.6,0.9,1.2,1.7,1.7,2.6v0l0,0l0,0
	c0,0.1,0.1,0.1,0.1,0.2c0.9,1.5,1.7,3,2.3,4.6C121.4,28.1,120.7,27.8,120,27.3"/>
</svg>
