<?xml version="1.0" encoding="utf-8"?>
<!-- Generator: Adobe Illustrator 28.1.0, SVG Export Plug-In . SVG Version: 6.00 Build 0)  -->
<svg version="1.1" id="レイヤー_1" xmlns="http://www.w3.org/2000/svg" xmlns:xlink="http://www.w3.org/1999/xlink" x="0px"
	 y="0px" viewBox="0 0 138 123.4" style="enable-background:new 0 0 138 123.4;" xml:space="preserve">
<style type="text/css">
	.st0{fill:#5B8DCD;}
</style>
<g>
	<g id="グループ_1999">
		<g id="グループ_2025">
			<path id="パス_1511" class="st0" d="M49.6,18.7c-5.2,0-9.3-4.2-9.3-9.3S44.4,0,49.6,0s9.3,4.2,9.3,9.3c0,0,0,0,0,0
				C58.9,14.5,54.8,18.7,49.6,18.7"/>
			<path id="パス_1512" class="st0" d="M0,57.6c-0.2,1.1,0.6,2.1,1.6,2.2l19,2.9c1.1,0.2,2-0.6,2.2-1.6l1.8-12.2
				c0.2-1.1-0.6-2-1.6-2.2c0,0,0,0,0,0l-4.5-0.7l0.4-2.6c0.1-0.6-0.1-1.2-0.6-1.6l6.9-8l9.4-1.4l-3.6,20.5l-0.5,2.3
				c-0.9,4.5,2.1,9,6.6,9.9c0.6,0.1,1.2,0.2,1.8,0.2l17.7-0.4l-1.3,14.6c-0.2,2.3,1.4,4.3,3.6,4.6l0.2,0c2.3,0.3,4.4-1.2,4.8-3.4
				L68,60.3c0.7-3.6-1.6-7.1-5.2-7.7c-0.4-0.1-0.9-0.1-1.3-0.1l-11.7,0.1l3.5-14.2l7.4,4c1.7,0.6,3.6,0.5,5.2-0.5l12.6-7.5
				c1.7-1,2.2-3.1,1.2-4.8c0,0,0,0,0,0l-0.1-0.2c-1-1.6-3-2.1-4.7-1.2L64.3,33l-18-11.3c-3.9-2.5-8.8-2.8-13-0.8l-11.7,5.5
				c-1.3,0.4-2.3,1.3-3,2.4L12,39c-0.2,0.4-0.4,0.8-0.5,1.3l-0.5-0.1c-1-0.2-2,0.6-2.2,1.6l-0.4,2.5l-4.5-0.7
				C3,43.5,2,44.2,1.9,45.3c0,0,0,0,0,0L0,57.6z M16.8,45.6l-6.4-1l0.4-2.6l0.1-0.1l1,0.2c0.3,0.6,0.7,1,1.2,1.4l0.1,0
				c1.3,0.8,3,0.6,4-0.4L16.8,45.6z"/>
			<path id="パス_1513" class="st0" d="M22.9,96.2c-1.6,1.6-4.2,1.7-5.9,0.2L17,96.3c-1.7-1.5-1.9-4.1-0.4-5.8l9.7-13l2.7-13.8
				c0.2,0.3,0.4,0.6,0.7,0.9c2.3,2.7,5.7,4.3,9.2,4.3l1.6,0l-3.2,10.5c-0.8,1.7-1.9,3.3-3.2,4.7L22.9,96.2z"/>
		</g>
	</g>
</g>
</svg>
