<?xml version="1.0" encoding="utf-8"?>
<!-- Generator: Adobe Illustrator 28.1.0, SVG Export Plug-In . SVG Version: 6.00 Build 0)  -->
<svg version="1.1" id="グループ_2022" xmlns="http://www.w3.org/2000/svg" xmlns:xlink="http://www.w3.org/1999/xlink" x="0px"
	 y="0px" viewBox="0 0 137.6 121.1" style="enable-background:new 0 0 137.6 121.1;" xml:space="preserve">
<style type="text/css">
	.st0{fill:#5B8DCD;}
</style>
<path id="パス_1416" class="st0" d="M84.8,75.8c-3.4,0-6.2,2.8-6.2,6.2c0,0,0,0,0,0v17.3H60V21.9h18.7v17.3c0,3.4,2.8,6.1,6.2,6.1
	c3.3,0,6-2.7,6.1-6.1V15.7c0-3.4-2.8-6.2-6.2-6.2H60V6.2C60,2.8,57.3,0,53.9,0c-0.4,0-0.8,0-1.2,0.1L4.9,9.7c-2.9,0.6-4.9,3.1-4.9,6
	v89.7c0,2.9,2.1,5.5,4.9,6l47.7,9.6c3.3,0.7,6.6-1.5,7.2-4.8c0.1-0.4,0.1-0.8,0.1-1.2v-3.4h24.8c3.4,0,6.2-2.8,6.2-6.2V82
	C91,78.6,88.2,75.8,84.8,75.8 M41.4,67.1c-3.6,0-6.5-2.9-6.5-6.5c0-3.6,2.9-6.5,6.5-6.5c3.6,0,6.5,2.9,6.5,6.5c0,0,0,0,0,0
	C47.9,64.2,45,67.1,41.4,67.1"/>
</svg>
