<?xml version="1.0" encoding="utf-8"?>
<!-- Generator: Adobe Illustrator 28.1.0, SVG Export Plug-In . SVG Version: 6.00 Build 0)  -->
<svg version="1.1" id="レイヤー_1" xmlns="http://www.w3.org/2000/svg" xmlns:xlink="http://www.w3.org/1999/xlink" x="0px"
	 y="0px" viewBox="0 0 286.4 150.8" style="enable-background:new 0 0 286.4 150.8;" xml:space="preserve">
<style type="text/css">
	.st0{clip-path:url(#SVGID_00000019645821361034672990000001547273102755677374_);}
	.st1{fill:#5B8DCD;}
</style>
<g id="グループ_1938" transform="translate(-1446.957 -3138.236)">
	<g id="グループ_1832" transform="translate(1528.407 3138.236)">
		<g>
			<defs>
				<rect id="SVGID_1_" x="0" y="0" width="136.1" height="140"/>
			</defs>
			<clipPath id="SVGID_00000098185139848558508110000004161577091753975739_">
				<use xlink:href="#SVGID_1_"  style="overflow:visible;"/>
			</clipPath>
			
				<g id="グループ_1831" transform="translate(0 0)" style="clip-path:url(#SVGID_00000098185139848558508110000004161577091753975739_);">
				<path id="パス_1112" class="st1" d="M38.8,28.3c4.4,0,7.9-3.5,7.9-7.9c0,0,0,0,0,0V7.9c0-4.4-3.5-7.9-7.9-7.9
					c-4.4,0-7.9,3.5-7.9,7.9v12.5C30.9,24.8,34.5,28.3,38.8,28.3C38.8,28.3,38.8,28.3,38.8,28.3"/>
				<path id="パス_1113" class="st1" d="M97.2,28.3c4.4,0,7.9-3.5,7.9-7.9V7.9c0-4.4-3.5-7.9-7.9-7.9s-7.9,3.5-7.9,7.9v12.5
					C89.3,24.8,92.9,28.3,97.2,28.3C97.2,28.3,97.2,28.3,97.2,28.3"/>
				<path id="パス_1114" class="st1" d="M117,11.3h-4.9v9.1c-0.1,8.2-6.8,14.8-15,14.8c-8.1-0.1-14.7-6.6-14.8-14.8v-9.1H53.7v9.1
					c-0.1,8.2-6.8,14.8-15,14.8C30.6,35.1,24,28.5,24,20.4v-9.1h-4.9C8.5,11.3,0,19.8,0,30.4v90.5C0,131.4,8.5,140,19.1,140l0,0h98
					c10.5,0,19.1-8.5,19.1-19.1V30.4C136.1,19.8,127.6,11.3,117,11.3 M121.1,117.5c0,4.9-4,8.8-8.8,8.8H23.8c-4.9,0-8.8-4-8.8-8.8
					V46.7h106.1V117.5z"/>
				<rect id="長方形_1785" x="50.2" y="101.6" class="st1" width="14" height="14"/>
				<rect id="長方形_1786" x="50.2" y="79.9" class="st1" width="14" height="14"/>
				<rect id="長方形_1787" x="28.5" y="101.6" class="st1" width="14" height="14"/>
				<rect id="長方形_1788" x="28.5" y="79.9" class="st1" width="14" height="14"/>
				<rect id="長方形_1789" x="93.6" y="58.2" class="st1" width="14" height="14"/>
				<rect id="長方形_1790" x="71.9" y="58.2" class="st1" width="14" height="14"/>
				<rect id="長方形_1791" x="71.9" y="79.9" class="st1" width="14" height="14"/>
				<rect id="長方形_1792" x="93.6" y="101.6" class="st1" width="14" height="14"/>
				<rect id="長方形_1793" x="93.6" y="79.9" class="st1" width="14" height="14"/>
				<rect id="長方形_1794" x="71.9" y="101.6" class="st1" width="14" height="14"/>
				<rect id="長方形_1795" x="50.2" y="58.2" class="st1" width="14" height="14"/>
				<rect id="長方形_1796" x="28.5" y="58.2" class="st1" width="14" height="14"/>
			</g>
		</g>
	</g>
</g>
</svg>
