<svg xmlns="http://www.w3.org/2000/svg" xmlns:xlink="http://www.w3.org/1999/xlink" width="138" height="123.392" viewBox="0 0 138 123.392">
  <defs>
    <clipPath id="clip-path">
      <rect id="長方形_1952" data-name="長方形 1952" width="138" height="123.392" fill="none"/>
    </clipPath>
  </defs>
  <g id="グループ_1999" data-name="グループ 1999" clip-path="url(#clip-path)">
    <g id="グループ_2025" data-name="グループ 2025">
      <path id="パス_1511" data-name="パス 1511" d="M49.608,18.682a9.341,9.341,0,1,1,9.339-9.341,9.343,9.343,0,0,1-9.339,9.341" fill="#5b8dcd"/>
      <path id="パス_1512" data-name="パス 1512" d="M.022,57.559A1.943,1.943,0,0,0,1.653,59.77l19.025,2.861A1.943,1.943,0,0,0,22.887,61l1.841-12.247A1.94,1.94,0,0,0,23.1,46.54l-4.483-.674L19,43.313a1.863,1.863,0,0,0-.551-1.589l6.865-7.961L34.7,32.377l-3.642,20.55-.453,2.3a8.391,8.391,0,0,0,8.427,10.007l17.705-.412L55.4,79.384a4.28,4.28,0,0,0,3.629,4.625l.17.025a4.283,4.283,0,0,0,4.838-3.418L67.98,60.295a6.608,6.608,0,0,0-6.511-7.865l-11.732.06,3.529-14.238,7.445,4.01a5.971,5.971,0,0,0,5.171-.459l12.569-7.5a3.486,3.486,0,0,0,1.193-4.8l-.134-.216a3.48,3.48,0,0,0-4.679-1.23L64.285,33,46.266,21.654a13.644,13.644,0,0,0-13.026-.82L21.518,26.3A5.679,5.679,0,0,0,18.5,28.672L12.031,39.025a3.255,3.255,0,0,0-.463,1.255l-.469-.07A1.9,1.9,0,0,0,8.94,41.8l-.384,2.549-4.482-.674a1.943,1.943,0,0,0-2.21,1.633ZM16.808,45.593l-6.445-.968.383-2.551.08-.058,1.026.156a3.262,3.262,0,0,0,1.207,1.371l.076.049a3.273,3.273,0,0,0,4.039-.431Z" fill="#5b8dcd"/>
      <path id="パス_1513" data-name="パス 1513" d="M22.944,96.209a4.217,4.217,0,0,1-5.86.222l-.121-.106a4.219,4.219,0,0,1-.419-5.839L26.219,77.5l2.706-13.75c.21.3.425.6.663.883a12.067,12.067,0,0,0,9.249,4.3l1.644-.038L37.253,79.346a19.747,19.747,0,0,1-3.219,4.742Z" fill="#5b8dcd"/>
    </g>
    <rect id="長方形_1946" data-name="長方形 1946" width="18" height="72" transform="translate(97.655 51.392)" fill="#5b8dcd"/>
    <rect id="長方形_1947" data-name="長方形 1947" width="18" height="81" transform="translate(120 42.392)" fill="#5b8dcd"/>
    <rect id="長方形_1948" data-name="長方形 1948" width="18" height="51.5" transform="translate(75.311 71.892)" fill="#5b8dcd"/>
    <rect id="長方形_1949" data-name="長方形 1949" width="18" height="36" transform="translate(52.966 87.392)" fill="#5b8dcd"/>
    <rect id="長方形_1950" data-name="長方形 1950" width="18" height="20" transform="translate(30.621 103.392)" fill="#5b8dcd"/>
    <rect id="長方形_1951" data-name="長方形 1951" width="18" height="8" transform="translate(8.276 115.392)" fill="#5b8dcd"/>
  </g>
</svg>
