<?xml version="1.0" encoding="utf-8"?>
<!-- Generator: Adobe Illustrator 28.1.0, SVG Export Plug-In . SVG Version: 6.00 Build 0)  -->
<svg version="1.1" id="グループ_2017" xmlns="http://www.w3.org/2000/svg" xmlns:xlink="http://www.w3.org/1999/xlink" x="0px"
	 y="0px" viewBox="0 0 118.4 121.8" style="enable-background:new 0 0 118.4 121.8;" xml:space="preserve">
<style type="text/css">
	.st0{fill:#5B8DCD;}
</style>
<g id="グループ_2016">
	<path id="パス_1407" class="st0" d="M33.8,24.6c3.8,0,6.9-3.1,6.9-6.9V6.9c0-3.8-3.1-6.9-6.9-6.9c-3.8,0-6.9,3.1-6.9,6.9v10.8
		C26.9,21.5,30,24.6,33.8,24.6"/>
	<path id="パス_1408" class="st0" d="M84.6,24.6c3.8,0,6.9-3.1,6.9-6.9V6.9c0-3.8-3.1-6.9-6.9-6.9c-3.8,0-6.9,3.1-6.9,6.9v10.8
		C77.7,21.5,80.8,24.6,84.6,24.6C84.6,24.6,84.6,24.6,84.6,24.6"/>
	<path id="パス_1409" class="st0" d="M101.8,9.8h-4.3v7.9c0,7.2-5.8,12.9-12.9,12.9c-7.2,0-12.9-5.8-12.9-12.9V9.8H46.8v7.9
		c0,7.2-5.8,12.9-12.9,12.9s-12.9-5.8-12.9-12.9V9.8h-4.3C7.4,9.8,0,17.3,0,26.4v78.8c0,9.2,7.4,16.6,16.6,16.6h85.2
		c9.2,0,16.6-7.4,16.6-16.6V26.4C118.4,17.3,111,9.8,101.8,9.8 M105.4,102.3c0,4.2-3.4,7.7-7.7,7.7H20.8c-4.2,0-7.7-3.4-7.7-7.7
		V40.6h92.3L105.4,102.3z"/>
	<rect id="長方形_1889" x="43.7" y="88.4" class="st0" width="12.2" height="12.2"/>
	<rect id="長方形_1890" x="43.7" y="69.6" class="st0" width="12.2" height="12.2"/>
	<rect id="長方形_1891" x="24.8" y="88.4" class="st0" width="12.2" height="12.2"/>
	<rect id="長方形_1892" x="24.8" y="69.6" class="st0" width="12.2" height="12.2"/>
	<rect id="長方形_1893" x="81.4" y="50.7" class="st0" width="12.2" height="12.2"/>
	<rect id="長方形_1894" x="62.6" y="50.7" class="st0" width="12.2" height="12.2"/>
	<rect id="長方形_1895" x="62.6" y="69.6" class="st0" width="12.2" height="12.2"/>
	<rect id="長方形_1896" x="81.4" y="88.4" class="st0" width="12.2" height="12.2"/>
	<rect id="長方形_1897" x="81.4" y="69.6" class="st0" width="12.2" height="12.2"/>
	<rect id="長方形_1898" x="62.6" y="88.4" class="st0" width="12.2" height="12.2"/>
	<rect id="長方形_1899" x="43.7" y="50.7" class="st0" width="12.2" height="12.2"/>
	<rect id="長方形_1900" x="24.8" y="50.7" class="st0" width="12.2" height="12.2"/>
</g>
</svg>
