<?xml version="1.0" encoding="utf-8"?>
<!-- Generator: Adobe Illustrator 28.1.0, SVG Export Plug-In . SVG Version: 6.00 Build 0)  -->
<svg version="1.1" xmlns="http://www.w3.org/2000/svg" xmlns:xlink="http://www.w3.org/1999/xlink" x="0px" y="0px"
	 viewBox="0 0 221 110.5" style="enable-background:new 0 0 221 110.5;" xml:space="preserve">
<style type="text/css">
	.st0{fill:#5B8DCD;}
	.st1{fill:#396CAE;}
	.st2{fill:#FFFFFF;}
	.st3{fill:none;}
</style>
<g id="レイヤー_1">
	<path id="パス_1384" class="st0" d="M84.2,66l-30-50.6C20.6,35.3,0,71.4,0,110.5h58.8C58.8,92.2,68.5,75.3,84.2,66"/>
	<path id="パス_1385" class="st1" d="M110.5,0C90.7,0,71.3,5.3,54.2,15.4l30,50.6c24.6-14.5,56.3-6.4,70.8,18.2
		c4.7,8,7.2,17.1,7.2,26.3H221C221,49.5,171.5,0,110.5,0"/>
	<path id="パス_1594" class="st2" d="M26.1,64.1c-0.2,0.8-0.5,1.6-0.8,2.4l1.2,0.3h-4l1-0.3c-0.1-0.8-0.4-1.6-0.7-2.4H26.1z
		 M28.1,73.7c-0.4-0.3-2.1-1.7-2.7-2.1v-0.3h3.2v-1.4h-3.2v-1.6h3.3v-1.4h-2.1c0.3-0.6,0.6-1.5,1-2.3l-1.3-0.3h2.2v-1.4h-3.2v-1.7
		h-1.6v1.7h-3.1v1.4h2.2l-1.2,0.3c0.3,0.7,0.5,1.5,0.6,2.3h-1.9v1.4h3.4v1.6h-3.3v1.4h3c-0.9,1.5-2,2.8-3.4,3.8
		c0.4,0.4,0.8,0.8,1.1,1.2c1-0.9,1.9-1.9,2.7-3v4.2h1.6v-4.3c0.7,0.6,1.4,1.3,1.7,1.8L28.1,73.7z M36.8,66.9H31V64
		c1.9-0.3,3.8-0.9,5.7-1.6l-1.4-1.2c-1.5,0.7-3.1,1.2-4.8,1.5l-1.1-0.3v6.2c0,2.5-0.2,5.6-2.4,7.8c0.5,0.3,0.9,0.7,1.2,1.2
		c2.5-2.5,2.8-6.2,2.8-8.9v-0.2h2.3v8.9h1.6v-8.9h1.9V66.9z M54,63.1h-6.7v-2.2h-1.7v2.2H39v1.6h15V63.1z M45.9,68.5
		c-0.7-0.6-1.5-1.2-2.3-1.7c0.3-0.5,0.5-1.1,0.7-1.7l-1.7-0.4c-0.6,2.2-2,4-3.9,5.3c0.5,0.3,0.9,0.7,1.4,1.1
		c1.1-0.8,2.1-1.9,2.9-3.1c0.7,0.5,1.4,1.1,2,1.7L45.9,68.5z M54.5,71.7h-7.2v-1.2l0,0c0.9-0.6,1.6-1.3,2.2-2.2
		c1.2,0.8,2.3,1.7,3.4,2.7l1.2-1.2c-1.2-1-2.4-1.9-3.7-2.8c0.3-0.6,0.6-1.2,0.8-1.9l-1.7-0.3c-0.6,2-2,3.7-3.9,4.8
		c0.4,0.3,0.8,0.6,1.1,0.9h-1.2v1.2h-7v1.6h7v4.1h1.7v-4.1h7.2v-1.6H54.5z"/>
	<path id="パス_1593" class="st2" d="M169.3,70v-4.4h4.7V70H169.3z M162.9,70v-4.4h4.7V70H162.9z M169.3,64v-3.1h-1.7V64h-6.3v8.7
		h1.7v-1.1h4.7v5.7h1.7v-5.7h4.7v1h1.7V64L169.3,64z M185.5,65.4c1.2-0.8,2.2-1.8,3.1-3c0.9,1.1,2,2.1,3.2,3H185.5z M185.4,66.7h2.5
		v1.4h-4.5v1.4h4.5v3.6c0,0.2-0.1,0.3-0.3,0.3s-0.9,0-1.6,0c0.2,0.5,0.3,0.9,0.4,1.4c0.8,0.1,1.6,0,2.4-0.2c0.5-0.3,0.7-0.6,0.7-1.4
		v-3.7h4.8v-1.4h-4.8v-1.4h2.5v-1.3c0.6,0.4,1.2,0.8,1.9,1.1c0.3-0.5,0.6-1.1,1-1.5c-2.1-0.9-4-2.3-5.5-4.1h-1.6
		c-1.3,1.8-3.1,3.3-5.2,4.3c0.3,0.4,0.6,0.9,0.9,1.4c0.7-0.4,1.4-0.8,2-1.2v1.3H185.4z M194.3,73.3c-0.7-1.2-1.5-2.3-2.4-3.2
		l-1.3,0.6c0.9,1,1.7,2.1,2.3,3.3L194.3,73.3z M185.1,70.1c-0.5,1.2-1.3,2.2-2.3,3.1c0.5,0.2,0.9,0.5,1.3,0.8c1.1-1,1.9-2.2,2.5-3.6
		L185.1,70.1z M182.7,64.1c-0.8-1.1-1.8-2-2.9-2.8l-1.2,1c1.1,0.8,2.1,1.8,2.8,2.9L182.7,64.1z M182.2,67.9h-3.8v1.5h2.1v4.2
		c-0.8,0.7-1.6,1.3-2.5,1.9l0.9,1.7c0.9-0.8,1.7-1.5,2.5-2.2c1.2,1.4,2.8,2,5.1,2.1c2.1,0.1,5.7,0.1,7.8,0c0.1-0.6,0.3-1.2,0.6-1.7
		c-2.2,0.1-6.3,0.2-8.3,0.1c-2-0.1-3.5-0.6-4.3-1.9L182.2,67.9z"/>
</g>
<g id="レイヤー_2">
	<g id="レイヤー_2_00000078734479200769388740000012987557747070549406_">
		<path class="st3" d="M29.5,111.1c0-12.2,8.2-81,81.8-81c68.7,0,79.8,67.9,79.8,80.6"/>
	</g>
</g>
</svg>
