<?xml version="1.0" encoding="utf-8"?>
<!-- Generator: Adobe Illustrator 28.1.0, SVG Export Plug-In . SVG Version: 6.00 Build 0)  -->
<svg version="1.1" id="レイヤー_1" xmlns="http://www.w3.org/2000/svg" xmlns:xlink="http://www.w3.org/1999/xlink" x="0px"
	 y="0px" viewBox="0 0 286.4 150.8" style="enable-background:new 0 0 286.4 150.8;" xml:space="preserve">
<style type="text/css">
	.st0{fill:#5B8DCD;}
	.st1{fill:#FFFFFF;}
</style>
<g id="グループ_1938" transform="translate(-1446.957 -3138.236)">
	<g id="グループ_1937" transform="translate(1446.957 3138.236)">
		<g>
			<g id="グループ_1936">
				<path id="パス_1397" class="st0" d="M41.2,27c-7.1,0-12.9-5.8-12.9-12.9c0-6.9,5.4-12.6,12.3-12.9c0.2,0,0.4,0,0.6,0
					c7.1,0,12.9,5.8,12.9,12.9C54,21,48.6,26.7,41.7,27C41.5,27,41.3,27,41.2,27"/>
				<path id="パス_1398" class="st1" d="M41.2,2.4c6.5,0,11.7,5.2,11.7,11.7c0,6.2-4.9,11.4-11.2,11.7c-0.2,0-0.3,0-0.5,0
					c-6.5,0-11.7-5.2-11.7-11.6c0-6.3,4.9-11.5,11.2-11.7C40.8,2.4,41,2.4,41.2,2.4 M41.2,0c-0.2,0-0.4,0-0.6,0
					c-7.8,0.3-13.8,6.9-13.5,14.7c0.3,7.5,6.5,13.5,14.1,13.5c0.2,0,0.4,0,0.6,0c7.8-0.3,13.8-6.9,13.4-14.7C54.9,5.9,48.7,0,41.2,0
					"/>
				<path id="パス_1399" class="st0" d="M57,58.4l-2.9-7.2l4.7,5.3l0.3,0.8l-0.3,0.6l-0.4,0.5L57,58.4z"/>
				<path id="パス_1400" class="st1" d="M57.7,57.1L57.7,57.1C57.8,57.2,57.8,57.2,57.7,57.1C57.8,57.2,57.8,57.2,57.7,57.1
					 M50.4,45.3L55.5,58l0.6,1.5l1.6,0.1H59l0.7-1l0.7-1L60,56.3l-0.2-0.4l-0.3-0.3L50.4,45.3z"/>
				<path id="パス_1401" class="st0" d="M27.9,149.5c-0.3,0-0.6,0-1-0.1c-3.9-0.5-6.6-4.1-6.1-8c0-0.6,5.1-63.9,6-77.5L10.2,74.6
					c-1,0.7-2.1,1-3.3,1c-3.2,0-5.7-2.6-5.7-5.7c0-1.9,0.9-3.6,2.4-4.7l17.3-13.5l10.1-16.3c3-4.9,7.8-7.4,14.2-7.5
					c4.4,0,8.2,1.9,11.9,5.7C61.7,38,67,48.4,67.6,49.7c0.4,0.5,0.7,1.1,0.9,1.7c0.2,0.2,0.3,0.5,0.4,0.7l9.5,21.5
					c1.4,2.8,0.2,6.3-2.6,7.7c-2.8,1.4-6.3,0.3-7.7-2.6c0,0,0,0,0,0L56.8,57.8l-1.4-1.6c-1.7,10.1-5,29.9-5.1,32.8l5.1,20.5l14.6,21
					c2.4,2.7,2.3,6.8-0.4,9.2c-2.6,2.4-6.6,2.3-9.1-0.2l-18.7-19.9c-0.8-1-1.5-2-2-3.2l-4.8,26.8C34.4,146.8,31.4,149.5,27.9,149.5"
					/>
				<path id="パス_1402" class="st1" d="M45.3,29.1c4.3,0,7.8,2.1,11,5.3C61,39,66.6,50.3,66.6,50.3c0.4,0.5,0.7,1,0.9,1.6
					c0.2,0.2,0.3,0.5,0.4,0.7l9.5,21.5c1.1,2.2,0.2,5-2.1,6.1s-5,0.2-6.1-2.1l-11.5-21l0,0l0,0l-3.2-3.5c0,0-5.5,32.4-5.6,35.6
					l5.2,20.9L69,131.4c2,2.1,2,5.5-0.1,7.5s-5.5,2-7.5-0.1l-18.7-19.9c-0.9-1.1-1.6-2.4-2.1-3.7l-1.1-3.3l-5.6,31.2
					c-0.4,2.9-2.9,5.1-5.9,5.1c-0.3,0-0.5,0-0.8-0.1c-3.2-0.4-5.5-3.4-5.1-6.7c0,0,6-75.1,6.2-80l-18.6,12c-2.1,1.4-4.9,0.9-6.3-1.1
					c-1.4-2-1-4.9,1.1-6.3l17.5-13.6L32.1,36C34.3,32.5,38.1,29.1,45.3,29.1L45.3,29.1 M45.3,26.7L45.3,26.7c-6.8,0-12.1,2.8-15.3,8
					L20,50.9L2.9,64.2c-3.1,2.3-3.8,6.6-1.5,9.7c2.2,3,6.4,3.7,9.5,1.6l14.6-9.4c-1.2,17.1-5.7,73-5.9,75.2
					c-0.6,4.5,2.6,8.7,7.1,9.3c4.5,0.6,8.7-2.5,9.4-7.1l4.2-23.5c0.1,0.2,0.3,0.3,0.4,0.5l0,0.1l0.1,0.1l18.7,19.9
					c2.9,3.1,7.8,3.3,10.9,0.3c3.1-2.9,3.3-7.8,0.4-10.9l-14.5-20.8l-5-20.1c0.2-2.8,2.7-18,4.7-29.8l11.1,20.1
					c1.7,3.4,5.9,4.8,9.3,3c3.4-1.7,4.7-5.8,3.1-9.2l-9.5-21.4l0,0l0,0c-0.1-0.3-0.3-0.5-0.4-0.8c-0.3-0.6-0.6-1.2-1-1.7
					c-0.8-1.7-6-11.8-10.6-16.3C54.1,28.7,49.9,26.7,45.3,26.7"/>
				<path id="パス_1403" class="st0" d="M112.7,149.6c-3.5,0-6.4-2.8-6.4-6.4c0-3.5,2.8-6.4,6.4-6.4c3.5,0,6.4,2.8,6.4,6.4
					c0,2.3-1.3,4.5-3.3,5.6C114.8,149.3,113.8,149.6,112.7,149.6"/>
				<path id="パス_1404" class="st1" d="M112.7,138.1c2.9,0,5.2,2.3,5.2,5.2c0,2.9-2.3,5.2-5.2,5.2c-2.9,0-5.2-2.3-5.2-5.2
					c0-1.9,1-3.6,2.7-4.6C111,138.3,111.9,138.1,112.7,138.1 M112.7,135.7L112.7,135.7c-4.2,0-7.6,3.4-7.6,7.6
					c0,4.2,3.4,7.6,7.6,7.6c4.2,0,7.6-3.4,7.6-7.6c0-1.3-0.3-2.5-0.9-3.6C118,137.2,115.5,135.7,112.7,135.7"/>
				<path id="パス_1405" class="st0" d="M106.2,140.6c-0.9,0-1.7-0.5-2.1-1.3L72.2,80.5c-0.6-1.2-0.2-2.6,1-3.3l1.1-0.6
					c1.2-0.6,2.6-0.2,3.3,1c0,0,0,0,0,0l14.2,26.2l9.1-4.9c1.2-0.6,2.6-0.2,3.3,1c0,0,0,0,0,0l16.5,30.5c0.6,1.2,0.2,2.6-1,3.3
					c0,0,0,0,0,0l-12.3,6.7C107,140.5,106.6,140.6,106.2,140.6"/>
				<path id="パス_1406" class="st1" d="M75.4,77.5c0.4,0,0.9,0.2,1.1,0.6l14.8,27.3l10.2-5.5c0.6-0.3,1.3-0.1,1.6,0.5
					c0,0,0,0,0,0l16.5,30.5c0.3,0.6,0.1,1.3-0.5,1.6c0,0,0,0,0,0l-12.3,6.7c-0.2,0.1-0.4,0.1-0.6,0.1c-0.4,0-0.9-0.2-1.1-0.6
					l-16.5-30.5v0L73.3,79.9c-0.3-0.6-0.1-1.3,0.5-1.6l1.1-0.6C75,77.6,75.2,77.5,75.4,77.5 M75.4,75.1L75.4,75.1
					c-0.6,0-1.2,0.1-1.7,0.4l-1.1,0.6c-1.8,1-2.4,3.1-1.5,4.9l15,27.8l0,0l0.3,0.5l16.5,30.5c0.9,1.8,3.1,2.4,4.9,1.5c0,0,0,0,0,0
					l12.3-6.7c1.8-0.9,2.4-3.1,1.5-4.9c0,0,0,0,0,0l-16.5-30.5c-0.9-1.8-3.1-2.4-4.9-1.5c0,0,0,0,0,0l-8.1,4.4L78.6,77
					C77.9,75.9,76.7,75.1,75.4,75.1"/>
			</g>
		</g>
	</g>
</g>
</svg>
