<svg xmlns="http://www.w3.org/2000/svg" xmlns:xlink="http://www.w3.org/1999/xlink" width="217.506" height="59.219" viewBox="0 0 217.506 59.219">
  <defs>
    <clipPath id="clip-path">
      <rect id="長方形_1464" data-name="長方形 1464" width="217.506" height="59.219" fill="#fff"/>
    </clipPath>
  </defs>
  <g id="グループ_1592" data-name="グループ 1592" clip-path="url(#clip-path)">
    <path id="パス_323" data-name="パス 323" d="M484.729,57.729c-.518.136-.7-.106-.827-.6-1.037-4.013-2.1-8.019-3.161-12.026q-1.784-6.743-3.574-13.483c-1.6-6.024-3.224-12.044-4.812-18.073a3.644,3.644,0,0,0-1.4-2.147,2.768,2.768,0,0,0-3.812.877,10.924,10.924,0,0,0-.836,2.484q-1.96,7.113-3.936,14.222-3.287,11.888-6.568,23.778c-.43,1.559-.858,3.118-1.268,4.683-.069.263-.19.327-.425.276-.1-.258-.331-.184-.523-.184-.883,0-1.766,0-2.649,0q-9.17,0-18.339.01c-.306,0-.684-.2-.925.185a13.681,13.681,0,0,1-13.988-10.255,13.374,13.374,0,0,1-.442-3.411q-.022-21.06-.01-42.12V1.286H428.23V2.4q0,20.5,0,41a4.665,4.665,0,0,0,.1,1.208,2.756,2.756,0,0,0,2.8,2.309c4.825.018,9.651.007,14.52.007a10.379,10.379,0,0,0,.872-2.67c1.159-3.983,2.258-7.982,3.381-11.975q2.109-7.5,4.224-14.99c.716-2.531,1.381-5.08,2.19-7.582A13.576,13.576,0,0,1,466.773.22c.161-.039.344-.008.405-.22h4.285a7.47,7.47,0,0,0,2,.556,13.437,13.437,0,0,1,9.39,9.692c.951,3.341,1.788,6.714,2.7,10.067,1.137,4.2,2.3,8.391,3.441,12.59q1.881,6.936,3.739,13.878a4.1,4.1,0,0,0,.219.509h3.292a13.352,13.352,0,0,0,.7-2.656c.932-3.764,1.729-7.563,2.717-11.311a13.586,13.586,0,0,1,8.39-9.433c.121-.05.266-.05.334-.327-.6-.139-1.229-.144-1.826-.3a11.2,11.2,0,0,1-5.247-2.734,8.958,8.958,0,0,1-2.424-4.052q-2.03-7.259-4.075-14.514a1.2,1.2,0,0,1-.023-.845h11.861a13.16,13.16,0,0,1,.891,2.8c1.272,4.441,2.431,8.915,3.757,13.339a10.46,10.46,0,0,0,3.737,5.1,2.934,2.934,0,0,0,1.912.555c4.148-.022,8.3-.079,12.444.007a13.935,13.935,0,0,1,13.646,10.533q3.1,11.422,6.3,22.817a2.757,2.757,0,0,1,.24,1.438H538.157c-.327-1.173-.662-2.335-.974-3.5q-1.894-7.086-3.776-14.175c-.321-1.205-.631-2.414-.963-3.617a5.836,5.836,0,0,0-1.241-2.525,2.46,2.46,0,0,0-1.889-.837q-7.956.01-15.913,0a3.028,3.028,0,0,0-2.591,1.69,7.022,7.022,0,0,0-.762,2.4c-1.42,6.178-2.768,12.373-4.253,18.537a10.6,10.6,0,0,1-.464,1.858q-9.838,0-19.676.01c-.306,0-.684-.2-.928.181" transform="translate(-332.107)" fill="#fff"/>
    <path id="パス_324" data-name="パス 324" d="M15.3,0c.515.395,1.157.241,1.732.37a15.1,15.1,0,0,1,7.622,4.213,13.586,13.586,0,0,1,3.553,6.282c.587,2.284,1.328,4.529,2.029,6.782q2.881,9.272,5.786,18.536c.975,3.122,1.957,6.242,2.917,9.368a4.164,4.164,0,0,0,2.027,2.439,2.87,2.87,0,0,0,4.3-2.356c.016-.271,0-.544,0-.816V1.256H56.208a2.069,2.069,0,0,1,.082.945q.006,21.672,0,43.344a13.661,13.661,0,0,1-11.3,13.448A15.589,15.589,0,0,1,32.827,56a14.56,14.56,0,0,1-4.779-5.836,25.475,25.475,0,0,1-1.008-3.074Q24.163,37.6,21.313,28.1,19.125,20.838,16.94,13.57a4.862,4.862,0,0,0-.63-1.377,2.909,2.909,0,0,0-3.139-1.169,2.615,2.615,0,0,0-2,2.186,6.525,6.525,0,0,0-.125,1.309q0,20.958,0,41.916v1.3H.207q0-21.778,0-43.556c0-.272,0-.544,0-.816a.285.285,0,0,0-.209-.3v-.816c.064-.07.177-.135.185-.212A12.688,12.688,0,0,1,1.506,7.7,13.7,13.7,0,0,1,10.055.589,7.51,7.51,0,0,0,12.242,0Z" fill="#fff"/>
    <rect id="長方形_1463" data-name="長方形 1463" width="11.073" height="56.447" transform="translate(65.552 1.268)" fill="#fff"/>
    <path id="パス_325" data-name="パス 325" d="M960.728,24.344l6.122-19.1h11.7l-6.132,19.1Z" transform="translate(-764.707 -4.173)" fill="#fff"/>
  </g>
</svg>
