<svg xmlns="http://www.w3.org/2000/svg" width="718.068" height="463.471" viewBox="0 0 718.068 463.471">
  <path id="パス_1593" data-name="パス 1593" d="M145.293-145.917q3.224-7.176,4.576-7.176h.52q1.56,0,6.344,3.328t4.784,6.24q0,4.056-26.625,62.818T104.368-14.821Q100.468-7.7,99.012-5.3A41.616,41.616,0,0,1,95.06,0,13.784,13.784,0,0,1,83.931,5.512a15.476,15.476,0,0,0-4.784.676,13.581,13.581,0,0,1-2.5.676q-3.328,0-3.328-1.56a15.1,15.1,0,0,1,.884-2.548Q75.091.52,97.972-47.738q-24.441-.936-42.954-1.456a412.385,412.385,0,0,0-32.241,46.8,17.333,17.333,0,0,1-3.328,4.836,6.14,6.14,0,0,1-4.264,1.4q-2.7,0-5.824-2.756A8.321,8.321,0,0,1,6.24-5.3q0-10.4,26.833-44.514-12.584,0-15.965.624a32.6,32.6,0,0,1-4.316.624q-2.808,0-2.808-4.732t5.564-8.32q5.564-3.588,14.925-3.588.728,0,2.6-.1,6.448-.312,13.208-.52a563.394,563.394,0,0,1,47.426-49.4q24.753-22.777,42.85-31.929a10.531,10.531,0,0,1,4.628-1.4Q142.9-148.518,145.293-145.917Zm-7.28,14.665A448.249,448.249,0,0,0,68.643-65.834q18.409.416,37.233,1.56Q124.8-104.108,138.013-131.253Zm79.147-17.161q-21.945,32.969-42.746,68.955a37.82,37.82,0,0,1,10.764-3.588,54.857,54.857,0,0,1,8.424-1.092q2.444,0,4.212.156a19.065,19.065,0,0,1,4.524,1.144,14.183,14.183,0,0,1,4.732,2.756q4.784,4.264,4.784,12.064T207.644-50.91A94.4,94.4,0,0,1,196.2-32.241a147.813,147.813,0,0,1-15.809,17.421A81.477,81.477,0,0,1,161.934-1.664q-9.88,5.1-18.409,5.1-3.952,0-9.1-5.1t-5.148-13.417q0-8.32,7.176-25.793a312.792,312.792,0,0,1,17.421-35.517q10.244-18.045,20.9-35.205t18.149-28.081q7.488-10.92,9.152-12.584t6.084-2.808a29.28,29.28,0,0,1,7.644-1.092q3.224.052,3.224,2.964A9.6,9.6,0,0,1,217.16-148.414ZM189.079-48.57q4.264-7.488,4.264-13.625t-3.9-6.136q-3.9,0-11.96,3.38t-9.2,3.38q-1.144,0-3.016-1.872-20.281,36.505-20.281,46.594,0,4.68,3.016,4.68,7.176,0,20.7-12.012T189.079-48.57Zm92.459-30.681a9.964,9.964,0,0,1,6.4,2.808q3.276,2.808,3.276,8.58t-4.056,14.977a97.6,97.6,0,0,1-11.128,18.721,155.391,155.391,0,0,1-15.549,17.889,81.573,81.573,0,0,1-18.3,13.729q-9.828,5.356-17.837,5.356T211.492-2.236q-4.836-5.044-4.836-14.041t4.42-19.917a72.322,72.322,0,0,1,11.388-19.293,112.27,112.27,0,0,1,15.081-15.029Q254.5-84.139,267.29-84.139q5.72,0,8.632,2.808a2.512,2.512,0,0,1,1.04,1.664v.624A35.861,35.861,0,0,1,281.539-79.251Zm-10.5,13.833h-.728q-3.64,0-3.64-5.3a56.318,56.318,0,0,0-15.913,8.736,76.9,76.9,0,0,0-14.873,14.769Q222.568-30.161,222.36-18.409q0,5.824,4.264,5.824T239.313-18.2a75.252,75.252,0,0,0,16.693-16.017,126.7,126.7,0,0,0,12.376-18.045q4.108-7.644,4.108-10.4T271.034-65.418Zm105.98,32.761q1.976,0,2.392,3.016a45.639,45.639,0,0,1,.416,6.24,11.071,11.071,0,0,1-.624,4.472q-3.016,5.824-13.208,14.2T346.645,3.64a17.655,17.655,0,0,1-10.4-3.38q-4.784-3.38-4.784-11.8a33.888,33.888,0,0,1,4.472-16.537Q310.14,4.264,295.475,4.264A11.83,11.83,0,0,1,286.063.1a13.062,13.062,0,0,1-3.588-8.58,35.842,35.842,0,0,1,1.248-9.152,88.675,88.675,0,0,1,2.652-8.476,100.191,100.191,0,0,1,4.16-9.256q2.756-5.512,4.108-8.008t4.316-7.54q2.964-5.044,7.8-13.573a113.846,113.846,0,0,1,8.008-12.636q3.172-4.108,6.188-4.16a6.832,6.832,0,0,1,5.3,2.444q2.288,2.5,2.288,4.056T321.58-60.738Q300.987-23.5,300.987-17.369q0,1.56,1.144,1.56,4.992,0,24.857-21.633t22.985-27.717A83.333,83.333,0,0,1,356.057-75.4q2.964-4.16,4.42-5.1,4.472-2.912,11.544-3.12a11.446,11.446,0,0,1,1.768.1q.624.1,1.456,1.768a6.41,6.41,0,0,1,.832,2.6q-.936,2.912-8.268,15.5T359.646-49.4q-12.272,25.377-12.272,33.073,0,4.368,3.328,4.368,6.032-.832,14.561-9.672,3.12-3.224,6.188-6.552a53.754,53.754,0,0,1,3.8-3.9A2.774,2.774,0,0,1,377.014-32.657Zm67.707-101.3,4.264,1.04a2.091,2.091,0,0,1,1.664.936,2.938,2.938,0,0,1,.728,1.768q0,.832-2.184,4.472t-5.148,8.268q-2.964,4.628-3.172,5.044,8.112-.624,11.492-.624a15.211,15.211,0,0,1,4.628.468,7.46,7.46,0,0,1,2.86,2.6,18.563,18.563,0,0,0,2.964,3.224,3.961,3.961,0,0,1,1.352,3.276q0,2.184-2.652,3.692a14.332,14.332,0,0,1-5.668,1.82q-24.129,2.392-26.625,2.5-8.424,12.9-23.557,40.2T389.6-21.113a40.158,40.158,0,0,0-.416,5.1q0,4.056,4.264,4.056t9.464-3.276a74.558,74.558,0,0,0,9.568-7.124q11.648-10.4,12.48-10.4,2.7,0,2.7,9.36,0,5.1-4.68,9.152A162.683,162.683,0,0,1,405.3-.624a26.517,26.517,0,0,1-14.353,4.576,12.933,12.933,0,0,1-2.912-.312q-8.32-1.56-12.22-6.084t-3.848-12.22q.052-7.7,4.576-18.669a226.558,226.558,0,0,1,11.388-23.349Q399.167-76.859,410.4-94.54l-3.952.52q-12.064,1.352-14.041,1.352h-.936a14.718,14.718,0,0,1-5.824-1.2q-2.808-1.2-2.808-2.964a5.1,5.1,0,0,1,1.508-3.432,8.667,8.667,0,0,0,1.82-2.6q.728-2.288,5.46-5.1t7.124-2.964q2.392-.156,4.628-.26t4.992-.208q2.756-.1,4.212-.208l9.36-.416q8.736-13.1,12.012-16.849a49.256,49.256,0,0,1,3.8-4.108,4,4,0,0,1,2.08-.364Zm-343,174.167,7.592-1.664a7.956,7.956,0,0,1,4.68,1.248q1.768,1.248,1.768,2.34a14.272,14.272,0,0,1-.52,3.172q-.52,2.08-8.424,40.562t-11.544,57.41q17.681-24.025,41.29-59.178t27.561-46.7a14.448,14.448,0,0,1,3.224-5.616,8.038,8.038,0,0,1,3.536-2.34,22.913,22.913,0,0,1,4.784-.364,25.857,25.857,0,0,1,7.644,1.4q4.42,1.4,4.42,4.628,0,6.136-18.2,35.361t-41.55,62.09q-23.349,32.865-39.053,52A8.518,8.518,0,0,1,82.111,188a27.827,27.827,0,0,1-8.424-1.4q-4.42-1.4-4.42-4.94,0-11.44,20.073-109.932Q72.179,93.98,47.634,133.71q-25.585,41.082-28.913,50.962-1.872,5.928-4.264,6.864a8.726,8.726,0,0,1-3.536.728L2.7,193.2a7.809,7.809,0,0,1-4.42-1.352q-2.028-1.352-2.028-2.808,0-4.16,11.492-24.857T34.581,119.2q15.341-24.285,32.085-47.27t25.9-30.889a6.24,6.24,0,0,1,4.264-1.664Zm142.277-3.016,4.888-.208q2.7,0,2.7,2.08a1.7,1.7,0,0,1-.208.936Q201.664,113.117,158.5,183.32q-2.288,3.744-4.056,4.264a6.744,6.744,0,0,0-1.04.416q-5.2,1.976-7.28,1.976a11.616,11.616,0,0,0-2.288.1,2.909,2.909,0,0,1-2.236,1.04q-1.3,0-1.716-.052a16.249,16.249,0,0,1-2.392-.832q-1.976-.78-1.976-1.2,0-5.1.416-6.136,2.184-7.384,24.025-41.654T204.42,74.376q22.621-32.605,27.405-36.349a6.053,6.053,0,0,1,3.848-1.144ZM255.226,175q-19.345,17.265-46.178,17.265-16.225,0-23.193-6.864-3.952-3.744-3.952-13.208,0-14.561,22.153-18.825a89.291,89.291,0,0,1,16.745-1.352q9.776,0,26.729,3.64,9.048-10.088,21.581-29.693t19.813-30.213q7.28-10.608,16.537-21.685A186.529,186.529,0,0,1,324.8,54.043q20.489-18.3,40.562-18.3,8.944,0,12.9,4.524a15.752,15.752,0,0,1,3.952,10.712q0,6.188-5.668,14.4a75.076,75.076,0,0,1-13.1,14.561A115.9,115.9,0,0,1,348.777,90.7q-7.228,4.42-11.388,4.42a9.153,9.153,0,0,1-7.176-3.536q-3.016-3.536-3.016-6.812t.884-4.576q.884-1.3,1.82-1.3t1.144,1.144q3.328-1.04,10.66-6.5a128.623,128.623,0,0,0,13.365-11.388q6.032-5.928,6.032-7.436t-1.82-1.508a14.333,14.333,0,0,0-4.94,1.248,40.309,40.309,0,0,0-8.32,5.148,101.565,101.565,0,0,0-11.232,10.036q-14.561,14.561-32.449,41.29-4.16,6.032-11.752,17.577-15.5,23.4-22.153,32.033,53.354,14.041,76.235,14.041,10.608,0,14.873-2.7a5.638,5.638,0,0,1,2.08-.936q.52,0,.52.832a5.9,5.9,0,0,1-.936,2.5q-.936,1.664-4.628,7.072t-5.46,6.448q-5.1,3.016-17.317,3.016a147.73,147.73,0,0,1-23.3-1.768q-11.076-1.768-17.837-3.484t-20.021-5.564Q259.386,176.144,255.226,175Zm-37.961-6.344q-13.625,0-13.625,3.224,0,1.248,2.34,2.184a14.956,14.956,0,0,0,5.564.936,38.927,38.927,0,0,0,19.449-5.3A108.971,108.971,0,0,0,217.264,168.655ZM496.307,42.083q3.224-7.176,4.576-7.176h.52q1.56,0,6.344,3.328t4.784,6.24q0,4.056-26.625,62.818t-30.525,65.886q-3.9,7.124-5.356,9.516a41.616,41.616,0,0,1-3.952,5.3,13.784,13.784,0,0,1-11.128,5.512,15.476,15.476,0,0,0-4.784.676,13.581,13.581,0,0,1-2.5.676q-3.328,0-3.328-1.56a15.1,15.1,0,0,1,.884-2.548q.884-2.236,23.765-50.494-24.441-.936-42.954-1.456a412.385,412.385,0,0,0-32.241,46.8,17.333,17.333,0,0,1-3.328,4.836,6.14,6.14,0,0,1-4.264,1.4q-2.7,0-5.824-2.756a8.321,8.321,0,0,1-3.12-6.4q0-10.4,26.833-44.514-12.584,0-15.965.624a32.6,32.6,0,0,1-4.316.624Q361,139.43,361,134.7t5.564-8.32q5.564-3.588,14.925-3.588.728,0,2.6-.1,6.448-.312,13.208-.52a563.394,563.394,0,0,1,47.426-49.4q24.753-22.777,42.85-31.929a10.531,10.531,0,0,1,4.628-1.4Q493.915,39.482,496.307,42.083Zm-7.28,14.665a448.249,448.249,0,0,0-69.371,65.418q18.409.416,37.233,1.56Q475.818,83.892,489.026,56.747ZM480.81,189.976l-.624.1q-.728,0-2.964-2.028t-2.756-2.5a14.3,14.3,0,0,0-1.248-.988q-.728-.52-.988-.728a8.831,8.831,0,0,1-.676-.624,3.92,3.92,0,0,1-.572-.676q-.156-.26-.364-.572a4.19,4.19,0,0,1-.312-1.82,12.633,12.633,0,0,1,.728-3.484q1.04-3.536,21.321-20.021t58.762-46.438q1.456-5.616,3.64-13.729t3.484-13.052q1.3-4.94,2.652-10.244,2.6-10.088,2.6-11.544t-.936-1.456q-3.848,0-17.213,11.908T531.98,87.636q0,2.392-1.768,2.392-1.144,0-3.38-2.444a8.665,8.665,0,0,1-2.5-4.472q-.26-2.028-.572-3.484a34.245,34.245,0,0,1-.52-5.2q0-5.3,9.984-14.613a125.539,125.539,0,0,1,22-16.381q12.012-7.072,17.421-7.072a10.972,10.972,0,0,1,8.684,3.744q3.276,3.744,3.276,10.816t-8.944,40.146q58.346-44.826,61.466-46.646t9.36-1.82a34.986,34.986,0,0,1,12.688,2.5q1.976.832,1.976,2.132a4.261,4.261,0,0,1-.78,2.444,14.057,14.057,0,0,1-2.808,2.756q-2.028,1.612-8.164,6.032T634.632,69.228Q614.559,84,567.965,120.293q-9.984,38.377-9.984,49.61,0,2.912.676,2.912a3.505,3.505,0,0,0,1.82-.832q6.136-3.64,20.125-15.861t16.745-15.5q2.756-3.276,3.8-3.172,1.56,0,1.56,3.744l-.1,1.768q0,.1.988,2.964a20.382,20.382,0,0,1,.988,6.656,10.938,10.938,0,0,1-1.456,6.032,55.555,55.555,0,0,1-4.316,5.564q-2.86,3.328-7.956,8.164a107.827,107.827,0,0,1-10.816,9q-13.937,10.3-26.313,10.3a14.841,14.841,0,0,1-10.5-4.472q-4.68-4.472-4.68-14.3t5.408-33.021q-59.49,49.922-60.218,50.234a3.453,3.453,0,0,1-1.352.312Z" transform="matrix(0.985, -0.174, 0.174, 0.985, 31.963, 269.758)" fill="none" stroke="#396cae" stroke-width="2"/>
</svg>
