<?xml version="1.0" encoding="utf-8"?>
<!-- Generator: Adobe Illustrator 28.1.0, SVG Export Plug-In . SVG Version: 6.00 Build 0)  -->
<svg version="1.1" id="レイヤー_1" xmlns="http://www.w3.org/2000/svg" xmlns:xlink="http://www.w3.org/1999/xlink" x="0px"
	 y="0px" viewBox="0 0 632.4 460.4" style="enable-background:new 0 0 632.4 460.4;" xml:space="preserve">
<style type="text/css">
	.st0{fill:none;stroke:#396CAE;stroke-width:2.0005;stroke-miterlimit:4.001;}
</style>
<path id="パス_1323" class="st0" d="M79,93.9l7.2-3c1.6-0.4,3.3-0.2,4.8,0.4c1.3,0.6,2,1.3,2.1,2c0.1,1.1,0.1,2.1,0,3.2
	C93.1,98,92.7,111.8,92,138c-0.7,26.2-1.2,45.7-1.4,58.6c8.8-17.8,18.9-39.7,30.4-65.5s17.8-42.8,19-50.8c0.3-2.2,1-4.3,2.2-6.1
	c0.7-1.2,1.8-2.2,3.1-2.9c1.5-0.6,3.1-1,4.6-1.2c2.6-0.4,5.2-0.4,7.8,0c3.1,0.4,4.8,1.7,5.2,3.8c0.7,4-3.2,16.7-11.8,38
	S132.5,156,121,180.3c-11.5,24.3-21.3,43.6-29.4,58c-1.2,2.4-3.5,4.1-6.1,4.6c-2.8,0.5-5.7,0.5-8.5,0.1c-3.1-0.4-4.8-1.8-5.2-4.1
	c-1.3-7.5-1.1-44.8,0.6-111.8c-8.7,16.6-18.8,39.4-30.3,68.3c-12,29.9-18.6,48.4-19.6,55.2c-0.5,4.1-1.5,6.6-3,7.5
	c-1,0.7-2.2,1.1-3.4,1.3l-7.9,2.4c-1.6,0.3-3.2,0.1-4.6-0.6c-1.5-0.7-2.3-1.5-2.5-2.4c-0.5-2.7,1.8-11.6,7-26.5
	c5.1-14.9,11.3-31.2,18.6-49c7.3-17.7,15-35.1,23.4-52.1s15-28.7,20.1-34.9c1-1.3,2.4-2.1,3.9-2.4L79,93.9z M218.7,66.2l4.8-1.1
	c1.8-0.3,2.8,0.2,3,1.6c0.1,0.3,0.1,0.6,0,1c-24.2,53.8-46.3,106.2-66.5,157.3c-1.1,2.7-2.2,4.4-3.3,4.9c-0.3,0.2-0.7,0.4-1,0.6
	c-3.2,1.9-5.5,3-6.8,3.2c-0.8,0.1-1.5,0.3-2.2,0.5c-0.4,0.7-1.2,1.3-2,1.4c-0.9,0.2-1.4,0.2-1.7,0.2c-0.8-0.1-1.7-0.2-2.5-0.4
	c-1.4-0.3-2.1-0.6-2.2-0.8c-0.6-3.3-0.8-5.4-0.7-6.1c0.6-5.1,6-20.2,16.4-45.2c10.4-25,21.1-49.6,32.2-73.6
	c11.1-24,18-37.6,20.7-40.6c1-1,2.2-1.6,3.6-1.8L218.7,66.2z M253.7,200c-10.7,13.6-24.9,21.9-42.5,25c-10.7,1.9-18.7,1-24-2.7
	c-3-2-5.1-6.1-6.2-12.3c-1.7-9.6,4.5-17,18.5-22.4c5.3-1.9,10.7-3.3,16.3-4.2c6.4-1.1,15.4-1.5,27-1.1c4.8-7.7,10.1-18.7,16.1-33
	c6-14.3,10.7-25.4,14.3-33.2s7.7-15.9,12.5-24.2c4.6-8.1,9.8-15.8,15.6-23.1C312.5,54.3,324.8,46,338,43.6c5.9-1,10.4-0.3,13.5,2.2
	c3.1,2.5,5.1,6,5.8,9.9c0.7,4.1-0.3,9.1-3.1,15.2c-2.7,6-6.2,11.6-10.4,16.6c-3.8,4.7-8,9.1-12.6,13.2c-4.2,3.7-7.7,5.9-10.4,6.3
	c-2.8,0.5-5.6-0.4-7.7-2.2c-2.4-2-3.8-4-4.2-6.2c-0.4-2.2-0.4-3.7,0.1-4.7c0.4-1,1-1.5,1.6-1.6c0.6-0.1,1.1,0.2,1.3,0.9
	c2.1-1.1,5.2-3.8,9.4-8.3c4-4.3,7.8-8.8,11.2-13.5c3.3-4.6,4.8-7.4,4.6-8.4c-0.2-1-0.9-1.4-2.1-1.2c-1.7,0.4-3.2,1.1-4.6,2.1
	c-2.7,1.9-5.1,4.1-7.3,6.5c-3.4,3.7-6.5,7.7-9.3,11.8c-7.9,11.3-16.1,26.7-24.8,46.3c-2,4.4-4.9,10.9-8.5,19.4
	c-7.5,17.2-12.9,29-16.2,35.4c36.7,3,62.5,3.2,77.5,0.6c7-1.2,11.7-3,14.2-5.2c0.5-0.6,1.2-1,1.9-1.3c0.3-0.1,0.6,0.2,0.7,0.7
	c0,0.9-0.1,1.8-0.5,2.6c-0.4,1.2-1.5,3.8-3.3,7.8c-1.8,4-3.2,6.4-4.3,7.3c-3,2.6-8.5,4.6-16.5,6c-7.7,1.4-15.5,2.2-23.3,2.3
	c-7.5,0.1-13.5,0-18.2-0.3c-4.6-0.3-11.5-1-20.7-2C262.6,200.9,256.6,200.2,253.7,200z M215.2,200.3c-8.9,1.6-13.2,3.4-12.9,5.5
	c0.1,0.8,1,1.4,2.7,1.7c1.9,0.3,3.8,0.3,5.6,0c6.7-1.2,13-4.2,18.2-8.6C224.3,199.1,219.7,199.6,215.2,200.3L215.2,200.3z M468,27.1
	c1.3-5.1,2.4-7.7,3.3-7.9l0.5-0.1c1-0.2,3.3,0.5,6.8,2.2c3.5,1.6,5.5,3.4,5.8,5.3c0.5,2.7-4.6,24.8-15.3,66.5s-16.9,65.1-18.6,70.2
	c-1.7,5.1-2.9,8.6-3.6,10.3c-0.8,2-1.8,4-3,5.9c-2,3.9-5.7,6.6-10,7.4c-1.6,0.3-3.2,0.8-4.6,1.5c-0.7,0.4-1.5,0.8-2.3,1.1
	c-2.2,0.4-3.4,0.1-3.5-1c0.1-0.9,0.2-1.8,0.4-2.7c0.3-1.6,5.2-19.5,14.6-53.9c-16.2,2.2-30.3,4.2-42.6,6
	c-9.1,16.7-16.9,33.9-23.6,51.7c-0.5,1.9-1.3,3.7-2.4,5.3c-1,1.2-2.4,1.9-4,2.1c-1.8,0.3-3.8-0.3-6.2-1.7c-2.2-1.2-3.7-3.3-4.2-5.8
	c-1.2-6.8,5-23,18.7-48.5c-8.3,1.5-13.5,2.6-15.6,3.4c-1.3,0.5-2.7,1-4.1,1.4c-1.8,0.3-3-1.1-3.6-4.2s0.8-6.2,4-9.2
	c3.2-3,7.9-5,14.1-6.1c0.5-0.1,1.3-0.3,2.5-0.6c4.2-1,8.5-1.9,12.9-2.8c11.5-19.7,24.3-38.7,38.1-56.9
	c13.6-17.8,25.8-30.8,36.7-38.9c1.2-1.1,2.7-1.8,4.3-2.2C464.7,25,466.2,25.7,468,27.1z M463.4,42.8c-21.6,23.4-40.7,49.1-56.9,76.5
	c12.1-1.9,24.5-3.5,36.9-4.9C451.2,86,457.9,62.2,463.4,42.8L463.4,42.8z M478.5,175.5l-0.6,0.2c-0.5,0.1-1.6-0.4-3.3-1.5
	s-2.8-1.7-3.1-2c-0.5-0.3-0.9-0.5-1.4-0.8c-0.5-0.3-0.9-0.4-1.1-0.5c-0.3-0.2-0.5-0.3-0.8-0.5c-0.2-0.2-0.5-0.4-0.7-0.6
	c-0.1-0.2-0.3-0.3-0.5-0.5c-0.3-0.5-0.5-1.1-0.6-1.7c-0.1-1.2-0.1-2.4,0.1-3.6c0.3-2.4,6.1-10.3,17.5-23.4
	c11.4-13.2,28-31.8,49.8-56c0.3-3.9,0.7-8.6,1.2-14.2c0.5-5.6,0.9-10.1,1.2-13.5c0.3-3.4,0.6-6.9,0.8-10.6
	c0.5-6.9,0.7-10.9,0.6-11.8c-0.2-1-0.6-1.4-1.2-1.3c-2.5,0.4-7.5,5.4-14.9,14.7c-7.4,9.4-10.9,15.3-10.5,17.6
	c0.3,1.6-0.2,2.5-1.3,2.7c-0.8,0.1-2-0.5-3.8-1.8c-1.5-1-2.6-2.4-3.2-4c-0.4-1.3-0.8-2.4-1.2-3.3c-0.6-1.6-1.1-3.3-1.4-5
	c-0.6-3.5,1.8-8.9,7.3-16.1c5.5-7.3,11.8-14,18.8-20c7.1-6,12.4-9.4,15.9-10c3.2-0.7,6.6,0.1,9.2,2.2c2.6,2.1,4.3,5.4,5.1,10.1
	s0.2,18.3-1.8,41.1c33.1-36.2,50.6-55.1,52.4-56.6c1.8-1.6,4.8-2.7,8.9-3.4c4.3-0.7,8.7-0.6,12.9,0.3c1.4,0.3,2.2,0.9,2.3,1.8
	c0.1,0.9,0,1.8-0.3,2.5c-0.6,1.2-1.4,2.2-2.3,3.2c-1.1,1.3-3.5,3.7-7,7.4c-3.5,3.6-7.7,8-12.7,13.2c-11.5,12-30.4,32.7-56.8,61.9
	c-2.1,26.4-2.5,43.2-1.2,50.6c0.3,1.9,0.7,2.8,1.2,2.8c0.6-0.2,1.2-0.6,1.6-1.1c3.6-3.1,9.3-9.5,17.1-19.1
	c7.8-9.6,12.4-15.7,13.8-18.2c1.4-2.5,2.5-3.7,3.2-3.8c1-0.2,1.8,1,2.2,3.4l0.2,1.8c0,0.1,0.5,1,1.5,2.7c1.1,2,1.8,4.2,2.1,6.4
	c0.5,2.1,0.3,4.2-0.4,6.2c-1,2.1-2.1,4.2-3.3,6.2c-1.5,2.5-3.6,5.7-6.4,9.4c-2.8,3.8-5.8,7.4-9.1,10.7c-8,8.4-16,13.3-24.1,14.7
	c-3.9,0.7-7.9-0.3-11.1-2.6c-3.6-2.4-6-6.8-7.1-13.3c-1.1-6.5-1.3-17.6-0.4-33.5c-33.3,39.7-50.1,59.7-50.6,60
	c-0.4,0.3-0.8,0.4-1.3,0.5L478.5,175.5z M81.1,321.3c-2,2-2.8,4.1-2.4,6.1c0.4,2,2,2.8,5,2.2c1.7-0.4,3.3-1.1,4.8-2l0.1,0
	c0.3-0.1,0.6,0.6,0.9,2c0.2,1.4,0.3,2.3,0,2.6c-6.2,6.2-11.7,9.8-16.5,10.6c-4.9,0.9-8.6,0.1-11.3-2.2c-2.7-2.3-4.4-5.7-5.2-10.1
	s0.8-9.5,4.8-15.3c4-5.8,9.7-11.5,17.1-17.2c7.5-5.6,17-10.9,28.6-15.8c12.9-5.2,26.4-9,40.2-11.3c15.1-2.7,28.3-2,39.5,2.2
	c11.2,4.1,17.5,9.9,18.8,17.5c1.3,7.5,0,15.7-3.9,24.4c-4,8.8-9.5,16.9-16.3,23.8c-7.1,7.3-15.2,13.7-24,18.9
	c-9,5.4-17.4,8.8-25,10.1c-7.6,1.4-14.1-0.7-19.5-6.1c-7.5,18.2-12.6,30.5-15.2,37.2c-2.6,6.6-4.9,12.2-6.7,16.7
	c-1.8,4.5-3.3,8.1-4.2,10.6c-1,2.6-1.5,3.9-1.6,4c-0.9,1.6-2.4,2.8-4.2,3.2l-4.9,1.8l-2.5,0.2l-1.7,0.3c-4,0.7-6.3-0.2-6.7-2.7
	c-0.6-3.2,4-16.5,13.8-39.8c9.8-23.3,19.1-44.6,28-63.8c8.9-19.2,14.2-30,15.8-32.5s3.1-4,4.6-4.7c2.4-0.9,4.8-1.5,7.3-1.9l5.1-0.9
	c0.9-0.2,1.5,0.5,1.7,1.9c0.3,1,0.3,2,0,3c-4.5,9.5-12.4,28-23.8,55.5c0.7,1,1.9,1.6,3.1,1.6c1.4,0,2.8-0.1,4.1-0.3l3-0.5
	c6.3-1.1,12.8-3.8,19.6-8.2c6.4-4,12.2-8.8,17.3-14.3c4.5-4.8,8.3-10,11.5-15.7c2.9-5.3,4.1-9.5,3.5-12.8c-0.5-3.2-2.2-6.1-4.6-8.3
	c-2.7-2.3-6-3.9-9.5-4.7c-7.5-1.7-16.2-1.7-26.1,0.1c-9.9,1.8-21.5,6.5-34.6,14.1C96,308.4,86.6,315.2,81.1,321.3z M252,325.4
	c0.8,4.6-0.5,9.3-3.4,12.9c-2.7,3.9-6.9,6.5-11.5,7.3c-1.5,0.3-2.6,0.1-3.2-0.6c-0.7-0.8-1.1-1.7-1.2-2.7c-0.2-1.1-0.3-2.3-0.2-3.5
	c-2.7,1.5-5.2,3.3-7.5,5.2c-3.4,3-6.7,6.1-9.7,9.5c-3.8,4.1-5.5,7-5.2,8.6c0.1,0.5,0.9,0.7,2.6,0.4c2.5-0.6,4.9-1.7,7.1-3
	c2.1-1.3,4.4-2.3,6.7-2.9c0.9-0.2,1.8-0.3,2.6-0.3c1.3,0.6,2.5,1.5,3.4,2.6c1,1,1.8,2.2,2.2,3.5c0.2,0.9-0.5,2.3-2,4.1
	c-1.5,1.8-3.4,3.3-5.4,4.5c-1.5,0.8-2.9,1.6-4.2,2.6c-13,10.6-19.2,17.4-18.7,20.4c0.9,5.3,6,7.2,15,5.6c5.8-1,11.3-3.9,16.5-8.6
	c4.2-3.7,8.1-7.7,11.8-12c3.4-3.9,5.6-6.4,6.5-7.3c0.6-0.7,1.3-1.2,2.2-1.6c1.8-0.3,3,1.5,3.7,5.5c0.7,4,0.9,6.6,0.7,8
	c-0.3,1.3-1.3,3.1-3.3,5.4c-12.5,14.5-25.3,22.9-38.3,25.2c-7,1.2-12.7,1.3-17.2,0.1c-8.3-2.1-13-6.8-14.3-14
	c-1.7-9.4,3.6-17.7,15.8-24.9c-2.8-0.7-4.7-1.9-5.8-3.6c-1.1-1.7-2-4.5-2.7-8.5c-0.7-4,0.4-8.6,3.3-13.7c3-5.2,7-9.8,11.7-13.4
	c10.9-8.6,21-13.7,30.4-15.4c2.4-0.4,4.8-0.2,7.2,0.4C250.2,322.1,251.6,323.4,252,325.4L252,325.4z M317.4,312.4
	c2.4-0.3,4.8,0.3,6.8,1.7c2.5,1.5,4.1,4.1,4.7,7.9s0.2,8.9-1.4,15.5c-1.8,7.1-4.4,13.9-7.7,20.4c-3.5,7.1-7.6,13.9-12.2,20.3
	c-4.4,6.3-9.7,11.9-15.6,16.7c-5.8,4.7-11.4,7.5-16.6,8.4c-5.3,0.9-9.8,0-13.5-2.7c-3.8-2.8-6.2-7.1-7.2-13
	c-1-5.9-0.7-12.7,0.9-20.4c1.5-7.4,4.2-14.4,7.9-21c3.5-6.2,7.6-12,12.2-17.4c9.6-10.9,18.5-17.1,26.9-18.6c3.8-0.7,6.8-0.2,9,1.3
	c0.6,0.3,1.1,0.8,1.3,1.5l0.1,0.6C314.4,313,315.9,312.6,317.4,312.4L317.4,312.4z M309.5,327.8l-0.7,0.1c-2.4,0.4-3.9-1.1-4.5-4.6
	c-5.3,3-10.1,6.8-14.2,11.4c-4.8,5.1-8.9,10.9-12.1,17.1c-6.8,12.7-9.5,23-8.3,30.7c0.7,3.8,2.4,5.5,5.2,5c2.8-0.5,6.6-3.1,11.5-7.7
	c5.5-5.5,10.1-11.8,13.7-18.7c3.6-6.4,6.6-13,9.1-19.9c1.8-5.5,2.6-9.1,2.2-11C311.1,328.5,310.4,327.7,309.5,327.8L309.5,327.8z
	 M376.3,270.1l1.8-0.5c1-0.2,2,0.6,2.9,2.2c0.7,1.1,1.2,2.2,1.6,3.4c0.1,0.6-0.4,1.9-1.4,3.8l-21.3,49.6c8.4-12.1,17.5-21.4,27.3-28
	c3.2-2.2,6.8-3.8,10.6-4.6c3-0.7,6.1,0,8.6,1.8c2.4,1.8,4,4.5,4.4,7.5c0.5,4.1,0.3,8.3-0.6,12.4c-1.1,5.6-2.6,11-4.6,16.3
	c-2.3,6.2-5,12.3-8.2,18c-3.2,6-6.9,11.7-11,17.1c-3.9,5.1-8.5,9.6-13.6,13.4c-5.1,3.7-9.8,6-14,6.7c-8.5,1.5-13.5-1.7-14.9-9.5
	c-5.8,13.6-12.5,29.7-20,48.3c-7.5,18.6-11.5,28.4-12.1,29.5c-0.6,1.1-1.1,1.7-1.6,1.8c-0.9,0-1.7-0.1-2.5-0.5
	c-1.4-0.6-2.7-1.4-3.9-2.5c-1.6-1.6-2.6-3.7-2.9-5.9c-0.5-2.9-0.2-6,0.9-8.7c6.5-17,19.2-49,38-96.1c18.8-47.1,29.2-71.6,31.1-73.4
	c0.9-1,2.2-1.6,3.5-1.9L376.3,270.1z M393.6,315.6c-0.3-1.4-1.1-2-2.4-1.8c-3.7,0.7-10.5,7.7-20.4,21.1
	c-9.9,13.4-17.6,25.5-22.9,36.1c2.2,1.9,5,2.5,8.5,1.9c3.5-0.6,7.7-3.3,12.5-8c4.9-4.8,9.3-10.2,13-16.1c3.7-5.8,6.8-11.9,9.2-18.4
	C393.4,324.2,394.3,319.2,393.6,315.6L393.6,315.6z M478.3,205.9c3.1-0.6,6.4-0.1,9.2,1.4c2.8,1.5,4.6,4.2,5.3,8
	c0.7,3.8-0.4,10.2-3.2,19.1c-3,9.5-6.6,18.7-10.9,27.7c-4.4,9.6-9.6,19.8-15.4,30.7c-9.2,17.3-18.2,32.9-27,46.9
	c0.1,1.6,0,3.1-0.1,4.7c-0.1,2.3,0,4.6,0.4,6.8c0.5,2.4,2,4.4,4.2,5.5c2.5,1.5,5.4,1.9,8.2,1.3c3.5-0.8,6.7-2.5,9.3-5
	c3-2.6,5.6-5.6,7.9-8.9c5.6-8.2,9.2-12.5,10.8-12.8c1.6-0.3,2.9,2.1,3.8,7l0.4,2c0.5,2.7,0.3,4.7-0.4,6.1c-4,7.5-9.7,14.1-16.6,19.1
	c-6.6,4.7-13.1,7.6-19.5,8.8c-6.4,1.1-11.7,0-15.7-3.3c-4-3.3-6.7-8.4-7.9-15.2c-2.4-13.3-1.6-29.6,2.4-48.9s9.3-36,16-50.2
	C454.8,224.8,467.6,207.8,478.3,205.9z M476.7,223.7c-0.2-1-0.6-1.5-1.3-1.4c-2.4,0.4-7.5,8.4-15.2,23.8s-13.2,27.6-16.3,36.6
	c-3.1,8.9-5.6,19.9-7.4,32.9c6.4-11,14.9-27.9,25.5-50.6C472.6,242.3,477.5,228.5,476.7,223.7L476.7,223.7z M531.6,276
	c0.8,4.6-0.5,9.3-3.4,12.9c-2.7,3.9-6.9,6.5-11.5,7.3c-1.5,0.3-2.6,0.1-3.2-0.6c-0.7-0.8-1.1-1.7-1.2-2.7c-0.2-1.1-0.3-2.3-0.2-3.5
	c-2.7,1.5-5.2,3.3-7.5,5.2c-3.4,3-6.7,6.1-9.7,9.5c-3.8,4.1-5.5,7-5.2,8.6c0.1,0.5,0.9,0.7,2.6,0.4c2.5-0.6,4.9-1.7,7.1-3
	c2.1-1.3,4.4-2.3,6.7-2.9c0.9-0.2,1.8-0.3,2.6-0.3c1.3,0.6,2.5,1.5,3.4,2.6c1,1,1.8,2.2,2.2,3.5c0.2,0.9-0.5,2.3-2,4.1
	c-1.5,1.8-3.4,3.3-5.4,4.5c-1.5,0.8-2.9,1.6-4.2,2.6c-13,10.6-19.2,17.4-18.7,20.4c0.9,5.3,6,7.2,15,5.6c5.8-1,11.3-3.9,16.5-8.6
	c4.2-3.7,8.1-7.7,11.8-12c3.4-3.9,5.6-6.4,6.5-7.3c0.6-0.7,1.3-1.2,2.2-1.6c1.8-0.3,3,1.5,3.7,5.5c0.7,4,0.9,6.6,0.7,8
	s-1.3,3.1-3.3,5.4c-12.5,14.5-25.3,22.9-38.3,25.2c-7,1.2-12.7,1.3-17.2,0.1c-8.3-2.1-13-6.8-14.3-14c-1.7-9.4,3.6-17.7,15.8-24.9
	c-2.8-0.7-4.7-1.9-5.8-3.6c-1.1-1.7-2-4.5-2.7-8.5c-0.7-4,0.4-8.6,3.3-13.7c3-5.2,7-9.8,11.7-13.4c10.9-8.6,21-13.7,30.4-15.4
	c2.4-0.4,4.8-0.2,7.2,0.4C529.8,272.7,531.2,274.1,531.6,276L531.6,276z"/>
</svg>
