<svg xmlns="http://www.w3.org/2000/svg" width="222.105" height="45.213" viewBox="0 0 222.105 45.213">
  <g id="グループ_100" data-name="グループ 100" transform="translate(-929 -3160.093)">
    <g id="長方形_244" data-name="長方形 244" transform="translate(983.696 3160.093)" fill="#002060" stroke="#002060" stroke-width="1">
      <rect width="167.409" height="45.213" stroke="none"/>
      <rect x="0.5" y="0.5" width="166.409" height="44.213" fill="none"/>
    </g>
    <path id="パス_131" data-name="パス 131" d="M12.787-14.706H9.861L4.294-7.98v-6.726H1.767V.038H4.294V-5.111L6.023-7.049,10.317.038h2.907L7.676-8.835Zm4.674,4.313H15.143V.038h2.394V-6.8a3.2,3.2,0,0,1,2.432-1.767c.931,0,1.444.551,1.444,1.748V.038h2.451V-7.486a2.856,2.856,0,0,0-2.983-3.135,4.251,4.251,0,0,0-3.42,2.052Zm20.672-4.313H35.207L29.64-7.98v-6.726H27.113V.038H29.64V-5.111l1.729-1.938L35.663.038H38.57L33.022-8.835ZM53.675-6.859v5.8c0,.57-.228.722-.76.722a11.428,11.428,0,0,1-1.634-.133A4.242,4.242,0,0,1,51.832.912c.114.589.114.589.7.57a3.984,3.984,0,0,0,2.432-.437c.475-.38.608-.931.608-1.9,0-.608-.019-1.425-.019-2.3V-6.859c.931.019,1.33.038,1.406.038.19,0,.209-.019.209-.209V-8.436c0-.19-.019-.209-.209-.209-.1,0-.741.038-2.6.038h-6.4c-1.862,0-2.489-.038-2.6-.038-.19,0-.209.019-.209.209V-7.03c0,.19.019.209.209.209.114,0,.741-.038,2.6-.038ZM43.814-9.215c.988.019,1.311.038,1.425.038.209,0,.228-.019.228-.228V-10.83c0-.19-.019-.209-.228-.209-.114,0-.437.038-1.425.038v-1.748a8.009,8.009,0,0,1,.114-2.109.97.97,0,0,0,.114-.38c0-.114-.114-.19-.3-.209-.627-.076-1.216-.114-1.938-.133a20.875,20.875,0,0,1,.133,2.888V-11h-.1c-1.235,0-1.6-.038-1.71-.038-.171,0-.19.019-.19.209V-9.4c0,.209.019.228.19.228.114,0,.475-.038,1.71-.038h.1v5.4l-.342.114a10.21,10.21,0,0,1-1.9.456,13.5,13.5,0,0,0,.513,1.71c.076.19.171.247.285.247a.567.567,0,0,0,.323-.152,2.714,2.714,0,0,1,.627-.3A37.684,37.684,0,0,0,45.22-3.363c.513-.266.532-.247.494-.874a8.251,8.251,0,0,1,.019-1.2c-.665.361-1.292.646-1.919.912Zm9.861-3.135c1.786,0,2.394.038,2.508.038.209,0,.228-.019.228-.228v-1.178c0-.171-.019-.19-.228-.19-.114,0-.722.038-2.508.038H51.737a1.467,1.467,0,0,1,.038-.285,2.9,2.9,0,0,1,.209-1.026.429.429,0,0,0,.1-.285c0-.114-.133-.171-.361-.209-.551-.076-1.026-.114-1.71-.152a7.677,7.677,0,0,1-.057,1.957H48.545c-1.786,0-2.394-.038-2.508-.038-.209,0-.228.019-.228.19v1.178c0,.209.019.228.228.228.114,0,.722-.038,2.508-.038h.912c-.608,1.045-1.824,1.767-3.819,2.261a3.245,3.245,0,0,1,.779.969c.171.342.247.475.418.475a1.458,1.458,0,0,0,.437-.114A6.547,6.547,0,0,0,50.958-11.5,7.8,7.8,0,0,0,55.1-8.721a1.109,1.109,0,0,0,.38.076c.228,0,.342-.114.475-.437a3.361,3.361,0,0,1,.722-1.121,7.652,7.652,0,0,1-4.313-2.147Zm-1.463,7.9c0-.741.038-1.159.038-1.273,0-.19-.019-.209-.209-.209-.114,0-.513.038-1.71.038H48.45c-1.216,0-1.6-.038-1.729-.038-.19,0-.209.019-.209.209,0,.133.038.551.038,1.558v1.045c0,2.09-.038,2.47-.038,2.584,0,.19.019.209.209.209h1.311c.19,0,.209-.019.209-.209v-.817h2.318v.342c0,.19.019.209.209.209h1.273c.19,0,.209-.019.209-.209,0-.133-.038-.494-.038-2.3Zm-1.653,0v1.672H48.241V-4.446ZM73.321.133c1.691,0,2.261.038,2.375.038.19,0,.209-.019.209-.209V-1.615c0-.19-.019-.209-.209-.209-.114,0-.684.038-2.375.038H68.286v-4.9h2.793c1.862,0,2.508.038,2.622.038.19,0,.209-.019.209-.209V-8.4c0-.19-.019-.209-.209-.209-.114,0-.76.038-2.622.038H68.286v-4.1h4.009c1.805,0,2.432.038,2.546.038.209,0,.228-.019.228-.209v-1.577c0-.19-.019-.209-.228-.209-.114,0-.741.038-2.546.038H62.662c-1.824,0-2.451-.038-2.565-.038-.19,0-.209.019-.209.209v1.577c0,.19.019.209.209.209.114,0,.741-.038,2.565-.038h3.5v4.1h-2.3c-1.862,0-2.508-.038-2.622-.038-.19,0-.209.019-.209.209v1.539c0,.19.019.209.209.209.114,0,.76-.038,2.622-.038h2.3v4.9H61.617c-1.691,0-2.28-.038-2.394-.038-.19,0-.209.019-.209.209V-.038c0,.19.019.209.209.209.114,0,.7-.038,2.394-.038ZM70.053-5.434c-.209.114-.266.171-.114.342a15.008,15.008,0,0,1,1.938,2.641c.057.1.1.133.152.133a.363.363,0,0,0,.228-.1L73.378-3.1c.228-.152.247-.171.133-.342a17.341,17.341,0,0,0-2-2.565c-.133-.133-.19-.152-.4-.038Zm15.2-5.814v2.356H82.308c-1.843,0-2.47-.038-2.584-.038-.19,0-.209.019-.209.209v1.463c0,.19.019.209.209.209.1,0,.589-.019,1.881-.038A13.381,13.381,0,0,0,84.683-2.7a24.153,24.153,0,0,1-6.859,2.28A5.258,5.258,0,0,1,78.6.931c.133.361.19.494.38.494a1.5,1.5,0,0,0,.418-.076,24.074,24.074,0,0,0,6.878-2.793,21.432,21.432,0,0,0,7.2,2.812,2.321,2.321,0,0,0,.418.057c.209,0,.266-.114.4-.494a6.79,6.79,0,0,1,.817-1.52,20.815,20.815,0,0,1-7.068-2.147,17.328,17.328,0,0,0,3.477-4.047,1.551,1.551,0,0,1,.456-.513c.171-.133.266-.19.266-.342,0-.171-.152-.4-.589-.817-.475-.475-.627-.589-.76-.589a.619.619,0,0,0-.247.076,1.536,1.536,0,0,1-.551.076H87.324v-2.356h4.845c1.71,0,2.3.038,2.413.038.19,0,.209-.019.209-.209v-1.5c0-.209-.019-.228-.209-.228-.114,0-.7.038-2.413.038H87.324V-13.6a5.47,5.47,0,0,1,.114-1.5.993.993,0,0,0,.133-.4c0-.1-.133-.19-.3-.209-.665-.076-1.482-.114-2.166-.133a13.553,13.553,0,0,1,.152,2.432v.3h-4.56c-1.71,0-2.3-.038-2.413-.038-.19,0-.209.019-.209.228v1.5c0,.19.019.209.209.209.114,0,.7-.038,2.413-.038Zm3.971,4.161a11.893,11.893,0,0,1-2.812,3.23,10.865,10.865,0,0,1-2.622-3.23Zm14.06,8.455c.19,0,.209-.019.209-.209V.589h6.745v.475c0,.171.019.19.209.19h1.52c.19,0,.209-.019.209-.19,0-.114-.038-.589-.038-3.021V-3.534c0-1.1.038-1.6.038-1.71,0-.19-.019-.209-.209-.209-.114,0-.741.038-2.546.038H107.35V-7.486h3.173c1.786,0,2.413.038,2.527.038.19,0,.209-.019.209-.209V-9.063c0-.19-.019-.209-.209-.209-.114,0-.741.038-2.527.038H107.35v-.114a4.3,4.3,0,0,1,.133-1.463.9.9,0,0,0,.114-.418c0-.1-.133-.171-.323-.19a16.6,16.6,0,0,0-1.938-.133,16.566,16.566,0,0,1,.114,2.3v3.838h-1.1c-1.786,0-2.413-.038-2.527-.038-.19,0-.209.019-.209.209,0,.133.038.608.038,1.976v1.387c0,2.47-.038,2.926-.038,3.04,0,.19.019.209.209.209Zm.209-5.111h6.745v2.6h-6.745Zm-2.869-8.341h10.45c1.805,0,2.413.038,2.546.038.171,0,.19-.019.19-.209v-1.406c0-.19-.019-.209-.19-.209-.133,0-.741.038-2.546.038h-4.1V-14.5a1.8,1.8,0,0,1,.133-.817.626.626,0,0,0,.114-.361c0-.114-.114-.19-.3-.209-.646-.057-1.311-.095-2.014-.114a7.806,7.806,0,0,1,.114,1.539v.627H101.4c-1.805,0-2.451-.038-2.565-.038-.171,0-.19.019-.19.209,0,.114.038,1.2.038,3.591a29.243,29.243,0,0,1-.4,5.681A12.359,12.359,0,0,1,96.729-.247,6.951,6.951,0,0,1,98,.874c.19.19.3.3.38.3.1,0,.171-.133.3-.38a15.106,15.106,0,0,0,1.52-4.37,33.827,33.827,0,0,0,.418-6.118Z" transform="translate(1008.136 3191.271)" fill="#fff"/>
    <path id="多角形_4" data-name="多角形 4" d="M5,0l5,55H0Z" transform="translate(929 3190) rotate(-90)" fill="#002060"/>
  </g>
</svg>
