<svg xmlns="http://www.w3.org/2000/svg" width="182.072" height="75.677" viewBox="0 0 182.072 75.677">
  <g id="グループ_101" data-name="グループ 101" transform="translate(-478.027 -3185.323)">
    <g id="長方形_239" data-name="長方形 239" transform="translate(478.027 3185.323)" fill="#002060" stroke="#002060" stroke-width="1">
      <rect width="182.072" height="45.213" stroke="none"/>
      <rect x="0.5" y="0.5" width="181.072" height="44.213" fill="none"/>
    </g>
    <path id="パス_127" data-name="パス 127" d="M12.787-14.706H9.861L4.294-7.98v-6.726H1.767V.038H4.294V-5.111L6.023-7.049,10.317.038h2.907L7.676-8.835Zm4.674,4.313H15.143V.038h2.394V-6.8a3.2,3.2,0,0,1,2.432-1.767c.931,0,1.444.551,1.444,1.748V.038h2.451V-7.486a2.856,2.856,0,0,0-2.983-3.135,4.251,4.251,0,0,0-3.42,2.052Zm20.672-4.313H35.207L29.64-7.98v-6.726H27.113V.038H29.64V-5.111l1.729-1.938L35.663.038H38.57L33.022-8.835Zm19.19,4.218a5.347,5.347,0,0,0-5.6-4.484c-3.8,0-6.4,2.774-6.4,7.657C45.315-2.451,47.9.3,51.718.3c3,0,4.9-1.349,5.681-4.389l-2.413-.741c-.418,2.147-1.482,3.154-3.249,3.154-2.147,0-3.705-1.919-3.705-5.662,0-3.762,1.52-5.662,3.705-5.662,1.672,0,2.736,1.064,3.1,3.116Zm4.617-4.484H59.546V.038H61.94v-6.8A3.225,3.225,0,0,1,64.372-8.55c.931,0,1.444.532,1.444,1.748V.038h2.451V-7.486A2.85,2.85,0,0,0,65.284-10.6,4.235,4.235,0,0,0,61.94-8.626Zm11.723,4.579H71.269V.038h2.394Zm.1-4.313H71.174v2.451h2.584Zm5.282,4.313H76.722V.038h2.394V-6.8a3.2,3.2,0,0,1,2.432-1.767c.931,0,1.444.551,1.444,1.748V.038h2.451V-7.486a2.856,2.856,0,0,0-2.983-3.135,4.251,4.251,0,0,0-3.42,2.052ZM90.4-7.163a1.987,1.987,0,0,1,2-1.824c1.254,0,1.805.532,1.805,1.843v.589a20.023,20.023,0,0,0-2.983.3c-2.261.437-3.4,1.615-3.4,3.439a2.963,2.963,0,0,0,3.211,3.1A3.908,3.908,0,0,0,94.316-1.33c.057.608.1.912.171,1.368h2.2A27.666,27.666,0,0,1,96.52-3.04V-7.182c0-2.318-1.349-3.458-4.047-3.458-2.261,0-3.781.988-4.313,2.869Zm3.8,4.028a2.844,2.844,0,0,1-2.432,1.71A1.478,1.478,0,0,1,90.1-3c0-.931.589-1.5,1.71-1.767a10.852,10.852,0,0,1,2.394-.3Zm21.85-4.541h-.684c-1.615,0-2.166-.038-2.28-.038-.19,0-.209.019-.209.209v1.292c0,.209.019.228.209.228.114,0,.665-.038,2.28-.038h.1a10.191,10.191,0,0,1-2.907,3.952,5.466,5.466,0,0,1,.817.95c.171.247.247.38.342.38s.19-.095.342-.285a10.836,10.836,0,0,0,2.014-3.268c-.038,3.325-.114,5.339-.114,5.624,0,.19.019.209.209.209h1.52c.19,0,.209-.019.209-.209,0-.285-.076-2.242-.1-5.624a13.852,13.852,0,0,0,2.641,3.458c.171.171.285.247.38.247s.171-.133.285-.38a4.667,4.667,0,0,1,.741-1.273,13.106,13.106,0,0,1-3.534-3.781h.532c1.615,0,2.147.038,2.261.038.209,0,.228-.019.228-.228V-7.505c0-.19-.019-.209-.228-.209-.114,0-.646.038-2.261.038h-1.007V-9.937c.57-.152,1.121-.3,1.615-.475a2.514,2.514,0,0,1,.779-.171c.247-.019.361-.076.361-.228a.387.387,0,0,0-.152-.285,10.349,10.349,0,0,0-1.121-1.1,3.867,3.867,0,0,1-.969.437,25.73,25.73,0,0,1-5.51,1.064,6.056,6.056,0,0,1,.627,1.026c.247.475.209.494.741.437.627-.095,1.254-.19,1.843-.3ZM105.64-4.294c0,1.1-.038,1.558-.038,1.691,0,.171.019.19.209.19.133,0,.57-.038,1.976-.038h2.337c1.387,0,1.843.038,1.957.038.19,0,.209-.019.209-.19,0-.114-.038-.589-.038-1.691V-6.859c0-1.1.038-1.558.038-1.672,0-.19-.019-.209-.209-.209-.114,0-.494.038-1.558.038l.437-.7a1.439,1.439,0,0,1,.38-.513q.228-.114.228-.285c0-.114-.057-.228-.4-.551-.38-.38-.494-.418-.589-.418a.467.467,0,0,0-.209.076,1.156,1.156,0,0,1-.418.057H108.4a2.965,2.965,0,0,1,.456-.627c.095-.076.133-.114.133-.209s-.076-.152-.285-.209a12.189,12.189,0,0,0-1.425-.342,4.118,4.118,0,0,1-.418.988,10.255,10.255,0,0,1-2.641,3.04,3.076,3.076,0,0,1,.722.76c.133.209.209.323.3.323.076,0,.19-.076.4-.266ZM106.723-8.7c.342-.4.665-.8.95-1.2h1.862c-.247.456-.437.817-.684,1.2Zm4.085,4.978h-1.159V-5h1.159Zm-3.7,0V-5h1.14v1.273Zm3.7-3.686v1.2h-1.159v-1.2Zm-3.7,1.2v-1.2h1.14v1.2Zm-.057-8.322c-1.691,0-2.261-.038-2.375-.038-.209,0-.209.019-.209.209v1.2c0,.19,0,.209.209.209.114,0,.684-.038,2.375-.038h2.128c-.019.551-.038.8-.038.893,0,.19.019.209.209.209h1.482c.19,0,.209-.019.209-.209,0-.076-.038-.342-.038-.893h3.553c-.019.551-.038.817-.038.912,0,.19.019.209.209.209h1.463c.19,0,.209-.019.209-.209,0-.1-.038-.361-.038-.912h2.356c1.691,0,2.261.038,2.375.038.209,0,.228-.019.228-.209v-1.2c0-.19-.019-.209-.228-.209-.114,0-.684.038-2.375.038h-2.356a1.433,1.433,0,0,1,.114-.76.565.565,0,0,0,.1-.285c0-.1-.1-.152-.266-.171-.513-.057-1.254-.1-1.862-.114a9.383,9.383,0,0,1,.114,1.33H111a1.562,1.562,0,0,1,.1-.76.5.5,0,0,0,.114-.285c0-.114-.1-.171-.266-.19-.532-.057-1.254-.1-1.881-.114a6.157,6.157,0,0,1,.114,1.349ZM105.659-2.147c-.266-.1-.3-.057-.361.152A8.778,8.778,0,0,1,104.139.589c-.095.152-.114.209.076.323l.817.475a.635.635,0,0,0,.228.1c.057,0,.1-.038.152-.133a11.316,11.316,0,0,0,1.216-2.907c.038-.209.038-.247-.228-.342Zm5.529.228c-.228.1-.285.114-.19.3A10.825,10.825,0,0,1,111.891.8c.057.209.114.209.323.133l.741-.247c.266-.095.285-.133.228-.342a11.129,11.129,0,0,0-.988-2.375c-.095-.19-.133-.247-.342-.152Zm-3.914.171c-.266.038-.3.057-.266.266a19.986,19.986,0,0,1,.247,2.527c0,.209.038.228.3.19l.8-.133c.228-.038.266-.076.247-.285a19.823,19.823,0,0,0-.342-2.508c-.019-.19-.057-.209-.285-.171ZM110.656.893c.228-.038.266-.095.228-.3a16.1,16.1,0,0,0-.627-2.337c-.057-.19-.076-.228-.285-.171l-.722.152c-.247.057-.266.1-.209.285a19.124,19.124,0,0,1,.532,2.375c.019.19.076.209.323.152Zm17.879-13.357a9.4,9.4,0,0,1,.1-2.128,1.231,1.231,0,0,0,.133-.437c0-.114-.076-.228-.342-.247-.646-.1-1.273-.133-2.014-.171a18.147,18.147,0,0,1,.171,2.888v3.135a25.52,25.52,0,0,1-.38,4.959,7.467,7.467,0,0,1-2.641,4.37A4.632,4.632,0,0,1,124.7.988c.171.228.247.323.342.323s.209-.095.4-.285a10.126,10.126,0,0,0,2.755-5.358,26.365,26.365,0,0,0,.342-5.111Zm8.8,10.336c0,2.033-.038,3.059-.038,3.173,0,.19.019.209.228.209h1.6c.19,0,.209-.019.209-.209,0-.114-.038-1.14-.038-3.173V-12.711a6.721,6.721,0,0,1,.133-2.014c.057-.152.152-.247.152-.418,0-.152-.171-.228-.342-.247a14.073,14.073,0,0,0-2.052-.152,17.719,17.719,0,0,1,.152,2.869ZM131.86-3.249c0,1.9-.038,2.793-.038,2.926,0,.19.019.209.228.209h1.6c.19,0,.209-.019.209-.209,0-.114-.038-1.026-.038-2.945v-8.645a6.721,6.721,0,0,1,.133-2.014,1.078,1.078,0,0,0,.152-.456c0-.114-.171-.209-.342-.228-.665-.076-1.33-.133-2.052-.152a17.837,17.837,0,0,1,.152,2.888Zm-2.831-6.935c-.228.095-.228.19-.152.361a19.01,19.01,0,0,1,1.007,4.009c.038.228.1.285.342.171l1.121-.494c.209-.1.228-.152.19-.38a17.641,17.641,0,0,0-1.159-3.971c-.1-.19-.19-.19-.361-.114Zm5.282-.057c-.171.095-.209.171-.114.342a20.725,20.725,0,0,1,1.273,3.933c.057.228.133.266.38.152l1.064-.513c.19-.095.247-.133.171-.4a19.528,19.528,0,0,0-1.444-3.9c-.1-.171-.19-.171-.361-.1Zm-9.747-.342c-.285-.076-.323-.057-.323.152A10.968,10.968,0,0,1,123.291-6c-.076.171-.076.209.133.3l1.178.589c.266.133.361.076.437-.114a14.789,14.789,0,0,0,.874-4.731c0-.209,0-.247-.209-.3Z" transform="translate(496.356 3215.153)" fill="#fff"/>
    <path id="多角形_5" data-name="多角形 5" d="M4,0,8,33H0Z" transform="translate(571 3261) rotate(180)" fill="#002060"/>
  </g>
</svg>
