<?xml version="1.0" encoding="utf-8"?>
<!-- Generator: Adobe Illustrator 28.1.0, SVG Export Plug-In . SVG Version: 6.00 Build 0)  -->
<svg version="1.1" id="レイヤー_1" xmlns="http://www.w3.org/2000/svg" xmlns:xlink="http://www.w3.org/1999/xlink" x="0px"
	 y="0px" viewBox="0 0 22.3 23.3" style="enable-background:new 0 0 22.3 23.3;" xml:space="preserve">
<style type="text/css">
	.st0{fill:#396CAE;}
</style>
<g id="グループ_1562">
	<path id="パス_108" class="st0" d="M12.5,22.8l9.2-9.3c0.8-0.7,0.8-2,0.1-2.7s-2-0.8-2.7-0.1c0,0,0,0-0.1,0.1L13,16.7V1.9
		C13,0.9,12.2,0,11.1,0S9.2,0.9,9.2,1.9c0,0,0,0,0,0v14.8l-5.9-5.9c-0.7-0.8-2-0.8-2.7,0c-0.8,0.7-0.8,2,0,2.7l9.2,9.3
		C10.5,23.5,11.7,23.5,12.5,22.8C12.5,22.8,12.5,22.8,12.5,22.8"/>
</g>
</svg>
