<?xml version="1.0" encoding="utf-8"?>
<!-- Generator: Adobe Illustrator 28.1.0, SVG Export Plug-In . SVG Version: 6.00 Build 0)  -->
<svg version="1.1" id="レイヤー_1" xmlns="http://www.w3.org/2000/svg" xmlns:xlink="http://www.w3.org/1999/xlink" x="0px"
	 y="0px" viewBox="0 0 318.3 263.5" style="enable-background:new 0 0 318.3 263.5;" xml:space="preserve">
<style type="text/css">
	.st0{fill:none;stroke:#666666;stroke-width:1.0003;stroke-miterlimit:4.001;}
</style>
<path id="パス_1325" class="st0" d="M110.4,94.4l1,2.4c0.1,1.4-0.2,2.8-1,4c-2.2,4.3-6.1,9.4-11.6,15.4c-5.5,6-9.7,9.2-12.7,9.8
	c-2.6,0.6-5.3,0.1-7.5-1.4c-1.9-1.3-3.2-3.3-3.6-5.6c-0.5-2.7,1.3-9.2,5.3-19.4c6.1-15.2,14.1-33.2,24.1-53.9
	C102.1,49,96.1,58,86.3,72.8c-21.7,32.6-34.5,51.2-38.3,55.7c-0.8,0.8-1.9,1.4-3.1,1.5c-1.7,0.2-3.3-0.1-4.8-0.9
	c-1.5-0.6-2.7-1.9-3-3.5l-0.1-0.3c-0.1-1.9,2.5-11.6,7.9-29.1s10.1-31.6,14-42.1c-6.6,10.5-13.2,22.1-19.6,34.8
	c-12.3,24-20.8,44.1-25.6,60.4c-0.4,1.5-1.1,2.4-2.1,2.5c-1.4,0.2-2.9,0.2-4.3,0c-4-0.4-6.3-1.9-6.7-4.5c-0.3-1.6,1.9-7.8,6.6-18.5
	s10.3-22.7,16.7-35.6c6.4-12.9,13.3-25.5,20.5-37.7C54.3,38.5,61,29.8,64.6,29.2c0.6-0.1,1.2-0.1,1.7,0.1c0.3,0.1,0.7,0.2,1.1,0.3
	c0.2,0,0.3-0.1,0.4-0.3c0.4-0.8,1.5-1.3,3.2-1.6c1.7-0.3,3.4-0.3,5.1,0.1c1.7,0.4,2.6,1,2.8,1.8c0.1,0.5-1.4,5.1-4.3,13.6
	c-10,28.5-16.7,48-20,58.6c3.8-6.6,9.3-15.6,16.5-26.7c7.2-11.2,14.9-22.4,23-33.7c10.6-14.6,17.1-22.2,19.6-22.6
	c1.3-0.2,2.6-0.2,3.9,0c2.7,0.3,5.3,0.2,8-0.2c0.7,0,1.4,0.2,2,0.6c0.5,0.3,0.9,0.7,1,1.3c0.1,0.4,0,0.9-0.2,1.3
	c-10.8,21.3-19.9,40.1-27,56.2s-11.5,26.9-12.8,32.3c4.4-1.8,10.3-8.4,17.6-20c0.2-0.4,0.4-0.8,0.7-1.2c0.1-0.2,0.3-0.4,0.4-0.6
	c0.6-1,1.3-0.6,2,1.3c0.4,1.1,0.6,1.9,0.8,2.3c0.1,0.4,0.3,0.9,0.5,1.4C110.3,93.7,110.4,94.1,110.4,94.4z M148,38.6
	c0.4,2.5-0.3,5.2-2.1,8.1c-1.9,2.9-4.1,4.6-6.6,5c-2.5,0.4-4-0.6-4.5-3.3c-0.4-2.8,0.3-5.7,2-8.1c1.4-2.5,3.8-4.3,6.7-4.9
	c1-0.2,2.1-0.1,3,0.5C147.3,36.6,147.9,37.5,148,38.6z M147.5,97.6c0.2,0.9,0.3,1.9,0.1,2.9c-1.5,4.9-4.4,9.2-8.3,12.4
	c-4.2,3.5-8,5.6-11.5,6.2c-3.3,0.6-6.7,0-9.5-1.9c-2.9-1.9-4.6-4-5-6.4c-0.4-2.4,0.2-6.1,1.7-11.1c1.6-5,3.2-9.7,4.9-14
	s2.5-6.6,2.5-6.9c-0.1-0.3-0.6-0.9-1.7-1.7s-1.6-1.4-1.7-1.9c-0.1-0.5,0.6-1.8,2.1-4.1c1.6-2.5,3.5-4.8,5.6-6.9
	c2.3-2.4,4.1-3.7,5.4-3.9c1.4-0.2,2.9,0.2,4,1.2c1.1,0.7,1.9,1.8,2.2,3c0.2,1-3.3,11.4-10.6,31.1c-0.1,0.3-0.3,0.9-0.8,1.9
	c-0.4,1-0.8,1.8-1,2.5c-0.2,0.6-0.5,1.4-0.8,2.3c-0.5,1.5-0.7,3.1-0.5,4.6c0.3,1.5,1.4,2,3.4,1.7c2.2-0.5,4.3-1.6,5.9-3.2
	c1.8-1.6,3.4-3.5,4.8-5.5c3.3-5.1,5.3-7.7,5.8-7.8C145.9,91.8,146.8,93.6,147.5,97.6z M210.1,0.6c0.7-0.2,1.5,0,2.1,0.4
	c0.5,0.3,0.9,0.9,1,1.5c0,1.1-0.3,2.2-0.7,3.2c-0.6,1.6-2,5.1-4.2,10.6c-2.2,5.4-3.9,9.7-5.1,12.8c-7.1,17.8-12.4,32.8-16.1,44.9
	s-5.3,19.3-4.9,21.6l0.1,0.5c0.3,1.8,1.1,2.6,2.4,2.3c1.7-0.5,3.2-1.4,4.4-2.7c1.6-1.4,3-3.1,4.2-4.8c1.1-1.6,2.3-3.3,3.5-5.1
	c1.2-1.8,1.9-2.8,2.1-3.1c0.3-0.3,0.7-0.5,1.1-0.6c0.7-0.1,1.3,0.3,1.7,1.2c0.5,1.2,0.8,2.5,1,3.9c0.3,1.1,0.3,2.2,0.2,3.4
	c-0.8,2.7-3.1,6.1-6.8,10.4c-3.7,4.3-7.4,6.7-11.3,7.4c-6.5,1.2-10.3-1-11.3-6.6c-0.6-3.4-0.1-8.2,1.5-14.2
	c-2.5,4.8-5.4,9.4-8.7,13.6c-5.8,7.1-11.1,11.1-16.2,12c-2.4,0.6-4.9-0.1-6.7-1.9c-1.7-1.7-2.8-4.4-3.5-8.1s0-8.4,2-14
	c2-5.7,4.8-11,8.3-15.8c3.5-4.8,7.7-9.2,12.5-12.9c4.7-3.7,9.3-5.9,13.7-6.7c1.4-0.2,3.2,0.3,5.4,1.7c0.9-2.2,2.5-6.7,4.9-13.3
	c7.5-19.9,12.6-32.1,15.4-36.7C203.6,3,206.2,1.2,210.1,0.6L210.1,0.6z M179,62.5c-6.2,2.6-11.7,6.7-16,11.9
	c-4.2,4.7-7.5,10.2-9.7,16.1c-1.8,5.3-2.6,8.7-2.4,10.2c0.3,1.4,0.7,2.1,1.3,2c2.6-0.5,8.1-7.5,16.3-21
	C172.4,75.5,175.9,69.1,179,62.5z M205.7,75.5l-0.3,0.1c-0.9,0.2-1.9,0.1-2.7-0.3c-0.8-0.3-1.5-1-1.6-1.9c-0.2-0.8,0-1.6,0.3-2.3
	c0.3-0.7,0.5-1.4,0.6-2.2c0-0.7,0.6-1.9,1.8-3.4c0.8-1.2,1.9-2.2,3.2-2.8c1-0.3,2.7-0.7,5.1-1.3c2.5-0.6,4.9-1.2,7.4-1.9
	c2.5-0.6,4.8-1.2,7.1-1.6c2.3-0.4,3.7-0.5,4.1-0.4c0.6,0.4,1.2,0.9,1.6,1.5c0.5,0.7,1,1.3,1.6,1.8c0.6,0.5,0.9,1.3,1,2
	c0.2,1-0.1,2-0.7,2.8c-0.6,0.8-1.5,1.4-2.4,1.8c-1,0.3-2,0.7-3.2,1c-1.2,0.4-2.5,0.8-4,1.2c-1.5,0.4-2.9,0.8-4.2,1.2
	c-1.3,0.4-2.8,1-4.5,1.6C212.5,73.9,209.1,74.8,205.7,75.5z M77,241.2c1.3-1.2,2.6-2.4,3.9-3.7c0.6-0.7,1.2-1.4,1.9-2.3
	c0.5-0.7,1.2-1.2,2-1.5c0.9-0.2,1.5,0.8,1.8,2.7c0.4,2-0.2,4.3-1.8,6.9c-1.6,2.7-3.7,5.1-6.2,7.1c-2.7,2.2-5.5,4.1-8.5,5.8
	c-6.1,3.5-11.4,5.7-15.9,6.5c-4.5,0.8-9.2,0-13.1-2.3c-4.1-2.2-6.9-6.2-7.6-10.7c-0.8-5-0.5-10.2,1-15.1c3-10.4,9.6-19.4,18.6-25.5
	c4.2-3,9.1-5.1,14.2-6c2.3-0.4,4.6-0.1,6.7,0.9c2,0.9,3.5,2.8,3.8,5.1c0.4,2.4-0.3,5.4-2,9.1c-1.8,3.7-3.8,5.8-6.2,6.2
	c-2.8,0.5-4.4-0.6-4.9-3.3c-0.1-0.7,0.3-2.1,1.3-4.1c1-2,1.4-3.3,1.3-4c-0.1-0.6-0.4-0.9-0.9-0.8c-2.7,0.6-5.2,1.9-7.3,3.8
	c-2.3,2-4.5,4.2-6.6,6.6c-2,2.3-3.7,4.7-5.3,7.3c-3.5,5.7-4.8,11.2-3.8,16.5c0.3,2,1.4,3.9,3,5.2c1.6,1.3,4.1,1.7,7.3,1.1
	c3.3-0.6,6.5-1.6,9.6-2.9c2.7-1.1,5.2-2.4,7.6-3.9C73.2,244.5,75.2,243,77,241.2z M127.1,196.1c3.3-0.6,5.2,0.3,5.6,2.5
	c0.3,1,0.1,2-0.4,2.8c-1.1,2-1.9,4.1-2.6,6.3c-1.3,3.5-2.6,8-4,13.4c-1.2,4.4-1.9,9-2.1,13.6c0,0.6,0,1.3,0.1,1.9
	c0.4,2.4,1.3,3.5,2.6,3.3c1.7-0.4,3.2-1.4,4.3-2.7c1.5-1.5,2.9-3.1,4.1-4.8c1.1-1.7,2.3-3.4,3.3-5.1c1.1-1.7,1.7-2.7,1.9-3
	c0.3-0.3,0.7-0.5,1.1-0.5c0.8-0.1,1.4,0.4,1.8,1.6c0.4,1.3,0.7,2.6,1,3.9c0.2,0.9,0.3,1.9,0.1,2.9c-0.8,2.7-3.1,6.2-6.8,10.4
	c-3.7,4.2-7.3,6.7-10.8,7.3c-3.5,0.6-6.3,0-8.3-1.8c-2-1.7-3.3-4.1-3.7-6.7c-0.5-2.3-0.4-4.7,0.1-7.1c-2.7,5.2-6.2,10-10.3,14.2
	c-4.1,4.1-7.6,6.4-10.6,6.9c-2.7,0.6-5.4,0.1-7.7-1.4c-2.8-1.8-4.5-4.7-5.2-8.6c-0.7-4.1-0.5-8.3,0.5-12.4c1.1-4.3,2.8-8.4,5-12.2
	c2.3-3.8,4.9-7.4,7.9-10.7c6.2-6.9,12.4-11,18.5-12c2-0.4,4-0.4,6,0.2c1.4,0.3,2.6,1.2,3.3,2.4c0.5-1.3,1.2-2.5,2.1-3.4
	C124.9,196.6,125.9,196.2,127.1,196.1L127.1,196.1z M119.6,204.9c-7.5,1.3-14.4,6.8-21,16.5c-2.5,3.8-4.4,7.8-5.9,12
	c-1.6,4.6-2.3,7.6-2.1,9.1s0.8,2.2,1.7,2.1c1.2-0.2,4.2-3.2,8.9-9c4.7-5.8,7.8-10,9.2-12.6C112.1,220.1,115.2,214.1,119.6,204.9z
	 M155.6,205.6c8.2-13.5,16-20.9,23.2-22.2c1.6-0.3,3.3,0,4.7,0.8c1.3,0.9,2.2,2.3,2.5,3.8c0.3,1.7-0.4,4.8-2.1,9.2
	c-1.7,4.4-3.4,8.2-4.9,11.3c-0.6,1.4-1.8,2.4-3.3,2.7c-1.2,0.3-2.5-0.1-3.5-0.9c-0.9-0.9-1.6-2.1-1.8-3.3c-0.5-3,0.5-6.7,3-11.1
	l-0.2-0.1c-1.4,0.4-4.5,3.8-9.2,10.4c-4.7,6.5-8.7,12.4-11.9,17.4c-3.2,5.1-6.6,11.2-10.2,18.3c-1,2.1-2,3.3-2.9,3.4
	c-1.3,0.1-2.6,0.1-3.9-0.2c-1-0.1-2.1-0.4-3-0.8c-0.4-0.3-0.7-0.7-0.7-1.2c-0.1-0.7-0.1-1.5,0.1-2.2c0.4-1.3,0.8-2.5,1.3-3.8
	c0.7-1.6,1.7-4.3,3-7.9c1.3-3.6,3.4-9.2,6.2-16.6c2.8-7.4,4.5-11.9,5-13.4c0.8-2.4,1.8-4.7,2.9-7c1.5-2.8,4.6-4.7,9.3-5.5
	c1-0.2,1.7,0.4,1.9,1.7c0.4,2-0.9,6.2-3.6,12.6L155.6,205.6z M223.6,179.9c0.5,2.9-0.3,5.9-2.2,8.2c-1.7,2.5-4.4,4.1-7.4,4.7
	c-0.7,0.2-1.4,0.1-2-0.4c-0.4-0.5-0.7-1.1-0.8-1.7c-0.1-0.7-0.2-1.5-0.1-2.2c-1.7,1-3.3,2.1-4.8,3.3c-2.2,1.9-4.3,3.9-6.2,6.1
	c-2.4,2.6-3.5,4.5-3.3,5.5c0.1,0.3,0.6,0.4,1.6,0.3c1.6-0.4,3.1-1.1,4.6-1.9c1.3-0.8,2.8-1.4,4.3-1.9c0.6-0.1,1.1-0.2,1.7-0.2
	c0.9,0.4,1.6,0.9,2.2,1.7c0.7,0.6,1.1,1.4,1.4,2.2c0.1,0.6-0.3,1.5-1.3,2.6c-1,1.2-2.1,2.1-3.5,2.9c-0.9,0.5-1.8,1-2.7,1.7
	c-8.3,6.8-12.3,11.1-11.9,13c0.6,3.4,3.8,4.6,9.6,3.6c4-0.8,7.6-2.7,10.6-5.5c2.7-2.4,5.2-4.9,7.5-7.6c2.2-2.5,3.6-4.1,4.2-4.7
	c0.4-0.5,0.9-0.8,1.4-1c1.1-0.2,1.9,1,2.4,3.5c0.4,1.7,0.5,3.4,0.4,5.1c-0.4,1.3-1.1,2.5-2.1,3.4c-8,9.2-16.2,14.6-24.5,16.1
	c-4.4,0.8-8.1,0.8-11,0.1c-5.3-1.4-8.3-4.3-9.1-8.9c-1.1-6,2.3-11.3,10.1-15.9c-1.5-0.3-2.8-1.1-3.7-2.3c-0.9-1.7-1.5-3.5-1.7-5.4
	c-0.5-2.6,0.3-5.5,2.1-8.7c1.9-3.3,4.5-6.2,7.5-8.6c6.9-5.5,13.4-8.8,19.4-9.8c1.5-0.2,3.1-0.2,4.6,0.3
	C222.2,177.5,223.3,178.5,223.6,179.9L223.6,179.9z M266.1,172.3c0.5,2.9-0.3,5.9-2.2,8.2c-1.7,2.5-4.4,4.1-7.4,4.7
	c-0.7,0.2-1.4,0.1-2-0.4c-0.4-0.5-0.7-1.1-0.8-1.7c-0.1-0.7-0.2-1.5-0.1-2.2c-1.7,1-3.3,2.1-4.8,3.3c-2.2,1.9-4.3,3.9-6.2,6.1
	c-2.4,2.6-3.5,4.5-3.3,5.5c0.1,0.3,0.6,0.4,1.6,0.3c1.6-0.4,3.1-1.1,4.6-1.9c1.3-0.8,2.8-1.4,4.3-1.9c0.6-0.1,1.1-0.2,1.7-0.2
	c0.9,0.4,1.6,0.9,2.2,1.7c0.7,0.6,1.1,1.4,1.4,2.2c0.1,0.6-0.3,1.5-1.3,2.6c-1,1.2-2.1,2.1-3.5,2.9c-0.9,0.5-1.8,1-2.7,1.7
	c-8.3,6.8-12.3,11.1-11.9,13c0.6,3.4,3.8,4.6,9.6,3.6c4-0.8,7.6-2.7,10.6-5.5c2.7-2.4,5.2-4.9,7.5-7.6c2.2-2.5,3.6-4.1,4.2-4.7
	c0.4-0.5,0.9-0.8,1.4-1c1.1-0.2,1.9,1,2.4,3.5c0.4,1.7,0.5,3.4,0.4,5.1c-0.4,1.3-1.1,2.5-2.1,3.4c-8,9.2-16.2,14.6-24.5,16.1
	c-4.4,0.8-8.1,0.8-11,0.1c-5.3-1.4-8.3-4.3-9.1-8.9c-1.1-6,2.3-11.3,10.1-15.9c-1.5-0.3-2.8-1.1-3.7-2.3c-0.9-1.7-1.5-3.5-1.7-5.4
	c-0.5-2.6,0.3-5.5,2.1-8.7c1.9-3.3,4.5-6.2,7.5-8.6c6.9-5.5,13.4-8.8,19.4-9.8c1.5-0.2,3.1-0.2,4.6,0.3
	C264.7,170,265.8,171,266.1,172.3L266.1,172.3z M287.4,182.3c8.2-13.5,16-20.9,23.2-22.2c1.6-0.3,3.3-0.1,4.7,0.8
	c1.3,0.9,2.2,2.3,2.5,3.8c0.3,1.7-0.4,4.8-2.1,9.2s-3.4,8.2-4.9,11.3c-0.6,1.4-1.8,2.4-3.3,2.7c-1.2,0.3-2.5-0.1-3.5-0.9
	c-0.9-0.9-1.6-2.1-1.8-3.3c-0.5-3,0.5-6.7,3-11.1l-0.2-0.1c-1.4,0.4-4.5,3.8-9.2,10.4c-4.7,6.5-8.7,12.4-11.9,17.4
	s-6.6,11.2-10.2,18.3c-1,2.1-2,3.3-2.9,3.4c-1.3,0.1-2.6,0.1-3.9-0.2c-1-0.1-2.1-0.4-3-0.8c-0.4-0.3-0.7-0.7-0.7-1.2
	c-0.1-0.7-0.1-1.5,0.1-2.2c0.4-1.3,0.8-2.5,1.3-3.8c0.7-1.6,1.7-4.3,3-7.9s3.4-9.2,6.2-16.6c2.8-7.4,4.5-11.9,5-13.4
	c0.8-2.4,1.8-4.7,2.9-7c1.5-2.8,4.6-4.7,9.3-5.5c1-0.2,1.7,0.4,1.9,1.7c0.4,2-0.9,6.2-3.6,12.6L287.4,182.3z"/>
</svg>
