<?xml version="1.0" encoding="utf-8"?>
<!-- Generator: Adobe Illustrator 28.1.0, SVG Export Plug-In . SVG Version: 6.00 Build 0)  -->
<svg version="1.1" id="グループ_1639" xmlns="http://www.w3.org/2000/svg" xmlns:xlink="http://www.w3.org/1999/xlink" x="0px"
	 y="0px" viewBox="0 0 214.2 130.6" style="enable-background:new 0 0 214.2 130.6;" xml:space="preserve">
<style type="text/css">
	.st0{fill:#F8F4EA;}
	.st1{fill:#FFFFFF;}
	.st2{fill:#5B8DCD;}
	.st3{fill:#B3B3B3;}
	.st4{fill:#E6E6E6;}
	.st5{fill:#CCCCCC;}
	.st6{fill:#CBDAEE;}
	.st7{fill:#A67C52;}
</style>
<g id="グループ_1611" transform="translate(13.892 0)">
	<g>
		<g id="グループ_1610">
			<path id="パス_816" class="st0" d="M187.1,40.5c0,0-3.2-39.2-52.8-40.5S76.7,30.7,63.1,35.5S17.3,35.8,5.9,58.9
				S-5.8,117.7,55.5,124l61.3,6.3C116.9,130.3,240.2,140.1,187.1,40.5"/>
		</g>
	</g>
</g>
<g id="グループ_1609" transform="translate(0 14.545)">
	<g>
		<g id="グループ_1608">
			<path id="パス_803" class="st1" d="M19.7,41.8h62.2v13.1H14.3c-2.7,0-4.5,1-4.1,3.8C10.2,58.6,2.5,41.8,19.7,41.8"/>
			<path id="パス_804" class="st2" d="M0,57.3c0-10,7.5-15.5,19.7-15.5c-6.2,0-9.4,4.1-9.4,9.6S12.7,61,20.5,61h11l-0.8-7.3
				l19.8,13.9L30.7,81.6l0.7-6.1H17.1C5.8,75.5,0,65.3,0,57.3"/>
			<rect id="長方形_1490" x="90.5" y="0" class="st3" width="41.4" height="78.4"/>
			<rect id="長方形_1491" x="97.8" y="7.3" class="st4" width="9.8" height="9.8"/>
			<rect id="長方形_1492" x="114.9" y="7.3" class="st4" width="9.8" height="9.8"/>
			<rect id="長方形_1493" x="98" y="23.1" class="st4" width="9.8" height="9.8"/>
			<rect id="長方形_1494" x="115.1" y="23.1" class="st4" width="9.8" height="9.8"/>
			<rect id="長方形_1495" x="98.1" y="38.9" class="st4" width="9.8" height="9.8"/>
			<rect id="長方形_1496" x="115.2" y="38.9" class="st4" width="9.8" height="9.8"/>
			<rect id="長方形_1497" x="98.3" y="54.7" class="st4" width="9.8" height="9.8"/>
			<rect id="長方形_1498" x="115.4" y="54.7" class="st4" width="9.8" height="9.8"/>
			<rect id="長方形_1499" x="102.1" y="69.2" class="st4" width="18.7" height="9.2"/>
			<rect id="長方形_1500" x="112.2" y="28.5" class="st5" width="41.4" height="54.7"/>
			<rect id="長方形_1501" x="117" y="33.5" class="st4" width="10.1" height="10.1"/>
			<rect id="長方形_1502" x="130.7" y="33.5" class="st4" width="10.1" height="10.1"/>
			<rect id="長方形_1503" x="117" y="48.4" class="st4" width="10.1" height="10.1"/>
			<rect id="長方形_1504" x="130.7" y="48.4" class="st4" width="10.1" height="10.1"/>
			<rect id="長方形_1505" x="117" y="62.9" class="st4" width="10.1" height="10.1"/>
			<rect id="長方形_1506" x="130.7" y="62.9" class="st4" width="10.1" height="10.1"/>
			<rect id="長方形_1507" x="144.5" y="33.5" class="st4" width="4.4" height="39.5"/>
			<rect id="長方形_1508" x="117" y="76.2" class="st4" width="14.9" height="7"/>
			<path id="パス_805" class="st0" d="M64.1,53.8c0,2.4-2,4.4-4.4,4.4s-4.4-2-4.4-4.4c0-2.4,2-4.4,4.4-4.4c0,0,0,0,0,0
				C62.2,49.3,64.1,51.3,64.1,53.8L64.1,53.8"/>
			<path id="パス_806" class="st0" d="M93.2,53.8c0,2.4-2,4.4-4.4,4.4s-4.4-2-4.4-4.4c0-2.4,2-4.4,4.4-4.4c0,0,0,0,0,0
				C91.3,49.3,93.2,51.3,93.2,53.8L93.2,53.8"/>
			<path id="パス_807" class="st6" d="M67.3,67.4l-4.7-4.4c0,0-1.3-2.8-4.1-2.2s-2.5,4.1-2.5,4.1L56.2,80l-4.1,14.5
				c-0.4,1,0.2,2.1,1.2,2.5c0,0,0.1,0,0.1,0c1.9,0.6,2.5-1.3,3.2-2.8s2.5-7.9,2.5-7.9l2.5,10.1c0.3,0.7,1.1,1.1,1.9,0.9
				c1.6-0.6,2.5-2.5,1.9-4.1c-0.6-1.9-2.5-13-2.5-13V68.8l2.5,2.7h8.9V68L67.3,67.4z"/>
			<path id="パス_808" class="st2" d="M81.2,67.4l4.7-4.4c0,0,1.3-2.8,4.1-2.2s2.5,4.1,2.5,4.1L92.3,80l4.1,14.5
				c0.4,1-0.2,2.1-1.2,2.5c0,0-0.1,0-0.1,0c-1.9,0.6-2.5-1.3-3.2-2.8s-2.5-7.9-2.5-7.9l-2.5,10.1c-0.3,0.7-1.1,1.1-1.9,0.9
				c-1.6-0.6-2.5-2.5-1.9-4.1c0.6-1.9,2.5-13,2.5-13V68.8l-2.5,2.7h-8.9V68L81.2,67.4z"/>
			<path id="パス_809" class="st7" d="M59.8,59.4c-3.1,0-5.7-2.5-5.7-5.7c0-3.1,2.5-5.7,5.7-5.7c3.1,0,5.7,2.5,5.7,5.7
				C65.5,56.9,63,59.4,59.8,59.4 M59.8,50.2c-1.9,0-3.5,1.6-3.5,3.5s1.6,3.5,3.5,3.5c1.9,0,3.5-1.6,3.5-3.5
				C63.4,51.8,61.8,50.2,59.8,50.2"/>
			<path id="パス_810" class="st7" d="M63,98.5c-1.7,0-2.4-1.7-2.7-2.5c-0.7-2.2-1.2-4.3-1.6-6.6c-0.5-2.4-1.2-6-1.7-6.6
				c-1.8-2-1.9-6.6-1.9-7.1V64c0-2.5,2-4.5,4.5-4.5c1.9,0,3.5,1.2,4.2,3l4.1,4.1h7c0.6,0,1.1,0.5,1.1,1.1s-0.5,1.1-1.1,1.1h-7.4
				c-0.3,0-0.6-0.1-0.8-0.3l-4.6-4.6c-0.1-0.1-0.2-0.3-0.3-0.5c-0.3-1-1.2-1.7-2.2-1.7c-1.3,0-2.4,1-2.4,2.3c0,0,0,0,0,0v11.8
				c0,1.6,0.4,4.6,1.3,5.6c0.9,1,1.4,3.5,2.3,7.6c0.4,2.1,0.9,4.2,1.5,6.2c0.5,1.2,0.7,1.2,0.9,1.1c0,0,0.1,0,0.1,0
				c0.7-0.2,1.2-0.9,1-1.7l-2.4-15.8c0-0.1,0-0.1,0-0.2V68.7c0-0.6,0.5-1.1,1.1-1.1c0.3,0,0.6,0.1,0.8,0.3l2.5,2.5h8.5
				c0.6,0,1.1,0.5,1.1,1.1s-0.5,1.1-1.1,1.1l0,0h-9c-0.3,0-0.6-0.1-0.8-0.3l-1-1v7.4l2.4,15.6c0.4,1.9-0.8,3.7-2.7,4.2l-0.1,0
				C63.4,98.5,63.2,98.5,63,98.5"/>
			<path id="パス_811" class="st7" d="M54.1,98.4c-0.3,0-0.6,0-0.8-0.1c-1.5-0.6-2.4-2.2-2.1-3.8l4.1-17c0.2-0.6,0.7-0.9,1.3-0.7
				c0.5,0.2,0.9,0.7,0.8,1.2l-4.1,17c-0.1,0.5,0.2,1,0.7,1.3c0.1,0,0.1,0,0.2,0c0.5,0,0.9-0.4,1-0.9l2.9-9.9
				c0.2-0.6,0.8-0.9,1.3-0.7s0.9,0.8,0.7,1.3l-2.9,9.9C56.8,97.4,55.5,98.4,54.1,98.4"/>
			<path id="パス_812" class="st7" d="M88.9,59.4c-3.1,0-5.7-2.5-5.7-5.7c0-3.1,2.5-5.7,5.7-5.7c3.1,0,5.7,2.5,5.7,5.7l0,0
				C94.5,56.9,92,59.4,88.9,59.4 M88.9,50.2c-1.9,0-3.5,1.6-3.5,3.5c0,1.9,1.6,3.5,3.5,3.5c1.9,0,3.5-1.6,3.5-3.5
				C92.4,51.8,90.8,50.2,88.9,50.2"/>
			<path id="パス_813" class="st7" d="M85.7,98.5c-0.2,0-0.4,0-0.7-0.1c-1.9-0.4-3.2-2.3-2.8-4.2c0,0,0,0,0,0l2.4-15.6v-7.4l-1,1
				c-0.2,0.2-0.5,0.3-0.8,0.3h-8.2c-0.6,0-1.1-0.5-1.1-1.1s0.5-1.1,1.1-1.1h7.7l2.5-2.5c0.4-0.4,1.1-0.4,1.5,0
				c0.2,0.2,0.3,0.5,0.3,0.8v10.1c0,0.1,0,0.1,0,0.2l-2.4,15.7c-0.2,0.8,0.3,1.6,1.1,1.8c0,0,0,0,0,0c0.3,0.1,0.5,0.1,1-1.1
				c0.6-2,1.1-4.1,1.5-6.2c0.8-4.1,1.3-6.6,2.3-7.6c0.9-1,1.3-4,1.3-5.6V64c0-1.3-1.1-2.3-2.4-2.3c-1,0-1.9,0.7-2.2,1.7
				c0,0.2-0.1,0.3-0.3,0.5l-4.6,4.6c-0.2,0.2-0.5,0.3-0.8,0.3h-6.6c-0.6,0-1.1-0.5-1.1-1.1s0.5-1.1,1.1-1.1h6.1l4.1-4.1
				c0.8-2.3,3.4-3.5,5.7-2.7c1.8,0.6,2.9,2.3,3,4.2v11.8c0,0.5-0.1,5.1-1.9,7.1c-0.5,0.6-1.3,4.2-1.7,6.6c-0.4,2.2-0.9,4.4-1.6,6.6
				C88.1,96.8,87.5,98.5,85.7,98.5"/>
			<path id="パス_814" class="st7" d="M94.6,98.4c-1.4,0-2.7-1-3.1-2.4l-2.9-9.8c-0.1-0.6,0.2-1.2,0.8-1.3
				c0.5-0.1,1.1,0.2,1.3,0.7l2.9,9.9c0.1,0.6,0.7,0.9,1.2,0.8c0.5-0.2,0.8-0.8,0.7-1.3l-4.1-16.9c-0.1-0.6,0.3-1.1,0.8-1.3
				c0.5-0.1,1.1,0.2,1.2,0.8l4.1,17c0.3,1.6-0.6,3.2-2.1,3.8C95.2,98.4,94.9,98.5,94.6,98.4"/>
			<path id="パス_815" class="st7" d="M74.2,72.5c-0.6,0-1.1-0.5-1.1-1.1v-3.8c0-0.6,0.5-1.1,1.1-1.1s1.1,0.5,1.1,1.1v3.8
				C75.2,72,74.8,72.5,74.2,72.5"/>
		</g>
	</g>
</g>
</svg>
