<?xml version="1.0" encoding="utf-8"?>
<!-- Generator: Adobe Illustrator 28.1.0, SVG Export Plug-In . SVG Version: 6.00 Build 0)  -->
<svg version="1.1" id="グループ_1613" xmlns="http://www.w3.org/2000/svg" xmlns:xlink="http://www.w3.org/1999/xlink" x="0px"
	 y="0px" viewBox="0 0 381.6 307.7" style="enable-background:new 0 0 381.6 307.7;" xml:space="preserve">
<style type="text/css">
	.st0{fill:#F8F4EA;}
	.st1{fill:#B3B3B3;}
	.st2{fill:#F8E4B3;}
	.st3{fill:#CCCCCC;}
	.st4{fill:#E6E6E6;}
	.st5{fill:#8C6239;}
	.st6{fill:#5B8DCD;}
	.st7{fill:#A67C52;}
	.st8{fill:none;stroke:#5B8DCD;stroke-width:10.254;stroke-linecap:round;stroke-linejoin:round;}
</style>
<g>
	<g id="グループ_1612">
		<path id="パス_817" class="st0" d="M366.1,74.8c-13.3-23.8-32.6-46.2-55-61.1C288.8-1.1,256.1-2.6,230.8,3
			c-37.1,8.3-71.1,34.1-83.3,72c-9,27.9-36.3,46.8-59.9,60.4c-25.7,14.7-56.9,20.2-74.5,46.7c-14.4,21.7-19.1,52.5-2.8,74.3
			c16.6,22.3,46.3,31.5,71.7,37.1c35.1,7.6,71,14,107,14.2c30.8,0.2,60.9-2.6,82.3-28.3c9.9-11.9,17.5-25.6,26.6-38.1
			c12.4-16.9,28.3-28.5,47.2-36.4c6.1-2.6,12.5-4.7,17.8-8.8c7.5-6,11.7-15.6,13.9-25.1c3.3-14.2,5.4-29.5,4.9-44.2
			C380.9,108.3,375.1,90.8,366.1,74.8"/>
		<rect id="長方形_1511" x="192.8" y="200.6" class="st1" width="52.7" height="52.7"/>
		<rect id="長方形_1512" x="196.2" y="103.5" class="st2" width="22.6" height="22.6"/>
		<rect id="長方形_1513" x="138.4" y="215.7" class="st3" width="52.7" height="37.7"/>
		<rect id="長方形_1514" x="84.9" y="233.2" class="st4" width="52.7" height="22.6"/>
		<rect id="長方形_1515" x="32.2" y="192.2" class="st5" width="30.1" height="20.9"/>
		<path id="パス_818" class="st6" d="M82.4,152.9c0,0-9.2-0.8-13.4,1.7s-16.7,21.8-16.7,21.8s-6.7,10-5.9,12.6s1.7,5,4.2,3.3
			s20.9-26.8,20.9-26.8l-3.3,49.4c0,0-2.5,19.2-0.8,20.9s0.8,3.3,5,3.3s5.9-10.9,6.7-16.7s3.3-21.8,3.3-21.8s19.2,1.7,20.1,3.3
			s0,16.7,2.5,18.4s5,1.7,6.7-1.7s3.3-26.8,2.5-27.6s-21.8-5.9-21.8-5.9l2.5-17.6l16.7,5l15.1-6.7c0,0,2.5-5-1.7-6.7
			s-14.2,4.2-14.2,4.2s-15.1-10.9-17.6-11.7S82.4,152.9,82.4,152.9"/>
		<path id="パス_819" class="st0" d="M97.4,134.5c0,6.5-5.2,11.7-11.7,11.7c-6.5,0-11.7-5.2-11.7-11.7c0-6.5,5.2-11.7,11.7-11.7
			S97.4,128,97.4,134.5"/>
		<path id="パス_820" class="st7" d="M65.2,212.4v-19.9c0-1.2-1-2.2-2.2-2.2h-8l13.5-18.9l-3.7,62.9c-0.2,3.9,2.8,7.2,6.7,7.4
			c3.6,0.2,6.7-2.3,7.3-5.9l5.3-33.3l15.1,2.1c1,0.1,1.8,1,1.8,2.1v12.4c0,3.6,2.9,6.5,6.5,6.5c3.4,0,6.2-2.6,6.5-6l1.8-23.6
			c0.3-3.2-1.8-6.1-4.9-6.8l-16.1-4l1.4-13.4l13,4.5c1.5,0.5,3,0.4,4.5-0.1l12.5-5.2c3.1-1.3,4.5-4.8,3.2-7.8c0-0.1-0.1-0.1-0.1-0.2
			c-1.2-2.5-4-3.9-6.7-3.3l-11,2.4c-0.5,0.1-1,0-1.4-0.3L98,153.6c-3-2-6.6-3-10.2-3H76c-6.5,0-12.6,3.4-16,8.9l-16.2,26.3
			c-0.8,1.3-1.1,3-0.7,4.5h-9.9c-1.2,0-2.2,1-2.2,2.2v19.9c0,1.2,1,2.2,2.2,2.2H63C64.3,214.6,65.2,213.6,65.2,212.4 M48.3,190.3
			c-0.7-0.3-1.1-1.1-0.9-1.8c0-0.1,0.1-0.2,0.1-0.3l16.2-26.3c2.6-4.2,7.2-6.8,12.2-6.8h11.7c2.8,0,5.5,0.8,7.8,2.3l12.5,8.1
			c1.4,0.9,3.1,1.2,4.8,0.9l11-2.4c0.7-0.2,1.5,0.2,1.8,0.9c0.4,0.8,0,1.7-0.8,2.1c0,0,0,0-0.1,0l-12.5,5.2c-0.4,0.2-0.9,0.2-1.3,0
			l-15.6-5.4c-1.2-0.4-2.4,0.2-2.8,1.4c-0.1,0.2-0.1,0.3-0.1,0.5l-2,18.1c-0.1,1.1,0.6,2.1,1.7,2.4l17.9,4.5c1,0.2,1.7,1.2,1.6,2.2
			l-1.8,23.6c-0.1,1.2-1.1,2-2.3,1.9c-1.1-0.1-1.9-1-1.9-2.1v-12.4c0-3.2-2.4-6-5.6-6.4l-17.3-2.4c-1.2-0.2-2.3,0.7-2.5,1.8
			l-5.7,35.4c-0.2,1.4-1.6,2.4-3,2.2c-1.3-0.2-2.3-1.4-2.2-2.8l4.1-70.5c0.1-1.2-0.9-2.3-2.1-2.3c-0.8,0-1.5,0.3-1.9,0.9l-19.4,27
			c-0.2,0.3-0.6,0.5-1,0.6h-0.4C48.5,190.3,48.4,190.3,48.3,190.3 M60.8,210.2H35.4v-15.5h13.1c0.2,0,0.4,0,0.6,0h11.7V210.2z"/>
		<path id="パス_821" class="st7" d="M245.9,198h-24.1v-95.8c0-1.2-1-2.2-2.3-2.2c-1.2,0-2.1,1-2.2,2.2v0.7h-22.8
			c-1.2,0-2.2,1-2.2,2.2c0,0,0,0,0,0v21c0,1.2,1,2.2,2.2,2.2h22.8V198h-24.5c-1.2,0-2.2,1-2.2,2.2c0,0,0,0,0,0v13.2h-50.8
			c-1.2,0-2.2,1-2.2,2.2c0,0,0,0,0,0V229H86.8c-1.2,0-2.2,1-2.2,2.2c0,0,0,0,0,0v22.1H37.6c-1.2,0-2.2,1-2.2,2.3
			c0,1.2,1,2.1,2.2,2.2h208.2c1.2,0,2.2-1,2.2-2.2v-55.4C248.1,198.9,247.1,198,245.9,198 M196.7,107.3h20.6v16.6h-20.6V107.3z
			 M137.6,253.3H89v-19.9h48.6V253.3z M142,217.7h48.6v35.6H142L142,217.7z M243.6,253.3H195v-50.9h24.2c0.2,0,0.4,0,0.5,0h23.8
			L243.6,253.3z"/>
		<path id="パス_822" class="st7" d="M85.8,148.6c7.7,0,13.9-6.2,13.9-13.9c0-7.7-6.2-13.9-13.9-13.9s-13.9,6.2-13.9,13.9
			C71.9,142.4,78.1,148.6,85.8,148.6 M85.8,125.2c5.2,0,9.5,4.3,9.5,9.5s-4.3,9.5-9.5,9.5s-9.5-4.3-9.5-9.5
			C76.3,129.5,80.6,125.2,85.8,125.2"/>
		<line id="線_10" class="st8" x1="250.1" y1="25.1" x2="227.9" y2="63.6"/>
		<line id="線_11" class="st8" x1="297.2" y1="72.2" x2="258.7" y2="94.4"/>
		<line id="線_12" class="st8" x1="314.4" y1="136.5" x2="270" y2="136.5"/>
		<line id="線_13" class="st8" x1="258.3" y1="13.7" x2="257.3" y2="15.5"/>
		<line id="線_14" class="st8" x1="311.5" y1="66.9" x2="309.7" y2="67.9"/>
		<line id="線_15" class="st8" x1="330.9" y1="139.4" x2="328.8" y2="139.4"/>
	</g>
</g>
</svg>
