<svg xmlns="http://www.w3.org/2000/svg" width="391.2" height="90.6" viewBox="0 0 391.2 90.6">
  <path id="パス_1321" data-name="パス 1321" d="M69.8-53.6c0-1.5-1.3-6.6-1.7-8.4-1.3-5.4-1.6-7.8-3.9-7.8-.8,0-6.9.6-6.9,2.7a8.469,8.469,0,0,0,.4,1.7,86.724,86.724,0,0,1,2.8,12c.2,1.3.3,2.6,2.7,2.6C65-50.8,69.8-51.3,69.8-53.6ZM83.9-71.4c-.8,0-1.1.9-1.3,1.6C81-63.9,77.9-58.3,74.9-53a3.672,3.672,0,0,0-.9,2c0,1.7,5.5,3.8,6.9,3.8,1.1,0,1.6-1,2.1-1.8a115.3,115.3,0,0,0,7.7-15.8A2.1,2.1,0,0,1,92-66.1c.5-.1,1.7-.3,1.7-1.1,0-1-1.3-1.5-2-1.7C90.3-69.3,84.8-71.4,83.9-71.4Zm-31,20.3c0-1.3-2.2-7.5-2.8-9.1-1.9-5.3-2.9-7.3-4.4-7.3-.9,0-6.4,1.4-6.4,3.6a4.939,4.939,0,0,0,.5,1.6c1.1,2.4,2.7,6.4,3.5,8.9,1.3,4.3,1.4,5.6,3.2,5.6C47.4-47.8,52.9-48.9,52.9-51.1ZM92.7-75.4c0-.9-1.2-2.2-1.7-2.8-.6-.7-1.1-1.5-1.7-2.3C88-82.3,86.8-84,85.8-84a3.708,3.708,0,0,0-1.4.4C74-80,53.1-78.3,41.9-78.2c-2.1,0-4-.2-4,1.8A15.047,15.047,0,0,0,39-71.3c.6,1.2,1,2.1,2.8,2.1,15.1-.4,30.5-1.9,45.2-5.7a11.27,11.27,0,0,1,1.8-.3,4.191,4.191,0,0,1,1.5.4,4.961,4.961,0,0,0,1.3.3A1.009,1.009,0,0,0,92.7-75.4Zm-11.3,46c3.5,0,7.1.2,10.1.2,2.4,0,2.3-1.2,2.3-4.9,0-3.5.1-4.7-2.3-4.7-3.4,0-6.7.2-10.1.2H70.9c-1.9,0-2.8-.7-2.8-2.7v-1c0-1.6.1-2.6,1.2-3.4.7-.5,1.4-.8,1.4-1.4,0-1.1-1.7-1.2-2.5-1.3-1.9-.2-6.7-.6-8.4-.6-.9,0-1.8.2-1.8,1.3,0,.3.1.6.1.9a34.433,34.433,0,0,1,.3,5.5c-.1,2-.8,2.7-2.8,2.7H48.5c-3,0-5.9,0-8.9-.2-1.5-.1-2.1-.7-2.3-2.3-.2-1.1-.3-3.4-1.9-3.4a48.6,48.6,0,0,0-5.7,2.3,2.354,2.354,0,0,1-.8.2c-1.2,0-1.5-.9-1.6-1.9v-9.6c0-1.9.6-2.6,2.5-2.8.9,0,4.6.2,5.2.2,2.1,0,2-1.3,2-5,0-3.4.1-4.7-2-4.7-.2,0-4.6.1-5.2.2-1.9-.2-2.5-1-2.5-2.8v-6.8c0-2.8.1-4.1,1.1-4.7.7-.5,1.4-.8,1.4-1.6,0-1.2-1.6-1.3-2.5-1.4-1.9-.1-6.6-.4-8.2-.4-1.1,0-2,.1-2,1.4,0,.3.1.7.1.9a67.806,67.806,0,0,1,.3,7.8v4.8c0,1.9-.8,2.8-2.8,2.8-2.2.1-4.7-.2-6.3-.2-2.3,0-2.1,1.5-2.1,4.9,0,3.3-.2,4.8,2.1,4.8,1.8,0,4.2-.3,6.3-.2,2,0,2.8.8,2.8,2.8v13.1c0,2-.5,2.8-2.5,3.5a85.578,85.578,0,0,1-8.3,2.3C5.6-34.3,4-34.2,4-33c0,.8,1.7,6.3,2,7.4.6,1.9.9,3.6,2.2,3.6,1,0,1.3-1.2,1.6-2,.3-.9.7-1,2.9-1.8a8.507,8.507,0,0,1,3.1-.9c1.2,0,1.7.9,1.7,2v13.8c0,4.9.2,6.5-4.1,6.5-1.4,0-2.8-.2-4.1-.2C7.5-4.6,7-3.6,7-2c0,8.3,3,8,5.6,8C23.9,6,27.4,3.2,27.4-4.9c0-2.1-.1-4.3-.1-6.4V-28.7c0-2.1.5-2.9,2.4-3.8,1.4-.7,2.9-1.3,4.3-2a2.354,2.354,0,0,1,.8-.2c.8,0,1.2.7,1.3,1.4,0,2.9-.1,4.1,2.4,4.1,2.8,0,6.5-.2,10-.2h.7c.8,0,1.6.3,1.6,1.3a1.613,1.613,0,0,1-.3.9A91.051,91.051,0,0,1,31.4-7.1c-.6.5-1.5,1.1-1.5,2,0,1.8,4,6.7,5.7,6.7,1,0,2.2-1.1,2.9-1.7A96.852,96.852,0,0,0,57-20.5a.755.755,0,0,1,.7-.4c.5,0,.7.4.7.9V-7.9c0,3.8-.2,7.5-.2,11.3,0,3.1,1.1,3.2,5.2,3.2,3.9,0,4.9-.1,4.9-3.2,0-3.8-.2-7.5-.2-11.3V-19.6c0-.5.2-1,.7-1a1.039,1.039,0,0,1,.8.4A132.119,132.119,0,0,0,83.4-3.3c1,1,3.7,4,5.1,4,1.7,0,6.3-4.2,6.3-6.1,0-.9-.9-1.6-1.5-2.1A138.375,138.375,0,0,1,75.5-27.2a1.929,1.929,0,0,1-.3-1c0-.9.8-1.2,1.5-1.2Zm73.9-15.5a2.862,2.862,0,0,1,2.8-2.8h17.6c1.7.2,2.7,1.1,2.7,2.8v7.8c0,1.7-1,2.6-2.7,2.8H158.1a2.862,2.862,0,0,1-2.8-2.8Zm-13.1-2.8c2,0,2.8.8,2.8,2.8v7.8c0,2-.8,2.8-2.8,2.8H127.7c-1.9,0-2.6-.8-2.7-2.7.1-2.2.1-4.5.1-6.7v-1.2c0-2,.8-2.8,2.8-2.8ZM158.1-57a2.862,2.862,0,0,1-2.8-2.8v-7.6a2.8,2.8,0,0,1,2.8-2.8h17.6c1.7.2,2.7,1,2.7,2.8v7.6c0,1.7-1,2.6-2.7,2.8ZM145-59.8a2.8,2.8,0,0,1-2.8,2.8H127.9a2.862,2.862,0,0,1-2.8-2.8v-7.6a2.8,2.8,0,0,1,2.8-2.8h14.3a2.734,2.734,0,0,1,2.8,2.8Zm-2.8,34.7c2,0,2.8.8,2.8,2.7v8.7c0,4.9-.2,9.8-.2,14.7,0,3.1,1.1,3.2,5.4,3.2s5.4-.1,5.4-3.2c0-4.9-.3-9.8-.3-14.7v-8.7c0-1.9.8-2.7,2.8-2.7h17.6c1.9,0,2.7.8,2.7,2.7v12.1c0,5-.2,6-5,6-1.6,0-3.1-.2-4.7-.2-1.8,0-2.2,1-2.2,2.6,0,8.3,4,8,5.8,8,4.2,0,9.7-.1,13.2-2.7,3-2.3,3.4-6,3.4-9.5,0-2.5-.2-5.1-.2-7.6V-65.4c0-3.2.1-6.3.1-9.5,0-4.1-1.6-5.2-5.6-5.2-2.8,0-5.7.2-8.6.2H128.9c-2.9,0-5.7-.2-8.6-.2-4,0-5.6,1.2-5.6,5.2,0,3.2.2,6.3.2,9.5v21.1c0,15.8-.6,29.2-9.6,42.9a3.287,3.287,0,0,0-.7,1.6c0,2,5.2,5.7,7,5.7,1.5,0,2.5-1.4,3.3-2.5,5.2-7.7,7.8-16.8,9-25.9.3-2,1.2-2.6,3.1-2.6Zm76.4,14.7c0,4.4-.2,8.8-.2,13.2,0,2.6,1,3.5,5.1,3.5,3.7,0,5.1-.5,5.1-3.2,0-4.5-.2-9-.2-13.5V-74.3c0-2.9.1-4.6,1.2-5.5.6-.5,1.4-1,1.4-1.8,0-1.3-1.7-1.4-2.6-1.5-1.7-.2-6.1-.6-7.7-.6-1.5,0-2.3.3-2.3,1.8,0,.6.2,7,.2,11.7ZM210-65.5c-1.4,0-1.5.9-1.6,3.4-.1.9-.1,2-.2,3.4a91.5,91.5,0,0,1-3.8,18,4.3,4.3,0,0,0-.2,1.2c0,2,3.5,3.2,5.2,3.2s2.5-1,4.1-9.2c1.1-5.3,1.4-9,2.1-14.2a2.166,2.166,0,0,1,1.4-2.1c.4-.3.9-.7.9-1.2,0-1.3-1.8-1.5-3.7-1.8A30.67,30.67,0,0,0,210-65.5Zm44.6,45.2a1.736,1.736,0,0,1,1.9-1.9h18.3a1.736,1.736,0,0,1,1.9,1.9v.6a1.813,1.813,0,0,1-1.9,2H256.5a1.813,1.813,0,0,1-1.9-2Zm1.9-8.5a1.813,1.813,0,0,1-1.9-2v-.5a1.736,1.736,0,0,1,1.9-1.9h18.3a1.736,1.736,0,0,1,1.9,1.9v.5a1.813,1.813,0,0,1-1.9,2ZM276.7-7.1c0,3.6-.3,3.8-4.5,3.8-1.4,0-2.8-.2-4.3-.2-1.6,0-1.8,1.4-1.8,3.3,0,5.7,2,6.3,7.1,6.3,10.8,0,13.7-1.5,13.7-10.2,0-2.5-.2-4.9-.2-7.3V-27.1c0-2.8.2-5.5.2-8.3,0-3.9-1-5.2-5-5.2-2.5,0-5,.1-7.5.1H257c-2.5,0-5-.1-7.5-.1-4,0-4.9,1.4-4.9,5.3,0,2.8.2,5.5.2,8.3V-9.7c0,4.1-.3,8.3-.3,12.5,0,3.3,1.3,3.3,5.3,3.3,4.1,0,5-.1,5-3.7s-.3-7.2-.2-10.7c0-2,.8-2.8,2.8-2.8H274c1.9,0,2.7.8,2.7,2.8ZM251.5-75.4c-3.3,0-6.5-.1-9.8-.1-2.2,0-2.1.8-2.1,3.7s0,3.8,2.1,3.8c3.2,0,6.5-.2,9.8-.2h7.2c1.4,0,1.9.5,1.9,1.9v.8c0,1.3-.5,1.9-1.9,1.9h-4c-3.3,0-6.6-.2-10-.2-2.2,0-2.1.7-2.1,3.4,0,2.6-.1,3.4,2.1,3.4,3.4,0,6.7-.2,10-.2h4c1.4,0,1.9.6,1.9,2v1c0,1.4-.5,1.9-1.9,1.9h-7.9c-9.4,0-9.7.2-10.1-1.9a73.187,73.187,0,0,0-2.8-8.7c-1.6-4.4-2.1-6.1-3.8-6.1-.9,0-4.6,1-4.6,2.7a4.939,4.939,0,0,0,.5,1.6,91.536,91.536,0,0,1,3.4,11.3c.4,1.6.5,2.7,2.6,2.5,1,0,1.6.3,1.6,1.4,0,3.7-.1,4.5,2.2,4.5,3.7,0,7.3-.2,11-.2h30.7c3.7,0,7.3.2,11,.2,2.2,0,2.1-.8,2.1-3.7,0-3,.1-3.8-2.1-3.8-3.7,0-7.3.2-11,.2h-9.1c-1.3,0-1.8-.5-1.8-1.9v-1.1c0-1.3.5-1.9,1.9-1.9h5.1c3.3,0,6.6.2,10,.2,2.2,0,2.1-.8,2.1-3.4s.1-3.4-2-3.4c-3.4,0-6.8.2-10.1.2h-5.2c-1.3,0-1.8-.6-1.8-1.9v-.8c0-1.4.5-1.9,1.9-1.9h8c3.3,0,6.6.2,9.9.2,2,0,2-.9,2-3.8s.1-3.7-2.1-3.7c-3.3,0-6.5.1-9.8.1h-7.1c-1.9,0-2.8-.6-2.7-2.6a2.2,2.2,0,0,1,1.2-2c.5-.3,1.3-.7,1.3-1.5,0-.9-1-1-1.7-1.1-1.2-.2-8.3-.7-9.5-.7-1,0-1.8.2-1.8,1.5a1.7,1.7,0,0,0,.1.7l.3,3.1c-.1,1.9-.9,2.6-2.8,2.6ZM376-21.8a50.023,50.023,0,0,1-4.3-11.1v-.7c0-1.4,1-1.9,2.2-1.9h5.6c1.7,0,2.8.2,2.8,1.8,0,2.9-2.4,9-3.7,11.7-.3.5-.6,1-1.3,1C376.7-21,376.4-21.4,376-21.8ZM362.3-4.5c-.1-1.8-.1-3.7-.1-5.6V-33.6c.1-1,.3-1.6,1.3-1.8a.969.969,0,0,1,.7.8,59.2,59.2,0,0,0,6.9,20.5,4.688,4.688,0,0,1,.6,2.1,3.333,3.333,0,0,1-.9,2.1,49.175,49.175,0,0,1-6.6,6.3,1.4,1.4,0,0,1-.9.3C362.6-3.3,362.3-3.8,362.3-4.5Zm17.5,2.2c1.8,1.9,8.5,8.1,11,8.1,2.2,0,4.4-4.7,4.4-7,0-1-.5-1.3-1.3-1.8a45.379,45.379,0,0,1-9.1-7.1,4,4,0,0,1-1-2.3,4.486,4.486,0,0,1,.5-1.9,75.376,75.376,0,0,0,6.6-17.3,50.014,50.014,0,0,0,1.3-7.4,5.681,5.681,0,0,0-1.4-3.7c-1.3-1.4-2.8-1.6-4.6-1.6-2.3,0-4.7.1-7,.1H365c-2,0-2.8-.8-2.8-2.8V-67.3c0-1.9.8-2.8,2.8-2.8h12.3c1.9,0,2.8.9,2.8,2.8v6c0,2.9-.5,3.9-3.7,3.9-1.3,0-2.6-.2-3.7-.2-1.6,0-1.8.9-1.8,2.2,0,6.6,1.7,7.5,5.2,7.5a23.56,23.56,0,0,0,9.8-2c3.3-1.6,3.8-4.3,3.8-7.7,0-2.2-.1-4.5-.1-6.7v-3c0-2.7.2-4.8.2-6.5,0-4.1-.8-5.6-5.3-5.6-2.3,0-4.5.2-6.8.2H364.2c-2.1,0-4.2-.2-6.3-.2-3.7,0-5.2,1.2-5.2,4.9,0,3,.2,6,.2,8.9v55.5c0,4.6-.3,9.1-.3,13.6,0,2.9,1,2.9,4.9,2.9s4.9,0,4.9-2.8v-1c.1-.4.3-.8.8-.8a1.08,1.08,0,0,1,.7.3c.9,1,2.6,2.6,4,2.6,2.2,0,6.9-5.2,8.5-7a2.588,2.588,0,0,1,1.7-.9A2.4,2.4,0,0,1,379.8-2.3ZM332.2-48.7c1.1.1,2.1.5,2.1,1.8,0,.3-.1.6-.1.8a82.139,82.139,0,0,1-2.9,7.8c-.8,1.8-1.8,2.3-3.8,2.3h-5.1c-.5-.1-.5-.3-.5-.4,0-.2.1-.3.3-.5.8-.3,1.7-.8,1.7-1.8,0-.8-1.4-4.1-2.2-6.2a11.431,11.431,0,0,1-.6-1.4,1.884,1.884,0,0,1-.2-.8c0-1.1.8-1.5,1.8-1.6Zm10.6,4.8a1.663,1.663,0,0,1,1.4-1c.6-.1,1.4-.2,1.4-1,0-1-1.1-1.4-2.7-1.9a.4.4,0,0,1-.2-.4.366.366,0,0,1,.4-.4c1.6.1,3.2.2,4.8.2,2.5,0,2.4-1.3,2.4-4.6,0-3.4.1-4.6-2.4-4.6-3.5,0-6.9.2-10.4.2h-1.8c-2,0-2.8-.9-2.8-2.8v-1.7c0-2,.8-2.8,2.8-2.8,2.8-.1,5.6.2,8.5.2,2.4,0,2.3-1.4,2.3-4.6,0-3.4.1-4.6-2.4-4.6-2.8,0-5.6.3-8.4.2-1.9,0-2.8-.8-2.8-2.8-.1-2.1.1-3.1,1.1-3.9.7-.5,1.2-.8,1.2-1.4,0-1.1-1.4-1.2-2.2-1.3-1.4-.2-7-.7-8.2-.7-.9,0-1.6.2-1.6,1.3v1a45.509,45.509,0,0,1,.4,5.2c-.2,1.9-1,2.6-2.8,2.6-2.9.1-5.8-.2-8.7-.2-2.5,0-2.4,1.3-2.4,4.6,0,3.2-.2,4.6,2.4,4.6,2.9,0,5.8-.3,8.7-.2,2,0,2.8.8,2.8,2.8v1.7c0,1.9-.8,2.8-2.8,2.8h-2.3c-3.4,0-6.9-.2-10.3-.2-2.6,0-2.5,1.3-2.5,4.6,0,3.2-.1,4.6,2.5,4.6,1.6,0,3.1-.2,4.7-.2a.43.43,0,0,1,.4.4c0,.2-.1.3-.3.4-.6.4-1.3.9-1.3,1.7a50.256,50.256,0,0,0,2.6,6.6c.2.4.3.8.4,1a2.354,2.354,0,0,1,.2.8c0,1.1-.8,1.5-1.8,1.6-1.1,0-2.2-.1-3.4-.1-2.5,0-2.4,1.3-2.4,4.6,0,3.1-.2,4.6,2.4,4.6,3,0,6-.3,9.1-.3h1.6c1.9,0,2.8.9,2.8,2.8v2.3c0,2-.9,2.8-2.8,2.8h-.3c-2.9,0-5.8-.2-8.7-.2-2.5,0-2.4,1.5-2.4,4.6,0,3.4,0,4.7,2.5,4.7,2.9,0,5.8-.2,8.6-.2h.3c1.9,0,2.8.8,2.8,2.7.1,3.7-.3,7.4-.3,11,0,3.1,1,3.2,5,3.2,4.1,0,5-.1,5-3.1,0-3.7-.3-7.4-.2-11.1.1-1.9.8-2.7,2.7-2.7h.9c2.9,0,5.8.2,8.7.2,2.5,0,2.4-1.5,2.4-4.7,0-3.1.1-4.6-2.4-4.6-2.9,0-5.8.2-8.7.2h-.9c-1.9,0-2.7-.8-2.7-2.8v-2.3c0-1.9.8-2.8,2.7-2.8h2c3,0,6,.3,9.1.3,2.6,0,2.5-1.3,2.5-4.7,0-3.2.1-4.5-2.5-4.5-1.4,0-2.9.1-4.4.1-1,0-1.8-.4-1.8-1.5a1.884,1.884,0,0,1,.2-.8C341.3-40.2,342-42.1,342.8-43.9Z" transform="translate(-4 84)" fill="#396cae"/>
</svg>
