<?xml version="1.0" encoding="utf-8"?>
<!-- Generator: Adobe Illustrator 28.1.0, SVG Export Plug-In . SVG Version: 6.00 Build 0)  -->
<svg version="1.1" id="レイヤー_1" xmlns="http://www.w3.org/2000/svg" xmlns:xlink="http://www.w3.org/1999/xlink" x="0px"
	 y="0px" viewBox="0 0 117.4 122.2" style="enable-background:new 0 0 117.4 122.2;" xml:space="preserve">
<style type="text/css">
	.st0{fill:#005CE5;}
	.st1{opacity:0.5;fill:#003461;}
	.st2{fill:#FAD9C7;}
	.st3{fill:#FFF6EC;}
	.st4{fill:#F6C4AA;}
	.st5{fill:#003461;}
</style>
<g>
	<g>
		<path class="st0" d="M117.4,122.2c-31.4,0-62.8,0-94.2,0c0.8-9.5,1.6-19,2.5-28.5c0.3-3.7,0.7-7.6,2.2-11c1.5-3.5,4.4-6.6,8.3-7.5
			c3.5-0.8,31.5-9,34.2-9.8c2.8,0.8,30.8,8.9,34.2,9.8c3.8,0.9,6.8,4.1,8.3,7.5c1.5,3.5,1.9,7.3,2.2,11
			C115.8,103.2,116.6,112.7,117.4,122.2z"/>
		<path class="st1" d="M39.8,122c0.8-7.1,0.3-14.2-1.4-20.8c-0.3-1.3-0.7-2.5-1.1-3.7c-0.1,2-0.1,3.9-0.2,5.8c0,0.7-0.1,1.5-0.1,2.2
			c0,5.5,0,11,0,16.5C38,122,38.9,122,39.8,122z"/>
		<path class="st1" d="M100.4,122c-0.8-7.1-0.3-14.2,1.4-20.8c0.3-1.3,0.7-2.5,1.1-3.7c0.1,2,0.1,3.9,0.2,5.8c0,0.7,0.1,1.5,0.1,2.2
			c0,5.5,0,11,0,16.5C102.2,122,101.3,122,100.4,122z"/>
		<path class="st2" d="M70.3,65.4c-1.3,0.4-8.6,2.5-16.1,4.7l16.1,35.4L86.4,70C78.9,67.9,71.7,65.8,70.3,65.4L70.3,65.4z"/>
		<polygon class="st3" points="70.3,105.5 81.2,81.5 59.4,81.5 		"/>
		<g>
			<path class="st2" d="M80.5,68c-0.4-6.4-0.8-12.9-1.2-19.3c-3.1-1.2-6.1-2.4-9.2-3.6c0,0,0,0,0,0c-3.1,1.2-6.1,2.4-9.2,3.6
				c-0.4,6.4-0.8,12.8-1.2,19.3c-0.1,1.7,0.8,3.3,2.1,4.6c4.5,4.5,12,4.5,16.5,0C79.7,71.3,80.6,69.8,80.5,68z"/>
			<path class="st4" d="M80.3,64.2c-0.3-5.1-0.6-10.3-1-15.4c-3.1-1.2-6.1-2.4-9.2-3.6c0,0,0,0,0,0c-3.1,1.2-6.1,2.4-9.2,3.6
				c-0.1,1.4-0.2,2.7-0.3,4.1C60.7,52.9,66.9,63.1,80.3,64.2z"/>
		</g>
		<g>
			<path class="st5" d="M66.6,40.5c0,6.4-5.2,11.6-11.6,11.6c-6.4,0-11.6-5.2-11.6-11.6c0-6.4,5.2-11.6,11.6-11.6
				C61.4,28.9,66.6,34,66.6,40.5z"/>
			<path class="st5" d="M87.1,23.9c-0.3-3.8-2-7.7-4.9-10.3c-3.3-2.9-7.8-3.3-12-3.4c-3.4,0-6.9,0.4-10,1.9c-4.6,2.1-6.7,7-7.1,11.8
				c-0.3,4.2,0.4,8.3,1.2,12.4c0,0,15.8,1,15.8,1c0,0,0,0,0,0c0,0,0,0,0,0c5.3-0.3,10.5-0.7,15.8-1C86.6,32.2,87.4,28.1,87.1,23.9z"
				/>
			<path class="st2" d="M83.6,27c-1.6-5-4.9-8.7-8.6-9.5c-0.5-0.1-0.9-0.2-1.4-0.2c-1.2,0-5.9,0-7.2,0c-0.5,0-0.9,0.1-1.4,0.2
				c-3.7,0.8-7,4.5-8.6,9.5c-1.3,4.2-1.5,9.1-1,13.7c0.4,3.9,1,5.5,2.6,8.6c1.9,3.4,4.4,5.9,7.1,7.7c1.2,0.8,2.5,1.7,3.8,2
				c0.1,0,0.3,0.1,0.4,0.1c0.2,0,0.4,0,0.5,0c0.2,0,0.4,0,0.5,0c0.2,0,0.3-0.1,0.4-0.1c1.3-0.3,2.6-1.2,3.8-2
				c2.7-1.8,5.2-4.3,7.1-7.7c1.7-3.1,2.3-4.7,2.6-8.6C85,36.1,84.9,31.2,83.6,27z"/>
			<path class="st5" d="M65.1,34.1c0,1.2-0.5,2.2-1.2,2.2c-0.7,0-1.2-1-1.2-2.2c0-1.2,0.5-2.2,1.2-2.2C64.6,32,65.1,32.9,65.1,34.1z
				"/>
			<path class="st5" d="M75,34.1c0,1.2,0.5,2.2,1.2,2.2c0.7,0,1.2-1,1.2-2.2c0-1.2-0.5-2.2-1.2-2.2C75.6,32,75,32.9,75,34.1z"/>
			<g>
				<path class="st2" d="M56.2,34.1c-0.1-0.8-0.4-1.6-1-2c-0.5-0.3-0.9-0.6-1.5-0.8c-0.9-0.3-1.9-0.2-2.5,0.7
					c-0.7,0.9-0.7,2.4-0.5,3.7c0.5,2.7,1.9,5,3.5,6.6c0.3,0.3,0.7,0.4,1,0.4c0.9-0.2,1-1.5,1.1-2.5C56.4,38.2,56.3,36.1,56.2,34.1z"
					/>
			</g>
			<g>
				<path class="st2" d="M84,34.1c0.1-0.8,0.4-1.6,1-2c0.5-0.3,0.9-0.6,1.5-0.8c0.9-0.3,1.9-0.2,2.5,0.7c0.7,0.9,0.7,2.4,0.5,3.7
					c-0.5,2.7-1.9,5-3.5,6.6c-0.3,0.3-0.7,0.4-1,0.4c-0.9-0.2-1.1-1.5-1.1-2.5C83.8,38.2,83.8,36.1,84,34.1z"/>
			</g>
			<g>
				<path class="st5" d="M68.6,41.5c-0.1,0.5,0.1,0.9,0.3,0.9c0.2,0.1,0.5,0.1,0.7,0.1c0.5,0,1,0.1,1.5,0c0.1,0,0.2-0.1,0.3-0.3
					c0.1-0.2,0.1-0.5,0-0.7c0-0.1-0.1-0.2-0.2-0.1c0,0.1-0.1,0.2,0,0.4c0,0,0,0.1,0,0.1c0,0.1-0.1,0.1-0.1,0.1c-0.1,0-0.2,0-0.4,0
					c-0.2,0-0.5,0-0.7,0c-0.2,0-0.5,0-0.7-0.1c-0.1,0-0.2,0-0.4,0c-0.1,0-0.2-0.1-0.2-0.3C68.9,41.3,68.6,41.2,68.6,41.5L68.6,41.5z
					"/>
			</g>
			<path class="st5" d="M73.4,14c0,0-11.2,12.3-19.5,13.5c0.1-0.1,6.2-12.6,6.2-12.6C64.6,14.6,69,14.3,73.4,14z"/>
			<path class="st5" d="M66.7,14c0,0,11.2,12.3,19.5,13.5C86.1,27.4,80,14.9,80,14.9C75.5,14.6,71.1,14.3,66.7,14z"/>
			<g>
				<path class="st5" d="M65.4,50c2.9-1.8,6.7-1.7,9.5,0.2c0.4,0.3,0.8-0.4,0.4-0.7c-3.1-2.1-7.2-2.2-10.3-0.2
					C64.5,49.6,64.9,50.3,65.4,50L65.4,50z"/>
			</g>
			<g>
				<path class="st5" d="M64.8,28.8c-1.2,1.2-2.9,1.9-4.6,1.8c-0.6,0-0.6,0.9,0,1c2,0.1,3.9-0.7,5.3-2.1
					C66,29.1,65.3,28.4,64.8,28.8L64.8,28.8z"/>
			</g>
			<g>
				<path class="st5" d="M75.3,28.8c1.2,1.2,2.9,1.9,4.6,1.8c0.6,0,0.6,0.9,0,1c-2,0.1-3.9-0.7-5.3-2.1
					C74.2,29.1,74.9,28.4,75.3,28.8C75.3,28.8,75.3,28.8,75.3,28.8z"/>
			</g>
		</g>
	</g>
	<g>
		<path class="st4" d="M66.1,64.3c1.2,0.7,2.5,1.5,3.7,2.2c0.7,0.4,0.5,1.4-0.2,1.6l0,0c-0.8,0.2-1.7,0.2-2.5-0.2
			c-1-0.4-2-0.9-3-1.3C64.7,65.8,65.4,65,66.1,64.3z"/>
		<path class="st4" d="M60,60.8c-0.4,2.1-0.8,4.2-1.1,6.3c-1-0.3-2-0.6-3-0.9C57.2,64.4,58.6,62.6,60,60.8z"/>
		<path class="st4" d="M67.1,65.8c-0.3,0.9-0.5,1.7-0.8,2.6c-2.4,0-4.9,0-7.3,0c0,0,1.6-2.4,1.6-2.4C60.6,66,67.1,65.8,67.1,65.8z"
			/>
		<path class="st4" d="M67.8,68.9c-0.4,0.8-0.8,1.7-1.3,2.5c-1.7,0.2-3.4,0.3-5.2,0.5c0.1-0.6,0.1-1.2,0.2-1.8
			C63.7,69.6,65.8,69.3,67.8,68.9z"/>
		<path class="st4" d="M68.2,71.7c-0.2,0.6-0.4,1.2-0.6,1.7c-0.2,0.7-0.8,1.2-1.5,1.5c-0.5,0.1-0.9,0.2-1.4,0.3
			c-0.6,0.1-1.1-0.3-1-0.9c0.1-0.6,0.2-1.1,0.2-1.7C65.4,72.4,66.8,72,68.2,71.7z"/>
		<path class="st4" d="M63.9,72.9c0.3,0.2,0.5,0.4,0.8,0.6c0.4,0,0.8,0,1.1,0c0.9,0,1.7-0.4,2.1-1.2c0-0.1,0.1-0.1,0.1-0.2
			c0-0.1,0.1-0.2,0.1-0.3c-1.4,0.3-2.8,0.6-4.2,0.9C63.9,72.7,63.9,72.8,63.9,72.9z"/>
		<path class="st2" d="M57.8,64.5C57.8,64.5,57.8,64.5,57.8,64.5C57.8,64.5,57.8,64.5,57.8,64.5c-0.6,0.9-1.1,1.6-1.6,2.3
			c1.5,0.3,3,0.6,4.6,0.9c0,0,0.8,0.2,0.8,0.2c0.6,2.3,1.3,4.6,1.9,6.9c0.4,1.4,0.5,2.8,0.6,4.2c0,3.6-0.9,7.3-1.6,10.7
			c-2.2,10.8-4.6,21.7-6.7,32.5c-5.3,0-10.5,0-15.8,0c3.5-12.6,11.5-28.1,15-40.6c0,0,0,0,0,0c-0.1,0-0.2-0.7-0.2-0.7
			c-0.2-0.6-0.4-1.2-0.6-1.8c-0.4-1.4-0.9-2.7-1.3-4.1c-0.2-0.6-0.4-1.3-0.6-1.9c-0.3-0.8-0.6-1.6-0.7-2.5c-0.1-0.6-0.1-1.3,0-1.9
			c0.1-1.2,0.3-2.5,0.8-3.6c0.7-1.7,1.9-2.8,3.1-4.2c1-1.2,2-2.3,3-3.5c1.5-1.7,3.1-3.5,4.6-5.3c0.4-0.5,0.9-0.9,1.5-1.1
			c0.5-0.2,1.3-0.1,1.6,0.4c0.5,0.6,0,1.5-0.4,2.1C65.5,53.9,61.2,59.8,57.8,64.5z"/>
		<path class="st2" d="M65.4,67c0.7-0.1,1.6-0.4,1.7-1.2c0.1-0.6-0.4-1.2-0.9-1.4c-0.6-0.3-1.3-0.3-1.9-0.2c-0.6,0.1-6.3,0.6-11.6,1
			c0.2,1.3,0.4,2.7,0.6,4C58.8,68.2,64.9,67.1,65.4,67z"/>
		<path class="st2" d="M66.3,69.9c0.7-0.2,1.6-0.5,1.6-1.3c0-0.6-0.5-1.2-1-1.4C66.3,67,65.6,67,65,67.1c-0.6,0.1-6.3,1-11.5,1.8
			c0.3,1.3,0.6,2.7,0.9,4C59.8,71.5,65.8,70,66.3,69.9z"/>
		<path class="st2" d="M66.7,73c0.6-0.2,1.5-0.6,1.5-1.4c0-0.6-0.5-1.1-1.1-1.3c-0.6-0.2-1.3-0.1-1.9,0c-0.6,0.1-6.2,1.4-11.3,2.5
			c0.3,1.3,0.7,2.6,1.1,3.9C60.3,75,66.2,73.2,66.7,73z"/>
		<g>
			<path class="st4" d="M66.3,66.7c-3.1,0.5-6.2,1.1-9.3,1.6c-0.2,0-0.1,0.3,0.1,0.3c3.1-0.5,6.2-1.1,9.3-1.6
				C66.5,66.9,66.5,66.6,66.3,66.7L66.3,66.7z"/>
		</g>
		<g>
			<path class="st4" d="M66.5,69.9c-1,0.2-2,0.5-2.9,0.7c-1.6,0.4-3.2,0.8-4.7,1.1c-0.4,0.1-0.7,0.2-1.1,0.3c-0.2,0-0.1,0.3,0.1,0.3
				c1-0.2,2-0.5,2.9-0.7c1.6-0.4,3.2-0.8,4.7-1.1c0.4-0.1,0.7-0.2,1.1-0.3C66.7,70.1,66.7,69.8,66.5,69.9L66.5,69.9z"/>
		</g>
	</g>
</g>
</svg>
