<?xml version="1.0" encoding="utf-8"?>
<!-- Generator: Adobe Illustrator 28.1.0, SVG Export Plug-In . SVG Version: 6.00 Build 0)  -->
<svg version="1.1" id="レイヤー_1" xmlns="http://www.w3.org/2000/svg" xmlns:xlink="http://www.w3.org/1999/xlink" x="0px"
	 y="0px" viewBox="0 0 137.5 45" style="enable-background:new 0 0 137.5 45;" xml:space="preserve">
<style type="text/css">
	.st0{fill:#003461;}
	.st1{fill:#FFFFFF;}
</style>
<path class="st0" d="M140.4,45c-11.8,0-22.7-6.9-27.4-17.8C106.1,11.2,90.2,0,71.6,0C53.1,0,37.2,11.2,30.3,27.2
	C25.6,38.1,14.7,45,2.9,45h-51.3v30c0,8.3,6.7,15,15,15h210c8.3,0,15-6.7,15-15V45H140.4z"/>
<g>
	<path class="st1" d="M65.8,45v-1.6l6.5-10c0.5-0.7,0.9-1.5,1.4-2.1c0.4-0.7,0.8-1.4,1-2.2c0.3-0.8,0.4-1.6,0.4-2.6
		c0-1.3-0.3-2.3-0.8-3.1c-0.5-0.7-1.3-1.1-2.4-1.1c-1,0-1.7,0.2-2.3,0.7c-0.5,0.4-0.9,1-1.1,1.8c-0.2,0.8-0.3,1.6-0.3,2.6v0.5H66
		v-0.6c0-1.5,0.2-2.8,0.6-3.8c0.4-1,1-1.8,1.9-2.3c0.8-0.5,2-0.8,3.3-0.8c1.8,0,3.2,0.5,4.1,1.6c0.9,1.1,1.4,2.6,1.4,4.5
		c0,1-0.1,1.9-0.4,2.7c-0.3,0.8-0.6,1.6-1.1,2.4c-0.4,0.7-0.9,1.5-1.4,2.3l-6.1,9.2h8.4V45H65.8z"/>
</g>
<g>
	<path class="st1" d="M52.9,22.6L47.5,16l0.5-0.4l5.4,6.6L52.9,22.6z"/>
	<path class="st1" d="M56.8,18.4c-0.4,0.2-0.8,0.3-1.1,0.3c-0.3,0-0.6-0.2-0.9-0.4c-0.3-0.3-0.5-0.6-0.7-0.9l-1.4-2.5
		c-0.2-0.4-0.4-0.8-0.4-1.1c-0.1-0.3,0-0.7,0.1-1c0.1-0.3,0.4-0.6,0.8-0.8c0.4-0.2,0.7-0.3,1-0.3c0.3,0,0.6,0.1,0.8,0.4
		c0.2,0.2,0.5,0.5,0.7,0.9l0.2,0.4l-0.6,0.3l-0.2-0.4c-0.2-0.3-0.3-0.5-0.5-0.7c-0.2-0.2-0.3-0.3-0.5-0.3c-0.2,0-0.4,0-0.7,0.2
		c-0.3,0.2-0.5,0.3-0.5,0.5c-0.1,0.2-0.1,0.4,0,0.7c0.1,0.2,0.2,0.5,0.3,0.8l1.5,2.7c0.2,0.3,0.4,0.6,0.5,0.7
		c0.2,0.2,0.4,0.3,0.6,0.3c0.2,0,0.4,0,0.7-0.2c0.3-0.1,0.4-0.3,0.5-0.5c0.1-0.2,0.1-0.4,0-0.6c-0.1-0.2-0.2-0.5-0.3-0.8l-0.2-0.4
		l0.6-0.3l0.2,0.4c0.2,0.4,0.4,0.7,0.4,1.1c0.1,0.3,0,0.6-0.1,0.9C57.5,18,57.2,18.2,56.8,18.4z"/>
	<path class="st1" d="M61.7,17.5l-2.8-8.1l0.6-0.2l2.8,8.1L61.7,17.5z"/>
	<path class="st1" d="M64.8,15.2l0.3-7.4l0.7-0.1l2.7,6.9l-0.7,0.1l-0.7-1.9l-1.7,0.3l-0.1,2L64.8,15.2z M65.6,12.6l1.5-0.2
		l-1.4-3.8L65.6,12.6z"/>
	<path class="st1" d="M71.7,15.8l0.1-8.6l0.6,0l-0.1,8.6L71.7,15.8z"/>
	<path class="st1" d="M77.3,15.1c-0.4-0.1-0.7-0.2-0.9-0.4c-0.2-0.2-0.4-0.5-0.5-0.8c-0.1-0.3-0.1-0.7-0.1-1.1l0.6-0.1
		c0,0.3,0,0.6,0,0.8c0,0.3,0.1,0.5,0.3,0.6c0.1,0.2,0.4,0.3,0.6,0.3c0.3,0.1,0.6,0,0.8-0.1c0.2-0.1,0.3-0.4,0.4-0.7
		c0.1-0.3,0-0.6-0.1-0.9c-0.1-0.3-0.3-0.5-0.5-0.8l-1-1.4c-0.2-0.3-0.3-0.5-0.4-0.8c-0.1-0.3-0.1-0.5,0-0.8c0.1-0.5,0.3-0.8,0.7-1.1
		c0.3-0.2,0.8-0.3,1.3-0.2c0.3,0,0.5,0.1,0.7,0.2c0.2,0.1,0.3,0.2,0.5,0.4c0.1,0.2,0.2,0.4,0.2,0.6c0,0.2,0,0.5,0,0.9l-0.6,0
		c0-0.3,0-0.6,0-0.8c0-0.2-0.1-0.4-0.3-0.6c-0.1-0.1-0.3-0.2-0.6-0.3c-0.3-0.1-0.6,0-0.8,0.1c-0.2,0.1-0.4,0.3-0.4,0.7
		c0,0.2,0,0.4,0,0.6c0,0.2,0.1,0.4,0.3,0.6l1,1.4c0.2,0.3,0.4,0.7,0.6,1c0.1,0.4,0.2,0.7,0.1,1.2c-0.1,0.4-0.2,0.6-0.4,0.9
		c-0.2,0.2-0.4,0.4-0.7,0.4C77.9,15.2,77.6,15.2,77.3,15.1z"/>
	<path class="st1" d="M81.5,17.5l3-8.1L85,9.6l-3,8.1L81.5,17.5z"/>
	<path class="st1" d="M85.5,17.8l3.6-6.4l2.3,1.3l-0.3,0.5l-1.7-1l-1.3,2.4l1.4,0.8l-0.2,0.4l-1.4-0.8l-1.5,2.6l1.7,1l-0.2,0.4
		L85.5,17.8z"/>
	<path class="st1" d="M89.6,21.9l5.4-6.7l0.5,0.4l-5.3,6.7L89.6,21.9z"/>
</g>
</svg>
