<?xml version="1.0" encoding="utf-8"?>
<!-- Generator: Adobe Illustrator 28.1.0, SVG Export Plug-In . SVG Version: 6.00 Build 0)  -->
<svg version="1.1" id="レイヤー_1" xmlns="http://www.w3.org/2000/svg" xmlns:xlink="http://www.w3.org/1999/xlink" x="0px"
	 y="0px" viewBox="0 0 117.4 122.2" style="enable-background:new 0 0 117.4 122.2;" xml:space="preserve">
<style type="text/css">
	.st0{fill:#003461;}
	.st1{fill:#80808C;}
	.st2{fill:#005CE5;}
	.st3{fill:#FAD9C7;}
	.st4{fill:#F6C4AA;}
	.st5{fill:#194871;}
</style>
<g>
	<g>
		<path class="st0" d="M117.4,122.2c-29.6,0-59.1,0-88.7,0c0.8-8.9,1.5-17.9,2.3-26.8c0.3-3.5,0.6-7.1,2-10.4
			c1.4-3.3,4.2-6.2,7.8-7.1c3.3-0.8,29.6-8.5,32.2-9.2c2.6,0.8,29,8.4,32.2,9.2c3.6,0.9,6.4,3.8,7.8,7.1c1.4,3.3,1.7,6.9,2,10.4
			C115.9,104.3,116.7,113.3,117.4,122.2z"/>
		<path class="st1" d="M44.4,122c0.7-6.6,0.3-13.4-1.3-19.6c-0.3-1.2-0.6-2.4-1-3.5c-0.1,1.8-0.1,3.7-0.2,5.5c0,0.7,0,1.4-0.1,2.1
			c0,5.2,0,10.4,0,15.6C42.7,122,43.5,122,44.4,122z"/>
		<path class="st1" d="M101.4,122c-0.7-6.6-0.3-13.4,1.3-19.6c0.3-1.2,0.6-2.4,1-3.5c0.1,1.8,0.1,3.7,0.2,5.5c0,0.7,0,1.4,0.1,2.1
			c0,5.2,0,10.4,0,15.6C103.1,122,102.3,122,101.4,122z"/>
		<path class="st2" d="M82.6,71.5c-0.5-0.1-1-0.3-1.5-0.4H65.2c-0.6,0.2-1.4,0.4-2.1,0.6c-0.2,3.9-0.6,28.2,9.6,50.6
			c0.2,0,0.4,0,0.7,0C83.7,99.6,82.8,75.2,82.6,71.5z"/>
		<g>
			<path class="st3" d="M82.6,70.7c-0.4-5.9-0.7-11.7-1.1-17.6c-2.9-1.1-5.8-2.3-8.6-3.4c0,0,0,0,0,0c-2.9,1.1-5.8,2.3-8.6,3.4
				c-0.4,6.1-0.7,12.2-1.1,18.3c-0.3,5.4,3.9,9.9,9.3,9.9c0.1,0,0.2,0,0.3,0C78.4,81.3,83,76.4,82.6,70.7z"/>
			<path class="st4" d="M82.4,67.6c-0.3-4.8-0.6-9.7-0.9-14.5c-2.9-1.1-5.8-2.3-8.7-3.4c0,0,0,0,0,0c-2.9,1.1-5.8,2.3-8.6,3.4
				c-0.1,1.3-0.2,2.6-0.2,3.9C64,56.9,69.9,66.5,82.4,67.6z"/>
		</g>
		<g>
			<g>
				<path class="st0" d="M86.1,17.4c-2.1-2.1-5.1-3.1-7.9-4c-3.2-1-6.3-2.1-9.7-2.3s-6.8,0.5-9.3,2.6c-3,2.5-4.3,6.7-4.2,10.7
					c0.1,4,1.4,7.8,2.6,11.5c9.9,0.7,19.7,1.5,29.6,2.2c1.2-3.5,2.3-7,2.5-10.7C89.8,23.9,88.8,20,86.1,17.4z"/>
			</g>
			<path class="st0" d="M88.9,29.7C88.6,26,87,22.4,84.2,20c-3.1-2.7-7.4-3.1-11.3-3.2c-3.2,0-6.5,0.4-9.4,1.7
				c-4.3,2-6.3,6.6-6.6,11.1c-0.3,3.9,0.4,7.8,1.2,11.7c0,0,14.9,1,14.9,1c0,0,0,0,0,0c0,0,0,0,0,0c5-0.3,9.9-0.7,14.9-1
				C88.4,37.5,89.2,33.6,88.9,29.7z"/>
			<path class="st3" d="M85.6,32.6c-1.5-4.7-4.6-8.2-8.1-8.9c-0.4-0.1-0.9-0.1-1.3-0.2c-1.1,0-5.6,0-6.7,0c-0.4,0-0.9,0.1-1.3,0.2
				c-3.4,0.8-6.6,4.2-8.1,8.9c-1.3,4-1.4,8.6-0.9,12.9c0.4,3.7,0.9,5.2,2.5,8.1c1.8,3.2,4.1,5.6,6.6,7.2c1.1,0.8,2.4,1.6,3.6,1.9
				c0.1,0,0.3,0.1,0.4,0.1c0.2,0,0.3,0,0.5,0c0.2,0,0.3,0,0.5,0c0.1,0,0.3-0.1,0.4-0.1c1.3-0.3,2.5-1.1,3.6-1.9
				c2.5-1.7,4.9-4.1,6.6-7.2c1.6-2.9,2.1-4.4,2.5-8.1C86.9,41.2,86.8,36.6,85.6,32.6z"/>
			<path class="st0" d="M68.2,39.3c0,1.1-0.5,2-1.1,2c-0.6,0-1.1-0.9-1.1-2c0-1.1,0.5-2,1.1-2C67.7,37.3,68.2,38.2,68.2,39.3z"/>
			<path class="st0" d="M77.5,39.3c0,1.1,0.5,2,1.1,2c0.6,0,1.1-0.9,1.1-2c0-1.1-0.5-2-1.1-2C78,37.3,77.5,38.2,77.5,39.3z"/>
			<g>
				<path class="st3" d="M59.7,39.3c-0.1-0.8-0.4-1.5-0.9-1.9c-0.4-0.3-0.9-0.6-1.4-0.8c-0.8-0.3-1.7-0.1-2.3,0.6
					c-0.7,0.9-0.7,2.3-0.5,3.5c0.4,2.5,1.8,4.7,3.3,6.3c0.3,0.3,0.6,0.4,1,0.3c0.9-0.2,1-1.4,1-2.4C59.9,43.1,59.9,41.2,59.7,39.3z"
					/>
			</g>
			<g>
				<path class="st3" d="M85.9,39.3c0.1-0.8,0.4-1.5,0.9-1.9c0.4-0.3,0.9-0.6,1.4-0.8c0.8-0.3,1.7-0.1,2.3,0.6
					c0.7,0.9,0.7,2.3,0.5,3.5c-0.4,2.5-1.8,4.7-3.3,6.3c-0.3,0.3-0.6,0.4-1,0.3c-0.9-0.2-1-1.4-1-2.4C85.7,43.1,85.8,41.2,85.9,39.3
					z"/>
			</g>
			<g>
				<path class="st0" d="M71.3,46.2c-0.1,0.5,0.2,0.8,0.4,0.9c0.3,0.1,0.5,0.1,0.8,0.1c0.5,0,1.1,0.1,1.6,0c0.1,0,0.3-0.1,0.3-0.3
					c0.1-0.2,0.1-0.5,0-0.7c0-0.1-0.1-0.2-0.2-0.1c-0.1,0.1-0.1,0.2,0,0.3c0,0,0,0.1,0,0.1c0,0-0.1,0.1-0.1,0.1c-0.1,0-0.3,0-0.4,0
					c-0.3,0-0.5,0-0.8,0c-0.3,0-0.5,0-0.8-0.1c-0.1,0-0.3,0-0.4,0c-0.1,0-0.2-0.1-0.2-0.3C71.5,46.1,71.3,45.9,71.3,46.2
					C71.3,46.2,71.3,46.2,71.3,46.2z"/>
			</g>
			<g>
				<path class="st0" d="M72.5,21.7c1.1,2.4,3.2,4.3,5.6,5.7c2.3,1.4,4.9,2.2,7.5,3.1c-0.2-3.2-0.3-6.4-0.5-9.6
					C80.8,21.2,76.7,21.5,72.5,21.7z"/>
			</g>
			<g>
				<path class="st0" d="M73.2,22c-3.2,0.4-6.4,0.8-9.6,1.3c4,2.6,8.5,4.2,13.2,4.8C75.2,26.4,73.9,24.3,73.2,22z"/>
			</g>
			<g>
				<path class="st0" d="M68.4,54.2c2.8-1.7,6.3-1.6,9,0.2c0.4,0.3,0.8-0.4,0.4-0.6c-2.9-2-6.7-2-9.7-0.2
					C67.6,53.9,68,54.5,68.4,54.2L68.4,54.2z"/>
			</g>
			<g>
				<path class="st0" d="M67.9,34.4c-1.1,1.2-2.7,1.8-4.4,1.7c-0.6,0-0.6,0.9,0,0.9c1.9,0.1,3.7-0.6,5-2
					C69,34.6,68.3,33.9,67.9,34.4L67.9,34.4z"/>
			</g>
			<g>
				<path class="st0" d="M77.8,34.4c1.1,1.2,2.7,1.8,4.4,1.7c0.6,0,0.6,0.9,0,0.9c-1.9,0.1-3.7-0.6-5-2
					C76.7,34.6,77.3,33.9,77.8,34.4L77.8,34.4z"/>
			</g>
		</g>
		<g>
			<path class="st5" d="M72.4,121.3c-9.8-22.2-9.4-45.9-9.2-49.7c0.6-0.2-2,0.6-5.4,1.6l0,0l-4.4,13.5l6,3.3l-6,2.9L72.4,121.3z"/>
			<polygon class="st5" points="73,122.2 73,122.2 73,122.2 73,122.2 			"/>
		</g>
		<g>
			<path class="st5" d="M92.9,86.6l-4.4-13.5l0,0c-2.3-0.7-6-1.7-5.8-1.7c0.2,3.7,1,27.4-8.8,49.8l18.9-28.4l-6-2.9L92.9,86.6z"/>
			<polygon class="st5" points="73.2,122.2 73.2,122.2 73.2,122.2 			"/>
		</g>
	</g>
	<path class="st2" d="M43.6,0.7c-2.4-1.1-5.2-0.6-7.7-0.1c-2.9,0.5-5.8,1.2-8.6,2C21.6,4.2,16.2,6.4,10.9,9
		c-2.6,1.3-5.2,2.7-7.7,4.3c-1.1,0.7,0,2.3,1.1,1.6c8.2-5,17.1-8.8,26.5-11.2c2.3-0.6,4.7-1.1,7.1-1.5c2-0.3,4.4-0.6,6,0.9
		c1.6,1.6,0.7,4-0.7,5.4c0,0,0,0,0,0C42.4,8.3,41.7,8.1,41,8c-2.5-0.3-4.9,0.3-7.3,0.9c-3,0.8-6,1.7-9,2.7
		c-5.7,1.9-11.2,4.2-16.6,6.9c-1.7,0.8-4.1,2-3.6,4.3c0.6,2.7,3.7,2.5,5.9,2.2c5.7-0.9,11.4-2.5,16.7-4.8c5.2-2.2,10.3-4.9,14.9-8.3
		c0.5-0.3,0.9-0.7,1.4-1.1c0.3,0.2,0.5,0.4,0.8,0.6c1.4,1.3,1.6,3.1,0.8,4.8c-0.6,1.2-1.6,2.2-2.6,3.1c-1.3-0.6-2.8-0.7-4.2-0.6
		c-2.8,0.3-5.5,1.2-8.1,2.1c-3,1-5.9,2.1-8.7,3.3c-1.2,0.5-2.4,1.1-3.6,1.7c-1.3,0.6-4.5,2.1-3,4c0.9,1.2,2.5,0.8,3.8,0.8
		c2.9-0.2,5.9-0.7,8.7-1.5c-1.5,0.8-2.9,1.8-4.1,2.9c-1,0.9-1.6,2.7-0.5,3.8c1.2,1.2,3.3,0.8,4.7,0.5c1.3-0.2,2.6-0.5,3.9-1
		c2.7-0.9,5.3-2.3,7.8-3.7c0.2-0.1,0.3-0.2,0.5-0.3c1.1,1.1,1.8,2.6,1.9,4.2c-0.7-0.2-1.4-0.3-2.1-0.2c-2,0.2-4,2.1-3.3,4.2
		c0.7,2.2,3.5,2.5,5.1,1.1C42,39.9,42.6,39,43,38c1.4,0.5,2.8,0.9,4.4,0.5c1.2-0.3,0.6-2.1-0.6-1.8c-1.2,0.3-2.3-0.1-3.4-0.5
		c0-0.1,0-0.1,0-0.2c0.1-2.1-0.7-4.1-2.1-5.6c1.4-0.9,2.8-1.9,3.6-3.4c1.2-1.9,1.2-4.4-0.3-6.1c-0.1-0.2-0.3-0.3-0.5-0.5
		c1-0.9,1.8-1.8,2.5-2.9c1-1.8,1.2-4,0.1-5.9c-0.5-0.8-1.1-1.5-1.9-2.1c0.8-0.9,1.4-1.9,1.6-3.2C46.9,3.9,45.8,1.7,43.6,0.7z
		 M38.2,39.3c-0.7-0.6,0-1.7,0.7-1.9c0.7-0.3,1.5-0.2,2.3,0C40.7,38.5,39.4,40.3,38.2,39.3z M19.7,28.5c-0.3,0-3,0.4-3.1,0.2
		c-0.1-0.2,5-2.6,5.5-2.8c4.4-2,9-3.6,13.6-4.8c1.6-0.4,3.3-0.8,4.9-0.4c-1.5,1.1-3.1,2.1-4.8,3c-4,2.1-8.4,3.6-12.9,4.4
		C21.8,28.2,20.7,28.4,19.7,28.5z M32.3,32.8c-2.1,0.8-4.2,1.5-6.4,1.7c-0.5,0-1.9,0.3-1.8-0.5c0-0.4,0.6-0.7,0.8-0.9
		c0.5-0.5,1-0.9,1.6-1.3c3.1-2.2,7.6-3.6,11.2-1.9c0.1,0,0.1,0.1,0.2,0.1C36,31.1,34.2,32,32.3,32.8z M43.3,25.8
		c-0.8,1.4-2.2,2.4-3.6,3.2c-0.9-0.6-1.9-1.1-3-1.4c-1.5-0.4-3-0.4-4.5-0.2c0.8-0.3,1.6-0.7,2.4-1c2.6-1.2,5.1-2.7,7.4-4.4
		c0.2-0.2,0.4-0.3,0.6-0.5C43.9,22.6,44.2,24.3,43.3,25.8z M11.8,22.8c-0.8,0.1-6,1.4-5.4-0.7c0.2-0.7,1.2-1.1,1.7-1.4
		c1.1-0.6,2.3-1.1,3.5-1.7c4.4-2.1,9-3.9,13.6-5.5c2.3-0.8,4.5-1.5,6.8-2.1c2.1-0.6,4.3-1.3,6.6-1.5c0.9-0.1,1.8,0,2.7,0.1
		c-1.2,0.9-2.4,1.7-3.6,2.5C29.9,17.5,21,21,11.8,22.8z"/>
</g>
</svg>
