<?xml version="1.0" encoding="utf-8"?>
<!-- Generator: Adobe Illustrator 28.1.0, SVG Export Plug-In . SVG Version: 6.00 Build 0)  -->
<svg version="1.1" id="レイヤー_1" xmlns="http://www.w3.org/2000/svg" xmlns:xlink="http://www.w3.org/1999/xlink" x="0px"
	 y="0px" viewBox="0 0 188.1 40" style="enable-background:new 0 0 188.1 40;" xml:space="preserve">
<style type="text/css">
	.st0{fill:#00A167;}
</style>
<g id="レイヤー_2_00000064351315750599273390000006532655299902865296_">
	<g id="レイヤー_1-2_00000137107896032129509570000010720011292701910937_">
		<path class="st0" d="M88.4,14.2c-0.8-1.4-2-2.5-3.4-3.2c-1.7-0.7-3.5-1.1-5.4-1h-0.9c-1.8,0.1-3.5,0.4-5.2,1.1
			c-1.9,0.8-3.6,1.9-5,3.3c-1.4,1.4-2.5,3-3.4,4.8c-0.8,1.8-1.3,3.7-1.5,5.7c-0.4,3.9,0.9,7.9,3.5,10.8c2.7,2.9,6.5,4.4,10.4,4.2
			c0.3,0,0.7,0,1-0.1c1.6,0,3.2-0.4,4.7-1c1.5-0.7,2.7-1.8,3.5-3.2l-0.2,3.5h8.2l2-28.6h-8.3L88.4,14.2z M86.9,25
			c-0.2,2.2-1.2,4.3-2.8,5.8c-1.5,1.4-3.4,2.3-5.4,2.4h-0.3c-2.2,0.1-4.3-0.8-5.8-2.4c-1.5-1.6-2.2-3.8-2-6c0.1-2.2,1.1-4.4,2.8-5.9
			c1.5-1.3,3.4-2.2,5.4-2.3h0.7c2.1,0,4.2,0.9,5.5,2.5C86.4,20.7,87.1,22.9,86.9,25z M58.5,16.3c-2.7-4.1-7.3-6.5-12.2-6.5H46
			c-1.9,0.1-3.7,0.5-5.4,1.3c-1.9,0.8-3.7,2-5.1,3.5c-1.4,1.3-2.5,3-3.3,4.7c-0.8,1.7-1.3,3.6-1.3,5.6c-0.1,1.9,0.2,3.9,0.9,5.7
			c0.7,1.8,1.7,3.4,2.9,4.8c1.3,1.4,2.9,2.6,4.7,3.4c1.9,0.7,3.9,1.1,5.9,1.1H46c2.8-0.1,5.5-1,7.9-2.6c2.6-1.8,4.6-4.3,5.8-7.3
			h-7.3c-0.7,1.1-1.7,2-2.9,2.6c-1.1,0.6-2.2,0.9-3.5,1h-0.6c-2,0.1-3.9-0.5-5.4-1.7c-1.4-1.3-2.3-3.1-2.2-5h23.1v-0.7
			c0.1-0.2,0.1-0.5,0.1-0.7c0.1-1.8-0.1-3.5-0.4-5.3C60,18.9,59.4,17.5,58.5,16.3z M38.1,21.9c0.5-1.7,1.6-3.2,3.1-4.2
			c1.4-1,3.1-1.6,4.8-1.6h0.1c1.8-0.1,3.5,0.5,5,1.5c1.4,1.1,2.3,2.7,2.7,4.4L38.1,21.9z M115.7,6.9h8.5l0.6-6.8h-8.6L115.7,6.9z
			 M188.1,10.8h-9.2L169,25.6l1.6-25.5h-8.3l-2.6,39.2h8.4l0.9-13.6l9.4,13.7h9.2l-9.4-13.8L188.1,10.8z M99.8,39.4h8.6l2.8-39.3
			h-8.6L99.8,39.4z M147.2,10.2c-1.8,0-3.6,0.3-5.3,1c-1.7,0.7-3.3,1.8-4.6,3.1l0.3-3.6h-8.6l-2,28.7h8.5l1.2-17
			c0.3-2.9,4-5.2,6.2-5.1c4.1,0.2,4.7,3.6,4.4,7l-1,15.1h8.6l1.2-18.5c0-0.3,0.1-0.4,0.1-0.7v-1.3C155.8,13.7,153.2,10.4,147.2,10.2
			z M113.5,39.4h8.4l2-28.7h-8.5L113.5,39.4z M31.6,0L20.5,16.8L9.3,0.1H0l15.8,24l-1,15.3h8.5l1-14.3L40.8,0H31.6z"/>
	</g>
</g>
</svg>
