<?xml version="1.0" encoding="utf-8"?>
<!-- Generator: Adobe Illustrator 28.1.0, SVG Export Plug-In . SVG Version: 6.00 Build 0)  -->
<svg version="1.1" id="レイヤー_1" xmlns="http://www.w3.org/2000/svg" xmlns:xlink="http://www.w3.org/1999/xlink" x="0px"
	 y="0px" viewBox="0 0 337.4 40" style="enable-background:new 0 0 337.4 40;" xml:space="preserve">
<style type="text/css">
	.st0{fill:#005CE5;}
</style>
<g id="wordmark-lockup_1line_00000006709337775292180330000014750927939469191557_">
	<path id="Phone_00000085934399643378194730000003138278746513768084_" class="st0" d="M212.3,12.4c0,9.9-7.3,12.1-16.6,12.1h-6.2
		v14.9h-6.9V0h13C204.2,0,212.3,1.4,212.3,12.4z M189.5,18.8h6.4c5.2,0,9.2-0.8,9.2-6.4c0-6.4-4.7-6.9-9.5-6.9h-6.1V18.8z
		 M231.8,9.5c7,0,9.9,4.6,9.9,11.5v18.3h-6.5V22.5c0-4-0.6-7.8-5.5-7.8s-6.8,3.8-6.8,9.1v15.5h-6.5V0h6.5v14.2
		C224.6,11.2,227.7,9.5,231.8,9.5z M260.5,40c-7.1,0-14.4-4.7-14.4-15.2c0-10.5,7.3-15.3,14.4-15.3c7.1,0,14.4,4.8,14.4,15.3
		C274.9,35.3,267.6,40,260.5,40z M268.2,24.8c0-6.7-3.6-10-7.7-10c-4.1,0-7.7,3.3-7.7,10s3.6,10,7.7,10
		C264.6,34.7,268.2,31.5,268.2,24.8z M294.7,9.5c7,0,9.9,4.6,9.9,11.5v18.3h-6.5V22.5c0-4-0.6-7.8-5.5-7.8c-4.9,0-6.8,3.8-6.8,9.1
		v15.5h-6.4V10.1h6.4v4.1C287.6,11.2,290.7,9.5,294.7,9.5z M323.5,34.6c3.4,0,6-1.4,7.2-4.1h6.3c-1.4,4.7-5.7,9.4-13.2,9.4
		c-9.4,0-14.7-7.2-14.7-15.5c0-8.8,6-15,14.3-15c8.9,0,14.5,7.3,14,17.1h-21.7C316,32,319.8,34.6,323.5,34.6z M330.8,21.8
		c-0.2-4.6-3.6-7.3-7.4-7.3c-3,0-7.2,1.8-7.8,7.3H330.8z"/>
	<path id="logo_ZM_wordmark_00000178196042460898014020000016112163068680814492_" class="st0" d="M34.5,39.3H5.1
		c-2.1,0-3.9-1.2-4.7-3.1c-0.8-1.9-0.4-4.1,1.1-5.5l20.4-20.4H7.3C3.3,10.2,0,7,0,3h27.1c2.1,0,3.9,1.2,4.7,3.1
		c0.8,1.9,0.4,4.1-1.1,5.5L10.3,32h16.9C31.2,32,34.5,35.3,34.5,39.3z M164.5,16.6c0-7.8-6.4-14.2-14.2-14.2
		c-4.2,0-7.9,1.8-10.5,4.7c-2.6-2.9-6.4-4.7-10.5-4.7c-7.8,0-14.2,6.4-14.2,14.2v22.7c4,0,7.3-3.3,7.3-7.3V16.6
		c0-3.8,3.1-6.9,6.9-6.9c3.8,0,6.9,3.1,6.9,6.9V32c0,4,3.3,7.3,7.3,7.3V16.6c0-3.8,3.1-6.9,6.9-6.9c3.8,0,6.9,3.1,6.9,6.9V32
		c0,4,3.3,7.3,7.3,7.3V16.6z M111.5,21.1c0,10.3-8.4,18.7-18.7,18.7c-10.3,0-18.7-8.4-18.7-18.7S82.5,2.4,92.8,2.4
		C103.1,2.4,111.5,10.8,111.5,21.1z M104.2,21.1c0-6.3-5.1-11.4-11.4-11.4c-6.3,0-11.4,5.1-11.4,11.4s5.1,11.4,11.4,11.4
		C99.1,32.6,104.2,27.5,104.2,21.1z M71.2,21.1c0,10.3-8.4,18.7-18.7,18.7s-18.7-8.4-18.7-18.7S42.1,2.4,52.5,2.4
		S71.2,10.8,71.2,21.1z M63.9,21.1c0-6.3-5.1-11.4-11.4-11.4S41,14.8,41,21.1s5.1,11.4,11.4,11.4S63.9,27.5,63.9,21.1z"/>
</g>
</svg>
