<?xml version="1.0" encoding="utf-8"?>
<!-- Generator: Adobe Illustrator 28.1.0, SVG Export Plug-In . SVG Version: 6.00 Build 0)  -->
<svg version="1.1" id="レイヤー_1" xmlns="http://www.w3.org/2000/svg" xmlns:xlink="http://www.w3.org/1999/xlink" x="0px"
	 y="0px" viewBox="0 0 213.7 16.9" style="enable-background:new 0 0 213.7 16.9;" xml:space="preserve">
<style type="text/css">
	.st0{fill:#FFFFFF;}
</style>
<g>
	<path class="st0" d="M0,14.8L8.1,3.3H0.4V1h11v1.6L3.4,14.1h8.2v2.2H0V14.8z"/>
	<path class="st0" d="M12.8,10.7c0-3.2,2.4-5.9,5.9-5.9c3.5,0,5.9,2.6,5.9,5.9c0,3.2-2.4,5.9-5.9,5.9C15.2,16.6,12.8,14,12.8,10.7z
		 M22.3,10.7c0-2-1.6-3.7-3.6-3.7c-2,0-3.6,1.7-3.6,3.7c0,2.1,1.6,3.7,3.6,3.7C20.7,14.5,22.3,12.8,22.3,10.7z"/>
	<path class="st0" d="M26.2,10.7c0-3.2,2.4-5.9,5.9-5.9c3.5,0,5.9,2.6,5.9,5.9c0,3.2-2.4,5.9-5.9,5.9C28.6,16.6,26.2,14,26.2,10.7z
		 M35.7,10.7c0-2-1.6-3.7-3.6-3.7c-2,0-3.6,1.7-3.6,3.7c0,2.1,1.6,3.7,3.6,3.7C34.1,14.5,35.7,12.8,35.7,10.7z"/>
	<path class="st0" d="M57.8,9.7v6.7h-2.3V10c0-2-1-3-2.5-3c-1.6,0-2.8,1.2-2.8,3.1v6.2h-2.3v-6.3c0-1.9-1-3.1-2.6-3.1
		c-1.6,0-2.8,1.2-2.8,3.1v6.2h-2.3V5.2h2.2v1.6c0.6-1.2,1.9-1.9,3.4-1.9c1.4,0,2.8,0.7,3.4,2c0.8-1.2,2.3-2,4-2
		C56,4.9,57.8,6.7,57.8,9.7z"/>
	<path class="st0" d="M80.5,2.2H74v0.7h7.3v3.9h-1.9V4.2H74v3.5h-1.7V4.2H67v2.6h-1.9V2.9h7.1V2.2h-6.3V0.7h14.4V2.2z M81.8,14.1
		c-0.1,1.4-0.2,2.8-1.6,2.8H74c-0.9,0-1.7-0.1-1.7-1.2v-1.6h-6.2V8.1h14.3v5.5L81.8,14.1z M72.3,11.6h-4.5v1.1h4.5V11.6z M72.3,9.4
		h-4.4v1h4.4V9.4z M71.6,4.9v0.9h-3.6V4.9H71.6z M71.6,6.5v1h-3.6v-1H71.6z M78.5,9.4h-4.5v1h4.5V9.4z M78.5,11.6h-4.5v1.1h4.5V11.6
		z M79.3,15.2c0.5,0,0.6-0.1,0.7-1.2h-6v0.6c0,0.4,0,0.5,0.4,0.5H79.3z M78.6,4.9v0.9h-3.7V4.9H78.6z M78.6,6.5v1h-3.7v-1H78.6z"/>
	<path class="st0" d="M90.2,3.2v1.6h-6.9V3.2H90.2z M89.5,0.5v1.6h-5.7V0.5H89.5z M89.5,5.8v1.6h-5.7V5.8H89.5z M89.5,8.4v1.6h-5.7
		V8.4H89.5z M89.5,11.1v5.5h-5.7v-5.5H89.5z M87.7,12.7h-2.1v2.4h2.1V12.7z M96.2,4.9h3.9v1.8h-3.9v2.5h3.1v7.5h-8.3V9.2h3.3V6.6h-4
		V4.9h4V2.5c-1.5,0.1-2.4,0.2-3.9,0.2L90.2,1c1.2,0,5.5-0.2,8.7-1l0.7,1.6c-0.9,0.3-1.7,0.4-3.4,0.7V4.9z M97.6,10.9h-4.7V15h4.7
		V10.9z"/>
	<path class="st0" d="M104.9,8.1c-0.6-1.3-1.7-3.3-3.2-5l1.7-1c1.5,1.6,2.5,3.1,3.4,4.8L104.9,8.1z M103,14.3
		c6.5-1.5,9.5-5,10.8-12.6l2.2,0.4c-1.3,6.1-3.4,11.8-11.7,13.9L103,14.3z"/>
	<path class="st0" d="M121.6,11.1h-2.1V1.4h2.1V11.1z M130.5,8.7c0,6.1-5,7.1-9.5,7.4l-0.7-1.9c4.8-0.3,8.1-1,8.1-5.3V1.1h2.1V8.7z"
		/>
	<path class="st0" d="M146.7,13.5v1.8h-12.8v-1.8h7.5c0.5-2.6,0.6-3.7,0.8-6.5h-6.6V5.2h8.7c-0.1,3-0.4,5.8-0.9,8.3H146.7z"/>
	<path class="st0" d="M164.1,7.5v2.1h-15.4V7.5H164.1z"/>
	<path class="st0" d="M171.7,9.4c-2.2-1.3-4.1-1.9-5.2-2.2l0.8-1.7c1.1,0.3,2.8,0.7,5.2,2.1L171.7,9.4z M167.5,13.7
		c7.2-0.7,10.1-3.4,12.2-10l1.7,1.3c-2.6,7.7-6.3,10-13.5,11L167.5,13.7z M173.2,5.1c-2-1.2-3.8-1.7-5.3-2.1l0.8-1.7
		c2,0.5,3.4,1,5.4,1.9L173.2,5.1z"/>
	<path class="st0" d="M185.1,10.9V9.2h7.9V6.5h-8.1V4.8h10v10.8h-10.2v-1.8h8.3v-3H185.1z"/>
	<path class="st0" d="M204.3,6.4c-1.2-0.8-2.9-1.8-5.6-2.6l1-1.8c3,0.9,4.8,2,5.7,2.5L204.3,6.4z M199.1,13.6
		c7.1-0.5,10.8-3.9,12.8-10.8l1.8,1.3c-1,2.9-3.6,10.9-14.2,11.7L199.1,13.6z"/>
</g>
</svg>
