<svg xmlns="http://www.w3.org/2000/svg" width="224.106" height="48.462" viewBox="0 0 224.106 48.462">
  <g id="グループ_1874" data-name="グループ 1874" transform="translate(17008.727 -2069)">
    <g id="グループ_1873" data-name="グループ 1873" transform="translate(-17008.727 2069)">
      <path id="パス_678" data-name="パス 678" d="M399.739,152.789a3.876,3.876,0,0,0-3.663-5.139l-21.07-.006a3.877,3.877,0,0,0-3.665,2.613l-1.593,4.623a3.867,3.867,0,0,0-.188.863,3.817,3.817,0,0,0-.538-.041h-6.384l1.3-3.779a3.877,3.877,0,0,0-3.665-5.138H353.3a3.877,3.877,0,0,0-3.665,2.614l-2.17,6.3-79.78.008a3.876,3.876,0,0,0-3.665,2.614l-.054.156h-2.235l2.255-6.549a3.876,3.876,0,0,0-3.665-5.138h-6.978a3.877,3.877,0,0,0-3.665,2.614l-3.124,9.074h-3.3a3.845,3.845,0,0,0-3.687-2.7h-6.977a3.876,3.876,0,0,0-3.665,2.614l-1.9,5.523-.53-4.7a3.876,3.876,0,0,0-3.852-3.441h-4.652a3.859,3.859,0,0,0-.82.088l-.048-.011,3.242-4.926a3.876,3.876,0,0,0-4.2-5.886l-37.405,9.591a3.877,3.877,0,0,0-2.914,3.755v11.769a3.876,3.876,0,0,0,5.587,3.478l4.07-2,.714,1.758,3.516,8.657a3.877,3.877,0,0,0,3.591,2.418h7.171a3.876,3.876,0,0,0,3.591-5.335l-.871-2.145,5.592-8.5,1.415,12.534a3.877,3.877,0,0,0,3.852,3.441h4.653a2.328,2.328,0,0,1,1.23-.022l-1.309,3.8a3.876,3.876,0,0,0,3.665,5.138h6.978a3.876,3.876,0,0,0,3.665-2.614l3.212-9.327h2.479l-2.319,6.736a3.876,3.876,0,0,0,3.665,5.138h6.979a3.876,3.876,0,0,0,3.665-2.614l3.188-9.26h2.89a3.861,3.861,0,0,0,3.761,2.957l75.464-.008a3.869,3.869,0,0,0,1.8-.444l-1.454,4.223a3.876,3.876,0,0,0,3.665,5.138h6.979a3.876,3.876,0,0,0,3.665-2.614l2.342-6.8a3.875,3.875,0,0,0,1.9.5h6.979a3.876,3.876,0,0,0,3.665-2.614l4.68-13.592h10.7l-3.811,11.069a3.876,3.876,0,0,0,3.665,5.138h6.979a3.876,3.876,0,0,0,3.665-2.614l7.208-20.937a3.873,3.873,0,0,0-.432-3.389c0-.013.01-.025.015-.038Z" transform="translate(-175.844 -144.921)" fill="#fff"/>
      <g id="グループ_1872" data-name="グループ 1872" transform="translate(3.876 3.876)">
        <g id="グループ_1870" data-name="グループ 1870" transform="translate(31.987 10.856)">
          <path id="パス_679" data-name="パス 679" d="M287.761,177.146,277.481,207h6.978l10.279-29.853Z" transform="translate(-266.879 -177.146)"/>
          <path id="パス_680" data-name="パス 680" d="M254.29,177.146l2.364,20.936h4.652l-2.364-20.936Z" transform="translate(-254.29 -177.146)"/>
          <path id="パス_681" data-name="パス 681" d="M272.681,177.146h-4.652l2.364,20.936h4.652Z" transform="translate(-261.748 -177.146)"/>
        </g>
        <path id="パス_682" data-name="パス 682" d="M425.048,176.98l-1.629,4.73H439.9l-3.951,11.476H419.469l-1.629,4.73H441.3L448.5,176.98Z" transform="translate(-311.082 -166.2)"/>
        <path id="パス_683" data-name="パス 683" d="M481.926,176.98l-1.629,4.73h16.478l-3.951,11.476H476.346l-1.629,4.73h23.456l7.209-20.937Z" transform="translate(-341.957 -166.2)"/>
        <g id="グループ_1871" data-name="グループ 1871" transform="translate(190.093 2.723)">
          <path id="パス_684" data-name="パス 684" d="M600.125,181.71H616.6l-5.58,16.206H618l7.209-20.937H601.754Z" transform="translate(-600.125 -168.922)"/>
          <path id="パス_685" data-name="パス 685" d="M630.659,159.361l-21.069-.006L608,163.978l21.069.006Z" transform="translate(-604.398 -159.355)"/>
        </g>
        <path id="パス_686" data-name="パス 686" d="M555.122,157.476h-6.979l-3.07,8.917h-4.659l-1.629,4.73h4.66l-8.65,25.123h6.979l8.65-25.123h4.839l-5.58,16.206h6.979l7.209-20.937H552.052Z" transform="translate(-374.568 -155.612)"/>
        <path id="パス_687" data-name="パス 687" d="M391.621,177H368.164l-1.629,4.73h16.478l-1.162,3.373h-15.9l-1.629,4.73h15.9l-1.161,3.373H362.585l-1.629,4.73h23.456Z" transform="translate(-280.204 -166.209)"/>
        <path id="パス_688" data-name="パス 688" d="M332.111,179.659H323.62l1.98-5.749h8.491l1.628-4.73h-8.49l4.024-11.688h-6.978L320.25,169.18h-8.491l-1.628,4.73h8.49l-1.979,5.749h-8.491l-1.628,4.73h8.49l-4.088,11.874H317.9l4.088-11.874h8.491Z" transform="translate(-250.656 -155.621)"/>
        <path id="パス_689" data-name="パス 689" d="M221.728,153.4l-37.406,9.591v11.769l27.4-13.477-10.17,15.184-1.062-2.615h-7.171l4.606,11.341H205.1l-1.638-4.032Z" transform="translate(-184.322 -153.4)"/>
      </g>
    </g>
  </g>
</svg>
