<?xml version="1.0" encoding="utf-8"?>
<!-- Generator: Adobe Illustrator 24.3.0, SVG Export Plug-In . SVG Version: 6.00 Build 0)  -->
<svg version="1.1" id="レイヤー_1" xmlns="http://www.w3.org/2000/svg" xmlns:xlink="http://www.w3.org/1999/xlink" x="0px"
	 y="0px" viewBox="0 0 290 48" style="enable-background:new 0 0 290 48;" xml:space="preserve">
<style type="text/css">
	.st0{fill:#5B8DCD;}
</style>
<path id="パス_1329" class="st0" d="M30.6,9.1c0.2,0,0.3,0.1,0.3,0.3c0,0.1,0,0.2-0.1,0.2c-1,1-2.4,1.6-3.8,1.6
	c-0.4,0-0.8-0.3-1.1-0.6c-0.4-0.4-0.7-1-0.6-1.7c0.1-1,0.6-1.8,1.3-2.4c1.1-1,2.3-1.9,3.7-2.5c1.9-0.9,3.9-1.6,5.9-2.1
	C38.3,1.3,40.5,1,42.6,1c1.6,0,3.1,0.1,4.6,0.5c1,0.2,2,0.6,2.8,1.1c0.6,0.4,1.2,0.9,1.7,1.5c0.7,0.8,1.1,1.8,1.1,2.9
	c0,1.1-0.4,2.1-0.9,3c-0.6,1-1.5,2-2.4,2.7c-1.1,0.8-2.2,1.6-3.4,2.2c-2.4,1.3-5,2.2-7.7,2.8c0.5,0.5,1.5,1.7,3,3.6
	c1.3,1.7,2.7,3.3,4.2,4.9c1.3,1.3,2.2,2,2.9,2l0.6-0.2c0.1,0,0.2,0.1,0.2,0.2s-0.2,0.4-0.7,1c-0.4,0.4-0.8,0.8-1.2,1.2
	c-0.4,0.3-0.9,0.4-1.4,0.4c-0.8-0.1-1.5-0.4-2.1-0.9c-0.9-0.7-1.8-1.6-2.5-2.5c-0.9-1.1-1.7-2.1-2.5-3c-0.7-0.9-1.6-2.1-2.5-3.3
	c-0.9-1.3-1.6-2.2-1.9-2.6c-0.1,0.2-0.5,0.7-1,1.6c-0.5,0.8-0.9,1.4-1.2,1.8c-0.2,0.4-0.6,1-1.1,1.7c-0.5,0.7-0.8,1.4-1.1,1.8
	c-0.7,1.2-1.2,2.1-1.5,2.7c-0.2,0.6-0.8,0.9-1.4,0.9l-0.7,0l-0.6,0c-0.8,0-1.2-0.3-1.2-1c0.1-0.8,0.3-1.5,0.7-2.2
	c0.4-0.9,2.8-4.5,6.9-10.6c4.2-6.1,6.5-9.4,6.9-9.8c0.3-0.3,0.6-0.5,1-0.7c0.1-0.1,0.2-0.1,0.3-0.2l0.4,0.1l0.3-0.1
	c0.1,0,0.2,0.1,0.3,0.1c0.1,0.1,0.1,0.1,0.2,0.2c0.5,0.4,0.8,0.7,0.8,1c0,0.3-0.1,0.5-0.2,0.8c-0.1,0.3-0.5,0.8-1.1,1.7
	s-1.4,2-2.4,3.4s-1.7,2.4-2.2,3.1c1.3-0.1,2.6-0.4,3.8-1c1.5-0.6,2.9-1.3,4.2-2.2c1.2-0.8,2.4-1.7,3.4-2.7c0.8-0.7,1.3-1.6,1.4-2.6
	c0-0.4-0.2-0.8-0.6-1.1c-0.5-0.3-1-0.6-1.5-0.8C46,4.2,44.6,4,43.2,4c-2,0.1-3.9,0.4-5.8,1c-1.8,0.4-3.5,1.1-5.2,1.9
	c-0.8,0.4-1.6,1-2.3,1.5c-0.5,0.4-0.7,0.7-0.7,0.9c0,0.1,0.1,0.1,0.4,0.1c0.3,0,0.5-0.1,0.7-0.2C30.4,9.2,30.5,9.1,30.6,9.1z
	 M62.1,14.5c0,0.9-0.4,1.7-1,2.3c-0.6,0.6-1.5,1-2.4,1c-0.2,0-0.4,0-0.6-0.2C58,17.4,58,17.2,58,17c0-0.2,0-0.4,0.1-0.6
	c-0.5,0.2-1.1,0.4-1.6,0.7c-0.7,0.4-1.4,0.9-2.1,1.4c-0.8,0.6-1.2,1.1-1.2,1.4c0,0.1,0.2,0.2,0.5,0.2c0.5,0,1-0.1,1.4-0.3
	c0.4-0.2,0.9-0.3,1.3-0.3c0.2,0,0.3,0,0.5,0c0.2,0.2,0.4,0.4,0.5,0.6c0.2,0.2,0.3,0.5,0.3,0.7c0,0.2-0.2,0.4-0.5,0.7
	c-0.3,0.3-0.7,0.5-1.2,0.7c-0.3,0.1-0.6,0.2-0.9,0.3c-2.7,1.5-4.1,2.6-4.1,3.2c0,1,0.9,1.5,2.6,1.5c1.2,0,2.4-0.4,3.3-1.1
	c0.9-0.6,1.7-1.2,2.6-1.8c0.8-0.6,1.2-1,1.4-1.1c0.1-0.1,0.3-0.2,0.5-0.2c0.3,0,0.5,0.4,0.5,1.1c0,0.5,0,1-0.1,1.5
	c-0.2,0.4-0.5,0.7-0.8,0.9c-2.8,2.3-5.4,3.4-7.9,3.4c-1.1,0-2.2-0.1-3.2-0.5c-1.3-0.4-2.2-1.7-2.2-3.1c0-1.8,1.2-3.2,3.7-4.1
	c-0.4-0.1-0.8-0.5-1-0.9c-0.2-0.5-0.2-1.1-0.2-1.7c0.1-0.9,0.4-1.8,1.1-2.4c0.7-0.9,1.6-1.6,2.6-2.1c1.9-1.1,4-1.7,6.1-1.9
	c0.5,0,0.9,0.1,1.3,0.3C61.8,13.8,62.1,14.1,62.1,14.5L62.1,14.5z M74,24.8c0.5-0.3,0.9-0.6,1.3-0.9c0.2-0.2,0.4-0.4,0.7-0.6
	c0.2-0.2,0.4-0.3,0.6-0.3c0.3,0,0.4,0.3,0.4,0.9c-0.1,0.7-0.4,1.4-0.9,1.9c-0.6,0.7-1.3,1.3-2.2,1.7c-0.9,0.5-1.8,0.9-2.8,1.2
	c-1.6,0.6-3.3,1-5,1.1c-1.3,0-2.7-0.5-3.7-1.3C61.6,27.7,61,26.4,61,25c0-1.5,0.4-3,1.1-4.3c0.7-1.4,1.6-2.7,2.8-3.8
	c1.1-1.1,2.5-2,3.9-2.6c1.4-0.7,2.9-1,4.4-1c0.7,0,1.3,0.2,1.9,0.6c0.5,0.4,0.9,1,0.8,1.7c-0.1,0.9-0.5,1.8-1,2.5
	c-0.4,0.8-1.2,1.4-2.1,1.5c-0.8,0-1.2-0.4-1.2-1.2c0.1-0.4,0.3-0.8,0.6-1.1c0.3-0.3,0.5-0.7,0.6-1.1c0-0.2-0.1-0.3-0.2-0.3
	c-0.8,0-1.6,0.3-2.3,0.7c-0.8,0.5-1.5,1-2.2,1.6c-0.7,0.6-1.3,1.2-1.9,1.8c-1.2,1.2-1.9,2.9-2,4.6c0,0.6,0.2,1.2,0.6,1.6
	c0.6,0.5,1.3,0.8,2.1,0.7c1,0,2-0.1,2.9-0.3c0.8-0.2,1.6-0.4,2.4-0.7C72.8,25.5,73.4,25.2,74,24.8z M82.3,18.5
	c3.1-3.5,5.7-5.2,7.9-5.2c0.5,0,1,0.2,1.3,0.5C91.8,14,92,14.5,92,15c-0.2,0.9-0.5,1.8-1.1,2.5c-0.7,1.2-1.4,2.2-2,3
	c-0.2,0.4-0.7,0.6-1.1,0.6c-0.4,0-0.7-0.2-1-0.4c-0.2-0.3-0.3-0.7-0.3-1.1c0.1-1.2,0.6-2.2,1.4-3l0,0c-0.4,0-1.5,0.9-3.2,2.5
	c-1.7,1.7-3.1,3.1-4.3,4.4c-1.2,1.3-2.5,2.9-3.9,4.8c-0.4,0.6-0.7,0.8-1,0.8c-0.4,0-0.8-0.1-1.1-0.3c-0.3-0.1-0.6-0.2-0.8-0.4
	c-0.1-0.1-0.2-0.2-0.1-0.4c0-0.2,0.1-0.4,0.2-0.6c0.2-0.4,0.4-0.7,0.6-1c0.3-0.4,0.7-1.2,1.3-2.1c0.6-1,1.4-2.5,2.6-4.5
	c1.2-2,1.9-3.2,2.1-3.6c0.4-0.7,0.8-1.3,1.2-1.9c0.8-0.8,1.9-1.2,3-1.1c0.3,0,0.5,0.2,0.5,0.6c0,0.6-0.6,1.8-1.7,3.5L82.3,18.5z
	 M106.4,23c0.2,0,0.4,0.2,0.4,0.6c0.1,0.4,0.1,0.8,0.1,1.2c0,0.3,0,0.6-0.1,0.8c-0.7,1-1.5,1.9-2.5,2.7c-1,0.9-2.3,1.5-3.6,1.6
	c-0.7,0-1.4-0.2-2-0.6c-0.7-0.5-1-1.4-0.9-2.2c0-1.1,0.3-2.2,0.8-3.1c-3.2,4-5.8,6.1-7.6,6.1c-0.7,0-1.3-0.3-1.8-0.8
	c-0.4-0.4-0.7-1-0.7-1.6c0-0.6,0.1-1.2,0.2-1.7c0.1-0.5,0.3-1.1,0.5-1.6c0.2-0.6,0.5-1.2,0.8-1.7c0.3-0.7,0.6-1.2,0.8-1.5
	c0.2-0.3,0.4-0.8,0.8-1.4c0.4-0.6,0.9-1.5,1.5-2.5c0.4-0.8,0.9-1.6,1.5-2.4c0.3-0.4,0.7-0.7,1.2-0.8c0.4,0,0.8,0.2,1,0.5
	c0.2,0.2,0.4,0.5,0.4,0.8C97,16,96.6,16.9,96,17.7c-2.6,4.7-3.9,7.4-3.9,8.1c0,0.2,0.1,0.3,0.2,0.3c0.6,0,2.2-1.4,4.7-4.1
	c1.6-1.6,3-3.3,4.3-5.2c0.3-0.7,0.7-1.3,1.1-1.9c0.2-0.4,0.5-0.7,0.8-1c0.7-0.4,1.4-0.6,2.2-0.6c0.1,0,0.2,0,0.3,0
	c0.1,0,0.2,0.1,0.3,0.3c0.1,0.1,0.1,0.3,0.2,0.5c-0.4,1-1,2-1.6,2.9c-0.9,1.6-1.4,2.5-1.5,2.7c-1.5,3.2-2.3,5.2-2.3,6.2
	c0,0.5,0.2,0.8,0.6,0.8c1.1-0.3,2-0.9,2.7-1.8c0.4-0.4,0.8-0.8,1.2-1.2c0.2-0.3,0.5-0.5,0.7-0.7C106.2,23,106.3,23,106.4,23z
	 M118.4,7.7c0,0.9-0.4,1.6-1,2.2c-0.5,0.7-1.3,1.1-2.2,1.1c-0.7,0-1.1-0.4-1.1-1.2c0-0.8,0.4-1.6,1-2.2c0.5-0.7,1.3-1,2.2-1.1
	c0.3,0,0.6,0.1,0.8,0.3C118.3,7.1,118.5,7.4,118.4,7.7L118.4,7.7z M115.3,24.7c0,0.3,0,0.6-0.1,0.8c-0.7,1.3-1.7,2.4-3,3.2
	c-1.1,0.7-2.3,1.1-3.6,1.2c-1,0-1.9-0.4-2.7-1c-0.7-0.5-1.1-1.3-1.1-2.1c0.1-1.1,0.5-2.2,1.1-3.1c0.7-1.4,1.4-2.6,2.1-3.8
	c0.4-0.6,0.8-1.2,1.1-1.9c0-0.1-0.1-0.3-0.4-0.6c-0.3-0.3-0.4-0.5-0.4-0.6c0-0.1,0.3-0.5,0.8-1.1c0.6-0.6,1.3-1.2,2-1.7
	c0.5-0.4,1.1-0.7,1.8-0.9c0.4,0,0.8,0.2,1.1,0.5c0.3,0.3,0.5,0.6,0.5,1c0,0.3-1.5,3.1-4.6,8.5c0,0.1-0.1,0.3-0.3,0.5
	c-0.2,0.3-0.3,0.5-0.4,0.7c-0.1,0.2-0.2,0.4-0.3,0.6c-0.2,0.4-0.4,0.8-0.4,1.3c0,0.4,0.3,0.7,0.9,0.7c0.7,0,1.3-0.2,1.9-0.6
	c0.6-0.4,1.2-0.8,1.7-1.4c0.6-0.8,1.3-1.4,2.1-2C115.1,23,115.3,23.6,115.3,24.7z M127.3,4l0.8,0.2c0.1,0,0.2,0.1,0.3,0.2
	c0.1,0.1,0.1,0.2,0.1,0.3c-0.1,0.3-0.2,0.6-0.4,0.8c-0.3,0.5-0.6,1-1,1.6c-0.4,0.6-0.6,0.9-0.6,0.9c1-0.1,1.7-0.1,2.2-0.1
	c0.3,0,0.6,0,0.9,0.1c0.2,0.1,0.4,0.3,0.5,0.5c0.2,0.2,0.3,0.4,0.6,0.6c0.2,0.2,0.3,0.4,0.3,0.6c0,0.3-0.2,0.6-0.5,0.7
	c-0.3,0.2-0.7,0.3-1.1,0.3c-3,0.3-4.7,0.5-5,0.5c-1.1,1.6-2.5,4.1-4.4,7.5c-1.9,3.4-2.9,5.6-3,6.4c0,0.3-0.1,0.6-0.1,1
	c0,0.5,0.3,0.8,0.8,0.8c0.6,0,1.3-0.2,1.8-0.6c0.6-0.4,1.2-0.8,1.8-1.3c0.7-0.7,1.5-1.4,2.3-2c0.3,0,0.5,0.6,0.5,1.8
	c0,0.7-0.3,1.3-0.9,1.7c-1,0.9-2.2,1.8-3.3,2.6c-0.8,0.5-1.7,0.8-2.7,0.9c-0.2,0-0.4,0-0.5-0.1c-0.9-0.1-1.7-0.5-2.3-1.1
	c-0.5-0.6-0.8-1.5-0.7-2.3c0.1-1.2,0.4-2.4,0.9-3.5c0.6-1.5,1.3-3,2.1-4.4c1.4-2.5,2.8-4.9,4.2-7.1l-0.7,0.1
	c-1.5,0.2-2.4,0.3-2.6,0.3h-0.2c-0.4,0-0.7-0.1-1.1-0.2c-0.4-0.1-0.5-0.3-0.5-0.6c0-0.2,0.1-0.5,0.3-0.6c0.1-0.1,0.3-0.3,0.3-0.5
	c0.1-0.3,0.4-0.6,1-1c0.4-0.3,0.9-0.5,1.3-0.6c0.3,0,0.6,0,0.9,0s0.6,0,0.9,0c0.3,0,0.6,0,0.8,0l1.8-0.1c0.7-1.1,1.5-2.1,2.3-3.2
	c0.2-0.3,0.5-0.5,0.7-0.8c0.1-0.1,0.3-0.1,0.4-0.1L127.3,4z M149.5,0.8l0.9,0c0.3,0,0.5,0.1,0.5,0.4c0,0.1,0,0.1,0,0.2
	c-6.2,9.2-12,18.1-17.4,26.9c-0.3,0.5-0.5,0.7-0.8,0.8c-0.1,0-0.1,0-0.2,0.1c-0.4,0.2-0.9,0.3-1.4,0.4c-0.1,0-0.3,0-0.4,0
	c-0.1,0.1-0.3,0.2-0.4,0.2c-0.2,0-0.3,0-0.3,0c-0.2,0-0.3-0.1-0.4-0.2c-0.2-0.1-0.4-0.2-0.4-0.2c0-0.4,0-0.8,0.1-1.2
	c0.3-0.9,1.8-3.5,4.5-7.8s5.5-8.5,8.4-12.6c2.8-4.1,4.5-6.4,5.1-6.8c0.2-0.2,0.5-0.2,0.7-0.2L149.5,0.8z M152.1,26.1
	c0,0.6,0.4,0.9,1.2,0.9c0.6-0.1,1.1-0.3,1.6-0.6c0.6-0.4,1.2-0.9,1.7-1.4c0.7-0.8,1.4-1.5,2.3-2c0.3,0,0.5,0.5,0.5,1.5
	c0.1,0.8-0.3,1.6-0.9,2c-1.3,1.3-2.7,2.3-4.3,3.1c-0.6,0.2-1.3,0.3-1.9,0.3c-0.8,0-1.5-0.4-2.1-0.9c-0.6-0.5-1-1.3-1-2.1
	c0-1,0.3-2,0.7-2.9c0.4-0.9,0.8-1.9,1.4-2.7c0.5-0.8,1-1.6,1.7-2.7c0.4-0.6,0.8-1.2,1.1-1.9l0,0c-0.4,0-1.5,0.9-3.2,2.5
	c-1.7,1.7-3.1,3.1-4.2,4.3c-1.1,1.2-2.4,2.9-4,4.9c-0.4,0.6-0.8,0.8-1.1,0.8c-0.4,0-0.8-0.1-1.1-0.3c-0.3-0.1-0.6-0.2-0.9-0.4
	c-0.1-0.1-0.2-0.2-0.2-0.4c0-0.2,0.1-0.4,0.1-0.6c0.1-0.2,0.2-0.4,0.3-0.6c0.1-0.1,0.2-0.4,0.4-0.7s0.6-1,1.2-2
	c0.6-1,1.5-2.5,2.7-4.5s1.9-3.2,2.1-3.6c0.4-0.7,0.8-1.3,1.2-1.9c0.8-0.8,1.9-1.2,3-1.1c0.3,0,0.5,0.2,0.5,0.6
	c0,0.6-0.6,1.8-1.7,3.5l-0.8,1.2c2.3-2.5,4.2-4.1,5.7-4.7c0.6-0.3,1.3-0.5,2-0.5c0.5,0,1,0.1,1.4,0.5c0.3,0.3,0.5,0.7,0.5,1.1
	c0,0.5-0.2,1-0.4,1.4c-0.2,0.5-0.5,1-0.8,1.5c-0.3,0.4-0.6,1-1.1,1.6s-0.7,1-0.7,1.1c0,0.1-0.1,0.2-0.3,0.5
	c-0.2,0.3-0.3,0.4-0.4,0.6c-0.1,0.1-0.2,0.3-0.4,0.6c-0.2,0.3-0.3,0.5-0.4,0.7l-0.4,0.7c-0.2,0.3-0.3,0.5-0.4,0.7
	c-0.1,0.2-0.2,0.4-0.3,0.7C152.2,25.3,152.2,25.7,152.1,26.1L152.1,26.1z M156.5,22.8l-0.2-0.5c0-0.1,0.1-0.2,0.2-0.3
	c0.2-0.1,0.3-0.3,0.4-0.4c0.1-0.2,0.2-0.3,0.4-0.4l0.3-0.3c0.1-0.1,0.3-0.2,0.3-0.3c0.2-0.2,0.3-0.3,0.5-0.4L159,20
	c0.7-0.2,1.4-0.4,2.1-0.5c3.3-5.5,6-9.9,8-13s3.2-4.9,3.4-5.2c0.4-0.4,0.9-0.7,1.5-0.9c0.5-0.2,1-0.3,1.6-0.4c0.3,0,0.5,0.2,0.5,0.4
	c0,0.2-0.1,0.3-0.1,0.5c-0.1,0.2-0.8,1.3-2.1,3.5c-5,7.8-8.1,12.8-9.5,15.1l0.5,0.2c3-0.6,4.6-0.8,4.7-0.8c0.3,0.1,0.6,0.1,0.9,0.3
	c0.3,0.1,0.7,0.2,1,0.3c0.3,0.1,0.4,0.3,0.4,0.7s-0.1,0.7-0.4,0.7c-0.2,0-0.8,0.2-1.6,0.4s-1.5,0.4-2,0.5c0.7,0.7,1,1.6,1,2.6
	c-0.1,1.3-0.5,2.6-1.2,3.7c-0.9,1.6-1.9,3.1-3.1,4.5c-1.3,1.5-2.6,2.9-4,4.2c-1.2,1.2-2.6,2.3-4,3.2c-0.8,0.6-1.8,1.1-2.9,1.2
	c-0.6,0-1.2-0.2-1.7-0.5c-0.5-0.3-0.8-0.9-0.7-1.5c0-0.8,0.2-1.5,0.4-2.3c0.2-0.8,0.5-1.6,0.9-2.4c0.3-0.7,0.8-1.8,1.6-3.1
	c0.8-1.5,2.3-4,4.4-7.5c-0.3,0.1-0.6,0.1-0.8,0.1c-0.2,0-0.4,0-0.5-0.1c-0.2-0.1-0.3-0.2-0.4-0.4C156.5,23.3,156.5,23.1,156.5,22.8
	L156.5,22.8z M162,31.3c0.9-1.1,1.8-2.3,2.5-3.6c0.6-0.9,0.9-2,1-3c0-0.8-0.5-1.6-1.2-2.1l-2.2,0.5c-0.2,0.4-0.6,0.9-1,1.7
	c-0.5,0.8-0.8,1.4-1.1,1.9c-0.3,0.5-0.7,1.1-1.1,1.9c-0.5,0.8-0.8,1.4-1.1,2c-0.3,0.5-0.6,1.1-1,1.8s-0.7,1.2-0.9,1.7
	c-0.2,0.5-0.5,0.9-0.7,1.4c-0.3,0.6-0.5,1.2-0.6,1.8c0,0.3,0.1,0.4,0.2,0.4c0.6-0.2,1.1-0.5,1.6-0.9c1-0.7,1.9-1.5,2.8-2.4
	C160,33.5,161,32.4,162,31.3z M185.2,14.2c0.5,0,0.9,0.2,1.2,0.5c0.4,0.4,0.7,1,0.6,1.6c-0.1,1-0.3,1.9-0.8,2.8
	c-0.6,1.2-1.3,2.4-2.1,3.5c-0.9,1.2-1.9,2.3-2.9,3.4c-1,1-2.2,1.9-3.4,2.6c-1,0.6-2.2,1-3.3,1c-0.9,0-1.8-0.3-2.4-0.9
	c-0.6-0.7-1-1.7-0.9-2.6c0-1.3,0.3-2.6,0.8-3.7c0.5-1.3,1.2-2.5,2.1-3.6c0.9-1,1.8-2,2.8-2.8c2.1-1.7,4-2.6,5.6-2.6
	c0.6,0,1.2,0.1,1.6,0.5c0.1,0.1,0.2,0.2,0.2,0.3v0.1C184.6,14.3,184.9,14.2,185.2,14.2z M183.2,16.8h-0.1c-0.5,0-0.7-0.3-0.7-1
	c-1.1,0.4-2.1,0.9-3,1.6c-1.1,0.8-2,1.7-2.8,2.8c-1.7,2.1-2.5,3.9-2.5,5.4c0,0.7,0.3,1.1,0.8,1.1c0.9-0.1,1.7-0.5,2.4-1.1
	c1.2-0.8,2.3-1.8,3.1-3c0.9-1.1,1.6-2.2,2.3-3.4c0.4-0.6,0.6-1.3,0.8-2C183.5,17,183.4,16.8,183.2,16.8L183.2,16.8z M193,18.5
	c3.1-3.5,5.7-5.2,7.9-5.2c0.5,0,1,0.2,1.3,0.5c0.3,0.3,0.5,0.8,0.5,1.2c-0.2,0.9-0.5,1.8-1.1,2.5c-0.7,1.2-1.4,2.2-2,3
	c-0.2,0.4-0.7,0.6-1.1,0.6c-0.4,0-0.7-0.2-1-0.4c-0.2-0.3-0.3-0.7-0.3-1.1c0.1-1.2,0.6-2.2,1.4-3.1l0,0c-0.4,0-1.5,0.9-3.2,2.5
	c-1.7,1.7-3.1,3.1-4.3,4.4c-1.2,1.3-2.5,2.9-3.9,4.8c-0.4,0.6-0.7,0.8-1,0.8c-0.4,0-0.8-0.1-1.1-0.3c-0.3-0.1-0.6-0.2-0.8-0.4
	c-0.1-0.1-0.2-0.2-0.2-0.4c0-0.2,0.1-0.4,0.2-0.6c0.2-0.4,0.4-0.7,0.6-1c0.3-0.4,0.7-1.2,1.3-2.1c0.6-1,1.4-2.5,2.6-4.5
	c1.2-2,1.9-3.2,2.1-3.6c0.4-0.6,0.8-1.3,1.2-1.9c0.8-0.8,1.9-1.2,3-1.1c0.3,0,0.5,0.2,0.5,0.6c0,0.6-0.6,1.8-1.7,3.5L193,18.5z
	 M200.6,29.2l-1,0h-0.4c-0.2-0.1-0.3-0.1-0.4-0.2c-0.1-0.1-0.3-0.2-0.3-0.3c-0.1-0.1-0.1-0.2-0.1-0.3c0-0.2,0.1-0.5,0.2-0.7
	c2-4.7,4.5-9.2,7.4-13.4c0.3-0.4,0.8-0.7,1.3-0.8c0.5-0.2,1.1-0.3,1.7-0.3c0.3,0,0.5,0.3,0.5,0.8c0,0.2-0.1,0.4-0.2,0.6
	c-0.2,0.4-0.5,0.8-0.8,1.2c-0.4,0.5-0.9,1.2-1.5,1.9s-0.9,1.1-1,1.2c1.4-1.6,3.1-2.9,4.8-4.1c0.9-0.7,2-1.2,3.1-1.4
	c0.6,0,1.1,0.2,1.5,0.6c0.3,0.3,0.5,0.7,0.5,1.2c0,0.4,0,0.7-0.1,1.1c-0.1,0.3-0.2,0.6-0.3,0.9c-0.2,0.3-0.3,0.6-0.4,0.8
	c-0.2,0.3-0.3,0.6-0.6,0.8l-0.5,0.7c-0.1,0.1-0.3,0.4-0.6,0.7c-0.3,0.4-0.5,0.6-0.5,0.6c0.4-0.4,0.9-0.9,1.5-1.6s1.2-1.3,1.7-1.8
	c0.4-0.5,1-1,1.7-1.6c0.6-0.5,1.2-1,1.9-1.5c1.3-0.8,2.8-1.3,4.3-1.3c0.5,0,0.9,0.2,1.2,0.5c0.3,0.3,0.5,0.7,0.5,1.1
	c-0.3,1.1-0.9,2.2-1.6,3.1c-1.1,1.6-2.1,3.3-3.2,5c-0.7,0.9-1.2,2-1.6,3.1c0,0.6,0.1,1,0.3,1.1c0.2,0.1,0.5,0.2,0.8,0.1
	c0.5-0.1,0.9-0.3,1.3-0.6c0.5-0.4,1-0.7,1.5-1.2c0.7-0.7,1.4-1.3,2-1.9c0.1-0.1,0.3-0.2,0.4-0.2c0.2,0,0.4,0.2,0.4,0.6
	c0.1,0.4,0.1,0.8,0.1,1.2c0,0.3,0,0.6-0.1,0.8c-0.7,1-1.5,1.9-2.5,2.7c-1,0.9-2.3,1.5-3.7,1.6c-0.1,0-0.2,0-0.3,0
	c-1,0-2-0.4-2.8-1.1c-0.5-0.6-0.8-1.4-0.8-2.2c0.1-1.1,0.4-2.1,0.9-3c0.5-1.1,1.2-2.2,1.9-3.2c0.7-1,1.3-1.8,1.9-2.6
	c0.3-0.4,0.6-0.8,0.9-1.3c0-0.1-0.1-0.1-0.2-0.1c-0.4,0-1.3,0.7-2.7,2c-2.2,2-4.2,4.2-6.2,6.4c-0.5,0.5-1.5,1.9-3.2,4.2
	c-0.2,0.3-0.6,0.4-0.9,0.4c-0.5,0-0.9-0.1-1.3-0.2c-0.5-0.2-0.7-0.4-0.7-0.6c0-0.1,1-2,3.1-5.5s3.1-5.4,3.1-5.8
	c0-0.3-0.2-0.5-0.6-0.5s-1.2,0.6-2.4,1.7c-3,2.8-5.6,5.9-7.7,9.4c-0.2,0.3-0.4,0.6-0.7,0.9C200.9,29.1,200.7,29.2,200.6,29.2z
	 M239.8,14.3c1,0,1.5,0.3,1.5,1c0,0.3-0.1,0.6-0.3,0.8c-0.4,0.5-0.8,1.1-1.1,1.7c-0.6,1-1.2,2.2-1.8,3.7c-0.6,1.2-1,2.5-1.3,3.8
	c0,0.2-0.1,0.4-0.1,0.5c0,0.7,0.2,1.1,0.6,1.1c0.5,0,1-0.2,1.4-0.6c0.5-0.4,1-0.8,1.4-1.2c0.4-0.4,0.8-0.9,1.2-1.3
	c0.4-0.4,0.6-0.7,0.7-0.8c0.1-0.1,0.2-0.1,0.4-0.1c0.2,0,0.4,0.2,0.4,0.6c0.1,0.4,0.1,0.8,0.1,1.2c0,0.3,0,0.6-0.1,0.8
	c-0.6,1-1.5,2-2.5,2.7c-1,0.9-2.2,1.5-3.5,1.6c-0.9,0.1-1.7-0.3-2.3-1c-0.5-0.6-0.7-1.3-0.7-2.1c0-0.7,0.1-1.4,0.4-2
	c-1,1.4-2.3,2.6-3.7,3.6c-1,0.8-2.2,1.3-3.4,1.5c-0.8,0-1.6-0.3-2.2-0.8c-0.7-0.7-1.1-1.7-1.1-2.8c0-1.2,0.3-2.4,0.8-3.6
	c0.5-1.2,1.2-2.3,2.1-3.3c0.9-1,1.8-1.9,2.8-2.7c2.2-1.7,4.2-2.5,6-2.5c0.6,0,1.2,0.1,1.7,0.4c0.4,0.2,0.7,0.5,0.8,0.9
	c0.2-0.3,0.5-0.7,0.8-0.9C239.1,14.3,239.5,14.3,239.8,14.3L239.8,14.3z M237.2,16.5c-2.2,0-4.5,1.2-6.9,3.7c-0.9,1-1.7,2-2.3,3.2
	c-0.5,0.8-0.9,1.6-1.1,2.5c0,0.5,0.1,0.7,0.4,0.7c0.4,0,1.4-0.7,3-2.2c1.2-1,2.3-2,3.3-3.2C234.3,20.5,235.4,18.9,237.2,16.5
	L237.2,16.5z M254.6,4l0.8,0.2c0.1,0,0.2,0.1,0.3,0.2c0.1,0.1,0.1,0.2,0.1,0.3c-0.1,0.3-0.2,0.6-0.4,0.8c-0.3,0.5-0.6,1-1,1.6
	c-0.4,0.6-0.6,0.9-0.6,0.9c1-0.1,1.7-0.1,2.2-0.1c0.3,0,0.6,0,0.9,0.1c0.2,0.1,0.4,0.3,0.5,0.5c0.2,0.2,0.3,0.4,0.6,0.6
	c0.2,0.2,0.3,0.4,0.3,0.6c0,0.3-0.2,0.6-0.5,0.7c-0.3,0.2-0.7,0.3-1.1,0.3c-3,0.3-4.7,0.5-5,0.5c-1.1,1.6-2.5,4.1-4.4,7.5
	c-1.9,3.4-2.9,5.6-3,6.4c0,0.3-0.1,0.6-0.1,1c0,0.5,0.3,0.8,0.8,0.8c0.6,0,1.3-0.2,1.8-0.6c0.6-0.4,1.2-0.8,1.8-1.3
	c0.7-0.7,1.5-1.4,2.3-2c0.3,0,0.5,0.6,0.5,1.8c0,0.7-0.3,1.3-0.9,1.7c-1,0.9-2.2,1.8-3.3,2.6c-0.8,0.5-1.7,0.8-2.7,0.9
	c-0.2,0-0.4,0-0.5-0.1c-0.9-0.1-1.7-0.5-2.3-1.1c-0.5-0.6-0.8-1.5-0.7-2.3c0.1-1.2,0.4-2.4,0.9-3.5c0.6-1.5,1.3-3,2.1-4.4
	c1.4-2.5,2.8-4.9,4.2-7.1l-0.7,0.1c-1.5,0.2-2.4,0.3-2.6,0.3h-0.2c-0.4,0-0.7-0.1-1.1-0.2c-0.4-0.1-0.5-0.3-0.5-0.6
	c0-0.2,0.1-0.5,0.3-0.6c0.1-0.1,0.3-0.3,0.3-0.5c0.1-0.3,0.4-0.6,1-1c0.4-0.3,0.9-0.5,1.3-0.6c0.3,0,0.6,0,0.9,0s0.6,0,0.9,0
	c0.3,0,0.6,0,0.8,0l1.8-0.1c0.7-1.1,1.5-2.1,2.3-3.2c0.2-0.3,0.5-0.5,0.7-0.8c0.1-0.1,0.3-0.1,0.4-0.1L254.6,4z M262.5,7.7
	c0,0.9-0.4,1.6-1,2.2c-0.5,0.7-1.3,1.1-2.2,1.1c-0.7,0-1.1-0.4-1.1-1.2c0-0.8,0.4-1.6,1-2.2c0.5-0.7,1.3-1,2.2-1.1
	c0.3,0,0.6,0.1,0.8,0.3C262.4,7.1,262.5,7.4,262.5,7.7L262.5,7.7z M259.3,24.7c0,0.3,0,0.6-0.1,0.8c-0.7,1.3-1.7,2.4-3,3.2
	c-1.1,0.7-2.3,1.1-3.6,1.2c-1,0-1.9-0.4-2.7-1c-0.7-0.5-1.1-1.3-1.1-2.1c0.1-1.1,0.5-2.2,1.1-3.1c0.7-1.4,1.4-2.6,2.1-3.8
	c0.4-0.6,0.8-1.2,1.1-1.9c0-0.1-0.1-0.3-0.4-0.6c-0.3-0.3-0.4-0.5-0.4-0.6c0-0.1,0.3-0.5,0.8-1.1c0.6-0.6,1.3-1.2,2-1.7
	c0.5-0.4,1.1-0.7,1.8-0.9c0.4,0,0.8,0.2,1.1,0.5c0.3,0.3,0.5,0.6,0.5,1c0,0.3-1.5,3.1-4.6,8.5c0,0.1-0.1,0.3-0.3,0.5
	c-0.2,0.3-0.3,0.5-0.4,0.7c-0.1,0.2-0.2,0.4-0.3,0.6c-0.2,0.4-0.4,0.8-0.4,1.3c0,0.4,0.3,0.7,0.9,0.7c0.7,0,1.3-0.2,1.9-0.6
	c0.6-0.4,1.2-0.8,1.7-1.4c0.6-0.8,1.3-1.4,2.1-2C259.2,23,259.3,23.6,259.3,24.7z M271.2,14.2c0.5,0,0.9,0.2,1.2,0.5
	c0.4,0.4,0.7,1,0.6,1.6c-0.1,1-0.3,1.9-0.8,2.8c-0.6,1.2-1.3,2.4-2.1,3.5c-0.9,1.2-1.9,2.3-2.9,3.4c-1,1-2.2,1.9-3.4,2.6
	c-1,0.6-2.2,1-3.4,1c-0.9,0-1.8-0.3-2.4-0.9c-0.6-0.7-1-1.7-0.9-2.6c0-1.3,0.3-2.6,0.8-3.7c0.5-1.3,1.2-2.5,2.1-3.6
	c0.9-1,1.8-2,2.8-2.8c2.1-1.7,4-2.6,5.6-2.6c0.6,0,1.2,0.1,1.6,0.5c0.1,0.1,0.2,0.2,0.2,0.3v0.1C270.6,14.3,270.9,14.2,271.2,14.2z
	 M269.2,16.8H269c-0.5,0-0.7-0.3-0.7-1c-1.1,0.4-2.1,0.9-3,1.6c-1.1,0.8-2,1.7-2.8,2.8c-1.7,2.1-2.5,3.9-2.5,5.4
	c0,0.7,0.3,1.1,0.8,1.1c0.9-0.1,1.7-0.5,2.4-1.1c1.2-0.8,2.2-1.9,3.1-3c0.9-1.1,1.6-2.2,2.3-3.4c0.4-0.6,0.6-1.3,0.8-2
	C269.5,17,269.4,16.8,269.2,16.8L269.2,16.8z M282.7,26.1c0,0.6,0.4,0.9,1.2,0.9c0.6-0.1,1.1-0.3,1.6-0.6c0.6-0.4,1.2-0.9,1.7-1.4
	c0.7-0.8,1.4-1.5,2.3-2c0.3,0,0.5,0.5,0.5,1.5c0.1,0.8-0.3,1.6-0.9,2c-1.3,1.3-2.7,2.3-4.3,3.1c-0.6,0.2-1.3,0.3-1.9,0.3
	c-0.8,0-1.5-0.4-2.1-0.9c-0.6-0.5-1-1.3-1-2.1c0-1,0.3-2,0.7-2.9c0.4-0.9,0.8-1.9,1.4-2.7c0.5-0.8,1-1.6,1.7-2.7
	c0.4-0.6,0.8-1.2,1.1-1.9l0,0c-0.4,0-1.5,0.9-3.2,2.5c-1.7,1.7-3.1,3.1-4.2,4.3c-1.1,1.2-2.4,2.9-4,4.9c-0.4,0.6-0.8,0.8-1.1,0.8
	c-0.4,0-0.8-0.1-1.1-0.3c-0.3-0.1-0.6-0.2-0.9-0.4c-0.1-0.1-0.2-0.2-0.2-0.4c0-0.2,0.1-0.4,0.1-0.6c0.1-0.2,0.2-0.4,0.3-0.6
	c0.1-0.1,0.2-0.4,0.4-0.7s0.6-1,1.2-2c0.6-1,1.5-2.5,2.7-4.5s1.9-3.2,2.1-3.6c0.4-0.7,0.8-1.3,1.2-1.9c0.8-0.8,1.9-1.2,3-1.1
	c0.3,0,0.5,0.2,0.5,0.6c0,0.6-0.6,1.8-1.7,3.5l-0.8,1.2c2.3-2.5,4.2-4.1,5.7-4.7c0.6-0.3,1.3-0.5,2-0.5c0.5,0,1,0.1,1.4,0.5
	c0.3,0.3,0.5,0.7,0.5,1.1c0,0.5-0.2,1-0.4,1.4c-0.2,0.5-0.5,1-0.8,1.5c-0.3,0.4-0.6,1-1.1,1.6s-0.7,1-0.7,1.1c0,0.1-0.1,0.2-0.3,0.5
	s-0.3,0.4-0.4,0.6c-0.1,0.1-0.2,0.3-0.4,0.6c-0.2,0.3-0.3,0.5-0.4,0.7l-0.4,0.7c-0.2,0.3-0.3,0.5-0.4,0.7s-0.2,0.4-0.3,0.7
	C282.9,25.3,282.8,25.7,282.7,26.1z"/>
</svg>
