<?xml version="1.0" encoding="utf-8"?>
<!-- Generator: Adobe Illustrator 24.3.0, SVG Export Plug-In . SVG Version: 6.00 Build 0)  -->
<svg version="1.1" id="レイヤー_1" xmlns="http://www.w3.org/2000/svg" xmlns:xlink="http://www.w3.org/1999/xlink" x="0px"
	 y="0px" viewBox="0 0 290 48" style="enable-background:new 0 0 290 48;" xml:space="preserve">
<style type="text/css">
	.st0{fill:#5B8DCD;}
</style>
<path id="パス_1328" class="st0" d="M122.9,2c-0.1,0-0.2-0.1-0.2-0.3c0-0.1,0-0.3,0.2-0.4c0.1-0.1,0.3-0.2,0.6-0.3
	c0.3-0.1,0.5-0.2,0.6-0.3c0.1,0,0.3-0.1,0.5-0.2c0.2-0.1,0.4-0.2,0.5-0.2c0.1,0,0.3-0.1,0.5-0.2c0.4-0.1,0.8-0.1,1.2-0.1
	c0.5,0,1.1,0.2,1.5,0.5c0.5,0.3,0.8,0.8,0.8,1.3c-0.1,1.6-0.7,3.1-1.5,4.5c-1.1,2-2.4,4-3.8,5.8c-1.5,2-3.3,4.1-5.2,6.2
	c-1.9,2.1-3.8,3.9-5.6,5.6c-1.6,1.5-3.4,2.8-5.2,4c-1.1,0.8-2.4,1.4-3.7,1.6c-1.8,0-2.8-0.8-2.8-2.5c0-2.4,1.3-5.8,4-10.2
	c-5.2,6.1-9.5,10.1-13,11.9c-0.6,0.4-1.4,0.6-2.1,0.7c-0.7-0.1-1.3-0.4-1.8-0.9c-0.6-0.4-1-1-1-1.7c0-3.2,2.3-7.8,6.8-13.6
	c1.7-2.2,3.9-4.7,6.4-7.5c-2.2,1.9-3.9,2.9-5.1,2.9c-0.6,0-1.2-0.4-1.4-0.9c-0.3-0.4-0.4-0.8-0.4-1.3c0.1-0.5,0.4-1,0.8-1.3
	c0.3-0.3,0.6-0.5,0.9-0.7c0.1,0,0.2,0,0.3,0.1c0.1,0.1,0.1,0.1,0.1,0.2C95.3,4.8,95.2,5,95.2,5s0.1,0.1,0.2,0.1
	c1.3-0.7,2.7-1.4,3.9-2.2c1.3-0.9,2.6-1.6,4-2.2c0.7,0,1.4,0.2,2,0.6c0.6,0.4,0.9,0.7,0.9,0.9c0,0.4-0.2,0.7-0.4,1
	c-0.3,0.4-1.8,2.5-4.6,6.1c-2.8,3.7-4.9,6.4-6.2,8.3c-1,1.5-2,3-2.8,4.6c-0.4,0.7-0.7,1.4-0.9,2.2c0,0.3,0,0.4,0.1,0.4
	c0.5,0,2.5-1.7,5.9-5s6.6-6.6,9.6-9.8c3-3.2,4.7-5,5-5.4c0.2-0.3,0.5-0.6,0.9-0.8c0.4-0.2,0.9-0.3,1.4-0.2c1.7,0,2.6,0.3,2.6,1
	c0,0.3-0.4,0.9-1.1,1.7c-0.8,0.9-1.3,1.5-1.6,1.9c-2.1,2.8-3.9,5.7-5.4,8.8c-2,3.8-3,6.2-3,7.2c0,0.3,0.1,0.4,0.3,0.4
	c0.6-0.3,1.2-0.6,1.7-1.1c0.9-0.7,2.2-1.8,3.7-3.3s3.3-3.3,5.2-5.4c2-2.3,3.9-4.7,5.6-7.2c1.8-2.6,2.6-4.3,2.6-5s-0.3-1-0.8-1
	L122.9,2z M134.6,14.1c0.5,0,0.9,0.2,1.2,0.5c0.4,0.4,0.7,1,0.6,1.6c-0.1,1-0.3,1.9-0.8,2.8c-0.6,1.2-1.3,2.4-2.1,3.5
	c-0.9,1.2-1.9,2.3-2.9,3.4c-1,1-2.2,1.9-3.4,2.6c-1,0.6-2.2,1-3.4,1c-0.9,0-1.8-0.3-2.4-0.9c-0.6-0.7-1-1.7-0.9-2.6
	c0-1.3,0.3-2.6,0.8-3.7c0.5-1.3,1.2-2.5,2.1-3.6c0.9-1,1.8-2,2.8-2.8c2.1-1.7,4-2.6,5.6-2.6c0.6,0,1.2,0.1,1.6,0.5
	c0.1,0.1,0.2,0.2,0.2,0.3v0.1C134.1,14.1,134.4,14.1,134.6,14.1L134.6,14.1z M132.7,16.7h-0.1c-0.5,0-0.7-0.3-0.7-1
	c-1.1,0.4-2.1,0.9-3,1.6c-1.1,0.8-2,1.7-2.8,2.8c-1.7,2.1-2.5,3.9-2.5,5.4c0,0.7,0.3,1.1,0.8,1.1c0.9-0.1,1.7-0.5,2.4-1.1
	c1.2-0.8,2.3-1.8,3.1-3c0.9-1.1,1.7-2.2,2.3-3.4c0.4-0.6,0.6-1.3,0.8-2C132.9,16.9,132.9,16.7,132.7,16.7L132.7,16.7z M142.4,18.4
	c3.1-3.5,5.7-5.2,7.9-5.2c0.5,0,1,0.2,1.3,0.5c0.3,0.3,0.5,0.8,0.5,1.2c-0.2,0.9-0.5,1.8-1.1,2.5c-0.7,1.2-1.4,2.2-2,3
	c-0.2,0.4-0.7,0.6-1.1,0.6c-0.4,0-0.7-0.2-1-0.4c-0.2-0.3-0.3-0.7-0.3-1.1c0.1-1.2,0.6-2.2,1.4-3l0,0c-0.4,0-1.5,0.9-3.2,2.5
	c-1.7,1.7-3.1,3.1-4.3,4.4c-1.2,1.3-2.5,2.9-3.9,4.8c-0.4,0.6-0.7,0.8-1,0.8c-0.4,0-0.8-0.1-1.1-0.3c-0.3-0.1-0.6-0.2-0.8-0.4
	c-0.1-0.1-0.2-0.2-0.1-0.4c0-0.2,0.1-0.4,0.2-0.6c0.2-0.4,0.4-0.7,0.6-1c0.3-0.4,0.7-1.2,1.3-2.1c0.6-1,1.4-2.5,2.6-4.5
	c1.2-2,1.9-3.2,2.1-3.6c0.4-0.7,0.8-1.3,1.2-1.9c0.8-0.8,1.9-1.2,3-1.1c0.3,0,0.5,0.2,0.5,0.6c0,0.6-0.6,1.8-1.7,3.5L142.4,18.4z
	 M150.3,29.5l-1.2-0.3c-0.4-0.1-0.8-0.3-0.9-0.7c-0.1-0.1-0.1-0.2-0.1-0.2c0,0,0-0.1,0-0.1c0-0.1,0-0.1,0-0.2c0-0.1,0.1-0.2,0.1-0.3
	c0.1-0.1,0.1-0.3,0.1-0.4c0.3-0.9,2.6-5.3,6.9-13s6.5-11.8,6.7-12c0.2-0.2,0.3-0.4,0.4-0.5c0.1-0.1,0.2-0.2,0.3-0.3
	c0.1-0.1,0.2-0.1,0.3-0.2c0.1,0,0.2-0.1,0.4-0.1c0.2-0.1,0.4-0.1,0.5-0.2c0.2-0.1,0.4-0.2,0.6-0.3c0.2-0.1,0.4-0.2,0.4-0.2
	c0.1,0,0.2-0.1,0.3-0.1c0.1,0,0.3,0.1,0.4,0.2c0.1,0.1,0.2,0.3,0.2,0.4v0.1c-0.1,0.2-1.8,3.3-5.1,9.3c-3.3,5.9-5.1,9.2-5.4,9.7
	c1.6-0.8,3.1-1.8,4.5-3c2-1.6,3-2.6,3-3.2c0-0.4,0.2-0.9,0.5-1.1c0.3-0.2,0.7-0.4,1.1-0.4c0.4,0,0.7,0.1,1,0.4
	c0.3,0.4,0.5,0.8,0.4,1.3c-0.1,0.8-0.5,1.6-1,2.3c-0.7,1-1.5,1.8-2.4,2.6c-1.5,1.4-3.2,2.5-5,3.4c1.1,2.9,2.3,4.3,3.6,4.3
	c1.1-0.3,2-0.9,2.7-1.8c0.4-0.4,0.8-0.8,1.2-1.2c0.4-0.4,0.6-0.7,0.7-0.7c0.1-0.1,0.2-0.1,0.4-0.1c0.2,0,0.4,0.2,0.4,0.6
	c0.1,0.4,0.1,0.8,0.1,1.2c0,0.3,0,0.6-0.1,0.8c-0.7,1-1.5,1.9-2.5,2.7c-1,0.9-2.3,1.5-3.6,1.6c-0.7,0-1.4-0.1-2-0.5
	c-0.5-0.3-0.9-0.6-1.1-0.8c-0.3-0.2-0.6-0.5-0.8-0.9l-0.7-0.9c-0.2-0.3-0.5-0.6-0.6-1c-0.2-0.4-0.4-0.7-0.5-0.9
	c-0.1-0.2-0.3-0.5-0.5-0.9c-0.2-0.4-0.3-0.6-0.3-0.7c-0.2,0.5-0.5,1-0.8,1.6c-0.3,0.6-0.5,1.1-0.8,1.6c-0.2,0.5-0.4,0.9-0.6,1.3
	c-0.2,0.4-0.4,0.7-0.5,1c-0.1,0.3-0.2,0.4-0.2,0.4C150.7,29.3,150.5,29.5,150.3,29.5z M190.2,32.3c-0.9,0.1-1.9-0.2-2.6-0.8
	c-2-2-3-3.2-3-3.5c-1.7,0.7-3.5,1.1-5.4,1.1c-1.7,0.1-3.4-0.3-4.9-1.2c-1.3-0.7-2-2.1-1.9-3.6c0-2.7,1.9-5,5.6-7
	c-0.9-1.6-1.5-3.4-1.6-5.3c0-1.5,0.6-2.9,1.7-3.9c1-1,2.5-1.6,3.9-1.6c1.3-0.1,2.5,0.3,3.5,1.1c0.9,0.7,1.3,1.8,1.3,2.9
	c0,2.5-1.6,4.7-4.9,6.7c1.2,2.4,2.6,4.6,4.1,6.8c0.8-0.3,1.6-0.9,2.2-1.5c0.5-0.6,0.7-1.4,0.7-2.2c0-0.3,0.2-0.4,0.7-0.4
	c0.5,0,1,0.2,1.4,0.4c0.4,0.2,0.7,0.6,0.7,1c0,1.8-1.4,3.5-4.2,5c1.1,1,2,1.8,2.6,2.4c0.4,0.2,0.8,0.5,1.2,0.6
	c0.5,0.2,1,0.5,1.4,0.8c0.4,0.2,0.6,0.5,0.6,0.8s-0.3,0.6-0.9,0.9C191.8,32.1,191,32.3,190.2,32.3L190.2,32.3z M179.2,26.2
	c1.3,0,2.6-0.2,3.8-0.7c-1.6-2.1-3-4.3-4.2-6.6c-1.9,1.5-2.9,3.1-2.9,4.8c0,0.7,0.3,1.4,0.9,1.8C177.5,26.1,178.4,26.3,179.2,26.2
	L179.2,26.2z M180.1,11.8c0.1,1.3,0.4,2.5,1.1,3.6c0,0,0.2-0.2,0.5-0.4c0.2-0.1,0.4-0.3,0.5-0.5c0.1-0.1,0.2-0.2,0.5-0.5
	c0.2-0.2,0.3-0.4,0.5-0.6c0.1-0.1,0.3-0.4,0.6-0.8c0.3-0.6,0.5-1.2,0.4-1.9c0-1-0.6-1.5-1.8-1.5C180.8,9.3,180.1,10.2,180.1,11.8
	L180.1,11.8z M216.9,17.6c0.3,0,0.5,0.3,0.5,0.8c0,0.9-0.2,1.7-0.3,2.6c-0.2,0.8-1.1,2-2.8,3.5c-2,1.8-4.3,3.1-6.8,3.9
	c-1.4,0.5-2.9,0.7-4.3,0.7c-1.5,0-2.9-0.7-3.9-1.8c-1.1-1.1-1.8-2.6-1.7-4.2c0-1.7,0.4-3.5,1-5.1c0.7-1.8,1.6-3.5,2.7-5
	c1.2-1.7,2.5-3.2,3.9-4.6c1.5-1.4,3-2.7,4.7-3.8c1.6-1.1,3.3-1.9,5.2-2.6c1.6-0.6,3.4-0.9,5.1-1c1.2,0,2.4,0.5,3.3,1.4
	c0.5,0.5,0.7,1.2,0.7,1.9c-0.1,1-0.5,2-1.1,2.8c-0.7,1.1-1.6,2.2-2.6,3.1c-0.9,0.9-2,1.7-3.1,2.4c-0.8,0.5-1.6,0.9-2.5,1
	c-0.6,0-1.2-0.2-1.6-0.6c-0.4-0.2-0.6-0.6-0.7-1.1c0-0.4,0.1-0.7,0.2-1c0.1-0.4,0.3-0.6,0.5-0.6c0,0.1-0.1,0.1-0.1,0.2
	c0,0.2,0.2,0.2,0.7,0.2c0.8-0.2,1.6-0.6,2.3-1.2c1-0.8,2-1.7,2.9-2.7c0.6-0.6,1.1-1.4,1.3-2.2c0-0.3-0.2-0.5-0.7-0.5
	c-1.8,0.2-3.5,0.8-5.1,1.7c-2.2,1.2-4.3,2.7-6.2,4.4c-2,1.9-3.7,4-5.1,6.4c-1.3,2-2.1,4.3-2.2,6.6c0,0.7,0.2,1.4,0.7,2
	c0.5,0.5,1.3,0.8,2,0.7c1.1,0,2.2-0.3,3.2-0.8c1.2-0.5,2.4-1.2,3.5-1.9c1.1-0.8,2.2-1.5,3.2-2.3c0.8-0.7,1.6-1.3,2.4-2.1
	c0.4-0.3,0.7-0.7,0.9-1.1C216.8,17.7,216.8,17.6,216.9,17.6L216.9,17.6z M233.2,14.2c1,0,1.5,0.3,1.5,1c0,0.3-0.1,0.6-0.3,0.8
	c-0.4,0.5-0.8,1.1-1.1,1.7c-0.6,1-1.2,2.2-1.8,3.7c-0.6,1.2-1,2.5-1.3,3.8c0,0.2-0.1,0.4-0.1,0.5c0,0.7,0.2,1.1,0.6,1.1
	c0.5,0,1-0.2,1.4-0.6c0.5-0.4,1-0.8,1.4-1.2c0.4-0.4,0.8-0.9,1.2-1.3c0.4-0.4,0.6-0.7,0.7-0.8c0.1-0.1,0.2-0.1,0.4-0.1
	c0.2,0,0.4,0.2,0.4,0.6c0.1,0.4,0.1,0.8,0.1,1.2c0,0.3,0,0.6-0.1,0.8c-0.6,1-1.5,2-2.5,2.7c-1,0.9-2.2,1.5-3.5,1.6
	c-0.9,0.1-1.7-0.3-2.3-1c-0.5-0.6-0.7-1.3-0.7-2.1c0-0.7,0.1-1.4,0.4-2c-1,1.4-2.3,2.6-3.7,3.6c-1,0.8-2.2,1.3-3.4,1.5
	c-0.8,0-1.6-0.3-2.2-0.8c-0.7-0.7-1.1-1.7-1.1-2.8c0-1.2,0.3-2.4,0.8-3.6c0.5-1.2,1.2-2.3,2.1-3.3c0.9-1,1.8-1.9,2.8-2.7
	c2.2-1.7,4.2-2.5,6-2.5c0.6,0,1.2,0.1,1.7,0.4c0.4,0.2,0.7,0.5,0.8,0.9c0.2-0.3,0.5-0.7,0.8-0.9C232.5,14.2,232.8,14.1,233.2,14.2
	L233.2,14.2z M230.6,16.3c-2.2,0-4.5,1.2-6.9,3.7c-0.9,1-1.7,2-2.3,3.2c-0.5,0.8-0.9,1.6-1.1,2.5c0,0.5,0.1,0.7,0.4,0.7
	c0.4,0,1.4-0.7,3-2.2c1.2-1,2.3-2,3.3-3.2C227.6,20.4,228.8,18.8,230.6,16.3L230.6,16.3z M241,18.4c3.1-3.5,5.7-5.2,7.9-5.2
	c0.5,0,1,0.2,1.3,0.5c0.3,0.3,0.5,0.8,0.5,1.2c-0.2,0.9-0.5,1.8-1.1,2.5c-0.7,1.2-1.4,2.2-2,3c-0.2,0.4-0.7,0.6-1.1,0.6
	c-0.4,0-0.7-0.2-1-0.4c-0.2-0.3-0.3-0.7-0.3-1.1c0.1-1.2,0.6-2.2,1.4-3l0,0c-0.4,0-1.5,0.9-3.2,2.5c-1.7,1.7-3.1,3.1-4.3,4.4
	c-1.2,1.3-2.5,2.9-3.9,4.8c-0.4,0.6-0.7,0.8-1,0.8c-0.4,0-0.8-0.1-1.1-0.3c-0.3-0.1-0.6-0.2-0.8-0.4c-0.1-0.1-0.2-0.2-0.1-0.4
	c0-0.2,0.1-0.4,0.2-0.6c0.2-0.4,0.4-0.7,0.6-1c0.3-0.4,0.7-1.2,1.3-2.1c0.6-1,1.4-2.5,2.6-4.5c1.2-2,1.9-3.2,2.1-3.6
	c0.4-0.6,0.8-1.3,1.2-1.9c0.8-0.8,1.9-1.2,3-1.1c0.3,0,0.5,0.2,0.5,0.6c0,0.6-0.6,1.8-1.7,3.5L241,18.4z M262,14.4
	c0,0.9-0.4,1.7-1,2.3c-0.6,0.6-1.5,1-2.4,1c-0.2,0-0.4,0-0.6-0.2c-0.1-0.2-0.1-0.3-0.1-0.5c0-0.2,0-0.4,0.1-0.6
	c-0.5,0.2-1.1,0.4-1.6,0.7c-0.7,0.4-1.4,0.9-2.1,1.4c-0.8,0.6-1.2,1.1-1.2,1.4c0,0.1,0.2,0.2,0.5,0.2c0.5,0,1-0.1,1.4-0.3
	c0.4-0.2,0.9-0.3,1.3-0.3c0.2,0,0.3,0,0.5,0c0.2,0.2,0.4,0.4,0.5,0.6c0.2,0.2,0.3,0.5,0.3,0.7c0,0.2-0.2,0.4-0.5,0.7
	c-0.3,0.3-0.7,0.5-1.2,0.7c-0.3,0.1-0.6,0.2-0.9,0.3c-2.7,1.5-4.1,2.6-4.1,3.2c0,1,0.9,1.5,2.6,1.5c1.2,0,2.4-0.4,3.3-1.1
	c0.9-0.6,1.7-1.2,2.6-1.8c0.8-0.6,1.2-1,1.4-1.1c0.1-0.1,0.3-0.2,0.5-0.2c0.3,0,0.5,0.4,0.5,1.1c0,0.5,0,1-0.1,1.5
	c-0.2,0.4-0.5,0.7-0.8,0.9c-2.8,2.3-5.4,3.4-7.9,3.4c-1.1,0-2.2-0.1-3.2-0.6c-1.3-0.4-2.2-1.7-2.2-3c0-1.8,1.2-3.2,3.7-4.1
	c-0.4-0.1-0.8-0.5-1-0.9c-0.2-0.5-0.2-1.1-0.2-1.7c0.1-0.9,0.4-1.8,1.1-2.4c0.7-0.9,1.6-1.6,2.6-2.1c1.9-1.1,4-1.7,6.1-1.9
	c0.5,0,0.9,0.1,1.3,0.3C261.7,13.6,262,14,262,14.4L262,14.4z M274.7,14.4c0,0.9-0.4,1.7-1,2.3c-0.6,0.6-1.5,1-2.4,1
	c-0.2,0-0.4,0-0.6-0.2c-0.1-0.2-0.1-0.3-0.1-0.5c0-0.2,0-0.4,0.1-0.6c-0.5,0.2-1.1,0.4-1.6,0.7c-0.7,0.4-1.4,0.9-2.1,1.4
	c-0.8,0.6-1.2,1.1-1.2,1.4c0,0.1,0.2,0.2,0.5,0.2c0.5,0,1-0.1,1.4-0.3c0.4-0.2,0.9-0.3,1.3-0.3c0.2,0,0.3,0,0.5,0
	c0.2,0.2,0.4,0.4,0.5,0.6c0.2,0.2,0.3,0.5,0.3,0.7c0,0.2-0.2,0.4-0.5,0.7c-0.3,0.3-0.7,0.5-1.2,0.7c-0.3,0.1-0.6,0.2-0.9,0.3
	c-2.7,1.5-4.1,2.6-4.1,3.2c0,1,0.9,1.5,2.6,1.5c1.2,0,2.4-0.4,3.3-1.1c0.9-0.6,1.7-1.2,2.6-1.8c0.8-0.6,1.2-1,1.4-1.1
	c0.1-0.1,0.3-0.2,0.5-0.2c0.3,0,0.5,0.4,0.5,1.1c0,0.5,0,1-0.1,1.5c-0.2,0.4-0.5,0.7-0.8,0.9c-2.8,2.3-5.4,3.4-7.9,3.4
	c-1.1,0-2.2-0.1-3.2-0.6c-1.3-0.4-2.2-1.7-2.2-3c0-1.8,1.2-3.2,3.7-4.1c-0.4-0.1-0.8-0.5-1-0.9c-0.2-0.5-0.2-1.1-0.2-1.7
	c0.1-0.9,0.4-1.8,1.1-2.4c0.7-0.9,1.6-1.6,2.6-2.1c1.9-1.1,4-1.7,6.1-1.9c0.5,0,0.9,0.1,1.3,0.3C274.4,13.6,274.7,14,274.7,14.4
	L274.7,14.4z M280.3,18.4c3.1-3.5,5.7-5.2,7.9-5.2c0.5,0,1,0.2,1.3,0.5c0.3,0.3,0.5,0.8,0.5,1.2c-0.2,0.9-0.5,1.8-1.1,2.5
	c-0.7,1.2-1.4,2.2-2,3c-0.2,0.4-0.7,0.6-1.1,0.6c-0.4,0-0.7-0.2-1-0.4c-0.2-0.3-0.3-0.7-0.3-1.1c0.1-1.2,0.6-2.2,1.4-3l0,0
	c-0.4,0-1.5,0.9-3.2,2.5c-1.7,1.7-3.1,3.1-4.3,4.4c-1.2,1.3-2.5,2.9-3.9,4.8c-0.4,0.6-0.7,0.8-1,0.8c-0.4,0-0.8-0.1-1.1-0.3
	c-0.3-0.1-0.6-0.2-0.8-0.4c-0.1-0.1-0.2-0.2-0.1-0.4c0-0.2,0.1-0.4,0.2-0.6c0.2-0.4,0.4-0.7,0.6-1c0.3-0.4,0.7-1.2,1.3-2.1
	c0.6-1,1.4-2.5,2.6-4.5c1.2-2,1.9-3.2,2.1-3.6c0.4-0.7,0.8-1.3,1.2-1.9c0.8-0.8,1.9-1.2,3-1.1c0.3,0,0.5,0.2,0.5,0.6
	c0,0.6-0.6,1.8-1.7,3.5L280.3,18.4z"/>
</svg>
