<?xml version="1.0" encoding="utf-8"?>
<!-- Generator: Adobe Illustrator 24.3.0, SVG Export Plug-In . SVG Version: 6.00 Build 0)  -->
<svg version="1.1" id="レイヤー_1" xmlns="http://www.w3.org/2000/svg" xmlns:xlink="http://www.w3.org/1999/xlink" x="0px"
	 y="0px" viewBox="0 0 290 48" style="enable-background:new 0 0 290 48;" xml:space="preserve">
<style type="text/css">
	.st0{fill:#5B8DCD;}
</style>
<path id="パス_1327" class="st0" d="M91,2.1l1.4-0.3c0.3,0,0.6,0.1,0.9,0.2c0.2,0.2,0.3,0.3,0.3,0.4c0,0.2,0,0.4-0.1,0.6
	C93.5,3.3,93,5.9,92,10.7c-1,4.8-1.7,8.4-2.2,10.8c2.2-3,4.8-6.7,7.8-11.1c3-4.4,4.7-7.3,5.2-8.8c0.1-0.4,0.3-0.8,0.6-1.1
	c0.2-0.2,0.4-0.4,0.7-0.4c0.3-0.1,0.6-0.1,0.9-0.1c0.5,0,1,0.1,1.4,0.3c0.6,0.2,0.8,0.5,0.8,0.9c0,0.8-1.1,3-3.4,6.6
	c-2.3,3.7-4.9,7.5-7.8,11.7c-2.9,4.1-5.4,7.4-7.3,9.8c-0.3,0.4-0.8,0.6-1.3,0.6c-0.5,0-1.1-0.1-1.6-0.3c-0.6-0.2-0.8-0.5-0.8-0.9
	c0-1.4,1.3-8.3,3.8-20.6c-2.1,2.8-4.8,6.7-7.8,11.6c-3.2,5.1-5,8.3-5.4,9.6c-0.2,0.7-0.5,1.2-0.8,1.3c-0.2,0.1-0.4,0.1-0.7,0.1
	l-1.5,0.2c-0.3,0-0.6-0.1-0.8-0.3c-0.3-0.2-0.4-0.3-0.4-0.5c0-0.5,0.7-2.1,2.2-4.7c1.4-2.6,3.1-5.4,5-8.4c1.9-3,3.9-6,6-8.9
	c1.4-2.1,3.1-4,4.9-5.8c0.2-0.2,0.5-0.3,0.8-0.3L91,2.1z M117.7,1.5l0.9,0c0.3,0,0.5,0.1,0.5,0.4c0,0.1,0,0.1,0,0.2
	c-6.2,9.2-12,18.1-17.4,26.9c-0.3,0.5-0.5,0.7-0.8,0.8c-0.1,0-0.1,0-0.2,0.1c-0.4,0.2-0.9,0.3-1.4,0.4c-0.1,0-0.3,0-0.4,0
	c-0.1,0.1-0.3,0.2-0.4,0.2c-0.2,0-0.3,0-0.3,0c-0.2,0-0.3-0.1-0.4-0.2c-0.2-0.1-0.4-0.2-0.4-0.2c0-0.4,0-0.8,0.1-1.2
	c0.3-0.9,1.8-3.5,4.5-7.8c2.7-4.3,5.5-8.5,8.4-12.6c2.8-4.1,4.5-6.4,5.1-6.8c0.2-0.2,0.5-0.2,0.7-0.2L117.7,1.5z M119.8,27.4
	c-2.4,2.1-5.5,3.3-8.7,3.2c-2,0-3.5-0.4-4.4-1.3c-0.6-0.7-0.8-1.6-0.7-2.5c0-1.8,1.4-3,4.2-3.5c1-0.2,2.1-0.3,3.1-0.3
	c1.7,0.1,3.4,0.3,5,0.7c1.5-1.8,2.8-3.6,4-5.6c1.6-2.5,2.8-4.3,3.7-5.7c0.9-1.3,1.9-2.7,3.1-4.1c1.1-1.3,2.3-2.6,3.6-3.8
	c2.6-2.3,5.1-3.4,7.6-3.4c0.9-0.1,1.8,0.2,2.4,0.9c0.5,0.6,0.8,1.3,0.7,2c-0.1,1-0.4,1.9-1.1,2.7c-0.7,1-1.5,1.9-2.5,2.7
	c-0.9,0.7-1.8,1.4-2.8,2c-0.6,0.5-1.4,0.7-2.1,0.8c-0.5,0-1-0.2-1.3-0.7c-0.3-0.3-0.5-0.8-0.6-1.3c0-0.3,0-0.6,0.2-0.9
	c0.1-0.2,0.2-0.2,0.3-0.2s0.2,0.1,0.2,0.2c0.7-0.3,1.4-0.7,2-1.2c0.9-0.7,1.7-1.4,2.5-2.1c0.8-0.7,1.1-1.2,1.1-1.4s-0.1-0.3-0.3-0.3
	c-0.3,0-0.6,0.1-0.9,0.2c-0.6,0.3-1.1,0.6-1.6,1c-0.7,0.6-1.5,1.2-2.1,1.9c-2.3,2.4-4.3,5-6.1,7.8c-0.5,0.8-1.3,1.9-2.2,3.3
	c-1.9,2.9-3.3,4.9-4.2,6c6.7,1.8,11.5,2.6,14.3,2.6c1,0.1,1.9-0.1,2.8-0.5c0.1-0.1,0.3-0.1,0.4-0.2c0.1,0,0.1,0.1,0.1,0.2
	c0,0.2-0.1,0.3-0.2,0.5c-0.1,0.2-0.4,0.7-0.9,1.3c-0.3,0.5-0.6,0.9-1,1.2c-1,0.5-2.1,0.6-3.3,0.6c-1.5,0-2.9-0.1-4.4-0.3
	c-1.4-0.2-2.5-0.4-3.4-0.7c-0.8-0.2-2.1-0.6-3.8-1C121.5,27.9,120.4,27.5,119.8,27.4z M112.7,26.2c-1.7,0-2.6,0.2-2.6,0.6
	c0,0.2,0.1,0.3,0.4,0.4c0.3,0.1,0.7,0.2,1,0.2c1.3,0,2.5-0.4,3.7-1C114.4,26.3,113.6,26.2,112.7,26.2L112.7,26.2z M165.1,2.4
	c0.4-0.9,0.7-1.3,0.9-1.3h0.1c0.4,0.1,0.8,0.3,1.2,0.6c0.6,0.4,0.9,0.8,0.9,1.2c0,0.5-1.7,4.4-5,11.8c-3.3,7.4-5.2,11.5-5.7,12.4
	c-0.5,0.9-0.8,1.5-1,1.8c-0.2,0.4-0.5,0.7-0.7,1c-0.5,0.7-1.3,1-2.1,1c-0.3,0-0.6,0-0.9,0.1c-0.2,0.1-0.3,0.1-0.5,0.1
	c-0.4,0-0.6-0.1-0.6-0.3c0-0.2,0.1-0.3,0.2-0.5c0.1-0.3,1.6-3.4,4.5-9.5c-3.1-0.1-5.7-0.2-8.1-0.3c-2.2,2.8-4.2,5.7-6.1,8.8
	c-0.2,0.3-0.4,0.6-0.6,0.9c-0.2,0.2-0.5,0.3-0.8,0.3c-0.4,0-0.8-0.2-1.1-0.5c-0.4-0.3-0.6-0.7-0.6-1.2c0-1.3,1.7-4.1,5-8.4
	c-1,0-2,0-3,0.1c-0.3,0.1-0.5,0.1-0.8,0.1c-0.4,0-0.5-0.3-0.5-0.9c0-0.7,0.4-1.3,1-1.6c0.8-0.5,1.8-0.7,2.8-0.7c0.1,0,0.3,0,0.5,0
	c0.8,0,1.6-0.1,2.5-0.1c2.8-3.3,5.8-6.4,8.9-9.3c2.4-2.3,5.1-4.4,8-6c0.3-0.2,0.6-0.2,0.9-0.3C164.7,2,164.9,2.2,165.1,2.4
	L165.1,2.4z M163.8,5.2c-4.8,3.6-9.1,7.7-13,12.3c2.3,0.1,4.6,0.1,7,0.3C160.1,12.8,162.1,8.6,163.8,5.2L163.8,5.2z M162.2,30.2
	l-0.1,0c-0.1,0-0.3-0.1-0.6-0.4l-0.5-0.5c-0.1-0.1-0.2-0.1-0.2-0.2c-0.1-0.1-0.2-0.1-0.2-0.1c0,0-0.1-0.1-0.1-0.1
	c0,0-0.1-0.1-0.1-0.1c0,0,0-0.1-0.1-0.1c0-0.1-0.1-0.2-0.1-0.3c0-0.2,0.1-0.4,0.1-0.7c0.1-0.4,1.5-1.7,4-3.8c2.5-2.1,6.2-5,11-8.7
	c0.2-0.7,0.4-1.6,0.7-2.6c0.3-1,0.5-1.8,0.7-2.5c0.2-0.6,0.3-1.3,0.5-1.9c0.2-0.7,0.4-1.4,0.5-2.2c0-0.2-0.1-0.3-0.2-0.3
	c-0.5,0-1.6,0.7-3.2,2.2c-1.7,1.5-2.5,2.5-2.5,2.9c0,0.3-0.1,0.4-0.3,0.4c-0.1,0-0.4-0.2-0.6-0.5c-0.2-0.2-0.4-0.5-0.5-0.8
	c0-0.3-0.1-0.5-0.1-0.7c-0.1-0.3-0.1-0.6-0.1-1c0-0.7,0.6-1.6,1.9-2.7c1.3-1.2,2.6-2.2,4.1-3.1c1-0.7,2.1-1.1,3.3-1.3
	c0.6,0,1.2,0.2,1.6,0.7c0.4,0.6,0.7,1.3,0.6,2c-0.3,2.6-0.9,5.1-1.7,7.5c7.3-5.6,11.2-8.5,11.5-8.8c0.5-0.3,1.2-0.4,1.8-0.3
	c0.8,0,1.6,0.2,2.4,0.5c0.2,0.1,0.4,0.2,0.4,0.4c0,0.2-0.1,0.3-0.1,0.5c-0.2,0.2-0.3,0.4-0.5,0.5c-0.3,0.2-0.8,0.6-1.5,1.1
	c-0.8,0.6-1.7,1.2-2.8,2c-2.5,1.8-6.7,5-12.5,9.6c-1.2,4.8-1.9,7.9-1.9,9.3c0,0.4,0,0.5,0.1,0.5c0.1,0,0.2-0.1,0.3-0.2
	c1.3-0.9,2.6-1.9,3.8-3c1.1-0.9,2.1-1.9,3.1-2.9c0.3-0.4,0.6-0.6,0.7-0.6c0.2,0,0.3,0.2,0.3,0.7l0,0.3c0,0,0.1,0.2,0.2,0.6
	c0.1,0.4,0.2,0.8,0.2,1.2c0,0.4-0.1,0.8-0.3,1.1c-0.2,0.4-0.5,0.7-0.8,1c-0.4,0.4-0.9,0.9-1.5,1.5c-0.6,0.6-1.3,1.2-2,1.7
	c-1.4,1.2-3.1,1.8-4.9,1.9c-0.7,0-1.5-0.3-2-0.8c-0.6-0.7-1-1.7-0.9-2.7c0.1-2.1,0.5-4.2,1-6.2c-7.4,6.2-11.2,9.4-11.3,9.4
	c-0.1,0-0.2,0.1-0.3,0.1L162.2,30.2z M205.2,8.9c-0.4,0.2-0.6,0.6-0.6,1c0,0.4,0.3,0.6,0.9,0.6c0.3,0,0.7-0.1,1-0.2h0
	c0.1,0,0.1,0.1,0.1,0.4c0,0.2,0,0.3-0.1,0.5c-1,0.8-2.2,1.3-3.4,1.4c-0.8,0.1-1.5-0.2-2-0.8c-0.4-0.6-0.7-1.3-0.6-2
	c0.1-1,0.6-2,1.4-2.7c1.1-1.1,2.4-1.9,3.7-2.6c1.8-0.9,3.8-1.6,5.8-2c2.6-0.5,5.2-0.8,7.8-0.8c2.5-0.1,5,0.5,7.2,1.7
	c1.9,1.1,2.9,2.4,2.9,3.8c0,1.6-0.6,3.1-1.5,4.4c-1,1.5-2.3,2.8-3.8,3.9c-1.6,1.1-3.3,2-5,2.7c-1.6,0.6-3.3,1-5,1.1
	c-1.4,0.1-2.7-0.6-3.4-1.8c-2,3.1-3.3,5.2-4,6.4s-1.3,2.1-1.8,2.9c-0.5,0.8-0.9,1.4-1.1,1.8s-0.4,0.7-0.4,0.7
	c-0.2,0.3-0.5,0.4-0.9,0.4l-1,0.2l-0.5,0h-0.3c-0.8,0-1.2-0.2-1.2-0.7c0-0.6,1.3-2.9,3.8-6.9s5-7.6,7.3-10.9c2.3-3.3,3.6-5.1,4-5.5
	c0.3-0.3,0.6-0.6,1-0.7c0.5-0.1,0.9-0.1,1.4-0.1h1c0.2,0,0.3,0.1,0.3,0.4c0,0.2,0,0.4-0.1,0.6c-1.1,1.6-3.2,4.8-6.2,9.5
	c0.1,0.2,0.3,0.4,0.5,0.4c0.3,0.1,0.5,0.1,0.8,0.1h0.6c1.3,0,2.7-0.3,3.9-0.9c1.3-0.5,2.5-1.2,3.7-2.1c1-0.7,1.9-1.6,2.6-2.5
	c0.6-0.6,1-1.4,1.1-2.3c0-0.6-0.2-1.2-0.6-1.7c-0.4-0.5-1-0.9-1.6-1.2c-1.5-0.6-3.2-0.9-4.8-0.8c-2.4,0.1-4.7,0.6-6.9,1.5
	C209,6.7,207,7.7,205.2,8.9L205.2,8.9z M236.7,15.2c0,0.9-0.4,1.7-1,2.3c-0.6,0.6-1.5,1-2.4,1c-0.2,0-0.4,0-0.6-0.2
	c-0.1-0.2-0.1-0.3-0.1-0.5c0-0.2,0-0.4,0.1-0.6c-0.5,0.2-1.1,0.4-1.6,0.7c-0.7,0.4-1.4,0.9-2.1,1.4c-0.8,0.6-1.2,1.1-1.2,1.4
	c0,0.1,0.2,0.2,0.5,0.2c0.5,0,1-0.1,1.4-0.3c0.4-0.2,0.9-0.3,1.3-0.3c0.2,0,0.3,0,0.5,0c0.2,0.2,0.4,0.4,0.5,0.6
	c0.2,0.2,0.3,0.5,0.3,0.7c0,0.2-0.2,0.4-0.5,0.7c-0.3,0.3-0.7,0.5-1.2,0.7c-0.3,0.1-0.6,0.2-0.9,0.3c-2.7,1.5-4.1,2.6-4.1,3.2
	c0,1,0.9,1.5,2.6,1.5c1.2,0,2.4-0.4,3.3-1.1c0.9-0.6,1.7-1.2,2.6-1.8c0.8-0.6,1.2-1,1.4-1.1c0.1-0.1,0.3-0.2,0.5-0.2
	c0.3,0,0.5,0.4,0.5,1.1c0,0.5,0,1-0.1,1.5c-0.2,0.4-0.5,0.7-0.8,0.9c-2.8,2.3-5.4,3.4-7.9,3.4c-1.1,0-2.2-0.1-3.2-0.5
	c-1.3-0.4-2.2-1.7-2.2-3c0-1.8,1.2-3.2,3.7-4.1c-0.4-0.1-0.8-0.5-1-0.9c-0.2-0.5-0.2-1.1-0.2-1.7c0.1-0.9,0.4-1.8,1.1-2.4
	c0.7-0.9,1.6-1.6,2.6-2.1c1.9-1.1,4-1.7,6.1-1.9c0.5,0,0.9,0.1,1.3,0.3C236.4,14.5,236.7,14.8,236.7,15.2z M249.2,15
	c0.5,0,0.9,0.2,1.2,0.5c0.4,0.4,0.7,1,0.6,1.6c-0.1,1-0.3,1.9-0.8,2.8c-0.6,1.2-1.3,2.4-2.1,3.5c-0.9,1.2-1.9,2.3-2.9,3.4
	c-1,1-2.2,1.9-3.4,2.6c-1,0.6-2.2,1-3.3,1c-0.9,0-1.8-0.3-2.4-0.9c-0.6-0.7-1-1.7-0.9-2.6c0-1.3,0.3-2.6,0.8-3.7
	c0.5-1.3,1.2-2.5,2.1-3.6c0.9-1,1.8-2,2.8-2.8c2.1-1.7,4-2.6,5.6-2.6c0.6,0,1.2,0.1,1.6,0.5c0.1,0.1,0.2,0.2,0.2,0.3V15
	C248.7,15,248.9,15,249.2,15L249.2,15z M247.2,17.6h-0.1c-0.5,0-0.7-0.3-0.7-1c-1.1,0.4-2.1,0.9-3,1.6c-1.1,0.8-2,1.7-2.8,2.8
	c-1.7,2.1-2.5,3.9-2.5,5.4c0,0.7,0.3,1.1,0.8,1.1c0.9-0.1,1.7-0.5,2.4-1.1c1.2-0.8,2.3-1.8,3.1-3c0.9-1.1,1.6-2.2,2.3-3.4
	c0.4-0.6,0.6-1.3,0.8-2C247.5,17.7,247.4,17.6,247.2,17.6L247.2,17.6z M261.5,9.1l0.4,0c0.2,0,0.4,0.2,0.5,0.5
	c0.1,0.2,0.1,0.4,0.2,0.7c-0.1,0.3-0.2,0.5-0.4,0.7l-5.6,8.5c1.7-1.8,3.7-3.2,6-4.3c0.7-0.3,1.4-0.5,2.1-0.5c0.6,0,1.1,0.2,1.5,0.6
	c0.4,0.4,0.6,1,0.6,1.5c0,0.8-0.2,1.5-0.5,2.3c-0.4,1-0.8,2-1.4,2.9c-0.6,1.1-1.3,2.1-2.1,3.1c-0.8,1-1.7,1.9-2.6,2.8
	c-0.9,0.8-1.9,1.5-3,2c-0.9,0.5-1.8,0.7-2.8,0.8c-1.6,0-2.4-0.7-2.4-2.2c-1.5,2.3-3.3,5.1-5.3,8.3c-2,3.2-3.1,4.9-3.2,5.1
	c-0.1,0.2-0.3,0.3-0.4,0.3c-0.2,0-0.3-0.1-0.4-0.2c-0.2-0.2-0.5-0.4-0.6-0.6c-0.2-0.3-0.4-0.8-0.3-1.2c0-0.6,0.2-1.1,0.5-1.6
	c1.8-2.9,5.1-8.4,10.2-16.5s7.7-12.3,8.2-12.5c0.2-0.1,0.4-0.2,0.7-0.2L261.5,9.1z M263.2,18c0-0.3-0.1-0.4-0.4-0.4
	c-0.7,0-2.2,1.1-4.5,3.2c-2,1.8-3.8,3.8-5.4,5.9c0.4,0.4,0.9,0.7,1.5,0.6c0.9-0.1,1.8-0.5,2.6-1.1c1.1-0.7,2.1-1.6,2.9-2.5
	c0.9-1,1.6-2,2.3-3.1C262.8,19.9,263.1,19,263.2,18L263.2,18z M282.4,0.5c0.6,0,1.2,0.2,1.6,0.6c0.5,0.4,0.8,1,0.7,1.6
	c-0.2,1.2-0.6,2.4-1.2,3.4c-0.9,1.7-1.8,3.2-2.9,4.8c-1.1,1.6-2.4,3.3-3.8,5.2c-2.3,2.9-4.4,5.5-6.5,7.8c0,0.3-0.1,0.6-0.2,0.9
	c-0.1,0.4-0.1,0.8-0.1,1.3c0,0.5,0.2,0.9,0.6,1.2c0.4,0.4,0.9,0.5,1.5,0.5c0.7,0,1.3-0.2,1.9-0.6c0.6-0.4,1.2-0.9,1.7-1.4
	c1.3-1.3,2.1-2,2.4-2s0.5,0.5,0.5,1.4v0.4c0,0.4-0.1,0.8-0.3,1.1c-1,1.3-2.3,2.3-3.7,3c-1.2,0.6-2.5,1-3.9,1
	c-1.1,0.1-2.1-0.3-2.8-1.1c-0.7-0.9-1-2-1-3.1c0.1-3.1,0.8-6.1,2-9c1.2-3.1,2.7-6,4.6-8.8C277.5,3.2,280.4,0.5,282.4,0.5L282.4,0.5z
	 M281.6,3.8c0-0.2-0.1-0.3-0.2-0.3c-0.5,0-1.7,1.3-3.6,3.9c-1.5,2-2.9,4.1-4.2,6.2c-1,1.9-1.8,3.8-2.5,5.8c1.5-1.8,3.7-4.7,6.4-8.5
	C280.2,7.1,281.6,4.7,281.6,3.8L281.6,3.8z M290,15.2c0,0.9-0.4,1.7-1,2.3c-0.6,0.6-1.5,1-2.4,1c-0.2,0-0.4,0-0.6-0.2
	c-0.1-0.2-0.1-0.3-0.1-0.5c0-0.2,0-0.4,0.1-0.6c-0.5,0.2-1.1,0.4-1.6,0.7c-0.7,0.4-1.4,0.9-2.1,1.4c-0.8,0.6-1.2,1.1-1.2,1.4
	c0,0.1,0.2,0.2,0.5,0.2c0.5,0,1-0.1,1.4-0.3c0.4-0.2,0.9-0.3,1.3-0.3c0.2,0,0.3,0,0.5,0c0.2,0.2,0.4,0.4,0.5,0.6
	c0.2,0.2,0.3,0.5,0.3,0.7c0,0.2-0.2,0.4-0.5,0.7c-0.3,0.3-0.7,0.5-1.2,0.7c-0.3,0.1-0.6,0.2-0.9,0.3c-2.7,1.5-4.1,2.6-4.1,3.2
	c0,1,0.9,1.5,2.6,1.5c1.2,0,2.4-0.4,3.3-1.1c0.9-0.6,1.7-1.2,2.6-1.8c0.8-0.6,1.2-1,1.5-1.1c0.1-0.1,0.3-0.2,0.5-0.2
	c0.3,0,0.5,0.4,0.5,1.1c0,0.5,0,1-0.1,1.5c-0.2,0.4-0.5,0.7-0.8,0.9c-2.8,2.3-5.4,3.4-7.9,3.4c-1.1,0-2.2-0.1-3.2-0.5
	c-1.3-0.4-2.2-1.7-2.2-3c0-1.8,1.2-3.2,3.7-4.1c-0.4-0.1-0.8-0.5-1-0.9c-0.2-0.5-0.2-1.1-0.2-1.7c0.1-0.9,0.4-1.8,1.1-2.4
	c0.7-0.9,1.6-1.6,2.6-2.1c1.9-1.1,4-1.7,6.1-1.9c0.5,0,0.9,0.1,1.3,0.3C289.7,14.5,290,14.8,290,15.2z"/>
</svg>
