<svg id="コンポーネント_2" data-name="コンポーネント 2" xmlns="http://www.w3.org/2000/svg" xmlns:xlink="http://www.w3.org/1999/xlink" width="59" height="59" viewBox="0 0 59 59">
  <defs>
    <clipPath id="clip-path">
      <rect id="長方形_1378" data-name="長方形 1378" width="14.822" height="14.11" fill="#ff1901"/>
    </clipPath>
  </defs>
  <circle id="楕円形_5" data-name="楕円形 5" cx="29.5" cy="29.5" r="29.5" fill="#fff"/>
  <g id="グループ_1949" data-name="グループ 1949" transform="translate(12.438 12.438)">
    <path id="パス_333" data-name="パス 333" d="M26.728,2.728H49.645V25.645H26.728ZM24,28.374H52.374V0H24Z" transform="translate(-18.248)" fill="#ff1901"/>
    <path id="パス_334" data-name="パス 334" d="M0,24V52.373H28.374V49.645H2.728V24Z" transform="translate(0 -18.248)" fill="#ff1901"/>
    <g id="グループ_1950" data-name="グループ 1950" transform="translate(10.141 13.981) rotate(-45)">
      <g id="グループ_1562" data-name="グループ 1562" clip-path="url(#clip-path)">
        <path id="パス_108" data-name="パス 108" d="M14.458,6.184,8.565.354A1.225,1.225,0,1,0,6.841,2.1L10.615,5.83H1.225a1.225,1.225,0,1,0,0,2.451h9.39L6.841,12.013a1.226,1.226,0,0,0,1.724,1.743l5.893-5.829a1.226,1.226,0,0,0,0-1.743" transform="translate(0 0)" fill="#ff1901"/>
      </g>
    </g>
  </g>
</svg>
