<?xml version="1.0" encoding="utf-8"?>
<!-- Generator: Adobe Illustrator 24.3.0, SVG Export Plug-In . SVG Version: 6.00 Build 0)  -->
<svg version="1.1" id="コンポーネント_49_6" xmlns="http://www.w3.org/2000/svg" xmlns:xlink="http://www.w3.org/1999/xlink"
	 x="0px" y="0px" viewBox="0 0 47 47" style="enable-background:new 0 0 47 47;" xml:space="preserve">
<style type="text/css">
	.st0{fill:#FF1901;}
	.st1{clip-path:url(#SVGID_2_);}
	.st2{fill:#FFFFFF;}
</style>
<circle id="楕円形_5" class="st0" cx="23.5" cy="23.5" r="23.5"/>
<g id="グループ_1563" transform="translate(14.533 14.627)">
	<g>
		<defs>
			<rect id="SVGID_1_" x="0" y="0" width="17.9" height="17.1"/>
		</defs>
		<clipPath id="SVGID_2_">
			<use xlink:href="#SVGID_1_"  style="overflow:visible;"/>
		</clipPath>
		<g id="グループ_1562" class="st1">
			<path id="パス_108" class="st2" d="M17.5,7.5l-7.1-7.1c-0.6-0.6-1.5-0.6-2.1,0s-0.6,1.5,0,2.1c0,0,0,0,0,0l4.6,4.5H1.5
				C0.7,7.1,0,7.7,0,8.5S0.7,10,1.5,10h11.4l-4.6,4.5c-0.6,0.6-0.6,1.5-0.1,2.1c0.6,0.6,1.5,0.6,2.1,0.1c0,0,0,0,0.1-0.1l7.1-7.1
				C18.1,9,18.1,8.1,17.5,7.5C17.5,7.5,17.5,7.5,17.5,7.5"/>
		</g>
	</g>
</g>
</svg>
