<svg xmlns="http://www.w3.org/2000/svg" xmlns:xlink="http://www.w3.org/1999/xlink" width="97.58" height="60" viewBox="0 0 97.58 60">
  <defs>
    <clipPath id="clip-path">
      <rect id="長方形_1464" data-name="長方形 1464" width="97.577" height="26.567" fill="#237fc4"/>
    </clipPath>
  </defs>
  <g id="グループ_1872" data-name="グループ 1872" transform="translate(-40)">
    <g id="グループ_1868" data-name="グループ 1868" transform="translate(-4.471 -99)">
      <g id="グループ_1593" data-name="グループ 1593" transform="translate(44.471 110)">
        <g id="グループ_1592" data-name="グループ 1592" clip-path="url(#clip-path)">
          <path id="パス_323" data-name="パス 323" d="M447.516,25.9c-.233.061-.314-.048-.371-.268-.465-1.8-.943-3.6-1.418-5.395q-.8-3.025-1.6-6.049c-.72-2.7-1.446-5.4-2.159-8.108a1.635,1.635,0,0,0-.626-.963,1.242,1.242,0,0,0-1.71.394,4.9,4.9,0,0,0-.375,1.115q-.879,3.191-1.766,6.38-1.474,5.333-2.946,10.667c-.193.7-.385,1.4-.569,2.1-.031.118-.085.147-.191.124-.047-.116-.149-.082-.235-.083-.4,0-.792,0-1.188,0q-4.114,0-8.227,0c-.137,0-.307-.091-.415.083a6.137,6.137,0,0,1-6.275-4.6,6,6,0,0,1-.2-1.53q-.01-9.448,0-18.9v-.3h4.931v.5q0,9.2,0,18.393a2.092,2.092,0,0,0,.044.542,1.236,1.236,0,0,0,1.257,1.036c2.165.008,4.329,0,6.514,0a4.658,4.658,0,0,0,.391-1.2c.52-1.787,1.013-3.581,1.517-5.372q.946-3.363,1.895-6.725c.321-1.136.62-2.279.983-3.4A6.09,6.09,0,0,1,439.46.1c.072-.017.154,0,.182-.1h1.922a3.351,3.351,0,0,0,.9.249A6.028,6.028,0,0,1,446.672,4.6c.426,1.5.8,3.012,1.209,4.516.51,1.884,1.033,3.764,1.544,5.648q.844,3.111,1.677,6.226a1.833,1.833,0,0,0,.1.228h1.477a5.99,5.99,0,0,0,.316-1.192c.418-1.689.776-3.393,1.219-5.074a6.1,6.1,0,0,1,3.764-4.232c.054-.023.119-.023.15-.147-.269-.062-.551-.065-.819-.133a5.026,5.026,0,0,1-2.354-1.227,4.018,4.018,0,0,1-1.087-1.818q-.911-3.256-1.828-6.511a.539.539,0,0,1-.01-.379h5.321a5.9,5.9,0,0,1,.4,1.254c.571,1.992,1.09,4,1.686,5.984a4.692,4.692,0,0,0,1.676,2.287,1.316,1.316,0,0,0,.858.249c1.861-.01,3.723-.035,5.583,0a6.251,6.251,0,0,1,6.122,4.725q1.392,5.124,2.828,10.236a1.237,1.237,0,0,1,.108.645h-5.124c-.147-.526-.3-1.047-.437-1.571q-.85-3.179-1.694-6.359c-.144-.541-.283-1.083-.432-1.622a2.618,2.618,0,0,0-.557-1.133,1.1,1.1,0,0,0-.847-.375q-3.569,0-7.139,0a1.359,1.359,0,0,0-1.162.758,3.151,3.151,0,0,0-.342,1.077c-.637,2.772-1.242,5.551-1.908,8.316a4.754,4.754,0,0,1-.208.834q-4.413,0-8.827,0c-.138,0-.307-.09-.416.081" transform="translate(-379.047)" fill="#237fc4"/>
          <path id="パス_324" data-name="パス 324" d="M6.865,0c.231.177.519.108.777.166a6.776,6.776,0,0,1,3.419,1.89,6.1,6.1,0,0,1,1.594,2.818c.264,1.024.6,2.032.91,3.042q1.293,4.159,2.6,8.316c.437,1.4.878,2.8,1.309,4.2a1.868,1.868,0,0,0,.909,1.094,1.288,1.288,0,0,0,1.93-1.057c.007-.122,0-.244,0-.366V.563h4.9a.928.928,0,0,1,.037.424q0,9.722,0,19.445a6.129,6.129,0,0,1-5.069,6.033,6.994,6.994,0,0,1-5.458-1.342,6.532,6.532,0,0,1-2.144-2.618,11.429,11.429,0,0,1-.452-1.379q-1.291-4.257-2.569-8.518Q8.58,9.348,7.6,6.088a2.181,2.181,0,0,0-.283-.618,1.305,1.305,0,0,0-1.408-.524,1.173,1.173,0,0,0-.9.981,2.927,2.927,0,0,0-.056.587q0,9.4,0,18.8V25.9H.093q0-9.77,0-19.54c0-.122,0-.244,0-.366A.128.128,0,0,0,0,5.858V5.492c.029-.032.079-.061.083-.1a5.692,5.692,0,0,1,.592-1.94A6.145,6.145,0,0,1,4.511.264,3.369,3.369,0,0,0,5.492,0Z" fill="#237fc4"/>
          <rect id="長方形_1463" data-name="長方形 1463" width="4.968" height="25.323" transform="translate(29.408 0.569)" fill="#237fc4"/>
          <path id="パス_325" data-name="パス 325" d="M960.728,13.812l2.746-8.569h5.25l-2.751,8.569Z" transform="translate(-872.789 -4.763)" fill="#e7330e"/>
        </g>
      </g>
      <text id="Recruit_SITE" data-name="Recruit SITE" transform="translate(53 148)" fill="#396cae" font-size="11" font-family="Poppins-Medium, Poppins" font-weight="500" letter-spacing="0.1em"><tspan x="0" y="0">Recruit SITE</tspan></text>
    </g>
    <rect id="長方形_1833" data-name="長方形 1833" width="97.58" height="60" transform="translate(40)" fill="none"/>
  </g>
</svg>
