<svg xmlns="http://www.w3.org/2000/svg" xmlns:xlink="http://www.w3.org/1999/xlink" width="268" height="172" viewBox="0 0 268 172">
  <defs>
    <filter id="パス_1740" x="10.556" y="15.416" width="248.256" height="31.844" filterUnits="userSpaceOnUse">
      <feOffset dx="3" dy="3" input="SourceAlpha"/>
      <feGaussianBlur stdDeviation="1" result="blur"/>
      <feFlood flood-opacity="0.161"/>
      <feComposite operator="in" in2="blur"/>
      <feComposite in="SourceGraphic"/>
    </filter>
    <filter id="パス_1741" x="7.8" y="56.45" width="181.3" height="61.05" filterUnits="userSpaceOnUse">
      <feOffset dx="6" dy="6" input="SourceAlpha"/>
      <feGaussianBlur stdDeviation="2.5" result="blur-2"/>
      <feFlood flood-opacity="0.161"/>
      <feComposite operator="in" in2="blur-2"/>
      <feComposite in="SourceGraphic"/>
    </filter>
    <filter id="パス_1742" x="198.53" y="75.4" width="63.87" height="32.67" filterUnits="userSpaceOnUse">
      <feOffset dx="3" dy="3" input="SourceAlpha"/>
      <feGaussianBlur stdDeviation="1" result="blur-3"/>
      <feFlood flood-opacity="0.161"/>
      <feComposite operator="in" in2="blur-3"/>
      <feComposite in="SourceGraphic"/>
    </filter>
    <filter id="パス_1743" x="27.152" y="131.609" width="214.844" height="31.254" filterUnits="userSpaceOnUse">
      <feOffset dx="6" dy="6" input="SourceAlpha"/>
      <feGaussianBlur stdDeviation="2.5" result="blur-4"/>
      <feFlood flood-opacity="0.161"/>
      <feComposite operator="in" in2="blur-4"/>
      <feComposite in="SourceGraphic"/>
    </filter>
  </defs>
  <g id="グループ_879" data-name="グループ 879" transform="translate(-823 -148)">
    <rect id="長方形_681" data-name="長方形 681" width="268" height="172" transform="translate(823 148)" opacity="0.16"/>
    <g transform="matrix(1, 0, 0, 1, 823, 148)" filter="url(#パス_1740)">
      <path id="パス_1740-2" data-name="パス 1740" d="M13.636,6.212c.392-.7.7-1.288,1.092-2.1-2.352-1.036-3.052-1.26-3.5-1.26-.364,0-.5.112-.5.364,0,.2.084.392.756.868-1.512,3.752-4.06,6.664-7.924,9.884A7.351,7.351,0,0,1,5.768,15.76,31.738,31.738,0,0,0,12.18,8.732L19.572,8.7C16.688,16.32,12.46,20.38,4.816,23.432a7.653,7.653,0,0,1,1.736,2.324c8.484-3.5,12.6-8.148,16.016-16.548.756-.42.952-.672.952-.924,0-.392-.2-.7-2.24-2.6h-.392l-.7.5Zm41.72,4.452-4.34.112H40.32l-4.508-.112v2.772l4.508-.112H52.472c-.42,5.544-5.04,8.792-12.908,9.716a7.261,7.261,0,0,1,1.372,2.576c8.12-.952,14.224-5.46,14.5-12.656.028-.7.056-1.428.084-2.128ZM38.388,4.756V7.472l4.536-.084h5.628l4.536.084V4.756l-4.536.112H42.924Zm45.3-1.316A19.606,19.606,0,0,1,87.78,7.864L89.208,6.6A19.044,19.044,0,0,0,85.12,2.348Zm2.856-1.9A17.625,17.625,0,0,1,90.412,5.6L91.784,4.42a18.747,18.747,0,0,0-3.864-4Zm-.588,4.48-4.4.112H72.3L67.76,6.016v2.8L72.3,8.7H83.048c-.616,7.644-4.956,12.74-13.748,14.308a9.385,9.385,0,0,1,1.54,2.548c9.52-1.96,14.644-8.2,15.2-17.332.028-.672.028-1.372.056-2.044Zm24.22-1.092.252-1.652A18.887,18.887,0,0,0,107.24,2.8c-.56,0-.756.14-.756.392,0,.168.2.392.784.756V7.276H104.72L99.6,7.164l-.14.168.112,3.08V11.9l-.112,3.7h3.108l-.14-3.7V9.824h12.964v.364c0,7.14-4,11.732-13.048,12.908a9.7,9.7,0,0,1,1.512,2.576c9.408-1.428,14.112-7.168,14.448-14.588.028-.84.084-2.128.084-3.78l-.168-.14-4.312.112H110.18Zm38.444.056c-2.52-1.848-3.024-2.016-3.416-2.016-.308,0-.42.168-.42.392,0,.168.14.42.532.812-3.7,4.648-10.192,8.792-16.52,11.452a9.325,9.325,0,0,1,1.9,2.24,51.119,51.119,0,0,0,9.576-5.348l.112.112v8.624l-.112,4.536h3.108l-.112-4.564v-7.5l.14-2.072c-.42-.14-.9-.252-1.4-.392a47.07,47.07,0,0,0,5.012-4.564Zm14.252,2.856a43.863,43.863,0,0,1,7.924,4.2l1.568-2.492a49.89,49.89,0,0,0-8.008-4.032Zm3.724,16.52c8.4-2.968,13.412-7.252,16.8-15.288a10.948,10.948,0,0,1-2.3-1.988c-2.856,7.644-7.476,12.152-16.184,14.728-.56-.532-.812-.672-1.008-.672-.252,0-.364.168-.364.448a19.081,19.081,0,0,0,1.2,3.472ZM210.532,3.44a19.607,19.607,0,0,1,4.088,4.424l1.428-1.26a19.044,19.044,0,0,0-4.088-4.256Zm2.856-1.9a17.625,17.625,0,0,1,3.864,4.06l1.372-1.176a18.747,18.747,0,0,0-3.864-4Zm-2.856,4.228-.756.56-6.44.084c.364-.588.784-1.288,1.26-2.128-2.268-1.036-2.968-1.232-3.388-1.232-.392,0-.532.112-.532.308s.2.448.756.812a23.974,23.974,0,0,1-8.652,10.36,8.1,8.1,0,0,1,2.1,1.9A28.4,28.4,0,0,0,201.964,8.9l7.364-.084A21.41,21.41,0,0,1,206,15.564a42.747,42.747,0,0,0-4.284-3.22l-1.624,1.9a30.141,30.141,0,0,1,4.2,3.276c-2.8,2.968-5.348,4.648-10.416,6.524a8.789,8.789,0,0,1,1.82,2.212A26.138,26.138,0,0,0,206.3,19.4c.756.7,1.68,1.68,2.52,2.6l1.96-2.016c-1.008-1.008-1.988-1.96-2.716-2.6A25.917,25.917,0,0,0,212.3,9.152c.672-.5.84-.672.84-.98,0-.364-.112-.5-2.212-2.408Zm35.28,18.284a78.333,78.333,0,0,0-7.112-11l-2.24,1.372a58.423,58.423,0,0,1,3.556,5.18c-3.556.588-7.42,1.064-10.92,1.456,2.044-4.508,3.864-8.792,6.188-14.952l.644-1.54a16.071,16.071,0,0,0-3.7-1.092c-.42,0-.532.112-.532.308s.224.476.868.924a165.258,165.258,0,0,1-6.58,16.716c-.5.056-1.148.112-1.6.14l-.168.168.336,2.492.168.14c6.524-.784,11.172-1.568,16.66-2.408.672,1.148,1.26,2.24,1.848,3.472Z" transform="translate(7 15)" fill="#fff"/>
    </g>
    <g transform="matrix(1, 0, 0, 1, 823, 148)" filter="url(#パス_1741)">
      <path id="パス_1741-2" data-name="パス 1741" d="M28.3-21.7c-.65,0-1.3-.15-1.45-.9-.1-.6-.1-9-.1-10.2,0-1.35,0-1.95.9-2.15.85-.2,9-.95,10.7-1.1,1.75-.2,2.05-.2,2.05-.7,0-.75-6.35-4.4-6.45-4.4s-.25.05-.65.35a13.363,13.363,0,0,1-3.7,1.75c-5.75,2-15.2,3.5-22.15,4.6-.7.1-1,.15-1,.4s.85.3,1,.3c2.25,0,13.7-.6,14.15-.6a1.239,1.239,0,0,1,1.2.75c.05.35.1,7.15.1,8.05,0,3.45-.05,3.85-1.55,3.85h-9.8c-2.35,0-4.4-.1-6.85-.2-.3,0-1.85-.15-2.2-.15-.1,0-.2,0-.2.1,0,.05.05.1.25.35l.95,1.1c.15.25.25.35.45.35.15,0,.85-.1,1.05-.1.5-.05,1.9-.15,6.3-.15h9.95c1.4,0,1.6.4,1.6,2.1s0,5.4-.05,7C22.75-9.2,22.4.8,22.4,2a1.467,1.467,0,0,0,1.55,1.7C24.85,3.7,27,3.5,27,1c0-.85-.15-4.95-.15-5.9,0-3.8-.05-9.8-.05-13.6,0-1.1.05-1.9,1.5-1.9H44.75c1.7,0,2.65,0,2.65-.7,0-.45-4.85-4.1-5.85-4.1-.6,0-.65.1-1.9,2.1-.85,1.4-1.05,1.4-3.55,1.4ZM98.95-.2c.45,0,1.45,0,1.45,1.2.05,1.5.05,2.2,1.55,2.2A2.471,2.471,0,0,0,104.7.65c0-2.95-.5-17.4-.5-18.5,0-1.2,0-10.05.15-10.3,0-.05.95-.85,1.05-.95.3-.3.5-.45.5-.75,0-.8-4-3.25-4.35-3.25-.4,0-1.4,1.5-1.7,1.7a2.155,2.155,0,0,1-1.5.4h-4.3c-.65,0-1.55,0-1.55-1.4a45.418,45.418,0,0,1,.25-5.9c.15-.25,1.1-1.15,1.1-1.4,0-.55-.15-.6-1.65-1.25a12.018,12.018,0,0,0-3.3-1.1c-.5,0-.55.15-.55.4a13.4,13.4,0,0,0,.25,1.5,26.3,26.3,0,0,1,.2,4c0,5.05,0,5.15-1.5,5.15H82.55c-1.5,0-1.5-.85-1.5-1.95,0-.75-.1-4.05-.1-4.7,0-.5.05-.65.55-1.05.55-.4.7-.7.7-1,0-.55-.2-.6-2.05-1.25a26.189,26.189,0,0,0-3.45-1c-.2,0-.5.05-.5.45,0,.15.5,1.6.55,1.85a68.723,68.723,0,0,1,.55,7.2c0,.85-.35,1.45-1.4,1.45H72a5.161,5.161,0,0,1-2.3-.5,17.6,17.6,0,0,0-3.95-1.4c-.4,0-.65.1-.65.5,0,.2.4,1.6.4,1.9.15,1.6.3,12.8.3,16.55,0,2.5-.25,13.65-.25,15.95,0,1.05.35,1.45,1.5,1.45,2.6,0,2.7-1.35,2.8-2.5S70.8-.2,71.4-.2ZM87.3-15c1.45,0,1.45.3,1.45,4.6,0,1.05,0,7.9-.2,8.25-.25.45-.5.6-1.3.6h-4.5c-.9,0-1.25-.35-1.35-.85s-.15-5.9-.15-8.15c0-4.05,0-4.45,1.45-4.45ZM98.95-29.7a1.392,1.392,0,0,1,1.3.55c.25.4.25,5.55.25,6.35,0,.7,0,5.3-.1,5.6a1.245,1.245,0,0,1-1.4.85H94c-1.45,0-1.45-.85-1.45-1.85,0-1.45,0-10.35.05-10.65a1.274,1.274,0,0,1,1.45-.85Zm-11.65,0a1.353,1.353,0,0,1,1.3.55A57.743,57.743,0,0,1,88.8-23c0,.8.05,5.5-.05,5.85-.15.6-.8.8-1.45.8H82.65c-.8,0-1.25-.25-1.4-.8-.1-.45-.1-9.45-.1-10.2,0-1.6,0-2.35,1.55-2.35ZM99.1-15c1.45,0,1.45,1,1.45,1.45,0,1.15,0,10.85-.1,11.15-.2.75-.75.85-1.4.85H94c-1.45,0-1.45-.95-1.45-1.45,0-1.55,0-10.95.05-11.15A1.271,1.271,0,0,1,94-15ZM75.8-29.7a1.306,1.306,0,0,1,1.35.6c.25.4.25,5.5.25,6.3,0,.7,0,5.3-.1,5.65-.25.8-1,.8-1.45.8h-4.6a1.285,1.285,0,0,1-1.4-.8c-.1-.4-.1-5.25-.1-5.95,0-.9,0-5.4.1-5.75a1.274,1.274,0,0,1,1.45-.85ZM75.9-15c1.35,0,1.5.75,1.5,1.3V-2.75c0,1.2-1.15,1.2-1.5,1.2H71.35c-.85,0-1.4-.2-1.55-.9,0-.1-.15-10.35-.15-10.8,0-1.05,0-1.75,1.65-1.75Zm60.65,2.3c1.1,0,1.15.15,1.35.75a1.148,1.148,0,0,0,1.15.65c1.65,0,2.05-1.3,2.05-2.35,0-1.2-.1-7.3-.1-8.65,0-2.1.15-2.4.85-2.75.5-.25.8-.4.8-.8,0-.9-3.05-2.5-3.55-2.5-.4,0-.7.3-1.15.9-.6.7-.95.75-1.35.75-1.15,0-1.15-.25-1.15-2.75a2.039,2.039,0,0,1,.45-1.65c.4-.35.4-.35.4-.6,0-1.2-3.85-1.75-4.25-1.75s-.45.15-.45.25c0,.2.35,1.2.4,1.4a16.819,16.819,0,0,1,.2,3.6c0,1.05,0,1.5-1.2,1.5-1.4,0-3.75-1.45-3.75-1.95,0-.2.1-.4.45-.75.55-.55,3.85-4.7,5.7-7.1.4-.5.7-.8,1.1-.8.8,0,1.55,1.7,1.7,1.95,1.25,2.8,1.9,4.25,3.55,4.25,1.15,0,1.45-1.1,1.45-2,0-2.65-3.4-4.3-4.6-4.8-.2-.1-1-.45-1-.6s.3-.55.3-.7c0-1.1-3.75-2.65-4-2.65-.4,0-.4,0-.65,1.05-.3,1.2-3.15,6.65-7.05,12.8-.4.65-2.65,3.85-2.65,3.95s.1.1.15.1c.45,0,3.55-3.2,4.1-3.2.6,0,.7,2.3.75,2.9.05,1.7.05,3.55.05,19.95,0,1.9-.4,2.55-3.65,2.55a.532.532,0,0,0-.6.55c0,.3,1.15,5,2.35,5,.3,0,.35-.05.8-.9A8.7,8.7,0,0,1,127.4.85c2.1-1.75,9-5.75,9.55-5.75.5,0,.7.2,1,.6A29.808,29.808,0,0,1,139.9-.8c.7,1.5,1.25,2.45,2.25,2.45.35,0,1.5-.25,1.5-1.9,0-6.3-9.15-9.55-9.45-9.55-.1,0-.25,0-.25.15,0,.2,2.35,2.55,2.35,3.15,0,.5-.45.7-.95.9a33.888,33.888,0,0,1-4.8,1.75c-.6,0-.85-.55-.85-1.05-.05-.85,0-5.15,0-6.1,0-1.05,0-1.7,1.45-1.7Zm-5.45-7.65c-1.4,0-1.4-.35-1.4-3.15,0-1.2,0-1.85,1.4-1.85h5.45c1.4,0,1.4.3,1.4,3.1,0,1.25,0,1.9-1.4,1.9Zm.05,6.35c-1.45,0-1.45-.45-1.45-2.65,0-2,0-2.4,1.45-2.4h5.35c1.5,0,1.5.45,1.5,2.6,0,2.05,0,2.45-1.5,2.45Zm19.9,3.75c-1.55,0-1.55-.6-1.55-2.25v-3.4c.2-.9,1.05-.9,1.6-.9h5.8a1.22,1.22,0,0,1,1.4.85c.15.75.3,1.3,1.6,1.3,2.15,0,2.15-1.45,2.15-2.2,0-.65-.1-4.85-.1-5.7,0-.7.05-1,.35-1.25.7-.65.9-.8.9-1.1,0-.85-2.65-2.25-3.35-2.25-.3,0-1.2,1-1.45,1.15a2.542,2.542,0,0,1-1.6.4h-6a5.47,5.47,0,0,1-2.45-.5c-1.95-.8-2.2-.9-2.65-.9a.448.448,0,0,0-.5.5c0,.55.5,2.85.55,3.35.3,2.85.3,8.15.3,10.75,0,2.15-.3,11.75-.3,13.7,0,1.1,0,2.7,1.65,2.7a2.292,2.292,0,0,0,2.4-2.35c.15-.85.55-1.05,1.55-1.05h8.25c.5,0,1.1,0,1.35.65.25.7.45,1.25,1.45,1.25,1.9,0,2.35-1.6,2.35-2.75,0-.6-.25-5.35-.25-6.35,0-.35,0-1.15.3-1.4.8-.6.85-.65.85-1,0-.9-2.9-3-3.6-3-.35,0-.45.1-1.15,1.05a1.79,1.79,0,0,1-1.75.7Zm.05-7.9c-1.65,0-1.65-.35-1.65-3.45,0-2.3,0-2.7,1.65-2.7h5.8c1.65,0,1.65.35,1.65,3.45,0,2.3,0,2.7-1.65,2.7ZM151.2-.7c-1.6,0-1.75,0-1.75-6.65,0-1.55.8-1.55,1.65-1.55h8.35c1.55,0,1.6.55,1.6,2.2,0,6-.05,6-1.7,6Zm9.75-31.75c.7,0,1.35,0,1.35.8,0,.5-.75,3-.75,3.3,0,.05,0,.1.1.1a2.782,2.782,0,0,0,.85-.45c2.45-1.75,2.8-1.95,4.05-2.1,1.85-.2,2.05-.2,2.05-.9,0-1.05-3.45-3.3-4-3.3a7.946,7.946,0,0,0-1.5.9,2.678,2.678,0,0,1-1.55.35H157.8c-.95,0-1.6-.1-1.6-1.7,0-2.15.1-2.55.65-2.9,1.15-.7,1.4-.85,1.4-1.25,0-1.2-5.55-2.2-6-2.2-.25,0-.5.05-.5.35a11.7,11.7,0,0,0,.45,1.2,22.508,22.508,0,0,1,.3,4.75c0,.7,0,1.75-1.45,1.75h-3.6a1.841,1.841,0,0,1-2-1.05c-.25-.35-.85-1.25-1.15-1.25-.15,0-.15.2-.15.3s.1.65.1.8a7.1,7.1,0,0,1-2.45,4.65c-.65.6-.9.9-.9,1.6a1.466,1.466,0,0,0,1.45,1.5c.5,0,3.15-.35,3.8-3.85.2-1.1.3-1.4,1.5-1.4Z" transform="translate(7 100)" fill="#fff"/>
    </g>
    <g transform="matrix(1, 0, 0, 1, 823, 148)" filter="url(#パス_1742)">
      <path id="パス_1742-2" data-name="パス 1742" d="M10.23-11.79c-.9,0-.9-.42-.9-1.89,0-.72.09-1.11.93-1.11H20.97c.84,0,1.56,0,1.56-.36a6.534,6.534,0,0,0-2.46-1.83c-.24,0-1.05.99-1.23,1.17-.27.24-.39.24-1.62.24H10.26c-.93,0-.93-.36-.93-1.92,0-.6,0-1.14.87-1.14H20.88c.87,0,1.59,0,1.59-.36a6.534,6.534,0,0,0-2.46-1.83c-.24,0-1.02,1.02-1.23,1.2-.24.21-.39.21-1.65.21H10.2c-.87,0-.87-.33-.87-1.65,0-.84.09-1.11,1.02-1.11H23.22c.99,0,1.59,0,1.59-.45,0-.36-2.61-1.98-2.79-1.98-.27,0-.36.12-1.2,1.11-.45.51-.6.51-1.92.51H10.77a3.436,3.436,0,0,1-1.68-.39,13.774,13.774,0,0,0-1.98-.75c-.21,0-.21.15-.21.24,0,.12.27,2.7.3,3.21.06,1.14.06,1.8.06,7.71,0,.87-.06,1.17-1.08,1.17-.72,0-3.93-.21-4.53-.21-.09,0-.12.03-.12.06,0,.06,0,.09.12.21l.6.69c.09.12.15.18.27.18.06,0,.33-.03.42-.03.6-.03,2.22-.12,2.91-.12.87,0,1.05.15,1.05,1.23,0,.99.03,5.76.03,6.87,0,.69,0,.93-.51,1.02a15.764,15.764,0,0,1-3.27.21c-.33,0-.78,0-.78.36a1.327,1.327,0,0,0,.15.45c.06.15.48.84.57.99.72,1.32.81,1.47,1.14,1.47a.381.381,0,0,0,.18-.03c.12-.09.57-.57.69-.66.45-.27,7.59-2.58,9-3.06,1.17-.42,3.33-1.14,3.51-1.14.33,0,.42.12,1.35,1.05a17.958,17.958,0,0,0,6.03,3.9c.09,0,.51-.39.6-.45A10.957,10.957,0,0,1,27.57-.06c.3-.12.51-.24.51-.36s-.09-.18-.54-.24c-5.25-.81-9.12-4.38-9.12-4.74,0-.18.09-.21.87-.69a17.133,17.133,0,0,1,4.14-2.07c1.05-.12,1.17-.12,1.17-.42v-.09a12.86,12.86,0,0,0-2.85-1.92c-.18,0-.3.3-.51.81a10.906,10.906,0,0,1-3.54,3.6c-.6,0-3.12-3.96-3.12-4.47,0-.24.21-.36.48-.36H26.79c.9,0,1.62,0,1.62-.36a8.226,8.226,0,0,0-2.52-2.13c-.27,0-1.05,1.11-1.29,1.29a3.2,3.2,0,0,1-2.13.42Zm2.85.78c.6,0,.66.15,1.2,1.38a46.031,46.031,0,0,0,2.1,4.26c.45.72.51.81.51.87,0,.33-.15.39-1.41.75-1.08.33-5.52,1.38-5.91,1.38-.45,0-.48-.3-.48-.72-.06-1.5-.06-3.6-.06-5.1,0-.42,0-2.1.03-2.25.12-.57.54-.57.84-.57ZM43.95-6.06c1.41,0,1.56,0,1.56-.33,0-.48-1.86-1.89-2.25-1.89-.3,0-.45.24-.84.93-.3.48-.75.51-1.41.51-.75,0-.78-.42-.78-.84,0-.45,0-3.54.09-3.81.12-.36.57-.36.87-.36h.66c.51,0,.87,0,1.02.42.12.36.18.6.63.6a1.339,1.339,0,0,0,1.41-1.38c0-1.23-.09-6.66-.09-7.77,0-1.26.06-1.32.21-1.47.69-.63.75-.69.75-.96,0-.45-1.56-1.65-1.89-1.65a1.61,1.61,0,0,0-.87.51c-.42.36-.45.42-.9.42H36.54c-.42,0-.48,0-1.17-.42a4.733,4.733,0,0,0-1.47-.72c-.21,0-.21.15-.21.36,0,.15.03.81.03.93.09,2.31.09,2.58.09,5.01,0,1.05-.06,5.73-.06,6.69,0,.18,0,.96.66.96a1.53,1.53,0,0,0,1.35-1.08c.15-.42.36-.45.93-.45h.75c.51,0,.99,0,.99.75,0,.12-.03,3.03-.03,3.24,0,.87-.24.99-1.17.99-.54,0-2.67-.09-3.03-.09-.18-.03-.93-.09-1.08-.09-.06,0-.12,0-.12.06,0,.03.03.06.15.21l.57.66c.09.15.15.21.27.21.09,0,.54-.06.63-.06.27-.03,1.23-.09,2.52-.09.78,0,1.23,0,1.23.93a16.851,16.851,0,0,1-.24,3.57c-.36.51-3.27.57-3.63.57-.24,0-2.04,0-2.04.06a18.306,18.306,0,0,0,1.32,2.67c.06.15.15.3.36.3.18,0,.87-.6,1.02-.69.27-.15,7.32-2.04,8.67-2.49.51-.15,2.82-1.02,2.82-1.26,0-.09-.21-.09-.27-.09-.51,0-5.01.81-5.76.81-.39,0-.42-.21-.42-.75V-5.25c0-.81.54-.81,1.11-.81Zm-7.2-11.85c-1.02,0-1.02-.15-1.02-1.44,0-.42,0-2.25.03-2.49.09-.51.48-.51.99-.51h.81c.69,0,.99.06.99.72v2.43c0,1.17-.06,1.29-.99,1.29Zm-.03,5.28c-.75,0-.93-.06-.96-.84-.03-.75-.03-1.98-.03-2.79,0-.84.33-.87,1.05-.87h.72c.78,0,1.02.12,1.02.9a28.712,28.712,0,0,1-.12,3.27c-.15.33-.54.33-.9.33Zm5.13-4.5c.6,0,1.02,0,1.02.81,0,1.05,0,3-.03,3.15-.09.54-.48.54-.99.54h-.57c-.6,0-1.02,0-1.02-.84v-2.82c0-.81.36-.84,1.02-.84Zm.03-5.22c.63,0,.99,0,.99.81v2.82c0,.81-.36.81-.99.81h-.57c-.66,0-.99,0-.99-.84v-2.79c0-.81.36-.81.99-.81Zm9.66-.75c-1.68,0-3.24-.06-4.11-.12-.21,0-1.14-.09-1.32-.09-.06,0-.12,0-.12.06s.03.09.15.21l.57.69c.09.12.15.21.27.21.06,0,.78-.09.87-.09,1.2-.06,2.7-.09,3.54-.09h2.16c.36,0,.54.03.54.27,0,.27-1.53,3.09-2.07,3.09a14.931,14.931,0,0,1-1.44-.54,8.25,8.25,0,0,0-1.86-.36c-.06,0-.18,0-.18.09,0,.03.9.87,1.08,1.02a7.528,7.528,0,0,1,1.59,2.25c.21.45.54.93.99.93.51,0,1.05-.69,1.05-1.32a2.122,2.122,0,0,0-.27-.93,4.712,4.712,0,0,1-.42-.75c0-.18.12-.27.27-.36,3.03-2.28,3.6-2.73,4.92-2.73.69,0,.9,0,.9-.36,0-.48-2.46-2.28-2.82-2.28-.27,0-.33.09-.99.9-.24.27-.48.3-1.02.3Zm3.93,9.06c.18,0,.42,0,.42.21,0,.33-1.32,2.91-1.32,3.18,0,.06.03.12.15.12a21.459,21.459,0,0,0,2.31-1.71,3.261,3.261,0,0,1,1.89-.75c.21-.03.48-.15.48-.45,0-.36-1.86-2.31-2.49-2.31-.18,0-.21.06-.6.51-.24.3-.36.39-.9.39H50.88c-1.71,0-3.24-.06-4.11-.09-.21-.03-1.14-.12-1.32-.12-.06,0-.12.03-.12.09,0,.03.03.06.15.18l.57.69c.09.12.15.21.27.21a4.551,4.551,0,0,0,.63-.09c.75-.06,2.16-.06,3.03-.06.78,0,.9.42.9.93,0,1.44-.03,11.07-.03,11.76-.03.72,0,.99-1.23.99-.42,0-.9-.03-1.32-.06-.12,0-.72-.09-.84-.09-.09,0-.21,0-.21.09,0,.15,1.32.75,1.56.9a3.23,3.23,0,0,1,1.17,1.41c.06.12.12.18.33.18a2.7,2.7,0,0,0,1.74-.45c.66-.39.78-.84.78-2.28,0-.87-.03-5.07-.03-5.4,0-1.11.06-5.97.06-6.96,0-.78.12-1.02,1.05-1.02Z" transform="translate(197 100)" fill="#fff"/>
    </g>
    <g transform="matrix(1, 0, 0, 1, 823, 148)" filter="url(#パス_1743)">
      <path id="パス_1743-2" data-name="パス 1743" d="M10.945-14.777a7.118,7.118,0,0,0-2.7.5,6.022,6.022,0,0,0-2.121,1.43A6.571,6.571,0,0,0,4.74-10.6a8.286,8.286,0,0,0-.5,2.947,7.754,7.754,0,0,0,.539,2.959A6.6,6.6,0,0,0,6.264-2.449,6.532,6.532,0,0,0,8.473-1.025a7.39,7.39,0,0,0,2.73.5,5.457,5.457,0,0,0,1.049-.1,7.5,7.5,0,0,0,.961-.252,7.594,7.594,0,0,0,.844-.34,7.515,7.515,0,0,0,.7-.375V-7.043H11.813v-.926H16.9v6.9a12.9,12.9,0,0,1-1.318.615,10.152,10.152,0,0,1-1.436.445A13.31,13.31,0,0,1,12.439.27q-.932.094-2.115.094A9.588,9.588,0,0,1,7.945.076,8.991,8.991,0,0,1,5.854-.738,8.291,8.291,0,0,1,4.113-2,8.084,8.084,0,0,1,2.789-3.621a7.586,7.586,0,0,1-.844-1.916,7.662,7.662,0,0,1-.293-2.115,8.09,8.09,0,0,1,.281-2.127,8.42,8.42,0,0,1,.8-1.957,7.933,7.933,0,0,1,1.277-1.682,8.222,8.222,0,0,1,1.7-1.312,8.495,8.495,0,0,1,2.063-.855,9,9,0,0,1,2.373-.3,6.944,6.944,0,0,1,2.186.334,7.657,7.657,0,0,1,1.852.891,8.081,8.081,0,0,1,1.506,1.289,10.006,10.006,0,0,1,1.148,1.518l-1,.668a7.464,7.464,0,0,0-1.078-1.576,6.97,6.97,0,0,0-1.271-1.119,5.59,5.59,0,0,0-1.318-.668A3.84,3.84,0,0,0,10.945-14.777Zm15.206-.762h5.156a8.334,8.334,0,0,1,2.35.3,4.878,4.878,0,0,1,1.688.838,3.483,3.483,0,0,1,1.014,1.283A3.86,3.86,0,0,1,36.7-11.5a3.573,3.573,0,0,1-.264,1.377,3.643,3.643,0,0,1-.756,1.148A4.607,4.607,0,0,1,34.5-8.1a6.463,6.463,0,0,1-1.547.563L38.609,0h-2.66l-5.4-7.3H28.3V0H26.152ZM28.3-8.086h1.746a6.02,6.02,0,0,0,1.717-.234,4.314,4.314,0,0,0,1.365-.662,3.075,3.075,0,0,0,.9-1.037,2.887,2.887,0,0,0,.322-1.371,3.166,3.166,0,0,0-.258-1.289,2.865,2.865,0,0,0-.727-1,3.415,3.415,0,0,0-1.113-.65,4.122,4.122,0,0,0-1.418-.234H28.3Zm23.292-7.8L58.9,0H56.662L54.3-5.18H47.416L44.991,0H43.725l7.43-15.891ZM47.9-6.187h5.918L50.838-12.5Zm18.171-9.352h1.289L77.834-3.867V-15.539h1.148V.316H78.4L67.252-12.469V0H66.068Zm22.167,0H93.18a14.723,14.723,0,0,1,3.738.451A8.453,8.453,0,0,1,99.9-13.693a6.575,6.575,0,0,1,1.963,2.379,7.61,7.61,0,0,1,.709,3.4,8.25,8.25,0,0,1-.574,3.082A7.061,7.061,0,0,1,100.3-2.314,8.06,8.06,0,0,1,97.546-.621,10.494,10.494,0,0,1,93.8,0H88.235Zm2.145,14.4h3.012a7.469,7.469,0,0,0,2.566-.434A5.915,5.915,0,0,0,98.05-2.859a6.063,6.063,0,0,0,1.412-2.1,7.52,7.52,0,0,0,.516-2.889,6.978,6.978,0,0,0-.486-2.643,6.108,6.108,0,0,0-1.359-2.068,6.13,6.13,0,0,0-2.08-1.348,7.1,7.1,0,0,0-2.648-.48H90.38Zm43.959,1.5a8.291,8.291,0,0,1-3.275-.645,8.313,8.313,0,0,1-2.643-1.764,8.266,8.266,0,0,1-1.77-2.613,7.975,7.975,0,0,1-.645-3.193,7.711,7.711,0,0,1,.645-3.141,8.011,8.011,0,0,1,1.77-2.555,8.322,8.322,0,0,1,2.643-1.717,8.493,8.493,0,0,1,3.275-.627,8.537,8.537,0,0,1,3.281.627,8.3,8.3,0,0,1,2.648,1.717,8.011,8.011,0,0,1,1.77,2.555,7.711,7.711,0,0,1,.645,3.141,7.975,7.975,0,0,1-.645,3.193,8.266,8.266,0,0,1-1.77,2.613A8.3,8.3,0,0,1,137.62-.281,8.334,8.334,0,0,1,134.339.363Zm0-.773a5.278,5.278,0,0,0,2.467-.557,5.124,5.124,0,0,0,1.8-1.553,7.208,7.208,0,0,0,1.1-2.355,11.169,11.169,0,0,0,.375-2.977,10.862,10.862,0,0,0-.375-2.941,6.889,6.889,0,0,0-1.1-2.3,5.017,5.017,0,0,0-1.8-1.5,5.47,5.47,0,0,0-2.467-.533,5.535,5.535,0,0,0-2.484.533,4.952,4.952,0,0,0-1.8,1.5,6.873,6.873,0,0,0-1.09,2.3,11.025,11.025,0,0,0-.369,2.941,11.336,11.336,0,0,0,.369,2.977,7.192,7.192,0,0,0,1.09,2.355,5.057,5.057,0,0,0,1.8,1.553A5.34,5.34,0,0,0,134.339-.41Zm17.128-15.129h4.688a7.966,7.966,0,0,1,2.2.293,5.4,5.4,0,0,1,1.781.861,4.124,4.124,0,0,1,1.189,1.395,4.012,4.012,0,0,1,.434,1.893,3.961,3.961,0,0,1-.428,1.869A4.212,4.212,0,0,1,160.2-7.863a4.955,4.955,0,0,1-1.576.832,5.812,5.812,0,0,1-1.781.281q-.4,0-.832-.035t-.855-.1q-.422-.064-.82-.141t-.727-.158V0h-2.145Zm2.145,7.348a10.765,10.765,0,0,0,1.1.34,4.553,4.553,0,0,0,1.119.141,4.493,4.493,0,0,0,1.576-.252,3.186,3.186,0,0,0,1.125-.691,2.8,2.8,0,0,0,.674-1.031,3.548,3.548,0,0,0,.223-1.26,3.336,3.336,0,0,0-.293-1.418,3.3,3.3,0,0,0-.8-1.084,3.58,3.58,0,0,0-1.184-.7,4.236,4.236,0,0,0-1.453-.246h-2.086Zm26.866-7.348v1.008h-8.191v5.555h5.484v1.008h-5.484v6.961h8.191V0H170.142V-15.539Zm8.1,0h1.289L200.348-3.867V-15.539H201.5V.316h-.586L189.766-12.469V0h-1.184Z" transform="translate(27 149)" fill="#fff"/>
    </g>
    <g id="グループ_866" data-name="グループ 866" opacity="0.7">
      <rect id="長方形_685" data-name="長方形 685" width="251" height="1" transform="translate(830 309)" fill="#fff"/>
      <rect id="長方形_686" data-name="長方形 686" width="251" height="1" transform="translate(830 267)" fill="#fff"/>
    </g>
  </g>
</svg>
