<svg xmlns="http://www.w3.org/2000/svg" viewBox="0 0 47.18 47.18"><defs><style>.cls-1{fill:#f5a200;}.cls-2{fill:#fff;}</style></defs><g id="レイヤー_2" data-name="レイヤー 2"><g id="レイヤー_6" data-name="レイヤー 6"><rect class="cls-1" width="47.18" height="47.18"/><path class="cls-2" d="M4.11,5.88a5.83,5.83,0,0,1-.71.28,5.84,5.84,0,0,0-.59.21V5.09a6.63,6.63,0,0,0,.92-.44,2.92,2.92,0,0,0,.76-.55H5.83v9H4.11Z"/><path class="cls-2" d="M7.88,5.88a6.31,6.31,0,0,1-.72.28,5.32,5.32,0,0,0-.58.21V5.09a6.59,6.59,0,0,0,.91-.44,2.92,2.92,0,0,0,.76-.55H9.6v9H7.88Z"/><path class="cls-2" d="M8.05,36h7.13a.17.17,0,0,0,.17-.17.17.17,0,0,0,0-.12h0l-3.54-4.59,0,0a.15.15,0,0,0-.13-.06.21.21,0,0,0-.11,0l0,0,0,0L8,35.64l0,.06a.17.17,0,0,0,0,.1.17.17,0,0,0,.18.17"/><path class="cls-2" d="M15.15,36.62H8a.18.18,0,0,0-.18.18v5.59a.18.18,0,0,0,.18.17h2.3V39.05a.18.18,0,0,1,.17-.18h2.14a.18.18,0,0,1,.17.18v3.51h2.36a.18.18,0,0,0,.18-.17V36.8a.18.18,0,0,0-.18-.18"/><path class="cls-2" d="M39.2,37.45a.18.18,0,0,1-.17.17H36.92a.18.18,0,0,1-.18-.17V36.16a.18.18,0,0,1,.18-.17H39a.18.18,0,0,1,.17.17Zm0,2.37A.18.18,0,0,1,39,40H36.92a.18.18,0,0,1-.18-.17V38.54a.17.17,0,0,1,.18-.17H39a.17.17,0,0,1,.17.17ZM36,37.45a.17.17,0,0,1-.17.17H33.69a.18.18,0,0,1-.18-.17V36.16a.18.18,0,0,1,.18-.17H35.8a.17.17,0,0,1,.17.17Zm0,2.37a.17.17,0,0,1-.17.17H33.69a.18.18,0,0,1-.18-.17V38.54a.17.17,0,0,1,.18-.17H35.8a.16.16,0,0,1,.17.17Zm3.87-4.66H32.77a.17.17,0,0,0-.17.17v7.14a.17.17,0,0,0,.17.16h7.07a.17.17,0,0,0,.18-.16V35.33a.17.17,0,0,0-.18-.17"/><path class="cls-2" d="M22.4,23.66a.09.09,0,0,1-.09.09H20.72a.09.09,0,0,1-.09-.09V21.89a.09.09,0,0,1,.09-.09h1.59a.09.09,0,0,1,.09.09Zm0,4.05a.1.1,0,0,1-.09.1H20.72a.1.1,0,0,1-.09-.1V26a.09.09,0,0,1,.09-.09h1.59a.09.09,0,0,1,.09.09Zm0,4.06a.09.09,0,0,1-.09.09H20.72a.09.09,0,0,1-.09-.09V30a.09.09,0,0,1,.09-.09h1.59a.09.09,0,0,1,.09.09Zm0,4.05a.09.09,0,0,1-.09.09H20.72a.09.09,0,0,1-.09-.09V34.06a.09.09,0,0,1,.09-.09h1.59a.09.09,0,0,1,.09.09Zm0,4.06a.09.09,0,0,1-.09.09H20.72a.09.09,0,0,1-.09-.09V38.11a.09.09,0,0,1,.09-.09h1.59a.09.09,0,0,1,.09.09ZM19.29,23.66a.09.09,0,0,1-.09.09H17.61a.1.1,0,0,1-.09-.09V21.89a.1.1,0,0,1,.09-.09H19.2a.09.09,0,0,1,.09.09Zm0,4.05a.1.1,0,0,1-.09.1H17.61a.11.11,0,0,1-.09-.1V26a.1.1,0,0,1,.09-.09H19.2a.09.09,0,0,1,.09.09Zm0,4.06a.09.09,0,0,1-.09.09H17.61a.1.1,0,0,1-.09-.09V30a.1.1,0,0,1,.09-.09H19.2a.09.09,0,0,1,.09.09Zm0,4.05a.09.09,0,0,1-.09.09H17.61a.1.1,0,0,1-.09-.09V34.06a.1.1,0,0,1,.09-.09H19.2a.09.09,0,0,1,.09.09Zm0,4.06a.09.09,0,0,1-.09.09H17.61a.1.1,0,0,1-.09-.09V38.11a.1.1,0,0,1,.09-.09H19.2a.09.09,0,0,1,.09.09Zm4.12-21.29H16.49a.16.16,0,0,0-.17.17V42.4a.16.16,0,0,0,.17.17h6.92a.17.17,0,0,0,.17-.17V18.76a.17.17,0,0,0-.17-.17"/><rect class="cls-2" x="32.61" y="32.87" width="7.4" height="1.71" rx="0.14"/><path class="cls-2" d="M31,30.28a.18.18,0,0,1-.17.17H28.75a.17.17,0,0,1-.17-.17V29a.16.16,0,0,1,.17-.17h2.06A.17.17,0,0,1,31,29Zm0,2.38a.17.17,0,0,1-.17.17H28.75a.16.16,0,0,1-.17-.17V31.37a.17.17,0,0,1,.17-.17h2.06a.18.18,0,0,1,.17.17Zm0,2.39a.18.18,0,0,1-.17.17H28.75a.17.17,0,0,1-.17-.17V33.76a.16.16,0,0,1,.17-.17h2.06a.17.17,0,0,1,.17.17Zm0,2.38a.17.17,0,0,1-.17.17H28.75a.16.16,0,0,1-.17-.17V36.14a.17.17,0,0,1,.17-.17h2.06a.18.18,0,0,1,.17.17Zm0,2.39a.18.18,0,0,1-.17.17H28.75a.17.17,0,0,1-.17-.17V38.53a.16.16,0,0,1,.17-.17h2.06a.17.17,0,0,1,.17.17Zm-3.15-10v2.85a.17.17,0,0,1-.17.16H25.6a.17.17,0,0,1-.17-.16v-.35h0a.15.15,0,0,1,0-.07s0,0,0,0l0,0s0,0,0,0c.26-.37,1.45-1.84,2-2.45l0-.06a.18.18,0,0,1,.15-.07.19.19,0,0,1,.19.16Zm0,5.23a.18.18,0,0,1-.17.17H25.59a.18.18,0,0,1-.17-.17V33.76a.17.17,0,0,1,.17-.17h2.07a.17.17,0,0,1,.17.17Zm0,2.38a.17.17,0,0,1-.17.17H25.59a.17.17,0,0,1-.17-.17V36.14a.18.18,0,0,1,.17-.17h2.07a.18.18,0,0,1,.17.17Zm0,2.39a.18.18,0,0,1-.17.17H25.59a.18.18,0,0,1-.17-.17V38.53a.17.17,0,0,1,.17-.17h2.07a.17.17,0,0,1,.17.17ZM28.9,27.74l.05-.06c.46-.6,1.25-1.57,1.63-2l.05-.06a.21.21,0,0,1,.15-.07.19.19,0,0,1,.19.16v2.18a.2.2,0,0,1-.19.2H29.05a.21.21,0,0,1-.19-.2.21.21,0,0,1,0-.11m2.86-4.69a.18.18,0,0,0-.17-.13.17.17,0,0,0-.1,0h0l-.06.07-6.8,8.63,0,0a.18.18,0,0,0-.06.14h0V42.44a.17.17,0,0,0,.17.17h6.91a.18.18,0,0,0,.17-.17V23.12a.19.19,0,0,0,0-.07"/><path class="cls-2" d="M15.57,4.91a4.56,4.56,0,0,0-.65-.51l.28-.34a2.22,2.22,0,0,1,.33.28,2.4,2.4,0,0,1,.28.27ZM14.46,7.6V7.26h.86V6.4h-.69V6.05h.69V5.31h-.8V4.93h2v.38h-.82v.74h.71V6.4h-.71v.86h.9V7.6Zm.1-3.22c-.09.26-.19.51-.3.76V7.71h-.4V5.8a1.55,1.55,0,0,1-.26.37l-.25-.3a4.3,4.3,0,0,0,.82-1.8l.45.19a.05.05,0,0,1,0,0c0,.05-.06.07-.09.07"/><path class="cls-2" d="M17.57,6.64c0,.1,0,.19.13.19a.19.19,0,0,0,.15-.08,2.29,2.29,0,0,0,.28-.59c-.24,0-.56.14-.56.48M20,7a4.48,4.48,0,0,0-.47-.33,2.12,2.12,0,0,1-.72,1l-.36-.23a1.75,1.75,0,0,0,.71-.94,2.66,2.66,0,0,0-.65-.23,2.83,2.83,0,0,1-.17.4c-.15.33-.33.65-.69.65a.54.54,0,0,1-.49-.6.84.84,0,0,1,.64-.82,1.2,1.2,0,0,1,.42,0,5,5,0,0,0,.25-1L17.76,5l-.08-.47h0a4.85,4.85,0,0,0,1.16-.15c.05.07.12.13.17.19-.07.25-.15.49-.23.74s-.11.37-.18.55a2.88,2.88,0,0,1,.65.2,4.28,4.28,0,0,0,.12-.81l.4.29a3.94,3.94,0,0,1-.12.7,4.63,4.63,0,0,1,.52.3c-.06.15-.12.3-.19.45"/><path class="cls-2" d="M24,7.57a1.26,1.26,0,0,1-.59.15c-.25,0-.41-.14-.41-.45V6.15l.35,0s.06,0,.06,0,0,0-.05.06v.82c0,.2,0,.25.19.25A.89.89,0,0,0,24,7.14ZM23.1,4.89v.29h.61V5.5H22.14V5.18h.58v-.3H22V4.54h.72V4.08l.39,0s0,0,0,0a.08.08,0,0,1,0,.07v.32h.76v.35Zm-.24,1.43a2.45,2.45,0,0,1-.1.66,1.52,1.52,0,0,1-.58.79l-.3-.25c.51-.32.6-.71.62-1.37l.36.07s0,0,0,0a.07.07,0,0,1,0,.05m-.95.83c-.05-.22-.1-.44-.13-.67L22,6.37c0,.22.09.45.14.67ZM23.5,6.4V6H22.4v.4h-.34V6.13l-.25.1,0-.13h-.06v1.6h-.35V6.15l-.5,0,0-.34.17,0a.15.15,0,0,0,.09-.07c.09-.12.16-.25.25-.38-.15-.06-.3-.14-.45-.19V5a4.42,4.42,0,0,0,.57-1l.36.2s.07,0,.07.08-.06.07-.1.07c-.16.2-.31.41-.48.6a2,2,0,0,1,.19.12c.07-.11.12-.22.19-.32L22,5a.06.06,0,0,1,0,.06s-.05,0-.08,0c-.18.24-.35.48-.54.71l.29,0a1.72,1.72,0,0,0-.07-.21l.27-.1c.06.18.11.37.16.57V5.69h1.82V6.4Zm-2.19.17a4.41,4.41,0,0,1-.24.95l-.29-.16a5,5,0,0,0,.22-1l.33.14s0,0,0,0a.07.07,0,0,1,0,.06"/><path class="cls-2" d="M27.07,5.66c0,.18,0,.35,0,.53a2.81,2.81,0,0,1-.07.65,1.48,1.48,0,0,1-.5.85,2.4,2.4,0,0,0-.38-.21,1.56,1.56,0,0,0,.54-1.32c0-.16,0-.32,0-.49a4.42,4.42,0,0,1-.63,0h-.19c0-.14,0-.28,0-.43a3.42,3.42,0,0,0,.45,0h.39c0-.22,0-.44,0-.66a2.19,2.19,0,0,0,0-.36l.33,0a.58.58,0,0,1,.14,0,0,0,0,0,1,.05,0s0,.05-.05.06c0,.26,0,.53,0,.8a2.72,2.72,0,0,0,.61-.15c0,.15,0,.3,0,.45a3.26,3.26,0,0,1-.61.11m-1.71,1.7L25,7.4a4,4,0,0,1-.25-1.49A8.64,8.64,0,0,1,25,4.38l.31.08.14,0s0,0,0,0a.06.06,0,0,1-.06.06,6.33,6.33,0,0,0-.2,1.63,2.8,2.8,0,0,0,0,.5l.21-.59a3.92,3.92,0,0,0,.25.32,4,4,0,0,0-.31.9"/><path class="cls-2" d="M29.64,5a3.85,3.85,0,0,0-.73-.67l.27-.31A2.64,2.64,0,0,1,30,4.7L29.64,5m-.2,2.61-.22.05c0-.06-.21-.35-.21-.35h0a3,3,0,0,0,.51-.15.76.76,0,0,0,.52-.65c0-.32-.17-.49-.43-.49s-.77.43-.91.85l-.34-.07a4.17,4.17,0,0,1,0-.61,9.68,9.68,0,0,1,.14-1.32l.41.13a.05.05,0,0,1,0,.05s0,0-.06.06a5.37,5.37,0,0,0-.13,1,1.32,1.32,0,0,1,1-.48.79.79,0,0,1,.77.84c0,.74-.55,1-1.08,1.17"/><path class="cls-2" d="M33.63,7.32c-.31,0-.45-.23-.45-.58s.06-.71.08-1.07V5.5c0-.07,0-.15-.09-.15s-.68.47-.8.66q0,.78,0,1.56l-.42,0V6.33c-.15.26-.32.5-.47.76-.11-.12-.2-.25-.31-.37A6.63,6.63,0,0,0,32,5.56v-.2c-.2,0-.38.09-.58.12,0-.13,0-.27-.07-.41A3.55,3.55,0,0,0,32,5c0-.28,0-.56,0-.83a2.12,2.12,0,0,1,.44,0,.06.06,0,0,1,0,.06.05.05,0,0,1,0,0c0,.19,0,.39,0,.58a1.27,1.27,0,0,0,.18-.06c0,.1.05.21.07.31l-.17.25h0a1.37,1.37,0,0,1,.89-.48c.23,0,.36.22.36.47s0,.41,0,.62a4.48,4.48,0,0,0-.06.64h0c0,.09,0,.22.11.22s.35-.35.44-.54l.15.56a.76.76,0,0,1-.66.44"/><path class="cls-2" d="M36,7a.1.1,0,0,0-.11.11c0,.16.2.18.29.18S36.08,7,36,7m.29.68c-.29,0-.75-.12-.75-.56a.48.48,0,0,1,.5-.46.54.54,0,0,1,.48.38.91.91,0,0,1,0,.23A.64.64,0,0,0,37,6.65.59.59,0,0,0,36.34,6c-.52,0-.83.5-1.15.92l-.32-.34a8.71,8.71,0,0,0,1.31-1.78L35.35,5l-.08-.5h.11a3.42,3.42,0,0,0,.46,0,4.8,4.8,0,0,0,.64-.12,1.11,1.11,0,0,0,.22-.07l.23.34-.1.09L36.6,5l-.48.7a1.22,1.22,0,0,1,.32,0,.88.88,0,0,1,.92.94,1,1,0,0,1-1.12,1.1"/><path class="cls-2" d="M14.93,11.93a.81.81,0,0,0-.31-.06c-.12,0-.36.05-.36.24s.22.24.35.24.32-.08.32-.33v-.09m1.21.59a5.21,5.21,0,0,0-.78-.47.64.64,0,0,1-.2.54.82.82,0,0,1-.47.15c-.35,0-.87-.12-.86-.63a.62.62,0,0,1,.57-.59h.28l.24,0c0-.13,0-.26,0-.39h-.35c-.27,0-.64,0-.64-.45a.9.9,0,0,1,.09-.33l.37,0a.83.83,0,0,0-.08.28c0,.13.15.13.22.13a2.38,2.38,0,0,0,.38,0c0-.19,0-.39,0-.59a7.46,7.46,0,0,0-1.16.1c0-.15,0-.29-.06-.43l1.22-.06V9.23l.3,0,.15,0s0,0,0,.05a.1.1,0,0,1,0,.06c0,.12,0,.24,0,.37l.92,0v.42h-.92v.59a3.89,3.89,0,0,0,.89-.17l0,.46c-.28,0-.56.08-.85.1,0,.17,0,.34,0,.5a4.32,4.32,0,0,1,1,.5l-.24.39"/><path class="cls-2" d="M19.22,12.38a1.9,1.9,0,0,1-1,.39c-.08-.13-.13-.27-.21-.39.38,0,1.09-.17,1.09-.77a.41.41,0,0,0-.45-.41,1,1,0,0,0-.61.25,1.25,1.25,0,0,0-.36.51l-.39-.2a3.42,3.42,0,0,0,.47-1.39h-.69l0-.44a4.36,4.36,0,0,0,.51,0h.25c0-.25,0-.51,0-.76l.31,0,.14,0s.05,0,.05.06a.1.1,0,0,1-.06.08c0,.18,0,.36-.05.53a5.43,5.43,0,0,0,1.05-.21v.47a8.6,8.6,0,0,1-1.12.15,5.77,5.77,0,0,1-.16.72,1.27,1.27,0,0,1,.75-.22.74.74,0,0,1,.77.82,1,1,0,0,1-.32.72"/><path class="cls-2" d="M22.8,9.7a3.64,3.64,0,0,0-.35-.52L22.72,9a3.42,3.42,0,0,1,.33.51Zm-.47.14a3,3,0,0,0-.35-.5l.26-.15a2.38,2.38,0,0,1,.34.49Zm.42,2.22a2.39,2.39,0,0,1-1.32.56c-.11-.13-.2-.27-.31-.39a3.72,3.72,0,0,0,.8-.19,1,1,0,0,0,.75-.94c0-.54-.27-.71-.68-.71a3,3,0,0,0-1.19.39,2.18,2.18,0,0,1-.45.16c0-.06-.16-.52-.16-.53s0,0,.06,0a2.86,2.86,0,0,0,.85-.21,3,3,0,0,1,1-.22,1,1,0,0,1,1,1.11,1.3,1.3,0,0,1-.37,1"/><path class="cls-2" d="M25.59,12.71a7,7,0,0,0-1-1.14l-.29-.26a1.22,1.22,0,0,1-.17-.15.31.31,0,0,1-.06-.21.47.47,0,0,1,.15-.34c.16-.17.33-.33.49-.51s.47-.53.7-.82l.3.25.11.09s0,0,0,0-.07.06-.11.05l-.67.64c-.1.09-.19.19-.28.28a1.66,1.66,0,0,0-.14.13.3.3,0,0,0-.08.16.2.2,0,0,0,.06.12l.45.37a7.39,7.39,0,0,1,.89,1l-.34.34"/><path class="cls-2" d="M28.85,9.59c0,.47,0,1,0,1.44A2,2,0,0,1,28,12.85a1.93,1.93,0,0,0-.36-.22l0,0s0,0,0,0a1.14,1.14,0,0,0,.23-.15A1.85,1.85,0,0,0,28.41,11a14.37,14.37,0,0,0,0-1.61,3.11,3.11,0,0,1,.32,0,.86.86,0,0,1,.17,0,0,0,0,0,1,0,0,.12.12,0,0,1,0,.08m-1.37,2.09-.35,0a2.55,2.55,0,0,1-.14-.91c0-.44.09-.87.14-1.31l.32.06.12,0s0,0,0,0a.07.07,0,0,1,0,.06,5.08,5.08,0,0,0-.17,1.16,1,1,0,0,0,0,.24s0,0,0,0,0,0,0,0l.15-.38.2.29a3.72,3.72,0,0,0-.29.77"/><path class="cls-2" d="M32.4,11.06l0,0c-.23.08-.68.27-.9.38V12h-.38v-.42c-.26.13-.39.3-.39.49s.15.25.45.25a2.64,2.64,0,0,0,.94-.17v.48a2.51,2.51,0,0,1-.82.11c-.63,0-.95-.21-.95-.65a.82.82,0,0,1,.27-.58,2.15,2.15,0,0,1,.49-.35q0-.27-.15-.27a.5.5,0,0,0-.34.15c-.06.07-.15.15-.25.28s-.19.24-.24.29l-.27-.34a2.87,2.87,0,0,0,.82-1.1c-.17,0-.37,0-.57.06,0-.16,0-.3-.06-.43a5.11,5.11,0,0,0,.75,0,3.7,3.7,0,0,0,.11-.55l.44.1s0,0,0,.05,0,0,0,.06l-.09.31a4.8,4.8,0,0,0,.61-.15l0,.45-.72.12a1.93,1.93,0,0,1-.2.41.49.49,0,0,1,.19,0c.19,0,.32.14.38.43l.88-.45.15.46s0,.05,0,.05"/></g></g></svg>