<svg xmlns="http://www.w3.org/2000/svg" viewBox="0 0 47.18 47.18"><defs><style>.cls-1{fill:#ed6a02;}.cls-2{fill:#fff;}</style></defs><g id="レイヤー_2" data-name="レイヤー 2"><g id="レイヤー_6" data-name="レイヤー 6"><rect class="cls-1" width="47.18" height="47.18"/><path class="cls-2" d="M6.78,8V6.55a2.62,2.62,0,0,0-.14-.94.52.52,0,0,0-.53-.34.52.52,0,0,0-.53.37,3.78,3.78,0,0,0-.13,1.18c0,.39,0,.68,0,.89a.83.83,0,0,0,.19.49.52.52,0,0,0,.46.19A.74.74,0,0,0,6.78,8m-2.4,4.67a2.49,2.49,0,0,1-.54-1.73v-.13H5.46a2,2,0,0,0,.13.87.52.52,0,0,0,.52.25.49.49,0,0,0,.42-.17,1.15,1.15,0,0,0,.2-.55,9.77,9.77,0,0,0,0-1.1V9.18a1,1,0,0,1-.45.38,1.83,1.83,0,0,1-.73.14A1.57,1.57,0,0,1,4.15,9a3.7,3.7,0,0,1-.46-2c0-2,.81-3,2.42-3A2.18,2.18,0,0,1,8,4.76a3.39,3.39,0,0,1,.59,2.11v3.28A4.06,4.06,0,0,1,8,12.41a2.11,2.11,0,0,1-1.9.81,2.24,2.24,0,0,1-1.72-.57"/><path class="cls-2" d="M35.12,37.88,30.06,40.8V35L35.12,32ZM18.41,40.8V35.41l4.67,2.69Zm-.77,0-5.05-2.92V32L17.64,35Zm5.44-16.15-4.67,2.7V22Zm6.21,2.7-4.67-2.7L29.29,22Zm-4.67,4,5.06-2.92,5.06,2.92L29.68,34.3Zm-1.15-.67L18.8,28l4.67-2.69ZM28.91,28l-4.67,2.7V25.32Zm-5.44,9.43-4.67-2.7L23.47,32ZM35.7,31l-5.64-3.25v-6.5a.39.39,0,0,0-.19-.34L24,17.59a.37.37,0,0,0-.38,0L17.84,21a.4.4,0,0,0-.2.34v6.5L12,31a.39.39,0,0,0-.19.34V38.1a.39.39,0,0,0,.19.34l5.83,3.36a.38.38,0,0,0,.19.05.45.45,0,0,0,.19-.05l5.63-3.25,5.64,3.25a.38.38,0,0,0,.19.05.45.45,0,0,0,.19-.05l5.83-3.36a.39.39,0,0,0,.19-.34V31.38A.39.39,0,0,0,35.7,31"/><path class="cls-2" d="M14.42,5c.05.14.12.37.16.51a.14.14,0,0,1-.18,0h.73A4.21,4.21,0,0,0,15.25,5Zm-.52,2.9V7.52h1V7.16h-.52V6.84h.52v-.3h-.44a2.6,2.6,0,0,1-.25.62L13.9,7a3.41,3.41,0,0,0,.31-1.09l.37.1a0,0,0,0,1,0,0,.05.05,0,0,1,0,.05l-.05.15h.36V5.83l.42,0s0,0,0,0a.08.08,0,0,1-.07.07V6.2h.89v.33h-.89v.31H16v.32h-.71v.36h1v.33Zm0-2.08c0,.11,0,.21,0,.32a4.52,4.52,0,0,1-.16,1.27,1.86,1.86,0,0,1-.24.56l-.32-.23a2.74,2.74,0,0,0,.33-1.5c0-.25,0-.51,0-.76h.69c-.07-.12-.12-.25-.19-.37L14.26,5H13.5V4.58h1.13V4.16l.41,0s.07,0,.07,0,0,0,0,.06v.28h1.17V5h-.79l.23.09s0,0,0,0,0,0,0,0-.1.21-.16.31h.85v.34Z"/><path class="cls-2" d="M18.15,5.35l.05.28h.56a2.86,2.86,0,0,0,.07-.28ZM19.92,7.9a2.48,2.48,0,0,1-1.23-.75v.79h-.38v-.8a2.66,2.66,0,0,1-1.2.74l-.23-.34A2.32,2.32,0,0,0,18,6.93H17V6.6h1.3V6.44h-1v-.3h1V6H17.13V5.63h.71c0-.09-.07-.19-.11-.28H17V5h.59a3.82,3.82,0,0,0-.29-.48l.37-.22.24.6-.19.1H18V4.24l.39,0a0,0,0,0,1,0,0,.09.09,0,0,1-.06.07V5h.24V4.23l.39,0a0,0,0,0,1,0,0s0,.05-.05.06V5h.29l-.17-.1a6.26,6.26,0,0,0,.21-.61l.4.19a.07.07,0,0,1,0,.06s-.06,0-.08,0L19.42,5H20v.34h-.75c-.05.1-.11.19-.16.28h.79V6H18.69v.18h1v.3h-1V6.6H20v.33H19a2.51,2.51,0,0,0,1.19.61Z"/><path class="cls-2" d="M22.14,7.87c-.48,0-1.26-.08-1.26-.85a1.19,1.19,0,0,1,.79-1,6.19,6.19,0,0,1-.13-1.43l.31,0H22s0,0,0,0l0,0c0,.12,0,.25,0,.37a2.38,2.38,0,0,0,.07.73h0a3.44,3.44,0,0,0,.85-.36,5.11,5.11,0,0,1,.13.53c-.42.11-1.77.37-1.77,1,0,.38.5.45.73.45a3,3,0,0,0,1.1-.18c0,.17,0,.34,0,.52a5.07,5.07,0,0,1-1,.11"/><path class="cls-2" d="M25.77,6.1a2.63,2.63,0,0,0,.39.72,2,2,0,0,0,.35-.72ZM27.05,8a2.56,2.56,0,0,1-.89-.62,2.61,2.61,0,0,1-.91.58L25,7.66a2.07,2.07,0,0,0,.93-.57,3.19,3.19,0,0,1-.47-.85l.15-.14h-.26V5.77h.6V5.25h-.67V4.89h.66v-.6l.41,0s.05,0,.05.06a.07.07,0,0,1-.06.06v.43h.84v.37H26.3v.52H27V6s0,.15,0,.17a2.69,2.69,0,0,1-.5.93,2.43,2.43,0,0,0,.89.52ZM24.92,6.28v.87a.92.92,0,0,1-.44.87l-.29-.28a.65.65,0,0,0,.35-.65V6.45l-.28.18s0,.09-.05.09,0,0,0,0l-.12-.45L24.54,6V5.43h-.4V5.08h.4V4.29l.4.06s0,0,0,0,0,.06-.05.07v.63h.25v.35h-.26v.46l.29-.15v.38l-.29.16"/><path class="cls-2" d="M30.57,6v1.3c0,.41-.14.64-.48.74l-.26-.31a.42.42,0,0,0,.36-.48V6H29.9V5.63h.93V6ZM30,5v-.3s0,0,0,0-.1.3-.16.45l-.25-.12c.05-.18.08-.37.12-.56l.32.16V4.61h.73V5Zm-.31,2.32a6.3,6.3,0,0,1-.19-1.23L29.86,6A7.31,7.31,0,0,0,30,7.15ZM29,6.18a8.88,8.88,0,0,1-.19,1.41l-.3-.26A5.84,5.84,0,0,0,28.61,6l.36.13a.08.08,0,0,1,0,0s0,0,0,.06M28.6,4.75a3.43,3.43,0,0,1-.65.76l-.28-.25a2.41,2.41,0,0,0,.63-.87l.36.24a.07.07,0,0,1,0,.06s-.06.07-.09.06m.84.85V8h-.38V5.6h-.43v0c-.08.15-.16.31-.25.45V8H28V6.5a1.34,1.34,0,0,1-.2.21l-.19-.32a3.39,3.39,0,0,0,.77-1.2l.25.22V5.26h.42V4.38l.39,0s.06,0,.06,0a.07.07,0,0,1-.06.07v.72h.47V5.6Z"/><path class="cls-2" d="M33.64,6.05H33v.47h.6Zm-.45-1h-.65v.22h.65Zm-.52,1h-.58v.47h.58Zm.38,1.42v.61h-.38V7.47H31.33V7.11h1.34V6.85h-1V5.74h1v-.2h-.52V5.05h-.71V4.69h.71v-.4l.39,0s.05,0,.05,0,0,0-.05.06v.27h.65v-.4l.4,0a0,0,0,0,1,0,0s0,0-.05.06v.27h.69v.36h-.69v.49H33v.2h1V6.85H33v.26h1.37v.36Z"/><path class="cls-2" d="M37.66,6V8h-.39V6H37a2.74,2.74,0,0,1-.58,2l-.28-.25a2.49,2.49,0,0,0,.5-1.88c0-.38,0-.76,0-1.14l.23,0a1.32,1.32,0,0,0,.23-.07,5.47,5.47,0,0,0,.58-.26l.26.48a.06.06,0,0,1-.05.06.09.09,0,0,1-.07,0A7.27,7.27,0,0,1,37,5v.62h1V6Zm-2.08-.88c0,.15.12.49.15.65s-.18-.13-.24-.1h.36c0-.18.08-.36.11-.55ZM36,6v.24h.52v.32H36a1.6,1.6,0,0,0,.43.43l-.2.3A1.48,1.48,0,0,1,36,7V8h-.35v-1a2.17,2.17,0,0,1-.46.53l-.25-.28a2,2,0,0,0,.6-.75H35V6.24h.59V6H35V5.67h.39l-.18-.46.24-.09h-.39V4.78h.54V4.3l.39,0s.06,0,.06,0a.07.07,0,0,1-.06.07v.34h.49v.34H36.1l.24.14a.05.05,0,0,1,0,0s0,.06-.08.06a1.77,1.77,0,0,1-.15.31h.36V6Z"/><path class="cls-2" d="M39,5.94a1.84,1.84,0,0,0-.09.57c0,.18,0,.62.22.62s.12-.08.16-.14a3.68,3.68,0,0,0,.48-1.8,1.24,1.24,0,0,0-.77.75m1.18,1.93c-.1-.12-.19-.25-.3-.37.53-.16,1-.39,1-1.18a1.1,1.1,0,0,0-.7-1.14,4,4,0,0,1-.79,2.3.51.51,0,0,1-.31.14.48.48,0,0,1-.36-.25,1.53,1.53,0,0,1-.22-.86A1.6,1.6,0,0,1,40,4.77a1.36,1.36,0,0,1,1.34,1.52,1.5,1.5,0,0,1-1.16,1.58"/><path class="cls-2" d="M15.25,10.92h-.89v.18h.89Zm0-.44h-.89v.16h.89Zm0-.46h-.89v.18h.89Zm-.2,1.4h-.51a2.88,2.88,0,0,1-.49.55h.57v-.36l.38,0a.05.05,0,0,1,0,0s0,.05,0,.06V12h.56a2.62,2.62,0,0,1-.5-.55m1.18,1a2,2,0,0,1-.58-.35v.24H15v.27h1v.32H13.61v-.32h1V12.3H14V12a3.06,3.06,0,0,1-.59.37l-.23-.31a2.22,2.22,0,0,0,.91-.65h-.8v-.36H14V10H13.4V9.68H14V9.24l.4,0a0,0,0,0,1,0,0,.06.06,0,0,1-.05.06v.31h.89V9.24l.4,0a0,0,0,0,1,0,0,.06.06,0,0,1,0,.06v.31h.55V10h-.55v1.06h.7v.36h-.82a2.16,2.16,0,0,0,1,.62Z"/><path class="cls-2" d="M19.34,11.94H19v.64h.3ZM19,10.67a1.73,1.73,0,0,0,.24.23,1,1,0,0,0,.24-.23Zm-.3,1.27h-.28v.64h.28Zm-.62,0H17.8v.64h.28ZM17.62,10v.31h.23c-.08-.1-.15-.21-.23-.3m.47-.2h-.47V10l.25-.16c.06.1.12.2.19.3l-.2.17.23,0ZM17,12.91v-.33h.39v-.95h2.29v.95h.35v.33Zm3-1.27a2.14,2.14,0,0,1-.78-.33,2.15,2.15,0,0,1-.63.26l-.2-.26a.51.51,0,0,1-.37.3l-.22-.24c.19-.06.29-.12.29-.37v-.45H18v.66H17.7V10.6h-.08a1.71,1.71,0,0,1-.34,1.09L17,11.5a1.35,1.35,0,0,0,.29-.85l-.17,0s0,.05-.05.05,0,0-.05-.05l-.08-.37h.34V9.49h.36l.11-.33.43.05a.07.07,0,0,1,0,0,.09.09,0,0,1-.09.08L18,9.49h.46v1.44a1.14,1.14,0,0,1,0,.37,1.78,1.78,0,0,0,.54-.21,2.36,2.36,0,0,1-.31-.32l.15-.1h-.25v-.29h.25l-.28-.14a.94.94,0,0,0,.16-.6c0-.09,0-.19,0-.28h1c0,.16,0,.32,0,.48s0,.13.11.13a.89.89,0,0,0,.39-.19l0,.41a1,1,0,0,1-.44.12c-.26,0-.4,0-.4-.36V9.68H19a1,1,0,0,1-.22.7H20v.23a1.63,1.63,0,0,1-.42.48,1.94,1.94,0,0,0,.66.2Z"/><path class="cls-2" d="M23.5,11.13l-.05,0c-.25.08-.73.28-1,.38v.62h-.41a1.15,1.15,0,0,0,0-.19V11.7c-.28.12-.42.29-.42.48s.16.24.47.24a3,3,0,0,0,1-.16v.48a2.84,2.84,0,0,1-.87.11c-.68,0-1-.21-1-.64a.82.82,0,0,1,.29-.59,2.56,2.56,0,0,1,.52-.35c0-.18-.06-.27-.16-.27a.53.53,0,0,0-.36.15,2.55,2.55,0,0,0-.26.28l-.26.29c-.06-.08-.16-.19-.29-.33a3,3,0,0,0,.87-1.1l-.6.05-.06-.42a5.63,5.63,0,0,0,.79,0,3.61,3.61,0,0,0,.12-.56l.47.1a.05.05,0,0,1,0,.05s0,0-.06.07a2.07,2.07,0,0,1-.09.31,5.15,5.15,0,0,0,.65-.15l0,.44-.76.13a2.3,2.3,0,0,1-.22.4l.2,0c.21,0,.35.15.41.44.28-.15.59-.3.94-.45l.15.45s0,.05,0,.05"/><path class="cls-2" d="M26.14,12.49a2.72,2.72,0,0,1-.62.17,3.79,3.79,0,0,0-.32-.38,4.49,4.49,0,0,0,.8-.21,1,1,0,0,0,.73-1c0-.54-.29-.71-.69-.7a7.48,7.48,0,0,0-1.63.6c0-.06-.17-.51-.17-.53s0,0,.07,0a3.14,3.14,0,0,0,.83-.24,3.25,3.25,0,0,1,1-.25,1,1,0,0,1,1,1.08,1.38,1.38,0,0,1-1.05,1.44"/><path class="cls-2" d="M29.67,12.91a6.85,6.85,0,0,0-1-1.17,3.65,3.65,0,0,0-.3-.27.61.61,0,0,1-.17-.15.34.34,0,0,1-.07-.22.48.48,0,0,1,.16-.34c.17-.18.34-.35.5-.53s.49-.55.72-.84l.31.25a1,1,0,0,1,.11.1l0,0c0,.06-.08.07-.12.06-.22.22-.46.43-.69.66l-.29.28-.14.14a.3.3,0,0,0-.08.16.16.16,0,0,0,.06.12c.15.14.31.26.46.38a6.74,6.74,0,0,1,.92,1l-.36.34"/><path class="cls-2" d="M32,12.87a2.27,2.27,0,0,0-.19-.34l0,0,0,0a3,3,0,0,0,.51-.07.77.77,0,0,0,.69-.77.51.51,0,0,0-.57-.56,1.16,1.16,0,0,0-.9.57c-.14.18-.27.37-.39.56l-.35-.32a13.52,13.52,0,0,0,1-1.36,3.55,3.55,0,0,0,.3-.54l-.27.07a4.6,4.6,0,0,1-.5.13c0-.15-.05-.31-.08-.47a7.57,7.57,0,0,0,1.14-.2l.24-.07a2.62,2.62,0,0,1,.21.34s0,.05-.06.06a6.65,6.65,0,0,0-.71.93,1.76,1.76,0,0,1,.45-.07.9.9,0,0,1,1,1c0,.86-.88,1.14-1.47,1.18"/><path class="cls-2" d="M35.65,9.94a5.05,5.05,0,0,0-1-.37l.2-.45a3.78,3.78,0,0,1,1,.37c-.07.15-.14.3-.22.45m-.61,3a4.49,4.49,0,0,0-.39-.36,1.68,1.68,0,0,0,1-.72,1.4,1.4,0,0,0,.14-.61c0-.37-.12-.58-.44-.58a2.77,2.77,0,0,0-1,.44,4.91,4.91,0,0,1-.19-.53s0,0,0,0a2.3,2.3,0,0,0,.43-.12,2.31,2.31,0,0,1,.81-.21c.55,0,.8.44.8,1.06A1.78,1.78,0,0,1,35,12.94"/></g></g></svg>