<svg xmlns="http://www.w3.org/2000/svg" viewBox="0 0 54.39 54.39"><defs><style>.cls-1{fill:#1cb3ac;}.cls-2{fill:#fff;}</style></defs><g id="レイヤー_2" data-name="レイヤー 2"><g id="レイヤー_6" data-name="レイヤー 6"><path class="cls-1" d="M27.2,54.39A27.2,27.2,0,1,0,0,27.2,27.2,27.2,0,0,0,27.2,54.39"/><path class="cls-2" d="M33.76,30.35c.09-1,.13-2.07.13-3.15s-.06-2.38-.16-3.5A22.7,22.7,0,0,0,39.4,22a13.17,13.17,0,0,1,.12,10.16,22.73,22.73,0,0,0-5.76-1.78M31.2,39.79a21.25,21.25,0,0,0,2.26-7,21.22,21.22,0,0,1,4.92,1.52,13.23,13.23,0,0,1-7.18,5.48m-15-5.48a21.31,21.31,0,0,1,4.93-1.52,21.25,21.25,0,0,0,2.26,7,13.29,13.29,0,0,1-7.19-5.48m-2.1-7.11A13,13,0,0,1,15.21,22a22.7,22.7,0,0,0,5.67,1.73c-.11,1.12-.17,2.29-.17,3.5s.05,2.13.14,3.15a22.73,22.73,0,0,0-5.76,1.78,13.09,13.09,0,0,1-1-4.93m9.29-12.6a20.72,20.72,0,0,0-2.2,6.66,21.4,21.4,0,0,1-4.82-1.45,13.29,13.29,0,0,1,7-5.21M27.3,14c.92,0,2.82,2.63,3.7,7.6a36.24,36.24,0,0,1-3.7.2,36,36,0,0,1-3.69-.2c.88-5,2.78-7.6,3.69-7.6m0,26.36c-.93,0-2.89-2.76-3.75-7.94a32.07,32.07,0,0,1,7.5,0c-.85,5.18-2.82,7.94-3.75,7.94M31.47,27.2c0,1,0,1.92-.12,2.81a39.06,39.06,0,0,0-8.09,0c-.07-.89-.12-1.82-.12-2.81A31.16,31.16,0,0,1,23.29,24a39.65,39.65,0,0,0,4,.21,37,37,0,0,0,4-.21c.09,1,.15,2,.15,3.16m6.74-7.39a21.46,21.46,0,0,1-4.81,1.45,20.72,20.72,0,0,0-2.2-6.66,13.27,13.27,0,0,1,7,5.21m3.3.93a15,15,0,0,0-1.19-2.16,15.61,15.61,0,0,0-26,0,15,15,0,0,0-1.19,2.16A15.61,15.61,0,0,0,13,33.39a15.23,15.23,0,0,0,1.16,2.19,15.61,15.61,0,0,0,26.33,0,15.23,15.23,0,0,0,1.16-2.19,15.61,15.61,0,0,0-.12-12.65"/></g></g></svg>