<svg xmlns="http://www.w3.org/2000/svg" viewBox="0 0 47.18 47.18"><defs><style>.cls-1{fill:#00973b;}.cls-2{fill:#fff;}</style></defs><g id="レイヤー_2" data-name="レイヤー 2"><g id="レイヤー_6" data-name="レイヤー 6"><rect class="cls-1" width="47.18" height="47.18"/><path class="cls-2" d="M4.3,12.54a3.18,3.18,0,0,1-.56-2v-.31H5.45v.3a2.51,2.51,0,0,0,.16,1,.6.6,0,0,0,.57.3.54.54,0,0,0,.55-.3,2.69,2.69,0,0,0,.14-1,2.12,2.12,0,0,0-.21-1.07.87.87,0,0,0-.78-.36H5.57V7.81h.28a.92.92,0,0,0,.8-.31,1.77,1.77,0,0,0,.22-1,1.71,1.71,0,0,0-.16-.85.6.6,0,0,0-.57-.28.55.55,0,0,0-.54.3,2.39,2.39,0,0,0-.15.89v.4H3.74V6.45a2.49,2.49,0,0,1,.63-1.82A2.33,2.33,0,0,1,6.14,4a2.51,2.51,0,0,1,1.8.62,2.41,2.41,0,0,1,.63,1.79A2.52,2.52,0,0,1,8.25,7.7a1.41,1.41,0,0,1-.82.66c.76.28,1.14,1,1.14,2.12a3.19,3.19,0,0,1-.58,2,2.17,2.17,0,0,1-1.83.74,2.23,2.23,0,0,1-1.86-.72"/><path class="cls-2" d="M39.51,29.51a2.23,2.23,0,0,0-2.15-2.41c-.65,0-1.43.71-1.86,1.14-.42-.43-1.15-1.14-1.8-1.14a2.26,2.26,0,0,0-2.2,2.41,2.46,2.46,0,0,0,.68,1.71l3.33,3.33,3.31-3.33h0a2.43,2.43,0,0,0,.69-1.71"/><path class="cls-2" d="M25.36,40h0a.53.53,0,0,1-.5-.45L23.14,29.7l-2.56,4.74a.54.54,0,0,1-.57.28.55.55,0,0,1-.45-.46l-1.08-7.59-2,4.46a.55.55,0,0,1-.5.33H8.27a.55.55,0,0,1-.54-.55.54.54,0,0,1,.54-.54h7.37l2.61-5.87a.55.55,0,0,1,1,.14l1.12,7.83,2.52-4.68A.55.55,0,0,1,24,28l1.56,9.1L31.2,18.14a.55.55,0,0,1,1-.08l3,6.21A.54.54,0,0,1,35,25a.55.55,0,0,1-.73-.25L31.85,19.8l-6,19.79a.54.54,0,0,1-.52.39"/><path class="cls-2" d="M32.62,5.6a2.61,2.61,0,0,0-.79,0,3.32,3.32,0,0,0-.55.09c0-.15,0-.33-.05-.48A4.15,4.15,0,0,1,32,5.08a2.84,2.84,0,0,1,.65,0c0,.16,0,.33,0,.49m.09,2.32a2.66,2.66,0,0,1-.63,0c-.49,0-.95-.09-1-.85l.35-.26c0,.42.2.62.52.63a2.29,2.29,0,0,0,.78-.09c0,.18,0,.35,0,.54M30.52,8l-.37,0A5.49,5.49,0,0,1,30,6.47a10.52,10.52,0,0,1,.18-1.77l.3.07.15,0s0,0,0,.06a.05.05,0,0,1-.05,0,8,8,0,0,0-.2,1.83c0,.15,0,.3,0,.45l.18-.57.26.24A4.3,4.3,0,0,0,30.52,8"/><path class="cls-2" d="M13.43,6.14c-.16,0-.23.18-.23.36s0,.34.18.34.18-.24.18-.38,0-.32-.13-.32M15,5.58l-.43,0h-.62c0,.15,0,.3,0,.45a1.39,1.39,0,0,1,.13.67,1.55,1.55,0,0,1-.86,1.55l-.38-.32a1.11,1.11,0,0,0,.76-.73.5.5,0,0,1-.29.07c-.3,0-.48-.38-.48-.71s.2-.8.57-.8l.14,0a1.48,1.48,0,0,0,0-.21c-.23,0-.47,0-.71,0s-.45,0-.67.07c0-.16,0-.32,0-.48l1.4,0c0-.21,0-.41,0-.62l.31,0,.13,0s.05,0,.05,0a.13.13,0,0,1,0,.09c0,.13,0,.28,0,.41l1.08,0Z"/><path class="cls-2" d="M18.17,5.34c-.11-.2-.23-.39-.36-.58l.24-.2a5.51,5.51,0,0,1,.34.58Zm-.41.27c-.11-.2-.24-.39-.36-.57l.24-.21c.13.18.24.38.35.57Zm.51,2.47c-.18-.24-.39-.49-.57-.75l-.66-1-.22-.33s-.09-.15-.15-.15-.19.18-.24.26l-.2.34c-.12.19-.23.39-.34.58v0s0,.07-.05.07l-.38-.43c.14-.17.28-.34.41-.53s.25-.43.39-.62.23-.29.43-.29a.47.47,0,0,1,.35.22c.07.09.15.22.21.31.17.24.33.48.5.7s.59.76.86,1.09Z"/><path class="cls-2" d="M21.74,5.35a5.06,5.06,0,0,0-.51.14,1.09,1.09,0,0,0-.7,1.13c0,.84.53.92,1,.93,0,.16,0,.32-.08.48h-.07a1.88,1.88,0,0,1-.69-.16,1.29,1.29,0,0,1-.66-1.21,2,2,0,0,1,.41-1.2c-.38,0-.81.06-1.19.12,0-.21,0-.33,0-.5a16.19,16.19,0,0,0,2-.12l.51-.07c0,.06,0,.39.06.42s0,0-.08,0"/><path class="cls-2" d="M23.08,6.08a1.61,1.61,0,0,0-.1.58c0,.17,0,.62.23.62s.12-.08.16-.14a3.77,3.77,0,0,0,.49-1.82,1.22,1.22,0,0,0-.78.76M24.27,8,24,7.65c.53-.16,1-.39,1-1.19a1.11,1.11,0,0,0-.71-1.15,4,4,0,0,1-.8,2.32.51.51,0,0,1-.32.14.5.5,0,0,1-.36-.25,1.56,1.56,0,0,1-.22-.86,1.63,1.63,0,0,1,1.5-1.77,1.38,1.38,0,0,1,1.35,1.54A1.53,1.53,0,0,1,24.27,8"/><path class="cls-2" d="M28.86,8.19a3.74,3.74,0,0,1-1.28-1.82,4.27,4.27,0,0,1-.18.54,2.8,2.8,0,0,1-.75,1,3.75,3.75,0,0,1-.36.24L26,7.82a1.76,1.76,0,0,0,.42-.27,2.69,2.69,0,0,0,.85-1.64,8.21,8.21,0,0,0,.06-1.31l.48.05a.07.07,0,0,1,0,.14c0,.17,0,.34,0,.51a3.23,3.23,0,0,0,.54,1.62,3,3,0,0,0,.9.85Z"/><path class="cls-2" d="M14.77,10.9h-.23v.28h.23Zm0-.59h-.23v.27h.23Zm.37.59v.58h-.6v.22h.66V12h-.66v.2h.7v.33h-.7v.36h-.38v-.37h-.42v-.31h.42V12H13.8V11.7h.36v-.22h-.33v-.3h.33V10.9h-.52v-.33h.52v-.26h-.49V10h.48V9.61l.41,0s0,0,0,.06,0,.06-.06.08V10h.58v.6h.22v.33Zm-2.34.48v-.14l.5-1H13V9.94q-.11.38-.24.75v2.4a1.57,1.57,0,0,0,.4-.51,5.6,5.6,0,0,1-.28-1l.32-.17a5,5,0,0,0,.14.69c0-.24.07-.48.09-.73Zm2.44,2h-.47a1.71,1.71,0,0,1-1.42-.51,2.48,2.48,0,0,1-.38.52l-.23-.2v.23h-.39v-2a1.65,1.65,0,0,1-.15.25L12,11.38a5,5,0,0,0,.61-1.78l.41.19s0,0,0,0a.09.09,0,0,1,0,.06h.74v.33l-.47.85h.51a4.82,4.82,0,0,1-.24,1.47,1.43,1.43,0,0,0,1.27.47l.55,0Z"/><path class="cls-2" d="M17.87,11.86v.33c.2-.1.41-.21.6-.33Zm.39-.51h-.39v.21h.39Zm0-.53h-.39V11h.39Zm-.86,1.93c-.21.12-.43.22-.65.32,0,0,0,.08-.06.08s0,0,0,0l-.21-.36c.33-.13.66-.25,1-.41Zm1.56.56a2.49,2.49,0,0,1-1.09-.83c0,.1,0,.19,0,.29,0,.44-.12.6-.47.7l-.27-.3c.26-.08.36-.13.36-.48v-.83H17c.13.12.26.23.38.36l-.23.24c-.14-.1-.28-.2-.43-.29l.23-.31h-.06v-.31h.65v-.19H16.6c0,.15,0,.29,0,.44a3.36,3.36,0,0,1-.42,1.56l-.3-.24a3.7,3.7,0,0,0,.35-1.88c0-.45,0-.91,0-1.36h1.19v-.4l.44,0s.05,0,.05.06a.09.09,0,0,1-.06.07v.25H19v.36H16.6V11h.89v-.18h-.65v-.32h.65v-.22l.36,0s.07,0,.07,0,0,.05-.05.07v.08h.77V11h.44v.36h-.44v.38l0,0,.27.37a.07.07,0,0,1,0,.05,0,0,0,0,1,0,0,.11.11,0,0,1-.08,0l-.58.2a2,2,0,0,0,1,.61Z"/><path class="cls-2" d="M21.26,13.35c-.48,0-1.26-.08-1.26-.87a1.2,1.2,0,0,1,.79-1.07,6.63,6.63,0,0,1-.13-1.48L21,10l.15,0s0,0,0,0a.09.09,0,0,1,0,.05c0,.12,0,.26,0,.38a2.48,2.48,0,0,0,.07.74l0,0a3.72,3.72,0,0,0,.86-.37c.05.18.08.36.12.55-.42.1-1.77.37-1.77,1,0,.39.5.46.73.46a3.14,3.14,0,0,0,1.1-.14,4.58,4.58,0,0,1,0,.53,5.77,5.77,0,0,1-1,.07"/><path class="cls-2" d="M26,12.68h-.42v.43H26Zm0-.7h-.42v.39H26ZM25.8,10.8H25v.36h.85Zm-.61,1.88h-.41v.43h.41Zm0-.7h-.41v.39h.41Zm-.61-1.5h1.61v1H24.58Zm-.17-.58h2v.37h-2Zm0,3.52V11.93l-.17.32L24,12v1.46h-.38V12a1.57,1.57,0,0,1-.3.33l-.24-.3a2.45,2.45,0,0,0,.81-1.23h-.66v-.35h.39v-.7l.4,0s.06,0,.06,0,0,.06-.06.07v.55h.35A3.06,3.06,0,0,1,24,11.47a1.53,1.53,0,0,0,.38.42v-.23h2v1.76Z"/><path class="cls-2" d="M28.11,13.37V13h.35V10.64l.4,0a.06.06,0,0,1,.06.06s0,.06-.07.07V13h.31V9.76l.4,0s.07,0,.07.06,0,.06-.07.08V11.1h.64v.4h-.64V13h.69v.37Zm-.22-1.83h0a3,3,0,0,0,.47.47l-.21.33a2.06,2.06,0,0,1-.25-.26v1.4h-.4V12a1.88,1.88,0,0,1-.31.32L26.94,12a3.33,3.33,0,0,0,.91-1.26h-.76v-.36h.44V9.7l.43,0A.06.06,0,0,1,28,9.8s0,0-.06.06v.53h.43a3.11,3.11,0,0,1-.49,1.15"/><path class="cls-2" d="M33.75,11.67l0,0a10.09,10.09,0,0,0-1,.38v.62h-.41a1.15,1.15,0,0,0,0-.19v-.22c-.28.12-.42.29-.42.48s.16.24.48.24a3,3,0,0,0,1-.16l0,.48a2.84,2.84,0,0,1-.87.11c-.68,0-1-.21-1-.65a.8.8,0,0,1,.29-.58,2.89,2.89,0,0,1,.52-.35c0-.18-.06-.27-.16-.27a.54.54,0,0,0-.36.15,2.55,2.55,0,0,0-.26.28l-.26.29L31,11.92a3,3,0,0,0,.88-1.09l-.61.05c0-.15,0-.3-.06-.42a5.88,5.88,0,0,0,.8,0,4.22,4.22,0,0,0,.11-.56l.47.11a0,0,0,0,1,0,0,.06.06,0,0,1,0,.06c0,.07-.05.18-.1.31a4.87,4.87,0,0,0,.65-.14l0,.44-.76.13a2.3,2.3,0,0,1-.22.4l.2,0c.21,0,.35.14.41.44.28-.15.59-.3.94-.45l.16.45a0,0,0,0,1,0,.05"/></g></g></svg>