<svg xmlns="http://www.w3.org/2000/svg" viewBox="0 0 47.18 47.18"><defs><style>.cls-1{fill:#0075ba;}.cls-2{fill:#fff;}</style></defs><g id="レイヤー_2" data-name="レイヤー 2"><g id="レイヤー_6" data-name="レイヤー 6"><rect class="cls-1" width="47.18" height="47.18"/><path class="cls-2" d="M4.05,5.88a6.31,6.31,0,0,1-.72.28,5.32,5.32,0,0,0-.58.21V5.09a6.59,6.59,0,0,0,.91-.44,2.92,2.92,0,0,0,.76-.55H5.77v9H4.05Z"/><path class="cls-2" d="M9.23,9.67V5.85L7.87,9.67Zm0,1.3H6.52V9.61L8.87,4.1h1.92V9.67h.9V11h-.9V13.1H9.23Z"/><path class="cls-2" d="M29.43,35.21A1.58,1.58,0,1,1,31,33.63a1.57,1.57,0,0,1-1.58,1.58m6.85-.74c-.6-.8-4.45-5.72-9.85-5.72-4.69,0-9.71,4.26-9.71,4.26S14.84,29.15,11,28.78h-.1a.14.14,0,0,0-.14.15.38.38,0,0,0,.06.14,11.85,11.85,0,0,1,1.76,5.52,11.81,11.81,0,0,1-1.77,5.53l0,.05a.19.19,0,0,0,0,.08.15.15,0,0,0,.14.15H11c3.87-.36,5.76-4.23,5.76-4.23s5,4.26,9.71,4.26c5.4,0,9.25-4.91,9.85-5.72l0-.05a.14.14,0,0,0,0-.06.11.11,0,0,0,0-.06l0-.06"/><path class="cls-2" d="M16.37,24.35a.08.08,0,0,1,0,0,.11.11,0,0,1,.08,0,.21.21,0,0,1,.11,0h0c2.94,2.81,6,.53,6.67,0l.07-.06h.12l.06.06c.64.53,3.73,2.81,6.68,0h0a.18.18,0,0,1,.1,0,.12.12,0,0,1,.09,0,.08.08,0,0,1,0,0c.57.56,3,2.69,5.65.42a.16.16,0,0,0,0-.11V23.58a.16.16,0,0,0-.16-.15h0l-.08,0a4.75,4.75,0,0,1-5.55-.78l-.06-.06h-.11a.12.12,0,0,0-.08.06c-.67.51-3.76,2.6-6.51,0l0,0a.17.17,0,0,0-.12-.05.12.12,0,0,0-.1.05l-.05,0c-2.75,2.57-5.84.48-6.51,0a.12.12,0,0,0-.08-.06h-.11s0,.05-.07.06a4.73,4.73,0,0,1-5.54.78l-.08,0h0a.16.16,0,0,0-.16.15v1.08a.16.16,0,0,0,.05.11c2.61,2.27,5.08.14,5.65-.42"/><path class="cls-2" d="M10.86,19.52h0a.16.16,0,0,0-.16.16v1.08a.16.16,0,0,0,.05.11c2.61,2.26,5.08.14,5.65-.42a.08.08,0,0,1,0,0,.11.11,0,0,1,.08,0,.15.15,0,0,1,.11,0h0c2.94,2.81,6,.53,6.67,0l.06-.06h.12l.07.06c.64.53,3.73,2.81,6.67,0h0a.13.13,0,0,1,.1,0,.12.12,0,0,1,.09,0,.08.08,0,0,1,0,0c.58.56,3,2.68,5.65.42a.16.16,0,0,0,0-.11V19.67a.16.16,0,0,0-.16-.16h0l-.08,0a4.75,4.75,0,0,1-5.55-.78l-.06-.06h-.11a.28.28,0,0,0-.08.06c-.67.52-3.76,2.61-6.51,0l0,0a.21.21,0,0,0-.12,0,.15.15,0,0,0-.1,0l-.05,0c-2.74,2.57-5.84.48-6.51,0a.28.28,0,0,0-.08-.06h-.11l-.07.06a4.73,4.73,0,0,1-5.54.78l-.08,0"/><path class="cls-2" d="M18.25,5.88h-.31l0,.59h.34V5.88Zm-.36,1,0,.61h.34a3,3,0,0,0,0-.61Zm-.61-1-.05.59h.31l0-.59Zm-.08,1-.05.61h.34l0-.61Zm1.42,0q0,.3,0,.6h.25V7.8h-.33a.85.85,0,0,1-.4.45L17.8,8a.7.7,0,0,0,.29-.22H16.74c0-.32.07-.65.1-1h-.27V6.47h.29l.05-.73a1.66,1.66,0,0,1-.16.21l-.27-.23a3.36,3.36,0,0,0,.64-1.36l.44.18a0,0,0,0,1,0,0s0,.06-.07.07l-.12.24h1.42v.37H17.26c-.06.09-.11.18-.18.27h1.56c0,.31,0,.62,0,.93H19v.36ZM16.44,5.27a3.5,3.5,0,0,0-.55-.4l.27-.4a3.43,3.43,0,0,1,.52.49ZM16.13,8a.19.19,0,0,1,0,.08s0,.05,0,.05-.37-.27-.42-.3a5.87,5.87,0,0,0,.5-1.35l.33.36A12.15,12.15,0,0,1,16.13,8m.14-1.78a5.46,5.46,0,0,0-.59-.39l.24-.4a3.58,3.58,0,0,1,.56.47Z"/><path class="cls-2" d="M20.12,6.09a1.79,1.79,0,0,0-.09.57c0,.17,0,.61.21.61s.11-.08.15-.13a3.9,3.9,0,0,0,.46-1.8,1.21,1.21,0,0,0-.73.75M21.23,8c-.1-.12-.18-.25-.28-.36a1.12,1.12,0,0,0,1-1.18,1.11,1.11,0,0,0-.66-1.13,4.12,4.12,0,0,1-.75,2.29.43.43,0,0,1-.29.13.48.48,0,0,1-.34-.24,1.62,1.62,0,0,1-.2-.85,1.57,1.57,0,0,1,1.39-1.74c.69,0,1.26.55,1.26,1.51A1.48,1.48,0,0,1,21.23,8"/><path class="cls-2" d="M25.32,5.54H25v.2h.31Zm0-.47H25v.2h.31Zm-.66.47h-.29v.2h.29Zm0-.47h-.29v.2h.29Zm-.58,2.36c0,.13.08.25.11.38h.62l.1-.38Zm1.13-.53H23.82v.25h1.39ZM24,5.54h-.31v.2H24Zm0-.47h-.3v.2H24ZM23.34,6V4.76H24V4.45l.36,0a.06.06,0,0,1,.06,0,.09.09,0,0,1-.06.07v.16h.29V4.45l.36,0a.06.06,0,0,1,.06,0A.09.09,0,0,1,25,4.6v.16h.69V6Zm-.28.15H26v.33h-2.9Zm0,2V7.81h.78a2.61,2.61,0,0,0-.17-.28l.17-.1h-.38V6.62H25.6v.81h-.41l.15.06a.07.07,0,0,1,0,0s-.05.06-.07.06a1.43,1.43,0,0,0-.12.21H26v.32Z"/><path class="cls-2" d="M29.1,7l-.24-.34c.1,0,.35-.08.35-.23a2,2,0,0,0-.49-.91l.35-.23a2.28,2.28,0,0,1,.57,1.2c0,.33-.33.44-.54.51m-.85.76a.53.53,0,0,1-.38.12.81.81,0,0,1-.34-.08c0-.15,0-.31,0-.46a.74.74,0,0,0,.38.12c.27,0,.27-.91.27-1.14s0-.46-.19-.46a.64.64,0,0,0-.2,0,8.07,8.07,0,0,1-.73,2c-.13-.06-.26-.15-.39-.22A5.47,5.47,0,0,0,27.31,6l-.46.11-.1-.43s0,0,0,0h.08a3.31,3.31,0,0,0,.55-.07,6.3,6.3,0,0,0,.12-1l.32.09.13,0s0,0,0,0a.07.07,0,0,1,0,.06c0,.23-.09.46-.14.68l.2,0a.4.4,0,0,1,.45.34,2.08,2.08,0,0,1,.07.61,2.31,2.31,0,0,1-.3,1.32"/><path class="cls-2" d="M31.79,5.58c.22.42.41.84.61,1.27l-.29.28a1.29,1.29,0,0,0-.87-.42c-.2,0-.47.09-.47.39s.43.45.68.45A2.87,2.87,0,0,0,32,7.48c0,.15,0,.3,0,.44a3.26,3.26,0,0,1-.54,0c-.48,0-1.1-.09-1.1-.82s.44-.76.86-.76a1.54,1.54,0,0,1,.55.11c-.06-.15-.13-.28-.19-.42l-.17-.34a4.21,4.21,0,0,1-1,.26c0-.14-.1-.28-.15-.42a2.71,2.71,0,0,0,1-.2,5.3,5.3,0,0,0-.33-.57.05.05,0,0,1-.05,0s0,0,0,0l.38-.15c.13.21.24.43.35.65a3,3,0,0,0,.64-.39c.07.15.12.29.19.43a3.83,3.83,0,0,1-.63.34"/><path class="cls-2" d="M36,6.32h0c-.25.08-.73.27-1,.37v.63h-.41V6.89c-.27.13-.41.3-.41.48s.16.25.47.25a3,3,0,0,0,1-.16v.47a2.92,2.92,0,0,1-.87.12c-.68,0-1-.21-1-.65A.82.82,0,0,1,34,6.82a2.55,2.55,0,0,1,.53-.35c0-.18-.06-.27-.16-.27a.48.48,0,0,0-.36.15,3.37,3.37,0,0,0-.27.27l-.25.29-.29-.33a2.8,2.8,0,0,0,.87-1.1c-.18,0-.39,0-.61.06,0-.16,0-.3-.05-.43a5.72,5.72,0,0,0,.79,0,3.43,3.43,0,0,0,.12-.55l.47.1a.07.07,0,0,1,0,0s0,0-.06.06L34.68,5a5.57,5.57,0,0,0,.65-.15l0,.45c-.19,0-.45.08-.77.12a4,4,0,0,1-.21.41.54.54,0,0,1,.2,0c.21,0,.34.14.41.43l.93-.45.16.46s0,0,0,0"/><path class="cls-2" d="M17,12.69a5,5,0,0,0-.68-.7l.29-.33a7.65,7.65,0,0,1,.65.74Zm1.45-1.76v-.52h-2v.52h-.38V10h1.16V9.54l.43,0a.05.05,0,0,1,0,0,.09.09,0,0,1-.06.07V10h1.22v.9Zm-.34.62v.78c0,.64-.17.87-.71.95l-.24-.34c.38-.06.55-.11.55-.61,0-.26,0-.52,0-.78h-1.8v-.38h1.8V10.6l.41,0s.06,0,.06,0a.07.07,0,0,1-.06.07v.43H19v.38Z"/><path class="cls-2" d="M20.77,13.23a3.54,3.54,0,0,0-.19-.33.05.05,0,0,1,0,0l0,0a3,3,0,0,0,.51-.06.77.77,0,0,0,.69-.77.5.5,0,0,0-.57-.56,1.18,1.18,0,0,0-.91.56l-.38.57-.35-.32a12.6,12.6,0,0,0,1-1.37,2.73,2.73,0,0,0,.29-.53l-.27.07a4.43,4.43,0,0,1-.49.13c0-.16-.05-.31-.08-.47a7.57,7.57,0,0,0,1.14-.2,1,1,0,0,0,.23-.08,2,2,0,0,1,.22.35s0,.05-.06.05a7.29,7.29,0,0,0-.71.93,1.68,1.68,0,0,1,.45-.06.89.89,0,0,1,.94,1c0,.86-.87,1.14-1.46,1.17"/><path class="cls-2" d="M24.51,10.42a5.05,5.05,0,0,0-1-.37c.07-.14.13-.29.19-.44a4.08,4.08,0,0,1,1,.37l-.22.44m-.61,2.91c-.12-.11-.25-.23-.39-.34a1.69,1.69,0,0,0,1-.7,1.36,1.36,0,0,0,.14-.6c0-.36-.12-.57-.45-.57a2.81,2.81,0,0,0-1,.44A5,5,0,0,1,23,11s0,0,0,0a2.3,2.3,0,0,0,.43-.12,2.3,2.3,0,0,1,.81-.2c.55,0,.8.43.8,1a1.73,1.73,0,0,1-1.22,1.59"/></g></g></svg>