<svg xmlns="http://www.w3.org/2000/svg" viewBox="0 0 239.81 277.79"><defs><style>.cls-1{fill:#fff;}.cls-2{fill:#e0e9e7;}.cls-3,.cls-5,.cls-7{fill:none;}.cls-3{stroke:#e0e9e7;stroke-width:0.25px;}.cls-3,.cls-5{stroke-miterlimit:10;}.cls-4{fill:#231815;}.cls-5{stroke:#1cb3ac;stroke-width:0.3px;}.cls-6{fill:#1cb3ac;}.cls-7{stroke:#a59d9c;stroke-width:0.28px;}</style></defs><g id="レイヤー_2" data-name="レイヤー 2"><g id="レイヤー_2-2" data-name="レイヤー 2"><rect class="cls-1" x="0.14" y="0.14" width="239.53" height="277.51"/><rect class="cls-2" x="32.03" y="88.6" width="102.05" height="12.04"/><rect class="cls-3" x="32.03" y="88.6" width="102.05" height="12.03"/><path class="cls-4" d="M67.51,93.85c.44.47.92,1,1.35,1.56a11.54,11.54,0,0,0,.56-2.23l.68.13c0,.07-.07.1-.18.11a11.07,11.07,0,0,1-.69,2.47,9.87,9.87,0,0,1,1,1.47l-.44.38A11.69,11.69,0,0,0,69,96.46a5.43,5.43,0,0,1-2,2.16,3.39,3.39,0,0,0-.35-.42,4.87,4.87,0,0,0,2-2.22c-.47-.62-1-1.27-1.51-1.81Zm3.21-1.38V93h-4v-.52h1.75V91.05l.69,0c0,.06-.05.1-.16.11v1.27Zm3.65.62v.53h-1v4.32c0,.76-.42.77-1.72.77a2.45,2.45,0,0,0-.19-.58h.73c.6,0,.63,0,.63-.2V93.62H70.46v-.53H72.8V91l.72,0c0,.07-.06.11-.17.12v1.9Zm-3.32,1.46a6.83,6.83,0,0,1,1,1.86l-.49.24a7.14,7.14,0,0,0-.92-1.9Z"/><path class="cls-4" d="M79.25,95.29v.62a6.92,6.92,0,0,0,3.65,2,3.24,3.24,0,0,0-.36.49,7.69,7.69,0,0,1-3.29-1.87v2.15H78.7V96.59a7.61,7.61,0,0,1-3.22,1.87,2,2,0,0,0-.35-.47,6.9,6.9,0,0,0,3.57-2.07v-.63h-2v1.63h-.55V94.79H78.7v-.62H75.29v-.51H78.7v-.52l-.41-.29A4.37,4.37,0,0,0,79.63,91l.65.2s-.08.07-.17.07a4.2,4.2,0,0,1-.26.52h3v.45h-2a4.52,4.52,0,0,1,.52.82l-.5.19a4.6,4.6,0,0,0-.62-1h-.66A6.3,6.3,0,0,1,79,93l.47,0c0,.07-.06.1-.17.12v.56h3.47v.51H79.25v.62h2.67v1.62c0,.54-.28.54-1.17.54a2.72,2.72,0,0,0-.18-.44H81c.33,0,.36,0,.36-.11V95.29ZM77.08,93.2a5.85,5.85,0,0,0-.36-1h-.38a5.43,5.43,0,0,1-.78,1,2.31,2.31,0,0,0-.43-.29,5.39,5.39,0,0,0,1.23-2l.63.2s-.08.09-.18.07c-.06.17-.15.35-.23.52h2.29v.45H77.28a4,4,0,0,1,.31.81Z"/><path class="cls-4" d="M91,93.4h-3a7.64,7.64,0,0,0,3.3,3.48,2.22,2.22,0,0,0-.42.49,8.36,8.36,0,0,1-3.23-3.53v2.71h1.65v.57H87.59v1.6H87v-1.6H85.33v-.57H87V93.86a9,9,0,0,1-3.22,3.52,2.47,2.47,0,0,0-.4-.45,8.12,8.12,0,0,0,3.26-3.53h-3v-.57H87V91.05l.74,0c0,.06,0,.1-.16.11v1.63H91Z"/><path class="cls-4" d="M94.38,94.22a11.86,11.86,0,0,0,.53-1.59l.63.18s-.07.07-.17.08a12.25,12.25,0,0,1-.52,1.42h1.23v.51H91.72v-.51h2.92ZM95.94,92v.49h-4V92h1.72V91l.7,0c0,.06-.06.1-.16.12V92Zm-3.65,6.72V95.59h3.28v3.09H95v-.42H92.82v.47Zm.64-6a5.52,5.52,0,0,1,.4,1.35l-.49.11a6.12,6.12,0,0,0-.36-1.36ZM95,96.08H92.82v1.68H95Zm4-4.57.37.18a.13.13,0,0,1-.08.08c-.31.71-.75,1.6-1.21,2.47.9.83,1.27,1.45,1.27,2.05,0,1.3-.9,1.3-1.44,1.3h-.38a1.25,1.25,0,0,0-.19-.55l.51,0c.56,0,.95,0,.95-.79,0-.53-.4-1.11-1.3-1.94.4-.82.76-1.6,1-2.27H96.94v6.66H96.4V91.53h2.54Z"/><rect class="cls-2" x="98.84" y="255.84" width="42.12" height="12.03"/><rect class="cls-2" x="32.03" y="184.04" width="175.75" height="24.07"/><rect class="cls-2" x="63.21" y="136.87" width="113.39" height="12.04"/><rect class="cls-2" x="63.21" y="29.24" width="113.39" height="12.04"/><path class="cls-4" d="M229.43,18a5.48,5.48,0,0,0,1.79-4.16,5.43,5.43,0,0,0-1.79-4.15V9.68H230a5.69,5.69,0,0,1,1.72,4.2,5.69,5.69,0,0,1-1.72,4.2h-.54Z"/><path class="cls-4" d="M223.84,11.22v.5h-3.45v-.5Zm-.31,3.68v2.66h-2.18V18h-.54V14.9Zm-2.71-2v-.5h2.71v.5Zm0,1.23v-.5h2.71v.5ZM223.51,10v.5h-2.64V10ZM223,15.42h-1.63V17H223Zm2.19-4.88v.56A2.67,2.67,0,0,1,224,13.48a2.86,2.86,0,0,0-.45-.4,2.17,2.17,0,0,0,1-2V10h2.85v2.28c0,.2,0,.24.19.24h.5c.17,0,.2-.12.22-1a1.36,1.36,0,0,0,.51.22c0,1.07-.19,1.33-.66,1.33h-.65c-.54,0-.69-.16-.69-.76V10.54Zm2.78,3.1.4.16s0,.07-.07.1a5.73,5.73,0,0,1-1.57,2.61,5.83,5.83,0,0,0,2.17,1,3.42,3.42,0,0,0-.4.52,6.32,6.32,0,0,1-2.23-1.16,6.82,6.82,0,0,1-2.35,1.17,1.74,1.74,0,0,0-.33-.53,6.48,6.48,0,0,0,2.24-1.05,6.3,6.3,0,0,1-1.34-2.09l.55-.18a5.27,5.27,0,0,0,1.24,1.89,5.14,5.14,0,0,0,1.28-1.91H224v-.55h3.87Z"/><path class="cls-4" d="M213.63,12.88,214,13a.24.24,0,0,1-.06.1,10.5,10.5,0,0,1-.77,3,5,5,0,0,0,3.75,1.09h2.79a2.24,2.24,0,0,0-.25.6h-2.55a5.55,5.55,0,0,1-4-1.15,4.41,4.41,0,0,1-1.24,1.41,2.23,2.23,0,0,0-.45-.42,4.23,4.23,0,0,0,1.28-1.45,5.87,5.87,0,0,1-.87-1.81l.48-.2a5,5,0,0,0,.66,1.45,8.92,8.92,0,0,0,.55-2.21h-1.15l-.19.37-.56-.16c.47-.86,1-2,1.41-2.82h-1.55v-.55h1.9l.12,0,.38.16a.37.37,0,0,1-.07.12c-.28.58-.72,1.49-1.16,2.36h1.09Zm2.67,0v-.72h-2.56v-.5h2.56V11h-1.85v-.49h1.85V9.66l.77.06c0,.06-.06.11-.17.11v.65h2v1.21h.74v.5h-.74v1.22h-2v.75H219v.49H216.9v.75h2.54v.5H216.9v1h-.6v-1h-2.45v-.5h2.45v-.75h-2v-.49h2v-.75h-1.91v-.5Zm.6-1.94v.72h1.39V11Zm1.39,1.94v-.72H216.9v.72Z"/><path class="cls-4" d="M208.68,11.24c0,.06-.09.08-.2.08a12.36,12.36,0,0,1-.6,1.13h2.46V13h-6.92v.88a8.1,8.1,0,0,1-1,4.24,1.58,1.58,0,0,0-.47-.39,7.31,7.31,0,0,0,.84-3.85V12.45h1.81a5,5,0,0,0-.5-1.24l.51-.14h-2v-.53h3.25V9.69l.79,0c0,.07-.06.11-.18.13v.68h3.33v.53h-1.73Zm-1.43,4.88v1.23h3.05v.53h-6.57v-.53h2.92V16.12h-2.08v-.5h2.08v-1h-1.77a5.11,5.11,0,0,1-.67.91,5.11,5.11,0,0,0-.46-.28,5.16,5.16,0,0,0,1.14-2l.68.19a.18.18,0,0,1-.18.09c-.07.18-.14.36-.23.54h1.49v-.85l.77,0c0,.07,0,.11-.17.13v.68h2.51v.5h-2.51v1h2.29v.5Zm.11-3.8a8.69,8.69,0,0,0,.53-1.25H204.7a4.37,4.37,0,0,1,.53,1.25l-.46.13h2.93Z"/><path class="cls-4" d="M194.61,10.28h5.86v7.6h-.63v-.54h-4.61v.6h-.62Zm5.23.61h-4.61v2.59h4.61Zm-4.61,5.84h4.61V14.08h-4.61Z"/><path class="cls-4" d="M186.26,10.91c0,.08-.12.13-.24.14a14.68,14.68,0,0,0-.17,2.25c0,.34,0,.66,0,.95.11,1.54.73,2.47,1.43,2.46.36,0,.83-.92,1.16-1.93a3.31,3.31,0,0,0,.52.38c-.42,1.22-.94,2.22-1.69,2.23-1.15,0-1.94-1.37-2.07-3.1,0-.35,0-.73,0-1.13a21.59,21.59,0,0,1,.13-2.43Zm6,4.2a4.51,4.51,0,0,0-2.28-3.4l.4-.48a4.94,4.94,0,0,1,2.55,3.67Z"/><path class="cls-4" d="M179.45,10.12c0,.11-.13.16-.3.17-.1.5-.26,1.38-.37,1.92.4,0,.77-.08,1-.08,1.37,0,1.84.89,1.84,2.25a7,7,0,0,1-.3,2,1.65,1.65,0,0,1-1.61,1.36,2.69,2.69,0,0,1-1.64-.78,4,4,0,0,0,.25-.55,2.38,2.38,0,0,0,1.38.68c.51,0,.82-.32,1-.9a6.8,6.8,0,0,0,.29-1.85c0-1-.34-1.64-1.25-1.64a9.4,9.4,0,0,0-1.1.1,17.12,17.12,0,0,1-1.85,4.87l-.6-.29a14.6,14.6,0,0,0,1.8-4.51c-.46,0-1.12.13-1.61.21l0-.63,1.79-.21c.13-.66.28-1.47.39-2.26Zm4.18,4.35a5.44,5.44,0,0,0-2-3.09l.48-.38a5.79,5.79,0,0,1,2.2,3.21Z"/><path class="cls-4" d="M167.51,17.45c.67-1.92,1.78-5.11,2.13-6.07.17-.49.41-1.18.47-1.4l1,.25c-.05.13-.17.17-.35.17-.5,1.24-1.27,3.35-1.6,4.26h0a2.87,2.87,0,0,1,2-1.11c.79,0,1.17.53,1.14,1.37l0,1.08a.9.9,0,0,0,.94,1c.81,0,1.56-.93,2-2.48a4.91,4.91,0,0,0,.59.33c-.5,1.73-1.39,2.81-2.59,2.81a1.44,1.44,0,0,1-1.58-1.5c0-.17,0-1,0-1.19,0-.57-.23-.87-.63-.87-1,0-2.08,1.51-2.31,2.1-.13.31-.33.89-.5,1.42Z"/><path class="cls-4" d="M161.38,15a6.15,6.15,0,0,1-.26-1.7,15.87,15.87,0,0,1,.31-3l.9.15c0,.12-.14.15-.26.16a13.2,13.2,0,0,0-.31,2.63,3.14,3.14,0,0,0,0,.48c.18-.44.51-1,.7-1.4a2.77,2.77,0,0,0,.36.4c-.67,1.2-.87,1.55-.87,1.92a.91.91,0,0,0,0,.23Zm4.84-4.92c0,.11-.08.16-.23.2.06.79.15,2.1.15,3.14,0,1.74-.64,3.31-3.36,4.44a4.29,4.29,0,0,0-.45-.52c2.47-.94,3.13-2.43,3.13-3.91,0-1.11-.11-2.42-.21-3.39Z"/><path class="cls-4" d="M158.85,9.73a5.46,5.46,0,0,0-1.79,4.15A5.44,5.44,0,0,0,158.85,18v0h-.54a5.74,5.74,0,0,1-1.73-4.2,5.74,5.74,0,0,1,1.73-4.2h.54Z"/><path class="cls-4" d="M143.33,10.12H151v8h-.62v-.42h-6.42v.42h-.59Zm.59,7h6.42V10.71h-6.42ZM145,13.34a20,20,0,0,1,2.12,1A9.31,9.31,0,0,0,149,11.4l.7.23c0,.06-.1.1-.22.09a10.22,10.22,0,0,1-1.88,2.89,12.87,12.87,0,0,1,2,1.39l-.37.48A12.58,12.58,0,0,0,147.22,15a10,10,0,0,1-2.47,1.72,4.25,4.25,0,0,0-.37-.47,9.52,9.52,0,0,0,2.33-1.54,21.1,21.1,0,0,0-2.05-1Zm.08-1.94A5.5,5.5,0,0,1,146,13l-.5.22a6,6,0,0,0-.85-1.62Zm1.79-.29a5.77,5.77,0,0,1,.71,1.72l-.51.19a6.16,6.16,0,0,0-.69-1.74Z"/><path class="cls-4" d="M134.27,13.4h7.54V14h-7.2a.38.38,0,0,1-.29.17Z"/><path class="cls-4" d="M132.43,11.18v6h-.65v-.57h-5v.59h-.64v-6ZM131.78,16V11.79h-5V16Z"/><path class="cls-4" d="M124.34,11.1a.22.22,0,0,1-.11.1c-.72,3.42-2.49,5.45-5.44,6.49a5.3,5.3,0,0,0-.42-.52,7.17,7.17,0,0,0,5.06-5.67h-5.91v-.6h6.15l.12-.08Z"/><path class="cls-4" d="M116.26,11.48h-7v1.8a10.5,10.5,0,0,1-.9,4.81,2.63,2.63,0,0,0-.52-.35,9.54,9.54,0,0,0,.81-4.46V10.9h3.41V9.69l.8.05c0,.07,0,.11-.18.13v1h3.56Zm-5.48,2.79a7.76,7.76,0,0,1-.85,2.94l-.54-.26a7,7,0,0,0,.84-2.81ZM112,17.1c0,.29.06.35.42.35h1.24c.37,0,.44-.24.47-1.61a1.54,1.54,0,0,0,.55.26c-.07,1.51-.23,1.91-1,1.91H112.4c-.76,0-1-.2-1-.91V13.66l.79.06c0,.06-.06.11-.18.12Zm0-5.39a12.37,12.37,0,0,1,2.28,1.36l-.44.45a12.23,12.23,0,0,0-2.24-1.41Zm3.8,5.53a10.55,10.55,0,0,0-1.3-3L115,14A9.68,9.68,0,0,1,116.39,17Z"/><path class="cls-4" d="M99.93,12.76c.49.52,1,1.11,1.48,1.7A12.5,12.5,0,0,0,102,12l.75.14c0,.08-.08.11-.2.12a12.46,12.46,0,0,1-.75,2.7,13.19,13.19,0,0,1,1,1.6l-.49.42a10.93,10.93,0,0,0-.84-1.39A5.9,5.9,0,0,1,99.4,18a3.19,3.19,0,0,0-.38-.46,5.31,5.31,0,0,0,2.13-2.42c-.51-.68-1.1-1.39-1.65-2Zm3.52-1.51v.57H99.07v-.57H101V9.7l.76,0c0,.07,0,.11-.17.13v1.38Zm4,.68v.58h-1.11v4.71c0,.83-.46.85-1.88.85a2.74,2.74,0,0,0-.21-.63h.8c.66,0,.68,0,.68-.22V12.51h-2.55v-.58h2.55V9.68l.79.05c0,.07-.06.11-.18.12v2.08Zm-3.62,1.59a7.77,7.77,0,0,1,1,2l-.54.27a7.5,7.5,0,0,0-1-2.07Z"/><path class="cls-4" d="M95.15,13.88a.93.93,0,1,1-1.86,0,.93.93,0,0,1,1.86,0Z"/><path class="cls-4" d="M87.74,14.75a29.45,29.45,0,0,0-3.17-1.47v4.51h-.68V9.94l.92.06c0,.1-.08.16-.24.19v2.63l.14-.19a33.75,33.75,0,0,1,3.39,1.51Z"/><path class="cls-4" d="M73.21,13.4h7.54V14h-7.2a.38.38,0,0,1-.29.17Z"/><path class="cls-4" d="M66.23,11.36c0,.08-.09.14-.21.15-.06,2.43-.26,4.65-1.65,6.26a6.36,6.36,0,0,0-.54-.34c1.35-1.46,1.51-3.72,1.54-6.15Zm2.33,5.2a5.93,5.93,0,0,0,3-3.63,3.71,3.71,0,0,0,.56.35,6.73,6.73,0,0,1-3.68,4.09.4.4,0,0,1-.16.18l-.47-.6.1-.13V10.19l.84,0c0,.08-.07.15-.2.17Z"/><path class="cls-4" d="M59.66,13.16h3.79v.58H55.3v-.58H59V11.62h-2a7.75,7.75,0,0,1-.8,1.36,2.68,2.68,0,0,0-.52-.32,8.56,8.56,0,0,0,1.34-2.88l.76.21a.18.18,0,0,1-.19.1c-.1.32-.22.65-.35,1H59V9.68l.8.05c0,.07-.05.11-.18.13v1.2h3.08v.56H59.66Zm-3,4.92V14.61h5.5v3.46H61.5V17.7H57.26v.38Zm4.86-2.9H57.26v1.95H61.5Z"/><path class="cls-4" d="M48.57,11.13v1h1.81v.53H46.19v-.53H48v-1H46.55v-.52H48V9.7l.74,0c0,.07-.06.11-.17.12v.75H50v.52Zm.15,3a9.74,9.74,0,0,0,.54-1.35l.64.22c0,.05-.09.08-.19.08a11.86,11.86,0,0,1-.57,1.12h1.08v.53H48.56v1H50.1v.53H48.56v1.78H48V16.31H46.43v-.53H48v-1H46.32V14.2h2.56Zm-1.48,0a4.78,4.78,0,0,0-.42-1.24l.47-.13A5.19,5.19,0,0,1,47.73,14Zm6.63-.59.38.13a.35.35,0,0,1-.07.12,7.6,7.6,0,0,1-1,2.72,4.12,4.12,0,0,0,1.37,1,2.34,2.34,0,0,0-.42.52A4.22,4.22,0,0,1,52.84,17a4.75,4.75,0,0,1-1.06,1,2,2,0,0,0-.41-.41,4.42,4.42,0,0,0,1.1-1.06,7.55,7.55,0,0,1-1-2.14l.48-.13A6.79,6.79,0,0,0,52.79,16a6.78,6.78,0,0,0,.72-1.91H51.2v4h-.57v-8h3.51v2.27c0,.65-.33.65-1.55.65a1.82,1.82,0,0,0-.19-.52H53c.49,0,.53,0,.53-.15v-1.7H51.2v2.9h2.56Z"/><path class="cls-4" d="M38.88,16.27a2.42,2.42,0,0,1-1.35,1.61l-.46-.35a2.19,2.19,0,0,0,1.29-1.44Zm2-4.32-.27-.41-3.25.2a.18.18,0,0,1-.12.12l-.2-.62.7,0a11.32,11.32,0,0,0,.81-1.53l.68.24c0,.06-.08.08-.19.08a12.37,12.37,0,0,1-.71,1.19l1.91-.08a5.22,5.22,0,0,0-.61-.63l.43-.24a6.11,6.11,0,0,1,1.28,1.42Zm-.13.21v2.9c0,.49-.24.56-1.22.56a2.32,2.32,0,0,0-.18-.46c.84,0,.84,0,.84-.1V14.5h-2v1.22h-.56V12.16Zm-.56.44h-2v.54h2Zm-2,1.5h2v-.54h-2Zm1.89,3.08c0,.21.08.24.56.24h1.69c.38,0,.45-.09.48-.8a1.77,1.77,0,0,0,.53.2c-.07.91-.26,1.12-.94,1.12h-1.8c-.89,0-1.12-.15-1.12-.76V16.06l.78,0c0,.07-.07.11-.18.13Zm1.63-.38a5.22,5.22,0,0,0-1.45-1l.38-.34a5.13,5.13,0,0,1,1.47.92Zm2.68-4.86c.34,0,.4-.11.44-.82a1.65,1.65,0,0,0,.51.2c-.06.9-.24,1.12-.89,1.12H42.82c-.82,0-1-.15-1-.78V9.72l.74,0c0,.06-.05.1-.17.12v.92a10.05,10.05,0,0,0,2-.75l.51.42a.2.2,0,0,1-.17,0,15,15,0,0,1-2.37.77v.39c0,.22.08.28.51.28Zm0,3.14c.34,0,.41-.12.43-.85a1.44,1.44,0,0,0,.53.21c-.07.92-.26,1.16-.91,1.16H42.83c-.83,0-1-.17-1-.81v-2.1l.74.05c0,.06-.05.1-.17.12v1A10.25,10.25,0,0,0,44.48,13l.52.43a.15.15,0,0,1-.1,0h-.07a15.17,15.17,0,0,1-2.48.79v.52c0,.25.08.29.52.29ZM45,17.87a5.63,5.63,0,0,0-1.64-1.51l.47-.3a5.68,5.68,0,0,1,1.67,1.47Z"/><path class="cls-4" d="M36.29,15v.5h-1v1.63h-.61v-.41H32.43v.61c0,.41-.12.57-.39.66a6.26,6.26,0,0,1-1.53.09,2.31,2.31,0,0,0-.22-.52h.92c.55,0,.6,0,.6-.23v-.62h-3v-.48h3v-.74H28V15h3.78v-.69H28.88v-.46h2.93v-.6H29.15V11.52h2.66V11H28.19v-.51h3.62V9.68l.79.05c0,.07-.06.11-.17.12v.59h3.69V11H32.43v.57h2.78v1.75H32.43v.6h2.9V15Zm-6.55-2.2h2.07V12H29.74ZM34.58,12H32.43v.85h2.15Zm-2.15,2.36V15h2.29v-.69Zm2.29,1.93v-.74H32.43v.74Z"/><path class="cls-4" d="M20.4,12.39v-.17a8.94,8.94,0,0,1-.76.58,1.8,1.8,0,0,0-.43-.44,6.79,6.79,0,0,0,2.47-2.7l.78.13a.18.18,0,0,1-.19.11c-.09.15-.18.31-.29.48H24.6l.1,0,.47.31a.27.27,0,0,1-.13.07,10.18,10.18,0,0,1-.76,1.13h2v3.19H22.81a5.44,5.44,0,0,1,1.45.85l-.4.45a6.1,6.1,0,0,0-1.66-1l.28-.29H20.2v-.54h5.5v-.82H20.48v-.5H25.7v-.8ZM21,15.86a3.2,3.2,0,0,1-1.33,1.9l-.49-.36a3,3,0,0,0,1.27-1.74Zm2.55-4a7.71,7.71,0,0,0,.66-1H21.62a10.14,10.14,0,0,1-.83,1Zm-1.41,5.26c0,.24.08.27.54.27h1.58c.39,0,.46-.12.5-1.05a1.55,1.55,0,0,0,.53.21c-.07,1.12-.26,1.38-1,1.38H22.67c-.88,0-1.1-.17-1.1-.8V15.76l.77,0c0,.07-.05.11-.17.13Zm4.86.63a8.36,8.36,0,0,0-1.67-1.9l.49-.29a8.28,8.28,0,0,1,1.71,1.85Z"/><path class="cls-4" d="M13.08,16.67a.22.22,0,0,1-.21.06,11,11,0,0,1-2.32,1.2,3.07,3.07,0,0,0-.41-.39,7.92,7.92,0,0,0,2.28-1.17Zm3-2.5a.21.21,0,0,1-.2.06,22.75,22.75,0,0,1-2.34,1.47l3.09,0c-.36-.22-.72-.4-1.06-.57l.41-.33a10.81,10.81,0,0,1,2.33,1.42l-.43.38a5.34,5.34,0,0,0-.58-.46l-2.73.07v1.93h-.61V16.17l-3.3.08a.15.15,0,0,1-.13.12l-.22-.65h2.26l.43-.24a13.38,13.38,0,0,0-1.77-1l.41-.34.67.31a9.71,9.71,0,0,0,1.06-.83H11.07V14H10.5V10h3.73v.47H12.7v.56H14v1.54H12.7v.59h1.59v.46h-.38l.27.14c0,.05-.09.06-.19.06-.33.26-.82.6-1.25.87.28.16.55.31.76.46a19.71,19.71,0,0,0,1.95-1.35Zm-3.88-3.68H11.07v.56h1.11Zm1.28,1.68v-.69H11.07v.69Zm-2.39.42v.59h1.11v-.59Zm6.69-2.46.36.15a.2.2,0,0,1-.07.09,5.12,5.12,0,0,1-1.31,2.26,5,5,0,0,0,1.73.89,2.48,2.48,0,0,0-.38.49,4.93,4.93,0,0,1-1.77-1,5.9,5.9,0,0,1-1.66.93,1.48,1.48,0,0,0-.31-.47,5.28,5.28,0,0,0,1.57-.83,5.53,5.53,0,0,1-1.12-1.79l.51-.15a4.53,4.53,0,0,0,1,1.57,4.57,4.57,0,0,0,1-1.59H14.5v-.52h3.15Zm0,7.75a10.44,10.44,0,0,0-2.23-1.19l.45-.34a10.73,10.73,0,0,1,2.25,1.16Z"/><path class="cls-4" d="M107,33.45s0,.06-.09.08a8.61,8.61,0,0,1-1.2,1.95c.4.26,1.21.86,1.43,1l-.33.47c-.24-.23-.76-.67-1.17-1v3.39h-.55V36.18a9.06,9.06,0,0,1-1.3,1.09,2.38,2.38,0,0,0-.3-.49,8,8,0,0,0,2.74-3H103.7v-.52h1.38V31.67l.72,0c0,.05-.06.1-.17.11v1.42h.89l.1,0Zm2.37,5.11h2v.55h-4.73v-.55h2.17V35H107v-.53h1.84V31.73l.73.05c0,.06,0,.1-.17.12v2.55h1.83V35h-1.83Z"/><path class="cls-4" d="M132.39,36.22a4.61,4.61,0,0,0,.91,1.27,12.83,12.83,0,0,0,1.85-1.18l.53.39a.21.21,0,0,1-.18,0c-.48.32-1.23.74-1.85,1.06a5.69,5.69,0,0,0,2.48,1.09,2.18,2.18,0,0,0-.35.49,5.32,5.32,0,0,1-3.95-3.16h-1.25v2.3l2.25-.38,0,.47-3.59.65a.14.14,0,0,1-.11.12l-.25-.6,1.1-.17V36.22h-1.49V35.7H130V32h5.19v.48h-4.62v.76h4.36v.46h-4.36v.75h4.36v.47h-4.36v.77H136v.52Z"/><path class="cls-4" d="M55.4,67.08a3.85,3.85,0,1,1,3.84-3.85A3.85,3.85,0,0,1,55.4,67.08Zm-3.59-3.85a3.59,3.59,0,1,0,3.59-3.59A3.59,3.59,0,0,0,51.81,63.23Zm2.32,1.41a2.23,2.23,0,0,0,1,.29c.88,0,1-.56,1-.8,0-.68-.71-.84-1.24-.84h-.34v-.43H55c.5,0,1-.2,1-.69,0-.29-.19-.63-.82-.63a1.71,1.71,0,0,0-.93.29l-.15-.4a2.14,2.14,0,0,1,1.18-.35c.94,0,1.29.53,1.29,1a1,1,0,0,1-.82,1v0a1.12,1.12,0,0,1,1,1.06c0,.61-.51,1.25-1.64,1.25A2.21,2.21,0,0,1,54,65.07Z"/><path class="cls-4" d="M62.56,62.21c.45.47.93,1,1.36,1.55a10.76,10.76,0,0,0,.55-2.22l.69.13c0,.06-.07.1-.18.1a11.32,11.32,0,0,1-.69,2.48,10.38,10.38,0,0,1,.95,1.46l-.44.38A11.66,11.66,0,0,0,64,64.82a5.43,5.43,0,0,1-2,2.16,2.86,2.86,0,0,0-.35-.43,4.85,4.85,0,0,0,2-2.21c-.47-.63-1-1.27-1.51-1.82Zm3.22-1.39v.52h-4v-.52h1.75V59.4l.69,0c0,.06,0,.1-.16.12v1.26Zm3.65.62V62h-1v4.32c0,.76-.42.78-1.72.78a2.19,2.19,0,0,0-.19-.58h.73c.6,0,.63,0,.63-.2V62H65.52v-.53h2.34V59.38l.72,0c0,.06-.06.1-.17.11v1.9ZM66.11,62.9a7.13,7.13,0,0,1,1,1.86l-.49.25a7.31,7.31,0,0,0-.92-1.9Z"/><path class="cls-4" d="M74.31,63.64v.62a6.92,6.92,0,0,0,3.65,2,2.47,2.47,0,0,0-.36.49,7.79,7.79,0,0,1-3.29-1.87v2.15h-.55V64.94a7.61,7.61,0,0,1-3.22,1.87,1.93,1.93,0,0,0-.35-.46,7,7,0,0,0,3.57-2.08v-.63h-2v1.63h-.55V63.15h2.59v-.63H70.35V62h3.41v-.52l-.41-.29a4.25,4.25,0,0,0,1.34-1.85l.65.2c0,.06-.08.07-.17.07a4.32,4.32,0,0,1-.26.53h3v.44h-2a4.56,4.56,0,0,1,.52.83l-.5.18a5.31,5.31,0,0,0-.62-1h-.66a5.55,5.55,0,0,1-.62.72l.47,0c0,.06-.06.1-.17.11V62h3.47v.51H74.31v.63H77v1.62c0,.54-.28.54-1.17.54a2.39,2.39,0,0,0-.18-.44h.44c.33,0,.36,0,.36-.11V63.64Zm-2.17-2.09a6.21,6.21,0,0,0-.36-1H71.4a5.13,5.13,0,0,1-.78,1,2.31,2.31,0,0,0-.43-.29,5.53,5.53,0,0,0,1.23-2l.63.21s-.08.08-.18.06c-.06.18-.15.35-.23.53h2.29v.44H72.34a4.23,4.23,0,0,1,.31.81Z"/><path class="cls-4" d="M86,61.75H83a7.59,7.59,0,0,0,3.3,3.48,2.47,2.47,0,0,0-.42.49,8.41,8.41,0,0,1-3.24-3.52v2.71H84.3v.56H82.64v1.61h-.57V65.47H80.39v-.56h1.68v-2.7a9,9,0,0,1-3.22,3.53,2.93,2.93,0,0,0-.4-.46,8.12,8.12,0,0,0,3.26-3.53h-3v-.56h3.35V59.4l.74,0c0,.06,0,.1-.17.12v1.63H86Z"/><path class="cls-4" d="M89.44,62.58A12,12,0,0,0,90,61l.63.18c0,.05-.07.08-.17.09a12.11,12.11,0,0,1-.52,1.41h1.23v.51H86.78v-.51h2.91ZM91,60.36v.5H87v-.5h1.72v-1l.7,0c0,.06-.06.1-.16.12v.81Zm-3.65,6.72V63.94h3.28V67h-.54v-.42H87.88v.47Zm.64-6a5.78,5.78,0,0,1,.4,1.35l-.49.12a6.06,6.06,0,0,0-.36-1.37Zm2.1,3.38H87.88v1.68h2.21Zm4-4.58.36.19s0,.06-.07.08c-.31.7-.75,1.6-1.21,2.46.9.84,1.27,1.46,1.27,2,0,1.3-.9,1.3-1.44,1.3h-.38a1.26,1.26,0,0,0-.19-.54,4.52,4.52,0,0,0,.51,0c.55,0,1,0,1-.78,0-.54-.4-1.12-1.3-1.95.4-.81.76-1.59,1-2.26H92v6.66h-.54V59.89H94Z"/><path class="cls-4" d="M99.31,60.9a.23.23,0,0,1-.21.13c-.3,2.57-1.16,4.81-2.53,4.81-.69,0-1.32-.69-1.32-2A3.62,3.62,0,0,1,99,60.2c2.39,0,3.42,1.51,3.42,3.12,0,2-1.14,2.92-3.14,3.38a3.29,3.29,0,0,0-.35-.5c1.9-.36,2.88-1.29,2.88-2.85A2.54,2.54,0,0,0,99,60.74l-.25,0Zm-.8-.11a3,3,0,0,0-2.7,3c0,.88.38,1.43.78,1.43C97.59,65.26,98.31,63.06,98.51,60.79Z"/><path class="cls-4" d="M106,63.15l.06.49-1,.33V66.4c0,.59-.28.68-1.39.67a2.55,2.55,0,0,0-.19-.52h.87c.11,0,.16,0,.16-.16V64.16l-1,.33a.14.14,0,0,1-.1.13l-.23-.65c.37-.09.84-.23,1.35-.38v-2h-1.25v-.52h1.25V59.39l.71,0c0,.07,0,.1-.16.12v1.51h1v.52h-1v1.85Zm4.31-3.39.31.05s0,.11,0,.18c-.11,1.92-.22,2.62-.43,2.87s-.4.23-.78.23l-.64,0a1.43,1.43,0,0,0-.16-.52,8,8,0,0,0,.84,0c.13,0,.21,0,.26-.1s.25-.72.33-2.2h-1.67a3.59,3.59,0,0,1-1.95,2.9,1.69,1.69,0,0,0-.35-.41,3,3,0,0,0,1.74-2.49h-1.55v-.52h4.06Zm-3.78,7.31V63.68h3.87V67h-.56v-.34h-2.77v.38Zm3.31-2.88h-2.77v2h2.77Z"/><path class="cls-4" d="M119.15,65h-3a8.79,8.79,0,0,0,3.15,1.47,2,2,0,0,0-.36.45,9.28,9.28,0,0,1-3.29-1.73v1.9h-.56V65.2A9.91,9.91,0,0,1,111.87,67a2.46,2.46,0,0,0-.37-.48A9,9,0,0,0,114.62,65h-3v-.46h3.44v-.58h-2.41V61.49a10,10,0,0,1-.86.86,1.8,1.8,0,0,0-.39-.39,7.62,7.62,0,0,0,2-2.58l.7.11c0,.06-.07.1-.18.11-.13.25-.29.52-.47.8h1.68a8.36,8.36,0,0,0,.47-1l.71.15s-.07.08-.18.09c-.11.22-.27.52-.43.78h2.8v.47h-2.75v.58h2.44v.42h-2.44v.59h2.46v.42h-2.46v.61h3.12v.45h-3.13a.24.24,0,0,1-.12,0v.54h3.49Zm-3.9-3.53v-.58h-2v.58Zm0,1v-.59h-2v.59Zm-2,.42v.61h2v-.61Z"/><path class="cls-4" d="M122.7,63.07l.07.48-1,.35v2.5c0,.59-.27.68-1.37.67a2.48,2.48,0,0,0-.18-.52h.85c.11,0,.16,0,.16-.15V64.1l-1,.35a.14.14,0,0,1-.1.13l-.23-.66c.37-.09.84-.23,1.36-.39V61.59H120v-.53h1.26V59.39l.71,0c0,.07,0,.1-.17.12v1.51h1v.53h-1v1.76Zm1-1.29c0,.29.1.35.68.35h2.06c.49,0,.57-.15.62-1.07a1.27,1.27,0,0,0,.51.2c-.08,1.11-.27,1.38-1.1,1.38H124.4c-1,0-1.21-.17-1.21-.86V59.39l.72,0c0,.06-.06.1-.17.12v1.12a15.46,15.46,0,0,0,2.81-.79l.47.44a.12.12,0,0,1-.09,0h-.07a19,19,0,0,1-3.12.8Zm-.42,5.3V63.39h3.8V67h-.56v-.34h-2.71v.4Zm3.24-3.21h-2.71v.92h2.71Zm-2.71,2.32h2.71v-.93h-2.71Z"/><path class="cls-4" d="M130.34,63.73a.19.19,0,0,1-.19.09,7.57,7.57,0,0,1-1.66,2.53A3.17,3.17,0,0,0,128,66a6.46,6.46,0,0,0,1.6-2.51Zm5.37-1.09H132.3v3.71c0,.37-.09.54-.37.63a6.62,6.62,0,0,1-1.49.09,2.55,2.55,0,0,0-.21-.56l.93,0c.53,0,.57,0,.57-.18V62.64h-3.39V62.1h7.37ZM135,60v.55h-5.89V60Zm.32,6.32a10,10,0,0,0-1.51-2.6l.52-.22a11,11,0,0,1,1.55,2.56Z"/><path class="cls-4" d="M157,66.42a3.85,3.85,0,1,1,3.85-3.85A3.85,3.85,0,0,1,157,66.42Zm-3.59-3.85A3.59,3.59,0,1,0,157,59,3.59,3.59,0,0,0,153.42,62.57Zm2.14,2.08v-.34l.47-.42c1.36-1.2,1.75-1.6,1.76-2.16a.83.83,0,0,0-.94-.85,1.67,1.67,0,0,0-1,.39l-.18-.39a2,2,0,0,1,1.29-.46,1.24,1.24,0,0,1,1.38,1.21c0,.82-.57,1.33-1.7,2.3l-.3.24v0h2.12v.46Z"/><path class="cls-4" d="M165.58,60.05V61h1.66v.49H163.4V61h1.65v-.93h-1.32v-.47h1.32v-.84l.68,0c0,.06,0,.1-.15.11v.69h1.31v.47Zm.14,2.74a8.75,8.75,0,0,0,.49-1.23l.59.2c0,.05-.08.07-.17.07a11.22,11.22,0,0,1-.53,1h1v.49h-1.52v1H167v.48h-1.41v1.63h-.52V64.79h-1.43v-.48h1.43v-1h-1.53v-.49h2.35Zm-1.36,0a4.23,4.23,0,0,0-.38-1.14l.43-.12a4.76,4.76,0,0,1,.4,1.12Zm6.07-.55.35.13a1.09,1.09,0,0,1-.06.11,7.19,7.19,0,0,1-.91,2.48,3.62,3.62,0,0,0,1.26,1,1.79,1.79,0,0,0-.39.48,4.1,4.1,0,0,1-1.19-1,4.36,4.36,0,0,1-1,.9,1.67,1.67,0,0,0-.38-.37,3.92,3.92,0,0,0,1-1,6.84,6.84,0,0,1-.94-2l.45-.12a6,6,0,0,0,.79,1.61,6.36,6.36,0,0,0,.65-1.75H168v3.64h-.53v-7.3h3.22V61.2c0,.59-.3.59-1.42.59a1.84,1.84,0,0,0-.17-.48h.58c.45,0,.49,0,.49-.13V59.63H168v2.66h2.34Z"/><path class="cls-4" d="M175.74,61.91h3.47v.53h-7.47v-.53h3.42V60.5h-1.81a7.81,7.81,0,0,1-.73,1.24,3.22,3.22,0,0,0-.48-.29,7.7,7.7,0,0,0,1.22-2.64l.7.19c0,.06-.08.1-.18.1-.09.29-.2.59-.31.89h1.59V58.72l.74.05c0,.06-.05.1-.16.12V60h2.81v.51h-2.81ZM173,66.42V63.24h5v3.17h-.58v-.34h-3.89v.35Zm4.45-2.66h-3.89v1.79h3.89Z"/><path class="cls-4" d="M70.56,123a3.85,3.85,0,1,1,3.85-3.84A3.84,3.84,0,0,1,70.56,123ZM67,119.19a3.59,3.59,0,1,0,3.58-3.59A3.58,3.58,0,0,0,67,119.19Zm3.92,2.12V120.2H68.7v-.38l2.19-2.76h.55v2.7h.64v.44h-.64v1.11Zm0-1.55v-1.63c0-.15,0-.37,0-.52h0c-.1.17-.2.35-.3.5l-1.38,1.64v0Z"/><path class="cls-4" d="M77.73,118.16c.45.47.93,1,1.36,1.56a10.86,10.86,0,0,0,.55-2.23l.69.13c0,.07-.08.1-.18.11a11.32,11.32,0,0,1-.69,2.48,9.35,9.35,0,0,1,1,1.46l-.45.38a9.39,9.39,0,0,0-.76-1.27,5.5,5.5,0,0,1-2,2.15,3.29,3.29,0,0,0-.34-.42,5,5,0,0,0,1.95-2.21,21.22,21.22,0,0,0-1.52-1.82ZM81,116.78v.52h-4v-.52h1.74v-1.42l.7,0c0,.06,0,.1-.16.12v1.26Zm3.65.62v.53h-1v4.32c0,.76-.42.77-1.72.77a2.72,2.72,0,0,0-.19-.57h.73c.6,0,.62,0,.62-.19v-4.33H80.68v-.53H83v-2.06l.72,0c0,.07,0,.11-.16.12v1.9Zm-3.32,1.46a6.92,6.92,0,0,1,.94,1.86l-.49.25a7.3,7.3,0,0,0-.91-1.91Z"/><path class="cls-4" d="M89.48,119.6v.62a6.84,6.84,0,0,0,3.65,2,3.32,3.32,0,0,0-.37.49,7.64,7.64,0,0,1-3.28-1.87V123h-.56V120.9a7.51,7.51,0,0,1-3.21,1.87,2,2,0,0,0-.35-.46,6.92,6.92,0,0,0,3.56-2.08v-.63h-2v1.63h-.54V119.1h2.58v-.62h-3.4V118h3.4v-.52l-.4-.29a4.31,4.31,0,0,0,1.34-1.85l.64.2c0,.06-.08.07-.16.07-.08.17-.17.35-.27.52h3v.45h-2a4.78,4.78,0,0,1,.52.83l-.5.18a4.93,4.93,0,0,0-.63-1h-.66a5.45,5.45,0,0,1-.62.72l.47,0c0,.07,0,.1-.16.12V118h3.46v.51H89.48v.62h2.67v1.63c0,.53-.28.53-1.17.53a2.35,2.35,0,0,0-.19-.43h.44c.33,0,.37,0,.37-.1V119.6Zm-2.18-2.09a5,5,0,0,0-.35-1h-.38a5.53,5.53,0,0,1-.78,1,3.23,3.23,0,0,0-.43-.29,5.38,5.38,0,0,0,1.22-2l.63.21s-.07.08-.17.06c-.07.17-.15.35-.23.52H89.1v.45H87.5a4.09,4.09,0,0,1,.32.81Z"/><path class="cls-4" d="M101.18,117.71h-3a7.64,7.64,0,0,0,3.3,3.48,2.26,2.26,0,0,0-.43.49,8.42,8.42,0,0,1-3.23-3.53v2.72h1.65v.56H97.81V123h-.58v-1.6H95.55v-.56h1.68v-2.7A8.84,8.84,0,0,1,94,121.69a2.8,2.8,0,0,0-.39-.45,8.12,8.12,0,0,0,3.26-3.53h-3v-.57h3.34v-1.78l.75,0c0,.06,0,.1-.17.12v1.62h3.37Z"/><path class="cls-4" d="M104.6,118.53a10.59,10.59,0,0,0,.53-1.59l.64.18s-.07.07-.17.08a14.42,14.42,0,0,1-.52,1.42h1.23v.51H102v-.51h2.91Zm1.57-2.21v.49h-4v-.49h1.72v-1l.71,0c0,.06-.06.1-.17.12v.81ZM102.52,123V119.9h3.28V123h-.54v-.42h-2.21V123Zm.64-6a5.47,5.47,0,0,1,.39,1.35l-.48.11a6.19,6.19,0,0,0-.37-1.36Zm2.1,3.37h-2.21v1.68h2.21Zm4-4.57.36.18a.13.13,0,0,1-.07.09c-.32.7-.76,1.59-1.21,2.46.89.84,1.26,1.46,1.26,2,0,1.3-.9,1.3-1.43,1.3h-.39a1.07,1.07,0,0,0-.19-.54l.52,0c.55,0,1,0,1-.78,0-.54-.41-1.12-1.31-2,.41-.82.76-1.59,1-2.26h-1.64V123h-.54v-7.18h2.54Z"/><path class="cls-4" d="M114.47,116.86a.2.2,0,0,1-.2.13c-.3,2.57-1.16,4.81-2.53,4.81-.7,0-1.33-.69-1.33-2a3.63,3.63,0,0,1,3.73-3.65,3.06,3.06,0,0,1,3.42,3.13c0,2-1.14,2.92-3.14,3.38a4.2,4.2,0,0,0-.35-.5c1.9-.37,2.88-1.29,2.88-2.86a2.54,2.54,0,0,0-2.81-2.6h-.25Zm-.79-.11a3,3,0,0,0-2.7,3c0,.89.38,1.44.77,1.44C112.75,121.22,113.47,119,113.68,116.75Z"/><path class="cls-4" d="M121.38,116.75v.46h-3.16v-.46Zm-.29,3.37v2.43h-2v.39h-.49v-2.82Zm-2.49-1.79v-.46h2.49v.46Zm0,1.12V119h2.49v.45Zm2.47-3.8v.45h-2.42v-.45Zm-.48,4.94h-1.5v1.49h1.5Zm2-4.46v.51a2.44,2.44,0,0,1-1.07,2.18,2.92,2.92,0,0,0-.41-.37,2,2,0,0,0,1-1.82v-1h2.61v2.1c0,.18,0,.21.17.21h.46c.16,0,.19-.11.2-.93a1.31,1.31,0,0,0,.47.2c0,1-.18,1.22-.61,1.22h-.59c-.49,0-.63-.15-.63-.7v-1.58Zm2.55,2.83.36.15a.2.2,0,0,1-.06.09,5.3,5.3,0,0,1-1.43,2.39,5.38,5.38,0,0,0,2,1,2.35,2.35,0,0,0-.36.47,5.63,5.63,0,0,1-2-1.06,6.29,6.29,0,0,1-2.15,1.07,1.61,1.61,0,0,0-.3-.48,6.21,6.21,0,0,0,2.05-1,5.8,5.8,0,0,1-1.23-1.92l.5-.16a5.06,5.06,0,0,0,1.14,1.73,4.69,4.69,0,0,0,1.17-1.75h-3.27V119H125Z"/><path class="cls-4" d="M128.88,118.8h1.27a4,4,0,0,0,.09-.52h-3.32v-.45h3.39c0-.16.05-.33.07-.49h-3.06v-1.63h6.49v1.63h-2.74s-.07,0-.15,0,0,.28,0,.44h3.3v.45h-3.38c0,.18-.07.36-.09.52h2.72v2.93h-4.54Zm5.53,3.41v.46h-6.47V123h-.54v-4.11l.69,0c0,.06,0,.09-.15.11v3.12Zm-5.14-5.28v-.81h-1.42v.81Zm3.6,2.73v-.5h-3.46v.5Zm0,.84V120h-3.46v.49Zm0,.87v-.52h-3.46v.52Zm-3.09-5.25v.81h1.47v-.81Zm2,0v.81h1.48v-.81Z"/><path class="cls-4" d="M162.38,170.67a3.85,3.85,0,1,1,3.85-3.84A3.84,3.84,0,0,1,162.38,170.67Zm-3.59-3.84a3.59,3.59,0,1,0,3.59-3.59A3.59,3.59,0,0,0,158.79,166.83Zm3.41-1.63h0l-.71.38-.11-.43.86-.45h.51V169h-.54Z"/><path class="cls-4" d="M171,164.31v.93h1.66v.49h-3.84v-.49h1.65v-.93H169.1v-.47h1.32V163l.68,0c0,.06,0,.1-.15.11v.69h1.31v.47Zm.14,2.74a8.75,8.75,0,0,0,.49-1.23l.59.2s-.08.07-.17.07a11.22,11.22,0,0,1-.53,1h1v.49h-1.52v1h1.41v.48h-1.41v1.63h-.52v-1.63H169v-.48h1.43v-1h-1.53v-.49h2.34Zm-1.36,0a4.23,4.23,0,0,0-.38-1.14l.43-.12a4.76,4.76,0,0,1,.4,1.12Zm6.07-.55.35.13a.44.44,0,0,1-.06.1,7.16,7.16,0,0,1-.91,2.49,3.62,3.62,0,0,0,1.26,1,1.91,1.91,0,0,0-.39.47,3.91,3.91,0,0,1-1.19-1,4.61,4.61,0,0,1-1,.9,1.67,1.67,0,0,0-.38-.37,3.92,3.92,0,0,0,1-1,6.84,6.84,0,0,1-.94-2l.45-.12a5.88,5.88,0,0,0,.79,1.61,6.36,6.36,0,0,0,.65-1.75h-2.11v3.64h-.53v-7.3h3.22v2.08c0,.59-.3.59-1.42.59a1.84,1.84,0,0,0-.17-.48H175c.45,0,.49,0,.49-.13v-1.56h-2.17v2.66h2.34Z"/><path class="cls-4" d="M181.1,166.17h3.48v.53h-7.47v-.53h3.42v-1.41h-1.82A7.12,7.12,0,0,1,178,166a3.22,3.22,0,0,0-.48-.29,7.7,7.7,0,0,0,1.22-2.64l.7.19c0,.06-.08.1-.18.1-.09.29-.2.59-.31.89h1.59V163l.74.05c0,.06-.05.1-.17.12v1.1h2.82v.51H181.1Zm-2.76,4.5V167.5h5v3.17h-.58v-.34H178.9v.34Zm4.45-2.65H178.9v1.79h3.89Z"/><path class="cls-4" d="M16.88,146a3.85,3.85,0,1,1,3.85-3.85A3.85,3.85,0,0,1,16.88,146Zm-3.59-3.85a3.59,3.59,0,1,0,3.59-3.59A3.59,3.59,0,0,0,13.29,142.14Zm4.89-1.62H16.45l-.15,1.07a2.18,2.18,0,0,1,.41,0,1.4,1.4,0,0,1,1.58,1.32,1.49,1.49,0,0,1-1.63,1.42,2.31,2.31,0,0,1-1.14-.28l.14-.43a2.12,2.12,0,0,0,1,.26,1,1,0,0,0,1.06-.89c0-.55-.35-1-1.27-1a4.05,4.05,0,0,0-.67.06l.25-2h2.15Z"/><path class="cls-4" d="M26,142l.07.48-1,.36v2.5c0,.59-.27.68-1.37.67a2.3,2.3,0,0,0-.18-.52h.85c.11,0,.16,0,.16-.15V143l-1,.35a.14.14,0,0,1-.1.13l-.23-.66c.37-.09.84-.24,1.36-.39v-1.95H23.28V140h1.26V138.3l.71,0c0,.07-.05.1-.17.12V140h1v.52h-1v1.77Zm1-1.28c0,.29.1.35.68.35h2.06c.49,0,.57-.15.62-1.08a1.15,1.15,0,0,0,.51.21c-.08,1.11-.27,1.38-1.1,1.38H27.71c-.95,0-1.21-.17-1.21-.86V138.3l.72,0c0,.06-.06.1-.17.12v1.12a15.46,15.46,0,0,0,2.81-.79l.47.44a.12.12,0,0,1-.09,0h-.07a19,19,0,0,1-3.12.8Zm-.42,5.3V142.3h3.8v3.63h-.56v-.34H27.16v.4Zm3.24-3.21H27.16v.91h2.71Zm-2.71,2.32h2.71v-.93H27.16Z"/><path class="cls-4" d="M33.65,142.64a.18.18,0,0,1-.18.09,7.75,7.75,0,0,1-1.67,2.53,2.71,2.71,0,0,0-.46-.33,6.54,6.54,0,0,0,1.6-2.51ZM39,141.55H35.61v3.71c0,.37-.09.54-.37.63a6.62,6.62,0,0,1-1.49.09,2.55,2.55,0,0,0-.21-.56l.93,0c.53,0,.57,0,.57-.18v-3.71H31.65V141H39Zm-.73-2.64v.55H32.4v-.55Zm.32,6.31a10.15,10.15,0,0,0-1.51-2.59l.52-.23A10.58,10.58,0,0,1,39.17,145Z"/><path class="cls-4" d="M63.14,168.26A3.85,3.85,0,1,1,67,164.41,3.84,3.84,0,0,1,63.14,168.26Zm-3.59-3.85a3.59,3.59,0,1,0,3.59-3.59A3.59,3.59,0,0,0,59.55,164.41Zm4.68-1.68h-.15a1.85,1.85,0,0,0-.39,0,1.64,1.64,0,0,0-1.51,1.49h0a1.4,1.4,0,0,1,1.13-.49,1.28,1.28,0,0,1,1.34,1.3,1.52,1.52,0,0,1-1.57,1.51c-.83,0-1.5-.58-1.5-1.79a2.3,2.3,0,0,1,2-2.47,3.84,3.84,0,0,1,.63,0Zm-.1,2.34a.92.92,0,0,0-.94-.92c-.5,0-1,.32-1,.75s.18,1.26,1,1.26A1,1,0,0,0,64.13,165.07Z"/><path class="cls-4" d="M71.71,161.9v.93h1.66v.48H69.53v-.48h1.66v-.93H69.86v-.48h1.33v-.84l.67,0c0,.05,0,.09-.15.1v.69H73v.48Zm.14,2.74a7.8,7.8,0,0,0,.49-1.24l.59.2c0,.05-.08.08-.17.08a11.08,11.08,0,0,1-.53,1h1v.49H71.7v1h1.41v.49H71.7v1.63h-.52v-1.63H69.76v-.49h1.42v-1H69.65v-.49H72Zm-1.36,0a4.47,4.47,0,0,0-.38-1.14l.43-.11a4.55,4.55,0,0,1,.4,1.11Zm6.07-.54.35.12a.29.29,0,0,1-.06.11,7.11,7.11,0,0,1-.91,2.49,3.72,3.72,0,0,0,1.26.95,2,2,0,0,0-.39.48,3.91,3.91,0,0,1-1.19-1,4.36,4.36,0,0,1-1,.9,1.91,1.91,0,0,0-.38-.37,3.92,3.92,0,0,0,1-1,6.45,6.45,0,0,1-.93-2l.44-.11a6.12,6.12,0,0,0,.79,1.6,6.24,6.24,0,0,0,.65-1.75H74.12v3.65h-.53V161h3.22V163c0,.6-.3.6-1.42.6a1.84,1.84,0,0,0-.17-.48h.58c.46,0,.49,0,.49-.13v-1.55H74.12v2.65h2.34Z"/><path class="cls-4" d="M81.87,163.75h3.47v.53H77.87v-.53H81.3v-1.4H79.48a8.29,8.29,0,0,1-.73,1.24,2.55,2.55,0,0,0-.48-.29,7.89,7.89,0,0,0,1.22-2.64l.7.19q0,.09-.18.09a9.37,9.37,0,0,1-.31.89h1.6v-1.26l.73.05s0,.1-.16.11v1.1h2.82v.52H81.87Zm-2.77,4.51v-3.18h5v3.17h-.58v-.34H79.67v.35Zm4.45-2.66H79.67v1.79h3.88Z"/><path class="cls-4" d="M97.07,164.25l.07.48-1,.35v2.5c0,.6-.27.69-1.37.67a3.14,3.14,0,0,0-.18-.51h.85c.1,0,.15-.05.15-.16v-2.31l-1,.35a.13.13,0,0,1-.1.13l-.23-.65,1.35-.4v-1.94H94.34v-.52h1.25v-1.67l.72,0c0,.06,0,.1-.17.11v1.52h1v.52h-1v1.77Zm1-1.28c0,.28.1.34.68.34h2.06c.48,0,.57-.15.62-1.07a1.27,1.27,0,0,0,.51.2c-.08,1.11-.27,1.39-1.1,1.39H98.77c-1,0-1.22-.18-1.22-.86v-2.39l.72,0s0,.1-.16.11v1.13a16.1,16.1,0,0,0,2.8-.8l.48.44a.12.12,0,0,1-.1,0h-.06a20.41,20.41,0,0,1-3.12.79Zm-.42,5.29v-3.69h3.79v3.63h-.55v-.34H98.22v.4Zm3.24-3.21H98.22V166h2.71Zm-2.71,2.32h2.71v-.93H98.22Z"/><path class="cls-4" d="M104.7,164.92c0,.06-.08.08-.18.08a7.89,7.89,0,0,1-1.66,2.53,3.17,3.17,0,0,0-.46-.33,6.7,6.7,0,0,0,1.6-2.51Zm5.38-1.09h-3.42v3.7c0,.37-.09.54-.36.63a6.67,6.67,0,0,1-1.5.09,1.92,1.92,0,0,0-.2-.55h.92c.54,0,.57,0,.57-.18v-3.7H102.7v-.55h7.38Zm-.74-2.64v.54h-5.89v-.54Zm.33,6.31a10.5,10.5,0,0,0-1.51-2.6l.51-.22a10.73,10.73,0,0,1,1.56,2.56Z"/><path class="cls-4" d="M105.68,141.64a7.22,7.22,0,0,1,.93,1.69l-.43.22a3.31,3.31,0,0,0-.19-.47l-.81,0v3.54h-.5v-3.52l-1.19.05c0,.07-.07.09-.13.11l-.14-.62h.57c.18-.22.37-.49.57-.76a8,8,0,0,0-1.06-1.24l.3-.35.26.25a12.47,12.47,0,0,0,.78-1.61l.59.24s-.08.08-.17.08a15.08,15.08,0,0,1-.89,1.61,7.36,7.36,0,0,1,.48.59c.35-.54.68-1.11.92-1.57l.59.27a.22.22,0,0,1-.18.06,21.9,21.9,0,0,1-1.67,2.42l1.46,0a7.14,7.14,0,0,0-.5-.82Zm-1.32,2.25c0,.05-.07.09-.17.09a7.81,7.81,0,0,1-.54,2,4.09,4.09,0,0,0-.42-.2,7,7,0,0,0,.52-2Zm1.68,1.57a7,7,0,0,0-.53-1.61l.43-.14a7.43,7.43,0,0,1,.55,1.6Zm1.25-1.05a3,3,0,0,1-.76,1.88l-.39-.26a2.85,2.85,0,0,0,.7-1.71Zm.95-5.25a.16.16,0,0,1-.18.08,5.83,5.83,0,0,1-1.43,2.16,4.39,4.39,0,0,0-.4-.33,5.21,5.21,0,0,0,1.36-2.1Zm-.93,3.26a15.39,15.39,0,0,0,.79-2l.66.21c0,.06-.09.08-.19.08a15.51,15.51,0,0,1-.74,1.71l1.82-.07c-.21-.28-.44-.56-.66-.8l.4-.24a9.14,9.14,0,0,1,1.32,1.7l-.44.29a4.14,4.14,0,0,0-.32-.53c-1.11.08-2.24.14-3,.18a.13.13,0,0,1-.12.11l-.2-.6Zm.85,3.43c0,.19,0,.23.27.23h.77c.2,0,.24-.12.27-.9a1.16,1.16,0,0,0,.44.19c0,.92-.19,1.15-.65,1.15h-.89c-.58,0-.72-.14-.72-.66v-1.77l.67,0c0,.06,0,.1-.16.12Zm.92-1.49a4.43,4.43,0,0,0-1.37-1l.34-.31a4.47,4.47,0,0,1,1.39,1Zm.5-5.39a4.56,4.56,0,0,0,1.58,2,1.73,1.73,0,0,0-.39.42,5.87,5.87,0,0,1-1.65-2.21Zm1.06,7.37a6,6,0,0,0-1-1.91l.43-.21a6.11,6.11,0,0,1,1,1.87Z"/><path class="cls-4" d="M119.29,140.36h-.7a4.64,4.64,0,0,1-1,1.6,5.3,5.3,0,0,0,1.85.89,2.06,2.06,0,0,0-.35.47,5.34,5.34,0,0,1-1.88-1,6.21,6.21,0,0,1-2,1.08A3.56,3.56,0,0,0,115,143a6.73,6.73,0,0,1-.41,1l-.4-.2a9.81,9.81,0,0,0,.49-1.4h-.87V146c0,.61-.27.64-1.29.64a2.3,2.3,0,0,0-.18-.52l.58,0c.33,0,.36,0,.36-.14V143.1a6.74,6.74,0,0,1-1.27,2.18,2.55,2.55,0,0,0-.3-.5,6.72,6.72,0,0,0,1.38-2.36h-1.32v-.49h2.32a7.66,7.66,0,0,0-1.9-1.2l.34-.36c.27.12.55.26.82.41a5.15,5.15,0,0,0,1-.9h-2.44v-.49h2.87l.1,0,.42.26a.24.24,0,0,1-.12.07,6.58,6.58,0,0,1-1.36,1.32,7.27,7.27,0,0,1,.71.53l-.33.38h1.14a10.1,10.1,0,0,1-.27,1,5.83,5.83,0,0,0,1.8-.95,5.74,5.74,0,0,1-.85-1.11,5.71,5.71,0,0,1-.63.73,2.88,2.88,0,0,0-.43-.33,5.57,5.57,0,0,0,1.42-2.3l.68.2c0,.06-.09.09-.18.09a4.67,4.67,0,0,1-.27.62h2.74Zm-.66,3.44.32.07a.45.45,0,0,1,0,.16c-.15,1.55-.3,2.16-.53,2.39s-.37.22-.86.22c-.17,0-.38,0-.58,0a1.43,1.43,0,0,0-.16-.52c.37,0,.72,0,.85,0a.36.36,0,0,0,.29-.08c.16-.16.28-.63.4-1.76H117a3.42,3.42,0,0,1-2.07,2.37,1.39,1.39,0,0,0-.33-.41,3,3,0,0,0,1.84-2h-1.28v-.48h1.4a6.85,6.85,0,0,0,.14-.89l.71.06c0,.07-.07.1-.17.12,0,.24-.07.47-.12.71h1.4Zm-2.34-3.44,0,.06a4.5,4.5,0,0,0,.93,1.21,3.88,3.88,0,0,0,.83-1.27Z"/><path class="cls-4" d="M122.9,142.16a12,12,0,0,0,.53-1.6l.63.18s-.07.08-.17.09a12.11,12.11,0,0,1-.52,1.41h1.23v.51h-4.36v-.51h2.91Zm1.56-2.22v.5h-4v-.5h1.72v-1l.7,0c0,.06-.06.1-.16.12v.81Zm-3.65,6.72v-3.14h3.28v3.09h-.54v-.42h-2.21v.47Zm.64-6a5.78,5.78,0,0,1,.4,1.35l-.49.12a6.06,6.06,0,0,0-.36-1.37Zm2.1,3.38h-2.21v1.68h2.21Zm4-4.58.36.19s0,.06-.07.08c-.31.7-.75,1.6-1.21,2.46.9.84,1.27,1.46,1.27,2.05,0,1.3-.9,1.3-1.44,1.3h-.38a1.26,1.26,0,0,0-.19-.54,4.52,4.52,0,0,0,.51,0c.56,0,1,0,1-.78,0-.54-.4-1.12-1.3-2,.4-.81.76-1.59,1-2.26h-1.65v6.66h-.54v-7.19h2.54Z"/><path class="cls-4" d="M132.54,143.51a4.46,4.46,0,0,0,.91,1.28,12.83,12.83,0,0,0,1.85-1.18l.53.38a.21.21,0,0,1-.18,0,19.32,19.32,0,0,1-1.85,1.07,5.7,5.7,0,0,0,2.47,1.08,2.58,2.58,0,0,0-.34.5,5.36,5.36,0,0,1-4-3.17h-1.24v2.31l2.25-.38,0,.46-3.59.66a.17.17,0,0,1-.11.12l-.25-.6,1.1-.17v-2.4h-1.49V143h1.49v-3.69h5.19v.48h-4.62v.75h4.36V141h-4.36v.75h4.36v.46h-4.36V143h5.42v.51Z"/><path class="cls-4" d="M131.14,225.8v.93h1.66v.48H129v-.48h1.66v-.93h-1.33v-.48h1.33v-.84l.68.05c0,.05-.05.1-.16.1v.69h1.31v.48Zm.14,2.74a8.92,8.92,0,0,0,.5-1.24l.58.2c0,.05-.08.08-.17.08a9.06,9.06,0,0,1-.53,1h1v.49h-1.52v1h1.42v.49h-1.42v1.63h-.52v-1.63h-1.42v-.49h1.42v-1h-1.53v-.49h2.35Zm-1.36,0a4.47,4.47,0,0,0-.38-1.14l.43-.11a4.17,4.17,0,0,1,.4,1.11ZM136,228l.35.12a.29.29,0,0,1-.06.11,7,7,0,0,1-.91,2.49,3.81,3.81,0,0,0,1.26,1,2.22,2.22,0,0,0-.39.48,4,4,0,0,1-1.19-1,4.16,4.16,0,0,1-1,.9,1.67,1.67,0,0,0-.38-.37,4,4,0,0,0,1-1,6.94,6.94,0,0,1-.93-2l.44-.12a6.45,6.45,0,0,0,.79,1.6,6,6,0,0,0,.65-1.75h-2.11v3.65H133v-7.31h3.22v2.08c0,.6-.3.6-1.42.6a1.84,1.84,0,0,0-.17-.48h.58c.46,0,.49,0,.49-.13v-1.55h-2.17V228h2.34Z"/><path class="cls-4" d="M141.3,227.65h3.47v.53H137.3v-.53h3.43v-1.4h-1.82a7.12,7.12,0,0,1-.73,1.24,2.55,2.55,0,0,0-.48-.29,7.89,7.89,0,0,0,1.23-2.64l.69.19c0,.06-.07.09-.17.09-.1.3-.2.6-.32.89h1.6v-1.26l.73.05c0,.06-.05.1-.16.11v1.1h2.82v.52H141.3Zm-2.76,4.51V229h5v3.17H143v-.34H139.1v.35ZM143,229.5H139.1v1.79H143Z"/><path class="cls-4" d="M149.86,226.3a.56.56,0,1,1-.56-.56A.56.56,0,0,1,149.86,226.3Zm0,4a.56.56,0,1,1-.56-.55A.55.55,0,0,1,149.86,230.32Z"/><path class="cls-4" d="M158,231.23h3.38v.55h-7.51v-.55H155v-4l.75.05c0,.06-.06.1-.17.12v3.83h1.81v-5.59h-3.23v-.54h6.9v.54H158V228h2.7v.54H158Z"/><path class="cls-4" d="M165,225.51h-1.47a20.17,20.17,0,0,1-.44,2h1.62v3.6h-1.63v.68h-.48v-2.92a6,6,0,0,1-.52.91,5,5,0,0,0-.29-.5,9.41,9.41,0,0,0,1.19-3.77h-1V225h3Zm-.78,5.1V228h-1.14v2.6Zm5.38.71v.48h-3.41v.41h-.52v-3.69a5.1,5.1,0,0,1-.62.61,4.63,4.63,0,0,0-.31-.46,6.54,6.54,0,0,0,1.8-2.71h-1v1h-.49v-1.51h1.67a9.92,9.92,0,0,0,.28-1l.69.16a.18.18,0,0,1-.19.1c-.07.25-.14.5-.22.75h2.21V227H169v-1h-1.86a10.82,10.82,0,0,1-.67,1.46h1a8.15,8.15,0,0,0,.42-1.12l.64.2c0,.05-.07.08-.16.08-.1.24-.24.56-.38.84h1.46v.49H167.9v.83h1.33v.45H167.9V230h1.33v.45H167.9v.84Zm-2.26-2.58v-.83h-1.15v.83Zm0,1.29v-.84h-1.15V230Zm-1.15.45v.84h1.15v-.84Z"/><path class="cls-4" d="M173.35,224.72a.28.28,0,0,1-.25.14c-.06.36-.14.79-.21,1.11a11.75,11.75,0,0,0,2.43-.4l.09.56a17.36,17.36,0,0,1-2.63.4A12.12,12.12,0,0,1,171,230.6l-.56-.23a10.72,10.72,0,0,0,1.68-3.83h-1.64V226h1.74a11.69,11.69,0,0,0,.23-1.4Zm2.2,3.52c0,.67.06,1.12.11,1.69a8.76,8.76,0,0,1,1.76,1l-.3.53a8,8,0,0,0-1.46-.87c0,.83-.33,1.48-1.55,1.48-.91,0-1.62-.42-1.61-1.19s.87-1.23,1.63-1.23a3.53,3.53,0,0,1,.93.15c0-.53-.07-1.07-.07-1.46Zm-.45,2.07a2.62,2.62,0,0,0-1-.19c-.49,0-1.08.19-1.09.71s.47.69,1.11.69,1-.29,1-.83C175.11,230.55,175.11,230.43,175.1,230.31Zm2.26-2.92a11.75,11.75,0,0,0-2.92.4l-.09-.52a11.62,11.62,0,0,1,3-.44Z"/><path class="cls-4" d="M179.26,226.16a4.39,4.39,0,0,1-.48,2.16,4.38,4.38,0,0,0-.41-.23,4.21,4.21,0,0,0,.44-2Zm.32-1.69.71.05c0,.06,0,.1-.16.11v7.51h-.55Zm1.28,2.68a8.52,8.52,0,0,0-.6-1.22l.38-.19a6,6,0,0,1,.61,1.17Zm2.9.1h2.31v.48H181v-.48h2.23v-.6h-1.61v-.43h1.61v-.56h-1.94v-.45h1.94v-.74l.75.05c0,.06-.05.1-.17.11v.58h2v.45h-2v.56h1.68v.43h-1.68Zm1.56,1v3.28c0,.54-.21.6-1.36.6a1.88,1.88,0,0,0-.18-.48l.61,0c.34,0,.38,0,.38-.14v-.73H182.2v1.31h-.54v-3.86Zm-.55.46H182.2v.62h2.57Zm-2.57,1.67h2.57v-.63H182.2Z"/><path class="cls-4" d="M189,225.8v.93h1.67v.48h-3.84v-.48h1.65v-.93h-1.32v-.48h1.32v-.84l.68.05c0,.05,0,.1-.16.1v.69h1.32v.48Zm.14,2.74a7.84,7.84,0,0,0,.5-1.24l.59.2a.19.19,0,0,1-.18.08,9.06,9.06,0,0,1-.53,1h1v.49H189v1h1.42v.49H189v1.63h-.52v-1.63H187v-.49h1.42v-1h-1.53v-.49h2.35Zm-1.35,0a4.47,4.47,0,0,0-.38-1.14l.43-.11a4.49,4.49,0,0,1,.39,1.11Zm6.07-.54.34.12a.28.28,0,0,1-.05.11,7.24,7.24,0,0,1-.91,2.49,3.68,3.68,0,0,0,1.25,1,2.17,2.17,0,0,0-.38.48,4,4,0,0,1-1.2-1,4.32,4.32,0,0,1-1,.9,1.91,1.91,0,0,0-.38-.37,4.22,4.22,0,0,0,1-1,7,7,0,0,1-.94-2l.45-.12a6.09,6.09,0,0,0,.78,1.6,6.26,6.26,0,0,0,.66-1.75H191.4v3.65h-.53v-7.31h3.22v2.08c0,.6-.3.6-1.43.6a1.81,1.81,0,0,0-.16-.48h.58c.45,0,.48,0,.48-.13v-1.55H191.4V228h2.34Z"/><path class="cls-4" d="M202.07,228h0a.17.17,0,0,1-.12-.05c-.63.21-1.55.55-2.24.85a6.11,6.11,0,0,1,0,.64c0,.27,0,.56,0,.89l-.6,0c0-.3,0-.68,0-1a3.22,3.22,0,0,0,0-.33c-.93.45-1.69,1-1.69,1.5s.57.71,1.71.71a17.55,17.55,0,0,0,2.07-.08v.56c-.48.05-1.23.06-2.08.06-1.59,0-2.29-.38-2.29-1.22s1-1.43,2.2-2.05c-.05-.52-.28-.78-.61-.78a2.77,2.77,0,0,0-2,1.17c-.23.25-.55.57-.91.9l-.41-.41a5.8,5.8,0,0,0,2.09-3h-1.85v-.54h2a11.86,11.86,0,0,0,.22-1.18l.81.1q0,.12-.21.15c0,.33-.13.62-.2.91a10.86,10.86,0,0,0,2.84-.48l.1.56a12.32,12.32,0,0,1-3.1.46,6.13,6.13,0,0,1-.59,1.4h0a2.23,2.23,0,0,1,1.33-.54c.57,0,.92.41,1,1.08.7-.32,1.57-.66,2.23-.91Z"/><path class="cls-4" d="M155.46,238.32V241c.64,1,1.82,1,3.31,1,.9,0,1.95,0,2.59-.07a2.45,2.45,0,0,0-.18.56c-.57,0-1.48,0-2.3,0-1.7,0-2.84,0-3.67-1-.41.36-.85.73-1.2,1,0,.07,0,.1-.08.13l-.32-.61a15.44,15.44,0,0,0,1.31-1v-2.2H153.7v-.53Zm-1.24-3.1a6,6,0,0,1,1.48,1.3l-.43.37a6.19,6.19,0,0,0-1.46-1.34Zm3.25,6.3v-2.9h-1.54v-.51h1.54v-1.93l.69,0c0,.06,0,.09-.16.11v1.77h1.43v.51H158v2.9Zm-1.46-6.1h4.25c0,3.13,0,5.54.51,5.54.13,0,.18-.52.19-1.15a2.12,2.12,0,0,0,.36.37c-.06,1-.17,1.33-.59,1.33-1,0-1-2.11-1-5.57H156Z"/><path class="cls-4" d="M164,238.32V241c.65,1,1.83,1,3.32,1,.89,0,1.94,0,2.59-.07a1.75,1.75,0,0,0-.18.56c-.57,0-1.48,0-2.3,0-1.71,0-2.84,0-3.67-1-.41.36-.85.73-1.2,1,0,.07,0,.1-.08.13l-.32-.61a15.44,15.44,0,0,0,1.31-1v-2.2h-1.22v-.53Zm-1.23-3.1a6,6,0,0,1,1.48,1.3l-.44.37a5.94,5.94,0,0,0-1.45-1.34Zm4,6.45v-2.14a6.15,6.15,0,0,1-2.06,1.86,1.87,1.87,0,0,0-.36-.43,5.43,5.43,0,0,0,2.1-1.75H165v-2h1.84v-.72h-2.29V236h2.29v-1l.7.05c0,.06-.05.1-.16.11v.8h2.46v.49h-2.46v.72h1.92v2h-1.6a6,6,0,0,0,2.15,1.72,2,2,0,0,0-.38.44,7.26,7.26,0,0,1-2.09-1.85v2.15Zm-1.32-4v1.13h1.32v-1.13Zm3.24,0h-1.38v1.13h1.38Z"/><path class="cls-4" d="M172.25,235.62c0,.09-.11.14-.27.13a19.85,19.85,0,0,0-.44,3.73,9.25,9.25,0,0,0,.11,1.63l.63-1.56.34.36c-.33.84-.58,1.31-.7,1.68a1.48,1.48,0,0,0-.06.39.78.78,0,0,0,0,.26l-.59.1a9.17,9.17,0,0,1-.36-2.84,24.65,24.65,0,0,1,.43-4Zm5.27,6-.91,0a11.1,11.1,0,0,1-1.54-.09c-1-.15-1.49-.71-1.49-1.37a2.57,2.57,0,0,1,.78-1.6l.54.23a2,2,0,0,0-.7,1.3c0,1,1.4,1,2.26,1,.35,0,.72,0,1.07,0Zm-3.83-5.06a26.26,26.26,0,0,0,3.61-.31l0,.58a31.13,31.13,0,0,1-3.64.3Z"/><path class="cls-4" d="M179.24,237.93a11.2,11.2,0,0,1-1,1.38,4.51,4.51,0,0,0-.29-.52,11.09,11.09,0,0,0,2.07-3.72l.66.22c0,.06-.09.08-.19.08a17.17,17.17,0,0,1-.76,1.71l.22,0a.16.16,0,0,1-.17.1v5.49h-.53Zm5.13,1.88a10.89,10.89,0,0,1,1.55,2.63l-.53.26a5.68,5.68,0,0,0-.31-.74c-1.63.15-3.36.29-4.47.37a.16.16,0,0,1-.12.11l-.24-.67,1-.05a21.67,21.67,0,0,0,1-3h-1.85v-.55h5.5v.55h-3l.12,0a.21.21,0,0,1-.19.1,24.88,24.88,0,0,1-1,2.82l3.05-.19a14.94,14.94,0,0,0-1-1.48Zm1-4.13v.53H181v-.53Z"/><path class="cls-4" d="M188.28,238.32V241c.64,1,1.85,1,3.41,1,.91,0,2,0,2.61-.06a1.61,1.61,0,0,0-.17.55c-.57,0-1.48,0-2.3,0-1.82,0-3,0-3.78-1-.38.37-.77.73-1.09,1a.13.13,0,0,1-.07.13l-.32-.59c.35-.26.78-.63,1.17-1v-2.25h-1.09v-.53Zm-1.11-3.1a6,6,0,0,1,1.37,1.38l-.46.34a6,6,0,0,0-1.34-1.42Zm4.9,2.92a7.44,7.44,0,0,0,.41-.9h-3.79v-.43h2.43v-.65h-1.86v-.43h1.86V235l.72.05c0,.06-.06.1-.17.12v.56h1.94v.43h-1.94v.65h2.52v.43h-1.47l.41.14c0,.06-.07.08-.16.08-.11.21-.27.52-.42.76h1.54v.43h-2.42v.58h2.07v.42h-2.07v.65h2.47v.43h-2.47v.86h-.55v-.86h-2.34v-.43h2.34v-.65h-1.91v-.42h1.91v-.58H188.9v-.43h1.29a3,3,0,0,0-.4-.85,3.3,3.3,0,0,1,.48-.13,2.87,2.87,0,0,1,.44.9l-.28.08h1.82Z"/><path class="cls-4" d="M114.32,258.39a.16.16,0,0,1-.16.05c-.31.29-.79.69-1.18,1a4.82,4.82,0,0,0,.58.69,10.64,10.64,0,0,0,1.25-1.12l.51.37a.21.21,0,0,1-.18,0,14.24,14.24,0,0,1-1.26,1,5.37,5.37,0,0,0,1.62,1,1.91,1.91,0,0,0-.38.47,5.68,5.68,0,0,1-1.22-.74v.32h-1v1.31h2v.52h-2v1.43c0,.27,0,.31.35.31h1c.28,0,.32-.17.35-1.08a1.81,1.81,0,0,0,.51.23c-.06,1.06-.21,1.36-.82,1.36h-1.13c-.68,0-.85-.17-.85-.82v-1.43h-1.6c-.13.92-.63,1.77-2.3,2.36a1.62,1.62,0,0,0-.35-.44c1.46-.5,1.94-1.19,2.08-1.92H108.2v-.52h2v-1.31h-.93v-.27A6.46,6.46,0,0,1,108,262a2.79,2.79,0,0,0-.35-.42,5.76,5.76,0,0,0,1.72-1.15,12.76,12.76,0,0,0-1.06-.92l.36-.29a8.32,8.32,0,0,1,1,.86,5.48,5.48,0,0,0,.84-1.25h-2.18v-.49h2.49l.09,0a2.94,2.94,0,0,0,.39.19s0,.08-.09.1a6.06,6.06,0,0,1-1.7,2.38h4.07a7.29,7.29,0,0,1-2-2.83l.49-.15a6.1,6.1,0,0,0,.55,1.08,9.06,9.06,0,0,0,1.09-1Zm-2,4.4v-1.31h-1.55v1.31Z"/><path class="cls-4" d="M119.11,263.16s-.08.09-.18.1c-.22,1.19-.7,2-2.65,2.38a1.57,1.57,0,0,0-.31-.48c1.79-.33,2.24-1,2.4-2.08Zm1.83,1.59c0,.24.07.29.45.29h1.32c.34,0,.41-.16.44-1.2a1.72,1.72,0,0,0,.52.23c-.07,1.2-.23,1.5-.92,1.5h-1.41c-.76,0-1-.17-1-.82v-1.9h-3.19v-4.61h5.27v4.61h-1.52Zm-3.21-6v.9h4.17v-.9Zm0,1.36V261h4.17v-.91Zm0,1.36v.93h4.17v-.93Z"/><path class="cls-4" d="M131.76,261.18h-3.22a16.23,16.23,0,0,1-1.41.92h3.46v3.49H130v-.24h-3.42v.28h-.54v-3a16.82,16.82,0,0,1-1.63.72,3.28,3.28,0,0,0-.33-.43,17.55,17.55,0,0,0,3.52-1.76h-3.4v-.49h3v-1.12H125v-.48h2.17v-1.15l.71.05c0,.05-.05.1-.16.11v1h2.15v.28a11.07,11.07,0,0,0,1-1.1l.58.34a.17.17,0,0,1-.14.05h-.08a13.5,13.5,0,0,1-2,2h2.57ZM130,263.47v-.89h-3.42v.89Zm-3.42,1.39H130v-.94h-3.42Zm1.12-4.17h.6a13.24,13.24,0,0,0,1.34-1.12h-1.94Z"/><path class="cls-4" d="M40,191.92l.06.48c-1,.32-2.1.64-2.78.83a.12.12,0,0,1-.09.13l-.26-.61,1.34-.35v-2.13H37.2v-.51h1.09V187.9h-1.2v-.52H40v.52H38.83v1.86h1.06v.51H38.83v2Zm1.73.29s-.06.09-.16.1a2.67,2.67,0,0,1-2.23,2.33,1.73,1.73,0,0,0-.33-.47c1.47-.34,1.88-1,2-2Zm1.37,1.64c0,.2,0,.24.26.24h.71c.19,0,.24-.13.25-1a1.38,1.38,0,0,0,.48.21c0,1-.19,1.27-.68,1.27h-.85c-.57,0-.71-.16-.71-.72v-1.92H40.36v-4.6h3.92v4.6H43.12Zm-2.23-6v.9h2.84v-.9Zm0,1.35v.91h2.84v-.91Zm0,1.37v.92h2.84v-.92Z"/><path class="cls-4" d="M47.07,191.81l.91-.42c0,.05,0,.1.11.49-.85.42-1.76.85-2.34,1.12a.15.15,0,0,1-.09.14l-.27-.62,1.15-.48V189.3h-1v-.54h1V187l.68,0c0,.06,0,.09-.15.11v1.64H48v.54h-.93Zm6-.91H49.62a5.27,5.27,0,0,1-.38.63h3.38l.31,0,0,.16c-.14,1.8-.28,2.45-.5,2.69s-.4.21-.83.21l-.47,0a1.06,1.06,0,0,0-.13-.46c.32,0,.61,0,.74,0s.19,0,.25-.08a4.81,4.81,0,0,0,.39-2.1h-.74A6.12,6.12,0,0,1,50,194.69a2.32,2.32,0,0,0-.42-.32A5.09,5.09,0,0,0,51.14,192h-.87a6.49,6.49,0,0,1-2,2.34,1.86,1.86,0,0,0-.38-.36,5.46,5.46,0,0,0,1.89-2h-.89a5.33,5.33,0,0,1-1.17,1,3.75,3.75,0,0,0-.35-.33,4.89,4.89,0,0,0,1.7-1.79H47.82v-.49h5.29Zm-.6-3.69v2.7H48.68v-2.7ZM52,188.34v-.71H49.18v.71Zm0,1.14v-.72H49.18v.72Z"/><path class="cls-4" d="M61.3,189.34v.42H53.87v-.42h3.41v-.54H54.74v-.39h2.54v-.49H54.35v-.42h2.93V187L58,187c0,.05,0,.09-.16.11v.39h3v.42h-3v.49h2.67v.39H57.85v.54Zm-4.36,4.46s-.08,0-.18,0a14.33,14.33,0,0,1-2.52.79,4.32,4.32,0,0,0-.37-.38,10.71,10.71,0,0,0,2.47-.76Zm3.41-.4H54.92v-3.15h5.43Zm-4.88-2.78v.55h4.32v-.55Zm0,.92v.54h4.32v-.54Zm0,.91V193h4.32v-.57Zm5.21,2.19a17.71,17.71,0,0,0-2.39-.83l.47-.29a24,24,0,0,1,2.55.83Z"/><path class="cls-4" d="M63.26,189.89a8,8,0,0,1-1.07,1.41,4.51,4.51,0,0,0-.29-.52A10.57,10.57,0,0,0,64,187l.68.22a.21.21,0,0,1-.19.09,16,16,0,0,1-.79,1.74l.23.07c0,.06-.06.09-.16.11v5.4h-.55Zm6.54,1.23H67.27v2.68h2.3v.54H64.48v-.54h2.23v-2.68h-2.5v-.54h2.5v-2.21c-.7.12-1.43.24-2.12.33a2.11,2.11,0,0,0-.17-.48,24.35,24.35,0,0,0,4.4-.94l.49.48-.09,0h-.08a14.63,14.63,0,0,1-1.81.47h.11c0,.06,0,.1-.17.12v2.21H69.8Z"/><path class="cls-4" d="M77.93,190.19H74.72c-.46.33-.93.63-1.42.92h3.47v3.49h-.56v-.24H72.8v.28h-.54v-3c-.53.26-1.08.5-1.64.72a2.15,2.15,0,0,0-.33-.43,17.36,17.36,0,0,0,3.53-1.76h-3.4v-.49h3v-1.12H71.19v-.49h2.18V187l.71.05c0,.05-.06.09-.16.11v1h2.15v.29a11,11,0,0,0,1-1.1l.59.34a.17.17,0,0,1-.14,0H77.4a13.57,13.57,0,0,1-2,2h2.57Zm-1.72,2.29v-.89H72.8v.89Zm-3.41,1.39h3.41v-.94H72.8Zm1.12-4.17h.6a13.24,13.24,0,0,0,1.34-1.12H73.92Z"/><path class="cls-4" d="M94.38,189.31h-3a7.59,7.59,0,0,0,3.3,3.48,2.18,2.18,0,0,0-.42.49A8.35,8.35,0,0,1,91,189.76v2.71h1.66V193H91v1.61h-.58V193H88.74v-.56h1.68v-2.7a9,9,0,0,1-3.21,3.53,3.57,3.57,0,0,0-.4-.46,8.12,8.12,0,0,0,3.26-3.53h-3v-.56h3.34V187l.75,0c0,.06,0,.1-.17.12v1.63h3.38Z"/><path class="cls-4" d="M98.56,188.72s-.06.07-.1.09a8.79,8.79,0,0,1-1.19,1.95c.39.26,1.2.86,1.42,1l-.33.47c-.23-.24-.76-.67-1.17-1v3.39h-.55v-3.18a8.46,8.46,0,0,1-1.3,1.08,2.3,2.3,0,0,0-.3-.48,8,8,0,0,0,2.74-3H95.26v-.52h1.38V187l.72.05c0,.05-.06.09-.17.11v1.42h.89l.1,0Zm2.36,5.12h2v.55H98.19v-.55h2.17v-3.58H98.52v-.54h1.84V187l.74.05c0,.06-.06.1-.18.12v2.54h1.83v.54h-1.83Z"/><path class="cls-4" d="M107.83,188.78a.56.56,0,0,1-.56.56.56.56,0,1,1,.56-.56Zm0,4a.55.55,0,0,1-.56.56.56.56,0,1,1,.56-.56Z"/><path class="cls-4" d="M115.82,193.71h3.48v.55h-7.5v-.55h3.44v-3.49h-2.91v-.55h2.91V187l.75.05c0,.06-.06.1-.17.11v2.53h2.94v.55h-2.94Z"/><path class="cls-4" d="M127.44,189.59h-3.09a9.58,9.58,0,0,0,3.36,3.62,2.46,2.46,0,0,0-.43.48,10.78,10.78,0,0,1-3.19-3.53v4.48h-.58v-4.45a9.92,9.92,0,0,1-3.2,3.53,2.59,2.59,0,0,0-.41-.46,9.2,9.2,0,0,0,3.35-3.67h-3.06V189h3.32V187l.75,0c0,.07-.06.11-.17.12V189h3.35Z"/><path class="cls-4" d="M132.93,190.79a.85.85,0,1,1-.85-.85A.85.85,0,0,1,132.93,190.79Z"/><path class="cls-4" d="M138.7,189.87l.32.11a.19.19,0,0,1-.05.1,9.68,9.68,0,0,1-.71,2.79,4.62,4.62,0,0,0,3.44,1h2.55a1.76,1.76,0,0,0-.22.55h-2.34a5,5,0,0,1-3.67-1.06,4,4,0,0,1-1.14,1.29,2.1,2.1,0,0,0-.41-.38,3.81,3.81,0,0,0,1.17-1.33,5.4,5.4,0,0,1-.79-1.65l.44-.18a4.61,4.61,0,0,0,.6,1.32,8.13,8.13,0,0,0,.51-2h-1.06l-.18.34-.51-.14c.43-.79.94-1.84,1.29-2.59h-1.41v-.5h1.73l.11,0,.36.15a.41.41,0,0,1-.07.11c-.26.53-.66,1.37-1.07,2.16h1Zm2.45,0v-.67H138.8v-.46h2.35v-.65h-1.7v-.46h1.7v-.74l.7,0c0,.06,0,.1-.15.11v.58h1.82v1.11h.67v.46h-.67v1.12H141.7v.69h2v.44h-2v.69H144v.46H141.7v.92h-.55v-.92h-2.24v-.46h2.24v-.69h-1.87v-.44h1.87v-.69H139.4v-.45Zm.55-1.78v.65H143v-.65Zm1.27,1.78v-.67H141.7v.67Z"/><path class="cls-4" d="M152.62,192.59h-3a8.7,8.7,0,0,0,3.18,1.33,2.15,2.15,0,0,0-.36.48,8.36,8.36,0,0,1-3.29-1.64v1.87h-.54v-1.87a8.54,8.54,0,0,1-3.26,1.66A2,2,0,0,0,145,194a8.42,8.42,0,0,0,3.13-1.38h-3v-.47h3.44v-.73a3,3,0,0,1-.91.53,1.67,1.67,0,0,0-.37-.38c1.16-.43,1.38-1,1.38-1.57v-.83h2.92v1.73c0,.29,0,.32.19.32h.24c.29,0,.29,0,.31-.87a1.13,1.13,0,0,0,.39.21c0,.84-.06,1.1-.67,1.1h-.39c-.6,0-.6-.31-.6-.79v-1.3h-1.88V190a1.8,1.8,0,0,1-.6,1.4l.69,0c0,.06-.05.1-.16.11v.58h3.48ZM147,188.92a3.68,3.68,0,0,0-.39-.85h-.4a5.18,5.18,0,0,1-.75.89,1.91,1.91,0,0,0-.41-.29,4.92,4.92,0,0,0,1.19-1.76l.64.22a.18.18,0,0,1-.18.06,4,4,0,0,1-.2.42h2.28v.46h-1.65a3.51,3.51,0,0,1,.34.72Zm1.23,2c-1.05.2-2.15.39-2.84.5a.13.13,0,0,1-.1.11l-.21-.55,1.38-.19v-1.19h-1.22v-.43h3v.43H147v1.11l1.23-.18Zm2.5-2a4.33,4.33,0,0,0-.56-.87h-.71a4.45,4.45,0,0,1-.8.82,2.72,2.72,0,0,0-.44-.27,4.19,4.19,0,0,0,1.3-1.71l.64.2s-.07.07-.17.07a3.55,3.55,0,0,1-.23.43h2.95v.46h-2a3.33,3.33,0,0,1,.46.7Zm-1,1a6.89,6.89,0,0,1,1.21.88l-.33.35a6.84,6.84,0,0,0-1.2-.92Z"/><path class="cls-4" d="M158,190.79a.85.85,0,1,1-.85-.85A.85.85,0,0,1,158,190.79Z"/><path class="cls-4" d="M163.56,189a3.85,3.85,0,0,0-.41-.89h-.4a5,5,0,0,1-.75.91,4.33,4.33,0,0,0-.41-.3,4.8,4.8,0,0,0,1.19-1.77l.64.22a.19.19,0,0,1-.18.06c-.06.14-.13.28-.2.42h2.28v.46h-1.61a4.92,4.92,0,0,1,.36.74Zm5.69-1.35v.46h-1.93a3.54,3.54,0,0,1,.47.73l-.49.17a4.44,4.44,0,0,0-.59-.9H166a6.08,6.08,0,0,1-.52.59l.37,0c0,.06-.05.09-.16.11v.52H169v1.56h-.54v-1.11h-6v1.11h-.53v-1.56h3.2v-.48l-.38-.22a4.06,4.06,0,0,0,1.29-1.7l.65.2s-.07.07-.17.07a3.55,3.55,0,0,1-.23.43ZM163.67,192v.62h4.62v2h-.56v-.27h-4.06v.29h-.53v-4.33h4.63V192Zm3.55-1.21h-3.55v.77h3.55Zm.51,2.27h-4.06v.88h4.06Z"/><path class="cls-4" d="M171.71,190.39v2.06l1.12-.34s0,.1.07.48c-1,.31-2,.64-2.62.83a.14.14,0,0,1-.1.13l-.23-.62c.34-.08.76-.2,1.22-.33v-2.21h-1v-.52h1V188h-1.11v-.53h2.73V188h-1.08v1.86h1v.52Zm3.75,3.47h2.32v.51h-5.32v-.51h2.48v-1.28H173v-.51h1.93v-1h-1.88v-3.68h4.34v3.68h-1.94v1h2v.51h-2Zm-1.9-5.94V189h1.38v-1.11Zm0,2.7h1.38v-1.13h-1.38Zm3.32-1.59v-1.11h-1.42V189Zm0,1.59v-1.13h-1.42v1.13Z"/><path class="cls-4" d="M185.89,189.31h-3a7.59,7.59,0,0,0,3.3,3.48,2.23,2.23,0,0,0-.43.49,8.39,8.39,0,0,1-3.23-3.52v2.71h1.65V193h-1.65v1.61h-.58V193h-1.68v-.56h1.68v-2.7a8.93,8.93,0,0,1-3.22,3.53,3.5,3.5,0,0,0-.39-.46,8.12,8.12,0,0,0,3.26-3.53h-3v-.56h3.34V187l.75,0c0,.06-.05.1-.17.12v1.63h3.37Z"/><path class="cls-4" d="M189.32,190.14a10.71,10.71,0,0,0,.53-1.6l.64.18q0,.08-.18.09a12.11,12.11,0,0,1-.52,1.41H191v.51h-4.36v-.51h2.91Zm1.57-2.22v.5h-4v-.5h1.72v-1l.71.05c0,.05-.06.09-.17.11v.81Zm-3.65,6.72V191.5h3.27v3.09H190v-.42h-2.21v.47Zm.63-6a5.78,5.78,0,0,1,.4,1.35l-.49.12a6.06,6.06,0,0,0-.36-1.37ZM190,192h-2.21v1.68H190Zm4-4.58.37.19s0,.06-.08.08c-.31.7-.75,1.6-1.2,2.46.89.84,1.26,1.46,1.26,2.06,0,1.29-.9,1.29-1.44,1.29h-.38a1.25,1.25,0,0,0-.19-.55,4.7,4.7,0,0,0,.52,0c.55,0,1,0,1-.78,0-.54-.41-1.12-1.31-1.94.4-.82.76-1.6,1-2.27h-1.64v6.66h-.54v-7.19h2.54Z"/><path class="cls-4" d="M199,191.49a4.66,4.66,0,0,0,.91,1.28,12.83,12.83,0,0,0,1.85-1.18l.53.38a.21.21,0,0,1-.18,0,19.32,19.32,0,0,1-1.85,1.07,5.81,5.81,0,0,0,2.48,1.09,2,2,0,0,0-.35.49,5.33,5.33,0,0,1-4-3.17h-1.25v2.31l2.26-.38,0,.46-3.59.66a.17.17,0,0,1-.11.12l-.24-.6,1.09-.17v-2.4H195.1V191h1.49v-3.69h5.19v.48h-4.62v.75h4.36V189h-4.36v.75h4.36v.46h-4.36V191h5.42v.51Z"/><path class="cls-4" d="M92.92,200.69l.41.24a.19.19,0,0,1-.11.08A6,6,0,0,1,91,203.63a9.74,9.74,0,0,0,3.33,1,3,3,0,0,0-.36.52A9.17,9.17,0,0,1,90.48,204,11.3,11.3,0,0,1,87,205.17a1.89,1.89,0,0,0-.31-.53,11.31,11.31,0,0,0,3.32-1,6.17,6.17,0,0,1-1.81-2.2l.47-.17H87.35v-.55h2.86v-1.35H86.89v-.55h3.32v-1.31l.73,0c0,.05,0,.1-.16.11v1.15h3.35v.55H90.78v1.35h2.14Zm-4.23.56a5.35,5.35,0,0,0,1.83,2.07,5.24,5.24,0,0,0,2-2.07Z"/><path class="cls-4" d="M99.48,198.59h3.26v.53H96.35v1.66a9.69,9.69,0,0,1-.82,4.4,2.23,2.23,0,0,0-.48-.32,8.69,8.69,0,0,0,.74-4.08v-2.19h3.12v-1.1l.74,0c0,.05-.05.1-.17.11Zm.44.77c0,.06,0,.1-.16.12v.88h2.86v.5H99.76v1.27h2.29v3h-.57v-.31H97.71v.34h-.54v-3.06h2v-2.82Zm1.56,5v-1.71H97.71v1.71Z"/><path class="cls-4" d="M107.8,199.31a.57.57,0,1,1-.56-.56A.56.56,0,0,1,107.8,199.31Zm0,4a.57.57,0,1,1-.56-.55A.55.55,0,0,1,107.8,203.33Z"/><path class="cls-4" d="M117.92,200.69l.42.24a.25.25,0,0,1-.12.08,6,6,0,0,1-2.19,2.62,9.81,9.81,0,0,0,3.33,1,2.5,2.5,0,0,0-.35.52,9.16,9.16,0,0,1-3.53-1.23,11.3,11.3,0,0,1-3.51,1.21,1.89,1.89,0,0,0-.31-.53,11.47,11.47,0,0,0,3.33-1,6.07,6.07,0,0,1-1.81-2.2l.47-.17h-1.3v-.55h2.86v-1.35h-3.32v-.55h3.32v-1.31l.74,0c0,.05-.06.1-.17.11v1.15h3.35v.55h-3.35v1.35h2.14Zm-4.22.56a5.2,5.2,0,0,0,1.83,2.07,5.29,5.29,0,0,0,1.94-2.07Z"/><path class="cls-4" d="M124.49,198.59h3.25v.53h-6.39v1.66a9.69,9.69,0,0,1-.82,4.4,2,2,0,0,0-.48-.32,8.7,8.7,0,0,0,.75-4.08v-2.19h3.12v-1.1l.73,0c0,.05-.05.1-.16.11Zm.43.77c0,.06,0,.1-.16.12v.88h2.87v.5h-2.87v1.27h2.29v3h-.56v-.31h-3.77v.34h-.55v-3.06h2v-2.82Zm1.57,5v-1.71h-3.77v1.71Z"/><path class="cls-4" d="M132.2,202a4.61,4.61,0,0,0,.91,1.27,13.74,13.74,0,0,0,1.85-1.17l.53.38a.21.21,0,0,1-.18,0c-.48.32-1.23.74-1.85,1.07a5.68,5.68,0,0,0,2.48,1.08,2.18,2.18,0,0,0-.35.49,5.32,5.32,0,0,1-4-3.16h-1.25v2.31l2.25-.39,0,.47c-1.32.25-2.72.5-3.59.65a.14.14,0,0,1-.11.12l-.25-.6,1.1-.16V202h-1.49v-.52h1.49v-3.68H135v.48h-4.62v.75h4.36v.46h-4.36v.75h4.36v.47h-4.36v.77h5.42V202Z"/><line class="cls-5" x1="119.9" y1="255.66" x2="119.9" y2="212.56"/><polygon class="cls-6" points="119.9 208.31 122.35 214.3 119.9 212.88 117.46 214.3 119.9 208.31"/><line class="cls-5" x1="152.56" y1="183.88" x2="152.56" y2="153.27"/><polygon class="cls-6" points="152.56 149.02 155 155.01 152.56 153.59 150.11 155.01 152.56 149.02"/><line class="cls-5" x1="149.5" y1="136.66" x2="149.5" y2="45.52"/><polygon class="cls-6" points="149.5 41.27 151.95 47.25 149.5 45.83 147.06 47.25 149.5 41.27"/><line class="cls-5" x1="141.94" y1="41.27" x2="141.94" y2="132.42"/><polygon class="cls-6" points="141.94 136.66 139.49 130.68 141.94 132.1 144.38 130.68 141.94 136.66"/><line class="cls-5" x1="119.88" y1="148.81" x2="119.88" y2="179.63"/><polygon class="cls-6" points="119.88 183.88 117.44 177.89 119.88 179.31 122.33 177.89 119.88 183.88"/><line class="cls-5" x1="45.04" y1="100.64" x2="45.04" y2="179.63"/><polygon class="cls-6" points="45.04 183.88 42.59 177.89 45.04 179.31 47.48 177.89 45.04 183.88"/><line class="cls-5" x1="51.88" y1="183.88" x2="51.88" y2="104.88"/><polygon class="cls-6" points="51.88 100.64 54.32 106.62 51.88 105.2 49.43 106.62 51.88 100.64"/><line class="cls-5" x1="69.08" y1="136.97" x2="56.58" y2="104.6"/><polygon class="cls-6" points="55.05 100.64 59.49 105.34 56.7 104.89 54.93 107.1 55.05 100.64"/><rect class="cls-7" x="0.14" y="0.14" width="239.53" height="277.51"/></g></g></svg>