<svg xmlns="http://www.w3.org/2000/svg" viewBox="0 0 499.2 108.31"><defs><style>.cls-1{fill:#d1eae7;}.cls-2{fill:#fff;}.cls-3{fill:#231815;}.cls-4,.cls-6{fill:none;stroke:#1cb3ac;stroke-miterlimit:10;}.cls-4{stroke-width:0.59px;}.cls-5{fill:#e1f1f0;}.cls-6{stroke-width:0.71px;}.cls-7{fill:#1cb3ac;}</style></defs><g id="レイヤー_2" data-name="レイヤー 2"><g id="レイヤー_2-2" data-name="レイヤー 2"><path class="cls-1" d="M328.27,108H11.89A11.88,11.88,0,0,1,0,96.08V12.14A11.89,11.89,0,0,1,11.89.25H328.27a11.89,11.89,0,0,1,11.89,11.89V96.08A11.89,11.89,0,0,1,328.27,108"/><path class="cls-2" d="M152.11,101.33H55.73a8.5,8.5,0,0,1-8.5-8.5v-17a8.49,8.49,0,0,1,8.5-8.5h96.38a8.5,8.5,0,0,1,8.5,8.5v17a8.51,8.51,0,0,1-8.5,8.5"/><path class="cls-3" d="M429.37,9.75s0,.07-.09.08a10,10,0,0,1-1.15,2.58c.34.2.72.44,1,.65l-.33.51c-.28-.21-.68-.47-1-.67A7.44,7.44,0,0,1,425,15.27a1.53,1.53,0,0,0-.43-.41,7.45,7.45,0,0,0,2.76-2.24,12.81,12.81,0,0,0-1.72-.82l.3-.43a12.67,12.67,0,0,1,1.75.79,7.61,7.61,0,0,0,.94-2.07H426a8.3,8.3,0,0,1-1.8,2.14,4.41,4.41,0,0,0-.45-.35,8.05,8.05,0,0,0,2.46-3.51l.74.17a.18.18,0,0,1-.21.1c-.11.26-.29.64-.44.93h2.59l.11,0Z"/><path class="cls-3" d="M435.94,9.23a.15.15,0,0,1-.1.09A11.89,11.89,0,0,1,434.28,12a29.81,29.81,0,0,1,2.86,2.64l-.48.42a24.94,24.94,0,0,0-2.73-2.62,12.56,12.56,0,0,1-3,2.62,2.65,2.65,0,0,0-.4-.43,11.1,11.1,0,0,0,4.57-5.09h-3.83V9h4.13l.1,0Z"/><path class="cls-3" d="M443.73,9.91l-.12.11a8.2,8.2,0,0,1-4.25,5.24,2,2,0,0,0-.4-.43,7.3,7.3,0,0,0,4-4.62h-2.78a7.78,7.78,0,0,1-1.75,1.93,2.74,2.74,0,0,0-.44-.36,7.94,7.94,0,0,0,2.49-3.38l.74.21c0,.08-.13.1-.23.1a10,10,0,0,1-.5,1h2.75l.09,0Z"/><path class="cls-3" d="M450.81,9.43a.14.14,0,0,1-.1.08A6.88,6.88,0,0,1,446,15.12a5.46,5.46,0,0,0-.36-.45A6.19,6.19,0,0,0,450,9.78h-5.1V9.25h5.31l.1-.07Z"/><path class="cls-3" d="M457.4,11.63h-1.86l0,2.9c0,.67-.57.69-1.45.67a2.93,2.93,0,0,0-.11-.42c.39,0,.74,0,.85,0a.28.28,0,0,0,.25-.25l0-2.48a8.2,8.2,0,0,1-2.62,2.3,1.5,1.5,0,0,0-.31-.35,7.6,7.6,0,0,0,2.67-2.36h-2.41v-.45h2.66V9.79l.62,0c0,.07-.07.11-.15.12v1.24h1.87Z"/><path class="cls-3" d="M458.86,11.42h6.51V12h-6.21a.38.38,0,0,1-.25.15Z"/><path class="cls-3" d="M471,9.23a.18.18,0,0,1-.1.09A11.89,11.89,0,0,1,469.34,12a28.56,28.56,0,0,1,2.85,2.64l-.47.42A25,25,0,0,0,469,12.44a12.5,12.5,0,0,1-3,2.62,2.74,2.74,0,0,0-.41-.43,11.1,11.1,0,0,0,4.57-5.09h-3.83V9h4.14l.1,0Z"/><rect class="cls-4" x="396.85" y="0.3" width="102.05" height="107.72" rx="11.89"/><path class="cls-5" d="M473.39,44.64h-51a8.51,8.51,0,0,1-8.5-8.5V30.47a8.51,8.51,0,0,1,8.5-8.51h51a8.51,8.51,0,0,1,8.5,8.51v5.67a8.51,8.51,0,0,1-8.5,8.5"/><path class="cls-3" d="M426.54,31.5a11.73,11.73,0,0,1,2.1.71l-.24.49a11.6,11.6,0,0,0-2.09-.72Zm.47,3.82a8.12,8.12,0,0,0,5.3-4.54c.12.1.36.26.47.34a8.54,8.54,0,0,1-5.24,4.61.21.21,0,0,1-.1.2Zm.39-5.75a12.36,12.36,0,0,1,2.09.77l-.26.47a12.77,12.77,0,0,0-2.07-.79Z"/><path class="cls-3" d="M438.48,30.07a.15.15,0,0,1-.1.09,12.12,12.12,0,0,1-1.56,2.68,29.81,29.81,0,0,1,2.86,2.64l-.48.41a24.93,24.93,0,0,0-2.74-2.61,12.08,12.08,0,0,1-3,2.61,3.1,3.1,0,0,0-.4-.42,11.21,11.21,0,0,0,4.57-5.09H433.8v-.53h4.13l.1,0Z"/><path class="cls-3" d="M446.78,32.33h-2.63l.13,0a.14.14,0,0,1-.15.09A4.24,4.24,0,0,1,441.72,36a5.36,5.36,0,0,0-.42-.39,3.7,3.7,0,0,0,2.25-3.31h-3v-.52h6.26Zm-.77-2.2h-4.78v-.52H446Z"/><path class="cls-3" d="M453.46,35.86a7.07,7.07,0,0,0-.41-.83c-1.62.17-4.29.34-5.48.4a.21.21,0,0,1-.15.15l-.21-.7.82,0c.51-1.5,1.26-3.83,1.68-5.39l.76.21c0,.07-.11.1-.23.1-.42,1.44-1.09,3.53-1.63,5.06,1.29-.06,3.14-.19,4.17-.28a14.23,14.23,0,0,0-1.39-1.91l.47-.26A15.61,15.61,0,0,1,454,35.61Z"/><path class="cls-3" d="M461.41,34.16h-1.6a3,3,0,0,0,2,1.72,1.39,1.39,0,0,0-.31.45,3.39,3.39,0,0,1-2.11-1.87,3.25,3.25,0,0,1-2.29,1.86,1.93,1.93,0,0,0-.3-.39c1.42-.46,2-1.09,2.17-1.77h-1.62v-2h1.73v-.77h-1.24V31a6.68,6.68,0,0,1-.67.41c0-.05-.06-.11-.09-.17h-.88v.64c.23.29.83,1.16,1,1.37l-.3.42a12.45,12.45,0,0,0-.67-1.18v3.78h-.5V32.47a8.8,8.8,0,0,1-1,2.31,3.58,3.58,0,0,0-.29-.46,9.34,9.34,0,0,0,1.26-3.07H454.6v-.49h1.14V29l.65.05s-.05.08-.15.1v1.57h.88v.15a5.33,5.33,0,0,0,2-1.85l.66,0c0,.05-.05.08-.1.09a6,6,0,0,0,2.21,1.77,3.14,3.14,0,0,0-.28.46,6.6,6.6,0,0,1-.7-.43v.41h-1.31v.77h1.8Zm-3.56-.43h1.25a3.39,3.39,0,0,0,0-.45v-.7h-1.27Zm3-2.81a6.55,6.55,0,0,1-1.47-1.39A5.84,5.84,0,0,1,458,30.92Zm.08,1.66h-1.32v.72c0,.14,0,.29,0,.43h1.34Z"/><path class="cls-3" d="M462.3,30.8v-.43h3.11v.43Zm2.8,2.75v2.29h-2v.37h-.47V33.55Zm-2.43-1.69v-.43h2.45v.43Zm0,1.06v-.43h2.45v.43Zm2.45-3.59v.43h-2.41v-.43Zm-.5,4.66h-1.49V35.4h1.49Zm4.95-3.1v.51h-1v4.14c0,.39-.1.55-.34.64a4.63,4.63,0,0,1-1.39.11,2.22,2.22,0,0,0-.2-.56l.86,0c.51,0,.55,0,.55-.21V31.4h-2.55v-.51h2.55V29.05l.67,0c0,.06,0,.09-.15.11v1.69Zm-3.2,1.35a8.07,8.07,0,0,1,1,1.85l-.46.24a9.56,9.56,0,0,0-1-1.87Z"/><path class="cls-5" d="M473.39,73h-51a8.51,8.51,0,0,1-8.5-8.51V58.81a8.51,8.51,0,0,1,8.5-8.5h51a8.51,8.51,0,0,1,8.5,8.5v5.67a8.51,8.51,0,0,1-8.5,8.51"/><path class="cls-5" d="M473.39,101.33h-51a8.5,8.5,0,0,1-8.5-8.5V87.16a8.5,8.5,0,0,1,8.5-8.5h51a8.5,8.5,0,0,1,8.5,8.5v5.67a8.5,8.5,0,0,1-8.5,8.5"/><path class="cls-3" d="M431.26,92a.21.21,0,0,1-.18,0,9.67,9.67,0,0,1-2,1,2.94,2.94,0,0,0-.36-.34,7.44,7.44,0,0,0,2-1Zm2.57-2.16c0,.05-.09.06-.17.06a20.48,20.48,0,0,1-2,1.26l2.66,0a8.09,8.09,0,0,0-.91-.49l.35-.29a9,9,0,0,1,2,1.23l-.36.33a5.07,5.07,0,0,0-.51-.4l-2.35.06v1.67H432V91.61l-2.84.07a.14.14,0,0,1-.12.1l-.19-.56h1.95a3.47,3.47,0,0,0,.37-.21,10.9,10.9,0,0,0-1.52-.83l.35-.3.58.27a9.11,9.11,0,0,0,.92-.72h-2v.28H429V86.3h3.22v.41h-1.32v.48h1.15v1.33h-1.15V89h1.37v.4H432l.24.13s-.08,0-.17,0c-.28.22-.7.52-1.07.75a6.16,6.16,0,0,1,.65.4,15.32,15.32,0,0,0,1.69-1.17Zm-3.35-3.17h-1v.48h1Zm1.11,1.45v-.6h-2.07v.6Zm-2.07.36V89h1v-.5Zm5.78-2.12.31.12a.16.16,0,0,1-.06.08,4.49,4.49,0,0,1-1.13,2,4.29,4.29,0,0,0,1.49.76,2.53,2.53,0,0,0-.33.42,4.38,4.38,0,0,1-1.52-.86,5.27,5.27,0,0,1-1.43.79,1.76,1.76,0,0,0-.27-.4,4.21,4.21,0,0,0,1.35-.72,4.84,4.84,0,0,1-1-1.55l.44-.12a4.08,4.08,0,0,0,.88,1.36,3.93,3.93,0,0,0,.9-1.38h-2.47v-.45h2.81Zm0,6.69a8.53,8.53,0,0,0-1.92-1l.38-.3a9.34,9.34,0,0,1,1.95,1Z"/><path class="cls-3" d="M437.52,88.35V88.2c-.2.17-.42.34-.65.5a1.52,1.52,0,0,0-.38-.38A5.86,5.86,0,0,0,438.63,86l.67.11c0,.06-.07.09-.16.09l-.25.43h2.26l.08,0,.41.27a.2.2,0,0,1-.11.06,9.19,9.19,0,0,1-.65,1h1.73v2.75h-3a4.51,4.51,0,0,1,1.26.74l-.35.38a5,5,0,0,0-1.44-.86l.25-.26h-2v-.46h4.75v-.71h-4.51V89h4.51v-.69Zm.55,3A2.83,2.83,0,0,1,436.92,93l-.43-.32a2.59,2.59,0,0,0,1.1-1.5Zm2.2-3.45a8.64,8.64,0,0,0,.57-.83h-2.27a8.51,8.51,0,0,1-.71.83Zm-1.22,4.54c0,.2.07.24.47.24h1.36c.34,0,.4-.11.43-.92a1.44,1.44,0,0,0,.46.19c-.06,1-.22,1.19-.84,1.19h-1.45c-.76,0-.94-.15-.94-.69V91.25l.66,0c0,.06-.05.1-.15.11Zm4.2.54a7.36,7.36,0,0,0-1.45-1.64l.43-.25a7.47,7.47,0,0,1,1.48,1.6Z"/><path class="cls-3" d="M446.75,86.53v5.16H445v.63h-.5V86.53Zm-.49.48H445v1.84h1.22ZM445,91.21h1.22V89.32H445Zm4.4-2.68h2.05V89h-4.6v-.47h2V87.46h-1.7V87h1.7V86l.67,0c0,.06-.06.1-.16.11V87h1.74v.47h-1.74Zm1.24.69s0,.09-.15.1V90h1v.47h-1v2.18c0,.32-.07.47-.31.55a4.89,4.89,0,0,1-1.28.08,1.62,1.62,0,0,0-.18-.49l.78,0c.44,0,.48,0,.48-.17V90.46h-3.1V90H450v-.81Zm-2.22,3.24a6.29,6.29,0,0,0-1-1.41l.42-.25a6,6,0,0,1,1.05,1.37Z"/><path class="cls-3" d="M452.81,88.67c.42.44.87,1,1.28,1.46a10.75,10.75,0,0,0,.52-2.1l.65.13c0,.06-.07.09-.17.1a10.51,10.51,0,0,1-.65,2.33,11.7,11.7,0,0,1,.9,1.38l-.43.36a9.46,9.46,0,0,0-.72-1.2,5.19,5.19,0,0,1-1.84,2,2.51,2.51,0,0,0-.33-.4,4.7,4.7,0,0,0,1.84-2.09c-.44-.59-.95-1.2-1.42-1.72Zm3-1.31v.5h-3.78v-.5h1.65V86l.65,0c0,.06-.05.1-.15.11v1.19Zm3.44.59v.5h-1v4.07c0,.72-.4.73-1.62.73a1.91,1.91,0,0,0-.18-.54h.69c.57,0,.59,0,.59-.18V88.45h-2.21V88h2.21V86l.68,0c0,.06-.06.1-.16.11V88Zm-3.13,1.37a6.2,6.2,0,0,1,.89,1.76l-.46.23a6.75,6.75,0,0,0-.86-1.79Z"/><path class="cls-3" d="M467,87.56h-6v1.56a9.13,9.13,0,0,1-.77,4.15,2,2,0,0,0-.45-.31,8.18,8.18,0,0,0,.7-3.84V87.06h2.94V86l.69,0c0,.06,0,.1-.15.11v.89H467ZM462.31,90a6.92,6.92,0,0,1-.74,2.54l-.47-.23a6.08,6.08,0,0,0,.73-2.42Zm1.08,2.44c0,.26.05.3.37.3h1.06c.32,0,.38-.2.41-1.38a1.44,1.44,0,0,0,.47.22c-.06,1.3-.2,1.65-.84,1.65H463.7c-.65,0-.83-.18-.83-.79v-3l.67,0c0,.06-.05.1-.15.11Zm0-4.65a10.46,10.46,0,0,1,2,1.17l-.38.39A10.76,10.76,0,0,0,463,88.1Zm3.27,4.77A8.85,8.85,0,0,0,465.51,90l.47-.19a8.13,8.13,0,0,1,1.16,2.55Z"/><path class="cls-3" d="M427.84,61.07a6.44,6.44,0,0,1-1.46,2.3l-.46-.29a5.36,5.36,0,0,0,1.41-2.2Zm1.67-1.2v3.66c0,.85-.61.85-1.86.85a3.44,3.44,0,0,0-.16-.53h1.14a.29.29,0,0,0,.32-.32V59.87H426.3v-.53H429V57.7l.74,0c0,.08-.06.14-.18.15v1.46h2.64v.53Zm1.4,1a15,15,0,0,1,1.64,2.27l-.5.29a14.33,14.33,0,0,0-1.59-2.31Zm1-3.59a.87.87,0,0,1,0,1.74.87.87,0,1,1,0-1.74Zm.61.87a.62.62,0,1,0-.61.62A.62.62,0,0,0,432.53,58.1Z"/><path class="cls-3" d="M434.22,61.93V58.14l.74,0c0,.07-.06.12-.19.14v3.6Zm4.34-4.09c0,.07-.06.11-.19.13v2.48a3.89,3.89,0,0,1-2.8,4,2,2,0,0,0-.4-.42,3.48,3.48,0,0,0,2.64-3.58V57.79Z"/><path class="cls-3" d="M440.24,59.85a11.46,11.46,0,0,1,2.1.71l-.23.49a12,12,0,0,0-2.1-.72Zm.47,3.82a8.1,8.1,0,0,0,5.3-4.54c.12.1.36.26.48.34a8.55,8.55,0,0,1-5.25,4.61.19.19,0,0,1-.09.2Zm.39-5.75a12.36,12.36,0,0,1,2.09.77l-.26.47a12.64,12.64,0,0,0-2.06-.79Z"/><path class="cls-3" d="M447.45,60.6H454v.56h-6.21a.37.37,0,0,1-.25.14Z"/><path class="cls-3" d="M458.8,61.41V62a6.49,6.49,0,0,0,3.44,1.93,2.66,2.66,0,0,0-.35.46,7.31,7.31,0,0,1-3.09-1.76v2h-.53v-2a7.1,7.1,0,0,1-3,1.76,2,2,0,0,0-.33-.43,6.44,6.44,0,0,0,3.36-2v-.59h-1.92v1.53h-.52v-2h2.44v-.59h-3.21v-.48h3.21v-.49l-.38-.27a4.21,4.21,0,0,0,1.27-1.75l.6.19c0,.05-.07.07-.15.07-.07.16-.16.32-.25.49h2.79v.42h-1.86a4.85,4.85,0,0,1,.49.78l-.48.17a4.41,4.41,0,0,0-.58-.95h-.63a5.59,5.59,0,0,1-.58.68l.44,0c0,.06-.05.09-.15.11v.53h3.26v.48H458.8v.59h2.52v1.53c0,.5-.27.5-1.11.5a2.37,2.37,0,0,0-.17-.41h.41c.31,0,.34,0,.34-.1V61.41Zm-2.05-2a6.13,6.13,0,0,0-.34-.9h-.36a5.1,5.1,0,0,1-.73,1,2.42,2.42,0,0,0-.41-.27,5.09,5.09,0,0,0,1.16-1.88l.59.19c0,.05-.07.08-.16.07l-.22.49h2.16v.42h-1.51a3.6,3.6,0,0,1,.3.76Z"/><path class="cls-3" d="M466.6,62.2v1.7A7.24,7.24,0,0,0,468,64h2a1.42,1.42,0,0,0-.2.53h-1.83c-1.67,0-2.89-.29-3.61-1.69a4.06,4.06,0,0,1-1.23,1.83,2.3,2.3,0,0,0-.4-.34,4.64,4.64,0,0,0,1.49-3.28l.67.11c0,.05-.06.09-.15.09-.05.31-.11.62-.18.91a2.49,2.49,0,0,0,1.54,1.59V60.32h-2v-.5h4.59v.5H466.6V61.7H469v.5Zm-3-3.36V60h-.51V58.34h3v-1l.71,0s-.05.09-.16.11v.8h3V60h-.54V58.84Z"/><path class="cls-3" d="M98.59,79.8v.42h-.82v1.42h-.53v-.36h-2v.53c0,.35-.11.49-.34.57a5.21,5.21,0,0,1-1.32.08,1.79,1.79,0,0,0-.19-.46l.79,0c.48,0,.53,0,.53-.2v-.54h-2.6v-.42h2.6v-.64H91.46V79.8h3.27v-.6H92.2v-.39h2.53v-.53h-2.3v-1.5h2.3v-.49H91.6v-.45h3.13v-.65l.67,0c0,.06,0,.1-.14.11v.5h3.18v.45H95.26v.49h2.4v1.5h-2.4v.53h2.51v1Zm-5.65-1.9h1.79v-.74H92.94Zm4.18-.74H95.26v.74h1.86Zm-1.86,2v.6h2v-.6Zm2,1.66v-.64h-2v.64Z"/><path class="cls-3" d="M106.32,76.51h-.65a4.34,4.34,0,0,1-1,1.5,5.07,5.07,0,0,0,1.75.84,2.18,2.18,0,0,0-.33.45,5.45,5.45,0,0,1-1.78-1,5.79,5.79,0,0,1-1.85,1,2.72,2.72,0,0,0-.24-.34,5.42,5.42,0,0,1-.39.93l-.37-.19a8.58,8.58,0,0,0,.46-1.31h-.82v3.37c0,.56-.26.6-1.22.6a1.65,1.65,0,0,0-.17-.5l.55,0c.31,0,.34,0,.34-.12V79.09a6.45,6.45,0,0,1-1.2,2,2.25,2.25,0,0,0-.28-.47,6.27,6.27,0,0,0,1.3-2.22H99.22V78h2.18a7.25,7.25,0,0,0-1.79-1.13l.33-.34a8,8,0,0,1,.77.39,5.27,5.27,0,0,0,.91-.85h-2.3v-.46H102l.09,0,.39.24s-.07.06-.1.07a6.69,6.69,0,0,1-1.29,1.25,4.62,4.62,0,0,1,.68.5l-.32.35h.79l.28,0a8.78,8.78,0,0,1-.25.92A5.52,5.52,0,0,0,104,78a4.86,4.86,0,0,1-.8-1,5.9,5.9,0,0,1-.59.69,3.51,3.51,0,0,0-.42-.31,5.22,5.22,0,0,0,1.35-2.16l.63.19c0,.05-.07.08-.16.07a3.79,3.79,0,0,1-.26.59h2.58Zm-.62,3.24.31.06a.32.32,0,0,1,0,.16c-.14,1.46-.28,2-.49,2.25s-.35.2-.81.2h-.55a1.22,1.22,0,0,0-.15-.49c.35,0,.68,0,.8,0a.38.38,0,0,0,.28-.08,3.61,3.61,0,0,0,.37-1.66h-1.27a3.26,3.26,0,0,1-2,2.24,1.44,1.44,0,0,0-.31-.4,2.8,2.8,0,0,0,1.73-1.84h-1.21v-.46h1.33a7.73,7.73,0,0,0,.13-.84l.67.07c0,.06-.07.09-.16.1,0,.23-.07.45-.11.67h1.43Zm-2.21-3.24,0,0a4.36,4.36,0,0,0,.88,1.14,3.72,3.72,0,0,0,.78-1.19Z"/><path class="cls-3" d="M113.47,78.31l.3,0s0,.11,0,.17c-.1,2.5-.2,3.37-.44,3.66s-.43.25-.9.25l-.7,0a1.31,1.31,0,0,0-.15-.5c.44,0,.84,0,1,0s.23,0,.3-.11.28-1,.37-3h-5a7.36,7.36,0,0,1-1,3.44,1.7,1.7,0,0,0-.42-.34,7.9,7.9,0,0,0,1-4.4V75.62h5.43v2h-4.91c0,.23,0,.47,0,.72h5.17Zm-.78-2.23h-4.38v1.06h4.38ZM112,81.46H109.5v.46H109V79.45h3Zm-.49-1.57h-2V81h2Z"/><path class="cls-3" d="M77.65,86.57a4.71,4.71,0,0,0-1.55,3.59,4.66,4.66,0,0,0,1.55,3.58v0h-.47a5.15,5.15,0,0,1,0-7.25h.47Z"/><path class="cls-3" d="M79,88.13a4.14,4.14,0,0,1-.45,2l-.39-.22a4.07,4.07,0,0,0,.42-1.87Zm.3-1.6.67,0s0,.09-.15.1v7.09h-.52Zm1.2,2.53A8.55,8.55,0,0,0,80,87.91l.36-.18a5.91,5.91,0,0,1,.58,1.1Zm2.74.1h2.18v.44H80.6v-.44h2.1v-.57H81.18v-.41H82.7v-.53H80.87v-.42H82.7v-.7l.71,0s0,.09-.16.11v.54h1.9v.42h-1.9v.53h1.58v.41H83.25Zm1.47,1v3.1c0,.51-.2.56-1.28.56a2.07,2.07,0,0,0-.17-.45h.57c.32,0,.36,0,.36-.12v-.69H81.78v1.24h-.51V90.12Zm-.52.43H81.78v.59H84.2Zm-2.42,1.58H84.2v-.59H81.78Z"/><path class="cls-3" d="M88.07,87.79v.87h1.56v.46H86v-.46h1.56v-.87H86.33v-.46h1.25v-.79l.64,0c0,.06,0,.1-.15.11v.64h1.24v.46Zm.13,2.58a8.41,8.41,0,0,0,.47-1.17l.55.19s-.08.07-.16.07a10,10,0,0,1-.5,1h.93v.46H88.06v.9h1.33v.46H88.06v1.54h-.49V92.25H86.23v-.46h1.34v-.9H86.13v-.46h2.21Zm-1.28,0a4.08,4.08,0,0,0-.36-1.07L87,89.2a4,4,0,0,1,.37,1Zm5.72-.51L93,90a.37.37,0,0,1,0,.11,6.67,6.67,0,0,1-.86,2.34,3.51,3.51,0,0,0,1.18.9,2.22,2.22,0,0,0-.36.45,3.74,3.74,0,0,1-1.12-.91,4.37,4.37,0,0,1-.92.85,1.33,1.33,0,0,0-.36-.35,3.81,3.81,0,0,0,1-.92,6.47,6.47,0,0,1-.89-1.85l.43-.11A5.44,5.44,0,0,0,91.72,92a5.83,5.83,0,0,0,.61-1.65h-2v3.44h-.49V86.9h3v2c0,.56-.28.56-1.34.56a2,2,0,0,0-.16-.45h.55c.43,0,.46,0,.46-.13V87.39h-2v2.5h2.21Z"/><path class="cls-3" d="M94.12,89a11.21,11.21,0,0,1,2.1.71l-.23.49a11.71,11.71,0,0,0-2.1-.72Zm.47,3.82a8.07,8.07,0,0,0,5.3-4.54c.12.1.36.26.48.34a8.55,8.55,0,0,1-5.25,4.61.17.17,0,0,1-.09.19ZM95,87.06a13.3,13.3,0,0,1,2.09.76l-.26.48a12.64,12.64,0,0,0-2.06-.79Z"/><path class="cls-3" d="M106.07,87.56a.16.16,0,0,1-.1.08,12.59,12.59,0,0,1-1.56,2.69A28.47,28.47,0,0,1,107.26,93l-.48.41a25.92,25.92,0,0,0-2.73-2.62,12.08,12.08,0,0,1-3,2.62,4,4,0,0,0-.41-.42,11.15,11.15,0,0,0,4.57-5.09h-3.83v-.53h4.13l.1,0Z"/><path class="cls-3" d="M114.37,89.82h-2.64l.14,0s-.07.08-.16.09a4.24,4.24,0,0,1-2.41,3.57,3.17,3.17,0,0,0-.42-.39,3.72,3.72,0,0,0,2.25-3.31h-3V89.3h6.27Zm-.77-2.2h-4.79V87.1h4.79Z"/><path class="cls-3" d="M121.06,93.34c-.12-.26-.26-.54-.42-.82-1.62.17-4.28.33-5.48.4a.21.21,0,0,1-.14.15l-.22-.7.82,0c.52-1.5,1.26-3.83,1.69-5.39l.75.2a.22.22,0,0,1-.22.11c-.43,1.44-1.1,3.53-1.64,5.06,1.29-.06,3.14-.19,4.17-.29a12.75,12.75,0,0,0-1.39-1.9l.47-.26a15.17,15.17,0,0,1,2.15,3.22Z"/><path class="cls-3" d="M124.62,89.54a10.69,10.69,0,0,0,.5-1.51l.6.18s-.07.07-.16.07a12.14,12.14,0,0,1-.5,1.34h1.17v.48h-4.11v-.48h2.74Zm1.47-2.09v.47h-3.77v-.47h1.62v-.91l.66,0s0,.09-.15.11v.76Zm-3.44,6.34v-3h3.09v2.91h-.51v-.4h-2.08v.45Zm.6-5.68a5.46,5.46,0,0,1,.38,1.27l-.46.11a5.82,5.82,0,0,0-.34-1.28Zm2,3.18h-2.08v1.59h2.08ZM129,87l.35.17a.11.11,0,0,1-.07.08c-.3.66-.71,1.51-1.14,2.32.84.79,1.19,1.38,1.19,1.94,0,1.22-.85,1.22-1.35,1.22h-.36a1.2,1.2,0,0,0-.18-.52,4,4,0,0,0,.48,0c.52,0,.9,0,.9-.74,0-.5-.38-1-1.23-1.83.38-.77.71-1.5,1-2.14H127v6.28h-.51V87h2.39Z"/><path class="cls-3" d="M129.9,93.74a4.94,4.94,0,0,0,0-7.17v0h.46a5.15,5.15,0,0,1,0,7.25h-.46Z"/><line class="cls-6" x1="187.58" y1="23.86" x2="209.44" y2="23.86"/><path class="cls-2" d="M180.45,40.87H27.38a8.51,8.51,0,0,1-8.5-8.51v-17a8.51,8.51,0,0,1,8.5-8.51H180.45A8.51,8.51,0,0,1,189,15.36v17a8.51,8.51,0,0,1-8.51,8.51"/><path class="cls-2" d="M312.72,40.87H216.34a8.5,8.5,0,0,1-8.5-8.51v-17a8.5,8.5,0,0,1,8.5-8.51h96.38a8.5,8.5,0,0,1,8.5,8.51v17a8.5,8.5,0,0,1-8.5,8.51"/><path class="cls-3" d="M95.28,18.44h-.51v0h-.12l-.42.66h4.39v.46H97a3.31,3.31,0,0,1-1,1.22,23,23,0,0,1,2.4.77l-.32.43a21.73,21.73,0,0,0-2.61-.85,9.37,9.37,0,0,1-3.68.87,1.59,1.59,0,0,0-.21-.48,10.27,10.27,0,0,0,3.15-.57c-.5-.12-1-.24-1.55-.34l-.19.25-.48-.18c.23-.3.52-.7.82-1.12H91.46v-.46h2.17c.21-.31.4-.63.57-.9l.57.16V16.82a7.71,7.71,0,0,1-3.06,1.84,2.12,2.12,0,0,0-.33-.41,7.6,7.6,0,0,0,2.75-1.43H91.52v-.46h3.25v-.85c-.86.07-1.74.11-2.55.14a1.66,1.66,0,0,0-.12-.42,30.35,30.35,0,0,0,5.13-.5l.41.41s0,0-.08,0h-.07a20.61,20.61,0,0,1-2.21.31v.89h3.28v.46H95.93a7.65,7.65,0,0,0,2.76,1.35,2.06,2.06,0,0,0-.35.43,7.59,7.59,0,0,1-3-1.78h0ZM93.45,20.2c.64.12,1.28.26,1.9.41a3,3,0,0,0,1-1.07H93.91Z"/><path class="cls-3" d="M102,21a.3.3,0,0,1-.16.05,9.33,9.33,0,0,1-2.3.92,2.78,2.78,0,0,0-.38-.39,8.11,8.11,0,0,0,2.3-.9Zm-2-3.72h5.58v3.38H100Zm.44-2.24h4.68v1.75h-4.68Zm.08,2.63v.6H105v-.6Zm0,1v.6H105v-.6Zm0,1v.61H105v-.61Zm.45-4.17v.87h3.61v-.87Zm5,6.51a19.74,19.74,0,0,0-2.5-.95l.46-.34a25.6,25.6,0,0,1,2.48.9Z"/><path class="cls-3" d="M110.54,19a4.46,4.46,0,0,0,.86,1.2,13.54,13.54,0,0,0,1.75-1.11l.5.36a.21.21,0,0,1-.18,0c-.45.3-1.15.7-1.73,1a5.19,5.19,0,0,0,2.33,1,2.25,2.25,0,0,0-.33.46A5,5,0,0,1,110,19h-1.18v2.17c.68-.11,1.42-.23,2.13-.36l0,.44c-1.24.24-2.57.48-3.39.62a.12.12,0,0,1-.1.11l-.23-.57,1-.15V19h-1.41v-.49h1.41V15.05h4.89v.45h-4.36v.71H113v.43h-4.12v.71H113v.44h-4.12v.73H114V19Z"/><path class="cls-3" d="M41.77,26.1a4.71,4.71,0,0,0-1.55,3.59,4.66,4.66,0,0,0,1.55,3.58v0H41.3a5.15,5.15,0,0,1,0-7.25h.47Z"/><path class="cls-3" d="M49.48,29.57H45.62v3.74h-.51V32.4c-.93.14-1.85.27-2.46.34a.1.1,0,0,1-.11.1l-.18-.54.75-.08V29.57H42.4v-.44h7.08Zm-1-3.17v2.22h-5V26.4Zm-3.35,3.72v-.55H43.6v.55Zm0,1v-.57H43.6v.57Zm-1.51.4v.67L45.11,32V31.5Zm4.34-4.18v-.53h-4v.53Zm0,.92v-.55h-4v.55Zm.86,1.84.33.14a.31.31,0,0,1-.07.09A4.61,4.61,0,0,1,48,32.13a4.24,4.24,0,0,0,1.6.76,2.06,2.06,0,0,0-.32.41,4.5,4.5,0,0,1-1.64-.85,5.3,5.3,0,0,1-1.53.87,2,2,0,0,0-.3-.41,4.7,4.7,0,0,0,1.47-.8,4.23,4.23,0,0,1-.95-1.48l.3-.09h-.74V30.1H48.7Zm-2.08.46a3.81,3.81,0,0,0,.86,1.27,4.16,4.16,0,0,0,.87-1.27Z"/><path class="cls-3" d="M54,26.83h3.22v.47h-6.9v-.47h3.15v-.77l.68.05c0,.05,0,.09-.15.11Zm2.89,3.07v2.76c0,.3-.07.47-.31.55a4.85,4.85,0,0,1-1.35.09,2,2,0,0,0-.17-.5h.82c.44,0,.49,0,.49-.16V30.37H51.17v2.94h-.51V29.9Zm-5.23-2.13h4.24v1.61H51.62ZM55.33,29v-.81H52.12V29Zm-.09,3.58H52.7V33h-.47V30.9h3Zm-.47-1.26H52.7v.87h2.07Z"/><path class="cls-3" d="M58.72,27.66a4.11,4.11,0,0,1-.45,2,2.76,2.76,0,0,0-.39-.21,4.14,4.14,0,0,0,.42-1.88Zm.3-1.6.67.05c0,.05,0,.09-.15.1V33.3H59Zm1.2,2.53a8.55,8.55,0,0,0-.56-1.15l.36-.18a5.91,5.91,0,0,1,.58,1.1Zm2.74.1h2.18v.44H60.31v-.44h2.1v-.57H60.89v-.41h1.52v-.53H60.58v-.42h1.83v-.7l.71.05c0,.05,0,.09-.16.11v.54h1.9v.42H63v.53h1.58v.41H63Zm1.47,1v3.09c0,.51-.2.56-1.28.56a2.07,2.07,0,0,0-.17-.45l.57,0c.32,0,.36,0,.36-.13v-.69H61.49V33.3H61V29.66Zm-.52.42H61.49v.59h2.42Zm-2.42,1.58h2.42v-.59H61.49Z"/><path class="cls-3" d="M67.78,27.32v.87h1.57v.46H65.73v-.46h1.56v-.87H66v-.46h1.25v-.78l.64,0c0,.05-.05.09-.15.1v.64H69v.46Zm.13,2.58a8.28,8.28,0,0,0,.47-1.16l.55.18s-.08.07-.16.07a8.94,8.94,0,0,1-.5,1h.93v.46H67.77v.9H69.1v.46H67.77v1.54h-.49V31.78H65.94v-.46h1.34v-.9H65.84V30h2.21Zm-1.28,0a4.08,4.08,0,0,0-.36-1.07l.41-.11a4,4,0,0,1,.37,1.05Zm5.73-.51.32.11a.28.28,0,0,1-.05.11A6.67,6.67,0,0,1,71.77,32a3.33,3.33,0,0,0,1.19.9,2,2,0,0,0-.37.45,3.74,3.74,0,0,1-1.12-.91,4.12,4.12,0,0,1-.92.85,1.33,1.33,0,0,0-.36-.35,3.64,3.64,0,0,0,1-.92,6.19,6.19,0,0,1-.88-1.85l.42-.11a5.73,5.73,0,0,0,.74,1.51A5.55,5.55,0,0,0,72,29.88h-2v3.44h-.5V26.43h3v2c0,.56-.28.56-1.34.56a2,2,0,0,0-.16-.45h.55c.43,0,.46,0,.46-.13V26.92h-2v2.5h2.2Z"/><path class="cls-3" d="M80.17,28.06a.34.34,0,0,1-.13.1,8.3,8.3,0,0,1-1.63,2.54,4.17,4.17,0,0,0-.47-.28,5.62,5.62,0,0,0,1.34-1.93l-3,.78v2c0,.76.46,1,1.08,1h1.28a11.32,11.32,0,0,0,1.16-.09c0,.17,0,.38,0,.55a11.37,11.37,0,0,1-1.15.06h-1.3c-1,0-1.64-.46-1.64-1.54V29.41l-2,.5-.13-.52,2.1-.52V26.5l.75,0c0,.09-.08.14-.19.15v2l3.3-.85.08-.06Z"/><path class="cls-3" d="M84.49,30.58,84.77,33l-.56.07-.27-2.44L81,31l-.07-.52,2.94-.37-.2-1.75-2.45.32-.07-.53,2.46-.31-.17-1.54.76,0c0,.08-.07.14-.18.17l.14,1.32,2.37-.31.06.53-2.37.31.21,1.74,2.93-.36.07.51Z"/><path class="cls-3" d="M94.06,32v.45H88.74V32h3.17c.13-.79.34-2.34.42-3.14h-3v-.45h3.12l.1,0,.38.19a.13.13,0,0,1-.1.07c-.1.82-.35,2.52-.48,3.36Z"/><path class="cls-3" d="M95.83,30.6V26.81l.74.05c0,.07-.06.12-.18.14v3.6Zm4.35-4.1c0,.08-.07.12-.19.14v2.48a3.9,3.9,0,0,1-2.8,4,2,2,0,0,0-.41-.42,3.49,3.49,0,0,0,2.65-3.58V26.46Z"/><path class="cls-3" d="M108,29.35h-2.64l.14,0a.17.17,0,0,1-.16.09A4.24,4.24,0,0,1,103,33.05a4,4,0,0,0-.42-.39,3.7,3.7,0,0,0,2.25-3.31h-3v-.52H108Zm-.77-2.2h-4.79v-.52h4.79Z"/><path class="cls-3" d="M114.25,28.11a.15.15,0,0,1-.13.06l-.11,0a14.64,14.64,0,0,1-1.71,1.44l.17.07a.27.27,0,0,1-.13.09v3.38h-.48V29.88a20,20,0,0,1-2.57,1.49A2.25,2.25,0,0,0,109,31a15.41,15.41,0,0,0,4.71-3.27Z"/><path class="cls-3" d="M122.56,28.31v.4h-7v-.4h3.22v-.5h-2.4v-.37h2.4V27H116v-.4h2.76v-.52l.69.05c0,.05,0,.09-.15.11v.36h2.83V27h-2.83v.46h2.51v.37h-2.51v.5Zm-4.11,4.21s-.07,0-.17,0a13.58,13.58,0,0,1-2.38.75,3.89,3.89,0,0,0-.35-.37,9.9,9.9,0,0,0,2.34-.71Zm3.22-.38h-5.13v-3h5.13Zm-4.61-2.62V30h4.08v-.52Zm0,.87v.51h4.08v-.51Zm0,.86v.53h4.08v-.53ZM122,33.31a20.12,20.12,0,0,0-2.25-.78l.43-.27a23,23,0,0,1,2.41.78Z"/><path class="cls-3" d="M124.37,28.84a8.39,8.39,0,0,1-1,1.33c-.07-.13-.2-.37-.28-.49a10,10,0,0,0,2-3.56l.63.21c0,.06-.08.08-.17.08a14.4,14.4,0,0,1-.75,1.65l.22.06c0,.05-.05.09-.15.1v5.09h-.52ZM130.54,30h-2.39v2.52h2.17V33h-4.8v-.51h2.1V30h-2.35v-.51h2.35V27.4c-.65.12-1.35.23-2,.31a2.07,2.07,0,0,0-.17-.45,22.15,22.15,0,0,0,4.15-.89l.47.46-.09,0h-.07a15.32,15.32,0,0,1-1.71.45h.1c0,.06-.05.1-.16.11v2.09h2.39Z"/><path class="cls-3" d="M138.19,29.12h-3a14.36,14.36,0,0,1-1.33.86h3.27v3.3h-.53v-.23h-3.22v.26h-.5V30.5a16.52,16.52,0,0,1-1.55.68,2.27,2.27,0,0,0-.31-.4,15.85,15.85,0,0,0,3.32-1.66h-3.2v-.46h2.78V27.6h-2v-.46h2V26.06l.67.05c0,.05-.05.09-.15.11v.92h2v.27a9.93,9.93,0,0,0,.92-1l.55.32a.16.16,0,0,1-.13,0h-.08a12.51,12.51,0,0,1-1.92,1.93h2.43Zm-1.63,2.16v-.84h-3.22v.84Zm-3.22,1.31h3.22v-.88h-3.22Zm1.06-3.93H135a12.84,12.84,0,0,0,1.26-1.06H134.4Z"/><path class="cls-3" d="M139.23,26.53a5.7,5.7,0,0,1,1.14,3.59,5.76,5.76,0,0,1-1.14,3.6h-.53a5.91,5.91,0,0,0,1.11-3.6,5.83,5.83,0,0,0-1.11-3.59Z"/><path class="cls-3" d="M142.68,33.72a5.67,5.67,0,0,1-1.16-3.58,5.68,5.68,0,0,1,1.16-3.61h.52a5.84,5.84,0,0,0-1.11,3.62,5.9,5.9,0,0,0,1.11,3.57Z"/><path class="cls-3" d="M147.63,32.47a3.75,3.75,0,0,1-1.49.27,2.69,2.69,0,0,1-2.76-3,2.85,2.85,0,0,1,2.94-3.11,3.07,3.07,0,0,1,1.31.24l-.18.55a2.59,2.59,0,0,0-1.12-.24,2.23,2.23,0,0,0-2.27,2.54,2.17,2.17,0,0,0,2.23,2.48,2.92,2.92,0,0,0,1.19-.24Z"/><path class="cls-3" d="M148.57,26.71h.64v5.94h-.64Z"/><path class="cls-3" d="M153.2,27.44a2,2,0,0,0-1-.27c-.82,0-1.13.5-1.13.93,0,.59.35.88,1.15,1.22,1,.41,1.45.9,1.45,1.75s-.69,1.67-2,1.67a2.71,2.71,0,0,1-1.41-.38l.18-.54a2.38,2.38,0,0,0,1.27.37c.8,0,1.27-.43,1.27-1.07s-.32-.94-1.09-1.25-1.51-.86-1.51-1.68a1.64,1.64,0,0,1,1.82-1.57,2.38,2.38,0,0,1,1.21.28Z"/><path class="cls-3" d="M159.4,29.62c0,2.09-1.17,3.12-2.57,3.12s-2.52-1.16-2.52-3,1.1-3.12,2.59-3.12S159.4,27.83,159.4,29.62Zm-4.41.09c0,1.26.66,2.5,1.86,2.5s1.88-1.2,1.88-2.55c0-1.2-.59-2.51-1.86-2.51S155,28.45,155,29.71Z"/><path class="cls-3" d="M160.11,26.53a5.63,5.63,0,0,1,1.15,3.59,5.76,5.76,0,0,1-1.15,3.6h-.53a5.91,5.91,0,0,0,1.12-3.6,5.84,5.84,0,0,0-1.12-3.59Z"/><path class="cls-3" d="M248.16,15.55v-.46h4.37v.46Zm.31,6.38V18.6h3.76v3.23h-.5v-.34H249v.44Zm.37-5.73h3V18h-3ZM250.1,19H249v.78h1.14Zm-1.14,2h1.14v-.84H249Zm2.41-3.49v-.93h-2.05v.93Zm.36,2.24V19h-1.16v.78Zm-1.16,1.25h1.16v-.84h-1.16Zm2.92-5.34s0,.09-.14.11V20h-.5V15.68Zm1-.84.67,0c0,.06-.06.1-.16.11v6.25c0,.63-.27.72-1.61.7a3,3,0,0,0-.19-.52h.68c.54,0,.61,0,.61-.19Z"/><path class="cls-3" d="M259.79,18.44h-.51v0h-.12l-.42.66h4.39v.46h-1.66a3.31,3.31,0,0,1-1,1.22,22.21,22.21,0,0,1,2.4.77l-.32.43a21.73,21.73,0,0,0-2.61-.85,9.37,9.37,0,0,1-3.68.87,1.38,1.38,0,0,0-.21-.48,10.27,10.27,0,0,0,3.15-.57c-.5-.12-1-.24-1.55-.34l-.19.25-.48-.18c.23-.3.52-.7.82-1.12H256v-.46h2.17c.21-.31.4-.63.58-.9l.56.16V16.82a7.64,7.64,0,0,1-3.06,1.84,2.12,2.12,0,0,0-.33-.41,7.6,7.6,0,0,0,2.75-1.43H256v-.46h3.25v-.85c-.85.07-1.74.11-2.55.14a1.66,1.66,0,0,0-.12-.42,30.24,30.24,0,0,0,5.13-.5l.41.41s0,0-.07,0H262a21.22,21.22,0,0,1-2.22.31v.89h3.28v.46h-2.62a7.53,7.53,0,0,0,2.75,1.35,1.74,1.74,0,0,0-.34.43,7.56,7.56,0,0,1-3.06-1.78h0ZM258,20.2c.64.12,1.28.26,1.89.41a3,3,0,0,0,1-1.07h-2.44Z"/><path class="cls-3" d="M266.52,21a.3.3,0,0,1-.16.05,9.18,9.18,0,0,1-2.3.92,2.31,2.31,0,0,0-.38-.39,8.11,8.11,0,0,0,2.3-.9Zm-2-3.72h5.58v3.38h-5.58Zm.45-2.24h4.67v1.75h-4.67Zm.07,2.63v.6h4.52v-.6Zm0,1v.6h4.52v-.6Zm0,1v.61h4.52v-.61Zm.45-4.17v.87h3.61v-.87Zm5,6.51A19.55,19.55,0,0,0,268,21l.46-.34c.81.24,1.87.64,2.48.9Z"/><path class="cls-3" d="M275.06,19a4.22,4.22,0,0,0,.85,1.2,12.89,12.89,0,0,0,1.75-1.11l.5.36a.18.18,0,0,1-.17,0c-.46.3-1.16.7-1.74,1a5.19,5.19,0,0,0,2.33,1,2.25,2.25,0,0,0-.33.46,5.06,5.06,0,0,1-3.73-3h-1.17v2.17l2.13-.36,0,.44c-1.24.24-2.57.48-3.38.62A.14.14,0,0,1,272,22l-.23-.57,1-.15V19h-1.4v-.49h1.4V15.05h4.9v.45h-4.36v.71h4.11v.43h-4.11v.71h4.11v.44h-4.11v.73h5.11V19Z"/><path class="cls-3" d="M234.36,26.1a4.71,4.71,0,0,0-1.55,3.59,4.66,4.66,0,0,0,1.55,3.58v0h-.47a5.15,5.15,0,0,1,0-7.25h.47Z"/><path class="cls-3" d="M235.72,27.66a4.11,4.11,0,0,1-.45,2,2.76,2.76,0,0,0-.39-.21,4.14,4.14,0,0,0,.42-1.88Zm.3-1.6.67.05c0,.05-.05.09-.15.1V33.3H236Zm1.2,2.53a8.55,8.55,0,0,0-.56-1.15l.36-.18a5.91,5.91,0,0,1,.58,1.1Zm2.74.1h2.18v.44h-4.83v-.44h2.1v-.57h-1.52v-.41h1.52v-.53h-1.83v-.42h1.83v-.7l.71.05c0,.05-.05.09-.16.11v.54h1.9v.42H240v.53h1.58v.41H240Zm1.47,1v3.09c0,.51-.2.56-1.28.56a2.07,2.07,0,0,0-.17-.45l.57,0c.32,0,.36,0,.36-.13v-.69h-2.42V33.3H238V29.66Zm-.52.42h-2.42v.59h2.42Zm-2.42,1.58h2.42v-.59h-2.42Z"/><path class="cls-3" d="M244.78,27.32v.87h1.57v.46h-3.62v-.46h1.56v-.87H243v-.46h1.25v-.78l.64,0c0,.05-.05.09-.15.1v.64H246v.46Zm.13,2.58a8.28,8.28,0,0,0,.47-1.16l.55.18s-.08.07-.16.07a8.94,8.94,0,0,1-.5,1h.93v.46h-1.43v.9h1.33v.46h-1.33v1.54h-.49V31.78h-1.34v-.46h1.34v-.9h-1.44V30h2.21Zm-1.28,0a4.08,4.08,0,0,0-.36-1.07l.41-.11a4,4,0,0,1,.37,1.05Zm5.73-.51.32.11a.28.28,0,0,1-.05.11,6.67,6.67,0,0,1-.86,2.34,3.33,3.33,0,0,0,1.19.9,2,2,0,0,0-.37.45,3.74,3.74,0,0,1-1.12-.91,4.12,4.12,0,0,1-.92.85,1.33,1.33,0,0,0-.36-.35,3.64,3.64,0,0,0,1-.92,6.19,6.19,0,0,1-.88-1.85l.42-.11a5.73,5.73,0,0,0,.74,1.51,5.55,5.55,0,0,0,.61-1.65h-2v3.44h-.5V26.43h3v2c0,.56-.28.56-1.34.56a2,2,0,0,0-.16-.45h.55c.43,0,.46,0,.46-.13V26.92h-2v2.5h2.2Z"/><path class="cls-3" d="M250.83,28.52a11.21,11.21,0,0,1,2.1.71l-.23.49a11.71,11.71,0,0,0-2.1-.72Zm.47,3.82a8.11,8.11,0,0,0,5.31-4.54,5.09,5.09,0,0,0,.47.34,8.53,8.53,0,0,1-5.25,4.61.19.19,0,0,1-.09.2Zm.39-5.75a12.36,12.36,0,0,1,2.09.77l-.26.47a12.64,12.64,0,0,0-2.06-.79Z"/><path class="cls-3" d="M262.78,27.09a.22.22,0,0,1-.1.09,12.12,12.12,0,0,1-1.56,2.68A28.56,28.56,0,0,1,264,32.5l-.47.41a27,27,0,0,0-2.74-2.62,12.08,12.08,0,0,1-3,2.62,4,4,0,0,0-.41-.42,11.15,11.15,0,0,0,4.57-5.09h-3.83v-.53h4.13l.11,0Z"/><path class="cls-3" d="M271.08,29.35h-2.64l.14,0a.16.16,0,0,1-.16.09A4.24,4.24,0,0,1,266,33.05a4,4,0,0,0-.42-.39,3.69,3.69,0,0,0,2.25-3.31h-3v-.52h6.27Zm-.77-2.2h-4.79v-.52h4.79Z"/><path class="cls-3" d="M277.77,32.88c-.12-.27-.26-.55-.41-.83-1.63.17-4.29.33-5.49.4a.2.2,0,0,1-.14.15l-.21-.7.81,0c.52-1.5,1.26-3.83,1.69-5.39l.75.2c0,.07-.1.11-.22.11-.43,1.44-1.1,3.53-1.64,5.06,1.3-.06,3.14-.19,4.17-.28a13.4,13.4,0,0,0-1.39-1.91l.47-.26a15,15,0,0,1,2.15,3.23Z"/><path class="cls-3" d="M281.33,29.07a10.56,10.56,0,0,0,.5-1.5l.6.17s-.07.07-.16.08a12.79,12.79,0,0,1-.5,1.33h1.17v.48h-4.11v-.48h2.74ZM282.8,27v.47H279V27h1.62v-.91l.66,0c0,.05-.05.09-.15.11V27Zm-3.44,6.34v-3h3.09v2.91H282v-.39h-2.09v.44Zm.61-5.68a5.4,5.4,0,0,1,.37,1.27l-.46.11a5.82,5.82,0,0,0-.34-1.28Zm2,3.19h-2.09v1.58H282Zm3.79-4.32.34.17a.11.11,0,0,1-.07.08c-.3.66-.71,1.51-1.14,2.33.84.78,1.19,1.37,1.19,1.93,0,1.22-.85,1.22-1.35,1.22h-.36a1.25,1.25,0,0,0-.18-.52l.48,0c.52,0,.9,0,.9-.75,0-.5-.38-1.05-1.23-1.83.38-.77.71-1.5,1-2.13h-1.55v6.27h-.51V26.54h2.39Z"/><path class="cls-3" d="M290.36,30.35a4.26,4.26,0,0,0,.86,1.2A11.86,11.86,0,0,0,293,30.44l.5.36a.18.18,0,0,1-.17,0c-.45.3-1.15.7-1.74,1a5.35,5.35,0,0,0,2.33,1,2,2,0,0,0-.32.47,5.06,5.06,0,0,1-3.73-3h-1.18v2.17c.67-.1,1.41-.23,2.13-.35l0,.43c-1.24.24-2.56.48-3.38.62a.18.18,0,0,1-.1.12l-.24-.57,1-.16V30.35h-1.4v-.48h1.4V26.39H293v.45h-4.36v.71h4.12V28h-4.12v.71h4.12v.43h-4.12v.74h5.12v.48Z"/><path class="cls-3" d="M294.4,33.27a4.92,4.92,0,0,0,0-7.17v0h.47a5.15,5.15,0,0,1,0,7.25h-.47Z"/><polyline class="cls-6" points="212.57 71.11 198.37 71.11 198.37 23.86"/><path class="cls-2" d="M312.72,88.12H216.34a8.5,8.5,0,0,1-8.5-8.5v-17a8.49,8.49,0,0,1,8.5-8.5h96.38a8.49,8.49,0,0,1,8.5,8.5v17a8.5,8.5,0,0,1-8.5,8.5"/><path class="cls-3" d="M259.79,65.69h-.52v0h-.11c-.13.2-.28.42-.42.65h4.39v.46h-1.67a3.22,3.22,0,0,1-1,1.23,23.17,23.17,0,0,1,2.4.76l-.32.44a20.08,20.08,0,0,0-2.61-.85,9.39,9.39,0,0,1-3.68.86,1.54,1.54,0,0,0-.21-.47,10,10,0,0,0,3.15-.58c-.5-.12-1-.23-1.55-.34l-.19.25-.49-.18c.24-.3.53-.7.82-1.12H256v-.46h2.17c.21-.31.4-.62.57-.9l.56.16V64.07a7.69,7.69,0,0,1-3,1.85,2.18,2.18,0,0,0-.33-.42,7.55,7.55,0,0,0,2.74-1.43H256v-.45h3.24v-.85c-.85.06-1.74.11-2.55.13a1.46,1.46,0,0,0-.11-.41,32.58,32.58,0,0,0,5.13-.5l.41.4s0,0-.08,0H262a20.61,20.61,0,0,1-2.21.31v.9h3.28v.45h-2.63a7.65,7.65,0,0,0,2.76,1.35,2.12,2.12,0,0,0-.35.44,7.55,7.55,0,0,1-3.05-1.79h0ZM258,67.45c.64.12,1.28.26,1.9.41a2.77,2.77,0,0,0,1-1.07h-2.44Z"/><path class="cls-3" d="M266.52,68.25a.25.25,0,0,1-.16,0,9.33,9.33,0,0,1-2.3.92c-.09-.1-.26-.28-.38-.39a7.94,7.94,0,0,0,2.3-.9Zm-2-3.72h5.57v3.38h-5.57Zm.44-2.24h4.68v1.76h-4.68Zm.08,2.64v.6h4.52v-.6Zm0,1v.61h4.52v-.61Zm0,1v.62h4.52V66.9Zm.45-4.17v.87h3.61v-.87Zm5,6.51a20.43,20.43,0,0,0-2.5-.94l.46-.35c.81.25,1.87.64,2.48.91Z"/><path class="cls-3" d="M218.77,73.35a5,5,0,0,0,0,7.18v0h-.47a5.17,5.17,0,0,1,0-7.26h.47Z"/><path class="cls-3" d="M226.39,75.54h-2.85a7.21,7.21,0,0,0,3.11,3.29,2.54,2.54,0,0,0-.4.46,7.81,7.81,0,0,1-3-3.32v2.55h1.56v.53h-1.56v1.52h-.55V79.05h-1.58v-.53h1.58V76a8.46,8.46,0,0,1-3,3.32,3.89,3.89,0,0,0-.38-.43,7.55,7.55,0,0,0,3.07-3.33h-2.81V75h3.15V73.33l.7,0s-.05.09-.15.11V75h3.18Z"/><path class="cls-3" d="M230.32,75s0,.06-.09.08a8,8,0,0,1-1.12,1.84c.37.25,1.13.81,1.34,1l-.31.43c-.22-.22-.72-.63-1.1-.93v3.19h-.53v-3a7.5,7.5,0,0,1-1.22,1,3,3,0,0,0-.28-.46,7.33,7.33,0,0,0,2.58-2.84h-2.38v-.48h1.3V73.32l.68,0c0,.06-.05.1-.15.11v1.34h.84l.09,0Zm2.23,4.83h1.89v.51H230v-.51h2V76.44h-1.73v-.51H232V73.38l.7,0c0,.06-.06.1-.17.11v2.4h1.73v.51h-1.73Z"/><path class="cls-3" d="M240.63,74.08l.4.23a.16.16,0,0,1-.1.08,6.79,6.79,0,0,1-1.93,2,10.49,10.49,0,0,0,3.23,1.28,2.21,2.21,0,0,0-.33.47,10.09,10.09,0,0,1-1-.28v2.68h-.53v-.32h-3.65v.35h-.52V77.84a9.26,9.26,0,0,1-1.09.36,1.69,1.69,0,0,0-.27-.47,11.66,11.66,0,0,0,3.24-1.34,8.06,8.06,0,0,1-1.39-1.34,8.53,8.53,0,0,1-1.38,1,3.1,3.1,0,0,0-.36-.37,7.32,7.32,0,0,0,2.61-2.43l.6.24s-.09.07-.18.06c-.12.18-.26.37-.4.55h2.93Zm-.12,3.63a10.37,10.37,0,0,1-2-1,11.91,11.91,0,0,1-2,1Zm-3.77,2h3.65V78.2h-3.65Zm.45-5.17-.13.14a7,7,0,0,0,1.48,1.38,6.77,6.77,0,0,0,1.62-1.52Z"/><path class="cls-3" d="M245.22,76.32a10.56,10.56,0,0,0,.5-1.5l.6.17c0,.05-.07.07-.16.08a12.79,12.79,0,0,1-.5,1.33h1.17v.49h-4.11V76.4h2.74Zm1.47-2.09v.47h-3.77v-.47h1.62v-.91l.66,0c0,.06,0,.1-.15.11v.76Zm-3.44,6.34v-3h3.09v2.92h-.5v-.4h-2.09v.44Zm.61-5.67a5.77,5.77,0,0,1,.37,1.27l-.46.11a5.89,5.89,0,0,0-.34-1.29Zm2,3.18h-2.09v1.58h2.09Zm3.79-4.31.34.17a.14.14,0,0,1-.07.08c-.3.66-.71,1.5-1.14,2.32.84.79,1.19,1.37,1.19,1.93,0,1.23-.85,1.23-1.35,1.23h-.36a1.16,1.16,0,0,0-.18-.51l.48,0c.52,0,.9,0,.9-.74,0-.51-.38-1.05-1.23-1.83.38-.78.71-1.51,1-2.14h-1.55v6.28h-.51V73.79h2.39Z"/><path class="cls-3" d="M253.71,73.7v2.87h-2.28v4h-.51V73.7Zm-.5.45h-1.78v.75h1.78Zm-1.78,2h1.78v-.82h-1.78Zm5.94-2.43v6.12c0,.71-.27.73-1.77.73a2.63,2.63,0,0,0-.2-.55c.34,0,.66,0,.9,0,.5,0,.55,0,.55-.2V76.58h-2.37V73.7Zm-.52.45H255v.75h1.86Zm-1.86,2h1.86v-.83H255Z"/><path class="cls-3" d="M258.63,75.78a10.66,10.66,0,0,1,2.09.7l-.23.49a11.45,11.45,0,0,0-2.1-.72Zm.46,3.81a8.11,8.11,0,0,0,5.31-4.54,4.76,4.76,0,0,0,.47.35,8.54,8.54,0,0,1-5.25,4.6.18.18,0,0,1-.09.2Zm.39-5.75a12,12,0,0,1,2.09.77l-.25.48a11.43,11.43,0,0,0-2.07-.79Z"/><path class="cls-3" d="M270.57,74.34a.15.15,0,0,1-.1.09,11.89,11.89,0,0,1-1.56,2.68,28.56,28.56,0,0,1,2.85,2.64l-.47.42a25,25,0,0,0-2.74-2.62,12.5,12.5,0,0,1-3,2.62,2.69,2.69,0,0,0-.41-.42,11.2,11.2,0,0,0,4.57-5.09h-3.83v-.53H270l.1,0Z"/><path class="cls-3" d="M278.86,76.61h-2.63l.13,0s-.07.09-.15.1a4.23,4.23,0,0,1-2.41,3.56,5.36,5.36,0,0,0-.42-.39,3.7,3.7,0,0,0,2.25-3.3h-3v-.53h6.26Zm-.77-2.2h-4.78v-.53h4.78Z"/><path class="cls-3" d="M285.55,80.13a7.07,7.07,0,0,0-.41-.83c-1.62.17-4.29.34-5.48.4a.24.24,0,0,1-.15.16l-.21-.71.82,0c.51-1.49,1.25-3.83,1.68-5.38l.76.2c0,.07-.11.11-.23.11-.43,1.43-1.1,3.52-1.64,5,1.3,0,3.15-.19,4.18-.28a13.5,13.5,0,0,0-1.39-1.9l.47-.27a15.61,15.61,0,0,1,2.15,3.23Z"/><path class="cls-3" d="M288.46,75.21a3.74,3.74,0,0,0-.38-.83h-.38a5.15,5.15,0,0,1-.71.85,3,3,0,0,0-.39-.28,4.56,4.56,0,0,0,1.13-1.67l.6.21a.17.17,0,0,1-.17.06c-.05.12-.12.26-.19.39h2.15v.44h-1.51a3.84,3.84,0,0,1,.33.69Zm5.36-1.27v.44H292a3.5,3.5,0,0,1,.44.68l-.47.16a3.86,3.86,0,0,0-.55-.84h-.68a5.19,5.19,0,0,1-.49.55l.35,0c0,.06,0,.09-.15.1v.49h3.11V77h-.52V76h-5.61v1h-.5V75.54h3v-.45l-.36-.21a3.81,3.81,0,0,0,1.22-1.6l.61.19s-.07.07-.16.07a3.84,3.84,0,0,1-.21.4ZM288.57,78v.59h4.35v1.92h-.52v-.26h-3.83v.28h-.51V76.49h4.37V78Zm3.34-1.14h-3.34v.73h3.34Zm.49,2.15h-3.83v.82h3.83Z"/><path class="cls-3" d="M296,76.57V78.5l1.06-.31s0,.09.06.45c-.9.29-1.86.6-2.46.78a.18.18,0,0,1-.1.12l-.21-.58,1.14-.31V76.57h-1v-.49h1V74.32h-1v-.5H297v.5h-1v1.76h.94v.49Zm3.54,3.26h2.18v.49h-5v-.49h2.34v-1.2h-1.83v-.48h1.83v-.91h-1.78V73.77h4.09v3.47h-1.82v.91h1.93v.48h-1.93Zm-1.8-5.6v1h1.31v-1Zm0,2.55h1.31V75.72h-1.31Zm3.13-1.5v-1h-1.33v1Zm0,1.5V75.72h-1.33v1.06Z"/><path class="cls-3" d="M309.36,76.37h-3c-.43.31-.88.6-1.34.87h3.27v3.3h-.52V80.3h-3.22v.27H304V77.76c-.5.25-1,.47-1.54.68a2.94,2.94,0,0,0-.31-.41,16.35,16.35,0,0,0,3.32-1.66h-3.21v-.46h2.79v-1H303V74.4h2.05V73.31l.67,0c0,.06-.06.1-.16.11v.93h2v.26a8.83,8.83,0,0,0,.91-1l.55.32s-.07,0-.13,0h-.08a12.38,12.38,0,0,1-1.91,1.92h2.42Zm-1.62,2.16V77.7h-3.22v.83Zm-3.22,1.31h3.22V79h-3.22Zm1.05-3.93h.57a14.3,14.3,0,0,0,1.26-1h-1.83Z"/><path class="cls-3" d="M310,80.53a4.93,4.93,0,0,0,0-7.18v0h.47a5.17,5.17,0,0,1,0,7.26H310Z"/><path class="cls-7" d="M102.67,37.78l-8.74,6.76a.48.48,0,0,0-.05.82,2.24,2.24,0,0,0,1.42.41h4.27l0,16.84H95.27a2.27,2.27,0,0,0-1.42.41.48.48,0,0,0,.05.82l8.72,6.76a2.7,2.7,0,0,0,2.73,0l8.75-6.76a.49.49,0,0,0,.05-.82,2.27,2.27,0,0,0-1.42-.41h-4.27l0-16.84h4.28a2.27,2.27,0,0,0,1.42-.41.53.53,0,0,0,.2-.39.58.58,0,0,0-.25-.43l-8.72-6.76a2.72,2.72,0,0,0-2.74,0m1.47.4,8.72,6.76s0,.05,0,.06a.2.2,0,0,1-.11,0h-5.21l0,18.32h5.21a.18.18,0,0,1,.11,0s0,0,0,.06l-8.74,6.76a.18.18,0,0,1-.2,0l-8.72-6.76s0,0,0-.06a.16.16,0,0,1,.11,0h5.2l0-18.32H95.3a.16.16,0,0,1-.11,0s0,0,0-.06l8.74-6.76a.18.18,0,0,1,.2,0"/><path class="cls-2" d="M104.14,38.18l8.72,6.76s0,.05,0,.06a.2.2,0,0,1-.11,0h-5.21l0,18.32h5.21a.18.18,0,0,1,.11,0s0,0,0,.06l-8.74,6.76a.18.18,0,0,1-.2,0l-8.72-6.76s0,0,0-.06a.16.16,0,0,1,.11,0h5.2l0-18.32H95.3a.16.16,0,0,1-.11,0s0,0,0-.06l8.74-6.76a.18.18,0,0,1,.2,0"/><path class="cls-7" d="M398.76,52.79,386,44a1.39,1.39,0,0,0-1.53-.06,1.67,1.67,0,0,0-.78,1.43v3.77H337V59.25H383.7V63a1.67,1.67,0,0,0,.78,1.43,1.42,1.42,0,0,0,.72.2,1.39,1.39,0,0,0,.81-.26l12.75-8.85a1.66,1.66,0,0,0,.69-1.37,1.69,1.69,0,0,0-.69-1.38"/></g></g></svg>