<svg xmlns="http://www.w3.org/2000/svg" viewBox="0 0 100 98.35"><defs><style>.cls-1{fill:#0863a7;}.cls-2{fill:#137cb4;}.cls-3{fill:#0e569f;}.cls-4{fill:#1170ae;}.cls-5{fill:#1387ba;}.cls-6{fill:none;}</style></defs><g id="レイヤー_2" data-name="レイヤー 2"><g id="index"><g id="グループ_366" data-name="グループ 366"><path id="パス_20944" data-name="パス 20944" class="cls-1" d="M12.34,0,27.53,93.77A48,48,0,0,0,48,98.35H74.08L25.5,0Z"/><path id="パス_20945" data-name="パス 20945" class="cls-2" d="M53.33,0H50.07L74.55,98.35H100V58.23L60,.49A46.74,46.74,0,0,0,53.33,0"/><path id="パス_20946" data-name="パス 20946" class="cls-3" d="M0,0V50.35A48,48,0,0,0,27.53,93.77L12.33,0Z"/><path id="パス_20947" data-name="パス 20947" class="cls-4" d="M25.5,0,74.08,98.35h.47L50.07,0Z"/><path id="パス_20948" data-name="パス 20948" class="cls-5" d="M60,.49l40,57.74V46.67A46.68,46.68,0,0,0,60,.49"/><path id="パス_20949" data-name="パス 20949" class="cls-6" d="M60,.49A45.33,45.33,0,0,0,53.33,0H0V50.35a48,48,0,0,0,48,48h52V46.67A46.68,46.68,0,0,0,60,.49Z"/></g></g></g></svg>