<svg xmlns="http://www.w3.org/2000/svg" viewBox="0 0 239.53 73.7"><defs><style>.cls-1{fill:#e1f1f0;}.cls-2{fill:#231815;}.cls-3,.cls-4{fill:none;stroke:#1cb3ac;stroke-miterlimit:10;stroke-width:0.57px;}.cls-4{stroke-dasharray:2.2 2.2;}.cls-5{fill:#1cb3ac;}</style></defs><g id="レイヤー_2" data-name="レイヤー 2"><g id="レイヤー_2-2" data-name="レイヤー 2"><path class="cls-1" d="M48.19,73.7H8.5A8.51,8.51,0,0,1,0,65.2V8.51A8.51,8.51,0,0,1,8.5,0H48.19a8.5,8.5,0,0,1,8.5,8.51V65.2a8.5,8.5,0,0,1-8.5,8.5"/><path class="cls-2" d="M13.69,19.06a.17.17,0,0,1-.16.12,8.87,8.87,0,0,0,3.4,2.64,2,2,0,0,0-.34.47,9.83,9.83,0,0,1-3.39-2.73,9.44,9.44,0,0,1-3.31,2.76,2.31,2.31,0,0,0-.31-.43A8.37,8.37,0,0,0,12.92,19ZM10,23.52V23h6.54v.5H12.78l.09,0c0,.05-.08.08-.18.08-.24.53-.59,1.24-.92,1.81,1,0,2.24-.06,3.43-.1a12.72,12.72,0,0,0-1.15-1.17l.45-.24A10.57,10.57,0,0,1,16.38,26l-.46.3a6.45,6.45,0,0,0-.39-.55c-1.89.1-3.9.19-5.15.23a.14.14,0,0,1-.13.11l-.19-.63c.33,0,.71,0,1.14,0a18.06,18.06,0,0,0,.93-1.93Zm1.33-2H15.1V22H11.32Z"/><path class="cls-2" d="M20.51,20.36v.44H17.39v-.44Zm-.32,3.18v2.29h-2v.37h-.47V23.54Zm-2.42-1.69v-.43h2.45v.43Zm0,1.06v-.43h2.45v.43Zm2.45-3.59v.43H17.81v-.43ZM19.72,24H18.23v1.41h1.49Zm5-2.23v.52H22.93v4H22.4v-4H20.51v-.52H22.4V19.06l.69,0c0,.06-.05.1-.16.11v2.54Z"/><path class="cls-2" d="M31.47,25.59h1v.47H25.24v-.47h1v-2h5.27ZM26,23v.38h-.48v-4h3.28v.43H27.45v.62h1.17v1.53H27.45v.64h1.44V23Zm1-3.21H26v.62h1Zm1.16,1.75v-.74H26v.74Zm-1.16,1v-.64H26v.64Zm-.31,1.48v1.54h1.08V24.05Zm2.66,0h-1.1v1.54h1.1Zm3-3.4H29.88a4.59,4.59,0,0,1-.69,1.18,2.64,2.64,0,0,0-.36-.28,6.14,6.14,0,0,0,1.09-2.5l.58.15c0,.06-.08.08-.16.08a7.84,7.84,0,0,1-.27.91h2.34Zm-.19,2H29.53v-.46h2.69ZM31,24.05h-1.1v1.54H31Z"/><path class="cls-2" d="M40.13,20.54H37.44a7.09,7.09,0,0,0,2.84,1.75,1.65,1.65,0,0,0-.36.43,7.59,7.59,0,0,1-3.06-2.18v1.71h-.52V20.54a7.64,7.64,0,0,1-3,2.24,1.91,1.91,0,0,0-.33-.42,7,7,0,0,0,2.77-1.82H33.13v-.48h3.21V19l.67,0c0,.05,0,.09-.15.11v.87h3.27Zm-1.32,2v3.12h1.34v.48h-7v-.48h1.34V22.51Zm-.53.45H35v.62h3.32Zm0,1.64V24H35v.62ZM35,25v.62h3.32V25Z"/><path class="cls-2" d="M44.8,19.35c0,.06-.07.1-.17.11v.23c.08,1.1.55,4.74,3.52,6.09a1.8,1.8,0,0,0-.4.43,6.57,6.57,0,0,1-3.34-4.73h0a6.62,6.62,0,0,1-3.24,4.73,2,2,0,0,0-.42-.4C44,24.18,44,20.34,44.06,19.29Z"/><path class="cls-2" d="M16.41,47.68v5.18c0,.37-.09.54-.35.63a5.82,5.82,0,0,1-1.46.09,2.1,2.1,0,0,0-.19-.53h.8c.64,0,.67,0,.67-.2V48.2H13.44a5,5,0,0,1-.13,1,23.26,23.26,0,0,1,2.28,2.26l-.43.33a24.42,24.42,0,0,0-2-2.08,4.25,4.25,0,0,1-2,2.22,2,2,0,0,0-.38-.39,3.63,3.63,0,0,0,2.12-3.33H10.6v5.38h-.52v-5.9h2.84V46.32l.69,0c0,.06,0,.1-.16.11v1.21Z"/><path class="cls-2" d="M19.92,49.33a10.69,10.69,0,0,0,.5-1.51L21,48s-.07.07-.16.08c-.12.38-.32,1-.49,1.34h1.16v.48H17.42v-.48h2.74Zm1.47-2.09v.47H17.62v-.47h1.62v-.91l.67,0c0,.06-.06.1-.16.11v.77ZM18,53.58v-3H21v2.92h-.5v-.4H18.46v.45Zm.6-5.68a5.4,5.4,0,0,1,.37,1.27l-.46.11A6,6,0,0,0,18.13,48Zm2,3.18H18.46v1.58h2.08Zm3.79-4.31.34.17a.14.14,0,0,1-.07.08c-.3.66-.71,1.5-1.14,2.32.84.79,1.19,1.37,1.19,1.94,0,1.22-.85,1.22-1.35,1.22h-.36a1.21,1.21,0,0,0-.18-.51l.48,0c.52,0,.9,0,.9-.74,0-.51-.38-1-1.23-1.83.38-.77.71-1.51,1-2.14H22.34v6.28h-.51V46.79h2.4Z"/><path class="cls-2" d="M31.47,52.88h1v.46H25.24v-.46h1v-2h5.27ZM26,50.28v.37h-.48v-4h3.28v.43H27.45v.61h1.17v1.53H27.45v.64h1.44v.43Zm1-3.21H26v.61h1Zm1.16,1.74v-.74H26v.74Zm-1.16,1v-.64H26v.64Zm-.31,1.48v1.55h1.08V51.33Zm2.66,0h-1.1v1.55h1.1Zm3-3.4H29.88a4.84,4.84,0,0,1-.69,1.19,2.64,2.64,0,0,0-.36-.28,6.19,6.19,0,0,0,1.09-2.51l.58.15a.14.14,0,0,1-.16.08,7.84,7.84,0,0,1-.27.91h2.34Zm-.19,2H29.53v-.46h2.69ZM31,51.33h-1.1v1.55H31Z"/><path class="cls-2" d="M40.13,47.82H37.44a7.11,7.11,0,0,0,2.84,1.76,1.65,1.65,0,0,0-.36.43,7.71,7.71,0,0,1-3.06-2.19v1.72h-.52V47.82a7.64,7.64,0,0,1-3,2.24,2.12,2.12,0,0,0-.33-.41,7.11,7.11,0,0,0,2.77-1.83H33.13v-.47h3.21v-1l.67,0c0,.06,0,.1-.15.11v.88h3.27Zm-1.32,2v3.12h1.34v.49h-7v-.49h1.34V49.79Zm-.53.46H35v.61h3.32Zm0,1.63v-.62H35v.62ZM35,52.29v.62h3.32v-.62Z"/><path class="cls-2" d="M44.66,52.87h3.27v.47h-7v-.47h3.2v-1H41.68v-.46h2.45v-.77l.69.05s-.06.09-.16.1v.62h2.5v.46h-2.5Zm-3-5.3v1h-.51V47.08h3v-.76l.69,0c0,.06-.06.1-.16.11v.61h3v1.45h-.53v-1Zm5.47,3.23a4.14,4.14,0,0,0-.47-.45c-1.75.09-3.62.16-4.83.2a.15.15,0,0,1-.11.11l-.25-.58,1.09,0a11.41,11.41,0,0,0,.76-1.19H41.77V48.4H47v.47H43.88l.14.05S44,49,43.87,49c-.2.32-.48.72-.74,1.06l3-.07a7.62,7.62,0,0,0-.92-.64l.35-.28a9,9,0,0,1,1.88,1.42Z"/><path class="cls-2" d="M59.68,26.87a4.14,4.14,0,0,1-.45,2l-.39-.22a3.94,3.94,0,0,0,.42-1.87Zm.31-1.6.66.05c0,.05,0,.09-.15.1v7.09H60Zm1.2,2.53a8.55,8.55,0,0,0-.56-1.15l.36-.18a6.47,6.47,0,0,1,.57,1.1Zm2.74.1H66.1v.44H61.28V27.9h2.1v-.57H61.86v-.41h1.52v-.53H61.55V26h1.83v-.7l.7.05c0,.05,0,.09-.15.11V26h1.9v.42h-1.9v.53h1.58v.41H63.93Zm1.47,1V32c0,.51-.2.56-1.29.56a1.62,1.62,0,0,0-.16-.45h.57c.32,0,.36,0,.36-.12v-.69H62.45v1.24H62V28.86Zm-.52.43H62.45v.59h2.43Zm-2.43,1.58h2.43v-.59H62.45Z"/><path class="cls-2" d="M68.74,26.53v.87h1.57v.46H66.69V27.4h1.56v-.87H67v-.46h1.25v-.78l.64,0c0,.06,0,.1-.15.11v.64H70v.46Zm.14,2.58a8.35,8.35,0,0,0,.46-1.17l.56.19c0,.05-.08.07-.17.07a8.15,8.15,0,0,1-.5,1h.94v.46H68.74v.9h1.33V31H68.74v1.54h-.5V31H66.9v-.46h1.34v-.9H66.8v-.46H69Zm-1.28,0a4.08,4.08,0,0,0-.36-1.07l.4-.11A4.08,4.08,0,0,1,68,29Zm5.72-.51.33.11a.39.39,0,0,1-.06.11,6.85,6.85,0,0,1-.85,2.34,3.51,3.51,0,0,0,1.18.9,2.27,2.27,0,0,0-.37.45,3.87,3.87,0,0,1-1.12-.91,4.09,4.09,0,0,1-.91.85,1.7,1.7,0,0,0-.36-.35,3.61,3.61,0,0,0,1-.92,6.45,6.45,0,0,1-.88-1.85l.42-.11a5.73,5.73,0,0,0,.74,1.51A5.85,5.85,0,0,0,73,29.09H71v3.44h-.5V25.64h3v2c0,.56-.28.56-1.34.56a1.59,1.59,0,0,0-.15-.45h.54c.43,0,.46,0,.46-.13V26.13H71v2.5h2.21Z"/><path class="cls-2" d="M76.93,28.52a5.1,5.1,0,0,0,1.17,1.8,5.14,5.14,0,0,0,1.17-1.85l.65.22s-.08.08-.18.07a5.45,5.45,0,0,1-1.24,1.91A6.75,6.75,0,0,0,81.74,32a2.49,2.49,0,0,0-.35.5A7,7,0,0,1,78.08,31a8,8,0,0,1-3.3,1.5,2.66,2.66,0,0,0-.3-.47,7.72,7.72,0,0,0,3.22-1.39,6,6,0,0,1-1.27-2Zm.37-1.14c0,.07-.09.07-.17.07A8.5,8.5,0,0,1,75,29.3a2.94,2.94,0,0,0-.39-.4,6.38,6.38,0,0,0,2.09-1.78Zm4.24-1.05v.51H74.62v-.51H77.8V25.27l.69,0c0,.05,0,.09-.16.11v.91Zm-.39,2.9a12,12,0,0,0-2.1-1.82l.43-.31a12.32,12.32,0,0,1,2.13,1.76Z"/><path class="cls-2" d="M84.72,29.25l-.91.29v2.35c0,.57-.24.65-1.24.63a2.32,2.32,0,0,0-.16-.49l.55,0c.32,0,.36,0,.36-.16V29.7l-.8.25a.17.17,0,0,1-.11.12l-.19-.6,1.1-.29V27.4h-1v-.49h1V25.28l.64,0c0,.06,0,.09-.15.11v1.48h.8v.45A5,5,0,0,0,86,25.28l.62.08c0,.06-.06.09-.15.1a4,4,0,0,1-.19.43h1.44l.08,0,.37.24a.23.23,0,0,1-.11.07,6.48,6.48,0,0,1-.54,1H89v2.67h-.46v-.94a.37.37,0,0,1-.34.13h-.47c-.4,0-.5-.09-.5-.51v-.91h-.61a1.73,1.73,0,0,1-.87,1.64,1,1,0,0,0-.26-.3,1.39,1.39,0,0,0,.73-1.34h-.73v2.23h-.45V27.58l-.29.26a1.4,1.4,0,0,0-.38-.31l.16-.13h-.76V29l.84-.23Zm4.71,1.26h-2a2.81,2.81,0,0,0,2.15,1.55,1.67,1.67,0,0,0-.31.44A3.16,3.16,0,0,1,87,30.7a2.85,2.85,0,0,1-2.28,1.83,1.3,1.3,0,0,0-.27-.39,2.52,2.52,0,0,0,2.1-1.63H84.57v-.46h2.06c0-.23.07-.47.1-.73l.63.06c0,.05-.06.09-.16.11a5,5,0,0,1-.08.56h2.31ZM87,27.15a5.87,5.87,0,0,0,.43-.83h-1.4a5.42,5.42,0,0,1-.58.83Zm1.16,1.49c.11,0,.13,0,.15-.31a1,1,0,0,0,.25.11v-.85h-.89v.91c0,.12,0,.14.13.14Z"/><path class="cls-2" d="M164.14,28.23h1v.47h-7.18v-.47h1v-2h5.27Zm-5.46-2.59V26h-.48V22h3.28v.42h-1.35V23h1.17v1.53h-1.17v.64h1.43v.43Zm1-3.22h-1V23h1Zm1.16,1.75v-.74h-2.16v.74Zm-1.16,1v-.64h-1v.64Zm-.31,1.48v1.54h1.08V26.69Zm2.67,0h-1.1v1.54H162Zm3.05-3.4h-2.53a5.17,5.17,0,0,1-.69,1.19,2.68,2.68,0,0,0-.36-.29,6.21,6.21,0,0,0,1.08-2.5l.59.15a.14.14,0,0,1-.16.08c-.08.3-.16.61-.27.91h2.34Zm-.2,2H162.2v-.46h2.69Zm-1.26,1.42h-1.1v1.54h1.1Z"/><path class="cls-2" d="M172.8,23.18h-2.69A7.18,7.18,0,0,0,173,24.94a1.78,1.78,0,0,0-.35.42,7.52,7.52,0,0,1-3.06-2.18V24.9H169V23.18a7.61,7.61,0,0,1-3,2.24,2.2,2.2,0,0,0-.33-.41,7,7,0,0,0,2.76-1.83H165.8v-.47H169v-1l.67,0c0,.06,0,.1-.14.11v.88h3.26Zm-1.31,2v3.12h1.34v.49h-7.05v-.49h1.34V25.15Zm-.53.46h-3.33v.61H171Zm0,1.63v-.62h-3.33v.62Zm-3.33.41v.62H171v-.62Z"/><path class="cls-1" d="M139.61,73.7H99.92a8.5,8.5,0,0,1-8.5-8.5V8.51A8.5,8.5,0,0,1,99.92,0h39.69a8.51,8.51,0,0,1,8.5,8.51V65.2a8.51,8.51,0,0,1-8.5,8.5"/><path class="cls-2" d="M107.38,19.35a.17.17,0,0,1-.16.07c-.17.23-.43.57-.64.82H108v1.62h-.51V20.72h-5.56v1.14h-.5V20.24h1.28a6.11,6.11,0,0,0-.63-.93l.45-.19a5.09,5.09,0,0,1,.71,1l-.29.14h1.44V19l.68,0c0,.05,0,.09-.15.11v1h1.41l-.23-.11a7.32,7.32,0,0,0,.68-1Zm.09,4.37v1.63c0,.58-.29.58-1.56.58a2.19,2.19,0,0,0-.18-.46l.76,0c.4,0,.46,0,.46-.14V24.2h-2v2.09h-.53V24.2h-1.93V26h-.51V23.72h2.44v-.66h-1.74V21.33h4.14v1.73H105a.19.19,0,0,1-.09,0v.62Zm-4.35-2v.91h3.14v-.91Z"/><path class="cls-2" d="M109.79,20.8v-.61h-1v-.42h1V19l.64,0c0,.05-.05.09-.15.1v.59h1.11V19l.65,0c0,.05-.05.09-.16.1v.59h1v.42h-1v.61h-.49v-.61h-1.11v.61Zm5.91.1.27,0a1.15,1.15,0,0,1,0,.18c-.08,3.42-.15,4.52-.4,4.85s-.37.29-.85.29l-.6,0a1,1,0,0,0-.14-.49c.39,0,.73,0,.87,0s.2,0,.27-.11.28-1.28.35-4.24h-1.19c-.09,2.09-.4,3.85-1.65,4.92a1.63,1.63,0,0,0-.38-.36,4.68,4.68,0,0,0,.39-.38l-3.52.42a.14.14,0,0,1-.11.11l-.16-.56,1.75-.17v-.72h-1.41v-.41h1.41v-.62H109v-.42h1.57v-.57h-1.43V21h3.41v1.67h-1.49v.57h1.61v.42h-1.61v.62h1.47v.41h-1.47v.67l1.65-.17v.3a7,7,0,0,0,1-4.06h-1v-.49h1c0-.57,0-1.18,0-1.81l.68,0c0,.08-.06.11-.18.14,0,.56,0,1.11,0,1.64h1.41Zm-6.08,1.34h1v-.87h-1Zm2.46,0v-.87h-1v.87Z"/><path class="cls-2" d="M122.88,25.59h1v.47h-7.19v-.47h1v-2h5.27ZM117.43,23v.38h-.49v-4h3.29v.43h-1.36v.62H120v1.53h-1.17v.64h1.43V23Zm1-3.21h-1v.62h1Zm1.17,1.75v-.74h-2.16v.74Zm-1.17,1v-.64h-1v.64Zm-.31,1.48v1.54h1.09V24.05Zm2.67,0h-1.1v1.54h1.1Zm3-3.4H121.3a4.59,4.59,0,0,1-.69,1.18,2.64,2.64,0,0,0-.36-.28,6.28,6.28,0,0,0,1.08-2.5l.59.15c0,.06-.08.08-.16.08-.08.3-.16.61-.27.91h2.34Zm-.2,2h-2.69v-.46h2.69Zm-1.26,1.42h-1.1v1.54h1.1Z"/><path class="cls-2" d="M131.54,20.54h-2.69a7.16,7.16,0,0,0,2.84,1.75,1.83,1.83,0,0,0-.35.43,7.59,7.59,0,0,1-3.06-2.18v1.71h-.52V20.54a7.71,7.71,0,0,1-3,2.24,2.27,2.27,0,0,0-.33-.42,7,7,0,0,0,2.77-1.82h-2.62v-.48h3.22V19l.67,0c0,.05-.05.09-.15.11v.87h3.26Zm-1.31,2v3.12h1.34v.48h-7v-.48h1.34V22.51Zm-.53.45h-3.32v.62h3.32Zm0,1.64V24h-3.32v.62Zm-3.32.41v.62h3.32V25Z"/><path class="cls-2" d="M133.38,22.76a10.47,10.47,0,0,1-.92.95c-.06-.11-.21-.34-.29-.45a9.73,9.73,0,0,0,2-2.51l.59.24a.17.17,0,0,1-.18.07,11.4,11.4,0,0,1-.71,1.05l.14.05c0,.05-.06.09-.16.1v4h-.51Zm1.18-3.46a.16.16,0,0,1-.17.06,12.08,12.08,0,0,1-1.9,1.78,3.08,3.08,0,0,0-.3-.41A8.16,8.16,0,0,0,134,19Zm4,3.22.38.17a.32.32,0,0,1-.09.08,5,5,0,0,1-1.53,2.15,5.93,5.93,0,0,0,2.24.9,2,2,0,0,0-.34.47,6,6,0,0,1-2.31-1,7.44,7.44,0,0,1-2.23,1,1.86,1.86,0,0,0-.3-.45,6.71,6.71,0,0,0,2.12-.94,5.16,5.16,0,0,1-1.17-1.77l.35-.1h-.82v-.49h3.61ZM136,19.82v.48a2.36,2.36,0,0,1-1,2.09,1.81,1.81,0,0,0-.41-.32,1.92,1.92,0,0,0,.94-1.78v-.94h2.7v1.91c0,.27,0,.3.21.3h.29c.3,0,.31,0,.33-.83a1.58,1.58,0,0,0,.41.21c0,.72,0,1.07-.71,1.07h-.43c-.62,0-.62-.36-.62-.79v-1.4ZM135.75,23a4.41,4.41,0,0,0,1.14,1.57A4.81,4.81,0,0,0,138.16,23Z"/><path class="cls-2" d="M123.09,36.1v.49h-2.61v2.6H120v-2.6h-2.6V36.1H120V33.49h.48V36.1Z"/><path class="cls-2" d="M104.24,48a.14.14,0,0,1-.1.08A8,8,0,0,1,103,49.91c.37.25,1.14.81,1.34,1l-.31.44c-.22-.22-.72-.64-1.1-.94v3.2h-.52v-3a8.75,8.75,0,0,1-1.23,1,1.62,1.62,0,0,0-.28-.46,7.4,7.4,0,0,0,2.58-2.84h-2.37v-.49h1.3V46.33l.68,0c0,.06-.06.1-.16.11v1.34h.84l.1,0Zm2.23,4.83h1.88v.51h-4.46v-.51h2V49.44h-1.73v-.5h1.73V46.38l.69,0s0,.09-.16.11v2.4h1.72v.5h-1.72Z"/><path class="cls-2" d="M114.42,46.39s-.06.09-.16.11V50a7.14,7.14,0,0,0,1.84,1.25,2,2,0,0,0-.38.44,7.37,7.37,0,0,1-1.46-1v2.92h-.54V50.12a8.42,8.42,0,0,1-1.25-1.63,7.31,7.31,0,0,1-3,5.06,1.57,1.57,0,0,0-.42-.39,5.48,5.48,0,0,0,2.06-2.28,7.19,7.19,0,0,0-1.32-1l.28-.37a7.78,7.78,0,0,1,1.28.87,10.47,10.47,0,0,0,.63-2.34H110.4a7,7,0,0,1-1.21,2.18,2,2,0,0,0-.36-.35,8.17,8.17,0,0,0,1.52-3.57l.65.15c0,.06-.07.09-.17.09-.08.33-.16.67-.26,1h1.66l.1,0,.33.14a.23.23,0,0,1-.07.1l-.07.44.25-.1a7.19,7.19,0,0,0,1,1.3V46.34Z"/><path class="cls-2" d="M122.88,52.88h1v.46h-7.19v-.46h1v-2h5.27Zm-5.45-2.6v.37h-.49v-4h3.29v.43h-1.36v.61H120v1.53h-1.17v.64h1.43v.43Zm1-3.21h-1v.61h1Zm1.17,1.74v-.74h-2.16v.74Zm-1.17,1v-.64h-1v.64Zm-.31,1.48v1.55h1.09V51.33Zm2.67,0h-1.1v1.55h1.1Zm3-3.4H121.3a4.84,4.84,0,0,1-.69,1.19,2.64,2.64,0,0,0-.36-.28,6.33,6.33,0,0,0,1.08-2.51l.59.15a.14.14,0,0,1-.16.08c-.08.3-.16.61-.27.91h2.34Zm-.2,2h-2.69v-.46h2.69Zm-1.26,1.42h-1.1v1.55h1.1Z"/><path class="cls-2" d="M131.54,47.82h-2.69a7.18,7.18,0,0,0,2.84,1.76,1.83,1.83,0,0,0-.35.43,7.71,7.71,0,0,1-3.06-2.19v1.72h-.52V47.82a7.71,7.71,0,0,1-3,2.24,2.58,2.58,0,0,0-.33-.41,7.11,7.11,0,0,0,2.77-1.83h-2.62v-.47h3.22v-1l.67,0c0,.06-.05.1-.15.11v.88h3.26Zm-1.31,2v3.12h1.34v.49h-7v-.49h1.34V49.79Zm-.53.46h-3.32v.61h3.32Zm0,1.63v-.62h-3.32v.62Zm-3.32.41v.62h3.32v-.62Z"/><path class="cls-2" d="M133.38,50a10.65,10.65,0,0,1-.92,1c-.06-.11-.21-.35-.29-.46a9.4,9.4,0,0,0,2-2.51l.59.24a.16.16,0,0,1-.18.07,11.53,11.53,0,0,1-.71,1.06l.14,0c0,.05-.06.09-.16.11v4h-.51Zm1.18-3.46c0,.06-.09.07-.17.07a12.52,12.52,0,0,1-1.9,1.77,3.91,3.91,0,0,0-.3-.41A8.12,8.12,0,0,0,134,46.33Zm4,3.22.38.17a.22.22,0,0,1-.09.08,5,5,0,0,1-1.53,2.15,5.77,5.77,0,0,0,2.24.9,2,2,0,0,0-.34.47,5.7,5.7,0,0,1-2.31-1,7.47,7.47,0,0,1-2.23,1,1.54,1.54,0,0,0-.3-.45,6.52,6.52,0,0,0,2.12-1,5,5,0,0,1-1.17-1.76l.35-.11h-.82v-.48h3.61ZM136,47.11v.47a2.35,2.35,0,0,1-1,2.09,2.15,2.15,0,0,0-.41-.32,1.92,1.92,0,0,0,.94-1.78v-.93h2.7v1.9c0,.27,0,.3.21.3h.29c.3,0,.31,0,.33-.83a1.32,1.32,0,0,0,.41.21c0,.73,0,1.08-.71,1.08h-.43c-.62,0-.62-.36-.62-.79v-1.4Zm-.25,3.2a4.24,4.24,0,0,0,1.14,1.57,4.61,4.61,0,0,0,1.27-1.57Z"/><path class="cls-1" d="M231,73.7H191.34a8.5,8.5,0,0,1-8.5-8.5V8.51A8.5,8.5,0,0,1,191.34,0H231a8.51,8.51,0,0,1,8.51,8.51V65.2A8.51,8.51,0,0,1,231,73.7"/><path class="cls-2" d="M204.25,19.92h-.72v6.37H203V24.68c-.93.16-1.86.33-2.47.42a.15.15,0,0,1-.12.11l-.2-.6.69-.1V19.92h-.67v-.49h4ZM203,21.05V19.92h-1.6v1.13Zm0,1.63V21.54h-1.6v1.14Zm-1.6.49v1.28l1.6-.23v-1Zm5.48-3,.33.11a.24.24,0,0,1-.06.1,10,10,0,0,1-1.26,3.87,4.49,4.49,0,0,0,1.63,1.61,2.16,2.16,0,0,0-.37.43,4.77,4.77,0,0,1-1.57-1.56A5.83,5.83,0,0,1,204,26.29a2.06,2.06,0,0,0-.35-.43,5.16,5.16,0,0,0,1.67-1.63,11.85,11.85,0,0,1-1.07-3.36l.48-.09a11.11,11.11,0,0,0,.91,2.92,9.71,9.71,0,0,0,1-3H204v-.51h2.82Z"/><path class="cls-2" d="M210.26,22.5a8.37,8.37,0,0,0-.45-.78l.38-.17a6.76,6.76,0,0,1,.84,1.61l-.42.19a2.67,2.67,0,0,0-.16-.44l-.66,0v3.34h-.47V23L208.2,23a.2.2,0,0,1-.12.1l-.14-.59h.54c.17-.21.35-.46.54-.71a7.09,7.09,0,0,0-1-1.16l.28-.34.25.24a12.35,12.35,0,0,0,.73-1.52l.56.24a.17.17,0,0,1-.17.06,12.66,12.66,0,0,1-.84,1.51,4.37,4.37,0,0,1,.46.56,16.52,16.52,0,0,0,.87-1.48l.55.26a.21.21,0,0,1-.17.07A24.47,24.47,0,0,1,209,22.53ZM209,23.67c0,.06-.07.09-.16.09a7.07,7.07,0,0,1-.51,1.86l-.4-.19a6.6,6.6,0,0,0,.5-1.9Zm1.54,1.44a6.44,6.44,0,0,0-.48-1.47l.4-.13A6.55,6.55,0,0,1,211,25Zm4.65-5.27v.46H211v-.46h1.76V19l.68,0c0,.05,0,.09-.16.11v.65ZM212,21.59h1.64l-.27-.11a8.33,8.33,0,0,0,.53-1.18l.63.21a.2.2,0,0,1-.17.07,11,11,0,0,1-.53,1h1.27v1.28h-.5V22h-3.18v.83H211V21.59h1a5.22,5.22,0,0,0-.38-1.11l.45-.11a4.67,4.67,0,0,1,.41,1.1Zm2.73,1.55V25c0,.49-.21.55-1.06.55a1.57,1.57,0,0,0-.16-.46h.4c.31,0,.34,0,.34-.1v-1.4h-1.06v2.7h-.48v-2.7h-1v2h-.47V23.14h1.47v-.85l.63.05c0,.05,0,.08-.15.1v.7Z"/><path class="cls-2" d="M217,22.76a12.06,12.06,0,0,1-.93.95,3.79,3.79,0,0,0-.29-.45,9.73,9.73,0,0,0,2-2.51l.59.24a.16.16,0,0,1-.17.07c-.22.35-.46.71-.72,1.05l.15.05a.19.19,0,0,1-.17.1v4H217Zm1.17-3.46a.16.16,0,0,1-.17.06,12,12,0,0,1-1.89,1.78,2.45,2.45,0,0,0-.31-.41A7.94,7.94,0,0,0,217.58,19Zm4,3.22.37.17a.23.23,0,0,1-.09.08,5.08,5.08,0,0,1-1.52,2.15,5.81,5.81,0,0,0,2.23.9,2.36,2.36,0,0,0-.34.47,6,6,0,0,1-2.31-1,7.44,7.44,0,0,1-2.23,1,1.82,1.82,0,0,0-.29-.45,6.81,6.81,0,0,0,2.12-.94,5,5,0,0,1-1.18-1.77l.35-.1h-.82v-.49h3.61Zm-2.56-2.7v.48a2.33,2.33,0,0,1-1,2.09,1.81,1.81,0,0,0-.41-.32,1.9,1.9,0,0,0,.94-1.78v-.94h2.71v1.91c0,.27,0,.3.2.3h.29c.3,0,.31,0,.33-.83a1.76,1.76,0,0,0,.41.21c0,.72,0,1.07-.71,1.07h-.43c-.62,0-.62-.36-.62-.79v-1.4ZM219.38,23a4.38,4.38,0,0,0,1.13,1.57A4.81,4.81,0,0,0,221.78,23Z"/><path class="cls-2" d="M212.11,34.1a.2.2,0,0,1-.19.13c-.29,2.42-1.1,4.53-2.39,4.53-.66,0-1.25-.65-1.25-1.88a3.42,3.42,0,0,1,3.51-3.44,2.89,2.89,0,0,1,3.23,3c0,1.85-1.08,2.75-3,3.19a3.18,3.18,0,0,0-.33-.48c1.79-.34,2.71-1.22,2.71-2.69A2.39,2.39,0,0,0,211.79,34l-.23,0Zm-.75-.1a2.88,2.88,0,0,0-2.55,2.86c0,.84.36,1.36.74,1.36C210.49,38.22,211.17,36.14,211.36,34Z"/><path class="cls-2" d="M199.17,47.15h-.52v6.42h-.46V52l-1.59.38a.13.13,0,0,1-.09.12l-.2-.57.49-.09V47.15h-.46v-.48h2.83Zm-1,1.17V47.15h-.94v1.17Zm0,1.65v-1.2h-.94V50Zm-.94.44v1.33l.94-.19V50.41Zm5-1c0,.62.09,1.19.15,1.69a8.27,8.27,0,0,0,.52-1.37l.56.15s-.07.08-.17.08a7,7,0,0,1-.81,1.84c.14.8.33,1.3.56,1.3s.22-.38.25-1.21a1.07,1.07,0,0,0,.35.27c-.09,1.06-.22,1.41-.65,1.41s-.67-.48-.87-1.27a5,5,0,0,1-1.35,1.24,1.93,1.93,0,0,0-.29-.35A4.83,4.83,0,0,0,202,51.74a22.45,22.45,0,0,1-.23-2.32h-3V49h3c0-.84-.06-1.74-.07-2.65l.63,0c0,.06-.05.09-.15.11,0,.85,0,1.72,0,2.51h1.36v.44ZM199,47.21h1v-.89l.61,0s-.05.09-.15.11v.74h1v.42H199Zm2.22,5.36h-1.58v.52h-.44V49.93h2Zm-1.61-4.85a3.88,3.88,0,0,1,.31,1.15l-.4.11a4.1,4.1,0,0,0-.27-1.17Zm1.17,2.61h-1.14V51h1.14Zm-1.14,1.84h1.14v-.75h-1.14Zm1.67-4.32s-.07.07-.15.08a8.85,8.85,0,0,1-.38,1l-.34-.11a9.24,9.24,0,0,0,.34-1.17Zm1.4-1.24a4.89,4.89,0,0,1,.85,1.3l-.39.22a5.16,5.16,0,0,0-.83-1.33Z"/><path class="cls-2" d="M211.28,47.64h-.66a4.2,4.2,0,0,1-1,1.5,5.07,5.07,0,0,0,1.75.84,2.18,2.18,0,0,0-.33.45,5.45,5.45,0,0,1-1.78-1,5.84,5.84,0,0,1-1.84,1c-.06-.09-.16-.24-.24-.34a6.36,6.36,0,0,1-.39.93l-.38-.19a9,9,0,0,0,.46-1.31h-.82V53c0,.56-.26.6-1.21.6a2,2,0,0,0-.18-.5l.55,0c.31,0,.34,0,.34-.12V50.22a6.45,6.45,0,0,1-1.2,2.05,1.89,1.89,0,0,0-.28-.47,6.12,6.12,0,0,0,1.3-2.22h-1.24v-.47h2.19a7.51,7.51,0,0,0-1.8-1.13l.33-.34a7,7,0,0,1,.77.39,5.27,5.27,0,0,0,.91-.85h-2.3v-.46H207l.1,0,.39.24a.21.21,0,0,1-.11.07,6.69,6.69,0,0,1-1.29,1.25,4.62,4.62,0,0,1,.68.5l-.32.35h.8l.28,0c0,.1-.2.73-.25.91a5.24,5.24,0,0,0,1.69-.89,4.86,4.86,0,0,1-.8-1,5.08,5.08,0,0,1-.59.69,4.4,4.4,0,0,0-.41-.31,5.2,5.2,0,0,0,1.34-2.16l.64.18c0,.06-.08.09-.17.08a5,5,0,0,1-.25.59h2.58Zm-.63,3.24.31.06a.45.45,0,0,1,0,.16c-.14,1.46-.28,2-.5,2.25s-.35.2-.81.2h-.55a1.22,1.22,0,0,0-.15-.49c.35,0,.68,0,.81,0A.36.36,0,0,0,210,53c.15-.15.26-.59.37-1.66H209.1a3.21,3.21,0,0,1-1.95,2.23,1.56,1.56,0,0,0-.31-.39,2.8,2.8,0,0,0,1.73-1.84h-1.21v-.46h1.33a7.73,7.73,0,0,0,.13-.84l.67.07c0,.06-.07.09-.16.1,0,.23-.06.45-.11.67h1.43Zm-2.2-3.24,0,0a4.12,4.12,0,0,0,.87,1.14,3.75,3.75,0,0,0,.79-1.19Z"/><path class="cls-2" d="M215.45,48.44v.46H212v-.46h1.49V47.6h-1.17v-.45h1.17v-.82l.64,0c0,.06,0,.1-.15.11v.68h1.22v.45h-1.22v.84ZM215.22,52h-1.29v1.57h-.49V52h-1.28v-.47h1.28v-.88H212v-.47h2.25l-.23-.1a8.43,8.43,0,0,0,.43-1.15l.54.2s-.07.06-.15.06a7.57,7.57,0,0,1-.49,1h1v.47h-1.41v.88h1.29Zm-2.39-1.82a4.08,4.08,0,0,0-.36-1.13l.39-.1a3.9,3.9,0,0,1,.38,1.1Zm4.3-3.82c0,.07-.06.11-.18.13,0,.47,0,.94,0,1.39h1.49c0,1.1,0,5.16.37,5.16a3.9,3.9,0,0,0,.12-1.14,2,2,0,0,0,.33.33c0,1-.22,1.35-.49,1.35-.72,0-.81-1.81-.83-5.21h-1a14.24,14.24,0,0,1-.17,2,6.17,6.17,0,0,1,1,1l-.32.41a6.16,6.16,0,0,0-.81-.84A4.23,4.23,0,0,1,215,53.59a2.11,2.11,0,0,0-.37-.36,3.86,3.86,0,0,0,1.59-2.64c-.32-.25-.64-.49-.95-.69a1.47,1.47,0,0,1,.29-.35c.24.14.5.32.75.5a16.79,16.79,0,0,0,.12-1.68h-1.09v-.49h1.1V46.33Z"/><path class="cls-2" d="M222.13,46.58a.16.16,0,0,1-.17.06,11,11,0,0,1-2,1.8,2.07,2.07,0,0,0-.31-.42,7.65,7.65,0,0,0,1.83-1.69Zm-1.2,7V50.14a10.61,10.61,0,0,1-.88.89,4.35,4.35,0,0,0-.34-.41A10,10,0,0,0,221.85,48l.6.25c0,.05-.08.08-.17.06a12.28,12.28,0,0,1-.81,1.17l.14,0s-.06.08-.15.1v3.93Zm6-4.48v.5h-1.24v3.3c0,.66-.25.67-1.82.67a2.54,2.54,0,0,0-.17-.51h.9c.51,0,.56,0,.56-.18V49.59h-2.71v-.5Zm-.3-2.27v.5h-3.89v-.5Z"/><line class="cls-3" x1="60.81" y1="36.85" x2="61.88" y2="36.85"/><line class="cls-4" x1="64.08" y1="36.85" x2="84.99" y2="36.85"/><line class="cls-3" x1="86.09" y1="36.85" x2="87.15" y2="36.85"/><polygon class="cls-5" points="61.64 39.68 56.74 36.85 61.64 34.02 61.64 39.68"/><polygon class="cls-5" points="86.32 39.68 91.22 36.85 86.32 34.02 86.32 39.68"/><rect class="cls-5" x="152.31" y="34.02" width="19.84" height="5.67"/><polygon class="cls-5" points="179.96 36.85 169.99 42.52 169.99 31.18 179.96 36.85"/></g></g></svg>