<svg xmlns="http://www.w3.org/2000/svg" viewBox="0 0 239.53 90.71"><defs><style>.cls-1{fill:none;stroke:#1cb3ac;stroke-miterlimit:10;stroke-width:0.57px;}.cls-2{fill:#e1f1f0;}.cls-3{fill:#231815;}.cls-4{fill:#1cb3ac;}.cls-5{fill:#fff;}.cls-6{fill:#84cac5;}</style></defs><g id="レイヤー_2" data-name="レイヤー 2"><g id="レイヤー_2-2" data-name="レイヤー 2"><polyline class="cls-1" points="182.58 33.31 182.58 57.4 192.03 57.4"/><polyline class="cls-1" points="128.66 9.21 119.74 9.21 119.74 57.4 151.18 57.4 151.4 81.5 191.72 81.5"/><line class="cls-1" x1="88.35" y1="15.5" x2="88.35" y2="75.68"/><line class="cls-1" x1="46.44" y1="33.31" x2="194.16" y2="33.31"/><path class="cls-2" d="M45.35,66.61H5.67A5.67,5.67,0,0,1,0,60.94V53.86a5.67,5.67,0,0,1,5.67-5.67H45.35A5.67,5.67,0,0,1,51,53.86v7.08a5.67,5.67,0,0,1-5.67,5.67"/><path class="cls-3" d="M16.46,60.2h.95v.47H10.23V60.2h1v-2h5.27ZM11,57.61V58h-.49V54H13.8v.42H12.45V55h1.17v1.53H12.45v.64h1.43v.43Zm1-3.22H11V55h1Zm1.17,1.75V55.4H11v.74Zm-1.17,1v-.64H11v.64Zm-.31,1.48V60.2h1.08V58.66Zm2.67,0h-1.1V60.2h1.1Zm3.05-3.4H14.88a5.24,5.24,0,0,1-.69,1.18,3.76,3.76,0,0,0-.36-.28,6.21,6.21,0,0,0,1.08-2.5l.59.15c0,.06-.08.08-.16.08-.08.3-.16.61-.27.91h2.34Zm-.2,2H14.52v-.46h2.69ZM16,58.66h-1.1V60.2H16Z"/><path class="cls-3" d="M25.12,55.15H22.43a7,7,0,0,0,2.84,1.75,2.06,2.06,0,0,0-.35.43,7.52,7.52,0,0,1-3.06-2.18v1.72h-.53V55.15a7.61,7.61,0,0,1-3,2.24A3.39,3.39,0,0,0,18,57a6.87,6.87,0,0,0,2.76-1.82H18.12v-.48h3.21v-1l.67,0c0,.06,0,.1-.14.11v.87h3.26Zm-1.31,2v3.12h1.34v.49h-7v-.49h1.34V57.12Zm-.53.46H20v.61h3.33Zm0,1.63v-.62H20v.62ZM20,59.62v.62h3.33v-.62Z"/><path class="cls-3" d="M27,57.37a9.34,9.34,0,0,1-.93,1,3.68,3.68,0,0,0-.28-.45,9.56,9.56,0,0,0,2-2.51l.59.24a.17.17,0,0,1-.18.07,11,11,0,0,1-.72,1.06l.15,0s-.06.09-.16.1v4H27Zm1.18-3.46c0,.06-.09.07-.17.06a12.08,12.08,0,0,1-1.9,1.78,3.08,3.08,0,0,0-.3-.41,8.16,8.16,0,0,0,1.77-1.69Zm4,3.22.38.17a.32.32,0,0,1-.09.08,5.1,5.1,0,0,1-1.53,2.15,5.71,5.71,0,0,0,2.24.9,1.77,1.77,0,0,0-.34.47,6,6,0,0,1-2.31-1,7.21,7.21,0,0,1-2.23,1,1.86,1.86,0,0,0-.3-.45,6.5,6.5,0,0,0,2.12-.94,5.12,5.12,0,0,1-1.17-1.76l.35-.11h-.82v-.49H32Zm-2.56-2.7v.48a2.34,2.34,0,0,1-1,2.09,1.67,1.67,0,0,0-.42-.32,1.91,1.91,0,0,0,.95-1.78V54h2.7v1.9c0,.27,0,.3.21.3h.28c.31,0,.32,0,.34-.83a1.58,1.58,0,0,0,.41.21c0,.72,0,1.07-.71,1.07h-.43c-.62,0-.62-.35-.62-.78V54.43Zm-.24,3.21a4.24,4.24,0,0,0,1.14,1.57,4.56,4.56,0,0,0,1.26-1.57Z"/><path class="cls-3" d="M37.67,53.68a.21.21,0,0,1-.17.11,9,9,0,0,0,3.4,2.64,2,2,0,0,0-.33.47,9.87,9.87,0,0,1-3.4-2.73,9.35,9.35,0,0,1-3.31,2.76,2.19,2.19,0,0,0-.3-.42,8.44,8.44,0,0,0,3.33-2.88ZM34,58.13v-.5H40.5v.5H36.75l.1,0a.23.23,0,0,1-.19.09,19.22,19.22,0,0,1-.92,1.8c1,0,2.25-.06,3.43-.1A14.12,14.12,0,0,0,38,58.78l.45-.24a11,11,0,0,1,1.89,2.08l-.47.3c-.1-.16-.23-.35-.38-.55-1.9.11-3.91.19-5.16.23a.13.13,0,0,1-.12.11l-.2-.62,1.14,0a16.33,16.33,0,0,0,.93-1.93Zm1.34-2h3.78v.49H35.3Z"/><path class="cls-2" d="M45.35,42.52H5.67A5.67,5.67,0,0,1,0,36.85V29.76a5.67,5.67,0,0,1,5.67-5.67H45.35A5.67,5.67,0,0,1,51,29.76v7.09a5.67,5.67,0,0,1-5.67,5.67"/><path class="cls-3" d="M14.21,30.44h-.73V36.8H13V35.2l-2.47.42a.16.16,0,0,1-.12.11l-.2-.6.69-.1V30.44H10.2V30h4ZM13,31.57V30.44h-1.6v1.13Zm0,1.63V32.05h-1.6V33.2Zm-1.6.48V35l1.6-.23V33.68Zm5.48-3,.33.11a.24.24,0,0,1-.06.1,10,10,0,0,1-1.26,3.87,4.57,4.57,0,0,0,1.63,1.61,1.69,1.69,0,0,0-.37.43,4.68,4.68,0,0,1-1.57-1.56,5.65,5.65,0,0,1-1.62,1.55,2.79,2.79,0,0,0-.35-.42,5,5,0,0,0,1.66-1.64,11.67,11.67,0,0,1-1.06-3.35l.48-.09a10.75,10.75,0,0,0,.9,2.92,9.79,9.79,0,0,0,1-3H13.94V30.7h2.92Z"/><path class="cls-3" d="M20.22,33c-.14-.27-.3-.55-.45-.79l.38-.16A6.76,6.76,0,0,1,21,33.68l-.42.19a4.06,4.06,0,0,0-.16-.44l-.67,0V36.8h-.46V33.49l-1.13,0a.15.15,0,0,1-.11.11l-.14-.59h.53c.17-.21.35-.46.54-.72a7.46,7.46,0,0,0-1-1.16l.28-.33a2.83,2.83,0,0,1,.25.24,13.21,13.21,0,0,0,.74-1.52l.56.23a.16.16,0,0,1-.17.06,12.13,12.13,0,0,1-.85,1.52,3.67,3.67,0,0,1,.46.56c.34-.51.65-1.05.88-1.48l.54.25a.19.19,0,0,1-.17.08A21.49,21.49,0,0,1,18.92,33ZM19,34.19c0,.05-.06.09-.15.09a7.46,7.46,0,0,1-.52,1.86l-.39-.2a6.46,6.46,0,0,0,.49-1.89Zm1.54,1.43A7,7,0,0,0,20,34.16l.4-.13a6.59,6.59,0,0,1,.5,1.45Zm4.66-5.26v.45H20.93v-.45h1.75v-.81l.68.05s-.05.09-.15.11v.65ZM22,32.11h1.63L23.37,32a8.4,8.4,0,0,0,.52-1.19l.63.22s-.07.06-.17.06a7.66,7.66,0,0,1-.53,1h1.27v1.28h-.5v-.84H21.42v.84h-.48V32.11h1A4.82,4.82,0,0,0,21.57,31l.44-.12a5.09,5.09,0,0,1,.42,1.1Zm2.73,1.55v1.85c0,.49-.22.54-1.06.54a1.89,1.89,0,0,0-.17-.45h.41c.3,0,.33,0,.33-.1v-1.4h-1V36.8h-.48V34.11h-1v2h-.47V33.66h1.47v-.85l.63,0s-.05.08-.15.1v.7Z"/><path class="cls-3" d="M27,33.28a9.34,9.34,0,0,1-.93.95,3.68,3.68,0,0,0-.28-.45,9.73,9.73,0,0,0,2-2.51l.59.24a.17.17,0,0,1-.18.07,9.81,9.81,0,0,1-.72,1.05l.15,0a.2.2,0,0,1-.16.1v4H27Zm1.18-3.46a.16.16,0,0,1-.17.06,13.09,13.09,0,0,1-1.9,1.78,3.19,3.19,0,0,0-.3-.42,8.12,8.12,0,0,0,1.77-1.68Zm4,3.22.38.17a.32.32,0,0,1-.09.08,5.1,5.1,0,0,1-1.53,2.15,5.7,5.7,0,0,0,2.24.89,1.77,1.77,0,0,0-.34.47,5.83,5.83,0,0,1-2.31-1,7.69,7.69,0,0,1-2.23,1,1.86,1.86,0,0,0-.3-.45,6.52,6.52,0,0,0,2.12-1,5,5,0,0,1-1.17-1.76l.35-.11h-.82v-.48H32Zm-2.56-2.7v.47a2.33,2.33,0,0,1-1,2.09,2.32,2.32,0,0,0-.42-.32,1.9,1.9,0,0,0,.95-1.77v-.94h2.7v1.9c0,.28,0,.31.21.31h.28c.31,0,.32,0,.34-.84a1.14,1.14,0,0,0,.41.21c0,.73,0,1.08-.71,1.08h-.43c-.62,0-.62-.36-.62-.79v-1.4Zm-.24,3.2a4.36,4.36,0,0,0,1.14,1.58,4.6,4.6,0,0,0,1.26-1.58Z"/><path class="cls-3" d="M37.67,29.58a.25.25,0,0,1-.17.12,9,9,0,0,0,3.4,2.63,2.49,2.49,0,0,0-.33.47,9.76,9.76,0,0,1-3.4-2.73,9.15,9.15,0,0,1-3.31,2.76,2.19,2.19,0,0,0-.3-.42,8.28,8.28,0,0,0,3.33-2.88ZM34,34v-.5H40.5V34H36.75l.1,0s-.09.07-.19.08c-.23.53-.59,1.23-.92,1.81,1,0,2.25-.06,3.43-.1A11.57,11.57,0,0,0,38,34.69l.45-.24a11,11,0,0,1,1.89,2.08l-.47.3a5,5,0,0,0-.38-.55c-1.9.1-3.91.19-5.16.23a.11.11,0,0,1-.12.1L34,36l1.14,0A16.47,16.47,0,0,0,36.1,34Zm1.34-2h3.78v.49H35.3Z"/><path class="cls-4" d="M125.73,90.71H51.24A5.67,5.67,0,0,1,45.57,85V78a5.67,5.67,0,0,1,5.67-5.67h74.49A5.67,5.67,0,0,1,131.4,78V85a5.67,5.67,0,0,1-5.67,5.67"/><path class="cls-5" d="M55.57,80.31H53.94v.53a3.92,3.92,0,0,1-2.5,3.93,2.11,2.11,0,0,0-.4-.39,3.49,3.49,0,0,0,2.34-3.53v-.54H50.87v1.94h-.56V80.31H48.78v-.53h1.53v-1.7l.75,0a.2.2,0,0,1-.19.16v1.49h2.51V78l.75,0c0,.07-.07.13-.19.15v1.6h1.63Z"/><path class="cls-5" d="M61.59,78.77a.15.15,0,0,1-.1.09,12.12,12.12,0,0,1-1.56,2.68,29.81,29.81,0,0,1,2.86,2.64l-.48.41A26,26,0,0,0,59.57,82a11.91,11.91,0,0,1-3,2.62,3.1,3.1,0,0,0-.4-.42,11.21,11.21,0,0,0,4.57-5.09H56.91v-.53H61l.1,0Z"/><path class="cls-5" d="M69.89,81H67.25l.13,0a.14.14,0,0,1-.15.09,4.24,4.24,0,0,1-2.41,3.57,5.36,5.36,0,0,0-.42-.39A3.7,3.7,0,0,0,66.65,81h-3v-.52h6.27Zm-.78-2.2H64.33v-.52h4.78Z"/><path class="cls-5" d="M77.22,80.59H74.39c-.15,2-.65,3.22-2.35,4.19a3.46,3.46,0,0,0-.45-.38c1.62-.9,2.09-2,2.24-3.81H70.7v-.54h3.15c0-.61,0-1.31,0-2.1l.77,0c0,.08-.08.12-.19.14,0,.71,0,1.34,0,1.91h2.8Z"/><path class="cls-5" d="M82.3,83.92a15.63,15.63,0,0,0,1.63-.12c0,.17,0,.39,0,.56-.52,0-1.3.09-1.62.09H80.4c-1.18,0-1.74-.52-1.74-1.63V78.27l.76,0c0,.08-.07.12-.21.14V81a26.22,26.22,0,0,0,3.87-1.54l.39.53a.14.14,0,0,1-.09,0,.23.23,0,0,1-.11,0,30.25,30.25,0,0,1-4.06,1.54v1.3c0,.79.38,1.09,1.18,1.09ZM83,78a6.31,6.31,0,0,1,1,1.15l-.3.23a6.38,6.38,0,0,0-1-1.15Zm1-.46a6.63,6.63,0,0,1,1,1.13l-.3.23a7.18,7.18,0,0,0-1-1.14Z"/><path class="cls-5" d="M86.22,82.28V78.49l.74.05c0,.07-.07.12-.19.14v3.6Zm4.34-4.1c0,.08-.06.12-.19.14V80.8a3.9,3.9,0,0,1-2.8,4,2,2,0,0,0-.4-.42,3.48,3.48,0,0,0,2.64-3.58V78.14Z"/><path class="cls-5" d="M98.4,81H95.77l.13,0a.16.16,0,0,1-.16.09,4.24,4.24,0,0,1-2.41,3.57,3.22,3.22,0,0,0-.42-.39A3.7,3.7,0,0,0,95.17,81h-3v-.52H98.4Zm-.77-2.2H92.84v-.52h4.79Z"/><path class="cls-5" d="M104.64,79.79a.16.16,0,0,1-.13.06l-.11,0a14,14,0,0,1-1.72,1.44l.17.07a.23.23,0,0,1-.13.09v3.38h-.48V81.56a20.54,20.54,0,0,1-2.56,1.49,3,3,0,0,0-.28-.37,15.49,15.49,0,0,0,4.7-3.27Z"/><path class="cls-5" d="M109.67,81.46h-.51v0a.24.24,0,0,1-.12,0c-.12.21-.27.42-.42.66H113v.46h-1.66a3.23,3.23,0,0,1-1,1.22,22.21,22.21,0,0,1,2.4.77l-.31.43a23.94,23.94,0,0,0-2.62-.85,9.37,9.37,0,0,1-3.68.87,1.38,1.38,0,0,0-.21-.48,9.92,9.92,0,0,0,3.15-.57c-.5-.12-1-.24-1.55-.34l-.19.25-.48-.18c.23-.3.52-.7.82-1.12h-1.86V82.1H108c.21-.31.41-.63.58-.9l.56.16V79.84a7.77,7.77,0,0,1-3.06,1.85,2.22,2.22,0,0,0-.32-.42,7.64,7.64,0,0,0,2.74-1.43h-2.6v-.45h3.24v-.85c-.85.06-1.74.1-2.55.13a1.66,1.66,0,0,0-.12-.42,31.32,31.32,0,0,0,5.13-.49l.42.4a.11.11,0,0,1-.08,0h-.07a21.22,21.22,0,0,1-2.22.31v.9H113v.45h-2.63a7.61,7.61,0,0,0,2.75,1.35,2.3,2.3,0,0,0-.34.43,7.45,7.45,0,0,1-3.06-1.78h0Zm-1.82,1.76c.64.12,1.28.26,1.89.41a2.8,2.8,0,0,0,1-1.07h-2.44Z"/><path class="cls-5" d="M116.4,84a.3.3,0,0,1-.16,0,9.18,9.18,0,0,1-2.3.92,2.31,2.31,0,0,0-.38-.39,8.11,8.11,0,0,0,2.3-.9Zm-2-3.72H120v3.38h-5.58Zm.45-2.24h4.68v1.75h-4.68Zm.08,2.64v.6h4.51v-.6Zm0,1v.61h4.51v-.61Zm0,1v.61h4.51v-.61Zm.44-4.17v.87H119V78.5Zm5,6.51a19.55,19.55,0,0,0-2.49-1l.46-.34a23.92,23.92,0,0,1,2.48.91Z"/><path class="cls-5" d="M125.27,77.77a.21.21,0,0,1-.16.12,8.85,8.85,0,0,0,3.4,2.63,2.55,2.55,0,0,0-.34.47,9.72,9.72,0,0,1-3.39-2.73A9.23,9.23,0,0,1,121.47,81a2.83,2.83,0,0,0-.31-.42,8.31,8.31,0,0,0,3.34-2.88Zm-3.7,4.45v-.5h6.54v.5h-3.75l.09,0c0,.06-.08.08-.18.09-.24.53-.59,1.23-.92,1.81,1,0,2.24-.06,3.43-.1a11.57,11.57,0,0,0-1.15-1.17l.45-.24A10.57,10.57,0,0,1,128,84.72l-.47.29a4.56,4.56,0,0,0-.38-.54c-1.89.1-3.9.19-5.15.23a.12.12,0,0,1-.13.1l-.19-.62,1.14,0a16.42,16.42,0,0,0,.92-1.94Zm1.33-2h3.78v.49H122.9Z"/><path class="cls-2" d="M108.19,66.61H68.5a5.67,5.67,0,0,1-5.67-5.67V53.86a5.67,5.67,0,0,1,5.67-5.67h39.69a5.67,5.67,0,0,1,5.67,5.67v7.08a5.67,5.67,0,0,1-5.67,5.67"/><path class="cls-3" d="M75.26,56.17a6.41,6.41,0,0,1,.86,1.62l-.42.2a3.16,3.16,0,0,0-.18-.47l-.72,0V60.9h-.47V57.58c-.44,0-.83,0-1.14.05a.12.12,0,0,1-.11.1l-.14-.58h.55c.17-.21.35-.46.54-.72a7.64,7.64,0,0,0-1-1.15l.27-.34.25.23a10.61,10.61,0,0,0,.74-1.52l.56.24a.2.2,0,0,1-.17.07,12.07,12.07,0,0,1-.84,1.51,7,7,0,0,1,.47.55,14.12,14.12,0,0,0,.87-1.48l.55.26a.21.21,0,0,1-.17.07A24.47,24.47,0,0,1,74,57.14l1.35,0c-.14-.26-.3-.53-.46-.77ZM74,58.29a.16.16,0,0,1-.16.08,7.43,7.43,0,0,1-.52,1.87A3.6,3.6,0,0,0,73,60a7,7,0,0,0,.49-1.9Zm1.61,1.52a7.25,7.25,0,0,0-.51-1.56l.4-.13a7.5,7.5,0,0,1,.54,1.54Zm2.67-1v1.36h2v.48H75.84v-.48h2V58.82H76.27v-.49H77.8V57.15l.67,0c0,.06,0,.1-.16.11v1h1.6v.49ZM79.58,54l.36.17a.11.11,0,0,1-.07.08,4.92,4.92,0,0,1-1.41,2,5.32,5.32,0,0,0,1.91.8,2.09,2.09,0,0,0-.33.45,5.45,5.45,0,0,1-2-.92,7.48,7.48,0,0,1-1.83.92,2.24,2.24,0,0,0-.31-.43,5.81,5.81,0,0,0,1.74-.83,4.84,4.84,0,0,1-1.13-1.66l.35-.11H76v-.48h3.44ZM77,54.55A4.13,4.13,0,0,0,78.05,56a4.26,4.26,0,0,0,1.13-1.46Z"/><path class="cls-3" d="M87.42,54s-.08.06-.16.06c-.19.27-.49.63-.75.93h1.27v1.51h-.51V55.44H81.7v1.05h-.49V55h1.17a4.66,4.66,0,0,0-.75-1l.44-.22a4.61,4.61,0,0,1,.79,1l-.38.2h3.43a7.34,7.34,0,0,0,.9-1.25Zm-.83,3.86H84.65c-.06.2-.15.46-.23.69h2.81v2.34h-.52v-.27H82.35v.29h-.51V58.54h2.08l.19-.69h-1.7V56h4.18Zm.12,2.29V59H82.35v1.13Zm-3.8-3.69v1h3.17v-1Zm1.24-2.8a4.82,4.82,0,0,1,.67,1.11l-.46.2a4.93,4.93,0,0,0-.66-1.15Z"/><path class="cls-3" d="M92.7,53.68a.18.18,0,0,1-.16.11,9,9,0,0,0,3.4,2.64,2.36,2.36,0,0,0-.34.47,9.93,9.93,0,0,1-3.39-2.73,9.35,9.35,0,0,1-3.31,2.76,2.26,2.26,0,0,0-.31-.42,8.4,8.4,0,0,0,3.34-2.88ZM89,58.13v-.5h6.54v.5H91.79l.1,0a.23.23,0,0,1-.19.09,19.22,19.22,0,0,1-.92,1.8c1,0,2.24-.06,3.43-.1a14.12,14.12,0,0,0-1.15-1.17l.45-.24a10.57,10.57,0,0,1,1.88,2.08l-.46.3c-.1-.16-.23-.35-.38-.55-1.9.11-3.91.19-5.16.23a.13.13,0,0,1-.12.11l-.2-.62,1.14,0a16.33,16.33,0,0,0,.93-1.93Zm1.33-2h3.79v.49H90.33Z"/><path class="cls-3" d="M99,55v.44H96.41V55Zm-.21,3.18v2.29H97.15v.37h-.43V58.15Zm-2-1.69V56h2v.43Zm0,1.06v-.43h2v.43Zm2-3.59v.43H96.78v-.43Zm-.43,4.66H97.15V60h1.14Zm3.83,0a6.39,6.39,0,0,0,.2.94,3.67,3.67,0,0,0,.53-.75l.5.21a.16.16,0,0,1-.14.06,3.81,3.81,0,0,1-.74.89c.19.39.41.58.64.58s.21-.17.25-.68a1.75,1.75,0,0,0,.35.2c-.09.7-.26.92-.64.92a1.09,1.09,0,0,1-.95-.72,5.34,5.34,0,0,1-1,.62,2,2,0,0,0-.28-.3,5.33,5.33,0,0,0,1.15-.71,6,6,0,0,1-.29-1.26h-1.13v.58l.88-.12v.36l-.89.15v.87c0,.49-.24.51-1.19.51a1.7,1.7,0,0,0-.15-.41h.46c.36,0,.41,0,.41-.12V59.6l-.91.15a.16.16,0,0,1-.1.11l-.18-.51,1.19-.15v-.65H98.93v-.41h1.15v-.57l-.88.11a1.58,1.58,0,0,0-.13-.34,9.72,9.72,0,0,0,2-.4l.37.35a.08.08,0,0,1-.07,0h-.06c-.2.06-.45.12-.73.18v.65h1.07c0-.36-.06-.75-.08-1.17l.62,0c0,.06,0,.1-.15.11,0,.37,0,.72.06,1h1.55v.41ZM101,55.49v-.56H99.24v-.4h1a4.35,4.35,0,0,0-.46-.73l.38-.15a2.81,2.81,0,0,1,.51.78,2,2,0,0,0-.26.1h1.65l-.17-.07a6.66,6.66,0,0,0,.46-.81l.54.21a.18.18,0,0,1-.15.06,5.29,5.29,0,0,1-.43.61h1.1v.4h-1.9v.56h1.67v.38h-1.67v.57h2v.42H98.94v-.42H101v-.57H99.52v-.38ZM103.24,58a4.43,4.43,0,0,0-.86-.78l.3-.22a3.5,3.5,0,0,1,.88.75Z"/><path class="cls-6" d="M108.19,42.52H68.5a5.67,5.67,0,0,1-5.67-5.67V29.76a5.67,5.67,0,0,1,5.67-5.67h39.69a5.67,5.67,0,0,1,5.67,5.67v7.09a5.67,5.67,0,0,1-5.67,5.67"/><path class="cls-5" d="M80.14,31.23a.15.15,0,0,1-.1.07,8,8,0,0,1-1.12,1.85c.38.24,1.14.81,1.34,1l-.31.44c-.22-.22-.72-.63-1.1-.94v3.2h-.52v-3a7.56,7.56,0,0,1-1.23,1,1.77,1.77,0,0,0-.28-.46,7.33,7.33,0,0,0,2.58-2.84H77v-.48h1.3V29.56l.68,0s-.06.09-.16.11v1.34h.84l.1,0Zm2.23,4.82h1.89v.52H79.8v-.52h2V32.68H80.11v-.51h1.73V29.61l.69.05c0,.05,0,.09-.16.11v2.4h1.72v.51H82.37Z"/><path class="cls-5" d="M96.27,33.84a4.43,4.43,0,0,0,.85,1.2,12,12,0,0,0,1.75-1.11l.5.36a.18.18,0,0,1-.17,0c-.45.3-1.16.7-1.74,1a5.35,5.35,0,0,0,2.33,1,2.32,2.32,0,0,0-.33.47,5.06,5.06,0,0,1-3.72-3H94.56V36c.67-.1,1.41-.23,2.13-.35l0,.43c-1.24.24-2.56.48-3.38.62a.18.18,0,0,1-.1.12L93,36.26l1-.16V33.84h-1.4v-.48H94V29.88h4.9v.45H94.56V31h4.12v.44H94.56v.71h4.12v.43H94.56v.74h5.11v.48Z"/><path class="cls-2" d="M108.19,18.42H68.5a5.66,5.66,0,0,1-5.67-5.66V5.67A5.67,5.67,0,0,1,68.5,0h39.69a5.67,5.67,0,0,1,5.67,5.67v7.09a5.66,5.66,0,0,1-5.67,5.66"/><path class="cls-3" d="M68.34,6.77v5.28H68v-.43H65.11V11.1H68V7.3H65.16V6.77Z"/><path class="cls-3" d="M69.39,6.31a5.16,5.16,0,0,1,1.37,1.07l-.17.49a5.77,5.77,0,0,0-1.35-1.09Zm0,5.41a6.73,6.73,0,0,0,3.27-4.57,1.85,1.85,0,0,0,.3.32,7.37,7.37,0,0,1-3.26,4.68.3.3,0,0,1-.06.18Z"/><path class="cls-3" d="M73.43,6.63h2.92l0,0L76.7,7a.2.2,0,0,1-.06.07c-.37,2.93-1.17,4.46-2.58,5.36a4.89,4.89,0,0,0-.2-.46c1.33-.83,2.11-2.28,2.4-4.82H73.43Zm3.5-1.4c.28,0,.5.38.5.86s-.22.85-.5.85-.5-.38-.5-.85S76.66,5.23,76.93,5.23Zm.35.86c0-.34-.15-.6-.35-.6s-.35.26-.35.6.16.6.35.6S77.28,6.4,77.28,6.09Z"/><path class="cls-3" d="M81.22,8.22a.24.24,0,0,1-.06.08c-.38,2.35-1.15,3.5-2.52,4.14a3,3,0,0,0-.19-.45,4,4,0,0,0,2.31-3.43h-3V8H80.9l0,0Zm-.44-1.67H78.17V6h2.61Z"/><path class="cls-3" d="M85.43,6.18a.1.1,0,0,1-.09.06h0A18.33,18.33,0,0,1,84,8.1l.11.09a.14.14,0,0,1-.1.1v4.18h-.34v-4a15.15,15.15,0,0,1-1.75,1.74,4.28,4.28,0,0,0-.19-.43,14.43,14.43,0,0,0,3.36-4Z"/><path class="cls-3" d="M89.67,6.39a.11.11,0,0,1-.06.07A7.31,7.31,0,0,1,88.52,9a2.08,2.08,0,0,0-.27-.32,5.09,5.09,0,0,0,.91-1.94H85.87V6.17h3.46l0,0ZM87.88,7.81a.13.13,0,0,1-.1.13c-.14,1.84-.51,3.6-1.45,4.53a2.48,2.48,0,0,0-.28-.36c.94-.88,1.28-2.5,1.39-4.38Z"/><path class="cls-3" d="M90.36,6.31a5.16,5.16,0,0,1,1.37,1.07l-.17.49a5.71,5.71,0,0,0-1.34-1.09Zm0,5.41a6.7,6.7,0,0,0,3.27-4.57,2.34,2.34,0,0,0,.3.32,7.36,7.36,0,0,1-3.25,4.68.3.3,0,0,1-.07.18Z"/><path class="cls-3" d="M97.44,6.49a.13.13,0,0,1-.06.08,15.32,15.32,0,0,1-.92,2.68,25.51,25.51,0,0,1,1.68,2.65l-.28.41a22.83,22.83,0,0,0-1.61-2.62,10.42,10.42,0,0,1-1.77,2.62,2.52,2.52,0,0,0-.24-.42A11.3,11.3,0,0,0,96.93,6.8H94.68V6.27h2.43l.06,0Z"/><path class="cls-3" d="M100.79,9.18h-.31v0s0,0-.06,0c-.08.2-.16.42-.25.66h2.58v.46h-1a3.84,3.84,0,0,1-.57,1.22,10,10,0,0,1,1.41.76l-.19.44a8.64,8.64,0,0,0-1.54-.85,3.82,3.82,0,0,1-2.16.87,2.24,2.24,0,0,0-.13-.48,3.86,3.86,0,0,0,1.86-.58c-.3-.11-.6-.23-.92-.33l-.11.25-.28-.18c.14-.31.31-.7.48-1.12H98.54V9.82h1.27c.13-.32.24-.63.34-.9l.33.15V7.55a4.79,4.79,0,0,1-1.8,1.85A1.92,1.92,0,0,0,98.49,9a4.31,4.31,0,0,0,1.62-1.44H98.57V7.1h1.91V6.25c-.5.06-1,.11-1.5.14A2,2,0,0,0,98.91,6a10.87,10.87,0,0,0,3-.5l.24.41-.05,0h0a6.86,6.86,0,0,1-1.3.32V7.1h1.93v.45h-1.55A4.15,4.15,0,0,0,102.8,8.9a3,3,0,0,0-.21.44,4.74,4.74,0,0,1-1.8-1.79h0Zm-1.08,1.76c.38.12.76.26,1.12.4a2.79,2.79,0,0,0,.59-1.06H100Z"/><path class="cls-3" d="M104.76,11.73a.15.15,0,0,1-.09.06,4.65,4.65,0,0,1-1.36.92,3,3,0,0,0-.22-.39,4,4,0,0,0,1.35-.91ZM103.56,8h3.29V11.4h-3.29Zm.27-2.23h2.75V7.53h-2.75Zm0,2.63V9h2.66v-.6Zm0,1V10h2.66V9.39Zm0,1V11h2.66v-.61Zm.26-4.18v.88h2.13V6.21Zm2.94,6.51a10.08,10.08,0,0,0-1.47-.94l.27-.34a12.25,12.25,0,0,1,1.46.9Z"/><path class="cls-3" d="M110,5.49a.16.16,0,0,1-.09.12,6.87,6.87,0,0,0,2,2.63,2.89,2.89,0,0,0-.2.47,7.79,7.79,0,0,1-2-2.73,7.66,7.66,0,0,1-2,2.76,1.9,1.9,0,0,0-.18-.42,7,7,0,0,0,2-2.88Zm-2.18,4.45v-.5h3.86v.5h-2.21l.05,0c0,.06-.05.08-.11.09-.14.53-.34,1.23-.54,1.81l2-.11a12.64,12.64,0,0,0-.67-1.16l.26-.25a11.21,11.21,0,0,1,1.11,2.09l-.28.29c-.06-.16-.13-.35-.22-.54-1.12.1-2.3.18-3,.22,0,.07,0,.1-.07.11l-.12-.62.67,0c.19-.56.41-1.32.55-1.93Zm.79-2h2.23v.49H108.6Z"/><path class="cls-2" d="M171,42.52H131.34a5.67,5.67,0,0,1-5.67-5.67V29.76a5.67,5.67,0,0,1,5.67-5.67H171a5.67,5.67,0,0,1,5.67,5.67v7.09A5.67,5.67,0,0,1,171,42.52"/><path class="cls-3" d="M135.27,34.16v.43h-.82V36h-.53v-.36h-2v.53c0,.35-.1.49-.33.57a5.25,5.25,0,0,1-1.32.08,1.6,1.6,0,0,0-.19-.45h.79c.48,0,.52,0,.52-.2v-.54h-2.59v-.41h2.59v-.64h-3.26v-.43h3.26v-.59h-2.52v-.4h2.52v-.52h-2.29V31.14h2.29v-.49h-3.12v-.44h3.12v-.66l.68,0c0,.06,0,.1-.15.11v.51h3.19v.44h-3.19v.49h2.41v1.51h-2.41v.52h2.52v1Zm-5.65-1.9h1.78v-.74h-1.78Zm4.18-.74h-1.87v.74h1.87Zm-1.87,2.05v.59h2v-.59Zm2,1.66v-.64h-2v.64Z"/><path class="cls-3" d="M143,34.9h-2.71a7.43,7.43,0,0,0,2.9,1.33,1.6,1.6,0,0,0-.35.46,7.62,7.62,0,0,1-3-1.67V36.8h-.52V35.06a8,8,0,0,1-3,1.6,2.36,2.36,0,0,0-.34-.44,7.84,7.84,0,0,0,2.86-1.32h-2.66v-.45h3.17v-.63H136.8v-.43h2.42v-.62H136.4v-.44h1.78a3.69,3.69,0,0,0-.41-.82l.31-.06h-2V31h1.31a6.46,6.46,0,0,0-.65-1.19l.44-.16a4.79,4.79,0,0,1,.69,1.19l-.41.16h1V29.55l.66,0c0,.08-.07.12-.17.13V31h1V29.55l.68,0c0,.08-.08.12-.18.13V31h1l-.29-.11a7.12,7.12,0,0,0,.64-1.22l.61.21c0,.05-.07.07-.16.07a12.14,12.14,0,0,1-.63,1h1.28v.46h-1.76l.22.07c0,.05-.08.07-.16.07a7.54,7.54,0,0,1-.44.74h1.85v.44h-2.89v.62h2.51v.43h-2.51v.63H143Zm-2.67-2.61a8.24,8.24,0,0,0,.43-.84h-2.42a3.66,3.66,0,0,1,.43.83l-.25,0h1.93Z"/><path class="cls-3" d="M146.47,33.85a2.48,2.48,0,0,0-.18-.43l-.82,0V36.8H145V33.49c-.44,0-.85,0-1.17,0,0,.07,0,.09-.11.11l-.14-.59h.58c.17-.2.36-.44.54-.68a6.42,6.42,0,0,0-1-1.13l.27-.35.23.21a13,13,0,0,0,.77-1.54l.57.24c0,.05-.08.06-.16.06a14,14,0,0,1-.88,1.53A3.68,3.68,0,0,1,145,32c.35-.53.69-1.08.93-1.53l.55.26a.22.22,0,0,1-.18.07,20.49,20.49,0,0,1-1.6,2.26l1.43,0c-.15-.26-.32-.54-.48-.77l.4-.18a6.84,6.84,0,0,1,.88,1.57Zm-1.81.35a.16.16,0,0,1-.15.08,7,7,0,0,1-.53,1.87c-.1-.07-.28-.15-.39-.21a6.77,6.77,0,0,0,.5-1.89Zm1.57-.17a7.46,7.46,0,0,1,.53,1.49l-.44.15a7.33,7.33,0,0,0-.49-1.51Zm2.07-.44s-.06.09-.14.1c-.11,1.52-.6,2.58-1.67,3.1a2.26,2.26,0,0,0-.35-.34c1-.47,1.44-1.45,1.51-2.92Zm-1.54-.83.61,0a11.68,11.68,0,0,0,.66-1.62H146.6v-.48h1.85V29.55l.68.05s0,.09-.15.11v.93h1.94v.48h-2.39l.2.06c0,.05-.08.07-.18.08a15,15,0,0,1-.65,1.46l2-.07c-.22-.3-.46-.6-.68-.85l.4-.23a9.63,9.63,0,0,1,1.3,1.76c-.1.06-.2.12-.43.28-.08-.16-.19-.35-.31-.55-1.17.08-2.35.13-3.12.17a.18.18,0,0,1-.13.11ZM149.55,36c0,.19,0,.21.2.21h.54c.16,0,.2-.11.21-1a1.51,1.51,0,0,0,.45.2c0,1-.17,1.25-.61,1.25h-.66c-.49,0-.62-.16-.62-.69V33.47l.65,0c0,.06-.06.1-.16.1Z"/><path class="cls-3" d="M154.1,33l.07.45-1,.35v2.32c0,.56-.26.65-1.31.63a2.14,2.14,0,0,0-.17-.48h.82c.1,0,.15,0,.15-.16V34l-1,.33a.13.13,0,0,1-.1.13l-.21-.62c.34-.09.78-.23,1.27-.38V31.65H151.5v-.5h1.18V29.56l.67,0c0,.06,0,.09-.16.11v1.44h.91v.5h-.91v1.67Zm4.6-.6h-2.06v1.44h1.65v2.9h-.54v-.29H155v.32h-.51V33.88h1.6V32.44h-2V32h2V30.56c-.59.11-1.2.21-1.77.28a2.31,2.31,0,0,0-.16-.41,17.46,17.46,0,0,0,3.7-.86l.42.43a.1.1,0,0,1-.07,0h-.07a11,11,0,0,1-1.37.4c0,.06-.06.1-.16.12V32h2.06ZM157.75,36V34.36H155V36Z"/><path class="cls-3" d="M166.32,31.78h-2.85a7.15,7.15,0,0,0,3.12,3.28,2.17,2.17,0,0,0-.4.46,7.83,7.83,0,0,1-3.05-3.32v2.56h1.56v.53h-1.56V36.8h-.55V35.29H161v-.53h1.58V32.22a8.45,8.45,0,0,1-3,3.32,3.09,3.09,0,0,0-.37-.43,7.66,7.66,0,0,0,3.07-3.33h-2.82v-.53h3.15V29.57l.71,0c0,.05-.05.09-.16.1v1.54h3.18Z"/><path class="cls-3" d="M169.56,32.56a10.56,10.56,0,0,0,.5-1.5l.6.17s-.07.07-.16.07a12.05,12.05,0,0,1-.49,1.34h1.16v.48h-4.11v-.48h2.74ZM171,30.47v.47h-3.78v-.47h1.62v-.91l.67,0s-.06.09-.16.11v.76Zm-3.44,6.34v-3h3.08v2.91h-.5v-.39H168.1v.44Zm.6-5.68a5.4,5.4,0,0,1,.37,1.27l-.46.11a5.82,5.82,0,0,0-.34-1.28Zm2,3.18H168.1V35.9h2.08ZM174,30l.34.17a.11.11,0,0,1-.07.08c-.3.67-.71,1.51-1.14,2.33.84.78,1.2,1.37,1.2,1.93,0,1.22-.85,1.22-1.36,1.22h-.36a1.25,1.25,0,0,0-.18-.52l.48,0c.53,0,.9,0,.9-.75,0-.5-.38-1.05-1.23-1.83.38-.77.72-1.5,1-2.13H172V36.8h-.51V30h2.4Z"/><path class="cls-2" d="M171,18.42H131.34a5.66,5.66,0,0,1-5.67-5.66V5.67A5.67,5.67,0,0,1,131.34,0H171a5.67,5.67,0,0,1,5.67,5.67v7.09A5.66,5.66,0,0,1,171,18.42"/><path class="cls-3" d="M137.73,7.35a4,4,0,0,0-.39-.83H137a5.71,5.71,0,0,1-.71.86,2.32,2.32,0,0,0-.39-.29A4.38,4.38,0,0,0,137,5.43l.6.2s-.07.07-.16.06a3.49,3.49,0,0,1-.19.39h2.15v.44h-1.52a4,4,0,0,1,.34.69Zm5.36-1.27v.44h-1.82a3.6,3.6,0,0,1,.45.68l-.47.17a4,4,0,0,0-.55-.85H140a5.31,5.31,0,0,1-.49.55l.35,0c0,.06,0,.09-.15.11v.49h3.1V9.16h-.51V8.11h-5.61V9.16h-.5V7.69h3V7.23L138.86,7a3.79,3.79,0,0,0,1.22-1.59l.61.18s-.07.07-.16.07l-.21.4Zm-5.25,4.1v.59h4.35v1.92h-.53v-.25h-3.82v.27h-.51V8.63h4.37v1.55ZM141.18,9h-3.34v.73h3.34Zm.48,2.15h-3.82V12h3.82Z"/><path class="cls-3" d="M145.26,8.71v1.93l1.06-.31c0,.05,0,.09.07.45l-2.47.78a.14.14,0,0,1-.1.12l-.21-.58c.32-.08.71-.18,1.15-.31V8.71h-1V8.22h1V6.46h-1V6h2.58v.5h-1V8.22h1v.49ZM148.8,12H151v.48h-5V12h2.34V10.77h-1.82v-.48h1.82V9.38h-1.77V5.92h4.09V9.38H148.8v.91h1.94v.48H148.8ZM147,6.38v1h1.3v-1Zm0,2.54h1.3V7.86H147Zm3.13-1.5v-1H148.8v1Zm0,1.5V7.86H148.8V8.92Z"/><path class="cls-3" d="M158.53,7.69h-2.85A7.23,7.23,0,0,0,158.79,11a2.54,2.54,0,0,0-.4.46,7.89,7.89,0,0,1-3-3.32v2.56h1.56v.53h-1.56v1.51h-.54V11.2h-1.58v-.53h1.58V8.12a8.56,8.56,0,0,1-3,3.33,2.65,2.65,0,0,0-.38-.43,7.6,7.6,0,0,0,3.07-3.33h-2.81V7.16h3.15V5.47l.7,0c0,.06-.05.1-.16.11V7.16h3.19Z"/><path class="cls-3" d="M161.77,8.47a10.69,10.69,0,0,0,.5-1.51l.6.17s-.07.07-.17.08a10.21,10.21,0,0,1-.49,1.33h1.16V9h-4.11V8.54H162Zm1.47-2.09v.46h-3.77V6.38h1.62V5.46l.66,0c0,.06-.05.1-.15.11v.77Zm-3.44,6.34v-3h3.09v2.92h-.51v-.4H160.3v.45ZM160.4,7a5.46,5.46,0,0,1,.38,1.27l-.46.11A5.56,5.56,0,0,0,160,7.13Zm2,3.18H160.3V11.8h2.08Zm3.79-4.31.35.17a.14.14,0,0,1-.07.08c-.3.66-.71,1.5-1.14,2.32.84.79,1.19,1.37,1.19,1.94,0,1.22-.85,1.22-1.36,1.22h-.36a1.06,1.06,0,0,0-.17-.51l.48,0c.52,0,.9,0,.9-.74,0-.51-.39-1.05-1.24-1.83.39-.77.72-1.51,1-2.14h-1.56v6.28h-.5V5.93h2.39Z"/><path class="cls-2" d="M233.86,90.71H194.17A5.67,5.67,0,0,1,188.5,85V78a5.67,5.67,0,0,1,5.67-5.67h39.69A5.67,5.67,0,0,1,239.53,78V85a5.67,5.67,0,0,1-5.67,5.67"/><path class="cls-3" d="M196.74,81.41h-1.23l-.1,0a4.55,4.55,0,0,1-1,2,14.09,14.09,0,0,1,2,1.08l-.32.45A12.66,12.66,0,0,0,194,83.84,6.11,6.11,0,0,1,191.1,85a2.15,2.15,0,0,0-.27-.45,6.19,6.19,0,0,0,2.63-.92c-.47-.2-.94-.38-1.39-.53q-.07.18-.15.33l-.46-.14c.23-.49.51-1.17.79-1.87H190.6V80.9h1.85c.18-.5.37-1,.52-1.42l.58.13c0,.06-.06.09-.15.09-.13.36-.28.77-.45,1.2h3.79Zm-5.46-2.2v1.18h-.46V78.71h2.59v-1l.61.05s0,.09-.13.11v.81h2.62v1.68H196V79.21Zm1.48,2.2-.51,1.27a16.26,16.26,0,0,1,1.63.59,3.79,3.79,0,0,0,1-1.86Z"/><path class="cls-3" d="M200.84,77.76a.15.15,0,0,1-.14.11,9.88,9.88,0,0,0,2.93,2.83,2.8,2.8,0,0,0-.3.46,10.88,10.88,0,0,1-2.91-2.91,10.07,10.07,0,0,1-2.85,3,2.79,2.79,0,0,0-.28-.42,9,9,0,0,0,2.89-3.08Zm-.18,5.16v1.36h2.73v.49h-5.86v-.49h2.66V82.92H198.1v-.48h2.09V81.15H198.4v-.48h4.13v.48h-1.87v1.29h2.12v.48Z"/><path class="cls-3" d="M206.27,82.69l0,.45c-.74.23-1.53.46-2,.6a.17.17,0,0,1-.09.13l-.18-.59L205,83v-2h-.79v-.47H205V78.78h-.87V78.3h2.16v.48h-.87v1.81h.74v.47h-.74v1.87Zm2.2,0a3.4,3.4,0,0,0,.45.81,11.42,11.42,0,0,0,1-.72l.39.34a.09.09,0,0,1-.08,0h-.06a7.79,7.79,0,0,1-1,.61,3.11,3.11,0,0,0,1.25.84,2.06,2.06,0,0,0-.3.41,3.61,3.61,0,0,1-1.9-2.07l-.15.15V85h-.44V83.47a6.85,6.85,0,0,1-1.64,1,2,2,0,0,0-.27-.38,6.49,6.49,0,0,0,2.21-1.44h-1.22V81h3.17v1.67Zm-2.29-2.59h4.23v.45h-4.23ZM210,78v1.62h-3.55V78Zm-2.49,1.22v-.82h-.67v.82Zm-.46,2.2v.81h2.33v-.81Zm1.5-2.2v-.82h-.7v.82Zm1,0v-.82h-.71v.82Z"/><path class="cls-3" d="M212.19,82.61l.82-.34c0,.1,0,.21.08.46-.72.34-1.47.68-2,.89a.14.14,0,0,1-.08.12l-.23-.59c.25-.09.58-.22.93-.37v-2.6h-.82v-.5h.82V77.82l.57,0c0,.06-.05.09-.14.11v1.71h.74v.15h1.19a3.6,3.6,0,0,0-.3-.87l.39-.11a3,3,0,0,1,.32.89l-.29.09h1.48l-.18-.07a7.9,7.9,0,0,0,.35-.92h-2.72V78.4h1.65v-.66l.58,0s0,.09-.14.11v.51H217v.44h-1l.43.15s-.06.07-.14.07a7.53,7.53,0,0,1-.36.77h1.25v.45h-4.25v-.1h-.74Zm2.5.54a.16.16,0,0,1-.13.1A2.15,2.15,0,0,1,212.75,85a2,2,0,0,0-.26-.44c1.13-.25,1.5-.72,1.64-1.49Zm1.14,1.13c0,.17,0,.2.2.2h.59c.16,0,.2-.1.22-.82a1,1,0,0,0,.38.19c-.05.88-.16,1.09-.55,1.09H216c-.47,0-.59-.14-.59-.65V83h-2V80.71h3.32V83h-.91Zm-2-3.19v.6h2.44v-.6Zm0,1v.62h2.44V82Z"/><path class="cls-3" d="M218,85V81.59h2.46v3.32H220v-.32h-1.58V85Zm2-2.88h-1.58v2H220ZM222.56,78v2.75h-3.51V78Zm-.46,2.25V78.53h-2.61v1.74Zm-.95,1.32h2.54v3.33h-.46v-.33h-1.64V85h-.44Zm.44,2.5h1.64v-2h-1.64Z"/><path class="cls-3" d="M226.29,79.35h-.89a2.6,2.6,0,0,1-.64,1.43,1.26,1.26,0,0,0-.31-.34,2.32,2.32,0,0,0,.58-1.66V78l.37.12a8.91,8.91,0,0,0,1.64-.35l.34.37a.07.07,0,0,1-.06,0h-.06a11.65,11.65,0,0,1-1.82.32v.47h2.11v.41h-.84v1h-.42Zm.75,4.78a.13.13,0,0,1-.15,0,10.75,10.75,0,0,1-2,.84c-.08-.1-.22-.29-.31-.38a7.87,7.87,0,0,0,2-.78Zm-1.65-.39v-3.2h4.45v3.2Zm.44-2.83v.57h3.56v-.57Zm0,.93v.58h3.56v-.58Zm0,.94v.59h3.56v-.59Zm2.41-4a1.41,1.41,0,0,1,0,.2h2.41v.41h-1v1h-.41v-1h-1a1.91,1.91,0,0,1-.71,1.1,1.21,1.21,0,0,0-.28-.36,1.61,1.61,0,0,0,.66-1.38V78l.4.12a11,11,0,0,0,1.75-.35l.34.37-.06,0h-.06a11.93,11.93,0,0,1-2,.34ZM230.13,85a13,13,0,0,0-1.95-.87l.38-.27a18.33,18.33,0,0,1,2.08.86Z"/><path class="cls-3" d="M234.57,84.29h2.84v.48h-6.08v-.48h2.78v-1H232v-.47h2.12V82l.6,0c0,.06-.05.09-.14.1v.62h2.17v.47h-2.17ZM232,79v1h-.45V78.5h2.59v-.76l.6.05s-.05.09-.14.1v.61h2.63V80h-.47V79Zm4.74,3.23a4.83,4.83,0,0,0-.4-.45c-1.53.09-3.15.17-4.2.2,0,.07-.05.11-.1.11l-.21-.58.94,0a12.55,12.55,0,0,0,.67-1.19h-1.35v-.47h4.56v.47h-2.73l.13,0a.15.15,0,0,1-.14.07c-.17.31-.41.71-.64,1.06l2.65-.08a7.61,7.61,0,0,0-.8-.63l.3-.29A8.13,8.13,0,0,1,237,81.9Z"/><path class="cls-2" d="M233.86,66.61H194.17a5.67,5.67,0,0,1-5.67-5.67V53.86a5.67,5.67,0,0,1,5.67-5.67h39.69a5.67,5.67,0,0,1,5.67,5.67v7.08a5.67,5.67,0,0,1-5.67,5.67"/><path class="cls-3" d="M200.76,56.41l.31.1a.15.15,0,0,1-.06.09,8.78,8.78,0,0,1-.66,2.63,4.37,4.37,0,0,0,3.24.94H206a2,2,0,0,0-.22.52h-2.2a4.76,4.76,0,0,1-3.46-1,3.85,3.85,0,0,1-1.07,1.21,2.22,2.22,0,0,0-.39-.36,3.55,3.55,0,0,0,1.1-1.25,4.82,4.82,0,0,1-.74-1.56l.41-.17a4.26,4.26,0,0,0,.57,1.25,7.42,7.42,0,0,0,.47-1.91h-1l-.17.32-.48-.14c.4-.74.89-1.73,1.22-2.44h-1.34v-.47h1.64l.1,0,.34.14a.41.41,0,0,1-.07.11c-.24.5-.62,1.28-1,2h1Zm2.31,0v-.63h-2.21v-.43h2.21v-.62h-1.6v-.43h1.6v-.7l.66,0s0,.09-.14.1v.55h1.71v1.05h.63v.43h-.63v1.06h-1.71v.64h1.84v.42h-1.84v.65h2.19V59h-2.19v.86h-.52V59H201v-.44h2.11v-.65h-1.76v-.42h1.76v-.64h-1.65v-.43Zm.52-1.68v.62h1.2v-.62Zm1.2,1.68v-.63h-1.2v.63Z"/><path class="cls-3" d="M213.65,59h-2.84a8.14,8.14,0,0,0,3,1.26,2.18,2.18,0,0,0-.35.45,7.89,7.89,0,0,1-3.09-1.54v1.76h-.52V59.13a7.91,7.91,0,0,1-3.07,1.56,2.78,2.78,0,0,0-.33-.42A7.89,7.89,0,0,0,209.39,59h-2.78v-.43h3.24v-.69a2.87,2.87,0,0,1-.86.5,1.5,1.5,0,0,0-.34-.37c1.09-.39,1.3-.95,1.3-1.47v-.79h2.76v1.64c0,.27,0,.3.17.3h.23c.27,0,.27,0,.29-.82a1.18,1.18,0,0,0,.37.19c0,.8-.06,1-.64,1h-.36c-.56,0-.56-.3-.56-.75V56.09h-1.78v.42a1.67,1.67,0,0,1-.57,1.32l.65,0c0,.06,0,.1-.14.11v.55h3.28Zm-5.31-3.45a3.5,3.5,0,0,0-.37-.8h-.38a4.93,4.93,0,0,1-.7.83,1.8,1.8,0,0,0-.39-.27,4.46,4.46,0,0,0,1.12-1.66l.6.21a.15.15,0,0,1-.16.06l-.2.39H210v.44h-1.56a3.62,3.62,0,0,1,.32.67Zm1.15,1.9c-1,.19-2,.37-2.67.47a.15.15,0,0,1-.09.11l-.2-.52,1.3-.18V56.16h-1.15v-.4h2.78v.4h-1.14v1.06l1.16-.17Zm2.37-1.89a4.81,4.81,0,0,0-.53-.81h-.67a4.58,4.58,0,0,1-.75.77,3,3,0,0,0-.42-.26,3.92,3.92,0,0,0,1.22-1.61l.61.19c0,.05-.07.07-.17.07a3.84,3.84,0,0,1-.21.4h2.78v.44h-1.85a3.15,3.15,0,0,1,.44.66Zm-1,.93a6.61,6.61,0,0,1,1.14.83l-.31.33a6.42,6.42,0,0,0-1.13-.87Z"/><path class="cls-3" d="M221.36,55.88h-2.85a7.2,7.2,0,0,0,3.12,3.28,2,2,0,0,0-.4.46,7.83,7.83,0,0,1-3-3.32v2.55h1.56v.53h-1.56V60.9h-.55V59.38h-1.58v-.53h1.58V56.31a8.38,8.38,0,0,1-3,3.32,3.81,3.81,0,0,0-.37-.43,7.69,7.69,0,0,0,3.07-3.32h-2.82v-.53h3.15V53.66l.7,0s0,.09-.15.11v1.54h3.18Z"/><path class="cls-3" d="M224.6,56.66a11.13,11.13,0,0,0,.5-1.51l.6.17s-.07.07-.16.08c-.12.38-.32.94-.49,1.33h1.16v.49H222.1v-.49h2.74Zm1.47-2.09V55H222.3v-.46h1.62v-.92l.67,0c0,.06-.06.1-.16.11v.77Zm-3.43,6.33v-3h3.08v2.92h-.5v-.4h-2.09v.44Zm.6-5.67a5.4,5.4,0,0,1,.37,1.27l-.46.11a6,6,0,0,0-.34-1.29Zm2,3.18h-2.09V60h2.09ZM229,54.1l.34.17a.14.14,0,0,1-.07.08c-.3.66-.71,1.5-1.14,2.32.84.79,1.19,1.37,1.19,1.93,0,1.23-.85,1.23-1.35,1.23h-.36a1.16,1.16,0,0,0-.18-.51l.48,0c.53,0,.9,0,.9-.74,0-.51-.38-1.05-1.23-1.83.38-.78.71-1.51,1-2.14H227V60.9h-.51V54.12h2.4Z"/><path class="cls-2" d="M233.86,42.52H194.17a5.67,5.67,0,0,1-5.67-5.67V29.76a5.67,5.67,0,0,1,5.67-5.67h39.69a5.67,5.67,0,0,1,5.67,5.67v7.09a5.67,5.67,0,0,1-5.67,5.67"/><path class="cls-3" d="M202.58,35.93h3.28v.52h-7.07v-.52H202V32.64H199.3v-.52H202V29.58l.71.05c0,.05-.05.09-.16.11v2.38h2.78v.52h-2.78Z"/><path class="cls-3" d="M213.54,32.05h-2.91a9,9,0,0,0,3.17,3.4,3,3,0,0,0-.41.46,10.08,10.08,0,0,1-3-3.33V36.8h-.54V32.61a9.43,9.43,0,0,1-3,3.33,2.36,2.36,0,0,0-.39-.44,8.55,8.55,0,0,0,3.16-3.45H206.7v-.53h3.14V29.57l.71,0c0,.06-.06.1-.17.1v1.81h3.16Z"/><path class="cls-3" d="M221.36,31.78h-2.85a7.11,7.11,0,0,0,3.12,3.28,2.17,2.17,0,0,0-.4.46,7.83,7.83,0,0,1-3-3.32v2.56h1.56v.53h-1.56V36.8h-.55V35.29h-1.58v-.53h1.58V32.22a8.45,8.45,0,0,1-3,3.32,3.09,3.09,0,0,0-.37-.43,7.66,7.66,0,0,0,3.07-3.33h-2.82v-.53h3.15V29.57l.7,0c0,.05,0,.09-.15.1v1.54h3.18Z"/><path class="cls-3" d="M224.6,32.56a10.56,10.56,0,0,0,.5-1.5l.6.17s-.07.07-.16.07c-.12.39-.32.95-.49,1.34h1.16v.48H222.1v-.48h2.74Zm1.47-2.09v.47H222.3v-.47h1.62v-.91l.67,0s-.06.09-.16.11v.76Zm-3.43,6.34v-3h3.08v2.91h-.5v-.39h-2.09v.44Zm.6-5.68a5.4,5.4,0,0,1,.37,1.27l-.46.11a5.82,5.82,0,0,0-.34-1.28Zm2,3.18h-2.09V35.9h2.09ZM229,30l.34.17a.11.11,0,0,1-.07.08c-.3.67-.71,1.51-1.14,2.33.84.78,1.19,1.37,1.19,1.93,0,1.22-.85,1.22-1.35,1.22h-.36a1.25,1.25,0,0,0-.18-.52l.48,0c.53,0,.9,0,.9-.75,0-.5-.38-1.05-1.23-1.83.38-.77.71-1.5,1-2.13H227V36.8h-.51V30h2.4Z"/></g></g></svg>