<svg xmlns="http://www.w3.org/2000/svg" viewBox="0 0 47.18 47.18"><defs><style>.cls-1{fill:#e83819;}.cls-2{fill:#fff;}.cls-3{fill:#004c88;}</style></defs><g id="レイヤー_2" data-name="レイヤー 2"><g id="レイヤー_6" data-name="レイヤー 6"><rect class="cls-1" width="47.18" height="47.18"/><path class="cls-2" d="M4.73,12.92A1.64,1.64,0,0,1,4,12a4.93,4.93,0,0,1-.19-1.5H5.5a3.08,3.08,0,0,0,.15,1.13.56.56,0,0,0,.57.35.54.54,0,0,0,.48-.23,1.22,1.22,0,0,0,.2-.6c0-.26,0-.62,0-1.11a3.74,3.74,0,0,0-.15-1.22.6.6,0,0,0-.62-.41c-.4,0-.65.27-.77.81H3.93L4.05,4.1H8.19V5.58H5.46l-.1,2a1.15,1.15,0,0,1,.53-.32,2.74,2.74,0,0,1,.81-.12,1.52,1.52,0,0,1,1.39.74A3.92,3.92,0,0,1,8.56,10a6.79,6.79,0,0,1-.19,1.77,2,2,0,0,1-.72,1.11,2.41,2.41,0,0,1-1.5.4,2.69,2.69,0,0,1-1.42-.32"/><path class="cls-2" d="M23.51,34.29a5.68,5.68,0,1,1,5.68-5.68,5.69,5.69,0,0,1-5.68,5.68m10.9-16.46H28.52a.07.07,0,0,0-.07.07v2a.07.07,0,0,0,.07.07h2.35l-2.61,2.61a7.71,7.71,0,0,0-12.47,6.07,7.74,7.74,0,0,0,6.72,7.65v2.25H20.19a.08.08,0,0,0-.08.07v2.1a.09.09,0,0,0,.08.08h2.32V43a.07.07,0,0,0,.08.07h2.09a.07.07,0,0,0,.08-.07V40.76h2.32a.09.09,0,0,0,.08-.08v-2.1a.08.08,0,0,0-.08-.07H24.76V36.22a7.71,7.71,0,0,0,5-12l2.57-2.57v2.19a.08.08,0,0,0,.08.08h1.95a.09.09,0,0,0,.08-.08V17.9a.08.08,0,0,0-.08-.07"/><path class="cls-2" d="M27,26.27H20.09a.09.09,0,0,0-.08.07V28a.08.08,0,0,0,.08.07H27a.07.07,0,0,0,.07-.07V26.34a.08.08,0,0,0-.07-.07"/><path class="cls-2" d="M27,29.25H20.09a.08.08,0,0,0-.08.07V31a.08.08,0,0,0,.08.07H27a.07.07,0,0,0,.07-.07V29.32a.07.07,0,0,0-.07-.07"/><path class="cls-2" d="M15.27,4.84a6,6,0,0,0-.3-.56l.25-.15a3.45,3.45,0,0,1,.28.54ZM14.83,5a3.5,3.5,0,0,0-.29-.54l.26-.14a5.12,5.12,0,0,1,.27.52Zm-1.05.22A3.34,3.34,0,0,0,13,4.74l.23-.42a2.77,2.77,0,0,1,.78.49c-.08.14-.17.28-.26.42m-1,2.41s-.24-.47-.24-.49,0,0,.05,0a4.37,4.37,0,0,0,.65-.2,5.38,5.38,0,0,0,1.86-1.43c0,.22,0,.44.07.66a5,5,0,0,1-2.39,1.5m.53-1.49a4.77,4.77,0,0,0-.81-.61c.09-.13.16-.27.25-.41a3.35,3.35,0,0,1,.82.59Z"/><polygon class="cls-2" points="16.16 7.49 16.16 7.11 17.08 7.11 17.08 5.9 16.33 5.9 16.33 5.51 18.28 5.51 18.28 5.9 17.5 5.9 17.5 7.11 18.45 7.11 18.45 7.49 16.16 7.49"/><path class="cls-2" d="M20.22,5.65a4.56,4.56,0,0,0-.69-.76c.14-.11.26-.23.4-.35a3.92,3.92,0,0,1,.66.74,2.59,2.59,0,0,1-.37.37m.08,1.63a2.94,2.94,0,0,1-.61.22L19.46,7h0l.15,0a4,4,0,0,0,1.11-.48A6.49,6.49,0,0,0,22,5.41l.09.59A5.84,5.84,0,0,1,20.3,7.28"/><path class="cls-2" d="M25.46,4.64a5.61,5.61,0,0,0-.29-.54L25.42,4a2.94,2.94,0,0,1,.27.53ZM25,4.76c-.09-.18-.19-.35-.29-.52L25,4.1a4.06,4.06,0,0,1,.26.51Zm.14.4a.74.74,0,0,0,0,.14c0,.13-.08.26-.12.39a4.38,4.38,0,0,1-.31.7,4.31,4.31,0,0,1,.46.39c-.09.12-.19.24-.29.35-.13-.13-.26-.26-.4-.38a2.85,2.85,0,0,1-1.26,1l-.31-.33h0s0,0,0,0a1.52,1.52,0,0,0,.2-.06,2.61,2.61,0,0,0,1-.81c-.14-.11-.29-.21-.44-.31.09-.11.16-.23.25-.34a3.91,3.91,0,0,1,.41.3,2.88,2.88,0,0,0,.3-.82h-.7a4.55,4.55,0,0,1-.73,1L22.81,6a3.31,3.31,0,0,0,1-1.74l.47.19a.06.06,0,0,1,0,0s0,0-.06,0-.09.21-.13.31c.32,0,.64,0,1,0,.05.06.09.12.15.18a.59.59,0,0,0-.06.14"/><path class="cls-2" d="M28.86,6.21a5.06,5.06,0,0,0-.53,0c-.18,0-1.81,0-2.25,0,0-.16,0-.37,0-.49s0,0,.05,0h.2c.21,0,.75,0,1,0l1.56,0c0,.16,0,.38,0,.54"/><path class="cls-2" d="M32.44,5.18c-.12.26-.24.51-.38.76l-.31-.14c.11-.31.22-.62.31-.94l.42.19a.1.1,0,0,1,0,.07s-.05.06-.08.06m-1.93.74c-.12-.28-.25-.58-.39-.85l.37-.2a5.12,5.12,0,0,1,.32.88Zm1,.55V7.8h-.42V6.47H29.76V6.08h1.32V4.74H30V4.35h2.68v.39H31.5V6.08h1.31v.39Z"/><path class="cls-2" d="M35.88,4.83l-.11.35-.3,0,0-.33h-.23c-.06.09-.14.29-.21.37L34.64,5a2.84,2.84,0,0,0,.48-.93l.41.12s0,0,0,0,0,.05-.07.05a1.3,1.3,0,0,1-.08.17h.92v.34Zm-.25,1.41v.25h.69v.36h-.68c0,.62.06,1-.57,1.07l-.24-.34c.24,0,.42-.07.42-.4V6.85h-1a2.83,2.83,0,0,1,.3.3l.22.23-.26.29c-.19-.19-.38-.39-.58-.56l.23-.26h-.65V6.49h1.76V6.24H33.38V5.9h1.27V5.66h-.91V5.31h.9V5l.42,0s0,0,0,0,0,.08,0,.09v.12h1v.35H35V5.9h1.34v.34ZM34.45,4.81l0,.28-.28.08-.11-.36H34a2.46,2.46,0,0,1-.37.48l-.3-.2a2.32,2.32,0,0,0,.51-1l.4.13a0,0,0,0,1,0,0,.06.06,0,0,1-.06.06.55.55,0,0,1-.08.15h.68v.33Z"/><path class="cls-2" d="M39.63,6.07s0,0-.05,0c-.24.09-.7.28-.92.39v.62h-.39V6.64c-.26.13-.39.3-.39.48s.15.25.45.25a3,3,0,0,0,1-.16v.47a2.64,2.64,0,0,1-.83.12c-.65,0-1-.22-1-.65a.81.81,0,0,1,.27-.58,2.24,2.24,0,0,1,.5-.35c0-.18-.06-.28-.15-.28a.47.47,0,0,0-.35.16c-.06.06-.15.15-.25.27l-.24.29c-.07-.07-.16-.18-.28-.33a2.8,2.8,0,0,0,.83-1.1c-.17,0-.37,0-.58.06,0-.16,0-.3,0-.43a5.35,5.35,0,0,0,.76,0,3.7,3.7,0,0,0,.11-.55l.44.1s0,0,0,0,0,0-.05.06a1.78,1.78,0,0,1-.09.31A4.88,4.88,0,0,0,39,4.64l0,.45c-.18,0-.42.08-.73.12a2.55,2.55,0,0,1-.2.41.49.49,0,0,1,.19,0c.2,0,.33.14.39.43l.89-.45.16.46a0,0,0,0,1,0,0"/><path class="cls-2" d="M15.06,10.41V9.9H12.92v.51h-.38V9.55h1.23V9.11l.43,0s.06,0,.06,0,0,.06-.06.07v.29h1.26v.86Zm.31,2.45a2.48,2.48,0,0,1-.82-.36,1.71,1.71,0,0,1-.56-.6,2,2,0,0,1-1.31.94l-.24-.36a1.66,1.66,0,0,0,1.19-.71H12.46v-.36h1.3c0-.08,0-.16,0-.23h-1v-.35h1v-.25H13v-.35h.79V10l.4,0a0,0,0,0,1,0,0,0,0,0,0,1,0,.05v.14H15v.35h-.82v.25h1.05v.35H14.17a1.69,1.69,0,0,0,0,.23h1.36v.36H14.34a1.94,1.94,0,0,0,1.26.7Z"/><path class="cls-2" d="M18.76,10.93h-.93v.33h.93Zm-.93-.63v.31h.93V10.3Zm.93-.64h-.93V10h.93Zm.66,3.08a1.35,1.35,0,0,1-.59.11c-.27,0-.54,0-.54-.44v-.83H18s.2.14.2.18,0,0-.05.05a2.24,2.24,0,0,1-.22.4,2.1,2.1,0,0,1-.84.73l-.3-.29a1.62,1.62,0,0,0,1-1.07h-.31V9.3h1.71v2.28h-.49v.7c0,.13,0,.22.16.22a1,1,0,0,0,.62-.26Zm-2.08-1-1,.44s0,.06-.05.06,0,0-.05,0l-.15-.41.51-.17v-.87h-.4v-.35h.4v-.7H16.2V9.34h1.15v.35H17v.7h.28v.35H17v.76l.34-.15Z"/><path class="cls-2" d="M22,12.44a1.61,1.61,0,0,1-.92.28c-.49,0-.8-.33-.82-.91a1.69,1.69,0,0,1,0-.23c0-.21,0-.43,0-.66l0-1.56a1.8,1.8,0,0,1,.32.06l.14,0s.06,0,.06.07,0,.05-.05.07c0,.7-.07,1.41-.07,2.12,0,.36.13.58.46.58a1,1,0,0,0,.44-.12,1.68,1.68,0,0,0,.69-.85l.26.53a2,2,0,0,1-.54.6"/><path class="cls-2" d="M24.49,11.85a1.07,1.07,0,0,0-.46-.11c-.12,0-.31.09-.31.26s.24.31.41.31a.31.31,0,0,0,.36-.35Zm1.21.76a4.27,4.27,0,0,0-.79-.57.65.65,0,0,1-.75.67c-.34,0-.87-.2-.87-.68a.68.68,0,0,1,.76-.66,2,2,0,0,1,.43.05c0-.56,0-1.13-.07-1.7,0-.13,0-.27,0-.41l.46.07s.06,0,.06.06,0,0,0,.06v.15c0,.18,0,.36,0,.53h0a3.85,3.85,0,0,0,.48,0l.36-.06c0,.15,0,.31,0,.47a5.63,5.63,0,0,1-.58,0h-.28l0,1a6.09,6.09,0,0,1,1.08.61Z"/><path class="cls-2" d="M28.35,9.86a4.82,4.82,0,0,0-1-.37c.07-.14.13-.29.2-.44a4.17,4.17,0,0,1,1,.37l-.22.44m-.6,2.91-.39-.34a1.67,1.67,0,0,0,1-.71,1.17,1.17,0,0,0,.14-.59c0-.36-.12-.57-.44-.57a2.77,2.77,0,0,0-1,.44c0-.06-.19-.48-.19-.52s0,0,.05,0a2.82,2.82,0,0,0,.43-.12,2.3,2.3,0,0,1,.8-.2c.56,0,.8.43.8,1a1.72,1.72,0,0,1-1.21,1.6"/><rect class="cls-3" width="47.18" height="47.18"/><path class="cls-2" d="M4.05,5.88a6.31,6.31,0,0,1-.72.28,5.32,5.32,0,0,0-.58.21V5.09a6.59,6.59,0,0,0,.91-.44,2.92,2.92,0,0,0,.76-.55H5.77v9H4.05Z"/><path class="cls-2" d="M9.68,11.57a3.67,3.67,0,0,0,.14-1.18c0-.38,0-.67,0-.88A1.07,1.07,0,0,0,9.6,9a.57.57,0,0,0-.46-.19A.67.67,0,0,0,8.73,9a1,1,0,0,0-.29.28v1.44c0,.85.24,1.27.71,1.27a.52.52,0,0,0,.53-.37m-2.37.85a3.49,3.49,0,0,1-.6-2.15V7.07A4.12,4.12,0,0,1,7.24,4.8,2.08,2.08,0,0,1,9.12,4a2.27,2.27,0,0,1,1.73.57,2.45,2.45,0,0,1,.55,1.71v.15H9.78a2,2,0,0,0-.13-.87.52.52,0,0,0-.51-.25.53.53,0,0,0-.42.17A1.09,1.09,0,0,0,8.5,6a7.54,7.54,0,0,0-.06,1.1V8a1,1,0,0,1,.47-.39,1.9,1.9,0,0,1,.73-.14,1.61,1.61,0,0,1,1.45.7,3.43,3.43,0,0,1,.45,1.89A4.11,4.11,0,0,1,11,12.41a2.09,2.09,0,0,1-1.86.81,2.12,2.12,0,0,1-1.82-.8"/><path class="cls-2" d="M31.35,20.93A1.68,1.68,0,0,0,31,22.14a1.67,1.67,0,0,0,.81.94,1.71,1.71,0,0,0,.33-1.2,1.71,1.71,0,0,0-.82-.95"/><path class="cls-2" d="M30.6,24.42a1.72,1.72,0,0,0,.33-1.21,1.71,1.71,0,0,0-.81-.95,1.72,1.72,0,0,0-.33,1.21,1.71,1.71,0,0,0,.81,1"/><path class="cls-2" d="M32.49,23.76a1.56,1.56,0,0,0,1,.45,1.58,1.58,0,0,0,1-.62,1.52,1.52,0,0,0-1-.44,1.62,1.62,0,0,0-1,.61"/><path class="cls-2" d="M33.29,21.15a1.82,1.82,0,0,0-.39,1.26A1.75,1.75,0,0,0,34.15,22a1.82,1.82,0,0,0,.39-1.26,1.75,1.75,0,0,0-1.25.39"/><path class="cls-2" d="M32.3,25.58a1.56,1.56,0,0,0,1.07-.41,1.51,1.51,0,0,0-.93-.64,1.56,1.56,0,0,0-1.07.41,1.51,1.51,0,0,0,.93.64"/><path class="cls-2" d="M32.79,34.45H28.67a.58.58,0,1,0,0,1.16h4.12a.58.58,0,0,0,0-1.16"/><path class="cls-2" d="M32.79,40.87H28.67a.59.59,0,1,0,0,1.17h4.12a.59.59,0,0,0,0-1.17"/><path class="cls-2" d="M14.26,33A1.74,1.74,0,0,0,14,33l.29.07"/><path class="cls-2" d="M20.94,35.55a7.3,7.3,0,0,0,.81,0v2.15h-.81Zm11.7.47H28.82a.33.33,0,0,0-.33.33v1.16l-2.5.27-3.64-.08V35.47a10.34,10.34,0,0,0,1.45-.29C27.31,34.19,28.07,32,28,30s.58-2.84,1.52-3.19a4.27,4.27,0,0,1,.78-.2,6,6,0,0,0,.34,1.77l.25,0a6,6,0,0,1-.35-1.79,3.84,3.84,0,0,1,.83,0,6,6,0,0,1-.79-.57,4,4,0,0,1,1.33-2.17,7,7,0,0,0,.93-1.09l-.21-.13a6.48,6.48,0,0,1-.9,1.05,4.28,4.28,0,0,0-1.36,2.16,8.47,8.47,0,0,1-.6-.6c-.86-1-2-.26-3.56,1.22s-3.59,1.52-5.54-.47a7.09,7.09,0,0,0-6.35-2.47c1,.45,1.42,1.43,2,3.93s2,3.81,3.89,4c-.89.14-1.12.26-2.56,1.26a4.47,4.47,0,0,1-3.34.38c1.18.37,2.57,1.6,3.81,2a9.15,9.15,0,0,0,2.27.46v2.13l-6.9-.15V39L26,38.71l2.5.27v1.16a.33.33,0,0,0,.33.33h3.82a.33.33,0,0,0,.33-.33V36.35a.33.33,0,0,0-.33-.33"/><path class="cls-2" d="M13.07,38.74a.53.53,0,0,1-.49.57h-.29a.53.53,0,0,1-.49-.57v-1a.53.53,0,0,1,.49-.57h.29a.53.53,0,0,1,.49.57Z"/><path class="cls-2" d="M17.85,5.07c-.12.26-.24.51-.38.76l-.31-.15a9.21,9.21,0,0,0,.31-.93l.42.19a.09.09,0,0,1,.05.07s-.06.06-.09.06m-1.93.74c-.12-.29-.25-.58-.39-.85l.37-.2a5.37,5.37,0,0,1,.33.87Zm1,.55V7.69h-.42V6.36H15.18V6h1.31V4.62H15.36V4.23h2.69v.39H16.91V6h1.31v.39Z"/><path class="cls-2" d="M21.45,5h-.59V7.09h.59Zm-1-.38h1.37V7.46H20.48Zm-.06-.09-.05,0a4.5,4.5,0,0,1-.48.16v.54h.46v.37h-.46v.1a2.62,2.62,0,0,0,.54.69l-.23.32a1.83,1.83,0,0,1-.31-.42V7.7h-.4V6.24A2.75,2.75,0,0,1,19,7l-.28-.29a2.57,2.57,0,0,0,.69-1.16h-.57V5.16h.66V4.69L19,4.76l-.15-.35A3,3,0,0,0,20.19,4a3,3,0,0,1,.29.39.06.06,0,0,1-.06.05"/><path class="cls-2" d="M24.05,7.61c-.5,0-1.29-.08-1.29-.85a1.18,1.18,0,0,1,.81-1,6.28,6.28,0,0,1-.14-1.44l.32,0h.15s0,0,0,0,0,0,0,0a2.3,2.3,0,0,0,0,.37A2.36,2.36,0,0,0,24,5.5h0a3.8,3.8,0,0,0,.88-.36c.05.18.08.36.12.54-.43.1-1.81.36-1.81,1,0,.37.52.45.76.45A3,3,0,0,0,25.05,7c0,.17,0,.35.05.52a5.35,5.35,0,0,1-1.05.11"/><path class="cls-2" d="M28.72,6.06a3.77,3.77,0,0,1-1.1-1.61c.14-.07.28-.16.42-.24a3,3,0,0,0,1,1.5Zm-.35,1.7-.2-.39c-.63.09-1.26.16-1.89.23,0,0,0,.05-.06.05s0,0,0,0l-.13-.41a1.65,1.65,0,0,0,.31,0c.08,0,.09,0,.14-.11a7,7,0,0,0,.39-.83c.1-.25.2-.51.28-.78l.44.24s0,0,0,.05a.08.08,0,0,1-.08.07,14,14,0,0,1-.7,1.33L28,7c-.1-.18-.2-.35-.31-.52L28,6.24c.24.42.47.84.69,1.28Zm-1.3-3.28a3.68,3.68,0,0,1-1,1.58l-.31-.24a3.16,3.16,0,0,0,.85-1.64l.46.18s0,0,0,0a.08.08,0,0,1-.08.07"/><path class="cls-2" d="M29.39,7.58V7.2h.53V5.27l.41,0s.06,0,.06,0a.07.07,0,0,1-.06.07V7.2h.49V4.72H29.54v-.4h2.83v.4H31.25v1h.94v.41h-.95v1.1h1.2v.4Z"/><path class="cls-2" d="M35.85,6a.06.06,0,0,1-.05,0l-1,.38V7h-.41V6.57c-.27.13-.41.3-.41.48s.16.25.47.25a3.27,3.27,0,0,0,1-.16v.47a2.92,2.92,0,0,1-.87.12c-.68,0-1-.22-1-.65a.82.82,0,0,1,.28-.58,2.55,2.55,0,0,1,.53-.35c0-.18-.06-.28-.16-.28a.5.5,0,0,0-.36.16,3.37,3.37,0,0,0-.27.27l-.25.29-.29-.33A2.8,2.8,0,0,0,34,5.16a5.37,5.37,0,0,1-.61,0c0-.15,0-.29-.05-.42a5.72,5.72,0,0,0,.79,0,3.71,3.71,0,0,0,.12-.55l.47.1s0,0,0,0,0,0-.06.06,0,.17-.09.31a5.57,5.57,0,0,0,.65-.15l0,.45c-.19,0-.45.08-.77.12a2.67,2.67,0,0,1-.21.41.54.54,0,0,1,.2,0c.21,0,.34.14.41.43.27-.14.59-.3.93-.45l.16.46s0,0,0,0"/><path class="cls-2" d="M16.57,11c-.16,0-.23.17-.23.34s0,.33.19.33.18-.23.18-.37,0-.3-.14-.3m1.55-.58h-.43c-.2,0-.41,0-.62,0,0,.15,0,.3,0,.45a1.26,1.26,0,0,1,.13.63,1.5,1.5,0,0,1-.85,1.5c-.13-.11-.26-.2-.38-.31a1.07,1.07,0,0,0,.75-.7.58.58,0,0,1-.29.06c-.29,0-.47-.36-.47-.67s.2-.78.57-.78l.13,0v-.19c-.24,0-.47,0-.71,0l-.66.09c0-.15,0-.31,0-.46.46,0,.92,0,1.38-.06,0-.2,0-.4,0-.6l.31,0,.13,0a0,0,0,0,1,.05,0s0,.06-.05.08V10l1.06,0Z"/><path class="cls-2" d="M21.1,10.42a4.35,4.35,0,0,0-.27-.58l.26-.14a3.68,3.68,0,0,1,.26.57Zm-.43.19c-.09-.2-.18-.38-.28-.57l.26-.15a4.83,4.83,0,0,1,.27.56Zm.57,2.25c-.18-.22-.38-.45-.57-.69L20,11.3,19.8,11c0-.05-.09-.14-.15-.14s-.19.17-.24.24l-.2.31c-.12.18-.22.36-.34.53v0s0,.06,0,.06l-.39-.35a4.83,4.83,0,0,0,.41-.49c.13-.19.25-.39.39-.57a.52.52,0,0,1,.43-.26.49.49,0,0,1,.35.2l.21.29.49.63c.26.32.59.7.86,1Z"/><path class="cls-2" d="M24.77,10.29h0a1.26,1.26,0,0,0-.5.09,1.4,1.4,0,0,0-.79,1.28c0,.84.68.94,1.24.94l-.09.48h-.08a2.12,2.12,0,0,1-.78-.15A1.17,1.17,0,0,1,23,11.78a2.26,2.26,0,0,1,.38-1.27c-.42.08-.84.17-1.25.27,0-.16-.05-.31-.07-.47a19.65,19.65,0,0,0,2.14-.4,4.58,4.58,0,0,0,.49-.15c0,.06.12.45.12.49s0,0-.05,0"/><path class="cls-2" d="M26,11.05a1.45,1.45,0,0,0-.1.55c0,.17,0,.6.23.6s.13-.08.17-.13a3.54,3.54,0,0,0,.5-1.75,1.25,1.25,0,0,0-.8.73m1.22,1.86c-.11-.11-.2-.24-.31-.35.55-.16,1-.38,1-1.15a1.07,1.07,0,0,0-.72-1.1,3.78,3.78,0,0,1-.82,2.23.57.57,0,0,1-.33.13.53.53,0,0,1-.37-.24,1.48,1.48,0,0,1-.22-.83,1.6,1.6,0,0,1,1.53-1.69,1.35,1.35,0,0,1,1.38,1.47,1.46,1.46,0,0,1-1.19,1.53"/><path class="cls-2" d="M31.86,13a3.49,3.49,0,0,1-1.27-1.76c-.06.18-.12.36-.19.53a2.74,2.74,0,0,1-.75,1,2,2,0,0,1-.36.23l-.3-.34a2.41,2.41,0,0,0,.41-.27,2.53,2.53,0,0,0,.85-1.59,6.61,6.61,0,0,0,.06-1.26l.48.06s.07,0,.07.05a.09.09,0,0,1-.07.08c0,.16,0,.33,0,.49a3,3,0,0,0,.54,1.56,3,3,0,0,0,.9.83Z"/><path class="cls-2" d="M35.41,10.59a2.58,2.58,0,0,0-.77-.12,3.29,3.29,0,0,0-.54,0c0-.14,0-.29,0-.43a3.91,3.91,0,0,1,.76-.07,2.74,2.74,0,0,1,.63.09c0,.16,0,.32-.07.48m.2,2.12a4.3,4.3,0,0,1-.61,0c-.53,0-1-.06-1.11-.8l.37-.27c0,.42.23.6.58.6a3.09,3.09,0,0,0,.8-.11l0,.53m-2.13.21L33.1,13a4.94,4.94,0,0,1-.18-1.53,9.94,9.94,0,0,1,.18-1.72l.3.07.15,0s0,0,0,.05a.06.06,0,0,1-.06,0,7.68,7.68,0,0,0-.2,1.79c0,.14,0,.28,0,.43.06-.18.12-.37.19-.55l.26.23a3.41,3.41,0,0,0-.31,1.09"/></g></g></svg>