<svg xmlns="http://www.w3.org/2000/svg" viewBox="0 0 47.18 47.18"><defs><style>.cls-1{fill:#c60f28;}.cls-2{fill:#fff;}</style></defs><g id="レイヤー_2" data-name="レイヤー 2"><g id="レイヤー_6" data-name="レイヤー 6"><rect class="cls-1" width="47.18" height="47.18"/><path class="cls-2" d="M6.31,9.67V5.85L5,9.67Zm0,1.3H3.6V9.61L6,4.1H7.87V9.67h.9V11h-.9V13.1H6.31Z"/><polygon class="cls-2" points="20.91 25.3 12.41 20.39 12.41 36.27 20.91 38.84 20.91 25.3"/><polygon class="cls-2" points="21.84 25.34 21.84 38.84 30.4 36.27 30.4 20.4 21.84 25.34"/><polygon class="cls-2" points="35.31 35.99 35.06 35.99 36.07 39.51 37.07 35.99 36.82 35.99 37.07 35.99 37.07 21.86 36.82 21.86 36.57 21.86 36.31 21.86 35.81 21.86 35.56 21.86 35.31 21.86 35.06 21.86 35.06 35.99 35.31 35.99"/><polygon class="cls-2" points="32.22 21.08 31.31 20.36 31.31 36.7 21.87 39.76 21.43 39.76 21.34 39.76 20.91 39.76 11.51 37.13 11.51 20.36 10.59 21.08 10.59 37.77 20.86 40.61 21.34 40.61 21.43 40.61 21.91 40.61 31.39 37.6 32.22 37.36 32.22 21.08"/><path class="cls-2" d="M37.07,20a1,1,0,0,0-2,0v1.09h2Z"/><path class="cls-2" d="M14.45,6.6H13v.16h1.46Zm0-.42H13v.16h1.46Zm0-.42H13v.16h1.46ZM14.87,5v.4h-.4V5h-.28a.83.83,0,0,1-.32.52h1V7.05h-.41a1.88,1.88,0,0,0,.85.29l-.25.39A4.45,4.45,0,0,1,14,7.26c.07-.07.16-.13.23-.21h-.91a2.11,2.11,0,0,1,.21.24,0,0,0,0,1,0,0h0a3.77,3.77,0,0,1-1,.39l-.22-.33A1.65,1.65,0,0,0,13,7.05h-.38V5.47h1.14l-.2-.13a.63.63,0,0,0,.28-.61c0-.19,0-.4,0-.6l.32,0A2.45,2.45,0,0,0,14.83,4l.32.33s0,0,0,.06,0,0-.06,0a.12.12,0,0,1-.09,0c-.28,0-.55.06-.82.07a1.09,1.09,0,0,1,0,.18h1.1V5Zm-1.47,0v.44H13V4.92h-.23a1.14,1.14,0,0,1-.38.75l-.3-.21c.3-.24.31-.47.31-.86,0-.15,0-.3,0-.45l.31,0A2.91,2.91,0,0,0,13.43,4l.28.34s0,0-.06,0l-.06,0a7.06,7.06,0,0,1-.77.1v.17h1.23v.31Z"/><path class="cls-2" d="M16.34,5.59a1.77,1.77,0,0,0-.09.56c0,.16,0,.59.22.59s.13-.08.17-.13a3.54,3.54,0,0,0,.5-1.75,1.28,1.28,0,0,0-.8.73m1.22,1.87c-.11-.12-.2-.25-.31-.36C17.8,7,18.3,6.72,18.3,6a1.05,1.05,0,0,0-.72-1.1,3.67,3.67,0,0,1-.82,2.22.5.5,0,0,1-.32.13A.52.52,0,0,1,16.07,7a1.41,1.41,0,0,1-.23-.83,1.6,1.6,0,0,1,1.53-1.7,1.36,1.36,0,0,1,1.38,1.48,1.47,1.47,0,0,1-1.19,1.53"/><path class="cls-2" d="M21.23,6.64h-.71v.3h.71Zm.18-1.47h-1.1v.25h1.1ZM20.16,6.35h1.45v.9H20.16Zm-.23-1.48H21.8V5.7H19.93Zm1.71,2.8-.26-.33c.24,0,.45-.08.45-.43V6.17H19.92V7.58h-.39V5.86h2.71V6.94a.63.63,0,0,1-.6.73M19.42,4.73V4.37h1.21V4l.44,0a0,0,0,0,1,.05,0,.09.09,0,0,1-.06.07v.25h1.26v.36Z"/><path class="cls-2" d="M25.4,6.8a3.72,3.72,0,0,0-.59-1.7l.42-.22a4.37,4.37,0,0,1,.61,1.72l-.44.2m-1.69.66a.36.36,0,0,1-.27-.12A2.13,2.13,0,0,1,23,6,6.83,6.83,0,0,1,23.1,4.9l.06-.42a2.6,2.6,0,0,1,.49.18.06.06,0,0,1,0,0s0,.07-.08.08a5.27,5.27,0,0,0-.13.81,4.47,4.47,0,0,0,0,.52,2.54,2.54,0,0,0,.09.54c0,.07.07.26.16.25s.37-.54.45-.7l.22.52c-.11.27-.4.72-.67.73"/><path class="cls-2" d="M28.69,5.21l0,.09a4.5,4.5,0,0,0,.24,1,4.54,4.54,0,0,0,.2-1Zm.81,2.48A2.62,2.62,0,0,1,28.9,7a2.67,2.67,0,0,1-.86.72l-.25-.31a1.76,1.76,0,0,0,.87-.75,3.83,3.83,0,0,1-.26-.81l-.14.22L28,5.82A4.65,4.65,0,0,0,28.57,4l.43.14s.05,0,.05.06-.05.07-.08.08c0,.19-.1.38-.15.57h.86v.36h-.19a4,4,0,0,1-.35,1.46,2.29,2.29,0,0,0,.66.69Zm-2-2.83v.36a3.13,3.13,0,0,0,.22-.36Zm.85-.39a5.13,5.13,0,0,1-.43.76h.23v.33h-.45c-.05.06-.09.13-.15.19H28V6a3.59,3.59,0,0,1-.38.4v.1c.19,0,.39-.06.58-.11l0,.37-.53.12v.24a.57.57,0,0,1-.49.63l-.25-.3c.3-.08.36-.14.36-.51l-.47.11s0,.07-.05.07,0,0,0,0l-.16-.41c.24,0,.47-.07.71-.12,0-.13,0-.26,0-.39h.21A.83.83,0,0,0,27.59,6h-.32a2.49,2.49,0,0,1-.61.47l-.24-.28a2.8,2.8,0,0,0,.81-.65h-.72V5.22h.58V4.87h-.45V4.5h.45V4l.41,0a0,0,0,0,1,0,0,.1.1,0,0,1-.05.08V4.5H28l-.24.24A4.49,4.49,0,0,0,28,4.13l.38.23a.07.07,0,0,1,0,.07s0,.05-.07,0"/><path class="cls-2" d="M31.58,4.75a4.37,4.37,0,0,1-.44.42l1.06,0c-.07-.06-.12-.13-.18-.19a1.75,1.75,0,0,0,.29-.18Zm.69,1.72H30.94v.2h1.33ZM30.94,6v.19h1.33V6Zm1.2,1.69-.25-.3c.23,0,.38-.08.38-.39H30.94v.66h-.39v-2h2.12V7.07a.53.53,0,0,1-.53.61m.28-2.93c.21.25.43.48.63.74l-.31.28c-.09-.12-.18-.24-.28-.35-.71.06-1.43.08-2.15.13l-.08-.39h.36a.25.25,0,0,0,.13-.06A1.56,1.56,0,0,0,31,4.75h-.87V4.41h1.26V4l.49,0s0,0,0,.06a.11.11,0,0,1-.07.08v.25h1.28v.34Z"/><path class="cls-2" d="M36.42,6l-.05,0-1,.38V7H35a1.15,1.15,0,0,0,0-.19V6.59q-.42.2-.42.48c0,.16.16.25.47.25a3.23,3.23,0,0,0,1-.16v.47a2.88,2.88,0,0,1-.87.12c-.68,0-1-.22-1-.65a.78.78,0,0,1,.29-.58A2.21,2.21,0,0,1,35,6.17c0-.19-.06-.28-.16-.28a.5.5,0,0,0-.36.16,2.31,2.31,0,0,0-.26.27l-.26.29c-.06-.08-.16-.18-.29-.33a3,3,0,0,0,.88-1.1l-.61.05q0-.23-.06-.42a5.63,5.63,0,0,0,.79,0,3.61,3.61,0,0,0,.12-.56l.47.11s0,0,0,0,0,0-.06.06a1.78,1.78,0,0,1-.09.31,5.15,5.15,0,0,0,.65-.15l0,.44a6.51,6.51,0,0,1-.76.13,2.3,2.3,0,0,1-.22.4.79.79,0,0,1,.2,0c.21,0,.35.14.41.43.28-.15.59-.3.94-.45l.15.45s0,0,0,0"/><path class="cls-2" d="M12.69,11.79c0,.1,0,.2.13.2a.18.18,0,0,0,.15-.08,2.5,2.5,0,0,0,.28-.62c-.24,0-.56.14-.56.5m2.45.33-.47-.35a2.12,2.12,0,0,1-.72,1l-.36-.24a1.79,1.79,0,0,0,.71-1,2.72,2.72,0,0,0-.65-.25,3.07,3.07,0,0,1-.17.42c-.14.34-.33.68-.68.68a.57.57,0,0,1-.5-.63.87.87,0,0,1,.64-.85,1.2,1.2,0,0,1,.42,0,6.37,6.37,0,0,0,.26-1l-.74.13-.08-.48h0A5,5,0,0,0,14,9.42c.05.07.11.13.16.19-.07.26-.15.51-.22.77l-.18.57a2.4,2.4,0,0,1,.64.21,3.41,3.41,0,0,0,.12-.84l.41.3a6.21,6.21,0,0,1-.13.73,4.63,4.63,0,0,1,.52.3c-.06.16-.12.32-.19.47"/><path class="cls-2" d="M17.71,12.75c-.46,0-.43-.49-.43-.87V11.5c0-.12,0-.25-.12-.25l-.09,0c-.52.15-.72,1-.89,1.46l-.4-.23c.14-.39.3-.78.46-1.16s.36-.87.55-1.3c.11-.24.2-.48.31-.72a3.68,3.68,0,0,1,.44.23s0,0,0,0a.05.05,0,0,1,0,.05c-.24.4-.44.83-.66,1.24l-.06.11a1,1,0,0,1,.46-.15c.34,0,.44.26.44.61v.62c0,.1,0,.24.13.24a.76.76,0,0,0,.44-.25,2.44,2.44,0,0,0,.35-.53c.05.19.11.38.16.57a1.29,1.29,0,0,1-1.06.65"/><path class="cls-2" d="M22,10.65a2,2,0,0,0-.84-.46l.2-.41a2.25,2.25,0,0,1,.87.47ZM21,12a.51.51,0,0,0-.25,0c-.13,0-.29,0-.3.23s.19.28.33.28.22,0,.22-.21A2.09,2.09,0,0,0,21,12m.86.58a3.06,3.06,0,0,0-.46-.42v.14c0,.42-.29.53-.6.53a1.26,1.26,0,0,1-.33-.05.64.64,0,0,1-.4-.58.59.59,0,0,1,.63-.61,1.32,1.32,0,0,1,.28,0c0-.19,0-.38,0-.57a.92.92,0,0,1,.05-.28h.31s.12,0,.12,0h0a.43.43,0,0,0-.07.25c0,.21,0,.42,0,.64a2.64,2.64,0,0,1,.73.48,4,4,0,0,1-.27.4m-1-2.47c-.17,0-.33.09-.5.12a8.29,8.29,0,0,1-.76,1.9l-.38-.22A6.34,6.34,0,0,0,20,10.29a4.38,4.38,0,0,1-.51,0l-.06-.43h.19l.48,0a4.22,4.22,0,0,0,.1-.7,4,4,0,0,1,.48.08c0,.18-.08.37-.14.56a3.45,3.45,0,0,0,.42-.14c0,.14,0,.29,0,.44"/><path class="cls-2" d="M25.75,10.3a2.72,2.72,0,0,0-.81-.05,3.89,3.89,0,0,0-.56.1c0-.15,0-.33,0-.48a4.27,4.27,0,0,1,.79-.1,2.44,2.44,0,0,1,.66,0c0,.16,0,.33,0,.49m.09,2.3a2.72,2.72,0,0,1-.64,0c-.5,0-1-.09-1-.85l.35-.26c0,.43.21.62.53.63a2.34,2.34,0,0,0,.79-.09c0,.18,0,.35,0,.54m-2.26.11-.38,0A5.13,5.13,0,0,1,23,11.2a9.47,9.47,0,0,1,.18-1.76l.3.07.15,0a.06.06,0,0,1,0,.06.06.06,0,0,1-.06.05,7.87,7.87,0,0,0-.2,1.82c0,.15,0,.29,0,.44.06-.18.12-.37.19-.56l.26.24a3.53,3.53,0,0,0-.31,1.11"/></g></g></svg>