<svg xmlns="http://www.w3.org/2000/svg" xmlns:xlink="http://www.w3.org/1999/xlink" viewBox="0 0 22.68 22.68"><defs><style>.cls-1{fill:none;}.cls-2{clip-path:url(#clip-path);}.cls-3{fill:#ce7828;}.cls-4{fill:#fff;}</style><clipPath id="clip-path" transform="translate(0 0)"><rect class="cls-1" width="22.68" height="22.68"/></clipPath></defs><g id="レイヤー_2" data-name="レイヤー 2"><g id="レイヤー_1-2" data-name="レイヤー 1"><g class="cls-2"><path class="cls-3" d="M11.34,22.68A11.34,11.34,0,1,0,0,11.34,11.34,11.34,0,0,0,11.34,22.68" transform="translate(0 0)"/></g><path class="cls-4" d="M13.07,9.91c-1.66.09-2.61,1-2.67,1.85a1.17,1.17,0,0,0,.5,1.12A4.54,4.54,0,0,1,11,12.2a3.56,3.56,0,0,1,.13-.39,3.7,3.7,0,0,1,.38-.72l.14-.19.13-.15h0l.23-.22.21-.14-.12.11s-.08.08-.12.14l-.11.13,0,.06A3.51,3.51,0,0,0,11.35,12h0c-.06.23-.1.46-.14.67s0,.25,0,.37,0,.15,0,.22,0,.32,0,.42v.16h.29c0-.26,0-.5,0-.74a1.19,1.19,0,0,0,1.34-.95c.13-.71-.25-1.76.31-2.22" transform="translate(0 0)"/><path class="cls-4" d="M16.33,11V9.15L18,7.22a.3.3,0,0,0,0-.43.33.33,0,0,0-.45,0L15.79,8.6h-.65L13.35,6.79a.32.32,0,0,0-.43,0,.3.3,0,0,0,0,.44L14.6,9.15V11l-.44,3.07a.35.35,0,0,0,.29.4.38.38,0,0,0,.44-.28l.53-2.72h.09L16,14.23a.38.38,0,0,0,.42.29.36.36,0,0,0,.31-.41Zm-.86-2.71a.77.77,0,1,0-.78-.77.77.77,0,0,0,.78.77" transform="translate(0 0)"/><path class="cls-4" d="M10,12.48V10L12.24,7.4a.42.42,0,0,0,0-.58.43.43,0,0,0-.6,0L9.24,9.23H8.37L6,6.83a.43.43,0,0,0-.59,0,.42.42,0,0,0,0,.59L7.64,10v2.51l-.58,4.09a.5.5,0,0,0,.4.55A.49.49,0,0,0,8,16.74l.72-3.63h.11l.72,3.63a.49.49,0,0,0,1-.17ZM8.8,8.87a1,1,0,1,0-1-1,1,1,0,0,0,1,1" transform="translate(0 0)"/></g></g></svg>