<svg xmlns="http://www.w3.org/2000/svg" xmlns:xlink="http://www.w3.org/1999/xlink" viewBox="0 0 22.68 22.68"><defs><style>.cls-1{fill:none;}.cls-2{clip-path:url(#clip-path);}.cls-3{fill:#50a135;}.cls-4{fill:#fff;}</style><clipPath id="clip-path" transform="translate(0 0)"><rect class="cls-1" width="22.68" height="22.68"/></clipPath></defs><g id="レイヤー_2" data-name="レイヤー 2"><g id="レイヤー_1-2" data-name="レイヤー 1"><g class="cls-2"><path class="cls-3" d="M11.34,22.68A11.34,11.34,0,1,0,0,11.34,11.34,11.34,0,0,0,11.34,22.68" transform="translate(0 0)"/></g><path class="cls-4" d="M7.37,10.26a2.63,2.63,0,0,0,2,.37l0,0A3.52,3.52,0,0,1,10,11.91a3.38,3.38,0,0,1,.11.95,17.45,17.45,0,0,0,.14,4.62h1.27c-.13-.46-.25-.93-.35-1.41a3.48,3.48,0,0,1,.15-1.7,3.77,3.77,0,0,1,1.27-1.58c.41-.33.86-.61,1.31-.92a2.4,2.4,0,0,0,1.89-.56A6.69,6.69,0,0,0,17.3,8.39a6.21,6.21,0,0,0-3,1.16,2.48,2.48,0,0,0-.71,1.83l.46-.24c.32-.18.63-.38.94-.59a8.49,8.49,0,0,0,.67-.55l0,0a7.58,7.58,0,0,0,.91-1,7.16,7.16,0,0,1-1,1.2l-.14.13-.37.33a12,12,0,0,1-1.52,1h0c-.42.22-.85.45-1.26.71a4.46,4.46,0,0,0-1.47,1.4c0-.35,0-.69,0-1a15,15,0,0,1,.28-2.91,3,3,0,0,0,1.91-1.29c.71-1.24.54-2.46.59-3.73a7.48,7.48,0,0,0-2.93,2.41,2.86,2.86,0,0,0-.16,2.17l.15-.34a12.9,12.9,0,0,1,.65-1.22,9.28,9.28,0,0,1,1.73-2.11,8.55,8.55,0,0,0-1.34,1.82c-.08.12-.15.25-.22.38a14.72,14.72,0,0,0-.75,1.79,2.41,2.41,0,0,1-.08.25h0a12.63,12.63,0,0,0-.34,1.38,4.08,4.08,0,0,0-.72-1h0v0A12,12,0,0,0,8.12,9.06l-.68-.47h0A9.13,9.13,0,0,0,6.32,8a11.91,11.91,0,0,1,1.1.49h0l.8.45a13,13,0,0,1,1.31.93,2.18,2.18,0,0,0-.78-1.35,6.16,6.16,0,0,0-3-.92,6.25,6.25,0,0,0,1.67,2.7" transform="translate(0 0)"/><path class="cls-4" d="M14.54,17.57A1.58,1.58,0,0,0,16.13,16c0-1.15-1.18-1.78-1.59-3.11C14.13,14.23,13,14.86,13,16a1.58,1.58,0,0,0,1.59,1.56m-.49-2.92a4.36,4.36,0,0,0,.49-.71,2.53,2.53,0,0,1-.3.72A3,3,0,0,0,13.77,16a1.13,1.13,0,0,0,1,1.11h-.19A1.13,1.13,0,0,1,13.4,16a2.38,2.38,0,0,1,.65-1.36" transform="translate(0 0)"/></g></g></svg>