<svg xmlns="http://www.w3.org/2000/svg" viewBox="0 0 47.18 47.18"><defs><style>.cls-1{fill:#00a6d9;}.cls-2{fill:#fff;}</style></defs><g id="レイヤー_2" data-name="レイヤー 2"><g id="レイヤー_6" data-name="レイヤー 6"><rect class="cls-1" width="47.18" height="47.18"/><path class="cls-2" d="M6.76,11.57a3.41,3.41,0,0,0,.14-1.18c0-.38,0-.67,0-.88A1,1,0,0,0,6.69,9a.57.57,0,0,0-.46-.18A.74.74,0,0,0,5.81,9a.78.78,0,0,0-.28.29v1.43c0,.85.23,1.28.71,1.28a.51.51,0,0,0,.52-.38m-2.37.85a3.49,3.49,0,0,1-.6-2.15V7.07A4,4,0,0,1,4.33,4.8,2.06,2.06,0,0,1,6.2,4a2.31,2.31,0,0,1,1.74.57,2.5,2.5,0,0,1,.54,1.71v.16H6.86a2.26,2.26,0,0,0-.12-.88.53.53,0,0,0-.51-.25.55.55,0,0,0-.43.17A1.09,1.09,0,0,0,5.59,6a7.54,7.54,0,0,0-.06,1.1V8A1,1,0,0,1,6,7.65a1.91,1.91,0,0,1,.74-.14,1.59,1.59,0,0,1,1.44.7,3.35,3.35,0,0,1,.46,1.89,4.11,4.11,0,0,1-.56,2.31,2.09,2.09,0,0,1-1.86.81,2.09,2.09,0,0,1-1.82-.8"/><path class="cls-2" d="M31.13,22.73a2.17,2.17,0,0,0-1.63.1,7.49,7.49,0,0,1-5.83.47c-1.41-.44-2.73-1.36-4.29-.8a9,9,0,0,1-3.18.72l-.68-3.47H31.61ZM25.67,33a2.74,2.74,0,0,1-2.05.72A2.74,2.74,0,0,1,21.57,33a3,3,0,0,1-.38-3.71c.27-.52,2.25-3.49,2.42-3.74v0h0v0c.16.25,2.15,3.22,2.42,3.74A3,3,0,0,1,25.67,33m6.65-14a.2.2,0,0,0-.16-.07H15a.2.2,0,0,0-.16.07.23.23,0,0,0,0,.16l2.89,17.47a.2.2,0,0,0,.2.17H21.4l.25,2.85h-1.5l3.47,3.47,3.49-3.48h-1.5l.25-2.84h3.6a.2.2,0,0,0,.2-.17l2.7-17.47a.22.22,0,0,0,0-.16"/><path class="cls-2" d="M13.81,6.22c-.08.15-.15.31-.22.46a4.5,4.5,0,0,1,.58.21,2.79,2.79,0,0,0,.33-.67Zm1.27-.61v-.5h-2v.5h-.42V4.74h1.17V4.28l.45,0s.07,0,.07,0,0,.05-.06.06v.33h1.2v.87Zm-.1.61a3.88,3.88,0,0,1-.44.86,7.14,7.14,0,0,1,1,.57L15.22,8a5.51,5.51,0,0,0-1-.65,3,3,0,0,1-1.42.59l-.24-.37a2.48,2.48,0,0,0,1.26-.41A4.28,4.28,0,0,0,13,6.93a5.26,5.26,0,0,0,.36-.71h-.84V5.85h1a5.27,5.27,0,0,0,.25-.7l.46.15s0,0,0,0,0,0-.07.06-.14.3-.22.45h1.68v.37Z"/><path class="cls-2" d="M18,4.8a3.58,3.58,0,0,1-.75.89h1.53A4.45,4.45,0,0,1,18,4.8m1.46,1.38A2.42,2.42,0,0,1,19,5.89v.17h-.82v.5h1v.37h-1v.58h1.27v.36H16.51V7.51h1.24V6.93h-1V6.56h1v-.5H17V5.89a3.52,3.52,0,0,1-.42.29l-.27-.36a3.13,3.13,0,0,0,1.48-1.56l.46.08a.05.05,0,0,1,.05,0,.05.05,0,0,1,0,0A3.65,3.65,0,0,0,19.7,5.8Z"/><path class="cls-2" d="M23,5.92a2.26,2.26,0,0,0-.88-.46l.21-.41a2.29,2.29,0,0,1,.9.47ZM22,7.16a.58.58,0,0,0-.26,0c-.14,0-.31,0-.31.23s.21.27.35.27.23,0,.23-.2a2.09,2.09,0,0,0,0-.25m.92.58a3.29,3.29,0,0,0-.49-.42v.14c0,.41-.28.53-.6.53a1,1,0,0,1-.35-.06A.65.65,0,0,1,21,7.36a.59.59,0,0,1,.64-.61,1.51,1.51,0,0,1,.3,0,5.44,5.44,0,0,1,0-.57A.69.69,0,0,1,22,5.92h.32s.13,0,.13,0h0a.51.51,0,0,0-.06.25c0,.21,0,.42,0,.64a2.58,2.58,0,0,1,.79.48c-.09.14-.17.27-.27.4m-1-2.4-.53.13a8.3,8.3,0,0,1-.79,1.89,4,4,0,0,1-.4-.22,6.15,6.15,0,0,0,.73-1.63,3.29,3.29,0,0,1-.54,0l-.06-.43h.2a2.74,2.74,0,0,0,.5,0,3.19,3.19,0,0,0,.1-.7c.17,0,.34,0,.51.09-.05.18-.09.37-.15.56a3.73,3.73,0,0,0,.44-.14c0,.14,0,.29,0,.43"/><path class="cls-2" d="M27,7.54a4.16,4.16,0,0,1-1.17-1.75V7.2c0,.53-.16.76-.64.85l-.3-.35.23,0c.26-.09.27-.29.27-.56V4.34l.46.07s.05,0,.05,0,0,.07-.07.09v1A9.28,9.28,0,0,0,26.8,5l.27.41a.14.14,0,0,1,0,.08s0,0-.05,0a.13.13,0,0,1-.07,0l-.75.27a3.39,3.39,0,0,0,1.12,1.45ZM25.18,5.65a3.76,3.76,0,0,1-.5,1.28,2,2,0,0,1-.5.53l-.34-.27a2.52,2.52,0,0,0,.3-.27,2.69,2.69,0,0,0,.62-1.33H24V5.21h1.21v.27a.86.86,0,0,1,0,.17"/><path class="cls-2" d="M29.43,7.81c-.51,0-1.33-.07-1.33-.85a1.19,1.19,0,0,1,.83-1,6.28,6.28,0,0,1-.14-1.44l.33,0,.16,0a0,0,0,0,1,0,0,.08.08,0,0,1,0,.05,2.3,2.3,0,0,0,0,.37,2.35,2.35,0,0,0,.07.72l0,0a4.23,4.23,0,0,0,.9-.36c.05.17.09.35.13.53-.45.1-1.86.36-1.86,1,0,.37.53.45.77.45a3.22,3.22,0,0,0,1.15-.18c0,.16,0,.34.05.51a5,5,0,0,1-1.08.11"/><path class="cls-2" d="M33.12,6.83a4.76,4.76,0,0,0-1-.65V7.3c0,.24,0,.49,0,.73h-.49c0-.53,0-1.06,0-1.58s0-1.23,0-1.84l.5,0a0,0,0,0,1,0,0,.08.08,0,0,1,0,.07l0,1.13.13-.2a4.8,4.8,0,0,1,1.17.69c-.1.14-.19.29-.28.43"/><path class="cls-2" d="M36.41,5a4.89,4.89,0,0,1-.65.78V8H35.3V6.08a4.84,4.84,0,0,1-.46.33,5.54,5.54,0,0,1-.53.3L34,6.3a3.59,3.59,0,0,0,.73-.37,4.65,4.65,0,0,0,.65-.54A4,4,0,0,0,36,4.57l.44.28a.05.05,0,0,1,0,0c0,.05,0,.06-.07.06"/><path class="cls-2" d="M38.11,7.85a1.65,1.65,0,0,0-.25.15l-.33-.31a.91.91,0,0,0,0-.33c0-.25,0-.5,0-.75,0-.62,0-1.28,0-1.9l.48.06a0,0,0,0,1,0,.05s0,.06,0,.08c0,.58,0,1.2,0,1.78V7.3s0,0,0,0h0a3.93,3.93,0,0,0,1.5-1.21,1.37,1.37,0,0,1,.13-.2s0,0,0,0,0,0,0,0a6,6,0,0,0,.09.61,4.41,4.41,0,0,1-1.73,1.33"/><path class="cls-2" d="M15.68,11.35l-.06,0-1,.38v.62h-.43a1.15,1.15,0,0,0,0-.19v-.22c-.29.13-.44.29-.44.48s.17.25.5.25a3.25,3.25,0,0,0,1.05-.17V13a3.12,3.12,0,0,1-.91.11c-.71,0-1.07-.21-1.07-.64a.79.79,0,0,1,.3-.59,3,3,0,0,1,.55-.34c0-.19-.06-.28-.17-.28a.55.55,0,0,0-.37.15,2.43,2.43,0,0,0-.28.28c-.14.14-.22.24-.27.29l-.3-.33a3.07,3.07,0,0,0,.91-1.1l-.64.05c0-.15,0-.29-.05-.42a6.28,6.28,0,0,0,.83,0A3.61,3.61,0,0,0,14,9.54l.49.11a0,0,0,0,1,0,0s0,.05-.06.07-.05.17-.09.31A5.75,5.75,0,0,0,15,9.92l0,.44-.8.13a2.3,2.3,0,0,1-.22.4l.21,0c.22,0,.36.15.43.44.29-.15.62-.3,1-.45l.16.45s0,0,0,0"/><path class="cls-2" d="M18.6,10.9h-.47v.83h.47Zm.43,0v1.19H17.72V10.9h-.46v1.71h2.17V13h-2.6V10.9H16.3v-.39h.53v-.9l.44,0a.05.05,0,0,1,.05,0,.07.07,0,0,1-.06.07v.76h.45v-1l.43,0a0,0,0,0,1,.05,0,.09.09,0,0,1-.05.07v.84h.46v-1l.43,0s.06,0,.06,0,0,.06-.07.07v.84h.57v.39Z"/><path class="cls-2" d="M22.58,10.6h-.67V11h.67Zm0-.69h-.67v.36h.67Zm-1.06.69h-.64V11h.64Zm0-.69h-.64v.36h.64Zm1.68,2.41a3.1,3.1,0,0,1-.77-.48v1.27H22v-1.6l-.21-.26h-.24a3.58,3.58,0,0,1-.26.29l.19,0s.06,0,.06,0,0,.06-.07.07a1.93,1.93,0,0,1-.29,1.08,1.34,1.34,0,0,1-.51.41l-.33-.28a1,1,0,0,0,.71-1.13,3.1,3.1,0,0,1-.81.54L20,12a3.45,3.45,0,0,0,.63-.33,2.16,2.16,0,0,0,.41-.39h-.58V9.56H23v1.69h-.67a2.57,2.57,0,0,0,1.13.7Z"/><path class="cls-2" d="M26.47,10.5h-.82v1.1h.82Zm-1.25,0h-.79v1.1h.79ZM25.65,12v1.17h-.42V12H24V10.12h1.2V9.44l.45,0s.05,0,.05,0a.07.07,0,0,1-.06.07v.53H26.9V12Z"/><path class="cls-2" d="M30.54,10.48a2.76,2.76,0,0,0-.81,0,3.44,3.44,0,0,0-.56.09c0-.15,0-.34-.05-.49a4.26,4.26,0,0,1,.8-.09,2.92,2.92,0,0,1,.66,0c0,.17,0,.34,0,.5m.08,2.35a2.66,2.66,0,0,1-.63,0c-.51,0-1-.1-1-.86l.36-.27c0,.44.2.63.52.64a2.32,2.32,0,0,0,.79-.09c0,.18,0,.36,0,.55M28.36,13,28,13a5.25,5.25,0,0,1-.18-1.59A9.79,9.79,0,0,1,28,9.61l.3.07.15,0s0,0,0,.06a.05.05,0,0,1,0,.05,8.29,8.29,0,0,0-.21,1.86c0,.15,0,.3,0,.45.06-.19.12-.38.19-.57l.26.24A4.26,4.26,0,0,0,28.36,13"/><rect class="cls-1" width="47.18" height="47.18"/><path class="cls-2" d="M6.76,11.57a3.41,3.41,0,0,0,.14-1.18c0-.38,0-.67,0-.88A1,1,0,0,0,6.69,9a.57.57,0,0,0-.46-.18A.74.74,0,0,0,5.81,9a.78.78,0,0,0-.28.29v1.43c0,.85.23,1.28.71,1.28a.51.51,0,0,0,.52-.38m-2.37.85a3.49,3.49,0,0,1-.6-2.15V7.07A4,4,0,0,1,4.33,4.8,2.06,2.06,0,0,1,6.2,4a2.31,2.31,0,0,1,1.74.57,2.5,2.5,0,0,1,.54,1.71v.16H6.86a2.26,2.26,0,0,0-.12-.88.53.53,0,0,0-.51-.25.55.55,0,0,0-.43.17A1.09,1.09,0,0,0,5.59,6a7.54,7.54,0,0,0-.06,1.1V8A1,1,0,0,1,6,7.65a1.91,1.91,0,0,1,.74-.14,1.59,1.59,0,0,1,1.44.7,3.35,3.35,0,0,1,.46,1.89,4.11,4.11,0,0,1-.56,2.31,2.09,2.09,0,0,1-1.86.81,2.09,2.09,0,0,1-1.82-.8"/><path class="cls-2" d="M31.13,22.73a2.17,2.17,0,0,0-1.63.1,7.49,7.49,0,0,1-5.83.47c-1.41-.44-2.73-1.36-4.29-.8a9,9,0,0,1-3.18.72l-.68-3.47H31.61ZM25.67,33a2.74,2.74,0,0,1-2.05.72A2.74,2.74,0,0,1,21.57,33a3,3,0,0,1-.38-3.71c.27-.52,2.25-3.49,2.42-3.74v0h0v0c.16.25,2.15,3.22,2.42,3.74A3,3,0,0,1,25.67,33m6.65-14a.2.2,0,0,0-.16-.07H15a.2.2,0,0,0-.16.07.23.23,0,0,0,0,.16l2.89,17.47a.2.2,0,0,0,.2.17H21.4l.25,2.85h-1.5l3.47,3.47,3.49-3.48h-1.5l.25-2.84h3.6a.2.2,0,0,0,.2-.17l2.7-17.47a.22.22,0,0,0,0-.16"/><path class="cls-2" d="M13.81,6.22c-.08.15-.15.31-.22.46a4.5,4.5,0,0,1,.58.21,2.79,2.79,0,0,0,.33-.67Zm1.27-.61v-.5h-2v.5h-.42V4.74h1.17V4.28l.45,0s.07,0,.07,0,0,.05-.06.06v.33h1.2v.87Zm-.1.61a3.88,3.88,0,0,1-.44.86,7.14,7.14,0,0,1,1,.57L15.22,8a5.51,5.51,0,0,0-1-.65,3,3,0,0,1-1.42.59l-.24-.37a2.48,2.48,0,0,0,1.26-.41A4.28,4.28,0,0,0,13,6.93a5.26,5.26,0,0,0,.36-.71h-.84V5.85h1a5.27,5.27,0,0,0,.25-.7l.46.15s0,0,0,0,0,0-.07.06-.14.3-.22.45h1.68v.37Z"/><path class="cls-2" d="M18,4.8a3.58,3.58,0,0,1-.75.89h1.53A4.45,4.45,0,0,1,18,4.8m1.46,1.38A2.42,2.42,0,0,1,19,5.89v.17h-.82v.5h1v.37h-1v.58h1.27v.36H16.51V7.51h1.24V6.93h-1V6.56h1v-.5H17V5.89a3.52,3.52,0,0,1-.42.29l-.27-.36a3.13,3.13,0,0,0,1.48-1.56l.46.08a.05.05,0,0,1,.05,0,.05.05,0,0,1,0,0A3.65,3.65,0,0,0,19.7,5.8Z"/><path class="cls-2" d="M23,5.92a2.26,2.26,0,0,0-.88-.46l.21-.41a2.29,2.29,0,0,1,.9.47ZM22,7.16a.58.58,0,0,0-.26,0c-.14,0-.31,0-.31.23s.21.27.35.27.23,0,.23-.2a2.09,2.09,0,0,0,0-.25m.92.58a3.29,3.29,0,0,0-.49-.42v.14c0,.41-.28.53-.6.53a1,1,0,0,1-.35-.06A.65.65,0,0,1,21,7.36a.59.59,0,0,1,.64-.61,1.51,1.51,0,0,1,.3,0,5.44,5.44,0,0,1,0-.57A.69.69,0,0,1,22,5.92h.32s.13,0,.13,0h0a.51.51,0,0,0-.06.25c0,.21,0,.42,0,.64a2.58,2.58,0,0,1,.79.48c-.09.14-.17.27-.27.4m-1-2.4-.53.13a8.3,8.3,0,0,1-.79,1.89,4,4,0,0,1-.4-.22,6.15,6.15,0,0,0,.73-1.63,3.29,3.29,0,0,1-.54,0l-.06-.43h.2a2.74,2.74,0,0,0,.5,0,3.19,3.19,0,0,0,.1-.7c.17,0,.34,0,.51.09-.05.18-.09.37-.15.56a3.73,3.73,0,0,0,.44-.14c0,.14,0,.29,0,.43"/><path class="cls-2" d="M27,7.54a4.16,4.16,0,0,1-1.17-1.75V7.2c0,.53-.16.76-.64.85l-.3-.35.23,0c.26-.09.27-.29.27-.56V4.34l.46.07s.05,0,.05,0,0,.07-.07.09v1A9.28,9.28,0,0,0,26.8,5l.27.41a.14.14,0,0,1,0,.08s0,0-.05,0a.13.13,0,0,1-.07,0l-.75.27a3.39,3.39,0,0,0,1.12,1.45ZM25.18,5.65a3.76,3.76,0,0,1-.5,1.28,2,2,0,0,1-.5.53l-.34-.27a2.52,2.52,0,0,0,.3-.27,2.69,2.69,0,0,0,.62-1.33H24V5.21h1.21v.27a.86.86,0,0,1,0,.17"/><path class="cls-2" d="M29.43,7.81c-.51,0-1.33-.07-1.33-.85a1.19,1.19,0,0,1,.83-1,6.28,6.28,0,0,1-.14-1.44l.33,0,.16,0a0,0,0,0,1,0,0,.08.08,0,0,1,0,.05,2.3,2.3,0,0,0,0,.37,2.35,2.35,0,0,0,.07.72l0,0a4.23,4.23,0,0,0,.9-.36c.05.17.09.35.13.53-.45.1-1.86.36-1.86,1,0,.37.53.45.77.45a3.22,3.22,0,0,0,1.15-.18c0,.16,0,.34.05.51a5,5,0,0,1-1.08.11"/><path class="cls-2" d="M33.12,6.83a4.76,4.76,0,0,0-1-.65V7.3c0,.24,0,.49,0,.73h-.49c0-.53,0-1.06,0-1.58s0-1.23,0-1.84l.5,0a0,0,0,0,1,0,0,.08.08,0,0,1,0,.07l0,1.13.13-.2a4.8,4.8,0,0,1,1.17.69c-.1.14-.19.29-.28.43"/><path class="cls-2" d="M36.41,5a4.89,4.89,0,0,1-.65.78V8H35.3V6.08a4.84,4.84,0,0,1-.46.33,5.54,5.54,0,0,1-.53.3L34,6.3a3.59,3.59,0,0,0,.73-.37,4.65,4.65,0,0,0,.65-.54A4,4,0,0,0,36,4.57l.44.28a.05.05,0,0,1,0,0c0,.05,0,.06-.07.06"/><path class="cls-2" d="M38.11,7.85a1.65,1.65,0,0,0-.25.15l-.33-.31a.91.91,0,0,0,0-.33c0-.25,0-.5,0-.75,0-.62,0-1.28,0-1.9l.48.06a0,0,0,0,1,0,.05s0,.06,0,.08c0,.58,0,1.2,0,1.78V7.3s0,0,0,0h0a3.93,3.93,0,0,0,1.5-1.21,1.37,1.37,0,0,1,.13-.2s0,0,0,0,0,0,0,0a6,6,0,0,0,.09.61,4.41,4.41,0,0,1-1.73,1.33"/><path class="cls-2" d="M15.68,11.35l-.06,0-1,.38v.62h-.43a1.15,1.15,0,0,0,0-.19v-.22c-.29.13-.44.29-.44.48s.17.25.5.25a3.25,3.25,0,0,0,1.05-.17V13a3.12,3.12,0,0,1-.91.11c-.71,0-1.07-.21-1.07-.64a.79.79,0,0,1,.3-.59,3,3,0,0,1,.55-.34c0-.19-.06-.28-.17-.28a.55.55,0,0,0-.37.15,2.43,2.43,0,0,0-.28.28c-.14.14-.22.24-.27.29l-.3-.33a3.07,3.07,0,0,0,.91-1.1l-.64.05c0-.15,0-.29-.05-.42a6.28,6.28,0,0,0,.83,0A3.61,3.61,0,0,0,14,9.54l.49.11a0,0,0,0,1,0,0s0,.05-.06.07-.05.17-.09.31A5.75,5.75,0,0,0,15,9.92l0,.44-.8.13a2.3,2.3,0,0,1-.22.4l.21,0c.22,0,.36.15.43.44.29-.15.62-.3,1-.45l.16.45s0,0,0,0"/><path class="cls-2" d="M18.6,10.9h-.47v.83h.47Zm.43,0v1.19H17.72V10.9h-.46v1.71h2.17V13h-2.6V10.9H16.3v-.39h.53v-.9l.44,0a.05.05,0,0,1,.05,0,.07.07,0,0,1-.06.07v.76h.45v-1l.43,0a0,0,0,0,1,.05,0,.09.09,0,0,1-.05.07v.84h.46v-1l.43,0s.06,0,.06,0,0,.06-.07.07v.84h.57v.39Z"/><path class="cls-2" d="M22.58,10.6h-.67V11h.67Zm0-.69h-.67v.36h.67Zm-1.06.69h-.64V11h.64Zm0-.69h-.64v.36h.64Zm1.68,2.41a3.1,3.1,0,0,1-.77-.48v1.27H22v-1.6l-.21-.26h-.24a3.58,3.58,0,0,1-.26.29l.19,0s.06,0,.06,0,0,.06-.07.07a1.93,1.93,0,0,1-.29,1.08,1.34,1.34,0,0,1-.51.41l-.33-.28a1,1,0,0,0,.71-1.13,3.1,3.1,0,0,1-.81.54L20,12a3.45,3.45,0,0,0,.63-.33,2.16,2.16,0,0,0,.41-.39h-.58V9.56H23v1.69h-.67a2.57,2.57,0,0,0,1.13.7Z"/><path class="cls-2" d="M26.47,10.5h-.82v1.1h.82Zm-1.25,0h-.79v1.1h.79ZM25.65,12v1.17h-.42V12H24V10.12h1.2V9.44l.45,0s.05,0,.05,0a.07.07,0,0,1-.06.07v.53H26.9V12Z"/><path class="cls-2" d="M30.54,10.48a2.76,2.76,0,0,0-.81,0,3.44,3.44,0,0,0-.56.09c0-.15,0-.34-.05-.49a4.26,4.26,0,0,1,.8-.09,2.92,2.92,0,0,1,.66,0c0,.17,0,.34,0,.5m.08,2.35a2.66,2.66,0,0,1-.63,0c-.51,0-1-.1-1-.86l.36-.27c0,.44.2.63.52.64a2.32,2.32,0,0,0,.79-.09c0,.18,0,.36,0,.55M28.36,13,28,13a5.25,5.25,0,0,1-.18-1.59A9.79,9.79,0,0,1,28,9.61l.3.07.15,0s0,0,0,.06a.05.05,0,0,1,0,.05,8.29,8.29,0,0,0-.21,1.86c0,.15,0,.3,0,.45.06-.19.12-.38.19-.57l.26.24A4.26,4.26,0,0,0,28.36,13"/></g></g></svg>