<svg xmlns="http://www.w3.org/2000/svg" xmlns:xlink="http://www.w3.org/1999/xlink" width="178" height="71" viewBox="0 0 178 71">
  <defs>
    <clipPath id="clip-path">
      <rect id="長方形_1944" data-name="長方形 1944" width="178" height="71" transform="translate(0 -0.297)" fill="none"/>
    </clipPath>
  </defs>
  <g id="グループ_1990" data-name="グループ 1990" transform="translate(0.17 0.279)">
    <g id="グループ_1989" data-name="グループ 1989" transform="translate(-0.17 0.018)" clip-path="url(#clip-path)">
      <path id="パス_1450" data-name="パス 1450" d="M143.072,70.714h-8.058a5.07,5.07,0,0,0,1.665-3.514,8.446,8.446,0,0,1-2.4-1.082c-.232.444-.149.943-.415,1.35-.112-.047-.216-.057-.249-.11a11.723,11.723,0,0,1-1.088-2.007,19.28,19.28,0,0,1-.619-4.516.491.491,0,0,1,.177-.534h3.72V57.916c-.358-.274-.751-.055-1.071-.218.035-.3.438-.354.429-.707a9.71,9.71,0,0,0-2.212-1.849l-1.035,1-.243-.83h-2.53c-.117.837.094,1.63-.1,2.434-2.567.038-5.1-.026-7.7.038a23.947,23.947,0,0,0,.063,2.585h7.821c.067.611.146,1.149.181,1.69a17.931,17.931,0,0,0,.635,3.857,6.954,6.954,0,0,0,3.819,4.794H46.375a7.162,7.162,0,0,1,1.708-.651,10.134,10.134,0,0,0,4.769-3.439,15.789,15.789,0,0,0,2.255-5.556c.011-.043-.025-.1-.059-.213l-2.6-.718a2.126,2.126,0,0,0-.308.714c-.152.577-.313,1.153-.5,1.719a8.4,8.4,0,0,1-1.46,2.811,7.191,7.191,0,0,1-3.742,2.209c-.5.143-1.017.26-1.562.4a4.663,4.663,0,0,1,1.176,2.727H0V46.54l.167-.007H8.9V45.488Q8.9,28.6,8.9,11.7A5.259,5.259,0,0,1,9,10.648a2.108,2.108,0,0,1,1.616-1.762,2.345,2.345,0,0,1,2.53.942,3.923,3.923,0,0,1,.508,1.11Q15.41,16.8,17.179,22.651q2.305,7.653,4.616,15.3a20.534,20.534,0,0,0,.812,2.478,11.735,11.735,0,0,0,3.852,4.7,12.564,12.564,0,0,0,9.806,2.411,11.011,11.011,0,0,0,9.107-10.839q0-17.468,0-34.935a1.668,1.668,0,0,0-.066-.762H36.491V36.123c0,.219.01.439,0,.657a2.313,2.313,0,0,1-3.468,1.9,3.357,3.357,0,0,1-1.634-1.966c-.774-2.52-1.565-5.035-2.351-7.551q-2.332-7.47-4.663-14.94c-.564-1.816-1.162-3.626-1.635-5.466a10.951,10.951,0,0,0-2.864-5.063A12.174,12.174,0,0,0,13.73.3c-.463-.1-.981.021-1.4-.3h96.533c-.049.171-.2.146-.326.177a10.941,10.941,0,0,0-8.423,7.647c-.652,2.016-1.188,4.07-1.766,6.111q-1.709,6.039-3.4,12.082c-.905,3.218-1.791,6.442-2.725,9.652a8.365,8.365,0,0,1-.7,2.152c-3.925,0-7.814.009-11.7-.005a2.221,2.221,0,0,1-2.258-1.861,3.768,3.768,0,0,1-.08-.974q0-16.522,0-33.045v-.9H68.616v.533q0,16.975.008,33.949a10.78,10.78,0,0,0,.357,2.749,11.026,11.026,0,0,0,11.274,8.265c.219.008.437.024.656.024q8.3,0,16.607,0c.273,0,.546-.019.82-.029.189.041.287-.011.343-.223.33-1.261.675-2.518,1.022-3.774q2.645-9.583,5.293-19.165,1.585-5.732,3.172-11.463a8.805,8.805,0,0,1,.674-2,2.23,2.23,0,0,1,3.072-.707,2.936,2.936,0,0,1,1.125,1.731c1.281,4.859,2.586,9.711,3.879,14.566q1.446,5.432,2.881,10.868c.854,3.229,1.712,6.458,2.548,9.693.1.4.249.59.667.481,2.511.009,5.022.023,7.534.027q4.177.007,8.355-.008c.237,0,.554.186.718-.173a8.543,8.543,0,0,0,.374-1.5c1.2-4.968,2.284-9.961,3.428-14.941A5.659,5.659,0,0,1,144.034,28a2.441,2.441,0,0,1,2.088-1.362q6.413.008,12.826,0a1.982,1.982,0,0,1,1.522.674,4.7,4.7,0,0,1,1,2.035c.267.969.517,1.943.776,2.915q1.521,5.713,3.043,11.425c.252.941.522,1.877.785,2.823h9.207a2.225,2.225,0,0,0-.194-1.159q-2.588-9.182-5.082-18.39a11.23,11.23,0,0,0-11-8.489c-3.342-.069-6.687-.023-10.03-.005a2.365,2.365,0,0,1-1.541-.447,8.431,8.431,0,0,1-3.012-4.109c-1.069-3.566-2-7.172-3.029-10.752a10.62,10.62,0,0,0-.718-2.253h-9.56a.968.968,0,0,0,.018.681q1.645,5.848,3.284,11.7a7.22,7.22,0,0,0,1.953,3.266,9.031,9.031,0,0,0,4.229,2.2c.482.122.989.126,1.472.239-.055.223-.171.223-.269.263a10.95,10.95,0,0,0-6.762,7.6c-.8,3.021-1.439,6.083-2.19,9.117a10.777,10.777,0,0,1-.567,2.141h-2.654a3.277,3.277,0,0,1-.177-.41q-1.509-5.592-3.014-11.185c-.918-3.384-1.857-6.763-2.773-10.147-.732-2.7-1.407-5.421-2.173-8.114A10.83,10.83,0,0,0,113.929.448,6.024,6.024,0,0,1,112.32,0h65.616V67.425c-.085.023-.157.059-.164.161l-3.1-.123-.175-.049V62.657c.972-.117,1.9.06,2.856-.115V60h-2.912V55.28c-.911-.005-1.769-.032-2.71.023v4.68h-2.646l.813-1.351c-.161-.151-.3-.283-.44-.409a2.1,2.1,0,0,0-1.836-.692.654.654,0,0,1-.7-.216V55.25a21.04,21.04,0,0,0-2.487.1v2.2h-1.643a18.367,18.367,0,0,0,.062,2.47h3.184a17.785,17.785,0,0,1-3.847,3.642,6.858,6.858,0,0,1,1.191,2.555l1.114-.809v4.932h2.473v-5.24c.446.294.666.723,1.145.835a18.63,18.63,0,0,1,1.465-1.855A14.849,14.849,0,0,1,167.558,62l1.288-1.693c.21.792-.072,1.54.215,2.314h2.577a24.41,24.41,0,0,1-.048,4.839c-.614,0-1.241-.014-1.868,0a8.864,8.864,0,0,0-1.931.072v2.5h9.96l.185.019v.658H154.419c.034-.277.287-.374.45-.545a10.081,10.081,0,0,0,1.14-1.037,45.163,45.163,0,0,0-3.145-3.48c1.3-.046,2.464.023,3.655-.046,0-.448.016-.8,0-1.153s.112-.709-.1-1.021c-.888-.14-13.617-.108-14.233.041a15.319,15.319,0,0,0-.055,2.133c1.212.093,2.375-.051,3.615.094-.422.863-.682,1.661-1.114,2.386l-2.318.189a12.487,12.487,0,0,1,.766,2.438M15.127,57.4Q10.113,57.394,5.1,57.39c-.045,0-.091.055-.143.089v.4A17.361,17.361,0,0,0,4.976,60.3H15.459c0-.772.009-1.5,0-2.235a.658.658,0,0,0-.328-.659M61.76,1.022H52.835v45.5H61.76Zm39.918,64.846v4.484h2.386V64.66c.367.031.434.411.752.448.361-.264.363-.77.671-1.078a21.465,21.465,0,0,0,2.217.137,11.759,11.759,0,0,1-3.478,2.922,22.829,22.829,0,0,1,1.439,2.161,13.979,13.979,0,0,0,3.359-2.818v3.962a21.95,21.95,0,0,0,2.613-.051V66.656a12.682,12.682,0,0,0,2.727,2.593,16.413,16.413,0,0,1,1.457-2.2,10.715,10.715,0,0,1-3.195-2.951h2.282a14.464,14.464,0,0,0-.079-2.385h-3.168a5.719,5.719,0,0,1,.018-1.533c.872-.1,1.719.046,2.561-.092a14.664,14.664,0,0,0-.009-2.28c-.843-.117-1.689,0-2.553-.077-.141-.78.037-1.547-.118-2.3H109.01c0,.326,0,.621,0,.915,0,.383.025.769-.011,1.15-.031.334-.236.287-.432.159-.089-.359.274-.641.062-1.024l-2.11-.407a21.015,21.015,0,0,1-1.225,3.481c-.076-.65.041-1.223-.074-1.77a6.858,6.858,0,0,1-1.179-.129v-2.35h-2.41v2.384c-.618.142-1.2-.05-1.728.126V60.3c.587.143,1.165-.041,1.744.133a19.6,19.6,0,0,1-2.332,4.706c.581.7.813,1.559,1.325,2.3a16.382,16.382,0,0,1,1.039-1.575m56.314-49.611h9.424l4.942-15.4h-9.432l-4.934,15.4m-78.51,51a6.189,6.189,0,0,1,1.888,2.506,19.079,19.079,0,0,0,6.744-4.61,23.612,23.612,0,0,1,4.135,4.937l2.413-1.885a24.49,24.49,0,0,0-4.732-5.269c.888-1.506,1.843-2.87,2.538-4.359a14.642,14.642,0,0,0-1.427-1.654,1.016,1.016,0,0,0-.855-.36c-1.671.023-3.342.017-5.014.02-1.116,0-2.233,0-3.394,0-.048,1.029-.047,1.966-.007,2.928h2.315c.74,0,1.48-.017,2.219.005a9.916,9.916,0,0,1,2.2.086,16.166,16.166,0,0,1-9.023,7.654m-11.8-6.69H70.84a8.064,8.064,0,0,1-.789,1.759A8.828,8.828,0,0,1,66.2,66.114a16.566,16.566,0,0,1-3.391,1.148,2.559,2.559,0,0,0-.683.256A6.586,6.586,0,0,1,63.9,70.061a1.713,1.713,0,0,0,.414-.036c.717-.253,1.441-.492,2.142-.786a12.029,12.029,0,0,0,4.932-3.673,20.2,20.2,0,0,0,2.92-5.722.714.714,0,0,0-.206-.816,8.339,8.339,0,0,1-.764-.848.742.742,0,0,0-.7-.309c-.656.029-1.314.022-1.97.011a7.3,7.3,0,0,1-1.446-.048c.03-.532.413-.88.475-1.371a29.406,29.406,0,0,0-3.022-.741,13.4,13.4,0,0,1-5.342,7.231,6.681,6.681,0,0,1,1.942,2.056c2.031-.979,3.171-2.765,4.412-4.44m-42.3,9.756a12.486,12.486,0,0,0,10.608-9.07,10.986,10.986,0,0,0-1.574-1.415H27.643c-.739,0-1.479-.018-2.218.005a9.98,9.98,0,0,0-2.195.081c.007.859-.038,1.67.033,2.553h8.944a3.072,3.072,0,0,1-.153.387,8.766,8.766,0,0,1-5.748,4.256,11.036,11.036,0,0,0-2.139.541,4.545,4.545,0,0,1,1.217,2.661M144.832,62.3h8.434c.236-.179-.008-.489.286-.589a21.823,21.823,0,0,0,2.41,1.253,18.929,18.929,0,0,1,1.454-2.2,20.381,20.381,0,0,1-6.96-4.782l.3-.544-2.526-.687a20.194,20.194,0,0,1-6.782,5.846,10.281,10.281,0,0,1,1.629,2.122l1.573-1.005c.154.193.005.422.186.589m-22.925,1.682h2.23v3.06c-.974.365-2.01.251-2.984.57a16.722,16.722,0,0,0,.637,2.612l7.775-1.418V66.414l-2.646.316a24.589,24.589,0,0,1,.062-2.774h1.926V61.694h-7Zm-104.362,4.2V65.2c-.984-.147-13.926-.112-14.41.014v2.964Zm7.463-9.373a82.514,82.514,0,0,0,8.812-.069V56.282H25.009ZM45.4,60.262a15.437,15.437,0,0,0-2.348,1.324A19.98,19.98,0,0,1,44.91,64.7a19.43,19.43,0,0,0,2.345-1.336,12.114,12.114,0,0,0-1.86-3.1m1.172.277a26.952,26.952,0,0,1,1.69,3.282,26.307,26.307,0,0,1,2.4-1.278,21.266,21.266,0,0,0-1.771-3.2l-2.324,1.193" transform="translate(0.131 -0.011)" fill="#fdfdfd"/>
      <path id="パス_1451" data-name="パス 1451" d="M471.635,46.529c-.418.109-.565-.086-.667-.481-.836-3.234-1.694-6.463-2.548-9.693q-1.438-5.435-2.881-10.868c-1.293-4.855-2.6-9.708-3.879-14.566a2.936,2.936,0,0,0-1.125-1.731,2.23,2.23,0,0,0-3.072.707,8.805,8.805,0,0,0-.674,2q-1.58,5.733-3.172,11.463-2.649,9.582-5.293,19.165c-.347,1.256-.692,2.513-1.022,3.774-.056.212-.153.264-.343.223-.084-.208-.267-.148-.421-.149-.712,0-1.423,0-2.135,0q-7.391,0-14.781.008c-.247,0-.552-.163-.745.149A11.026,11.026,0,0,1,417.6,38.267a10.78,10.78,0,0,1-.357-2.749q-.018-16.975-.008-33.949V1.036H426.1v.9q0,16.522,0,33.045a3.762,3.762,0,0,0,.08.974,2.221,2.221,0,0,0,2.258,1.861c3.889.015,7.778.005,11.7.005a8.362,8.362,0,0,0,.7-2.152c.934-3.21,1.82-6.434,2.725-9.652q1.7-6.042,3.4-12.082c.577-2.04,1.113-4.094,1.765-6.111A10.942,10.942,0,0,1,457.163.177c.13-.031.277-.006.326-.177h3.453a6.02,6.02,0,0,0,1.609.448A10.831,10.831,0,0,1,470.12,8.26c.766,2.693,1.441,5.411,2.173,8.114.917,3.385,1.856,6.763,2.773,10.147q1.516,5.59,3.014,11.185a3.3,3.3,0,0,0,.177.41h2.654a10.765,10.765,0,0,0,.567-2.141c.751-3.034,1.394-6.1,2.19-9.117a10.95,10.95,0,0,1,6.762-7.6c.1-.04.214-.04.269-.263-.483-.112-.991-.116-1.472-.239A9.03,9.03,0,0,1,485,16.55a7.221,7.221,0,0,1-1.954-3.266q-1.636-5.851-3.284-11.7a.968.968,0,0,1-.018-.681h9.56a10.6,10.6,0,0,1,.718,2.253c1.025,3.579,1.959,7.186,3.028,10.751a8.431,8.431,0,0,0,3.012,4.109,2.365,2.365,0,0,0,1.541.447c3.343-.018,6.688-.064,10.03.005a11.231,11.231,0,0,1,11,8.489q2.5,9.206,5.082,18.39a2.224,2.224,0,0,1,.194,1.159H514.7c-.264-.946-.534-1.882-.785-2.823q-1.526-5.711-3.043-11.425c-.259-.972-.509-1.946-.776-2.915a4.7,4.7,0,0,0-1-2.035,1.983,1.983,0,0,0-1.522-.674q-6.413.008-12.826,0A2.441,2.441,0,0,0,492.657,28a5.66,5.66,0,0,0-.614,1.936c-1.144,4.98-2.231,9.973-3.428,14.941a8.547,8.547,0,0,1-.374,1.5q-7.929,0-15.858.008c-.247,0-.551-.162-.748.146" transform="translate(-348.492 -0.011)" fill="#237fc4"/>
      <path id="パス_1452" data-name="パス 1452" d="M12.334,0c.415.318.933.194,1.4.3a12.175,12.175,0,0,1,6.143,3.4,10.95,10.95,0,0,1,2.864,5.063c.473,1.841,1.071,3.65,1.635,5.466q2.322,7.473,4.663,14.94c.786,2.516,1.577,5.031,2.351,7.551A3.356,3.356,0,0,0,33.02,38.68a2.313,2.313,0,0,0,3.468-1.9c.013-.219,0-.438,0-.657V1.012H45.3a1.668,1.668,0,0,1,.066.762q0,17.468,0,34.935a11.011,11.011,0,0,1-9.107,10.839,12.565,12.565,0,0,1-9.806-2.411,11.735,11.735,0,0,1-3.852-4.7,20.532,20.532,0,0,1-.812-2.478q-2.319-7.648-4.616-15.3Q15.414,16.8,13.654,10.937a3.919,3.919,0,0,0-.508-1.11,2.345,2.345,0,0,0-2.53-.942A2.108,2.108,0,0,0,9,10.648,5.259,5.259,0,0,0,8.9,11.7q0,16.892,0,33.784v1.045H.167q0-17.553,0-35.106c0-.219,0-.439,0-.658A.23.23,0,0,0,0,10.525V9.867C.052,9.81.142,9.758.149,9.7A10.226,10.226,0,0,1,1.214,6.21,11.041,11.041,0,0,1,8.1.475,6.053,6.053,0,0,0,9.867,0Z" transform="translate(0.131 -0.011)" fill="#237fc4"/>
      <path id="パス_1453" data-name="パス 1453" d="M750.377,350.882a6.954,6.954,0,0,1-3.819-4.794,17.936,17.936,0,0,1-.635-3.857c-.035-.541-.114-1.079-.181-1.69h-7.821a23.958,23.958,0,0,1-.062-2.585c2.6-.065,5.137,0,7.7-.038.191-.8-.02-1.6.1-2.434h2.53l.243.83,1.035-1a9.71,9.71,0,0,1,2.212,1.849c.01.353-.393.406-.428.707.32.162.713-.057,1.071.218v2.384H748.6a.491.491,0,0,0-.177.534,19.278,19.278,0,0,0,.619,4.516,11.722,11.722,0,0,0,1.088,2.007c.033.053.137.062.249.11.266-.406.183-.906.415-1.35a8.442,8.442,0,0,0,2.4,1.082,5.07,5.07,0,0,1-1.665,3.514Z" transform="translate(-616.383 -280.179)" fill="#2681c4"/>
      <path id="パス_1454" data-name="パス 1454" d="M865.133,392.546a12.487,12.487,0,0,0-.766-2.438l2.318-.19c.432-.724.693-1.522,1.114-2.386-1.239-.146-2.4,0-3.615-.094a15.321,15.321,0,0,1,.055-2.133c.615-.149,13.344-.181,14.232-.041.216.312.083.678.1,1.021s0,.705,0,1.153c-1.191.069-2.355,0-3.655.046a45.148,45.148,0,0,1,3.145,3.48A10.1,10.1,0,0,1,876.93,392c-.163.171-.416.267-.45.545h-.329c-.093-.236-.328-.366-.446-.573-.345-.6-.8-.63-1.446-.5-1.268.259-2.559.424-3.848.563-1.264.137-2.523.34-3.8.355-.09,0-.135.074-.164.152Zm7.276-4.157c.207-.426.728-.464.876-.892h-2.854l-.981,2.265a20.781,20.781,0,0,0,3.879-.4l-.92-.977" transform="translate(-721.93 -321.843)" fill="#2882c5"/>
      <path id="パス_1455" data-name="パス 1455" d="M274.024,376.257a4.663,4.663,0,0,0-1.176-2.727c.546-.138,1.058-.256,1.562-.4a7.191,7.191,0,0,0,3.742-2.209,8.4,8.4,0,0,0,1.46-2.811c.188-.566.349-1.142.5-1.719a2.126,2.126,0,0,1,.308-.714l2.6.718c.033.114.07.17.059.213a15.788,15.788,0,0,1-2.255,5.556,10.134,10.134,0,0,1-4.769,3.439,7.159,7.159,0,0,0-1.708.651Z" transform="translate(-227.847 -305.554)" fill="#2681c4"/>
      <path id="パス_1456" data-name="パス 1456" d="M9.867,0A6.053,6.053,0,0,1,8.1.475,11.041,11.041,0,0,0,1.214,6.21,10.226,10.226,0,0,0,.149,9.7c-.007.062-.1.114-.149.171V0Z" transform="translate(0.131 -0.011)" fill="#fafcfc"/>
      <path id="パス_1457" data-name="パス 1457" d="M0,64a.23.23,0,0,1,.168.244c0,.219,0,.439,0,.658q0,17.553,0,35.106L0,100.015V64" transform="translate(0.131 -53.486)" fill="#579fd8"/>
      <path id="パス_1458" data-name="パス 1458" d="M878,424.235c.029-.078.074-.151.164-.152,1.276-.015,2.535-.219,3.8-.355,1.288-.14,2.579-.3,3.848-.563.644-.132,1.1-.1,1.446.5.119.207.354.337.446.572Z" transform="translate(-733.481 -353.532)" fill="#f3f9f9"/>
      <path id="パス_1459" data-name="パス 1459" d="M1080.895,410.161c.007-.1.079-.138.164-.161v2.631l-.185-.019Z" transform="translate(-902.992 -342.586)" fill="#aacde7"/>
      <rect id="長方形_1943" data-name="長方形 1943" width="8.925" height="45.496" transform="translate(52.966 1.011)" fill="#2480c4"/>
      <path id="パス_1460" data-name="パス 1460" d="M606.28,347.537a16.368,16.368,0,0,0-1.039,1.575c-.512-.746-.744-1.606-1.325-2.3a19.6,19.6,0,0,0,2.332-4.706c-.578-.175-1.157.01-1.744-.133V339.64c.527-.176,1.109.016,1.728-.125v-2.384h2.41v2.35a6.879,6.879,0,0,0,1.179.129c.115.546,0,1.12.074,1.77a21.028,21.028,0,0,0,1.225-3.481l2.109.407c.212.383-.151.665-.062,1.024.2.128.4.175.432-.159.036-.38.01-.766.01-1.15,0-.294,0-.588,0-.915h2.551c.155.748-.023,1.516.118,2.3.864.082,1.71-.039,2.553.077a14.654,14.654,0,0,1,.009,2.28c-.842.138-1.689,0-2.561.092a5.72,5.72,0,0,0-.017,1.533h3.168a14.468,14.468,0,0,1,.079,2.385h-2.282a10.711,10.711,0,0,0,3.195,2.95,16.392,16.392,0,0,0-1.457,2.2,12.683,12.683,0,0,1-2.727-2.593v3.688a21.948,21.948,0,0,1-2.613.051V348.1a13.986,13.986,0,0,1-3.359,2.818,22.839,22.839,0,0,0-1.439-2.161,11.76,11.76,0,0,0,3.478-2.922,21.423,21.423,0,0,1-2.217-.137c-.309.308-.311.814-.672,1.078-.318-.038-.385-.417-.752-.448v5.692H606.28Zm4.05-4.117a.717.717,0,0,0,.532-.009,24.012,24.012,0,0,0,2.718.068v-1.693c-1.215-.141-1.214-.141-1.649.853a2.986,2.986,0,0,1-.229.427c-.087.134-.238.1-.371.106-.512-.433-1.2-.463-1.751-.761-.141-.116.125-.25-.059-.383a2.317,2.317,0,0,0-.923.068c.015.82.213,1.108,1.5,2.207.145-.255.056-.531.082-.792l.148-.091" transform="translate(-504.471 -281.679)" fill="#2681c4"/>
      <path id="パス_1461" data-name="パス 1461" d="M960.728,20.637l4.934-15.4h9.433l-4.942,15.4Z" transform="translate(-802.605 -4.391)" fill="#e7330e"/>
      <path id="パス_1462" data-name="パス 1462" d="M1001.84,348.3l-.021,2.451h-9.96v-2.5a8.854,8.854,0,0,1,1.931-.072c.627-.018,1.254,0,1.868,0a24.4,24.4,0,0,0,.048-4.839H993.13c-.287-.773-.005-1.521-.215-2.314l-1.288,1.693a14.858,14.858,0,0,0,2.019,2.084,18.65,18.65,0,0,0-1.465,1.855c-.478-.112-.7-.541-1.145-.835v5.24h-2.473v-4.932l-1.114.809a6.858,6.858,0,0,0-1.191-2.555,17.789,17.789,0,0,0,3.847-3.642h-3.184a18.355,18.355,0,0,1-.062-2.47H988.5v-2.2a20.973,20.973,0,0,1,2.487-.1v2.064a.653.653,0,0,0,.7.216,2.1,2.1,0,0,1,1.836.692c.142.126.278.259.44.41l-.813,1.351H995.8v-4.68c.941-.055,1.8-.028,2.71-.023v4.723h2.912v2.538c-.953.176-1.883,0-2.855.115v4.756c.011.183.076.176.175.049l3.1.123" transform="translate(-823.938 -280.727)" fill="#2681c4"/>
      <path id="パス_1463" data-name="パス 1463" d="M483.323,354.666a16.166,16.166,0,0,0,9.023-7.654,9.917,9.917,0,0,0-2.2-.086c-.739-.022-1.479-.005-2.219-.005h-2.315c-.04-.963-.041-1.9.007-2.928,1.161,0,2.277,0,3.394,0,1.671,0,3.343,0,5.014-.02a1.016,1.016,0,0,1,.855.36,14.625,14.625,0,0,1,1.427,1.654c-.7,1.489-1.65,2.853-2.538,4.359a24.492,24.492,0,0,1,4.732,5.269L496.09,357.5a23.613,23.613,0,0,0-4.135-4.937,19.077,19.077,0,0,1-6.743,4.61,6.189,6.189,0,0,0-1.888-2.506" transform="translate(-403.709 -287.416)" fill="#2681c4"/>
      <path id="パス_1464" data-name="パス 1464" d="M379.284,343.692c-1.24,1.675-2.38,3.461-4.412,4.44a6.685,6.685,0,0,0-1.942-2.056,13.4,13.4,0,0,0,5.342-7.231,29.394,29.394,0,0,1,3.022.741c-.062.491-.445.839-.475,1.371a7.305,7.305,0,0,0,1.446.048c.657.01,1.315.018,1.97-.011a.741.741,0,0,1,.7.309,8.362,8.362,0,0,0,.764.848.714.714,0,0,1,.206.816,20.2,20.2,0,0,1-2.92,5.722,12.031,12.031,0,0,1-4.932,3.673c-.7.294-1.424.534-2.142.786a1.712,1.712,0,0,1-.414.036,6.585,6.585,0,0,0-1.772-2.544,2.559,2.559,0,0,1,.683-.256,16.565,16.565,0,0,0,3.391-1.148,8.827,8.827,0,0,0,3.853-3.784,8.059,8.059,0,0,0,.789-1.759Z" transform="translate(-311.47 -283.133)" fill="#2580c4"/>
      <path id="パス_1465" data-name="パス 1465" d="M143.375,374.294a4.546,4.546,0,0,0-1.217-2.661,11.05,11.05,0,0,1,2.139-.541,8.767,8.767,0,0,0,5.748-4.256,3.083,3.083,0,0,0,.153-.387h-8.944c-.072-.884-.026-1.694-.033-2.554a9.982,9.982,0,0,1,2.195-.081c.739-.023,1.479-.005,2.218-.005h6.775a10.98,10.98,0,0,1,1.574,1.415,12.486,12.486,0,0,1-10.608,9.07" transform="translate(-117.861 -303.978)" fill="#2681c4"/>
      <path id="パス_1466" data-name="パス 1466" d="M863.487,340.485c-.181-.167-.032-.4-.186-.589l-1.573,1.005a10.285,10.285,0,0,0-1.629-2.122,20.2,20.2,0,0,0,6.782-5.846l2.526.687-.3.544a20.38,20.38,0,0,0,6.96,4.782,18.923,18.923,0,0,0-1.454,2.2,21.847,21.847,0,0,1-2.41-1.253c-.294.1-.05.41-.286.589Zm4.282-4.455a13.221,13.221,0,0,0-2.2,2.267H870a26.059,26.059,0,0,1-2.232-2.267" transform="translate(-718.524 -278.194)" fill="#2580c3"/>
      <path id="パス_1467" data-name="パス 1467" d="M737.469,377.441V375.15h7v2.262h-1.926a24.588,24.588,0,0,0-.062,2.774l2.646-.316v2.395l-7.775,1.418a16.718,16.718,0,0,1-.637-2.612c.974-.32,2.009-.205,2.984-.57v-3.06Z" transform="translate(-615.431 -313.467)" fill="#2681c4"/>
      <path id="パス_1468" data-name="パス 1468" d="M33.48,398.982H19.07v-2.965c.483-.125,13.425-.16,14.41-.013Z" transform="translate(-15.803 -330.812)" fill="#2882c5"/>
      <path id="パス_1469" data-name="パス 1469" d="M40.147,349.049a.658.658,0,0,1,.328.659c.013.731,0,1.463,0,2.235H30a17.362,17.362,0,0,1-.019-2.414c.159-.4.51-.322.823-.322,2.868,0,5.735,0,8.6-.009.246,0,.55.163.744-.148" transform="translate(-24.889 -291.658)" fill="#2581c5"/>
      <path id="パス_1470" data-name="パス 1470" d="M152.073,344.77v-2.526h8.812V344.7a82.549,82.549,0,0,1-8.812.069" transform="translate(-126.934 -285.973)" fill="#2681c5"/>
      <path id="パス_1471" data-name="パス 1471" d="M264.117,366.445a12.112,12.112,0,0,1,1.86,3.1,19.426,19.426,0,0,1-2.345,1.336,20,20,0,0,0-1.862-3.111,15.444,15.444,0,0,1,2.348-1.324" transform="translate(-218.59 -306.194)" fill="#2882c4"/>
      <path id="パス_1472" data-name="パス 1472" d="M283.171,362.068l2.324-1.193a21.265,21.265,0,0,1,1.771,3.2,26.312,26.312,0,0,0-2.4,1.278,26.952,26.952,0,0,0-1.69-3.282" transform="translate(-236.472 -301.54)" fill="#2982c3"/>
      <path id="パス_1473" data-name="パス 1473" d="M488.013,281.983c.194-.312.5-.148.745-.149q7.391-.016,14.781-.008c.712,0,1.423,0,2.135,0,.154,0,.337-.059.421.149-.273.01-.546.029-.82.029q-8.3,0-16.607,0c-.219,0-.437-.016-.656-.024" transform="translate(-407.628 -235.462)" fill="#1f83b2"/>
      <path id="パス_1474" data-name="パス 1474" d="M748.02,281.98c.2-.308.5-.146.748-.146q7.929-.016,15.859-.008c-.164.359-.481.172-.718.173q-4.177.021-8.355.008c-2.511,0-5.022-.018-7.534-.027" transform="translate(-624.877 -235.462)" fill="#1f83b2"/>
      <path id="パス_1475" data-name="パス 1475" d="M40.313,348.989c-.193.311-.5.147-.744.148-2.868.013-5.735.007-8.6.009-.313,0-.665-.08-.823.322v-.4c.053-.034.1-.089.143-.089q5.013,0,10.027.012" transform="translate(-25.055 -291.598)" fill="#2082b2"/>
      <path id="パス_1476" data-name="パス 1476" d="M1061.287,409.978c-.1.127-.164.134-.175-.05l.175.05" transform="translate(-886.48 -342.526)" fill="#aacde7"/>
      <path id="パス_1477" data-name="パス 1477" d="M635.119,368.116c-.056.277-.359.069-.469.239a.718.718,0,0,1-.532.009c-.136-.11-.134,0-.148.091-.025.262.064.537-.082.792-1.29-1.1-1.488-1.387-1.5-2.207a2.316,2.316,0,0,1,.922-.068c.184.133-.082.267.059.382.553.3,1.239.327,1.751.761" transform="translate(-528.259 -306.624)" fill="#eef6f8"/>
      <path id="パス_1478" data-name="パス 1478" d="M642.021,375.361c.013-.088.012-.2.148-.091l-.148.091" transform="translate(-536.309 -313.529)" fill="#dcebf3"/>
    </g>
  </g>
</svg>
