<?xml version="1.0" encoding="utf-8"?>
<!-- Generator: Adobe Illustrator 28.1.0, SVG Export Plug-In . SVG Version: 6.00 Build 0)  -->
<svg version="1.1" id="レイヤー_1" xmlns="http://www.w3.org/2000/svg" xmlns:xlink="http://www.w3.org/1999/xlink" x="0px"
	 y="0px" viewBox="0 0 646.2 428.4" style="enable-background:new 0 0 646.2 428.4;" xml:space="preserve">
<style type="text/css">
	.st0{fill:none;stroke:#396CAE;stroke-width:2.0005;stroke-miterlimit:4.001;}
</style>
<path id="パス_1487" class="st0" d="M32.9,176.6l-0.1,2.2c0.1,0.4,0.4,0.8,0.8,1c0.4,0.3,1,0.4,1.5,0.3c0.6-0.1,1-0.5,1.2-1.1
	c7.8-15.3,14.1-28.7,19-40.2s8.4-19.9,10.7-25.3c2.3-5.4,4-9.7,5.4-12.9c3.3-7.8,7-15.4,11.1-22.8c-17.6,7.9-31.7,12.8-42.1,14.6
	s-18.1,2.5-22.9,2C12.5,94,9.3,93,7.5,91.6c-1.6-1.2-2.6-2.8-3.1-4.7c-0.3-1.7-0.5-3.4-0.7-5.1c-0.3-3.5,1.2-6.6,4.7-9.5
	c3.5-2.9,6.5-4.5,9-5c2.5-0.4,3.9-0.3,4,0.5c0.1,0.8-0.3,1.9-1.2,3.3c-0.9,1.5-1.3,2.4-1.2,2.9c0.4,2.2,8.5,1.9,24.2-0.9
	c15.8-2.8,33.5-8.1,53.3-15.9C106.7,45.6,116,39,124.5,37.5c5.7-1,9.7-0.1,12.1,2.8c1.5,1.5,2.5,3.4,2.9,5.4c0.3,1.9-0.4,4-2.3,6.3
	c-2.3,2.6-5,4.8-8.1,6.5c-7.4,4.1-15.1,7.5-23.1,10.1c-3,5.7-7.2,14.4-12.4,26.2c-5.3,11.8-8.9,19.7-10.8,23.9
	c-1.9,4.1-5,11.4-9.1,21.9s-7.7,19.5-10.7,27.1c-3,7.6-6.3,15.2-9.9,22.7c-7.3,15.5-14.8,24-22.5,25.3c-3,0.6-6,0.2-8.8-1.1
	c-2.6-1.3-4.3-3.9-5-7.7c-0.7-3.9,0.6-9.1,3.9-15.6c3.2-6.5,5.7-10.8,7.4-12.8c1.7-2,2.9-3,3.6-3.2
	C32.3,175.3,32.7,175.7,32.9,176.6z M230.2,33.9c3.6-0.6,7.4,0.2,11.3,2.7c3.9,2.4,6.2,5.5,6.8,9.1c0.7,3.7,0.6,8.6-0.2,14.9
	c-0.9,6.8-2.4,13.6-4.4,20.2c-2.3,7.8-5.1,15.4-8.4,22.8c-3.5,8-7.5,15.9-11.8,23.5c-4.4,7.8-9.4,15.3-15,22.4
	c-5.3,6.9-11.1,13.4-17.4,19.4c-13.2,12.5-26.8,19.9-41,22.5c-4.7,0.9-9.5,0.3-13.8-1.6c-3.7-1.6-7.1-3.6-10.3-6.1
	c-5.9-4.9-9.7-12.6-11.5-22.8c-1.8-10.3-0.6-23,3.8-38c4.7-15.7,11.7-30.6,20.9-44.2c9.4-14.2,20.9-26.8,34.2-37.3
	c13.2-10.5,26.4-16.9,39.6-19.2c2.6-0.5,5.2-0.3,7.7,0.4c2.5,0.8,3.9,1.9,4.2,3.4c0.3,1.3,0.1,2.7-0.5,4c-0.6,1.2-1.1,2.3-1.6,3.6
	c-0.3,1-0.8,1.9-1.3,2.7C224.3,35.1,227.2,34.3,230.2,33.9z M200.3,87.9c0.2,1.4-0.1,2.1-1.1,2.3c-1,0.2-3.2-1.1-6.8-3.9
	c-3.6-2.8-5.6-5.3-6-7.6c-0.9-5.3,1.5-11.9,7.4-19.8c5.7-7.7,12.8-14.3,20.9-19.4c-9.5,2.2-19.8,8.3-31.1,18.1
	c-11.1,9.6-20.7,20.8-28.4,33.3c-7.3,11.7-13,24.3-17.1,37.5c-3.8,12.6-5,22.6-3.8,29.8c0.6,4,2.3,7.8,5,10.9
	c2.5,2.8,6.2,3.8,10.9,3c4.7-0.8,10.2-3.5,16.3-7.9c6.4-4.7,12.2-10.2,17.3-16.4c18.6-22.4,32-45.9,40.3-70.7
	c3.3-10.2,4.7-17,4.1-20.6c-0.3-1.4-0.9-2.1-1.8-1.9c-2.8,0.5-6.4,3-10.9,7.5c-4.3,4.3-8.2,9.1-11.5,14.2c-3.2,5-4.6,8.5-4.3,10.4
	L200.3,87.9z M280.6,53.1c-2,2-2.8,4.1-2.4,6.1c0.4,2,2,2.8,5,2.2c1.7-0.4,3.3-1.1,4.8-2l0.1,0c0.3-0.1,0.6,0.6,0.9,2s0.3,2.3,0,2.6
	c-6.2,6.2-11.7,9.8-16.5,10.6c-4.9,0.9-8.6,0.1-11.3-2.2c-2.7-2.3-4.4-5.7-5.2-10.1c-0.8-4.4,0.8-9.5,4.8-15.3
	c4-5.8,9.7-11.5,17.1-17.2c7.5-5.6,17-10.9,28.6-15.8c12.9-5.2,26.4-9,40.2-11.3c15.1-2.7,28.3-2,39.5,2.2s17.5,9.9,18.8,17.5
	c1.3,7.5,0,15.7-3.9,24.4c-4,8.8-9.5,16.9-16.3,23.8c-7.1,7.3-15.2,13.7-24,18.9c-9,5.4-17.4,8.8-25,10.1s-14.1-0.7-19.5-6.1
	c-7.5,18.2-12.6,30.6-15.2,37.2c-2.6,6.6-4.9,12.2-6.7,16.7c-1.8,4.5-3.3,8.1-4.2,10.6s-1.5,3.9-1.6,4c-0.9,1.6-2.4,2.8-4.2,3.2
	l-4.9,1.8l-2.5,0.2l-1.7,0.3c-4,0.7-6.3-0.2-6.7-2.7c-0.6-3.2,4-16.5,13.8-39.8c9.8-23.3,19.1-44.6,28-63.8
	c8.9-19.2,14.2-30,15.8-32.5c1.6-2.5,3.1-4,4.6-4.7c2.4-0.9,4.8-1.5,7.3-1.9l5.1-0.9c0.9-0.2,1.5,0.5,1.7,1.9c0.3,1,0.3,2,0,3
	c-4.5,9.5-12.5,28-23.8,55.5c0.7,1,1.9,1.6,3.1,1.6c1.4,0,2.8-0.1,4.1-0.3l3-0.5c6.3-1.1,12.8-3.8,19.6-8.2
	c6.4-4,12.2-8.8,17.3-14.3c4.5-4.8,8.3-10,11.5-15.7c2.9-5.3,4.1-9.5,3.5-12.8c-0.5-3.2-2.2-6.1-4.6-8.3c-2.7-2.3-6-3.9-9.5-4.7
	c-7.5-1.7-16.2-1.7-26.1,0.1c-9.9,1.8-21.5,6.5-34.6,14.1C295.5,40.2,286.1,47,280.6,53.1z M173.2,337.4l1.5,3.7
	c0.3,1.6-0.2,3.7-1.5,6.3c-3.5,6.7-9.5,14.7-18.1,24.1s-15.2,14.5-20,15.3c-4.7,0.8-8.6,0.1-11.8-2.2c-3-2-5-5.2-5.7-8.8
	c-0.7-4.2,2-14.4,8.4-30.4c9.5-23.9,22.1-52,37.7-84.4c-3.6,5.3-13,19.5-28.4,42.6c-34,51.1-54,80.1-60,87.2c-1.3,1.3-3,2.1-4.8,2.3
	c-2.6,0.3-5.2-0.2-7.5-1.5c-2.8-1.4-4.4-3.2-4.8-5.4l-0.1-0.5c-0.2-2.9,3.9-18.1,12.3-45.6c8.5-27.5,15.7-49.4,21.9-65.9
	c-10.4,16.5-20.6,34.6-30.7,54.5c-19.2,37.6-32.5,69.1-40,94.5c-0.6,2.4-1.7,3.7-3.2,3.9c-2.2,0.3-4.5,0.3-6.8,0
	c-6.3-0.6-9.8-2.9-10.5-7c-0.4-2.5,3-12.1,10.4-29s16.1-35.5,26.2-55.8c10.1-20.3,20.8-40,32-59.1c15.5-26.4,26.1-40.1,31.7-41.1
	c0.9-0.2,1.8-0.1,2.7,0.2c0.5,0.2,1.1,0.4,1.7,0.4c0.2-0.1,0.4-0.2,0.6-0.4c0.7-1.2,2.4-2.1,5-2.6c2.6-0.5,5.3-0.4,8,0.2
	c2.7,0.6,4.1,1.5,4.4,2.8c0.1,0.8-2.1,7.9-6.8,21.4c-15.7,44.6-26.2,75.2-31.3,91.7c5.9-10.4,14.5-24.4,25.8-41.9
	s23.3-35.1,36.1-52.7c16.6-22.9,26.8-34.7,30.7-35.4c2-0.3,4.1-0.3,6.1,0c4.2,0.5,8.4,0.4,12.5-0.3c1.1,0,2.1,0.3,3.1,0.9
	c0.8,0.4,1.4,1.1,1.6,2c0.1,0.7,0,1.4-0.3,2c-17,33.4-31.1,62.8-42.3,88c-11.2,25.2-17.9,42.1-20.1,50.7
	c6.9-2.8,16.1-13.2,27.5-31.4c0.3-0.6,0.7-1.3,1-1.9c0.2-0.3,0.4-0.6,0.6-0.9c0.9-1.6,2-0.9,3.1,2.1c0.6,1.7,1,2.9,1.2,3.6
	c0.2,0.7,0.5,1.4,0.7,2.2C172.9,336.3,173.1,336.8,173.2,337.4z M242.1,285.1c0.8,4.6-0.5,9.3-3.4,12.9c-2.7,3.9-6.9,6.5-11.5,7.3
	c-1.5,0.3-2.6,0.1-3.2-0.6c-0.7-0.8-1.1-1.7-1.2-2.7c-0.2-1.1-0.3-2.3-0.2-3.5c-2.7,1.5-5.2,3.3-7.5,5.2c-3.4,3-6.7,6.1-9.7,9.5
	c-3.8,4.1-5.5,7-5.2,8.6c0.1,0.5,0.9,0.7,2.6,0.4c2.5-0.6,4.9-1.7,7.1-3c2.1-1.3,4.4-2.3,6.7-2.9c0.9-0.2,1.8-0.3,2.6-0.3
	c1.3,0.6,2.5,1.5,3.4,2.6c1,1,1.8,2.2,2.2,3.5c0.2,0.9-0.5,2.3-2,4.1c-1.5,1.8-3.4,3.3-5.4,4.5c-1.5,0.8-2.9,1.6-4.2,2.6
	c-13,10.6-19.2,17.4-18.7,20.4c0.9,5.3,6,7.2,15,5.6c5.8-1,11.3-3.9,16.5-8.6c4.2-3.7,8.1-7.7,11.8-12c3.4-3.9,5.6-6.4,6.5-7.3
	c0.6-0.7,1.3-1.2,2.2-1.6c1.8-0.3,3,1.5,3.7,5.5c0.7,4,0.9,6.6,0.7,8c-0.3,1.3-1.3,3.1-3.3,5.4c-12.5,14.5-25.3,22.9-38.3,25.2
	c-7,1.2-12.7,1.3-17.2,0.1c-8.3-2.1-13-6.8-14.3-14c-1.7-9.4,3.6-17.7,15.8-24.9c-2.8-0.7-4.7-1.9-5.8-3.6c-1.1-1.7-2-4.5-2.7-8.5
	c-0.7-4,0.4-8.6,3.3-13.7c3-5.2,7-9.8,11.7-13.4c10.9-8.6,21-13.7,30.4-15.4c2.4-0.4,4.8-0.2,7.2,0.4
	C240.3,281.8,241.8,283.2,242.1,285.1L242.1,285.1z M259.4,340l0.2,1.7c0.3,1.7,1.3,3.2,2.7,4.1c1.1,0.9,2.5,1.3,3.9,1.2
	c7.4-1.2,14.6-3.7,21.1-7.5c5.9-3.6,8.6-6.6,8.2-9c-0.2-1.2-1.5-2-4-2.4c-4-0.6-8.1-1-12.1-1.1c-5.7-0.3-9.8-0.6-12.4-0.9
	c-2.1-0.2-4.1-0.5-6.2-1c-1.7-0.4-3.3-1-4.9-1.8c-3.6-1.7-5.8-4.8-6.6-9.2s0.1-9.2,2.6-14.2c2.6-5.1,6.2-9.7,10.4-13.5
	c4.6-4.1,9.4-7.8,14.6-11.1c10.5-6.7,19.6-10.8,27.3-12.1c7.6-1.3,12.5-0.5,14.9,2.4c0.8,1.1,1.3,2.4,1.5,3.7l0.1,0.7
	c0.6,3.6,0.4,6.6-0.8,8.9c-1.5,2.7-3.7,5.1-6.3,6.8c-3,2.2-5.5,3.5-7.5,3.9c-1.2,0.3-2.5,0.4-3.8,0.2c-0.5-0.2-1-0.5-1.5-0.8
	c-0.4-0.4-0.9-0.6-1.5-0.7c-0.5-0.1-0.9-0.6-1-1.4c-0.1-0.9,0.1-1.9,0.6-2.7c0.5-0.9,0.8-1.9,1-3c-4.8,1.1-9.4,3-13.6,5.6
	c-4.1,2.4-8,5.3-11.5,8.5c-2.7,2.5-5.3,5.3-7.6,8.2c-1.9,2.5-2.8,4.3-2.7,5.3c0.2,1,1.9,1.5,5.1,1.6c14.6,0.3,24.3,1.1,29.1,2.4
	s8.3,3,10.5,5.3c1.9,1.8,3.2,4.1,3.8,6.6c0.8,4.4-0.2,8.8-3,13.3c-2.9,4.6-6.7,8.7-11.2,11.8c-10,7.3-19.1,11.7-27.3,13.2
	c-8.2,1.4-14,1.2-17.6-0.8c-3.5-1.9-5.6-4.6-6.2-8c-0.6-3.3-0.3-6.8,0.9-9.9c1.2-3.2,3.2-5.1,5.9-5.5
	C257.7,338.1,259.2,338.5,259.4,340L259.4,340z M336.6,326.3l0.2,1.7c0.3,1.7,1.3,3.2,2.7,4.1c1.1,0.9,2.5,1.3,3.9,1.2
	c7.4-1.2,14.6-3.7,21.1-7.5c5.9-3.6,8.6-6.6,8.2-9c-0.2-1.2-1.5-2-4-2.4c-4-0.6-8.1-1-12.1-1.1c-5.7-0.3-9.8-0.6-12.4-0.9
	c-2.1-0.2-4.1-0.5-6.2-1c-1.7-0.4-3.3-1-4.9-1.8c-3.6-1.7-5.8-4.8-6.6-9.2c-0.8-4.5,0.1-9.2,2.6-14.2c2.6-5.1,6.2-9.7,10.4-13.5
	c4.6-4.1,9.4-7.8,14.6-11.1c10.5-6.7,19.6-10.8,27.3-12.1c7.6-1.3,12.5-0.5,14.9,2.4c0.8,1.1,1.3,2.4,1.5,3.7l0.1,0.7
	c0.6,3.6,0.4,6.6-0.8,8.9c-1.5,2.7-3.7,5.1-6.3,6.8c-3,2.2-5.5,3.5-7.5,3.9c-1.2,0.3-2.5,0.4-3.8,0.2c-0.5-0.2-1-0.5-1.5-0.8
	c-0.4-0.4-0.9-0.6-1.5-0.7c-0.5-0.1-0.9-0.6-1-1.4c-0.1-0.9,0.1-1.9,0.6-2.7c0.5-0.9,0.8-1.9,1-3c-4.8,1.1-9.4,3-13.6,5.6
	c-4.1,2.4-8,5.3-11.5,8.5c-2.7,2.5-5.3,5.3-7.6,8.2c-1.9,2.5-2.8,4.3-2.7,5.3c0.2,1,1.9,1.5,5.1,1.6c14.6,0.3,24.3,1.1,29.1,2.4
	c4.8,1.3,8.3,3,10.5,5.3c1.9,1.8,3.2,4.1,3.8,6.6c0.8,4.4-0.2,8.8-3,13.3c-2.9,4.6-6.7,8.7-11.2,11.8c-10,7.3-19.1,11.7-27.3,13.2
	c-8.2,1.4-14,1.2-17.6-0.8c-3.5-1.9-5.6-4.6-6.2-8c-0.6-3.3-0.3-6.8,0.9-9.9c1.2-3.2,3.2-5.1,5.9-5.5
	C334.8,324.4,336.3,324.9,336.6,326.3L336.6,326.3z M470.5,243.5c5.2-0.9,8.1,0.4,8.7,4c0.4,1.5,0.2,3.1-0.6,4.4
	c-0.7,1-2.1,4.3-4.1,9.9s-4.1,12.5-6.2,21c-2.1,8.4-3.2,15.5-3.3,21.2c-0.1,1,0,2,0.2,2.9c0.7,3.8,2,5.5,4.1,5.1
	c2-0.4,4.3-1.8,6.8-4.2c2.4-2.3,4.5-4.9,6.4-7.6c1.8-2.6,3.5-5.3,5.2-7.9c1.7-2.7,2.7-4.2,3-4.7c0.5-0.5,1.1-0.8,1.8-0.8
	c1.3-0.2,2.3,0.6,2.9,2.6c0.6,2,1.1,4,1.5,6.1c0.4,1.5,0.4,3,0.2,4.5c-1.3,4.2-4.8,9.7-10.6,16.3c-5.8,6.7-11.4,10.5-16.9,11.4
	c-5.5,1-9.8,0-13-2.9c-3.1-2.7-5.2-6.4-5.9-10.4c-0.7-3.7-0.7-7.4,0.2-11.1c-4.2,8.2-9.7,15.7-16.2,22.2c-6.4,6.4-12,10-16.6,10.9
	c-4.2,0.9-8.5,0.1-12.1-2.2c-4.4-2.8-7.1-7.3-8.2-13.5c-1.1-6.4-0.8-13.1,0.9-19.4c1.6-6.7,4.3-13.1,7.9-19
	c3.6-5.9,7.7-11.5,12.4-16.7c9.8-10.9,19.4-17.2,29-18.9c3.1-0.7,6.3-0.6,9.3,0.3c2.2,0.5,4,1.9,5.2,3.8c1.2-2.7,2.3-4.5,3.3-5.4
	C467,244.4,468.7,243.7,470.5,243.5z M458.9,257.3c-11.7,2.1-22.6,10.7-32.8,25.9c-3.8,5.9-7,12.2-9.3,18.9
	c-2.6,7.1-3.7,11.9-3.2,14.3c0.4,2.4,1.3,3.5,2.7,3.2c1.9-0.3,6.6-5.1,14-14.1c7.4-9.1,12.2-15.7,14.5-19.7
	C447.1,281.2,451.8,271.7,458.9,257.3z M511.3,246.5c5.3-5.3,11.2-10,17.6-14c5.9-3.6,11.2-5.8,15.8-6.6s7.9,0,9.6,2.4
	c1.9-3.4,5.2-5.8,9.1-6.7c1.1-0.3,2.6-0.6,4.3-0.9c1.7-0.3,2.8-0.3,3.3,0.1c0.7,0.6,1.2,1.4,1.6,2.3c0.6,1.2,0.9,1.8,1,1.9
	c0.1,0.2,0.2,0.4,0.2,0.6c0,0.4-0.1,0.9-0.3,1.2c-0.3,0.5-0.6,1-1,1.5c-0.4,0.5-0.6,0.8-0.6,0.9c-11.3,24.3-22.3,51.7-33.2,82.2
	c13.7-17.3,26.4-30.2,38.2-38.7c0.7-0.5,1.4-0.9,2.2-1c1.1-0.2,1.9,0.4,2.5,1.7c0.7,1.9,1.3,3.9,1.6,5.9c0.5,2.6,0.6,4.2,0.4,4.9
	c-0.2,0.7-1.6,2.2-4.1,4.5c-2.5,2.4-5.8,5.4-9.9,9.1c-4.1,3.7-8.3,7.8-12.8,12.3c-10.8,10.7-19.3,21.5-25.6,32.3
	c-8.1,14.2-13.6,25.4-16.7,33.8c-1.1,3.2-3.6,5.2-7.5,5.9c-7.7,1.4-12.2-1.6-13.5-8.9c-1.3-7.4,1-15.7,6.9-24.8
	c3.8-5.9,8-11.6,12.5-16.9c3.9-4.5,6-7,6.4-7.6c3.7-8.5,8.7-20.4,14.9-35.9c-5.2,8.1-11.3,15.5-18.2,22.2c-6.1,5.8-10.9,9-14.3,9.6
	c-10.4,1.8-16.5-1.7-18-10.7c-1.2-7.5-0.7-15.2,1.6-22.5c2.3-7.8,5.9-15.2,10.5-21.9C500.3,258.4,505.6,252.1,511.3,246.5
	L511.3,246.5z M549.9,236.9c-7.5,3.1-14.6,7.2-20.8,12.4c-5.7,4.5-10.7,9.8-15,15.6c-3.6,5-6.6,10.3-9.2,15.8
	c-4.6,9.9-6.5,17.3-5.6,22.1c0.2,1.2,0.6,1.7,1.2,1.6c0.6-0.1,1.8-0.9,3.6-2.5c2.6-2.5,5.1-5.1,7.4-7.8c3.2-3.6,6.6-7.9,10.4-12.8
	C530.6,269.9,539.9,255.1,549.9,236.9L549.9,236.9z M636.2,215.5c0.8,4.6-0.5,9.3-3.4,12.9c-2.7,3.9-6.9,6.5-11.5,7.3
	c-1.5,0.3-2.6,0.1-3.2-0.6c-0.7-0.8-1.1-1.7-1.2-2.7c-0.2-1.1-0.3-2.3-0.2-3.5c-2.7,1.5-5.2,3.3-7.5,5.2c-3.4,3-6.7,6.1-9.7,9.5
	c-3.8,4.1-5.5,7-5.2,8.6c0.1,0.5,0.9,0.7,2.6,0.4c2.5-0.6,4.9-1.7,7.1-3c2.1-1.3,4.4-2.3,6.7-2.9c0.9-0.2,1.8-0.3,2.6-0.3
	c1.3,0.6,2.5,1.5,3.4,2.6c1,1,1.8,2.2,2.2,3.5c0.2,0.9-0.5,2.3-2,4.1c-1.5,1.8-3.4,3.3-5.4,4.5c-1.5,0.8-2.9,1.6-4.2,2.6
	c-13,10.6-19.2,17.4-18.7,20.4c0.9,5.3,6,7.2,15,5.6c5.8-1,11.3-3.9,16.5-8.6c4.2-3.7,8.1-7.7,11.8-12c3.4-3.9,5.6-6.4,6.5-7.3
	c0.6-0.7,1.3-1.2,2.2-1.6c1.8-0.3,3,1.5,3.7,5.5c0.7,4,0.9,6.6,0.7,8c-0.3,1.3-1.3,3.1-3.3,5.4c-12.5,14.5-25.3,22.9-38.3,25.2
	c-7,1.2-12.7,1.3-17.2,0.1c-8.3-2.1-13-6.8-14.3-14c-1.7-9.4,3.6-17.7,15.8-24.9c-2.8-0.7-4.7-1.9-5.8-3.6c-1.1-1.7-2-4.5-2.7-8.5
	c-0.7-4,0.4-8.6,3.3-13.7c3-5.2,7-9.8,11.7-13.4c10.9-8.6,21-13.7,30.4-15.4c2.4-0.4,4.8-0.2,7.2,0.4
	C634.5,212.2,635.9,213.5,636.2,215.5L636.2,215.5z"/>
</svg>
