<svg xmlns="http://www.w3.org/2000/svg" viewBox="0 0 86.1 111.52"><defs><style>.cls-1{fill:#e4007f;}</style></defs><g id="レイヤー_2" data-name="レイヤー 2"><g id="レイヤー_1-2" data-name="レイヤー 1"><path class="cls-1" d="M14.44,29.53a24.53,24.53,0,0,0,.6-5.59l1,0c.4.09.41.23,0,.43a30.63,30.63,0,0,1-.68,5.1.54.54,0,0,0,0,.36.5.5,0,0,0,.39.22,30.29,30.29,0,0,1,5.5.61l-.18,1.14a35.23,35.23,0,0,0-5.4-.79,1.56,1.56,0,0,1-1.16-.44,1.31,1.31,0,0,1-.17-1.06"/><path class="cls-1" d="M35.46,24.32a1.94,1.94,0,0,0,.17-1.53,2.16,2.16,0,0,0-1-1.39,2.54,2.54,0,0,0-1.94-.11,3.93,3.93,0,0,0-2.09,1.14,12.2,12.2,0,0,0-1.44,2.38l-.92-.47a58.41,58.41,0,0,0,3.43-6.47c-.93.36-1.87.71-2.81,1L28.33,18a31.66,31.66,0,0,0,3.76-1.2l.34-.27.61.35c.39.21.37.42-.07.63-.62,1.21-1.25,2.42-1.88,3.6a7.64,7.64,0,0,1,1.48-.61,3.46,3.46,0,0,1,2.65.16,2.82,2.82,0,0,1,1.3,1.81,2.72,2.72,0,0,1-.19,2.15,3.75,3.75,0,0,1-2.4,1.74,3.19,3.19,0,0,1-2.41-.13A1.93,1.93,0,0,1,30.6,25a1.28,1.28,0,0,1,.16-1,1.43,1.43,0,0,1,.89-.7,1.86,1.86,0,0,1,1.45.19,3.57,3.57,0,0,1,1.33,1.71,2.05,2.05,0,0,0,1-.87m-2.79-.17A.93.93,0,0,0,32,24a.73.73,0,0,0-.48.31.67.67,0,0,0-.1.54,1.09,1.09,0,0,0,.54.65,1.58,1.58,0,0,0,1.25.15l.39-.1a2.73,2.73,0,0,0-.91-1.4"/><path class="cls-1" d="M52,26l-.83-.7a6.32,6.32,0,0,0,2.41-2.86,15.08,15.08,0,0,0-3-1.39,16.39,16.39,0,0,1-2.15,2.68,1.74,1.74,0,0,1-1.35.3,1.24,1.24,0,0,1-.82-.52A1.64,1.64,0,0,1,46,22.27a2.65,2.65,0,0,1,1.23-1.66,3.62,3.62,0,0,1,2.8-.49c.53-.85,1-1.65,1.46-2.39-.87.05-1.73.09-2.59.11l-.24-1a28.06,28.06,0,0,0,2.89,0l.58-.12.64.72q.4.34-.12.39A24.77,24.77,0,0,0,51,20.33a16.56,16.56,0,0,1,2.89,1.27A24.17,24.17,0,0,0,54.37,19l.81.34c.32.12.33.24,0,.37a24,24,0,0,1-.54,2.38,17.17,17.17,0,0,1,1.79,1.25l-.61.81c-.55-.47-1.06-.87-1.52-1.2A7.57,7.57,0,0,1,52,26m-4.11-4.81a2,2,0,0,0-1,1.2.61.61,0,0,0,.09.48.56.56,0,0,0,.38.21.88.88,0,0,0,.8-.36c.23-.23.71-.85,1.45-1.84a2.27,2.27,0,0,0-1.76.31"/><path class="cls-1" d="M68.76,28.9a2.32,2.32,0,0,0-2.37-.06,14.27,14.27,0,0,0-2,1.08l-.51-1.05a84.49,84.49,0,0,0,8.44-4l.48,1c0,.3-.06.37-.32.21-1.07.38-2.43,1-4.1,1.75a3.71,3.71,0,0,1,1.28.55,1.17,1.17,0,0,1,.5.76,2.14,2.14,0,0,1-.43,1.26L68.9,32a.66.66,0,0,0,.23.91,1.36,1.36,0,0,0,1,.26,6.84,6.84,0,0,0,3.11-1.92l.5,1a7.29,7.29,0,0,1-3.14,1.89,2.79,2.79,0,0,1-2.17-.48,1.52,1.52,0,0,1-.42-2.16l.9-1.75a.6.6,0,0,0-.19-.82"/><path class="cls-1" d="M78.23,35.2l-3.4-.81L78,33l-.34-3.48L80,32.26l3.24-1.38-1.86,3,2.32,2.7-3.38-.87-1.83,3Zm-1.26-1,1.88.49.17,1.9,1-1.6,1.82.48L80.61,34l.94-1.61L79.81,33l-1.28-1.49.21,1.87Z"/><path class="cls-1" d="M14.6,11.21A2.9,2.9,0,0,1,14.31,9a1.93,1.93,0,0,1,1-1.14A2.12,2.12,0,0,1,17,7.67a2,2,0,0,1,1.17,1,2.92,2.92,0,0,1,.22,2c-.15.64-.33,1.28-.52,1.91-.1.35-.2.7-.29,1a4.22,4.22,0,0,0-.17.89l3-1.49.38.77-4.14,2-.34-.69a3.43,3.43,0,0,1,.13-1.47q.48-1.59.78-2.64a2.46,2.46,0,0,0-.07-1.88,1.21,1.21,0,0,0-.72-.65.89.89,0,0,0-.73.05.93.93,0,0,0-.45.52,2.16,2.16,0,0,0,.25,1.64Z"/><path class="cls-1" d="M20.06,9.45a3.92,3.92,0,0,1-.15-3,2.1,2.1,0,0,1,1.26-1.14,2.13,2.13,0,0,1,1.7,0,4,4,0,0,1,1.85,2.4l.31.85a3.86,3.86,0,0,1,.14,3,2.29,2.29,0,0,1-3,1.1,3.91,3.91,0,0,1-1.84-2.36Zm.77-2.74A3.14,3.14,0,0,0,21.05,9l.36,1a3,3,0,0,0,1.36,1.85,1.06,1.06,0,0,0,.84.08,1.14,1.14,0,0,0,.64-.62A3.14,3.14,0,0,0,24,9l-.36-1a3.07,3.07,0,0,0-1.32-1.87,1.13,1.13,0,0,0-.88-.06,1.08,1.08,0,0,0-.64.62"/><path class="cls-1" d="M27.44,3.33,28,3.19l2,7.57-1,.26L27.42,5.2l-1.32.34L26,5l.39-.1a1.36,1.36,0,0,0,.87-.6,1.39,1.39,0,0,0,.21-1"/><path class="cls-1" d="M32.18,2.84a1.84,1.84,0,0,1,1.27-.69,1.91,1.91,0,0,1,1.47.37,4.56,4.56,0,0,1,1.44,3.11,4.72,4.72,0,0,1-.47,3.5,2,2,0,0,1-1.38.85A1.79,1.79,0,0,1,33.1,9.7a2.1,2.1,0,0,1-.82-1.43l1-.16a1.22,1.22,0,0,0,.51.93.71.71,0,0,0,.56.09,1,1,0,0,0,.67-.42A3.8,3.8,0,0,0,35.36,6a3.08,3.08,0,0,1-.33.55,1.68,1.68,0,0,1-1.13.68,1.52,1.52,0,0,1-1.18-.28,2.59,2.59,0,0,1-1-1.81,2.94,2.94,0,0,1,.47-2.27m.8.48A2.18,2.18,0,0,0,32.78,5a1.73,1.73,0,0,0,.55,1.19.9.9,0,0,0,.67.22A1.13,1.13,0,0,0,34.76,6a1.67,1.67,0,0,0,.31-1.28,2.27,2.27,0,0,0-.74-1.54,1,1,0,0,0-.76-.2.9.9,0,0,0-.59.37"/><path class="cls-1" d="M39.43,4.71l-.62-.82A6.82,6.82,0,0,0,41.41,0l1,.29c.12.12.07.2-.14.22l-.38.9,6.37.1v.86L45,2.32l0,1.53,2.71,0,0,.86-2.71,0,0,2,3.79.07v.85L44.9,7.6l0,2.71H44l0-2.71L38.8,7.5V6.65l2,0,0-2.89,3.16,0,0-1.54-2.49,0a8.4,8.4,0,0,1-2.16,2.45m2.32,2,2.26,0,0-2-2.26,0Z"/><path class="cls-1" d="M53.7,7.58,53,11l-.75-.15.07-.31L50.8,10.2l-.1.49L50,10.53,50.7,7Zm-2.4.24L51,9.5l1.5.31.35-1.68Zm-.09-2.47,2.66.56-.18.84L51,6.19Zm.09-3.26,3.8.8-.18.84-3.8-.8Zm.23,1.76,2.65.55L54,5.24l-2.66-.55ZM52.18.71l2.66.55-.18.84L52,1.55Zm1.29,9.77a12,12,0,0,0,.92-2.43l.87.27c.05,0,0,.11-.14.2a8.42,8.42,0,0,1-.9,2.35ZM54.35,6a2.81,2.81,0,0,0,2.44-1.29L55.7,4l.47-.69,1,.62.31-1L55.6,2.48l.17-.84,5.31,1.11L60.2,6.54c-.18.73-.57,1-1.16.91l-1-.22.09-.85.93.19a.24.24,0,0,0,.32-.21l.71-2.94-1.73-.36-.43,1.38.94.8L58.29,6l-.78-.67a3.62,3.62,0,0,1-3,1.69Zm2.12,2c.23.08.23.17,0,.27L56,10.37c-.05.21,0,.33.2.37l1,.2a.29.29,0,0,0,.37-.2l.23-.69.84.41-.37.89a.76.76,0,0,1-.93.5l-1.68-.36a.69.69,0,0,1-.59-1l.56-2.7Zm.72-1.24a4.64,4.64,0,0,1,1,1.63l-.95.32a6.23,6.23,0,0,0-.76-1.64Zm1.86,4.82a6.51,6.51,0,0,0-.63-2.53l.87-.19a6,6,0,0,1,.77,2.52Z"/><path class="cls-1" d="M60.69,12.11A4.61,4.61,0,0,0,64.4,9l.89.58c0,.11,0,.18-.19.21l-.86,1.4a6,6,0,0,0,1.07,2l1.73-4L64.22,7.93l.34-.79,6.27,2.7-.34.79L67.87,9.5,67.21,11l2.9,1.25-.34.79-2.9-1.26-.86,2a5.46,5.46,0,0,0,1.17.71l2.74,1.18-.5.71-2.58-1.1a5.47,5.47,0,0,1-3.18-3.45A5,5,0,0,1,61,13.18ZM69,6.7l3.82,1.65-.95,2.2-.83-.36.61-1.41-6.89-3L64.15,7.3l-.83-.36,1-2.28,3.78,1.63.52-1.2.91.39c.25.18.22.29-.1.35Z"/><path class="cls-1" d="M4.67,78.92l.54-.23L7,82.85l.13.08-.31.77-.15-.13a12,12,0,0,1-2.16-1.23l-.66.28,1.23,2.85-.62.27L3.24,82.89,1,83.85a.43.43,0,0,1-.65-.26L0,82.77l.57-.42L.85,83a.11.11,0,0,0,.16.06L3,82.23,1.68,79.3,2.31,79,3.58,82l1.28-.55L5,82a7,7,0,0,0,1.28.7Z"/><path class="cls-1" d="M4.27,91.18l-.36-.5L7.1,88.37l2.73,3.78-2.74,2a.38.38,0,0,1-.61-.1L6,93.4,6.45,93l.33.46a.11.11,0,0,0,.17,0l.48-.34-2-2.77Zm3.56,1.65.43-.31-2-2.77-.43.31Zm-.77-3.66-.4.29,2,2.77.4-.29Zm3.51-.08,1.8,2.49-.48.35-2.18-3h-1c.49.62.95,1.2,1.38,1.76,0-.26-.06-.51-.08-.75l.53.2a9.14,9.14,0,0,1,.17,2.36l-.62-.12c0-.31,0-.61,0-.91q-1.63-2-2.92-3.52c-.15,0-.19-.06-.14-.13l.42-.53c.27.37.54.73.83,1.09h1L7.91,86.41l.48-.34,1.76,2.44.63-.46.4.56c.09.19,0,.25-.18.17Z"/><path class="cls-1" d="M17.79,97.85a5.4,5.4,0,0,0-1.41-1,3.36,3.36,0,0,0-1.51-.24,2.07,2.07,0,0,0-1.46.73,1.62,1.62,0,0,0-.47,1.21,3.54,3.54,0,0,0,1.31,2.11l-.65.34a3.87,3.87,0,0,1-1.34-2.31,2.4,2.4,0,0,1,.65-1.77A2.65,2.65,0,0,1,15.3,96l-2.5-1.69.35-.65a60.41,60.41,0,0,0,5,3.56Z"/><path class="cls-1" d="M23.44,102.32l1.58.93-.35.58-1.55-.91-.3.51a3.44,3.44,0,0,1-3.8,1.63l-.14-.74a2.75,2.75,0,0,0,3.29-1.2l.33-.56-1.76-1L20,102.9l-.59-.34.78-1.38-1.5-.88.34-.59,1.5.88.81-1.44.56.33c.17.13.13.22-.13.29l-.65,1.16,1.74,1,1-1.64.59.35c.17.12.13.21-.13.28Z"/><path class="cls-1" d="M28.83,106.15c.09.13,0,.19-.18.17A17,17,0,0,1,26.88,108l-.54-.56a13.74,13.74,0,0,0,1.95-1.86ZM30.91,105l2.73.85-.21.66-2.72-.86-1.29,4.12-.69-.21,1.3-4.12-2.67-.84.2-.65,2.67.83.52-1.65.62.19c.21.11.2.19,0,.26Zm1,1.72a10.75,10.75,0,0,1,1,2.58l-.79.24a10.61,10.61,0,0,0-.87-2.52Zm1-1.77a.84.84,0,0,1,0-.66.86.86,0,0,1,.43-.52.79.79,0,0,1,.66,0,.84.84,0,0,1,.57,1.09.8.8,0,0,1-.42.51.89.89,0,0,1-1.19-.37m1.05.1a.55.55,0,0,0,.27-.34.53.53,0,0,0,0-.43.55.55,0,0,0-.34-.27.53.53,0,0,0-.43,0,.55.55,0,0,0-.27.34.57.57,0,0,0,.8.67"/><rect class="cls-1" x="39.41" y="104.88" width="0.68" height="6.93" transform="translate(-71.44 139.26) rotate(-85.39)"/><path class="cls-1" d="M50.61,108.28l-.28.75a15,15,0,0,0-2.82-.8l.38,3.21-.71.08-.72-6.17.61-.07c.25,0,.29.07.13.24l.22,1.94a18.72,18.72,0,0,1,3.19.82"/><path class="cls-1" d="M56.89,109.7a1.73,1.73,0,0,1-2.57-1.38l-1.23-4,.63-.19c.19,0,.23,0,.13.22L55,108.11a1.53,1.53,0,0,0,.58.92,1.41,1.41,0,0,0,1.08,0,3.46,3.46,0,0,0,1.94-2l.62.42a3.88,3.88,0,0,1-2.33,2.25"/><path class="cls-1" d="M66,99.83a5.14,5.14,0,0,0-1.39,1,3.49,3.49,0,0,0-.71,1.35,2.09,2.09,0,0,0,.22,1.62,1.66,1.66,0,0,0,1,.83,3.64,3.64,0,0,0,2.42-.56l.11.72a3.84,3.84,0,0,1-2.61.52,2.33,2.33,0,0,1-1.47-1.17,2.7,2.7,0,0,1-.11-2.57l-2.4,1.83-.51-.53a61.34,61.34,0,0,0,5-3.62Z"/><path class="cls-1" d="M73,99.93a1.15,1.15,0,0,1-.3,1,1.2,1.2,0,0,1-1.45.09,7.12,7.12,0,0,1-1.67-1.55,23.72,23.72,0,0,1-1.58-2l.59-.32c.22-.11.3,0,.23.22.45.62.88,1.17,1.29,1.63a7.23,7.23,0,0,0,1.31,1.25c.31.19.55.22.7.08a.71.71,0,0,0,.11-.76,7.78,7.78,0,0,0-.26-.77l.75-.08a3.83,3.83,0,0,1,.28,1.2m2.3-3.63-.48.72a6.39,6.39,0,0,0-3.39-1.52l.24-.71a6.31,6.31,0,0,1,3.63,1.51"/><path class="cls-1" d="M79.71,90.8a10.83,10.83,0,0,1,2.16-1.51l.35.68a7.6,7.6,0,0,0-2,1.18,1.39,1.39,0,0,1,.34,2.23,1.41,1.41,0,0,1-1,.62,1.13,1.13,0,0,1-1.22-.91,1.75,1.75,0,0,1,.4-1.25l.48-.61-.78-.56-1.33,2-.5-.36,1.33-2-.88-.64-1.64,2.42-.5-.36,1.63-2.42-1-.71.33-.45c.16-.16.24-.13.23.09l.73.53,1.42-2.12.5.36-1.41,2.12.91.65,1.13-1.67.5.36L78.8,90.15Zm-.46,1.32A1.2,1.2,0,0,0,79,93a.51.51,0,0,0,.23.36.47.47,0,0,0,.37.08,1,1,0,0,0,.58-.43.85.85,0,0,0,.16-.65,1.16,1.16,0,0,0-.59-.73,5.59,5.59,0,0,0-.45.52"/><path class="cls-1" d="M84.23,83.41a1.11,1.11,0,0,1-.57.64,1.18,1.18,0,0,1-.92,0,1.21,1.21,0,0,1-.65-.68,1.24,1.24,0,0,1,0-1,3.23,3.23,0,0,1,.36-.63l-.62-.26-1.14,3.23-.65-.15,1.24-3.31L80,80.68l.22-.51c.13-.19.21-.18.25,0l1.09.46.86-2.5.6.26-.92,2.47,1.09.47a5.74,5.74,0,0,1,1.19.37,3.2,3.2,0,0,1,1.76,2.67l-.63.38c-.15-1.19-.52-1.92-1.13-2.18a1.52,1.52,0,0,1-.11.8m-1.63-.29a.65.65,0,0,0,.39.37.62.62,0,0,0,.46,0,.72.72,0,0,0,.33-.4.74.74,0,0,0,0-.6.67.67,0,0,0-.86-.36.63.63,0,0,0-.32.37.72.72,0,0,0,0,.59"/><path class="cls-1" d="M24.37,63.34c0-6.23,2-8.21,2-13.42,0-1.81-.74-7.61-2.37-10.15a39.52,39.52,0,0,0-3.88-4.93c3.26,1.06,9.42,3.2,13.53,6.64C35.5,39.19,39.46,35,46,35A15.07,15.07,0,0,1,61.1,50.1,3.47,3.47,0,0,1,61,51.34,26.56,26.56,0,0,1,65.44,51a37.68,37.68,0,0,1,11.23,2.11c-4.89,1.12-8.88,2.7-11.54,4.9a13.83,13.83,0,0,0-4.41,6.69c-1,3.65-3.54,7.93-5.89,9.94A16.39,16.39,0,0,1,43.36,79a11,11,0,0,1-2.55-.13,7.83,7.83,0,0,0,0,1.58,9.75,9.75,0,0,1,7,9.65,10.27,10.27,0,0,1-20.53,0c0-3.42,2.18-7.4,5.21-8.87a17.83,17.83,0,0,1,.06-4.4,15.12,15.12,0,0,1-8.19-13.44M38,75.6a16.59,16.59,0,0,0,5.21.87c8.88.14,12.83-7.24,14.44-13.13a16.19,16.19,0,0,1,7.71-9c-10.55,0-18,3.07-24.13,9.4-4,4.16-5.71,10.83-5.71,15,0,1.37.09,2.82.22,4.13a7.21,7.21,0,0,0-5.62,7,7.32,7.32,0,1,0,14.64.06,7.27,7.27,0,0,0-7-7.2A28.88,28.88,0,0,1,38,75.6m-4.9-2.79c.57-3,3.08-9.25,6.2-12.1-.15-5.79-1.18-8.27-3.53-11.79a21.77,21.77,0,0,0-7.88-7.07,30.54,30.54,0,0,1,1.49,9c0,4.72-2,7-2,12.1s2.95,8,5.77,9.87m9.4-14.89A34.35,34.35,0,0,1,57.3,51.83c1.1-9.24-6.63-13.19-10.21-13.19-1.54,0-2.59.75-2.59,1.47,0,1.61,3.89,2.21,4.62,2.2a12.72,12.72,0,0,1-3.66.5c-1.19,0-4.57-.32-4.57-2.2,0-.73.17-.65.28-1a13.06,13.06,0,0,0-5,4.26c3.48,3.92,5.33,8,6.31,14m.27-13.3a1.92,1.92,0,1,0,1.91,1.91,1.92,1.92,0,0,0-1.91-1.91m9.43-2.18a1.92,1.92,0,1,0,1.92,1.91,1.91,1.91,0,0,0-1.92-1.91m-6.8,6.16-.94.23a5.45,5.45,0,0,0,4,2.4c2,0,3.57-2.25,3.54-4.06l-1,.12c-.34,1.46-1.51,2.82-2.71,2.82a3.93,3.93,0,0,1-2.89-1.51"/></g></g></svg>