<svg xmlns="http://www.w3.org/2000/svg" viewBox="0 0 345.65 35"><defs><style>.cls-1{fill:#c50018;}.cls-2{fill:#241c1a;}</style></defs><g id="レイヤー_2" data-name="レイヤー 2"><g id="rayout"><path class="cls-1" d="M.94,32.69a33.14,33.14,0,0,1-.6-13,28.42,28.42,0,0,1,2.87-9.09,21,21,0,0,1,6-7.39A16.19,16.19,0,0,1,17.73,0s3.87-.07,6.19,1.89a9.38,9.38,0,0,1,3.31,4.94,21.88,21.88,0,0,1,5.44-4.09C34.79,1.65,39.55.06,41.2,1.09a15,15,0,0,0-5.07,3.16s-1.91,1.34-4.81,5.89a49.06,49.06,0,0,0-4.18,10.3S40.41,31.09,41.25,31.72c1.41,1.07,1.46,1.69-.48,2.42-3,1.12-3.35.18-4.39-.55l-10.66-8s-1,3.84-1.4,5.46-.3,3.55-3.94,3.55c-5.14,0-5.69-.37-5.69-.37s-1.07-.26-.41-2.62c1.08-3.92,4.63-12.47,4.63-12.47s-3.84-3.61-3.84-6.31A9.85,9.85,0,0,1,21,15.43,56.07,56.07,0,0,1,25.46,9a9.12,9.12,0,0,0-3.28-4.29,5.48,5.48,0,0,0-4.56-.45c-3,1-4.9,4.21-4.9,4.21a20.94,20.94,0,0,0-3.37,9.24,26.5,26.5,0,0,0,.56,10,18.43,18.43,0,0,0,1.75,4.44c1.05,1.46-.69,2-1.24,2.06-1.29.18-2.93.37-4.46.43-3.65.15-4.12-.21-5-1.94"/><path class="cls-2" d="M91.71,23.31c-.71,5.9-4.52,9.22-7.47,9.22A2.9,2.9,0,0,1,81,29.35a18.48,18.48,0,0,1,.31-3.15,8.38,8.38,0,0,0,.14-1.42,1.72,1.72,0,0,0-1.7-1.91c-3.75,0-6.1,6.2-6.92,8.31-.22.57-.66,1.76-1.53,1.76-1.15,0-1.56-1.21-1.56-2.06a2.14,2.14,0,0,1,.44-1.42c0-.11,7-12.86,7.3-13.43a6.79,6.79,0,0,0,1-2.9,1.73,1.73,0,0,0-1-1.51c-.21-.14-.38-.25-.38-.44s.22-.24.63-.24A4.47,4.47,0,0,1,82,14.08c0,.22-.11.38-.5.77a30.4,30.4,0,0,0-4.73,6.4,26.3,26.3,0,0,0-2.54,4.57l0,.05c1.7-2.24,3.86-4.81,7-4.81a2.68,2.68,0,0,1,3,2.63c0,.77-.36,3.88-.36,4.56a1.41,1.41,0,0,0,1.56,1.51c1,0,3.74-.88,6.07-6.51Z"/><path class="cls-2" d="M110,23.46c2-.49,2.55-.79,2.55-1.58s-.43-2.71-2.63-4.71c-.26-.24-1.63-1.25-1.63-1.33a.19.19,0,0,1,.21-.17,14.15,14.15,0,0,1,4.08,1.91A7.3,7.3,0,0,1,116,23.63c0,1.31-.71,1.72-1.23,1.72s-.52-.08-1.37-1c-.57-.63-2-.63-3.37-.63ZM99.09,27.68a8.82,8.82,0,0,0,3.23,1.15c2.25,0,3-5.58,3-7.36,0-1,0-2.49-1.43-2.49a7.37,7.37,0,0,0-2,.46c-1,2.44-5,10.9-5.66,11.91a1.51,1.51,0,0,1-1.15.7c-.69,0-1.26-.93-1.26-2a2.49,2.49,0,0,1,.74-1.81,24.2,24.2,0,0,0,4.65-7.83c-.33.12-1.29.47-1.48.58a2.31,2.31,0,0,1-1,.38c-1.23,0-3.07-2.08-3.07-3.25,0-.14,0-.2.14-.2a1.24,1.24,0,0,1,.33.09c1.4.74,1.54.84,2.08.84a31,31,0,0,0,3.8-.95,22.27,22.27,0,0,0,.77-4,1.5,1.5,0,0,0-1.17-1.61c-.11,0-.31-.05-.31-.22s1.29-.63,2.1-.63c1.37,0,3,1.37,3,2.43,0,.39,0,.41-.6.94a7.66,7.66,0,0,0-1.18,2.65c.27,0,.93-.11,1.31-.11,2.74,0,3.59,2.19,3.59,5.22,0,4.22-1.87,10-4.74,10-1,0-1.31-.33-1.31-1,0-.09,0-.44,0-.5a4,4,0,0,0-1.42-2.1,12.46,12.46,0,0,1-1.15-1Z"/><path class="cls-2" d="M133.43,14.25c1.56,0,7.47,3.86,7.47,9.19,0,2-.85,3.06-2.06,3.06-1.45,0-1.5-1.7-1.5-2,0-2.6,0-3-.55-4.66-.4-1.31-.95-2.87-3.55-5.28-.06,0-.14-.14-.11-.17s.19-.1.3-.1m-7,8.34-1.13,3.2a14.67,14.67,0,0,0-.38,1.91,3.35,3.35,0,0,0,.25,1.21c.27.71.29.76.29,1.05a1.27,1.27,0,0,1-1.14,1.36,2.37,2.37,0,0,1-1-.33c-3.28-1.78-4.15-5.31-4.15-8.65,0-.71.3-3.71.3-4.34,0-2.14-.17-2.3-1.51-3.84a.56.56,0,0,1-.08-.25c0-.27.3-.32.52-.32,1.77,0,3.63,1.7,3.69,1.75a2,2,0,0,1,.52,1.39,6.61,6.61,0,0,1-.49,1.95,16.82,16.82,0,0,0-.82,4.45c0,1.41.57,3.54,1.53,3.54a1.08,1.08,0,0,0,.85-.52c.25-.33,1.59-2.46,2.38-3.7Z"/><path class="cls-2" d="M180.15,14V12.48c.17-.05.84-.23.84-.64,0-.26-.25-.34-.43-.34l-3.7-.22V14h-8.58l.31,1.28h4.29a2.6,2.6,0,0,1,.93,2c0,.23-.1,1-.1,1.28a1.26,1.26,0,0,0,.38.93h-2.41l-3.47-1.39c0,.75,0,4.54,0,4.62a62.3,62.3,0,0,1-.46,7.83A8.55,8.55,0,0,1,166.46,34l.31.23A11.56,11.56,0,0,0,171.11,26c.13-1.51.15-3.29.23-5.21H189.6c.25,0,.46-.48.46-.72a.64.64,0,0,0-.26-.46l-1.67-1.43a.87.87,0,0,0-.48-.24c-.18,0-.26.08-.41.26l-1.44,1.31h-4.6s2.67-2,3.21-2.44c.85-.13.92-.16.92-.44a.36.36,0,0,0-.2-.34l-2-.94v-.05H189c.22,0,.45-.1.45-.36a.6.6,0,0,0-.25-.47l-2-1.45c-.23-.16-.31-.24-.46-.24s-.26.08-.41.26l-1.47,1Zm-1.91,15.93v2.69h-9.31l.31,1.27h20a.41.41,0,0,0,.45-.39.49.49,0,0,0-.27-.42l-2-1.58a.75.75,0,0,0-.46-.23c-.18,0-.26.05-.41.23L185,32.62h-3.56V29.93h5.75c.25,0,.49-.46.49-.71a.52.52,0,0,0-.23-.44L185.64,27a.79.79,0,0,0-.49-.23c-.16,0-.26.08-.4.26l-1.36,1.63h-2V26h6.77c.26,0,.55-.4.55-.65a.59.59,0,0,0-.23-.44l-1.93-1.77c-.21-.16-.31-.23-.49-.23s-.26.1-.41.25l-1.33,1.57h-2.93V22.26c.33-.11.84-.28.84-.66s-.25-.33-.4-.36l-3.61-.34v3.8h-2.61c.21-.38.36-.64.69-1.35.54-.11.88-.19.88-.55s-.18-.31-.34-.36l-3.9-1.1a17,17,0,0,1-2.08,8.78l.18.21c1.61-1.21,2.92-1.92,4.26-4.36h2.92v2.68h-5.15l.31,1.28Zm2.68-14.65c-.46,1.74-1,3.5-1.31,4.21h-3.06a1.78,1.78,0,0,0,.52-1.34c0-1.75-1.9-2.54-3.11-2.82v-.05Z"/><path class="cls-2" d="M208.67,14.78h1.8v1.73h-1.8ZM198,19.67a14.23,14.23,0,0,0,2.15-4.49s1.1-.36,1.1-1a.79.79,0,0,0-.23-.57l-1.62-1.33a.92.92,0,0,0-.53-.23,1.19,1.19,0,0,0-.7.31l-1.08.9h-4.2l.3,1.27H197a26.36,26.36,0,0,1-3,6.15c-.31.51-.38.67-.38.9,0,.74,1.61.86,1.92.86,1.06,0,1.18-.28,1.72-1.41H199a23,23,0,0,1-1.59,6.17c-.75-.93-.93-1.31-2.11-4.63H195a10,10,0,0,0,1.62,6.3A13.54,13.54,0,0,1,192.39,34l.16.26A11.7,11.7,0,0,0,198,30.63c3.06,3.34,4.78,3.44,16.2,3.44.24,0,.72,0,.88-.23a11.33,11.33,0,0,0,.26-1.46c.15-.62.84-1.13,1-1.34v-.26l-.56,0c-4.8.31-5.5.33-7.71.33-5.29,0-6.67-.3-8.91-2.13A21.32,21.32,0,0,0,202.05,22c.64-.32.79-.43.79-.71a.35.35,0,0,0-.25-.33v-.06h2.82v1.76h-3.47l.31,1.27h3.16v1.81H201l.3,1.27h4.16v2.88c0,.41,0,.89.85.89a4.62,4.62,0,0,0,1.8-.48c.61-.3.61-.33.61-.88V27h6.68c.2,0,.44-.1.44-.36a.68.68,0,0,0-.26-.49L214,24.93c-.21-.16-.31-.23-.49-.23a.48.48,0,0,0-.41.23l-1.16.76h-3.31V23.88h5.55c.21,0,.44-.1.44-.36a.58.58,0,0,0-.28-.49L212.83,22c-.28-.2-.33-.22-.48-.22s-.31.13-.42.25l-1,.63h-2.24V20.85h1.72v.36a.52.52,0,0,0,.54.47,4.07,4.07,0,0,0,2.26-.77,1.1,1.1,0,0,0,.18-.75V17.84h2.5c.2,0,.43-.43.43-.69a.55.55,0,0,0-.26-.46l-1.1-1a.73.73,0,0,0-.46-.23.48.48,0,0,0-.42.23l-.69.84V15.38c.67-.72.75-.79.75-1.08a.5.5,0,0,0-.24-.46l-1.61-1.25a1.18,1.18,0,0,0-.64-.24.94.94,0,0,0-.72.39l-.62.71h-1.62v-.66c.31-.16.74-.36.74-.72s-.36-.41-.5-.41l-3.5-.34v2.13H202.2l.31,1.33h2.9v1.73h-5.26l.31,1.33h4.95v1.74l-3.52,0h-.64c-.18-.13-.64-.79-.87-.79s-.57.63-.77.86Zm10.72-1.83h1.8v1.74h-1.8Z"/><path class="cls-2" d="M219.46,18.66l.3,1.26h7.84c.23,0,.46-.1.46-.35a.63.63,0,0,0-.26-.47l-1.38-1.17c-.19-.16-.29-.24-.47-.24a.51.51,0,0,0-.41.26l-.87.71Zm-1.31-3.24.31,1.27h10.27c.23,0,.46-.11.46-.36a.74.74,0,0,0-.26-.48l-1.64-1.36a.67.67,0,0,0-.46-.24.47.47,0,0,0-.41.26l-1.19.91Zm1-3.13.31,1.27h8.17c.23,0,.43-.11.43-.36a.69.69,0,0,0-.22-.48l-1.68-1.12c-.31-.2-.33-.2-.45-.2a.51.51,0,0,0-.42.23l-1.05.66Zm5.5,18.79H222V26.83h2.7Zm-2.6-5.58-2.9-.87v9c0,.54.34.75.88.75,1,0,2-.36,2-1.23v-.79h2.52V33c0,.2.36.43.79.45s2.24-.37,2.24-1.36V27.32c.77-.56.85-.64.85-.9s-.21-.41-.46-.59l-1.37-1a1.34,1.34,0,0,0-.66-.28.94.94,0,0,0-.72.46l-.65.52Zm6.37-3.59s3.88-1.41,3.88-6.76v-1.7h2.2v5a2.07,2.07,0,0,0,2.24,2.18h3.34a1.66,1.66,0,0,0,1.74-1.6,1.45,1.45,0,0,0-.48-1,.64.64,0,0,1-.26-.67l.23-3.52-.23,0c-.88,3.06-1.26,4.12-1.69,4.12h-1.27a.48.48,0,0,1-.48-.52V14.35c.77-.61.85-.69.85-.92a.81.81,0,0,0-.29-.59l-1.41-1.18a.91.91,0,0,0-.56-.21,1,1,0,0,0-.82.44l-.88.29h-2.28l-3-.58v5.11A9.11,9.11,0,0,1,227.75,22l-1.13-.87c-.16-.16-.26-.26-.44-.26a.5.5,0,0,0-.43.26l-1.08.93h-5l.31,1.28h8.14a.35.35,0,0,0,.28-.1c.08,0,.11-.08.13-.08h1.36a12.52,12.52,0,0,0,2.46,6.49,24.26,24.26,0,0,1-6.26,4.39l.08.26a20.58,20.58,0,0,0,7.65-3,14.25,14.25,0,0,0,5.93,3.26c.34,0,.36-.31.41-.75A3.4,3.4,0,0,1,242,31.3v-.2a15.25,15.25,0,0,1-5.81-1.7A19.21,19.21,0,0,0,240,24.27c.54-.05.95-.16.95-.65a.47.47,0,0,0-.13-.35l-1.75-1.73a1.08,1.08,0,0,0-.66-.27,1.29,1.29,0,0,0-.9.48l-.72.16Zm8.09,1.28A12.55,12.55,0,0,1,234,28a9.76,9.76,0,0,1-3.26-4.8Z"/><path class="cls-2" d="M253.81,17.61a18.83,18.83,0,0,1-1.18,2.93,10.86,10.86,0,0,0-2.29-1.13v-1.8Zm3-1.45a7.4,7.4,0,0,0,.69-1.31c.23-.08.46-.14.68-.24v1.55Zm-.36,6.48c-1.41,4.88-3.31,7.15-6.17,9.27v-11h.06a4.55,4.55,0,0,1,.95,2.47c.08,1.28.15,2.29,1.62,2.29a1.82,1.82,0,0,0,1.79-2,2.29,2.29,0,0,0-.28-1Zm10.91,0c.26,0,.44-.41.44-.64a.81.81,0,0,0-.23-.46l-1.7-1.44c-.18-.15-.25-.23-.46-.23a.51.51,0,0,0-.41.26l-1.28,1.29h-2.29V17.48h5.12c.4,0,.57-.64.4-.86A16,16,0,0,0,265,15c-.28-.22-.36-.22-.46-.22a.45.45,0,0,0-.41.25l-1.26,1.14h-1.44V12.61c.59-.13.9-.39.9-.7s-.2-.36-.57-.38l-3.58-.36v2.52a2,2,0,0,0-.47-.16l-3.47-.74a7.87,7.87,0,0,1,0,1A11.29,11.29,0,0,1,254,16.2l-1.39-1c-.23-.19-.3-.23-.46-.23a.41.41,0,0,0-.41.25l-1.21,1.14h-.23v-3.6c.8-.26,1-.41,1-.67s-.21-.36-.55-.41l-3.69-.44v5.12h-3.41l.3,1.27h2.65c-.06,3-1.49,8.84-3.29,11.67l.34.27A30.25,30.25,0,0,0,247,25.91h.05v8c0,.48,0,.84,1,.84.54,0,2.25-.53,2.25-1.46v-.77a18.12,18.12,0,0,0,7.9-5.52v6.88c0,.31,0,.82.86.82a4.07,4.07,0,0,0,2-.54c.44-.31.44-.41.41-.82v-8h.05c1.62,4.91,4.39,6.7,4.62,6.7s.24-.12.24-.28A3.34,3.34,0,0,1,268.24,29v-.26c-3.26-1.64-5.83-3.53-6.7-6.14Zm-13.27-1.22c-.15-.2-.26,0-.54-.21a25.49,25.49,0,0,0,2.95-3.73h1.68v3.94Z"/><path class="cls-2" d="M288.34,17l1.31-1.71a.49.49,0,0,1,.41-.27c.18,0,.28.09.47.24a26.46,26.46,0,0,1,2.39,1.89c.19.48-.28,1.13-1,1.13h-7.26a16.22,16.22,0,0,0,3.88,10.84c.61.78,1.1,1.14,1.64,1.14s.72-.18,1.51-1.93c.21-.42.29-.65,1.05-2.69l.29,0-.9,5.14a1.52,1.52,0,0,0,.18,1.1c.54.88.69,1.14.69,1.64a1.31,1.31,0,0,1-1.28,1.34c-2.41,0-8.5-3.77-9.78-11.63h-3.6a.57.57,0,0,1,.11.36c0,.2-.18.49-.69.72v4.9l5-.69.05.33A109.54,109.54,0,0,1,272.14,34c-.18.51-.26.74-.59.74s-.33-.25-.38-.41l-1.19-4,4.47-.62V23.29h-4.52L269.62,22H278l1.33-1.08a.48.48,0,0,1,.42-.23.63.63,0,0,1,.46.23l1.56,1.38c-.33-2.46-.46-3.37-.51-4h-11.5L269.42,17h11.76c-.2-3.36-.2-4.82-.2-5.74l4.15.48c.36.05.39.1.52.23,1.56-.08,3.8.39,3.8,2.23A1.7,1.7,0,0,1,287.8,16c-.9,0-1-.37-1.58-2.19a1.88,1.88,0,0,0-.78-1.16,3.24,3.24,0,0,1-.72.29c-.05,1-.13,2.26-.13,4.1Z"/><path class="cls-2" d="M309.09,20.22l1.36-1.42a.56.56,0,0,1,.41-.26.77.77,0,0,1,.46.24l1.9,1.86a.53.53,0,0,1,.24.44.38.38,0,0,1-.41.41H299.82l-.31-1.27Zm2.41,9.9a11.66,11.66,0,0,0-2.9-3.1v-.21c3.5.33,7.78,3.34,7.78,6.19a1.69,1.69,0,0,1-1.74,1.69c-1.16,0-1.55-.93-1.88-1.84a15.17,15.17,0,0,0-.72-1.7c-3.72,1-8.75,2.35-12.48,3.25-.18.34-.36.6-.59.6s-.33-.23-.43-.46l-1.41-3.14,3.77-.34a35.72,35.72,0,0,0,2-5.16h-7.12l-.31-1.32h18.13l1.49-1.73a.46.46,0,0,1,.41-.26.72.72,0,0,1,.46.24l1.93,2c.1.07.49.37.49.6a.52.52,0,0,1-.46.49H307.24c.1.26,0,.49-.59.62-.9,1.1-2.7,2.83-4.13,4.42Zm7.86-12.2a3.42,3.42,0,0,0-2.06,2.75c0,.29-.2.52-.49.52A16.63,16.63,0,0,1,307.86,13a.78.78,0,0,1-.33.07c-3.76,4.06-7.91,8.25-12.48,9l-.14-.2c4.37-3,7.84-6.65,9.45-11.2l4,1.29a.29.29,0,0,1,.23.28.6.6,0,0,1-.18.42c2.37,2.9,4.14,3.68,11,5.13Z"/><path class="cls-2" d="M159.48,29.88H147.94V23h11.54ZM148,13.28l-3.56-1.65V33c0,.42,0,1,.95,1,.33,0,2.61-.32,2.61-1.75V31.15h11.36v1.62a.93.93,0,0,0,1,.84c1.16,0,2.61-.61,2.61-1.46V15.26c1.09-.75,1.15-1,1.15-1.24,0-.1,0-.33-.38-.56l-1.6-1.22a1.57,1.57,0,0,0-.92-.34c-.24,0-.51.08-.92.52l-.86.86Zm11.45,8.38H147.94V14.55h11.54Z"/><path class="cls-2" d="M330.89,21.31,330.58,20h5.26V11.12l3.37.26c.31,0,.72.12.72.41s-.51.54-.77.65V20h1.34l1.36-1.56a.45.45,0,0,1,.43-.23.78.78,0,0,1,.46.23l1.88,2a.72.72,0,0,1,.23.49.38.38,0,0,1-.43.35h-5.27V31.9H341l1.52-1.42a.49.49,0,0,1,.44-.25.69.69,0,0,1,.44.25l2,1.88a.81.81,0,0,1,.23.47c0,.25-.23.35-.43.35H329.61l-.31-1.28h6.54V21.31ZM321,17.18,320.69,16h3.42V11.1l3.31.3c.26,0,.54.14.54.44s-.08.28-.8.6V16h.11l1.1-1.14a.77.77,0,0,1,.67-.33,1.21,1.21,0,0,1,.61.25l1.77,1.62a1.07,1.07,0,0,1,.24.64c0,.41-.13.47-1.29.8A25.93,25.93,0,0,1,327.5,21c.08-.07.3.15.3.36a.53.53,0,0,1-.3.49c4.26.87,4.82,3.07,4.82,3.8s-.48,1.75-1.46,1.75c-1.26,0-1.62-1.22-1.93-2.29-.56-2-1.23-2.42-1.69-2.7V33.15c0,1.11-1.39,1.44-2.33,1.44s-.8-.23-.8-.87V24.09a14.35,14.35,0,0,1-3.9,2.06l-.11-.22a19.34,19.34,0,0,0,6.5-8.75Z"/><path class="cls-2" d="M56.5,34.16c7.64-2.13,7.64-10.29,7.64-12.33,0-1.21,0-6.77-2.82-6.77-3.16,0-6.54,6.51-6.54,10.64,0,.33.2,1.73.2,2a1.49,1.49,0,0,1-1.49,1.35c-1.1,0-2.45-1.69-2.45-6.13a22.82,22.82,0,0,1,.46-4.45c.3-1.62.83-4.41.83-4.88a2.4,2.4,0,0,0-1.26-2.19s-.23-.19-.23-.27.2-.14.63-.14c2.69,0,4.31,1.87,4.31,2.79,0,.25,0,.41-.37.93-2.52,3.67-2.52,6-2.52,6.88A15.37,15.37,0,0,0,53.12,24h.07c.93-2.54,2.39-6.07,4.67-8.26.44-.42,2.33-2.19,4.55-2.19,4,0,4.93,4.69,4.93,8.76,0,7-4,11.31-10.77,12Z"/></g></g></svg>