<svg xmlns="http://www.w3.org/2000/svg" viewBox="0 0 236.03 70"><defs><style>.cls-1{fill:#174e9d;}.cls-2{fill:#44ade9;}.cls-3{fill:#b3cb31;}.cls-4{fill:#868687;}.cls-5{fill:#c40018;}</style></defs><g id="レイヤー_2" data-name="レイヤー 2"><g id="rayout"><polygon class="cls-1" points="12.77 36.56 31.43 23.82 31.43 18.05 12.76 30.92 12.77 36.56"/><path class="cls-2" d="M35.91,3.43V9.56L24.64,17.29a9.91,9.91,0,0,0-4.31,8.18v.24l11.11-7.66v5.77L20.33,31.41v17.9l-5.07-.12,0-23.73a15,15,0,0,1,6.5-12.32Z"/><path class="cls-3" d="M35.91,3.43V21a9.9,9.9,0,0,1-4.29,8.17l-8.77,6.05v6.11l11.59-8A15,15,0,0,0,40.94,21V0Z"/><path class="cls-1" d="M15.26,49.19v1.08a2.49,2.49,0,0,0,3.9,2.06l3.29-2.24-.1-5.75Z"/><path class="cls-4" d="M9.47,63.12h.58a1.65,1.65,0,0,0,1.81-1.66,1.69,1.69,0,0,0-1.71-1.7,1.63,1.63,0,0,0-1.61,1.42H6.86a3.34,3.34,0,0,1,6.68.24,2.69,2.69,0,0,1-1.25,2.42,3,3,0,0,1,1.38,2.57A3.44,3.44,0,0,1,10.12,70a3.34,3.34,0,0,1-3.33-3H8.47a1.75,1.75,0,0,0,1.74,1.33,1.86,1.86,0,0,0,0-3.72H9.47Z"/><path class="cls-4" d="M14.94,61.46a3.33,3.33,0,1,1,6.65,0v5.17A3.23,3.23,0,0,1,18.27,70a3.24,3.24,0,0,1-3.33-3.37Zm5,.1a1.65,1.65,0,1,0-3.29,0v5a1.65,1.65,0,1,0,3.29,0Z"/><path class="cls-4" d="M27.39,58.18h6.24v1.68H29v2.65a2.88,2.88,0,0,1,1.88-.64,2.94,2.94,0,0,1,2.09.85c.64.69.92,1.27.92,3.21a3.88,3.88,0,0,1-.73,2.82A3.23,3.23,0,0,1,30.6,70a3.28,3.28,0,0,1-3.43-3h1.68a1.6,1.6,0,0,0,1.68,1.37c1.65,0,1.65-1.41,1.65-2.52,0-1.3-.31-2.25-1.7-2.25a1.6,1.6,0,0,0-1.51,1H27.39Z"/><path class="cls-4" d="M35,61.46a3.33,3.33,0,1,1,6.65,0v5.17a3.33,3.33,0,1,1-6.65,0Zm5,.1a1.65,1.65,0,1,0-3.29,0v5a1.65,1.65,0,1,0,3.29,0Z"/><polygon class="cls-4" points="23.37 62.56 25.6 64.09 23.37 65.62 23.37 62.56"/><polygon class="cls-4" points="2.86 62.56 5.08 64.09 2.86 65.62 2.86 62.56"/><polygon class="cls-4" points="0 62.56 2.23 64.09 0 65.62 0 62.56"/><polygon class="cls-4" points="46.32 62.56 48.55 64.09 46.32 65.62 46.32 62.56"/><polygon class="cls-4" points="43.46 62.56 45.69 64.09 43.46 65.62 43.46 62.56"/><path class="cls-5" d="M62.25,42.12l-2-4.13H58.77v4.13h-2V31.76h4.06a3.13,3.13,0,0,1,3.36,3.17,2.81,2.81,0,0,1-1.89,2.73l2.31,4.46Zm-1.57-8.55H58.77V36.3h1.91a1.37,1.37,0,1,0,0-2.73"/><polygon class="cls-5" points="72.75 42.12 68.65 35.76 68.65 42.12 66.63 42.12 66.63 31.76 68.43 31.76 72.53 38.11 72.53 31.76 74.56 31.76 74.56 42.12 72.75 42.12"/><polygon class="cls-4" points="85.18 33.57 85.18 42.12 83.16 42.12 83.16 33.57 80.45 33.57 80.45 31.76 87.88 31.76 87.88 33.57 85.18 33.57"/><polygon class="cls-4" points="95.42 42.12 95.42 37.79 91.92 37.79 91.92 42.12 89.89 42.12 89.89 31.76 91.92 31.76 91.92 36 95.42 36 95.42 31.76 97.45 31.76 97.45 42.12 95.42 42.12"/><polygon class="cls-4" points="100.14 42.12 100.14 31.76 106.96 31.76 106.96 33.57 102.16 33.57 102.16 36 106.25 36 106.25 37.8 102.16 37.8 102.16 40.32 106.96 40.32 106.96 42.12 100.14 42.12"/><polygon points="115.21 33.57 115.21 36.11 119.3 36.11 119.3 37.92 115.21 37.92 115.21 42.12 113.19 42.12 113.19 31.76 120.02 31.76 120.02 33.57 115.21 33.57"/><path d="M125.82,42.21A3.6,3.6,0,0,1,122,38.57V31.76h2V38.5a1.8,1.8,0,1,0,3.59,0V31.76h2v6.81a3.6,3.6,0,0,1-3.81,3.64"/><polygon points="136.3 33.57 136.3 42.12 134.28 42.12 134.28 33.57 131.57 33.57 131.57 31.76 139 31.76 139 33.57 136.3 33.57"/><path d="M144.75,42.21a3.6,3.6,0,0,1-3.81-3.64V31.76h2V38.5a1.8,1.8,0,1,0,3.59,0V31.76h2v6.81a3.6,3.6,0,0,1-3.81,3.64"/><path d="M156.65,42.12l-2-4.13h-1.46v4.13h-2V31.76h4.06a3.13,3.13,0,0,1,3.36,3.17,2.81,2.81,0,0,1-1.89,2.73L159,42.12Zm-1.57-8.55h-1.91V36.3h1.91a1.37,1.37,0,1,0,0-2.73"/><polygon points="161.02 42.12 161.02 31.76 167.85 31.76 167.85 33.57 163.05 33.57 163.05 36 167.13 36 167.13 37.8 163.05 37.8 163.05 40.32 167.85 40.32 167.85 42.12 161.02 42.12"/><path d="M178.09,38.22h-2v3.9h-2V31.76h4a3.24,3.24,0,1,1,0,6.46m-.1-4.65H176.1V36.4H178a1.42,1.42,0,1,0,0-2.83"/><path d="M189.06,42.12,187,38h-1.46v4.13h-2V31.76h4.06A3.13,3.13,0,0,1,191,34.93a2.81,2.81,0,0,1-1.89,2.73l2.31,4.46Zm-1.57-8.55h-1.91V36.3h1.91a1.37,1.37,0,1,0,0-2.73"/><path d="M199.65,41.07a4,4,0,0,1-5.6,0c-1.05-1-1-2.34-1-4.13s0-3.08,1-4.13a4,4,0,0,1,5.6,0c1,1,1,2.34,1,4.13s0,3.09-1,4.13m-1.5-7a1.69,1.69,0,0,0-1.29-.55,1.72,1.72,0,0,0-1.31.55c-.4.44-.5.92-.5,2.91s.1,2.48.5,2.91a1.69,1.69,0,0,0,1.31.56,1.66,1.66,0,0,0,1.29-.56c.39-.43.51-.91.51-2.91s-.12-2.47-.51-2.91"/><path d="M204.57,42.21a3.39,3.39,0,0,1-2.66-1.06l1.34-1.33a1.62,1.62,0,0,0,1.32.59c1,0,1.63-.59,1.63-1.78V31.76h2v7a3.41,3.41,0,0,1-3.65,3.49"/><polygon points="210.82 42.12 210.82 31.76 217.65 31.76 217.65 33.57 212.85 33.57 212.85 36 216.94 36 216.94 37.8 212.85 37.8 212.85 40.32 217.65 40.32 217.65 42.12 210.82 42.12"/><path d="M223.29,42.21a3.82,3.82,0,0,1-2.8-1.14c-1-1-1-2.34-1-4.13s0-3.08,1-4.13a3.81,3.81,0,0,1,2.8-1.13A3.65,3.65,0,0,1,227.1,35h-2a1.72,1.72,0,0,0-1.75-1.47A1.65,1.65,0,0,0,222,34c-.4.43-.51.93-.51,2.92s.11,2.49.51,2.93a1.68,1.68,0,0,0,1.29.54,1.72,1.72,0,0,0,1.75-1.47h2a3.67,3.67,0,0,1-3.81,3.27"/><polygon points="233.32 33.57 233.32 42.12 231.3 42.12 231.3 33.57 228.6 33.57 228.6 31.76 236.03 31.76 236.03 33.57 233.32 33.57"/><path d="M107.3,47.56a10,10,0,0,0,.4,1.82l.73-.28.76-.25a1,1,0,0,0,.21-.09l.22.6a13.15,13.15,0,0,0-1.81.55c-.86.33-1.3.71-1.3,1.15,0,.27.18.46.54.55a4.82,4.82,0,0,0,.89.07,5.75,5.75,0,0,0,1.72-.22l0,.66a2.5,2.5,0,0,0-.44,0,11.34,11.34,0,0,1-1.3.07,3,3,0,0,1-1.58-.28,1,1,0,0,1-.48-.91,1.3,1.3,0,0,1,.5-1,4,4,0,0,1,.76-.48,11.84,11.84,0,0,1-.39-1.55,1.4,1.4,0,0,0-.1-.37Z"/><path d="M111.86,49.75a2,2,0,0,0,.55.16l.45.07c0-.23.08-.64.12-.89a7.56,7.56,0,0,1-.83-.14l-.18,0,0-.53a3.57,3.57,0,0,0,1,.21,8.56,8.56,0,0,0,.13-1v-.09l.62.06a1.93,1.93,0,0,0-.09.38s0,0,0,.32l-.05.31h.22a5,5,0,0,0,1.11-.11l0,.55-.23,0c-.35,0-.55,0-.72,0h-.43c-.08.53-.09.65-.12.89h.32a4.45,4.45,0,0,0,1.07-.11l0,.54-.17,0a7.38,7.38,0,0,1-.82,0h-.42c0,.23,0,.34,0,.46a.79.79,0,0,0,.23.62,1.1,1.1,0,0,0,.75.22c.72,0,1.17-.35,1.17-.91a1.29,1.29,0,0,0-.52-1,2.06,2.06,0,0,0,.58-.13,3.51,3.51,0,0,1,.27.34,1.57,1.57,0,0,1,.25.82,1.31,1.31,0,0,1-.52,1,2,2,0,0,1-1.23.36,1.74,1.74,0,0,1-1.15-.35,1.29,1.29,0,0,1-.38-1,3.23,3.23,0,0,1,0-.49,6.93,6.93,0,0,1-.82-.14.88.88,0,0,0-.2,0Z"/><path d="M119.05,47.75a5.7,5.7,0,0,0-.31,1.38,11,11,0,0,0-.11,1.55v.51h0a3.41,3.41,0,0,1,.31-.88l.39.18a4.66,4.66,0,0,0-.49,1.65.68.68,0,0,0,0,.12l-.59,0a1.29,1.29,0,0,0,0-.25,10.18,10.18,0,0,1,.1-3.88,3,3,0,0,0,.08-.5Zm1.49,2.34a1.28,1.28,0,0,0-.41.82c0,.36.33.54,1,.54a3.67,3.67,0,0,0,1.33-.21l0,.61-.21,0a6.15,6.15,0,0,1-1.17.11,1.62,1.62,0,0,1-1.36-.46,1,1,0,0,1-.17-.56,1.75,1.75,0,0,1,.51-1.11Zm-.85-1.8a3.77,3.77,0,0,0,1,.09,6,6,0,0,0,1.58-.15l0,.57-.39.05a11.08,11.08,0,0,1-1.2.07,6.78,6.78,0,0,1-.83,0l-.16,0Z"/><path d="M124,48.78a8.18,8.18,0,0,0,1.23-.25,7.59,7.59,0,0,1,1.65-.2c1.08,0,1.78.6,1.78,1.52a1.94,1.94,0,0,1-1.22,1.75,4.91,4.91,0,0,1-1.94.46,2.38,2.38,0,0,0-.25-.61,5,5,0,0,0,1.53-.22c.79-.26,1.25-.76,1.25-1.37s-.43-1-1.18-1a8.47,8.47,0,0,0-2.27.4,2.13,2.13,0,0,0-.44.16Z"/><path d="M132.2,47.57a1.42,1.42,0,0,0-.09.37c0,.18-.07.3-.13.55a4.43,4.43,0,0,0,.94-.17l0,.55a.57.57,0,0,0-.19,0c-.21,0-.54.08-.91.11a11.09,11.09,0,0,1-.62,1.64,8.49,8.49,0,0,1-.4.77,1.44,1.44,0,0,0-.11.19l-.55-.31a4.11,4.11,0,0,0,.55-.9,8.24,8.24,0,0,0,.55-1.38h-.92v-.54a4.67,4.67,0,0,0,.72,0h.34a5.24,5.24,0,0,0,.18-1Zm2.61,4.51a3.31,3.31,0,0,0-.91-.73.57.57,0,0,1,0,.12,1,1,0,0,1-.21.6,1.2,1.2,0,0,1-.92.33c-.72,0-1.18-.34-1.18-.88s.48-.94,1.17-.94a2.67,2.67,0,0,1,.58.07,6.79,6.79,0,0,1,0-.73,2.36,2.36,0,0,1,.05-.54l.55,0a1.7,1.7,0,0,0-.08.55,7.15,7.15,0,0,0,.06.82,3.71,3.71,0,0,1,.93.54l.18.14a.3.3,0,0,0,.08.08Zm-2-1c-.41,0-.67.17-.67.43s.23.41.62.41.62-.18.62-.52c0-.07,0-.21,0-.22a1.66,1.66,0,0,0-.56-.1m2-1.56a6.86,6.86,0,0,0-1.58-.79l.28-.45a8.41,8.41,0,0,1,1.56.75Z"/><path d="M139.92,47.92a7.21,7.21,0,0,0-.71.64c-.28.26-.65.56-1.32,1.07-.19.14-.23.19-.23.26s0,.11.5.48a18,18,0,0,1,1.8,1.51l.16.14-.48.49a5.35,5.35,0,0,0-.74-.77,17.78,17.78,0,0,0-1.45-1.2c-.35-.27-.45-.42-.45-.65a.59.59,0,0,1,.18-.42,2.83,2.83,0,0,1,.49-.4,9.19,9.19,0,0,0,1.7-1.57Zm-.06,1.65a3.65,3.65,0,0,0-.54-.77l.36-.19a3.19,3.19,0,0,1,.54.75Zm.58-.33a4.09,4.09,0,0,0-.54-.75l.35-.19a3.54,3.54,0,0,1,.54.73Z"/><path d="M151.55,47.5c0,.09,0,.36,0,.55a6.46,6.46,0,0,0,.15,1.31,4.83,4.83,0,0,0,.84,1.58,4.37,4.37,0,0,0,1.34,1.12,1.79,1.79,0,0,0-.38.52A5.71,5.71,0,0,1,152,51.2a4.78,4.78,0,0,1-.74-1.66,4.53,4.53,0,0,1-.42,1.19,3.91,3.91,0,0,1-.85,1.12,4.55,4.55,0,0,1-.95.72,1.61,1.61,0,0,0-.38-.48,3.9,3.9,0,0,0,1.31-1A4.59,4.59,0,0,0,151,48c0-.22,0-.33,0-.47Z"/><path d="M157,47.55a9.68,9.68,0,0,0,.39,1.82l.74-.27.76-.26.21-.08.21.59a13.49,13.49,0,0,0-1.8.55c-.87.33-1.3.71-1.3,1.15,0,.28.18.46.53.55a5,5,0,0,0,.9.07,6.12,6.12,0,0,0,1.71-.21l0,.65a2.64,2.64,0,0,0-.44,0,11.57,11.57,0,0,1-1.29.08,3.14,3.14,0,0,1-1.58-.29,1,1,0,0,1-.48-.91,1.31,1.31,0,0,1,.5-1,4,4,0,0,1,.76-.48,11.6,11.6,0,0,1-.4-1.55,2.63,2.63,0,0,0-.09-.37Z"/><path d="M162.49,52.05a4.54,4.54,0,0,0,0,.57h-.57a3.15,3.15,0,0,0,0-.58V50.47a5.23,5.23,0,0,1-.7.57,1.82,1.82,0,0,0-.25-.48,4.22,4.22,0,0,0,1.64-1.74h-1a3.39,3.39,0,0,0-.47,0v-.53a3.19,3.19,0,0,0,.45,0H162v-.5a1.91,1.91,0,0,0,0-.43h.58a2.68,2.68,0,0,0,0,.44v.49h.27a2,2,0,0,0,.32,0l.24.25-.13.23a4.56,4.56,0,0,1-.59,1,3.46,3.46,0,0,0,.9.74,2.28,2.28,0,0,0-.26.46,3,3,0,0,1-.75-.67Zm2.37-.2h.76a4.9,4.9,0,0,0,.64,0v.59a4.14,4.14,0,0,0-.64,0h-2a4,4,0,0,0-.63,0v-.59a5,5,0,0,0,.64,0h.68V49.56h-.48a5,5,0,0,0-.56,0V49a2.79,2.79,0,0,0,.56,0h.48V48a5.27,5.27,0,0,0,0-.56h.6a2.55,2.55,0,0,0,0,.56v1.09h.65a2.73,2.73,0,0,0,.56,0v.56a4.86,4.86,0,0,0-.56,0h-.65Z"/><path d="M168.49,49.2a5.59,5.59,0,0,1-1,.53,1.7,1.7,0,0,0-.29-.47,5,5,0,0,0,2.35-1.81h.56a3.79,3.79,0,0,0,.95,1,6.16,6.16,0,0,0,1.5.82,2.42,2.42,0,0,0-.28.52,6.93,6.93,0,0,1-1-.56v.45l-.5,0H169a3.23,3.23,0,0,0-.46,0Zm-.34,1.48a5.74,5.74,0,0,0-.66,0v-.55a5.86,5.86,0,0,0,.66,0h3.51a5.55,5.55,0,0,0,.65,0v.55a5.67,5.67,0,0,0-.65,0h-2a6.72,6.72,0,0,1-.64,1.2c1.33-.1,1.33-.1,2-.18-.24-.26-.35-.38-.62-.64l.44-.23a11.84,11.84,0,0,1,1.33,1.5l-.45.31c-.18-.28-.25-.37-.36-.52-.94.12-2,.23-2.86.29-.46,0-.68.06-.82.09l-.09-.58h.86a7,7,0,0,0,.65-1.23Zm2.66-1.53.4,0a5.1,5.1,0,0,1-1.33-1.22,5.25,5.25,0,0,1-1.29,1.22,2,2,0,0,0,.37,0Z"/><path d="M175.61,47.55a10,10,0,0,0,.39,1.82l.74-.28.76-.25.21-.09.21.6a13.06,13.06,0,0,0-1.8.55c-.87.33-1.3.71-1.3,1.15,0,.27.17.46.53.55a4.87,4.87,0,0,0,.9.07,6.08,6.08,0,0,0,1.71-.22l0,.65-.44,0a9.56,9.56,0,0,1-1.29.08,3.16,3.16,0,0,1-1.58-.28,1,1,0,0,1-.49-.91,1.31,1.31,0,0,1,.51-1,3.34,3.34,0,0,1,.76-.48,11.6,11.6,0,0,1-.4-1.55,2.63,2.63,0,0,0-.09-.37Z"/><path d="M180.15,48.15a2.34,2.34,0,0,0-.42,0v-.51a3,3,0,0,0,.48,0h.56a3.38,3.38,0,0,0,.49,0v.51a2.47,2.47,0,0,0-.39,0h-.07v1.2a2.18,2.18,0,0,0,.38,0v.48a2.3,2.3,0,0,0-.38,0V51l.59-.26v.49c-.53.24-.84.37-1.32.55a2,2,0,0,0-.29.12l-.14-.55a3.2,3.2,0,0,0,.67-.18V49.79h-.11a2.29,2.29,0,0,0-.39,0v-.49a2.24,2.24,0,0,0,.39,0h.11v-1.2Zm4.55,3c-.09.08-.49.39-.6.46a3.08,3.08,0,0,0,.93.4,4.11,4.11,0,0,0-.27.48,3.74,3.74,0,0,1-1-.57,2.36,2.36,0,0,1-.6-.62,4,4,0,0,1,0,.47v.37a3.34,3.34,0,0,0,0,.5h-.54a3.36,3.36,0,0,0,0-.52V51.8c0-.07,0-.25,0-.28a1.09,1.09,0,0,1,0-.17,4.45,4.45,0,0,1-1.56,1.09,1.46,1.46,0,0,0-.32-.43,4.81,4.81,0,0,0,1-.49,3.17,3.17,0,0,0,.72-.61H182a2.51,2.51,0,0,0-.44,0,3.44,3.44,0,0,0,0-.35v-.45c0-.14,0-.25,0-.35h3a3.32,3.32,0,0,0,0,.35v.46a3.11,3.11,0,0,0,0,.34.62.62,0,0,0-.21,0Zm-3.39-2.1a2.77,2.77,0,0,0,.54,0h2.49a4.27,4.27,0,0,0,.54,0v.47a4.35,4.35,0,0,0-.53,0h-2.51a4.19,4.19,0,0,0-.53,0Zm.12-1.12a2.07,2.07,0,0,0,0-.39l.45,0h2.4l.45,0c0,.14,0,.24,0,.39v.52c0,.13,0,.26,0,.38h-3.3a1.9,1.9,0,0,0,0-.39Zm1,0h-.51v.49h.51Zm-.34,2.57h2v-.36h-2ZM183.31,48h-.5v.49h.5Zm-.05,2.95a4.13,4.13,0,0,0,.48.47,2.09,2.09,0,0,0,.54-.47h-1Zm1-2.95h-.53v.49h.53Z"/><path d="M186.54,48.1a3.57,3.57,0,0,0,0-.62h.56a3.59,3.59,0,0,0,0,.63v.78h0l.42,0v.5a2.68,2.68,0,0,0-.42,0h0v1.49l.55-.27,0,.51c-.41.2-.74.34-1.37.6l-.25.11-.12-.55a3.47,3.47,0,0,0,.68-.21V49.35h-.16a2.37,2.37,0,0,0-.46,0v-.52a3.48,3.48,0,0,0,.47,0h.15Zm1.72,3.11-.48,0a3.66,3.66,0,0,0,0-.41v-1c0-.2,0-.33,0-.45a3.8,3.8,0,0,0,.54,0h1.9l.53,0a2.76,2.76,0,0,0,0,.45v.93a2.69,2.69,0,0,0,0,.44l-.47,0h-.45V52c0,.11,0,.13.42.13s.35,0,.38-.08a1.9,1.9,0,0,0,.06-.58,1.63,1.63,0,0,0,.47.17c0,.51-.08.68-.22.8s-.29.13-.75.13-.58,0-.7-.1a.31.31,0,0,1-.14-.3v-.92h-.47a1.6,1.6,0,0,1-.08.38,1.38,1.38,0,0,1-.69.78,3.41,3.41,0,0,1-.84.28,1.36,1.36,0,0,0-.28-.46c1-.13,1.35-.39,1.41-1Zm2.07-3.33a4.68,4.68,0,0,0,.59,0v.45a5.07,5.07,0,0,0-.59,0c-.09.2-.14.32-.22.47h.39a3.94,3.94,0,0,0,.57,0v.48a4.8,4.8,0,0,0-.59,0h-2.36l-.53,0v-.47a3.68,3.68,0,0,0,.51,0h.28a2.43,2.43,0,0,0-.19-.47h-.07a3.33,3.33,0,0,0-.48,0v-.45a4.68,4.68,0,0,0,.59,0H189v-.14a1.83,1.83,0,0,0,0-.35h.56a1.89,1.89,0,0,0,0,.35v.14Zm-2.06,2.24h2v-.29h-2Zm0,.7h2v-.33h-2Zm1.33-2.07a2.48,2.48,0,0,0,.22-.47h-1.13a2.31,2.31,0,0,1,.18.47Z"/></g></g></svg>