<svg xmlns="http://www.w3.org/2000/svg" viewBox="0 0 350 229.63"><defs><style>.cls-1{fill:#174e9d;}.cls-2{fill:#44ade9;}.cls-3{fill:#b3cb31;}.cls-4{fill:#868687;}.cls-5{fill:#c40018;}</style></defs><g id="レイヤー_2" data-name="レイヤー 2"><g id="rayout"><polygon class="cls-1" points="148.17 85.52 191.84 55.72 191.84 42.22 148.15 72.33 148.17 85.52"/><path class="cls-2" d="M202.31,8V22.37L175.94,40.43a23.22,23.22,0,0,0-10.08,19.15v.56l26-17.92V55.71l-26,17.77v41.87L154,115.06l.09-55.49a35.05,35.05,0,0,1,15.19-28.84Z"/><path class="cls-3" d="M202.31,8V49a23.22,23.22,0,0,1-10,19.11L171.76,82.26v14.3l27.12-18.64A35.06,35.06,0,0,0,214.08,49V0Z"/><path class="cls-1" d="M154,115.07v2.52a5.84,5.84,0,0,0,9.13,4.83l7.69-5.25-.22-13.45Z"/><path class="cls-4" d="M140.47,147.64h1.35c2.62,0,4.23-1.65,4.23-3.88a4,4,0,0,0-4-4,3.82,3.82,0,0,0-3.77,3.31h-3.93a7.83,7.83,0,0,1,15.63.58,6.29,6.29,0,0,1-2.92,5.66,6.89,6.89,0,0,1,3.23,6,8,8,0,0,1-8.32,8.39c-3.69,0-7-2.46-7.77-7.05h3.92c.73,1.89,1.85,3.12,4.08,3.12a4.35,4.35,0,0,0-.07-8.7h-1.66Z"/><path class="cls-4" d="M153.26,143.76a7.78,7.78,0,1,1,15.56,0v12.09a7.78,7.78,0,1,1-15.56,0Zm11.63.23c0-2.66-1.54-4.2-3.85-4.2s-3.85,1.54-3.85,4.2v11.63c0,2.65,1.54,4.19,3.85,4.19s3.85-1.54,3.85-4.19Z"/><path class="cls-4" d="M182.38,136.09H197V140h-10.9v6.2a6.69,6.69,0,0,1,4.39-1.5,6.83,6.83,0,0,1,4.89,2c1.5,1.62,2.16,3,2.16,7.51,0,3.66-.5,5.08-1.7,6.58a7.85,7.85,0,0,1-13.93-4.19h3.92a3.74,3.74,0,0,0,3.93,3.19c3.85,0,3.85-3.31,3.85-5.89,0-3-.73-5.27-4-5.27a3.76,3.76,0,0,0-3.54,2.27h-3.69Z"/><path class="cls-4" d="M200.27,143.76a7.78,7.78,0,1,1,15.56,0v12.09a7.78,7.78,0,1,1-15.56,0Zm11.63.23c0-2.66-1.54-4.2-3.85-4.2s-3.85,1.54-3.85,4.2v11.63c0,2.65,1.54,4.19,3.85,4.19s3.85-1.54,3.85-4.19Z"/><polygon class="cls-4" points="172.98 146.35 178.19 149.93 172.98 153.5 172.98 146.35"/><polygon class="cls-4" points="125 146.35 130.2 149.93 125 153.5 125 146.35"/><polygon class="cls-4" points="118.31 146.35 123.52 149.93 118.31 153.5 118.31 146.35"/><polygon class="cls-4" points="226.66 146.35 231.87 149.93 226.66 153.5 226.66 146.35"/><polygon class="cls-4" points="219.98 146.35 225.19 149.93 219.98 153.5 219.98 146.35"/><path class="cls-5" d="M10.74,204.64l-3.95-8.07H4v8.07H0V184.42H7.92c4.12,0,6.57,2.81,6.57,6.19a5.45,5.45,0,0,1-3.7,5.31l4.52,8.72Zm-3.07-16.7H4v5.34H7.67a2.68,2.68,0,1,0,0-5.34"/><polygon class="cls-5" points="31.23 204.64 23.22 192.23 23.22 204.64 19.28 204.64 19.28 184.42 22.8 184.42 30.81 196.8 30.81 184.42 34.76 184.42 34.76 204.64 31.23 204.64"/><polygon class="cls-4" points="55.49 187.94 55.49 204.64 51.55 204.64 51.55 187.94 46.26 187.94 46.26 184.42 60.78 184.42 60.78 187.94 55.49 187.94"/><polygon class="cls-4" points="75.5 204.64 75.5 196.18 68.65 196.18 68.65 204.64 64.7 204.64 64.7 184.42 68.65 184.42 68.65 192.68 75.5 192.68 75.5 184.42 79.45 184.42 79.45 204.64 75.5 204.64"/><polygon class="cls-4" points="84.7 204.64 84.7 184.42 98.03 184.42 98.03 187.94 88.65 187.94 88.65 192.68 96.63 192.68 96.63 196.2 88.65 196.2 88.65 201.12 98.03 201.12 98.03 204.64 84.7 204.64"/><polygon points="114.13 187.94 114.13 192.91 122.12 192.91 122.12 196.43 114.13 196.43 114.13 204.64 110.19 204.64 110.19 184.42 123.51 184.42 123.51 187.94 114.13 187.94"/><path d="M134.83,204.81c-4.14,0-7.44-2.81-7.44-7.1V184.42h4v13.15c0,2.33,1.36,3.72,3.49,3.72a3.37,3.37,0,0,0,3.53-3.72V184.42h3.92v13.29c0,4.29-3.3,7.1-7.45,7.1"/><polygon points="155.3 187.94 155.3 204.64 151.35 204.64 151.35 187.94 146.06 187.94 146.06 184.42 160.58 184.42 160.58 187.94 155.3 187.94"/><path d="M171.8,204.81c-4.15,0-7.44-2.81-7.44-7.1V184.42h3.94v13.15c0,2.33,1.37,3.72,3.5,3.72a3.37,3.37,0,0,0,3.52-3.72V184.42h3.92v13.29c0,4.29-3.3,7.1-7.44,7.1"/><path d="M195,204.64l-3.94-8.07h-2.84v8.07h-4V184.42h7.92c4.12,0,6.56,2.81,6.56,6.19a5.44,5.44,0,0,1-3.69,5.31l4.52,8.72ZM192,187.94h-3.72v5.34H192a2.68,2.68,0,1,0,0-5.34"/><polygon points="203.57 204.64 203.57 184.42 216.89 184.42 216.89 187.94 207.51 187.94 207.51 192.68 215.5 192.68 215.5 196.2 207.51 196.2 207.51 201.12 216.89 201.12 216.89 204.64 203.57 204.64"/><path d="M236.89,197H233v7.61h-3.95V184.42h7.84c4.17,0,6.67,2.87,6.67,6.3s-2.5,6.31-6.67,6.31m-.2-9.09H233v5.54h3.69a2.77,2.77,0,1,0,0-5.54"/><path d="M258.29,204.64l-3.94-8.07h-2.84v8.07h-3.95V184.42h7.92c4.12,0,6.56,2.81,6.56,6.19a5.44,5.44,0,0,1-3.69,5.31l4.52,8.72Zm-3.06-16.7h-3.72v5.34h3.72a2.68,2.68,0,1,0,0-5.34"/><path d="M279,202.6a7.87,7.87,0,0,1-10.94,0c-2-2-2-4.58-2-8.07s-.05-6,2-8.07a7.87,7.87,0,0,1,10.94,0c2,2,2,4.57,2,8.07s0,6-2,8.07m-2.93-13.75a3.53,3.53,0,0,0-5.08,0c-.77.85-1,1.79-1,5.68s.2,4.83,1,5.68a3.53,3.53,0,0,0,5.08,0c.77-.85,1-1.79,1-5.68s-.22-4.83-1-5.68"/><path d="M288.58,204.81a6.65,6.65,0,0,1-5.2-2.07l2.62-2.59a3.2,3.2,0,0,0,2.58,1.14c1.93,0,3.18-1.14,3.18-3.47v-13.4h3.95V198c0,4.46-3.38,6.82-7.13,6.82"/><polygon points="300.79 204.64 300.79 184.42 314.11 184.42 314.11 187.94 304.74 187.94 304.74 192.68 312.72 192.68 312.72 196.2 304.74 196.2 304.74 201.12 314.11 201.12 314.11 204.64 300.79 204.64"/><path d="M325.12,204.81a7.47,7.47,0,0,1-5.46-2.21c-2-2-2-4.58-2-8.07s-.06-6,2-8.07a7.47,7.47,0,0,1,5.46-2.21,7.12,7.12,0,0,1,7.44,6.39h-4a3.35,3.35,0,0,0-3.41-2.87,3.28,3.28,0,0,0-2.53,1c-.77.85-1,1.82-1,5.71s.22,4.86,1,5.71a3.28,3.28,0,0,0,2.53,1,3.35,3.35,0,0,0,3.41-2.87h4a7.15,7.15,0,0,1-7.44,6.39"/><polygon points="344.72 187.94 344.72 204.64 340.77 204.64 340.77 187.94 335.49 187.94 335.49 184.42 350 184.42 350 187.94 344.72 187.94"/><path d="M75.78,217.68a22.72,22.72,0,0,0,.93,4.26c.63-.25,1.05-.4,1.72-.64l1.78-.59a3.31,3.31,0,0,0,.49-.2l.51,1.39A30.91,30.91,0,0,0,77,223.19c-2,.78-3,1.67-3,2.7,0,.65.41,1.07,1.25,1.29a10.79,10.79,0,0,0,2.1.17,14.11,14.11,0,0,0,4-.51l.12,1.53a9.94,9.94,0,0,0-1,.09,25.39,25.39,0,0,1-3,.19,7.25,7.25,0,0,1-3.7-.68,2.36,2.36,0,0,1-1.13-2.12,3,3,0,0,1,1.18-2.3,8.33,8.33,0,0,1,1.78-1.13,28.71,28.71,0,0,1-.93-3.64,3.86,3.86,0,0,0-.21-.86Z"/><path d="M86.47,222.83a5.21,5.21,0,0,0,1.29.36l1.06.16c.05-.52.18-1.49.28-2.09a15.4,15.4,0,0,1-1.94-.33l-.44-.09.13-1.24a9.68,9.68,0,0,0,2.39.51,19.57,19.57,0,0,0,.3-2.25v-.2l1.47.13a4.63,4.63,0,0,0-.21.9,5.69,5.69,0,0,0-.12.75c-.06.31-.07.44-.12.72h.52a11.12,11.12,0,0,0,2.59-.26l-.06,1.3-.55,0c-.83.07-1.28.1-1.68.1l-1,0c-.18,1.25-.21,1.52-.28,2.09h.75a11.2,11.2,0,0,0,2.49-.24l0,1.26c-.14,0-.18,0-.39,0a17.73,17.73,0,0,1-1.94.11c-.25,0-.41,0-1,0,0,.53,0,.8,0,1.08a1.76,1.76,0,0,0,.54,1.45,2.55,2.55,0,0,0,1.74.53c1.7,0,2.77-.83,2.77-2.16a3.11,3.11,0,0,0-1.23-2.27,4.17,4.17,0,0,0,1.36-.3,4.73,4.73,0,0,1,.62.8,3.61,3.61,0,0,1,.6,1.93,3.07,3.07,0,0,1-1.22,2.41,4.63,4.63,0,0,1-2.88.85,4,4,0,0,1-2.7-.84,3,3,0,0,1-.9-2.4,11.17,11.17,0,0,1,.06-1.16,14.29,14.29,0,0,1-1.91-.32,2.58,2.58,0,0,0-.46-.07Z"/><path d="M103.33,218.13a14.31,14.31,0,0,0-.73,3.24,32.31,32.31,0,0,0-.25,3.62v1.2h0a8.63,8.63,0,0,1,.72-2.05l.91.41a10.88,10.88,0,0,0-1.14,3.87c0,.05,0,.16,0,.29l-1.36.09c0-.22,0-.3-.07-.58a21.85,21.85,0,0,1-.35-3.92,23.64,23.64,0,0,1,.57-5.18,8.31,8.31,0,0,0,.19-1.18Zm3.5,5.48a3,3,0,0,0-1,1.94c0,.82.79,1.26,2.29,1.26a8.88,8.88,0,0,0,3.12-.49l.12,1.42-.51.08a15.83,15.83,0,0,1-2.73.25c-1.6,0-2.63-.36-3.19-1.09a2.1,2.1,0,0,1-.41-1.3,4.18,4.18,0,0,1,1.19-2.6Zm-2-4.21a9.13,9.13,0,0,0,2.26.21,13.94,13.94,0,0,0,3.72-.37l.07,1.35c-.1,0-.17,0-.93.11a22.42,22.42,0,0,1-2.82.18,14.12,14.12,0,0,1-1.94-.11l-.37,0Z"/><path d="M115,220.54a23.11,23.11,0,0,0,2.9-.58,16.89,16.89,0,0,1,3.85-.47c2.55,0,4.18,1.39,4.18,3.56a4.57,4.57,0,0,1-2.87,4.12,11.74,11.74,0,0,1-4.55,1.07,4.86,4.86,0,0,0-.57-1.43,12.08,12.08,0,0,0,3.58-.52c1.86-.61,2.94-1.78,2.94-3.21s-1-2.27-2.78-2.27a19.66,19.66,0,0,0-5.32.94,4.82,4.82,0,0,0-1,.36Z"/><path d="M134.19,217.71a5,5,0,0,0-.22.86c-.09.43-.16.71-.3,1.29a9.89,9.89,0,0,0,2.22-.4l.05,1.29a2.14,2.14,0,0,0-.45.07c-.49.09-1.28.18-2.14.25a27,27,0,0,1-1.46,3.86c-.31.66-.43.88-.94,1.8-.11.18-.2.34-.26.46l-1.27-.73a10.38,10.38,0,0,0,1.29-2.12,21.26,21.26,0,0,0,1.29-3.23h-2.17v-1.27a10.82,10.82,0,0,0,1.69.1h.79a11.84,11.84,0,0,0,.44-2.38Zm6.13,10.57a7.58,7.58,0,0,0-2.13-1.7c0,.15,0,.16,0,.28a2.36,2.36,0,0,1-.48,1.39,2.84,2.84,0,0,1-2.16.79c-1.7,0-2.78-.8-2.78-2.06s1.14-2.21,2.76-2.21a6.44,6.44,0,0,1,1.34.15c0-.68-.08-1.18-.08-1.7a6.29,6.29,0,0,1,.11-1.26l1.29.09a4.25,4.25,0,0,0-.17,1.28,17.07,17.07,0,0,0,.13,1.92,8.81,8.81,0,0,1,2.19,1.28c.29.22.29.24.41.33l.2.17Zm-4.7-2.38c-1,0-1.56.4-1.56,1s.53,1,1.44,1,1.46-.42,1.46-1.23c0-.14,0-.49,0-.5a4,4,0,0,0-1.32-.23m4.74-3.68a15.4,15.4,0,0,0-3.7-1.84l.66-1a19.12,19.12,0,0,1,3.65,1.75Z"/><path d="M152.3,218.53a19.15,19.15,0,0,0-1.65,1.49,38.24,38.24,0,0,1-3.12,2.52c-.42.33-.53.45-.53.61s0,.25,1.18,1.13a41,41,0,0,1,4.23,3.53c.16.16.23.2.37.34l-1.14,1.15a12.32,12.32,0,0,0-1.73-1.82,37.51,37.51,0,0,0-3.4-2.81c-.82-.64-1-1-1-1.52a1.48,1.48,0,0,1,.41-1,7.3,7.3,0,0,1,1.16-.93,20.92,20.92,0,0,0,4-3.68Zm-.13,3.86a8.64,8.64,0,0,0-1.26-1.79l.83-.46A7.37,7.37,0,0,1,153,221.9Zm1.35-.78a9,9,0,0,0-1.26-1.74l.83-.45a8.15,8.15,0,0,1,1.26,1.7Z"/><path d="M179.61,217.53a10.11,10.11,0,0,0-.08,1.29,14.16,14.16,0,0,0,.36,3.08,10.93,10.93,0,0,0,2,3.72,11.92,11.92,0,0,0,1.84,1.76,8.3,8.3,0,0,0,1.31.85,4.22,4.22,0,0,0-.89,1.23,13.25,13.25,0,0,1-3.43-3.24,11,11,0,0,1-1.75-3.88,10.6,10.6,0,0,1-1,2.79,9.52,9.52,0,0,1-2,2.63,11.12,11.12,0,0,1-2.22,1.68,3.57,3.57,0,0,0-.9-1.13,9,9,0,0,0,3.08-2.43,10.7,10.7,0,0,0,2.29-7.24,8.54,8.54,0,0,0-.05-1.11Z"/><path d="M192.33,217.66a23.55,23.55,0,0,0,.93,4.26c.64-.25,1.05-.4,1.73-.64l1.78-.59a4.53,4.53,0,0,0,.49-.2l.5,1.39a30.82,30.82,0,0,0-4.23,1.29c-2,.78-3,1.68-3,2.7,0,.65.41,1.07,1.24,1.29a10.87,10.87,0,0,0,2.1.17,14.18,14.18,0,0,0,4-.51l.12,1.53a10.26,10.26,0,0,0-1,.09,25.35,25.35,0,0,1-3,.19,7.22,7.22,0,0,1-3.7-.68,2.37,2.37,0,0,1-1.14-2.12,3,3,0,0,1,1.19-2.3A8.08,8.08,0,0,1,192,222.4a28.71,28.71,0,0,1-.93-3.64,4.22,4.22,0,0,0-.22-.86Z"/><path d="M205.26,228.2a9.55,9.55,0,0,0,.06,1.34H204a9.66,9.66,0,0,0,.08-1.35v-3.68a12,12,0,0,1-1.63,1.33,4.14,4.14,0,0,0-.6-1.12,9.6,9.6,0,0,0,2.36-1.91,8.32,8.32,0,0,0,1.49-2.18h-2.29a8.88,8.88,0,0,0-1.1.06v-1.24a8.6,8.6,0,0,0,1.05.05h.72v-1.17a6.23,6.23,0,0,0-.08-1h1.35a5.9,5.9,0,0,0-.08,1v1.14h.64a4.43,4.43,0,0,0,.77,0l.55.6a4.35,4.35,0,0,0-.3.53,10.59,10.59,0,0,1-1.39,2.3,8.18,8.18,0,0,0,2.13,1.74,4.74,4.74,0,0,0-.62,1.07,7.62,7.62,0,0,1-1.77-1.56Zm5.56-.46h1.79a11,11,0,0,0,1.49-.08V229a9.61,9.61,0,0,0-1.49-.09H208a9.27,9.27,0,0,0-1.47.09v-1.38a11.44,11.44,0,0,0,1.49.08h1.59v-5.37h-1.12c-.48,0-.9,0-1.31.07v-1.3a8.84,8.84,0,0,0,1.31.08h1.12v-2.55a8.2,8.2,0,0,0-.1-1.32h1.41a7,7,0,0,0-.09,1.31v2.56h1.54a8.6,8.6,0,0,0,1.3-.08v1.3a12.92,12.92,0,0,0-1.3-.07h-1.54Z"/><path d="M219.33,221.53a13.06,13.06,0,0,1-2.23,1.25,3.66,3.66,0,0,0-.69-1.11,11.52,11.52,0,0,0,5.51-4.26h1.32a8.61,8.61,0,0,0,2.23,2.28,14.17,14.17,0,0,0,3.52,1.92,4.49,4.49,0,0,0-.65,1.24,15.69,15.69,0,0,1-2.38-1.33v1.07a9.88,9.88,0,0,0-1.17-.05h-4.37a9.3,9.3,0,0,0-1.09.06Zm-.79,3.47a12.61,12.61,0,0,0-1.55.08v-1.3a13.1,13.1,0,0,0,1.55.08h8.23a12.43,12.43,0,0,0,1.54-.08v1.3a12.79,12.79,0,0,0-1.54-.08h-4.65a17.9,17.9,0,0,1-1.5,2.81c3.11-.23,3.11-.23,4.61-.41-.56-.62-.82-.9-1.45-1.51l1-.55a27.46,27.46,0,0,1,3.13,3.52l-1.05.73c-.43-.65-.59-.86-.85-1.22-2.21.29-4.73.55-6.71.69-1.08.08-1.59.14-1.93.2l-.2-1.35.75,0,.61,0,.65,0a17.44,17.44,0,0,0,1.53-2.88Zm6.25-3.6c.39,0,.65,0,.93,0a11.76,11.76,0,0,1-3.11-2.88,12.09,12.09,0,0,1-3,2.88,7.33,7.33,0,0,0,.86,0Z"/><path d="M236,217.65a22.72,22.72,0,0,0,.93,4.26c.64-.25,1.05-.39,1.73-.63l1.78-.6a4.53,4.53,0,0,0,.49-.2l.5,1.39a32.28,32.28,0,0,0-4.23,1.29c-2,.79-3.05,1.68-3.05,2.7,0,.65.42,1.08,1.25,1.29a10.87,10.87,0,0,0,2.1.17,14.6,14.6,0,0,0,4-.5l.12,1.52c-.28,0-.32,0-1,.1a27.25,27.25,0,0,1-3,.18,7.41,7.41,0,0,1-3.71-.67,2.39,2.39,0,0,1-1.13-2.13,3.06,3.06,0,0,1,1.18-2.3,8.18,8.18,0,0,1,1.79-1.13,30,30,0,0,1-.94-3.63,3.85,3.85,0,0,0-.21-.87Z"/><path d="M246.71,219.07a4.61,4.61,0,0,0-1,.07v-1.21a5.13,5.13,0,0,0,1.13.08h1.31a6.89,6.89,0,0,0,1.14-.08v1.21a4.22,4.22,0,0,0-.9-.07h-.17v2.82a3.88,3.88,0,0,0,.89-.06V223a6.13,6.13,0,0,0-.89,0v2.75c.5-.2.73-.3,1.39-.61v1.16c-1.23.57-2,.87-3.09,1.28a4.93,4.93,0,0,0-.69.3l-.32-1.29a8.08,8.08,0,0,0,1.55-.43v-3.16h-.25a6,6,0,0,0-.9.06v-1.15a5.89,5.89,0,0,0,.92.06h.23v-2.82Zm10.67,7.05c-.21.19-1.15.92-1.42,1.09a7.82,7.82,0,0,0,2.18.94,8.15,8.15,0,0,0-.62,1.12,8.64,8.64,0,0,1-2.41-1.33,6.06,6.06,0,0,1-1.39-1.47c0,.5.05.7.05,1.11v.88a7.24,7.24,0,0,0,.07,1.16h-1.26a9,9,0,0,0,.06-1.21v-.77c0-.18,0-.59,0-.67a3.09,3.09,0,0,1,0-.4,10.4,10.4,0,0,1-3.64,2.57,3.53,3.53,0,0,0-.76-1,10.19,10.19,0,0,0,2.43-1.16,7,7,0,0,0,1.69-1.43h-1.37a8.92,8.92,0,0,0-1.05,0,5.92,5.92,0,0,0,0-.82v-1a6.85,6.85,0,0,0,0-.84c.32,0,.66,0,1.09,0h4.77c.49,0,.85,0,1.14,0a6.64,6.64,0,0,0,0,.84v1.06a5.79,5.79,0,0,0,0,.8,2.28,2.28,0,0,0-.49,0Zm-8-4.91a6.65,6.65,0,0,0,1.27.08h5.84a7.81,7.81,0,0,0,1.26-.07v1.12a7.76,7.76,0,0,0-1.24-.07h-5.87a7.73,7.73,0,0,0-1.26.07Zm.29-2.63a5.52,5.52,0,0,0-.06-.93,8.18,8.18,0,0,0,1.06,0h5.62c.38,0,.8,0,1.08,0a7.14,7.14,0,0,0-.06.93v1.21a6.48,6.48,0,0,0,.06.9,9.75,9.75,0,0,0-1,0h-5.66a10.24,10.24,0,0,0-1,0,9,9,0,0,0,0-.93Zm2.25,0h-1.21v1.15H252Zm-.79,6h4.65v-.85h-4.65Zm3-6h-1.19v1.15h1.19Zm-.12,6.92a9.47,9.47,0,0,0,1.13,1.1,5.66,5.66,0,0,0,1.27-1.1H254Zm2.32-6.92h-1.25v1.15h1.25Z"/><path d="M261.68,219a9.88,9.88,0,0,0-.08-1.46h1.32a8.27,8.27,0,0,0-.08,1.47v1.84h.07a8.56,8.56,0,0,0,1-.05v1.17a6.94,6.94,0,0,0-1,0h-.08v3.49c.4-.17.59-.26,1.29-.61l.05,1.18c-.95.47-1.74.81-3.22,1.41-.23.1-.4.17-.59.27l-.26-1.29a8.67,8.67,0,0,0,1.58-.49v-4h-.36a6.39,6.39,0,0,0-1.08.07v-1.21a7.36,7.36,0,0,0,1.1.07h.33Zm4.06,7.3c-.4,0-.71,0-1.15,0a5.46,5.46,0,0,0,.06-.95v-2.28a7,7,0,0,0-.06-1c.32,0,.68,0,1.28,0h4.45c.58,0,.89,0,1.25,0a7,7,0,0,0-.06,1.05v2.18a6.93,6.93,0,0,0,.06,1,10.9,10.9,0,0,0-1.1,0h-1.05V228c0,.27.1.31,1,.31.58,0,.81-.06.89-.19a4.25,4.25,0,0,0,.14-1.35,3.63,3.63,0,0,0,1.09.41c-.08,1.19-.18,1.59-.5,1.86s-.69.32-1.77.32-1.35,0-1.64-.24a.73.73,0,0,1-.32-.72v-2.14h-1.11a3.46,3.46,0,0,1-.18.89,3.27,3.27,0,0,1-1.63,1.82,7.57,7.57,0,0,1-2,.67,3.09,3.09,0,0,0-.65-1.08c2.28-.3,3.16-.92,3.32-2.3Zm4.84-7.82a13,13,0,0,0,1.4-.07v1a14,14,0,0,0-1.4,0,12,12,0,0,1-.51,1.1H271a9.13,9.13,0,0,0,1.34-.06v1.12a10.73,10.73,0,0,0-1.38-.06h-5.55c-.61,0-.82,0-1.23,0v-1.09a10.51,10.51,0,0,0,1.21.05H266a6.61,6.61,0,0,0-.43-1.1h-.18a9,9,0,0,0-1.13,0v-1a9.06,9.06,0,0,0,1.39.07h1.79v-.32a4.82,4.82,0,0,0-.07-.82h1.32a3.39,3.39,0,0,0-.07.82v.32Zm-4.82,5.26h4.61V223h-4.61Zm0,1.65h4.61v-.78h-4.61Zm3.12-4.88a6.83,6.83,0,0,0,.51-1.1h-2.65a7.91,7.91,0,0,1,.43,1.1Z"/></g></g></svg>