<?xml version="1.0" encoding="UTF-8"?>
<svg xmlns="http://www.w3.org/2000/svg" version="1.1" viewBox="0 0 484.4 335.1">
  <defs>
    <style>
      .cls-1, .cls-2 {
        fill: none;
      }

      .cls-3 {
        fill: #010101;
      }

      .cls-4 {
        fill: #707070;
      }

      .cls-5 {
        fill: #fff;
      }

      .cls-6 {
        fill: #323332;
      }

      .cls-7 {
        display: none;
        fill: #fb6067;
      }

      .cls-8 {
        fill: #f5a302;
        isolation: isolate;
        opacity: .9;
      }

      .cls-2 {
        stroke: #707070;
      }
    </style>
  </defs>
  <!-- Generator: Adobe Illustrator 28.6.0, SVG Export Plug-In . SVG Version: 1.2.0 Build 709)  -->
  <g>
    <g id="_レイヤー_1" data-name="レイヤー_1">
      <path id="_パス_4074" data-name="パス_4074" class="cls-3" d="M34.5,40.3l-1.4,14.5h-5l-1.4-14.5h7.8ZM22.5,40.3l-1.4,14.5h-5l-1.4-14.5h7.8ZM52.7,81.5h-6.1v-16.6c-1.7,1.5-3.6,2.8-5.5,4l-2.8-4.7c3-1.9,5.7-4.2,8-6.9,2.2-2.5,4-5.3,5.3-8.3h-11.1v-5.4h6.2v-6.2h6.2v6.2h5.7l1.3,1.3c-1.4,4.7-3.7,9-6.7,12.8.5.4,1.1.9,1.8,1.5,1.7-1.9,3.2-3.8,4.6-5.9l3.8,2.6c-1.5,2.1-3.2,4-4.9,5.8l2.7,1.9-3.1,5.2c-1.9-1.5-3.7-3-5.4-4.5v17.2h0ZM59.6,81.3l-4.2-4.2c2.4-2.1,4.4-4.7,5.9-7.5,1.6-2.9,2.8-6,3.4-9.2.7-3.9,1-7.9,1-11.9v-4.3h-5.4v-5.3h24.5v23.9c0,2.8-.2,5.7-.5,8.5-.1,1.9-.5,3.9-1.1,5.7-.5,1.1-1.3,2-2.4,2.6-1.3.8-2.8,1.2-4.3,1.1h-7l-.8-6.2h5.7c.5,0,1-.1,1.5-.2.4-.2.8-.4,1.1-.8.4-.8.7-1.7.8-2.7.2-1.4.4-3.2.5-5.2s.2-4.4.2-7,0-6.4-.1-14.3h-6.1v4.6c.1,6.1-.7,12.2-2.6,18-1.9,5-5.2,9.8-10.1,14.4h0ZM127.4,78.6h-29v2.6h-6.7v-42.5h42.6v42.1h-6.8v-2.2h-.1ZM98.4,73.1h29v-29.1h-29v29.1ZM122.8,68.2h-19.9v-19.2h19.9v19.2ZM116.7,63.1v-9.4h-7.6v9.4h7.6ZM161.7,80.9l-1.8-6.1c6.5-.7,11.3-2.2,14.6-4.5,3.3-2.3,4.9-5.6,4.9-10.1.2-3.4-1.1-6.7-3.5-9-2.3-2.3-5.6-3.6-9.7-4-.3,9.1-2,16.5-5.1,22.2s-6.9,8.5-11.6,8.5-5.5-1.4-7.3-4.3c-1.9-2.9-2.9-6.3-2.8-9.8v-.6c0-5.6,2.3-10.6,6.8-15,4.6-4.4,10.8-6.9,17.1-7h1c6.6,0,12,1.7,16.2,5s6.6,8.3,6.4,13.6c0,6.3-2.1,11.2-6.4,14.8-4.4,3.6-10.6,5.7-18.8,6.3h0ZM159.2,47.9c-3.7.9-6.9,2.9-9.3,5.8-2.5,2.7-3.8,6.2-3.8,9.9s.3,3.5,1,5.1c.6,1.6,1.5,2.3,2.7,2.3,2.3,0,4.4-2.2,6.2-6.7,1.9-5.2,3.1-10.8,3.2-16.4h0ZM217.9,78.7h-25.5v-36.8h8.1v30.7h17.5v6.1h-.1ZM230.6,66.2v12.5h-8.1v-36.8h13.9c4.8,0,8.4,1,10.9,2.9s3.7,4.8,3.7,8.5c.1,3.6-1.4,7-4.1,9.3s-6.3,3.5-10.7,3.5h-5.6ZM230.6,47.7v12.6h2.1c4,0,6.7-.6,8-1.7,1.4-1.3,2.1-3.2,2-5.1.1-1.7-.6-3.3-1.9-4.3s-3.8-1.5-7.5-1.5h-2.7ZM291.2,48.2c-1.3.2-2.5.6-3.7,1.1-1.4.6-2.8,1.2-4.2,1.9l-6.7,3.6-3-4.3c.6-.3,2.5-1.1,5.7-2.6-4.8,0-12.1.2-21.7.6l-.2-6.1c4.6-.2,13.4-.2,26.4-.2h5l2.4,6ZM294.3,79.2c-5.8.7-11.6,1.1-17.5,1.2-8.6,0-14.6-.9-17.9-2.6-3.3-1.7-4.9-4.3-4.9-7.6s2.3-8.1,6.8-11.5l4.9,3.6c-3.1,2.9-4.6,5.4-4.6,7.3s.1,1,.3,1.5c.3.6.8,1.1,1.4,1.4,1.3.6,2.7,1,4.1,1.1,2.5.3,5.1.5,7.6.5h1.8c5.7,0,11.4-.5,17-1.3l1,6.4ZM302.4,43.4l-3.5,1.3c-1-2.5-2.1-5-3.4-7.5l3.4-1.2c1.2,2.4,2.4,4.9,3.5,7.4h0ZM295.6,44.4l-3.5,1.3c-1.2-3.1-2.4-5.6-3.4-7.5l3.4-1.3c1.4,2.5,2.5,5,3.5,7.5h0ZM324.2,67.8c-1.5,7.1-7,11.6-16.7,13.6l-2.2-5.5c6.8-1.4,10.8-4.1,12.1-8.1h-11.6v-5.4h12.4v-4.8h-3.5v-2.6c-2.8,1.7-5.8,3.2-8.9,4.4l-3-5c2.5-.9,4.9-2.1,7.2-3.6l-4.8-3.8,3.8-3.9h-2.1v-5.2h23.9c.9,1.4,1.9,2.7,3.1,3.9,2.3-1.4,4.4-3.1,6.4-4.9l4.4,3.8c-2.1,1.8-4.4,3.5-6.8,4.9.9.7,1.6,1.3,2.2,1.7,2.4-1.6,4.6-3.4,6.8-5.3l4.4,4c-1.9,1.5-3.9,3-6.1,4.4,2.4,1.2,4.9,2.3,7.4,3.1l-4,5.4c-2.8-1.1-5.4-2.4-7.9-4v2.6h-4.1v4.8h12.8v5.4h-13.1v6c-.1.4.2.9.6,1.1.9.2,1.8.3,2.7.3,1.8,0,2.9-.2,3.2-.5.3-.3.5-2.2.5-5.8l5.7.8v5.9c0,1.1-.3,2.2-1,3.1-.7.8-1.7,1.4-2.8,1.7-2.1.4-4.3.6-6.4.5-4.1,0-6.6-.5-7.6-1.5s-1.6-2.6-1.5-4.2v-7.4h-5.5ZM309.6,43.2l5.5,4.1c1.7-1.2,3.2-2.6,4.7-4.1h-10.2ZM318.6,52.3h17.7c-3.3-2.4-6.3-5.1-8.9-8.3-2.6,3.1-5.5,5.9-8.8,8.3h0ZM324.6,57.6v4.8h5.1v-4.8h-5.1ZM401.1,80.3h-35v-5.9h14.5v-9.7h-11.6v-5.8h11.6v-7.8h-12.5v-5.7h13.8c-1.4-1.4-3.4-3.3-5.9-5.5l5.3-3.8c3.1,2.6,6.1,5.3,8.9,8.2l-1.5,1.2h11.5v5.7h-12.5v7.8h11.3v5.8h-11.3v9.7h13.4v5.8ZM367.9,44l-3.9,5.2c-2.6-2.4-5.5-4.9-8.8-7.5l3.8-4.7c3.1,2.1,6,4.4,8.9,7h0ZM365.7,54.9l-3.8,5.2c-2.7-2.6-5.6-5-8.6-7.3l3.5-4.9c3.1,2.2,6.1,4.5,8.9,7h0ZM367.4,63.2c-.8,3.1-1.9,6.2-3.2,9.1-1.3,3.1-2.8,6-4.6,8.8l-6-3.3c1.9-2.7,3.5-5.6,4.7-8.7,1.2-2.6,2.2-5.2,3.1-7.9l6,2ZM435.9,73.1h-7v-9.6c-5.8,2.8-8.7,5.5-8.7,8s2.8,3.7,8.4,3.7h2.7c5.5.1,11.1-.2,16.6-.8l.3,6.1c-4.6.4-9.1.7-13.5.7-8.4,0-14.1-.7-17-2.2-2.7-1.1-4.4-3.8-4.3-6.7,0-4.9,4.7-9.8,14.2-14.6-.5-.6-1.2-.9-1.9-.8-2,.1-4,.7-5.7,1.6-2.8,1.4-5.4,3.3-7.7,5.4-2,1.8-3.4,2.9-4.3,3.6l-4.2-4.6c5.2-3.7,9.6-8.5,12.8-14.1h-10.3v-5.8h13c.6-1.8,1.2-3.7,1.5-5.5l7.2.4c-.5,2-.9,3.7-1.4,5.2h16.1v5.8h-18.5c-.4.8-1.2,2.1-2.3,3.9,1.5-.5,3.1-.8,4.7-.8,3.3,0,5.7,1,7.2,3.1,2.1-.9,6.6-2.7,13.4-5.4l2.9,5.8c-3.2,1.1-8,2.8-14.4,5.1.2,1.3.2,2.6.2,3.9v8.6Z"/>
      <path id="_パス_4076" data-name="パス_4076" class="cls-3" d="M49.9,264.9c-1.3.2-2.5.6-3.7,1.1-1.4.6-2.8,1.2-4.2,1.9l-6.7,3.6-3-4.3c.6-.3,2.5-1.1,5.7-2.6-4.8,0-12.1.2-21.7.6l-.2-6.1c4.6-.2,13.4-.2,26.4-.2h5l2.4,6ZM53,295.9c-5.8.7-11.6,1.1-17.5,1.2-8.6,0-14.6-.9-17.9-2.6-3.3-1.7-4.9-4.3-4.9-7.6s2.3-8.1,6.8-11.5l4.9,3.6c-3.1,2.9-4.6,5.4-4.6,7.3s.1,1,.3,1.5c.3.6.8,1.1,1.4,1.4,1.3.6,2.7,1,4.1,1.1,2.5.3,5.1.5,7.6.5h1.8c5.7,0,11.4-.5,17-1.3l1,6.4ZM61,260.1l-3.5,1.3c-1-2.5-2.1-5-3.4-7.5l3.4-1.2c1.3,2.4,2.4,4.9,3.5,7.4ZM54.3,261.2l-3.5,1.3c-1.2-3.1-2.4-5.6-3.4-7.5l3.4-1.3c1.3,2.4,2.5,4.9,3.5,7.5h0ZM74.1,282.2c-2.4,3.5-5.3,6.7-8.5,9.4l-4-4.2c2.3-2,4.3-4.2,6.2-6.7,2-2.5,3.7-5.2,5.1-8h-9v-5.5h10.2v-5.2c-3.5.5-6.5.8-9,1l-1.1-5.3c3.9-.3,7.9-.7,11.8-1.4,3.6-.5,7.1-1.3,10.5-2.5l3.2,5.1c-2.8.9-5.7,1.6-8.6,2.1v6.2h8.4v5.5h-8.4c2.4,3.2,5.4,5.8,8.8,7.8l-3.5,5.3c-1.9-1.3-3.6-2.8-5.2-4.4v16.8h-6.6v-16h-.3ZM107.5,292.6c0,1.3-.6,2.6-1.7,3.5-1,.9-2.3,1.5-3.6,1.5h-6.5l-1.1-6h4.6c1.2,0,1.8-.5,1.8-1.5v-35.9h6.5v38.4ZM97.2,286.8h-6.3v-30.2h6.3v30.2ZM149.8,283h-9.5v14.4h-7v-14.4h-9.7c-.8,5.6-3.1,10.9-6.6,15.3l-5.2-3.4c3.7-5,5.5-11.7,5.5-20.3v-19.4h39.5v36.9c0,1.4-.6,2.8-1.8,3.7-1.2,1-2.7,1.6-4.3,1.5h-7.1l-1-6.3h5.6c1.1,0,1.6-.4,1.6-1.2v-6.8ZM133.2,260.8h-9.1v5.6h9.1v-5.6ZM149.8,266.4v-5.6h-9.5v5.6h9.5ZM140.2,277.5h9.5v-5.8h-9.5v5.8ZM124.1,277.5h9.2v-5.8h-9.1v2.2c0,1.1-.1,2.3-.1,3.6ZM188.8,281.4c-.9,2.6-2,5.1-3.2,7.6-1,2.2-2.3,4.3-3.8,6.2-1,1.3-2.6,2-4.3,2-3.5,0-6.5-2.2-9.1-6.5-2.6-4.6-3.9-9.7-3.8-15,0-1.8.2-4.6.5-8.2s.5-6.3.5-8.2h7.5c0,1.6-.3,4.3-.7,8.1-.4,2.7-.6,5.4-.6,8.1-.1,3.4.6,6.7,1.9,9.9,1.3,2.8,2.3,4.2,3.2,4.2,1.3,0,3.3-3.7,6-11.2l5.9,3ZM209,290.5l-7.3.5c0-5.2-.9-10.3-2.6-15.2-1.6-4.8-4-9.2-7.2-13.2l5.9-3c7.4,8.3,11.2,18.6,11.2,30.9ZM230.5,254.3c0,.6.1,1.6.1,3.1s0,2.2-.1,3.2h16.1v5.9h-16.8c-.6,6-1.9,11.9-4.1,17.5-2.2,6.3-4.7,11.1-7.4,14.6l-5.7-3.3c2.8-4.1,5-8.6,6.5-13.3,1.8-5,3-10.2,3.7-15.5h-8.5v-5.9h9c.1-2.6.2-4.7.2-6.4h7ZM256.9,269.2l-.3,5.8c-.9,0-1.9-.1-2.9-.1-5.5,0-12.4.4-20.5,1.1l-.4-5.8c6.8-.7,13.5-1.1,20.3-1.1s2.8,0,3.8.1h0ZM258.2,296.3c-3.8.6-7.7.8-11.6.8s-5.9-.2-8.8-.6c-2.2-.2-4.3-1.2-6-2.6-1.4-1.3-2.2-3-2.2-4.9s1.3-5.1,4-7.8l5.2,2.4c-1.6,2-2.4,3.5-2.4,4.7s.3,1.1.9,1.4c1.1.5,2.3.8,3.5.8,2,.2,4,.3,6,.3,3.7,0,7.3-.3,11-1l.4,6.5ZM280.5,254.3c0,.6.1,1.6.1,3.1s0,2.2-.1,3.2h16.1v5.9h-16.8c-.6,6-1.9,11.9-4.1,17.5-2.2,6.3-4.7,11.1-7.4,14.6l-5.7-3.3c2.8-4.1,5-8.6,6.5-13.3,1.8-5,3-10.2,3.7-15.5h-8.5v-5.9h9c.1-2.6.2-4.7.2-6.4h7ZM306.9,269.2l-.3,5.8c-.9,0-1.9-.1-2.9-.1-5.5,0-12.4.4-20.5,1.1l-.4-5.8c6.8-.7,13.5-1.1,20.3-1.1s2.8,0,3.8.1h0ZM308.2,296.3c-3.8.6-7.7.8-11.6.8s-5.9-.2-8.8-.6c-2.2-.2-4.3-1.2-6-2.6-1.4-1.3-2.2-3-2.2-4.9s1.3-5.1,4-7.8l5.2,2.4c-1.6,2-2.4,3.5-2.4,4.7s.3,1.1.9,1.4c1.1.5,2.3.8,3.5.8,2,.2,4,.3,6,.3,3.7,0,7.3-.3,11-1l.4,6.5ZM308.9,259.8l-3.5,1.3c-1.1-2.8-2.3-5.3-3.3-7.5l3.3-1.2c1.3,2.5,2.5,5,3.5,7.4ZM301.9,261.1l-3.6,1.3c-1.4-3.4-2.5-5.9-3.3-7.5l3.5-1.3c1.3,2.4,2.4,4.9,3.4,7.5h0ZM335.4,298.8l-2.8-5.8c7-2.6,10.5-7.5,10.5-14.6v-7.5h-15.8v-6h15.5v-9.7h7.2v9.7h9.6v6h-9.3v7.8c0,10.4-5,17.1-14.9,20.1h0ZM330.7,282c-2,2.9-3.8,6-5.3,9.2-.8,1.7-1.3,3.5-1.6,5.3h-5.4c-2.2-6-3.3-12.3-3.3-18.6.1-7.4,1.2-14.8,3.1-22l6.9,1c-1.2,4.1-2.2,8.2-2.9,12.5-.4,2.7-.6,5.4-.6,8.1s.1,5.2.4,7.7c.9-1.5,2.4-3.7,4.3-6.6l4.4,3.4ZM407,290.5l-3.6,6.2c-3.9-3.1-8.2-5.6-12.9-7.4l.2,1.1c0,.5.2,1,.2,1.4,0,2-1.1,3.5-3.4,4.5-3,1.2-6.1,1.7-9.3,1.5-3.1.1-6.2-.7-8.9-2.3-2.3-1.2-3.7-3.7-3.7-6.3-.1-2.6,1.2-5.1,3.4-6.6,2.5-1.7,5.4-2.5,8.3-2.4,2.1,0,4.2.1,6.2.5v-4.1h-17.1v-5.8h17.1v-4.8h-18.4v-5.8h18.4v-5.3h7v5.3h17.3v5.8h-17.3v4.8h14.8v5.8h-14.7v5.9c5.7,2.1,11.2,4.8,16.4,8h0ZM383.6,289.5v-3c-1.7-.5-3.4-.8-5.2-.8s-2.9.3-4.2.9c-1,.4-1.7,1.3-1.8,2.4,0,1.9,2,2.8,6.1,2.8,3.4.1,5.1-.7,5.1-2.3h0ZM437.2,275.8v-1.4c-.8-1.1-2.2-1.7-4.3-1.7s-2.2.5-3,1.4c-.8.8-1.3,1.9-1.3,3s.3,2,1,2.8c.6.7,1.6,1.1,2.6,1.1,1.4.1,2.8-.5,3.7-1.4.8-1.1,1.3-2.4,1.3-3.8ZM458.8,264.6h-14.5v9.2c1,2.4,1.5,4.9,1.4,7.5.2,4.6-1.7,9-5.2,11.9-3.5,3-8.1,4.7-13.9,5.1l-1.7-5.9c7.2-.6,11.7-3.1,13.5-7.7-1.8,1.3-4.1,2-6.3,2-2.6.1-5.2-.8-7.2-2.6-1.9-1.7-3-4.1-2.9-6.6,0-2.8,1-5.5,3.1-7.4,2.1-2,4.8-3,7.7-2.9,1.5,0,3,.3,4.3.8v-3.4h-23.9v-5.8h23.9v-4.9h7.2v4.9h14.5v5.8ZM484.5,257l-1.4,14.5h-5l-1.4-14.5h7.8ZM472.5,257l-1.4,14.5h-5l-1.4-14.5h7.8Z"/>
      <path id="_パス_4061" data-name="パス_4061" class="cls-2" d="M11.2,334.6h464.2"/>
      <path id="_パス_4062" data-name="パス_4062" class="cls-2" d="M11.2.5h464.2"/>
      <rect id="_長方形_417" data-name="長方形_417" class="cls-8" x="0" y="193.2" width="395" height="24"/>
      <path id="_パス_4075" data-name="パス_4075" class="cls-7" d="M61.3,200.4l3.3-20.5-3.2-.7c-1.7,8.6-4.5,11-12.3,11h-27.6c1.5-4.2,4.1-7.9,7.5-10.7,4.4-4,7.2-5.9,19.8-12.9,4.8-2.8,8.5-5.4,10.4-7.8,2.9-3.3,4.4-7.6,4.3-12,0-11-8.6-17.6-22.9-17.6s-11.5,1.4-15.8,4.3c-5,3.4-7.9,8.3-7.9,13.4s2.2,5,6.7,5,5.9-1.5,6.1-5.2c.2-5.3.3-6.3,1-8.6,1.4-4.2,4.4-6.4,8.8-6.4,6.7,0,11.2,5.4,11.2,13.7s-.7,6-2,8.7c-1.4,2.8-3.5,5.1-7.9,8.7-10.8,9-15.2,13.5-18.8,19-3.5,5.4-5.4,10.9-6.4,18.5h45.7ZM83.6,141.4h34.2l1.7-10.6h-38.9l-3.1,39.9,3.1.8c3.8-6.5,9.7-10.4,16-10.4s13.5,6.9,13.5,18.9-1.3,11.1-3.6,14.6c-2.1,3.1-5.6,4.9-9.3,4.8-2.8,0-5.5-1.1-7.4-3.1-1.7-1.8-2.6-4.3-2.7-7.8-.1-2.8-.3-3.5-.9-4.3-.9-1-2.6-1.6-4.8-1.6-4.4,0-6.7,1.9-6.7,5.5,0,7.8,9.7,13.8,22.1,13.8s25.7-9,25.7-23.2-8.6-21.4-22.5-21.4-12.4,2.2-18.3,7.7l1.9-23.6ZM131.3,147.8c0,12,6.7,19.7,17.3,19.7s17.4-7.7,17.4-19.8-6.6-19.6-17.4-19.6c-10.5,0-17.3,7.7-17.3,19.7ZM142.2,147.8c0-12.2,2-17.5,6.5-17.5s6.6,5.1,6.6,17.6-1.9,17.4-6.5,17.4c-4.7-.1-6.6-5.3-6.6-17.5ZM194.1,127.9l-53.5,71.8,2.9,2.4,53.6-71.9-3-2.3ZM171.6,182.2c0,12,6.7,19.7,17.3,19.7s17.4-7.8,17.4-19.7-6.7-19.7-17.5-19.7-17.2,7.7-17.2,19.7ZM182.5,182c0-12,2-17.3,6.5-17.3s6.6,5.1,6.6,17.5-1.9,17.4-6.5,17.4c-4.7-.1-6.6-5.3-6.6-17.6ZM215,164.9c0,10,2.9,19.4,8.1,25.8,5.6,7.1,14.9,11.2,25.5,11.2s19.7-4.1,25.4-11.2c5.2-6.5,8.1-15.8,8.1-25.8s-2.9-19.3-8.1-25.7c-5.7-7.2-14.8-11.2-25.4-11.2s-20,4.1-25.5,11.2c-5.2,6.6-8.1,15.7-8.1,25.7ZM228.9,164.9c0-10.9,1.5-19,4.8-25.5,3-5.9,8.1-8.9,14.8-8.9s11.6,2.9,14.7,8.9c3.3,6.5,4.8,14.3,4.8,25.5s-1.5,19.1-4.8,25.6c-2.7,5.7-8.5,9.2-14.7,8.9-6.7,0-11.8-3-14.8-8.9-3.3-6.6-4.8-14.5-4.8-25.6h0ZM310.9,164.9h7.3c10.3,0,12.5,1.9,13.7,11.1h3v-24.8h-3c-1,8.8-3.6,10.9-13.7,10.9h-7.3v-30h8.8c13.1,0,18.3,4.4,20.6,17.2l3.3-.3-1.4-19.7h-52.2v2.5c7.6.1,8.5,1.1,8.5,9.9v46.4c0,8.7-.8,9.6-8.5,9.9v2.5h29.7v-2.5c-8-.2-8.9-1.2-8.9-9.9v-23.2ZM370.2,164.9h7.3c10.3,0,12.5,1.9,13.7,11.1h3v-24.8h-3c-1,8.8-3.6,10.9-13.7,10.9h-7.3v-30h8.8c13.1,0,18.3,4.4,20.6,17.2l3.3-.3-1.4-19.7h-52.2v2.5c7.6.1,8.5,1.1,8.5,9.9v46.4c0,8.7-.8,9.6-8.5,9.9v2.5h29.7v-2.5c-8-.2-8.9-1.2-8.9-9.9v-23.2Z"/>
      <path id="_パス_4063" data-name="パス_4063" class="cls-2" d="M11.2,5.5h464.2"/>
      <path id="_パス_4064" data-name="パス_4064" class="cls-2" d="M11.2,330.2h464.2"/>
      <g id="_グループ_340" data-name="グループ_340">
        <g id="_パス_354" data-name="パス_354">
          <path class="cls-1" d="M385.5,199.7c-.7-.1-1.4-.2-2.1-.3-.4,0-.9-.1-1.3-.2-.5-.1-1-.3-1.4-.6-.8-.4-1.6-.9-2.3-1.4-.8-.5-1.4-1.1-1.8-1.9-.2-.4-.2-.9.2-1.2.4-.3.9-.6,1.5-.6.7,0,1.3,0,2,0,.8.1,1.6.2,2.4.4,1.1.3,2.1.6,3.1,1,1.1.4,2.2,1,3.3,1.6,1,.6,2,1.3,2.9,2.2"/>
          <path class="cls-4" d="M391.3,199.5c-.3-.3-.7-.7-1.1-1-.4-.3-.9-.6-1.4-.9-.5-.3-1-.6-1.6-.9-.6-.3-1.1-.5-1.7-.8-.5-.2-1.1-.4-1.6-.6-.5,0-1-.3-1.4-.4-.5,0-.9-.2-1.3-.3-.4,0-.7,0-1-.2h-1.2c-.2,0-.3,0-.5,0,0,0-.3,0-.4,0h-.3q0,0-.2,0s0,0,0,0c0,0,0,0,0,0,0,0,0,0,0,0,0,0,0,.2.2.3s.2.3.4.5c.3,0,.5.3.8.5.7.5,1.2.9,1.7,1.2.4.3.8.5,1.1.6.2,0,.5.2.8.2s.5.1.9.1h.5c.2,0,.3,0,.5.1.2,0,.4,0,.6.1.2,0,.5.1.7.1l-.4,2c-.2,0-.5-.1-.7-.1s-.4-.1-.6-.1-.3,0-.5-.1h-.4c-.4,0-.8-.1-1.1-.1-.3-.1-.7-.2-1.1-.3-.4-.2-.8-.4-1.3-.7s-1.1-.7-1.9-1.3c-.2-.2-.4-.3-.6-.5s-.3-.3-.5-.5c-.1,0-.3-.3-.4-.4,0-.2-.2-.3-.3-.5-.2-.2-.3-.4-.3-.6,0-.2,0-.4,0-.5v-.5c0,0,.1-.3.1-.4,0-.2.2-.3.3-.5s.3-.3.4-.4c.2,0,.3-.2.5-.3.2,0,.4-.2.6-.3.3,0,.5,0,.7,0s.5,0,.7,0h.8c.3,0,.5,0,.7,0,.2,0,.4,0,.8,0,.4.1.8.2,1.3.3s1.1.3,1.7.5c.6.2,1.3.4,2,.7.7.3,1.3.6,1.9.9.6.3,1.2.6,1.7,1,.5.3,1.1.7,1.5,1.1.5.4.9.7,1.3,1.1l-1.2,1.3Z"/>
        </g>
        <g id="_パス_355" data-name="パス_355">
          <path class="cls-5" d="M386.4,195.7c0-.6.3-1.1.6-1.5s.7-.7,1.2-.8c.4-.2.7-.3,1.1-.4.2,0,.3-.1.5-.1h1.8c1.1.1,2.5.2,4,.2s3,.1,4.2.2,2.2.1,2.5.1.6.1,1,.1c.3.1.7.2,1,.3.4.2.7.4,1,.6.4.3.7.6,1,.9.3.4,1.5,1.7,3,3.6,1.5,1.8,3.5,4.1,5.4,6.4s3.9,4.6,5.3,6.4,2.5,3.1,2.7,3.4.4.6.7,1c.2.3.4.7.5,1,0,.4,0,.8,0,1.1-.3.5-.6.9-1.1,1.3-.6.4-1.8,1.4-3.2,2.6s-3.2,2.6-4.9,4-3.4,2.8-4.8,3.9-2.5,2-3,2.3c-.4.3-.8.6-1.3.8-.3.2-.7.3-1.1.3s-.9-.2-1.2-.5c-.6-.4-1.1-.9-1.6-1.5-.6-.7-2-2.2-3.6-4.1s-3.6-4.2-5.5-6.5-3.8-4.4-5.2-6.1c-1.4-1.7-2.4-2.9-2.7-3.1-.2-.2-.4-.5-.5-.8s-.3-.7-.3-1.1c0-.5,0-.9,0-1.4s0-1.1.2-1.7c.2-.5.4-1.5.7-2.6s.5-2.4.8-3.7.5-2.4.7-3.2.3-1.4.3-1.4Z"/>
          <path class="cls-4" d="M405.4,234.2c-.2,0-.4,0-.6,0h-.6c-.2,0-.4,0-.6,0-.2,0-.4,0-.6-.2-.2,0-.3-.2-.5-.3s-.3-.2-.5-.4-.4-.3-.6-.5-.4-.4-.7-.6c-.4-.4-1-1.1-1.8-2s-1.7-2-2.8-3.2c-1-1.2-2.2-2.5-3.3-3.9-1.1-1.3-2.3-2.7-3.4-4-.7-.8-1.4-1.6-2-2.4-.6-.7-1.2-1.4-1.7-2s-1-1.1-1.3-1.5-.6-.6-.6-.7c-.3-.3-.5-.6-.7-1s-.3-.8-.4-1.3,0-1,0-1.6,0-1.2.2-1.9c.4-.7.5-1.6.8-2.7.2-1.1.5-2.3.7-3.5.3-1.2.5-2.3.7-3.2s.3-1.5.4-1.7c0-.4,0-.8.3-1.1.2-.4.4-.7.6-1,.3-.3.6-.5,1-.8.4-.2.8-.4,1.3-.5.2,0,.3-.1.5-.1,0,0,.2,0,.3,0h.6c.1,0,.9,0,2,.1,1.1,0,2.5.1,4,.1,1.5.1,2.9.1,4.1.2,1.2,0,2.1.1,2.4.1.5,0,.9.1,1.3.2.4.1.8.3,1.2.5.4.2.7.4,1.1.7.3.3.7.6,1,1,.1.1.2.3.4.5.2.2.4.5.7.8.3.3.6.7.9,1.1.3.4.7.9,1.1,1.3,1.6,1.9,3.2,3.8,4.8,5.6,1.5,1.8,2.9,3.5,4.2,5,1.2,1.5,2.3,2.7,3.1,3.7s1.3,1.6,1.4,1.8h0c0,.1,0,.2,0,.2h0c0,.1,0,.2,0,.2,0,.2.2.3.3.5s.2.3.3.5.2.4.2.6c0,.2,0,.4,0,.6v.8c0,.3-.2.5-.3.8,0,.2-.3.5-.5.7s-.5.5-.8.7-.6.5-1.1.8c-.5.4-1,.8-1.6,1.3s-1.3,1-2,1.6-1.4,1.2-2.2,1.8c-1,.8-2,1.6-3,2.4-1,.8-1.9,1.5-2.7,2.2s-1.6,1.3-2.2,1.7c-.6.5-1.1.8-1.3,1-.2,0-.4.2-.5.4-.2,0-.3.2-.5.3s-.3.2-.5.3c0,0-.2,0-.4.1ZM389.1,194.1c-.3.1-.5.2-.7.3s-.4.2-.5.4c-.1.1-.3.3-.3.5-.1.2-.1.4-.2.6h0v.2s-.1.6-.3,1.4c-.2.9-.4,2-.7,3.2s-.5,2.5-.8,3.6c-.2,1.1-.4,2.1-.5,2.7,0,.5,0,1-.2,1.4v1.2c0,.3,0,.6.2.9,0,0,.2.3.4.5s.3.3.6.6c.3.3.7.8,1.2,1.4s1.1,1.2,1.7,2c.7.8,1.4,1.7,2.3,2.7,1.1,1.3,2.2,2.6,3.4,4,1.1,1.3,2.3,2.7,3.3,3.9s2,2.3,2.8,3.2,1.4,1.6,1.8,2c.4.5.8.8,1.1,1,.3.2.5.4.7.5s.3,0,.4,0h.2c.1,0,.2,0,.3,0,.1,0,.2,0,.3-.2.1,0,.2-.2.4-.3.1,0,.3-.2.4-.3.3-.2.7-.5,1.3-1,.6-.5,1.4-1.1,2.2-1.7.8-.7,1.8-1.4,2.7-2.2.9-.8,1.9-1.6,2.9-2.3.7-.6,1.5-1.2,2.2-1.8s1.4-1.1,2-1.6,1.1-.9,1.6-1.3c.5-.4.8-.7,1.1-.9s.5-.4.7-.6c0-.2.2-.4.2-.5,0-.2,0-.4-.2-.6,0-.2-.3-.4-.5-.7h0c0,0,0-.2,0-.2h0c0-.1,0-.2,0-.3,0-.2-.8-1-1.7-2.2-.9-1.1-2.2-2.6-3.6-4.3-1.4-1.6-2.8-3.4-4.2-5s-2.7-3.2-3.7-4.4c-.4-.5-.8-.9-1.1-1.4-.3-.4-.7-.8-.9-1.1-.3-.3-.5-.6-.7-.8s-.3-.4-.4-.5c-.2-.3-.4-.5-.7-.7-.2-.2-.5-.4-.8-.5s-.5-.2-.8-.3-.6-.1-.9-.2c-.2,0-.9,0-1.8-.1-.9,0-2-.1-3.3-.1s-2.6-.1-3.9-.1-2.5,0-3.5,0h-.5c-.4,0-.5,0-.6.1Z"/>
        </g>
        <path id="_パス_356" data-name="パス_356" class="cls-4" d="M402.4,220.7l-1.2-16.6,1.3-.9,1.2,16.6-1.3.9ZM393.8,213.5c-.1-.1-.1-.2-.2-.3-.1-.1-.1-.2-.2-.3,0-.1-.1-.2-.1-.3s-.1-.2-.1-.3,0-.2-.1-.3v-.9c0-.1,0-.2.1-.3s.1-.2.1-.3.1-.2.1-.3.1-.2.2-.3c.1-.2.3-.4.4-.6.1-.1.2-.2.3-.2.1-.1.2-.2.3-.2.1-.1.2-.1.3-.2.1-.1.2-.1.3-.2.2-.1.4-.2.6-.2s.2,0,.3-.1.2,0,.3,0h.6c.1,0,.2,0,.3.1.1,0,.2.1.3.1s.2.1.3.1.2.1.3.2c.2.1.4.3.6.4l.2.2c.1.1.2.2.2.3.1.1.1.2.2.3.1.1.1.2.2.3.1.2.2.4.2.7s0,.2.1.3,0,.2,0,.3v.6c0,.1,0,.2-.1.3,0,.1-.1.2-.1.3s-.1.2-.1.3-.1.2-.2.3c-.1.2-.2.4-.4.5,0,.1-.2.2-.2.2-.1.1-.2.1-.3.2-.1.1-.2.1-.3.2-.1.1-.2.1-.3.2-.2.1-.4.2-.7.2s-.2,0-.3.1-.2,0-.3,0h-.6c-.1,0-.2,0-.3-.1-.1,0-.2-.1-.3-.1s-.2-.1-.3-.1-.2-.1-.3-.2c-.2-.1-.4-.3-.6-.4-.1-.1-.2-.2-.2-.3s-.1-.1-.2-.2ZM394.9,212.7c0,.1.1.1.1.2s.1.1.2.2.1.1.2.1.1.1.2.1.1.1.2.1.1.1.2.1.1,0,.2.1h1q.1,0,.2-.1t.2-.1c.1,0,.1-.1.2-.1s.1-.1.2-.1.1-.1.2-.1.1-.1.2-.1c0-.1.1-.1.1-.2s.1-.1.1-.2.1-.1.1-.2.1-.1.1-.2,0-.1.1-.2,0-.1,0-.2v-.8c0-.1-.1-.3-.1-.4s-.1-.1-.1-.2-.1-.1-.1-.2-.1-.1-.1-.2l-.2-.2q-.1-.1-.2-.1c-.1,0-.1-.1-.2-.1s-.1-.1-.2-.1-.1-.1-.2-.1-.1,0-.2-.1h-1q-.1,0-.2.1-.1,0-.2.1c-.1,0-.1.1-.2.1s-.1.1-.2.1-.1.1-.2.1-.1.1-.2.2l-.3.3c0,.1-.1.1-.1.2s-.1.1-.1.2,0,.1-.1.2v1q0,.1.1.2c0,.1.1.1.1.2s.1.1.1.2c0,.1,0,.1,0,.2ZM405.5,214.4c-.1-.1-.1-.2-.2-.3-.1-.1-.1-.2-.2-.3,0-.1-.1-.2-.1-.3s-.1-.2-.1-.3,0-.2-.1-.3v-.9c0-.1,0-.2.1-.3,0-.1.1-.2.1-.3s.1-.2.1-.3.1-.2.2-.3c.1-.1.1-.2.2-.3.1-.1.1-.2.2-.3,0-.1.2-.2.2-.2.1-.1.2-.2.3-.2s.2-.1.3-.2c.1-.1.2-.1.3-.2.2-.1.4-.2.7-.2s.2,0,.3-.1h.9c0,0,.2,0,.3.1,0,0,.2.1.3.1s.2.1.3.1c0,.1.2.1.3.2.2.1.4.3.6.4,0,.1.2.2.2.3s.2.2.2.3c0,.1,0,.2.2.3,0,.1,0,.2.2.3,0,.1,0,.2,0,.3s0,.2,0,.3,0,.2,0,.3v.9c0,.1,0,.2,0,.3,0,.1,0,.2,0,.3s0,.2,0,.3,0,.2-.2.3c0,.2-.3.4-.4.5,0,.1-.2.2-.2.2,0,.1-.2.1-.3.2s-.2.1-.3.2-.2.1-.3.2c0,0-.2.1-.3.1s-.2.1-.3.1-.2,0-.3.1-.2,0-.3,0h-.6c0,0-.2,0-.3-.1s-.2-.1-.3-.1-.2-.1-.3-.1-.2-.1-.3-.2c-.2-.1-.4-.3-.6-.4l-.2-.2c-.1,0-.2-.2-.3-.3h0ZM406.6,213.6c0,.1.1.1.1.2s.1.1.2.2,0,.1.2.1,0,.1.2.1,0,.1.2.1,0,.1.2.1,0,0,.2.1h1c0,0,.3-.1.4-.1s0-.1.2-.1c0-.1.2-.2.4-.3,0,0,0-.1.2-.2,0-.1.2-.2.2-.3s0-.1,0-.2,0-.1,0-.2,0-.1,0-.2v-1q0-.1,0-.2c0-.1,0-.1,0-.2s0-.1,0-.2,0-.1,0-.2,0-.1,0-.2,0-.1-.2-.2q0-.1-.2-.1c0,0,0-.1-.2-.1s0-.1-.2-.1,0-.1-.2-.1,0,0-.2-.1h-1c0,0-.3.1-.4.1s0,.1-.2.1c0,.1-.2.2-.4.3-.1,0-.1.1-.2.2s-.2.2-.2.3-.1.1-.1.2-.1.1-.1.2,0,.1-.1.2v1q0,.1.1.2c0,.1.1.1.1.2s.1.1.1.2c0,.1,0,.2,0,.2h0Z"/>
        <g id="_グループ_334" data-name="グループ_334">
          <g id="_線_97" data-name="線_97">
            <path class="cls-1" d="M403.1,227.8l3.8-3.1"/>
            <path class="cls-4" d="M407.2,225l-3.8,3.2-.6-.8,3.8-3.1.6.7Z"/>
          </g>
          <g id="_線_98" data-name="線_98">
            <path class="cls-1" d="M408.8,223.1l3.8-3.1"/>
            <path class="cls-4" d="M412.9,220.3l-3.8,3.2-.6-.8,3.8-3.1.6.7Z"/>
          </g>
          <g id="_線_99" data-name="線_99">
            <path class="cls-1" d="M414.9,218l3.3-2.7"/>
            <path class="cls-4" d="M418.5,215.7l-3.3,2.7-.6-.8,3.3-2.7.6.8Z"/>
          </g>
        </g>
        <g id="_楕円形_66" data-name="楕円形_66">
          <path class="cls-1" d="M391.2,197.6c1.2-.8,2.8-.8,4.1,0s1.9,2.3,1.6,3.8c-.1.3-.3.8-.6,1.2-.5.8-1.4,1.4-2.4,1.6-.5.1-.9.1-1.4,0-.5,0-.9-.3-1.3-.5-1.7-1.1-2.2-3.4-1.1-5.1h0c.3-.4.7-.8,1.1-1Z"/>
          <path class="cls-4" d="M394.2,202c.2-.2.3-.3.4-.5s.2-.4.2-.6v-.6c0-.2,0-.4-.3-.6,0-.2-.2-.4-.3-.5-.2,0-.4-.2-.6-.3h-.6c-.2,0-.4,0-.6.3-.3,0-.5.3-.6.5s-.2.4-.2.6v.6c0,.2,0,.4.3.6.1.2.2.4.4.5s.4.2.6.2h.6c.3,0,.5,0,.7-.2M395.3,203.6c-.4.3-.9.5-1.4.6-.5.1-1,.1-1.4,0-.4,0-.9-.3-1.3-.5-.4-.3-.8-.6-1-1-.3-.5-.5-.9-.6-1.4s-.1-.9,0-1.4.3-.9.5-1.3c.3-.4.6-.8,1-1,.5-.3,1-.5,1.4-.6.5-.1,1-.1,1.4,0,.5.1,1,.3,1.4.5.4.3.8.6,1,1,.3.4.5.9.6,1.3.1.5.1.9,0,1.4s-.3,1-.6,1.4c-.2.4-.6.7-1,1Z"/>
        </g>
      </g>
      <path class="cls-3" d="M447.4,198l-.3,6.6c-1.8,0-3,.1-3.5.1-6,0-10.7-.8-14-2.5-2.9-1.3-5.4-3.4-7.2-6.1-1.5-2.5-2.2-5.3-2.2-8.1,0-6,2.9-11.4,8.8-16.5h-9.5c0,.1-12.3.2-12.3.2v-6.2h43.5v6.3h-11.2s-6.4,4-8.7,6.9c-2.1,2.5-3.3,5.7-3.4,9,0,7,5.3,10.5,16,10.5,1.3,0,2.6,0,4-.2h0Z"/>
      <path class="cls-6" d="M452.2,180.4l-3.5,1.3c-1.1-2.8-2.3-5.3-3.3-7.5l3.3-1.2c1.3,2.6,2.5,5,3.5,7.4h0Z"/>
      <path class="cls-6" d="M445.3,181.9l-3.6,1.3c-.7-1.7-3.3-7.5-3.3-7.5l3.5-1.4c1.2,2.5,2.3,5,3.4,7.6h0Z"/>
      <g>
        <path class="cls-3" d="M86.8,158v.3c0,0,.1-.2,0-.3Z"/>
        <path class="cls-3" d="M124.8,150.6c0-11.1,6.4-19.1,16-19.1s15.9,8,15.9,19.1-6.4,19-15.9,19-16-8.1-16-19ZM146.7,150.6c0-5.6-2.4-9.5-5.9-9.5s-6,3.9-6,9.5,2.4,9.4,6,9.4,5.9-4,5.9-9.4ZM142.2,199.5l34.1-67.3h14.2l-34,67.3h-14.3ZM176.2,181.4c0-11.1,6.4-19.2,16-19.2s15.9,8.1,15.9,19.2-6.4,19-15.9,19-16-8.1-16-19ZM198.1,181.4c0-5.7-2.4-9.6-5.9-9.6s-6,3.9-6,9.6,2.4,9.4,6,9.4,5.9-4.1,5.9-9.4Z"/>
        <path class="cls-3" d="M213.5,165.9c0-19.8,15.1-34.9,35-34.9s35.1,15.1,35.1,34.9-15.2,34.9-35.1,34.9-35-15-35-34.9ZM268.5,165.9c0-11.9-8.7-21.1-20-21.1s-20,9.2-20,21.1,8.8,21.1,20,21.1c11.2,0,20-9.2,20-21.1Z"/>
        <path class="cls-3" d="M294.8,199.5v-54.7c0-7.7,3.7-12.6,12.9-12.6h35.4v13.5h-33.7v17.6h31.4v13.4h-31.4v22.8h-14.6Z"/>
        <path class="cls-3" d="M353.7,199.5v-54.7c0-7.7,3.7-12.6,12.9-12.6h35.4v13.5h-33.7v17.6h31.4v13.4h-31.4v22.8h-14.6Z"/>
      </g>
      <g>
        <path d="M25.1,201.5c-7.4,0-11-4.6-11-10.1s1.7-8,5.2-11.4l15.6-14.7c4.4-4.2,6.7-7,6.7-11.3s-2.4-6.4-6.7-6.4-8.6,4.1-10.4,8.7l-13.3-8.3c4-10.5,13.1-18.6,25.3-18.6s22.8,10.6,22.8,22.8-3.1,15.5-8.8,20.9l-11.1,10.7h21.7v17.8H25.1Z"/>
        <path d="M63.3,166.3c0-21.7,11.3-36.9,28.6-36.9s28.6,15.2,28.6,36.9-11.3,36.9-28.6,36.9-28.6-16.1-28.6-36.9ZM102.4,166.3c0-10.5-4.9-17-10.5-17s-10.5,6.6-10.5,17,4.9,17,10.5,17,10.5-7.5,10.5-17Z"/>
      </g>
    </g>
  </g>
</svg>