<svg xmlns="http://www.w3.org/2000/svg" viewBox="0 0 67.3 55"><defs><style>.cls-1{fill:#9dc138;}.cls-2{fill:#477740;}</style></defs><g id="レイヤー_2" data-name="レイヤー 2"><g id="rayout"><path class="cls-1" d="M40.84,16.93c-8.65.48-13.61,5.07-13.94,9.73a6.26,6.26,0,0,0,2.59,5.92A27.14,27.14,0,0,1,30.25,29a20.11,20.11,0,0,1,.68-2,19,19,0,0,1,2-3.81c.26-.36.47-.7.73-1l.69-.8h0c.47-.47.87-.84,1.21-1.13.71-.53,1.08-.78,1.08-.78l-.59.61a7.12,7.12,0,0,0-.64.72c-.16.22-.37.45-.56.71a2.83,2.83,0,0,0-.2.28,20.43,20.43,0,0,0-2.77,6.08,0,0,0,0,1,0,0,31.78,31.78,0,0,0-.76,3.52c-.1.67-.18,1.32-.24,1.93-.05.41-.08.81-.11,1.19-.06.91-.08,1.68-.1,2.21v.85h1.49c0-1.37.05-2.67.13-3.89a6.25,6.25,0,0,0,7-5c.7-3.76-1.32-9.26,1.6-11.7"/><path class="cls-2" d="M53.4,8.6a4.05,4.05,0,1,0-4-4,4,4,0,0,0,4,4.05m4.54,14.28V12.94l9-10.17A1.67,1.67,0,0,0,64.44.5L55.11,10H51.69L42.35.5A1.67,1.67,0,0,0,39.9,2.77l9,10.17v9.94L46.57,39.06a1.93,1.93,0,0,0,3.8.64l2.81-14.33h.44L56.43,39.7a1.92,1.92,0,0,0,3.79-.64Z"/><path class="cls-2" d="M18.54,11.46a5.4,5.4,0,1,0-5.39-5.39,5.39,5.39,0,0,0,5.39,5.39m6.06,19V17.25L36.53,3.69a2.22,2.22,0,0,0-3.26-3L20.82,13.37H16.26L3.82.67a2.23,2.23,0,0,0-3.27,3L12.48,17.25V30.5l-3,21.58a2.57,2.57,0,0,0,5.06.85l3.75-19.1h.58l3.75,19.1a2.57,2.57,0,0,0,5.06-.85Z"/></g></g></svg>