<svg xmlns="http://www.w3.org/2000/svg" viewBox="0 0 49.79 55"><defs><style>.cls-1{fill:#477740;}.cls-2{fill:#9dc138;}</style></defs><g id="レイヤー_2" data-name="レイヤー 2"><g id="rayout"><path class="cls-1" d="M7.19,23.36c2.37,1.83,5,2,8.59,1.61l.07.08a14.74,14.74,0,0,1,2.8,5.43,14.39,14.39,0,0,1,.45,4.13,76.57,76.57,0,0,0,.61,20h5.48c-.6-2-1.1-4-1.51-6.1a14.63,14.63,0,0,1,.64-7.36,16.41,16.41,0,0,1,5.45-6.85c1.76-1.4,3.69-2.64,5.6-3.94a10.24,10.24,0,0,0,8.11-2.47c3.79-3.44,4.73-8.3,6.31-12.6-4.43,1.17-8.86,1.55-12.65,5-2.16,2-2.78,4.48-3,7.93.66-.33,1.32-.67,2-1a43.43,43.43,0,0,0,4-2.57A36.17,36.17,0,0,0,43,22.26l.14-.12A28.74,28.74,0,0,0,47,17.94a29.78,29.78,0,0,1-4.31,5.2c-.2.19-.39.39-.59.57-.52.49-1,1-1.59,1.42A47.27,47.27,0,0,1,34,29.64h0s.06,0,.1,0c-1.81,1-3.65,1.94-5.43,3.09a19.7,19.7,0,0,0-6.29,6.05c-.1-1.5-.17-3-.17-4.52A64.2,64.2,0,0,1,23.4,21.71c3.83-1.21,6.53-2.6,8.22-5.58,3-5.35,2.31-10.64,2.5-16.13-4.6,3-9.52,5.09-12.55,10.44-1.61,2.84-1.5,5.74-.68,9.39.22-.49.42-1,.65-1.49a51.74,51.74,0,0,1,2.78-5.26A38.41,38.41,0,0,1,31.75,4,36.56,36.56,0,0,0,26,11.8c-.31.55-.62,1.09-.91,1.65a55.89,55.89,0,0,0-3.22,7.76l-.33,1.07h0c-.58,1.95-1.07,3.94-1.46,5.95A17.31,17.31,0,0,0,17,24.06l0,0v-.09a50.55,50.55,0,0,0-6.52-5.78c-.94-.7-1.9-1.36-2.88-2l-.1-.06a38.73,38.73,0,0,0-4.74-2.68,37.67,37.67,0,0,1,4.72,2.13h0c1.16.61,2.31,1.26,3.43,1.95a53.68,53.68,0,0,1,5.63,4,9.37,9.37,0,0,0-3.33-5.83C9,12.51,4.55,12.48,0,11.66c1.94,4.2,3.1,8.53,7.19,11.7"/><path class="cls-2" d="M35.86,42.34a19.68,19.68,0,0,0,2.11-3,11.56,11.56,0,0,1-1.29,3.11c-.63,1.52-2,3-2,5.82A4.87,4.87,0,0,0,38.76,53a4.15,4.15,0,0,1-.79.07,4.9,4.9,0,0,1-4.92-4.86c0-2.1,1.24-3.77,2.81-5.89M38,55a6.82,6.82,0,0,0,6.82-6.77c0-5-5.06-7.7-6.82-13.45-1.77,5.75-6.83,8.48-6.83,13.45A6.82,6.82,0,0,0,38,55"/></g></g></svg>