<svg xmlns="http://www.w3.org/2000/svg" viewBox="0 0 38.75 55"><defs><style>.cls-1{fill:#9dc138;}</style></defs><g id="レイヤー_2" data-name="レイヤー 2"><g id="rayout"><path class="cls-1" d="M18.43,11a5.49,5.49,0,1,0-5.49-5.48A5.49,5.49,0,0,0,18.43,11m14.43,8.16a3.58,3.58,0,0,1,0-.48c0-.15,0-.31,0-.48s0-.33,0-.5a1.23,1.23,0,0,1,0-.19l.06-.34a5.47,5.47,0,0,1,.13-.55c.09-.37.21-.74.34-1.12l.39-1.15c.14-.38.25-.77.36-1.16,0-.19.09-.39.13-.58s.06-.38.09-.57c0,0,0-.07,0-.1.05-.34,0-.68.07-1s0-.66-.06-1-.1-.57-.14-.82-.12-.44-.16-.61C34,8.15,34,8,34,8a7.08,7.08,0,0,1,.43.78,2.91,2.91,0,0,1,.19.46q.07.25.18.57c0,.06,0,.12,0,.18s.06.34.1.53l.06.4,0,.42c0,.15,0,.31,0,.46a.76.76,0,0,0,0,.15c0,.11,0,.22,0,.33a6.43,6.43,0,0,1-.13,1c-.06.35-.14.72-.24,1.09s-.2.75-.32,1.13-.22.77-.3,1.16a4,4,0,0,0-.11.58l0,.18a4.28,4.28,0,0,0,3.73-3.93,5.59,5.59,0,0,0,0-1.58A7.83,7.83,0,0,0,37,10a17,17,0,0,0-4.17-5.42A7.57,7.57,0,0,1,31,10a8.68,8.68,0,0,0-1.2,2,4.1,4.1,0,0,0-.26,1.47A3.9,3.9,0,0,0,32,17.31c0,.11,0,.22-.05.33a6.69,6.69,0,0,0,0,1.49H26.21l.35,3-3.1-.1L19.67,15.4a6.88,6.88,0,0,0-3.58-3.31C13.24,11,10.45,13.32,9.72,16c-.9,3-1.54,5.44-2.49,8.46a26,26,0,0,0-1.15,5.22C6,30.77,5.84,31.88,5.73,33l-1,9.48L.26,51.13a2.71,2.71,0,0,0,4.82,2.46l5.26-8.9a2.56,2.56,0,0,0,.29-.83l0-.16.92-6.07,6.76,15.73a2.7,2.7,0,0,0,5-2l-8-21.78,2.43-7.69,2.05,3.71a2.3,2.3,0,0,0,2.11,1.22l5.21-.16L27.62,31h9.72l1.41-11.86Z"/><path class="cls-1" d="M19.28,28.1c4.86.27,7.65,2.84,7.83,5.46a3.54,3.54,0,0,1-1.45,3.33,15.93,15.93,0,0,0-.43-2,11.71,11.71,0,0,0-.38-1.14,10.62,10.62,0,0,0-1.11-2.14,6,6,0,0,0-.41-.55l-.39-.45h0c-.26-.26-.49-.47-.67-.63-.4-.3-.61-.44-.61-.44l.33.34c.1.11.23.24.36.4s.21.26.31.4l.12.16a11.49,11.49,0,0,1,1.55,3.41v0a16.14,16.14,0,0,1,.42,2c.06.38.1.74.14,1.08s.05.46.06.67c0,.52.05.95.05,1.25s0,.47,0,.47h-.84c0-.77,0-1.5-.08-2.18a3.51,3.51,0,0,1-3.92-2.83c-.39-2.11.74-5.2-.9-6.57"/></g></g></svg>