<svg xmlns="http://www.w3.org/2000/svg" viewBox="0 0 55 55"><defs><style>.cls-1{fill:#477740;}</style></defs><g id="レイヤー_2" data-name="レイヤー 2"><g id="rayout"><path class="cls-1" d="M38.87,33.06c.16-1.79.24-3.65.24-5.56,0-2.12-.1-4.18-.29-6.16a40.3,40.3,0,0,0,10-3.05A23.14,23.14,0,0,1,49,36.2a40.06,40.06,0,0,0-10.15-3.14M34.36,49.69a37.38,37.38,0,0,0,4-12.33A37.82,37.82,0,0,1,47,40a23.3,23.3,0,0,1-12.66,9.66M8,40a38,38,0,0,1,8.68-2.67,37.38,37.38,0,0,0,4,12.33A23.34,23.34,0,0,1,8,40M4.28,27.5a23,23,0,0,1,1.91-9.21,40.25,40.25,0,0,0,10,3.05,61.4,61.4,0,0,0-.3,6.16c0,1.91.08,3.77.24,5.56A40.48,40.48,0,0,0,6,36.19a23,23,0,0,1-1.7-8.69M20.64,5.31a36.64,36.64,0,0,0-3.88,11.74,38.48,38.48,0,0,1-8.48-2.56A23.31,23.31,0,0,1,20.64,5.31m6.86-1c1.61,0,5,4.64,6.51,13.39A61.14,61.14,0,0,1,27.5,18,61.28,61.28,0,0,1,21,17.67C22.54,8.92,25.9,4.28,27.5,4.28m0,46.44c-1.64,0-5.1-4.86-6.61-14a59.23,59.23,0,0,1,13.22,0c-1.51,9.13-5,14-6.61,14M34.83,27.5c0,1.75-.07,3.39-.2,5a65.23,65.23,0,0,0-7.13-.37,65.23,65.23,0,0,0-7.13.37c-.13-1.57-.2-3.21-.2-5,0-2,.09-3.82.25-5.56a67,67,0,0,0,7.08.37,66.87,66.87,0,0,0,7.08-.37c.16,1.74.25,3.58.25,5.56m11.89-13a38.48,38.48,0,0,1-8.48,2.56A36.64,36.64,0,0,0,34.36,5.31a23.31,23.31,0,0,1,12.36,9.18m5.81,1.63a26.45,26.45,0,0,0-2.1-3.8,27.5,27.5,0,0,0-45.86,0,26.45,26.45,0,0,0-2.1,3.8A27.49,27.49,0,0,0,50.69,42.27a27.16,27.16,0,0,0,2.05-3.84,27.5,27.5,0,0,0-.21-22.31"/></g></g></svg>