<?xml version="1.0" encoding="utf-8"?>
<!-- Generator: Adobe Illustrator 28.1.0, SVG Export Plug-In . SVG Version: 6.00 Build 0)  -->
<svg version="1.1" id="レイヤー_1" xmlns="http://www.w3.org/2000/svg" xmlns:xlink="http://www.w3.org/1999/xlink" x="0px"
	 y="0px" viewBox="0 0 140 256.3" style="enable-background:new 0 0 140 256.3;" xml:space="preserve">
<style type="text/css">
	.st0{fill:#7F4F21;}
	.st1{fill:#2B2624;}
	.st2{enable-background:new    ;}
	.st3{fill:#FFFFFF;}
</style>
<g id="グループ_1333" transform="translate(-894 -1119.293)">
	<g id="パス_1779" transform="translate(919 1206.563)">
		<path class="st0" d="M44.9,24.4L1,14.5V1h88v13.5L44.9,24.4z"/>
		<path class="st0" d="M2,2v11.7l42.9,9.7L88,13.7V2H2 M0,0h90v15.3L44.9,25.4L0,15.3V0z"/>
	</g>
	<g id="パス_1781" transform="translate(919 1305.563)">
		<path class="st0" d="M44.9,24.4L1,14.5V1h88v13.5L44.9,24.4z"/>
		<path class="st0" d="M2,2v11.7l42.9,9.7L88,13.7V2H2 M0,0h90v15.3L44.9,25.4L0,15.3V0z"/>
	</g>
	<path id="パス_1706" class="st0" d="M963,1164.7h1.7v199.1H963V1164.7z"/>
	<path id="パス_1751" class="st1" d="M906.5,1119.3h115c6.9,0,12.5,5.6,12.5,12.5s-5.6,12.5-12.5,12.5l0,0h-115
		c-6.9,0-12.5-5.6-12.5-12.5S899.6,1119.3,906.5,1119.3z"/>
	<g class="st2">
		<path class="st3" d="M921.5,1128.4c-0.9,0.9-2,1.8-3.4,2.6c-0.2,0.1-0.3,0.1-0.3,0.1c-0.1,0-0.2-0.1-0.3-0.3
			c-0.2-0.3-0.5-0.6-0.7-0.8c2.1-1.1,3.5-2.3,4.6-3.7c0.2-0.3,0.4-0.5,0.5-0.8c0.5,0.1,1,0.2,1.4,0.4c0.1,0,0.2,0.1,0.2,0.2
			c0,0.1-0.1,0.2-0.2,0.3c-0.1,0.1-0.2,0.2-0.4,0.4l-0.3,0.4h3.1c0.3,0,0.3,0,0.4,0c0.1,0,0.2-0.1,0.3-0.1c0.1,0,0.3,0.1,0.6,0.4
			c0.4,0.3,0.4,0.5,0.4,0.6c0,0.1,0,0.2-0.2,0.3c-0.1,0.1-0.3,0.2-0.5,0.4c-1.1,1.5-2.4,2.7-4,3.8h3.6c1.2,0,1.8,0,1.9,0
			c0.1,0,0.2,0,0.2,0.1c0,0.1,0,0.5,0,1.8v1.3c0,2,0,2.4,0,2.4c0,0.1,0,0.2-0.2,0.2H927c-0.2,0-0.2,0-0.2-0.2v-0.6h-4.9v0.7
			c0,0.1,0,0.2-0.1,0.2h-1.2c-0.1,0-0.2,0-0.2-0.2c0-0.1,0-0.5,0-2.5v-1.8c-0.8,0.4-1.6,0.8-2.6,1.2c-0.2,0.1-0.3,0.1-0.3,0.1
			c-0.1,0-0.2-0.1-0.3-0.4c-0.2-0.4-0.4-0.7-0.7-0.9c2-0.7,3.6-1.5,4.9-2.3c-0.5-0.5-1-1-1.5-1.3c-0.1,0-0.1-0.1-0.1-0.1
			c0,0,0-0.1,0.1-0.1l0.7-0.6c0.1-0.1,0.1-0.1,0.2-0.1c0.1,0,0.1,0,0.2,0.1c0.5,0.4,1,0.8,1.5,1.3c0.9-0.8,1.7-1.6,2.4-2.4H921.5z
			 M921.9,1133.8v2.5h4.9v-2.5H921.9z"/>
		<path class="st3" d="M933.5,1129.6c-1.3,0-1.7,0-1.8,0c-0.1,0-0.2,0-0.2-0.2v-1.1c0-0.2,0-0.2,0.2-0.2c0.1,0,0.5,0,1.8,0h3.3v-0.9
			c0-0.8,0-1.1-0.1-1.8c0.5,0,1.1,0,1.6,0.1c0.1,0,0.2,0.1,0.2,0.2c0,0.1-0.1,0.2-0.1,0.3c0,0.2-0.1,0.4-0.1,1.1v1.1h3.6
			c1.3,0,1.7,0,1.8,0c0.1,0,0.2,0,0.2,0.2v1.1c0,0.1,0,0.2-0.2,0.2c-0.1,0-0.5,0-1.8,0h-3.6v2.4h1.8c1.4,0,1.8,0,1.9,0
			c0.2,0,0.2,0,0.2,0.2c0,0.1,0,0.5,0,1.7v1.6c0,2.2,0,2.6,0,2.7c0,0.1,0,0.1-0.2,0.1h-1.2c-0.1,0-0.2,0-0.2-0.1v-0.7h-6v0.7
			c0,0.1,0,0.1-0.2,0.1h-1.2c-0.1,0-0.2,0-0.2-0.1c0-0.1,0-0.5,0-2.7v-1.4c0-1.4,0-1.8,0-1.9c0-0.1,0-0.2,0.2-0.2c0.1,0,0.6,0,1.9,0
			h1.6v-2.4H933.5z M934.7,1136.1h6v-2.7h-6V1136.1z"/>
		<path class="st3" d="M956.2,1133.3c-2,0.2-4,0.3-6.1,0.4c-0.3,0-0.4,0-0.4,0.1c-0.1,0-0.1,0.1-0.2,0.1c-0.1,0-0.2-0.1-0.2-0.2
			c-0.1-0.3-0.1-0.7-0.2-1.1c0.5,0,1,0,1.5,0c0.3-0.4,0.5-0.8,0.7-1.2h-2.6c0,1-0.1,2.1-0.3,3c-0.2,1.3-0.5,2.5-1.2,3.5
			c-0.1,0.2-0.2,0.3-0.2,0.3c-0.1,0-0.1-0.1-0.3-0.2c-0.3-0.3-0.7-0.6-0.9-0.8c0.7-1,1-2,1.2-3.3c0.2-1.2,0.3-2.6,0.3-4.6
			c0-2,0-2.9,0-2.9c0-0.2,0-0.2,0.1-0.2c0.1,0,0.6,0,1.9,0h6.5c1.4,0,1.8,0,1.9,0c0.1,0,0.2,0,0.2,0.2c0,0.1,0,0.3,0,1v1.1
			c0,0.6,0,0.9,0,1c0,0.1,0,0.2-0.2,0.2c-0.1,0-0.6,0-1.9,0h-7.2v0.8h7.5c1.4,0,1.8,0,1.9,0c0.2,0,0.2,0,0.2,0.2v0.9
			c0,0.1,0,0.2-0.2,0.2c-0.1,0-0.6,0-1.9,0h-0.4c0.8,0.6,1.3,1.2,2,2c0.1,0.1,0.1,0.2-0.1,0.3l-0.7,0.5c-0.1,0.1-0.1,0.1-0.2,0.1
			s-0.1,0-0.1-0.1L956.2,1133.3z M950.2,1138c-1.4,0-1.8,0-1.9,0c-0.1,0-0.2,0-0.2-0.2v-0.9c0-0.1,0-0.2,0.2-0.2c0.1,0,0.5,0,1.9,0
			h2.3v-1h-1.1c-1.3,0-1.8,0-1.9,0c-0.1,0-0.2,0-0.2-0.2v-0.8c0-0.2,0-0.2,0.2-0.2c0.1,0,0.6,0,1.9,0h1.1v0c0-0.4,0-0.7-0.1-1
			c0.4,0,0.9,0,1.3,0.1c0.2,0,0.3,0.1,0.3,0.2c0,0.1,0,0.2-0.1,0.3c0,0.1-0.1,0.3-0.1,0.5v0h1.6c1.3,0,1.8,0,1.9,0
			c0.2,0,0.2,0,0.2,0.2v0.8c0,0.1,0,0.2-0.2,0.2c-0.1,0-0.5,0-1.9,0h-1.6v1h2.7c1.4,0,1.8,0,1.9,0c0.1,0,0.2,0,0.2,0.2v0.9
			c0,0.2,0,0.2-0.2,0.2c-0.1,0-0.5,0-1.9,0H950.2z M956.5,1127.2h-7.8v1h7.8V1127.2z M954.8,1131.8c-0.1-0.1-0.1-0.1,0-0.2l0.6-0.3
			h-2.7c-0.2,0.4-0.4,0.8-0.7,1.2c1,0,2.1-0.1,3.2-0.2L954.8,1131.8z"/>
		<path class="st3" d="M962.8,1129.3c-1.2,0-1.7,0-1.8,0c-0.1,0-0.2,0-0.2-0.2v-1.1c0-0.2,0-0.2,0.2-0.2c0.1,0,0.5,0,1.8,0h3.4v-0.9
			c0-0.6,0-1-0.1-1.4c0.5,0,1,0,1.5,0.1c0.1,0,0.2,0.1,0.2,0.2c0,0.1,0,0.2-0.1,0.3c-0.1,0.1-0.1,0.3-0.1,0.8v1h3.7
			c1.3,0,1.7,0,1.8,0c0.1,0,0.1,0,0.1,0.2v1.1c0,0.2,0,0.2-0.1,0.2c-0.1,0-0.5,0-1.8,0h-4.8c0,0.6-0.1,1.2-0.1,1.7h3.4
			c1.2,0,1.6,0,1.7,0c0.1,0,0.2,0,0.2,0.2c0,0.4,0,0.7-0.1,1.1c-0.1,2.1-0.3,3.4-0.5,4.2c-0.3,1.3-0.9,1.7-2.3,1.7
			c-0.3,0-0.6,0-1.1,0c-0.4,0-0.4-0.1-0.4-0.5c-0.1-0.4-0.2-0.8-0.3-1.1c0.7,0.1,1.4,0.1,1.7,0.1c0.5,0,0.7-0.2,0.8-0.7
			c0.2-0.7,0.4-2,0.4-3.6h-3.8c-0.5,2.6-1.7,4.2-4.1,5.6c-0.2,0.1-0.3,0.2-0.3,0.2c-0.1,0-0.2-0.1-0.3-0.3c-0.2-0.3-0.5-0.6-0.8-0.9
			c3.2-1.6,4.3-3.5,4.3-7.8H962.8z"/>
		<path class="st3" d="M977.5,1127.4c-1.2,0-1.7,0-1.8,0c-0.1,0-0.2,0-0.2-0.1v-1.1c0-0.1,0-0.2,0.2-0.2c0.1,0,0.5,0,1.8,0h8.5
			c1.3,0,1.7,0,1.8,0c0.2,0,0.2,0,0.2,0.2v1.1c0,0.1,0,0.1-0.2,0.1c-0.1,0-0.5,0-1.8,0h-3.6c-0.2,0.6-0.4,1.1-0.7,1.6h3.7
			c1.3,0,1.8,0,1.9,0c0.1,0,0.2,0,0.2,0.2c0,0.1,0,0.7,0,2.6v2.5c0,3.1,0,3.7,0,3.8c0,0.1,0,0.2-0.2,0.2h-1.2c-0.1,0-0.2,0-0.2-0.2
			v-0.5h-8.3v0.6c0,0.1,0,0.2-0.2,0.2h-1.2c-0.1,0-0.2,0-0.2-0.2c0-0.1,0-0.7,0-3.8v-2.2c0-2.2,0-2.9,0-3c0-0.1,0-0.2,0.2-0.2
			c0.1,0,0.6,0,1.9,0h1.9c0.3-0.5,0.5-1.1,0.7-1.6H977.5z M977.6,1136.4h1.7v-6.1h-1.7V1136.4z M982.9,1131.5v-1.2h-2.2v1.2H982.9z
			 M982.9,1133.9v-1.2h-2.2v1.2H982.9z M982.9,1136.4v-1.3h-2.2v1.3H982.9z M984.2,1130.3v6.1h1.8v-6.1H984.2z"/>
	</g>
	<g class="st2">
		<path class="st3" d="M997.2,1130.9c0.1,0,0.1,0,0.1,0.1c0.1,0.3,0.2,0.6,0.3,0.9c0,0.1,0,0.1-0.1,0.2c-0.9,0.3-1.9,0.4-2.8,0.5
			c0,0.9,0.1,1.5,0.2,2.5c1.1,0.3,2.2,0.8,3.2,1.4c0.1,0,0.1,0.1,0,0.2c-0.2,0.3-0.4,0.7-0.6,0.9c-0.1,0.1-0.1,0.1-0.2,0
			c-0.8-0.6-1.5-1-2.4-1.4c0,0.1,0,0.2,0,0.3c0,0.9-0.7,1.7-2.2,1.7c-1.4,0-2.3-0.6-2.3-1.6c0-1,1-1.7,2.4-1.7c0.4,0,0.7,0,0.9,0
			c-0.1-1.4-0.2-2.5-0.2-3.5c0-0.4,0-1,0-1.5c0-0.4,0-0.7-0.2-1c0.5,0,0.9,0.1,1.4,0.2c0.1,0,0.2,0.1,0.2,0.2c0,0.1,0,0.1-0.1,0.2
			c-0.1,0.2-0.1,0.3-0.1,0.6c0,0.3,0,0.8,0,1.4C995.6,1131.3,996.4,1131.1,997.2,1130.9z M993.7,1136c-0.4-0.1-0.7-0.1-1-0.1
			c-0.8,0-1.3,0.3-1.3,0.6c0,0.4,0.4,0.6,1.1,0.6c0.8,0,1.2-0.5,1.2-0.9L993.7,1136z"/>
		<path class="st3" d="M1002.5,1129.2c0.1,0.1,0.2,0.1,0.2,0.2c0,0.1,0,0.1-0.1,0.2c-0.1,0.1-0.1,0.2-0.2,0.5
			c-0.2,0.7-0.2,1.5-0.3,2.1c0,0.4-0.1,0.8,0,1.2c0.2-0.4,0.5-0.8,0.8-1.4c0.1,0.3,0.2,0.5,0.3,0.7c0.1,0.1,0.1,0.1,0.1,0.2
			c0,0.1,0,0.2-0.1,0.3c-0.2,0.5-0.5,0.9-0.6,1.4c0,0.1,0,0.2-0.1,0.3c0,0.1,0,0.2-0.1,0.2c-0.1,0-0.6,0.1-0.9,0.1
			c-0.1,0-0.1-0.1-0.2-0.1c-0.2-0.5-0.3-1.3-0.3-2.2c0-0.7,0.1-1.6,0.3-2.7c0-0.4,0.1-0.8,0.1-1.3
			C1001.8,1128.9,1002.2,1129,1002.5,1129.2z M1006.1,1129c0.2,0.1,0.2,0.1,0.2,0.3c0,0.2,0,0.4,0,0.5c0.1,1,0.2,2,0.2,2.8
			c0,1.6-0.3,2.9-0.8,3.8c-0.4,0.7-1.1,1.3-1.8,1.8c-0.1,0.1-0.2,0.1-0.2,0.1c-0.1,0-0.1,0-0.2-0.1c-0.2-0.2-0.6-0.4-0.9-0.5
			c0.9-0.5,1.4-0.9,1.9-1.5c0.6-0.9,0.9-1.8,0.9-3.5c0-0.8-0.1-1.9-0.1-2.6c-0.1-0.5-0.1-0.8-0.2-1.2
			C1005.3,1128.9,1005.8,1128.9,1006.1,1129z"/>
	</g>
	<g class="st2">
		<path class="st3" d="M935.7,1218.4c0,1.9-1.2,2.6-2.8,2.6c-0.3,0-0.6,0-0.9,0l-0.1-1.3c0.3,0,0.6,0.1,0.9,0.1
			c0.8,0,1.3-0.5,1.3-1.5v-6.7h1.6V1218.4z"/>
		<path class="st3" d="M941.9,1211.5c2.3,0,3.3,0.9,3.3,2.5c0,1.2-0.6,2-1.8,2.4l2.1,4.4h-1.7l-1.9-4.2c-0.1,0-0.3,0-0.4,0h-1.3v4.2
			h-1.6v-9.3H941.9z M940.2,1215.5h1.6c1.3,0,1.8-0.5,1.8-1.4c0-0.8-0.5-1.3-1.8-1.3h-1.7V1215.5z"/>
		<path class="st3" d="M951.7,1212.3c0-0.7,0-1.1-0.1-1.5c0.4,0,0.9,0,1.3,0.1c0.1,0,0.2,0.1,0.2,0.1s0,0.2-0.1,0.2
			c-0.1,0.1-0.1,0.4-0.1,1v0.9h2.3c1.2,0,1.5,0,1.6,0c0.1,0,0.1,0,0.1,0.1c0,0.1,0,0.4,0,1.5v1.4c0,1.9,0,2.3,0,2.3
			c0,0.1,0,0.1-0.1,0.1h-1c-0.1,0-0.1,0-0.1-0.1v-0.5H953v1.5c0,1.4,0,2.2,0,2.2c0,0.1,0,0.1-0.1,0.1h-1.1c-0.1,0-0.1,0-0.1-0.1
			c0-0.1,0-0.8,0-2.2v-1.5h-2.7v0.6c0,0.1,0,0.1-0.1,0.1h-1c-0.1,0-0.1,0-0.1-0.1c0-0.1,0-0.4,0-2.4v-1.2c0-1.2,0-1.6,0-1.7
			c0-0.1,0-0.1,0.1-0.1c0.1,0,0.5,0,1.6,0h2.2V1212.3z M949.1,1216.7h2.7v-2.5h-2.7V1216.7z M953,1214.2v2.5h2.8v-2.5H953z"/>
		<path class="st3" d="M961.2,1217.5c-1,0-1.4,0-1.5,0c-0.1,0-0.1,0-0.1-0.1v-0.9c0-0.1,0-0.1,0.1-0.1c0.1,0,0.4,0,1.3,0v-2.1
			c0-0.8,0-1.2,0-1.2c0-0.1,0-0.1,0.1-0.1c0.1,0,0.5,0,1.7,0h1.6v-0.5c0-0.6,0-1-0.1-1.6c0.5,0,0.9,0.1,1.3,0.1
			c0.2,0,0.2,0.1,0.2,0.2c0,0.1,0,0.2-0.1,0.3c0,0.1-0.1,0.5-0.1,1v0.5h1.6c1.2,0,1.6,0,1.7,0c0.1,0,0.1,0,0.1,0.1
			c0,0.1,0,0.4,0,1.2v2.1c0.9,0,1.3,0,1.3,0c0.1,0,0.1,0,0.1,0.1v0.9c0,0.1,0,0.1-0.1,0.1c-0.1,0-0.4,0-1.5,0H966
			c1,1.6,2.4,2.4,4.5,3c-0.2,0.3-0.4,0.6-0.6,0.9c-0.1,0.2-0.1,0.3-0.2,0.3c-0.1,0-0.1,0-0.3-0.1c-2.1-0.8-3.6-2-4.4-3.5
			c-0.7,1.6-2,2.7-4.4,3.6c-0.1,0-0.2,0.1-0.3,0.1c-0.1,0-0.1-0.1-0.2-0.3c-0.2-0.3-0.3-0.6-0.6-0.9c2.4-0.6,3.7-1.6,4.3-3H961.2z
			 M962.3,1214v2.3h1.9c0.1-0.7,0.2-1.5,0.2-2.3H962.3z M967.8,1216.3v-2.3h-2.1c0,0.8,0,1.6-0.2,2.3H967.8z"/>
		<path class="st3" d="M974,1212.6c-1.1,0-1.4,0-1.5,0c-0.1,0-0.1,0-0.1-0.1v-1c0-0.1,0-0.1,0.1-0.1c0.1,0,0.4,0,1.5,0h7.4
			c1.1,0,1.4,0,1.5,0c0.1,0,0.1,0,0.1,0.1v1c0,0.1,0,0.1-0.1,0.1c-0.1,0-0.4,0-1.5,0h-2.1v1.4h1.3c1.2,0,1.6,0,1.6,0
			c0.1,0,0.1,0,0.1,0.1c0,0.1,0,0.6,0,2.1v2.1c0,2.5,0,3,0,3.1c0,0.1,0,0.1-0.1,0.1h-1c-0.1,0-0.1,0-0.1-0.1v-0.5h-6.7v0.6
			c0,0.1,0,0.1-0.1,0.1h-1c-0.1,0-0.1,0-0.1-0.1c0-0.1,0-0.6,0-3.1v-1.8c0-1.9,0-2.3,0-2.4c0-0.1,0-0.1,0.1-0.1c0.1,0,0.5,0,1.6,0h1
			v-1.4H974z M974.3,1219.8h6.7v-4.6h-1.8v1.5c0,0.3,0,0.3,0,0.4c0,0,0.1,0.1,0.3,0.1c0.1,0,0.2,0,0.3-0.1c0.1-0.1,0.1-0.3,0.1-1.2
			c0.2,0.1,0.4,0.2,0.6,0.3c0.3,0.1,0.3,0.1,0.3,0.6c0,0.8-0.2,1.1-0.4,1.3c-0.2,0.2-0.5,0.2-0.9,0.2c-0.5,0-0.8,0-1.1-0.2
			c-0.3-0.1-0.4-0.3-0.4-0.9v-2h-1.1c-0.1,1.5-0.5,2.5-1.3,3.4c-0.1,0.1-0.2,0.2-0.3,0.2s-0.1-0.1-0.3-0.2c-0.2-0.2-0.5-0.4-0.7-0.5
			c0.9-0.7,1.3-1.6,1.4-2.9h-1.5V1219.8z M978.1,1214.1v-1.4H977v1.4H978.1z"/>
		<path class="st3" d="M991.8,1217.7c0,0-0.1,0.1-0.1,0.1c-0.1,0.1-0.2,0.2-0.3,0.4c-0.3,1-0.9,1.9-1.9,2.8
			c-0.1,0.1-0.2,0.2-0.3,0.2c-0.1,0-0.1-0.1-0.3-0.2c-0.2-0.2-0.4-0.4-0.6-0.5c1-0.7,1.7-1.6,2-2.5h-0.4c-0.4,0-0.7,0-0.7,0
			c-0.1,0-0.1,0-0.1-0.1v-0.8l-0.4,0.1c-0.2,0-0.2,0-0.2-0.1l-0.1-0.3c-0.3,0-0.5,0.1-0.8,0.1v3.3c0,1.1,0,1.5,0,1.6
			c0,0.1,0,0.1-0.1,0.1h-0.9c-0.1,0-0.1,0-0.1-0.1c0-0.1,0-0.5,0-1.6v-3.2l-0.9,0.1c-0.2,0-0.4,0-0.5,0.1c-0.1,0-0.1,0-0.2,0
			c-0.1,0-0.1-0.1-0.1-0.2c-0.1-0.3-0.1-0.6-0.1-1c0.3,0,0.6,0,0.9,0c0.2-0.3,0.5-0.6,0.7-0.9c-0.5-0.6-1-1.2-1.6-1.8
			c0,0-0.1-0.1-0.1-0.1c0,0,0-0.1,0.1-0.2l0.4-0.6c0.1-0.1,0.1-0.1,0.2,0l0.3,0.3c0.2-0.4,0.5-0.9,0.7-1.3c0.1-0.2,0.2-0.4,0.2-0.6
			c0.3,0.1,0.7,0.3,1,0.4c0.1,0.1,0.2,0.1,0.2,0.2c0,0.1,0,0.1-0.1,0.2c-0.1,0.1-0.1,0.1-0.2,0.3c-0.3,0.6-0.6,1.1-1,1.7l0.5,0.6
			c0.3-0.5,0.6-0.9,0.8-1.4c0.1-0.3,0.2-0.5,0.3-0.8c0.3,0.1,0.7,0.3,1,0.4c0.1,0.1,0.1,0.1,0.1,0.2c0,0.1,0,0.1-0.1,0.2
			c-0.1,0.1-0.2,0.2-0.4,0.5c-0.6,1-1.3,1.9-1.9,2.7c0.5,0,0.9,0,1.4-0.1c-0.1-0.3-0.2-0.6-0.3-0.8c0-0.1,0-0.2,0.1-0.2l0.5-0.2
			c0.1,0,0.2,0,0.2,0.1c0.3,0.7,0.5,1.4,0.7,2.1c0,0.1,0,0.1,0,0.1c0.1,0,0.3,0,0.7,0h0.5c0.1,0,0.2,0,0.2,0c0,0,0.1,0,0.1,0
			c0.1,0,0.1,0,0.4,0.3c0.2,0.2,0.3,0.3,0.3,0.4v-1.4h-0.5c-1,0-1.4,0-1.5,0c-0.1,0-0.1,0-0.1-0.1c0-0.1,0-0.4,0-1.1v-1.8
			c0-0.7,0-1,0-1.1c0-0.1,0-0.1,0.1-0.1c0.1,0,0.4,0,1.5,0h0.2c0.1-0.2,0.1-0.3,0.2-0.5c0.1-0.2,0.1-0.4,0.1-0.7
			c0.4,0,0.8,0.1,1.1,0.1c0.2,0,0.2,0.1,0.2,0.2c0,0.1,0,0.1-0.1,0.2c-0.1,0.1-0.1,0.2-0.2,0.3c-0.1,0.2-0.1,0.3-0.2,0.4h0.8
			c1,0,1.4,0,1.5,0c0.1,0,0.1,0,0.1,0.1c0,0.1,0,0.4,0,1.1v1.8c0,0.7,0,1,0,1.1c0,0.1,0,0.1-0.1,0.1c-0.1,0-0.4,0-1.5,0h-0.6
			c0.2,0.6,0.4,1.1,0.7,1.6c0.3-0.3,0.6-0.6,0.9-0.8c0.2-0.2,0.3-0.3,0.4-0.5c0.3,0.2,0.5,0.4,0.7,0.6c0.1,0.1,0.1,0.2,0.1,0.2
			c0,0.1,0,0.1-0.1,0.2c-0.1,0.1-0.3,0.2-0.5,0.4c-0.3,0.3-0.6,0.5-1,0.9c0.5,0.6,1.1,1.1,1.8,1.6c-0.2,0.2-0.4,0.5-0.5,0.8
			c-0.1,0.2-0.1,0.2-0.2,0.2s-0.1-0.1-0.2-0.2c-0.9-0.8-1.6-1.7-2.1-2.8c0,1,0.1,1.7,0.1,2.4c0,0.4-0.1,0.7-0.4,1
			c-0.3,0.1-0.5,0.2-1.2,0.2c-0.4,0-0.4,0-0.5-0.4c-0.1-0.3-0.2-0.5-0.3-0.8c0.4,0,0.7,0,0.9,0c0.3,0,0.4-0.1,0.4-0.4V1217.7z
			 M985.2,1218.4c0-0.3,0-0.5,0-0.8c0.4,0,0.7,0.1,0.9,0.2c0.1,0,0.2,0.1,0.2,0.1c0,0.1,0,0.1-0.1,0.2c0,0.1-0.1,0.2-0.1,0.4
			c-0.1,0.7-0.2,1.5-0.4,2.2c-0.1,0.2-0.1,0.3-0.2,0.3c-0.1,0-0.1-0.1-0.3-0.1c-0.2-0.1-0.5-0.3-0.7-0.3
			C985,1219.9,985.2,1219.2,985.2,1218.4z M988.6,1217.5c0.1,0,0.2,0,0.2,0.1c0.1,0.4,0.3,1.2,0.4,1.8c0,0.1,0,0.2-0.1,0.2l-0.6,0.2
			c-0.2,0.1-0.2,0-0.2-0.1c-0.1-0.7-0.2-1.4-0.4-1.8c0-0.1,0-0.1,0.1-0.2L988.6,1217.5z M990.9,1213.5h3v-0.8h-3V1213.5z
			 M993.9,1214.4h-3v0.8h3V1214.4z"/>
	</g>
	<g class="st2">
		<path class="st3" d="M936,1312c0.2,0,0.3,0.1,0.3,0.2c0,0.1-0.1,0.3-0.1,0.4c-0.1,0.2-0.1,0.5-0.2,1.5c-0.1,1.8-0.2,3.1-0.2,4.6
			c0,1.2,0.1,1.5,1.1,1.5c1.1,0,2.7-0.6,4.2-2.2c0,0.5,0.2,0.9,0.3,1.1c0.1,0.1,0.1,0.2,0.1,0.3c0,0.1,0,0.2-0.2,0.4
			c-1.3,1.2-3,1.8-4.5,1.8c-1.5,0-2.3-0.6-2.3-2.4c0-2,0.1-3.7,0.2-5.2c0-0.7,0.1-1.5-0.1-2.2C935.1,1311.9,935.6,1312,936,1312z"/>
		<path class="st3" d="M948.7,1313.3c0.1,0,0.2,0,0.2,0.1c0.1,0.3,0.1,0.7,0.1,1c0,0.1,0,0.1-0.1,0.1c-0.6,0.1-1.2,0.2-2,0.3
			c-0.8,2-1.5,3.7-2.3,5.1c0,0.1-0.1,0.1-0.1,0.1c0,0-0.1,0-0.1-0.1c-0.3-0.2-0.6-0.4-0.8-0.6c-0.1,0-0.1-0.1-0.1-0.1
			c0,0,0-0.1,0.1-0.1c0.9-1.5,1.5-2.7,2.1-4.2c-0.5,0-0.8,0-1.2,0c-0.3,0-0.4,0-0.7,0c-0.1,0-0.1,0-0.2-0.2c-0.1-0.2-0.1-0.6-0.1-1
			c0.5,0,0.8,0,1.1,0c0.5,0,0.8,0,1.4-0.1c0.1-0.5,0.2-0.9,0.3-1.3c0.1-0.4,0.1-0.6,0.1-1c0.5,0.1,1,0.1,1.4,0.3
			c0.1,0,0.2,0.1,0.2,0.2c0,0.1,0,0.2-0.1,0.2c-0.1,0.1-0.1,0.2-0.2,0.4c-0.1,0.3-0.2,0.7-0.3,1
			C947.7,1313.6,948.2,1313.4,948.7,1313.3z M949,1316.6c0-0.3,0-0.5-0.1-0.9c0.6,0.1,0.9,0.1,1.3,0.2c0.1,0,0.2,0.1,0.2,0.2
			c0,0,0,0.1-0.1,0.3c0,0.1-0.1,0.3,0,0.5c0,0.7,0,1.2,0.1,2c0.9,0.3,1.5,0.6,2.2,1.1c0.1,0.1,0.1,0.1,0.1,0.3
			c-0.2,0.4-0.3,0.7-0.6,1c0,0.1-0.1,0.1-0.1,0.1c0,0-0.1,0-0.1-0.1c-0.5-0.5-1-0.7-1.5-1c0,1.2-0.9,1.8-2.2,1.8
			c-1.3,0-2.2-0.7-2.2-1.7c0-1,0.9-1.8,2.2-1.8c0.2,0,0.6,0,0.9,0.1C949.1,1317.9,949,1317.1,949,1316.6z M948.2,1319.6
			c-0.6,0-1.1,0.2-1.1,0.7c0,0.4,0.3,0.6,1,0.6c0.6,0,1-0.3,1-0.9c0-0.1,0-0.2,0-0.2C948.9,1319.7,948.6,1319.6,948.2,1319.6z
			 M950.4,1313.8c0.1-0.1,0.1-0.1,0.3-0.1c0.7,0.2,1.7,0.7,2.4,1.1c0.1,0,0.1,0.1,0.1,0.1c0,0,0,0.1,0,0.1c-0.1,0.3-0.3,0.6-0.5,0.9
			c0,0.1-0.1,0.1-0.1,0.1c0,0-0.1,0-0.1,0c-0.7-0.5-1.6-1-2.5-1.3C950.1,1314.4,950.3,1314,950.4,1313.8z"/>
		<path class="st3" d="M961,1313.9c-0.3,2-0.8,3.9-1.5,5.2c-0.5,0.9-1.1,1.4-2,1.4c-1.1,0-2.1-1.1-2.1-3.1c0-1.2,0.5-2.3,1.4-3.1
			c1-1,2.3-1.5,3.9-1.5c2.9,0,4.6,1.8,4.6,4.2c0,2.2-1.3,3.6-3.7,4.4c-0.3,0.1-0.4,0-0.5-0.2c-0.1-0.2-0.4-0.5-0.8-0.8
			c2-0.5,3.6-1.3,3.6-3.6C963.7,1315.3,962.7,1313.9,961,1313.9L961,1313.9z M957.6,1315.1c-0.6,0.6-0.9,1.5-0.9,2.2
			c0,1.1,0.4,1.7,0.8,1.7c0.3,0,0.6-0.2,0.9-0.7c0.5-1,1.1-2.7,1.3-4.3C958.8,1314.2,958.1,1314.5,957.6,1315.1z"/>
		<path class="st3" d="M968.3,1314.7c-0.1,0.1-0.2,0.2-0.3,0.3c-0.1,0.1-0.2,0.1-0.2,0.1c-0.1,0-0.1-0.1-0.2-0.3
			c-0.1-0.3-0.3-0.6-0.4-0.8c0.9-0.6,1.6-1.4,2.1-2.1c0.1-0.3,0.2-0.4,0.3-0.6c0.4,0,0.8,0.1,1.1,0.2c0.1,0,0.2,0.1,0.2,0.1
			c0,0.1,0,0.1-0.1,0.2l-0.1,0.1c0.4,0.6,1,1,1.7,1.5c-0.1,0.2-0.3,0.4-0.5,0.6c-0.1,0.2-0.1,0.3-0.2,0.3c-0.1,0-0.1-0.1-0.3-0.2
			c-0.5-0.4-1-0.9-1.3-1.4c-0.4,0.6-0.8,1.1-1.3,1.6c0.2,0,0.4,0,0.7,0h1c0.7,0,0.9,0,1,0c0.1,0,0.1,0,0.1,0.1v0.7
			c0,0.1,0,0.1-0.1,0.1c-0.1,0-0.3,0-1,0v0.9h0c0.9,0,1.2,0,1.2,0c0.1,0,0.1,0,0.1,0.1v0.8c0,0.1,0,0.1-0.1,0.1c-0.1,0-0.3,0-1.2,0
			h0v2.9c0.5-0.2,1.1-0.3,1.6-0.5c0,0.2-0.1,0.4-0.1,0.7c0,0.4,0,0.4-0.4,0.5c-0.9,0.3-2.2,0.7-3.2,1c-0.2,0-0.3,0.1-0.4,0.2
			c-0.1,0-0.1,0.1-0.2,0.1c-0.1,0-0.2,0-0.2-0.2c-0.1-0.3-0.2-0.7-0.3-1c0.4,0,0.7-0.1,1.2-0.2l0.9-0.2v-3.2H969c-0.9,0-1.2,0-1.2,0
			c-0.1,0-0.1,0-0.1-0.1v-0.8c0-0.1,0-0.1,0.1-0.1c0.1,0,0.3,0,1.2,0h0.4v-0.9c-0.6,0-0.8,0-0.9,0c-0.1,0-0.1,0-0.1-0.1V1314.7z
			 M968.3,1317.8c0.2-0.1,0.2,0,0.2,0.1c0.2,0.6,0.4,1.2,0.5,1.8c0,0.1,0,0.1-0.1,0.2l-0.5,0.2c-0.2,0.1-0.2,0-0.2-0.1
			c-0.1-0.6-0.2-1.2-0.4-1.8c0-0.1,0-0.1,0.1-0.2L968.3,1317.8z M972.1,1318c0.1,0,0.1,0.1,0.1,0.1c0,0.1,0,0.1-0.1,0.1
			c-0.1,0-0.1,0.1-0.2,0.3c-0.1,0.3-0.2,0.7-0.3,1c-0.1,0.2-0.1,0.3-0.2,0.3c-0.1,0-0.1,0-0.3-0.1s-0.3-0.1-0.5-0.2
			c0.2-0.5,0.3-0.9,0.4-1.3c0-0.1,0-0.2,0.1-0.4C971.5,1317.8,971.9,1317.9,972.1,1318z M973.4,1314.7c-0.1,0.4-0.3,0.7-0.4,1.1
			c-0.1,0.2-0.1,0.2-0.2,0.2c-0.1,0-0.1-0.1-0.2-0.2c-0.2-0.2-0.4-0.4-0.7-0.5c0.4-0.8,0.8-1.7,0.9-2.7c0-0.2,0.1-0.5,0.1-0.7
			c0.4,0.1,0.8,0.2,1,0.3c0.1,0,0.2,0.1,0.2,0.2c0,0.1,0,0.1-0.1,0.2c-0.1,0.1-0.1,0.3-0.2,0.5c0,0.2-0.1,0.4-0.1,0.6h0.8v-0.6
			c0-0.7,0-1.2-0.1-1.7c0.4,0,0.8,0,1.2,0.1c0.1,0,0.2,0.1,0.2,0.1c0,0.1,0,0.2-0.1,0.3c0,0.1-0.1,0.5-0.1,1.2v0.6h0.7
			c1,0,1.3,0,1.4,0c0.1,0,0.1,0,0.1,0.1v0.9c0,0.1,0,0.1-0.1,0.1c-0.1,0-0.4,0-1.4,0h-0.7c0,0.6,0,1.1-0.1,1.6h1c1.1,0,1.5,0,1.5,0
			c0.1,0,0.1,0,0.1,0.1v0.9c0,0.1,0,0.1-0.1,0.1c-0.1,0-0.4,0-1.5,0h-0.8c0.5,1.5,1.3,2.6,2.7,3.6c-0.2,0.2-0.4,0.5-0.6,0.8
			c-0.1,0.2-0.1,0.2-0.2,0.2c-0.1,0-0.1,0-0.3-0.2c-1.1-1-1.8-2-2.3-3.3c-0.5,1.5-1.5,2.6-2.9,3.4c-0.1,0.1-0.2,0.1-0.3,0.1
			c-0.1,0-0.1-0.1-0.2-0.3c-0.2-0.3-0.4-0.6-0.6-0.7c1.7-0.8,2.6-1.8,3-3.2l0.1-0.6h-0.4c-1.1,0-1.5,0-1.5,0c-0.1,0-0.1,0-0.1-0.1
			v-0.9c0-0.1,0-0.1,0.1-0.1c0.1,0,0.4,0,1.5,0h0.5c0-0.5,0.1-1,0.1-1.6H973.4z"/>
		<path class="st3" d="M982.7,1319.6c0.3,0.5,0.5,0.8,1,1c0.4,0.2,1.2,0.2,2.2,0.2c1.5,0,3.4-0.1,5.2-0.3c-0.2,0.2-0.3,0.6-0.3,0.9
			c0,0.4-0.1,0.4-0.4,0.4c-1.5,0.1-3,0.1-4.2,0.1c-1.2,0-2.3-0.1-2.8-0.3c-0.5-0.3-1-0.7-1.2-1.1c-0.4,0.4-0.8,0.8-1.2,1.1
			c-0.1,0.1-0.2,0.2-0.2,0.2c-0.1,0.1-0.1,0.1-0.2,0.1c0,0-0.1,0-0.2-0.1c-0.2-0.3-0.3-0.7-0.5-1.1c0.3-0.1,0.5-0.2,0.7-0.4
			c0.3-0.2,0.8-0.5,1.1-0.8v-2.7H981c-0.6,0-0.8,0-0.9,0c-0.1,0-0.1,0-0.1-0.1v-0.9c0-0.1,0-0.1,0.1-0.1c0.1,0,0.2,0,0.9,0h0.8
			c0.6,0,0.8,0,0.9,0c0.1,0,0.1,0,0.1,0.1c0,0.1,0,0.4,0,1.1V1319.6z M981,1311.7c0.1,0,0.1-0.1,0.1-0.1s0.1,0,0.1,0.1
			c0.6,0.5,1.1,1.1,1.5,1.8c0.1,0.1,0.1,0.1-0.1,0.2l-0.7,0.6c-0.1,0.1-0.1,0.1-0.1,0.1c0,0-0.1,0-0.1-0.1c-0.4-0.6-1-1.4-1.5-1.9
			c-0.1-0.1-0.1-0.1,0.1-0.2L981,1311.7z M984.9,1313.8c-1.2,0-1.7,0-1.7,0c-0.1,0-0.1,0-0.1-0.1v-0.8c0-0.1,0-0.1,0.1-0.1
			c0.1,0,0.5,0,1.7,0h0.1c-0.2-0.4-0.4-0.8-0.6-1.1c-0.1-0.1,0-0.2,0.1-0.2l0.8-0.2c0.1,0,0.2,0,0.3,0c0.3,0.3,0.4,0.6,0.6,1
			c0.1,0.1,0,0.2-0.1,0.2l-0.7,0.3h1.9c0.2-0.3,0.3-0.6,0.5-0.9c0.1-0.2,0.1-0.3,0.2-0.6c0.4,0.1,0.8,0.2,1.2,0.3
			c0.1,0,0.2,0.1,0.2,0.2s0,0.1-0.1,0.2c-0.1,0.1-0.2,0.1-0.2,0.2c-0.1,0.2-0.3,0.5-0.5,0.7h0.4c1.2,0,1.6,0,1.6,0
			c0.1,0,0.1,0,0.1,0.1v0.8c0,0.1,0,0.1-0.1,0.1c-0.1,0-0.5,0-1.6,0h-1.6c-0.1,0.3-0.2,0.5-0.3,0.7h1.1c1.1,0,1.5,0,1.5,0
			c0.1,0,0.1,0,0.1,0.1c0,0.1,0,0.4,0,1.3v2.9c0,0.9,0,1.2,0,1.2c0,0.1,0,0.1-0.1,0.1c-0.1,0-0.4,0-1.5,0h-2.6c-1.1,0-1.5,0-1.5,0
			c-0.1,0-0.1,0-0.1-0.1c0-0.1,0-0.4,0-1.2v-2.9c0-0.9,0-1.2,0-1.3c0-0.1,0-0.1,0.1-0.1c0.1,0,0.5,0,1.5,0h0.2
			c0.1-0.2,0.2-0.5,0.3-0.7H984.9z M985,1316.1h3.5v-0.7H985V1316.1z M988.6,1317.6v-0.7H985v0.7H988.6z M988.6,1318.5H985v0.7h3.5
			V1318.5z"/>
	</g>
	<g id="パス_1778" transform="translate(904 1162.563)">
		<path class="st3" d="M119,24H1V1h118V24z"/>
		<path class="st0" d="M2,2v21h116V2H2 M0,0h120v25H0V0z"/>
	</g>
	<g class="st2">
		<path class="st1" d="M943.8,1172.2c-0.8,0.8-1.7,1.5-2.9,2.2c-0.1,0.1-0.2,0.1-0.3,0.1c-0.1,0-0.1-0.1-0.3-0.3
			c-0.2-0.3-0.4-0.5-0.6-0.7c1.8-0.9,3-1.9,3.9-3.2c0.2-0.2,0.3-0.5,0.4-0.7c0.5,0.1,0.9,0.2,1.2,0.3c0.1,0,0.2,0.1,0.2,0.2
			s0,0.2-0.2,0.2c-0.1,0.1-0.2,0.1-0.4,0.4l-0.2,0.3h2.6c0.2,0,0.3,0,0.3,0c0.1,0,0.1-0.1,0.2-0.1c0.1,0,0.2,0.1,0.5,0.3
			c0.3,0.3,0.4,0.4,0.4,0.5c0,0.1,0,0.2-0.2,0.2c-0.1,0.1-0.3,0.2-0.4,0.4c-1,1.3-2,2.3-3.4,3.3h3.1c1,0,1.6,0,1.6,0
			c0.1,0,0.1,0,0.1,0.1c0,0.1,0,0.4,0,1.5v1.1c0,1.7,0,2,0,2.1c0,0.1,0,0.1-0.1,0.1h-1c-0.1,0-0.1,0-0.1-0.1v-0.5h-4.2v0.6
			c0,0.1,0,0.1-0.1,0.1h-1c-0.1,0-0.1,0-0.1-0.1c0-0.1,0-0.4,0-2.1v-1.6c-0.7,0.4-1.4,0.7-2.2,1.1c-0.1,0.1-0.2,0.1-0.3,0.1
			c-0.1,0-0.1-0.1-0.2-0.3c-0.2-0.3-0.4-0.6-0.6-0.8c1.7-0.6,3.1-1.3,4.2-2c-0.4-0.5-0.9-0.8-1.2-1.1c0,0-0.1-0.1-0.1-0.1
			c0,0,0-0.1,0.1-0.1l0.6-0.5c0.1,0,0.1-0.1,0.1-0.1c0,0,0.1,0,0.1,0.1c0.5,0.3,0.9,0.7,1.3,1.1c0.8-0.6,1.4-1.3,2-2.1H943.8z
			 M944.2,1176.8v2.1h4.2v-2.1H944.2z"/>
		<path class="st1" d="M954.1,1173.2c-1.1,0-1.5,0-1.5,0c-0.1,0-0.1,0-0.1-0.1v-1c0-0.1,0-0.1,0.1-0.1c0.1,0,0.4,0,1.5,0h2.9v-0.8
			c0-0.7,0-1-0.1-1.5c0.4,0,0.9,0,1.4,0.1c0.1,0,0.2,0.1,0.2,0.1c0,0.1,0,0.2-0.1,0.3c0,0.1-0.1,0.3-0.1,0.9v0.9h3.1
			c1.1,0,1.5,0,1.5,0c0.1,0,0.1,0,0.1,0.1v1c0,0.1,0,0.1-0.1,0.1c-0.1,0-0.4,0-1.5,0h-3.1v2.1h1.5c1.2,0,1.6,0,1.7,0
			c0.1,0,0.1,0,0.1,0.1c0,0.1,0,0.4,0,1.4v1.3c0,1.9,0,2.2,0,2.3c0,0.1,0,0.1-0.1,0.1h-1c-0.1,0-0.1,0-0.1-0.1v-0.6h-5.1v0.6
			c0,0.1,0,0.1-0.1,0.1h-1c-0.1,0-0.1,0-0.1-0.1c0-0.1,0-0.4,0-2.3v-1.2c0-1.2,0-1.5,0-1.6c0-0.1,0-0.1,0.1-0.1c0.1,0,0.5,0,1.7,0
			h1.3v-2.1H954.1z M955.1,1178.7h5.1v-2.3h-5.1V1178.7z"/>
		<path class="st1" d="M973.5,1176.4c-1.7,0.1-3.5,0.2-5.2,0.3c-0.2,0-0.3,0-0.4,0.1c-0.1,0-0.1,0-0.2,0c-0.1,0-0.1,0-0.2-0.2
			c-0.1-0.3-0.1-0.6-0.2-1c0.4,0,0.9,0,1.3,0c0.3-0.4,0.4-0.7,0.6-1.1h-2.2c0,0.9-0.1,1.8-0.3,2.6c-0.2,1.1-0.5,2.1-1,3
			c-0.1,0.1-0.1,0.2-0.2,0.2c0,0-0.1-0.1-0.2-0.2c-0.3-0.3-0.6-0.6-0.8-0.7c0.6-0.9,0.9-1.7,1-2.8c0.2-1,0.3-2.2,0.3-4
			c0-1.7,0-2.4,0-2.5c0-0.1,0-0.1,0.1-0.1c0.1,0,0.5,0,1.7,0h5.6c1.2,0,1.6,0,1.7,0c0.1,0,0.1,0,0.1,0.1c0,0.1,0,0.3,0,0.8v0.9
			c0,0.5,0,0.7,0,0.8c0,0.1,0,0.1-0.1,0.1c-0.1,0-0.5,0-1.7,0h-6.1v0.7h6.4c1.2,0,1.6,0,1.7,0c0.1,0,0.1,0,0.1,0.1v0.8
			c0,0.1,0,0.1-0.1,0.1c-0.1,0-0.5,0-1.7,0h-0.4c0.6,0.5,1.1,1.1,1.7,1.7c0.1,0.1,0.1,0.1-0.1,0.2l-0.6,0.4
			c-0.1,0.1-0.1,0.1-0.2,0.1s-0.1,0-0.1-0.1L973.5,1176.4z M968.4,1180.4c-1.2,0-1.6,0-1.6,0c-0.1,0-0.1,0-0.1-0.1v-0.8
			c0-0.1,0-0.1,0.1-0.1c0.1,0,0.5,0,1.6,0h2v-0.8h-1c-1.1,0-1.5,0-1.6,0c-0.1,0-0.1,0-0.1-0.1v-0.7c0-0.1,0-0.1,0.1-0.1
			c0.1,0,0.5,0,1.6,0h1v0c0-0.4,0-0.6-0.1-0.9c0.4,0,0.7,0,1.1,0.1c0.1,0,0.2,0.1,0.2,0.1c0,0.1,0,0.1-0.1,0.2
			c0,0.1-0.1,0.2-0.1,0.4v0h1.4c1.2,0,1.5,0,1.6,0c0.1,0,0.1,0,0.1,0.1v0.7c0,0.1,0,0.1-0.1,0.1c-0.1,0-0.5,0-1.6,0h-1.4v0.8h2.3
			c1.2,0,1.6,0,1.6,0c0.1,0,0.1,0,0.1,0.1v0.8c0,0.1,0,0.1-0.1,0.1c-0.1,0-0.5,0-1.6,0H968.4z M973.8,1171.2h-6.7v0.9h6.7V1171.2z
			 M972.3,1175.1c-0.1-0.1-0.1-0.1,0-0.2l0.6-0.3h-2.3c-0.2,0.4-0.4,0.7-0.6,1c0.9,0,1.8-0.1,2.8-0.1L972.3,1175.1z"/>
		<path class="st1" d="M978.5,1176.9c0.2,0.1,0.2,0.1,0.2,0.2c0,1-0.2,1.9-0.4,2.7c0,0.1-0.1,0.1-0.2,0.1l-0.4-0.3
			c-0.1-0.1-0.1-0.1-0.1-0.2c0.2-0.7,0.4-1.5,0.4-2.5c0-0.1,0-0.1,0.2-0.1L978.5,1176.9z M979.4,1176.3c-0.8,0-1.1,0-1.3,0
			c-0.1,0-0.1,0-0.1-0.1c0-0.1,0-0.5,0-1.5v-3c0-0.9,0-1.4,0-1.5c0-0.1,0-0.1,0.1-0.1c0.1,0,0.4,0,1.3,0h1.9c0.8,0,1.1,0,1.2,0
			c0.1,0,0.1,0,0.1,0.1v0.8c0,0.1,0,0.1-0.1,0.1c-0.1,0-0.4,0-1.2,0h-0.2v0.8c0.8,0,1,0,1.1,0c0.1,0,0.1,0,0.1,0.1v0.7
			c0,0.1,0,0.1-0.1,0.1c-0.1,0-0.3,0-1.1,0v0.8c0.7,0,1,0,1.1,0c0.1,0,0.1,0,0.1,0.1v0.7c0,0.1,0,0.1-0.1,0.1c-0.1,0-0.3,0-1.1,0
			v0.9h0.2c0.8,0,1,0,1.1,0c0.1,0,0.1,0,0.1,0.2l0,0.8c0,1.7-0.1,2.6-0.3,3.2c0.5-0.8,0.8-1.8,1-2.9c0.1-1,0.2-2.2,0.2-4.3
			c0-1.2,0-1.8,0-1.9c0-0.1,0-0.1,0.1-0.1c0.1,0,0.4,0,1.3,0h1.8c0.9,0,1.3,0,1.3,0c0.1,0,0.1,0,0.1,0.1c0,0.1,0,0.4,0,1.2v2.3
			c0,0.8,0,1.1,0,1.2c0,0.1,0,0.1-0.1,0.1h-0.9c-0.1,0-0.1,0-0.1-0.1v-0.2h-0.4c0.2,2,0.8,3.5,2.2,4.8c-0.2,0.2-0.5,0.4-0.7,0.7
			c-0.1,0.2-0.2,0.2-0.2,0.2c-0.1,0-0.1-0.1-0.2-0.2c-1.4-1.5-1.9-3.3-2.1-5.5h-0.9c0,0.8-0.1,1.5-0.2,2.2c-0.2,1.2-0.5,2.4-1.1,3.4
			c-0.1,0.1-0.1,0.2-0.2,0.2c-0.1,0-0.1-0.1-0.3-0.2c-0.2-0.2-0.4-0.4-0.6-0.6c-0.2,0.4-0.7,0.7-1.2,0.7c-0.2,0-0.4,0-0.5,0
			c-0.2,0-0.2,0-0.3-0.4c0-0.3-0.1-0.6-0.2-0.8c0.4,0,0.6,0.1,0.9,0.1s0.4-0.1,0.5-0.3c0.1-0.3,0.2-1,0.3-2.8H979.4z M979.2,1176.9
			c0.1,0,0.2,0,0.2,0.1c0.1,0.7,0.2,1.4,0.2,2.1c0,0.1,0,0.1-0.1,0.2l-0.4,0.1c-0.1,0-0.2,0-0.2-0.1c0-0.8,0-1.5-0.1-2.2
			c0-0.1,0-0.1,0.1-0.2L979.2,1176.9z M980.1,1172v-0.8h-1v0.8H980.1z M980.1,1173.6v-0.8h-1v0.8H980.1z M980.1,1175.4v-0.9h-1v0.9
			H980.1z M980,1176.8c0.1,0,0.1,0,0.2,0.1c0.1,0.5,0.2,1.1,0.3,1.7c0,0.1,0,0.1-0.1,0.2l-0.3,0.1c-0.1,0.1-0.2,0.1-0.2-0.1
			c0-0.6-0.1-1.3-0.3-1.8c0-0.1,0-0.1,0.1-0.2L980,1176.8z M980.7,1176.6c0.1,0,0.1,0,0.2,0.1c0.1,0.4,0.2,0.8,0.3,1.3
			c0,0.1,0,0.1-0.1,0.2l-0.3,0.1c-0.1,0.1-0.1,0-0.2-0.1c-0.1-0.5-0.2-1-0.3-1.4c0-0.1,0-0.1,0.1-0.2L980.7,1176.6z M984.4,1171.5
			v1.1c0,0.5,0,0.9,0,1.2h2.4v-2.3H984.4z"/>
	</g>
	<g id="パス_1780" transform="translate(904 1256.563)">
		<path class="st3" d="M119,24H1V1h118V24z"/>
		<path class="st0" d="M2,2v21h116V2H2 M0,0h120v25H0V0z"/>
	</g>
	<g class="st2">
		<path class="st1" d="M938.9,1271.1c0-0.4,0-1.1,0-1.6c-0.2,0.2-0.5,0.5-0.7,0.7c-0.1,0.1-0.2,0.2-0.3,0.2c-0.1,0-0.1-0.1-0.2-0.3
			c-0.1-0.4-0.3-0.6-0.4-0.9c1.1-0.8,1.9-1.7,2.5-2.9c0.1-0.2,0.2-0.4,0.3-0.7c0.4,0.1,0.7,0.3,1.1,0.4c0.1,0.1,0.2,0.1,0.2,0.2
			s0,0.1-0.1,0.2c-0.1,0.1-0.2,0.2-0.3,0.4c-0.2,0.4-0.5,0.8-0.7,1.2v4.8c0,1,0,1.5,0,1.6c0,0.1,0,0.1-0.1,0.1h-1
			c-0.1,0-0.1,0-0.1-0.1c0-0.1,0-0.6,0-1.6V1271.1z M944.7,1264.7c-0.2,0.4-0.5,0.7-0.8,1c-0.1,0.2-0.2,0.2-0.3,0.2
			c-0.1,0-0.1-0.1-0.3-0.2c-0.2-0.2-0.4-0.4-0.6-0.5c0.2-0.2,0.3-0.3,0.5-0.5h0c-0.1,0-0.4,0-1.4,0c0.2,0.3,0.4,0.6,0.5,0.9
			c0.1,0.1,0,0.2-0.1,0.2l-0.9,0.2c-0.2,0-0.2,0-0.3-0.1c-0.1-0.4-0.3-0.8-0.5-1.1h-0.7c-0.3,0.5-0.7,1-1.2,1.4
			c-0.1,0.1-0.2,0.2-0.3,0.2c-0.1,0-0.1-0.1-0.3-0.3c-0.2-0.3-0.4-0.5-0.6-0.7c0.8-0.7,1.4-1.4,1.7-2.1c0.1-0.2,0.2-0.4,0.2-0.6
			c0.4,0,0.9,0.1,1.2,0.2c0.1,0,0.2,0.1,0.2,0.2s-0.1,0.1-0.1,0.2c-0.1,0.1-0.1,0.1-0.2,0.3l-0.1,0.2h1.3c1.1,0,1.4,0,1.5,0
			c0.1,0,0.2,0,0.2,0.1v0.8c0.3-0.4,0.6-0.8,0.8-1.3c0.1-0.2,0.2-0.4,0.2-0.7c0.4,0.1,0.9,0.1,1.1,0.2c0.1,0,0.2,0.1,0.2,0.1
			c0,0.1,0,0.1-0.1,0.2c-0.1,0.1-0.1,0.1-0.2,0.3l-0.1,0.2h2.1c1.2,0,1.7,0,1.7,0c0.1,0,0.1,0,0.1,0.1v0.8c0,0.1,0,0.1-0.1,0.1
			c-0.1,0-0.5,0-1.7,0h-0.4c0.2,0.3,0.3,0.5,0.5,0.8c0.1,0.1,0,0.2-0.1,0.2l-0.8,0.2c-0.2,0-0.2,0-0.2-0.1c-0.1-0.4-0.3-0.7-0.5-1.1
			H944.7z M940.7,1268.4c0-0.6,0-0.8-0.1-1.2c0.4,0,0.8,0,1.1,0.1c0.1,0,0.2,0.1,0.2,0.1c0,0.1,0,0.1-0.1,0.2c0,0.1-0.1,0.3-0.1,0.8
			v2.8c0,0.9,0,1.4,0,1.5c0,0.1,0,0.1-0.1,0.1h-0.9c-0.1,0-0.1,0-0.1-0.1c0-0.1,0-0.5,0-1.5V1268.4z M944.1,1271.5
			c-1.2,0-1.6,0-1.7,0c-0.1,0-0.1,0-0.1-0.1v-0.8c0-0.1,0-0.1,0.1-0.1c0.1,0,0.5,0,1.7,0h0.9v0c0-0.3,0-0.6-0.1-0.9
			c0.4,0,0.8,0,1.2,0.1c0.1,0,0.2,0.1,0.2,0.1c0,0.1,0,0.1-0.1,0.2c0,0.1-0.1,0.2-0.1,0.5h1.2c1.2,0,1.6,0,1.7,0
			c0.1,0,0.1,0,0.1,0.1v0.8c0,0.1,0,0.1-0.1,0.1c-0.1,0-0.5,0-1.7,0h-0.6c0.8,0.7,1.6,1.2,2.9,1.6c-0.2,0.2-0.3,0.5-0.4,0.8
			c-0.1,0.2-0.1,0.3-0.2,0.3c-0.1,0-0.2,0-0.3-0.1c-1-0.5-1.8-1.1-2.6-2c0,1.3,0.1,2.1,0.1,2.3c0,0.1,0,0.1-0.1,0.1h-0.9
			c-0.1,0-0.1,0-0.1-0.1c0-0.2,0.1-1,0.1-2.2c-0.7,0.9-1.6,1.4-2.6,1.9c-0.2,0.1-0.2,0.1-0.3,0.1c-0.1,0-0.2-0.1-0.3-0.3
			c-0.1-0.3-0.3-0.5-0.4-0.6c1.3-0.4,2.3-0.9,3.1-1.8H944.1z M949.2,1267c0,0.1,0,0.2-0.2,0.2c-0.1,0-0.3,0-1.1,0
			c-0.3,0.5-0.7,0.9-1.2,1.3c0.8,0.2,1.7,0.4,2.7,0.5c-0.1,0.2-0.3,0.4-0.4,0.8c-0.1,0.3-0.1,0.3-0.5,0.3c-1.1-0.2-2.1-0.5-2.9-0.8
			c-0.8,0.4-1.7,0.7-2.8,0.9c-0.3,0.1-0.4,0.1-0.4-0.2c-0.1-0.3-0.2-0.6-0.4-0.7c0.9-0.1,1.8-0.3,2.5-0.6c-0.3-0.2-0.6-0.5-0.8-0.7
			c-0.2,0.2-0.4,0.3-0.5,0.4c-0.1,0.1-0.2,0.1-0.3,0.1c-0.1,0-0.1-0.1-0.2-0.2c-0.2-0.2-0.4-0.4-0.5-0.5c0.8-0.5,1.4-1.1,1.8-1.7
			c0.1-0.2,0.3-0.5,0.3-0.7c0.4,0.1,0.7,0.1,1.1,0.2c0.1,0,0.1,0.1,0.1,0.1c0,0.1,0,0.1-0.1,0.2c-0.1,0-0.1,0.1-0.3,0.3l-0.1,0.1
			h2.5c1.1,0,1.4,0,1.5,0c0.1,0,0.2,0,0.2,0.1V1267z M944.4,1267.2c0.4,0.3,0.8,0.6,1.2,0.8c0.4-0.2,0.7-0.5,1-0.8H944.4z"/>
		<path class="st1" d="M959.7,1264.4c0.1,0.1,0.2,0.1,0.2,0.2s0,0.1-0.1,0.2c-0.2,0.2-0.4,0.4-0.6,0.9c-0.6,1.4-1.6,3.1-2.4,4.1
			c-1.1,1.4-2.4,2.8-3.8,3.7c-0.1,0.1-0.2,0.1-0.3,0.1s-0.2,0-0.3-0.1c-0.3-0.2-0.8-0.5-1.2-0.7c1.8-1.1,3.1-2.4,4.2-3.8
			c0.8-1.1,1.6-2.4,2.1-3.7c0.2-0.6,0.4-0.9,0.5-1.7C958.6,1263.8,959.2,1264.1,959.7,1264.4z"/>
		<path class="st1" d="M964.3,1270.5c-1.1,0-1.5,0-1.6,0c-0.1,0-0.1,0-0.1-0.1v-1.1c0-0.1,0-0.1,0.1-0.1c0.1,0,0.5,0,1.6,0h1.4
			c0-0.5,0.1-1.1,0.1-1.7v-0.9h-0.7c-1.2,0-1.6,0-1.7,0c-0.1,0-0.2,0-0.2-0.1v-1.1c0-0.1,0-0.2,0.2-0.2c0.1,0,0.5,0,1.7,0h0.7v-0.5
			c0-0.7,0-1.3-0.1-1.9c0.5,0,1,0,1.5,0.1c0.2,0,0.2,0.1,0.2,0.2c0,0.1-0.1,0.2-0.1,0.3c-0.1,0.2-0.1,0.4-0.1,1.4v0.5h2.8v-0.5
			c0-0.9,0-1.3-0.1-2c0.5,0,1,0,1.5,0.1c0.1,0,0.2,0.1,0.2,0.2c0,0.1,0,0.2-0.1,0.3c-0.1,0.2-0.1,0.5-0.1,1.4v0.5h0.6
			c1.2,0,1.7,0,1.7,0c0.1,0,0.1,0,0.1,0.2v1.1c0,0.1,0,0.1-0.1,0.1c-0.1,0-0.5,0-1.7,0h-0.6v2.6h1.2c1.1,0,1.5,0,1.6,0
			c0.1,0,0.1,0,0.1,0.1v1.1c0,0.1,0,0.1-0.1,0.1c-0.1,0-0.5,0-1.6,0h-1.2v1.6c0,1.4,0,2.1,0,2.2c0,0.1,0,0.1-0.1,0.1H970
			c-0.1,0-0.1,0-0.1-0.1c0-0.1,0-0.8,0-2.2v-1.6h-3c-0.1,0.3-0.1,0.5-0.2,0.8c-0.4,1.3-1.2,2.3-2.4,3.1c-0.2,0.1-0.2,0.1-0.3,0.1
			c-0.1,0-0.1-0.1-0.3-0.3c-0.2-0.3-0.5-0.5-0.8-0.7c1.4-0.7,2.1-1.5,2.5-2.7c0-0.1,0.1-0.2,0.1-0.3H964.3z M969.9,1269.2v-2.6h-2.8
			v0.9c0,0.6,0,1.2,0,1.7H969.9z"/>
		<path class="st1" d="M977.3,1270.4c0.2,0.1,0.2,0.1,0.2,0.2c0,1-0.2,2.1-0.5,2.9c-0.1,0.1-0.1,0.1-0.2,0.1l-0.5-0.3
			c-0.2-0.1-0.2-0.1-0.1-0.2c0.3-0.8,0.4-1.7,0.5-2.7c0-0.2,0-0.1,0.2-0.1L977.3,1270.4z M978.3,1269.8c-0.9,0-1.2,0-1.4,0
			c-0.1,0-0.1,0-0.1-0.2c0-0.1,0-0.6,0-1.6v-3.2c0-1,0-1.5,0-1.6c0-0.1,0-0.1,0.1-0.1c0.1,0,0.5,0,1.4,0h2.1c0.8,0,1.2,0,1.3,0
			c0.1,0,0.1,0,0.1,0.1v0.8c0,0.1,0,0.1-0.1,0.1c-0.1,0-0.4,0-1.3,0h-0.2v0.9c0.8,0,1.1,0,1.2,0c0.1,0,0.1,0,0.1,0.1v0.7
			c0,0.1,0,0.1-0.1,0.1c-0.1,0-0.4,0-1.2,0v0.9c0.8,0,1.1,0,1.2,0c0.1,0,0.1,0,0.1,0.1v0.7c0,0.1,0,0.1-0.1,0.1c-0.1,0-0.4,0-1.2,0
			v0.9h0.2c0.8,0,1.1,0,1.1,0c0.1,0,0.2,0,0.1,0.2l0,0.9c-0.1,1.9-0.2,2.8-0.3,3.4c0.6-0.9,0.9-1.9,1-3.1c0.1-1.1,0.2-2.4,0.2-4.6
			c0-1.3,0-2,0-2c0-0.1,0-0.1,0.2-0.1c0.1,0,0.4,0,1.5,0h1.9c1,0,1.4,0,1.5,0c0.1,0,0.2,0,0.2,0.1c0,0.1,0,0.5,0,1.3v2.4
			c0,0.9,0,1.2,0,1.3c0,0.1,0,0.1-0.2,0.1h-1c-0.1,0-0.1,0-0.1-0.2v-0.2h-0.5c0.2,2.2,0.9,3.8,2.4,5.2c-0.2,0.2-0.5,0.5-0.8,0.8
			c-0.1,0.2-0.2,0.2-0.2,0.2c-0.1,0-0.1-0.1-0.3-0.2c-1.5-1.6-2.1-3.5-2.3-6h-0.9c0,0.9-0.1,1.6-0.2,2.4c-0.2,1.2-0.6,2.5-1.2,3.6
			c-0.1,0.2-0.2,0.2-0.2,0.2c-0.1,0-0.1-0.1-0.3-0.2c-0.2-0.3-0.5-0.5-0.7-0.6c-0.3,0.5-0.7,0.7-1.3,0.7c-0.2,0-0.4,0-0.6,0
			c-0.2,0-0.2,0-0.3-0.4c-0.1-0.4-0.1-0.6-0.3-0.9c0.4,0.1,0.7,0.1,1,0.1c0.3,0,0.4-0.1,0.5-0.3c0.1-0.3,0.3-1.1,0.3-3H978.3z
			 M978.1,1270.4c0.2,0,0.2,0,0.2,0.1c0.1,0.7,0.2,1.5,0.2,2.3c0,0.1,0,0.1-0.2,0.2l-0.4,0.1c-0.2,0.1-0.2,0.1-0.2-0.1
			c0-0.9-0.1-1.7-0.1-2.4c0-0.1,0-0.2,0.2-0.2L978.1,1270.4z M979,1265.1v-0.9H978v0.9H979z M979,1266.9v-0.9H978v0.9H979z
			 M979,1268.8v-0.9H978v0.9H979z M979,1270.3c0.1-0.1,0.2,0,0.2,0.1c0.1,0.6,0.2,1.2,0.3,1.9c0,0.1,0,0.2-0.2,0.2l-0.3,0.1
			c-0.1,0.1-0.2,0.1-0.2-0.1c-0.1-0.7-0.1-1.4-0.3-1.9c0-0.1,0-0.1,0.1-0.2L979,1270.3z M979.8,1270.1c0.1,0,0.1,0,0.2,0.1
			c0.1,0.4,0.3,0.8,0.4,1.4c0,0.1,0,0.1-0.1,0.2l-0.3,0.1c-0.1,0.1-0.2,0-0.2-0.1c-0.1-0.6-0.2-1.1-0.3-1.5c0-0.1,0-0.1,0.1-0.2
			L979.8,1270.1z M983.8,1264.6v1.1c0,0.5,0,0.9,0,1.3h2.5v-2.5H983.8z"/>
	</g>
	<g id="パス_1782" transform="translate(904 1350.563)">
		<path class="st3" d="M119,24H1V1h118V24z"/>
		<path class="st0" d="M2,2v21h116V2H2 M0,0h120v25H0V0z"/>
	</g>
	<g class="st2">
		<path class="st1" d="M948.8,1365.1c0,0.3-0.1,0.6-0.2,0.9c-0.2,1.1-0.6,2-1.3,2.9c-0.1,0.1-0.2,0.2-0.2,0.2
			c-0.1,0-0.1-0.1-0.2-0.2c-0.3-0.3-0.6-0.5-0.9-0.7c0.8-0.8,1.2-1.9,1.4-3c0.1-0.8,0.2-1.3,0.2-2.2c0-1.3,0-1.9,0-1.9
			c0-0.1,0-0.1,0.1-0.1c0.1,0,0.5,0,1.7,0h4.4c1.2,0,1.6,0,1.7,0c0.1,0,0.1,0,0.1,0.1c0,0.1,0,0.4,0,1.2v2.1c0,0.8,0,1.1,0,1.2
			c0,0.1,0,0.1-0.1,0.1h-1.1c-0.1,0-0.1,0-0.1-0.1v-0.5H948.8z M948,1360.1c-1.1,0-1.5,0-1.5,0c-0.1,0-0.1,0-0.1-0.1v-1
			c0-0.1,0-0.1,0.1-0.1c0.1,0,0.5,0,1.5,0h7.1c1.1,0,1.5,0,1.5,0c0.1,0,0.1,0,0.1,0.1v1c0,0.1,0,0.1-0.1,0.1c-0.1,0-0.4,0-1.5,0H948
			z M948.9,1362.3v1.7h5.4v-1.7H948.9z"/>
		<path class="st1" d="M961.4,1366.1c-0.3,0.9-0.8,1.6-1.6,2.4c-0.1,0.1-0.2,0.2-0.2,0.2s-0.1-0.1-0.2-0.2c-0.2-0.3-0.5-0.5-0.7-0.7
			c0.9-0.7,1.3-1.3,1.6-2.2c0.2-0.6,0.4-1.4,0.4-2.6c0-0.6,0-1,0-1.1c-0.4,0.2-0.9,0.5-1.3,0.7c-0.1,0.1-0.2,0.1-0.3,0.1
			c-0.1,0-0.1-0.1-0.2-0.3c-0.1-0.3-0.3-0.5-0.5-0.7c2-0.8,3.7-1.9,4.6-2.9c0.2-0.2,0.4-0.4,0.5-0.6c0.5,0.1,0.9,0.1,1.3,0.2
			c0.1,0,0.2,0.1,0.2,0.1s-0.1,0.1-0.2,0.2c1.2,1.2,3,2.2,5,2.9c-0.2,0.3-0.3,0.5-0.4,0.8c-0.1,0.2-0.1,0.3-0.2,0.3
			c-0.1,0-0.1,0-0.3-0.1c-1.2-0.5-2.2-1.1-3.2-1.8v0.4c0,0.1,0,0.1-0.1,0.1c-0.1,0-0.3,0-1,0h-1c-0.7,0-0.9,0-1,0
			c-0.1,0-0.1,0-0.1-0.1v-0.4c-0.5,0.4-1,0.7-1.6,1c0.1,0,0.5,0,1.6,0h3.4c1.1,0,1.5,0,1.6,0c0.1,0,0.1,0,0.1,0.1c0,0.1,0,0.3,0,1
			v1.5c0,0.7,0,0.9,0,1c0,0.1,0,0.1-0.1,0.1c-0.1,0-0.5,0-1.6,0h-4.1C961.5,1365.7,961.5,1365.9,961.4,1366.1
			c0.1-0.1,0.1-0.1,0.1-0.1c0.1,0,0.5,0,1.6,0h3.2c1.1,0,1.5,0,1.6,0c0.1,0,0.1,0,0.1,0.1c0,0.1,0,0.3,0,0.7v0.7c0,1.2,0,1.4,0,1.5
			c0,0.1,0,0.1-0.1,0.1h-1c-0.1,0-0.1,0-0.1-0.1v-0.3h-4.2v0.3c0,0.1,0,0.1-0.1,0.1h-1c-0.1,0-0.1,0-0.1-0.1c0-0.1,0-0.3,0-1.5v-0.6
			C961.4,1366.5,961.4,1366.3,961.4,1366.1L961.4,1366.1z M966.2,1364h-4.4c0,0.2,0,0.4-0.1,0.6h4.4V1364z M961.9,1362.7v0.6h4.3
			v-0.6H961.9z M962.6,1367.8h4.2v-0.8h-4.2V1367.8z M964.5,1360.5c0.4,0,0.6,0,0.7,0c-0.5-0.4-0.9-0.7-1.3-1.1
			c-0.4,0.4-0.8,0.8-1.2,1.1H964.5z"/>
		<path class="st1" d="M972.2,1365.4c0.2,0.1,0.2,0.1,0.2,0.2c0,1-0.2,1.9-0.4,2.7c0,0.1-0.1,0.1-0.2,0.1l-0.4-0.3
			c-0.1-0.1-0.1-0.1-0.1-0.2c0.2-0.7,0.4-1.5,0.4-2.5c0-0.1,0-0.1,0.2-0.1L972.2,1365.4z M973.1,1364.8c-0.8,0-1.1,0-1.3,0
			c-0.1,0-0.1,0-0.1-0.1c0-0.1,0-0.5,0-1.5v-3c0-0.9,0-1.4,0-1.5c0-0.1,0-0.1,0.1-0.1c0.1,0,0.4,0,1.3,0h1.9c0.8,0,1.1,0,1.2,0
			c0.1,0,0.1,0,0.1,0.1v0.8c0,0.1,0,0.1-0.1,0.1c-0.1,0-0.4,0-1.2,0h-0.2v0.8c0.8,0,1,0,1.1,0c0.1,0,0.1,0,0.1,0.1v0.7
			c0,0.1,0,0.1-0.1,0.1c-0.1,0-0.3,0-1.1,0v0.8c0.7,0,1,0,1.1,0c0.1,0,0.1,0,0.1,0.1v0.7c0,0.1,0,0.1-0.1,0.1c-0.1,0-0.3,0-1.1,0
			v0.9h0.2c0.8,0,1,0,1.1,0c0.1,0,0.1,0,0.1,0.2l0,0.8c0,1.7-0.1,2.6-0.3,3.2c0.5-0.8,0.8-1.8,1-2.9c0.1-1,0.2-2.2,0.2-4.3
			c0-1.2,0-1.8,0-1.9c0-0.1,0-0.1,0.1-0.1c0.1,0,0.4,0,1.3,0h1.8c0.9,0,1.3,0,1.3,0c0.1,0,0.1,0,0.1,0.1c0,0.1,0,0.4,0,1.2v2.3
			c0,0.8,0,1.1,0,1.2c0,0.1,0,0.1-0.1,0.1h-0.9c-0.1,0-0.1,0-0.1-0.1v-0.2h-0.4c0.2,2,0.8,3.5,2.2,4.8c-0.2,0.2-0.5,0.4-0.7,0.7
			c-0.1,0.2-0.2,0.2-0.2,0.2c-0.1,0-0.1-0.1-0.2-0.2c-1.4-1.5-1.9-3.3-2.1-5.5h-0.9c0,0.8-0.1,1.5-0.2,2.2c-0.2,1.2-0.5,2.4-1.1,3.4
			c-0.1,0.1-0.1,0.2-0.2,0.2c-0.1,0-0.1-0.1-0.3-0.2c-0.2-0.2-0.4-0.4-0.6-0.6c-0.2,0.4-0.7,0.7-1.2,0.7c-0.2,0-0.4,0-0.5,0
			c-0.2,0-0.2,0-0.3-0.4c0-0.3-0.1-0.6-0.2-0.8c0.4,0,0.6,0.1,0.9,0.1s0.4-0.1,0.5-0.3c0.1-0.3,0.2-1,0.3-2.8H973.1z M973,1365.4
			c0.1,0,0.2,0,0.2,0.1c0.1,0.7,0.2,1.4,0.2,2.1c0,0.1,0,0.1-0.1,0.2l-0.4,0.1c-0.1,0-0.2,0-0.2-0.1c0-0.8,0-1.5-0.1-2.2
			c0-0.1,0-0.1,0.1-0.2L973,1365.4z M973.8,1360.5v-0.8h-1v0.8H973.8z M973.8,1362.1v-0.8h-1v0.8H973.8z M973.8,1363.9v-0.9h-1v0.9
			H973.8z M973.7,1365.3c0.1,0,0.1,0,0.2,0.1c0.1,0.5,0.2,1.1,0.3,1.7c0,0.1,0,0.1-0.1,0.2l-0.3,0.1c-0.1,0.1-0.2,0.1-0.2-0.1
			c0-0.6-0.1-1.3-0.3-1.8c0-0.1,0-0.1,0.1-0.2L973.7,1365.3z M974.4,1365.1c0.1,0,0.1,0,0.2,0.1c0.1,0.4,0.2,0.8,0.3,1.3
			c0,0.1,0,0.1-0.1,0.2l-0.3,0.1c-0.1,0.1-0.1,0-0.2-0.1c-0.1-0.5-0.2-1-0.3-1.4c0-0.1,0-0.1,0.1-0.2L974.4,1365.1z M978.1,1360v1.1
			c0,0.5,0,0.9,0,1.2h2.4v-2.3H978.1z"/>
	</g>
</g>
</svg>
