<?xml version="1.0" encoding="utf-8"?>
<!-- Generator: Adobe Illustrator 26.5.3, SVG Export Plug-In . SVG Version: 6.00 Build 0)  -->
<svg version="1.1" id="レイヤー_1" xmlns="http://www.w3.org/2000/svg" xmlns:xlink="http://www.w3.org/1999/xlink" x="0px"
	 y="0px" viewBox="0 0 560.8 35.2" style="enable-background:new 0 0 560.8 35.2;" xml:space="preserve">
<g>
	<path d="M509.9,32.5c-2.1-9.7-4.5-20.7-6.7-30.4c-0.1-0.4-0.1-0.7-0.3-1c-0.2-0.3-0.4-0.5-0.6-0.7c-0.2-0.2-0.4-0.2-0.7-0.3
		C501.2,0,501,0,500.6,0h-8.2c-0.4,0-0.8,0-1.3,0.2c-0.3,0.1-0.5,0.2-0.7,0.3c-0.3,0.2-0.4,0.3-0.6,0.5
		c-10.9,10-35.3,32.2-35.5,32.4c-0.1,0.1-0.2,0.2-0.3,0.4c-0.2,0.2-0.2,0.5-0.2,0.8c0.1,0.2,0.2,0.3,0.4,0.4
		c0.2,0.1,0.5,0.1,0.7,0.1c0.3,0,6.5,0,9.1,0c0.4,0,0.8,0,1.2-0.2c0.3-0.1,0.5-0.2,0.8-0.4c0.3-0.2,0.4-0.3,0.6-0.6
		c2-1.9,4-3.8,5.9-5.8c0.1-0.1,0.2-0.2,0.3-0.3c0.1-0.1,0.3-0.1,0.4-0.2c0.3-0.1,0.5-0.1,0.8-0.1h22.2c0.2,0,0.3,0,0.4,0.2
		c0.1,0.1,0.1,0.2,0.1,0.3c0.2,1.6,0.5,3.2,0.7,4.7c0.1,0.7,0.2,1.4,0.9,1.9c0.5,0.4,1.2,0.4,1.8,0.4h7.7c0.3,0,0.7,0,1-0.1
		c0.3-0.1,0.6-0.2,0.8-0.4c0.3-0.3,0.4-0.7,0.4-1C510.1,33.2,510,32.8,509.9,32.5 M496.1,23.4c0,0-0.1,0.1-0.2,0.1h-18.5
		c5.3-5.1,10.9-10.4,16.2-15.6c0.9,5.1,1.7,10.3,2.5,15.4C496.2,23.3,496.2,23.3,496.1,23.4"/>
	<path d="M220.3,0.7c-0.2-0.2-0.3-0.3-0.6-0.4c-0.2-0.1-0.5-0.1-0.7-0.1h-37.5c-0.7,0-1.3,0-1.9,0.5c-0.5,0.4-0.7,0.9-1,1.5
		c-4.2,9.8-8.9,20.7-13.2,30.5c-0.3,0.7-0.6,1.6,0.1,2.2c0.5,0.4,1.2,0.4,1.7,0.4h37.7c0.3,0,0.6,0,0.9-0.1c0.3-0.1,0.5-0.2,0.8-0.4
		c0.4-0.3,0.7-0.7,0.9-1.1c0.1-0.1,0.1-0.3,0.2-0.4c0.1-0.2,0.2-0.5,0.2-0.8c0-0.3-0.1-0.5-0.2-0.8c-0.1-0.3-0.3-0.4-0.6-0.6
		c-0.3-0.1-0.5-0.2-0.8-0.2h-27.3c1.5-3.5,3.1-7,4.6-10.5c0.1-0.1,0.1-0.3,0.2-0.4c0.1-0.1,0.2-0.2,0.3-0.3c0.1-0.1,0.2-0.1,0.3-0.1
		c0.2,0,0.3,0,0.5,0h23.9c0.5,0,1-0.1,1.4-0.4c0.2-0.1,0.4-0.3,0.6-0.5c0.2-0.2,0.3-0.4,0.4-0.7c0.1-0.2,0.1-0.3,0.2-0.5
		c0.1-0.2,0.2-0.5,0.2-0.8c0-0.3-0.1-0.5-0.2-0.8c-0.1-0.2-0.3-0.4-0.5-0.5c-0.3-0.2-0.6-0.2-1-0.2h-24.1c1.5-3.4,2.9-6.7,4.4-10.1
		c0.1-0.1,0.1-0.2,0.2-0.4c0.1-0.1,0.2-0.2,0.3-0.3c0.2-0.1,0.4-0.1,0.7-0.1h26.5c0.3,0,0.6,0,0.9-0.1c0.3-0.1,0.6-0.2,0.8-0.4
		c0.4-0.3,0.7-0.7,0.9-1.2c0.1-0.1,0.1-0.3,0.2-0.4C220.8,1.8,220.7,1.2,220.3,0.7"/>
	<path d="M462.6,0.7c-0.2-0.2-0.3-0.3-0.6-0.4c-0.2-0.1-0.5-0.1-0.7-0.1h-37.5c-0.7,0-1.3,0-1.9,0.5c-0.5,0.4-0.7,0.9-1,1.5
		c-4.2,9.8-8.9,20.7-13.2,30.5c-0.3,0.7-0.6,1.6,0.1,2.2c0.5,0.4,1.2,0.4,1.7,0.4h37.7c0.3,0,0.6,0,0.9-0.1c0.3-0.1,0.5-0.2,0.8-0.4
		c0.4-0.3,0.7-0.7,0.9-1.1c0.1-0.1,0.1-0.3,0.2-0.4c0.1-0.2,0.2-0.5,0.2-0.8c0-0.3-0.1-0.5-0.2-0.8c-0.1-0.3-0.3-0.4-0.6-0.6
		c-0.3-0.1-0.5-0.2-0.8-0.2h-27.3c1.5-3.5,3.1-7,4.6-10.5c0.1-0.1,0.1-0.3,0.2-0.4c0.1-0.1,0.2-0.2,0.3-0.3c0.1-0.1,0.2-0.1,0.3-0.1
		c0.2,0,0.3,0,0.5,0H451c0.5,0,1-0.1,1.4-0.4c0.2-0.1,0.4-0.3,0.6-0.5c0.2-0.2,0.3-0.4,0.4-0.7c0.1-0.2,0.1-0.3,0.2-0.5
		c0.1-0.2,0.2-0.5,0.2-0.8c0-0.3-0.1-0.5-0.2-0.8c-0.1-0.2-0.3-0.4-0.5-0.5c-0.3-0.2-0.6-0.2-1-0.2H428c1.5-3.4,2.9-6.7,4.4-10.1
		c0.1-0.1,0.1-0.2,0.2-0.4c0.1-0.1,0.2-0.2,0.3-0.3c0.2-0.1,0.4-0.1,0.7-0.1H460c0.3,0,0.6,0,0.9-0.1c0.3-0.1,0.6-0.2,0.8-0.4
		c0.4-0.3,0.7-0.7,0.9-1.2c0.1-0.1,0.1-0.3,0.2-0.4C463,1.8,463,1.2,462.6,0.7"/>
	<path d="M347.5,15.8c-0.5-0.7-1.5-0.6-2.2-0.6c-1.5,0-27.1,0-27.1,0c-0.3,0-0.7,0.1-1.2,0.2c-0.3,0.1-0.6,0.3-1,0.5
		c-0.3,0.2-0.6,0.5-0.9,0.8c-0.2,0.3-0.4,0.5-0.5,0.8c-0.1,0.2-0.1,0.3-0.2,0.5c-0.1,0.3-0.2,0.5-0.2,0.7c0,0.2,0.1,0.4,0.2,0.5
		c0.2,0.3,0.6,0.4,1,0.4h18.2c-1.5,3.5-4.1,9.3-4.7,10.8c-0.1,0.2-0.2,0.4-0.4,0.5c-0.2,0.1-0.5,0.1-0.8,0.1h-24.9
		c3.7-8.3,7.7-17.5,11.2-25.8c0.1-0.1,0.1-0.2,0.2-0.3c0.1-0.1,0.2-0.2,0.3-0.2c0.2-0.1,0.4-0.1,0.6-0.1h25c-0.6,1.5-1.3,3-1.9,4.5
		c-0.3,0.7-0.7,1.6-0.3,2.3c0.5,0.7,1.5,0.7,2.3,0.7h7.3c0.4,0,0.8,0,1.2-0.1c0.4-0.1,0.8-0.2,1.1-0.5c0.5-0.4,0.7-0.9,1-1.5
		c0.8-1.9,1.6-3.8,2.5-5.7c0.2-0.4,0.4-0.9,0.4-1.3c0-0.7-0.5-1.1-1.1-1.5c-0.8-0.5-1.9-0.7-2.8-0.9c-2-0.4-4.3-0.3-6.3-0.3h-29.9
		c-1,0-2.5,0-3.6,0.1c-1.2,0.1-2.4,0.2-3.6,0.4c-1.1,0.3-2.3,0.7-3.2,1.5c-0.4,0.3-0.7,0.7-1,1.1c-0.3,0.4-0.5,0.9-0.7,1.3
		c-3.7,8.6-7.8,18.1-11.6,26.7c-0.2,0.4-0.4,0.8-0.4,1.2c0,0.7,0.5,1.1,1,1.4c0.9,0.5,2.2,0.8,3.2,1c2,0.3,4.3,0.3,6.4,0.3h29.1
		c1,0,2.4,0,3.4,0c1.2,0,2.3-0.1,3.4-0.3c1.1-0.2,2.2-0.5,3.1-1.1c0.5-0.3,0.9-0.6,1.3-1.1c0.6-0.7,0.9-1.3,1.2-2.1
		c0.7-1.6,4.7-10.7,5.4-12.3C347.6,17.5,348.1,16.5,347.5,15.8"/>
	<path d="M276.9,2.5c-0.1-0.4-0.4-0.7-0.8-1c-0.9-0.6-2.2-0.9-3.2-1.1c-1.9-0.3-3.9-0.3-5.8-0.3h-38.5c-0.4,0-0.8,0-1.2,0.1
		c-0.4,0.1-0.8,0.2-1.1,0.5c-0.5,0.4-0.7,1-1,1.5c-4.2,9.7-8.8,20.3-13,30c-0.3,0.6-0.7,1.5-0.3,2.2c0.2,0.4,0.7,0.6,1.1,0.7
		c0.4,0.1,0.8,0.1,1.2,0.1h7.3c0.4,0,0.8,0,1.1-0.1c0.4-0.1,0.7-0.2,1-0.5c0.5-0.4,0.7-0.9,0.9-1.4c4-9.2,8.3-19,12.3-28.2
		c0.1-0.2,0.1-0.3,0.2-0.4c0.2-0.2,0.4-0.2,0.6-0.2h25.8c-1.4,3.3-2.9,6.7-4.3,10c-0.1,0.1-0.1,0.2-0.2,0.3
		c-0.1,0.1-0.2,0.2-0.3,0.2c-0.2,0.1-0.4,0.1-0.6,0.1h-17.2c-0.5,0-1,0-1.5,0.1c-0.4,0.1-0.8,0.1-1.1,0.3c-0.3,0.2-0.5,0.3-0.6,0.6
		c-0.2,0.6,0,1.2,0.3,1.7c0.3,0.5,0.8,1,1.1,1.4c4.1,4.8,8.2,9.6,12.2,14.4c0.6,0.7,1,1.2,1.9,1.5c0.6,0.2,1.2,0.2,1.9,0.2h9.3
		c0.1,0,0.2,0,0.3,0c0.1,0,0.2,0,0.2,0c0.1,0,0.2-0.1,0.3-0.1c0.1-0.1,0.2-0.2,0.2-0.3c0.2-0.4,0-0.7-0.2-1
		c-4.3-4.8-8.6-9.7-13-14.5c1.5,0,3.4,0,4.9,0c2.4,0,5.4-0.2,7.8-0.6c1.3-0.2,2.7-0.5,3.9-1.1c0.8-0.4,1.5-0.9,2.1-1.6
		c0.5-0.7,0.8-1.3,1.1-2.1c1.4-3.2,2.8-6.4,4.2-9.7C276.8,3.7,277.1,3.1,276.9,2.5"/>
	<path d="M412.9,2.5c-0.1-0.4-0.4-0.7-0.8-1c-0.9-0.6-2.2-0.9-3.2-1.1c-1.9-0.3-3.9-0.3-5.8-0.3h-38.5c-0.4,0-0.8,0-1.2,0.1
		c-0.4,0.1-0.8,0.2-1.1,0.5c-0.5,0.4-0.7,1-1,1.5c-4.2,9.7-8.8,20.3-13,30c-0.3,0.6-0.7,1.5-0.3,2.2c0.2,0.4,0.7,0.6,1.1,0.7
		c0.4,0.1,0.8,0.1,1.2,0.1h7.3c0.4,0,0.8,0,1.1-0.1c0.4-0.1,0.7-0.2,1-0.5c0.5-0.4,0.7-0.9,0.9-1.4c4-9.2,8.3-19,12.3-28.2
		c0.1-0.2,0.1-0.3,0.2-0.4c0.2-0.2,0.4-0.2,0.6-0.2h25.8c-1.4,3.3-2.9,6.7-4.3,10c0,0.1-0.1,0.2-0.2,0.3c-0.1,0.1-0.2,0.2-0.3,0.2
		c-0.2,0.1-0.4,0.1-0.6,0.1h-17.2c-0.5,0-1,0-1.5,0.1c-0.4,0.1-0.8,0.1-1.1,0.3c-0.3,0.2-0.5,0.3-0.6,0.6c-0.2,0.6,0,1.2,0.3,1.7
		c0.3,0.5,0.8,1,1.1,1.4c4.1,4.8,8.2,9.6,12.2,14.4c0.6,0.7,1,1.2,1.9,1.5c0.6,0.2,1.2,0.2,1.9,0.2h9.3c0.1,0,0.2,0,0.3,0
		c0.1,0,0.2,0,0.2,0c0.1,0,0.2-0.1,0.3-0.1c0.1-0.1,0.2-0.2,0.2-0.3c0.2-0.4,0-0.7-0.2-1c-4.3-4.8-8.6-9.7-13-14.5
		c1.5,0,3.4,0,4.9,0c2.4,0,5.4-0.2,7.8-0.6c1.3-0.2,2.7-0.5,3.9-1.1c0.8-0.4,1.5-0.9,2.1-1.6c0.5-0.7,0.8-1.3,1.1-2.1
		c1.4-3.2,2.8-6.4,4.2-9.7C412.8,3.7,413.1,3.1,412.9,2.5"/>
	<path d="M168.5,13.9c1.4-3.2,2.8-6.4,4.2-9.7c0.2-0.5,0.5-1.2,0.3-1.8c-0.1-0.4-0.4-0.7-0.8-1c-0.9-0.6-2.2-0.9-3.2-1.1
		c-1.9-0.3-3.9-0.3-5.8-0.3h-38.5c-0.4,0-0.8,0-1.2,0.1c-0.4,0.1-0.8,0.2-1.1,0.5c-0.5,0.4-0.7,1-1,1.5c-4.2,9.7-8.8,20.3-13,30
		c-0.3,0.6-0.7,1.5-0.3,2.2c0.2,0.4,0.7,0.6,1.1,0.7c0.4,0.1,0.8,0.1,1.2,0.1h7.3c0.4,0,0.8,0,1.1-0.1c0.4-0.1,0.7-0.2,1-0.5
		c0.5-0.4,0.7-0.9,0.9-1.4c1.9-4.4,3.9-8.8,5.9-13.4c0,0,0.1-0.2,0.1-0.2c0.1-0.1,0.2-0.2,0.3-0.3c0.1-0.1,0.2-0.1,0.3-0.1
		c0.2,0,0.3,0,0.5,0v0c6.8,0,24.5,0,25.7,0c2.4,0,5.4-0.2,7.8-0.6c1.3-0.2,2.7-0.5,3.9-1.1c0.8-0.4,1.5-0.9,2.1-1.6
		C167.9,15.3,168.2,14.7,168.5,13.9 M155.3,14.7c-0.1,0.1-0.2,0.2-0.3,0.2c-0.2,0.1-0.4,0.1-0.6,0.1h-25.7c1.5-3.4,2.9-6.8,4.3-10
		c0.1-0.2,0.1-0.3,0.2-0.4c0.2-0.2,0.4-0.2,0.6-0.2h25.8c-1.4,3.3-2.9,6.7-4.3,10C155.4,14.5,155.4,14.6,155.3,14.7"/>
	<path d="M560.5,0.7c-0.1-0.2-0.3-0.3-0.5-0.4c-0.3-0.1-0.5-0.2-0.9-0.2H512c-0.5,0-1,0.1-1.4,0.4c-0.5,0.3-0.8,0.7-1,1.2
		c0,0.1-0.1,0.2-0.2,0.4c-0.1,0.3-0.2,0.5-0.2,0.8c0,0.3,0.1,0.6,0.2,0.8c0.1,0.2,0.3,0.4,0.5,0.5c0.3,0.1,0.5,0.2,0.9,0.2h16.9
		c-3.9,9.2-8.4,19.4-12.4,28.5c-0.1,0.3-0.2,0.5-0.2,0.8c0,0.3,0.1,0.5,0.3,0.8c0.1,0.2,0.3,0.4,0.5,0.5c0.3,0.1,0.6,0.2,0.9,0.2
		h8.6c0.5,0,1-0.2,1.4-0.4c0.5-0.3,0.8-0.6,1-1.1c4.1-9.2,8.5-19.4,12.5-28.6c0.1-0.2,0.2-0.3,0.4-0.4c0.2-0.1,0.3-0.2,0.5-0.2h16.8
		c0.2,0,0.4,0,0.5-0.1c0.3-0.1,0.5-0.2,0.8-0.3c0.2-0.1,0.5-0.3,0.7-0.6c0.2-0.2,0.3-0.5,0.5-0.7c0.1-0.1,0.1-0.3,0.2-0.4
		C560.9,1.8,560.9,1.2,560.5,0.7"/>
	<path d="M116.4,2.2c0.2-0.6,0.5-1.1,0.3-1.5c-0.1-0.3-0.3-0.4-0.7-0.5c-0.3-0.1-0.7-0.1-1.1-0.1h-8.1c-0.4,0-0.8,0-1.2,0.1
		c-0.4,0.1-0.8,0.2-1.1,0.5c-0.5,0.4-0.7,1-1,1.5c0,0-11.4,26.2-12.2,28.1c-0.1,0.2-0.2,0.4-0.4,0.5c-0.2,0.1-0.5,0.1-0.8,0.1H65.3
		L77.8,2.2c0.3-0.6,0.5-1.1,0.3-1.5c-0.1-0.3-0.3-0.4-0.7-0.5c-0.3-0.1-0.7-0.1-1.1-0.1h-8.1c-0.4,0-0.8,0-1.2,0.1
		c-0.4,0.1-0.8,0.2-1.1,0.5c-0.5,0.4-0.7,1-1,1.5c-4.2,9.7-12.6,29-12.6,29c-0.2,0.4-0.4,0.8-0.4,1.2c0,0.7,0.5,1.1,1,1.4
		c0.9,0.5,2.2,0.8,3.2,1c2,0.3,4.3,0.3,6.4,0.3h29.1c1,0,2.4,0,3.4,0c1.2,0,2.3-0.1,3.4-0.3c1.1-0.2,2.2-0.5,3.1-1.1
		c0.5-0.3,0.9-0.6,1.3-1.1c0.6-0.7,0.9-1.3,1.2-2.1C104.8,28.9,116.4,2.2,116.4,2.2"/>
	<path d="M48.4,29.9c1.4-3.2,3.3-7.5,4.6-10.7c0.2-0.5,0.5-1.2,0.4-1.8c-0.1-0.4-0.4-0.7-0.8-1c-0.9-0.6-2.2-0.9-3.2-1.1
		C47.5,15,45.5,15,43.6,15H21.5c-0.2,0-0.4,0-0.5-0.1c-0.1-0.1-0.1-0.1-0.1-0.2c0-0.1,0.1-0.2,0.1-0.3c1.5-3.3,2.9-6.7,4.4-10h29.9
		c0.2,0,0.4,0,0.5-0.1c0.3-0.1,0.5-0.2,0.8-0.3c0.2-0.1,0.5-0.4,0.7-0.6c0.2-0.2,0.3-0.5,0.5-0.7c0.1-0.1,0.1-0.3,0.2-0.4
		c0.2-0.5,0.2-1.1-0.1-1.6c-0.1-0.2-0.3-0.3-0.5-0.4C57,0.1,56.7,0,56.4,0H25.7c-1.9,0-3.9,0-6.1,0.3c-1.2,0.2-2.8,0.5-4.2,1.1
		c-0.6,0.2-1.1,0.6-1.6,1c-0.7,0.6-1,1.2-1.2,1.8c-1.4,3.2-2.8,6.4-4.2,9.7c-0.3,0.8-0.6,1.4-0.7,2.1c0,0.7,0.2,1.2,0.7,1.6
		c0.7,0.6,1.8,0.9,2.9,1.1c2,0.4,4.9,0.6,7.3,0.6h21.5l-4.8,11.2c-0.1,0.1-0.1,0.2-0.2,0.3c-0.1,0.1-0.2,0.2-0.3,0.2
		c-0.2,0.1-0.4,0.1-0.6,0.1H2.7c-0.5,0-1,0.1-1.4,0.4c-0.5,0.3-0.8,0.7-1,1.2c0,0.1-0.1,0.2-0.1,0.3C0.1,33.2,0,33.4,0,33.7
		c0,0.3,0.1,0.5,0.3,0.8c0.1,0.2,0.3,0.4,0.6,0.5c0.3,0.1,0.6,0.2,0.9,0.2h31.9c2.4,0,5.4-0.2,7.8-0.6c1.3-0.2,2.7-0.5,3.9-1.1
		c0.8-0.4,1.5-0.9,2.1-1.6C47.8,31.3,48.1,30.7,48.4,29.9"/>
</g>
</svg>
