<?xml version="1.0" encoding="utf-8"?>
<!-- Generator: Adobe Illustrator 26.3.1, SVG Export Plug-In . SVG Version: 6.00 Build 0)  -->
<svg version="1.1" id="レイヤー_1" xmlns="http://www.w3.org/2000/svg" xmlns:xlink="http://www.w3.org/1999/xlink" x="0px"
	 y="0px" viewBox="0 0 207.2 64" style="enable-background:new 0 0 207.2 64;" xml:space="preserve">
<style type="text/css">
	.st0{fill:#FFFFFF;}
	.st1{fill:#959EA4;}
</style>
<g>
	<g>
		<polyline class="st0" points="69.4,27 69.4,31.3 86.9,31.3 86.9,35.8 69.4,35.8 69.4,44 63.7,44 63.7,22 87.8,22 87.8,27 69.4,27 
					"/>
		<path class="st0" d="M179.2,39c-0.2,1.3-0.8,2.4-1.7,3.2c-1.9,1.8-4.9,1.9-12.1,1.9c-8.8,0-11.2-0.1-13.1-2.1
			c-1.4-1.5-1.7-3-1.7-8.5c0-1.2,0-2.4,0-3.7c0.1-3.3,0.6-5,1.9-6.3c1.6-1.5,3.9-1.9,11.7-1.9c1,0,2.9,0,5.9,0.1
			c4.1,0.1,5.5,0.3,7.1,1.3c1.9,1.2,2.4,3.2,2.4,9.4C179.6,35.7,179.4,37.8,179.2,39z M172.8,27.2c-0.8-0.6-3.9-0.7-7.8-0.7
			c-2.7,0-5,0.1-6.2,0.2c-0.7,0-1.2,0.2-1.6,0.5c-0.7,0.5-0.8,1.3-0.8,5.4c0,0.8,0,1.6,0,2.4c0,2,0.2,2.8,0.6,3.3
			c0.3,0.3,0.8,0.6,1.4,0.7c1.3,0.2,4,0.3,7,0.3c4.6,0,6.8,0,7.6-0.9c0.6-0.6,0.7-1.6,0.7-6C173.7,31.2,173.9,28.1,172.8,27.2"/>
		<path class="st0" d="M145.6,42.5c-1.1,1.2-2.3,1.5-4.8,1.5h-19.5v-4.9h17.6c1,0,1.5,0,1.9-0.3c0.4-0.2,0.5-0.6,0.5-1.8
			c0-0.9-0.1-1.2-0.5-1.5c-0.3-0.3-0.6-0.3-1.8-0.3h-11.1c-3,0-4-0.2-5.2-1.2c-1.2-1-1.7-2.6-1.7-5.9c0-2.2,0.3-3.4,1-4.4
			c0.3-0.5,0.9-0.9,1.4-1.2c1.1-0.5,1.7-0.5,4.3-0.5h18.4v4.7H129c-1.8,0-2.2,0.3-2.2,1.9c0,1.4,0.5,1.8,2.1,1.8h11.5
			c3.3,0,5.2,0.9,6.1,2.9c0.4,1,0.6,2.1,0.6,4C147.1,40,146.7,41.3,145.6,42.5"/>
		<path class="st0" d="M115.6,42.2c-1.2,1.6-3.1,2.3-7.1,2.3l-3.7,0l-4.6,0c-4.3,0-6.1-0.7-7.5-2.6c-0.8-1.2-1.2-2.6-1.2-5.2V22.3
			h5.7V36c0,2.9,0.6,3.4,4.1,3.4l3.1,0l3-0.1c3.2-0.1,3.7-0.5,3.7-4V22.3h5.8v13.1C116.9,39.3,116.7,40.7,115.6,42.2"/>
	</g>
	<polyline class="st0" points="43.8,45.3 32.1,25.1 37.9,15 43.8,25.1 43.8,25.1 32.1,45.3 20.4,45.3 26.2,35.2 49.6,35.2 
		55.6,45.3 43.8,45.3 	"/>
</g>
<rect y="0" class="st1" width="207.2" height="64"/>
<g>
	<g>
		<polyline class="st0" points="70.4,27 70.4,31.3 87.9,31.3 87.9,35.8 70.4,35.8 70.4,44 64.7,44 64.7,22 88.8,22 88.8,27 70.4,27 
					"/>
		<path class="st0" d="M180.2,39c-0.2,1.3-0.8,2.4-1.7,3.2c-1.9,1.8-4.9,1.9-12.1,1.9c-8.8,0-11.2-0.1-13.1-2.1
			c-1.4-1.5-1.7-3-1.7-8.5c0-1.2,0-2.4,0-3.7c0.1-3.3,0.6-5,1.9-6.3c1.6-1.5,3.9-1.9,11.7-1.9c1,0,2.9,0,5.9,0.1
			c4.1,0.1,5.5,0.3,7.1,1.3c1.9,1.2,2.4,3.2,2.4,9.4C180.6,35.7,180.4,37.8,180.2,39z M173.8,27.2c-0.8-0.6-3.9-0.7-7.8-0.7
			c-2.7,0-5,0.1-6.2,0.2c-0.7,0-1.2,0.2-1.6,0.5c-0.7,0.5-0.8,1.3-0.8,5.4c0,0.8,0,1.6,0,2.4c0,2,0.2,2.8,0.6,3.3
			c0.3,0.3,0.8,0.6,1.4,0.7c1.3,0.2,4,0.3,7,0.3c4.6,0,6.8,0,7.6-0.9c0.6-0.6,0.7-1.6,0.7-6C174.7,31.2,174.9,28.1,173.8,27.2"/>
		<path class="st0" d="M146.6,42.5c-1.1,1.2-2.3,1.5-4.8,1.5h-19.5v-4.9h17.6c1,0,1.5,0,1.9-0.3c0.4-0.2,0.5-0.6,0.5-1.8
			c0-0.9-0.1-1.2-0.5-1.5c-0.3-0.3-0.6-0.3-1.8-0.3h-11.1c-3,0-4-0.2-5.2-1.2c-1.2-1-1.7-2.6-1.7-5.9c0-2.2,0.3-3.4,1-4.4
			c0.3-0.5,0.9-0.9,1.4-1.2c1.1-0.5,1.7-0.5,4.3-0.5h18.4v4.7H130c-1.8,0-2.2,0.3-2.2,1.9c0,1.4,0.5,1.8,2.1,1.8h11.5
			c3.3,0,5.2,0.9,6.1,2.9c0.4,1,0.6,2.1,0.6,4C148.1,40,147.7,41.3,146.6,42.5"/>
		<path class="st0" d="M116.6,42.2c-1.2,1.6-3.1,2.3-7.1,2.3l-3.7,0l-4.6,0c-4.3,0-6.1-0.7-7.5-2.6c-0.8-1.2-1.2-2.6-1.2-5.2V22.3
			h5.7V36c0,2.9,0.6,3.4,4.1,3.4l3.1,0l3-0.1c3.2-0.1,3.7-0.5,3.7-4V22.3h5.8v13.1C117.9,39.3,117.7,40.7,116.6,42.2"/>
	</g>
	<polyline class="st0" points="44.8,45.3 33.1,25.1 38.9,15 44.8,25.1 44.8,25.1 33.1,45.3 21.4,45.3 27.2,35.2 50.6,35.2 
		56.6,45.3 44.8,45.3 	"/>
</g>
</svg>
