<svg xmlns="http://www.w3.org/2000/svg" width="60.873" height="82.015" viewBox="0 0 60.873 82.015">
  <g id="グループ_1526" data-name="グループ 1526" transform="translate(-757.971 -520.106)">
    <path id="パス_23781" data-name="パス 23781" d="M766.478,594.938a9.377,9.377,0,0,0,1.883,3.749.542.542,0,0,1,.757.359.546.546,0,0,1-.057.4c.1.1.2.192.309.287a9.441,9.441,0,0,0,15.558-8.771,2,2,0,1,1-.257-1.056,9.393,9.393,0,0,0-2.053-3.592c-.164.044-.329.088-.495.128a19.533,19.533,0,0,1-5.109.562.541.541,0,0,1-.726.007c-.014-.013-.027-.027-.04-.04a19.356,19.356,0,0,1-4.676-.878.542.542,0,0,1-.735.016.551.551,0,0,1-.165-.275c0-.018-.008-.037-.011-.056q-.5-.189-1-.405a9.306,9.306,0,0,0-1.073,1.032,9.424,9.424,0,0,0-2.114,8.533m1.109-1.2a.54.54,0,1,1-.166-.274.538.538,0,0,1,.166.274m.214-3.755a.539.539,0,0,1-.882.532.525.525,0,0,1-.166-.274.54.54,0,1,1,1.048-.258m1.531,5.308a.54.54,0,1,1-.165-.274.538.538,0,0,1,.165.274m.215-3.755a.545.545,0,0,1-.121.488.54.54,0,1,1-.045-.763.545.545,0,0,1,.166.275m1.53,5.307a.54.54,0,0,1-.883.533.531.531,0,0,1-.165-.274.539.539,0,0,1,.883-.532.532.532,0,0,1,.165.273m-1.316-9.064a.54.54,0,0,1-.883.534.55.55,0,0,1-.166-.275.54.54,0,1,1,1.049-.259m1.531,5.309a.54.54,0,1,1-.166-.275.549.549,0,0,1,.166.275m1.53,5.309a.539.539,0,1,1-.164-.275.542.542,0,0,1,.164.275m-1.316-9.065a.539.539,0,0,1-.883.532.53.53,0,0,1-.165-.274.54.54,0,0,1,.883-.532.53.53,0,0,1,.165.274m1.531,5.308a.54.54,0,1,1-.165-.273.54.54,0,0,1,.165.273m.215-3.755a.54.54,0,0,1-1.049.258.54.54,0,0,1,1.049-.258m1.531,5.308a.54.54,0,1,1-.166-.274.541.541,0,0,1,.166.274m-1.317-9.064a.539.539,0,0,1-.883.532.531.531,0,0,1-.165-.273.54.54,0,1,1,1.048-.259M775,592.437a.541.541,0,1,1-.166-.274.537.537,0,0,1,.166.274m.214-3.756a.539.539,0,0,1-.883.532.53.53,0,0,1-.165-.274.541.541,0,0,1,.884-.533.546.546,0,0,1,.164.275m1.532,5.309a.54.54,0,0,1-.883.532.531.531,0,0,1-.167-.274.541.541,0,0,1,.884-.534.549.549,0,0,1,.166.276m.213-3.756a.535.535,0,0,1-.12.488.54.54,0,1,1-.044-.763.535.535,0,0,1,.164.275m1.747,1.552a.542.542,0,1,1-.166-.274.544.544,0,0,1,.166.274m.214-3.756a.54.54,0,1,1-.166-.274.537.537,0,0,1,.166.274" fill="#edf1d3"/>
    <path id="パス_23782" data-name="パス 23782" d="M766.753,590.24a.53.53,0,0,0,.165.274.541.541,0,1,0-.165-.274" fill="#dde4ac"/>
    <path id="パス_23783" data-name="パス 23783" d="M768.712,588.037a.532.532,0,0,0,.166.274.54.54,0,0,0,.883-.533.54.54,0,0,0-1.049.259" fill="#dde4ac"/>
    <path id="パス_23784" data-name="パス 23784" d="M770.672,585.834a.532.532,0,0,0,.166.274.54.54,0,0,0,.734-.015q-.459-.147-.91-.315a.544.544,0,0,0,.01.056" fill="#dde4ac"/>
    <path id="パス_23785" data-name="パス 23785" d="M766.538,594a.536.536,0,0,0,.166.274.539.539,0,0,0,.883-.532.551.551,0,0,0-.165-.275.54.54,0,0,0-.884.533" fill="#dde4ac"/>
    <path id="パス_23786" data-name="パス 23786" d="M768.5,591.793a.54.54,0,0,0,1.049-.258.551.551,0,0,0-.165-.275.54.54,0,0,0-.884.533" fill="#dde4ac"/>
    <path id="パス_23787" data-name="パス 23787" d="M770.458,589.59a.531.531,0,0,0,.165.273.538.538,0,1,0-.165-.273" fill="#dde4ac"/>
    <path id="パス_23788" data-name="パス 23788" d="M772.418,587.387a.529.529,0,0,0,.166.274.539.539,0,1,0-.166-.274" fill="#dde4ac"/>
    <path id="パス_23789" data-name="パス 23789" d="M768.283,595.548a.541.541,0,0,0,.929.23.543.543,0,0,0,.12-.488.532.532,0,0,0-.166-.274.54.54,0,0,0-.883.532" fill="#dde4ac"/>
    <path id="パス_23790" data-name="パス 23790" d="M770.243,593.345a.54.54,0,1,0,1.048-.258.524.524,0,0,0-.165-.274.54.54,0,0,0-.883.532" fill="#dde4ac"/>
    <path id="パス_23791" data-name="パス 23791" d="M772.2,591.142a.54.54,0,0,0,.928.23.545.545,0,0,0,.121-.488.54.54,0,0,0-1.049.258" fill="#dde4ac"/>
    <path id="パス_23792" data-name="パス 23792" d="M774.163,588.939a.53.53,0,0,0,.165.274.541.541,0,1,0-.165-.274" fill="#dde4ac"/>
    <path id="パス_23793" data-name="パス 23793" d="M776.248,586.971c.013.013.026.027.04.039a.539.539,0,0,0,.725-.006c-.255-.006-.511-.017-.765-.033" fill="#dde4ac"/>
    <path id="パス_23794" data-name="パス 23794" d="M768.361,598.687a9.587,9.587,0,0,0,.7.758.547.547,0,0,0,.057-.4.532.532,0,0,0-.166-.274.539.539,0,0,0-.591-.085" fill="#dde4ac"/>
    <path id="パス_23795" data-name="パス 23795" d="M770.029,597.1a.531.531,0,0,0,.165.274.54.54,0,0,0,.883-.532.53.53,0,0,0-.165-.274.539.539,0,0,0-.883.532" fill="#dde4ac"/>
    <path id="パス_23796" data-name="パス 23796" d="M771.989,594.9a.527.527,0,0,0,.165.274.54.54,0,0,0,.883-.532.53.53,0,0,0-.165-.274.539.539,0,0,0-.883.532" fill="#dde4ac"/>
    <path id="パス_23797" data-name="パス 23797" d="M773.948,592.7a.54.54,0,0,0,1.049-.258.54.54,0,1,0-1.049.258" fill="#dde4ac"/>
    <path id="パス_23798" data-name="パス 23798" d="M775.908,590.492a.54.54,0,1,0,.121-.488.536.536,0,0,0-.121.488" fill="#dde4ac"/>
    <path id="パス_23799" data-name="パス 23799" d="M777.868,588.289a.534.534,0,0,0,.165.274.541.541,0,0,0,.763-.045.535.535,0,0,0,.12-.488.54.54,0,1,0-1.048.259" fill="#dde4ac"/>
    <path id="パス_23800" data-name="パス 23800" d="M771.774,598.653a.53.53,0,0,0,.165.274.539.539,0,0,0,.883-.532.53.53,0,0,0-.165-.274.54.54,0,0,0-.883.532" fill="#dde4ac"/>
    <path id="パス_23801" data-name="パス 23801" d="M773.734,596.451a.531.531,0,0,0,.165.273.539.539,0,0,0,.883-.532.531.531,0,0,0-.165-.273.539.539,0,0,0-.883.532" fill="#dde4ac"/>
    <path id="パス_23802" data-name="パス 23802" d="M775.694,594.247a.54.54,0,0,0,.927.23.54.54,0,1,0-.927-.23" fill="#dde4ac"/>
    <path id="パス_23803" data-name="パス 23803" d="M777.654,592.044a.532.532,0,0,0,.166.275.54.54,0,0,0,.883-.533.54.54,0,0,0-.929-.229.535.535,0,0,0-.12.487" fill="#dde4ac"/>
    <path id="パス_23804" data-name="パス 23804" d="M792.781,582.1a3.276,3.276,0,1,1-2.4,3.963,3.277,3.277,0,0,1,2.4-3.963" fill="#489c46"/>
    <path id="パス_23806" data-name="パス 23806" d="M758.538,572.156a19.47,19.47,0,0,0,11.126,13.217,9.4,9.4,0,0,1,3-1.652.558.558,0,0,1-.03-.09.54.54,0,0,1,.883-.533.534.534,0,0,1,.165.274.575.575,0,0,1,.013.07,9.5,9.5,0,0,1,2.84-.162.192.192,0,0,1-.03-.026.539.539,0,0,1,.717-.806.541.541,0,0,1-.143.9,9.406,9.406,0,0,1,4.843,2.279,9.64,9.64,0,0,1,.7.688,19.5,19.5,0,1,0-24.079-14.158m4.456,5.657a.54.54,0,0,1-.883.532.53.53,0,0,1-.165-.274.54.54,0,1,1,1.048-.258m1.745,1.552a.54.54,0,1,1-.165-.274.538.538,0,0,1,.165.274m1.747,1.553a.541.541,0,0,1-.885.532.539.539,0,0,1-.044-.762.541.541,0,0,1,.763-.045.557.557,0,0,1,.166.275m.213-3.756a.54.54,0,1,1-.165-.274.538.538,0,0,1,.165.274m1.532,5.308a.54.54,0,1,1-1.049.258.531.531,0,0,1,.121-.487.54.54,0,0,1,.928.229m.214-3.755a.54.54,0,1,1-.165-.274.531.531,0,0,1,.165.274m1.53,5.307a.54.54,0,1,1-1.048.259.531.531,0,0,1,.121-.487.539.539,0,0,1,.927.228m.215-3.755a.54.54,0,0,1-.883.533.531.531,0,0,1-.165-.274.539.539,0,0,1,.883-.532.531.531,0,0,1,.165.273m.215-3.755a.54.54,0,0,1-1.049.258.546.546,0,0,1,.12-.489l.043-.042q.431.076.855.183a.606.606,0,0,1,.031.09m1.53,5.307a.539.539,0,1,1-.165-.274.547.547,0,0,1,.165.274m.215-3.755a.54.54,0,0,1-.883.533.531.531,0,0,1-.166-.274.54.54,0,0,1,1.049-.259m1.745,1.553a.54.54,0,1,1-.166-.275.541.541,0,0,1,.166.275m1.745,1.552a.54.54,0,1,1-.165-.273.525.525,0,0,1,.165.273" fill="#45a748"/>
    <path id="パス_23807" data-name="パス 23807" d="M761.946,578.071a.53.53,0,0,0,.165.274.541.541,0,1,0-.165-.274" fill="#37a244"/>
    <path id="パス_23808" data-name="パス 23808" d="M763.691,579.623a.53.53,0,0,0,.165.274.539.539,0,0,0,.883-.532.53.53,0,0,0-.165-.274.539.539,0,0,0-.883.532" fill="#37a244"/>
    <path id="パス_23809" data-name="パス 23809" d="M765.651,577.421a.531.531,0,0,0,.165.273.539.539,0,1,0-.165-.273" fill="#37a244"/>
    <path id="パス_23810" data-name="パス 23810" d="M765.436,581.176a.53.53,0,0,0,.165.274.541.541,0,1,0-.165-.274" fill="#37a244"/>
    <path id="パス_23811" data-name="パス 23811" d="M767.4,578.973a.531.531,0,0,0,.165.274.54.54,0,1,0-.165-.274" fill="#37a244"/>
    <path id="パス_23812" data-name="パス 23812" d="M769.356,576.77a.54.54,0,1,0,1.048-.258.477.477,0,0,0-.03-.09q-.425-.106-.855-.183l-.043.043a.54.54,0,0,0-.12.488" fill="#37a244"/>
    <path id="パス_23813" data-name="パス 23813" d="M767.182,582.729a.528.528,0,0,0,.165.274.541.541,0,1,0-.165-.274" fill="#37a244"/>
    <path id="パス_23814" data-name="パス 23814" d="M769.141,580.526a.54.54,0,0,0,1.049-.258.539.539,0,0,0-.927-.23.535.535,0,0,0-.122.488" fill="#37a244"/>
    <path id="パス_23815" data-name="パス 23815" d="M771.1,578.323a.54.54,0,1,0,1.048-.259.54.54,0,1,0-1.048.259" fill="#37a244"/>
    <path id="パス_23816" data-name="パス 23816" d="M768.927,584.282a.534.534,0,0,0,.165.273.54.54,0,0,0,.883-.533.524.524,0,0,0-.165-.273.54.54,0,0,0-.883.533" fill="#37a244"/>
    <path id="パス_23817" data-name="パス 23817" d="M770.887,582.078a.54.54,0,1,0,1.048-.258.53.53,0,0,0-.165-.274.539.539,0,0,0-.762.045.533.533,0,0,0-.121.487" fill="#37a244"/>
    <path id="パス_23818" data-name="パス 23818" d="M772.846,579.875a.531.531,0,0,0,.166.274.537.537,0,1,0-.166-.274" fill="#37a244"/>
    <path id="パス_23819" data-name="パス 23819" d="M772.632,583.631a.558.558,0,0,0,.03.09,9.563,9.563,0,0,1,1.031-.279.541.541,0,0,0-.012-.07.552.552,0,0,0-.165-.274.541.541,0,0,0-.884.533" fill="#37a244"/>
    <path id="パス_23820" data-name="パス 23820" d="M774.592,581.428a.53.53,0,0,0,.165.274.54.54,0,1,0-.165-.274" fill="#37a244"/>
    <path id="パス_23821" data-name="パス 23821" d="M776.337,582.981a.532.532,0,0,0,.165.273.377.377,0,0,0,.031.026c.182.017.363.04.543.067a.524.524,0,0,0,.189-.137.537.537,0,0,0,.121-.487.545.545,0,0,0-.166-.275.54.54,0,0,0-.883.533" fill="#37a244"/>
    <path id="パス_23822" data-name="パス 23822" d="M769.665,585.373q.492.216,1,.4a.54.54,0,0,1,.9-.475.531.531,0,0,1,.165.274.536.536,0,0,1-.121.487.394.394,0,0,1-.027.03,19.4,19.4,0,0,0,4.675.878.529.529,0,0,1-.125-.234.54.54,0,0,1,.883-.533.524.524,0,0,1,.165.274.538.538,0,0,1-.121.488c-.012.013-.024.026-.037.038a19.524,19.524,0,0,0,5.109-.562c.166-.04.332-.083.5-.128a9.63,9.63,0,0,0-.7-.688,9.4,9.4,0,0,0-4.844-2.279.538.538,0,0,1-.542-.067,9.5,9.5,0,0,0-2.841.162.539.539,0,0,1-.9.463.531.531,0,0,1-.135-.184,9.361,9.361,0,0,0-3,1.652m5.761-.448a.54.54,0,0,1-.883.533.524.524,0,0,1-.165-.274.54.54,0,0,1,.883-.533.53.53,0,0,1,.165.274m3.622-.21a.436.436,0,0,1-.038.047.539.539,0,0,1-.762.046.546.546,0,0,1-.166-.275.541.541,0,0,1,.684-.645c.1.273.2.548.282.827" fill="#37a244"/>
    <path id="パス_23823" data-name="パス 23823" d="M770.662,585.778c.3.113.6.217.91.315a.377.377,0,0,0,.027-.029.54.54,0,1,0-.937-.286" fill="#2a9f43"/>
    <path id="パス_23824" data-name="パス 23824" d="M772.663,583.721a.538.538,0,0,0,.9.139.532.532,0,0,0,.133-.418,9.263,9.263,0,0,0-1.03.279" fill="#2a9f43"/>
    <path id="パス_23825" data-name="パス 23825" d="M774.377,585.184a.541.541,0,1,0,.122-.488.535.535,0,0,0-.122.488" fill="#2a9f43"/>
    <path id="パス_23826" data-name="パス 23826" d="M776.533,583.28a.539.539,0,0,0,.544.067c-.181-.027-.362-.05-.544-.067" fill="#2a9f43"/>
    <path id="パス_23827" data-name="パス 23827" d="M776.123,586.736a.537.537,0,0,0,.125.235c.255.016.509.028.765.033a.442.442,0,0,0,.037-.038.54.54,0,1,0-.927-.23" fill="#2a9f43"/>
    <path id="パス_23828" data-name="パス 23828" d="M778.082,584.533a.53.53,0,0,0,.165.274.541.541,0,0,0,.763-.044c.014-.016.026-.031.038-.047q-.126-.418-.282-.828a.541.541,0,0,0-.684.645" fill="#2a9f43"/>
    <path id="パス_23829" data-name="パス 23829" d="M784.929,590.963a2,2,0,0,0-.259-1.057c.052.17.1.342.143.515s.082.36.116.542" fill="#4e484c"/>
    <path id="パス_23830" data-name="パス 23830" d="M780.99,591.367a2,2,0,0,0,3.939-.4c-.034-.182-.072-.363-.117-.542s-.089-.345-.142-.515a2,2,0,0,0-3.68,1.461" fill="#4d4748"/>
    <path id="パス_23831" data-name="パス 23831" d="M784.9,541.306c.038.154.078.311.121.466a17.148,17.148,0,0,0,20.657,12.023q.242-.06.483-.126A17.157,17.157,0,0,0,818.354,533.1c-.038-.156-.078-.311-.121-.466a17.257,17.257,0,0,0-27.036-8.987l0,0a17.1,17.1,0,0,0-6.471,16.9l0,.009.007.032,0,.013c.006.032.013.064.019.1l0,.02.006.025.005.025,0,.02c0,.014.006.03.01.044l0,.013c0,.011.005.024.008.037l0,.013.008.036a.057.057,0,0,1,0,.012l.023.1v.01c0,.014.008.029.011.044v.005l.024.1v0l.012.051h0c0,.017.008.035.013.052" fill="#b6c836"/>
    <path id="パス_23832" data-name="パス 23832" d="M782.932,541.79q.063.261.135.519a19.191,19.191,0,0,0,23.626,13.3l-.533-1.937q-.241.066-.484.126a17.148,17.148,0,0,1-20.656-12.023c-.042-.155-.083-.31-.121-.466l-.013-.053h0l-.012-.05v0c-.009-.034-.017-.068-.025-.1v-.005l-.01-.043,0-.009c-.008-.033-.015-.065-.022-.1l0-.012-.008-.035,0-.015-.008-.037,0-.012c0-.014-.006-.03-.009-.044l0-.02-.006-.025,0-.025-.005-.02c-.007-.032-.013-.064-.02-.1l0-.014-.006-.031,0-.01a17.1,17.1,0,0,1,6.466-16.9,17.673,17.673,0,0,1-1.416-1.441,19.126,19.126,0,0,0-6.849,19.589" fill="#e6efe2"/>
    <path id="パス_23833" data-name="パス 23833" d="M784.886,541.253h0m-.012-.051v0m-.025-.105v0m-.011-.048,0-.009,0,.009m-.024-.106,0-.012,0,.012m-.011-.048,0-.015,0,.015m-.011-.052,0-.012,0,.012m-.013-.056,0-.02,0,.02m-.009-.045,0-.025,0,.025m-.008-.045c-.008-.032-.013-.064-.021-.1.008.032.013.064.021.1m-.023-.109-.007-.032.007.032m-.008-.042a17.1,17.1,0,0,1,6.469-16.9l0,0a17.1,17.1,0,0,0-6.466,16.9m20.945,13.249q.243-.059.484-.126-.241.067-.484.126" fill="#a5bf37"/>
  </g>
</svg>
