<svg xmlns="http://www.w3.org/2000/svg" xmlns:xlink="http://www.w3.org/1999/xlink" width="65" height="65" viewBox="0 0 65 65">
  <defs>
    <clipPath id="clip-path">
      <rect id="長方形_1590" data-name="長方形 1590" width="38.392" height="48.288" fill="#969696"/>
    </clipPath>
  </defs>
  <g id="グループ_1871" data-name="グループ 1871" transform="translate(-969 -4137)">
    <circle id="楕円形_19" data-name="楕円形 19" cx="32.5" cy="32.5" r="32.5" transform="translate(969 4137)" fill="#f8f4ea"/>
    <g id="グループ_1694" data-name="グループ 1694" transform="translate(982.804 4143.953)">
      <g id="グループ_1693" data-name="グループ 1693" transform="translate(0 0)" clip-path="url(#clip-path)">
        <path id="パス_920" data-name="パス 920" d="M17.451,15.974a3.991,3.991,0,0,0,3.986-3.987V10.593a3.987,3.987,0,1,0-7.973,0v1.394a3.991,3.991,0,0,0,3.987,3.987m-2.7-5.381a2.7,2.7,0,1,1,5.406,0v1.394a2.7,2.7,0,1,1-5.406,0Z" transform="translate(-5.55 -2.723)" fill="#969696"/>
        <path id="パス_921" data-name="パス 921" d="M7.17,32.862a.642.642,0,0,0,.642-.642v-3.7a4.271,4.271,0,0,1,4.266-4.267h5.027a4.271,4.271,0,0,1,4.267,4.267v3.7a.642.642,0,1,0,1.283,0v-3.7a5.556,5.556,0,0,0-5.55-5.55H12.078a5.556,5.556,0,0,0-5.55,5.55v3.7a.642.642,0,0,0,.642.642" transform="translate(-2.691 -9.468)" fill="#969696"/>
        <path id="パス_922" data-name="パス 922" d="M12.81,36.2V33.261a.642.642,0,1,0-1.283,0V36.2a.642.642,0,1,0,1.283,0" transform="translate(-4.752 -13.446)" fill="#969696"/>
        <path id="パス_923" data-name="パス 923" d="M28.067,36.2V33.261a.642.642,0,1,0-1.284,0V36.2a.642.642,0,0,0,1.284,0" transform="translate(-11.04 -13.446)" fill="#969696"/>
        <path id="パス_924" data-name="パス 924" d="M38.392.642A.642.642,0,0,0,37.75,0H.642A.642.642,0,0,0,0,.642v47a.641.641,0,0,0,.642.641H29.71a.653.653,0,0,0,.126-.012.643.643,0,0,0,.068-.021.483.483,0,0,0,.052-.016.643.643,0,0,0,.072-.038c.013-.007.026-.013.039-.021a.63.63,0,0,0,.095-.077l0,0,8.04-8.04a.652.652,0,0,0,.071-.086l.018-.028a.636.636,0,0,0,.038-.071c.005-.011.01-.022.015-.034a.556.556,0,0,0,.029-.093.129.129,0,0,0,0-.014.621.621,0,0,0,.012-.115V.642ZM1.284,1.283H37.109V38.964h-7.4a.641.641,0,0,0-.641.642V47H1.284ZM30.352,46.1V40.248H36.2Z" transform="translate(0 0)" fill="#969696"/>
        <path id="パス_925" data-name="パス 925" d="M6.708,45.414a.642.642,0,0,0,.642.642H36.573a.642.642,0,0,0,0-1.284H7.35a.642.642,0,0,0-.642.642" transform="translate(-2.765 -18.455)" fill="#969696"/>
        <path id="パス_926" data-name="パス 926" d="M36.573,54.947a.642.642,0,1,0,0-1.284H7.349a.642.642,0,0,0,0,1.284Z" transform="translate(-2.765 -22.12)" fill="#969696"/>
        <path id="パス_927" data-name="パス 927" d="M38.785,28.273H49.531a.642.642,0,1,0,0-1.283H38.785a.642.642,0,1,0,0,1.283" transform="translate(-15.723 -11.125)" fill="#969696"/>
        <path id="パス_928" data-name="パス 928" d="M38.785,37.164H49.531a.642.642,0,1,0,0-1.283H38.785a.642.642,0,1,0,0,1.283" transform="translate(-15.723 -14.79)" fill="#969696"/>
        <path id="パス_929" data-name="パス 929" d="M38.785,10.49H49.531a.642.642,0,1,0,0-1.283H38.785a.642.642,0,1,0,0,1.283" transform="translate(-15.723 -3.795)" fill="#969696"/>
        <path id="パス_930" data-name="パス 930" d="M38.785,19.382H49.531a.642.642,0,1,0,0-1.284H38.785a.642.642,0,1,0,0,1.284" transform="translate(-15.723 -7.46)" fill="#969696"/>
      </g>
    </g>
  </g>
</svg>
