<svg xmlns="http://www.w3.org/2000/svg" xmlns:xlink="http://www.w3.org/1999/xlink" width="65" height="65" viewBox="0 0 65 65">
  <defs>
    <clipPath id="clip-path">
      <rect id="長方形_1592" data-name="長方形 1592" width="25.855" height="48.381" fill="#396cae"/>
    </clipPath>
  </defs>
  <g id="グループ_1886" data-name="グループ 1886" transform="translate(-1641 -4204)">
    <circle id="楕円形_23" data-name="楕円形 23" cx="32.5" cy="32.5" r="32.5" transform="translate(1641 4204)" fill="#cbdaee"/>
    <g id="グループ_1699" data-name="グループ 1699" transform="translate(1661.073 4210.952)">
      <g id="グループ_1698" data-name="グループ 1698" clip-path="url(#clip-path)">
        <path id="パス_939" data-name="パス 939" d="M24.07,10.923c-2.649,0-4.973-2.777-4.973-5.942A4.814,4.814,0,0,1,24.07,0a4.814,4.814,0,0,1,4.973,4.982c0,3.165-2.324,5.942-4.973,5.942m0-9.164a3.05,3.05,0,0,0-3.214,3.222c0,2.15,1.562,4.182,3.214,4.182s3.214-2.033,3.214-4.182A3.05,3.05,0,0,0,24.07,1.759" transform="translate(-11.143)" fill="#396cae"/>
        <path id="パス_940" data-name="パス 940" d="M22.342,28.251H13.71a4.974,4.974,0,0,0-4.968,4.968v4.708a.88.88,0,0,0,1.759,0V33.219a3.212,3.212,0,0,1,3.168-3.207L14.9,35.28a.88.88,0,0,0,1.714-.4l-1.136-4.87h1.673v3.468a.88.88,0,0,0,1.759,0V30.01h1.673l-1.135,4.87a.88.88,0,1,0,1.713.4l1.228-5.268a3.215,3.215,0,0,1,3.164,3.207v4.708a.88.88,0,0,0,1.759,0V33.219a4.979,4.979,0,0,0-4.968-4.968" transform="translate(-5.101 -16.484)" fill="#396cae"/>
        <path id="パス_941" data-name="パス 941" d="M23.858,54.9H2a2,2,0,0,0-2,2v4.485a2,2,0,0,0,2,2H4.313V79.536a.88.88,0,0,0,.88.88H20.657a.88.88,0,0,0,.88-.88V63.382h2.321a2,2,0,0,0,2-2V56.9a2,2,0,0,0-2-2M19.777,78.656H6.073V63.382h13.7ZM24.1,61.386a.238.238,0,0,1-.238.237H2a.238.238,0,0,1-.237-.237V56.9A.237.237,0,0,1,2,56.663H23.858a.238.238,0,0,1,.238.237Z" transform="translate(0 -32.035)" fill="#396cae"/>
        <path id="パス_942" data-name="パス 942" d="M28.369,91.722H21.2a.88.88,0,0,1-.88-.88V81.588a.88.88,0,0,1,.88-.88h7.164a.88.88,0,0,1,.88.88v9.255a.88.88,0,0,1-.88.88m-6.284-1.759h5.4v-7.5h-5.4Z" transform="translate(-11.859 -47.091)" fill="#396cae"/>
      </g>
    </g>
  </g>
</svg>
