<svg id="グループ_1663" data-name="グループ 1663" xmlns="http://www.w3.org/2000/svg" xmlns:xlink="http://www.w3.org/1999/xlink" width="67.561" height="69.844" viewBox="0 0 67.561 69.844">
  <defs>
    <clipPath id="clip-path">
      <rect id="長方形_1565" data-name="長方形 1565" width="67.561" height="69.844" fill="#ff1901"/>
    </clipPath>
  </defs>
  <g id="グループ_1662" data-name="グループ 1662" clip-path="url(#clip-path)">
    <path id="パス_855" data-name="パス 855" d="M51.376,110.977a3.31,3.31,0,0,1-3.309,3.311H41.106a3.311,3.311,0,0,1-3.311-3.311V109.45a3.311,3.311,0,0,1,3.311-3.311h6.962a3.311,3.311,0,0,1,3.309,3.311Z" transform="translate(-17.172 -48.223)" fill="#ff1901"/>
    <path id="パス_856" data-name="パス 856" d="M3.892,91.422H3.311A3.312,3.312,0,0,0,0,94.732V99.3c0,1.829.853,3.313,2.312,3.313h.365c1.579,0,1.215,1.481,1.215,3.31v2.144a3.311,3.311,0,0,0,3.311,3.31h5.059a3.311,3.311,0,0,0,3.311-3.31V94.732a3.312,3.312,0,0,0-3.311-3.31Z" transform="translate(0 -41.537)" fill="#ff1901"/>
    <path id="パス_857" data-name="パス 857" d="M55.546,40.357a3.309,3.309,0,0,0-3.234,2.609l-1.85,8.53A3.31,3.31,0,0,1,47.227,54.1H26.5a3.311,3.311,0,0,0-3.309,3.312v2.506A3.312,3.312,0,0,0,26.5,63.234h.679a3.313,3.313,0,0,1,3.312,3.31v1.649A3.31,3.31,0,0,0,33.8,71.5H59.462a3.311,3.311,0,0,0,3.232-2.6l5.364-24.525a3.312,3.312,0,0,0-3.236-4.018Z" transform="translate(-10.536 -18.336)" fill="#ff1901"/>
    <path id="パス_858" data-name="パス 858" d="M102.443,14.834a3.31,3.31,0,0,1-3.254,2.688H84.8a3.312,3.312,0,0,1-3.253-3.931l2.08-10.9A3.314,3.314,0,0,1,86.877,0h14.4a3.315,3.315,0,0,1,3.251,3.934Z" transform="translate(-37.022)" fill="#ff1901"/>
  </g>
</svg>
