<svg xmlns="http://www.w3.org/2000/svg" xmlns:xlink="http://www.w3.org/1999/xlink" width="108.627" height="120.071" viewBox="0 0 108.627 120.071">
  <defs>
    <clipPath id="clip-path">
      <rect id="長方形_1594" data-name="長方形 1594" width="55.312" height="42.333" fill="none" stroke="#ff1901" stroke-width="4"/>
    </clipPath>
  </defs>
  <g id="グループ_1881" data-name="グループ 1881" transform="translate(-1458 -759.539)">
    <circle id="楕円形_24" data-name="楕円形 24" cx="50.61" cy="50.61" r="50.61" transform="translate(1458 778.39)" fill="#fff"/>
    <path id="パス_1323" data-name="パス 1323" d="M9.047-4.555q.188,0,.188.3A6.8,6.8,0,0,1,9.1-3.219,3.394,3.394,0,0,1,7.977-1.812,7.471,7.471,0,0,1,5.266-.25,5.756,5.756,0,0,1,3.527.031,2.126,2.126,0,0,1,1.98-.684a2.342,2.342,0,0,1-.7-1.7A5.766,5.766,0,0,1,1.676-4.41,9.071,9.071,0,0,1,2.738-6.418a12.678,12.678,0,0,1,1.578-1.84A12.984,12.984,0,0,1,6.211-9.789,9.546,9.546,0,0,1,8.273-10.82,6.121,6.121,0,0,1,10.32-11.2a1.752,1.752,0,0,1,1.3.555,1.042,1.042,0,0,1,.281.746,2.266,2.266,0,0,1-.437,1.133,6.567,6.567,0,0,1-1.035,1.246A7.62,7.62,0,0,1,9.2-6.57a2.147,2.147,0,0,1-1.02.391.965.965,0,0,1-.656-.238.637.637,0,0,1-.273-.426,1.227,1.227,0,0,1,.082-.414q.082-.227.207-.227a.125.125,0,0,0-.031.078q0,.094.27.094a1.958,1.958,0,0,0,.9-.477,7.316,7.316,0,0,0,1.145-1.07,1.714,1.714,0,0,0,.512-.891q0-.2-.273-.2a4.79,4.79,0,0,0-2.027.684A11.95,11.95,0,0,0,5.563-7.508,10.975,10.975,0,0,0,3.512-4.949a5.376,5.376,0,0,0-.871,2.66A1.15,1.15,0,0,0,2.9-1.5a1.018,1.018,0,0,0,.8.3,3.407,3.407,0,0,0,1.285-.312A8.117,8.117,0,0,0,6.4-2.281q.668-.453,1.262-.93a11.394,11.394,0,0,0,.949-.836,1.641,1.641,0,0,0,.363-.434Q8.984-4.555,9.047-4.555Zm5.836-1.4a.748.748,0,0,1,.48.211.8.8,0,0,1,.246.645,2.966,2.966,0,0,1-.3,1.125,7.332,7.332,0,0,1-.836,1.406A11.673,11.673,0,0,1,13.3-1.223,6.128,6.128,0,0,1,11.926-.191a2.85,2.85,0,0,1-1.34.4,1.275,1.275,0,0,1-.965-.379,1.462,1.462,0,0,1-.363-1.055,4.028,4.028,0,0,1,.332-1.5,5.433,5.433,0,0,1,.855-1.449A8.433,8.433,0,0,1,11.578-5.3,3.8,3.8,0,0,1,13.813-6.32a.9.9,0,0,1,.648.211.189.189,0,0,1,.078.125v.047A2.694,2.694,0,0,1,14.883-5.953Zm-.789,1.039h-.055q-.273,0-.273-.4a4.231,4.231,0,0,0-1.2.656,5.777,5.777,0,0,0-1.117,1.109,3.948,3.948,0,0,0-1.016,2.164q0,.438.32.438a2.03,2.03,0,0,0,.953-.422,5.653,5.653,0,0,0,1.254-1.2,9.518,9.518,0,0,0,.93-1.355,2.171,2.171,0,0,0,.309-.781Q14.2-4.914,14.094-4.914ZM15.438.047,15.055.031h-.141a.526.526,0,0,1-.168-.094q-.09-.07-.137-.1a.126.126,0,0,1-.047-.113,1.156,1.156,0,0,1,.063-.285A33.234,33.234,0,0,1,17.57-5.922a.959.959,0,0,1,.5-.332,2.176,2.176,0,0,1,.676-.113q.2,0,.2.3a.625.625,0,0,1-.062.23,2.769,2.769,0,0,1-.312.473q-.25.328-.594.75t-.391.484A10.845,10.845,0,0,1,19.52-5.777a2.884,2.884,0,0,1,1.25-.543.771.771,0,0,1,.594.223.691.691,0,0,1,.207.477,2.11,2.11,0,0,1-.035.422,1.416,1.416,0,0,1-.129.352l-.16.313a2.512,2.512,0,0,1-.223.336l-.215.285q-.059.078-.242.3t-.2.242q.219-.219.609-.648t.66-.719q.27-.289.676-.652a6.188,6.188,0,0,1,.758-.59,3.18,3.18,0,0,1,1.711-.531.71.71,0,0,1,.5.188.59.59,0,0,1,.2.449,3.727,3.727,0,0,1-.633,1.25q-.633.988-1.262,1.984a3.813,3.813,0,0,0-.629,1.254q0,.359.133.426a.6.6,0,0,0,.32.051,1.282,1.282,0,0,0,.527-.242,5.075,5.075,0,0,0,.605-.469q.43-.391.8-.758a.252.252,0,0,1,.172-.07q.148,0,.18.227a3.428,3.428,0,0,1,.031.469.832.832,0,0,1-.047.336,3.939,3.939,0,0,1-1,1.07A2.385,2.385,0,0,1,23.2.281.708.708,0,0,1,23.07.273a1.624,1.624,0,0,1-1.113-.441,1.29,1.29,0,0,1-.309-.863,2.922,2.922,0,0,1,.34-1.211,8.953,8.953,0,0,1,.746-1.289q.406-.578.746-1.043a3.393,3.393,0,0,0,.34-.5q0-.039-.062-.039-.242,0-1.078.781a29.28,29.28,0,0,0-2.469,2.578q-.273.328-1.3,1.664a.434.434,0,0,1-.371.156,1.565,1.565,0,0,1-.527-.1q-.273-.1-.273-.254,0-.078,1.242-2.191a15.322,15.322,0,0,0,1.242-2.3q0-.191-.23-.191t-.949.688A17.415,17.415,0,0,0,15.984-.531a3.54,3.54,0,0,1-.273.344Q15.508.047,15.438.047ZM30.547-5.844a1.206,1.206,0,0,1-.418.906,1.353,1.353,0,0,1-.949.391.256.256,0,0,1-.227-.082.381.381,0,0,1-.055-.215A1.059,1.059,0,0,1,28.93-5.1a3.585,3.585,0,0,0-.625.289,7.787,7.787,0,0,0-.844.578q-.5.383-.5.57,0,.063.184.063a2.005,2.005,0,0,0,.566-.129,2.02,2.02,0,0,1,.535-.129.785.785,0,0,1,.2.016.683.683,0,0,1,.219.238.6.6,0,0,1,.117.289q0,.105-.2.277a1.441,1.441,0,0,1-.461.262,2.74,2.74,0,0,0-.344.137q-1.648.922-1.648,1.266,0,.609,1.039.609A2.5,2.5,0,0,0,28.5-1.187a10.563,10.563,0,0,0,1.027-.73q.457-.371.578-.457a.376.376,0,0,1,.184-.086q.2,0,.2.453a2.054,2.054,0,0,1-.055.6,1.006,1.006,0,0,1-.312.355A5.131,5.131,0,0,1,26.961.3,3.092,3.092,0,0,1,25.688.086a1.293,1.293,0,0,1-.875-1.219q0-1.078,1.492-1.633a.687.687,0,0,1-.383-.34,1.867,1.867,0,0,1-.086-.664,1.553,1.553,0,0,1,.426-.969,3.441,3.441,0,0,1,1.043-.84,5.29,5.29,0,0,1,2.453-.742,1.223,1.223,0,0,1,.523.125A.387.387,0,0,1,30.547-5.844Zm6.133-5.3q-1.648,2.477-3.211,5.18a2.841,2.841,0,0,1,.809-.27,4.121,4.121,0,0,1,.633-.082q.184,0,.316.012a1.432,1.432,0,0,1,.34.086,1.065,1.065,0,0,1,.355.207,1.151,1.151,0,0,1,.359.906,3.146,3.146,0,0,1-.316,1.285,7.091,7.091,0,0,1-.859,1.4,11.1,11.1,0,0,1-1.187,1.309,6.12,6.12,0,0,1-1.387.988,3.04,3.04,0,0,1-1.383.383,1.066,1.066,0,0,1-.684-.383,1.355,1.355,0,0,1-.387-1.008,5.838,5.838,0,0,1,.539-1.937,23.5,23.5,0,0,1,1.309-2.668q.77-1.355,1.57-2.645t1.363-2.109a10.875,10.875,0,0,1,.688-.945A1.023,1.023,0,0,1,36-11.648a2.2,2.2,0,0,1,.574-.082q.242,0,.242.223A.721.721,0,0,1,36.68-11.148Zm-2.109,7.5a2.106,2.106,0,0,0,.32-1.023q0-.461-.293-.461a2.649,2.649,0,0,0-.9.254,3.89,3.89,0,0,1-.691.254.385.385,0,0,1-.227-.141,10.919,10.919,0,0,0-1.523,3.5q0,.352.227.352a2.888,2.888,0,0,0,1.555-.9A7.128,7.128,0,0,0,34.57-3.648Zm7.6-2.289q.594,0,.594.406a.438.438,0,0,1-.1.32,4.714,4.714,0,0,0-.434.676q-.332.574-.734,1.469a6.954,6.954,0,0,0-.52,1.527.8.8,0,0,0-.023.219q0,.43.234.43a1.027,1.027,0,0,0,.555-.223,4.005,4.005,0,0,0,.57-.477q.25-.254.488-.52t.285-.3a.216.216,0,0,1,.141-.039q.148,0,.18.227a3.428,3.428,0,0,1,.031.469.832.832,0,0,1-.047.336,3.808,3.808,0,0,1-1,1.07A2.316,2.316,0,0,1,41,.273a1.1,1.1,0,0,1-.926-.383,1.351,1.351,0,0,1-.3-.848,1.994,1.994,0,0,1,.156-.816,6.725,6.725,0,0,1-1.488,1.43A2.639,2.639,0,0,1,37.07.242a1.205,1.205,0,0,1-.867-.32,1.433,1.433,0,0,1-.43-1.105,3.49,3.49,0,0,1,.316-1.422,5.12,5.12,0,0,1,.832-1.3,8.341,8.341,0,0,1,1.133-1.074A4,4,0,0,1,40.445-6a1.466,1.466,0,0,1,.688.141.642.642,0,0,1,.336.352,1.169,1.169,0,0,1,.316-.355A.794.794,0,0,1,42.172-5.937Zm-1.039.867a4,4,0,0,0-2.766,1.484,6.545,6.545,0,0,0-.934,1.273A2.688,2.688,0,0,0,37.008-1.3q0,.273.156.273a3.814,3.814,0,0,0,1.219-.863,12.026,12.026,0,0,0,1.328-1.27Q40.07-3.609,41.133-5.07ZM47.8-1.734a6.246,6.246,0,0,0,.523-.355l.273-.23a.448.448,0,0,1,.258-.133q.156,0,.156.355a1.224,1.224,0,0,1-.348.766,3.054,3.054,0,0,1-.863.7,7.569,7.569,0,0,1-1.1.5,5.909,5.909,0,0,1-1.98.43A2.271,2.271,0,0,1,43.25-.246a1.718,1.718,0,0,1-.656-1.4,3.845,3.845,0,0,1,.43-1.727,5.486,5.486,0,0,1,1.105-1.516A5.535,5.535,0,0,1,45.7-5.945a4.254,4.254,0,0,1,1.77-.406,1.264,1.264,0,0,1,.758.242.775.775,0,0,1,.336.664,1.863,1.863,0,0,1-.418,1.012,1.123,1.123,0,0,1-.848.59q-.5,0-.5-.477a1.019,1.019,0,0,1,.234-.445,1.044,1.044,0,0,0,.234-.434q0-.113-.086-.113a1.8,1.8,0,0,0-.922.3,7.73,7.73,0,0,0-.895.625,6.514,6.514,0,0,0-.762.734A2.751,2.751,0,0,0,43.82-1.82a.961.961,0,0,0,.246.66,1.061,1.061,0,0,0,.828.277,5.125,5.125,0,0,0,1.168-.137,6.074,6.074,0,0,0,.965-.3A5.077,5.077,0,0,0,47.8-1.734ZM48.688.188l-.5-.109a.5.5,0,0,1-.375-.289q-.039-.07-.051-.086a.063.063,0,0,1-.012-.039A.212.212,0,0,1,47.766-.4q.016-.043.047-.117a1.512,1.512,0,0,0,.055-.152q.164-.555,2.742-5.219t2.7-4.809q.121-.145.18-.211a.613.613,0,0,1,.133-.113.985.985,0,0,1,.109-.062q.035-.016.141-.051l.219-.074a1.675,1.675,0,0,0,.238-.105q.125-.066.172-.094a.238.238,0,0,1,.121-.027.193.193,0,0,1,.141.07.251.251,0,0,1,.066.18v.055q-.039.148-2.035,3.7T50.617-3.539a8.255,8.255,0,0,0,1.8-1.2Q53.6-5.687,53.613-6a.538.538,0,0,1,.215-.453.76.76,0,0,1,.441-.141.567.567,0,0,1,.406.16.677.677,0,0,1,.16.523,1.807,1.807,0,0,1-.406.922,5.826,5.826,0,0,1-.953,1.035,8.178,8.178,0,0,1-1.992,1.344Q52.117-.9,52.938-.9a2.189,2.189,0,0,0,1.094-.727q.242-.242.469-.488t.277-.293a.205.205,0,0,1,.145-.047q.148,0,.18.227a3.428,3.428,0,0,1,.031.469.832.832,0,0,1-.047.336,3.927,3.927,0,0,1-.992,1.066,2.341,2.341,0,0,1-1.453.629,1.421,1.421,0,0,1-.781-.187Q51.57-.1,51.406-.227a1.979,1.979,0,0,1-.336-.34l-.285-.355a3.167,3.167,0,0,1-.258-.391q-.145-.25-.207-.355t-.184-.344Q50.016-2.25,50-2.273q-.141.289-.312.625t-.312.625L49.117-.5Q49-.258,48.926-.1t-.082.164A.172.172,0,0,1,48.688.188Z" transform="matrix(0.985, -0.174, 0.174, 0.985, 1482.373, 839.192)" fill="#ff1901"/>
    <g id="グループ_1705" data-name="グループ 1705" transform="translate(1511.996 759.539) rotate(9)">
      <g id="グループ_1702" data-name="グループ 1702" transform="translate(0 0)">
        <g id="グループ_1701" data-name="グループ 1701" clip-path="url(#clip-path)">
          <line id="線_16" data-name="線 16" y2="10.2" transform="translate(2.699 2.49)" fill="none" stroke="#ff1901" stroke-linecap="round" stroke-linejoin="round" stroke-width="4"/>
          <line id="線_17" data-name="線 17" y2="5.596" transform="translate(2.489 23.4)" fill="none" stroke="#ff1901" stroke-linecap="round" stroke-linejoin="round" stroke-width="4"/>
          <line id="線_18" data-name="線 18" x1="2.64" y2="9.853" transform="translate(26.068 6.384)" fill="none" stroke="#ff1901" stroke-linecap="round" stroke-linejoin="round" stroke-width="4"/>
        </g>
      </g>
      <line id="線_19" data-name="線 19" x1="1.452" y2="5.419" transform="translate(21.844 26.581)" fill="none" stroke="#ff1901" stroke-linecap="round" stroke-linejoin="round" stroke-width="4"/>
      <g id="グループ_1704" data-name="グループ 1704" transform="translate(0 0)">
        <g id="グループ_1703" data-name="グループ 1703" clip-path="url(#clip-path)">
          <line id="線_20" data-name="線 20" x1="5.1" y2="8.834" transform="translate(47.723 16.877)" fill="none" stroke="#ff1901" stroke-linecap="round" stroke-linejoin="round" stroke-width="4"/>
          <line id="線_21" data-name="線 21" x1="2.805" y2="4.858" transform="translate(39.563 34.986)" fill="none" stroke="#ff1901" stroke-linecap="round" stroke-linejoin="round" stroke-width="4"/>
        </g>
      </g>
    </g>
  </g>
</svg>
