<svg xmlns="http://www.w3.org/2000/svg" width="300.825" height="125.19" viewBox="0 0 300.825 125.19">
  <g id="グループ_1882" data-name="グループ 1882" transform="translate(-39.43 -72.96)">
    <path id="パス_1321" data-name="パス 1321" d="M11.52-26.775c-1.485,0-3.015-.045-4.5-.045-.99,0-1.08.405-1.08,2.34,0,1.755.135,2.475,1.125,2.475.585,0,3.285-.18,4.5-.18l6.345-.045a.923.923,0,0,1,.945.945,23.836,23.836,0,0,1-1.17,4.32A31.077,31.077,0,0,1,7.92-3.375c-.27.225-.63.45-.63.81C7.29-1.755,9.855.36,10.71.36c.81,0,3.51-2.835,4.14-3.51a37.438,37.438,0,0,0,8.82-17.505c.135-.675.315-1.62,1.44-1.62l4.545-.045c2.025,0,2.655-.09,2.655,1.125A80.747,80.747,0,0,1,30.96-10.44c-.675,3.195-1.62,4.41-4.275,4.41-1.08,0-2.115-.18-2.565-.18a.735.735,0,0,0-.81.81,9.59,9.59,0,0,0,1.17,3.15,1.422,1.422,0,0,0,1.575.9,17.359,17.359,0,0,0,2.61-.18c2.79-.4,4.635-1.26,5.85-3.915,1.4-3.06,2.07-9.315,2.52-12.78.09-.855.72-5.85.72-6.3a3.589,3.589,0,0,0-2.565-2.61c-.045,0-3.645.18-4.95.18l-4.32.045a1,1,0,0,1-1.08-1.035c0-.45.27-3.15.36-3.78.135-1.4.09-1.44.63-1.935.18-.18.5-.5.5-.765,0-.315-.4-.45-.675-.495-.45-.135-4.41-.9-4.68-.9-.63,0-.585.585-.585,1.035-.045,1.08-.27,5.9-.36,6.8a1.393,1.393,0,0,1-1.35,1.17Zm53.145-7.29c-.5,0-.63.54-.765.9-.855,2.79-8.775,19.215-10.44,22.365-.675,1.26-.81,1.44-3.87,1.44h-.765c-.585,0-.99.045-.99.54a3.588,3.588,0,0,0,.135.675,12.334,12.334,0,0,1,.36,1.665c.36,1.71.675,3.06,1.215,3.06.27,0,.4-.18.54-.36.495-.675.495-.585,2.025-.765,2.52-.315,24.705-3.06,24.84-3.06.945,0,1.305.765,2.475,2.655.225.45.585,1.125,1.125,1.125.99,0,3.51-1.845,3.51-2.925,0-.99-3.96-5.85-4.77-6.84-.99-1.125-6.345-7.065-7.47-7.065-.81,0-3.015,2.16-3.015,2.88,0,.45.5.81.81,1.125.765.675,4.185,3.645,4.185,4.455,0,.675-.765.72-1.26.765-3.87.495-7.74.9-11.655,1.305-.315.045-1.035.135-1.35.135a.807.807,0,0,1-.81-.81,3.618,3.618,0,0,1,.4-1.17c2.655-5.22,5.085-10.53,7.785-15.705,1.17-2.2,1.395-2.88,2.385-3.33.225-.09.54-.27.54-.54,0-.4-.855-.72-1.17-.9A25.772,25.772,0,0,0,64.665-34.065Zm58.635,4.05c-.45,0-2.16,1.35-2.16,1.89,0,.225.27.45.4.585,1.17,1.125,2.25,2.34,3.33,3.6.135.18.315.45.54.45.585,0,2.16-1.44,2.16-2.07C127.575-26.1,123.84-30.015,123.3-30.015Zm4.455-3.285c-.5,0-2.16,1.395-2.16,1.89,0,.225.225.45.36.585,1.215,1.17,2.25,2.3,3.33,3.555.135.18.36.45.585.45.585,0,2.16-1.4,2.16-2.025C132.03-29.43,128.25-33.3,127.755-33.3Zm-9.36,7.11c-.63,0-3.33,1.8-3.33,2.61a1.853,1.853,0,0,0,.45.945A63.2,63.2,0,0,1,124.38-8.1c.18.405.36.81.9.81.81,0,4.23-1.575,4.23-2.7,0-1.44-4.995-9.09-6.075-10.665a51.487,51.487,0,0,0-4.05-5.085A1.363,1.363,0,0,0,118.395-26.19Zm-15.255-.9c-.4,0-.5.4-.765,1.035-2.3,5.85-7.11,11.97-11.655,16.335a.911.911,0,0,0-.36.63c0,.9,3.1,2.79,3.825,2.79.765,0,2.16-1.665,2.7-2.25a69.281,69.281,0,0,0,9.81-14.085,1.753,1.753,0,0,1,.81-.9c.27-.135.675-.315.675-.63,0-.4-.72-.765-1.125-1.035A25.771,25.771,0,0,0,103.14-27.09Zm62.19,2.7c-.5,0-.54.5-.585.9a26.112,26.112,0,0,1-3.69,10.215c-3.24,5.265-8.145,7.92-13.95,9.5-.45.135-.72.315-.72.81,0,.63,1.665,3.105,2.52,3.105a7.954,7.954,0,0,0,1.395-.36,25.7,25.7,0,0,0,12.24-7.83c3.1-3.735,4.815-7.965,6.165-12.6.18-.54.225-.675.585-.945.225-.18.54-.36.54-.675,0-.45-.45-.675-.81-.81A30.542,30.542,0,0,0,165.33-24.39Zm-7.965,1.62c-.765-1.26-1.62-2.52-2.25-2.52-.585,0-3.015,1.125-3.015,1.89a1.518,1.518,0,0,0,.4.9,48.475,48.475,0,0,1,3.15,5.31c.18.36.45.855.9.855.63,0,3.24-1.17,3.24-2.07,0-.585-1.62-3.06-2.025-3.69Zm-11.385,0c-.585,0-3.015,1.125-3.015,1.935a1.667,1.667,0,0,0,.36.81,44.5,44.5,0,0,1,3.24,5.445c.18.36.405.765.855.765.54,0,3.24-1.125,3.24-2.07,0-.585-1.53-2.925-1.935-3.555-.45-.72-1.485-2.34-1.98-2.925A1,1,0,0,0,145.98-22.77Zm51.93-6.075c-.45-.045-.765-.27-.765-.765a6.814,6.814,0,0,1,.81-1.62c.765-1.4.9-1.62,1.53-1.845.18-.09.4-.27.4-.5,0-.495-2.295-1.35-2.7-1.575a15.012,15.012,0,0,0-2.385-.99c-.4,0-.54.63-.72,1.08-2.07,5.67-7.29,12.375-12.015,16.11a.706.706,0,0,0-.4.63c0,.945,3.285,2.655,3.825,2.655,1.215,0,6.39-6.165,7.245-7.38.585-.81.855-1.26,1.89-1.26h8.55c.63,0,1.35.045,1.35.63,0,1.125-2.7,5.49-3.465,6.615a39.876,39.876,0,0,1-17.37,14.4c-.36.135-.9.36-.9.81,0,.855,2.835,3.06,3.825,3.06.945,0,5.175-2.655,6.165-3.285,8.28-5.355,12.69-11.925,17.1-20.475a26.5,26.5,0,0,1,1.4-2.43,2.857,2.857,0,0,0,.54-1.125c0-.585-1.98-3.06-2.88-3.06-.18,0-.36.045-.495.045a10.7,10.7,0,0,1-2.52.27Zm51.75,4.725a33.125,33.125,0,0,0-.765-3.78c-.585-2.43-.72-3.51-1.755-3.51-.36,0-3.1.27-3.1,1.215a3.811,3.811,0,0,0,.18.765,39.026,39.026,0,0,1,1.26,5.4c.09.585.135,1.17,1.215,1.17C247.5-22.86,249.66-23.085,249.66-24.12Zm6.345-8.01c-.36,0-.495.4-.585.72a33.772,33.772,0,0,1-3.465,7.56,1.652,1.652,0,0,0-.4.9c0,.765,2.475,1.71,3.1,1.71.495,0,.72-.45.945-.81a51.889,51.889,0,0,0,3.465-7.11.944.944,0,0,1,.585-.585c.225-.045.765-.135.765-.5,0-.45-.585-.675-.9-.765C258.885-31.185,256.41-32.13,256.005-32.13ZM242.055-23a28.025,28.025,0,0,0-1.26-4.1c-.855-2.385-1.3-3.285-1.98-3.285-.4,0-2.88.63-2.88,1.62a2.223,2.223,0,0,0,.225.72c.495,1.08,1.215,2.88,1.575,4,.585,1.935.63,2.52,1.44,2.52C239.58-21.51,242.055-22.005,242.055-23Zm17.91-10.935c0-.4-.54-.99-.765-1.26-.27-.315-.495-.675-.765-1.035-.585-.81-1.125-1.575-1.575-1.575a1.669,1.669,0,0,0-.63.18c-4.68,1.62-14.085,2.385-19.125,2.43-.945,0-1.8-.09-1.8.81a6.771,6.771,0,0,0,.5,2.295c.27.54.45.945,1.26.945a91.232,91.232,0,0,0,20.34-2.565,5.072,5.072,0,0,1,.81-.135,1.886,1.886,0,0,1,.675.18,2.232,2.232,0,0,0,.585.135A.454.454,0,0,0,259.965-33.93Zm-5.085,20.7c1.575,0,3.2.09,4.545.09,1.08,0,1.035-.54,1.035-2.2,0-1.575.045-2.115-1.035-2.115-1.53,0-3.015.09-4.545.09h-4.725c-.855,0-1.26-.315-1.26-1.215v-.45c0-.72.045-1.17.54-1.53.315-.225.63-.36.63-.63,0-.495-.765-.54-1.125-.585-.855-.09-3.015-.27-3.78-.27-.4,0-.81.09-.81.585,0,.135.045.27.045.405a15.5,15.5,0,0,1,.135,2.475c-.045.9-.36,1.215-1.26,1.215h-3.2c-1.35,0-2.655,0-4-.09-.675-.045-.945-.315-1.035-1.035-.09-.5-.135-1.53-.855-1.53a21.87,21.87,0,0,0-2.565,1.035,1.059,1.059,0,0,1-.36.09c-.54,0-.675-.4-.72-.855v-4.32c0-.855.27-1.17,1.125-1.26.4,0,2.07.09,2.34.09.945,0,.9-.585.9-2.25,0-1.53.045-2.115-.9-2.115-.09,0-2.07.045-2.34.09-.855-.09-1.125-.45-1.125-1.26v-3.06c0-1.26.045-1.845.495-2.115.315-.225.63-.36.63-.72,0-.54-.72-.585-1.125-.63-.855-.045-2.97-.18-3.69-.18-.495,0-.9.045-.9.63,0,.135.045.315.045.4a30.514,30.514,0,0,1,.135,3.51v2.16c0,.855-.36,1.26-1.26,1.26-.99.045-2.115-.09-2.835-.09-1.035,0-.945.675-.945,2.205,0,1.485-.09,2.16.945,2.16.81,0,1.89-.135,2.835-.09.9,0,1.26.36,1.26,1.26v5.9A1.365,1.365,0,0,1,225-16.605a38.51,38.51,0,0,1-3.735,1.035c-.495.135-1.215.18-1.215.72,0,.36.765,2.835.9,3.33.27.855.4,1.62.99,1.62.45,0,.585-.54.72-.9.135-.405.315-.45,1.3-.81a3.828,3.828,0,0,1,1.4-.405c.54,0,.765.405.765.9v6.21c0,2.205.09,2.925-1.845,2.925-.63,0-1.26-.09-1.845-.09-.81,0-1.035.45-1.035,1.17,0,3.735,1.35,3.6,2.52,3.6,5.085,0,6.66-1.26,6.66-4.905,0-.945-.045-1.935-.045-2.88v-7.83a1.538,1.538,0,0,1,1.08-1.71c.63-.315,1.3-.585,1.935-.9a1.059,1.059,0,0,1,.36-.09c.36,0,.54.315.585.63,0,1.3-.045,1.845,1.08,1.845,1.26,0,2.925-.09,4.5-.09h.315c.36,0,.72.135.72.585a.726.726,0,0,1-.135.4,40.973,40.973,0,0,1-8.6,9.045c-.27.225-.675.5-.675.9,0,.81,1.8,3.015,2.565,3.015.45,0,.99-.5,1.3-.765a43.583,43.583,0,0,0,8.325-9.18.34.34,0,0,1,.315-.18c.225,0,.315.18.315.405v5.445c0,1.71-.09,3.375-.09,5.085,0,1.4.495,1.44,2.34,1.44,1.755,0,2.205-.045,2.205-1.44,0-1.71-.09-3.375-.09-5.085V-8.82c0-.225.09-.45.315-.45a.468.468,0,0,1,.36.18,59.454,59.454,0,0,0,6.21,7.605c.45.45,1.665,1.8,2.3,1.8.765,0,2.835-1.89,2.835-2.745,0-.4-.4-.72-.675-.945a62.269,62.269,0,0,1-8.01-8.865.868.868,0,0,1-.135-.45c0-.4.36-.54.675-.54Zm33.255-6.975a1.288,1.288,0,0,1,1.26-1.26h7.92a1.193,1.193,0,0,1,1.215,1.26v3.51a1.193,1.193,0,0,1-1.215,1.26h-7.92a1.288,1.288,0,0,1-1.26-1.26Zm-5.9-1.26c.9,0,1.26.36,1.26,1.26v3.51c0,.9-.36,1.26-1.26,1.26h-6.525c-.855,0-1.17-.36-1.215-1.215.045-.99.045-2.025.045-3.015v-.54c0-.9.36-1.26,1.26-1.26Zm7.155-4.185a1.288,1.288,0,0,1-1.26-1.26v-3.42a1.258,1.258,0,0,1,1.26-1.26h7.92c.765.09,1.215.45,1.215,1.26v3.42a1.193,1.193,0,0,1-1.215,1.26ZM283.5-26.91a1.258,1.258,0,0,1-1.26,1.26H275.8a1.288,1.288,0,0,1-1.26-1.26v-3.42a1.258,1.258,0,0,1,1.26-1.26h6.435a1.23,1.23,0,0,1,1.26,1.26ZM282.24-11.3c.9,0,1.26.36,1.26,1.215v3.915c0,2.205-.09,4.41-.09,6.615,0,1.4.495,1.44,2.43,1.44s2.43-.045,2.43-1.44c0-2.205-.135-4.41-.135-6.615V-10.08c0-.855.36-1.215,1.26-1.215h7.92c.855,0,1.215.36,1.215,1.215v5.445c0,2.25-.09,2.7-2.25,2.7-.72,0-1.395-.09-2.115-.09-.81,0-.99.45-.99,1.17,0,3.735,1.8,3.6,2.61,3.6,1.89,0,4.365-.045,5.94-1.215,1.35-1.035,1.53-2.7,1.53-4.275,0-1.125-.09-2.295-.09-3.42V-29.43c0-1.44.045-2.835.045-4.275,0-1.845-.72-2.34-2.52-2.34-1.26,0-2.565.09-3.87.09H276.255c-1.3,0-2.565-.09-3.87-.09-1.8,0-2.52.54-2.52,2.34,0,1.44.09,2.835.09,4.275v9.5c0,7.11-.27,13.14-4.32,19.305a1.479,1.479,0,0,0-.315.72c0,.9,2.34,2.565,3.15,2.565.675,0,1.125-.63,1.485-1.125a26.968,26.968,0,0,0,4.05-11.655c.135-.9.54-1.17,1.395-1.17ZM64.035,39.19a1,1,0,0,1,1.035,1.08v.09a1,1,0,0,1-1.035,1.08h-5.4a1.016,1.016,0,0,1-1.08-1.08v-.09a1.016,1.016,0,0,1,1.08-1.08Zm.18-5.175a.781.781,0,0,1,.855.855v.495a.781.781,0,0,1-.855.855h-5.8a.781.781,0,0,1-.855-.855V34.87a.781.781,0,0,1,.855-.855Zm-.18-5.22a1,1,0,0,1,1.035,1.08v.135a1,1,0,0,1-1.035,1.08h-5.4a1.016,1.016,0,0,1-1.08-1.08v-.135a1.016,1.016,0,0,1,1.08-1.08Zm5.535,1.08c0-.765.315-1.08,1.035-1.08H76.86c1.71,0,3.375.09,5.085.09,1.035,0,1.08-.315,1.08-1.575,0-1.3-.045-1.62-1.08-1.62-1.71,0-3.375.09-5.085.09h-5.4c-.4-.045-.72-.18-.72-.63a.669.669,0,0,1,.09-.4c.225-.36.765-1.44.945-1.71a1.045,1.045,0,0,1,.855-.4c.225-.045.54-.09.54-.5,0-.45-.765-.675-1.125-.765a28.734,28.734,0,0,0-3.78-1.08.584.584,0,0,0-.54.45,40.447,40.447,0,0,1-1.71,4.05,1.692,1.692,0,0,1-1.8.99H59.76c-.36-.045-.72-.135-.72-.585a.76.76,0,0,1,.135-.45c.315-.5.54-.9.72-1.215.495-.855.585-1.035,1.26-1.215.27-.045.585-.225.585-.54,0-.4-.45-.54-1.395-.81a23.13,23.13,0,0,0-3.285-.81c-.36,0-.5.315-.63.585a39.513,39.513,0,0,1-8.19,11.2c-.225.18-.72.63-.72.945,0,.72,1.755,2.7,2.43,2.7.63,0,1.935-1.485,2.385-1.98a.67.67,0,0,1,.405-.18c.315,0,.4.27.4.54v5.67c0,1.035-.045,2.07-.045,3.1,0,1.62.945,1.8,2.34,1.8,1.17,0,2.34-.045,3.465-.045H63.72c.765,0,.945.36,1.08,1.08,0,.18.045.315.045.495,0,.855-.36,1.17-1.17,1.17H53.82c-1.755,0-3.555-.09-5.355-.09-1.035,0-1.035.4-1.035,1.89s0,1.89,1.035,1.89c1.8,0,3.6-.09,5.355-.09h5.67c.18.045.45.09.45.36a.4.4,0,0,1-.225.36,46.544,46.544,0,0,1-10.98,5,1.391,1.391,0,0,1-.36.09c-.63.225-1.035.315-1.035.855,0,.72,1.35,2.925,2.34,2.925a9.146,9.146,0,0,0,2.565-.72,44.128,44.128,0,0,0,11.745-6.7.76.76,0,0,1,.45-.135c.36,0,.45.315.495.63v2.16c0,1.305-.09,2.61-.09,3.87,0,1.485.675,1.44,2.43,1.44,1.71,0,2.34,0,2.34-1.44,0-1.305-.135-2.565-.135-3.87V53.41c.045-.315.135-.63.495-.63a.67.67,0,0,1,.405.18,44.571,44.571,0,0,0,7.6,5.04c1.125.63,5.265,2.655,6.3,2.655,1.17,0,2.61-2.34,2.61-3.06,0-.405-.36-.54-.675-.63a46.088,46.088,0,0,1-11.7-5.4.371.371,0,0,1-.225-.36c0-.27.27-.315.45-.36h5.94c1.8,0,3.6.09,5.355.09,1.08,0,1.08-.405,1.08-1.89,0-1.44,0-1.89-1.08-1.89-1.755,0-3.555.09-5.355.09H70.47c-.4,0-.855-.135-.855-.63a.928.928,0,0,1,.45-.765c.36-.225.63-.36.63-.63,0-.36-.315-.54-1.17-.585a.1.1,0,0,1-.09-.09c0-.045.045-.045.09-.045h9.54c1.755,0,3.465.045,5.175.045.99,0,1.035-.315,1.035-1.575,0-1.305-.045-1.62-1.08-1.62-1.71,0-3.42.09-5.13.09H70.6c-.72,0-1.035-.315-1.035-1.08v-.09c0-.765.315-1.08,1.035-1.08h4.32c1.665,0,3.285.09,4.95.09,1.08,0,1.08-.36,1.08-1.575,0-1.26-.045-1.575-1.08-1.575-1.665,0-3.285.09-4.95.09H70.38c-.585,0-.81-.225-.81-.855V34.87c0-.63.225-.855.855-.855H74.97c1.62,0,3.24.09,4.9.09,1.035,0,1.08-.27,1.08-1.575,0-1.26-.045-1.53-1.08-1.53-1.665,0-3.285.09-4.9.09H70.6c-.72,0-1.035-.315-1.035-1.08Zm44.1-4.41a1.04,1.04,0,0,1,1.08,1.08v.45a1.04,1.04,0,0,1-1.08,1.08h-2.43a1.04,1.04,0,0,1-1.08-1.08v-.45a1.04,1.04,0,0,1,1.08-1.08Zm-7.65,8.91a1.288,1.288,0,0,1-1.26,1.26H102.6a1.288,1.288,0,0,1-1.26-1.26V32.89a1.258,1.258,0,0,1,1.26-1.26h2.16a1.258,1.258,0,0,1,1.26,1.26Zm8.73,0a1.288,1.288,0,0,1-1.26,1.26h-2.07a1.288,1.288,0,0,1-1.26-1.26V32.89a1.258,1.258,0,0,1,1.26-1.26h2.07a1.258,1.258,0,0,1,1.26,1.26Zm9.09,0a1.193,1.193,0,0,1-1.215,1.26h-2.43c-.81-.09-1.26-.5-1.26-1.26V32.89a1.23,1.23,0,0,1,1.26-1.26h2.43c.765.09,1.215.45,1.215,1.26ZM113.355,51.2c-1.89-.54-3.78-1.08-5.67-1.575-.315-.135-.63-.27-.63-.675a.745.745,0,0,1,.225-.54,10.211,10.211,0,0,1,.81-1.125,1.621,1.621,0,0,1,1.575-.765h7.29c.4.045.855.18.855.675a.726.726,0,0,1-.135.4,14.42,14.42,0,0,1-2.34,3.1,1.674,1.674,0,0,1-1.26.585A4.487,4.487,0,0,1,113.355,51.2Zm-1.35-9.4c.135-.18.225-.36.315-.495.315-.5.4-.63.945-.72.315-.045.9-.135.9-.54s-.5-.63-.81-.72a.1.1,0,0,1-.09-.09c0-.045.09-.09.135-.09h9.54a1.732,1.732,0,0,1,1.08.765,2.816,2.816,0,0,0,1.62.315H126c1.665,0,2.205,0,2.205-1.17,0-.81-.09-1.62-.09-2.43V32.71c0-.945.09-1.89.09-2.835,0-1.62-1.035-1.845-2.385-1.845-1.305,0-2.61.045-3.87.045h-1.98c-.72,0-1.035-.315-1.035-1.08v-.45c0-.765.315-1.08,1.035-1.08h5.445c1.8,0,3.555.09,5.355.09.99,0,.945-.5.945-1.845s.045-1.89-.945-1.89c-1.8,0-3.555.09-5.355.09H99.855c-1.8,0-3.6-.09-5.355-.09-.945,0-.945.495-.945,1.89,0,1.35-.045,1.845.945,1.845,1.755,0,3.555-.09,5.355-.09h5.085c.765,0,1.08.315,1.08,1.08v.45c0,.765-.315,1.08-1.08,1.08h-1.665c-1.305,0-2.655-.045-3.96-.045-1.35,0-2.385.225-2.385,1.8,0,.9.09,1.8.09,2.88v3.915c0,.855-.135,1.665-.135,2.52,0,1.125.765,1.08,2.295,1.08h.63a2.29,2.29,0,0,0,1.44-.315c.27-.315.54-.72,1.035-.765h4.86c.4.045.765.18.765.63a.628.628,0,0,1-.135.405c-.36.54-.72,1.125-1.08,1.665a1.784,1.784,0,0,1-1.845.945H98.6c-1.62,0-3.195-.09-4.815-.09-1.08,0-1.035.45-1.035,1.98,0,1.44-.045,1.935,1.035,1.935,1.62,0,3.195-.09,4.815-.09h3.465c.36.045.675.135.675.54a.628.628,0,0,1-.135.405c-1.125,1.44-2.25,2.79-3.465,4.095-.27.27-.765.72-.765,1.125,0,.945,2.88,1.665,3.42,1.665.585,0,1.035-.585,1.44-.99a1.641,1.641,0,0,1,1.305-.675,3.1,3.1,0,0,1,.585.09l3.78,1.08a.382.382,0,0,1,.315.36.456.456,0,0,1-.27.4A44.041,44.041,0,0,1,97.11,56.6c-1.845.09-2.25-.045-2.25.945a6.4,6.4,0,0,0,.585,2.25c.315.765.63,1.08,1.485,1.08.54,0,1.215-.09,1.755-.135,4.86-.45,11.34-1.8,15.525-4.23a2.082,2.082,0,0,1,1.125-.36,2.905,2.905,0,0,1,.855.18c3.285,1.26,6.57,2.655,9.72,4.23a5.458,5.458,0,0,0,1.35.5c1.215,0,2.2-2.16,2.2-3.195,0-.585-.45-.81-1.395-1.26-2.61-1.305-5.355-2.25-8.055-3.285a.719.719,0,0,1-.585-.675,1,1,0,0,1,.27-.585A25.513,25.513,0,0,0,121.95,49a1.251,1.251,0,0,1,.54-.54l.495-.135c.315-.09.765-.18.765-.585,0-.45-.765-.675-1.26-.9a.2.2,0,0,1-.135-.135c0-.135.09-.18.225-.18H126.5c1.62,0,3.195.09,4.815.09,1.08,0,1.035-.45,1.035-1.935,0-1.53.045-1.98-1.035-1.98-1.62,0-3.195.09-4.815.09h-13.95c-.36-.045-.675-.135-.675-.585A.726.726,0,0,1,112.005,41.8ZM162.99,55.84c0-.315-.5-.855-.72-1.08a1.435,1.435,0,0,0-.27-.315c-.54-.63-1.53-1.8-2.025-1.8a1.057,1.057,0,0,0-.63.315c-1.44,1.305-7.02,3.465-9.045,4.05-.315.09-.72.18-.72.675,0,.54,1.26,3.015,2.25,3.015,1.575,0,7.695-3.1,9.18-4.1a2.281,2.281,0,0,1,.81-.4h.315a.766.766,0,0,0,.315.045C162.72,56.245,162.99,56.11,162.99,55.84Zm15.12,2.025c0-.36-.36-.5-.675-.63a33.44,33.44,0,0,1-7.29-4.14,1.584,1.584,0,0,0-.855-.45c-.9,0-2.52,2.16-2.52,2.655,0,1.08,7.785,5.58,8.865,5.58C176.625,60.88,178.11,58.765,178.11,57.865ZM159.84,46.7a1.193,1.193,0,0,1,1.215-1.26h8.01a1.193,1.193,0,0,1,1.215,1.26v.45a1.113,1.113,0,0,1-1.215,1.215h-8.01a1.113,1.113,0,0,1-1.215-1.215Zm0-6.165a1,1,0,0,1,1.035-1.08h8.37a1,1,0,0,1,1.035,1.08v.495a1,1,0,0,1-1.035,1.08h-8.37a1,1,0,0,1-1.035-1.08Zm9.4-7.245a1,1,0,0,1,1.035,1.08V35a1,1,0,0,1-1.035,1.08h-8.37A1,1,0,0,1,159.84,35v-.63a1,1,0,0,1,1.035-1.08Zm-2.925-3.87c-.36-.045-.765-.18-.765-.675a.726.726,0,0,1,.135-.405c.225-.495.495-.945.72-1.4a1.581,1.581,0,0,1,1.71-1.035h3.42c1.62,0,3.24.09,4.86.09.99,0,.99-.5.99-2.07s.045-2.115-.99-2.115c-1.62,0-3.24.09-4.86.09H159.12c-1.62,0-3.24-.09-4.86-.09-1.035,0-.99.54-.99,2.115s-.045,2.07.99,2.07c1.62,0,3.24-.09,4.86-.09h1.71c.4,0,.81.135.81.63a.76.76,0,0,1-.135.45c-.27.495-.54.99-.81,1.44a1.663,1.663,0,0,1-1.755.945c-.54,0-1.08-.045-1.665-.045-1.485,0-2.115.45-2.115,2.025,0,1.125.045,2.2.045,3.33V46.975c0,1.125-.045,2.25-.045,3.375,0,1.575.675,1.98,2.16,1.98,1.08,0,2.16-.045,3.24-.045h9c1.125,0,2.205.045,3.285.045,1.485,0,2.115-.45,2.115-1.98,0-1.125-.045-2.25-.045-3.375V34.69c0-1.125.045-2.25.045-3.375,0-1.575-.675-1.98-2.16-1.98-1.08,0-2.16.09-3.24.09Zm-18.5,3.735c0-.9.36-1.215,1.215-1.26,1.17.045,2.385.09,3.555.09.99,0,.945-.54.945-2.115s.09-2.205-.945-2.205c-1.4,0-2.745.09-4.1.09h-5.715c-1.4,0-2.79-.09-4.1-.09-1.035,0-.99.585-.99,2.205,0,1.575-.045,2.115.99,2.115,1.215,0,2.43-.135,3.645-.09.855,0,1.215.405,1.215,1.26V45.445c0,.9-.225,1.305-1.08,1.575-1.35.45-2.34.675-3.1.855-1.845.495-2.25.585-2.25,1.08a5.1,5.1,0,0,0,.4,1.26c.18.45.36.9.495,1.26.45,1.17.675,1.755,1.17,1.755.315,0,.45-.225.54-.495.18-.54.27-.54.99-.765a127.937,127.937,0,0,0,12.06-4.275,1.477,1.477,0,0,0,1.125-1.62c0-.585-.09-2.61-.9-2.61-.18,0-2.25.765-3.375,1.215-.27.09-.54.18-.63.225a1.314,1.314,0,0,1-.4.09c-.54,0-.72-.45-.765-.945Z" transform="translate(37 137)" fill="#396cae"/>
    <path id="パス_1324" data-name="パス 1324" d="M127.46,17.4l1.33-.588a8.755,8.755,0,0,1,0-12.264l-1.33-.588a9.226,9.226,0,0,0-2.758,6.72A9.226,9.226,0,0,0,127.46,17.4Zm7.588-8.988a7.762,7.762,0,0,1,.1,1.26c0,2.3-.336,3.78-2.114,5.012a5.532,5.532,0,0,1-1.47.77l1.624,1.33c3.822-2.044,3.892-4.9,3.892-8.372Zm6.622-2.926a6.975,6.975,0,0,1-1.414.126H132.71A11.1,11.1,0,0,1,131,5.472V7.418c.658-.056,1.12-.1,1.708-.1H140a8.325,8.325,0,0,1-2.576,2.6l1.442,1.162a14.088,14.088,0,0,0,3.374-3.836,7.049,7.049,0,0,1,.546-.728Zm3.878,11.13A8.109,8.109,0,0,0,148.04,12.6a30.889,30.889,0,0,0,.42-6.02,8.929,8.929,0,0,1,.1-1.26H146.5a5.11,5.11,0,0,1,.126,1.274,24.125,24.125,0,0,1-.406,5.544,6.6,6.6,0,0,1-2.38,3.346Zm5.936.042a3.569,3.569,0,0,1,.616-.42,15.415,15.415,0,0,0,4.746-3.822l-1.078-1.54a8.866,8.866,0,0,1-3.458,2.954V6.508a7.108,7.108,0,0,1,.1-1.218h-2.086a6.207,6.207,0,0,1,.112,1.2v8.162a5.327,5.327,0,0,1-.112,1.036Zm18.858-.868a43.057,43.057,0,0,0-3.066-5.824l-1.75.714A16.922,16.922,0,0,1,167,13.242c-1.414.168-3.4.392-5.11.56.7-1.876,1.834-5.432,2.282-6.8a15.93,15.93,0,0,1,.6-1.554L162.544,5a10.388,10.388,0,0,1-.336,1.61c-.406,1.456-1.61,5.292-2.422,7.364l-.378.014c-.462.014-1.064.014-1.54.014l.322,2.044c.448-.056.966-.126,1.316-.168,1.764-.182,6.006-.63,8.288-.9.252.6.476,1.176.658,1.652Zm9-7.686V6.578a10.92,10.92,0,0,1,.112-1.652H177.23a7,7,0,0,1,.182,1.638V8.1h-3.64c-.56,0-1.134-.056-1.554-.1V9.938c.434-.028.994-.07,1.61-.07h3.57A5.978,5.978,0,0,1,173.6,15.5l1.736,1.288a7.52,7.52,0,0,0,3.99-6.916h3.15c.56,0,1.246.042,1.54.056V8.02c-.294.028-.882.084-1.526.084Zm14.336.952a22.875,22.875,0,0,0,3.71-3.01l-1.5-1.358a14.776,14.776,0,0,1-3.654,3.164,21.508,21.508,0,0,1-6.37,2.534l1.008,1.708a27.372,27.372,0,0,0,4.816-1.9v4.592a15.679,15.679,0,0,1-.1,1.834h2.212a9.626,9.626,0,0,1-.126-1.834Zm17.3-4.816a37.586,37.586,0,0,1-7.042,1.05,5.687,5.687,0,0,1,.434,1.33,39.57,39.57,0,0,0,7.714-1.078Zm-.42,5.978a30.994,30.994,0,0,0,1.9-3.318l-1.582-.574a18.293,18.293,0,0,1-1.61,3.374Zm-1.708-1.106a8.518,8.518,0,0,0-.644-2.548l-1.386.266a9.216,9.216,0,0,1,.56,2.576Zm-2.45.42a10.671,10.671,0,0,0-.952-2.618l-1.316.336a12.265,12.265,0,0,1,.854,2.688Zm-2.73.476-1.134.322V8.314h1.274V6.788h-1.274V4.156H201.03V6.788h-1.47V8.314h1.47v2.422c-.63.154-1.218.308-1.694.406l.364,1.6c.406-.112.868-.238,1.33-.378v3.094c0,.182-.07.238-.238.238a11.31,11.31,0,0,1-1.162-.014,6.193,6.193,0,0,1,.42,1.54A3.631,3.631,0,0,0,202,16.91c.42-.266.546-.686.546-1.456V11.912c.448-.126.9-.266,1.344-.406Zm8.68,2.534V11.1h-3.374V9.686h-1.568V11.1h-3.29v1.442h2.408a8.357,8.357,0,0,1-3.3,2.772,7.562,7.562,0,0,1,1.106,1.3,9.7,9.7,0,0,0,3.08-2.884V17.12h1.568V13.8a10.216,10.216,0,0,0,2.674,2.744,6.255,6.255,0,0,1,1.092-1.26,8.545,8.545,0,0,1-2.968-2.744Zm8.624-.98V9.84h2.954v1.722Zm-4.354,0c.028-.518.042-1.022.042-1.47V9.84H219.3v1.722Zm2.674-4.9V8.286h-2.632V6.662Zm4.634,1.624H220.98V6.662h2.954Zm1.652-3.206h-10.57v5c0,1.96-.126,4.452-1.652,6.132a6.149,6.149,0,0,1,1.316,1.078,8.017,8.017,0,0,0,1.764-4.158H219.3v3.906h1.68V13.13h2.954v2.1c0,.252-.1.336-.364.336s-1.176.014-1.96-.028a6.294,6.294,0,0,1,.532,1.6,6.5,6.5,0,0,0,2.688-.294c.56-.252.756-.7.756-1.6Zm3.374-1.12-1.33.588a8.755,8.755,0,0,1,0,12.264l1.33.588a9.226,9.226,0,0,0,2.758-6.72A9.226,9.226,0,0,0,228.96,3.96Z" transform="translate(108 69)" fill="#396cae"/>
    <path id="パス_1322" data-name="パス 1322" d="M30.375,35.995a.71.71,0,0,1,.72.72v.315a.74.74,0,0,1-.72.72H14.445c-.45-.045-.72-.27-.72-.72v-.315a.662.662,0,0,1,.72-.72Zm.72-3.285a.71.71,0,0,1-.72.72H14.445a.662.662,0,0,1-.72-.72v-.225a.651.651,0,0,1,.72-.675h15.93a.7.7,0,0,1,.72.675ZM25.11,26.5c.81,0,1.17.315,1.17,1.17v.315c0,.585-.225.9-.855.9H19.17c-.5-.045-.585-.315-.585-.765a1.688,1.688,0,0,0-.045-.45c.045-.855.36-1.17,1.215-1.17Zm4.14,22.455C28.215,49,27.225,49,26.19,49h-1.8c-.54,0-.99-.09-.99-.72a.6.6,0,0,1,.405-.63c.27-.135.585-.315.585-.63,0-.405-.45-.405-1.035-.45-.765-.09-2.925-.27-3.6-.27-.54,0-.675.225-.675.675,0,.315.045.585.045.855,0,.9-.495,1.17-1.26,1.17H15.12c-.36-.045-.495-.225-.495-.4s.09-.27.225-.405c.63-.54,1.26-1.08,1.845-1.62a2.371,2.371,0,0,1,1.98-.765H26.01a2.2,2.2,0,0,1,1.98.765c.54.54,1.035,1.08,1.575,1.575.09.135.18.225.18.36C29.745,48.82,29.475,48.91,29.25,48.955ZM17.55,53.59c-1.755,1.935-4.905,3.015-7.47,3.375-.585.09-1.17.135-1.17.765s1.035,3.15,2.2,3.15a17.526,17.526,0,0,0,4.1-1.17A12.284,12.284,0,0,0,22.1,53.68a1.583,1.583,0,0,1,1.71-1.08h2.7c1.44,0,1.935-.045,1.935.81a8.52,8.52,0,0,1-.4,2.34c-.45,1.35-1.125,1.485-2.43,1.485-.765,0-1.485-.09-2.25-.09-.81,0-.945.495-.945,1.215a5.108,5.108,0,0,0,.54,2.16c.36.63,1.395.63,2.3.63,5.625,0,6.885-.9,7.695-9.045.09-.315.225-.675.63-.675a.76.76,0,0,1,.45.135c1.08.675,5.175,3.24,6.255,3.24.855,0,2.34-2.43,2.34-3.015,0-.45-.495-.63-.855-.765a38.665,38.665,0,0,1-8.28-4.455.489.489,0,0,1-.18-.4c0-.27.27-.36.5-.36H35.91c1.8,0,3.6.09,5.4.09,1.035,0,1.035-.4,1.035-1.8,0-1.35,0-1.71-1.035-1.71-1.8,0-3.6.09-5.4.09H20.97c-.225-.045-.405-.09-.405-.315a.344.344,0,0,1,.09-.225,1.316,1.316,0,0,1,.54-.315c.27,0,.63-.09.63-.405s-.45-.45-.675-.54c-.09-.045-.045-.135.045-.135h8.73c1.215,0,2.385.09,3.555.09,1.215,0,2.07-.27,2.07-1.665,0-.72-.045-1.44-.045-2.34V32.8c0-.855.045-1.62.045-2.34,0-1.44-.945-1.665-2.16-1.665-.405,0-.81.045-1.215.045-.855.045-1.305-.225-1.305-1.125,0-.855.36-1.215,1.17-1.215h3.915c1.755,0,3.555.09,5.31.09,1.035,0,1.035-.405,1.035-1.8s.045-1.8-1.035-1.8c-1.755,0-3.555.09-5.31.09h-4.23c-.405-.045-.81-.09-.9-.585a1.876,1.876,0,0,1,.09-.27l.045-.09c.09-.18.18-.225.36-.36.225-.135.495-.27.495-.495,0-.405-.495-.45-.765-.495-.855-.045-3.375-.27-4.14-.27-.36,0-.72.045-.72.5a.877.877,0,0,0,.045.36,3.406,3.406,0,0,1,.045.675c.045.72-.27,1.035-.99,1.035H19.485c-.45-.045-.855-.09-.945-.585,0-.135.045-.18.045-.27l.045-.09a.794.794,0,0,1,.4-.36c.315-.225.45-.315.45-.54,0-.45-.72-.45-1.035-.495-.855-.09-3.06-.27-3.825-.27-.36,0-.72.045-.72.54,0,.09.09.855.09,1.08,0,.72-.315.99-.99.99H8.955c-1.755,0-3.51-.09-5.31-.09-1.035,0-1.035.4-1.035,1.8s0,1.8,1.035,1.8c1.8,0,3.555-.09,5.31-.09H12.96c.72,0,1.035.27,1.035.99-.045.72,0,1.35-.9,1.35H12.87c-.54,0-1.035-.045-1.53-.045-1.26,0-2.115.27-2.115,1.71,0,.765.09,1.53.09,2.3v3.825c0,.765-.09,1.53-.09,2.295,0,1.485.9,1.71,2.16,1.71,1.17,0,2.3-.09,3.465-.09h.585c.315.045.675.135.675.585a.6.6,0,0,1-.135.36c-.09.135-.225.27-.315.4a1.4,1.4,0,0,1-1.305.585H9.045c-1.8,0-3.6-.09-5.4-.09-1.08,0-1.08.36-1.08,1.71,0,1.395,0,1.8,1.035,1.8,1.8,0,3.6-.09,5.445-.09h1.44c.18,0,.45.09.45.36a.365.365,0,0,1-.18.36,29.849,29.849,0,0,1-7.245,3.96c-.36.135-1.08.36-1.08.855,0,.765,1.305,3.06,2.115,3.06,1.035,0,5-2.385,6.03-3.06.09-.045.135-.09.225-.09.225,0,.315.225.315.4.045.72.18,1.035.99,1.035,1.44,0,2.88-.09,4.32-.09h.54c.36,0,.765.135.765.585A.67.67,0,0,1,17.55,53.59Z" transform="translate(37 137)" fill="#ff1901"/>
  </g>
</svg>
