<?xml version="1.0" encoding="utf-8"?>
<!-- Generator: Adobe Illustrator 28.1.0, SVG Export Plug-In . SVG Version: 6.00 Build 0)  -->
<svg version="1.1" id="レイヤー_1" xmlns="http://www.w3.org/2000/svg" xmlns:xlink="http://www.w3.org/1999/xlink" x="0px"
	 y="0px" viewBox="0 0 1089.5 122.5" style="enable-background:new 0 0 1089.5 122.5;" xml:space="preserve">
<style type="text/css">
	.st0{fill:#396CAE;}
	.st1{fill:#FF1901;}
</style>
<g id="グループ_1881" transform="translate(-121.2 -194.52)">
	<path id="パス_1319" class="st0" d="M133.6,250.5c-3.3,0-6.7-0.1-10-0.1c-2.2,0-2.4,0.9-2.4,5.2c0,3.9,0.3,5.5,2.5,5.5
		c1.3,0,7.3-0.4,10-0.4l14.1-0.1c1.1,0,2.1,0.9,2.1,2c0,0,0,0.1,0,0.1c0,1.7-1.9,7.7-2.6,9.6c-4.3,11.9-11.8,22.3-21.7,30.2
		c-0.6,0.5-1.4,1-1.4,1.8c0,1.8,5.7,6.5,7.6,6.5c1.8,0,7.8-6.3,9.2-7.8c10.1-11.1,16.4-24.3,19.6-38.9c0.3-1.5,0.7-3.6,3.2-3.6
		l10.1-0.1c4.5,0,5.9-0.2,5.9,2.5c0,5.2-1.9,18.6-3,23.9c-1.5,7.1-3.6,9.8-9.5,9.8c-2.4,0-4.7-0.4-5.7-0.4c-0.9-0.1-1.7,0.6-1.8,1.4
		c0,0.1,0,0.2,0,0.4c0,1.7,1.7,5.4,2.6,7c0.9,1.6,1.5,2,3.5,2c1.9,0,3.9-0.1,5.8-0.4c6.2-0.9,10.3-2.8,13-8.7
		c3.1-6.8,4.6-20.7,5.6-28.4c0.2-1.9,1.6-13,1.6-14c0-2-3.5-5.8-5.7-5.8c-0.1,0-8.1,0.4-11,0.4l-9.6,0.1c-1.2,0.1-2.3-0.8-2.4-2.1
		c0-0.1,0-0.2,0-0.2c0-1,0.6-7,0.8-8.4c0.3-3.1,0.2-3.2,1.4-4.3c0.4-0.4,1.1-1.1,1.1-1.7c0-0.7-0.9-1-1.5-1.1c-1-0.3-9.8-2-10.4-2
		c-1.4,0-1.3,1.3-1.3,2.3c-0.1,2.4-0.6,13.1-0.8,15.1c-0.2,1.5-1.5,2.6-3,2.6L133.6,250.5z M251.7,234.3c-1.1,0-1.4,1.2-1.7,2
		c-1.9,6.2-19.5,42.7-23.2,49.7c-1.5,2.8-1.8,3.2-8.6,3.2h-1.7c-1.3,0-2.2,0.1-2.2,1.2c0.1,0.5,0.2,1,0.3,1.5
		c0.4,1.2,0.6,2.4,0.8,3.7c0.8,3.8,1.5,6.8,2.7,6.8c0.6,0,0.9-0.4,1.2-0.8c1.1-1.5,1.1-1.3,4.5-1.7c5.6-0.7,54.9-6.8,55.2-6.8
		c2.1,0,2.9,1.7,5.5,5.9c0.5,1,1.3,2.5,2.5,2.5c2.2,0,7.8-4.1,7.8-6.5c0-2.2-8.8-13-10.6-15.2c-2.2-2.5-14.1-15.7-16.6-15.7
		c-1.8,0-6.7,4.8-6.7,6.4c0,1,1.1,1.8,1.8,2.5c1.7,1.5,9.3,8.1,9.3,9.9c0,1.5-1.7,1.6-2.8,1.7c-8.6,1.1-17.2,2-25.9,2.9
		c-0.7,0.1-2.3,0.3-3,0.3c-1,0-1.8-0.8-1.8-1.8c0,0,0,0,0,0c0.1-0.9,0.5-1.8,0.9-2.6c5.9-11.6,11.3-23.4,17.3-34.9
		c2.6-4.9,3.1-6.4,5.3-7.4c0.5-0.2,1.2-0.6,1.2-1.2c0-0.9-1.9-1.6-2.6-2C259.1,237.2,252.9,234.3,251.7,234.3z M382,243.3
		c-1,0-4.8,3-4.8,4.2c0,0.5,0.6,1,0.9,1.3c2.6,2.5,5,5.2,7.4,8c0.3,0.4,0.7,1,1.2,1c1.3,0,4.8-3.2,4.8-4.6
		C391.5,252,383.2,243.3,382,243.3z M391.9,236c-1.1,0-4.8,3.1-4.8,4.2c0,0.5,0.5,1,0.8,1.3c2.7,2.6,5,5.1,7.4,7.9
		c0.3,0.4,0.8,1,1.3,1c1.3,0,4.8-3.1,4.8-4.5C401.4,244.6,393,236,391.9,236z M371.1,251.8c-1.4,0-7.4,4-7.4,5.8
		c0.1,0.8,0.5,1.5,1,2.1c7.9,9.3,14.7,21.2,19.7,32.3c0.4,0.9,0.8,1.8,2,1.8c1.8,0,9.4-3.5,9.4-6c0-3.2-11.1-20.2-13.5-23.7
		c-2-2.8-6.7-9.1-9-11.3C372.7,252.2,371.9,251.8,371.1,251.8z M337.2,249.8c-0.9,0-1.1,0.9-1.7,2.3c-5.1,13-15.8,26.6-25.9,36.3
		c-0.4,0.3-0.7,0.8-0.8,1.4c0,2,6.9,6.2,8.5,6.2c1.7,0,4.8-3.7,6-5c8.5-9.5,15.9-20,21.8-31.3c0.3-0.9,1-1.6,1.8-2
		c0.6-0.3,1.5-0.7,1.5-1.4c0-0.9-1.6-1.7-2.5-2.3C344.6,253.3,338.3,249.8,337.2,249.8L337.2,249.8z M475.4,255.8
		c-1.1,0-1.2,1.1-1.3,2c-1.1,8.1-3.9,15.8-8.2,22.7c-7.2,11.7-18.1,17.6-31,21.1c-1,0.3-1.6,0.7-1.6,1.8c0,1.4,3.7,6.9,5.6,6.9
		c1.1-0.2,2.1-0.4,3.1-0.8c10.7-3.4,19.9-8.8,27.2-17.4c6.9-8.3,10.7-17.7,13.7-28c0.4-1.2,0.5-1.5,1.3-2.1c0.5-0.4,1.2-0.8,1.2-1.5
		c0-1-1-1.5-1.8-1.8C482.4,258.2,476.3,255.8,475.4,255.8L475.4,255.8z M457.7,259.4c-1.7-2.8-3.6-5.6-5-5.6c-1.3,0-6.7,2.5-6.7,4.2
		c0.1,0.7,0.4,1.5,0.9,2c2.6,3.8,4.9,7.7,7,11.8c0.4,0.8,1,1.9,2,1.9c1.4,0,7.2-2.6,7.2-4.6c0-1.3-3.6-6.8-4.5-8.2L457.7,259.4z
		 M432.4,259.4c-1.3,0-6.7,2.5-6.7,4.3c0.1,0.7,0.4,1.3,0.8,1.8c2.7,3.9,5.1,7.9,7.2,12.1c0.4,0.8,0.9,1.7,1.9,1.7
		c1.2,0,7.2-2.5,7.2-4.6c0-1.3-3.4-6.5-4.3-7.9c-1-1.6-3.3-5.2-4.4-6.5C433.7,259.8,433.1,259.4,432.4,259.4L432.4,259.4z
		 M547.8,245.9c-1-0.1-1.7-0.6-1.7-1.7c0-0.8,1.4-2.8,1.8-3.6c1.7-3.1,2-3.6,3.4-4.1c0.4-0.2,0.9-0.6,0.9-1.1c0-1.1-5.1-3-6-3.5
		c-1.7-0.9-3.5-1.6-5.3-2.2c-0.9,0-1.2,1.4-1.6,2.4c-4.6,12.6-16.2,27.5-26.7,35.8c-0.5,0.3-0.9,0.8-0.9,1.4c0,2.1,7.3,5.9,8.5,5.9
		c2.7,0,14.2-13.7,16.1-16.4c1.3-1.8,1.9-2.8,4.2-2.8h19c1.4,0,3,0.1,3,1.4c0,2.5-6,12.2-7.7,14.7c-9.9,14.6-22.5,24.8-38.6,32
		c-0.8,0.3-2,0.8-2,1.8c0,1.9,6.3,6.8,8.5,6.8c2.1,0,11.5-5.9,13.7-7.3c18.4-11.9,28.2-26.5,38-45.5c0.9-1.9,2-3.7,3.1-5.4
		c0.6-0.7,1-1.6,1.2-2.5c0-1.3-4.4-6.8-6.4-6.8c-0.4,0-0.8,0.1-1.1,0.1c-1.8,0.4-3.7,0.6-5.6,0.6L547.8,245.9z M662.8,256.4
		c0-1.5-1.3-6.6-1.7-8.4c-1.3-5.4-1.6-7.8-3.9-7.8c-0.8,0-6.9,0.6-6.9,2.7c0.1,0.6,0.2,1.1,0.4,1.7c1.2,3.9,2.2,7.9,2.8,12
		c0.2,1.3,0.3,2.6,2.7,2.6C658,259.2,662.8,258.7,662.8,256.4z M676.9,238.6c-0.8,0-1.1,0.9-1.3,1.6c-1.6,5.9-4.7,11.5-7.7,16.8
		c-0.5,0.6-0.8,1.3-0.9,2c0,1.7,5.5,3.8,6.9,3.8c1.1,0,1.6-1,2.1-1.8c3-5.1,5.5-10.3,7.7-15.8c0.2-0.6,0.7-1.1,1.3-1.3
		c0.5-0.1,1.7-0.3,1.7-1.1c0-1-1.3-1.5-2-1.7C683.3,240.7,677.8,238.6,676.9,238.6L676.9,238.6z M645.9,258.9c0-1.3-2.2-7.5-2.8-9.1
		c-1.9-5.3-2.9-7.3-4.4-7.3c-0.9,0-6.4,1.4-6.4,3.6c0.1,0.6,0.2,1.1,0.5,1.6c1.1,2.4,2.7,6.4,3.5,8.9c1.3,4.3,1.4,5.6,3.2,5.6
		C640.4,262.2,645.9,261.1,645.9,258.9L645.9,258.9z M685.7,234.6c0-0.9-1.2-2.2-1.7-2.8c-0.6-0.7-1.1-1.5-1.7-2.3
		c-1.3-1.8-2.5-3.5-3.5-3.5c-0.5,0-1,0.2-1.4,0.4c-10.4,3.6-31.3,5.3-42.5,5.4c-2.1,0-4-0.2-4,1.8c0.1,1.8,0.4,3.5,1.1,5.1
		c0.6,1.2,1,2.1,2.8,2.1c15.1-0.4,30.5-1.9,45.2-5.7c0.6-0.1,1.2-0.2,1.8-0.3c0.5,0,1,0.2,1.5,0.4c0.4,0.2,0.9,0.3,1.3,0.3
		C685.2,235.6,685.6,235.2,685.7,234.6L685.7,234.6z M674.4,280.6c3.5,0,7.1,0.2,10.1,0.2c2.4,0,2.3-1.2,2.3-4.9
		c0-3.5,0.1-4.7-2.3-4.7c-3.4,0-6.7,0.2-10.1,0.2h-10.5c-1.9,0-2.8-0.7-2.8-2.7v-1c0-1.6,0.1-2.6,1.2-3.4c0.7-0.5,1.4-0.8,1.4-1.4
		c0-1.1-1.7-1.2-2.5-1.3c-1.9-0.2-6.7-0.6-8.4-0.6c-0.9,0-1.8,0.2-1.8,1.3c0,0.3,0.1,0.6,0.1,0.9c0.2,1.8,0.3,3.7,0.3,5.5
		c-0.1,2-0.8,2.7-2.8,2.7h-7.1c-3,0-5.9,0-8.9-0.2c-1.5-0.1-2.1-0.7-2.3-2.3c-0.2-1.1-0.3-3.4-1.9-3.4c-1.9,0.6-3.9,1.4-5.7,2.3
		c-0.3,0.1-0.5,0.2-0.8,0.2c-1.2,0-1.5-0.9-1.6-1.9v-9.6c0-1.9,0.6-2.6,2.5-2.8c0.9,0,4.6,0.2,5.2,0.2c2.1,0,2-1.3,2-5
		c0-3.4,0.1-4.7-2-4.7c-0.2,0-4.6,0.1-5.2,0.2c-1.9-0.2-2.5-1-2.5-2.8v-6.8c0-2.8,0.1-4.1,1.1-4.7c0.7-0.5,1.4-0.8,1.4-1.6
		c0-1.2-1.6-1.3-2.5-1.4c-1.9-0.1-6.6-0.4-8.2-0.4c-1.1,0-2,0.1-2,1.4c0,0.3,0.1,0.7,0.1,0.9c0.2,2.6,0.3,5.2,0.3,7.8v4.8
		c0,1.9-0.8,2.8-2.8,2.8c-2.2,0.1-4.7-0.2-6.3-0.2c-2.3,0-2.1,1.5-2.1,4.9c0,3.3-0.2,4.8,2.1,4.8c1.8,0,4.2-0.3,6.3-0.2
		c2,0,2.8,0.8,2.8,2.8v13.1c0,2-0.5,2.8-2.5,3.5c-2.7,0.9-5.5,1.7-8.3,2.3c-1.1,0.3-2.7,0.4-2.7,1.6c0,0.8,1.7,6.3,2,7.4
		c0.6,1.9,0.9,3.6,2.2,3.6c1,0,1.3-1.2,1.6-2c0.3-0.9,0.7-1,2.9-1.8c1-0.5,2-0.8,3.1-0.9c1.2,0,1.7,0.9,1.7,2v13.8
		c0,4.9,0.2,6.5-4.1,6.5c-1.4,0-2.8-0.2-4.1-0.2c-1.8,0-2.3,1-2.3,2.6c0,8.3,3,8,5.6,8c11.3,0,14.8-2.8,14.8-10.9
		c0-2.1-0.1-4.3-0.1-6.4v-17.4c0-2.1,0.5-2.9,2.4-3.8c1.4-0.7,2.9-1.3,4.3-2c0.3-0.1,0.5-0.2,0.8-0.2c0.8,0,1.2,0.7,1.3,1.4
		c0,2.9-0.1,4.1,2.4,4.1c2.8,0,6.5-0.2,10-0.2h0.7c0.8,0,1.6,0.3,1.6,1.3c0,0.3-0.1,0.6-0.3,0.9c-5.3,7.6-11.7,14.4-19.1,20.1
		c-0.6,0.5-1.5,1.1-1.5,2c0,1.8,4,6.7,5.7,6.7c1,0,2.2-1.1,2.9-1.7c7.1-5.9,13.3-12.8,18.5-20.4c0.1-0.3,0.4-0.4,0.7-0.4
		c0.5,0,0.7,0.4,0.7,0.9v12.1c0,3.8-0.2,7.5-0.2,11.3c0,3.1,1.1,3.2,5.2,3.2c3.9,0,4.9-0.1,4.9-3.2c0-3.8-0.2-7.5-0.2-11.3v-11.7
		c0-0.5,0.2-1,0.7-1c0.3,0,0.6,0.2,0.8,0.4c4.1,6,8.7,11.7,13.8,16.9c1,1,3.7,4,5.1,4c1.7,0,6.3-4.2,6.3-6.1c0-0.9-0.9-1.6-1.5-2.1
		c-6.6-6-12.5-12.6-17.8-19.7c-0.2-0.3-0.3-0.6-0.3-1c0-0.9,0.8-1.2,1.5-1.2H674.4z M748.3,265.1c0-1.5,1.3-2.8,2.8-2.8h17.6
		c1.7,0.2,2.7,1.1,2.7,2.8v7.8c0,1.7-1,2.6-2.7,2.8h-17.6c-1.5,0-2.8-1.3-2.8-2.8V265.1z M735.2,262.3c2,0,2.8,0.8,2.8,2.8v7.8
		c0,2-0.8,2.8-2.8,2.8h-14.5c-1.9,0-2.6-0.8-2.7-2.7c0.1-2.2,0.1-4.5,0.1-6.7v-1.2c0-2,0.8-2.8,2.8-2.8L735.2,262.3z M751.1,253
		c-1.5,0-2.8-1.3-2.8-2.8v-7.6c0-1.5,1.3-2.8,2.8-2.8h17.6c1.7,0.2,2.7,1,2.7,2.8v7.6c0,1.7-1,2.6-2.7,2.8H751.1z M738,250.2
		c0,1.5-1.3,2.8-2.8,2.8h-14.3c-1.5,0-2.8-1.3-2.8-2.8v-7.6c0-1.5,1.3-2.8,2.8-2.8h14.3c1.5,0,2.8,1.2,2.8,2.7c0,0,0,0.1,0,0.1
		V250.2z M735.2,284.9c2,0,2.8,0.8,2.8,2.7v8.7c0,4.9-0.2,9.8-0.2,14.7c0,3.1,1.1,3.2,5.4,3.2s5.4-0.1,5.4-3.2
		c0-4.9-0.3-9.8-0.3-14.7v-8.7c0-1.9,0.8-2.7,2.8-2.7h17.6c1.9,0,2.7,0.8,2.7,2.7v12.1c0,5-0.2,6-5,6c-1.6,0-3.1-0.2-4.7-0.2
		c-1.8,0-2.2,1-2.2,2.6c0,8.3,4,8,5.8,8c4.2,0,9.7-0.1,13.2-2.7c3-2.3,3.4-6,3.4-9.5c0-2.5-0.2-5.1-0.2-7.6v-51.7
		c0-3.2,0.1-6.3,0.1-9.5c0-4.1-1.6-5.2-5.6-5.2c-2.8,0-5.7,0.2-8.6,0.2h-45.7c-2.9,0-5.7-0.2-8.6-0.2c-4,0-5.6,1.2-5.6,5.2
		c0,3.2,0.2,6.3,0.2,9.5v21.1c0,15.8-0.6,29.2-9.6,42.9c-0.4,0.5-0.6,1-0.7,1.6c0,2,5.2,5.7,7,5.7c1.5,0,2.5-1.4,3.3-2.5
		c5.2-7.7,7.8-16.8,9-25.9c0.3-2,1.2-2.6,3.1-2.6H735.2z M957.2,268.2c1.2,0,2.3,0.9,2.3,2.2c0,0.1,0,0.2,0,0.2v0.2
		c0.1,1.2-0.8,2.3-2.1,2.4c-0.1,0-0.2,0-0.2,0h-12c-1.2,0.1-2.3-0.9-2.4-2.1c0-0.1,0-0.2,0-0.3v-0.2c-0.1-1.2,0.9-2.3,2.1-2.4
		c0.1,0,0.2,0,0.3,0H957.2z M957.6,256.7c1-0.1,1.8,0.6,1.9,1.6c0,0.1,0,0.2,0,0.3v1.1c0.1,1-0.6,1.8-1.6,1.9c-0.1,0-0.2,0-0.3,0
		h-12.9c-1,0.1-1.8-0.6-1.9-1.6c0-0.1,0-0.2,0-0.3v-1.1c-0.1-1,0.6-1.8,1.6-1.9c0.1,0,0.2,0,0.3,0H957.6z M957.2,245.1
		c1.2,0,2.3,0.9,2.3,2.2c0,0.1,0,0.2,0,0.2v0.3c0.1,1.2-0.8,2.3-2.1,2.4c-0.1,0-0.2,0-0.2,0h-12c-1.2,0.1-2.3-0.9-2.4-2.1
		c0-0.1,0-0.2,0-0.3v-0.3c-0.1-1.2,0.9-2.3,2.1-2.4c0.1,0,0.2,0,0.3,0H957.2z M969.5,247.5c0-1.7,0.7-2.4,2.3-2.4h13.9
		c3.8,0,7.5,0.2,11.3,0.2c2.3,0,2.4-0.7,2.4-3.5c0-2.9-0.1-3.6-2.4-3.6c-3.8,0-7.5,0.2-11.3,0.2h-12c-0.9-0.1-1.6-0.4-1.6-1.4
		c0-0.3,0-0.6,0.2-0.9c0.5-0.8,1.7-3.2,2.1-3.8c0.5-0.6,1.2-0.9,1.9-0.9c0.5-0.1,1.2-0.2,1.2-1.1c0-1-1.7-1.5-2.5-1.7
		c-1.4-0.5-7.3-2.4-8.4-2.4c-0.6,0-1.1,0.4-1.2,1c-1.1,3.1-2.4,6.1-3.8,9c-1,1.8-2,2.2-4,2.2h-9.9c-0.8-0.1-1.6-0.3-1.6-1.3
		c0-0.4,0.1-0.7,0.3-1c0.7-1.1,1.2-2,1.6-2.7c1.1-1.9,1.3-2.3,2.8-2.7c0.6-0.1,1.3-0.5,1.3-1.2c0-0.9-1-1.2-3.1-1.8
		c-2-0.5-5.8-1.8-7.3-1.8c-0.8,0-1.1,0.7-1.4,1.3c-3.7,8.2-11.6,18.9-18.2,24.9c-0.5,0.4-1.6,1.4-1.6,2.1c0,1.6,3.9,6,5.4,6
		c1.4,0,4.3-3.3,5.3-4.4c0.2-0.2,0.6-0.4,0.9-0.4c0.7,0,0.9,0.6,0.9,1.2v12.6c0,2.3-0.1,4.6-0.1,6.9c0,3.6,2.1,4,5.2,4
		c2.6,0,5.2-0.1,7.7-0.1h10.7c1.7,0,2.1,0.8,2.4,2.4c0,0.4,0.1,0.7,0.1,1.1c0,1.9-0.8,2.6-2.6,2.6h-21.9c-3.9,0-7.9-0.2-11.9-0.2
		c-2.3,0-2.3,0.9-2.3,4.2c0,3.3,0,4.2,2.3,4.2c4,0,8-0.2,11.9-0.2h12.6c0.4,0.1,1,0.2,1,0.8c0,0.3-0.2,0.7-0.5,0.8
		c-7.6,4.7-15.8,8.5-24.4,11.1c-0.3,0.1-0.5,0.2-0.8,0.2c-1.4,0.5-2.3,0.7-2.3,1.9c0,1.6,3,6.5,5.2,6.5c1.6,0,4.1-1,5.7-1.6
		c9.4-3.8,18.2-8.4,26.1-14.9c0.3-0.2,0.6-0.3,1-0.3c0.8,0,1,0.7,1.1,1.4v4.8c0,2.9-0.2,5.8-0.2,8.6c0,3.3,1.5,3.2,5.4,3.2
		c3.8,0,5.2,0,5.2-3.2c0-2.9-0.3-5.7-0.3-8.6v-5c0.1-0.7,0.3-1.4,1.1-1.4c0.3,0,0.7,0.2,0.9,0.4c5.2,4.3,10.9,8.1,16.9,11.2
		c2.5,1.4,11.7,5.9,14,5.9c2.6,0,5.8-5.2,5.8-6.8c0-0.9-0.8-1.2-1.5-1.4c-9.2-2.8-17.9-6.8-26-12c-0.3-0.1-0.5-0.5-0.5-0.8
		c0-0.6,0.6-0.7,1-0.8h13.2c4,0,8,0.2,11.9,0.2c2.4,0,2.4-0.9,2.4-4.2c0-3.2,0-4.2-2.4-4.2c-3.9,0-7.9,0.2-11.9,0.2h-22.7
		c-0.9,0-1.9-0.3-1.9-1.4c0-0.7,0.4-1.3,1-1.7c0.8-0.5,1.4-0.8,1.4-1.4c0-0.8-0.7-1.2-2.6-1.3c-0.1,0-0.2-0.1-0.2-0.2
		c0-0.1,0.1-0.1,0.2-0.1h21.2c3.9,0,7.7,0.1,11.5,0.1c2.2,0,2.3-0.7,2.3-3.5c0-2.9-0.1-3.6-2.4-3.6c-3.8,0-7.6,0.2-11.4,0.2h-18.8
		c-1.6,0-2.3-0.7-2.3-2.4v-0.2c0-1.7,0.7-2.4,2.3-2.4h9.6c3.7,0,7.3,0.2,11,0.2c2.4,0,2.4-0.8,2.4-3.5c0-2.8-0.1-3.5-2.4-3.5
		c-3.7,0-7.3,0.2-11,0.2h-10.1c-1.3,0-1.8-0.5-1.8-1.9v-1.1c0-1.4,0.5-1.9,1.9-1.9h10.1c3.6,0,7.2,0.2,10.9,0.2
		c2.3,0,2.4-0.6,2.4-3.5c0-2.8-0.1-3.4-2.4-3.4c-3.7,0-7.3,0.2-10.9,0.2h-9.7c-1.6,0-2.3-0.7-2.3-2.4V247.5z M1067.5,237.7
		c1.3-0.1,2.3,0.9,2.4,2.2c0,0.1,0,0.1,0,0.2v1c0.1,1.3-0.9,2.3-2.2,2.4c-0.1,0-0.1,0-0.2,0h-5.4c-1.3,0.1-2.3-0.9-2.4-2.2
		c0-0.1,0-0.1,0-0.2v-1c-0.1-1.3,0.9-2.3,2.2-2.4c0.1,0,0.1,0,0.2,0H1067.5z M1050.5,257.5c0,1.5-1.3,2.8-2.8,2.8h-4.8
		c-1.5,0-2.8-1.3-2.8-2.8v-3.3c0-1.5,1.3-2.8,2.8-2.8h4.8c1.5,0,2.8,1.3,2.8,2.8V257.5z M1069.9,257.5c0,1.5-1.3,2.8-2.8,2.8h-4.6
		c-1.5,0-2.8-1.3-2.8-2.8v-3.3c0-1.5,1.3-2.8,2.8-2.8h4.6c1.5,0,2.8,1.3,2.8,2.8V257.5z M1090.1,257.5c0,1.7-1,2.6-2.7,2.8h-5.4
		c-1.8-0.2-2.8-1.1-2.8-2.8v-3.3c0-1.5,1.2-2.8,2.7-2.8c0,0,0.1,0,0.1,0h5.4c1.7,0.2,2.7,1,2.7,2.8V257.5z M1066.8,294.9
		c-4.2-1.2-8.4-2.4-12.6-3.5c-0.7-0.3-1.4-0.6-1.4-1.5c0-0.5,0.2-0.9,0.5-1.2c0.5-0.9,1.1-1.7,1.8-2.5c0.7-1.2,2.1-1.9,3.5-1.7h16.2
		c0.9,0.1,1.9,0.4,1.9,1.5c0,0.3-0.1,0.6-0.3,0.9c-1.4,2.5-3.2,4.8-5.2,6.9c-0.7,0.8-1.7,1.3-2.8,1.3
		C1067.9,295.1,1067.3,295,1066.8,294.9z M1063.8,274c0.3-0.4,0.5-0.8,0.7-1.1c0.7-1.1,0.9-1.4,2.1-1.6c0.7-0.1,2-0.3,2-1.2
		s-1.1-1.4-1.8-1.6c-0.1,0-0.2-0.1-0.2-0.2c0-0.1,0.2-0.2,0.3-0.2h21.2c1,0.2,1.9,0.8,2.4,1.7c0.6,0.6,2.3,0.7,3.6,0.7h0.8
		c3.7,0,4.9,0,4.9-2.6c0-1.8-0.2-3.6-0.2-5.4v-8.7c0-2.1,0.2-4.2,0.2-6.3c0-3.6-2.3-4.1-5.3-4.1c-2.9,0-5.8,0.1-8.6,0.1h-4.4
		c-1.6,0-2.3-0.7-2.3-2.4v-1c0-1.7,0.7-2.4,2.3-2.4h12.1c4,0,7.9,0.2,11.9,0.2c2.2,0,2.1-1.1,2.1-4.1s0.1-4.2-2.1-4.2
		c-4,0-7.9,0.2-11.9,0.2h-56.8c-4,0-8-0.2-11.9-0.2c-2.1,0-2.1,1.1-2.1,4.2c0,3-0.1,4.1,2.1,4.1c3.9,0,7.9-0.2,11.9-0.2h11.3
		c1.7,0,2.4,0.7,2.4,2.4v1c0,1.7-0.7,2.4-2.4,2.4h-3.7c-2.9,0-5.9-0.1-8.8-0.1c-3,0-5.3,0.5-5.3,4c0,2,0.2,4,0.2,6.4v8.7
		c0,1.9-0.3,3.7-0.3,5.6c0,2.5,1.7,2.4,5.1,2.4h1.4c1.2,0,2.6-0.1,3.2-0.7c0.6-0.7,1.2-1.6,2.3-1.7h10.8c0.9,0.1,1.7,0.4,1.7,1.4
		c0,0.3-0.1,0.6-0.3,0.9c-0.8,1.2-1.6,2.5-2.4,3.7c-1.3,1.8-2,2.1-4.1,2.1H1034c-3.6,0-7.1-0.2-10.7-0.2c-2.4,0-2.3,1-2.3,4.4
		c0,3.2-0.1,4.3,2.3,4.3c3.6,0,7.1-0.2,10.7-0.2h7.7c0.8,0.1,1.5,0.3,1.5,1.2c0,0.3-0.1,0.6-0.3,0.9c-2.5,3.2-5,6.2-7.7,9.1
		c-0.6,0.6-1.7,1.6-1.7,2.5c0,2.1,6.4,3.7,7.6,3.7c1.3,0,2.3-1.3,3.2-2.2c0.7-0.9,1.8-1.5,2.9-1.5c0.4,0,0.9,0.1,1.3,0.2l8.4,2.4
		c0.4,0.1,0.7,0.4,0.7,0.8c0,0.4-0.2,0.7-0.6,0.9c-8.5,2.7-17.4,4.1-26.3,4.4c-4.1,0.2-5-0.1-5,2.1c0.1,1.7,0.6,3.4,1.3,5
		c0.7,1.7,1.4,2.4,3.3,2.4c1.2,0,2.7-0.2,3.9-0.3c10.8-1,25.2-4,34.5-9.4c0.7-0.5,1.6-0.8,2.5-0.8c0.6,0,1.3,0.2,1.9,0.4
		c7.3,2.8,14.6,5.9,21.6,9.4c0.9,0.5,2,0.9,3,1.1c2.7,0,4.9-4.8,4.9-7.1c0-1.3-1-1.8-3.1-2.8c-5.8-2.9-11.9-5-17.9-7.3
		c-0.7-0.1-1.3-0.8-1.3-1.5c0.1-0.5,0.3-0.9,0.6-1.3c1.8-2.1,3.5-4.4,5-6.8c0.3-0.5,0.7-0.9,1.2-1.2l1.1-0.3
		c0.7-0.2,1.7-0.4,1.7-1.3c0-1-1.7-1.5-2.8-2c-0.1,0-0.3-0.2-0.3-0.3c0-0.3,0.2-0.4,0.5-0.4h8.7c3.6,0,7.1,0.2,10.7,0.2
		c2.4,0,2.3-1,2.3-4.3c0-3.4,0.1-4.4-2.3-4.4c-3.6,0-7.1,0.2-10.7,0.2h-31c-0.8-0.1-1.5-0.3-1.5-1.3
		C1063.5,274.6,1063.6,274.3,1063.8,274z M1177.1,305.2c0-0.7-1.1-1.9-1.6-2.4c-0.2-0.3-0.4-0.5-0.6-0.7c-1.2-1.4-3.4-4-4.5-4
		c-0.5,0.1-1,0.3-1.4,0.7c-3.2,2.9-15.6,7.7-20.1,9c-0.7,0.2-1.6,0.4-1.6,1.5c0,1.2,2.8,6.7,5,6.7c3.5,0,17.1-6.9,20.4-9.1
		c0.5-0.4,1.1-0.7,1.8-0.9h0.7c0.2,0.1,0.5,0.1,0.7,0.1C1176.5,306.1,1177.1,305.8,1177.1,305.2z M1210.7,309.7
		c0-0.8-0.8-1.1-1.5-1.4c-5.8-2.4-11.2-5.5-16.2-9.2c-0.5-0.5-1.2-0.9-1.9-1c-2,0-5.6,4.8-5.6,5.9c0,2.4,17.3,12.4,19.7,12.4
		C1207.4,316.4,1210.7,311.7,1210.7,309.7z M1170.1,284.9c0-1.7,1-2.6,2.7-2.8h17.8c1.7,0.2,2.7,1.1,2.7,2.8v1
		c0.1,1.4-0.9,2.6-2.2,2.7c-0.2,0-0.3,0-0.5,0h-17.8c-1.4,0.1-2.6-0.9-2.7-2.2c0-0.2,0-0.3,0-0.5V284.9z M1170.1,271.2
		c-0.1-1.2,0.8-2.3,2.1-2.4c0.1,0,0.2,0,0.2,0h18.6c1.2,0,2.3,0.9,2.3,2.2c0,0.1,0,0.2,0,0.2v1.1c0.1,1.2-0.8,2.3-2.1,2.4
		c-0.1,0-0.2,0-0.2,0h-18.6c-1.2,0-2.3-0.9-2.3-2.2c0-0.1,0-0.2,0-0.2V271.2z M1191,255.1c1.2,0,2.3,0.9,2.3,2.2c0,0.1,0,0.2,0,0.2
		v1.4c0.1,1.2-0.8,2.3-2.1,2.4c-0.1,0-0.2,0-0.2,0h-18.6c-1.2,0-2.3-0.9-2.3-2.2c0-0.1,0-0.2,0-0.2v-1.4c-0.1-1.2,0.8-2.3,2.1-2.4
		c0.1,0,0.2,0,0.2,0H1191z M1184.5,246.5c-0.8-0.1-1.7-0.4-1.7-1.5c0-0.3,0.1-0.6,0.3-0.9c0.5-1.1,1.1-2.1,1.6-3.1
		c1-1.8,1.7-2.3,3.8-2.3h7.6c3.6,0,7.2,0.2,10.8,0.2c2.2,0,2.2-1.1,2.2-4.6s0.1-4.7-2.2-4.7c-3.6,0-7.2,0.2-10.8,0.2h-27.6
		c-3.6,0-7.2-0.2-10.8-0.2c-2.3,0-2.2,1.2-2.2,4.7s-0.1,4.6,2.2,4.6c3.6,0,7.2-0.2,10.8-0.2h3.8c0.9,0,1.8,0.3,1.8,1.4
		c0,0.4-0.1,0.7-0.3,1c-0.6,1.1-1.2,2.2-1.8,3.2c-1.2,1.7-1.9,2.2-3.9,2.1c-1.2,0-2.4-0.1-3.7-0.1c-3.3,0-4.7,1-4.7,4.5
		c0,2.5,0.1,4.9,0.1,7.4v27.3c0,2.5-0.1,5-0.1,7.5c0,3.5,1.5,4.4,4.8,4.4c2.4,0,4.8-0.1,7.2-0.1h20c2.5,0,4.9,0.1,7.3,0.1
		c3.3,0,4.7-1,4.7-4.4c0-2.5-0.1-5-0.1-7.5v-27.3c0-2.5,0.1-5,0.1-7.5c0-3.5-1.5-4.4-4.8-4.4c-2.4,0-4.8,0.2-7.2,0.2H1184.5z
		 M1143.4,254.8c0-2,0.8-2.7,2.7-2.8c2.6,0.1,5.3,0.2,7.9,0.2c2.2,0,2.1-1.2,2.1-4.7s0.2-4.9-2.1-4.9c-3.1,0-6.1,0.2-9.1,0.2h-12.7
		c-3.1,0-6.2-0.2-9.1-0.2c-2.3,0-2.2,1.3-2.2,4.9c0,3.5-0.1,4.7,2.2,4.7c2.7,0,5.4-0.3,8.1-0.2c1.9,0,2.7,0.9,2.7,2.8v27.3
		c0,2-0.5,2.9-2.4,3.5c-3,1-5.2,1.5-6.9,1.9c-4.1,1.1-5,1.3-5,2.4c0.2,1,0.5,1.9,0.9,2.8c0.4,1,0.8,2,1.1,2.8c1,2.6,1.5,3.9,2.6,3.9
		c0.7,0,1-0.5,1.2-1.1c0.4-1.2,0.6-1.2,2.2-1.7c9.1-2.7,18-5.9,26.8-9.5c1.6-0.7,2.5-1.3,2.5-3.6c0-1.3-0.2-5.8-2-5.8
		c-0.4,0-5,1.7-7.5,2.7c-0.6,0.2-1.2,0.4-1.4,0.5c-0.3,0.1-0.6,0.2-0.9,0.2c-1.2,0-1.6-1-1.7-2.1V254.8z"/>
	<path id="パス_1323" class="st0" d="M649,211.8l1.7-0.8c-4.3-4.4-4.3-11.4,0-15.8l-1.7-0.8c-2.3,2.3-3.6,5.4-3.5,8.6
		C645.4,206.4,646.7,209.5,649,211.8z M658.8,200.2c0.1,0.5,0.1,1.1,0.1,1.6c0,3-0.4,4.9-2.7,6.4c-0.6,0.4-1.2,0.8-1.9,1l2.1,1.7
		c4.9-2.6,5-6.3,5-10.8H658.8z M667.3,196.5c-0.6,0.1-1.2,0.2-1.8,0.2h-9.7c-0.7,0-1.5-0.1-2.2-0.2v2.5c0.8-0.1,1.4-0.1,2.2-0.1h9.4
		c-0.8,1.3-2,2.5-3.3,3.3l1.9,1.5c1.7-1.4,3.2-3,4.3-4.9c0.2-0.3,0.4-0.6,0.7-0.9L667.3,196.5z M672.3,210.8
		c1.6-1.4,2.7-3.2,3.2-5.2c0.4-2.6,0.6-5.1,0.5-7.7c0-0.5,0-1.1,0.1-1.6h-2.6c0.1,0.5,0.2,1.1,0.2,1.6c0,2.2,0,5.6-0.5,7.1
		c-0.5,1.7-1.6,3.2-3.1,4.3L672.3,210.8z M679.9,210.8c0.2-0.2,0.5-0.4,0.8-0.5c2.3-1.2,4.4-2.9,6.1-4.9l-1.4-2
		c-1.1,1.6-2.7,2.9-4.4,3.8v-9.4c0-0.5,0-1.1,0.1-1.6h-2.7c0.1,0.5,0.1,1,0.1,1.5v10.5c0,0.4-0.1,0.9-0.1,1.3L679.9,210.8z
		 M704.2,209.7c-1.1-2.6-2.4-5.1-3.9-7.5l-2.2,0.9c0.7,1,1.4,2.1,1.9,3.3c-1.8,0.2-4.4,0.5-6.6,0.7c0.9-2.4,2.4-7,2.9-8.7
		c0.2-0.7,0.5-1.3,0.8-2l-2.9-0.6c-0.1,0.7-0.2,1.4-0.4,2.1c-0.5,1.9-2.1,6.8-3.1,9.5l-0.5,0c-0.6,0-1.4,0-2,0l0.4,2.6
		c0.6-0.1,1.2-0.2,1.7-0.2c2.3-0.2,7.7-0.8,10.7-1.2c0.3,0.8,0.6,1.5,0.8,2.1L704.2,209.7z M715.7,199.8v-2c0-0.7,0-1.4,0.1-2.1H713
		c0.2,0.7,0.2,1.4,0.2,2.1v2h-4.7c-0.7,0-1.5-0.1-2-0.1v2.5c0.6,0,1.3-0.1,2.1-0.1h4.6c0,3.2-1.9,6.1-4.9,7.2l2.2,1.7
		c3.3-1.7,5.3-5.2,5.1-8.9h4c0.7,0,1.6,0.1,2,0.1v-2.4c-0.4,0-1.1,0.1-2,0.1L715.7,199.8z M734.2,201.1c1.7-1.1,3.3-2.4,4.8-3.9
		l-1.9-1.7c-1.3,1.6-2.9,3-4.7,4.1c-2.5,1.5-5.3,2.6-8.2,3.3l1.3,2.2c2.1-0.6,4.2-1.4,6.2-2.5v5.9c0,0.8,0,1.6-0.1,2.4h2.8
		c-0.1-0.8-0.2-1.6-0.2-2.4L734.2,201.1z M756.4,194.9c-3,0.7-6,1.2-9.1,1.3c0.3,0.5,0.4,1.1,0.6,1.7c3.3-0.1,6.7-0.6,9.9-1.4
		L756.4,194.9z M755.9,202.6c0.9-1.4,1.7-2.8,2.4-4.3l-2-0.7c-0.5,1.5-1.2,3-2.1,4.3L755.9,202.6z M753.7,201.1
		c-0.1-1.1-0.4-2.2-0.8-3.3l-1.8,0.3c0.4,1.1,0.6,2.2,0.7,3.3L753.7,201.1z M750.5,201.7c-0.3-1.2-0.7-2.3-1.2-3.4l-1.7,0.4
		c0.5,1.1,0.9,2.3,1.1,3.5L750.5,201.7z M747,202.3l-1.5,0.4v-2.6h1.6v-2h-1.6v-3.4h-1.9v3.4h-1.9v2h1.9v3.1
		c-0.8,0.2-1.6,0.4-2.2,0.5l0.5,2.1c0.5-0.1,1.1-0.3,1.7-0.5v4c0,0.2-0.1,0.3-0.3,0.3c-0.5,0-1,0-1.5,0c0.3,0.6,0.4,1.3,0.5,2
		c0.9,0.1,1.7,0,2.5-0.4c0.5-0.3,0.7-0.9,0.7-1.9v-4.6c0.6-0.2,1.2-0.3,1.7-0.5L747,202.3z M758.2,205.6v-1.9h-4.3v-1.8h-2v1.8h-4.2
		v1.9h3.1c-1.1,1.5-2.5,2.8-4.2,3.6c0.5,0.5,1,1.1,1.4,1.7c1.6-0.9,2.9-2.2,4-3.7v4.4h2v-4.3c0.9,1.4,2.1,2.6,3.4,3.5
		c0.4-0.6,0.9-1.1,1.4-1.6c-1.5-0.9-2.8-2.1-3.8-3.5H758.2z M769.3,204.3v-2.2h3.8v2.2L769.3,204.3z M763.7,204.3
		c0-0.7,0.1-1.3,0.1-1.9v-0.3h3.4v2.2L763.7,204.3z M767.1,198v2.1h-3.4V198H767.1z M773.1,200.1h-3.8V198h3.8V200.1z M775.2,196
		h-13.6v6.4c0,2.5-0.2,5.7-2.1,7.9c0.6,0.4,1.2,0.8,1.7,1.4c1.3-1.5,2-3.4,2.3-5.3h3.7v5h2.2v-5h3.8v2.7c0,0.3-0.1,0.4-0.5,0.4
		c-0.3,0-1.5,0-2.5,0c0.3,0.7,0.5,1.3,0.7,2.1c1.2,0.1,2.3,0,3.5-0.4c0.7-0.3,1-0.9,1-2.1L775.2,196z M779.5,194.5l-1.7,0.8
		c4.3,4.4,4.3,11.4,0,15.8l1.7,0.8c2.3-2.3,3.6-5.4,3.5-8.6C783.1,199.9,781.8,196.8,779.5,194.5L779.5,194.5z"/>
	<path id="パス_1320" class="st1" d="M882.5,261.1c0.9,0,1.6,0.7,1.6,1.6c0,0,0,0,0,0v0.7c0,0.9-0.7,1.6-1.6,1.6h-35.4
		c-1-0.1-1.6-0.6-1.6-1.6v-0.7c-0.1-0.8,0.5-1.5,1.3-1.6c0.1,0,0.2,0,0.3,0H882.5z M884.1,253.8c0,0.9-0.7,1.6-1.6,1.6c0,0,0,0,0,0
		h-35.4c-0.8,0.1-1.5-0.5-1.6-1.3c0-0.1,0-0.2,0-0.3v-0.5c0-0.8,0.6-1.5,1.4-1.5c0.1,0,0.1,0,0.2,0h35.4c0.9,0,1.6,0.6,1.6,1.5
		V253.8z M870.8,240c1.8,0,2.6,0.7,2.6,2.6v0.7c0,1.3-0.5,2-1.9,2h-13.9c-1.1-0.1-1.3-0.7-1.3-1.7c0-0.3,0-0.7-0.1-1
		c0.1-1.9,0.8-2.6,2.7-2.6H870.8z M880,289.9c-2.3,0.1-4.5,0.1-6.8,0.1h-4c-1.2,0-2.2-0.2-2.2-1.6c-0.1-0.6,0.3-1.2,0.9-1.4
		c0.6-0.3,1.3-0.7,1.3-1.4c0-0.9-1-0.9-2.3-1c-1.7-0.2-6.5-0.6-8-0.6c-1.2,0-1.5,0.5-1.5,1.5c0,0.7,0.1,1.3,0.1,1.9
		c0,2-1.1,2.6-2.8,2.6h-6.1c-0.8-0.1-1.1-0.5-1.1-0.9s0.2-0.6,0.5-0.9c1.4-1.2,2.8-2.4,4.1-3.6c1.1-1.2,2.7-1.9,4.4-1.7h16.3
		c2.1,0,2.9,0.2,4.4,1.7c1.2,1.2,2.3,2.4,3.5,3.5c0.2,0.3,0.4,0.5,0.4,0.8C881.1,289.6,880.5,289.8,880,289.9z M854,300.2
		c-3.9,4.3-10.9,6.7-16.6,7.5c-1.3,0.2-2.6,0.3-2.6,1.7s2.3,7,4.9,7c1.9,0,7.2-1.8,9.1-2.6c6.8-2.8,12-6.7,15.3-13.4
		c0.9-1.8,1.7-2.4,3.8-2.4h6c3.2,0,4.3-0.1,4.3,1.8c-0.1,1.8-0.4,3.5-0.9,5.2c-1,3-2.5,3.3-5.4,3.3c-1.7,0-3.3-0.2-5-0.2
		c-1.8,0-2.1,1.1-2.1,2.7c0,1.7,0.5,3.3,1.2,4.8c0.8,1.4,3.1,1.4,5.1,1.4c12.5,0,15.3-2,17.1-20.1c0.2-0.7,0.5-1.5,1.4-1.5
		c0.4,0,0.7,0.1,1,0.3c2.4,1.5,11.5,7.2,13.9,7.2c1.9,0,5.2-5.4,5.2-6.7c0-1-1.1-1.4-1.9-1.7c-6.5-2.5-12.7-5.9-18.4-9.9
		c-0.3-0.2-0.4-0.6-0.4-0.9c0-0.6,0.6-0.8,1.1-0.8h4.7c4,0,8,0.2,12,0.2c2.3,0,2.3-0.9,2.3-4c0-3,0-3.8-2.3-3.8c-4,0-8,0.2-12,0.2
		h-33.2c-0.5-0.1-0.9-0.2-0.9-0.7c0-0.2,0.1-0.4,0.2-0.5c0.3-0.3,0.7-0.6,1.2-0.7c0.6,0,1.4-0.2,1.4-0.9c0-0.7-1-1-1.5-1.2
		c-0.2-0.1-0.1-0.3,0.1-0.3h19.4c2.7,0,5.3,0.2,7.9,0.2c2.7,0,4.6-0.6,4.6-3.7c0-1.6-0.1-3.2-0.1-5.2V254c0-1.9,0.1-3.6,0.1-5.2
		c0-3.2-2.1-3.7-4.8-3.7c-0.9,0-1.8,0.1-2.7,0.1c-1.9,0.1-2.9-0.5-2.9-2.5c0-1.9,0.8-2.7,2.6-2.7h8.7c3.9,0,7.9,0.2,11.8,0.2
		c2.3,0,2.3-0.9,2.3-4c0-3.1,0.1-4-2.3-4c-3.9,0-7.9,0.2-11.8,0.2h-9.4c-0.9-0.1-1.8-0.2-2-1.3c0.1-0.2,0.1-0.4,0.2-0.6l0.1-0.2
		c0.2-0.4,0.4-0.5,0.8-0.8c0.5-0.3,1.1-0.6,1.1-1.1c0-0.9-1.1-1-1.7-1.1c-1.9-0.1-7.5-0.6-9.2-0.6c-0.8,0-1.6,0.1-1.6,1.1
		c0,0.3,0,0.5,0.1,0.8c0.1,0.5,0.1,1,0.1,1.5c0.1,1.6-0.6,2.3-2.2,2.3h-12.9c-1-0.1-1.9-0.2-2.1-1.3c0-0.3,0.1-0.4,0.1-0.6l0.1-0.2
		c0.2-0.4,0.5-0.6,0.9-0.8c0.7-0.5,1-0.7,1-1.2c0-1-1.6-1-2.3-1.1c-1.9-0.2-6.8-0.6-8.5-0.6c-0.8,0-1.6,0.1-1.6,1.2
		c0,0.2,0.2,1.9,0.2,2.4c0,1.6-0.7,2.2-2.2,2.2h-9c-3.9,0-7.8-0.2-11.8-0.2c-2.3,0-2.3,0.9-2.3,4c0,3.1,0,4,2.3,4
		c4,0,7.9-0.2,11.8-0.2h8.9c1.6,0,2.3,0.6,2.3,2.2c-0.1,1.6,0,3-2,3h-0.5c-1.2,0-2.3-0.1-3.4-0.1c-2.8,0-4.7,0.6-4.7,3.8
		c0,1.7,0.2,3.4,0.2,5.1v8.5c0,1.7-0.2,3.4-0.2,5.1c0,3.3,2,3.8,4.8,3.8c2.6,0,5.1-0.2,7.7-0.2h1.3c0.7,0.1,1.5,0.3,1.5,1.3
		c0,0.3-0.1,0.6-0.3,0.8c-0.2,0.3-0.5,0.6-0.7,0.9c-0.7,0.9-1.8,1.4-2.9,1.3h-11.8c-4,0-8-0.2-12-0.2c-2.4,0-2.4,0.8-2.4,3.8
		c0,3.1,0,4,2.3,4c4,0,8-0.2,12.1-0.2h3.2c0.4,0,1,0.2,1,0.8c0,0.3-0.1,0.6-0.4,0.8c-4.9,3.7-10.4,6.6-16.1,8.8
		c-0.8,0.3-2.4,0.8-2.4,1.9c0,1.7,2.9,6.8,4.7,6.8c2.3,0,11.1-5.3,13.4-6.8c0.2-0.1,0.3-0.2,0.5-0.2c0.5,0,0.7,0.5,0.7,0.9
		c0.1,1.6,0.4,2.3,2.2,2.3c3.2,0,6.4-0.2,9.6-0.2h1.2c0.8,0,1.7,0.3,1.7,1.3C854.4,299.6,854.2,300,854,300.2z"/>
</g>
</svg>
