<?xml version="1.0" encoding="utf-8"?>
<!-- Generator: Adobe Illustrator 28.1.0, SVG Export Plug-In . SVG Version: 6.00 Build 0)  -->
<svg version="1.1" id="レイヤー_1" xmlns="http://www.w3.org/2000/svg" xmlns:xlink="http://www.w3.org/1999/xlink" x="0px"
	 y="0px" viewBox="0 0 703.2 284.6" style="enable-background:new 0 0 703.2 284.6;" xml:space="preserve">
<style type="text/css">
	.st0{fill:none;stroke:#396CAE;stroke-width:2.0005;stroke-miterlimit:4.001;}
</style>
<path id="パス_1324" class="st0" d="M119.6,201.7c1.6-0.3,2.7,0.9,3.2,3.5c0.6,4.6,0.8,9.2,0.7,13.9c-0.1,4.5-4,11.5-11.5,21
	c-8.6,11.1-19.5,20.2-31.9,26.8c-6.9,3.7-14.4,6.3-22.1,7.7c-7.4,1.3-14.7-0.6-21.9-5.8c-7-4.8-11.7-12.2-13.1-20.6
	c-1.5-9.1-1.3-18.5,0.5-27.5c1.9-9.9,5-19.6,9.3-28.8c4.6-9.8,10.1-19.1,16.4-27.8c6.3-8.8,13.4-17,21.3-24.5
	c7.4-7.1,15.7-13.2,24.7-18.3c8-4.7,16.8-8,26-9.8c6.5-1.2,13.1,0.3,18.4,4.3c2.9,2.2,4.9,5.5,5.4,9.1c0.7,3.9-0.3,9.2-3.1,15.9
	c-2.8,6.7-6.4,13-10.7,18.7c-4.1,5.6-8.8,10.7-14,15.4c-5,4.4-9.1,6.9-12.5,7.5c-3.1,0.6-6.4,0.1-9.2-1.6c-2.8-1.7-4.3-3.3-4.6-4.9
	c-0.3-1.9-0.2-3.8,0.1-5.6c0.4-2.1,1.1-3.3,2.2-3.5c-0.2,0.3-0.3,0.7-0.2,1.1c0.1,0.8,1.4,1,3.8,0.6c2.4-0.4,5.9-3.2,10.7-8.3
	c4.8-5.1,9-10.7,12.5-16.7c3.6-6,5.1-10.3,4.6-12.9c-0.3-1.8-1.7-2.4-4.1-2c-6.4,1.1-14.8,5.7-25,13.7
	c-10.6,8.4-20.2,18.1-28.3,28.8c-8.9,11.6-15.9,24.6-21,38.3c-5.3,14.3-7.1,26.6-5.3,36.9c0.8,4.3,2.5,7.5,5.3,9.7
	c2.7,2.2,6.5,2.9,11.2,2c4.7-0.8,10.1-3.2,16.1-7.1c6-3.9,11.6-8.3,16.7-13.3c5.1-5,9.9-10,14.4-15.1c3.7-4.2,7.3-8.6,10.5-13.2
	c2.6-3.7,3.8-5.9,3.8-6.5C118.8,202.2,119,201.8,119.6,201.7z M192.8,169.9c2.4-0.3,4.8,0.3,6.8,1.7c2.5,1.5,4.1,4.1,4.7,7.9
	c0.7,3.8,0.2,8.9-1.4,15.5c-1.8,7.1-4.4,13.9-7.7,20.4c-3.5,7.1-7.6,13.9-12.2,20.3c-4.4,6.3-9.7,11.9-15.6,16.7
	c-5.8,4.7-11.4,7.5-16.6,8.4c-5.3,0.9-9.8,0-13.5-2.7c-3.8-2.8-6.2-7.1-7.2-13c-1-5.9-0.7-12.7,0.9-20.4c1.5-7.4,4.2-14.4,7.9-21
	c3.5-6.2,7.6-12,12.2-17.4c9.6-10.9,18.5-17.1,26.9-18.6c3.8-0.7,6.8-0.2,9,1.3c0.6,0.3,1.1,0.8,1.3,1.5l0.1,0.6
	C189.8,170.4,191.3,170.1,192.8,169.9L192.8,169.9z M184.9,185.3l-0.7,0.1c-2.4,0.4-3.9-1.1-4.5-4.6c-5.3,3-10.1,6.8-14.2,11.4
	c-4.8,5.1-8.9,10.9-12.1,17.1c-6.8,12.7-9.5,23-8.3,30.7c0.7,3.8,2.4,5.5,5.2,5c2.8-0.5,6.6-3.1,11.5-7.7
	c5.5-5.5,10.1-11.8,13.7-18.7c3.6-6.4,6.6-13,9.1-19.9c1.8-5.5,2.6-9.1,2.2-11C186.5,186,185.9,185.1,184.9,185.3L184.9,185.3z
	 M214,247.3l-5.1,0.7l-1.8,0.3c-0.9-0.1-1.7-0.4-2.4-0.8c-0.9-0.5-1.6-0.8-2-1c-0.5-0.3-0.8-0.8-0.9-1.4c-0.1-1.3-0.1-2.6,0.2-3.9
	c8.1-31.6,16.9-57.3,26.2-77.1c1.3-2.4,3.3-4.4,5.8-5.5c2.7-1.5,5.6-2.5,8.6-3.1c1.7-0.3,2.8,0.9,3.3,3.5c0.1,1.1,0,2.1-0.3,3.2
	c-0.8,2.4-1.8,4.7-3,6.9c-1.7,3.3-3.7,7-6,11.2c-2.4,4.2-3.7,6.6-4,7.3c7.6-11.4,14.8-20.1,21.5-26.1c6.7-6.1,11.8-9.4,15.1-10
	c3.4-0.6,6.1-0.1,8.3,1.5c2,1.4,3.3,3.4,3.8,5.8c0.4,1.8,0.5,3.7,0.5,5.6c-0.1,1.7-0.4,3.3-0.9,4.9c-0.5,1.7-1,3.2-1.4,4.5
	c-0.6,1.7-1.3,3.3-2.1,4.9c-1,2.1-1.8,3.5-2.2,4.2c-0.4,0.8-1.2,2.3-2.5,4.5c-1.3,2.2-2,3.4-2.1,3.6c1.6-2.2,3.7-5.6,6.5-9.9
	c2.8-4.4,5.1-8,7-11c1.9-2.9,4.4-6.3,7.4-10.1c2.6-3.4,5.5-6.6,8.6-9.5c6.6-5.9,13.6-9.6,21.2-10.9c2.4-0.5,4.9,0,7,1.3
	c2,1.2,3.3,3.2,3.7,5.4c0.4,2.3-1.4,8.2-5.4,17.9s-8,19.3-12,28.9c-4,9.7-5.7,15.6-5.3,17.9c0.6,3.1,1.5,4.9,2.7,5.3
	c1.4,0.4,2.9,0.3,4.3-0.1c1.6-0.4,3.7-1.9,6.4-4.4c2.5-2.3,4.8-4.9,6.9-7.5c3.2-4.1,6.1-8,8.7-11.8c0.5-0.7,1.3-1.2,2.1-1.3
	c1.3-0.2,2.3,0.6,2.9,2.6c0.6,2,1.1,4,1.5,6.1c0.4,1.5,0.4,3,0.2,4.5c-1.3,4.2-4.8,9.6-10.6,16.3c-5.8,6.7-11.8,10.6-18,11.7
	c-0.5,0.1-1.1,0.2-1.7,0.2c-7.2,0.6-12.4-0.5-15.6-3.2c-3.2-2.7-5.4-6.4-6-10.6c-0.8-4.4-0.2-9.9,1.7-16.7c1.7-6.4,4-12.6,6.8-18.6
	c2.7-5.7,5.1-10.8,7.4-15.4c2.3-4.6,3.3-7.1,3.3-7.4c-0.1-0.3-0.4-0.5-0.9-0.4c-2.1,0.4-6.2,4.6-12.3,12.7
	c-9.6,12.6-18.4,25.8-26.4,39.5c-1.9,3.3-6.3,11.6-13.2,24.8c-0.9,1.7-2.6,2.7-4.5,2.9c-2.4,0.4-4.8,0.4-7.1-0.1
	c-2.5-0.4-3.9-1.3-4.2-2.7c-0.1-0.7,3.6-11.2,11.2-31.6c7.6-20.4,11.2-31.4,10.9-33.1c-0.3-1.7-1.5-2.3-3.5-2
	c-2,0.4-5.6,4.1-10.9,11.2c-14.4,19.6-24.8,38.4-31.5,56.4c-0.8,1.8-1.8,3.5-2.8,5.1C215.6,245.9,214.6,247.1,214,247.3z M398.5,135
	c0.8,4.6-0.5,9.3-3.4,12.9c-2.7,3.9-6.9,6.5-11.5,7.3c-1.5,0.3-2.6,0.1-3.2-0.6c-0.7-0.8-1.1-1.7-1.2-2.7c-0.2-1.1-0.3-2.3-0.2-3.5
	c-2.7,1.5-5.2,3.3-7.5,5.2c-3.4,3-6.7,6.1-9.7,9.5c-3.8,4.1-5.5,7-5.2,8.6c0.1,0.5,0.9,0.7,2.6,0.4c2.5-0.6,4.9-1.7,7.1-3
	c2.1-1.3,4.4-2.3,6.7-2.9c0.9-0.2,1.8-0.3,2.6-0.3c1.3,0.6,2.5,1.5,3.4,2.6c1,1,1.8,2.2,2.2,3.5c0.2,0.9-0.5,2.3-2,4.1
	c-1.5,1.8-3.4,3.3-5.4,4.5c-1.5,0.8-2.9,1.6-4.2,2.6c-13,10.6-19.2,17.4-18.7,20.4c0.9,5.3,6,7.2,15,5.6c5.8-1,11.3-3.9,16.5-8.6
	c4.2-3.7,8.1-7.7,11.8-12c3.4-3.9,5.6-6.4,6.5-7.3c0.6-0.7,1.3-1.2,2.2-1.6c1.8-0.3,3,1.5,3.7,5.5c0.7,4,0.9,6.6,0.7,8
	c-0.3,1.3-1.3,3.1-3.3,5.4c-12.5,14.5-25.3,22.9-38.3,25.2c-7,1.2-12.7,1.3-17.2,0.1c-8.3-2.1-13-6.8-14.3-14
	c-1.7-9.4,3.6-17.7,15.8-24.9c-2.8-0.7-4.7-1.9-5.8-3.6c-1.1-1.7-2-4.5-2.7-8.5c-0.7-4,0.4-8.6,3.3-13.7c3-5.2,7-9.8,11.7-13.4
	c10.9-8.6,21-13.7,30.4-15.4c2.4-0.4,4.8-0.2,7.2,0.4C396.7,131.7,398.1,133,398.5,135z M466.6,51.2c-10.6,24.2-20.6,49.3-30.1,75.4
	c3-2.3,6.4-4.1,10-5.4c2.6-1.1,5.3-1.9,8.1-2.5c1.6-0.3,3-0.5,4.2-0.6c1.6-0.1,3.1,0,4.7,0.3c1.8,0.3,3.6,0.9,5.1,1.9
	c3.6,2.2,5.9,5.9,6.8,11.1c0.9,5.1,0.5,11-1.2,17.6c-1.9,7.1-4.6,13.9-8,20.4c-3.6,7-7.8,13.6-12.5,19.9
	c-4.5,6.1-9.9,11.5-15.9,16.2c-5.9,4.5-11.6,7.2-17.2,8.2c-2.6,0.5-5.9-0.7-9.9-3.4c-4-2.8-6.4-6.9-7.4-12.3
	c-1-5.5-0.1-14.3,2.6-26.7c2.9-12.9,6.5-25.6,11-38c4.6-13,9.5-25.8,14.5-38.3c5-12.5,9.3-22.8,13-30.8c3.7-8,5.9-12.7,6.8-14
	c0.9-1.3,2.7-2.6,5.5-3.8c2.3-1.1,4.8-1.9,7.3-2.4c2.1-0.3,3.4,0.4,3.7,2.4C467.8,48,467.4,49.7,466.6,51.2z M456.3,154.5
	c1.9-5.4,2.5-10.1,1.8-14.2c-0.7-4-2.3-5.8-4.9-5.4c-2.6,0.5-6.3,2.3-11.2,5.4c-4.9,3.2-7.7,4.8-8.5,4.9c-0.8,0.1-1.9-0.3-3.3-1.3
	c-9.1,26.3-13,42.8-11.9,49.4c0.5,3.1,1.8,4.4,3.8,4.1c4.7-0.8,10.8-6,18.3-15.4S453.3,163.4,456.3,154.5z M550.7,106.9
	c5.2-0.9,8.1,0.4,8.7,4c0.4,1.5,0.2,3.1-0.6,4.4c-0.7,1-2.1,4.3-4.1,9.9c-2,5.5-4.1,12.5-6.2,21c-2.1,8.4-3.2,15.5-3.3,21.2
	c-0.1,1,0,2,0.2,2.9c0.7,3.8,2,5.5,4.1,5.1c2-0.4,4.3-1.8,6.8-4.2c2.4-2.3,4.5-4.9,6.4-7.6c1.8-2.6,3.5-5.3,5.2-7.9
	c1.7-2.7,2.7-4.2,3-4.7c0.5-0.5,1.1-0.8,1.8-0.8c1.3-0.2,2.3,0.6,2.9,2.6c0.6,2,1.1,4,1.5,6.1c0.4,1.5,0.4,3,0.2,4.5
	c-1.3,4.2-4.8,9.7-10.6,16.3c-5.8,6.7-11.4,10.5-16.9,11.4c-5.5,1-9.8,0-13-2.9c-3.1-2.7-5.2-6.4-5.9-10.4
	c-0.7-3.7-0.7-7.4,0.2-11.1c-4.2,8.2-9.7,15.7-16.2,22.2c-6.4,6.4-12,10-16.6,10.9c-4.2,0.9-8.5,0.1-12.1-2.2
	c-4.4-2.8-7.1-7.3-8.2-13.5c-1.1-6.4-0.8-13.1,0.9-19.4c1.6-6.7,4.3-13.1,7.9-19c3.6-5.9,7.7-11.5,12.4-16.7
	c9.8-10.9,19.4-17.2,29-18.9c3.1-0.7,6.3-0.6,9.3,0.3c2.2,0.5,4,1.9,5.2,3.8c1.2-2.7,2.3-4.5,3.3-5.4
	C547.3,107.7,549,107.1,550.7,106.9L550.7,106.9z M539.1,120.6c-11.7,2.1-22.6,10.7-32.8,25.9c-3.8,5.9-7,12.2-9.3,18.9
	c-2.6,7.1-3.7,11.9-3.2,14.3c0.4,2.4,1.3,3.5,2.7,3.2c1.9-0.3,6.6-5.1,14-14.1c7.4-9.1,12.2-15.7,14.5-19.7
	C527.3,144.5,532.1,135,539.1,120.6z M634.3,148.9c2.1-1.9,4.1-3.8,6-5.9c0.9-1,1.9-2.3,3.1-3.7c0.7-1.1,1.8-1.9,3.1-2.3
	c1.4-0.2,2.3,1.2,2.9,4.3c0.5,3.1-0.4,6.7-2.8,10.8c-2.5,4.3-5.8,8-9.7,11.1c-4.2,3.4-8.6,6.4-13.3,9.1c-9.5,5.6-17.8,9-25,10.2
	c-7.1,1.3-14.3,0-20.5-3.6c-6.4-3.4-10.8-9.7-11.8-16.8c-1.3-7.9-0.8-16,1.6-23.6c2.3-8.1,6.1-15.6,11-22.4
	c5-6.8,11.1-12.8,18.1-17.5c6.7-4.7,14.2-7.9,22.3-9.4c3.6-0.7,7.2-0.2,10.5,1.4c3.2,1.5,5.4,4.4,5.9,7.9c0.7,3.7-0.4,8.4-3.1,14.2
	c-2.7,5.8-6,9-9.7,9.7c-4.4,0.8-6.9-0.9-7.7-5.1c-0.2-1.1,0.5-3.2,2-6.4s2.2-5.2,2.1-6.2c-0.2-1-0.6-1.4-1.4-1.3
	c-3.8,0.7-7.6,2.7-11.4,6c-3.7,3.2-7.1,6.6-10.3,10.3c-3.1,3.6-5.8,7.4-8.3,11.4c-5.5,8.9-7.5,17.6-6,25.9c0.5,3.2,2.2,6.1,4.8,8.1
	c2.6,2,6.4,2.6,11.5,1.7c5.2-0.9,10.2-2.4,15-4.5c4.2-1.7,8.2-3.8,12-6.1C628.4,154,631.5,151.6,634.3,148.9z M650.3,172.1l-6.8-0.3
	c-2,0.1-3.9-0.8-5.6-2.9c-0.5-0.6-0.7-0.9-0.9-1c-0.1-0.1-0.2-0.3-0.2-0.5c0-0.3,0-0.6,0.1-0.9c0.1-0.4,0.2-0.9,0.3-1.6
	c0.2-0.7,0.3-1.4,0.4-2.1c0.6-5.1,8.5-30,23.9-74.8c15.3-44.8,23.4-67.9,24.3-69.3c0.8-1.5,1.5-2.5,1.9-3.2c0.4-0.7,0.9-1.3,1.5-1.8
	c0.4-0.4,0.8-0.7,1.3-1.1c0.3-0.2,0.9-0.5,1.7-1c0.9-0.5,1.8-1,2.7-1.5c1-0.6,2-1.2,2.9-1.9c1-0.8,1.7-1.3,2-1.6
	c0.4-0.3,1-0.6,1.5-0.6c0.7-0.1,1.5,0.1,2,0.6c0.7,0.5,1.2,1.3,1.3,2.2l0.1,0.7c-0.1,1.4-6.1,19.1-18.1,53.3s-18.5,52.8-19.5,56
	c5-3.1,11.9-9.7,20.8-19.8c8.9-10.2,13.2-16.6,12.8-19.4s0.2-4.9,1.8-6.4c1.5-1.5,3.4-2.5,5.5-2.9c2-0.4,4,0,5.7,1.2
	c1.7,1.1,2.8,3.3,3.3,6.5c0.5,3.2-0.6,7.5-3.2,13c-2.7,5.6-6.1,10.9-10.1,15.8c-8.9,10.7-16.6,18.1-23,22.2
	c8.2,14,15.8,20.3,23,19.1c3.8-1.2,8-5.3,12.7-12.1c1.7-2.5,3.4-5,5-7.5c1.6-2.5,2.6-4,3-4.5c0.5-0.5,1.1-0.9,1.8-0.9
	c1.3-0.2,2.3,0.6,2.9,2.6c0.6,2,1.1,4,1.5,6.1c0.4,1.5,0.4,3,0.2,4.5c-1.3,4.2-4.8,9.6-10.5,16.3s-11.6,10.6-17.6,11.6
	c-4.3,0.8-7.9,0.5-10.7-0.7c-2.8-1.2-5-2.2-6.7-3c-1.9-1-3.6-2.2-5.2-3.7c-1.8-1.6-3.4-2.9-4.6-4c-1.5-1.4-3-2.9-4.3-4.5
	c-1.6-2-2.8-3.4-3.5-4.2c-0.7-0.8-1.8-2.2-3.2-4.1c-1.4-1.9-2.2-2.9-2.4-3.1c-0.8,2.7-1.7,5.7-2.6,8.9c-1,3.2-1.9,6.2-2.6,8.9
	s-1.5,5.2-2.2,7.5s-1.2,4.1-1.6,5.6s-0.6,2.3-0.7,2.3C652,171.1,651.3,171.9,650.3,172.1z"/>
</svg>
