<svg xmlns="http://www.w3.org/2000/svg" viewBox="0 0 100 98.35"><defs><style>.cls-1{fill:#0863a7;}.cls-2{fill:#137cb4;}.cls-3{fill:#0e569f;}.cls-4{fill:#1170ae;}.cls-5{fill:#1387ba;}.cls-6{fill:none;}</style></defs><g id="レイヤー_2" data-name="レイヤー 2"><g id="index"><g id="グループ_366" data-name="グループ 366"><path id="パス_20944" data-name="パス 20944" class="cls-1" d="M87.67,0,72.47,93.77A48,48,0,0,1,52,98.35H25.92L74.5,0Z"/><path id="パス_20945" data-name="パス 20945" class="cls-2" d="M46.67,0h3.26L25.45,98.35H0V58.23L40,.49A46.74,46.74,0,0,1,46.67,0"/><path id="パス_20946" data-name="パス 20946" class="cls-3" d="M100,0V50.35A48,48,0,0,1,72.47,93.77L87.67,0Z"/><path id="パス_20947" data-name="パス 20947" class="cls-4" d="M74.5,0,25.92,98.35h-.47L49.93,0Z"/><path id="パス_20948" data-name="パス 20948" class="cls-5" d="M40,.49,0,58.23V46.67A46.68,46.68,0,0,1,40,.49"/><path id="パス_20949" data-name="パス 20949" class="cls-6" d="M40,.49A45.33,45.33,0,0,1,46.67,0H100V50.35a48,48,0,0,1-48,48H0V46.67A46.68,46.68,0,0,1,40,.49Z"/></g></g></g></svg>