<?xml version="1.0" encoding="utf-8"?>
<!-- Generator: Adobe Illustrator 27.0.0, SVG Export Plug-In . SVG Version: 6.00 Build 0)  -->
<svg version="1.1" id="search" xmlns="http://www.w3.org/2000/svg" xmlns:xlink="http://www.w3.org/1999/xlink" x="0px" y="0px"
	 viewBox="0 0 20.8 20.8" style="enable-background:new 0 0 20.8 20.8;" xml:space="preserve">
<style type="text/css">
	.st0{fill-rule:evenodd;clip-rule:evenodd;fill:#4E4E4E;}
</style>
<path id="パス_24" class="st0" d="M13.6,13.6c0.5-0.5,1.3-0.5,1.8,0l5,5c0.5,0.5,0.6,1.3,0.1,1.8s-1.3,0.6-1.8,0.1
	c0,0-0.1,0-0.1-0.1l-5-5C13.1,14.9,13.1,14.1,13.6,13.6L13.6,13.6z"/>
<path id="パス_25" class="st0" d="M8.4,15.6c3.9,0,7.1-3.2,7.1-7.1c0-3.9-3.2-7.1-7.1-7.1c-3.9,0-7.1,3.2-7.1,7.1c0,0,0,0,0,0
	C1.3,12.4,4.5,15.6,8.4,15.6z M16.9,8.4c0,4.7-3.8,8.4-8.4,8.4S0,13.1,0,8.4C0,3.8,3.8,0,8.4,0C13.1,0,16.9,3.8,16.9,8.4L16.9,8.4z"
	/>
</svg>
