<svg xmlns="http://www.w3.org/2000/svg" xmlns:xlink="http://www.w3.org/1999/xlink" width="338" height="251" viewBox="0 0 338 251"><defs><clipPath id="a"><path d="M219.8,68.445c0,15.973-49.2,28.922-109.9,28.922S0,84.418,0,68.445C0,60.347,53.879-42.7,109.9-42.585,163.76-42.476,219.8,60.57,219.8,68.445Z" transform="translate(0 42.585)" fill="#aa8930"/></clipPath><clipPath id="c"><rect width="338" height="251"/></clipPath></defs><g id="b" clip-path="url(#c)"><rect width="338" height="251" fill="#fff"/><path d="M109.9,0c60.7,0,109.9,12.949,109.9,28.922S170.6,57.843,109.9,57.843,0,44.894,0,28.922,49.2,0,109.9,0Z" transform="translate(38.602 141.619)" fill="#aa8930"/><g transform="translate(38.602 59.51)" clip-path="url(#a)"><g transform="translate(57.669 52.284)"><g transform="translate(0)"><path d="M135.747,946.574l-.507-.122a4.442,4.442,0,0,0-.537-.074l-.343-.071-.031-.006-.029,0c-.22-.025-.434-.057-.656-.073l-.658-.04c-.211-.011-.431-.022-.658-.021-.112,0-.233,0-.342.012l-.312.022c-.265.039-.594.1-.932.126a7.442,7.442,0,0,0-1.084.2l.045-.011-.145.027c-.367.078-.737.142-1.108.2v-.007a12.266,12.266,0,0,0-4.6,1.674h0a8.086,8.086,0,0,0-1.326.859c-.221.168-.442.338-.653.519-.138.131-.28.261-.43.384l0,0a19.868,19.868,0,0,0-4.794,5.1,21.421,21.421,0,0,0-2.826,6.379l0,.007c-.093.3-.185.641-.264.979h-.009c-.082.481-.174.968-.214,1.339a22.319,22.319,0,0,0-.222,2.316l0,.372.008,0c-.02.3-.036.6-.035.888h0c-.017.283-.026.588-.03.846s-.018.555-.013.826a11.33,11.33,0,0,0,.12,1.541,25.154,25.154,0,0,0,1.567,6.9l.236.773a4.162,4.162,0,0,0,.551,1.2h0a21.608,21.608,0,0,0,2.094,3.371q-.067.787-.135,1.578l-.057.167-.024.071,0,.056q-.046.625-.093,1.253l-.093,1.385,0,.071.019.081.031.129c-.03.783-.049,1.52-.067,2.264l-.047.737-.05.756c-.04.426-.065.894-.094,1.339-.021.055-.028.092-.04.132-.014.057-.024.107-.033.156l-.047.273,0,.042,0,.051a5.705,5.705,0,0,0,.014,1.122h0c-.028.619-.063,1.234-.116,1.836-.062.623-.095,1.253-.1,1.878-.019.217-.028.445-.027.7a12.817,12.817,0,0,0,0,1.787q0,.562.021,1.08l0-.052a3.423,3.423,0,0,0,.1,1.192h0v0l.03.255v.1l0,.137-.012.1v.035a3.577,3.577,0,0,0,.034.626,31.225,31.225,0,0,0,.123,3.187l.027.458-.011.831a5.628,5.628,0,0,0,.147,1.764h0l.008.059c.025.464.046.957.06,1.43q.009.351.017.7a3.336,3.336,0,0,0,.055.8h0c.01.08.027.162.044.244l-.128.024.007.041.11-.024,0,.006.015,0c.138.819.136,1.725.257,2.65q.013.528.026,1.058a4.419,4.419,0,0,0,.077.557l.093.545,0,.022.011.03a2.083,2.083,0,0,1,.092.654c0,.128.008.267.022.415s.036.272.053.407h0c.052.446.11.9.171,1.351.078.444.15.863.2,1.311s.089.888.155,1.356c.064.376.122.75.179,1.122,0,.008-.006.016-.009.025l-.008.035a.483.483,0,0,0-.008.053c0,.027,0,.048,0,.063,0,.066,0,.109,0,.154q.01.12.021.24a3.682,3.682,0,0,0,.125.6l.008.063c.016.1.033.2.045.3s.033.232.056.35a4.047,4.047,0,0,0,.188.652l-.1.024,0,.012.074-.023v0l.024-.007c0,.012.008.025.013.037a7.127,7.127,0,0,0,.3.921c.017.142.031.286.052.424l.09.465c.062.3.111.6.187.9l.055.369.01.068.025.045.1.178.021.065.121.419.137.418c.053.16.1.316.144.471a.443.443,0,0,0-.025.086.56.56,0,0,0,0,.12l.007.066.017.108c0,.012,0,.023.007.035l-.024.014v0l0,.011.042.09c.005.025.011.05.017.075s0,.021,0,.031l-.122.022.031.128.109-.028a9.7,9.7,0,0,0,.441,1.816,7.092,7.092,0,0,0,.4,1.155c.095.3.2.609.313.929l.028.089.005.016.006.014.206.46.315.917c.105.3.241.6.364.9l.039.119.049.113.1.221.2.442.4.882h0c.166.435.4.863.606,1.294s.413.868.66,1.284.48.811.714,1.227.465.817.7,1.212l.014.024,0,.006.4.6c.136.2.28.424.428.6l.734.968,0,.011-.009.027-.006.035-.066.385v0c-.14.688-.322,1.374-.488,2.076l0,.021,0,.029c-.026.218-.052.439-.071.669-.009.116-.017.233-.018.359,0,.063,0,.13.006.2.005.047.009.093.019.149l-.094.283-.023.07,0,.021-.052.419c-.036.263-.07.527-.1.791h0a18.3,18.3,0,0,0-.05,3.832c.024.257.048.515.084.771h0a11.489,11.489,0,0,0,.285,1.519h0a23.287,23.287,0,0,0,1.038,3.361c.025.064.1.2.149.3a15.685,15.685,0,0,0,2.4,3.445,13.2,13.2,0,0,0,3.417,2.628,11.364,11.364,0,0,0,1.11.556c.33.141.669.254,1.005.372l.02.019a.359.359,0,0,0,.048.039.846.846,0,0,0,.117.068c.063.029.118.051.173.072.109.04.213.072.318.1a6.128,6.128,0,0,0,.629.15c.56.115,1.233.239,1.763.339a7.831,7.831,0,0,0,1.259.147l.01.007a.616.616,0,0,0,.136.063c.065.023.12.036.174.05l.046.009.011.023.011-.005.019-.009c.076.017.151.034.225.047l.021,0h.022l.406.017.326.061.012,0h.01a21.24,21.24,0,0,0,2.695.132c.224,0,.451-.011.673-.023l.672-.051c.446-.04.9-.049,1.341-.115a12.113,12.113,0,0,0,1.3-.224l-.017,0c.153-.033.3-.067.431-.1l.636-.092a8.993,8.993,0,0,0,1.9-.321,11.378,11.378,0,0,0,1.714-.669l.39-.123.019-.006.012-.006c.578-.289,1.2-.519,1.8-.8l.011-.005,0,0a19.47,19.47,0,0,0,1.9-1.229h0a12.967,12.967,0,0,0,2.229-1.948l.163-.183,0-.006.01-.015.227-.355-.021.029a5.3,5.3,0,0,0,.855-1.5,4.846,4.846,0,0,0,.3-1.6,7.77,7.77,0,0,0-.014-1.417c-.023-.257-.057-.513-.1-.767-.005-.042-.01-.084-.015-.128.04-.167.094-.337.15-.511a4.947,4.947,0,0,1,.41-.852,3.519,3.519,0,0,1,.588-.756l.015-.015.012-.018.115-.171.023-.017.139-.1.01-.007.015-.015c.087-.088.151-.17.214-.228l.234-.191c.084-.066.17-.145.229-.183s.164-.095.265-.161l-.016.009c.135-.075.232-.151.318-.188.109-.042.244-.1.354-.154s.225-.1.335-.137.233-.064.355-.1.253-.08.352-.1l.368-.066.369-.068c.123-.022.242-.025.364-.039a6.65,6.65,0,0,0,.957-.024c.643-.054,1.293-.093,1.943-.128h.039a6.421,6.421,0,0,1,2.857.712,4.746,4.746,0,0,1,2.036,2.159c.054.107.1.236.144.349s.073.219.114.342c.076.23.116.453.17.671a4.616,4.616,0,0,0-.041.719h0a7.614,7.614,0,0,0,.189,2.472,6.324,6.324,0,0,0,.975,2.078,7.4,7.4,0,0,0,1.6,1.589,11.27,11.27,0,0,0,2.487,1.538c.788.358,1.563.652,2.334.988a20.074,20.074,0,0,0,4.9,1.465h0a13.948,13.948,0,0,0,2.636.4c.444.029.9.025,1.335.024s.879.02,1.318.055l.06.007h.019a4.529,4.529,0,0,0,.848-.08,20.829,20.829,0,0,0,4.271-.255,2.838,2.838,0,0,0,1.116-.066,16.45,16.45,0,0,0,4.862-1.629,14.433,14.433,0,0,0,3.069-2.117l.006-.006,0-.005.3-.323.273-.235.009-.008.008-.008a12.551,12.551,0,0,0,1.528-2.059,9.366,9.366,0,0,0,.473-.945c.1-.2.2-.408.294-.618.022-.049.043-.1.065-.147q.09-.209.172-.415a17.73,17.73,0,0,0,1.125-4.562,5.234,5.234,0,0,0,.013-.556l.021-.31a13.21,13.21,0,0,0,0-3.412h0a30.108,30.108,0,0,0-.467-3.85,9.422,9.422,0,0,0-.323-1.263q-.065-.272-.137-.541a24.577,24.577,0,0,0,2.762-5.526h0a29.767,29.767,0,0,0,1.244-3.2,2.813,2.813,0,0,0,.212-.446c.061-.155.118-.31.172-.467.108-.313.205-.632.292-.951q.271-.953.492-1.93a7.329,7.329,0,0,0,.4-1.655l-.055.142c0-.014,0-.03.006-.044l.049-.1q.238-1.081.434-2.17c.143-.742.273-1.487.381-2.234s.19-1.5.271-2.249c.068-.506.1-1.016.158-1.524s.1-1.017.135-1.526l.055-.757c.155-2.245.22-4.5.216-6.749h0c.023-.769.019-1.544-.02-2.328-.019-2.073-.226-3.962-.354-6.008h0a24.317,24.317,0,0,0-.314-3.711c-.048-.512-.1-1.023-.149-1.535q-.117-1.107-.25-2.212a32.045,32.045,0,0,0-.352-3.745q-.268-1.812-.566-3.625h0c-.108-.7-.24-1.381-.311-2.1a40.4,40.4,0,0,0-.729-4.564c-.412-1.88-.725-3.817-1.164-5.464-.052-.2-.1-.388-.147-.58-.127-.812-.311-1.592-.487-2.359a22.923,22.923,0,0,1-.471-2.408h0l-.009-.051v-.006h0l-.2-1.061-.1-.534c-.011-.059-.02-.113-.029-.168l.028.016.049-.135.14-.384c.008-.015.017-.028.025-.043.035-.066.054-.12.08-.181l.147-.362.307-.586h0c0-.009.009-.017.013-.026l.081.045,0-.006.177.1,0-.008-.258-.146a5.422,5.422,0,0,0,.284-.6c.34-.909.341-.989.445-.885.045.051.165-.16.348-.708l.118-.366a.2.2,0,0,1,.014-.021c.02-.034.032-.058.044-.083.023-.048.041-.089.058-.13l.087-.226.15-.446c.092-.292.179-.586.259-.882q.238-.888.393-1.795a20.076,20.076,0,0,0,.284-3.656c.007-.428.03-.845.02-1.283a5.7,5.7,0,0,0-.057-1.539c-.03-.549-.073-1.1-.135-1.652s-.142-1.09-.212-1.637l0-.023-.014-.048-.186-.641a10.942,10.942,0,0,0-.2-1.445c-.106-.5-.248-.969-.372-1.456-.109-.339-.308-.908-.364-1.014-.106-.212-.228-.44-.332-.687l-.114-.339-.15-.387-.151-.389-.128-.3a2.576,2.576,0,0,0-.1-.338c-.056-.205-.117-.393-.178-.568s-.127-.358-.205-.529l-.155-.342,0-.008-.02-.035-.75-1.314-.186-.33c-.06-.112-.13-.25-.2-.375a4.234,4.234,0,0,0-.544-.74l.045.052-.675-.884a4.5,4.5,0,0,0-.435-.572,2.878,2.878,0,0,0-.3-.287c-.065-.053-.093-.071-.114-.091l-.1-.084c-.271-.246-.541-.551-.844-.863l-.047-.048,0,0-.073-.059h0l-.243-.216c-.25-.273-.486-.541-.722-.748a19.9,19.9,0,0,0-2.645-1.922c-.1-.049-.219-.112-.345-.183l.345.183c-.211-.135-.431-.269-.654-.4l-.031-.018-.033-.015-.289-.129-.341-.206c-.126-.07-.251-.121-.374-.181l-.679-.321a9.192,9.192,0,0,1-1.06-.57,5.019,5.019,0,0,0-.9-.362q-1.055-.359-2.143-.629l-.058-.014-.029,0-.3-.032-.225-.066.036.013a3.623,3.623,0,0,0-1.386-.253l.06,0-.361-.019-.224-.041-.174-.032-.02,0-.048,0a8.3,8.3,0,0,0-1.722.046,8.571,8.571,0,0,0-1.863.146c-.893.164-1.985.381-3.04.608l-.079.017-.071.045-.292.184c-.184.031-.37.073-.552.109a11.006,11.006,0,0,0-2.588.842l-.169.119c-.128.046-.258.1-.394.147a19.766,19.766,0,0,0-2.071,1.283,22.141,22.141,0,0,0-4.724,4.14,12.891,12.891,0,0,0-.853,1.177,6.6,6.6,0,0,1-.688,1.057l-.038.067-.095.168-.04.049-.155.18-.007.008-.035.051a3.31,3.31,0,0,0-.222.37,2.243,2.243,0,0,0-.148.364c-.333.6-.574,1.167-.9,1.817-.17.341-.38.757-.481,1.024-.083.217-.162.438-.242.656l-.175,0q-.314,0-.619.017l-.3-.04-.043-.006H171.8c-1.312-.024-2.637-.059-3.974-.061-.6,0-1.256.018-1.87.048-.3.016-.573.062-.857.094l-.028,0c-.372.022-.854.037-1.1.072-1.243.171-2.643.294-4.054.46l-.063.008-.065.023-.092.033a13.1,13.1,0,0,0-1.451.192l-.771.146c-.235.046-.471.092-.69.147l-.14,0h-.057l-.089.021c-.412.1-.8.182-1.121.242-.538.1-1.013.2-1.5.336a13.056,13.056,0,0,0-1.5.481c-.134.054-.272.1-.409.157l0-.006c-1.1.306-2.2.664-3.271,1.068-.241.063-.491.142-.745.228a23.646,23.646,0,0,0-1.651-2.133h0a6.293,6.293,0,0,0-.781-1.037,6.155,6.155,0,0,0-1.023-.8l.038.042-.015-.013a3.7,3.7,0,0,0-.862-.748l-.236-.182a2.893,2.893,0,0,1-.541-.437,11.162,11.162,0,0,0-3.287-2.068,6.1,6.1,0,0,0-.84-.309c-.359-.146-.685-.23-.985-.322l-.08-.022A14.565,14.565,0,0,0,135.747,946.574Z" transform="translate(-113.033 -936.853)" fill="#f4c443" stroke="#aa8930" stroke-width="1"/><path d="M122.217,1099.828a4.027,4.027,0,0,1-.141-.467,1.824,1.824,0,0,1,.185.425.214.214,0,0,1,.012.128l-.053-.084Z" transform="translate(-119.732 -1057.23)" fill="#b39567"/><path d="M114.18,1058.94a.367.367,0,0,0-.016-.086c0-.016,0-.032.006-.048C114.175,1058.866,114.18,1058.935,114.18,1058.94Z" transform="translate(-113.871 -1027.188)" fill="#b39567"/><path d="M267.792,1009.473c.033-.006.021,0-.01.012,0,0,0-.006,0-.009Z" transform="translate(-227.662 -990.644)" fill="#b39567"/><path d="M501.767,1054.625c0-.016,0-.029-.005-.041.013-.039.026-.077.039-.111C501.79,1054.524,501.778,1054.574,501.767,1054.625Z" transform="translate(-400.982 -1023.98)" fill="#b39567"/><path d="M498.1,1008.064c-.005-.022-.01-.043-.016-.066.013.034.028.066.041.1h0Z" transform="translate(-398.257 -989.553)" fill="#b39567"/><path d="M487.194,983.13l-.012-.023a.811.811,0,0,1,.087.083A.342.342,0,0,0,487.194,983.13Z" transform="translate(-390.182 -971.116)" fill="#b39567"/><path d="M458.768,954.413c0-.006-.014-.014-.021-.021l.1.045C458.833,954.433,458.807,954.425,458.768,954.413Z" transform="translate(-369.119 -949.845)" fill="#b39567"/><path d="M206.444,984.869a.905.905,0,0,1-.128-.028l-.035-.021C206.331,984.833,206.385,984.849,206.444,984.869Z" transform="translate(-182.106 -972.385)" fill="#b39567"/><path d="M117.145,1063.556h0Z" transform="translate(-116.079 -1030.707)" fill="#b39567"/><path d="M117.154,1063.557h0Z" transform="translate(-116.086 -1030.708)" fill="#b39567"/><path d="M117.157,1063.434h0v0Z" transform="translate(-116.088 -1030.617)" fill="#b39567"/><path d="M501.911,1054.457v0Z" transform="translate(-401.092 -1023.964)" fill="#b39567"/><path d="M119.028,1027.232c0,.01-.009.022-.013.034l0-.011,0,.006.01-.023,0,.011Z" transform="translate(-117.464 -1003.801)" fill="#b39567"/><path d="M137.029,1287.615l0,0-.064.016-.006,0-.1.025.005,0,.1-.025Z" transform="translate(-130.681 -1196.678)" fill="#b39567"/><path d="M435.224,944.263l0,.005h0l-.044-.02Z" transform="translate(-351.662 -942.33)" fill="#b39567"/><path d="M119.029,1027.3h0l0-.006,0,0Z" transform="translate(-117.475 -1003.845)" fill="#b39567"/><g transform="translate(22.839 32.68)"><path d="M235.221,1158.594h0Z" transform="translate(-226.38 -1133.786)" fill="#fff"/><path d="M218.638,1090.663c.012-.215.021-.432.021-.651,0-.331-.015-.659-.042-.981a.441.441,0,0,1,.011-.049l-.04-.394a6.9,6.9,0,0,0-.088-.92l-.006-.023a.287.287,0,0,1-.039-.2l-.049-.276a9.351,9.351,0,0,0-.337-1.173,6.842,6.842,0,0,0-.537-1.1,6.093,6.093,0,0,1-.418-.7.72.72,0,0,1-.211-.325,16.338,16.338,0,0,0-1.142-1.414,2.544,2.544,0,0,0-.592-.565.2.2,0,0,0-.033.046c-.007-.014-.017-.027-.024-.042a1.975,1.975,0,0,0-.181-.2c-.069-.058-.14-.115-.213-.169-.146-.109-.3-.21-.451-.311s-.325-.17-.482-.262-.307-.195-.465-.284l-.387-.176a1.914,1.914,0,0,0-.635-.248c-.223-.059-.44-.129-.655-.2a.228.228,0,0,1-.182-.031q-.216-.018-.428-.045l-.429-.018q-.214-.012-.429-.034c-.143-.015-.286,0-.43-.012a5.1,5.1,0,0,1-.818.066.681.681,0,0,0-.36.053l-.151.009c-.285.047-.552.186-.843.205a4.2,4.2,0,0,1-.639.244,7.709,7.709,0,0,0-2.565,1.709.472.472,0,0,0-.179.24h0a1.378,1.378,0,0,0-.285.312.163.163,0,0,0-.069.026,3.753,3.753,0,0,0-.315.4c0,.018,0,.035-.007.053-.1.048-.16.158-.234.247a.149.149,0,0,0-.033.1l-.058.084-.006,0-.008.01a.573.573,0,0,0-.073.011,9.024,9.024,0,0,0-.561.93c-.018.049-.012.075,0,.09,0,.005-.006.011-.01.016-.036.031-.071.064-.1.1a.1.1,0,0,1-.044.08,2.093,2.093,0,0,1-.275.612.188.188,0,0,1-.068.164,1.667,1.667,0,0,1-.105.345,2.937,2.937,0,0,1-.143.331l0,0a.792.792,0,0,1-.123.385.13.13,0,0,1-.045.1.337.337,0,0,0-.081.279.253.253,0,0,1-.016.138,1.125,1.125,0,0,0,.013.2c0,.005,0,.009,0,.014a.236.236,0,0,0-.019.077l.011,0-.009.01s0-.009,0-.013a.634.634,0,0,0-.089.158c-.021.1-.046.19-.063.286l-.04.29-.08.58c-.035.358-.044.719-.061,1.079,0,.006,0,.012-.006.018a1.277,1.277,0,0,0-.053.272.668.668,0,0,1,.016.336.31.31,0,0,1,0,.216.191.191,0,0,1,0,.136.575.575,0,0,0,.055.438.636.636,0,0,1,.033.3,2.976,2.976,0,0,0,.22,1.158,3.694,3.694,0,0,1,.2.671l.086.147c-.017.007-.021.034-.012.078a.091.091,0,0,1,.02.1c.01.075.024.15.041.224s.048.144.076.215c.055.143.117.283.18.424.115.286.28.546.376.837l.025.022,0,.033a.327.327,0,0,0,.124.107v0c-.033,0-.035.037,0,.113a7.452,7.452,0,0,1,.436.715,6.535,6.535,0,0,0,1.1,1.352.4.4,0,0,0,.064,0l-.006.011c.054.051.106.1.161.155a.79.79,0,0,0,.113.159l.379.325c.063.054.124.111.189.164l.2.146a4.069,4.069,0,0,0,.856.512l.438.232c.148.073.306.127.458.191.457.142.913.309,1.382.42a2.526,2.526,0,0,1,.313.028c.035.008.07.014.106.02a2.118,2.118,0,0,1,.268.072c.153.025.312.033.469.048a1.523,1.523,0,0,0,.463-.02,1.049,1.049,0,0,1,.468-.023c.047.039.088.037.121,0a.369.369,0,0,1,.04.035,2.538,2.538,0,0,0,.508-.032.522.522,0,0,1,.1-.056,6.149,6.149,0,0,0,3.037-1.092.109.109,0,0,1,.093-.062c.16-.2.452-.3.6-.5v0a.459.459,0,0,1,.058,0,1.128,1.128,0,0,0,.311-.272c0-.009.007-.016.01-.025a2.361,2.361,0,0,0,.444-.344c.083-.111.171-.22.258-.328.14-.145.28-.29.412-.442l.028-.119,0,0a.046.046,0,0,0,.009.013c.012.011.034,0,.067-.036l.127-.174-.012-.066c.03-.026.06-.053.089-.081a2.087,2.087,0,0,0,.4-.64c-.009-.026,0-.051.032-.076a.741.741,0,0,1,.15-.234.289.289,0,0,1,.095-.154,3.75,3.75,0,0,1,.314-.675,3.066,3.066,0,0,0,.269-.692l.053-.14a.179.179,0,0,0,.055-.13c.107-.356.222-.709.309-1.069.007-.061-.007-.092-.038-.1a.344.344,0,0,0,.026-.167l.067-.35c.023-.052.047-.1.07-.157a.465.465,0,0,0,.018-.183.691.691,0,0,0,.044-.36c0-.281.056-.557.065-.839A.079.079,0,0,0,218.638,1090.663Zm-11.751,8.655h.009a.053.053,0,0,0-.01.006Zm-2.16-1.178,0,.008-.012-.007Zm2.124,1.2.018.019,0,.008-.013,0A.058.058,0,0,1,206.852,1099.338Z" transform="translate(-201.127 -1075.5)" fill="#fff"/><path d="M353.221,1141.594h0Z" transform="translate(-313.788 -1121.194)" fill="#fff"/><path d="M336.6,1074.566c0-.281.056-.557.065-.839a.08.08,0,0,0-.03-.064c.012-.215.021-.432.021-.651,0-.331-.015-.658-.042-.981a.449.449,0,0,1,.011-.049l-.04-.394a6.89,6.89,0,0,0-.088-.919l-.006-.023a.288.288,0,0,1-.039-.2l-.049-.276a9.321,9.321,0,0,0-.337-1.173,6.8,6.8,0,0,0-.537-1.1,6.051,6.051,0,0,1-.418-.7.717.717,0,0,1-.211-.324,16.422,16.422,0,0,0-1.142-1.414,2.556,2.556,0,0,0-.592-.564.192.192,0,0,0-.033.045c-.007-.014-.017-.027-.024-.041a2.008,2.008,0,0,0-.181-.2q-.1-.087-.213-.168c-.146-.109-.3-.21-.451-.311s-.325-.17-.482-.262-.307-.195-.465-.284l-.387-.176a1.9,1.9,0,0,0-.635-.248c-.223-.059-.44-.129-.655-.2a.227.227,0,0,1-.183-.032q-.216-.017-.428-.044l-.429-.018q-.214-.012-.429-.034c-.143-.014-.286,0-.43-.012a5.1,5.1,0,0,1-.818.066.686.686,0,0,0-.36.053l-.151.009c-.285.047-.552.186-.843.2a4.279,4.279,0,0,1-.639.244,7.722,7.722,0,0,0-2.565,1.709.475.475,0,0,0-.179.24h0a1.373,1.373,0,0,0-.285.313.161.161,0,0,0-.069.025,3.771,3.771,0,0,0-.315.4c0,.018,0,.035-.007.053-.1.048-.16.159-.234.248a.148.148,0,0,0-.033.1l-.058.084-.006,0-.008.01a.671.671,0,0,0-.073.011,9.1,9.1,0,0,0-.561.93c-.018.049-.012.075,0,.09a.184.184,0,0,1-.01.016c-.036.031-.071.063-.105.1a.1.1,0,0,1-.044.08,2.1,2.1,0,0,1-.275.612.187.187,0,0,1-.068.164,1.682,1.682,0,0,1-.105.345,2.966,2.966,0,0,1-.143.331l0,0a.791.791,0,0,1-.123.385.13.13,0,0,1-.045.1.338.338,0,0,0-.081.279.252.252,0,0,1-.016.138,1.114,1.114,0,0,0,.013.2c0,.006,0,.009,0,.014a.242.242,0,0,0-.019.077l.011,0-.009.011s0-.01,0-.014a.647.647,0,0,0-.089.158c-.021.1-.046.19-.063.286l-.041.29-.08.58c-.035.358-.044.719-.061,1.079,0,.006,0,.012-.006.018a1.278,1.278,0,0,0-.053.272.67.67,0,0,1,.016.337.31.31,0,0,1,0,.216.191.191,0,0,1,0,.136.576.576,0,0,0,.055.438.634.634,0,0,1,.033.295,2.974,2.974,0,0,0,.22,1.157,3.713,3.713,0,0,1,.2.671l.086.146c-.017.007-.021.034-.012.078a.091.091,0,0,1,.02.1c.01.075.024.15.041.224s.048.144.076.215c.055.142.117.283.18.423.115.286.28.546.376.837l.025.021,0,.033a.323.323,0,0,0,.124.107v0c-.033,0-.035.038,0,.113a7.379,7.379,0,0,1,.436.715,6.544,6.544,0,0,0,1.1,1.352.39.39,0,0,0,.064,0l-.006.011c.055.051.106.1.161.155a.8.8,0,0,0,.113.159l.379.325c.063.054.124.112.189.163l.2.147a4.013,4.013,0,0,0,.856.513l.438.233c.148.072.306.127.458.191.456.143.913.31,1.382.42a2.5,2.5,0,0,1,.313.028c.035.008.071.014.106.019a2.09,2.09,0,0,1,.268.072c.153.025.312.033.469.048a1.5,1.5,0,0,0,.464-.02,1.065,1.065,0,0,1,.468-.022c.047.039.088.037.121,0a.422.422,0,0,1,.04.034,2.556,2.556,0,0,0,.508-.032.541.541,0,0,1,.1-.056,6.149,6.149,0,0,0,3.037-1.092.111.111,0,0,1,.093-.062c.16-.2.452-.3.6-.5v0a.539.539,0,0,1,.058,0,1.128,1.128,0,0,0,.311-.271c0-.008.007-.016.01-.025a2.349,2.349,0,0,0,.444-.344c.083-.111.171-.22.258-.328.14-.145.28-.291.412-.442l.028-.119,0,0a.048.048,0,0,0,.009.013c.012.011.034,0,.067-.036l.127-.174-.012-.066c.03-.026.06-.054.089-.081a2.088,2.088,0,0,0,.4-.641c-.009-.026,0-.051.032-.076a.732.732,0,0,1,.15-.233.288.288,0,0,1,.095-.154,3.754,3.754,0,0,1,.314-.675,3.06,3.06,0,0,0,.269-.692l.053-.14a.179.179,0,0,0,.055-.13c.107-.355.222-.709.309-1.069.007-.06-.007-.092-.038-.1a.344.344,0,0,0,.026-.167l.067-.349c.023-.052.047-.1.07-.157a.466.466,0,0,0,.018-.183A.692.692,0,0,0,336.6,1074.566Zm-11.715,7.751h.009a.056.056,0,0,0-.01.006Zm-2.16-1.178v.008l-.012-.008Zm2.124,1.2.018.019,0,.009-.013,0A.058.058,0,0,1,324.852,1082.338Z" transform="translate(-288.535 -1062.907)" fill="#fff"/></g><g transform="translate(29.43 39.283)"><path d="M246.934,1151.685h0Z" transform="translate(-241.648 -1135.271)" fill="#9d763a"/><path d="M236.83,1111.659c.007-.123.012-.248.012-.374,0-.191-.009-.378-.024-.564a.205.205,0,0,1,.012-.03l-.018-.228c.053-.179-.053-.356-.025-.536l0-.014c-.02-.037-.051-.073-.02-.119l-.023-.161a3.84,3.84,0,0,0-.183-.685,3.188,3.188,0,0,0-.327-.63,1.473,1.473,0,0,1-.249-.4.247.247,0,0,1-.122-.187c-.216-.277-.426-.556-.657-.823-.067-.155-.218-.23-.339-.333a.363.363,0,0,0-.034.045.287.287,0,0,1-.009-.03,1.362,1.362,0,0,0-.48-.411,2.974,2.974,0,0,1-.545-.331l-.224-.107a.809.809,0,0,0-.368-.156,1.911,1.911,0,0,1-.381-.129.084.084,0,0,1-.107-.019c-.086,0-.17-.005-.254-.013s-.168,0-.252-.006c-.168-.011-.334-.034-.5-.042a1.281,1.281,0,0,1-.482.033.244.244,0,0,0-.213.027l-.09,0a2.5,2.5,0,0,1-.5.109,1.226,1.226,0,0,1-.38.14,4.176,4.176,0,0,0-1.523,1,.181.181,0,0,0-.1.152l0,0a.484.484,0,0,0-.165.187.1.1,0,0,0-.051.007,1.417,1.417,0,0,0-.185.236c0,.013,0,.026,0,.039-.073.017-.1.086-.148.138-.019.016-.011.043-.009.067l-.034.046s0,0-.006,0l-.005.005c-.02,0-.041-.005-.061-.006a5.39,5.39,0,0,0-.33.549.052.052,0,0,0,.019.062s0,.007-.007.009a.818.818,0,0,0-.079.05.038.038,0,0,1-.027.047.629.629,0,0,1-.161.361.072.072,0,0,1-.04.1.846.846,0,0,1-.145.4h0a.284.284,0,0,1-.073.227.05.05,0,0,1-.031.059.135.135,0,0,0-.05.164.094.094,0,0,1,0,.083c.016.039,0,.086.031.122,0,0,0,.006.006.009a.08.08,0,0,0-.012.045l.011,0-.009.006,0-.008c-.025.029-.066.055-.074.089-.06.223-.074.454-.111.68-.022.211-.027.424-.038.636l-.005.01a.593.593,0,0,0-.056.16.24.24,0,0,1,.01.2c.015.043.037.085,0,.127a.073.073,0,0,1-.007.081.226.226,0,0,0,.037.258.228.228,0,0,1,.017.174,1.209,1.209,0,0,0,.131.685,1.029,1.029,0,0,1,.126.4l.067.083h0a.039.039,0,0,0-.027.048.038.038,0,0,1,.008.059c.02.372.285.666.375,1.019l.019.011,0,.022a.163.163,0,0,0,.095.052l.005.008c-.028.008-.042.027-.028.072a2.508,2.508,0,0,1,.253.43,3.128,3.128,0,0,0,.654.812.4.4,0,0,0,.051-.011l-.007.01.1.089a.377.377,0,0,0,.056.109,3.349,3.349,0,0,0,.984.678l.265.136c.09.042.185.073.277.111.284.06.55.179.833.238a.875.875,0,0,1,.19.007.586.586,0,0,0,.063.012.775.775,0,0,1,.159.053,1.253,1.253,0,0,0,.559,0,.345.345,0,0,1,.279-.018c.029.04.053.039.072,0a.371.371,0,0,1,.025.035,1.1,1.1,0,0,0,.3-.016.217.217,0,0,1,.057-.049,3.2,3.2,0,0,0,1.812-.653.045.045,0,0,1,.054-.04c.077-.144.271-.172.338-.322v0c.014,0,.027.007.042.012a.463.463,0,0,0,.18-.165c0-.007,0-.012,0-.019.116-.023.178-.132.27-.194.044-.071.093-.139.14-.206.082-.086.165-.171.243-.26v-.083l0,0s0,.007.007.014.029.006.049-.014l.072-.1-.024-.051c.02-.013.04-.027.059-.043a.852.852,0,0,0,.225-.383.03.03,0,0,1,.013-.048.257.257,0,0,1,.087-.136.1.1,0,0,1,.056-.089,1.3,1.3,0,0,1,.17-.4,1.171,1.171,0,0,0,.146-.407l.029-.083a.064.064,0,0,0,.032-.075c.06-.208.123-.414.172-.624a.055.055,0,0,0-.046-.063.12.12,0,0,0,.011-.1l.035-.2c.018-.029.037-.058.054-.088a.188.188,0,0,0,0-.107.241.241,0,0,0,.024-.209,3.289,3.289,0,0,1,.03-.485A.048.048,0,0,0,236.83,1111.659Zm-6.781,5.027c-.005,0-.005.007-.009.011l0-.009Zm-1.329-.615.01,0,0,.007Zm1.3.642.012.02h0l-.011,0A.061.061,0,0,1,230.016,1116.713Z" transform="translate(-226.549 -1100.967)" fill="#9d763a"/><path d="M364.934,1134.685h0Z" transform="translate(-329.056 -1122.678)" fill="#9d763a"/><path d="M354.835,1095.183a3.283,3.283,0,0,1,.03-.485.047.047,0,0,0-.034-.038c.007-.124.012-.248.012-.374,0-.19-.009-.378-.024-.563a.2.2,0,0,1,.012-.031l-.018-.228c.053-.179-.053-.356-.025-.535l0-.013c-.02-.038-.051-.073-.02-.119l-.023-.161a3.848,3.848,0,0,0-.183-.685,3.2,3.2,0,0,0-.327-.629,1.471,1.471,0,0,1-.249-.4.246.246,0,0,1-.122-.187c-.216-.278-.426-.556-.657-.823-.067-.156-.218-.23-.339-.333a.343.343,0,0,0-.034.045c0-.01-.008-.019-.009-.029a1.367,1.367,0,0,0-.48-.411,2.923,2.923,0,0,1-.545-.331l-.224-.107a.805.805,0,0,0-.368-.156,1.927,1.927,0,0,1-.381-.129.084.084,0,0,1-.107-.019c-.086,0-.17-.006-.254-.013s-.169,0-.252-.006c-.168-.011-.334-.034-.5-.042a1.283,1.283,0,0,1-.482.033.246.246,0,0,0-.213.027c-.03,0-.06,0-.091,0a2.484,2.484,0,0,1-.5.109,1.219,1.219,0,0,1-.38.14,4.181,4.181,0,0,0-1.523,1,.182.182,0,0,0-.1.152l0,0a.481.481,0,0,0-.165.186.094.094,0,0,0-.051.006,1.446,1.446,0,0,0-.185.236c0,.013,0,.025,0,.039-.073.017-.1.086-.148.137-.019.016-.011.043-.009.067l-.034.046s0,0-.006,0l-.005.006c-.02,0-.041-.005-.061-.007a5.4,5.4,0,0,0-.331.549.052.052,0,0,0,.019.062s0,.007-.007.009a.739.739,0,0,0-.079.05.037.037,0,0,1-.027.047.63.63,0,0,1-.161.362.072.072,0,0,1-.04.1.842.842,0,0,1-.146.4h0a.284.284,0,0,1-.073.227.051.051,0,0,1-.031.06.134.134,0,0,0-.05.164.094.094,0,0,1,0,.083c.015.039,0,.086.031.122,0,0,0,.006.006.009a.081.081,0,0,0-.012.045l.011,0-.009.006s0-.006,0-.009c-.025.029-.066.056-.074.089-.06.223-.074.454-.111.68-.021.211-.027.424-.038.636l-.005.01a.6.6,0,0,0-.056.16.239.239,0,0,1,.01.2c.015.043.037.085,0,.128a.073.073,0,0,1-.007.081.226.226,0,0,0,.037.258.228.228,0,0,1,.017.175,1.206,1.206,0,0,0,.131.685,1.03,1.03,0,0,1,.126.4l.067.083h0a.039.039,0,0,0-.027.048.038.038,0,0,1,.008.06c.02.372.285.666.375,1.019l.019.011,0,.022a.161.161,0,0,0,.095.052l.005.008c-.028.007-.042.027-.028.072a2.537,2.537,0,0,1,.253.43,3.134,3.134,0,0,0,.654.813.4.4,0,0,0,.051-.011l-.007.01c.033.03.065.06.1.089a.381.381,0,0,0,.056.11,3.345,3.345,0,0,0,.984.677l.265.136c.09.042.185.074.277.112.284.06.55.179.833.238a.883.883,0,0,1,.19.007.5.5,0,0,0,.063.012.783.783,0,0,1,.159.053,1.247,1.247,0,0,0,.559,0,.347.347,0,0,1,.279-.017c.029.04.053.039.072,0a.272.272,0,0,1,.025.034,1.092,1.092,0,0,0,.3-.016.222.222,0,0,1,.057-.049,3.2,3.2,0,0,0,1.812-.652.045.045,0,0,1,.054-.041c.077-.144.271-.172.338-.322v0c.014,0,.027.007.042.013a.465.465,0,0,0,.18-.165c0-.007,0-.012,0-.019.116-.023.178-.132.27-.193.044-.072.093-.139.141-.207.082-.085.165-.171.243-.26v-.083l0,0s0,.007.007.014.028.006.049-.014l.072-.1-.024-.051c.02-.014.04-.028.059-.043a.851.851,0,0,0,.225-.383.03.03,0,0,1,.014-.048.259.259,0,0,1,.087-.137.1.1,0,0,1,.056-.089,1.3,1.3,0,0,1,.17-.4,1.169,1.169,0,0,0,.146-.407l.029-.082a.066.066,0,0,0,.032-.075c.06-.208.123-.414.172-.624a.055.055,0,0,0-.047-.063.119.119,0,0,0,.011-.1l.035-.2c.018-.029.037-.058.054-.088a.188.188,0,0,0,.005-.107A.241.241,0,0,0,354.835,1095.183Zm-6.785,4.5c-.005,0-.005.008-.009.012l0-.009Zm-1.329-.615.01,0,0,.007Zm1.3.642c0,.007.008.013.012.021h0l-.011,0A.063.063,0,0,1,348.016,1099.713Z" transform="translate(-313.957 -1088.374)" fill="#9d763a"/></g><path d="M173.621,1142.549a.252.252,0,0,1-.043-.191c-.229-.565-.428-1.129-.683-1.683-.085-.12-.161-.243-.232-.368a2.421,2.421,0,0,1-.21-.379.651.651,0,0,0-.22-.32c-.028-.043-.052-.089-.084-.13-.093-.121-.2-.235-.3-.352a2.527,2.527,0,0,1-.3-.344,3.472,3.472,0,0,1-.277-.236c-.092-.079-.179-.162-.268-.244a6.026,6.026,0,0,0-3-1.327.547.547,0,0,0-.321,0l0,0a1.267,1.267,0,0,0-.452-.028.156.156,0,0,0-.07-.032,5.2,5.2,0,0,0-.546.011l-.046.03a.883.883,0,0,0-.365.01.2.2,0,0,0-.1.045l-.1.01h-.026c-.019-.016-.04-.032-.062-.048-.193.028-.38.083-.57.123a4,4,0,0,0-.558.165c-.052.025-.075.049-.072.072l-.011,0q-.075,0-.154,0a.112.112,0,0,1-.094.03,1.868,1.868,0,0,1-.654.3.243.243,0,0,1-.168.087,2.624,2.624,0,0,1-.662.393h0a.909.909,0,0,1-.355.247.148.148,0,0,1-.1.06.384.384,0,0,0-.246.188.293.293,0,0,1-.1.106c-.033.058-.1.115-.118.173,0,.007,0,.009-.005.015a.27.27,0,0,0-.066.053l.006.01-.014,0,.008-.012a.523.523,0,0,0-.173.084,9.469,9.469,0,0,0-1.511,1.828c-.01.009-.021.02-.031.028a2.421,2.421,0,0,0-.194.222.762.762,0,0,1-.176.313.422.422,0,0,1-.113.2.213.213,0,0,1-.07.126.9.9,0,0,0-.15.263,2.593,2.593,0,0,0-.7-.232,7.126,7.126,0,0,1-.774-.144c-.064,0-.127.013-.189.022,0-.018-.027-.032-.076-.041a.113.113,0,0,1-.113-.012,2.436,2.436,0,0,0-1.033.071,10.03,10.03,0,0,0-.988.345l-.026.026-.038.005a.359.359,0,0,0-.119.143l0,0c0-.035-.04-.032-.122.011a2.092,2.092,0,0,0-.382.288c-.125.1-.236.212-.362.309a3.842,3.842,0,0,0-1.019,1.67.524.524,0,0,0,.025.063h-.015c-.023.08-.042.161-.061.242a1.275,1.275,0,0,0-.1.193,4.678,4.678,0,0,0-.018,2.177,4.264,4.264,0,0,0,.126.524,4.031,4.031,0,0,0,.172.509c.043.081.082.164.119.248.116.385.208.75.351,1.11a3.166,3.166,0,0,1,.14.3c.009.027.019.053.029.078a2.491,2.491,0,0,1,.094.292,3.323,3.323,0,0,0,.449.854l0,0a1,1,0,0,1,.244.425c-.012.061.008.1.059.11a.37.37,0,0,1-.011.053,2.812,2.812,0,0,0,.275.453.542.542,0,0,1,.1.077,6.05,6.05,0,0,0,2.159,2.178,2.08,2.08,0,0,0-.194.563l0,0a.5.5,0,0,1-.049.029,1.664,1.664,0,0,0-.146.4c0,.009,0,.019,0,.028a2.324,2.324,0,0,0-.24.521c-.037.145-.078.289-.119.433-.072.187-.144.374-.214.563l.009.122,0,0a.039.039,0,0,0-.012-.01c-.015-.007-.033.013-.053.058l-.068.211.032.06c-.021.036-.041.073-.06.109a3.136,3.136,0,0,0-.224.753.072.072,0,0,1-.013.084.8.8,0,0,1-.091.274.262.262,0,0,1-.063.178c-.068.51-.326.99-.385,1.5l-.038.153a.2.2,0,0,0-.041.141c-.084.38-.184.756-.253,1.14-.007.064.007.1.039.1a.375.375,0,0,0-.026.175c-.021.121-.043.241-.062.362-.023.058-.046.117-.066.176a.8.8,0,0,0-.017.193.772.772,0,0,0-.057.379,7.523,7.523,0,0,1-.074.886c0,.042.018.061.035.069,0,.026,0,.053,0,.08-.01.208-.014.412-.008.606l.13-.07a.107.107,0,0,0,.072.058l.018-.019.015.024c.057-.016.072-.092.088-.166l16.255-8.748a.157.157,0,0,0,.1-.01h0a.266.266,0,0,0-.017-.037l.113-.06a2.485,2.485,0,0,1-.563-.859.45.45,0,0,1-.006-.055,3.239,3.239,0,0,1-.111-.4,4.507,4.507,0,0,1-.042-.955v-.024a.3.3,0,0,1,.009-.215l.031-.286a19.932,19.932,0,0,1,.554-2.456,2.839,2.839,0,0,1,.278-.8.741.741,0,0,1,.154-.373,9.887,9.887,0,0,1,.725-1.487l0,0,0-.006.09-.227a2.751,2.751,0,0,0,.28-.818.193.193,0,0,0-.055-.01c.009-.014.018-.029.027-.042a2.78,2.78,0,0,0,.182-.542c.034-.189.058-.381.082-.573s.019-.386.039-.577.041-.382.056-.572l0-.449A9.083,9.083,0,0,0,173.621,1142.549Zm-19.637,5.311.007.006-.011,0Zm-.366-2.6-.008,0c0-.005,0-.01,0-.016Zm.327,2.583c0,.01,0,.019,0,.028l0,.01-.01-.009A.064.064,0,0,1,153.946,1147.845Z" transform="translate(-142.873 -1085.046)" fill="#f4c443"/><path d="M390.2,1134.365c.012-.008.019-.027.02-.064v-.005a2.31,2.31,0,0,0-.241-.9l-.047-.148c-.072-.14-.118-.3-.177-.448l-.067-.19-.073-.082a.682.682,0,0,0-.028-.229c-.018-.055-.036-.11-.057-.165l-.062-.156c-.011-.025-.022-.049-.034-.073a.684.684,0,0,0-.067-.2.186.186,0,0,0,.006-.091l-.033-.157a.568.568,0,0,1-.094-.251.175.175,0,0,0-.058-.139l-.065-.141a.132.132,0,0,0-.065-.122.279.279,0,0,1-.088-.185l-.035-.049-.009-.056a1.528,1.528,0,0,0-.253-.555l-.039-.033-.02-.056a1.99,1.99,0,0,1-.323-.644l-.033-.036,0-.044a.133.133,0,0,0-.07-.137l-.039-.04-.014-.055a.78.78,0,0,0-.16-.165,2.6,2.6,0,0,0-.281-.585.292.292,0,0,0-.085-.019l-.006-.029a6.742,6.742,0,0,0-.965-1.717l-.036-.026-.012-.047a.143.143,0,0,0-.065-.053c-.017-.027-.035-.053-.051-.081a2.982,2.982,0,0,0-.452-.656l-.038-.027-.017-.049c-.062-.081-.121-.166-.181-.249.072-.063.143-.128.216-.19.146-.121.27-.262.413-.389l0-.031.034-.028a.9.9,0,0,0,.219-.27l.019-.038.031-.012a1.438,1.438,0,0,1,.19-.3.85.85,0,0,0,.14-.316v-.009c0,.013,0,.023,0,.038a5.106,5.106,0,0,0,.7-1.417.125.125,0,0,0,.058-.13l.06-.142a1.046,1.046,0,0,0,.2-.58l.053-.147a3.287,3.287,0,0,0,.156-.32l.008-.059.03-.045c.049-.192.175-.376.128-.582a.41.41,0,0,1,.037-.2l-.008.019a1.747,1.747,0,0,0,.158-1.036v.008c.021-.093.039-.183.054-.285l-.009.056a3.653,3.653,0,0,0,.13-1.784l.005.013c-.058-.152-.045-.351-.115-.5a.053.053,0,0,0-.015,0,2.257,2.257,0,0,0-.06-.294,3.147,3.147,0,0,0-.464-1.234.889.889,0,0,0-.052-.186,4.151,4.151,0,0,0-.593-.8l-.024-.023,0-.051-.288-.268c-.012,0-.03,0-.044,0a4.294,4.294,0,0,0-.581-.4c-.022-.014-.045-.024-.067-.037a.1.1,0,0,0-.044-.068,1.37,1.37,0,0,1-.413-.195,1.084,1.084,0,0,0-.625-.177c-.054-.012-.108-.02-.163-.027a.17.17,0,0,0-.161-.018l-.046.016-.054-.016a.176.176,0,0,0-.09.026,2.111,2.111,0,0,0-.435.007.96.96,0,0,0-.111.019.551.551,0,0,0-.383.073.955.955,0,0,1-.31.066.136.136,0,0,0-.137.047,3.181,3.181,0,0,1-.356.178.8.8,0,0,0-.165.025l-.011,0a.429.429,0,0,0-.106.086c-.03.079-.115.049-.165.086a1.176,1.176,0,0,0-.208.139,1.379,1.379,0,0,1-.3.192.953.953,0,0,0-.083.065.331.331,0,0,0-.126-.085.294.294,0,0,0-.013-.063.748.748,0,0,0-.088-.163l-.011-.013-.016-.054-.039-.01-.052-.061a.425.425,0,0,1-.122-.141.038.038,0,0,0,.032.009c.018,0,.012-.031-.018-.083l.008.017a.488.488,0,0,0-.268-.36l-.094-.12-.066-.041c-.028-.045-.056-.09-.087-.133a.525.525,0,0,0-.09-.079s0-.01-.006-.013c-.069-.073-.136-.147-.2-.222-.137-.2-.384-.359-.5-.552a4.485,4.485,0,0,1-.361-.365.663.663,0,0,1-.289-.213c-.067-.031-.138-.078-.187-.055v0a.511.511,0,0,1-.026-.084,1.836,1.836,0,0,0-.388-.327,1.436,1.436,0,0,0-.467-.215h0c-.291-.11-.564-.257-.86-.351l-.436-.162-.449-.124c-.049-.011-.1-.02-.143-.027.016-.024-.009-.045-.079-.064l-.026-.007a2.07,2.07,0,0,0-.5-.025h0a.071.071,0,0,0,.005-.01c.007-.02-.016-.041-.068-.063l-.061,0-.047-.028a1.846,1.846,0,0,0-.465-.085,1.387,1.387,0,0,0-.47.031l-.155,0a.637.637,0,0,0-.47.02l-.052.025-.06,0a.562.562,0,0,1-.266.041h-.01c-.12.041-.242.061-.362.1a1.743,1.743,0,0,1-.371.061l-.052.025-.054,0a1.309,1.309,0,0,0-.553.148c-.091.038-.181.077-.272.109a2.168,2.168,0,0,1-.268.1l-.029.03-.04.005a3.585,3.585,0,0,1-.48.309,1.667,1.667,0,0,0-.438.357l0,0a10.771,10.771,0,0,0-1.686,1.883,3.578,3.578,0,0,1-.3.508,3.238,3.238,0,0,0-.274.476,2.643,2.643,0,0,0-.146.528.584.584,0,0,1-.079.255.24.24,0,0,0,.027.124,3.714,3.714,0,0,0-.226.932c-.019.17-.055.338-.066.508a4.521,4.521,0,0,1-.068.505l0,.063-.024.05a7.275,7.275,0,0,0,.941,4.009.5.5,0,0,0,.08.255l.215.4,0,.008.017.021a16.619,16.619,0,0,1,2.152,3.674,7.223,7.223,0,0,1,.451,1.636,4.343,4.343,0,0,1,.03.825,2.9,2.9,0,0,1-.173.782c-.038.082-.109.178-.159.266a.222.222,0,0,0-.012.27h0c.082-.043.148-.153.225-.217l-.008.009c.187-.138.217-.425.313-.635a2.477,2.477,0,0,1-.42.925l17.977,6.305c-.015-.121-.034-.244-.057-.369a.4.4,0,0,0,.043.085v0c.066.1.119.245.211.25l.014-.022.02.025c.085-.036.035-.217.066-.312h0A1.019,1.019,0,0,0,390.2,1134.365Zm-1.814-18.29a.145.145,0,0,0-.026.04l0,0A.062.062,0,0,1,388.382,1116.075Z" transform="translate(-302.105 -1064.664)" fill="#f4c443"/><path d="M153.055,1163.3a.777.777,0,0,1-.778-.753c-.005-.167,0-.349,0-.555a.935.935,0,0,1-.027-.152.783.783,0,0,1,0-.174,7.105,7.105,0,0,0,.067-.778,1.655,1.655,0,0,1,.062-.54,1.532,1.532,0,0,1,.029-.2.77.77,0,0,1,.022-.081c.016-.047.033-.095.051-.142.012-.072.024-.144.037-.216,0-.006,0-.012,0-.018a.99.99,0,0,1-.007-.284c0-.017,0-.034.007-.051.049-.273.111-.537.172-.792.024-.1.048-.2.071-.3a.972.972,0,0,1,.087-.334l0-.01a4.933,4.933,0,0,1,.221-.866,3.624,3.624,0,0,0,.159-.6,3.95,3.95,0,0,1,.15-.445q0-.035.013-.071a2.4,2.4,0,0,1,.187-.712c.022-.057.045-.113.063-.17a.783.783,0,0,1,.037-.2l.068-.211a.742.742,0,0,1,.033-.085l0-.008a.848.848,0,0,1,.033-.115c.06-.16.121-.32.183-.48l.022-.057c.038-.133.073-.255.1-.375a.772.772,0,0,1,.05-.141c.018-.038.032-.079.046-.12a2.323,2.323,0,0,1,.158-.361,2.542,2.542,0,0,1,.164-.43,6.823,6.823,0,0,1-1.793-1.955.788.788,0,0,1-.151-.17l-.059-.087a2.73,2.73,0,0,1-.285-.494l-.008-.019a.86.86,0,0,1-.094-.286.251.251,0,0,0-.011-.023l-.023-.023a2.516,2.516,0,0,1-.481-.817c-.031-.076-.062-.152-.1-.224a.772.772,0,0,1-.06-.163,1.9,1.9,0,0,0-.067-.2c-.008-.018-.018-.046-.029-.077-.029-.07-.061-.139-.1-.207a.746.746,0,0,1-.038-.082c-.121-.3-.207-.6-.291-.893-.022-.076-.044-.153-.067-.231-.025-.054-.051-.107-.078-.16-.009-.019-.018-.037-.026-.056a4.63,4.63,0,0,1-.2-.589,4.969,4.969,0,0,1-.139-.575,5.378,5.378,0,0,1,.016-2.514.806.806,0,0,1,.041-.131q.039-.1.086-.186l0-.015a.777.777,0,0,1,.041-.252,4.524,4.524,0,0,1,1.239-2l.042-.034c.052-.04.1-.083.148-.127s.123-.109.187-.161a2.719,2.719,0,0,1,.514-.378c.025-.013.05-.025.074-.036a1.11,1.11,0,0,1,.088-.069.742.742,0,0,1,.139-.079.75.75,0,0,1,.108-.05l.238-.09a7.2,7.2,0,0,1,.827-.278,3.176,3.176,0,0,1,1.361-.084h.008a.9.9,0,0,1,.109.012l.05.01h.011a.8.8,0,0,1,.262.023,6.185,6.185,0,0,0,.676.124l.032.005c.073.013.146.027.218.045a.8.8,0,0,1,.116-.166.771.771,0,0,1,.133-.262,3.179,3.179,0,0,1,.234-.269,10.274,10.274,0,0,1,1.573-1.888.951.951,0,0,1,.235-.168l.015-.017-.009.015h0a.782.782,0,0,1,.155-.183,1.156,1.156,0,0,1,.552-.426.837.837,0,0,1,.146-.071c.017-.014.034-.031.05-.046a.8.8,0,0,1,.235-.172l.03-.014a1.946,1.946,0,0,0,.446-.255.77.77,0,0,1,.248-.15.761.761,0,0,1,.235-.109,1.111,1.111,0,0,0,.39-.167.777.777,0,0,1,.278-.133.747.747,0,0,1,.162-.044l.023-.012a.812.812,0,0,1,.078-.031,4.617,4.617,0,0,1,.667-.2c.045-.01.1-.024.163-.038.133-.032.283-.068.446-.091a.764.764,0,0,1,.237,0,.886.886,0,0,1,.111-.014l.045-.006a1.869,1.869,0,0,1,.282-.023.689.689,0,0,1,.083-.01c.2-.014.408-.018.626-.012a.783.783,0,0,1,.165.022l.006,0a1.9,1.9,0,0,1,.338.022,1.362,1.362,0,0,1,.468.029,6.787,6.787,0,0,1,3.358,1.506l.075.07c.06.056.12.112.182.165.038.032.078.068.118.106s.073.067.091.08a.767.767,0,0,1,.205.2,1.8,1.8,0,0,0,.193.215l.022.022c.013.013.025.026.038.041l.082.094c.083.1.166.191.242.29.022.029.043.059.062.089a1.494,1.494,0,0,1,.343.537,1.656,1.656,0,0,0,.137.242c.011.017.022.034.032.051a3.535,3.535,0,0,0,.19.3.776.776,0,0,1,.071.124c.18.392.332.785.48,1.165.071.183.142.367.217.55a6.9,6.9,0,0,1,.1.429,4.461,4.461,0,0,0,.071.472,3.987,3.987,0,0,1,.1,1.04l0,.414c0,.023,0,.047,0,.07-.008.1-.018.194-.029.291s-.02.184-.027.275-.01.146-.012.208a3.209,3.209,0,0,1-.033.423c-.025.2-.051.4-.086.6a3.1,3.1,0,0,1-.142.488.805.805,0,0,1-.013.115,3.565,3.565,0,0,1-.338,1l-.073.185a.911.911,0,0,1-.055.114,9.123,9.123,0,0,0-.672,1.376.79.79,0,0,1-.106.19.72.72,0,0,1-.1.3,2.23,2.23,0,0,0-.191.584c0,.009-.005.022-.008.03a19.321,19.321,0,0,0-.532,2.347l-.029.272c0,.02,0,.038-.008.057s0,.042,0,.063a1.012,1.012,0,0,1-.018.2,1.391,1.391,0,0,0,.022.321c.015.111.031.235.037.368a1.889,1.889,0,0,0,.063.224.787.787,0,0,1,.034.119,1.638,1.638,0,0,0,.351.513.9.9,0,0,1-.334,1.369.691.691,0,0,1-.095.034.945.945,0,0,1-.459.024.778.778,0,0,1-.628-.838,3.472,3.472,0,0,1-.312-.6.772.772,0,0,1-.046-.166c-.044-.132-.073-.258-.1-.371l-.007-.029a.771.771,0,0,1-.02-.181,2.269,2.269,0,0,0-.026-.26,2.692,2.692,0,0,1-.025-.711,1.018,1.018,0,0,1,.031-.407l.019-.184c0-.009,0-.018,0-.027a20.551,20.551,0,0,1,.573-2.552,3.743,3.743,0,0,1,.285-.857,1.508,1.508,0,0,1,.206-.48,10.664,10.664,0,0,1,.718-1.466l.069-.176a.771.771,0,0,1,.043-.09,1.669,1.669,0,0,0,.137-.336.776.776,0,0,1,.1-.518,1.9,1.9,0,0,0,.112-.335c.029-.16.051-.338.073-.516l.005-.036a1.819,1.819,0,0,0,.015-.229c0-.1.007-.2.017-.3s.018-.2.029-.305c.008-.072.016-.144.022-.216l0-.412c0-.026,0-.052,0-.078a2.644,2.644,0,0,0-.072-.659c-.029-.159-.06-.322-.079-.494a1.025,1.025,0,0,1-.056-.24c-.058-.146-.115-.292-.172-.438-.137-.353-.267-.688-.416-1.018-.075-.111-.148-.226-.216-.346a3.154,3.154,0,0,1-.26-.475l-.014-.034,0-.012a.781.781,0,0,1-.144-.167l-.052-.084c-.05-.065-.112-.135-.173-.2l-.076-.087a3.733,3.733,0,0,1-.288-.317c-.058-.047-.107-.092-.15-.131-.023-.021-.046-.042-.069-.062-.084-.072-.161-.143-.239-.215l-.057-.053a5.254,5.254,0,0,0-2.6-1.131l-.02,0a.775.775,0,0,1-.408-.018.729.729,0,0,0-.144,0,.776.776,0,0,1-.3-.031c-.062,0-.122,0-.18,0a.758.758,0,0,1-.393.028l-.012,0h0a.772.772,0,0,1-.238.062l-.1.01a.751.751,0,0,1-.133,0H163.7a.789.789,0,0,1-.113-.014l-.1.023c-.072.018-.145.035-.217.051a2.577,2.577,0,0,0-.307.085.778.778,0,0,1-.316.151c-.027.006-.055.011-.081.015l-.06.005a2.606,2.606,0,0,1-.58.258,1.052,1.052,0,0,1-.157.082,3.331,3.331,0,0,1-.588.342,1.553,1.553,0,0,1-.4.275.926.926,0,0,1-.169.091.979.979,0,0,1-.117.125.991.991,0,0,1-.5.446,8.889,8.889,0,0,0-1.29,1.589.772.772,0,0,1-.141.163l-.006.005c-.015.015-.03.031-.046.05a1.5,1.5,0,0,1-.181.317,1.152,1.152,0,0,1-.112.2.968.968,0,0,1-.161.237l-.007.013a.776.776,0,0,1-1.075.438,1.817,1.817,0,0,0-.491-.164c-.222-.033-.452-.067-.695-.122l-.031,0a.778.778,0,0,1-.342-.031.865.865,0,0,1-.169-.038,1.812,1.812,0,0,0-.62.069,5.79,5.79,0,0,0-.658.224l-.116.044a.794.794,0,0,1-.15.137l-.016.011a.781.781,0,0,1-.283.116c-.045.036-.094.079-.137.117-.011.01-.022.019-.033.027-.047.038-.092.079-.137.119-.068.061-.137.122-.21.179a2.878,2.878,0,0,0-.715,1.137.775.775,0,0,1-.077.336c0,.007,0,.014,0,.021a.776.776,0,0,1-.214.931,3.282,3.282,0,0,0,.079,1.122c0,.018.009.035.012.053l.015.075.042.016a.785.785,0,0,1,.365,1.19l.064.22c.072.251.141.489.227.712.054.1.1.21.151.326.006.016.012.032.018.048l.013.034c.036.094.074.2.106.313.038.082.073.165.108.25a1.6,1.6,0,0,0,.163.331,1.726,1.726,0,0,1,.4.666.779.779,0,0,1,.105.269c.021.033.046.069.071.107.023.02.046.04.068.062a.783.783,0,0,1,.13.167,5.3,5.3,0,0,0,1.878,1.9.778.778,0,0,1,.338.942c-.027.072-.059.145-.091.217-.02.044-.046.1-.056.133a.78.78,0,0,1-.186.453l-.008.02a.779.779,0,0,1-.163.407c-.012.025-.032.08-.047.121-.021.058-.043.117-.067.173-.033.126-.069.252-.1.377-.006.022-.018.058-.026.079l-.034.089-.119.312a.785.785,0,0,1-.056.294c-.008.02-.018.043-.028.062s-.015.029-.023.043a.782.782,0,0,1-.1.318l-.015.026c-.025.072-.052.145-.08.216s-.061.157-.076.216a.845.845,0,0,1-.053.34,1.589,1.589,0,0,1-.079.249,1.011,1.011,0,0,1-.076.229,5.731,5.731,0,0,1-.194.706,3.388,3.388,0,0,0-.162.619.786.786,0,0,1-.018.1l-.038.153a.79.79,0,0,1-.031.1l0,.023c-.029.134-.061.267-.092.4-.043.18-.083.352-.119.522a.78.78,0,0,1-.011.352.805.805,0,0,1-.012.111c-.02.116-.041.232-.06.348a.749.749,0,0,1-.043.158l-.014.038-.015.038a.8.8,0,0,1-.06.31c0,.017,0,.035,0,.053s0,.027,0,.04a7.678,7.678,0,0,1-.056.781c0,.014.006.029.008.044a.777.777,0,0,1,.306.793.9.9,0,0,1-.627.751.773.773,0,0,1-.315.026A.8.8,0,0,1,153.055,1163.3Zm.342-2.166h0Zm.457-.283h0Zm-.393-2.022h0Zm0,0h0Zm0,0h0Zm.053-2.4h0Zm2.214-2.735h0Zm14.314-1.115h0Zm0,0ZM152.1,1142.016Zm2.782-2.476a.759.759,0,0,0,.084.289A.766.766,0,0,1,154.885,1139.539Zm0,0h0Zm14.6-1.594Zm-9.287-.559h0Zm-.059-.007h0Zm-.784-1.335h0Zm.43-.365h0Zm4.2-.156h0Zm.334-.1-.008,0Zm-1.069-.416h0Zm0,0h0Zm0,0h0Zm.505-.209h0Z" transform="translate(-140.647 -1082.824)" fill="#fff"/><path d="M387.694,1133.672a.778.778,0,0,1-.771-.682c-.014-.108-.031-.218-.051-.33a.778.778,0,0,1,.313-.768,1.345,1.345,0,0,0-.123-.359.825.825,0,0,1-.052-.125l-.029-.092a3.5,3.5,0,0,1-.13-.327c-.015-.042-.03-.085-.047-.126l-.01-.026-.017-.049a.779.779,0,0,1-.167-.5c-.008-.027-.02-.061-.033-.1l-.068-.165a.839.839,0,0,1-.066-.2.828.828,0,0,1-.079-.343,1.319,1.319,0,0,1-.1-.295l-.011-.023-.061-.133a1.021,1.021,0,0,1-.175-.332.785.785,0,0,1-.078-.238l-.009-.057c0-.007,0-.014,0-.02-.014-.027-.032-.052-.048-.078s-.04-.065-.059-.1a.789.789,0,0,1-.121-.188,2.7,2.7,0,0,1-.33-.651.773.773,0,0,1-.077-.168.74.74,0,0,1-.061-.1.776.776,0,0,1-.246-.424,1.19,1.19,0,0,0-.076-.146.773.773,0,0,1-.284-.433,5.9,5.9,0,0,0-.781-1.387,3.081,3.081,0,0,1-.207-.255l-.049-.076c-.058-.086-.111-.178-.163-.27a1.657,1.657,0,0,0-.124-.2h0a.775.775,0,0,1-.25-.3l-.076-.105-.048-.067a.778.778,0,0,1,.117-1.04l.068-.061c.054-.048.108-.1.164-.143s.123-.113.182-.171l.083-.082a.776.776,0,0,1,.15-.167l.034-.028.016-.013s0-.007.017-.032l.007-.013a.77.77,0,0,1,.107-.16,2.507,2.507,0,0,1,.149-.219l.018-.024c.007-.011.014-.022.021-.034a.775.775,0,0,1,.255-.44,5.316,5.316,0,0,0,.475-1.058.726.726,0,0,1,.051-.112c.006-.018.013-.036.02-.053l.06-.143a.774.774,0,0,1,.083-.148.266.266,0,0,0,.052-.153.759.759,0,0,1,.046-.24l.053-.147a.771.771,0,0,1,.087-.171l.016-.039c.01-.026.022-.055.037-.087a.787.787,0,0,1,.073-.19c.014-.041.03-.083.045-.124.007-.018.014-.035.021-.053a1.136,1.136,0,0,1,.056-.479.839.839,0,0,1,.037-.1l0-.009a.964.964,0,0,0,.1-.578h0a.778.778,0,0,1,.016-.317c.013-.06.024-.118.034-.181l0-.027a.786.786,0,0,1,.063-.208,2.839,2.839,0,0,0,.068-1.222,2.115,2.115,0,0,1-.056-.288c0-.009,0-.017,0-.026a.649.649,0,0,0-.29-.375c-.008-.014-.019-.033-.026-.048a.777.777,0,0,1-.018-.656c.007-.018.016-.035.024-.052a3.722,3.722,0,0,0-.187-.35.782.782,0,0,1-.1-.274,3.337,3.337,0,0,0-.388-.508l-.057-.067-.019-.019a.788.788,0,0,1-.11-.147l-.009-.009a.882.882,0,0,1-.125-.079l-.029-.022a3.545,3.545,0,0,0-.446-.307l-.038-.022-.057-.031a.743.743,0,0,1-.111-.078,1.867,1.867,0,0,1-.379-.2.3.3,0,0,0-.147-.053.769.769,0,0,1-.229-.018c-.03-.007-.06-.01-.091-.014h-.006a30.388,30.388,0,0,0-.28.015,1.67,1.67,0,0,0-.277,0l-.036,0-.021,0a.876.876,0,0,1-.221.016.841.841,0,0,1-.079.033,1.924,1.924,0,0,1-.379.1,1.753,1.753,0,0,1-.232.107c-.018.007-.037.014-.054.022a.656.656,0,0,1-.211.089.9.9,0,0,1-.319.162l0,0a1.729,1.729,0,0,1-.378.255l-.024.015a.928.928,0,0,1-1.374-.467l-.01-.011-.023-.027a1.031,1.031,0,0,1-.285-.4.808.808,0,0,1-.036-.119.751.751,0,0,1-.1-.1l-.015-.018a.789.789,0,0,1-.195-.214l-.018-.029a.982.982,0,0,1-.107-.11c-.061-.065-.118-.128-.175-.192a.74.74,0,0,1-.063-.079,1.625,1.625,0,0,0-.143-.146,2.567,2.567,0,0,1-.316-.342c-.077-.072-.159-.15-.24-.235a1.376,1.376,0,0,1-.218-.154.778.778,0,0,1-.485-.4c-.04-.032-.091-.068-.143-.1a.976.976,0,0,0-.2-.1.815.815,0,0,1-.159-.051c-.12-.047-.237-.1-.355-.15a4.426,4.426,0,0,0-.423-.171l-.035-.012-.4-.15-.4-.11-.076-.014a.776.776,0,0,1-.242-.081l-.052-.007-.054-.008a.791.791,0,0,1-.6-.144l-.017-.008a1.915,1.915,0,0,0-.206-.027,1.115,1.115,0,0,0-.194,0,.8.8,0,0,1-.207.032l-.155,0a.769.769,0,0,1-.213-.025.788.788,0,0,1-.256.068,1.279,1.279,0,0,1-.288.04l-.149.038c-.038.009-.075.017-.112.028a2.643,2.643,0,0,1-.4.078.777.777,0,0,1-.3.036l-.023,0c-.035.01-.1.038-.154.059l-.083.034c-.107.045-.2.085-.3.12l-.048.019-.119.047-.047.025a2.5,2.5,0,0,1-.291.18,1.344,1.344,0,0,0-.123.072l-.03.02a1.7,1.7,0,0,0-.234.168c-.012.015-.024.03-.037.045a.807.807,0,0,1-.066.066,9.993,9.993,0,0,0-1.526,1.69,4.36,4.36,0,0,1-.33.557,2.447,2.447,0,0,0-.2.35,1.872,1.872,0,0,0-.086.316,1.23,1.23,0,0,1-.048.24.779.779,0,0,1-.047.307,2.91,2.91,0,0,0-.181.735c-.01.092-.022.172-.035.252s-.025.153-.029.23c-.016.192-.036.355-.062.505a.781.781,0,0,1-.029.225,6.481,6.481,0,0,0,.836,3.451.79.79,0,0,1,.1.3l.187.352a17.177,17.177,0,0,1,2.232,3.823,8.013,8.013,0,0,1,.5,1.817,5.271,5.271,0,0,1,.041.91.776.776,0,0,1,.161.678,3.262,3.262,0,0,1-.553,1.212.778.778,0,0,1-1.088.16c-.018-.014-.036-.028-.052-.043a.791.791,0,0,1-.184-.158.776.776,0,0,1-.09-.13.99.99,0,0,1,.029-1.05c.023-.04.049-.08.075-.121.013-.02.027-.039.038-.059a2.178,2.178,0,0,0,.11-.536,3.619,3.619,0,0,0-.028-.656,6.448,6.448,0,0,0-.4-1.446,15.723,15.723,0,0,0-2.053-3.5l-.016-.022a.781.781,0,0,1-.063-.1l-.22-.414a1.65,1.65,0,0,1-.144-.363,8.145,8.145,0,0,1-.967-4.3.776.776,0,0,1,.022-.154.734.734,0,0,1,.011-.077,3.571,3.571,0,0,0,.055-.418c.007-.108.024-.232.044-.356.009-.058.018-.115.024-.173a4.189,4.189,0,0,1,.2-.905q0-.041,0-.082a.767.767,0,0,1,.086-.339c0-.016,0-.031.007-.047a3.393,3.393,0,0,1,.193-.681l.013-.029a3.969,3.969,0,0,1,.34-.59,2.72,2.72,0,0,0,.229-.391.779.779,0,0,1,.062-.11,11.315,11.315,0,0,1,1.762-1.98,2.449,2.449,0,0,1,.569-.463,2.855,2.855,0,0,1,.253-.152c.043-.024.1-.056.119-.07a.737.737,0,0,1,.233-.156.776.776,0,0,1,.2-.078c.019-.006.042-.017.067-.026s.068-.028.1-.041c.081-.028.149-.058.218-.087l.036-.015.067-.027a1.9,1.9,0,0,1,.7-.177.742.742,0,0,1,.137-.019.949.949,0,0,0,.206-.034c.049-.014.112-.03.176-.045a1.294,1.294,0,0,0,.137-.036.789.789,0,0,1,.253-.042h.027a.727.727,0,0,1,.138-.033,1.41,1.41,0,0,1,.765-.057,2.3,2.3,0,0,1,.567-.028l.057,0a2.522,2.522,0,0,1,.656.128.793.793,0,0,1,.145.045l.016.006c.062.006.118.015.166.022.027,0,.054.01.08.011a.737.737,0,0,1,.2.027l.026.007a1.032,1.032,0,0,1,.24.1l.435.12c.022.006.043.013.064.021l.42.156a5.951,5.951,0,0,1,.562.224c.092.041.183.082.276.119a2.239,2.239,0,0,1,.641.3l.034.022a2.793,2.793,0,0,1,.47.386l0,0a.878.878,0,0,1,.267.2l.012.013a.779.779,0,0,1,.291.215,3.432,3.432,0,0,0,.266.268l.033.031a.776.776,0,0,1,.129.159c.016.021.085.088.131.131a2.763,2.763,0,0,1,.314.337c.052.058.105.115.158.172a1.149,1.149,0,0,1,.119.118.766.766,0,0,1,.05.062l.024.035a.738.738,0,0,1,.11.115l.022.029a1.283,1.283,0,0,1,.4.492c.023-.012.046-.023.068-.033a1.115,1.115,0,0,1,.188-.13.723.723,0,0,1,.088-.042.934.934,0,0,1,.09-.031c.048-.013.1-.024.145-.033s.071-.03.1-.042l.018-.007a.878.878,0,0,1,.6-.2,1.356,1.356,0,0,1,.671-.144l.033,0a2.51,2.51,0,0,1,.435-.019,1.06,1.06,0,0,1,.153-.019h.043a.945.945,0,0,1,.473.041l.011,0a1.877,1.877,0,0,1,.96.289c.023.014.045.029.067.045a.852.852,0,0,0,.185.077.779.779,0,0,1,.256.139.993.993,0,0,1,.079.073,4.542,4.542,0,0,1,.455.308.77.77,0,0,1,.237.151l.288.268a.789.789,0,0,1,.173.234,4.243,4.243,0,0,1,.614.856c.012.024.022.048.032.072.023.061.043.12.058.176a3.831,3.831,0,0,1,.5,1.371c.014.055.026.109.036.159a1.763,1.763,0,0,1,.109.441c0,.03.007.06.014.088a.763.763,0,0,1,.051.25,4.443,4.443,0,0,1-.162,1.964c0,.025-.009.051-.014.076a2.5,2.5,0,0,1-.189,1.2,1.538,1.538,0,0,1-.129.661.828.828,0,0,0-.032.089.783.783,0,0,1-.044.126.768.768,0,0,1-.075.176l-.017.042a1.959,1.959,0,0,1-.1.212,1.829,1.829,0,0,1-.263.753.9.9,0,0,1-.136.322,5.713,5.713,0,0,1-.689,1.394,2.059,2.059,0,0,1-.17.321c-.009.015-.019.029-.029.043l-.038.052a.909.909,0,0,0-.065.092.708.708,0,0,1-.161.25,1.639,1.639,0,0,1-.226.278.782.782,0,0,1-.119.133c-.03.027-.06.055-.089.084.066.1.12.193.169.28.031.055.062.111.1.162a1.009,1.009,0,0,1,.1.118.812.812,0,0,1,.048.073l0,.006a7.8,7.8,0,0,1,.979,1.677.78.78,0,0,1,.148.206c.023.045.049.09.075.135a2.794,2.794,0,0,1,.189.37c.029.033.055.065.077.092a.839.839,0,0,1,.071.1.9.9,0,0,1,.212.417c.007.017.014.036.019.053a1.228,1.228,0,0,0,.191.4.715.715,0,0,1,.067.1.788.788,0,0,1,.082.132.921.921,0,0,0,.056.1,1.676,1.676,0,0,1,.255.6l.015.036a.905.905,0,0,1,.167.325.933.933,0,0,1,.15.4.82.82,0,0,1,.085.224l.033.157c0,.013,0,.025.007.038s.007.049.009.073.019.06.027.091l0,.009c0,.008.007.017.011.026l.062.156c.03.079.054.149.076.22s.029.112.039.164a.746.746,0,0,1,.053.118l.063.178c.021.052.039.1.059.159a1.917,1.917,0,0,0,.08.2.758.758,0,0,1,.051.123l.028.089a3.1,3.1,0,0,1,.294,1.138.765.765,0,0,1,0,.107c0,.017,0,.034,0,.051a1.48,1.48,0,0,1-.007.519.88.88,0,0,1-.529.887.8.8,0,0,1-.323.061.713.713,0,0,1-.117.024A.771.771,0,0,1,387.694,1133.672Zm-.184-2.153h0Zm0,0h0Zm0,0h0Zm0,0h0Zm0,0,0,0Zm0,0h0Zm0,0h0Zm0,0h0Zm0,0h0Zm0,0h0Zm0,0h0Zm0,0h0Zm0,0h0Zm-.916-1.256h0Zm-.175-.456h0Zm-.007-.546h0Zm-.189-.292h0Zm-.3-.547Zm-.609-1.227h0Zm-1.306-2.4h0Zm-16.3-6.125h0Zm0,0h0Zm0,0h0Zm0,0h0Zm0,0h0Zm0,0h0Zm0,0h0Zm0,0h0Zm17.535-.09-.006.008Zm-5.755-6.354h0Zm-.165-.1h0Zm-13.628-.2h0Zm15.231-.108h0Zm0,0h0Zm2.96-.076h0Zm0,0,0,0Zm-1.951-.359h0Zm-.057-.079h0Zm1.258-.012h0Zm-.071-.034h0Zm.407-.164h0Zm0,0v0Zm-5.45-2.505v0Zm0,0h0Zm0,0h0Zm-7.085-.3Zm.784-1.689h0Z" transform="translate(-299.883 -1062.442)" fill="#fff"/><g transform="translate(12.708 12.904)"><path d="M170.106,1024.909l0-.009c-.021-.025-.051-.046-.023-.086-.01-.039-.024-.074-.037-.112a1.792,1.792,0,0,0-.575-.8c-.09-.065-.192-.114-.237-.224a.124.124,0,0,1-.11-.107,6.658,6.658,0,0,1-.531-.493c-.05-.109-.156-.152-.245-.215a.444.444,0,0,0-.033.046c0-.008,0-.015,0-.024-.151-.277-.491-.305-.678-.547l-.142-.094c-.122-.156-.337-.145-.472-.29a.046.046,0,0,1-.07-.027,3.67,3.67,0,0,1-.693-.182.658.658,0,0,1-.35-.03.126.126,0,0,0-.15,0c-.021,0-.041-.011-.062-.015-.121-.012-.234.058-.36.013a.621.621,0,0,1-.28.049,2.774,2.774,0,0,0-1.189.5.1.1,0,0,0-.08.1l0,0c-.066.013-.1.068-.138.115a.076.076,0,0,0-.04-.011.6.6,0,0,0-.16.141c0,.012,0,.022,0,.034-.063-.007-.088.043-.126.073-.016.008-.01.032-.009.052l-.03.027s0,0-.005,0l0,0-.054-.023a3.555,3.555,0,0,0-.3.35.047.047,0,0,0,.017.054l-.007.005a.487.487,0,0,0-.072.018c0,.019,0,.029-.025.03a.313.313,0,0,1-.149.242c.013.037,0,.058-.038.065a.4.4,0,0,1-.138.272h0c-.006.061-.006.122-.074.154.005.022,0,.035-.027.04a.083.083,0,0,0-.048.114.053.053,0,0,1-.006.06c.014.031,0,.064.026.094,0,0,0,0,.005.007a.044.044,0,0,0-.013.031l.011,0-.009,0a.045.045,0,0,1,0-.006c-.026.017-.063.031-.07.055a3.731,3.731,0,0,0-.163.94l-.005.007a.511.511,0,0,0-.065.115.155.155,0,0,1,.006.154c.015.034.036.066,0,.1a.044.044,0,0,1,0,.061.143.143,0,0,0,.039.193.13.13,0,0,1,.02.129.682.682,0,0,0,.142.483.425.425,0,0,1,.119.268l.063.048h0a.035.035,0,0,0-.026.039c.021.008.024.022.007.042.007.271.242.439.284.694l.017.005,0,.017a.119.119,0,0,0,.083.024l0,.005a.044.044,0,0,0-.032.058c.05.1.145.176.167.3a2.138,2.138,0,0,0,.406.577.336.336,0,0,0,.052-.02l-.015.015.066.068a.244.244,0,0,0,.015.084,2.512,2.512,0,0,0,.6.56q.162.13.343.248c.207.064.368.219.612.285a1.127,1.127,0,0,1,.173.019.338.338,0,0,0,.047.01c.054.011.108.024.17.04a1.569,1.569,0,0,0,.318-.04.431.431,0,0,0,.264-.2.505.505,0,0,1,.19-.232c.05,0,.06-.02.039-.054a.268.268,0,0,1,.04-.005.616.616,0,0,0,.072-.125c.014-.041.024-.083.036-.125a.256.256,0,0,1-.02-.063l.059-.132.054-.135c.032-.091.062-.182.1-.272s.057-.182.086-.275.059-.183.084-.278c-.016-.02-.013-.033.008-.04-.034-.113.1-.162.065-.279l0,0a.288.288,0,0,1,.037,0,.268.268,0,0,0,.061-.135s0-.009-.006-.014c.083-.023.086-.1.133-.153a.725.725,0,0,1,.043-.137c.045-.062.092-.123.137-.185l-.017-.063,0,0s0,.006.009.011a.027.027,0,0,0,.039,0l.045-.063-.028-.045.044-.019c.054-.077.146-.121.161-.229-.011-.02-.007-.03.011-.031a.108.108,0,0,1,.073-.073c0-.034.019-.046.05-.045.076-.189.288-.234.391-.4l.044-.036a.032.032,0,0,0,.044-.029,3.386,3.386,0,0,1,.357-.22c.018-.016.019-.039,0-.068a.057.057,0,0,0,.053-.036,1.243,1.243,0,0,1,.127-.062l.073.01a.416.416,0,0,1,.2-.077.573.573,0,0,1,.317-.075.046.046,0,0,0,.022-.04c.029-.006.059,0,.087-.006a1.61,1.61,0,0,1,.17,0,.8.8,0,0,0,.382-.045.1.1,0,0,1,.026.006.331.331,0,0,0,.13-.1.183.183,0,0,0,.08-.187A.712.712,0,0,1,170.106,1024.909Z" transform="translate(-162.05 -1012.598)" fill="#fff"/><path d="M177.31,1052.516h0Z" transform="translate(-173.353 -1035.434)" fill="#fff"/><path d="M411.6,992.932h0c.061.042.11.013.164.006a.043.043,0,0,0,.025.026h0a.463.463,0,0,0,.354-.046l.061,0a.427.427,0,0,1,.176-.026c.033,0,.066,0,.1,0l.045-.037a.211.211,0,0,0,.088.063.43.43,0,0,0,.071.016.549.549,0,0,0,.069.008.223.223,0,0,0,.034,0,.146.146,0,0,0,.089.026.1.1,0,0,0,.021.046l.057.046a.105.105,0,0,1,.1.037.036.036,0,0,0,.06.015l.063.011c.015.027.034.03.057.009s.061,0,.082.025l.027,0,.017.022c.053.1.161.052.239.092l.026-.011.02.016a.339.339,0,0,1,.281.12l.023,0,.008.023c0,.039.023.051.058.031l.027,0,.015.023a.244.244,0,0,0,.115-.014c.053.089.152.111.229.167a.379.379,0,0,0,.056-.042l.006.014a1.863,1.863,0,0,0,.317.3,4.055,4.055,0,0,0,.374.225l.026,0,.007.023a.055.055,0,0,0,.046,0c.011.009.023.016.034.026.1.06.145.2.287.214h.026l.008.024a1.152,1.152,0,0,1,.28.243,1.345,1.345,0,0,1,.211.306l.021,0,.007.019a.253.253,0,0,0,.09.122l.017.01-.007.02c.107.04.12.177.24.2h.007c-.009,0-.017,0-.027,0a1.359,1.359,0,0,0,.178.306c.032.044.076.1.123.155a1.1,1.1,0,0,0,.149.156c-.008.039.011.061.05.064a.407.407,0,0,0,.063.065.435.435,0,0,0,.136.142.415.415,0,0,0,.2.038l.1.022c.065.056.157.047.237.066l.039-.012.038.012c.063-.018.134-.018.2-.032a.2.2,0,0,0,.144-.122l0,.007a.172.172,0,0,1,.1-.068l-.012,0a.493.493,0,0,0,.412-.377v0a1.554,1.554,0,0,0,.575-.818v.008c-.01-.09.071-.151.066-.24l-.014-.006.062-.127a1.687,1.687,0,0,0,.248-.57.3.3,0,0,0,.07-.061c.071-.136.1-.289.154-.431l0-.015.034-.007c.02-.056.035-.114.053-.171a.268.268,0,0,1-.023-.024c.032-.1.062-.2.088-.308,0-.011.005-.023.009-.034a.049.049,0,0,0,.042-.021.287.287,0,0,1,.059-.2.282.282,0,0,0,.064-.288l.014-.073a.044.044,0,0,0,.01-.073l-.016-.023.016-.022a.066.066,0,0,0-.025-.045,1.066,1.066,0,0,0,.023-.2.353.353,0,0,0,0-.052.148.148,0,0,0,0-.182.174.174,0,0,1,.019-.146.039.039,0,0,0,0-.068c-.047-.057-.017-.128-.035-.188a.213.213,0,0,0,.047-.073v-.006a.155.155,0,0,0-.03-.064c-.056-.031.007-.058,0-.088a.348.348,0,0,0-.012-.118.244.244,0,0,1,.006-.17.308.308,0,0,0-.015-.1l.019,0c.017,0,.025-.014.024-.04l-.013-.028.017-.026a.043.043,0,0,0-.012-.072h0a.139.139,0,0,0-.073-.066c.009-.01.023-.015.029-.029a.17.17,0,0,0,0-.092l0-.008.012-.028-.029-.011-.016-.037c-.018-.028-.046-.051-.039-.085a.028.028,0,0,0,.024.008c.016,0,.026-.015.023-.044v.01a.147.147,0,0,0-.045-.221c-.005-.025-.015-.047-.022-.071l-.036-.025a.462.462,0,0,0-.013-.078.267.267,0,0,0-.034-.044s0-.01,0-.013l-.046-.137a.3.3,0,0,0-.035-.121.36.36,0,0,1-.072-.23,1.2,1.2,0,0,1-.079-.24.167.167,0,0,1-.092-.15c-.031-.023-.057-.056-.1-.041l0,0a.381.381,0,0,1,.026-.057.511.511,0,0,0-.275-.411h0c-.228-.2-.433-.422-.666-.614a.421.421,0,0,0-.062-.036c.023-.018.022-.039-.008-.06l-.011-.007c-.082-.019-.135-.106-.23-.091h0l.007-.008a.052.052,0,0,0,0-.064l-.028-.01-.009-.03a.53.53,0,0,0-.391-.231c-.022-.013-.042-.027-.064-.038a.172.172,0,0,0-.207-.1l-.031.005-.022-.022a.138.138,0,0,1-.119-.053l0,0a.508.508,0,0,1-.341-.122h-.029l-.018-.025c-.14-.149-.367-.082-.521-.206l-.021.01-.016-.016c-.186.071-.373-.1-.554.016h0l-1.224.088a.508.508,0,0,1-.277.065.64.64,0,0,0-.513.183.147.147,0,0,1-.116.068.107.107,0,0,0-.022.076c-.319.1-.519.383-.809.521l-.017.026h-.032A4.571,4.571,0,0,0,411.6,989.2c-.032-.007-.079.029-.112.074a8.128,8.128,0,0,0-1.062,2.092,2.655,2.655,0,0,0-.156.919.763.763,0,0,0,.254.56.709.709,0,0,0,.6.115.882.882,0,0,0,.2-.026Zm7.523,1.468v0a.076.076,0,0,1,.04.006A.139.139,0,0,0,419.123,994.4Z" transform="translate(-345.917 -986.628)" fill="#fff"/></g><g transform="translate(21.564 52.184)"><path d="M200.9,1138.361h0c-.012-.044-.024-.036-.036-.066-.032-.106-.054.011-.086-.072l-.044-.007c-.039-.072-.066.019-.106-.049h0c-.006.012-.011.036-.023,0l-.032-.008a.262.262,0,0,0-.262.041c-.025.029-.047.07-.085.031-.006.041-.021.04-.04.011a.281.281,0,0,1-.2.033c-.04-.044-.063-.009-.091,0,.005.021.01.037.014.054,0-.005-.006-.008-.009-.014-.109-.108-.144.071-.251-.021h-.048c-.071-.062-.086.059-.159-.005,0,.028,0,.029-.019.008a.133.133,0,0,1-.176.07c-.017.04-.041.058-.089.018-.024-.023-.042-.031-.041,0l-.022-.01c-.035,0-.049.048-.1,0-.008.044-.041.03-.072.022-.134-.017-.207.1-.318.132-.023-.011-.022.012-.012.047l0,0c-.028-.018-.031.01-.038.03a.156.156,0,0,0-.022-.026.062.062,0,0,0-.049.028c0,.01.006.017.009.026-.034-.036-.035-.012-.048-.007s0,.019.007.033l-.011,0,0,0h0l-.033-.044-.1.067a.089.089,0,0,0,.017.044h0l-.038-.031c0,.014,0,.016-.01,0,.013.067-.018.063-.06.045.011.029.005.032-.016.012.006.057-.021.064-.066.045h0c0,.025,0,.056-.039.023,0,.013,0,.013-.017,0-.032-.027-.04-.02-.03.013.006.016,0,.023,0,.02.008.022,0,.027.015.057l0,.007c-.005,0-.009,0-.009,0l.006.01-.006-.006v0c-.016-.011-.041-.035-.047-.032-.07.046-.137.1-.2.147l0,0a.249.249,0,0,0-.061-.027c.009.03,0,.039-.029.025,0,.016.008.036-.023.011,0,.013,0,.013-.019,0-.039-.02-.059-.017-.032.04.008.027-.008.025-.03.016-.07-.013-.1.016-.1.088,0,.044,0,.075-.047.066l.012.041,0,0c-.013-.014-.024-.023-.032-.024.008.015,0,.015-.015,0-.12-.028-.08.114-.194.094l.006.011-.011-.006a.156.156,0,0,0,.03.054h0c-.018-.02-.035-.034-.047-.034-.032.012-.024.064-.081.052-.085.009-.1.086-.142.135.012.014.024.026.037.04l-.017-.014-.012.024a.167.167,0,0,0-.046-.013c-.038.065-.124.09-.12.188l-.052.1c.021.083-.05.095-.068.148a.055.055,0,0,1,0,.044.017.017,0,0,0-.006.006.047.047,0,0,1-.039.012c0,.039-.078.03-.026.107.039.048.017.053-.02.048s-.039-.016-.014.006l-.029-.014c-.025,0-.028.025-.036.042a.18.18,0,0,1,.026.032.334.334,0,0,0-.189.3c.018.015.019.02,0,.015.056.064-.041.045.02.111l0,0-.032-.013c-.013.01-.026.02-.01.046l.01.009c-.06-.012-.035.028-.058.038a.338.338,0,0,1,.015.061c-.011.019-.022.038-.032.057l.04.034h0l-.012-.007c-.014-.008-.024-.01-.03-.008l0,.025.045.029H196.3c0,.03-.057.034-.007.09.018.011.021.016.009.014.011.017.007.026-.013.028.019.017.012.02-.012.016.055.085-.06.094-.012.174l0,.017c-.02,0-.023,0-.008.013-.01.04-.022.079-.03.12,0,.008.021.019.051.031-.012,0-.011.009,0,.021l-.005.04-.039,0c-.005,0,0,.013.005.023-.041,0-.031.016-.012.038a.077.077,0,0,1-.014.093.088.088,0,0,0,.033.019c0,.015-.025.022.023.051h0a.536.536,0,0,0,.15.074l.018,0,.014.007c.086.025.073.006.12.015h0c.056.011.052,0,.061-.015a.108.108,0,0,0,.03.007h0c.064-.006.071-.03.026-.076l.006-.012c-.016-.021-.009-.033-.011-.048a.1.1,0,0,1,0-.021l-.033-.024a.12.12,0,0,0,.058,0,.026.026,0,0,0,.011-.013.031.031,0,0,0,0-.015s0-.006-.005-.009c.019,0,.023,0,.022-.014a.249.249,0,0,0,.04.01h.034c-.011-.014-.007-.021.021-.017s.025,0,.007-.012l0-.015c.024.005.021,0,0-.015s-.016-.02.006-.017l-.008-.01.016,0c.08.017.017-.033.028-.048l-.017-.013.009,0c-.038-.042-.019-.059.026-.062l-.009-.009.017,0c.031.01.035.007.007-.012l-.013-.011h.014a.219.219,0,0,0-.049-.048c.06.008.036-.027.052-.042l-.055-.034h.009c.116-.01.123-.073.1-.159l-.014-.012.014,0c0-.005-.01-.012-.022-.021s0-.007,0-.009c0-.031.061-.024,0-.088l-.013-.012.012,0a.1.1,0,0,1,.077-.138l-.015-.012h.007c.019,0,.026-.009.019-.026l0-.007.016.007c-.04-.05.034-.032-.028-.1a.1.1,0,0,1,.012.01c.066-.017.059-.081.064-.138.029.015.032.012.014-.007l.012-.009c.051.011.065,0,.029-.051l.013-.009c.039.015.042,0,.072.011l0-.009.017.006c.011-.016.091.019.022-.054l0,0c-.014-.018-.007-.021.008-.018h0c.086.023.114,0,.053-.084v0c.1-.007.136-.052.121-.148l0,0c-.032-.046.012-.031-.011-.072l-.012-.009.016-.023c.058-.005.068-.052.079-.1a.2.2,0,0,0,.043.017c.032-.012.031-.054.058-.07l0,0,.024.017.022-.027-.019-.023c.014-.016.03-.03.044-.045l0-.005a.1.1,0,0,0,.03.02c0-.024,0-.037.035-.022.052.024.065.01.041-.041l.01-.01c.021.014.024.01.007-.013l-.011-.017.011,0a.129.129,0,0,0-.018-.027h0c.009-.01.022-.016.023-.034a.05.05,0,0,0,0-.015c.035.02.031,0,.01-.041-.006-.022,0-.03.023-.019s.022.01.005-.014c-.027-.045,0-.037-.006-.062a.163.163,0,0,0,.039.021h0a.084.084,0,0,0-.012-.032c-.034-.046.012,0,.013-.012a.026.026,0,0,0,.008-.027c-.008-.027.016-.017.035-.012s.009-.01.008-.023a.123.123,0,0,0,.012.016c.011.012.018.018.024.016l0-.012.016.012c.021.017.023.011.008-.013h0a.227.227,0,0,0-.031-.06.246.246,0,0,0,.024.021c.013.006.021.007.025,0v0l.015.009-.015-.022v-.012c0-.014-.015-.037,0-.03a.12.12,0,0,0,.012.019c.01.013.019.02.026.019h0c.064.056.065.035.041-.018l.012-.008-.011-.025a.062.062,0,0,0,.021,0,.059.059,0,0,0,0-.02l.007,0,.025-.015c.041.015.021-.056.085-.008a.06.06,0,0,1,.061,0c-.016-.04,0-.035.026-.021a.116.116,0,0,0-.026-.065h0c.011.012.021.021.034.036.068.04.11.048.091-.036h0c.022-.071.076-.1.123-.13,0,0,0-.015,0-.023.015.026.026.04.032.035h0c-.005-.036.031-.013.006-.077h0l0,.009a.131.131,0,0,0,.033.04v-.01l.014.014c.055.033.081.022.07-.053l.013-.006c.041.041.052.033.037-.024l0-.017.011.007c-.008-.03.007-.022.021-.014h0c0-.046.016-.068.061-.033v-.012l.013.013c.078.074.056-.048.127.016l0-.013.009.011c-.014-.1.077,0,.056-.121h0a.181.181,0,0,1,.212-.108c.011-.02.022-.044.054-.014.055.044.085.031.095-.037,0-.029.006-.03.02-.019a.243.243,0,0,0-.01-.057c.083.044.108-.078.195-.016l0-.01.011.018c.136-.009.27,0,.374-.128.01.028.024.043.035.043a1.3,1.3,0,0,0,.225-.055c.076-.017.152-.032.229-.043a3.331,3.331,0,0,0,.34-.058C200.872,1138.477,200.91,1138.577,200.9,1138.361Zm-3.873,1.724h0v0l0,0Zm.049-.313h0Zm0,0v0l.01.011Z" transform="translate(-196.21 -1138.139)" fill="#fff"/><path d="M197.831,1146.2Z" transform="translate(-197.41 -1144.108)" fill="#fff"/><path d="M220.586,1148.531Z" transform="translate(-214.266 -1145.837)" fill="#fff"/><path d="M216.526,1143.326h0a.824.824,0,0,0-.035-.164l-.009-.016,0-.016c-.034-.083-.05-.057-.08-.1h0c-.035-.047-.045-.031-.061-.029a.082.082,0,0,0-.017-.025h0c-.056-.038-.086-.021-.085.045l-.014.006c0,.026-.017.032-.026.046a.147.147,0,0,1-.018.014l.011.039a.114.114,0,0,0-.046-.036.028.028,0,0,0-.017,0,.037.037,0,0,0-.012.01s0,.008,0,.011c-.015-.012-.023-.009-.027,0a.209.209,0,0,0-.027-.031l-.03-.018c0,.019-.007.022-.029,0s-.021-.014-.013.008l-.011.012c-.018-.018-.019-.01-.007.014s0,.026-.016.013v.012l-.013-.01c-.061-.055-.033.021-.051.03l.008.019-.009,0c.011.055-.013.062-.055.044l0,.012-.013-.011c-.023-.023-.029-.021-.013.008l.006.016-.012-.008a.233.233,0,0,0,.025.066c-.055-.037-.046.009-.068.016l.037.055-.008-.005c-.11-.038-.146.021-.148.111l.009.016-.012-.008a.069.069,0,0,0,.014.027s0,.006-.005.007c0,.031-.064.005-.022.084l.009.016-.011-.005a.093.093,0,0,1-.1.107l.012.015-.007,0c-.019,0-.026,0-.023.021l0,.008-.014-.01c.031.056-.036.025.016.1l-.01-.011c-.064,0-.064.067-.074.119-.027-.018-.031-.016-.014,0l-.013.007c-.049-.018-.065-.007-.031.044l-.013.007c-.037-.019-.041-.006-.07-.017l0,.009-.016-.007c-.01.015-.088-.023-.02.052l0,0c.014.019.007.021-.007.018h0c-.083-.025-.111-.005-.047.079l0,0c-.092.006-.136.051-.108.142l0,0c.037.041-.006.032.024.068l.013.008-.011.023c-.053.01-.053.056-.054.1a.212.212,0,0,0-.045-.009c-.028.016-.018.054-.041.073l0,0-.027-.012-.016.029.024.017-.029.051a.079.079,0,0,0,0,.007.155.155,0,0,0-.033-.013c.012.021.012.035-.024.03-.055-.01-.062.007-.023.048l-.005.012c-.024-.007-.025,0,0,.014l.016.013h-.012a.084.084,0,0,0,.026.021c0,.011-.014.02-.008.036a.054.054,0,0,0,.006.013c-.039-.007-.027.01.006.04.014.016.012.025-.014.022s-.025,0,0,.014h0c.043.031.014.032.03.051a.16.16,0,0,0-.044-.006h0a.087.087,0,0,0,.024.023c.049.028-.01.007-.007.014s-.005.013,0,.025-.006.019-.024.022,0,.012,0,.021l-.017-.009c-.015-.007-.024-.008-.028,0l.008.008-.02,0c-.026-.007-.025,0,0,.013h0a.257.257,0,0,0,.055.038l-.029-.008c-.014,0-.021,0-.021.008l0,0-.017,0,.024.013.007.01c.01.01.031.024.016.024a.071.071,0,0,0-.019-.01c-.015-.007-.025-.009-.031-.006h0c-.081-.021-.071,0-.024.031l-.006.011.022.016a.062.062,0,0,0-.019.007s.008.01.012.015h-.007c0,.007-.008.015-.013.022-.042.005.012.053-.067.043a.059.059,0,0,1-.052.027c.035.024.017.028-.011.029a.124.124,0,0,0,.057.038l0,0-.051-.013c-.077,0-.115.021-.049.074h0a.243.243,0,0,1-.007.163c0,.006.009.013.013.019-.028-.01-.046-.014-.047-.008v0c.029.023-.014.027.048.058h0l-.01,0a.145.145,0,0,0-.051-.008l.007.007-.02,0c-.062.009-.075.034-.016.078l-.005.012c-.058,0-.062.01-.01.039l.016.009-.012,0c.027.015.012.019,0,.022h0c.034.031.04.053-.016.061l.009.007h-.018c-.107.005,0,.067-.094.076l.012.006h-.014c.088.051-.043.058.061.111h0c.056.084.016.147-.033.211.012.019.027.038-.015.048-.065.019-.069.05-.016.09.025.012.023.019.005.024a.273.273,0,0,0,.054.018c-.081.043.02.115-.075.157l.008.006h-.021a.324.324,0,0,0-.014.351c-.03,0-.05.007-.052.016a1.811,1.811,0,0,0-.011.414,2.607,2.607,0,0,0,0,.3c0,.017-.1.045.112.051h0c.045-.007.039-.018.071-.026.111-.019,0-.045.085-.065l.013-.035c.077-.024-.009-.055.065-.079v0c-.011-.006-.033-.013.007-.018l.013-.024a.173.173,0,0,0,0-.211c-.025-.024-.061-.05-.017-.072-.038-.014-.033-.025,0-.033a.162.162,0,0,1,.027-.156c.054-.019.028-.045.026-.068l-.056-.005.016,0c.138-.048-.02-.13.1-.177l.015-.035c.085-.027-.016-.08.072-.106-.027-.009-.025-.014,0-.016a.082.082,0,0,1,.018-.142c-.027-.028-.031-.052.028-.065.032,0,.048-.012.017-.027l.019-.009c.018-.021-.018-.052.046-.063-.032-.025,0-.038.022-.052.092-.065.034-.164.078-.239.023-.005,0-.017-.028-.032h0c.032,0,.012-.021,0-.036a.171.171,0,0,0,.033,0,.034.034,0,0,0,.009-.04l-.024-.011c.047,0,.031-.01.037-.018s-.015-.01-.029-.016l.005-.007h0l.054.011.022-.084a.108.108,0,0,0-.042-.02h0l.048,0c-.013-.007-.012-.009,0-.007-.056-.036-.031-.047.01-.053-.027-.014-.026-.018,0-.014-.044-.034-.03-.051.013-.056h0c-.017-.017-.038-.035.013-.03-.011-.007-.006-.009.014,0,.041.006.042,0,.014-.019s-.018-.014-.01-.015c-.021-.012-.018-.018-.048-.033l-.007,0c.005,0,.007,0,0-.005l-.011,0,.008,0,0,0c.019,0,.053.009.055.005.028-.054.051-.109.076-.163h0a.363.363,0,0,0,.062,0c-.024-.019-.022-.028.008-.025-.01-.01-.026-.023.011-.013-.011-.009-.006-.01.013-.005.041,0,.054,0,0-.036-.022-.018-.008-.021.015-.019.063-.005.074-.032.038-.082-.024-.031-.032-.055.01-.055l-.029-.029,0,0a.085.085,0,0,0,.038.013c-.014-.01-.009-.011.012,0,.113.005.017-.1.12-.095l-.01-.008.012,0a.228.228,0,0,0-.048-.039h0a.118.118,0,0,0,.053.021c.02-.013,0-.051.048-.045.071-.008.059-.064.081-.1-.022-.016-.043-.027-.065-.043l.039.023,0-.019a.234.234,0,0,0,.044.012c.014-.049.075-.066.049-.141l.026-.07c-.033-.067.028-.067.034-.106a.044.044,0,0,1-.007-.036l0,0c.005-.005.014-.008.031,0,0-.031.064-.008.01-.081-.039-.046-.018-.045.015-.033s.036.022.012,0l.026.017c.022,0,.024-.012.03-.023a.224.224,0,0,1-.024-.032.188.188,0,0,0,.163-.177c-.014-.018-.014-.022,0-.012-.043-.071.038-.019-.008-.094l0,0,.026.022c.012,0,.024-.005.013-.033l-.007-.01c.048.033.033-.006.053-.005a.263.263,0,0,1,0-.053l.036-.029-.026-.045h0l.009.011c.01.013.018.02.023.02l.008-.017-.03-.043.021.012c.009-.022.052,0,.025-.066-.012-.018-.013-.022,0-.015,0-.019,0-.023.018-.014-.011-.022,0-.021.014-.006-.02-.1.073-.036.061-.123l.008-.011c.014.014.018.013.01-.005l.067-.066a.136.136,0,0,0-.024-.054c.009.006.012,0,.007-.016l.022-.024.029.023c.006,0,.009-.007.007-.02.027.03.028.01.026-.018,0-.044.031-.046.055-.049a.147.147,0,0,0-.012-.036h0C216.519,1143.367,216.538,1143.381,216.526,1143.326Zm-1,1.141h0Zm.026.256v0h0l-.011-.008Z" transform="translate(-209.547 -1141.709)" fill="#fff"/></g><g transform="translate(67.167 45.589)"><path d="M378.829,1113.425a3.083,3.083,0,0,0,.34-.058c.076-.014.153-.025.23-.034a1.308,1.308,0,0,0,.231-.022c.01,0,.019-.022.019-.052a.447.447,0,0,0,.4,0l0-.021.006.009c.062-.087.125.02.189-.049a.249.249,0,0,0,.009.057c.009-.016.018-.017.025.01.032.061.065.063.1,0,.02-.039.038-.02.055,0a.181.181,0,0,1,.235.032h0c.019.116.073-.005.093.095l.005-.013,0,.013c.046-.083.066.039.115-.057l.007-.017,0,.012c.032-.048.053-.032.069.011h0c.011-.012.022-.025.024.006l.008-.01,0,.018c0,.059.017.063.042.011l.014,0c.014.074.042.076.083.027l.009-.018,0,.01a.133.133,0,0,0,.018-.049s0-.006,0-.01h0c0,.069.024.035.031.071h0c.007,0,.013-.015.018-.044,0,.007.006.017.01.02a.259.259,0,0,1,.16.082h0c.009.086.047.065.1,0,.008-.019.014-.031.021-.046v0a.122.122,0,0,0,0,.07c.018-.021.033-.031.032.011a.06.06,0,0,1,.058-.02c.044-.067.048.006.082-.021l.028.006,0-.006a.054.054,0,0,0,0,.019.051.051,0,0,0,.019-.009l0,.027.014,0c0,.058,0,.078.045,0l0,0c.007,0,.013-.011.018-.027a.1.1,0,0,0,.005-.021c.011-.011.008.014.009.028l0,.012-.007.026.011-.013v0c.005,0,.013,0,.023-.01a.218.218,0,0,0,.016-.027.222.222,0,0,0-.01.066h0c-.006.028,0,.032.012.009l.012-.016v.012c.006,0,.011-.007.017-.022a.084.084,0,0,0,.006-.019c0,.012.008.018.015.019s.035-.027.036,0a.026.026,0,0,0,.016.023c0,.008.032-.048.016.007a.086.086,0,0,0,0,.034h0a.139.139,0,0,0,.03-.032c0,.026.026.009.015.06-.008.028,0,.032.01.012s.027-.012.028.011c-.006.044,0,.066.023.035a.056.056,0,0,0,0,.015c.007.017.02.019.032.025h0a.153.153,0,0,0-.008.032l.009-.008,0,.02c-.008.027,0,.031.011.01l.013.007c-.005.056.011.065.052.025s.037-.015.041.009a.1.1,0,0,0,.021-.029l.006,0c.019.01.039.018.057.029l-.011.028.03.018.017-.024h0c.031.007.044.046.078.047a.249.249,0,0,0,.035-.03c.026.04.049.08.106.066l.023.016-.008.013c-.009.045.028.018.013.071v0c.017.1.071.125.163.1v0c-.028.1,0,.112.078.062l0,0c.013-.008.021-.008.014.014v0c-.041.092.024.033.039.044l.014-.011v.009c.025-.018.033-.007.065-.034l.015,0c-.018.058,0,.067.045.039l.015,0c-.011.025-.007.026.015,0,.024.053.038.115.106.11l.008-.013c-.038.08.026.039,0,.1l.013-.012,0,.008c0,.019.008.025.026.019l.007,0-.01.016a.1.1,0,0,1,.118.1l.011-.006-.009.017c-.037.08.022.052.029.083a.028.028,0,0,1,.005.007.067.067,0,0,0-.014.027l.012-.008-.009.016c0,.091.031.148.144.118l.008,0-.041.051c.02.008.01.049.063.022a.22.22,0,0,0-.031.061l.013-.006-.008.015c-.02.027-.015.029.011.009l.015-.009-.006.012c.044-.013.067,0,.045.049h.009l-.011.017c.015.011-.028.079.042.037l.015-.008,0,.011c.019-.01.03-.011.012.015s-.018.027,0,.015l.006.013q-.02.028.01.009c.025-.013.031-.007.025.01l.033-.01a.271.271,0,0,0,.035-.023c0,.008.008.013.026.005,0,0,0,.008,0,.01a.035.035,0,0,0,.008.013.029.029,0,0,0,.014.008.119.119,0,0,0,.055-.021l-.023.033a.135.135,0,0,1,.011.018c0,.016.014.025.006.049l.01.01c-.027.059-.013.079.05.063h0a.1.1,0,0,0,.027-.016c.011.007.013.024.062-.005h0c.041-.023.035,0,.108-.053l.011-.011.016-.009a.535.535,0,0,0,.117-.12h0c.036-.043.01-.043,0-.056a.087.087,0,0,0,.025-.028c-.025-.019-.052-.037-.044-.083.011-.027.014-.048-.024-.032.005-.013,0-.021,0-.025l-.038.009-.018-.036c.009-.016.007-.023,0-.021.024-.022.037-.038.037-.047-.021-.035-.045-.068-.068-.1.01-.017.006-.02-.011-.01l-.008-.015c.019-.092-.092-.062-.069-.161-.021.012-.029.011-.017-.011-.019.005-.027,0-.022-.021-.011.005-.01,0,0-.017.03-.069-.024-.056-.036-.083a.159.159,0,0,0-.025.007l.032-.042-.012-.022c-.007,0-.015,0-.026.017a.077.077,0,0,0-.009.011h0l.026-.046-.049-.043a.368.368,0,0,1-.006-.063c-.025,0-.014-.048-.067-.017l.007-.011c.007-.031-.009-.035-.025-.04l-.026.023,0,0c.036-.082-.049-.032-.017-.111-.014.01-.016,0,0-.015a.335.335,0,0,0-.277-.222.18.18,0,0,1,.014-.038c-.013-.013-.023-.031-.049-.028-.009.011-.014.014-.022.023.017-.03.012-.031-.015,0s-.056.019-.034-.04c.024-.09-.043-.057-.06-.092a.046.046,0,0,1-.04,0l-.008,0a.055.055,0,0,1-.014-.041c-.034-.044-.105-.032-.113-.117l-.081-.076c-.029-.094-.119-.089-.176-.138a.141.141,0,0,0-.039.027l-.019-.019-.011.019c.007-.017.015-.032.022-.05-.056-.032-.1-.1-.178-.08-.051.031-.06-.021-.094-.022-.012,0-.023.022-.034.048h0a.149.149,0,0,0,.01-.061l-.008.009,0-.012c-.1.057-.111-.091-.215-.025-.012.02-.017.021-.014,0-.007,0-.014.016-.022.033v0l0-.043c-.039.024-.056,0-.066-.046-.018-.07-.061-.086-.123-.051-.018.016-.032.023-.034-.005.007-.062-.013-.058-.043-.026-.011.017-.017.018-.018,0-.021.034-.022.013-.025,0-.022.023-.033.017-.035-.014a.229.229,0,0,0-.048.045l0,0c-.081-.025-.161-.051-.242-.071-.007,0-.023.03-.034.046v0l0,.007,0-.011s-.005,0-.009,0,0,0,0-.008c0-.033,0-.035,0-.059-.008.006-.011,0-.011-.017,0-.035-.012-.039-.033,0-.009.019-.014.021-.015.008-.028.045-.035.014-.044-.009h0c-.037.033-.064.035-.078-.021-.014.027-.02.026-.019-.005-.034.03-.062.045-.072-.023-.007.015-.01.015-.01,0l-.025.042h0a.091.091,0,0,0,0-.047l-.118-.03-.016.052,0,0,0,0h-.011c0-.016,0-.038,0-.034s-.023-.022-.042.023c0-.01,0-.017,0-.027a.062.062,0,0,0-.056-.01.146.146,0,0,0-.012.032c-.013-.017-.025-.042-.046-.016v0c0-.036-.009-.058-.027-.04-.116,0-.222-.08-.343-.019-.027.017-.054.041-.076,0-.036.059-.065.017-.1.031a.141.141,0,0,0-.018.016c-.011-.033-.025-.02-.04.01-.032.054-.061.045-.09.012a.132.132,0,0,1-.189-.008c-.007.025-.013.027-.02,0-.048.084-.1-.024-.148.057l-.046.015c-.071.123-.164-.035-.23.1,0,.007,0,.01,0,.016,0-.018,0-.034,0-.056-.03,0-.063-.027-.087.026a.279.279,0,0,1-.2.034c-.009.033-.022.039-.042,0-.023.049-.057.019-.09,0a.262.262,0,0,0-.261.047l-.027.019c0,.041-.011.021-.021.011h0c-.015.078-.07,0-.084.081l-.039.021c0,.088-.062-.015-.057.1,0,.032-.016.028-.012.074h0C378.805,1113.534,378.809,1113.427,378.829,1113.425Zm4.137.252,0,0v0h0Zm-.149-.28Zm-.005.014c0-.005,0-.009.005-.014v0Z" transform="translate(-377.021 -1112.697)" fill="#fff"/><path d="M396.673,1116.491Z" transform="translate(-390.304 -1115.507)" fill="#fff"/><path d="M375.962,1126.2Z" transform="translate(-374.962 -1122.7)" fill="#fff"/><path d="M372.16,1121.924h0a.172.172,0,0,0,0,.038c.025-.005.051-.012.069.028s.014.045.03.009c0,.013.007.018.013.016l.02-.031.029.016c0,.018,0,.022.012.013a.128.128,0,0,0,0,.059l.085.04c0,.019,0,.019.012,0l.011.007c.018.086.086,0,.1.1.011-.02.017-.023.015,0,.012-.014.02-.012.021.007.006-.01.007,0,0,.016,0,.072.03.036.045.054l.016-.018-.014.051.013.013s.01-.011.016-.027a.063.063,0,0,0,0-.013h0l-.01.051.044.015a.264.264,0,0,1,.014.051c.019-.008.017.034.051-.013l0,.012c0,.03.011.027.023.027l.017-.03v0c-.018.086.04.011.024.092.01-.014.011-.01,0,.011a.188.188,0,0,0,.213.114.318.318,0,0,1-.012.038c.01.008.016.021.036.012s.012-.016.018-.026c-.015.03-.011.029.012,0s.046-.03.025.027c-.026.086.028.041.036.072.015-.01.024-.01.031-.006l.005,0a.043.043,0,0,1,0,.035c.019.035.077.015.067.089l.048.057c0,.079.063.076.093.117a.2.2,0,0,0,.037-.025l.009.016.03-.034c-.015.021-.032.038-.047.061.033.028.039.084.11.069.048-.024.037.02.06.026a.117.117,0,0,0,.043-.037h0a.213.213,0,0,0-.032.052l.01-.007-.006.01c.1-.037.04.092.145.049.018-.015.022-.015.013,0a.1.1,0,0,0,.031-.025l0,0-.018.036c.04-.014.041.011.028.048-.018.06,0,.081.063.065.021-.009.034-.011.02.013-.038.049-.023.051.014.033.017-.011.022-.011.015,0,.032-.022.021,0,.015.009.027-.013.032,0,.016.021a.331.331,0,0,0,.058-.023l0,0c.041.043.081.087.125.13,0,0,.033-.015.05-.023l0,0,.007,0-.009.007s0,0,.006,0l-.005.005a.379.379,0,0,0-.034.047c.009,0,.007,0,0,.018s-.017.033.019.014c.018-.011.023-.011.015,0,.046-.022.032,0,.022.024h0c.043-.009.061,0,.032.048.026-.013.029-.01.008.012.04-.008.068-.006.027.047.014-.007.016-.006.006.005l.044-.019h0a.113.113,0,0,0-.034.032l.049.072.047-.028h.005l.007,0c-.011.01-.028.025-.022.025s0,.025.041,0l-.019.019a.033.033,0,0,0,.022.034.142.142,0,0,0,.03-.014c-.005.017-.018.04.012.033l0,0c-.026.025-.04.042-.016.04.066.056.044.168.153.2.027.006.06.008.038.042.063-.01.04.031.064.045l.021,0c-.024.025-.007.027.025.02.059-.007.064.017.047.052.07.016.092.059.064.128.025-.007.028,0,.006.014.092-.005.015.079.1.076l.025.028c.131,0,.009.134.155.133l.016,0-.051.023c.006.023-.009.056.047.056a.161.161,0,0,1,.077.138c.034,0,.043.007.011.032.049.005.023.042.007.073a.173.173,0,0,0,.07.2l.02.018c.04-.009.022,0,.013.015v0c.078,0,.006.056.088.053l.024.029c.088-.01-.009.052.1.034.032,0,.031.009.075,0h0c.2-.078.093-.069.089-.086a2.573,2.573,0,0,0-.1-.288,1.784,1.784,0,0,0-.147-.387c-.006-.008-.027-.009-.055,0a.324.324,0,0,0-.129-.327l-.021.006.005-.008c-.1-.008-.031-.11-.122-.124a.253.253,0,0,0,.045-.035c-.018,0-.023,0,0-.024.038-.055.024-.083-.044-.08-.043.005-.035-.018-.03-.039-.067-.044-.125-.09-.1-.188h0c.081-.085-.044-.048.022-.125l-.013,0,.009-.01c-.089.021-.012-.071-.114-.041l-.017.006.007-.01c-.055.011-.057-.012-.035-.053h0c-.016,0-.031,0-.011-.02l-.012,0,.012-.014c.04-.044.033-.055-.022-.033l-.009-.01c.042-.061.021-.08-.04-.068l-.018.008,0-.009a.157.157,0,0,0-.045.025l-.008.007h0c.048-.05.007-.04.026-.071v0c0-.005-.019,0-.042.023,0-.007.008-.016.007-.021a.248.248,0,0,1-.061-.152h0c.045-.073,0-.078-.07-.055l-.044.029,0,0a.122.122,0,0,0,.042-.054c-.026.008-.045.01-.02-.024a.06.06,0,0,1-.058-.008c-.071.036-.036-.027-.077-.019-.007-.005-.012-.012-.019-.017l-.007,0c0-.007.007-.015.007-.018a.046.046,0,0,0-.02,0l.015-.022-.01-.009c.033-.048.037-.068-.033-.022h0c-.007,0-.015,0-.027.016a.075.075,0,0,0-.015.016c-.014,0,0-.015.007-.028l0-.012.018-.02-.015.008v0c0-.006-.01-.006-.022,0l-.025.017a.238.238,0,0,0,.04-.054h0c.018-.022.017-.027-.005-.012l-.017.01,0-.011s-.013,0-.025.013l-.013.014c0-.011,0-.017,0-.021s-.041.012-.03-.013,0-.02,0-.025-.048.032-.011-.011a.088.088,0,0,0,.015-.03h0a.165.165,0,0,0-.039.02c.008-.023-.019-.014.011-.058v0c.02-.025.018-.029,0-.015s-.028,0-.02-.017c.022-.038.027-.059-.007-.039a.046.046,0,0,0,0-.015c0-.017-.011-.022-.02-.031a.089.089,0,0,0,.017-.028l-.011.005.011-.017c.017-.023.015-.028-.006-.013l-.009-.01c.024-.051.012-.065-.037-.038-.032.017-.037,0-.033-.021a.156.156,0,0,0-.026.024l-.006-.006-.044-.039.017-.024-.024-.021-.022.02,0,0c-.027-.011-.031-.05-.063-.056a.224.224,0,0,0-.039.024c-.015-.041-.029-.084-.083-.076l-.018-.019.01-.012c.016-.043-.022-.021,0-.072l0,0c0-.1-.06-.123-.148-.1v0c.032-.1,0-.111-.071-.06l0,0c-.012.008-.02.008-.013-.014v0c.04-.093-.022-.032-.036-.043l-.013.012v-.01c-.024.02-.032.009-.061.039l-.014,0c.016-.059,0-.064-.044-.031l-.015,0c.009-.025,0-.026-.014,0-.026-.046-.047-.1-.109-.088,0,0,0,.009-.006.014.025-.085-.029-.034-.017-.1l-.01.014v-.008c0-.018-.012-.021-.028-.012l-.006,0,.006-.018a.094.094,0,0,1-.134-.067l-.009.009,0-.018c.014-.088-.034-.044-.049-.072,0,0,0,0-.007-.005a.066.066,0,0,0,0-.03l-.009.011,0-.018c-.032-.085-.086-.129-.177-.056l-.006.007c.005-.017.011-.038.017-.064-.023,0-.03-.046-.069.007a.251.251,0,0,0,0-.071l-.009.011v-.017c.005-.033,0-.033-.015,0l-.009.015v-.013c-.034.03-.058.033-.066-.023l-.007,0v-.021c-.02,0-.019-.083-.058-.011l-.009.014,0-.012c-.012.018-.02.025-.019-.007s0-.033-.011-.011l-.014-.007c0-.023,0-.024-.015,0s-.023.023-.029.005l-.022.027a.206.206,0,0,0-.016.038c-.007-.006-.015-.007-.025.01,0,0,0-.008,0-.01a.038.038,0,0,0-.033,0,.108.108,0,0,0-.031.049l0-.04-.022-.007c-.013-.01-.029-.01-.04-.035H372.3c-.021-.063-.055-.069-.095-.014h0a.1.1,0,0,0-.008.03c-.015,0-.03-.008-.047.047h0c-.015.046-.039.027-.044.117l0,.016,0,.018a.842.842,0,0,0,.021.167h0C372.135,1121.938,372.149,1121.918,372.16,1121.924Zm1.285.709v0h0Zm.069.238-.008.011h0v0Z" transform="translate(-372.108 -1119.18)" fill="#fff"/></g></g></g></g><path d="M5.957,9.494V20.577a2.207,2.207,0,0,0,.515,1.7,2,2,0,0,0,1.36.447,2.357,2.357,0,0,0,.552-.083,2.284,2.284,0,0,1,.515-.083.764.764,0,0,1,.57.248.808.808,0,0,1,.239.579.91.91,0,0,1-.588.777,2.926,2.926,0,0,1-1.4.314,8.476,8.476,0,0,1-1.765-.165,2.807,2.807,0,0,1-1.489-.992,4,4,0,0,1-.717-2.647V9.494H1.066A1.128,1.128,0,0,1,.313,9.23a.857.857,0,0,1,0-1.323,1.128,1.128,0,0,1,.754-.265H3.751V3.97a.915.915,0,0,1,.313-.711,1.137,1.137,0,0,1,.791-.281,1.137,1.137,0,0,1,.791.281.915.915,0,0,1,.313.711V7.642H9.634a1.01,1.01,0,0,1,.717.3.9.9,0,0,1,.313.662.8.8,0,0,1-.294.645,1.1,1.1,0,0,1-.735.248ZM23.312,7.443a6.168,6.168,0,0,1,4.927,1.869,7.091,7.091,0,0,1,1.618,4.813v9.362a.915.915,0,0,1-.313.711,1.252,1.252,0,0,1-1.581,0,.915.915,0,0,1-.313-.711V14.126a5.2,5.2,0,0,0-1.14-3.49A4.43,4.43,0,0,0,22.944,9.3a6.672,6.672,0,0,0-2.923.662,6.011,6.011,0,0,0-2.225,1.77,3.874,3.874,0,0,0-.846,2.4v9.362a.915.915,0,0,1-.313.711,1.252,1.252,0,0,1-1.581,0,.915.915,0,0,1-.313-.711V.992a.915.915,0,0,1,.313-.711,1.252,1.252,0,0,1,1.581,0,.915.915,0,0,1,.313.711v9.693a7.429,7.429,0,0,1,2.758-2.332A7.782,7.782,0,0,1,23.312,7.443Zm27.577.132a1.1,1.1,0,0,1,.791.3.967.967,0,0,1,.313.728V23.488a.915.915,0,0,1-.313.711,1.252,1.252,0,0,1-1.581,0,.915.915,0,0,1-.313-.711V21.271a7.345,7.345,0,0,1-2.758,2.514,8.09,8.09,0,0,1-4.008,1.026,8.57,8.57,0,0,1-4.431-1.158A8.288,8.288,0,0,1,35.5,20.477a9.17,9.17,0,0,1-1.121-4.532,8.961,8.961,0,0,1,1.14-4.516A8.213,8.213,0,0,1,38.627,8.3a9,9,0,0,1,8.4-.165,6.7,6.7,0,0,1,2.758,2.514V8.6a.967.967,0,0,1,.313-.728A1.1,1.1,0,0,1,50.889,7.576ZM43.241,22.959a6.584,6.584,0,0,0,3.438-.91,6.4,6.4,0,0,0,2.39-2.514,7.447,7.447,0,0,0,.864-3.589,7.216,7.216,0,0,0-.864-3.507,6.428,6.428,0,0,0-2.39-2.5,6.584,6.584,0,0,0-3.438-.91,6.678,6.678,0,0,0-3.438.893,6.34,6.34,0,0,0-2.39,2.465,7.257,7.257,0,0,0-.864,3.556,7.578,7.578,0,0,0,.846,3.589,6.269,6.269,0,0,0,2.372,2.514A6.654,6.654,0,0,0,43.241,22.959ZM66.627,7.179q3.42,0,5.019,1.8a6.937,6.937,0,0,1,1.6,4.78v9.726a.893.893,0,0,1-.331.711,1.156,1.156,0,0,1-.772.281,1.137,1.137,0,0,1-.791-.281.915.915,0,0,1-.313-.711V13.861a5.046,5.046,0,0,0-1.2-3.49,4.706,4.706,0,0,0-3.7-1.34,6.992,6.992,0,0,0-3,.662,6.275,6.275,0,0,0-2.3,1.77,3.774,3.774,0,0,0-.882,2.4v9.627a.915.915,0,0,1-.313.711,1.252,1.252,0,0,1-1.581,0,.915.915,0,0,1-.313-.711V8.667a.915.915,0,0,1,.313-.711,1.252,1.252,0,0,1,1.581,0,.915.915,0,0,1,.313.711v1.819a7.544,7.544,0,0,1,2.85-2.365A8.315,8.315,0,0,1,66.627,7.179ZM93.91,22.727a1.046,1.046,0,0,1,.331.761.849.849,0,0,1-.386.711,1.246,1.246,0,0,1-.717.281,1.052,1.052,0,0,1-.809-.364L84.2,16.375l-2.758,2.117v5a.915.915,0,0,1-.313.711,1.252,1.252,0,0,1-1.581,0,.915.915,0,0,1-.313-.711V.992a.915.915,0,0,1,.313-.711,1.252,1.252,0,0,1,1.581,0,.915.915,0,0,1,.313.711V16.078L92.071,7.84a1.058,1.058,0,0,1,.772-.331,1.045,1.045,0,0,1,.735.314.928.928,0,0,1,.331.678,1.035,1.035,0,0,1-.4.761l-7.575,5.789Zm3.53-.926a1.379,1.379,0,0,1-.294-.728.721.721,0,0,1,.478-.662.846.846,0,0,1,.588-.2,1.184,1.184,0,0,1,.809.331,7.163,7.163,0,0,0,5.773,2.58,6.094,6.094,0,0,0,3.07-.744,2.362,2.362,0,0,0,1.305-2.167,2.255,2.255,0,0,0-1.213-2.084,12.634,12.634,0,0,0-3.383-1.191,15.214,15.214,0,0,1-4.78-1.8,3.627,3.627,0,0,1-1.728-3.259,3.83,3.83,0,0,1,.846-2.431,5.506,5.506,0,0,1,2.3-1.671,8.61,8.61,0,0,1,3.291-.6,9.8,9.8,0,0,1,3.181.546,6.749,6.749,0,0,1,2.739,1.737.759.759,0,0,1,.331.662.876.876,0,0,1-.368.695,1.053,1.053,0,0,1-.662.2.964.964,0,0,1-.662-.265,5.829,5.829,0,0,0-2.1-1.356,7.259,7.259,0,0,0-2.611-.463,5.718,5.718,0,0,0-2.96.728,2.357,2.357,0,0,0,.11,4.2,15.072,15.072,0,0,0,3.732,1.257,18.894,18.894,0,0,1,3.162.959,5.234,5.234,0,0,1,2.041,1.489,3.879,3.879,0,0,1,.791,2.547,3.928,3.928,0,0,1-1.912,3.424,8.371,8.371,0,0,1-4.743,1.274A9.02,9.02,0,0,1,97.44,21.8ZM116.266,18a.72.72,0,0,1-.772-.695l-.4-14.622a1.535,1.535,0,0,1,.294-.992,1.067,1.067,0,0,1,.882-.364,1.046,1.046,0,0,1,.882.38,1.4,1.4,0,0,1,.257.976L117,17.3A.653.653,0,0,1,116.266,18Zm-.11,6.484a1.349,1.349,0,0,1-.993-.331,1.252,1.252,0,0,1-.331-.926V22.5a1.252,1.252,0,0,1,.331-.926,1.349,1.349,0,0,1,.993-.331h.221a1.3,1.3,0,0,1,.956.331,1.252,1.252,0,0,1,.331.926v.728a1.252,1.252,0,0,1-.331.926,1.3,1.3,0,0,1-.956.331Z" transform="translate(198.501 71.58) rotate(-7)" fill="#707070"/></g></svg>