<svg xmlns="http://www.w3.org/2000/svg" viewBox="0 0 47.18 47.18"><defs><style>.cls-1{fill:#fabd00;}.cls-2{fill:#fff;}</style></defs><g id="レイヤー_2" data-name="レイヤー 2"><g id="レイヤー_6" data-name="レイヤー 6"><rect class="cls-1" width="47.18" height="47.18"/><polygon class="cls-2" points="6.32 5.42 3.87 5.42 3.87 4.1 7.99 4.1 7.99 5.23 6.09 13.1 4.43 13.1 6.32 5.42"/><path class="cls-2" d="M23.61,33.49a3.61,3.61,0,0,1-1.08-7.06v1.34a2.39,2.39,0,0,0-1.29,2.11,2.37,2.37,0,1,0,3.44-2.11V26.43a3.61,3.61,0,0,1-1.07,7.06m-.52-7.76a.52.52,0,0,1,1,0v2.39a.52.52,0,0,1-1,0ZM23.61,23a6.95,6.95,0,1,0,6.94,6.94A6.95,6.95,0,0,0,23.61,23"/><path class="cls-2" d="M15.63,29.87a.59.59,0,0,0-.53-.57h-3a.59.59,0,0,0-.54.57.58.58,0,0,0,.54.57h3a.58.58,0,0,0,.53-.57"/><path class="cls-2" d="M35.7,29.87a.59.59,0,0,0-.54-.57h-3a.59.59,0,0,0-.54.57.59.59,0,0,0,.54.57h3a.58.58,0,0,0,.54-.57"/><path class="cls-2" d="M23.61,42a.59.59,0,0,0,.57-.53v-3a.59.59,0,0,0-.57-.54.58.58,0,0,0-.57.54v3a.58.58,0,0,0,.57.53"/><path class="cls-2" d="M34.1,35.88a.57.57,0,0,0-.18-.76l-2.64-1.51a.58.58,0,0,0-.75.22.59.59,0,0,0,.18.77l2.64,1.51a.6.6,0,0,0,.75-.23"/><path class="cls-2" d="M17.6,40.37a.58.58,0,0,0,.76-.19l1.51-2.64a.57.57,0,0,0-.22-.74.59.59,0,0,0-.77.18l-1.51,2.64a.6.6,0,0,0,.23.75"/><path class="cls-2" d="M29.63,40.35a.56.56,0,0,0,.23-.74L28.35,37a.59.59,0,0,0-.77-.18.58.58,0,0,0-.22.75l1.51,2.63a.57.57,0,0,0,.76.18"/><path class="cls-2" d="M13.13,35.9a.58.58,0,0,0,.75.23l2.63-1.52a.57.57,0,0,0-.57-1l-2.63,1.52a.58.58,0,0,0-.18.76"/><path class="cls-2" d="M23.61,21.9a.59.59,0,0,0,.57-.54v-3a.59.59,0,0,0-.57-.54.58.58,0,0,0-.57.54v3a.58.58,0,0,0,.57.54"/><path class="cls-2" d="M16.69,25.91a.59.59,0,0,0-.18-.76l-2.64-1.51a.57.57,0,0,0-.75.23.58.58,0,0,0,.18.76l2.64,1.51a.58.58,0,0,0,.75-.23"/><path class="cls-2" d="M27.57,23a.58.58,0,0,0,.76-.18l1.51-2.64a.57.57,0,0,0-1-.57L27.34,22.2a.58.58,0,0,0,.23.75"/><path class="cls-2" d="M19.63,23a.58.58,0,0,0,.23-.75l-1.52-2.63a.58.58,0,0,0-.76-.19.6.6,0,0,0-.23.75l1.52,2.64a.58.58,0,0,0,.76.18"/><path class="cls-2" d="M30.52,25.9a.6.6,0,0,0,.75.23l2.64-1.52a.57.57,0,0,0-.57-1L30.7,25.14a.57.57,0,0,0-.18.76"/><polygon class="cls-2" points="11.67 7.73 11.67 7.26 12.69 7.26 12.69 5.49 11.84 5.49 11.84 5.03 13.96 5.03 13.96 5.49 13.11 5.49 13.11 7.26 14.14 7.26 14.14 7.73 11.67 7.73"/><path class="cls-2" d="M16.9,7.27a4.08,4.08,0,0,0-.68-.79l.23-.36a3,3,0,0,1,.72.74ZM15.94,5a3.5,3.5,0,0,0-.63-.48c.07-.14.13-.27.2-.4a3.16,3.16,0,0,1,.68.49c-.08.13-.16.26-.25.39m.14,1.41v.49c0,.38,0,.75,0,1.12h-.41c0-.41,0-.81,0-1.22a2.87,2.87,0,0,1-.81.56,4.27,4.27,0,0,0-.29-.41,2.56,2.56,0,0,0,1.46-1.37c-.36,0-.73,0-1.1.07,0-.18,0-.35,0-.52.47,0,1,0,1.42,0a.69.69,0,0,0,.2,0l.12.23a7.8,7.8,0,0,1-.59,1.11"/><path class="cls-2" d="M19.59,7.57a6,6,0,0,1-.53.34c-.08-.08-.17-.15-.25-.24a.78.78,0,0,0,0-.22V6.89c0-.7,0-1.41,0-2.11l.45.07a.07.07,0,0,1,0,.06.09.09,0,0,1-.05.07v.58c0,.55,0,1.12,0,1.67A3,3,0,0,0,20,6.55l.19-.27,0,0s0,0,0,0a5.32,5.32,0,0,0,.06.56,3.45,3.45,0,0,1-.67.7M18.41,5.05A4.94,4.94,0,0,1,18,7.63a1.29,1.29,0,0,1-.31.38L17.4,7.7A2.12,2.12,0,0,0,18,5.91c0-.34,0-.69,0-1l.42.06a0,0,0,0,1,0,0,.1.1,0,0,1,0,.07"/><path class="cls-2" d="M23.24,5A7.19,7.19,0,0,0,23,4.21l.29-.12a5,5,0,0,1,.2.69Zm-.5.11a5.46,5.46,0,0,0-.21-.72l.31-.13c.07.22.13.45.18.68Zm-.47,1.79c0,.42,0,.82.07,1.24-.14,0-.28,0-.41,0,0-.41,0-.82-.05-1.24l-1.07,0V6.47H21c.28,0,.55,0,.82,0,0-.24,0-.47,0-.71l-.73,0c0-.16,0-.32,0-.47.24,0,.48,0,.72,0,0-.26,0-.51-.05-.77l.44.06a.06.06,0,0,1,.05.06.1.1,0,0,1-.05.08c0,.19,0,.38,0,.56A5,5,0,0,0,23,5.22c0,.17,0,.33,0,.48h-.74l0,.71c.35,0,.69,0,1-.07v.47l-1,0"/><path class="cls-2" d="M26.33,6.61h-.51c-.18,0-1.42,0-1.85,0,0-.17,0-.38,0-.5s0-.07,0-.07a.88.88,0,0,0,.2,0h.67l1.48,0c0,.17,0,.38,0,.54"/><path class="cls-2" d="M29.36,6.29l0,0a7.55,7.55,0,0,0-.81.39V7.3h-.35V6.87a.59.59,0,0,0-.35.5c0,.16.14.25.4.25a2.23,2.23,0,0,0,.86-.17v.49a2.14,2.14,0,0,1-.74.12c-.58,0-.86-.22-.86-.67a.92.92,0,0,1,.24-.6,2.17,2.17,0,0,1,.44-.35c0-.19-.05-.29-.13-.29a.41.41,0,0,0-.31.16l-.22.28-.22.3L27,6.55a3,3,0,0,0,.73-1.13c-.15,0-.32,0-.51.06,0-.16,0-.31,0-.44a4.27,4.27,0,0,0,.68,0A4.92,4.92,0,0,0,28,4.43l.4.11a0,0,0,0,1,0,0s0,0,0,.07a2.91,2.91,0,0,1-.08.32,4.7,4.7,0,0,0,.55-.16l0,.46c-.17,0-.38.09-.65.13a2.19,2.19,0,0,1-.19.42.43.43,0,0,1,.17,0c.18,0,.3.14.35.44.24-.15.5-.3.8-.46l.13.47s0,0,0,0"/><path class="cls-2" d="M30.21,7c0,.11,0,.21.11.21a.15.15,0,0,0,.14-.08,2.45,2.45,0,0,0,.26-.64.51.51,0,0,0-.51.51m2.15.41A4.67,4.67,0,0,0,32,7a2.34,2.34,0,0,1-.65,1.06L31,7.82a1.9,1.9,0,0,0,.64-1,1.81,1.81,0,0,0-.56-.27,3.66,3.66,0,0,1-.15.43c-.14.35-.33.7-.64.69s-.44-.3-.43-.67a.89.89,0,0,1,.6-.87,1,1,0,0,1,.38,0c.07-.3.18-.71.26-1l-.66,0,0-.46h0a3.79,3.79,0,0,0,1.07,0l.12.22a6.52,6.52,0,0,0-.25.7c-.06.2-.11.4-.17.6a2,2,0,0,1,.55.23,4.15,4.15,0,0,0,.12-.87c.12.1.24.2.35.31a6.51,6.51,0,0,1-.13.77,4.29,4.29,0,0,1,.45.33l-.18.49"/><path class="cls-2" d="M34.67,8c-.42,0-.38-.49-.39-.88V6.7c0-.11,0-.25-.11-.25l-.08,0c-.48.15-.66,1-.8,1.48l-.37-.23c.12-.4.27-.79.42-1.18s.33-.87.5-1.31c.09-.24.18-.49.28-.73a3.18,3.18,0,0,1,.4.23s0,0,0,0a.06.06,0,0,1-.06.05c-.21.41-.39.84-.59,1.26a1.17,1.17,0,0,1,0,.11A.82.82,0,0,1,34.26,6c.3,0,.39.26.4.61s0,.41,0,.62,0,.25.12.25a.5.5,0,0,0,.36-.22,1.93,1.93,0,0,0,.27-.49c.05.19.11.38.15.58a1,1,0,0,1-.88.57"/><path class="cls-2" d="M38.41,5.8a1.73,1.73,0,0,0-.74-.37l.17-.4a1.69,1.69,0,0,1,.77.38Zm-.88,1.41a.33.33,0,0,0-.22-.06c-.12,0-.28,0-.29.21a.3.3,0,0,0,.29.3c.12,0,.2,0,.22-.19V7.21m.77.65a4.55,4.55,0,0,0-.4-.46.71.71,0,0,0,0,.14.48.48,0,0,1-.57.5A1.11,1.11,0,0,1,37,8a.66.66,0,0,1-.35-.61.55.55,0,0,1,.61-.58,1.09,1.09,0,0,1,.25,0c0-.19,0-.38,0-.57a1.26,1.26,0,0,1,0-.28h.29S38,6,38,6V6a.5.5,0,0,0-.06.24c0,.22,0,.44,0,.66a2.53,2.53,0,0,1,.65.54,3.77,3.77,0,0,1-.26.39m-.91-2.47L37,5.46a8.41,8.41,0,0,1-.69,1.78A3.15,3.15,0,0,1,35.94,7a7,7,0,0,0,.64-1.56,4.18,4.18,0,0,1-.5,0c0-.14,0-.28,0-.42a.76.76,0,0,0,.16,0,2.07,2.07,0,0,0,.43,0,4.78,4.78,0,0,0,.09-.63l.44,0a5.13,5.13,0,0,1-.14.6A1.75,1.75,0,0,0,37.45,5l-.06.42"/><path class="cls-2" d="M16.4,13a1.18,1.18,0,0,1-.79.28c-.42,0-.68-.33-.71-.9v-.24c0-.21,0-.43,0-.66,0-.52,0-1.05,0-1.57l.28.06.12,0s.05,0,.05.06a.07.07,0,0,1-.05.07c0,.71-.06,1.42-.06,2.13,0,.36.12.58.4.58A.63.63,0,0,0,16,12.7a1.59,1.59,0,0,0,.6-.85l.22.53a1.88,1.88,0,0,1-.46.6"/><path class="cls-2" d="M19.36,10.48h0a.94.94,0,0,0-.4.07,1.47,1.47,0,0,0-.68,1.26c0,.84.51,1,1,1,0,.16-.05.32-.09.48h-.06a1.26,1.26,0,0,1-.62-.17,1.5,1.5,0,0,1-.6-1.31,2.3,2.3,0,0,1,.39-1.23c-.34,0-.68.07-1,.13,0-.16,0-.32,0-.48A13.06,13.06,0,0,0,19,10a2,2,0,0,0,.41-.1c0,.07,0,.47,0,.5a0,0,0,0,1,0,0"/><path class="cls-2" d="M22.39,10.79c-.05.16-.09.33-.15.49a4.2,4.2,0,0,1-.76,1.42,2.76,2.76,0,0,1-.84.67L20.31,13a3,3,0,0,0,.49-.29,2.56,2.56,0,0,0,.54-.55,3.71,3.71,0,0,0,.58-1.29h-.71a4.51,4.51,0,0,1-.68,1c-.09-.11-.19-.23-.29-.33a4,4,0,0,0,.93-1.82l.4.19a.07.07,0,0,1,0,.06.06.06,0,0,1-.06.06,3.82,3.82,0,0,1-.13.36h.76a.44.44,0,0,0,.16,0c0,.08.08.15.11.22s0,.15-.06.21"/><path class="cls-2" d="M25,10.21V11a3.56,3.56,0,0,1-.38,2,1.6,1.6,0,0,1-.43.43c-.11-.09-.23-.2-.35-.28a1.64,1.64,0,0,0,.4-.39,2.57,2.57,0,0,0,.34-1.56c0-.37,0-.74,0-1.11l.45.05s0,0,0,.06a.1.1,0,0,1,0,.08m-1.27,0V12h-.43c0-.1,0-.21,0-.3v-.6c0-.36,0-.71,0-1.07l.46.05a0,0,0,0,1,0,0s0,.06-.05.08"/><path class="cls-2" d="M28.14,11.8h-.5c-.18,0-1.38,0-1.81,0,0-.16,0-.37,0-.49s0-.07,0-.06.17,0,.2,0c.21,0,.61,0,.84,0h1.26c0,.16,0,.36,0,.52"/><path class="cls-2" d="M29.46,11.14a4.48,4.48,0,0,0-.6-.81c.12-.12.23-.25.34-.38a3.61,3.61,0,0,1,.57.8,2.42,2.42,0,0,1-.31.39m.07,1.75a2.79,2.79,0,0,1-.53.24c0-.06-.2-.55-.2-.55h0l.13,0A2.87,2.87,0,0,0,29.9,12,5.75,5.75,0,0,0,31,10.88c0,.21.05.43.08.64a5.23,5.23,0,0,1-1.55,1.37"/><path class="cls-2" d="M34.32,10.73a2.23,2.23,0,0,0-.73-.05,3.06,3.06,0,0,0-.51.1c0-.15,0-.34,0-.49a4.45,4.45,0,0,1,.72-.1,3,3,0,0,1,.6,0c0,.16,0,.33,0,.5M34.44,13a1.91,1.91,0,0,1-.58,0c-.45,0-.87-.1-.93-.86.11-.09.21-.19.32-.27,0,.43.19.63.48.64a1.73,1.73,0,0,0,.71-.1V13m-2,.2-.35.05a6,6,0,0,1-.16-1.59,11.91,11.91,0,0,1,.16-1.79l.28.07.13,0s0,0,0,0a.06.06,0,0,1-.05.06,8.8,8.8,0,0,0-.19,1.85c0,.16,0,.3,0,.46.06-.19.11-.39.17-.58l.24.25a4.16,4.16,0,0,0-.28,1.13"/><path class="cls-2" d="M41.6,5.42a2.11,2.11,0,0,0-.71,0,2.13,2.13,0,0,0-.49.1c0-.15,0-.34,0-.49a4.07,4.07,0,0,1,.7-.1,2.88,2.88,0,0,1,.58,0c0,.16,0,.33,0,.5m.12,2.26a2.13,2.13,0,0,1-.56,0c-.44,0-.86-.09-.91-.86l.32-.27c0,.44.17.63.46.64a1.77,1.77,0,0,0,.69-.09v.55m-2,.24-.34,0a6,6,0,0,1-.16-1.59,11.66,11.66,0,0,1,.16-1.78l.27.07a.33.33,0,0,1,.13,0,0,0,0,0,1,0,0,.06.06,0,0,1,0,.06,8.73,8.73,0,0,0-.18,1.85v.45c.06-.19.11-.38.17-.57l.23.24a4.15,4.15,0,0,0-.27,1.13"/><path class="cls-2" d="M13.08,11.54a.94.94,0,0,0-.26.85c.06.38.49.42.71.41h.22c0,.15-.07.29-.1.44h-.06c-.44,0-1.07-.06-1.14-.79a1.42,1.42,0,0,1,.24-1,6.9,6.9,0,0,0-1.08.29c0-.14,0-.29-.08-.43a3,3,0,0,0,.57-.16,4.61,4.61,0,0,0,.73-.83,4.72,4.72,0,0,1-.65,0c0-.13,0-.27,0-.41a4,4,0,0,0,1,0,1.22,1.22,0,0,0,.24-.1c.07.12.13.24.19.37a8.09,8.09,0,0,0-.92.93c.45-.07.91-.13,1.37-.17v.47a1.49,1.49,0,0,0-.95.14"/></g></g></svg>