<svg xmlns="http://www.w3.org/2000/svg" xmlns:xlink="http://www.w3.org/1999/xlink" viewBox="0 0 22.68 22.68"><defs><style>.cls-1{fill:none;}.cls-2{clip-path:url(#clip-path);}.cls-3{fill:#aecdd0;}.cls-4{fill:#fff;}</style><clipPath id="clip-path" transform="translate(0 0)"><rect class="cls-1" width="22.68" height="22.68"/></clipPath></defs><g id="レイヤー_2" data-name="レイヤー 2"><g id="レイヤー_1-2" data-name="レイヤー 1"><g class="cls-2"><path class="cls-3" d="M11.34,22.68A11.34,11.34,0,1,0,0,11.34,11.34,11.34,0,0,0,11.34,22.68" transform="translate(0 0)"/></g><path class="cls-4" d="M11.69,6.17c-3.19,0-5.77,2.13-5.77,4.76A4.27,4.27,0,0,0,7.26,14l-1.34,2.9,3-1.77a6.76,6.76,0,0,0,2.77.58c3.18,0,5.77-2.13,5.77-4.76s-2.59-4.76-5.77-4.76M8.88,11.68a.77.77,0,0,1-.5-.2.78.78,0,0,1,.5-1.37A.78.78,0,0,1,9,11.67H8.88m2.83,0a.78.78,0,0,1-.77-.79.77.77,0,1,1,.77.79m2.82,0a.78.78,0,0,1-.77-.79.77.77,0,1,1,1.54,0,.79.79,0,0,1-.77.79" transform="translate(0 0)"/></g></g></svg>