<svg xmlns="http://www.w3.org/2000/svg" viewBox="0 0 47.18 47.18"><defs><style>.cls-1{fill:#28a838;}.cls-2{fill:#fff;}</style></defs><g id="レイヤー_2" data-name="レイヤー 2"><g id="レイヤー_6" data-name="レイヤー 6"><rect class="cls-1" width="47.18" height="47.18"/><path class="cls-2" d="M4,5.88a5.17,5.17,0,0,1-.71.28c-.31.1-.5.17-.59.21V5.09a6.13,6.13,0,0,0,.92-.44A2.92,2.92,0,0,0,4.4,4.1H5.75v9H4Z"/><path class="cls-2" d="M7.62,12.92a1.69,1.69,0,0,1-.7-.93,5.27,5.27,0,0,1-.19-1.5H8.4a3.41,3.41,0,0,0,.14,1.13.57.57,0,0,0,.57.35.59.59,0,0,0,.49-.22,1.29,1.29,0,0,0,.19-.61,10.5,10.5,0,0,0,0-1.11,3.74,3.74,0,0,0-.15-1.22.59.59,0,0,0-.61-.41c-.4,0-.66.27-.77.81H6.82L6.94,4.1h4.15V5.58H8.35l-.1,2a1.24,1.24,0,0,1,.54-.32,2.64,2.64,0,0,1,.81-.12A1.53,1.53,0,0,1,11,7.87,3.93,3.93,0,0,1,11.45,10a6.79,6.79,0,0,1-.19,1.77,2,2,0,0,1-.71,1.11,2.43,2.43,0,0,1-1.51.4,2.62,2.62,0,0,1-1.42-.32"/><rect class="cls-2" x="18.02" y="31.94" width="1.61" height="3.66" rx="0.1"/><path class="cls-2" d="M34.86,37.08h-23a.11.11,0,0,0-.11.11v1.4a.11.11,0,0,0,.11.11h23a.11.11,0,0,0,.1-.11v-1.4a.11.11,0,0,0-.1-.11"/><path class="cls-2" d="M34.86,39.88h-23a.1.1,0,0,0-.11.1v1.41a.1.1,0,0,0,.11.1h23a.1.1,0,0,0,.1-.1V40a.1.1,0,0,0-.1-.1"/><path class="cls-2" d="M30.48,28.12a3.39,3.39,0,0,0-2-.75,2.65,2.65,0,0,0-1.85.78.21.21,0,0,0-.07.15v.12a.24.24,0,0,0,.07.16.19.19,0,0,0,.16,0h.05a.28.28,0,0,0,.11-.08,1.87,1.87,0,0,1,.92-.19,3.48,3.48,0,0,1,2.38,1h0a.25.25,0,0,0,.2.09.27.27,0,0,0,.19-.08l0,0a3.48,3.48,0,0,1,2.37-1,1.89,1.89,0,0,1,.93.19.24.24,0,0,0,.13.08.25.25,0,0,0,.13,0,.19.19,0,0,0,.14-.19v-.11a.2.2,0,0,0-.06-.15,2.68,2.68,0,0,0-1.87-.8,3.29,3.29,0,0,0-2,.75"/><path class="cls-2" d="M29.05,18.94a.19.19,0,0,0-.1.13l0,.07a.28.28,0,0,0,0,.18.21.21,0,0,0,.15.07h0l.11,0a.33.33,0,0,1,.14,0A2,2,0,0,1,31,20.42v0a.23.23,0,0,0,.15.12h.07a.2.2,0,0,0,.11,0h0a2.27,2.27,0,0,1,1-.25,1.57,1.57,0,0,1,1.05.33.16.16,0,0,0,.07.09l.08,0h0l.09,0a.17.17,0,0,0,.1-.12l0-.07a.07.07,0,0,0,0-.05.17.17,0,0,0,0-.1,1.72,1.72,0,0,0-1.56-.94,2.34,2.34,0,0,0-.83.16,1.83,1.83,0,0,0-2.41-.66"/><path class="cls-2" d="M24.18,22.49v.1a.19.19,0,0,0,.09.15.23.23,0,0,0,.16,0h0a.25.25,0,0,0,.1-.08,1.69,1.69,0,0,1,.88-.2,2.85,2.85,0,0,1,1.82.69v0a.31.31,0,0,0,.18.07h0a.28.28,0,0,0,.18-.09l0,0a2.75,2.75,0,0,1,2-.93,1.29,1.29,0,0,1,.6.11.23.23,0,0,0,.12.06h.09l.05,0a.19.19,0,0,0,.13-.19V22.1A.17.17,0,0,0,30.6,22a2.28,2.28,0,0,0-1.47-.58,2.74,2.74,0,0,0-1.72.71,3,3,0,0,0-1.54-.51,2.2,2.2,0,0,0-1.63.76.2.2,0,0,0-.06.15"/><path class="cls-2" d="M12.54,24.33A2.49,2.49,0,0,1,15,21.84h.16a3.38,3.38,0,0,1,6.74.26,3.28,3.28,0,0,1-.34,1.47A3.78,3.78,0,0,1,20.77,31l-5,0a2.67,2.67,0,0,1-2.67-2.67,2.64,2.64,0,0,1,.72-1.83,2.49,2.49,0,0,1-1.25-2.17"/><path class="cls-2" d="M19.42,5.85a1.83,1.83,0,0,0-.08.57c0,.17,0,.61.2.61s.12-.08.16-.13a4,4,0,0,0,.45-1.79,1.19,1.19,0,0,0-.73.74m1.12,1.92-.29-.37a1.12,1.12,0,0,0,1-1.17,1.09,1.09,0,0,0-.66-1.13,4,4,0,0,1-.75,2.28.43.43,0,0,1-.29.13.45.45,0,0,1-.34-.24,1.6,1.6,0,0,1-.2-.85,1.57,1.57,0,0,1,1.39-1.73c.7,0,1.26.54,1.26,1.51a1.5,1.5,0,0,1-1.08,1.57"/><path class="cls-2" d="M24.63,5.3h-.32v.21h.32Zm0-.47h-.32V5h.32ZM24,5.3h-.29v.21H24Zm0-.47h-.29V5H24ZM23.38,7.2c0,.12.08.24.11.37h.62l.11-.37Zm1.13-.53H23.12v.24h1.39ZM23.32,5.3H23v.21h.31Zm0-.47H23V5h.31Zm-.68,1V4.53h.67V4.22l.37,0a.05.05,0,0,1,.05,0,.07.07,0,0,1-.06.07v.17H24V4.22l.36,0a.06.06,0,0,1,.06,0,.07.07,0,0,1-.06.07v.17H25V5.78Zm-.27.14h2.89v.33H22.37Zm0,2V7.57h.78c-.05-.09-.11-.18-.17-.27a1,1,0,0,1,.17-.1h-.38V6.38H24.9V7.2h-.4l.15.06s0,0,0,0a.07.07,0,0,1-.07.06c0,.07-.08.15-.12.21h.81V7.9Z"/><path class="cls-2" d="M28.4,6.78a4.15,4.15,0,0,0-.24-.34c.1,0,.35-.07.35-.23a1.94,1.94,0,0,0-.49-.9l.36-.24a2.34,2.34,0,0,1,.56,1.21c0,.32-.33.43-.54.5m-.85.76a.49.49,0,0,1-.38.12.93.93,0,0,1-.33-.07c0-.16,0-.31,0-.47a.74.74,0,0,0,.37.12c.28,0,.27-.91.27-1.14s0-.46-.19-.46a1.2,1.2,0,0,0-.2,0,8.07,8.07,0,0,1-.73,2l-.39-.21a5.69,5.69,0,0,0,.69-1.71,3.57,3.57,0,0,0-.47.11c0-.05-.1-.42-.1-.44a0,0,0,0,1,0,0h.09a3.19,3.19,0,0,0,.54-.07,6.32,6.32,0,0,0,.13-1l.31.09.14,0s0,0,0,0,0,0-.05.05c0,.23-.08.46-.14.68l.2,0a.42.42,0,0,1,.46.34,2.56,2.56,0,0,1,.06.62,2.29,2.29,0,0,1-.3,1.31"/><path class="cls-2" d="M31.13,5.38c.22.42.42.85.62,1.27l-.3.29a1.28,1.28,0,0,0-.87-.43.42.42,0,0,0-.47.39c0,.41.43.45.68.45a2.86,2.86,0,0,0,.58-.06c0,.15,0,.29,0,.44a3.26,3.26,0,0,1-.54,0c-.47,0-1.1-.09-1.1-.83,0-.59.44-.75.86-.75a1.78,1.78,0,0,1,.55.1c-.06-.14-.12-.28-.19-.42l-.17-.33a5.36,5.36,0,0,1-1,.26c0-.15-.1-.28-.14-.42a3.23,3.23,0,0,0,1-.2,4.61,4.61,0,0,0-.33-.58,0,0,0,0,1,0,0,.06.06,0,0,1,0,0l.39-.15c.13.21.23.43.35.66a4.12,4.12,0,0,0,.63-.39c.07.14.13.29.19.43a3.78,3.78,0,0,1-.63.33"/><path class="cls-2" d="M16.25,12.45a6.41,6.41,0,0,0-.68-.7c.1-.11.19-.22.29-.32a7.65,7.65,0,0,1,.65.74ZM17.7,10.7v-.53h-2v.52H15.3v-.9h1.16V9.3l.43,0a0,0,0,0,1,.05.05s0,0-.05.06v.34h1.22v.91Zm-.34.62v.77c0,.64-.17.87-.71.95l-.24-.34c.38,0,.55-.11.55-.61,0-.26,0-.52,0-.77h-1.8v-.39H17v-.57l.41,0s.06,0,.06,0a.09.09,0,0,1-.06.07v.42h.89v.39Z"/><path class="cls-2" d="M20,13a2.27,2.27,0,0,0-.19-.34l0,0s0,0,0,0a3,3,0,0,0,.51-.07.77.77,0,0,0,.69-.77.51.51,0,0,0-.57-.56,1.19,1.19,0,0,0-.91.57c-.13.18-.26.37-.38.56L18.8,12a13.52,13.52,0,0,0,1-1.36,3.55,3.55,0,0,0,.3-.54l-.27.08-.5.13c0-.16-.05-.32-.08-.48a7.57,7.57,0,0,0,1.14-.2l.24-.07a2.62,2.62,0,0,1,.21.34s0,.05-.06.06a6.65,6.65,0,0,0-.71.93,1.76,1.76,0,0,1,.45-.07.9.9,0,0,1,.95,1c0,.86-.88,1.14-1.47,1.18"/><path class="cls-2" d="M23.73,10.18a5.8,5.8,0,0,0-1-.37c.07-.14.13-.29.19-.43a3.72,3.72,0,0,1,1,.37c-.07.14-.14.29-.22.43m-.6,2.92c-.13-.12-.26-.24-.4-.35a1.65,1.65,0,0,0,1-.7,1.23,1.23,0,0,0,.14-.6c0-.36-.12-.56-.44-.56a2.75,2.75,0,0,0-1,.43c0-.06-.19-.48-.19-.51s0,0,0,0a1.73,1.73,0,0,0,.43-.12,2.53,2.53,0,0,1,.81-.2c.55,0,.8.43.8,1a1.74,1.74,0,0,1-1.21,1.6"/><path class="cls-2" d="M15.53,5.54V6.75a.64.64,0,0,0,.31-.58.73.73,0,0,0-.31-.63m0-.84v.8c.1-.26.2-.53.28-.8Zm2.65,1.73a2,2,0,0,1-.48.05.78.78,0,0,1-.34-.05.08.08,0,0,1-.06.08v.32H18v.32H17.3v.38h.86v.33H16V7.53h.9V7.15h-.69V6.83h.68V6.35l.4,0a.38.38,0,0,1-.12-.31V5.7h-.24a1.43,1.43,0,0,1-.55,1l-.22-.18a.94.94,0,0,1-.39.57l-.25-.26V7.92h-.39V4.35h1.09v.32c-.12.25-.23.5-.36.75a1,1,0,0,1,.33.81.77.77,0,0,1,0,.15,1,1,0,0,0,.4-.68h-.44V5.35h.76V5h-.62V4.66h.62V4.24l.41,0a.05.05,0,0,1,.05.05.07.07,0,0,1-.05.07v.27H18V5H17.3v.35h.84V5.7h-.6v.23c0,.19.06.22.21.22A1.14,1.14,0,0,0,18.22,6Z"/><path class="cls-2" d="M34.25,7.84a.83.83,0,0,1-1-.85,2.64,2.64,0,0,1,0-.29c-.25-.09-.59-.21-.6-.58a1.49,1.49,0,0,1,.15-.52l.39.1a.76.76,0,0,0-.17.35c0,.14.2.21.3.23,0-.32.12-.64.17-1l-.18.24a6.09,6.09,0,0,0-.55-.48,3.87,3.87,0,0,1,.24-.37,5.47,5.47,0,0,1,.51.45,4.5,4.5,0,0,0,.11-.81l.34.08.14,0a.05.05,0,0,1,.05,0s-.05.08-.07.1l-.07.28L34,5.47c-.07.3-.14.6-.19.91.14,0,.28,0,.42,0l-.06.4a2.71,2.71,0,0,1-.41,0,1.09,1.09,0,0,0,0,.18.44.44,0,0,0,.5.47c.29,0,.43-.18.42-.51a1.69,1.69,0,0,0-.51-1c.13,0,.26-.12.38-.18A1.82,1.82,0,0,1,35.07,7a.78.78,0,0,1-.82.82"/></g></g></svg>