<svg xmlns="http://www.w3.org/2000/svg" xmlns:xlink="http://www.w3.org/1999/xlink" viewBox="0 0 22.68 22.68"><defs><style>.cls-1{fill:none;}.cls-2{clip-path:url(#clip-path);}.cls-3{fill:#1cb3ac;}.cls-4{fill:#fff;}</style><clipPath id="clip-path" transform="translate(0 0)"><rect class="cls-1" width="22.68" height="22.68"/></clipPath></defs><g id="レイヤー_2" data-name="レイヤー 2"><g id="レイヤー_1-2" data-name="レイヤー 1"><g class="cls-2"><path class="cls-3" d="M11.34,22.68A11.34,11.34,0,1,0,0,11.34,11.34,11.34,0,0,0,11.34,22.68" transform="translate(0 0)"/></g><path class="cls-4" d="M17.78,8.81a7.46,7.46,0,0,0-.51-.92,6.72,6.72,0,0,0-11.15,0,7.46,7.46,0,0,0-.51.92,6.58,6.58,0,0,0-.05,5.38,7,7,0,0,0,.5.93,6.71,6.71,0,0,0,11.27,0,7,7,0,0,0,.5-.93,6.62,6.62,0,0,0,.55-2.63,6.5,6.5,0,0,0-.6-2.75m-1.41-.39A9.36,9.36,0,0,1,14.31,9a8.77,8.77,0,0,0-1-2.83,5.67,5.67,0,0,1,3,2.22m-2.89,3.14c0,.42,0,.81-.05,1.19a16.77,16.77,0,0,0-3.47,0c0-.38-.05-.77-.05-1.19s0-.93.06-1.35a16,16,0,0,0,1.73.09,16,16,0,0,0,1.72-.09q.06.63.06,1.35m-1.78,5.6c-.4,0-1.24-1.18-1.61-3.38.51,0,1-.09,1.61-.09s1.09,0,1.6.09c-.36,2.2-1.21,3.38-1.6,3.38M11.7,6c.39,0,1.2,1.12,1.58,3.23a13.31,13.31,0,0,1-1.58.09,13.48,13.48,0,0,1-1.59-.09C10.49,7.07,11.31,6,11.7,6M10,6.2A8.77,8.77,0,0,0,9.08,9,9.36,9.36,0,0,1,7,8.42,5.67,5.67,0,0,1,10,6.2m-4,5.36a5.49,5.49,0,0,1,.47-2.22,10.33,10.33,0,0,0,2.42.73c0,.48-.07,1-.07,1.49s0,.9.06,1.34a10.14,10.14,0,0,0-2.47.75,5.6,5.6,0,0,1-.41-2.09m.9,3a9.08,9.08,0,0,1,2.11-.65,9.15,9.15,0,0,0,1,3A5.73,5.73,0,0,1,7,14.58m6.41,2.33a8.69,8.69,0,0,0,1-3,8.93,8.93,0,0,1,2.11.65,5.73,5.73,0,0,1-3.08,2.33m1.1-4c0-.44.06-.89.06-1.34s0-1-.07-1.49a10.42,10.42,0,0,0,2.43-.73,5.56,5.56,0,0,1,.05,4.31,10.14,10.14,0,0,0-2.47-.75" transform="translate(0 0)"/></g></g></svg>