<svg xmlns="http://www.w3.org/2000/svg" xmlns:xlink="http://www.w3.org/1999/xlink" viewBox="0 0 22.68 22.68"><defs><style>.cls-1{fill:none;}.cls-2{clip-path:url(#clip-path);}.cls-3{fill:#b61c26;}.cls-4{fill:#fff;}</style><clipPath id="clip-path" transform="translate(0 0)"><rect class="cls-1" width="22.67" height="22.68"/></clipPath></defs><g id="レイヤー_2" data-name="レイヤー 2"><g id="レイヤー_1-2" data-name="レイヤー 1"><g class="cls-2"><path class="cls-3" d="M11.34,22.68A11.34,11.34,0,1,0,0,11.34,11.34,11.34,0,0,0,11.34,22.68" transform="translate(0 0)"/></g><path class="cls-4" d="M17.26,16.61V9.67H13v6.94h-.6V5.36H6.21V16.61H5.76v.62H8.42V14.5h1.79v2.73h7.5v-.62Zm-1.7-6.23h1.1v1.29h-1.1Zm0,2.06h1.1v1.29h-1.1Zm0,2.06h1.1v1.29h-1.1Zm-1.82-4.12h1.1v1.29h-1.1Zm0,2.06h1.1v1.29h-1.1Zm0,2.06h1.1v1.29h-1.1ZM7,6.24H8V7.53H7ZM7,8.31H8V9.6H7Zm0,2.07H8v1.29H7Zm0,2.06H8v1.3H7Zm2.91,1.3H8.77v-1.3H9.86Zm0-2.07H8.77V10.38H9.86Zm0-2.07H8.77V8.31H9.86Zm0-2.07H8.77V6.24H9.86Zm.73-1.29h1.09V7.53H10.59Zm0,2.07h1.09V9.6H10.59Zm0,2.07h1.09v1.29H10.59Zm0,2.06h1.09v1.3H10.59Z" transform="translate(0 0)"/></g></g></svg>