<svg xmlns="http://www.w3.org/2000/svg" xmlns:xlink="http://www.w3.org/1999/xlink" viewBox="0 0 22.68 22.68"><defs><style>.cls-1{fill:none;}.cls-2{clip-path:url(#clip-path);}.cls-3{fill:#13327b;}.cls-4{fill:#fff;}</style><clipPath id="clip-path" transform="translate(0 0)"><rect class="cls-1" width="22.67" height="22.68"/></clipPath></defs><g id="レイヤー_2" data-name="レイヤー 2"><g id="レイヤー_1-2" data-name="レイヤー 1"><g class="cls-2"><path class="cls-3" d="M11.34,22.68A11.34,11.34,0,1,0,0,11.34,11.34,11.34,0,0,0,11.34,22.68" transform="translate(0 0)"/></g><path class="cls-4" d="M7.09,11.7v-.15a4.4,4.4,0,0,1,.06-.73l-2.35.75,2.36.76a4.34,4.34,0,0,1-.07-.63m7.24,2.92-.1.09c-.15.14-.32.28-.49.41l2.2,1.16L14.8,14.05a6.47,6.47,0,0,1-.47.57m-6.08-6,.09-.1a4.49,4.49,0,0,1,.46-.41L6.7,6.84,7.85,9.09a3.25,3.25,0,0,1,.4-.5m4.88,6.88-.43.18-.16,0,1,1.19-.14-1.53-.23.11M15.32,13a3.25,3.25,0,0,1-.18.43,1.86,1.86,0,0,1-.1.2l1.52.13-1.16-1a2.09,2.09,0,0,1-.08.23m-7.79.43c-.07-.14-.13-.28-.19-.43s0-.15-.07-.23l-1.16,1,1.51-.13-.09-.19M7.3,10.2a4.19,4.19,0,0,1,.2-.49c0-.06,0-.11.07-.16L6.1,9.35l1.16,1s0-.1,0-.15M9.48,7.67a3.3,3.3,0,0,1,.43-.19l.24-.08-1-1.19.13,1.55.19-.09m5.69,2a4.14,4.14,0,0,1,.19.49.88.88,0,0,1,.05.15l1.16-1-1.5.14.1.21m-3.83,6.17h0a4.39,4.39,0,0,1-.72-.07l.72,2.41.73-2.41a3.8,3.8,0,0,1-.59.06h-.13m-1.81-.41-.21-.11-.14,1.53,1-1.18L10,15.65l-.44-.18m-1.19-.85a5.08,5.08,0,0,1-.47-.57L6.73,16.28l2.2-1.16a5,5,0,0,1-.5-.42l-.09-.08m7.23-2.93a4.48,4.48,0,0,1-.06.64l2.36-.76-2.36-.75a4.4,4.4,0,0,1,.07.73h0s0,.08,0,.13M14.43,8.6a4.66,4.66,0,0,1,.39.49L16,6.84l-2.1,1.24a4.76,4.76,0,0,1,.47.41l.1.11m-3.1-1.38h.12a4.48,4.48,0,0,1,.64.07l-.76-2.42L10.58,7.3a4.53,4.53,0,0,1,.75-.08Zm1.86.45.19.09.13-1.54-.91,1.2.16.06a3.3,3.3,0,0,1,.43.19m0,7.09.08,0a3.59,3.59,0,0,0,.5-.37l.26-.26a4.09,4.09,0,0,0,.4-.53l0-.07.11-.19a3.58,3.58,0,0,0,.26-.64,1.24,1.24,0,0,0,0-.16.31.31,0,0,0,0-.08,3.4,3.4,0,0,0,.09-.64,1.55,1.55,0,0,0,0-.22V11.4a.61.61,0,0,1,0-.14,3,3,0,0,0-.08-.52s0-.05,0-.07a.93.93,0,0,0,0-.13,3.35,3.35,0,0,0-.29-.74,1,1,0,0,0-.08-.14l0-.06c-.11-.17-.23-.34-.35-.49l-.29-.29a3.24,3.24,0,0,0-.46-.37l-.06,0L13,8.26A3.71,3.71,0,0,0,12.39,8l-.14,0h0a4.08,4.08,0,0,0-.7-.11h-.37a3.4,3.4,0,0,0-.64.09l-.1,0-.15,0a3.71,3.71,0,0,0-.65.27l-.24.15-.06,0a3.17,3.17,0,0,0-.46.36l-.26.27a5.06,5.06,0,0,0-.42.58h0l-.08.13a3.92,3.92,0,0,0-.29.74l0,.13s0,0,0,.06a3.73,3.73,0,0,0-.09.67s0,.1,0,.15a2.28,2.28,0,0,0,0,.26,1,1,0,0,0,0,.17c0,.14,0,.29.07.43a.19.19,0,0,1,0,.08.75.75,0,0,1,0,.16,3.61,3.61,0,0,0,.27.64,1.18,1.18,0,0,0,.11.19l0,.06a3.56,3.56,0,0,0,.41.53,3.07,3.07,0,0,0,.25.26,3.75,3.75,0,0,0,.51.38l.07,0,.14.08a3.42,3.42,0,0,0,.65.27l.19.05.07,0a3.51,3.51,0,0,0,.65.09h.37a3.1,3.1,0,0,0,.61-.09h0l.19-.05a3.71,3.71,0,0,0,.65-.27l.13-.08" transform="translate(0 0)"/></g></g></svg>