<svg xmlns="http://www.w3.org/2000/svg" viewBox="0 0 47.18 47.18"><defs><style>.cls-1{fill:#d39200;}.cls-2{fill:#fff;}</style></defs><g id="レイヤー_2" data-name="レイヤー 2"><g id="レイヤー_6" data-name="レイヤー 6"><rect class="cls-1" width="47.18" height="47.18"/><path class="cls-2" d="M4.05,5.88a6.31,6.31,0,0,1-.72.28,5.32,5.32,0,0,0-.58.21V5.09a6.59,6.59,0,0,0,.91-.44,2.75,2.75,0,0,0,.76-.55H5.77v9H4.05Z"/><path class="cls-2" d="M6.72,11.89,8.9,8.52,9,8.32a7.78,7.78,0,0,0,.62-1.06,2.06,2.06,0,0,0,.2-.94,1.15,1.15,0,0,0-.16-.66.55.55,0,0,0-.48-.22.65.65,0,0,0-.64.35,2.23,2.23,0,0,0-.18,1v.41H6.72V6.74a3.09,3.09,0,0,1,.6-2A2.24,2.24,0,0,1,9.18,4,2.4,2.4,0,0,1,11,4.61a2.4,2.4,0,0,1,.6,1.75,3,3,0,0,1-.15,1,4.37,4.37,0,0,1-.37.81c-.14.24-.36.58-.65,1l-1.74,2.6h2.68V13.1H6.72Z"/><path class="cls-2" d="M35.62,24.48A7.79,7.79,0,0,0,29.74,23l-.12,0a8.56,8.56,0,0,0-5.22,3.45l0,0,0,0a.18.18,0,0,0,0,.1.29.29,0,0,0,0,.09l.05.09c.28.45.62,1,.91,1.58v0a.19.19,0,0,0,.17.1.21.21,0,0,0,.13-.05l0-.05c1.93-2.68,3.46-3,4.49-3.29l.12,0a5.62,5.62,0,0,1,4,1A5.11,5.11,0,0,1,36,30.46c0,3.24-1.58,4.51-2.9,5a5.44,5.44,0,0,1-4-.26L29,35.15c-1.12-.49-2.8-1.5-4.39-4.68-3.19-6.41-5.86-7-7.62-7.42l-.1,0a7.62,7.62,0,0,0-5.79,1.45c-1.15.91-2.51,2.69-2.51,6A7,7,0,0,0,10,35.15a7.14,7.14,0,0,0,7.17,2.48A6.84,6.84,0,0,0,20,36.32l1,.91a.17.17,0,0,0,.23,0,.19.19,0,0,0,0-.11v0L22,32.63v-.05a.16.16,0,0,0-.06-.12.13.13,0,0,0-.1,0h-.08l-4.27,1.2h-.08a.14.14,0,0,0-.08,0,.15.15,0,0,0,0,.23l0,0,1,.87a4.48,4.48,0,0,1-1.57.66,5,5,0,0,1-5-1.61l0,0a4.86,4.86,0,0,1-1-3.39,5.19,5.19,0,0,1,1.69-4.28,5.46,5.46,0,0,1,4-1l.1,0c1.45.33,3.43.78,6.16,6.27a11.28,11.28,0,0,0,5.43,5.69,8,8,0,0,0,3.41.79,7,7,0,0,0,2.37-.42c1.29-.49,4.31-2.14,4.31-7a7.19,7.19,0,0,0-2.55-6"/><path class="cls-2" d="M18.69,7.21a4.58,4.58,0,0,1-.64.15c-.11-.13-.21-.27-.32-.39a4.86,4.86,0,0,0,.82-.19,1,1,0,0,0,.78-1,.62.62,0,0,0-.7-.71,7.75,7.75,0,0,0-1.69.55s-.17-.51-.17-.53.05,0,.07,0a3.35,3.35,0,0,0,.87-.21,3.19,3.19,0,0,1,1.05-.23,1,1,0,0,1,1,1.11,1.37,1.37,0,0,1-1.11,1.42"/><path class="cls-2" d="M22.38,7.58a7,7,0,0,0-1-1.18A2.61,2.61,0,0,0,21,6.13,1.22,1.22,0,0,1,20.86,6a.33.33,0,0,1-.06-.22A.47.47,0,0,1,21,5.42c.17-.18.35-.35.51-.53s.49-.55.72-.84l.3.25a.58.58,0,0,1,.12.1l0,0c0,.06-.08.07-.12.06l-.7.66c-.09.09-.18.19-.28.28l-.14.14a.25.25,0,0,0-.08.16.16.16,0,0,0,.06.12c.15.14.31.26.46.39a6.7,6.7,0,0,1,.92,1l-.36.35"/><path class="cls-2" d="M24.7,6.82a.1.1,0,0,0-.11.11c0,.15.2.17.29.17s-.05-.28-.18-.28m.29.66c-.28,0-.75-.12-.75-.54a.47.47,0,0,1,.5-.44.51.51,0,0,1,.48.36.89.89,0,0,1,0,.22.61.61,0,0,0,.45-.59.57.57,0,0,0-.61-.62c-.52,0-.82.48-1.15.88l-.32-.33a8.52,8.52,0,0,0,1.31-1.71l-.83.18L24,4.41h.12a3.73,3.73,0,0,0,.46,0c.21,0,.42-.06.63-.11l.22-.07.24.32-.11.09c-.08.09-.15.19-.22.28s-.32.44-.48.66a1.66,1.66,0,0,1,.32,0,.86.86,0,0,1,.92.91A1,1,0,0,1,25,7.48"/><path class="cls-2" d="M29.41,6.61H27.93v.15h1.48Zm0-.4H27.93v.14h1.48Zm0-.4H27.93V6H29.4Zm-2.29-.39V5.1h1.35V5h-1v-.3h1V4.55H27.27V4.21h1.18V3.89l.43,0s.06,0,.06.05a.07.07,0,0,1-.06.07v.17h1.21v.34H28.87v.13h.95V5h-.95V5.1h1.35v.32ZM30,7.71A2.71,2.71,0,0,1,29,7.29l.21-.24h-1l.2.23a0,0,0,0,1,0,0l-.06,0a3.13,3.13,0,0,1-.95.39l-.26-.35a1.65,1.65,0,0,0,.85-.3h-.39V5.54H29.8V7.05h-.41a2.1,2.1,0,0,0,.88.27Z"/><path class="cls-2" d="M33.22,5.93V7.14H34v.37H32V7.14h.8V5.93h-.87V5.57h.87V4.76q-.34.06-.69.09L32,4.49a4.55,4.55,0,0,0,1.74-.43l.31.45a.07.07,0,0,1-.06,0l-.06,0c-.22.06-.44.12-.66.16v.88h.89v.36ZM32,4.24c-.09.27-.2.54-.31.79V7.61h-.41V5.68a1.16,1.16,0,0,1-.25.36l-.25-.3a4.18,4.18,0,0,0,.82-1.8l.46.19a0,0,0,0,1,0,0s-.07.07-.1.07"/><path class="cls-2" d="M18.61,12.43a3,3,0,0,1-.64.15c-.11-.13-.21-.27-.32-.38a6.07,6.07,0,0,0,.82-.19,1,1,0,0,0,.78-.95.62.62,0,0,0-.7-.71,7.75,7.75,0,0,0-1.69.55c0-.06-.17-.51-.17-.53s0,0,.07,0a3,3,0,0,0,.87-.21,3.39,3.39,0,0,1,1-.22,1,1,0,0,1,1,1.11,1.38,1.38,0,0,1-1.11,1.41"/><path class="cls-2" d="M22.91,11.71a4.15,4.15,0,0,0-.24-.34c.1,0,.35-.08.35-.23a2,2,0,0,0-.49-.91l.36-.24a2.29,2.29,0,0,1,.58,1.21c0,.33-.34.44-.56.51m-.85.77a.58.58,0,0,1-.4.12.84.84,0,0,1-.34-.08c0-.16,0-.31,0-.46a.87.87,0,0,0,.38.11c.28,0,.28-.91.28-1.14s0-.46-.19-.46l-.21,0a7.91,7.91,0,0,1-.74,2l-.4-.22a5.66,5.66,0,0,0,.7-1.72l-.47.11s-.1-.42-.1-.44h.11a3.43,3.43,0,0,0,.55-.06,6.43,6.43,0,0,0,.12-1l.33.09.13,0a0,0,0,0,1,0,0s0,0,0,0c0,.23-.09.46-.15.68l.21,0a.42.42,0,0,1,.46.35,2.08,2.08,0,0,1,.07.61,2.45,2.45,0,0,1-.3,1.33"/><path class="cls-2" d="M25.62,10a5.05,5.05,0,0,0-1-.37c.06-.15.13-.29.19-.44a4.24,4.24,0,0,1,1,.37l-.22.44M25,12.89c-.13-.11-.25-.24-.39-.34a1.69,1.69,0,0,0,1-.7,1.38,1.38,0,0,0,.13-.6c0-.36-.12-.57-.44-.57a2.94,2.94,0,0,0-1,.44c0-.06-.19-.48-.19-.52s0,0,.05,0a2.3,2.3,0,0,0,.43-.12,2.31,2.31,0,0,1,.81-.21c.55,0,.79.44.79,1A1.72,1.72,0,0,1,25,12.89"/><path class="cls-2" d="M29.36,11.84H27.89V12h1.47Zm0-.41H27.89v.15h1.47Zm0-.39H27.89v.14h1.47Zm-2.29-.4v-.31h1.35V10.2h-1V9.91h1V9.77H27.23V9.44h1.18V9.12l.43,0a.05.05,0,0,1,.05,0,.08.08,0,0,1-.05.07v.17h1.21v.33H28.83v.14h1v.29h-1v.13h1.35v.31ZM30,12.93a3,3,0,0,1-1.07-.41l.22-.24h-1l.2.22a0,0,0,0,1,0,.05l-.06,0a2.89,2.89,0,0,1-1,.39l-.26-.34a1.71,1.71,0,0,0,.85-.3h-.39V10.76h2.25v1.52h-.41a2.24,2.24,0,0,0,.88.26Z"/><path class="cls-2" d="M33.14,11.16v1.21H34v.36h-2v-.36h.8V11.16h-.88V10.8h.88V10l-.69.09-.16-.36a4.61,4.61,0,0,0,1.74-.44l.31.45a.07.07,0,0,1-.06,0l-.06,0-.66.15v.89H34v.36ZM32,9.47c-.1.27-.21.53-.32.79v2.57h-.41V10.91a1.45,1.45,0,0,1-.25.36L30.74,11a4.18,4.18,0,0,0,.82-1.8l.46.19s0,0,0,.05-.07.06-.09.07"/></g></g></svg>