<svg xmlns="http://www.w3.org/2000/svg" viewBox="0 0 47.18 47.29"><defs><style>.cls-1{fill:#004c88;}.cls-2{fill:#fff;}.cls-3{fill:#003067;}</style></defs><g id="レイヤー_2" data-name="レイヤー 2"><g id="レイヤー_6" data-name="レイヤー 6"><rect class="cls-1" width="47.18" height="47.18"/><path class="cls-2" d="M4.05,5.88a6.31,6.31,0,0,1-.72.28,5.32,5.32,0,0,0-.58.21V5.09a6.59,6.59,0,0,0,.91-.44,3.19,3.19,0,0,0,.76-.54H5.77v9H4.05Z"/><path class="cls-2" d="M9.68,11.57a3.67,3.67,0,0,0,.14-1.18c0-.38,0-.67,0-.88A1.07,1.07,0,0,0,9.6,9a.56.56,0,0,0-.46-.18A.73.73,0,0,0,8.73,9a1,1,0,0,0-.29.28v1.44c0,.85.24,1.27.71,1.27a.52.52,0,0,0,.53-.37m-2.37.85a3.49,3.49,0,0,1-.6-2.15V7.07A4.12,4.12,0,0,1,7.24,4.8,2.08,2.08,0,0,1,9.12,4a2.27,2.27,0,0,1,1.73.57,2.45,2.45,0,0,1,.55,1.71v.16H9.78a2,2,0,0,0-.13-.88.52.52,0,0,0-.51-.25.53.53,0,0,0-.42.17A1.09,1.09,0,0,0,8.5,6a7.54,7.54,0,0,0-.06,1.1V8a1,1,0,0,1,.47-.39,1.9,1.9,0,0,1,.73-.14,1.61,1.61,0,0,1,1.45.7,3.43,3.43,0,0,1,.45,1.89A4.11,4.11,0,0,1,11,12.41a2.09,2.09,0,0,1-1.86.81,2.09,2.09,0,0,1-1.82-.8"/><path class="cls-2" d="M31.35,20.93A1.68,1.68,0,0,0,31,22.14a1.71,1.71,0,0,0,.81.95,1.74,1.74,0,0,0,.33-1.21,1.71,1.71,0,0,0-.82-.95"/><path class="cls-2" d="M30.6,24.42a1.72,1.72,0,0,0,.33-1.21,1.71,1.71,0,0,0-.81-.95,1.72,1.72,0,0,0-.33,1.21,1.71,1.71,0,0,0,.81,1"/><path class="cls-2" d="M32.49,23.77a1.57,1.57,0,0,0,1,.44,1.58,1.58,0,0,0,1-.62,1.52,1.52,0,0,0-1-.44,1.62,1.62,0,0,0-1,.62"/><path class="cls-2" d="M33.29,21.15a1.83,1.83,0,0,0-.39,1.26A1.77,1.77,0,0,0,34.15,22a1.85,1.85,0,0,0,.39-1.27,1.75,1.75,0,0,0-1.25.39"/><path class="cls-2" d="M32.3,25.58a1.56,1.56,0,0,0,1.07-.41,1.55,1.55,0,0,0-.93-.64,1.56,1.56,0,0,0-1.07.41,1.51,1.51,0,0,0,.93.64"/><path class="cls-2" d="M32.79,34.45H28.67a.58.58,0,1,0,0,1.16h4.12a.58.58,0,0,0,0-1.16"/><path class="cls-2" d="M32.79,40.87H28.67a.59.59,0,1,0,0,1.17h4.12a.59.59,0,0,0,0-1.17"/><path class="cls-2" d="M14.26,33A1.74,1.74,0,0,0,14,33l.29.07"/><path class="cls-2" d="M20.94,35.55a7.3,7.3,0,0,0,.81,0v2.15h-.81Zm11.7.47H28.82a.33.33,0,0,0-.33.33v1.16l-2.5.27-3.64-.08V35.47a9.08,9.08,0,0,0,1.45-.29C27.31,34.19,28.07,32,28,30s.58-2.83,1.52-3.19a4.27,4.27,0,0,1,.78-.2,6.1,6.1,0,0,0,.34,1.78l.25,0a6,6,0,0,1-.35-1.79,3.84,3.84,0,0,1,.83,0,6,6,0,0,1-.79-.57,4,4,0,0,1,1.33-2.17,7,7,0,0,0,.93-1.09l-.21-.13a6.48,6.48,0,0,1-.9,1.05,4.28,4.28,0,0,0-1.36,2.16,8.47,8.47,0,0,1-.6-.6c-.86-1-2-.26-3.56,1.22s-3.59,1.52-5.54-.47a7.09,7.09,0,0,0-6.35-2.47c1,.45,1.42,1.43,2,3.93s2,3.81,3.89,4c-.89.14-1.12.27-2.56,1.26a4.47,4.47,0,0,1-3.34.38c1.18.37,2.57,1.6,3.81,2a9.15,9.15,0,0,0,2.27.46v2.13l-6.9-.15V39L26,38.71l2.5.27v1.16a.33.33,0,0,0,.33.33h3.82a.33.33,0,0,0,.33-.33V36.35a.33.33,0,0,0-.33-.33"/><path class="cls-2" d="M13.07,38.74a.53.53,0,0,1-.49.57h-.29a.53.53,0,0,1-.49-.57v-1a.53.53,0,0,1,.49-.57h.29a.53.53,0,0,1,.49.57Z"/><path class="cls-2" d="M17.85,5.07c-.12.26-.24.51-.38.76l-.31-.15a9.21,9.21,0,0,0,.31-.93l.42.19s.05,0,.05.07-.06.06-.09.06m-1.93.74c-.12-.29-.25-.57-.39-.85l.37-.2a5.14,5.14,0,0,1,.33.88Zm1,.55V7.69h-.42V6.36H15.18V6h1.31V4.62H15.36V4.23h2.69v.39H16.91V6h1.31v.39Z"/><path class="cls-2" d="M21.45,5h-.59V7.09h.59Zm-1-.38h1.37V7.46H20.48Zm-.06-.09-.05,0a4.5,4.5,0,0,1-.48.16v.54h.46v.37h-.46v.1a2.62,2.62,0,0,0,.54.69l-.23.32a1.83,1.83,0,0,1-.31-.42V7.7h-.4V6.24A2.6,2.6,0,0,1,19,7l-.28-.29a2.57,2.57,0,0,0,.69-1.16h-.57V5.16h.66V4.69L19,4.77l-.15-.36A2.91,2.91,0,0,0,20.19,4a3,3,0,0,1,.29.39.06.06,0,0,1-.06.05"/><path class="cls-2" d="M24.05,7.61c-.5,0-1.29-.08-1.29-.85a1.18,1.18,0,0,1,.81-1,6.28,6.28,0,0,1-.14-1.44l.32,0h.15s0,0,0,0,0,0,0,0a2.3,2.3,0,0,0,0,.37A2.36,2.36,0,0,0,24,5.5h0a3.8,3.8,0,0,0,.88-.36c.05.18.08.36.12.54-.43.1-1.81.36-1.81,1,0,.37.52.45.76.45A3,3,0,0,0,25.05,7c0,.17,0,.35.05.52a5.35,5.35,0,0,1-1.05.11"/><path class="cls-2" d="M28.72,6.06a3.77,3.77,0,0,1-1.1-1.61c.14-.07.28-.16.42-.24a3,3,0,0,0,1,1.5Zm-.35,1.7-.2-.39c-.63.09-1.26.16-1.89.23,0,0,0,.05-.06.05s0,0,0,0l-.13-.41a1.65,1.65,0,0,0,.31,0c.08,0,.09,0,.14-.1a8,8,0,0,0,.39-.84c.1-.25.2-.51.28-.78l.44.24s0,0,0,.05,0,.07-.08.08c-.22.45-.44.9-.7,1.32L28,7c-.1-.18-.2-.35-.31-.52L28,6.24c.24.42.47.84.69,1.28Zm-1.3-3.28a3.68,3.68,0,0,1-1,1.58l-.31-.24a3.16,3.16,0,0,0,.85-1.64l.46.18a.07.07,0,0,1,0,0,.08.08,0,0,1-.08.07"/><path class="cls-2" d="M29.39,7.58V7.2h.53V5.27l.41,0s.06,0,.06,0,0,.05-.06.06V7.2h.49V4.72H29.54v-.4h2.83v.4H31.25v1h.94v.41h-.95V7.19h1.2v.39Z"/><path class="cls-2" d="M35.85,6a.06.06,0,0,1-.05,0l-1,.38V7h-.41V6.57c-.27.13-.41.3-.41.48s.16.25.47.25a3.27,3.27,0,0,0,1-.16v.47a2.92,2.92,0,0,1-.87.12c-.68,0-1-.22-1-.65a.82.82,0,0,1,.28-.58,2.55,2.55,0,0,1,.53-.35c0-.18-.06-.28-.16-.28a.5.5,0,0,0-.36.16,3.37,3.37,0,0,0-.27.27,3.76,3.76,0,0,1-.25.29l-.29-.33A2.8,2.8,0,0,0,34,5.16a5.37,5.37,0,0,1-.61,0c0-.15,0-.29-.05-.42a5.72,5.72,0,0,0,.79,0,3.43,3.43,0,0,0,.12-.55l.47.1a.07.07,0,0,1,0,0s0,0-.06.06,0,.17-.09.31a5.57,5.57,0,0,0,.65-.15l0,.45c-.19,0-.45.08-.77.12a2.67,2.67,0,0,1-.21.41.54.54,0,0,1,.2,0c.21,0,.34.14.41.43l.93-.45.16.46s0,0,0,0"/><path class="cls-2" d="M16.57,11c-.16,0-.23.17-.23.34s0,.33.19.33.18-.23.18-.37,0-.3-.14-.3m1.55-.58H17.07c0,.15,0,.3,0,.45a1.27,1.27,0,0,1,.13.64A1.5,1.5,0,0,1,16.36,13c-.13-.11-.26-.2-.38-.31a1.05,1.05,0,0,0,.75-.7.59.59,0,0,1-.29.07c-.29,0-.47-.37-.47-.68s.2-.78.57-.78l.13,0v-.19c-.24,0-.47,0-.71,0l-.66.09c0-.15,0-.31,0-.46.46,0,.92,0,1.38-.06,0-.2,0-.4,0-.6l.31,0,.13,0a0,0,0,0,1,.05,0,.11.11,0,0,1-.05.08V10l1.06,0Z"/><path class="cls-2" d="M21.1,10.42a4.35,4.35,0,0,0-.27-.58l.26-.14a3.68,3.68,0,0,1,.26.57Zm-.43.19c-.09-.2-.18-.38-.28-.57l.26-.15a5.77,5.77,0,0,1,.27.56Zm.57,2.25c-.18-.22-.38-.45-.57-.69L20,11.3,19.8,11c0-.05-.09-.14-.15-.14s-.19.17-.24.24l-.2.31c-.12.18-.22.36-.34.53v0s0,.06,0,.06l-.39-.35a4.83,4.83,0,0,0,.41-.49c.13-.19.25-.39.39-.57a.52.52,0,0,1,.43-.26.49.49,0,0,1,.35.2l.21.29.49.63c.26.32.59.7.86,1Z"/><path class="cls-2" d="M24.77,10.29h0a1.26,1.26,0,0,0-.5.09,1.4,1.4,0,0,0-.79,1.28c0,.84.68.94,1.24.94l-.09.48h-.08a2.12,2.12,0,0,1-.78-.15A1.17,1.17,0,0,1,23,11.78a2.26,2.26,0,0,1,.38-1.27c-.42.08-.84.17-1.25.27,0-.16-.05-.31-.07-.47a19.65,19.65,0,0,0,2.14-.4,4.58,4.58,0,0,0,.49-.15c0,.06.12.45.12.49s0,0-.05,0"/><path class="cls-2" d="M26,11.05a1.45,1.45,0,0,0-.1.55c0,.17,0,.6.23.6s.13-.08.17-.13a3.54,3.54,0,0,0,.5-1.75,1.25,1.25,0,0,0-.8.73m1.22,1.86c-.11-.11-.2-.24-.31-.35.55-.16,1-.38,1-1.15a1.07,1.07,0,0,0-.72-1.1,3.76,3.76,0,0,1-.82,2.23.57.57,0,0,1-.33.13.53.53,0,0,1-.37-.24,1.46,1.46,0,0,1-.22-.83,1.6,1.6,0,0,1,1.53-1.69,1.35,1.35,0,0,1,1.38,1.47,1.46,1.46,0,0,1-1.19,1.53"/><path class="cls-2" d="M31.86,13a3.49,3.49,0,0,1-1.27-1.76c-.06.18-.12.36-.19.53a2.66,2.66,0,0,1-.75,1,2,2,0,0,1-.36.23l-.3-.34a3.1,3.1,0,0,0,.41-.26,2.59,2.59,0,0,0,.85-1.6,6.61,6.61,0,0,0,.06-1.26l.48.06s.07,0,.07.05a.09.09,0,0,1-.07.08c0,.16,0,.33,0,.49a3,3,0,0,0,.54,1.56,3,3,0,0,0,.9.83Z"/><path class="cls-2" d="M35.41,10.59a2.58,2.58,0,0,0-.77-.12,3.29,3.29,0,0,0-.54,0c0-.14,0-.29,0-.43a3.91,3.91,0,0,1,.76-.07,2.74,2.74,0,0,1,.63.09c0,.16,0,.32-.07.48m.2,2.12a4.3,4.3,0,0,1-.61,0c-.53,0-1-.06-1.11-.8l.37-.27c0,.42.23.6.58.6a3.09,3.09,0,0,0,.8-.11l0,.53m-2.13.21L33.1,13a4.94,4.94,0,0,1-.18-1.53,9.83,9.83,0,0,1,.18-1.71l.3.06.15,0s0,0,0,.05,0,0-.06,0a7.68,7.68,0,0,0-.2,1.79c0,.14,0,.28,0,.43.06-.18.12-.37.19-.55l.26.23a3.41,3.41,0,0,0-.31,1.09"/><rect class="cls-3" y="0.11" width="47.18" height="47.18"/><path class="cls-2" d="M4.11,6a5.83,5.83,0,0,1-.71.28l-.59.21V5.21a8.34,8.34,0,0,0,.92-.45,3.19,3.19,0,0,0,.76-.54H5.83v9H4.11Z"/><polygon class="cls-2" points="9.3 5.53 6.86 5.53 6.86 4.22 10.97 4.22 10.97 5.34 9.07 13.21 7.41 13.21 9.3 5.53"/><path class="cls-2" d="M28.06,29.16a6.15,6.15,0,0,0,2-4.52,6.84,6.84,0,0,0-.05-.79,4.92,4.92,0,0,1,2.78,8.54,6.19,6.19,0,0,0-4.71-3.23m4.19,6.13a4.92,4.92,0,0,1-7.36,4.28,6.15,6.15,0,0,0,1.7-4.24,5.76,5.76,0,0,0-.12-1.18,6.19,6.19,0,0,0,3,.77,6,6,0,0,0,2.69-.62,4.62,4.62,0,0,1,.1,1m-16.76,0a4.9,4.9,0,0,1,.1-1,6.19,6.19,0,0,0,5.67-.16,6.12,6.12,0,0,0,1.63,5.43,4.83,4.83,0,0,1-2.48.68,4.93,4.93,0,0,1-4.92-4.93m-2.14-6.58a4.93,4.93,0,0,1,4.4-4.9,5.16,5.16,0,0,0-.05.79,6.19,6.19,0,0,0,2,4.56A6.17,6.17,0,0,0,15,32.41a4.93,4.93,0,0,1-1.63-3.66m10.52-9a4.94,4.94,0,0,1,4.52,3,6.21,6.21,0,0,0-4.52,3.47,6.23,6.23,0,0,0-4.52-3.47,4.94,4.94,0,0,1,4.52-3M25,30.92a4.87,4.87,0,0,1,2.28-.56,4.93,4.93,0,0,1,4.42,2.76,4.87,4.87,0,0,1-2.28.56A4.94,4.94,0,0,1,25,30.92m-2.36,0A4.93,4.93,0,0,1,16,33.13a4.92,4.92,0,0,1,4.4-2.73,4.83,4.83,0,0,1,2.27.56M19,23.88a4.93,4.93,0,0,1,4.21,4.87,4.77,4.77,0,0,1-.07.76,4.94,4.94,0,0,1-4.2-4.87,4.77,4.77,0,0,1,.06-.76m4.89,14.94a4.9,4.9,0,0,1,0-7,4.93,4.93,0,0,1,0,7M28.8,24.64a4.94,4.94,0,0,1-4.2,4.87,4.77,4.77,0,0,1-.07-.76,4.93,4.93,0,0,1,4.2-4.87,4.77,4.77,0,0,1,.07.76m6.84,4.11a6.18,6.18,0,0,0-5.95-6.17,6.17,6.17,0,0,0-11.64,0,6.17,6.17,0,0,0-3.56,11,6,6,0,0,0-.25,1.71,6.17,6.17,0,0,0,9.66,5.09,6.11,6.11,0,0,0,3.42,1,6.15,6.15,0,0,0,5.94-7.85,6.18,6.18,0,0,0,2.38-4.86"/><path class="cls-2" d="M17.06,4.12c-.1,0-.18.11-.18.24s.08.24.18.24.18-.12.18-.24-.08-.24-.18-.24m0,.69a.41.41,0,0,1-.35-.45.41.41,0,0,1,.35-.45c.19,0,.34.2.34.45s-.15.45-.34.45M17,7.07a7.47,7.47,0,0,0-.81-2.13l.36-.29a7.7,7.7,0,0,1,.85,2.06Zm-1.27-2a4.7,4.7,0,0,1-.12.51,4,4,0,0,1-.74,1.61c-.12-.11-.25-.2-.37-.3a4,4,0,0,0,.82-2.28l.45.34a.07.07,0,0,1,0,0,.08.08,0,0,1,0,.07"/><path class="cls-2" d="M20,5.93h-.5c-.17,0-1.3,0-1.72,0,0-.17,0-.38,0-.51s0-.06,0-.06a.88.88,0,0,0,.2,0h.74l1.27,0c0,.17,0,.38,0,.54"/><path class="cls-2" d="M22.19,6.25a4.88,4.88,0,0,0-1-.66V6.72c0,.24,0,.49,0,.74h-.46c0-.53,0-1.07,0-1.6s0-1.23,0-1.85l.47,0s.05,0,.05.05a.1.1,0,0,1-.05.08l0,1.13a.82.82,0,0,0,.12-.2,4.5,4.5,0,0,1,1.11.7l-.26.43"/><path class="cls-2" d="M25.58,5.5h-1a2,2,0,0,1-.93,2,2.72,2.72,0,0,0-.38-.31,1.63,1.63,0,0,0,.88-1.68L23,5.54c0-.17,0-.34,0-.51h1.16V4.86c0-.28,0-.56,0-.85l.46.06s.05,0,.05,0a.12.12,0,0,1,0,.07V5l1,0c0,.17,0,.34,0,.51"/><path class="cls-2" d="M28.24,5.93h-.48c-.18,0-1.18,0-1.6,0,0-.17,0-.38,0-.51s0-.06,0-.06a.81.81,0,0,0,.19,0h.95c.48,0,.41,0,.94,0,0,.17,0,.38,0,.54"/><path class="cls-2" d="M30.15,4.93a3.49,3.49,0,0,0-.69-.49L29.67,4a2.87,2.87,0,0,1,.72.49,4.19,4.19,0,0,1-.24.42m-.94,2.41S29,6.9,29,6.88s0,0,.05,0a4.56,4.56,0,0,0,.6-.18,5.26,5.26,0,0,0,1.73-1.35c0,.21,0,.41.05.61a4.4,4.4,0,0,1-2.21,1.42m.5-1.49a4.2,4.2,0,0,0-.75-.6l.23-.42a3.24,3.24,0,0,1,.76.59Z"/><path class="cls-2" d="M33.08,6a4.75,4.75,0,0,0-.25-.86L33.19,5a4.22,4.22,0,0,1,.24.86L33.08,6m1.15-.71a4.07,4.07,0,0,1-.57,1.61,2,2,0,0,1-.89.69l-.28-.33C33.41,7,33.74,6.15,33.84,5l.41.16a.05.05,0,0,1,0,0,.07.07,0,0,1,0,.06m-1.75.93a5.2,5.2,0,0,0-.26-.9l.36-.14a5.07,5.07,0,0,1,.25.89l-.35.15"/><path class="cls-2" d="M37.19,4c-.09,0-.17.09-.17.22a.19.19,0,0,0,.17.21.2.2,0,0,0,.18-.21A.2.2,0,0,0,37.19,4m0,.63a.38.38,0,0,1-.33-.41.38.38,0,0,1,.33-.42.39.39,0,0,1,.33.42.38.38,0,0,1-.33.41M37,4.91a4,4,0,0,1-1.07,2,2.27,2.27,0,0,1-.62.42c-.12-.13-.25-.26-.38-.38a2.55,2.55,0,0,0,1.58-2c-.56,0-1.12,0-1.68.08,0-.17,0-.33,0-.5H36.6a.29.29,0,0,0,.17-.06,4.11,4.11,0,0,1,.29.35s0,.06-.06.07"/><path class="cls-2" d="M40.33,5.55a5.26,5.26,0,0,0-.19-.6l.22-.12c.07.19.13.38.19.57ZM40,5.69c-.06-.19-.12-.38-.19-.56L40,5a5,5,0,0,1,.17.55Zm.27-1h0a1.06,1.06,0,0,0-.42.09A1.37,1.37,0,0,0,39.06,6c0,.8.53.91,1,.92L40,7.35H39.9a1.48,1.48,0,0,1-.64-.16,1.12,1.12,0,0,1-.56-1.11,2.45,2.45,0,0,1,.36-1.2c-.36.07-.7.14-1.05.23,0-.16,0-.31,0-.47.32,0,.63-.08.94-.13a6.2,6.2,0,0,0,1.27-.31c0,.07.09.42.09.46s0,0,0,0"/><path class="cls-2" d="M16.66,11.61H15.2v.67h1.46Zm0-1H15.2v.6h1.46Zm0-1H15.2v.6h1.46Zm-1.83-.41h2.22v3.45H14.83Z"/><path class="cls-2" d="M20.18,10.09H20v.38h.18Zm.3,2.53A3,3,0,0,1,20,12l.29-.21a2.19,2.19,0,0,0,.48.6Zm-.78-2.53h-.18v.38h.18Zm0-.56h-.18v.25h.18Zm-.47.56h-.17v.38h.17Zm-.32.83h1.47v.31H18.91Zm.93.76v.57c0,.38-.22.46-.48.5l-.2-.31c.13,0,.31,0,.31-.25v-.51h-.8v-.31h2v.31ZM20,9.53v.25h.51v1H18.75v-1h.46V9.53h-.56V9.2h2v.33ZM19.26,12a2.71,2.71,0,0,1-.47.58l-.25-.25a1.45,1.45,0,0,0,.46-.62l.31.22s0,0,0,0,0,0-.07,0m-.66-.78c0-.07-.09-.13-.13-.21v1.68h-.35V11.16a1.72,1.72,0,0,1-.26.46l-.24-.29a2.83,2.83,0,0,0,.48-1.14h-.34V9.82h.36V9l.35,0a.06.06,0,0,1,.05.06s0,.05-.05.06v.64h.2v.37h-.21v.2a2.8,2.8,0,0,0,.33.53c-.06.11-.12.22-.19.33"/><path class="cls-2" d="M23.83,11l0,0a9,9,0,0,0-.9.38v.62H22.5v-.42c-.26.13-.39.3-.39.48s.15.25.45.25a2.62,2.62,0,0,0,.94-.16v.47a2.58,2.58,0,0,1-.82.12c-.63,0-1-.21-1-.65a.81.81,0,0,1,.27-.58,2.15,2.15,0,0,1,.49-.35q0-.27-.15-.27A.46.46,0,0,0,22,11c-.06.07-.15.15-.25.28l-.24.28-.26-.33a2.84,2.84,0,0,0,.81-1.1,4.54,4.54,0,0,1-.57.06,4.05,4.05,0,0,0-.05-.42,7,7,0,0,0,.74,0,3,3,0,0,0,.11-.56l.44.1a.07.07,0,0,1,0,.05.06.06,0,0,1-.05.06l-.09.31a4.33,4.33,0,0,0,.6-.15l0,.45-.72.12a2.55,2.55,0,0,1-.2.41.52.52,0,0,1,.19,0c.2,0,.32.14.38.43l.88-.45.15.46a0,0,0,0,1,0,.05"/><path class="cls-2" d="M26,10.2c0,.11,0,.21.05.32h.4c0-.11,0-.21.05-.32Zm.87,0-.12.31h.52v.31H26.4V11h.67v.31H26.4v.17h.86v.32H26.4v.38h-.34v-.38h-.8v-.32h.8v-.17h-.63V11h.63v-.18h-.8v-.31h.46l-.09-.31h-.38V9.9h.8V9.67h-.69V9.33h.69V9l.35,0s.07,0,.07,0,0,.05-.06.06v.19h.75v.34h-.75V9.9h.86v.31ZM25,9.91a4.93,4.93,0,0,0-.51-.42l.26-.36a4.12,4.12,0,0,1,.45.48Zm2.19,2.75h-.5A2.81,2.81,0,0,1,25,12.22a3.19,3.19,0,0,1-.24.49l-.28-.21a2.82,2.82,0,0,0,.36-1.59h-.4v-.36h.77A6.67,6.67,0,0,1,25,11.82a2.3,2.3,0,0,0,1.7.48l.55,0Z"/><path class="cls-2" d="M30.51,9.24l-.23.42L30,9.54a5.26,5.26,0,0,0,.18-.6l.37.17a.07.07,0,0,1,.06.07s-.06.06-.08.06m.09,3.49a2.56,2.56,0,0,1-.7-.76,2.2,2.2,0,0,1-.78.74l-.26-.28a1.94,1.94,0,0,0,.84-.84,4.84,4.84,0,0,1-.38-1.53h-.77v.47h.75a7.31,7.31,0,0,1,0,.94c-.06.51-.21.67-.6.71l-.17-.32c.38-.06.44-.22.44-.7v-.28h-.4a3.35,3.35,0,0,1-.41,1.83l-.3-.23a2.82,2.82,0,0,0,.35-1.67c0-.38,0-.76,0-1.13H29.3c0-.25,0-.5,0-.74l.43.05s.06,0,.06.06a.1.1,0,0,1-.06.09v.54h1v.38h-1a5,5,0,0,0,.19,1.1,4,4,0,0,0,.23-.9l.4.27a.12.12,0,0,1,0,.08s-.07.06-.09.07a5.31,5.31,0,0,1-.35.92,2.34,2.34,0,0,0,.74.73Z"/><path class="cls-2" d="M33.19,12.34a1.42,1.42,0,0,1-.86.27c-.46,0-.74-.32-.77-.9a1.76,1.76,0,0,1,0-.23c0-.22,0-.44,0-.66,0-.52,0-1,0-1.57l.3.06a.5.5,0,0,1,.13,0,.07.07,0,0,1,.06.07s0,.05,0,.06c0,.71-.07,1.42-.07,2.12,0,.37.13.59.43.59a.85.85,0,0,0,.41-.12,1.68,1.68,0,0,0,.66-.85l.23.53a1.83,1.83,0,0,1-.5.6"/><path class="cls-2" d="M35.37,11.7a.92.92,0,0,0-.42-.1.28.28,0,0,0-.29.25c0,.25.22.32.38.32s.33-.09.33-.35Zm1.13.77a3.28,3.28,0,0,0-.73-.57.63.63,0,0,1-.7.67c-.32,0-.82-.2-.82-.69a.64.64,0,0,1,.71-.65,1.4,1.4,0,0,1,.41,0c0-.57,0-1.14-.07-1.7,0-.14,0-.27,0-.41l.43.07a.07.07,0,0,1,.06.06.07.07,0,0,1,0,0v.16c0,.17,0,.35,0,.53h0a3.39,3.39,0,0,0,.45,0l.35-.07c0,.16,0,.32,0,.48l-.55,0h-.26c0,.32,0,.65,0,1a5.1,5.1,0,0,1,1,.61Z"/><path class="cls-2" d="M38.75,9.71a4.5,4.5,0,0,0-.92-.36c.07-.15.12-.29.19-.44a3.53,3.53,0,0,1,.94.37c-.07.15-.13.29-.21.43m-.57,2.92c-.12-.12-.24-.24-.36-.34a1.62,1.62,0,0,0,.93-.71,1.34,1.34,0,0,0,.13-.59c0-.36-.11-.57-.41-.57a2.74,2.74,0,0,0-.92.43c0-.06-.18-.47-.18-.51s0,0,.05,0a2.25,2.25,0,0,0,.4-.12,2,2,0,0,1,.75-.21c.52,0,.75.44.75,1a1.7,1.7,0,0,1-1.14,1.6"/></g></g></svg>