<svg xmlns="http://www.w3.org/2000/svg" width="50" height="50" viewBox="0 0 50 50">
  <path id="__TEMP__SVG__" d="M30.368,21.469V29.4a.352.352,0,0,1-.357.357H28.738a.371.371,0,0,1-.29-.144L24.81,24.706v4.71a.352.352,0,0,1-.357.357H23.179a.352.352,0,0,1-.357-.357V21.48a.352.352,0,0,1,.357-.357h1.262a.338.338,0,0,1,.29.156L28.37,26.19V21.48a.352.352,0,0,1,.357-.357H30A.352.352,0,0,1,30.368,21.469Zm-9.152-.357H19.943a.352.352,0,0,0-.357.357V29.4a.352.352,0,0,0,.357.357h1.273a.352.352,0,0,0,.357-.357V21.469A.359.359,0,0,0,21.216,21.112Zm-3.07,6.652H14.675v-6.3a.352.352,0,0,0-.357-.357H13.044a.352.352,0,0,0-.357.357V29.4a.33.33,0,0,0,.1.246.376.376,0,0,0,.246.1h5.1a.352.352,0,0,0,.357-.357V28.12a.357.357,0,0,0-.346-.357Zm18.919-6.652h-5.1a.359.359,0,0,0-.357.357V29.4a.359.359,0,0,0,.357.357h5.1a.352.352,0,0,0,.357-.357V28.131a.352.352,0,0,0-.357-.357H33.594v-1.34h3.471a.352.352,0,0,0,.357-.357V24.794a.352.352,0,0,0-.357-.357H33.594V23.1h3.471a.352.352,0,0,0,.357-.357V21.467a.374.374,0,0,0-.357-.357ZM50,11.369V43.21a9.09,9.09,0,0,1-9.119,9.04H9.04A9.1,9.1,0,0,1,0,43.131V11.29A9.1,9.1,0,0,1,9.119,2.25H40.96A9.09,9.09,0,0,1,50,11.369ZM43.125,25.052c0-8.148-8.17-14.776-18.2-14.776s-18.2,6.63-18.2,14.776c0,7.3,6.473,13.416,15.224,14.576,2.132.457,1.886,1.238,1.406,4.106-.078.457-.368,1.8,1.573.983S35.4,38.545,39.23,34.147C41.863,31.245,43.125,28.31,43.125,25.052Z" transform="translate(0 -2.25)" fill="#06c755"/>
</svg>
