<?xml version="1.0" encoding="utf-8"?>
<!-- Generator: Adobe Illustrator 28.1.0, SVG Export Plug-In . SVG Version: 6.00 Build 0)  -->
<svg version="1.1" id="レイヤー_1" xmlns="http://www.w3.org/2000/svg" xmlns:xlink="http://www.w3.org/1999/xlink" x="0px"
	 y="0px" viewBox="0 0 160 261.9" style="enable-background:new 0 0 160 261.9;" xml:space="preserve">
<style type="text/css">
	.st0{fill:#7F4F21;}
	.st1{fill:#2B2624;}
	.st2{enable-background:new    ;}
	.st3{fill:#FFFFFF;}
</style>
<g id="グループ_1701" transform="translate(-205 -645)">
	<path id="パス_1706" class="st0" d="M285,701.7h1v169.9h-1V701.7z"/>
	<g id="グループ_1387" transform="translate(0 -9.029)">
		<path id="パス_1751" class="st1" d="M227.5,654h115c6.9,0,12.5,5.6,12.5,12.5s-5.6,12.5-12.5,12.5l0,0h-115
			c-6.9,0-12.5-5.6-12.5-12.5S220.6,654,227.5,654z"/>
		<g class="st2">
			<path class="st3" d="M240.2,662h7v1.2h-5.6v3h4.9v1.2h-4.9v4.6h-1.4V662z"/>
			<path class="st3" d="M249.2,664.7h1.2v1.3c0.1-0.2,0.3-0.5,0.7-0.9c0.4-0.4,0.8-0.5,1.3-0.5c0,0,0.1,0,0.1,0s0.1,0,0.3,0v1.3
				c-0.1,0-0.1,0-0.2,0s-0.1,0-0.2,0c-0.6,0-1.1,0.2-1.4,0.6c-0.3,0.4-0.5,0.9-0.5,1.4v4.2h-1.2V664.7z"/>
			<path class="st3" d="M259.8,665.4c0.6,0.6,1,1.6,1,2.8c0,1.2-0.3,2.2-0.9,2.9c-0.6,0.8-1.5,1.2-2.7,1.2c-1,0-1.8-0.3-2.4-1
				c-0.6-0.7-0.9-1.6-0.9-2.7c0-1.2,0.3-2.2,0.9-2.9c0.6-0.7,1.5-1.1,2.5-1.1C258.4,664.5,259.2,664.8,259.8,665.4z M259.1,670.3
				c0.3-0.6,0.4-1.3,0.4-2.1c0-0.7-0.1-1.2-0.3-1.7c-0.3-0.7-0.9-1-1.8-1c-0.7,0-1.3,0.3-1.6,0.9s-0.5,1.3-0.5,2.1
				c0,0.8,0.2,1.4,0.5,1.9s0.9,0.8,1.6,0.8C258.2,671.2,258.8,670.9,259.1,670.3z"/>
			<path class="st3" d="M263,664.7h1.2v1c0.3-0.4,0.6-0.6,0.8-0.8c0.4-0.3,0.9-0.4,1.4-0.4c0.6,0,1.1,0.1,1.4,0.4
				c0.2,0.2,0.4,0.4,0.5,0.7c0.3-0.4,0.6-0.7,1-0.9c0.4-0.2,0.8-0.3,1.2-0.3c1,0,1.7,0.4,2,1.1c0.2,0.4,0.3,0.9,0.3,1.5v4.9h-1.3
				v-5.1c0-0.5-0.1-0.8-0.4-1s-0.5-0.3-0.9-0.3c-0.5,0-0.9,0.2-1.2,0.5s-0.5,0.9-0.5,1.6v4.3h-1.3v-4.8c0-0.5-0.1-0.9-0.2-1.1
				c-0.2-0.3-0.5-0.5-1-0.5c-0.5,0-0.9,0.2-1.3,0.5s-0.6,1-0.6,2v3.9H263V664.7z"/>
			<path class="st3" d="M280.1,662h1.6l5,8.1V662h1.3v10h-1.5l-5.1-8.1v8.1h-1.3V662z"/>
			<path class="st3" d="M294.7,667.6c0.3,0,0.5-0.2,0.6-0.4c0.1-0.1,0.1-0.3,0.1-0.5c0-0.4-0.1-0.7-0.4-0.9
				c-0.3-0.2-0.7-0.3-1.3-0.3c-0.6,0-1.1,0.2-1.4,0.5c-0.2,0.2-0.2,0.5-0.3,0.9h-1.1c0-0.9,0.3-1.5,0.9-1.9c0.6-0.4,1.2-0.5,2-0.5
				c0.9,0,1.6,0.2,2.1,0.5c0.5,0.3,0.8,0.8,0.8,1.5v4.2c0,0.1,0,0.2,0.1,0.3c0.1,0.1,0.2,0.1,0.3,0.1c0.1,0,0.1,0,0.2,0
				c0.1,0,0.1,0,0.2,0v0.9c-0.2,0.1-0.3,0.1-0.4,0.1s-0.2,0-0.4,0c-0.4,0-0.7-0.2-0.9-0.5c-0.1-0.2-0.2-0.4-0.2-0.7
				c-0.2,0.3-0.6,0.6-1.1,0.9s-1,0.4-1.6,0.4c-0.7,0-1.2-0.2-1.7-0.6c-0.4-0.4-0.6-0.9-0.6-1.5c0-0.7,0.2-1.2,0.6-1.6s1-0.6,1.7-0.7
				L294.7,667.6z M292.1,670.9c0.3,0.2,0.6,0.3,0.9,0.3c0.4,0,0.9-0.1,1.3-0.3c0.7-0.3,1-0.9,1-1.6v-1c-0.2,0.1-0.3,0.2-0.6,0.2
				c-0.2,0.1-0.5,0.1-0.7,0.1l-0.7,0.1c-0.4,0.1-0.8,0.2-1,0.3c-0.4,0.2-0.6,0.6-0.6,1C291.7,670.4,291.8,670.7,292.1,670.9z"/>
			<path class="st3" d="M303.3,665c0.2,0.2,0.5,0.4,0.7,0.7v-0.9h1.1v6.7c0,0.9-0.1,1.7-0.4,2.2c-0.5,1-1.5,1.5-2.9,1.5
				c-0.8,0-1.4-0.2-2-0.5c-0.5-0.4-0.8-0.9-0.9-1.7h1.3c0.1,0.3,0.2,0.6,0.4,0.8c0.3,0.3,0.7,0.4,1.3,0.4c0.9,0,1.6-0.3,1.8-1
				c0.2-0.4,0.3-1.1,0.2-2.1c-0.2,0.4-0.5,0.7-0.9,0.8c-0.3,0.2-0.8,0.3-1.4,0.3c-0.8,0-1.5-0.3-2.1-0.8c-0.6-0.6-0.9-1.5-0.9-2.8
				c0-1.2,0.3-2.2,0.9-2.9c0.6-0.7,1.3-1,2.2-1C302.4,664.5,302.9,664.7,303.3,665z M303.5,666.3c-0.4-0.4-0.8-0.7-1.4-0.7
				c-0.9,0-1.5,0.4-1.8,1.2c-0.2,0.4-0.3,1-0.3,1.7c0,0.8,0.2,1.5,0.5,1.9c0.3,0.4,0.8,0.6,1.3,0.6c0.9,0,1.5-0.4,1.9-1.2
				c0.2-0.5,0.3-1,0.3-1.6C304,667.4,303.8,666.7,303.5,666.3z"/>
			<path class="st3" d="M313,665.4c0.6,0.6,1,1.6,1,2.8c0,1.2-0.3,2.2-0.9,2.9c-0.6,0.8-1.5,1.2-2.7,1.2c-1,0-1.8-0.3-2.4-1
				c-0.6-0.7-0.9-1.6-0.9-2.7c0-1.2,0.3-2.2,0.9-2.9c0.6-0.7,1.5-1.1,2.5-1.1C311.6,664.5,312.4,664.8,313,665.4z M312.3,670.3
				c0.3-0.6,0.4-1.3,0.4-2.1c0-0.7-0.1-1.2-0.3-1.7c-0.3-0.7-0.9-1-1.8-1c-0.7,0-1.3,0.3-1.6,0.9s-0.5,1.3-0.5,2.1
				c0,0.8,0.2,1.4,0.5,1.9s0.9,0.8,1.6,0.8C311.4,671.2,312,670.9,312.3,670.3z"/>
			<path class="st3" d="M320.8,664.7h1.4c-0.2,0.5-0.6,1.5-1.2,3.2c-0.4,1.3-0.8,2.3-1.1,3.1c-0.7,1.9-1.2,3-1.5,3.4
				c-0.3,0.4-0.8,0.6-1.5,0.6c-0.2,0-0.3,0-0.4,0s-0.2,0-0.3-0.1v-1.1c0.2,0.1,0.4,0.1,0.5,0.1s0.2,0,0.3,0c0.2,0,0.4,0,0.5-0.1
				c0.1-0.1,0.2-0.2,0.3-0.3c0,0,0.1-0.2,0.2-0.6s0.2-0.6,0.3-0.8l-2.7-7.5h1.4l2,6L320.8,664.7z"/>
			<path class="st3" d="M327.8,667.6c0.3,0,0.5-0.2,0.6-0.4c0.1-0.1,0.1-0.3,0.1-0.5c0-0.4-0.1-0.7-0.4-0.9
				c-0.3-0.2-0.7-0.3-1.3-0.3c-0.6,0-1.1,0.2-1.4,0.5c-0.2,0.2-0.2,0.5-0.3,0.9H324c0-0.9,0.3-1.5,0.9-1.9c0.6-0.4,1.2-0.5,2-0.5
				c0.9,0,1.6,0.2,2.1,0.5c0.5,0.3,0.8,0.8,0.8,1.5v4.2c0,0.1,0,0.2,0.1,0.3c0.1,0.1,0.2,0.1,0.3,0.1c0.1,0,0.1,0,0.2,0
				c0.1,0,0.1,0,0.2,0v0.9c-0.2,0.1-0.3,0.1-0.4,0.1s-0.2,0-0.4,0c-0.4,0-0.7-0.2-0.9-0.5c-0.1-0.2-0.2-0.4-0.2-0.7
				c-0.2,0.3-0.6,0.6-1.1,0.9s-1,0.4-1.6,0.4c-0.7,0-1.2-0.2-1.7-0.6c-0.4-0.4-0.6-0.9-0.6-1.5c0-0.7,0.2-1.2,0.6-1.6s1-0.6,1.7-0.7
				L327.8,667.6z M325.3,670.9c0.3,0.2,0.6,0.3,0.9,0.3c0.4,0,0.9-0.1,1.3-0.3c0.7-0.3,1-0.9,1-1.6v-1c-0.2,0.1-0.3,0.2-0.6,0.2
				c-0.2,0.1-0.5,0.1-0.7,0.1l-0.7,0.1c-0.4,0.1-0.8,0.2-1,0.3c-0.4,0.2-0.6,0.6-0.6,1C324.9,670.4,325,670.7,325.3,670.9z"/>
		</g>
	</g>
	<g id="パス_1778" transform="translate(205 693.299)">
		<path class="st3" d="M159.5,49.5H0.5v-49h159V49.5z"/>
		<path class="st0" d="M1,1v48h158V1H1 M0,0h160v50H0V0z"/>
	</g>
	<g id="パス_1894" transform="translate(205 775.299)">
		<path class="st3" d="M159.5,59.5H0.5v-59h159V59.5z"/>
		<path class="st0" d="M1,1v58h158V1H1 M0,0h160v60H0V0z"/>
	</g>
	<g class="st2">
		<path class="st1" d="M241.8,708.6v1h-2.9v7.6h-1.2v-7.6h-2.9v-1H241.8z"/>
		<path class="st1" d="M244.8,713.4c0.2,0,0.4-0.1,0.5-0.3c0-0.1,0.1-0.2,0.1-0.4c0-0.4-0.1-0.6-0.4-0.8c-0.3-0.2-0.6-0.2-1.1-0.2
			c-0.5,0-0.9,0.1-1.2,0.4c-0.1,0.2-0.2,0.4-0.3,0.7h-1c0-0.8,0.3-1.3,0.8-1.6s1-0.5,1.7-0.5c0.7,0,1.3,0.1,1.8,0.4
			c0.5,0.3,0.7,0.7,0.7,1.3v3.6c0,0.1,0,0.2,0.1,0.3s0.1,0.1,0.3,0.1c0,0,0.1,0,0.2,0s0.1,0,0.2,0v0.8c-0.2,0-0.3,0.1-0.4,0.1
			s-0.2,0-0.4,0c-0.4,0-0.6-0.1-0.8-0.4c-0.1-0.1-0.1-0.3-0.2-0.6c-0.2,0.3-0.5,0.5-0.9,0.7s-0.8,0.3-1.3,0.3
			c-0.6,0-1.1-0.2-1.4-0.5c-0.4-0.4-0.6-0.8-0.6-1.3c0-0.6,0.2-1,0.5-1.4c0.4-0.3,0.8-0.5,1.4-0.6L244.8,713.4z M242.6,716.2
			c0.2,0.2,0.5,0.3,0.8,0.3c0.4,0,0.7-0.1,1.1-0.3c0.6-0.3,0.9-0.8,0.9-1.4V714c-0.1,0.1-0.3,0.2-0.5,0.2s-0.4,0.1-0.6,0.1l-0.6,0.1
			c-0.4,0.1-0.7,0.1-0.9,0.2c-0.3,0.2-0.5,0.5-0.5,0.9C242.2,715.8,242.3,716.1,242.6,716.2z"/>
		<path class="st1" d="M248.1,708.6h1v5l2.7-2.7h1.3l-2.4,2.3l2.5,3.9h-1.3l-2-3.2l-0.9,0.8v2.4h-1V708.6z"/>
		<path class="st1" d="M258,711.1c0.4,0.2,0.7,0.5,0.9,0.8c0.2,0.3,0.3,0.7,0.4,1.1c0.1,0.3,0.1,0.8,0.1,1.4h-4.6
			c0,0.6,0.2,1.2,0.4,1.5c0.3,0.4,0.7,0.6,1.3,0.6c0.5,0,1-0.2,1.3-0.5c0.2-0.2,0.3-0.5,0.4-0.7h1c0,0.2-0.1,0.5-0.3,0.8
			s-0.3,0.5-0.5,0.7c-0.3,0.3-0.7,0.5-1.2,0.6c-0.3,0.1-0.5,0.1-0.9,0.1c-0.8,0-1.4-0.3-2-0.9c-0.5-0.6-0.8-1.4-0.8-2.4
			c0-1,0.3-1.8,0.8-2.5c0.5-0.6,1.3-0.9,2.1-0.9C257.1,710.8,257.6,710.9,258,711.1z M258.3,713.5c0-0.5-0.1-0.8-0.3-1.1
			c-0.3-0.5-0.8-0.8-1.4-0.8c-0.5,0-0.9,0.2-1.2,0.5s-0.5,0.8-0.5,1.3H258.3z"/>
		<path class="st1" d="M268.5,714.6c0,0.7-0.1,1.3-0.3,1.7c-0.4,0.7-1.2,1.1-2.3,1.1c-0.6,0-1.2-0.2-1.7-0.5s-0.7-1-0.7-1.9v-0.6
			h1.1v0.6c0,0.5,0.1,0.8,0.3,1.1s0.5,0.4,1,0.4c0.6,0,1-0.2,1.2-0.6c0.1-0.3,0.2-0.8,0.2-1.5v-5.7h1.2V714.6z"/>
		<path class="st1" d="M270.4,708.6h3.9c0.6,0,1.2,0.1,1.6,0.3c0.8,0.4,1.2,1,1.2,2c0,0.5-0.1,0.9-0.3,1.3s-0.5,0.6-0.9,0.8
			c0.3,0.1,0.6,0.3,0.8,0.5s0.3,0.6,0.3,1.1l0,1.2c0,0.3,0,0.6,0.1,0.7c0.1,0.3,0.2,0.4,0.4,0.5v0.2H276c0-0.1-0.1-0.2-0.1-0.3
			s0-0.3-0.1-0.7l-0.1-1.4c0-0.6-0.2-0.9-0.6-1.1c-0.2-0.1-0.6-0.2-1-0.2h-2.6v3.7h-1.2V708.6z M274.2,712.5c0.5,0,1-0.1,1.3-0.3
			s0.5-0.6,0.5-1.2c0-0.6-0.2-1-0.6-1.3c-0.2-0.1-0.5-0.2-0.9-0.2h-2.8v2.9H274.2z"/>
		<path class="st1" d="M288.3,709.2c0.6,0.6,0.9,1.2,1,2h-1.1c-0.1-0.6-0.4-1-0.8-1.3s-0.9-0.5-1.6-0.5c-0.8,0-1.5,0.3-2,0.9
			c-0.5,0.6-0.8,1.5-0.8,2.7c0,1,0.2,1.8,0.7,2.5c0.5,0.6,1.2,0.9,2.1,0.9c0.8,0,1.5-0.3,1.9-1c0.2-0.3,0.4-0.8,0.5-1.4h1.1
			c-0.1,0.9-0.4,1.7-1,2.3c-0.7,0.7-1.6,1.1-2.7,1.1c-1,0-1.8-0.3-2.5-0.9c-0.9-0.8-1.3-2-1.3-3.7c0-1.3,0.3-2.3,1-3.1
			c0.7-0.9,1.7-1.3,3-1.3C286.9,708.3,287.7,708.6,288.3,709.2z"/>
		<path class="st1" d="M290.8,708.5h1.1v3.2c0.2-0.3,0.5-0.5,0.7-0.7c0.3-0.2,0.8-0.3,1.3-0.3c0.9,0,1.5,0.3,1.9,1
			c0.2,0.3,0.3,0.8,0.3,1.4v4h-1.1v-4c0-0.5-0.1-0.8-0.2-1c-0.2-0.3-0.6-0.5-1.1-0.5c-0.4,0-0.8,0.2-1.2,0.5s-0.5,0.9-0.5,1.7v3.3
			h-1.1V708.5z"/>
		<path class="st1" d="M298.5,710.9v4.2c0,0.3,0,0.6,0.1,0.8c0.2,0.4,0.5,0.6,1,0.6c0.7,0,1.2-0.3,1.5-1c0.1-0.4,0.2-0.8,0.2-1.4
			v-3.1h1.1v6.3h-1l0-0.9c-0.1,0.2-0.3,0.4-0.5,0.6c-0.4,0.3-0.9,0.5-1.4,0.5c-0.9,0-1.5-0.3-1.8-0.9c-0.2-0.3-0.3-0.7-0.3-1.3v-4.3
			H298.5z"/>
		<path class="st1" d="M308.7,711.5c0.6,0.5,0.8,1.3,0.8,2.4c0,1-0.2,1.8-0.7,2.5c-0.5,0.7-1.2,1-2.3,1c-0.9,0-1.5-0.3-2-0.9
			c-0.5-0.6-0.8-1.4-0.8-2.4c0-1.1,0.3-1.9,0.8-2.5c0.5-0.6,1.2-0.9,2.1-0.9C307.4,710.7,308.1,711,308.7,711.5z M308,715.7
			c0.3-0.5,0.4-1.1,0.4-1.8c0-0.6-0.1-1.1-0.3-1.4c-0.3-0.6-0.8-0.9-1.5-0.9c-0.6,0-1.1,0.2-1.4,0.7c-0.3,0.5-0.4,1.1-0.4,1.8
			c0,0.7,0.1,1.2,0.4,1.7c0.3,0.4,0.7,0.7,1.4,0.7C307.3,716.5,307.7,716.2,308,715.7z"/>
		<path class="st1" d="M314.1,708.6h1.1v8.6h-1.1V708.6z"/>
		<path class="st1" d="M316.8,708.6h1.1v1.2h-1.1V708.6z M316.8,710.9h1.1v6.2h-1.1V710.9z"/>
		<path class="st1" d="M319.5,710.9h1v0.9c0.3-0.4,0.6-0.6,0.9-0.8s0.7-0.2,1.1-0.2c0.9,0,1.5,0.3,1.8,0.9c0.2,0.3,0.3,0.8,0.3,1.5
			v4h-1.1v-4c0-0.4-0.1-0.7-0.2-0.9c-0.2-0.4-0.5-0.6-1-0.6c-0.2,0-0.5,0-0.6,0.1c-0.3,0.1-0.5,0.3-0.8,0.5
			c-0.2,0.2-0.3,0.4-0.3,0.6s-0.1,0.5-0.1,0.9v3.3h-1.1V710.9z"/>
		<path class="st1" d="M330,711.1c0.4,0.2,0.7,0.5,0.9,0.8c0.2,0.3,0.3,0.7,0.4,1.1c0.1,0.3,0.1,0.8,0.1,1.4h-4.6
			c0,0.6,0.2,1.2,0.4,1.5c0.3,0.4,0.7,0.6,1.3,0.6c0.5,0,1-0.2,1.3-0.5c0.2-0.2,0.3-0.5,0.4-0.7h1c0,0.2-0.1,0.5-0.3,0.8
			s-0.3,0.5-0.5,0.7c-0.3,0.3-0.7,0.5-1.2,0.6c-0.3,0.1-0.5,0.1-0.9,0.1c-0.8,0-1.4-0.3-2-0.9s-0.8-1.4-0.8-2.4c0-1,0.3-1.8,0.8-2.5
			s1.3-0.9,2.1-0.9C329.2,710.8,329.6,710.9,330,711.1z M330.4,713.5c0-0.5-0.1-0.8-0.3-1.1c-0.3-0.5-0.8-0.8-1.4-0.8
			c-0.5,0-0.9,0.2-1.2,0.5s-0.5,0.8-0.5,1.3H330.4z"/>
	</g>
	<g class="st2">
		<path class="st1" d="M232.6,723c0.2-0.4,0.7-0.5,1.4-0.5c0.1,0,0.1,0,0.2,0s0.2,0,0.2,0v1c-0.1,0-0.2,0-0.2,0c0,0-0.1,0-0.1,0
			c-0.3,0-0.5,0.1-0.6,0.2s-0.1,0.6-0.1,1.3h1.1v0.8h-1.1v5.4h-1v-5.4h-0.9v-0.8h0.9v-1C232.4,723.5,232.4,723.2,232.6,723z"/>
		<path class="st1" d="M235.4,724.9h1v1.1c0.1-0.2,0.3-0.5,0.6-0.8s0.7-0.5,1.1-0.5c0,0,0.1,0,0.1,0s0.1,0,0.2,0v1.1
			c-0.1,0-0.1,0-0.2,0s-0.1,0-0.2,0c-0.5,0-0.9,0.2-1.2,0.5s-0.4,0.7-0.4,1.2v3.6h-1.1V724.9z"/>
		<path class="st1" d="M244,725.5c0.6,0.5,0.8,1.3,0.8,2.4c0,1-0.2,1.8-0.7,2.5c-0.5,0.7-1.2,1-2.3,1c-0.9,0-1.5-0.3-2-0.9
			c-0.5-0.6-0.8-1.4-0.8-2.4c0-1.1,0.3-1.9,0.8-2.5c0.5-0.6,1.2-0.9,2.1-0.9C242.7,724.7,243.4,725,244,725.5z M243.3,729.7
			c0.3-0.5,0.4-1.1,0.4-1.8c0-0.6-0.1-1.1-0.3-1.4c-0.3-0.6-0.8-0.9-1.5-0.9c-0.6,0-1.1,0.2-1.4,0.7c-0.3,0.5-0.4,1.1-0.4,1.8
			c0,0.7,0.1,1.2,0.4,1.7c0.3,0.4,0.7,0.7,1.4,0.7C242.6,730.5,243,730.2,243.3,729.7z"/>
		<path class="st1" d="M246.1,724.9h1v0.9c0.2-0.3,0.5-0.5,0.7-0.7c0.3-0.2,0.7-0.4,1.2-0.4c0.5,0,0.9,0.1,1.2,0.4
			c0.2,0.1,0.3,0.3,0.5,0.6c0.2-0.3,0.5-0.6,0.8-0.7s0.7-0.2,1.1-0.2c0.8,0,1.4,0.3,1.7,0.9c0.2,0.3,0.2,0.8,0.2,1.3v4.2h-1.1v-4.4
			c0-0.4-0.1-0.7-0.3-0.9s-0.5-0.2-0.8-0.2c-0.4,0-0.8,0.1-1.1,0.4s-0.4,0.7-0.4,1.4v3.7h-1.1v-4.1c0-0.4-0.1-0.7-0.2-0.9
			c-0.2-0.3-0.5-0.4-0.9-0.4c-0.4,0-0.8,0.2-1.1,0.5s-0.5,0.9-0.5,1.7v3.3h-1.1V724.9z"/>
		<path class="st1" d="M259.6,722.6h1.4l4.3,7v-7h1.1v8.6H265l-4.4-6.9v6.9h-1.1V722.6z"/>
		<path class="st1" d="M271.4,727.4c0.2,0,0.4-0.1,0.5-0.3c0-0.1,0.1-0.2,0.1-0.4c0-0.4-0.1-0.6-0.4-0.8c-0.3-0.2-0.6-0.2-1.1-0.2
			c-0.5,0-0.9,0.1-1.2,0.4c-0.1,0.2-0.2,0.4-0.3,0.7h-1c0-0.8,0.3-1.3,0.8-1.6s1-0.5,1.7-0.5c0.7,0,1.3,0.1,1.8,0.4
			c0.5,0.3,0.7,0.7,0.7,1.3v3.6c0,0.1,0,0.2,0.1,0.3s0.1,0.1,0.3,0.1c0,0,0.1,0,0.2,0s0.1,0,0.2,0v0.8c-0.2,0-0.3,0.1-0.4,0.1
			s-0.2,0-0.4,0c-0.4,0-0.6-0.1-0.8-0.4c-0.1-0.1-0.1-0.3-0.2-0.6c-0.2,0.3-0.5,0.5-0.9,0.7s-0.8,0.3-1.3,0.3
			c-0.6,0-1.1-0.2-1.4-0.5c-0.4-0.4-0.6-0.8-0.6-1.3c0-0.6,0.2-1,0.5-1.4c0.4-0.3,0.8-0.5,1.4-0.6L271.4,727.4z M269.2,730.2
			c0.2,0.2,0.5,0.3,0.8,0.3c0.4,0,0.7-0.1,1.1-0.3c0.6-0.3,0.9-0.8,0.9-1.4V728c-0.1,0.1-0.3,0.2-0.5,0.2s-0.4,0.1-0.6,0.1l-0.6,0.1
			c-0.4,0.1-0.7,0.1-0.9,0.2c-0.3,0.2-0.5,0.5-0.5,0.9C268.9,729.8,269,730.1,269.2,730.2z"/>
		<path class="st1" d="M278.2,725.2c0.2,0.1,0.4,0.3,0.6,0.6V725h1v5.7c0,0.8-0.1,1.4-0.4,1.9c-0.4,0.9-1.3,1.3-2.5,1.3
			c-0.7,0-1.2-0.2-1.7-0.5s-0.7-0.8-0.8-1.4h1.1c0.1,0.3,0.2,0.5,0.3,0.7c0.2,0.2,0.6,0.4,1.1,0.4c0.8,0,1.3-0.3,1.6-0.9
			c0.1-0.3,0.2-0.9,0.2-1.8c-0.2,0.3-0.5,0.6-0.8,0.7c-0.3,0.2-0.7,0.2-1.2,0.2c-0.7,0-1.3-0.2-1.8-0.7s-0.8-1.3-0.8-2.4
			c0-1.1,0.3-1.9,0.8-2.5s1.1-0.9,1.9-0.9C277.5,724.8,277.9,724.9,278.2,725.2z M278.4,726.3c-0.3-0.4-0.7-0.6-1.2-0.6
			c-0.7,0-1.2,0.3-1.5,1c-0.1,0.4-0.2,0.9-0.2,1.5c0,0.7,0.1,1.2,0.4,1.6c0.3,0.4,0.7,0.6,1.2,0.6c0.8,0,1.3-0.3,1.6-1
			c0.2-0.4,0.3-0.8,0.3-1.4C278.9,727.2,278.7,726.7,278.4,726.3z"/>
		<path class="st1" d="M286,725.5c0.6,0.5,0.8,1.3,0.8,2.4c0,1-0.2,1.8-0.7,2.5c-0.5,0.7-1.2,1-2.3,1c-0.9,0-1.5-0.3-2-0.9
			c-0.5-0.6-0.8-1.4-0.8-2.4c0-1.1,0.3-1.9,0.8-2.5c0.5-0.6,1.2-0.9,2.1-0.9C284.7,724.7,285.4,725,286,725.5z M285.3,729.7
			c0.3-0.5,0.4-1.1,0.4-1.8c0-0.6-0.1-1.1-0.3-1.4c-0.3-0.6-0.8-0.9-1.5-0.9c-0.6,0-1.1,0.2-1.4,0.7c-0.3,0.5-0.4,1.1-0.4,1.8
			c0,0.7,0.1,1.2,0.4,1.7c0.3,0.4,0.7,0.7,1.4,0.7C284.6,730.5,285.1,730.2,285.3,729.7z"/>
		<path class="st1" d="M292,724.9h1.2c-0.1,0.4-0.5,1.3-1,2.8c-0.4,1.1-0.7,2-1,2.6c-0.6,1.6-1,2.6-1.3,2.9
			c-0.2,0.4-0.7,0.5-1.3,0.5c-0.1,0-0.3,0-0.3,0s-0.2,0-0.3-0.1v-1c0.2,0.1,0.3,0.1,0.4,0.1c0.1,0,0.2,0,0.2,0c0.2,0,0.3,0,0.4-0.1
			c0.1-0.1,0.2-0.1,0.2-0.2c0,0,0.1-0.2,0.2-0.5c0.1-0.3,0.2-0.5,0.3-0.6l-2.3-6.5h1.2l1.7,5.1L292,724.9z"/>
		<path class="st1" d="M297.5,727.4c0.2,0,0.4-0.1,0.5-0.3c0-0.1,0.1-0.2,0.1-0.4c0-0.4-0.1-0.6-0.4-0.8s-0.6-0.2-1.1-0.2
			c-0.5,0-0.9,0.1-1.2,0.4c-0.1,0.2-0.2,0.4-0.3,0.7h-1c0-0.8,0.3-1.3,0.8-1.6c0.5-0.3,1-0.5,1.7-0.5c0.7,0,1.3,0.1,1.8,0.4
			c0.5,0.3,0.7,0.7,0.7,1.3v3.6c0,0.1,0,0.2,0.1,0.3s0.1,0.1,0.3,0.1c0,0,0.1,0,0.2,0s0.1,0,0.2,0v0.8c-0.2,0-0.3,0.1-0.4,0.1
			s-0.2,0-0.4,0c-0.4,0-0.6-0.1-0.8-0.4c-0.1-0.1-0.1-0.3-0.2-0.6c-0.2,0.3-0.5,0.5-0.9,0.7s-0.8,0.3-1.3,0.3
			c-0.6,0-1.1-0.2-1.4-0.5c-0.4-0.4-0.6-0.8-0.6-1.3c0-0.6,0.2-1,0.5-1.4c0.4-0.3,0.8-0.5,1.4-0.6L297.5,727.4z M295.2,730.2
			c0.2,0.2,0.5,0.3,0.8,0.3c0.4,0,0.7-0.1,1.1-0.3c0.6-0.3,0.9-0.8,0.9-1.4V728c-0.1,0.1-0.3,0.2-0.5,0.2c-0.2,0.1-0.4,0.1-0.6,0.1
			l-0.6,0.1c-0.4,0.1-0.7,0.1-0.9,0.2c-0.3,0.2-0.5,0.5-0.5,0.9C294.9,729.8,295,730.1,295.2,730.2z"/>
		<path class="st1" d="M304.7,729.2c0,0.4,0.1,0.6,0.3,0.8c0.3,0.3,0.7,0.5,1.4,0.5c0.4,0,0.7-0.1,1.1-0.3c0.3-0.2,0.5-0.4,0.5-0.8
			c0-0.3-0.1-0.5-0.4-0.6c-0.2-0.1-0.5-0.2-0.9-0.3l-0.9-0.2c-0.5-0.1-0.9-0.3-1.2-0.4c-0.5-0.3-0.7-0.7-0.7-1.2
			c0-0.6,0.2-1.1,0.7-1.4s1-0.6,1.7-0.6c1,0,1.6,0.3,2.1,0.8c0.3,0.4,0.4,0.7,0.4,1.1h-1c0-0.2-0.1-0.5-0.3-0.6
			c-0.2-0.3-0.7-0.4-1.3-0.4c-0.4,0-0.7,0.1-0.9,0.2c-0.2,0.2-0.3,0.4-0.3,0.6c0,0.3,0.1,0.5,0.4,0.7c0.2,0.1,0.4,0.2,0.7,0.3
			l0.7,0.2c0.8,0.2,1.3,0.4,1.6,0.5c0.4,0.3,0.6,0.7,0.6,1.3c0,0.6-0.2,1-0.6,1.4s-1.1,0.6-2,0.6c-0.9,0-1.6-0.2-2-0.6
			s-0.6-0.9-0.6-1.6H304.7z"/>
		<path class="st1" d="M310.3,723.1h1.1v1.8h1v0.9h-1v4.1c0,0.2,0.1,0.4,0.2,0.4c0.1,0,0.2,0.1,0.4,0.1c0.1,0,0.1,0,0.2,0
			s0.1,0,0.2,0v0.8c-0.1,0-0.2,0.1-0.4,0.1s-0.3,0-0.4,0c-0.5,0-0.8-0.1-1-0.4s-0.3-0.6-0.3-1v-4.2h-0.8v-0.9h0.8V723.1z"/>
		<path class="st1" d="M316.8,727.4c0.2,0,0.4-0.1,0.5-0.3c0-0.1,0.1-0.2,0.1-0.4c0-0.4-0.1-0.6-0.4-0.8s-0.6-0.2-1.1-0.2
			c-0.5,0-0.9,0.1-1.2,0.4c-0.1,0.2-0.2,0.4-0.3,0.7h-1c0-0.8,0.3-1.3,0.8-1.6c0.5-0.3,1-0.5,1.7-0.5c0.7,0,1.3,0.1,1.8,0.4
			c0.5,0.3,0.7,0.7,0.7,1.3v3.6c0,0.1,0,0.2,0.1,0.3s0.1,0.1,0.3,0.1c0,0,0.1,0,0.2,0s0.1,0,0.2,0v0.8c-0.2,0-0.3,0.1-0.4,0.1
			s-0.2,0-0.4,0c-0.4,0-0.6-0.1-0.8-0.4c-0.1-0.1-0.1-0.3-0.2-0.6c-0.2,0.3-0.5,0.5-0.9,0.7s-0.8,0.3-1.3,0.3
			c-0.6,0-1.1-0.2-1.4-0.5c-0.4-0.4-0.6-0.8-0.6-1.3c0-0.6,0.2-1,0.5-1.4c0.4-0.3,0.8-0.5,1.4-0.6L316.8,727.4z M314.6,730.2
			c0.2,0.2,0.5,0.3,0.8,0.3c0.4,0,0.7-0.1,1.1-0.3c0.6-0.3,0.9-0.8,0.9-1.4V728c-0.1,0.1-0.3,0.2-0.5,0.2c-0.2,0.1-0.4,0.1-0.6,0.1
			l-0.6,0.1c-0.4,0.1-0.7,0.1-0.9,0.2c-0.3,0.2-0.5,0.5-0.5,0.9C314.3,729.8,314.4,730.1,314.6,730.2z"/>
		<path class="st1" d="M320.3,723.1h1.1v1.8h1v0.9h-1v4.1c0,0.2,0.1,0.4,0.2,0.4c0.1,0,0.2,0.1,0.4,0.1c0.1,0,0.1,0,0.2,0
			s0.1,0,0.2,0v0.8c-0.1,0-0.2,0.1-0.4,0.1s-0.3,0-0.4,0c-0.5,0-0.8-0.1-1-0.4s-0.3-0.6-0.3-1v-4.2h-0.8v-0.9h0.8V723.1z"/>
		<path class="st1" d="M323.5,722.6h1.1v1.2h-1.1V722.6z M323.5,724.9h1.1v6.2h-1.1V724.9z"/>
		<path class="st1" d="M330.7,725.5c0.6,0.5,0.8,1.3,0.8,2.4c0,1-0.2,1.8-0.7,2.5c-0.5,0.7-1.2,1-2.3,1c-0.9,0-1.5-0.3-2-0.9
			c-0.5-0.6-0.8-1.4-0.8-2.4c0-1.1,0.3-1.9,0.8-2.5c0.5-0.6,1.2-0.9,2.1-0.9C329.4,724.7,330.1,725,330.7,725.5z M330,729.7
			c0.3-0.5,0.4-1.1,0.4-1.8c0-0.6-0.1-1.1-0.3-1.4c-0.3-0.6-0.8-0.9-1.5-0.9c-0.6,0-1.1,0.2-1.4,0.7c-0.3,0.5-0.4,1.1-0.4,1.8
			c0,0.7,0.1,1.2,0.4,1.7c0.3,0.4,0.7,0.7,1.4,0.7C329.3,730.5,329.8,730.2,330,729.7z"/>
		<path class="st1" d="M332.8,724.9h1v0.9c0.3-0.4,0.6-0.6,0.9-0.8s0.7-0.2,1.1-0.2c0.9,0,1.5,0.3,1.8,0.9c0.2,0.3,0.3,0.8,0.3,1.5
			v4h-1.1v-4c0-0.4-0.1-0.7-0.2-0.9c-0.2-0.4-0.5-0.6-1-0.6c-0.2,0-0.5,0-0.6,0.1c-0.3,0.1-0.5,0.3-0.8,0.5
			c-0.2,0.2-0.3,0.4-0.3,0.6s-0.1,0.5-0.1,0.9v3.3h-1.1V724.9z"/>
	</g>
	<g class="st2">
		<path class="st1" d="M219.4,788.7h1.3l3.1,8.6h-1.3l-0.9-2.6h-3.4l-0.9,2.6h-1.2L219.4,788.7z M221.3,793.8L220,790l-1.4,3.8
			H221.3z"/>
		<path class="st1" d="M224.8,791h1v1.1c0.1-0.2,0.3-0.5,0.6-0.8s0.7-0.5,1.1-0.5c0,0,0.1,0,0.1,0s0.1,0,0.2,0v1.1
			c-0.1,0-0.1,0-0.2,0s-0.1,0-0.2,0c-0.5,0-0.9,0.2-1.2,0.5s-0.4,0.7-0.4,1.2v3.6h-1.1V791z"/>
		<path class="st1" d="M228.8,791h1v1.1c0.1-0.2,0.3-0.5,0.6-0.8s0.7-0.5,1.1-0.5c0,0,0.1,0,0.1,0s0.1,0,0.2,0v1.1
			c-0.1,0-0.1,0-0.2,0s-0.1,0-0.2,0c-0.5,0-0.9,0.2-1.2,0.5s-0.4,0.7-0.4,1.2v3.6h-1.1V791z"/>
		<path class="st1" d="M232.7,788.7h1.1v1.2h-1.1V788.7z M232.7,791h1.1v6.2h-1.1V791z"/>
		<path class="st1" d="M235.9,791l1.7,5.1l1.7-5.1h1.2l-2.4,6.3H237l-2.3-6.3H235.9z"/>
		<path class="st1" d="M244.8,793.5c0.2,0,0.4-0.1,0.5-0.3c0-0.1,0.1-0.2,0.1-0.4c0-0.4-0.1-0.6-0.4-0.8c-0.3-0.2-0.6-0.2-1.1-0.2
			c-0.5,0-0.9,0.1-1.2,0.4c-0.1,0.2-0.2,0.4-0.3,0.7h-1c0-0.8,0.3-1.3,0.8-1.6s1-0.5,1.7-0.5c0.7,0,1.3,0.1,1.8,0.4
			c0.5,0.3,0.7,0.7,0.7,1.3v3.6c0,0.1,0,0.2,0.1,0.3s0.1,0.1,0.3,0.1c0,0,0.1,0,0.2,0s0.1,0,0.2,0v0.8c-0.2,0-0.3,0.1-0.4,0.1
			s-0.2,0-0.4,0c-0.4,0-0.6-0.1-0.8-0.4c-0.1-0.1-0.1-0.3-0.2-0.6c-0.2,0.3-0.5,0.5-0.9,0.7s-0.8,0.3-1.3,0.3
			c-0.6,0-1.1-0.2-1.4-0.5c-0.4-0.4-0.6-0.8-0.6-1.3c0-0.6,0.2-1,0.5-1.4c0.4-0.3,0.8-0.5,1.4-0.6L244.8,793.5z M242.5,796.3
			c0.2,0.2,0.5,0.3,0.8,0.3c0.4,0,0.7-0.1,1.1-0.3c0.6-0.3,0.9-0.8,0.9-1.4v-0.8c-0.1,0.1-0.3,0.2-0.5,0.2s-0.4,0.1-0.6,0.1
			l-0.6,0.1c-0.4,0.1-0.7,0.1-0.9,0.2c-0.3,0.2-0.5,0.5-0.5,0.9C242.2,795.9,242.3,796.2,242.5,796.3z"/>
		<path class="st1" d="M248.1,788.7h1.1v8.6h-1.1V788.7z"/>
		<path class="st1" d="M257.4,793.5c0.2,0,0.4-0.1,0.5-0.3c0-0.1,0.1-0.2,0.1-0.4c0-0.4-0.1-0.6-0.4-0.8c-0.3-0.2-0.6-0.2-1.1-0.2
			c-0.5,0-0.9,0.1-1.2,0.4c-0.1,0.2-0.2,0.4-0.3,0.7h-1c0-0.8,0.3-1.3,0.8-1.6s1-0.5,1.7-0.5c0.7,0,1.3,0.1,1.8,0.4
			c0.5,0.3,0.7,0.7,0.7,1.3v3.6c0,0.1,0,0.2,0.1,0.3s0.1,0.1,0.3,0.1c0,0,0.1,0,0.2,0s0.1,0,0.2,0v0.8c-0.2,0-0.3,0.1-0.4,0.1
			s-0.2,0-0.4,0c-0.4,0-0.6-0.1-0.8-0.4c-0.1-0.1-0.1-0.3-0.2-0.6c-0.2,0.3-0.5,0.5-0.9,0.7s-0.8,0.3-1.3,0.3
			c-0.6,0-1.1-0.2-1.4-0.5c-0.4-0.4-0.6-0.8-0.6-1.3c0-0.6,0.2-1,0.5-1.4c0.4-0.3,0.8-0.5,1.4-0.6L257.4,793.5z M255.2,796.3
			c0.2,0.2,0.5,0.3,0.8,0.3c0.4,0,0.7-0.1,1.1-0.3c0.6-0.3,0.9-0.8,0.9-1.4v-0.8c-0.1,0.1-0.3,0.2-0.5,0.2s-0.4,0.1-0.6,0.1
			l-0.6,0.1c-0.4,0.1-0.7,0.1-0.9,0.2c-0.3,0.2-0.5,0.5-0.5,0.9C254.9,795.9,255,796.2,255.2,796.3z"/>
		<path class="st1" d="M261,789.3h1.1v1.8h1v0.9h-1v4.1c0,0.2,0.1,0.4,0.2,0.4c0.1,0,0.2,0.1,0.4,0.1c0.1,0,0.1,0,0.2,0s0.1,0,0.2,0
			v0.8c-0.1,0-0.2,0.1-0.4,0.1s-0.3,0-0.4,0c-0.5,0-0.8-0.1-1-0.4s-0.3-0.6-0.3-1v-4.2h-0.8V791h0.8V789.3z"/>
		<path class="st1" d="M268.3,794.5c0,0.5,0.1,0.9,0.3,1.2c0.4,0.6,1,0.9,2,0.9c0.4,0,0.8-0.1,1.2-0.2c0.7-0.2,1-0.7,1-1.3
			c0-0.5-0.1-0.8-0.4-1c-0.3-0.2-0.7-0.4-1.4-0.5l-1.1-0.3c-0.7-0.2-1.3-0.4-1.6-0.6c-0.5-0.4-0.8-0.9-0.8-1.6
			c0-0.8,0.3-1.4,0.8-1.9c0.5-0.5,1.3-0.7,2.2-0.7c0.9,0,1.6,0.2,2.2,0.7s0.9,1.1,0.9,2.1h-1.1c-0.1-0.5-0.2-0.8-0.4-1.1
			c-0.3-0.4-0.9-0.7-1.7-0.7c-0.7,0-1.1,0.1-1.4,0.4c-0.3,0.3-0.4,0.6-0.4,1c0,0.4,0.2,0.7,0.5,0.9c0.2,0.1,0.7,0.3,1.5,0.5l1.2,0.3
			c0.6,0.1,1,0.3,1.3,0.5c0.5,0.4,0.8,1,0.8,1.8c0,1-0.3,1.6-1,2s-1.5,0.6-2.4,0.6c-1,0-1.9-0.3-2.5-0.8c-0.6-0.5-0.9-1.3-0.9-2.2
			H268.3z"/>
		<path class="st1" d="M275.4,788.7h1.1v3.2c0.2-0.3,0.5-0.5,0.7-0.7c0.3-0.2,0.8-0.3,1.3-0.3c0.9,0,1.5,0.3,1.9,1
			c0.2,0.3,0.3,0.8,0.3,1.4v4h-1.1v-4c0-0.5-0.1-0.8-0.2-1c-0.2-0.3-0.6-0.5-1.1-0.5c-0.4,0-0.8,0.2-1.2,0.5s-0.5,0.9-0.5,1.7v3.3
			h-1.1V788.7z"/>
		<path class="st1" d="M282.1,788.7h1.1v1.2h-1.1V788.7z M282.1,791h1.1v6.2h-1.1V791z"/>
		<path class="st1" d="M284.8,791h1v0.9c0.3-0.4,0.6-0.6,0.9-0.8s0.7-0.2,1.1-0.2c0.9,0,1.5,0.3,1.8,0.9c0.2,0.3,0.3,0.8,0.3,1.5v4
			h-1.1v-4c0-0.4-0.1-0.7-0.2-0.9c-0.2-0.4-0.5-0.6-1-0.6c-0.2,0-0.5,0-0.6,0.1c-0.3,0.1-0.5,0.3-0.8,0.5c-0.2,0.2-0.3,0.4-0.3,0.6
			s-0.1,0.5-0.1,0.9v3.3h-1.1V791z"/>
		<path class="st1" d="M296,791.6c0.6,0.5,0.8,1.3,0.8,2.4c0,1-0.2,1.8-0.7,2.5c-0.5,0.7-1.2,1-2.3,1c-0.9,0-1.5-0.3-2-0.9
			c-0.5-0.6-0.8-1.4-0.8-2.4c0-1.1,0.3-1.9,0.8-2.5c0.5-0.6,1.2-0.9,2.1-0.9C294.7,790.8,295.4,791.1,296,791.6z M295.3,795.8
			c0.3-0.5,0.4-1.1,0.4-1.8c0-0.6-0.1-1.1-0.3-1.4c-0.3-0.6-0.8-0.9-1.5-0.9c-0.6,0-1.1,0.2-1.4,0.7c-0.3,0.5-0.4,1.1-0.4,1.8
			c0,0.7,0.1,1.2,0.4,1.7c0.3,0.4,0.7,0.7,1.4,0.7C294.6,796.6,295.1,796.3,295.3,795.8z"/>
		<path class="st1" d="M298.1,791h1v0.9c0.3-0.4,0.6-0.6,0.9-0.8s0.7-0.2,1.1-0.2c0.9,0,1.5,0.3,1.8,0.9c0.2,0.3,0.3,0.8,0.3,1.5v4
			h-1.1v-4c0-0.4-0.1-0.7-0.2-0.9c-0.2-0.4-0.5-0.6-1-0.6c-0.2,0-0.5,0-0.6,0.1c-0.3,0.1-0.5,0.3-0.8,0.5c-0.2,0.2-0.3,0.4-0.3,0.6
			s-0.1,0.5-0.1,0.9v3.3h-1.1V791z"/>
		<path class="st1" d="M309.3,791.6c0.6,0.5,0.8,1.3,0.8,2.4c0,1-0.2,1.8-0.7,2.5c-0.5,0.7-1.2,1-2.3,1c-0.9,0-1.5-0.3-2-0.9
			c-0.5-0.6-0.8-1.4-0.8-2.4c0-1.1,0.3-1.9,0.8-2.5c0.5-0.6,1.2-0.9,2.1-0.9C308.1,790.8,308.8,791.1,309.3,791.6z M308.7,795.8
			c0.3-0.5,0.4-1.1,0.4-1.8c0-0.6-0.1-1.1-0.3-1.4c-0.3-0.6-0.8-0.9-1.5-0.9c-0.6,0-1.1,0.2-1.4,0.7c-0.3,0.5-0.4,1.1-0.4,1.8
			c0,0.7,0.1,1.2,0.4,1.7c0.3,0.4,0.7,0.7,1.4,0.7C307.9,796.6,308.4,796.3,308.7,795.8z"/>
		<path class="st1" d="M311.5,788.7h1.1v1.2h-1.1V788.7z M311.5,791h1.1v6.2h-1.1V791z"/>
		<path class="st1" d="M318.4,794.5c0,0.5,0.1,0.9,0.3,1.2c0.4,0.6,1,0.9,2,0.9c0.4,0,0.8-0.1,1.2-0.2c0.7-0.2,1-0.7,1-1.3
			c0-0.5-0.1-0.8-0.4-1c-0.3-0.2-0.7-0.4-1.4-0.5l-1.1-0.3c-0.7-0.2-1.3-0.4-1.6-0.6c-0.5-0.4-0.8-0.9-0.8-1.6
			c0-0.8,0.3-1.4,0.8-1.9s1.3-0.7,2.2-0.7c0.9,0,1.6,0.2,2.2,0.7c0.6,0.4,0.9,1.1,0.9,2.1h-1.1c-0.1-0.5-0.2-0.8-0.4-1.1
			c-0.3-0.4-0.9-0.7-1.7-0.7c-0.7,0-1.1,0.1-1.4,0.4s-0.4,0.6-0.4,1c0,0.4,0.2,0.7,0.5,0.9c0.2,0.1,0.7,0.3,1.5,0.5l1.2,0.3
			c0.6,0.1,1,0.3,1.3,0.5c0.5,0.4,0.8,1,0.8,1.8c0,1-0.3,1.6-1,2c-0.7,0.4-1.5,0.6-2.4,0.6c-1,0-1.9-0.3-2.5-0.8
			c-0.6-0.5-0.9-1.3-0.9-2.2H318.4z"/>
		<path class="st1" d="M325.7,789.3h1.1v1.8h1v0.9h-1v4.1c0,0.2,0.1,0.4,0.2,0.4c0.1,0,0.2,0.1,0.4,0.1c0.1,0,0.1,0,0.2,0
			s0.1,0,0.2,0v0.8c-0.1,0-0.2,0.1-0.4,0.1s-0.3,0-0.4,0c-0.5,0-0.8-0.1-1-0.4s-0.3-0.6-0.3-1v-4.2h-0.8V791h0.8V789.3z"/>
		<path class="st1" d="M332.2,793.5c0.2,0,0.4-0.1,0.5-0.3c0-0.1,0.1-0.2,0.1-0.4c0-0.4-0.1-0.6-0.4-0.8s-0.6-0.2-1.1-0.2
			c-0.5,0-0.9,0.1-1.2,0.4c-0.1,0.2-0.2,0.4-0.3,0.7h-1c0-0.8,0.3-1.3,0.8-1.6c0.5-0.3,1-0.5,1.7-0.5c0.7,0,1.3,0.1,1.8,0.4
			c0.5,0.3,0.7,0.7,0.7,1.3v3.6c0,0.1,0,0.2,0.1,0.3s0.1,0.1,0.3,0.1c0,0,0.1,0,0.2,0s0.1,0,0.2,0v0.8c-0.2,0-0.3,0.1-0.4,0.1
			s-0.2,0-0.4,0c-0.4,0-0.6-0.1-0.8-0.4c-0.1-0.1-0.1-0.3-0.2-0.6c-0.2,0.3-0.5,0.5-0.9,0.7s-0.8,0.3-1.3,0.3
			c-0.6,0-1.1-0.2-1.4-0.5c-0.4-0.4-0.6-0.8-0.6-1.3c0-0.6,0.2-1,0.5-1.4c0.4-0.3,0.8-0.5,1.4-0.6L332.2,793.5z M329.9,796.3
			c0.2,0.2,0.5,0.3,0.8,0.3c0.4,0,0.7-0.1,1.1-0.3c0.6-0.3,0.9-0.8,0.9-1.4v-0.8c-0.1,0.1-0.3,0.2-0.5,0.2c-0.2,0.1-0.4,0.1-0.6,0.1
			l-0.6,0.1c-0.4,0.1-0.7,0.1-0.9,0.2c-0.3,0.2-0.5,0.5-0.5,0.9C329.6,795.9,329.7,796.2,329.9,796.3z"/>
		<path class="st1" d="M335.7,789.3h1.1v1.8h1v0.9h-1v4.1c0,0.2,0.1,0.4,0.2,0.4c0.1,0,0.2,0.1,0.4,0.1c0.1,0,0.1,0,0.2,0
			s0.1,0,0.2,0v0.8c-0.1,0-0.2,0.1-0.4,0.1s-0.3,0-0.4,0c-0.5,0-0.8-0.1-1-0.4s-0.3-0.6-0.3-1v-4.2h-0.8V791h0.8V789.3z"/>
		<path class="st1" d="M338.8,788.7h1.1v1.2h-1.1V788.7z M338.8,791h1.1v6.2h-1.1V791z"/>
		<path class="st1" d="M346,791.6c0.6,0.5,0.8,1.3,0.8,2.4c0,1-0.2,1.8-0.7,2.5c-0.5,0.7-1.2,1-2.3,1c-0.9,0-1.5-0.3-2-0.9
			c-0.5-0.6-0.8-1.4-0.8-2.4c0-1.1,0.3-1.9,0.8-2.5c0.5-0.6,1.2-0.9,2.1-0.9C344.8,790.8,345.5,791.1,346,791.6z M345.4,795.8
			c0.3-0.5,0.4-1.1,0.4-1.8c0-0.6-0.1-1.1-0.3-1.4c-0.3-0.6-0.8-0.9-1.5-0.9c-0.6,0-1.1,0.2-1.4,0.7c-0.3,0.5-0.4,1.1-0.4,1.8
			c0,0.7,0.1,1.2,0.4,1.7c0.3,0.4,0.7,0.7,1.4,0.7C344.6,796.6,345.1,796.3,345.4,795.8z"/>
		<path class="st1" d="M348.1,791h1v0.9c0.3-0.4,0.6-0.6,0.9-0.8s0.7-0.2,1.1-0.2c0.9,0,1.5,0.3,1.8,0.9c0.2,0.3,0.3,0.8,0.3,1.5v4
			h-1.1v-4c0-0.4-0.1-0.7-0.2-0.9c-0.2-0.4-0.5-0.6-1-0.6c-0.2,0-0.5,0-0.6,0.1c-0.3,0.1-0.5,0.3-0.8,0.5c-0.2,0.2-0.3,0.4-0.3,0.6
			s-0.1,0.5-0.1,0.9v3.3h-1.1V791z"/>
	</g>
	<g class="st2">
		<path class="st1" d="M263.4,802.7v1h-2.9v7.6h-1.2v-7.6h-2.9v-1H263.4z"/>
		<path class="st1" d="M263.9,805h1v1.1c0.1-0.2,0.3-0.5,0.6-0.8s0.7-0.5,1.1-0.5c0,0,0.1,0,0.1,0s0.1,0,0.2,0v1.1
			c-0.1,0-0.1,0-0.2,0s-0.1,0-0.2,0c-0.5,0-0.9,0.2-1.2,0.5s-0.4,0.7-0.4,1.2v3.6h-1.1V805z"/>
		<path class="st1" d="M271.2,807.5c0.2,0,0.4-0.1,0.5-0.3c0-0.1,0.1-0.2,0.1-0.4c0-0.4-0.1-0.6-0.4-0.8c-0.3-0.2-0.6-0.2-1.1-0.2
			c-0.5,0-0.9,0.1-1.2,0.4c-0.1,0.2-0.2,0.4-0.3,0.7h-1c0-0.8,0.3-1.3,0.8-1.6s1-0.5,1.7-0.5c0.7,0,1.3,0.1,1.8,0.4
			c0.5,0.3,0.7,0.7,0.7,1.3v3.6c0,0.1,0,0.2,0.1,0.3s0.1,0.1,0.3,0.1c0,0,0.1,0,0.2,0s0.1,0,0.2,0v0.8c-0.2,0-0.3,0.1-0.4,0.1
			s-0.2,0-0.4,0c-0.4,0-0.6-0.1-0.8-0.4c-0.1-0.1-0.1-0.3-0.2-0.6c-0.2,0.3-0.5,0.5-0.9,0.7s-0.8,0.3-1.3,0.3
			c-0.6,0-1.1-0.2-1.4-0.5c-0.4-0.4-0.6-0.8-0.6-1.3c0-0.6,0.2-1,0.5-1.4c0.4-0.3,0.8-0.5,1.4-0.6L271.2,807.5z M269,810.3
			c0.2,0.2,0.5,0.3,0.8,0.3c0.4,0,0.7-0.1,1.1-0.3c0.6-0.3,0.9-0.8,0.9-1.4v-0.8c-0.1,0.1-0.3,0.2-0.5,0.2s-0.4,0.1-0.6,0.1
			l-0.6,0.1c-0.4,0.1-0.7,0.1-0.9,0.2c-0.3,0.2-0.5,0.5-0.5,0.9C268.7,809.9,268.8,810.2,269,810.3z"/>
		<path class="st1" d="M274.5,805h1v0.9c0.3-0.4,0.6-0.6,0.9-0.8s0.7-0.2,1.1-0.2c0.9,0,1.5,0.3,1.8,0.9c0.2,0.3,0.3,0.8,0.3,1.5v4
			h-1.1v-4c0-0.4-0.1-0.7-0.2-0.9c-0.2-0.4-0.5-0.6-1-0.6c-0.2,0-0.5,0-0.6,0.1c-0.3,0.1-0.5,0.3-0.8,0.5c-0.2,0.2-0.3,0.4-0.3,0.6
			s-0.1,0.5-0.1,0.9v3.3h-1.1V805z"/>
		<path class="st1" d="M281.8,809.3c0,0.4,0.1,0.6,0.3,0.8c0.3,0.3,0.7,0.5,1.4,0.5c0.4,0,0.7-0.1,1.1-0.3s0.5-0.4,0.5-0.8
			c0-0.3-0.1-0.5-0.4-0.6c-0.2-0.1-0.5-0.2-0.9-0.3l-0.9-0.2c-0.5-0.1-0.9-0.3-1.2-0.4c-0.5-0.3-0.7-0.7-0.7-1.2
			c0-0.6,0.2-1.1,0.7-1.4c0.4-0.4,1-0.6,1.7-0.6c1,0,1.6,0.3,2.1,0.8c0.3,0.4,0.4,0.7,0.4,1.1h-1c0-0.2-0.1-0.5-0.3-0.6
			c-0.2-0.3-0.7-0.4-1.3-0.4c-0.4,0-0.7,0.1-0.9,0.2c-0.2,0.2-0.3,0.4-0.3,0.6c0,0.3,0.1,0.5,0.4,0.7c0.2,0.1,0.4,0.2,0.7,0.3
			l0.7,0.2c0.8,0.2,1.3,0.4,1.6,0.5c0.4,0.3,0.6,0.7,0.6,1.3c0,0.6-0.2,1-0.6,1.4c-0.4,0.4-1.1,0.6-2,0.6c-0.9,0-1.6-0.2-2-0.6
			s-0.6-0.9-0.6-1.6H281.8z"/>
		<path class="st1" d="M287.7,803.1c0.2-0.4,0.7-0.5,1.4-0.5c0.1,0,0.1,0,0.2,0s0.2,0,0.2,0v1c-0.1,0-0.2,0-0.2,0c0,0-0.1,0-0.1,0
			c-0.3,0-0.5,0.1-0.6,0.2c-0.1,0.2-0.1,0.6-0.1,1.3h1.1v0.8h-1.1v5.4h-1v-5.4h-0.9V805h0.9v-1C287.5,803.6,287.6,803.3,287.7,803.1
			z"/>
		<path class="st1" d="M294.4,805.2c0.4,0.2,0.7,0.5,0.9,0.8c0.2,0.3,0.3,0.7,0.4,1.1c0.1,0.3,0.1,0.8,0.1,1.4h-4.6
			c0,0.6,0.2,1.2,0.4,1.5c0.3,0.4,0.7,0.6,1.3,0.6c0.5,0,1-0.2,1.3-0.5c0.2-0.2,0.3-0.5,0.4-0.7h1c0,0.2-0.1,0.5-0.3,0.8
			s-0.3,0.5-0.5,0.7c-0.3,0.3-0.7,0.5-1.2,0.6c-0.3,0.1-0.5,0.1-0.9,0.1c-0.8,0-1.4-0.3-2-0.9s-0.8-1.4-0.8-2.4c0-1,0.3-1.8,0.8-2.5
			s1.3-0.9,2.1-0.9C293.6,804.9,294,805,294.4,805.2z M294.8,807.7c0-0.5-0.1-0.8-0.3-1.1c-0.3-0.5-0.8-0.8-1.4-0.8
			c-0.5,0-0.9,0.2-1.2,0.5s-0.5,0.8-0.5,1.3H294.8z"/>
		<path class="st1" d="M297.3,805h1v1.1c0.1-0.2,0.3-0.5,0.6-0.8s0.7-0.5,1.1-0.5c0,0,0.1,0,0.1,0s0.1,0,0.2,0v1.1
			c-0.1,0-0.1,0-0.2,0s-0.1,0-0.2,0c-0.5,0-0.9,0.2-1.2,0.5s-0.4,0.7-0.4,1.2v3.6h-1.1V805z"/>
		<path class="st1" d="M304.8,803.3h1.1v1.8h1v0.9h-1v4.1c0,0.2,0.1,0.4,0.2,0.4c0.1,0,0.2,0.1,0.4,0.1c0.1,0,0.1,0,0.2,0
			s0.1,0,0.2,0v0.8c-0.1,0-0.2,0.1-0.4,0.1s-0.3,0-0.4,0c-0.5,0-0.8-0.1-1-0.4s-0.3-0.6-0.3-1v-4.2h-0.8V805h0.8V803.3z"/>
		<path class="st1" d="M312.4,805.6c0.6,0.5,0.8,1.3,0.8,2.4c0,1-0.2,1.8-0.7,2.5c-0.5,0.7-1.2,1-2.3,1c-0.9,0-1.5-0.3-2-0.9
			c-0.5-0.6-0.8-1.4-0.8-2.4c0-1.1,0.3-1.9,0.8-2.5c0.5-0.6,1.2-0.9,2.1-0.9C311.2,804.8,311.9,805.1,312.4,805.6z M311.8,809.8
			c0.3-0.5,0.4-1.1,0.4-1.8c0-0.6-0.1-1.1-0.3-1.4c-0.3-0.6-0.8-0.9-1.5-0.9c-0.6,0-1.1,0.2-1.4,0.7c-0.3,0.5-0.4,1.1-0.4,1.8
			c0,0.7,0.1,1.2,0.4,1.7c0.3,0.4,0.7,0.7,1.4,0.7C311.1,810.6,311.5,810.3,311.8,809.8z"/>
	</g>
	<g class="st2">
		<path class="st1" d="M243.7,822.5c0,0.5,0.1,0.9,0.3,1.2c0.4,0.6,1,0.9,2,0.9c0.4,0,0.8-0.1,1.2-0.2c0.7-0.2,1-0.7,1-1.3
			c0-0.5-0.1-0.8-0.4-1c-0.3-0.2-0.7-0.4-1.4-0.5l-1.1-0.3c-0.7-0.2-1.3-0.4-1.6-0.6c-0.5-0.4-0.8-0.9-0.8-1.6
			c0-0.8,0.3-1.4,0.8-1.9c0.5-0.5,1.3-0.7,2.2-0.7c0.9,0,1.6,0.2,2.2,0.7s0.9,1.1,0.9,2.1h-1.1c-0.1-0.5-0.2-0.8-0.4-1.1
			c-0.3-0.4-0.9-0.7-1.7-0.7c-0.7,0-1.1,0.1-1.4,0.4c-0.3,0.3-0.4,0.6-0.4,1c0,0.4,0.2,0.7,0.5,0.9c0.2,0.1,0.7,0.3,1.5,0.5l1.2,0.3
			c0.6,0.1,1,0.3,1.3,0.5c0.5,0.4,0.8,1,0.8,1.8c0,1-0.3,1.6-1,2s-1.5,0.6-2.4,0.6c-1,0-1.9-0.3-2.5-0.8c-0.6-0.5-0.9-1.3-0.9-2.2
			H243.7z"/>
		<path class="st1" d="M250.8,816.7h1.1v3.2c0.2-0.3,0.5-0.5,0.7-0.7c0.3-0.2,0.8-0.3,1.3-0.3c0.9,0,1.5,0.3,1.9,1
			c0.2,0.3,0.3,0.8,0.3,1.4v4h-1.1v-4c0-0.5-0.1-0.8-0.2-1c-0.2-0.3-0.6-0.5-1.1-0.5c-0.4,0-0.8,0.2-1.2,0.5s-0.5,0.9-0.5,1.7v3.3
			h-1.1V816.7z"/>
		<path class="st1" d="M257.4,816.7h1.1v1.2h-1.1V816.7z M257.4,819h1.1v6.2h-1.1V819z"/>
		<path class="st1" d="M260.1,819h1v0.9c0.3-0.4,0.6-0.6,0.9-0.8s0.7-0.2,1.1-0.2c0.9,0,1.5,0.3,1.8,0.9c0.2,0.3,0.3,0.8,0.3,1.5v4
			h-1.1v-4c0-0.4-0.1-0.7-0.2-0.9c-0.2-0.4-0.5-0.6-1-0.6c-0.2,0-0.5,0-0.6,0.1c-0.3,0.1-0.5,0.3-0.8,0.5c-0.2,0.2-0.3,0.4-0.3,0.6
			s-0.1,0.5-0.1,0.9v3.3h-1.1V819z"/>
		<path class="st1" d="M270.1,821.5c0.2,0,0.4-0.1,0.5-0.3c0-0.1,0.1-0.2,0.1-0.4c0-0.4-0.1-0.6-0.4-0.8c-0.3-0.2-0.6-0.2-1.1-0.2
			c-0.5,0-0.9,0.1-1.2,0.4c-0.1,0.2-0.2,0.4-0.3,0.7h-1c0-0.8,0.3-1.3,0.8-1.6s1-0.5,1.7-0.5c0.7,0,1.3,0.1,1.8,0.4
			c0.5,0.3,0.7,0.7,0.7,1.3v3.6c0,0.1,0,0.2,0.1,0.3s0.1,0.1,0.3,0.1c0,0,0.1,0,0.2,0s0.1,0,0.2,0v0.8c-0.2,0-0.3,0.1-0.4,0.1
			s-0.2,0-0.4,0c-0.4,0-0.6-0.1-0.8-0.4c-0.1-0.1-0.1-0.3-0.2-0.6c-0.2,0.3-0.5,0.5-0.9,0.7s-0.8,0.3-1.3,0.3
			c-0.6,0-1.1-0.2-1.4-0.5c-0.4-0.4-0.6-0.8-0.6-1.3c0-0.6,0.2-1,0.5-1.4c0.4-0.3,0.8-0.5,1.4-0.6L270.1,821.5z M267.9,824.3
			c0.2,0.2,0.5,0.3,0.8,0.3c0.4,0,0.7-0.1,1.1-0.3c0.6-0.3,0.9-0.8,0.9-1.4v-0.8c-0.1,0.1-0.3,0.2-0.5,0.2s-0.4,0.1-0.6,0.1
			l-0.6,0.1c-0.4,0.1-0.7,0.1-0.9,0.2c-0.3,0.2-0.5,0.5-0.5,0.9C267.6,823.9,267.7,824.2,267.9,824.3z"/>
		<path class="st1" d="M273.4,819h1v0.9c0.3-0.4,0.6-0.6,0.9-0.8s0.7-0.2,1.1-0.2c0.9,0,1.5,0.3,1.8,0.9c0.2,0.3,0.3,0.8,0.3,1.5v4
			h-1.1v-4c0-0.4-0.1-0.7-0.2-0.9c-0.2-0.4-0.5-0.6-1-0.6c-0.2,0-0.5,0-0.6,0.1c-0.3,0.1-0.5,0.3-0.8,0.5c-0.2,0.2-0.3,0.4-0.3,0.6
			s-0.1,0.5-0.1,0.9v3.3h-1.1V819z"/>
		<path class="st1" d="M284.7,819.6c0.6,0.5,0.8,1.3,0.8,2.4c0,1-0.2,1.8-0.7,2.5c-0.5,0.7-1.2,1-2.3,1c-0.9,0-1.5-0.3-2-0.9
			c-0.5-0.6-0.8-1.4-0.8-2.4c0-1.1,0.3-1.9,0.8-2.5c0.5-0.6,1.2-0.9,2.1-0.9C283.4,818.8,284.1,819.1,284.7,819.6z M284,823.8
			c0.3-0.5,0.4-1.1,0.4-1.8c0-0.6-0.1-1.1-0.3-1.4c-0.3-0.6-0.8-0.9-1.5-0.9c-0.6,0-1.1,0.2-1.4,0.7c-0.3,0.5-0.4,1.1-0.4,1.8
			c0,0.7,0.1,1.2,0.4,1.7c0.3,0.4,0.7,0.7,1.4,0.7C283.3,824.6,283.7,824.3,284,823.8z"/>
		<path class="st1" d="M290.4,816.7h3.9c0.6,0,1.2,0.1,1.6,0.3c0.8,0.4,1.2,1,1.2,2c0,0.5-0.1,0.9-0.3,1.3s-0.5,0.6-0.9,0.8
			c0.3,0.1,0.6,0.3,0.8,0.5s0.3,0.6,0.3,1.1l0,1.2c0,0.3,0,0.6,0.1,0.7c0.1,0.3,0.2,0.4,0.4,0.5v0.2H296c0-0.1-0.1-0.2-0.1-0.3
			s0-0.3-0.1-0.7l-0.1-1.4c0-0.6-0.2-0.9-0.6-1.1c-0.2-0.1-0.6-0.2-1-0.2h-2.6v3.7h-1.2V816.7z M294.2,820.6c0.5,0,1-0.1,1.3-0.3
			s0.5-0.6,0.5-1.2c0-0.6-0.2-1-0.6-1.3c-0.2-0.1-0.5-0.2-0.9-0.2h-2.8v2.9H294.2z"/>
		<path class="st1" d="M302.2,821.5c0.2,0,0.4-0.1,0.5-0.3c0-0.1,0.1-0.2,0.1-0.4c0-0.4-0.1-0.6-0.4-0.8s-0.6-0.2-1.1-0.2
			c-0.5,0-0.9,0.1-1.2,0.4c-0.1,0.2-0.2,0.4-0.3,0.7h-1c0-0.8,0.3-1.3,0.8-1.6c0.5-0.3,1-0.5,1.7-0.5c0.7,0,1.3,0.1,1.8,0.4
			c0.5,0.3,0.7,0.7,0.7,1.3v3.6c0,0.1,0,0.2,0.1,0.3s0.1,0.1,0.3,0.1c0,0,0.1,0,0.2,0s0.1,0,0.2,0v0.8c-0.2,0-0.3,0.1-0.4,0.1
			s-0.2,0-0.4,0c-0.4,0-0.6-0.1-0.8-0.4c-0.1-0.1-0.1-0.3-0.2-0.6c-0.2,0.3-0.5,0.5-0.9,0.7s-0.8,0.3-1.3,0.3
			c-0.6,0-1.1-0.2-1.4-0.5c-0.4-0.4-0.6-0.8-0.6-1.3c0-0.6,0.2-1,0.5-1.4c0.4-0.3,0.8-0.5,1.4-0.6L302.2,821.5z M299.9,824.3
			c0.2,0.2,0.5,0.3,0.8,0.3c0.4,0,0.7-0.1,1.1-0.3c0.6-0.3,0.9-0.8,0.9-1.4v-0.8c-0.1,0.1-0.3,0.2-0.5,0.2c-0.2,0.1-0.4,0.1-0.6,0.1
			l-0.6,0.1c-0.4,0.1-0.7,0.1-0.9,0.2c-0.3,0.2-0.5,0.5-0.5,0.9C299.6,823.9,299.7,824.2,299.9,824.3z"/>
		<path class="st1" d="M305.5,816.7h1.1v1.2h-1.1V816.7z M305.5,819h1.1v6.2h-1.1V819z"/>
		<path class="st1" d="M308.2,816.7h1.1v8.6h-1.1V816.7z"/>
		<path class="st1" d="M311.3,819l1.2,4.9l1.2-4.9h1.2l1.2,4.9l1.3-4.9h1.1l-1.8,6.3h-1.1l-1.3-4.9l-1.2,4.9h-1.1l-1.8-6.3H311.3z"
			/>
		<path class="st1" d="M322.8,821.5c0.2,0,0.4-0.1,0.5-0.3c0-0.1,0.1-0.2,0.1-0.4c0-0.4-0.1-0.6-0.4-0.8s-0.6-0.2-1.1-0.2
			c-0.5,0-0.9,0.1-1.2,0.4c-0.1,0.2-0.2,0.4-0.3,0.7h-1c0-0.8,0.3-1.3,0.8-1.6c0.5-0.3,1-0.5,1.7-0.5c0.7,0,1.3,0.1,1.8,0.4
			c0.5,0.3,0.7,0.7,0.7,1.3v3.6c0,0.1,0,0.2,0.1,0.3s0.1,0.1,0.3,0.1c0,0,0.1,0,0.2,0s0.1,0,0.2,0v0.8c-0.2,0-0.3,0.1-0.4,0.1
			s-0.2,0-0.4,0c-0.4,0-0.6-0.1-0.8-0.4c-0.1-0.1-0.1-0.3-0.2-0.6c-0.2,0.3-0.5,0.5-0.9,0.7s-0.8,0.3-1.3,0.3
			c-0.6,0-1.1-0.2-1.4-0.5c-0.4-0.4-0.6-0.8-0.6-1.3c0-0.6,0.2-1,0.5-1.4c0.4-0.3,0.8-0.5,1.4-0.6L322.8,821.5z M320.6,824.3
			c0.2,0.2,0.5,0.3,0.8,0.3c0.4,0,0.7-0.1,1.1-0.3c0.6-0.3,0.9-0.8,0.9-1.4v-0.8c-0.1,0.1-0.3,0.2-0.5,0.2c-0.2,0.1-0.4,0.1-0.6,0.1
			l-0.6,0.1c-0.4,0.1-0.7,0.1-0.9,0.2c-0.3,0.2-0.5,0.5-0.5,0.9C320.3,823.9,320.4,824.2,320.6,824.3z"/>
		<path class="st1" d="M330.1,819h1.2c-0.1,0.4-0.5,1.3-1,2.8c-0.4,1.1-0.7,2-1,2.6c-0.6,1.6-1,2.6-1.3,2.9
			c-0.2,0.4-0.7,0.5-1.3,0.5c-0.1,0-0.3,0-0.3,0s-0.2,0-0.3-0.1v-1c0.2,0.1,0.3,0.1,0.4,0.1c0.1,0,0.2,0,0.2,0c0.2,0,0.3,0,0.4-0.1
			c0.1-0.1,0.2-0.1,0.2-0.2c0,0,0.1-0.2,0.2-0.5c0.1-0.3,0.2-0.5,0.3-0.6l-2.3-6.5h1.2l1.7,5.1L330.1,819z"/>
	</g>
	<g id="パス_1782" transform="translate(215 866.922)">
		<path class="st3" d="M139.5,39.5H0.5v-39h139V39.5z"/>
		<path class="st0" d="M1,1v38h138V1H1 M0,0h140v40H0V0z"/>
	</g>
	<g class="st2">
		<path class="st1" d="M249.6,882.4v1h-2.9v7.6h-1.2v-7.6h-2.9v-1H249.6z"/>
		<path class="st1" d="M254.3,885.3c0.6,0.5,0.8,1.3,0.8,2.4c0,1-0.2,1.8-0.7,2.5c-0.5,0.7-1.2,1-2.3,1c-0.9,0-1.5-0.3-2-0.9
			c-0.5-0.6-0.8-1.4-0.8-2.4c0-1.1,0.3-1.9,0.8-2.5c0.5-0.6,1.2-0.9,2.1-0.9C253.1,884.5,253.8,884.8,254.3,885.3z M253.7,889.5
			c0.3-0.5,0.4-1.1,0.4-1.8c0-0.6-0.1-1.1-0.3-1.4c-0.3-0.6-0.8-0.9-1.5-0.9c-0.6,0-1.1,0.2-1.4,0.7c-0.3,0.5-0.4,1.1-0.4,1.8
			c0,0.7,0.1,1.2,0.4,1.7c0.3,0.4,0.7,0.7,1.4,0.7C252.9,890.3,253.4,890,253.7,889.5z"/>
		<path class="st1" d="M260.5,885c0.2,0.1,0.4,0.3,0.6,0.6v-0.8h1v5.7c0,0.8-0.1,1.4-0.4,1.9c-0.4,0.9-1.3,1.3-2.5,1.3
			c-0.7,0-1.2-0.2-1.7-0.5s-0.7-0.8-0.8-1.4h1.1c0.1,0.3,0.2,0.5,0.3,0.7c0.2,0.2,0.6,0.4,1.1,0.4c0.8,0,1.3-0.3,1.6-0.9
			c0.1-0.3,0.2-0.9,0.2-1.8c-0.2,0.3-0.5,0.6-0.8,0.7c-0.3,0.2-0.7,0.2-1.2,0.2c-0.7,0-1.3-0.2-1.8-0.7s-0.8-1.3-0.8-2.4
			c0-1.1,0.3-1.9,0.8-2.5s1.1-0.9,1.9-0.9C259.8,884.6,260.2,884.7,260.5,885z M260.7,886.1c-0.3-0.4-0.7-0.6-1.2-0.6
			c-0.7,0-1.2,0.3-1.5,1c-0.1,0.4-0.2,0.9-0.2,1.5c0,0.7,0.1,1.2,0.4,1.6c0.3,0.4,0.7,0.6,1.2,0.6c0.8,0,1.3-0.3,1.6-1
			c0.2-0.4,0.3-0.8,0.3-1.4C261.2,887,261,886.5,260.7,886.1z"/>
		<path class="st1" d="M265.4,884.7v4.2c0,0.3,0,0.6,0.1,0.8c0.2,0.4,0.5,0.6,1,0.6c0.7,0,1.2-0.3,1.5-1c0.1-0.4,0.2-0.8,0.2-1.4
			v-3.1h1.1v6.3h-1l0-0.9c-0.1,0.2-0.3,0.4-0.5,0.6c-0.4,0.3-0.9,0.5-1.4,0.5c-0.9,0-1.5-0.3-1.8-0.9c-0.2-0.3-0.3-0.7-0.3-1.3v-4.3
			H265.4z"/>
		<path class="st1" d="M271.6,884.7h1v1.1c0.1-0.2,0.3-0.5,0.6-0.8s0.7-0.5,1.1-0.5c0,0,0.1,0,0.1,0s0.1,0,0.2,0v1.1
			c-0.1,0-0.1,0-0.2,0s-0.1,0-0.2,0c-0.5,0-0.9,0.2-1.2,0.5s-0.4,0.7-0.4,1.2v3.6h-1.1V884.7z"/>
		<path class="st1" d="M279.6,887.2c0.2,0,0.4-0.1,0.5-0.3c0-0.1,0.1-0.2,0.1-0.4c0-0.4-0.1-0.6-0.4-0.8c-0.3-0.2-0.6-0.2-1.1-0.2
			c-0.5,0-0.9,0.1-1.2,0.4c-0.1,0.2-0.2,0.4-0.3,0.7h-1c0-0.8,0.3-1.3,0.8-1.6s1-0.5,1.7-0.5c0.7,0,1.3,0.1,1.8,0.4
			c0.5,0.3,0.7,0.7,0.7,1.3v3.6c0,0.1,0,0.2,0.1,0.3s0.1,0.1,0.3,0.1c0,0,0.1,0,0.2,0s0.1,0,0.2,0v0.8c-0.2,0-0.3,0.1-0.4,0.1
			s-0.2,0-0.4,0c-0.4,0-0.6-0.1-0.8-0.4c-0.1-0.1-0.1-0.3-0.2-0.6c-0.2,0.3-0.5,0.5-0.9,0.7s-0.8,0.3-1.3,0.3
			c-0.6,0-1.1-0.2-1.4-0.5c-0.4-0.4-0.6-0.8-0.6-1.3c0-0.6,0.2-1,0.5-1.4c0.4-0.3,0.8-0.5,1.4-0.6L279.6,887.2z M277.3,890
			c0.2,0.2,0.5,0.3,0.8,0.3c0.4,0,0.7-0.1,1.1-0.3c0.6-0.3,0.9-0.8,0.9-1.4v-0.8c-0.1,0.1-0.3,0.2-0.5,0.2s-0.4,0.1-0.6,0.1
			l-0.6,0.1c-0.4,0.1-0.7,0.1-0.9,0.2c-0.3,0.2-0.5,0.5-0.5,0.9C277,889.6,277.1,889.9,277.3,890z"/>
		<path class="st1" d="M288.3,888.2c0,0.5,0.1,0.9,0.3,1.2c0.4,0.6,1,0.9,2,0.9c0.4,0,0.8-0.1,1.2-0.2c0.7-0.2,1-0.7,1-1.3
			c0-0.5-0.1-0.8-0.4-1c-0.3-0.2-0.7-0.4-1.4-0.5l-1.1-0.3c-0.7-0.2-1.3-0.4-1.6-0.6c-0.5-0.4-0.8-0.9-0.8-1.6
			c0-0.8,0.3-1.4,0.8-1.9c0.5-0.5,1.3-0.7,2.2-0.7c0.9,0,1.6,0.2,2.2,0.7c0.6,0.4,0.9,1.1,0.9,2.1h-1.1c-0.1-0.5-0.2-0.8-0.4-1.1
			c-0.3-0.4-0.9-0.7-1.7-0.7c-0.7,0-1.1,0.1-1.4,0.4c-0.3,0.3-0.4,0.6-0.4,1c0,0.4,0.2,0.7,0.5,0.9c0.2,0.1,0.7,0.3,1.5,0.5l1.2,0.3
			c0.6,0.1,1,0.3,1.3,0.5c0.5,0.4,0.8,1,0.8,1.8c0,1-0.3,1.6-1,2c-0.7,0.4-1.5,0.6-2.4,0.6c-1,0-1.9-0.3-2.5-0.8
			c-0.6-0.5-0.9-1.3-0.9-2.2H288.3z"/>
		<path class="st1" d="M296.2,883h1.1v1.8h1v0.9h-1v4.1c0,0.2,0.1,0.4,0.2,0.4c0.1,0,0.2,0.1,0.4,0.1c0.1,0,0.1,0,0.2,0s0.1,0,0.2,0
			v0.8c-0.1,0-0.2,0.1-0.4,0.1s-0.3,0-0.4,0c-0.5,0-0.8-0.1-1-0.4s-0.3-0.6-0.3-1v-4.2h-0.8v-0.9h0.8V883z"/>
		<path class="st1" d="M303.3,887.2c0.2,0,0.4-0.1,0.5-0.3c0-0.1,0.1-0.2,0.1-0.4c0-0.4-0.1-0.6-0.4-0.8s-0.6-0.2-1.1-0.2
			c-0.5,0-0.9,0.1-1.2,0.4c-0.1,0.2-0.2,0.4-0.3,0.7h-1c0-0.8,0.3-1.3,0.8-1.6c0.5-0.3,1-0.5,1.7-0.5c0.7,0,1.3,0.1,1.8,0.4
			c0.5,0.3,0.7,0.7,0.7,1.3v3.6c0,0.1,0,0.2,0.1,0.3s0.1,0.1,0.3,0.1c0,0,0.1,0,0.2,0s0.1,0,0.2,0v0.8c-0.2,0-0.3,0.1-0.4,0.1
			s-0.2,0-0.4,0c-0.4,0-0.6-0.1-0.8-0.4c-0.1-0.1-0.1-0.3-0.2-0.6c-0.2,0.3-0.5,0.5-0.9,0.7s-0.8,0.3-1.3,0.3
			c-0.6,0-1.1-0.2-1.4-0.5c-0.4-0.4-0.6-0.8-0.6-1.3c0-0.6,0.2-1,0.5-1.4c0.4-0.3,0.8-0.5,1.4-0.6L303.3,887.2z M301.1,890
			c0.2,0.2,0.5,0.3,0.8,0.3c0.4,0,0.7-0.1,1.1-0.3c0.6-0.3,0.9-0.8,0.9-1.4v-0.8c-0.1,0.1-0.3,0.2-0.5,0.2c-0.2,0.1-0.4,0.1-0.6,0.1
			l-0.6,0.1c-0.4,0.1-0.7,0.1-0.9,0.2c-0.3,0.2-0.5,0.5-0.5,0.9C300.8,889.6,300.9,889.9,301.1,890z"/>
		<path class="st1" d="M307.4,883h1.1v1.8h1v0.9h-1v4.1c0,0.2,0.1,0.4,0.2,0.4c0.1,0,0.2,0.1,0.4,0.1c0.1,0,0.1,0,0.2,0s0.1,0,0.2,0
			v0.8c-0.1,0-0.2,0.1-0.4,0.1s-0.3,0-0.4,0c-0.5,0-0.8-0.1-1-0.4s-0.3-0.6-0.3-1v-4.2h-0.8v-0.9h0.8V883z"/>
		<path class="st1" d="M311.2,882.4h1.1v1.2h-1.1V882.4z M311.2,884.7h1.1v6.2h-1.1V884.7z"/>
		<path class="st1" d="M319,885.3c0.6,0.5,0.8,1.3,0.8,2.4c0,1-0.2,1.8-0.7,2.5s-1.2,1-2.3,1c-0.9,0-1.5-0.3-2-0.9
			c-0.5-0.6-0.8-1.4-0.8-2.4c0-1.1,0.3-1.9,0.8-2.5c0.5-0.6,1.2-0.9,2.1-0.9C317.7,884.5,318.4,884.8,319,885.3z M318.3,889.5
			c0.3-0.5,0.4-1.1,0.4-1.8c0-0.6-0.1-1.1-0.3-1.4c-0.3-0.6-0.8-0.9-1.5-0.9c-0.6,0-1.1,0.2-1.4,0.7c-0.3,0.5-0.4,1.1-0.4,1.8
			c0,0.7,0.1,1.2,0.4,1.7c0.3,0.4,0.7,0.7,1.4,0.7C317.6,890.3,318.1,890,318.3,889.5z"/>
		<path class="st1" d="M321.7,884.7h1v0.9c0.3-0.4,0.6-0.6,0.9-0.8s0.7-0.2,1.1-0.2c0.9,0,1.5,0.3,1.8,0.9c0.2,0.3,0.3,0.8,0.3,1.5
			v4h-1.1v-4c0-0.4-0.1-0.7-0.2-0.9c-0.2-0.4-0.5-0.6-1-0.6c-0.2,0-0.5,0-0.6,0.1c-0.3,0.1-0.5,0.3-0.8,0.5
			c-0.2,0.2-0.3,0.4-0.3,0.6s-0.1,0.5-0.1,0.9v3.3h-1.1V884.7z"/>
	</g>
</g>
</svg>
