<?xml version="1.0" encoding="utf-8"?>
<!-- Generator: Adobe Illustrator 28.1.0, SVG Export Plug-In . SVG Version: 6.00 Build 0)  -->
<svg version="1.1" id="レイヤー_1" xmlns="http://www.w3.org/2000/svg" xmlns:xlink="http://www.w3.org/1999/xlink" x="0px"
	 y="0px" viewBox="0 0 120 312.2" style="enable-background:new 0 0 120 312.2;" xml:space="preserve">
<style type="text/css">
	.st0{fill:#7F4F21;}
	.st1{fill:#2B2624;}
	.st2{enable-background:new    ;}
	.st3{fill:#FFFFFF;}
	.st4{fill:#009139;}
	.st5{fill:#07913A;}
</style>
<g id="グループ_1404" transform="translate(-638 -1504.815)">
	<rect id="長方形_741" x="697" y="1565.8" class="st0" width="1" height="220.1"/>
	<path id="長方形_740" class="st1" d="M650.5,1504.8h95c6.9,0,12.5,5.6,12.5,12.5l0,0c0,6.9-5.6,12.5-12.5,12.5h-95
		c-6.9,0-12.5-5.6-12.5-12.5l0,0C638,1510.4,643.6,1504.8,650.5,1504.8z"/>
	<g class="st2">
		<path class="st3" d="M659.6,1512.7h7v1.2H661v3h4.9v1.2H661v4.6h-1.4V1512.7z"/>
		<path class="st3" d="M668.6,1515.5h1.2v1.3c0.1-0.2,0.3-0.5,0.7-0.9c0.4-0.4,0.8-0.5,1.3-0.5c0,0,0.1,0,0.1,0s0.1,0,0.3,0v1.3
			c-0.1,0-0.1,0-0.2,0s-0.1,0-0.2,0c-0.6,0-1.1,0.2-1.4,0.6c-0.3,0.4-0.5,0.9-0.5,1.4v4.2h-1.2V1515.5z"/>
		<path class="st3" d="M679.2,1516.2c0.6,0.6,1,1.6,1,2.8c0,1.2-0.3,2.2-0.9,2.9c-0.6,0.8-1.5,1.2-2.7,1.2c-1,0-1.8-0.3-2.4-1
			c-0.6-0.7-0.9-1.6-0.9-2.7c0-1.2,0.3-2.2,0.9-2.9c0.6-0.7,1.5-1.1,2.5-1.1C677.8,1515.3,678.6,1515.6,679.2,1516.2z M678.5,1521.1
			c0.3-0.6,0.4-1.3,0.4-2.1c0-0.7-0.1-1.2-0.3-1.7c-0.3-0.7-0.9-1-1.8-1c-0.7,0-1.3,0.3-1.6,0.9s-0.5,1.3-0.5,2.1
			c0,0.8,0.2,1.4,0.5,1.9s0.9,0.8,1.6,0.8C677.6,1522,678.2,1521.7,678.5,1521.1z"/>
		<path class="st3" d="M682.4,1515.5h1.2v1c0.3-0.4,0.6-0.6,0.8-0.8c0.4-0.3,0.9-0.4,1.4-0.4c0.6,0,1.1,0.1,1.4,0.4
			c0.2,0.2,0.4,0.4,0.5,0.7c0.3-0.4,0.6-0.7,1-0.9c0.4-0.2,0.8-0.3,1.2-0.3c1,0,1.7,0.4,2,1.1c0.2,0.4,0.3,0.9,0.3,1.5v4.9H691v-5.1
			c0-0.5-0.1-0.8-0.4-1s-0.5-0.3-0.9-0.3c-0.5,0-0.9,0.2-1.2,0.5s-0.5,0.9-0.5,1.6v4.3h-1.3v-4.8c0-0.5-0.1-0.9-0.2-1.1
			c-0.2-0.3-0.5-0.5-1-0.5c-0.5,0-0.9,0.2-1.3,0.5s-0.6,1-0.6,2v3.9h-1.2V1515.5z"/>
		<path class="st3" d="M706.6,1512.7v1.2h-3.4v8.8h-1.4v-8.8h-3.4v-1.2H706.6z"/>
		<path class="st3" d="M712.1,1516.2c0.6,0.6,1,1.6,1,2.8c0,1.2-0.3,2.2-0.9,2.9s-1.5,1.2-2.7,1.2c-1,0-1.8-0.3-2.4-1
			c-0.6-0.7-0.9-1.6-0.9-2.7c0-1.2,0.3-2.2,0.9-2.9s1.5-1.1,2.5-1.1C710.7,1515.3,711.5,1515.6,712.1,1516.2z M711.4,1521.1
			c0.3-0.6,0.5-1.3,0.5-2.1c0-0.7-0.1-1.2-0.3-1.7c-0.3-0.7-0.9-1-1.8-1c-0.7,0-1.3,0.3-1.6,0.9s-0.5,1.3-0.5,2.1
			c0,0.8,0.2,1.4,0.5,1.9s0.9,0.8,1.6,0.8C710.5,1522,711.1,1521.7,711.4,1521.1z"/>
		<path class="st3" d="M715.3,1512.7h1.2v5.8l3.2-3.1h1.6l-2.8,2.7l3,4.6h-1.6l-2.3-3.7l-1,1v2.7h-1.2V1512.7z"/>
		<path class="st3" d="M727.6,1515.5h1.4c-0.2,0.5-0.6,1.5-1.2,3.2c-0.4,1.3-0.8,2.3-1.1,3.1c-0.7,1.9-1.2,3-1.5,3.4
			c-0.3,0.4-0.8,0.6-1.5,0.6c-0.2,0-0.3,0-0.4,0c-0.1,0-0.2,0-0.3-0.1v-1.1c0.2,0.1,0.4,0.1,0.5,0.1c0.1,0,0.2,0,0.3,0
			c0.2,0,0.4,0,0.5-0.1c0.1-0.1,0.2-0.2,0.3-0.3c0,0,0.1-0.2,0.2-0.6c0.1-0.3,0.2-0.6,0.3-0.8l-2.7-7.5h1.4l2,6L727.6,1515.5z"/>
		<path class="st3" d="M736,1516.2c0.6,0.6,1,1.6,1,2.8c0,1.2-0.3,2.2-0.9,2.9s-1.5,1.2-2.7,1.2c-1,0-1.8-0.3-2.4-1
			c-0.6-0.7-0.9-1.6-0.9-2.7c0-1.2,0.3-2.2,0.9-2.9s1.5-1.1,2.5-1.1C734.6,1515.3,735.4,1515.6,736,1516.2z M735.2,1521.1
			c0.3-0.6,0.5-1.3,0.5-2.1c0-0.7-0.1-1.2-0.3-1.7c-0.3-0.7-0.9-1-1.8-1c-0.7,0-1.3,0.3-1.6,0.9s-0.5,1.3-0.5,2.1
			c0,0.8,0.2,1.4,0.5,1.9s0.9,0.8,1.6,0.8C734.4,1522,734.9,1521.7,735.2,1521.1z"/>
	</g>
	<rect id="長方形_652" x="638" y="1550.3" class="st0" width="120" height="20"/>
	<g class="st2">
		<path class="st3" d="M645.6,1556.9h1v3.9l3.9-3.9h1.5l-3.4,3.2l3.4,4.7h-1.4l-2.8-4l-1.3,1.2v2.8h-1V1556.9z"/>
		<path class="st3" d="M655.9,1561.3c0.2,0,0.4-0.1,0.4-0.3c0-0.1,0.1-0.2,0.1-0.4c0-0.3-0.1-0.6-0.4-0.7c-0.2-0.1-0.6-0.2-1-0.2
			c-0.5,0-0.9,0.1-1.1,0.4c-0.1,0.2-0.2,0.4-0.2,0.7h-0.9c0-0.7,0.2-1.2,0.7-1.5c0.4-0.3,1-0.4,1.5-0.4c0.7,0,1.2,0.1,1.6,0.4
			c0.4,0.3,0.6,0.7,0.6,1.2v3.3c0,0.1,0,0.2,0.1,0.2c0,0.1,0.1,0.1,0.3,0.1c0,0,0.1,0,0.1,0c0.1,0,0.1,0,0.2,0v0.7
			c-0.2,0-0.3,0.1-0.3,0.1s-0.2,0-0.3,0c-0.3,0-0.6-0.1-0.7-0.4c-0.1-0.1-0.1-0.3-0.2-0.5c-0.2,0.3-0.5,0.5-0.8,0.7
			c-0.4,0.2-0.8,0.3-1.2,0.3c-0.5,0-1-0.2-1.3-0.5c-0.3-0.3-0.5-0.7-0.5-1.2c0-0.5,0.2-0.9,0.5-1.2s0.8-0.5,1.3-0.5L655.9,1561.3z
			 M653.9,1563.9c0.2,0.2,0.4,0.2,0.7,0.2c0.3,0,0.7-0.1,1-0.2c0.5-0.3,0.8-0.7,0.8-1.3v-0.8c-0.1,0.1-0.3,0.1-0.5,0.2
			c-0.2,0.1-0.4,0.1-0.5,0.1l-0.6,0.1c-0.4,0-0.6,0.1-0.8,0.2c-0.3,0.2-0.4,0.4-0.4,0.8C653.6,1563.5,653.7,1563.7,653.9,1563.9z"/>
		<path class="st3" d="M659,1559h0.9v0.8c0.3-0.3,0.6-0.6,0.9-0.7s0.6-0.2,1-0.2c0.8,0,1.4,0.3,1.7,0.9c0.2,0.3,0.2,0.8,0.2,1.3v3.7
			h-1v-3.6c0-0.4-0.1-0.6-0.2-0.8c-0.2-0.4-0.5-0.5-0.9-0.5c-0.2,0-0.4,0-0.6,0.1c-0.3,0.1-0.5,0.2-0.7,0.5
			c-0.2,0.2-0.3,0.4-0.3,0.6c0,0.2-0.1,0.5-0.1,0.9v3h-1V1559z"/>
		<path class="st3" d="M664.8,1561.2h2.7v1h-2.7V1561.2z"/>
		<path class="st3" d="M672.3,1559.2c0.4,0.2,0.7,0.4,0.9,0.7c0.2,0.3,0.3,0.6,0.4,1c0.1,0.3,0.1,0.7,0.1,1.3h-4.2
			c0,0.6,0.2,1.1,0.4,1.4c0.3,0.4,0.7,0.5,1.2,0.5c0.5,0,0.9-0.2,1.2-0.5c0.2-0.2,0.3-0.4,0.4-0.7h1c0,0.2-0.1,0.4-0.2,0.7
			c-0.1,0.3-0.3,0.5-0.5,0.6c-0.3,0.3-0.7,0.5-1.1,0.6c-0.2,0.1-0.5,0.1-0.8,0.1c-0.7,0-1.3-0.3-1.8-0.8c-0.5-0.5-0.7-1.3-0.7-2.2
			c0-0.9,0.2-1.7,0.7-2.3c0.5-0.6,1.1-0.9,2-0.9C671.5,1558.9,671.9,1559,672.3,1559.2z M672.7,1561.4c0-0.4-0.1-0.8-0.3-1
			c-0.3-0.5-0.7-0.7-1.3-0.7c-0.4,0-0.8,0.2-1.1,0.5s-0.5,0.7-0.5,1.2H672.7z"/>
		<path class="st3" d="M675.1,1557.4h1v1.6h0.9v0.8H676v3.8c0,0.2,0.1,0.3,0.2,0.4c0.1,0,0.2,0.1,0.4,0.1c0,0,0.1,0,0.2,0
			c0.1,0,0.1,0,0.2,0v0.8c-0.1,0-0.2,0.1-0.3,0.1c-0.1,0-0.2,0-0.4,0c-0.5,0-0.8-0.1-0.9-0.3c-0.2-0.2-0.2-0.5-0.2-0.9v-3.8h-0.8
			v-0.8h0.8V1557.4z"/>
		<path class="st3" d="M678.5,1563c0,0.3,0.1,0.6,0.2,0.7c0.2,0.3,0.7,0.5,1.3,0.5c0.4,0,0.7-0.1,1-0.2c0.3-0.2,0.4-0.4,0.4-0.7
			c0-0.2-0.1-0.4-0.3-0.6c-0.1-0.1-0.4-0.2-0.8-0.3l-0.8-0.2c-0.5-0.1-0.9-0.3-1.1-0.4c-0.4-0.3-0.6-0.6-0.6-1.1
			c0-0.5,0.2-1,0.6-1.3c0.4-0.3,0.9-0.5,1.6-0.5c0.9,0,1.5,0.3,1.9,0.8c0.2,0.3,0.4,0.7,0.4,1h-0.9c0-0.2-0.1-0.4-0.2-0.6
			c-0.2-0.3-0.6-0.4-1.2-0.4c-0.4,0-0.7,0.1-0.8,0.2c-0.2,0.1-0.3,0.3-0.3,0.6c0,0.2,0.1,0.5,0.4,0.6c0.1,0.1,0.4,0.2,0.6,0.2
			l0.7,0.2c0.7,0.2,1.2,0.3,1.4,0.5c0.4,0.2,0.6,0.6,0.6,1.2c0,0.5-0.2,1-0.6,1.3c-0.4,0.4-1,0.6-1.8,0.6c-0.9,0-1.5-0.2-1.8-0.6
			s-0.6-0.9-0.6-1.4H678.5z"/>
		<path class="st3" d="M684.4,1559v3.8c0,0.3,0,0.5,0.1,0.7c0.2,0.3,0.5,0.5,0.9,0.5c0.7,0,1.1-0.3,1.3-0.9c0.1-0.3,0.2-0.8,0.2-1.3
			v-2.8h1v5.8h-0.9l0-0.8c-0.1,0.2-0.3,0.4-0.5,0.6c-0.4,0.3-0.8,0.5-1.3,0.5c-0.8,0-1.4-0.3-1.6-0.8c-0.2-0.3-0.2-0.7-0.2-1.2v-3.9
			H684.4z"/>
		<path class="st3" d="M692.8,1556.9h5.7v1h-4.7v2.4h4.3v0.9h-4.3v2.7h4.8v0.9h-5.8V1556.9z"/>
		<path class="st3" d="M699.4,1559h1.3l1.3,2l1.3-2l1.2,0l-1.9,2.8l2,2.9h-1.2l-1.4-2.2l-1.4,2.2h-1.2l2-2.9L699.4,1559z"/>
		<path class="st3" d="M705.4,1559h0.9v0.8c0.2-0.3,0.4-0.5,0.6-0.6c0.3-0.2,0.7-0.3,1.2-0.3c0.7,0,1.2,0.2,1.7,0.8
			c0.5,0.5,0.7,1.2,0.7,2.1c0,1.3-0.3,2.1-1,2.7c-0.4,0.3-0.9,0.5-1.5,0.5c-0.4,0-0.8-0.1-1.1-0.3c-0.2-0.1-0.4-0.3-0.6-0.6v2.9h-1
			V1559z M709,1563.5c0.3-0.4,0.5-0.9,0.5-1.7c0-0.5-0.1-0.9-0.2-1.2c-0.3-0.6-0.7-1-1.4-1c-0.7,0-1.1,0.3-1.4,1
			c-0.1,0.4-0.2,0.8-0.2,1.4c0,0.4,0.1,0.8,0.2,1.1c0.3,0.6,0.7,0.9,1.4,0.9C708.3,1564.1,708.7,1563.9,709,1563.5z"/>
		<path class="st3" d="M711.6,1559h0.9v1c0.1-0.2,0.3-0.4,0.6-0.7c0.3-0.3,0.6-0.4,1-0.4c0,0,0,0,0.1,0s0.1,0,0.2,0v1
			c-0.1,0-0.1,0-0.2,0c0,0-0.1,0-0.2,0c-0.5,0-0.9,0.2-1.1,0.5c-0.3,0.3-0.4,0.7-0.4,1.1v3.3h-1V1559z"/>
		<path class="st3" d="M718.8,1559.2c0.4,0.2,0.7,0.4,0.9,0.7c0.2,0.3,0.3,0.6,0.4,1c0.1,0.3,0.1,0.7,0.1,1.3h-4.2
			c0,0.6,0.2,1.1,0.4,1.4s0.7,0.5,1.2,0.5c0.5,0,0.9-0.2,1.2-0.5c0.2-0.2,0.3-0.4,0.4-0.7h1c0,0.2-0.1,0.4-0.2,0.7s-0.3,0.5-0.5,0.6
			c-0.3,0.3-0.7,0.5-1.1,0.6c-0.2,0.1-0.5,0.1-0.8,0.1c-0.7,0-1.3-0.3-1.8-0.8c-0.5-0.5-0.7-1.3-0.7-2.2c0-0.9,0.2-1.7,0.7-2.3
			c0.5-0.6,1.1-0.9,2-0.9C718,1558.9,718.4,1559,718.8,1559.2z M719.1,1561.4c0-0.4-0.1-0.8-0.3-1c-0.3-0.5-0.7-0.7-1.3-0.7
			c-0.4,0-0.8,0.2-1.1,0.5c-0.3,0.3-0.5,0.7-0.5,1.2H719.1z"/>
		<path class="st3" d="M721.9,1563c0,0.3,0.1,0.6,0.2,0.7c0.2,0.3,0.7,0.5,1.3,0.5c0.4,0,0.7-0.1,1-0.2c0.3-0.2,0.4-0.4,0.4-0.7
			c0-0.2-0.1-0.4-0.3-0.6c-0.1-0.1-0.4-0.2-0.8-0.3l-0.8-0.2c-0.5-0.1-0.9-0.3-1.1-0.4c-0.4-0.3-0.6-0.6-0.6-1.1
			c0-0.5,0.2-1,0.6-1.3c0.4-0.3,0.9-0.5,1.6-0.5c0.9,0,1.5,0.3,1.9,0.8c0.2,0.3,0.4,0.7,0.4,1h-0.9c0-0.2-0.1-0.4-0.2-0.6
			c-0.2-0.3-0.6-0.4-1.2-0.4c-0.4,0-0.7,0.1-0.8,0.2c-0.2,0.1-0.3,0.3-0.3,0.6c0,0.2,0.1,0.5,0.4,0.6c0.1,0.1,0.4,0.2,0.6,0.2
			l0.7,0.2c0.7,0.2,1.2,0.3,1.4,0.5c0.4,0.2,0.6,0.6,0.6,1.2c0,0.5-0.2,1-0.6,1.3c-0.4,0.4-1,0.6-1.8,0.6c-0.9,0-1.5-0.2-1.8-0.6
			c-0.4-0.4-0.6-0.9-0.6-1.4H721.9z"/>
		<path class="st3" d="M727.4,1563c0,0.3,0.1,0.6,0.2,0.7c0.2,0.3,0.7,0.5,1.3,0.5c0.4,0,0.7-0.1,1-0.2c0.3-0.2,0.4-0.4,0.4-0.7
			c0-0.2-0.1-0.4-0.3-0.6c-0.1-0.1-0.4-0.2-0.8-0.3l-0.8-0.2c-0.5-0.1-0.9-0.3-1.1-0.4c-0.4-0.3-0.6-0.6-0.6-1.1
			c0-0.5,0.2-1,0.6-1.3c0.4-0.3,0.9-0.5,1.6-0.5c0.9,0,1.5,0.3,1.9,0.8c0.2,0.3,0.4,0.7,0.4,1h-0.9c0-0.2-0.1-0.4-0.2-0.6
			c-0.2-0.3-0.6-0.4-1.2-0.4c-0.4,0-0.7,0.1-0.8,0.2c-0.2,0.1-0.3,0.3-0.3,0.6c0,0.2,0.1,0.5,0.4,0.6c0.1,0.1,0.4,0.2,0.6,0.2
			l0.7,0.2c0.7,0.2,1.2,0.3,1.4,0.5c0.4,0.2,0.6,0.6,0.6,1.2c0,0.5-0.2,1-0.6,1.3c-0.4,0.4-1,0.6-1.8,0.6c-0.9,0-1.5-0.2-1.8-0.6
			c-0.4-0.4-0.6-0.9-0.6-1.4H727.4z"/>
		<path class="st3" d="M732.8,1559l1.1,4.5l1.1-4.5h1.1l1.1,4.5l1.2-4.5h1l-1.7,5.8h-1l-1.2-4.5l-1.1,4.5h-1l-1.7-5.8H732.8z"/>
		<path class="st3" d="M743.4,1561.3c0.2,0,0.4-0.1,0.4-0.3c0-0.1,0.1-0.2,0.1-0.4c0-0.3-0.1-0.6-0.4-0.7c-0.2-0.1-0.6-0.2-1-0.2
			c-0.5,0-0.9,0.1-1.1,0.4c-0.1,0.2-0.2,0.4-0.2,0.7h-0.9c0-0.7,0.2-1.2,0.7-1.5c0.4-0.3,1-0.4,1.5-0.4c0.7,0,1.2,0.1,1.6,0.4
			c0.4,0.3,0.6,0.7,0.6,1.2v3.3c0,0.1,0,0.2,0.1,0.2c0,0.1,0.1,0.1,0.3,0.1c0,0,0.1,0,0.1,0c0.1,0,0.1,0,0.2,0v0.7
			c-0.2,0-0.3,0.1-0.3,0.1c-0.1,0-0.2,0-0.3,0c-0.3,0-0.6-0.1-0.7-0.4c-0.1-0.1-0.1-0.3-0.2-0.5c-0.2,0.3-0.5,0.5-0.8,0.7
			c-0.4,0.2-0.8,0.3-1.2,0.3c-0.5,0-1-0.2-1.3-0.5c-0.3-0.3-0.5-0.7-0.5-1.2c0-0.5,0.2-0.9,0.5-1.2s0.8-0.5,1.3-0.5L743.4,1561.3z
			 M741.3,1563.9c0.2,0.2,0.4,0.2,0.7,0.2c0.3,0,0.7-0.1,1-0.2c0.5-0.3,0.8-0.7,0.8-1.3v-0.8c-0.1,0.1-0.3,0.1-0.5,0.2
			c-0.2,0.1-0.4,0.1-0.5,0.1l-0.6,0.1c-0.4,0-0.6,0.1-0.8,0.2c-0.3,0.2-0.4,0.4-0.4,0.8C741,1563.5,741.1,1563.7,741.3,1563.9z"/>
		<path class="st3" d="M750,1559h1.1c-0.1,0.4-0.4,1.2-0.9,2.5c-0.4,1-0.6,1.8-0.9,2.4c-0.6,1.5-1,2.4-1.2,2.7
			c-0.2,0.3-0.6,0.5-1.2,0.5c-0.1,0-0.2,0-0.3,0s-0.2,0-0.3-0.1v-0.9c0.2,0,0.3,0.1,0.4,0.1c0.1,0,0.1,0,0.2,0c0.2,0,0.3,0,0.4-0.1
			c0.1-0.1,0.2-0.1,0.2-0.2c0,0,0.1-0.2,0.2-0.4c0.1-0.3,0.2-0.5,0.2-0.6l-2.1-5.9h1.1l1.5,4.7L750,1559z"/>
	</g>
	<rect id="長方形_652-2" x="638" y="1619.2" class="st0" width="120" height="35"/>
	<g class="st2">
		<path class="st3" d="M673.1,1632.3c0,0.7-0.1,1.2-0.3,1.6c-0.4,0.7-1.1,1-2.1,1c-0.6,0-1.1-0.2-1.5-0.5s-0.6-0.9-0.6-1.7v-0.6h1
			v0.6c0,0.4,0.1,0.8,0.3,1c0.2,0.2,0.5,0.3,0.9,0.3c0.6,0,0.9-0.2,1.1-0.6c0.1-0.2,0.2-0.7,0.2-1.4v-5.3h1.1V1632.3z"/>
		<path class="st3" d="M678.7,1629.5c0.5,0.5,0.8,1.2,0.8,2.2c0,0.9-0.2,1.7-0.7,2.3c-0.4,0.6-1.1,0.9-2.1,0.9
			c-0.8,0-1.4-0.3-1.9-0.8c-0.5-0.5-0.7-1.3-0.7-2.2c0-1,0.2-1.7,0.7-2.3c0.5-0.6,1.1-0.9,2-0.9
			C677.6,1628.7,678.2,1629,678.7,1629.5z M678.1,1633.3c0.2-0.5,0.4-1,0.4-1.6c0-0.5-0.1-1-0.3-1.3c-0.3-0.5-0.7-0.8-1.4-0.8
			c-0.6,0-1,0.2-1.3,0.7c-0.3,0.5-0.4,1-0.4,1.6c0,0.6,0.1,1.1,0.4,1.5c0.3,0.4,0.7,0.6,1.3,0.6
			C677.5,1634,677.9,1633.8,678.1,1633.3z"/>
		<path class="st3" d="M681.2,1632.8c0,0.3,0.1,0.6,0.2,0.7c0.2,0.3,0.7,0.5,1.3,0.5c0.4,0,0.7-0.1,1-0.2c0.3-0.2,0.4-0.4,0.4-0.7
			c0-0.2-0.1-0.4-0.3-0.6c-0.1-0.1-0.4-0.2-0.8-0.3l-0.8-0.2c-0.5-0.1-0.9-0.3-1.1-0.4c-0.4-0.3-0.6-0.6-0.6-1.1
			c0-0.5,0.2-1,0.6-1.3c0.4-0.3,0.9-0.5,1.6-0.5c0.9,0,1.5,0.3,1.9,0.8c0.2,0.3,0.4,0.7,0.4,1H684c0-0.2-0.1-0.4-0.2-0.6
			c-0.2-0.3-0.6-0.4-1.2-0.4c-0.4,0-0.7,0.1-0.8,0.2c-0.2,0.1-0.3,0.3-0.3,0.6c0,0.2,0.1,0.5,0.4,0.6c0.1,0.1,0.4,0.2,0.6,0.2
			l0.7,0.2c0.7,0.2,1.2,0.3,1.4,0.5c0.4,0.2,0.6,0.6,0.6,1.2c0,0.5-0.2,1-0.6,1.3c-0.4,0.4-1,0.6-1.8,0.6c-0.9,0-1.5-0.2-1.8-0.6
			s-0.6-0.9-0.6-1.4H681.2z"/>
		<path class="st3" d="M686.2,1626.7h1v2.9c0.2-0.3,0.4-0.5,0.6-0.6c0.3-0.2,0.7-0.3,1.2-0.3c0.8,0,1.4,0.3,1.7,0.9
			c0.2,0.3,0.2,0.8,0.2,1.3v3.7h-1v-3.6c0-0.4-0.1-0.7-0.2-0.9c-0.2-0.3-0.5-0.5-1-0.5c-0.4,0-0.8,0.1-1.1,0.4
			c-0.3,0.3-0.5,0.8-0.5,1.6v3.1h-1V1626.7z"/>
		<path class="st3" d="M692.3,1626.8h1v1.1h-1V1626.8z M692.3,1628.9h1v5.7h-1V1628.9z"/>
		<path class="st3" d="M694.7,1628.9h0.9v0.8c0.3-0.3,0.6-0.6,0.9-0.7s0.6-0.2,1-0.2c0.8,0,1.4,0.3,1.7,0.9c0.2,0.3,0.2,0.8,0.2,1.3
			v3.7h-1v-3.6c0-0.4-0.1-0.6-0.2-0.8c-0.2-0.4-0.5-0.5-0.9-0.5c-0.2,0-0.4,0-0.6,0.1c-0.3,0.1-0.5,0.2-0.7,0.5
			c-0.2,0.2-0.3,0.4-0.3,0.6c0,0.2-0.1,0.5-0.1,0.9v3h-1V1628.9z"/>
		<path class="st3" d="M700.6,1631.1h2.7v1h-2.7V1631.1z"/>
		<path class="st3" d="M708.1,1629.1c0.4,0.2,0.7,0.4,0.9,0.7c0.2,0.3,0.3,0.6,0.4,1c0.1,0.3,0.1,0.7,0.1,1.3h-4.2
			c0,0.6,0.2,1.1,0.4,1.4c0.3,0.4,0.7,0.5,1.2,0.5c0.5,0,0.9-0.2,1.2-0.5c0.2-0.2,0.3-0.4,0.4-0.7h1c0,0.2-0.1,0.4-0.2,0.7
			c-0.1,0.3-0.3,0.5-0.5,0.6c-0.3,0.3-0.7,0.5-1.1,0.6c-0.2,0.1-0.5,0.1-0.8,0.1c-0.7,0-1.3-0.3-1.8-0.8c-0.5-0.5-0.7-1.3-0.7-2.2
			c0-0.9,0.2-1.7,0.7-2.3s1.1-0.9,2-0.9C707.3,1628.8,707.7,1628.9,708.1,1629.1z M708.4,1631.3c0-0.4-0.1-0.8-0.3-1
			c-0.3-0.5-0.7-0.7-1.3-0.7c-0.4,0-0.8,0.2-1.1,0.5c-0.3,0.3-0.5,0.7-0.5,1.2H708.4z"/>
		<path class="st3" d="M710.8,1627.3h1v1.6h0.9v0.8h-0.9v3.8c0,0.2,0.1,0.3,0.2,0.4c0.1,0,0.2,0.1,0.4,0.1c0,0,0.1,0,0.2,0
			c0.1,0,0.1,0,0.2,0v0.8c-0.1,0-0.2,0.1-0.3,0.1c-0.1,0-0.2,0-0.4,0c-0.5,0-0.8-0.1-0.9-0.3c-0.2-0.2-0.2-0.5-0.2-0.9v-3.8H710
			v-0.8h0.8V1627.3z"/>
		<path class="st3" d="M714.3,1632.8c0,0.3,0.1,0.6,0.2,0.7c0.2,0.3,0.7,0.5,1.3,0.5c0.4,0,0.7-0.1,1-0.2c0.3-0.2,0.4-0.4,0.4-0.7
			c0-0.2-0.1-0.4-0.3-0.6c-0.1-0.1-0.4-0.2-0.8-0.3l-0.8-0.2c-0.5-0.1-0.9-0.3-1.1-0.4c-0.4-0.3-0.6-0.6-0.6-1.1
			c0-0.5,0.2-1,0.6-1.3c0.4-0.3,0.9-0.5,1.6-0.5c0.9,0,1.5,0.3,1.9,0.8c0.2,0.3,0.4,0.7,0.4,1H717c0-0.2-0.1-0.4-0.2-0.6
			c-0.2-0.3-0.6-0.4-1.2-0.4c-0.4,0-0.7,0.1-0.8,0.2c-0.2,0.1-0.3,0.3-0.3,0.6c0,0.2,0.1,0.5,0.4,0.6c0.1,0.1,0.4,0.2,0.6,0.2
			l0.7,0.2c0.7,0.2,1.2,0.3,1.4,0.5c0.4,0.2,0.6,0.6,0.6,1.2c0,0.5-0.2,1-0.6,1.3c-0.4,0.4-1,0.6-1.8,0.6c-0.9,0-1.5-0.2-1.8-0.6
			c-0.4-0.4-0.6-0.9-0.6-1.4H714.3z"/>
		<path class="st3" d="M720.2,1628.9v3.8c0,0.3,0,0.5,0.1,0.7c0.2,0.3,0.5,0.5,0.9,0.5c0.7,0,1.1-0.3,1.3-0.9
			c0.1-0.3,0.2-0.8,0.2-1.3v-2.8h1v5.8h-0.9l0-0.8c-0.1,0.2-0.3,0.4-0.5,0.6c-0.4,0.3-0.8,0.5-1.3,0.5c-0.8,0-1.4-0.3-1.6-0.8
			c-0.2-0.3-0.2-0.7-0.2-1.2v-3.9H720.2z"/>
	</g>
	<g class="st2">
		<path class="st3" d="M669.3,1638.8h5.7v1h-4.7v2.4h4.3v0.9h-4.3v2.7h4.8v0.9h-5.8V1638.8z"/>
		<path class="st3" d="M675.9,1640.9h1.3l1.3,2l1.3-2l1.2,0l-1.9,2.8l2,2.9h-1.2l-1.4-2.2l-1.4,2.2h-1.2l2-2.9L675.9,1640.9z"/>
		<path class="st3" d="M681.8,1640.9h0.9v0.8c0.2-0.3,0.4-0.5,0.6-0.6c0.3-0.2,0.7-0.3,1.2-0.3c0.7,0,1.2,0.2,1.7,0.8
			c0.5,0.5,0.7,1.2,0.7,2.1c0,1.3-0.3,2.1-1,2.7c-0.4,0.3-0.9,0.5-1.5,0.5c-0.4,0-0.8-0.1-1.1-0.3c-0.2-0.1-0.4-0.3-0.6-0.6v2.9h-1
			V1640.9z M685.5,1645.4c0.3-0.4,0.5-0.9,0.5-1.7c0-0.5-0.1-0.9-0.2-1.2c-0.3-0.6-0.7-1-1.4-1c-0.7,0-1.1,0.3-1.4,1
			c-0.1,0.4-0.2,0.8-0.2,1.4c0,0.4,0.1,0.8,0.2,1.1c0.3,0.6,0.7,0.9,1.4,0.9C684.8,1646,685.2,1645.8,685.5,1645.4z"/>
		<path class="st3" d="M688,1640.9h0.9v1c0.1-0.2,0.3-0.4,0.6-0.7s0.6-0.4,1-0.4c0,0,0,0,0.1,0s0.1,0,0.2,0v1c-0.1,0-0.1,0-0.2,0
			c0,0-0.1,0-0.2,0c-0.5,0-0.9,0.2-1.1,0.5s-0.4,0.7-0.4,1.1v3.3h-1V1640.9z"/>
		<path class="st3" d="M695.2,1641.1c0.4,0.2,0.7,0.4,0.9,0.7c0.2,0.3,0.3,0.6,0.4,1c0.1,0.3,0.1,0.7,0.1,1.3h-4.2
			c0,0.6,0.2,1.1,0.4,1.4c0.3,0.4,0.7,0.5,1.2,0.5c0.5,0,0.9-0.2,1.2-0.5c0.2-0.2,0.3-0.4,0.4-0.7h1c0,0.2-0.1,0.4-0.2,0.7
			c-0.1,0.3-0.3,0.5-0.5,0.6c-0.3,0.3-0.7,0.5-1.1,0.6c-0.2,0.1-0.5,0.1-0.8,0.1c-0.7,0-1.3-0.3-1.8-0.8c-0.5-0.5-0.7-1.3-0.7-2.2
			c0-0.9,0.2-1.7,0.7-2.3c0.5-0.6,1.1-0.9,2-0.9C694.5,1640.8,694.9,1640.9,695.2,1641.1z M695.6,1643.3c0-0.4-0.1-0.8-0.3-1
			c-0.3-0.5-0.7-0.7-1.3-0.7c-0.4,0-0.8,0.2-1.1,0.5s-0.5,0.7-0.5,1.2H695.6z"/>
		<path class="st3" d="M698.4,1644.8c0,0.3,0.1,0.6,0.2,0.7c0.2,0.3,0.7,0.5,1.3,0.5c0.4,0,0.7-0.1,1-0.2c0.3-0.2,0.4-0.4,0.4-0.7
			c0-0.2-0.1-0.4-0.3-0.6c-0.1-0.1-0.4-0.2-0.8-0.3l-0.8-0.2c-0.5-0.1-0.9-0.3-1.1-0.4c-0.4-0.3-0.6-0.6-0.6-1.1
			c0-0.5,0.2-1,0.6-1.3c0.4-0.3,0.9-0.5,1.6-0.5c0.9,0,1.5,0.3,1.9,0.8c0.2,0.3,0.4,0.7,0.4,1h-0.9c0-0.2-0.1-0.4-0.2-0.6
			c-0.2-0.3-0.6-0.4-1.2-0.4c-0.4,0-0.7,0.1-0.8,0.2c-0.2,0.1-0.3,0.3-0.3,0.6c0,0.2,0.1,0.5,0.4,0.6c0.1,0.1,0.4,0.2,0.6,0.2
			l0.7,0.2c0.7,0.2,1.2,0.3,1.4,0.5c0.4,0.2,0.6,0.6,0.6,1.2c0,0.5-0.2,1-0.6,1.3c-0.4,0.4-1,0.6-1.8,0.6c-0.9,0-1.5-0.2-1.8-0.6
			s-0.6-0.9-0.6-1.4H698.4z"/>
		<path class="st3" d="M703.9,1644.8c0,0.3,0.1,0.6,0.2,0.7c0.2,0.3,0.7,0.5,1.3,0.5c0.4,0,0.7-0.1,1-0.2c0.3-0.2,0.4-0.4,0.4-0.7
			c0-0.2-0.1-0.4-0.3-0.6c-0.1-0.1-0.4-0.2-0.8-0.3l-0.8-0.2c-0.5-0.1-0.9-0.3-1.1-0.4c-0.4-0.3-0.6-0.6-0.6-1.1
			c0-0.5,0.2-1,0.6-1.3c0.4-0.3,0.9-0.5,1.6-0.5c0.9,0,1.5,0.3,1.9,0.8c0.2,0.3,0.4,0.7,0.4,1h-0.9c0-0.2-0.1-0.4-0.2-0.6
			c-0.2-0.3-0.6-0.4-1.2-0.4c-0.4,0-0.7,0.1-0.8,0.2c-0.2,0.1-0.3,0.3-0.3,0.6c0,0.2,0.1,0.5,0.4,0.6c0.1,0.1,0.4,0.2,0.6,0.2
			l0.7,0.2c0.7,0.2,1.2,0.3,1.4,0.5c0.4,0.2,0.6,0.6,0.6,1.2c0,0.5-0.2,1-0.6,1.3c-0.4,0.4-1,0.6-1.8,0.6c-0.9,0-1.5-0.2-1.8-0.6
			c-0.4-0.4-0.6-0.9-0.6-1.4H703.9z"/>
		<path class="st3" d="M709.2,1640.9l1.1,4.5l1.1-4.5h1.1l1.1,4.5l1.2-4.5h1l-1.7,5.8h-1l-1.2-4.5l-1.1,4.5h-1l-1.7-5.8H709.2z"/>
		<path class="st3" d="M719.8,1643.2c0.2,0,0.4-0.1,0.4-0.3c0-0.1,0.1-0.2,0.1-0.4c0-0.3-0.1-0.6-0.4-0.7c-0.2-0.1-0.6-0.2-1-0.2
			c-0.5,0-0.9,0.1-1.1,0.4c-0.1,0.2-0.2,0.4-0.2,0.7h-0.9c0-0.7,0.2-1.2,0.7-1.5c0.4-0.3,1-0.4,1.5-0.4c0.7,0,1.2,0.1,1.6,0.4
			c0.4,0.3,0.6,0.7,0.6,1.2v3.3c0,0.1,0,0.2,0.1,0.2c0,0.1,0.1,0.1,0.3,0.1c0,0,0.1,0,0.1,0c0.1,0,0.1,0,0.2,0v0.7
			c-0.2,0-0.3,0.1-0.3,0.1c-0.1,0-0.2,0-0.3,0c-0.3,0-0.6-0.1-0.7-0.4c-0.1-0.1-0.1-0.3-0.2-0.5c-0.2,0.3-0.5,0.5-0.8,0.7
			c-0.4,0.2-0.8,0.3-1.2,0.3c-0.5,0-1-0.2-1.3-0.5c-0.3-0.3-0.5-0.7-0.5-1.2c0-0.5,0.2-0.9,0.5-1.2s0.8-0.5,1.3-0.5L719.8,1643.2z
			 M717.8,1645.8c0.2,0.2,0.4,0.2,0.7,0.2c0.3,0,0.7-0.1,1-0.2c0.5-0.3,0.8-0.7,0.8-1.3v-0.8c-0.1,0.1-0.3,0.1-0.5,0.2
			c-0.2,0.1-0.4,0.1-0.5,0.1l-0.6,0.1c-0.4,0-0.6,0.1-0.8,0.2c-0.3,0.2-0.4,0.4-0.4,0.8C717.5,1645.4,717.6,1645.6,717.8,1645.8z"/>
		<path class="st3" d="M726.5,1640.9h1.1c-0.1,0.4-0.4,1.2-0.9,2.5c-0.4,1-0.6,1.8-0.9,2.4c-0.6,1.5-1,2.4-1.2,2.7
			c-0.2,0.3-0.6,0.5-1.2,0.5c-0.1,0-0.2,0-0.3,0s-0.2,0-0.3-0.1v-0.9c0.2,0,0.3,0.1,0.4,0.1c0.1,0,0.1,0,0.2,0c0.2,0,0.3,0,0.4-0.1
			c0.1-0.1,0.2-0.1,0.2-0.2c0,0,0.1-0.2,0.2-0.4c0.1-0.3,0.2-0.5,0.2-0.6l-2.1-5.9h1.1l1.5,4.7L726.5,1640.9z"/>
	</g>
	<rect id="長方形_652-3" x="638" y="1747" class="st0" width="120" height="20"/>
	<g class="st2">
		<path class="st3" d="M654.8,1753.2h1.3l3.9,6.4v-6.4h1v7.9h-1.2l-4-6.4v6.4h-1V1753.2z"/>
		<path class="st3" d="M665.7,1757.7c0.2,0,0.4-0.1,0.4-0.3c0-0.1,0.1-0.2,0.1-0.4c0-0.3-0.1-0.6-0.4-0.7c-0.2-0.1-0.6-0.2-1-0.2
			c-0.5,0-0.9,0.1-1.1,0.4c-0.1,0.2-0.2,0.4-0.2,0.7h-0.9c0-0.7,0.2-1.2,0.7-1.5c0.4-0.3,1-0.4,1.5-0.4c0.7,0,1.2,0.1,1.6,0.4
			c0.4,0.3,0.6,0.7,0.6,1.2v3.3c0,0.1,0,0.2,0.1,0.2c0,0.1,0.1,0.1,0.3,0.1c0,0,0.1,0,0.1,0c0.1,0,0.1,0,0.2,0v0.7
			c-0.2,0-0.3,0.1-0.3,0.1s-0.2,0-0.3,0c-0.3,0-0.6-0.1-0.7-0.4c-0.1-0.1-0.1-0.3-0.2-0.5c-0.2,0.3-0.5,0.5-0.8,0.7
			c-0.4,0.2-0.8,0.3-1.2,0.3c-0.5,0-1-0.2-1.3-0.5c-0.3-0.3-0.5-0.7-0.5-1.2c0-0.5,0.2-0.9,0.5-1.2s0.8-0.5,1.3-0.5L665.7,1757.7z
			 M663.7,1760.3c0.2,0.2,0.4,0.2,0.7,0.2c0.3,0,0.7-0.1,1-0.2c0.5-0.3,0.8-0.7,0.8-1.3v-0.8c-0.1,0.1-0.3,0.1-0.5,0.2
			c-0.2,0.1-0.4,0.1-0.5,0.1l-0.6,0.1c-0.4,0-0.6,0.1-0.8,0.2c-0.3,0.2-0.4,0.4-0.4,0.8C663.4,1759.9,663.5,1760.1,663.7,1760.3z"/>
		<path class="st3" d="M668.9,1753.8h1v1.6h0.9v0.8h-0.9v3.8c0,0.2,0.1,0.3,0.2,0.4c0.1,0,0.2,0.1,0.4,0.1c0,0,0.1,0,0.2,0
			c0.1,0,0.1,0,0.2,0v0.8c-0.1,0-0.2,0.1-0.3,0.1c-0.1,0-0.2,0-0.4,0c-0.5,0-0.8-0.1-0.9-0.3c-0.2-0.2-0.2-0.5-0.2-0.9v-3.8h-0.8
			v-0.8h0.8V1753.8z"/>
		<path class="st3" d="M671.8,1753.2h1v1.1h-1V1753.2z M671.8,1755.4h1v5.7h-1V1755.4z"/>
		<path class="st3" d="M678.4,1756c0.5,0.5,0.8,1.2,0.8,2.2c0,0.9-0.2,1.7-0.7,2.3c-0.4,0.6-1.1,0.9-2.1,0.9c-0.8,0-1.4-0.3-1.9-0.8
			c-0.5-0.5-0.7-1.3-0.7-2.2c0-1,0.2-1.7,0.7-2.3c0.5-0.6,1.1-0.9,2-0.9C677.3,1755.2,677.9,1755.5,678.4,1756z M677.8,1759.8
			c0.2-0.5,0.4-1,0.4-1.6c0-0.5-0.1-1-0.3-1.3c-0.3-0.5-0.7-0.8-1.4-0.8c-0.6,0-1,0.2-1.3,0.7c-0.3,0.5-0.4,1-0.4,1.6
			c0,0.6,0.1,1.1,0.4,1.5c0.3,0.4,0.7,0.6,1.3,0.6C677.1,1760.5,677.6,1760.3,677.8,1759.8z"/>
		<path class="st3" d="M680.4,1755.4h0.9v0.8c0.3-0.3,0.6-0.6,0.9-0.7s0.6-0.2,1-0.2c0.8,0,1.4,0.3,1.7,0.9c0.2,0.3,0.2,0.8,0.2,1.3
			v3.7h-1v-3.6c0-0.4-0.1-0.6-0.2-0.8c-0.2-0.4-0.5-0.5-0.9-0.5c-0.2,0-0.4,0-0.6,0.1c-0.3,0.1-0.5,0.2-0.7,0.5
			c-0.2,0.2-0.3,0.4-0.3,0.6c0,0.2-0.1,0.5-0.1,0.9v3h-1V1755.4z"/>
		<path class="st3" d="M689.6,1757.7c0.2,0,0.4-0.1,0.4-0.3c0-0.1,0.1-0.2,0.1-0.4c0-0.3-0.1-0.6-0.4-0.7c-0.2-0.1-0.6-0.2-1-0.2
			c-0.5,0-0.9,0.1-1.1,0.4c-0.1,0.2-0.2,0.4-0.2,0.7h-0.9c0-0.7,0.2-1.2,0.7-1.5c0.4-0.3,1-0.4,1.5-0.4c0.7,0,1.2,0.1,1.6,0.4
			c0.4,0.3,0.6,0.7,0.6,1.2v3.3c0,0.1,0,0.2,0.1,0.2c0,0.1,0.1,0.1,0.3,0.1c0,0,0.1,0,0.1,0c0.1,0,0.1,0,0.2,0v0.7
			c-0.2,0-0.3,0.1-0.3,0.1s-0.2,0-0.3,0c-0.3,0-0.6-0.1-0.7-0.4c-0.1-0.1-0.1-0.3-0.2-0.5c-0.2,0.3-0.5,0.5-0.8,0.7
			c-0.4,0.2-0.8,0.3-1.2,0.3c-0.5,0-1-0.2-1.3-0.5c-0.3-0.3-0.5-0.7-0.5-1.2c0-0.5,0.2-0.9,0.5-1.2s0.8-0.5,1.3-0.5L689.6,1757.7z
			 M687.5,1760.3c0.2,0.2,0.4,0.2,0.7,0.2c0.3,0,0.7-0.1,1-0.2c0.5-0.3,0.8-0.7,0.8-1.3v-0.8c-0.1,0.1-0.3,0.1-0.5,0.2
			c-0.2,0.1-0.4,0.1-0.5,0.1l-0.6,0.1c-0.4,0-0.6,0.1-0.8,0.2c-0.3,0.2-0.4,0.4-0.4,0.8C687.2,1759.9,687.3,1760.1,687.5,1760.3z"/>
		<path class="st3" d="M692.6,1753.2h1v7.9h-1V1753.2z"/>
		<path class="st3" d="M698.4,1753.2h3.6c0.6,0,1.1,0.1,1.5,0.3c0.7,0.3,1.1,1,1.1,1.9c0,0.5-0.1,0.9-0.3,1.2
			c-0.2,0.3-0.5,0.5-0.8,0.7c0.3,0.1,0.5,0.3,0.7,0.5c0.2,0.2,0.2,0.5,0.3,1l0,1.1c0,0.3,0,0.5,0.1,0.7c0.1,0.2,0.2,0.4,0.3,0.5v0.2
			h-1.3c0-0.1-0.1-0.2-0.1-0.3s0-0.3-0.1-0.6l-0.1-1.3c0-0.5-0.2-0.9-0.6-1c-0.2-0.1-0.5-0.1-0.9-0.1h-2.4v3.4h-1.1V1753.2z
			 M701.8,1756.9c0.5,0,0.9-0.1,1.2-0.3c0.3-0.2,0.4-0.6,0.4-1.1c0-0.6-0.2-0.9-0.6-1.1c-0.2-0.1-0.5-0.2-0.9-0.2h-2.5v2.7H701.8z"
			/>
		<path class="st3" d="M710.2,1756c0.5,0.5,0.8,1.2,0.8,2.2c0,0.9-0.2,1.7-0.7,2.3s-1.1,0.9-2.1,0.9c-0.8,0-1.4-0.3-1.9-0.8
			c-0.5-0.5-0.7-1.3-0.7-2.2c0-1,0.2-1.7,0.7-2.3s1.1-0.9,2-0.9C709.1,1755.2,709.7,1755.5,710.2,1756z M709.6,1759.8
			c0.2-0.5,0.4-1,0.4-1.6c0-0.5-0.1-1-0.3-1.3c-0.3-0.5-0.7-0.8-1.4-0.8c-0.6,0-1,0.2-1.3,0.7c-0.3,0.5-0.4,1-0.4,1.6
			c0,0.6,0.1,1.1,0.4,1.5c0.3,0.4,0.7,0.6,1.3,0.6C708.9,1760.5,709.4,1760.3,709.6,1759.8z"/>
		<path class="st3" d="M713.1,1755.4v3.8c0,0.3,0,0.5,0.1,0.7c0.2,0.3,0.5,0.5,0.9,0.5c0.7,0,1.1-0.3,1.3-0.9
			c0.1-0.3,0.2-0.8,0.2-1.3v-2.8h1v5.8h-0.9l0-0.8c-0.1,0.2-0.3,0.4-0.5,0.6c-0.4,0.3-0.8,0.5-1.3,0.5c-0.8,0-1.4-0.3-1.6-0.8
			c-0.2-0.3-0.2-0.7-0.2-1.2v-3.9H713.1z"/>
		<path class="st3" d="M718.5,1753.8h1v1.6h0.9v0.8h-0.9v3.8c0,0.2,0.1,0.3,0.2,0.4c0.1,0,0.2,0.1,0.4,0.1c0,0,0.1,0,0.2,0
			c0.1,0,0.1,0,0.2,0v0.8c-0.1,0-0.2,0.1-0.3,0.1c-0.1,0-0.2,0-0.4,0c-0.5,0-0.8-0.1-0.9-0.3c-0.2-0.2-0.2-0.5-0.2-0.9v-3.8h-0.8
			v-0.8h0.8V1753.8z"/>
		<path class="st3" d="M724.9,1755.5c0.4,0.2,0.7,0.4,0.9,0.7c0.2,0.3,0.3,0.6,0.4,1c0.1,0.3,0.1,0.7,0.1,1.3H722
			c0,0.6,0.2,1.1,0.4,1.4s0.7,0.5,1.2,0.5c0.5,0,0.9-0.2,1.2-0.5c0.2-0.2,0.3-0.4,0.4-0.7h1c0,0.2-0.1,0.4-0.2,0.7s-0.3,0.5-0.5,0.6
			c-0.3,0.3-0.7,0.5-1.1,0.6c-0.2,0.1-0.5,0.1-0.8,0.1c-0.7,0-1.3-0.3-1.8-0.8c-0.5-0.5-0.7-1.3-0.7-2.2c0-0.9,0.2-1.7,0.7-2.3
			c0.5-0.6,1.1-0.9,2-0.9C724.1,1755.3,724.5,1755.4,724.9,1755.5z M725.2,1757.8c0-0.4-0.1-0.8-0.3-1c-0.3-0.5-0.7-0.7-1.3-0.7
			c-0.4,0-0.8,0.2-1.1,0.5c-0.3,0.3-0.5,0.7-0.5,1.2H725.2z"/>
		<path class="st3" d="M730.8,1755.7v-0.7c0.7-0.1,1.2-0.2,1.5-0.3c0.3-0.2,0.5-0.5,0.6-1.1h0.8v7.7h-1v-5.4H730.8z"/>
		<path class="st3" d="M737,1756.6c-0.3-0.3-0.4-0.7-0.4-1.1c0-0.6,0.2-1.1,0.6-1.5c0.4-0.4,1-0.6,1.8-0.6c0.7,0,1.3,0.2,1.7,0.6
			c0.4,0.4,0.6,0.8,0.6,1.4c0,0.5-0.1,0.9-0.4,1.2c-0.1,0.2-0.3,0.3-0.6,0.5c0.3,0.1,0.6,0.3,0.8,0.5c0.3,0.4,0.5,0.8,0.5,1.4
			c0,0.7-0.2,1.2-0.7,1.7c-0.5,0.5-1.1,0.7-1.9,0.7c-0.7,0-1.4-0.2-1.9-0.6s-0.8-1-0.8-1.8c0-0.5,0.1-0.8,0.3-1.2s0.6-0.6,1-0.8
			C737.3,1756.9,737.1,1756.8,737,1756.6z M740.1,1760.1c0.3-0.2,0.4-0.6,0.4-1.1c0-0.5-0.2-0.9-0.5-1.1c-0.3-0.3-0.7-0.4-1.2-0.4
			c-0.5,0-0.8,0.1-1.1,0.4c-0.3,0.3-0.4,0.6-0.4,1.1c0,0.4,0.1,0.7,0.4,1c0.3,0.3,0.7,0.4,1.2,0.4
			C739.4,1760.5,739.8,1760.4,740.1,1760.1z M739.9,1756.3c0.2-0.2,0.4-0.5,0.4-0.9c0-0.3-0.1-0.6-0.3-0.8c-0.2-0.2-0.6-0.4-1-0.4
			c-0.5,0-0.8,0.1-1,0.4c-0.2,0.2-0.3,0.5-0.3,0.8c0,0.4,0.1,0.6,0.4,0.9c0.3,0.2,0.6,0.3,0.9,0.3
			C739.3,1756.7,739.7,1756.6,739.9,1756.3z"/>
	</g>
	<rect id="長方形_652-4" x="658" y="1665.7" class="st4" width="80" height="20"/>
	<g class="st2">
		<path class="st3" d="M676,1677.7c0,0.4,0.1,0.8,0.3,1.1c0.3,0.5,0.9,0.8,1.8,0.8c0.4,0,0.7-0.1,1.1-0.2c0.6-0.2,0.9-0.6,0.9-1.2
			c0-0.4-0.1-0.7-0.4-0.9c-0.3-0.2-0.7-0.3-1.2-0.5l-1-0.2c-0.7-0.2-1.2-0.3-1.4-0.5c-0.5-0.3-0.7-0.8-0.7-1.5
			c0-0.7,0.2-1.3,0.7-1.7c0.5-0.5,1.2-0.7,2-0.7c0.8,0,1.5,0.2,2.1,0.6c0.6,0.4,0.8,1,0.8,1.9h-1c-0.1-0.4-0.2-0.7-0.3-1
			c-0.3-0.4-0.8-0.6-1.6-0.6c-0.6,0-1,0.1-1.3,0.4s-0.4,0.6-0.4,0.9c0,0.4,0.2,0.7,0.5,0.8c0.2,0.1,0.7,0.3,1.4,0.4l1.1,0.3
			c0.5,0.1,0.9,0.3,1.2,0.5c0.5,0.4,0.7,0.9,0.7,1.6c0,0.9-0.3,1.5-0.9,1.9c-0.6,0.4-1.3,0.6-2.2,0.6c-1,0-1.7-0.2-2.2-0.8
			c-0.5-0.5-0.8-1.2-0.8-2H676z"/>
		<path class="st3" d="M685.6,1676.8c0.2,0,0.4-0.1,0.4-0.3c0-0.1,0.1-0.2,0.1-0.4c0-0.3-0.1-0.6-0.4-0.7c-0.2-0.1-0.6-0.2-1-0.2
			c-0.5,0-0.9,0.1-1.1,0.4c-0.1,0.2-0.2,0.4-0.2,0.7h-0.9c0-0.7,0.2-1.2,0.7-1.5c0.4-0.3,1-0.4,1.5-0.4c0.7,0,1.2,0.1,1.6,0.4
			c0.4,0.3,0.6,0.7,0.6,1.2v3.3c0,0.1,0,0.2,0.1,0.2c0,0.1,0.1,0.1,0.3,0.1c0,0,0.1,0,0.1,0c0.1,0,0.1,0,0.2,0v0.7
			c-0.2,0-0.3,0.1-0.3,0.1s-0.2,0-0.3,0c-0.3,0-0.6-0.1-0.7-0.4c-0.1-0.1-0.1-0.3-0.2-0.5c-0.2,0.3-0.5,0.5-0.8,0.7
			c-0.4,0.2-0.8,0.3-1.2,0.3c-0.5,0-1-0.2-1.3-0.5c-0.3-0.3-0.5-0.7-0.5-1.2c0-0.5,0.2-0.9,0.5-1.2s0.8-0.5,1.3-0.5L685.6,1676.8z
			 M683.6,1679.4c0.2,0.2,0.4,0.2,0.7,0.2c0.3,0,0.7-0.1,1-0.2c0.5-0.3,0.8-0.7,0.8-1.3v-0.8c-0.1,0.1-0.3,0.1-0.5,0.2
			c-0.2,0.1-0.4,0.1-0.5,0.1l-0.6,0.1c-0.4,0-0.6,0.1-0.8,0.2c-0.3,0.2-0.4,0.4-0.4,0.8C683.3,1679,683.4,1679.2,683.6,1679.4z"/>
		<path class="st3" d="M688.6,1672.4h0.9v4.6l2.5-2.4h1.2l-2.2,2.1l2.3,3.6h-1.2l-1.8-2.9l-0.8,0.8v2.2h-0.9V1672.4z"/>
		<path class="st3" d="M697.2,1676.8c0.2,0,0.4-0.1,0.4-0.3c0-0.1,0.1-0.2,0.1-0.4c0-0.3-0.1-0.6-0.4-0.7c-0.2-0.1-0.6-0.2-1-0.2
			c-0.5,0-0.9,0.1-1.1,0.4c-0.1,0.2-0.2,0.4-0.2,0.7h-0.9c0-0.7,0.2-1.2,0.7-1.5c0.4-0.3,1-0.4,1.5-0.4c0.7,0,1.2,0.1,1.6,0.4
			c0.4,0.3,0.6,0.7,0.6,1.2v3.3c0,0.1,0,0.2,0.1,0.2c0,0.1,0.1,0.1,0.3,0.1c0,0,0.1,0,0.1,0c0.1,0,0.1,0,0.2,0v0.7
			c-0.2,0-0.3,0.1-0.3,0.1c-0.1,0-0.2,0-0.3,0c-0.3,0-0.6-0.1-0.7-0.4c-0.1-0.1-0.1-0.3-0.2-0.5c-0.2,0.3-0.5,0.5-0.8,0.7
			c-0.4,0.2-0.8,0.3-1.2,0.3c-0.5,0-1-0.2-1.3-0.5c-0.3-0.3-0.5-0.7-0.5-1.2c0-0.5,0.2-0.9,0.5-1.2s0.8-0.5,1.3-0.5L697.2,1676.8z
			 M695.2,1679.4c0.2,0.2,0.4,0.2,0.7,0.2c0.3,0,0.7-0.1,1-0.2c0.5-0.3,0.8-0.7,0.8-1.3v-0.8c-0.1,0.1-0.3,0.1-0.5,0.2
			c-0.2,0.1-0.4,0.1-0.5,0.1l-0.6,0.1c-0.4,0-0.6,0.1-0.8,0.2c-0.3,0.2-0.4,0.4-0.4,0.8C694.9,1679,695,1679.2,695.2,1679.4z"/>
		<path class="st3" d="M700.2,1672.4h0.9v4.6l2.5-2.4h1.2l-2.2,2.1l2.3,3.6h-1.2l-1.8-2.9l-0.8,0.8v2.2h-0.9V1672.4z"/>
		<path class="st3" d="M705.7,1672.4h1v1.1h-1V1672.4z M705.7,1674.5h1v5.7h-1V1674.5z"/>
		<path class="st3" d="M711.6,1672.4h1.1v7.9h-1.1V1672.4z"/>
		<path class="st3" d="M720,1672.9c0.5,0.5,0.8,1.1,0.9,1.8h-1c-0.1-0.5-0.3-0.9-0.7-1.2c-0.3-0.3-0.8-0.4-1.5-0.4
			c-0.8,0-1.4,0.3-1.8,0.8c-0.5,0.5-0.7,1.4-0.7,2.5c0,0.9,0.2,1.7,0.6,2.2s1.1,0.9,1.9,0.9c0.8,0,1.4-0.3,1.8-0.9
			c0.2-0.3,0.4-0.7,0.5-1.3h1c-0.1,0.8-0.4,1.5-0.9,2.1c-0.6,0.7-1.5,1-2.5,1c-0.9,0-1.7-0.3-2.3-0.8c-0.8-0.7-1.2-1.9-1.2-3.4
			c0-1.2,0.3-2.1,0.9-2.9c0.7-0.8,1.6-1.2,2.7-1.2C718.7,1672.1,719.5,1672.4,720,1672.9z"/>
	</g>
	<g id="パス_1701" transform="translate(638 1777)">
		<path class="st3" d="M119.5,39.5H0.5v-39h119V39.5z"/>
		<path class="st4" d="M1,1v38h118V1H1 M0,0h120v40H0V0z"/>
	</g>
	<g class="st2">
		<path class="st5" d="M678,1786.8v0.9h-2.7v7h-1.1v-7h-2.7v-0.9H678z"/>
		<path class="st5" d="M679.4,1788.9v3.8c0,0.3,0,0.5,0.1,0.7c0.2,0.3,0.5,0.5,0.9,0.5c0.7,0,1.1-0.3,1.3-0.9
			c0.1-0.3,0.2-0.8,0.2-1.3v-2.8h1v5.8h-0.9l0-0.8c-0.1,0.2-0.3,0.4-0.5,0.6c-0.4,0.3-0.8,0.5-1.3,0.5c-0.8,0-1.4-0.3-1.6-0.8
			c-0.2-0.3-0.2-0.7-0.2-1.2v-3.9H679.4z"/>
		<path class="st5" d="M684.6,1788.9h0.9v1c0.1-0.2,0.3-0.4,0.6-0.7s0.6-0.4,1-0.4c0,0,0,0,0.1,0s0.1,0,0.2,0v1c-0.1,0-0.1,0-0.2,0
			c0,0-0.1,0-0.2,0c-0.5,0-0.9,0.2-1.1,0.5s-0.4,0.7-0.4,1.1v3.3h-1V1788.9z"/>
		<path class="st5" d="M688.2,1788.9h0.9v0.8c0.3-0.3,0.6-0.6,0.9-0.7s0.6-0.2,1-0.2c0.8,0,1.4,0.3,1.7,0.9c0.2,0.3,0.2,0.8,0.2,1.3
			v3.7h-1v-3.6c0-0.4-0.1-0.6-0.2-0.8c-0.2-0.4-0.5-0.5-0.9-0.5c-0.2,0-0.4,0-0.6,0.1c-0.3,0.1-0.5,0.2-0.7,0.5
			c-0.2,0.2-0.3,0.4-0.3,0.6c0,0.2-0.1,0.5-0.1,0.9v3h-1V1788.9z"/>
		<path class="st5" d="M697.4,1786.8h1v7.9h-1V1786.8z"/>
		<path class="st5" d="M703.4,1789.1c0.4,0.2,0.7,0.4,0.9,0.7c0.2,0.3,0.3,0.6,0.4,1c0.1,0.3,0.1,0.7,0.1,1.3h-4.2
			c0,0.6,0.2,1.1,0.4,1.4s0.7,0.5,1.2,0.5c0.5,0,0.9-0.2,1.2-0.5c0.2-0.2,0.3-0.4,0.4-0.7h1c0,0.2-0.1,0.4-0.2,0.7s-0.3,0.5-0.5,0.6
			c-0.3,0.3-0.7,0.5-1.1,0.6c-0.2,0.1-0.5,0.1-0.8,0.1c-0.7,0-1.3-0.3-1.8-0.8c-0.5-0.5-0.7-1.3-0.7-2.2c0-0.9,0.2-1.7,0.7-2.3
			c0.5-0.6,1.1-0.9,2-0.9C702.6,1788.8,703,1788.9,703.4,1789.1z M703.7,1791.4c0-0.4-0.1-0.8-0.3-1c-0.3-0.5-0.7-0.7-1.3-0.7
			c-0.4,0-0.8,0.2-1.1,0.5c-0.3,0.3-0.5,0.7-0.5,1.2H703.7z"/>
		<path class="st5" d="M706.4,1787.2c0.2-0.3,0.7-0.5,1.3-0.5c0.1,0,0.1,0,0.2,0c0.1,0,0.1,0,0.2,0v0.9c-0.1,0-0.2,0-0.2,0
			c0,0-0.1,0-0.1,0c-0.3,0-0.5,0.1-0.5,0.2c-0.1,0.2-0.1,0.5-0.1,1.2h1v0.8h-1v5h-1v-5h-0.8v-0.8h0.8v-0.9
			C706.2,1787.7,706.3,1787.4,706.4,1787.2z"/>
		<path class="st5" d="M709.2,1787.3h1v1.6h0.9v0.8h-0.9v3.8c0,0.2,0.1,0.3,0.2,0.4c0.1,0,0.2,0.1,0.4,0.1c0,0,0.1,0,0.2,0
			c0.1,0,0.1,0,0.2,0v0.8c-0.1,0-0.2,0.1-0.3,0.1c-0.1,0-0.2,0-0.4,0c-0.5,0-0.8-0.1-0.9-0.3c-0.2-0.2-0.2-0.5-0.2-0.9v-3.8h-0.8
			v-0.8h0.8V1787.3z"/>
		<path class="st5" d="M718.2,1791.2c0.2,0,0.4-0.1,0.4-0.3c0-0.1,0.1-0.2,0.1-0.4c0-0.3-0.1-0.6-0.4-0.7c-0.2-0.1-0.6-0.2-1-0.2
			c-0.5,0-0.9,0.1-1.1,0.4c-0.1,0.2-0.2,0.4-0.2,0.7h-0.9c0-0.7,0.2-1.2,0.7-1.5c0.4-0.3,1-0.4,1.5-0.4c0.7,0,1.2,0.1,1.6,0.4
			c0.4,0.3,0.6,0.7,0.6,1.2v3.3c0,0.1,0,0.2,0.1,0.2c0,0.1,0.1,0.1,0.3,0.1c0,0,0.1,0,0.1,0c0.1,0,0.1,0,0.2,0v0.7
			c-0.2,0-0.3,0.1-0.3,0.1c-0.1,0-0.2,0-0.3,0c-0.3,0-0.6-0.1-0.7-0.4c-0.1-0.1-0.1-0.3-0.2-0.5c-0.2,0.3-0.5,0.5-0.8,0.7
			c-0.4,0.2-0.8,0.3-1.2,0.3c-0.5,0-1-0.2-1.3-0.5c-0.3-0.3-0.5-0.7-0.5-1.2c0-0.5,0.2-0.9,0.5-1.2s0.8-0.5,1.3-0.5L718.2,1791.2z
			 M716.2,1793.8c0.2,0.2,0.4,0.2,0.7,0.2c0.3,0,0.7-0.1,1-0.2c0.5-0.3,0.8-0.7,0.8-1.3v-0.8c-0.1,0.1-0.3,0.1-0.5,0.2
			c-0.2,0.1-0.4,0.1-0.5,0.1l-0.6,0.1c-0.4,0-0.6,0.1-0.8,0.2c-0.3,0.2-0.4,0.4-0.4,0.8C715.9,1793.4,716,1793.7,716.2,1793.8z"/>
		<path class="st5" d="M721.4,1787.3h1v1.6h0.9v0.8h-0.9v3.8c0,0.2,0.1,0.3,0.2,0.4c0.1,0,0.2,0.1,0.4,0.1c0,0,0.1,0,0.2,0
			c0.1,0,0.1,0,0.2,0v0.8c-0.1,0-0.2,0.1-0.3,0.1c-0.1,0-0.2,0-0.4,0c-0.5,0-0.8-0.1-0.9-0.3c-0.2-0.2-0.2-0.5-0.2-0.9v-3.8h-0.8
			v-0.8h0.8V1787.3z"/>
	</g>
	<g class="st2">
		<path class="st5" d="M665.2,1798.8v0.9h-2.7v7h-1.1v-7h-2.7v-0.9H665.2z"/>
		<path class="st5" d="M669.1,1801.5c0.5,0.5,0.8,1.2,0.8,2.2c0,0.9-0.2,1.7-0.7,2.3c-0.4,0.6-1.1,0.9-2.1,0.9
			c-0.8,0-1.4-0.3-1.9-0.8c-0.5-0.5-0.7-1.3-0.7-2.2c0-1,0.2-1.7,0.7-2.3c0.5-0.6,1.1-0.9,2-0.9
			C667.9,1800.8,668.5,1801,669.1,1801.5z M668.5,1805.3c0.2-0.5,0.4-1,0.4-1.6c0-0.5-0.1-1-0.3-1.3c-0.3-0.5-0.7-0.8-1.4-0.8
			c-0.6,0-1,0.2-1.3,0.7c-0.3,0.5-0.4,1-0.4,1.6c0,0.6,0.1,1.1,0.4,1.5c0.3,0.4,0.7,0.6,1.3,0.6
			C667.8,1806.1,668.2,1805.8,668.5,1805.3z"/>
		<path class="st5" d="M674.2,1801.2c0.2,0.1,0.4,0.3,0.6,0.5v-0.7h0.9v5.2c0,0.7-0.1,1.3-0.3,1.7c-0.4,0.8-1.2,1.2-2.3,1.2
			c-0.6,0-1.1-0.1-1.6-0.4c-0.4-0.3-0.7-0.7-0.7-1.3h1c0,0.3,0.1,0.5,0.3,0.6c0.2,0.2,0.6,0.3,1,0.3c0.7,0,1.2-0.3,1.4-0.8
			c0.1-0.3,0.2-0.9,0.2-1.6c-0.2,0.3-0.4,0.5-0.7,0.7c-0.3,0.1-0.6,0.2-1.1,0.2c-0.6,0-1.2-0.2-1.6-0.7s-0.7-1.2-0.7-2.2
			c0-1,0.2-1.7,0.7-2.3c0.5-0.5,1-0.8,1.7-0.8C673.5,1800.8,673.9,1801,674.2,1801.2z M674.3,1802.2c-0.3-0.3-0.7-0.5-1.1-0.5
			c-0.7,0-1.1,0.3-1.4,1c-0.1,0.3-0.2,0.8-0.2,1.3c0,0.6,0.1,1.1,0.4,1.5c0.3,0.3,0.6,0.5,1.1,0.5c0.7,0,1.2-0.3,1.5-0.9
			c0.2-0.4,0.2-0.8,0.2-1.2C674.8,1803.1,674.6,1802.6,674.3,1802.2z"/>
		<path class="st5" d="M678.1,1800.9v3.8c0,0.3,0,0.5,0.1,0.7c0.2,0.3,0.5,0.5,0.9,0.5c0.7,0,1.1-0.3,1.3-0.9
			c0.1-0.3,0.2-0.8,0.2-1.3v-2.8h1v5.8h-0.9l0-0.8c-0.1,0.2-0.3,0.4-0.5,0.6c-0.4,0.3-0.8,0.5-1.3,0.5c-0.8,0-1.4-0.3-1.6-0.8
			c-0.2-0.3-0.2-0.7-0.2-1.2v-3.9H678.1z"/>
		<path class="st5" d="M683.3,1800.9h0.9v1c0.1-0.2,0.3-0.4,0.6-0.7s0.6-0.4,1-0.4c0,0,0,0,0.1,0s0.1,0,0.2,0v1c-0.1,0-0.1,0-0.2,0
			c0,0-0.1,0-0.2,0c-0.5,0-0.9,0.2-1.1,0.5s-0.4,0.7-0.4,1.1v3.3h-1V1800.9z"/>
		<path class="st5" d="M690,1803.2c0.2,0,0.4-0.1,0.4-0.3c0-0.1,0.1-0.2,0.1-0.4c0-0.3-0.1-0.6-0.4-0.7c-0.2-0.1-0.6-0.2-1-0.2
			c-0.5,0-0.9,0.1-1.1,0.4c-0.1,0.2-0.2,0.4-0.2,0.7h-0.9c0-0.7,0.2-1.2,0.7-1.5c0.4-0.3,1-0.4,1.5-0.4c0.7,0,1.2,0.1,1.6,0.4
			c0.4,0.3,0.6,0.7,0.6,1.2v3.3c0,0.1,0,0.2,0.1,0.2c0,0.1,0.1,0.1,0.3,0.1c0,0,0.1,0,0.1,0c0.1,0,0.1,0,0.2,0v0.7
			c-0.2,0-0.3,0.1-0.3,0.1s-0.2,0-0.3,0c-0.3,0-0.6-0.1-0.7-0.4c-0.1-0.1-0.1-0.3-0.2-0.5c-0.2,0.3-0.5,0.5-0.8,0.7
			c-0.4,0.2-0.8,0.3-1.2,0.3c-0.5,0-1-0.2-1.3-0.5c-0.3-0.3-0.5-0.7-0.5-1.2c0-0.5,0.2-0.9,0.5-1.2s0.8-0.5,1.3-0.5L690,1803.2z
			 M687.9,1805.8c0.2,0.2,0.4,0.2,0.7,0.2c0.3,0,0.7-0.1,1-0.2c0.5-0.3,0.8-0.7,0.8-1.3v-0.8c-0.1,0.1-0.3,0.1-0.5,0.2
			c-0.2,0.1-0.4,0.1-0.5,0.1l-0.6,0.1c-0.4,0-0.6,0.1-0.8,0.2c-0.3,0.2-0.4,0.4-0.4,0.8C687.6,1805.4,687.7,1805.7,687.9,1805.8z"/>
		<path class="st5" d="M699.9,1801.3c0.4,0.3,0.7,0.9,0.7,1.6h-0.9c-0.1-0.4-0.2-0.6-0.4-0.9s-0.5-0.4-1-0.4c-0.6,0-1.1,0.3-1.3,0.9
			c-0.2,0.4-0.3,0.9-0.3,1.4c0,0.6,0.1,1.1,0.4,1.5s0.6,0.6,1.1,0.6c0.4,0,0.7-0.1,1-0.4c0.2-0.2,0.4-0.6,0.5-1h0.9
			c-0.1,0.8-0.4,1.3-0.8,1.7s-1,0.5-1.6,0.5c-0.8,0-1.4-0.3-1.8-0.8s-0.7-1.2-0.7-2.1c0-1,0.2-1.8,0.7-2.4c0.5-0.6,1.1-0.8,1.9-0.8
			C698.9,1800.8,699.5,1800.9,699.9,1801.3z"/>
		<path class="st5" d="M701.6,1800.9h0.9v1c0.1-0.2,0.3-0.4,0.6-0.7c0.3-0.3,0.6-0.4,1-0.4c0,0,0,0,0.1,0s0.1,0,0.2,0v1
			c-0.1,0-0.1,0-0.2,0c0,0-0.1,0-0.2,0c-0.5,0-0.9,0.2-1.1,0.5c-0.3,0.3-0.4,0.7-0.4,1.1v3.3h-1V1800.9z"/>
		<path class="st5" d="M709.4,1801.5c0.5,0.5,0.8,1.2,0.8,2.2c0,0.9-0.2,1.7-0.7,2.3c-0.4,0.6-1.1,0.9-2.1,0.9
			c-0.8,0-1.4-0.3-1.9-0.8c-0.5-0.5-0.7-1.3-0.7-2.2c0-1,0.2-1.7,0.7-2.3c0.5-0.6,1.1-0.9,2-0.9
			C708.3,1800.8,708.9,1801,709.4,1801.5z M708.8,1805.3c0.2-0.5,0.4-1,0.4-1.6c0-0.5-0.1-1-0.3-1.3c-0.3-0.5-0.7-0.8-1.4-0.8
			c-0.6,0-1,0.2-1.3,0.7c-0.3,0.5-0.4,1-0.4,1.6c0,0.6,0.1,1.1,0.4,1.5c0.3,0.4,0.7,0.6,1.3,0.6
			C708.1,1806.1,708.6,1805.8,708.8,1805.3z"/>
		<path class="st5" d="M711.9,1804.9c0,0.3,0.1,0.6,0.2,0.7c0.2,0.3,0.7,0.5,1.3,0.5c0.4,0,0.7-0.1,1-0.2c0.3-0.2,0.4-0.4,0.4-0.7
			c0-0.2-0.1-0.4-0.3-0.6c-0.1-0.1-0.4-0.2-0.8-0.3l-0.8-0.2c-0.5-0.1-0.9-0.3-1.1-0.4c-0.4-0.3-0.6-0.6-0.6-1.1
			c0-0.5,0.2-1,0.6-1.3c0.4-0.3,0.9-0.5,1.6-0.5c0.9,0,1.5,0.3,1.9,0.8c0.2,0.3,0.4,0.7,0.4,1h-0.9c0-0.2-0.1-0.4-0.2-0.6
			c-0.2-0.3-0.6-0.4-1.2-0.4c-0.4,0-0.7,0.1-0.8,0.2c-0.2,0.1-0.3,0.3-0.3,0.6c0,0.2,0.1,0.5,0.4,0.6c0.1,0.1,0.4,0.2,0.6,0.2
			l0.7,0.2c0.7,0.2,1.2,0.3,1.4,0.5c0.4,0.2,0.6,0.6,0.6,1.2c0,0.5-0.2,1-0.6,1.3c-0.4,0.4-1,0.6-1.8,0.6c-0.9,0-1.5-0.2-1.8-0.6
			c-0.4-0.4-0.6-0.9-0.6-1.4H711.9z"/>
		<path class="st5" d="M717.4,1804.9c0,0.3,0.1,0.6,0.2,0.7c0.2,0.3,0.7,0.5,1.3,0.5c0.4,0,0.7-0.1,1-0.2c0.3-0.2,0.4-0.4,0.4-0.7
			c0-0.2-0.1-0.4-0.3-0.6c-0.1-0.1-0.4-0.2-0.8-0.3l-0.8-0.2c-0.5-0.1-0.9-0.3-1.1-0.4c-0.4-0.3-0.6-0.6-0.6-1.1
			c0-0.5,0.2-1,0.6-1.3c0.4-0.3,0.9-0.5,1.6-0.5c0.9,0,1.5,0.3,1.9,0.8c0.2,0.3,0.4,0.7,0.4,1h-0.9c0-0.2-0.1-0.4-0.2-0.6
			c-0.2-0.3-0.6-0.4-1.2-0.4c-0.4,0-0.7,0.1-0.8,0.2c-0.2,0.1-0.3,0.3-0.3,0.6c0,0.2,0.1,0.5,0.4,0.6c0.1,0.1,0.4,0.2,0.6,0.2
			l0.7,0.2c0.7,0.2,1.2,0.3,1.4,0.5c0.4,0.2,0.6,0.6,0.6,1.2c0,0.5-0.2,1-0.6,1.3c-0.4,0.4-1,0.6-1.8,0.6c-0.9,0-1.5-0.2-1.8-0.6
			c-0.4-0.4-0.6-0.9-0.6-1.4H717.4z"/>
		<path class="st5" d="M722.4,1798.8h1v1.1h-1V1798.8z M722.4,1801h1v5.7h-1V1801z"/>
		<path class="st5" d="M724.8,1800.9h0.9v0.8c0.3-0.3,0.6-0.6,0.9-0.7c0.3-0.1,0.6-0.2,1-0.2c0.8,0,1.4,0.3,1.7,0.9
			c0.2,0.3,0.2,0.8,0.2,1.3v3.7h-1v-3.6c0-0.4-0.1-0.6-0.2-0.8c-0.2-0.4-0.5-0.5-0.9-0.5c-0.2,0-0.4,0-0.6,0.1
			c-0.3,0.1-0.5,0.2-0.7,0.5c-0.2,0.2-0.3,0.4-0.3,0.6c0,0.2-0.1,0.5-0.1,0.9v3h-1V1800.9z"/>
		<path class="st5" d="M734.1,1801.2c0.2,0.1,0.4,0.3,0.6,0.5v-0.7h0.9v5.2c0,0.7-0.1,1.3-0.3,1.7c-0.4,0.8-1.2,1.2-2.3,1.2
			c-0.6,0-1.1-0.1-1.6-0.4s-0.7-0.7-0.7-1.3h1c0,0.3,0.1,0.5,0.3,0.6c0.2,0.2,0.6,0.3,1,0.3c0.7,0,1.2-0.3,1.4-0.8
			c0.1-0.3,0.2-0.9,0.2-1.6c-0.2,0.3-0.4,0.5-0.7,0.7c-0.3,0.1-0.6,0.2-1.1,0.2c-0.6,0-1.2-0.2-1.6-0.7c-0.5-0.4-0.7-1.2-0.7-2.2
			c0-1,0.2-1.7,0.7-2.3c0.5-0.5,1-0.8,1.7-0.8C733.4,1800.8,733.8,1801,734.1,1801.2z M734.2,1802.2c-0.3-0.3-0.7-0.5-1.1-0.5
			c-0.7,0-1.1,0.3-1.4,1c-0.1,0.3-0.2,0.8-0.2,1.3c0,0.6,0.1,1.1,0.4,1.5c0.3,0.3,0.6,0.5,1.1,0.5c0.7,0,1.2-0.3,1.5-0.9
			c0.2-0.4,0.2-0.8,0.2-1.2C734.7,1803.1,734.5,1802.6,734.2,1802.2z"/>
	</g>
	<g id="パス_1701-2" transform="translate(638 1696.243)">
		<path class="st3" d="M119.5,39.5H0.5v-39h119V39.5z"/>
		<path class="st4" d="M1,1v38h118V1H1 M0,0h120v40H0V0z"/>
	</g>
	<g class="st2">
		<path class="st5" d="M649.6,1706v0.9h-2.7v7h-1.1v-7h-2.7v-0.9H649.6z"/>
		<path class="st5" d="M651,1708.1v3.8c0,0.3,0,0.5,0.1,0.7c0.2,0.3,0.5,0.5,0.9,0.5c0.7,0,1.1-0.3,1.3-0.9c0.1-0.3,0.2-0.8,0.2-1.3
			v-2.8h1v5.8h-0.9l0-0.8c-0.1,0.2-0.3,0.4-0.5,0.6c-0.4,0.3-0.8,0.5-1.3,0.5c-0.8,0-1.4-0.3-1.6-0.8c-0.2-0.3-0.2-0.7-0.2-1.2v-3.9
			H651z"/>
		<path class="st5" d="M656.2,1708.1h0.9v1c0.1-0.2,0.3-0.4,0.6-0.7s0.6-0.4,1-0.4c0,0,0,0,0.1,0s0.1,0,0.2,0v1c-0.1,0-0.1,0-0.2,0
			c0,0-0.1,0-0.2,0c-0.5,0-0.9,0.2-1.1,0.5s-0.4,0.7-0.4,1.1v3.3h-1V1708.1z"/>
		<path class="st5" d="M659.8,1708.1h0.9v0.8c0.3-0.3,0.6-0.6,0.9-0.7s0.6-0.2,1-0.2c0.8,0,1.4,0.3,1.7,0.9c0.2,0.3,0.2,0.8,0.2,1.3
			v3.7h-1v-3.6c0-0.4-0.1-0.6-0.2-0.8c-0.2-0.4-0.5-0.5-0.9-0.5c-0.2,0-0.4,0-0.6,0.1c-0.3,0.1-0.5,0.2-0.7,0.5
			c-0.2,0.2-0.3,0.4-0.3,0.6c0,0.2-0.1,0.5-0.1,0.9v3h-1V1708.1z"/>
		<path class="st5" d="M669,1708.1h0.9v1c0.1-0.2,0.3-0.4,0.6-0.7s0.6-0.4,1-0.4c0,0,0,0,0.1,0s0.1,0,0.2,0v1c-0.1,0-0.1,0-0.2,0
			c0,0-0.1,0-0.2,0c-0.5,0-0.9,0.2-1.1,0.5s-0.4,0.7-0.4,1.1v3.3h-1V1708.1z"/>
		<path class="st5" d="M672.6,1706h1v1.1h-1V1706z M672.6,1708.2h1v5.7h-1V1708.2z"/>
		<path class="st5" d="M678.3,1708.4c0.2,0.1,0.4,0.3,0.6,0.5v-0.7h0.9v5.2c0,0.7-0.1,1.3-0.3,1.7c-0.4,0.8-1.2,1.2-2.3,1.2
			c-0.6,0-1.1-0.1-1.6-0.4c-0.4-0.3-0.7-0.7-0.7-1.3h1c0,0.3,0.1,0.5,0.3,0.6c0.2,0.2,0.6,0.3,1,0.3c0.7,0,1.2-0.3,1.4-0.8
			c0.1-0.3,0.2-0.9,0.2-1.6c-0.2,0.3-0.4,0.5-0.7,0.7c-0.3,0.1-0.6,0.2-1.1,0.2c-0.6,0-1.2-0.2-1.6-0.7s-0.7-1.2-0.7-2.2
			c0-1,0.2-1.7,0.7-2.3c0.5-0.5,1-0.8,1.7-0.8C677.5,1708,677.9,1708.2,678.3,1708.4z M678.4,1709.4c-0.3-0.3-0.7-0.5-1.1-0.5
			c-0.7,0-1.1,0.3-1.4,1c-0.1,0.3-0.2,0.8-0.2,1.3c0,0.6,0.1,1.1,0.4,1.5c0.3,0.3,0.6,0.5,1.1,0.5c0.7,0,1.2-0.3,1.5-0.9
			c0.2-0.4,0.2-0.8,0.2-1.2C678.8,1710.3,678.7,1709.8,678.4,1709.4z"/>
		<path class="st5" d="M681.2,1706h1v2.9c0.2-0.3,0.4-0.5,0.6-0.6c0.3-0.2,0.7-0.3,1.2-0.3c0.8,0,1.4,0.3,1.7,0.9
			c0.2,0.3,0.2,0.8,0.2,1.3v3.7h-1v-3.6c0-0.4-0.1-0.7-0.2-0.9c-0.2-0.3-0.5-0.5-1-0.5c-0.4,0-0.8,0.1-1.1,0.4
			c-0.3,0.3-0.5,0.8-0.5,1.6v3.1h-1V1706z"/>
		<path class="st5" d="M687.5,1706.5h1v1.6h0.9v0.8h-0.9v3.8c0,0.2,0.1,0.3,0.2,0.4c0.1,0,0.2,0.1,0.4,0.1c0,0,0.1,0,0.2,0
			c0.1,0,0.1,0,0.2,0v0.8c-0.1,0-0.2,0.1-0.3,0.1c-0.1,0-0.2,0-0.4,0c-0.5,0-0.8-0.1-0.9-0.3c-0.2-0.2-0.2-0.5-0.2-0.9v-3.8h-0.8
			v-0.8h0.8V1706.5z"/>
		<path class="st5" d="M696.5,1710.4c0.2,0,0.4-0.1,0.4-0.3c0-0.1,0.1-0.2,0.1-0.4c0-0.3-0.1-0.6-0.4-0.7c-0.2-0.1-0.6-0.2-1-0.2
			c-0.5,0-0.9,0.1-1.1,0.4c-0.1,0.2-0.2,0.4-0.2,0.7h-0.9c0-0.7,0.2-1.2,0.7-1.5c0.4-0.3,1-0.4,1.5-0.4c0.7,0,1.2,0.1,1.6,0.4
			c0.4,0.3,0.6,0.7,0.6,1.2v3.3c0,0.1,0,0.2,0.1,0.2c0,0.1,0.1,0.1,0.3,0.1c0,0,0.1,0,0.1,0c0.1,0,0.1,0,0.2,0v0.7
			c-0.2,0-0.3,0.1-0.3,0.1s-0.2,0-0.3,0c-0.3,0-0.6-0.1-0.7-0.4c-0.1-0.1-0.1-0.3-0.2-0.5c-0.2,0.3-0.5,0.5-0.8,0.7
			c-0.4,0.2-0.8,0.3-1.2,0.3c-0.5,0-1-0.2-1.3-0.5c-0.3-0.3-0.5-0.7-0.5-1.2c0-0.5,0.2-0.9,0.5-1.2s0.8-0.5,1.3-0.5L696.5,1710.4z
			 M694.5,1713c0.2,0.2,0.4,0.2,0.7,0.2c0.3,0,0.7-0.1,1-0.2c0.5-0.3,0.8-0.7,0.8-1.3v-0.8c-0.1,0.1-0.3,0.1-0.5,0.2
			c-0.2,0.1-0.4,0.1-0.5,0.1l-0.6,0.1c-0.4,0-0.6,0.1-0.8,0.2c-0.3,0.2-0.4,0.4-0.4,0.8C694.2,1712.6,694.3,1712.9,694.5,1713z"/>
		<path class="st5" d="M699.7,1706.5h1v1.6h0.9v0.8h-0.9v3.8c0,0.2,0.1,0.3,0.2,0.4c0.1,0,0.2,0.1,0.4,0.1c0,0,0.1,0,0.2,0
			c0.1,0,0.1,0,0.2,0v0.8c-0.1,0-0.2,0.1-0.3,0.1c-0.1,0-0.2,0-0.4,0c-0.5,0-0.8-0.1-0.9-0.3c-0.2-0.2-0.2-0.5-0.2-0.9v-3.8H699
			v-0.8h0.8V1706.5z"/>
		<path class="st5" d="M706.5,1711.4c0,0.4,0.1,0.8,0.3,1.1c0.3,0.5,0.9,0.8,1.8,0.8c0.4,0,0.7-0.1,1.1-0.2c0.6-0.2,0.9-0.6,0.9-1.2
			c0-0.4-0.1-0.7-0.4-0.9c-0.3-0.2-0.7-0.3-1.2-0.5l-1-0.2c-0.7-0.2-1.2-0.3-1.4-0.5c-0.5-0.3-0.7-0.8-0.7-1.5
			c0-0.7,0.2-1.3,0.7-1.7c0.5-0.5,1.2-0.7,2-0.7c0.8,0,1.5,0.2,2.1,0.6s0.8,1,0.8,1.9h-1c-0.1-0.4-0.2-0.7-0.3-1
			c-0.3-0.4-0.8-0.6-1.6-0.6c-0.6,0-1,0.1-1.3,0.4c-0.3,0.3-0.4,0.6-0.4,0.9c0,0.4,0.2,0.7,0.5,0.8c0.2,0.1,0.7,0.3,1.4,0.4l1.1,0.3
			c0.5,0.1,0.9,0.3,1.2,0.5c0.5,0.4,0.7,0.9,0.7,1.6c0,0.9-0.3,1.5-0.9,1.9c-0.6,0.4-1.3,0.6-2.2,0.6c-1,0-1.7-0.2-2.2-0.8
			c-0.5-0.5-0.8-1.2-0.8-2H706.5z"/>
		<path class="st5" d="M716.1,1710.4c0.2,0,0.4-0.1,0.4-0.3c0-0.1,0.1-0.2,0.1-0.4c0-0.3-0.1-0.6-0.4-0.7c-0.2-0.1-0.6-0.2-1-0.2
			c-0.5,0-0.9,0.1-1.1,0.4c-0.1,0.2-0.2,0.4-0.2,0.7H713c0-0.7,0.2-1.2,0.7-1.5s1-0.4,1.5-0.4c0.7,0,1.2,0.1,1.6,0.4
			c0.4,0.3,0.6,0.7,0.6,1.2v3.3c0,0.1,0,0.2,0.1,0.2c0,0.1,0.1,0.1,0.3,0.1c0,0,0.1,0,0.1,0c0.1,0,0.1,0,0.2,0v0.7
			c-0.2,0-0.3,0.1-0.3,0.1c-0.1,0-0.2,0-0.3,0c-0.3,0-0.6-0.1-0.7-0.4c-0.1-0.1-0.1-0.3-0.2-0.5c-0.2,0.3-0.5,0.5-0.8,0.7
			c-0.4,0.2-0.8,0.3-1.2,0.3c-0.5,0-1-0.2-1.3-0.5c-0.3-0.3-0.5-0.7-0.5-1.2c0-0.5,0.2-0.9,0.5-1.2s0.8-0.5,1.3-0.5L716.1,1710.4z
			 M714,1713c0.2,0.2,0.4,0.2,0.7,0.2c0.3,0,0.7-0.1,1-0.2c0.5-0.3,0.8-0.7,0.8-1.3v-0.8c-0.1,0.1-0.3,0.1-0.5,0.2
			c-0.2,0.1-0.4,0.1-0.5,0.1l-0.6,0.1c-0.4,0-0.6,0.1-0.8,0.2c-0.3,0.2-0.4,0.4-0.4,0.8C713.7,1712.6,713.8,1712.9,714,1713z"/>
		<path class="st5" d="M719.1,1706h0.9v4.6l2.5-2.4h1.2l-2.2,2.1l2.3,3.6h-1.2l-1.8-2.9l-0.8,0.8v2.2h-0.9V1706z"/>
		<path class="st5" d="M727.7,1710.4c0.2,0,0.4-0.1,0.4-0.3c0-0.1,0.1-0.2,0.1-0.4c0-0.3-0.1-0.6-0.4-0.7c-0.2-0.1-0.6-0.2-1-0.2
			c-0.5,0-0.9,0.1-1.1,0.4c-0.1,0.2-0.2,0.4-0.2,0.7h-0.9c0-0.7,0.2-1.2,0.7-1.5c0.4-0.3,1-0.4,1.5-0.4c0.7,0,1.2,0.1,1.6,0.4
			c0.4,0.3,0.6,0.7,0.6,1.2v3.3c0,0.1,0,0.2,0.1,0.2c0,0.1,0.1,0.1,0.3,0.1c0,0,0.1,0,0.1,0c0.1,0,0.1,0,0.2,0v0.7
			c-0.2,0-0.3,0.1-0.3,0.1c-0.1,0-0.2,0-0.3,0c-0.3,0-0.6-0.1-0.7-0.4c-0.1-0.1-0.1-0.3-0.2-0.5c-0.2,0.3-0.5,0.5-0.8,0.7
			c-0.4,0.2-0.8,0.3-1.2,0.3c-0.5,0-1-0.2-1.3-0.5c-0.3-0.3-0.5-0.7-0.5-1.2c0-0.5,0.2-0.9,0.5-1.2s0.8-0.5,1.3-0.5L727.7,1710.4z
			 M725.7,1713c0.2,0.2,0.4,0.2,0.7,0.2c0.3,0,0.7-0.1,1-0.2c0.5-0.3,0.8-0.7,0.8-1.3v-0.8c-0.1,0.1-0.3,0.1-0.5,0.2
			c-0.2,0.1-0.4,0.1-0.5,0.1l-0.6,0.1c-0.4,0-0.6,0.1-0.8,0.2c-0.3,0.2-0.4,0.4-0.4,0.8C725.3,1712.6,725.4,1712.9,725.7,1713z"/>
		<path class="st5" d="M730.7,1706h0.9v4.6l2.5-2.4h1.2l-2.2,2.1l2.3,3.6h-1.2l-1.8-2.9l-0.8,0.8v2.2h-0.9V1706z"/>
		<path class="st5" d="M736.2,1706h1v1.1h-1V1706z M736.2,1708.2h1v5.7h-1V1708.2z"/>
		<path class="st5" d="M742.1,1706h1.1v7.9h-1.1V1706z"/>
		<path class="st5" d="M750.5,1706.6c0.5,0.5,0.8,1.1,0.9,1.8h-1c-0.1-0.5-0.3-0.9-0.7-1.2c-0.3-0.3-0.8-0.4-1.5-0.4
			c-0.8,0-1.4,0.3-1.8,0.8c-0.5,0.5-0.7,1.4-0.7,2.5c0,0.9,0.2,1.7,0.6,2.2s1.1,0.9,1.9,0.9c0.8,0,1.4-0.3,1.8-0.9
			c0.2-0.3,0.4-0.7,0.5-1.3h1c-0.1,0.8-0.4,1.5-0.9,2.1c-0.6,0.7-1.5,1-2.5,1c-0.9,0-1.7-0.3-2.3-0.8c-0.8-0.7-1.2-1.9-1.2-3.4
			c0-1.2,0.3-2.1,0.9-2.9c0.7-0.8,1.6-1.2,2.7-1.2C749.2,1705.8,749.9,1706.1,750.5,1706.6z"/>
	</g>
	<g class="st2">
		<path class="st5" d="M656.8,1720.3c0.4,0.2,0.7,0.4,0.9,0.7c0.2,0.3,0.3,0.6,0.4,1c0.1,0.3,0.1,0.7,0.1,1.3H654
			c0,0.6,0.2,1.1,0.4,1.4c0.3,0.4,0.7,0.5,1.2,0.5c0.5,0,0.9-0.2,1.2-0.5c0.2-0.2,0.3-0.4,0.4-0.7h1c0,0.2-0.1,0.4-0.2,0.7
			c-0.1,0.3-0.3,0.5-0.5,0.6c-0.3,0.3-0.7,0.5-1.1,0.6c-0.2,0.1-0.5,0.1-0.8,0.1c-0.7,0-1.3-0.3-1.8-0.8c-0.5-0.5-0.7-1.3-0.7-2.2
			c0-0.9,0.2-1.7,0.7-2.3c0.5-0.6,1.1-0.9,2-0.9C656,1720,656.4,1720.1,656.8,1720.3z M657.2,1722.6c0-0.4-0.1-0.8-0.3-1
			c-0.3-0.5-0.7-0.7-1.3-0.7c-0.4,0-0.8,0.2-1.1,0.5s-0.5,0.7-0.5,1.2H657.2z"/>
		<path class="st5" d="M659.4,1720.1h0.9v0.8c0.3-0.3,0.6-0.6,0.9-0.7s0.6-0.2,1-0.2c0.8,0,1.4,0.3,1.7,0.9c0.2,0.3,0.2,0.8,0.2,1.3
			v3.7h-1v-3.6c0-0.4-0.1-0.6-0.2-0.8c-0.2-0.4-0.5-0.5-0.9-0.5c-0.2,0-0.4,0-0.6,0.1c-0.3,0.1-0.5,0.2-0.7,0.5
			c-0.2,0.2-0.3,0.4-0.3,0.6c0,0.2-0.1,0.5-0.1,0.9v3h-1V1720.1z"/>
		<path class="st5" d="M665.7,1718.5h1v1.6h0.9v0.8h-0.9v3.8c0,0.2,0.1,0.3,0.2,0.4c0.1,0,0.2,0.1,0.4,0.1c0,0,0.1,0,0.2,0
			c0.1,0,0.1,0,0.2,0v0.8c-0.1,0-0.2,0.1-0.3,0.1c-0.1,0-0.2,0-0.4,0c-0.5,0-0.8-0.1-0.9-0.3c-0.2-0.2-0.2-0.5-0.2-0.9v-3.8h-0.8
			v-0.8h0.8V1718.5z"/>
		<path class="st5" d="M668.6,1720.1h0.9v1c0.1-0.2,0.3-0.4,0.6-0.7s0.6-0.4,1-0.4c0,0,0,0,0.1,0s0.1,0,0.2,0v1c-0.1,0-0.1,0-0.2,0
			c0,0-0.1,0-0.2,0c-0.5,0-0.9,0.2-1.1,0.5s-0.4,0.7-0.4,1.1v3.3h-1V1720.1z"/>
		<path class="st5" d="M675.3,1722.4c0.2,0,0.4-0.1,0.4-0.3c0-0.1,0.1-0.2,0.1-0.4c0-0.3-0.1-0.6-0.4-0.7c-0.2-0.1-0.6-0.2-1-0.2
			c-0.5,0-0.9,0.1-1.1,0.4c-0.1,0.2-0.2,0.4-0.2,0.7h-0.9c0-0.7,0.2-1.2,0.7-1.5c0.4-0.3,1-0.4,1.5-0.4c0.7,0,1.2,0.1,1.6,0.4
			c0.4,0.3,0.6,0.7,0.6,1.2v3.3c0,0.1,0,0.2,0.1,0.2c0,0.1,0.1,0.1,0.3,0.1c0,0,0.1,0,0.1,0c0.1,0,0.1,0,0.2,0v0.7
			c-0.2,0-0.3,0.1-0.3,0.1s-0.2,0-0.3,0c-0.3,0-0.6-0.1-0.7-0.4c-0.1-0.1-0.1-0.3-0.2-0.5c-0.2,0.3-0.5,0.5-0.8,0.7
			c-0.4,0.2-0.8,0.3-1.2,0.3c-0.5,0-1-0.2-1.3-0.5c-0.3-0.3-0.5-0.7-0.5-1.2c0-0.5,0.2-0.9,0.5-1.2s0.8-0.5,1.3-0.5L675.3,1722.4z
			 M673.3,1725c0.2,0.2,0.4,0.2,0.7,0.2c0.3,0,0.7-0.1,1-0.2c0.5-0.3,0.8-0.7,0.8-1.3v-0.8c-0.1,0.1-0.3,0.1-0.5,0.2
			c-0.2,0.1-0.4,0.1-0.5,0.1l-0.6,0.1c-0.4,0-0.6,0.1-0.8,0.2c-0.3,0.2-0.4,0.4-0.4,0.8C673,1724.6,673.1,1724.9,673.3,1725z"/>
		<path class="st5" d="M678.3,1720.1h0.9v0.8c0.3-0.3,0.6-0.6,0.9-0.7s0.6-0.2,1-0.2c0.8,0,1.4,0.3,1.7,0.9c0.2,0.3,0.2,0.8,0.2,1.3
			v3.7h-1v-3.6c0-0.4-0.1-0.6-0.2-0.8c-0.2-0.4-0.5-0.5-0.9-0.5c-0.2,0-0.4,0-0.6,0.1c-0.3,0.1-0.5,0.2-0.7,0.5
			c-0.2,0.2-0.3,0.4-0.3,0.6c0,0.2-0.1,0.5-0.1,0.9v3h-1V1720.1z"/>
		<path class="st5" d="M688.3,1720.5c0.4,0.3,0.7,0.9,0.7,1.6h-0.9c-0.1-0.4-0.2-0.6-0.4-0.9s-0.5-0.4-1-0.4c-0.6,0-1.1,0.3-1.3,0.9
			c-0.2,0.4-0.3,0.9-0.3,1.4c0,0.6,0.1,1.1,0.4,1.5s0.6,0.6,1.1,0.6c0.4,0,0.7-0.1,1-0.4c0.2-0.2,0.4-0.6,0.5-1h0.9
			c-0.1,0.8-0.4,1.3-0.8,1.7s-1,0.5-1.6,0.5c-0.8,0-1.4-0.3-1.8-0.8s-0.7-1.2-0.7-2.1c0-1,0.2-1.8,0.7-2.4c0.5-0.6,1.1-0.8,1.9-0.8
			C687.3,1720,687.9,1720.1,688.3,1720.5z"/>
		<path class="st5" d="M693.5,1720.3c0.4,0.2,0.7,0.4,0.9,0.7c0.2,0.3,0.3,0.6,0.4,1c0.1,0.3,0.1,0.7,0.1,1.3h-4.2
			c0,0.6,0.2,1.1,0.4,1.4c0.3,0.4,0.7,0.5,1.2,0.5c0.5,0,0.9-0.2,1.2-0.5c0.2-0.2,0.3-0.4,0.4-0.7h1c0,0.2-0.1,0.4-0.2,0.7
			c-0.1,0.3-0.3,0.5-0.5,0.6c-0.3,0.3-0.7,0.5-1.1,0.6c-0.2,0.1-0.5,0.1-0.8,0.1c-0.7,0-1.3-0.3-1.8-0.8c-0.5-0.5-0.7-1.3-0.7-2.2
			c0-0.9,0.2-1.7,0.7-2.3c0.5-0.6,1.1-0.9,2-0.9C692.7,1720,693.1,1720.1,693.5,1720.3z M693.9,1722.6c0-0.4-0.1-0.8-0.3-1
			c-0.3-0.5-0.7-0.7-1.3-0.7c-0.4,0-0.8,0.2-1.1,0.5s-0.5,0.7-0.5,1.2H693.9z"/>
		<path class="st5" d="M706,1720.5c0.4,0.3,0.7,0.9,0.7,1.6h-0.9c-0.1-0.4-0.2-0.6-0.4-0.9s-0.5-0.4-1-0.4c-0.6,0-1.1,0.3-1.3,0.9
			c-0.2,0.4-0.3,0.9-0.3,1.4c0,0.6,0.1,1.1,0.4,1.5c0.2,0.4,0.6,0.6,1.1,0.6c0.4,0,0.7-0.1,1-0.4s0.4-0.6,0.5-1h0.9
			c-0.1,0.8-0.4,1.3-0.8,1.7s-1,0.5-1.6,0.5c-0.8,0-1.4-0.3-1.8-0.8c-0.4-0.5-0.7-1.2-0.7-2.1c0-1,0.2-1.8,0.7-2.4
			c0.5-0.6,1.1-0.8,1.9-0.8C705.1,1720,705.6,1720.1,706,1720.5z"/>
		<path class="st5" d="M707.7,1720.1h0.9v1c0.1-0.2,0.3-0.4,0.6-0.7c0.3-0.3,0.6-0.4,1-0.4c0,0,0,0,0.1,0s0.1,0,0.2,0v1
			c-0.1,0-0.1,0-0.2,0c0,0-0.1,0-0.2,0c-0.5,0-0.9,0.2-1.1,0.5c-0.3,0.3-0.4,0.7-0.4,1.1v3.3h-1V1720.1z"/>
		<path class="st5" d="M715.5,1720.7c0.5,0.5,0.8,1.2,0.8,2.2c0,0.9-0.2,1.7-0.7,2.3s-1.1,0.9-2.1,0.9c-0.8,0-1.4-0.3-1.9-0.8
			c-0.5-0.5-0.7-1.3-0.7-2.2c0-1,0.2-1.7,0.7-2.3s1.1-0.9,2-0.9C714.4,1720,715,1720.2,715.5,1720.7z M714.9,1724.5
			c0.2-0.5,0.4-1,0.4-1.6c0-0.5-0.1-1-0.3-1.3c-0.3-0.5-0.7-0.8-1.4-0.8c-0.6,0-1,0.2-1.3,0.7c-0.3,0.5-0.4,1-0.4,1.6
			c0,0.6,0.1,1.1,0.4,1.5c0.3,0.4,0.7,0.6,1.3,0.6C714.2,1725.3,714.7,1725,714.9,1724.5z"/>
		<path class="st5" d="M718,1724.1c0,0.3,0.1,0.6,0.2,0.7c0.2,0.3,0.7,0.5,1.3,0.5c0.4,0,0.7-0.1,1-0.2c0.3-0.2,0.4-0.4,0.4-0.7
			c0-0.2-0.1-0.4-0.3-0.6c-0.1-0.1-0.4-0.2-0.8-0.3l-0.8-0.2c-0.5-0.1-0.9-0.3-1.1-0.4c-0.4-0.3-0.6-0.6-0.6-1.1
			c0-0.5,0.2-1,0.6-1.3c0.4-0.3,0.9-0.5,1.6-0.5c0.9,0,1.5,0.3,1.9,0.8c0.2,0.3,0.4,0.7,0.4,1h-0.9c0-0.2-0.1-0.4-0.2-0.6
			c-0.2-0.3-0.6-0.4-1.2-0.4c-0.4,0-0.7,0.1-0.8,0.2c-0.2,0.1-0.3,0.3-0.3,0.6c0,0.2,0.1,0.5,0.4,0.6c0.1,0.1,0.4,0.2,0.6,0.2
			l0.7,0.2c0.7,0.2,1.2,0.3,1.4,0.5c0.4,0.2,0.6,0.6,0.6,1.2c0,0.5-0.2,1-0.6,1.3c-0.4,0.4-1,0.6-1.8,0.6c-0.9,0-1.5-0.2-1.8-0.6
			c-0.4-0.4-0.6-0.9-0.6-1.4H718z"/>
		<path class="st5" d="M723.5,1724.1c0,0.3,0.1,0.6,0.2,0.7c0.2,0.3,0.7,0.5,1.3,0.5c0.4,0,0.7-0.1,1-0.2c0.3-0.2,0.4-0.4,0.4-0.7
			c0-0.2-0.1-0.4-0.3-0.6c-0.1-0.1-0.4-0.2-0.8-0.3l-0.8-0.2c-0.5-0.1-0.9-0.3-1.1-0.4c-0.4-0.3-0.6-0.6-0.6-1.1
			c0-0.5,0.2-1,0.6-1.3c0.4-0.3,0.9-0.5,1.6-0.5c0.9,0,1.5,0.3,1.9,0.8c0.2,0.3,0.4,0.7,0.4,1h-0.9c0-0.2-0.1-0.4-0.2-0.6
			c-0.2-0.3-0.6-0.4-1.2-0.4c-0.4,0-0.7,0.1-0.8,0.2c-0.2,0.1-0.3,0.3-0.3,0.6c0,0.2,0.1,0.5,0.4,0.6c0.1,0.1,0.4,0.2,0.6,0.2
			l0.7,0.2c0.7,0.2,1.2,0.3,1.4,0.5c0.4,0.2,0.6,0.6,0.6,1.2c0,0.5-0.2,1-0.6,1.3c-0.4,0.4-1,0.6-1.8,0.6c-0.9,0-1.5-0.2-1.8-0.6
			c-0.4-0.4-0.6-0.9-0.6-1.4H723.5z"/>
		<path class="st5" d="M728.5,1718h1v1.1h-1V1718z M728.5,1720.2h1v5.7h-1V1720.2z"/>
		<path class="st5" d="M730.9,1720.1h0.9v0.8c0.3-0.3,0.6-0.6,0.9-0.7c0.3-0.1,0.6-0.2,1-0.2c0.8,0,1.4,0.3,1.7,0.9
			c0.2,0.3,0.2,0.8,0.2,1.3v3.7h-1v-3.6c0-0.4-0.1-0.6-0.2-0.8c-0.2-0.4-0.5-0.5-0.9-0.5c-0.2,0-0.4,0-0.6,0.1
			c-0.3,0.1-0.5,0.2-0.7,0.5c-0.2,0.2-0.3,0.4-0.3,0.6c0,0.2-0.1,0.5-0.1,0.9v3h-1V1720.1z"/>
		<path class="st5" d="M740.2,1720.4c0.2,0.1,0.4,0.3,0.6,0.5v-0.7h0.9v5.2c0,0.7-0.1,1.3-0.3,1.7c-0.4,0.8-1.2,1.2-2.3,1.2
			c-0.6,0-1.1-0.1-1.6-0.4c-0.4-0.3-0.7-0.7-0.7-1.3h1c0,0.3,0.1,0.5,0.3,0.6c0.2,0.2,0.6,0.3,1,0.3c0.7,0,1.2-0.3,1.4-0.8
			c0.1-0.3,0.2-0.9,0.2-1.6c-0.2,0.3-0.4,0.5-0.7,0.7c-0.3,0.1-0.6,0.2-1.1,0.2c-0.6,0-1.2-0.2-1.6-0.7c-0.5-0.4-0.7-1.2-0.7-2.2
			c0-1,0.2-1.7,0.7-2.3c0.5-0.5,1-0.8,1.7-0.8C739.5,1720,739.9,1720.2,740.2,1720.4z M740.3,1721.4c-0.3-0.3-0.7-0.5-1.1-0.5
			c-0.7,0-1.1,0.3-1.4,1c-0.1,0.3-0.2,0.8-0.2,1.3c0,0.6,0.1,1.1,0.4,1.5c0.3,0.3,0.6,0.5,1.1,0.5c0.7,0,1.2-0.3,1.5-0.9
			c0.2-0.4,0.2-0.8,0.2-1.2C740.8,1722.3,740.6,1721.8,740.3,1721.4z"/>
	</g>
	<g id="パス_1701-3" transform="translate(658 1584)">
		<path class="st3" d="M79.5,24.5h-79v-24h79V24.5z"/>
		<path class="st4" d="M1,1v23h78V1H1 M0,0h80v25H0V0z"/>
	</g>
	<g class="st2">
		<path class="st5" d="M669.6,1592.1h5.5v1h-4.4v2.4h3.9v0.9h-3.9v3.6h-1.1V1592.1z"/>
		<path class="st5" d="M677.1,1594.2v3.8c0,0.3,0,0.5,0.1,0.7c0.2,0.3,0.5,0.5,0.9,0.5c0.7,0,1.1-0.3,1.3-0.9
			c0.1-0.3,0.2-0.8,0.2-1.3v-2.8h1v5.8h-0.9l0-0.8c-0.1,0.2-0.3,0.4-0.5,0.6c-0.4,0.3-0.8,0.5-1.3,0.5c-0.8,0-1.4-0.3-1.6-0.8
			c-0.2-0.3-0.2-0.7-0.2-1.2v-3.9H677.1z"/>
		<path class="st5" d="M681.3,1601.5c0.4,0,0.7-0.1,0.8-0.1c0.1-0.1,0.1-0.3,0.1-0.6v-6.5h1v6.6c0,0.4-0.1,0.7-0.2,0.9
			c-0.2,0.4-0.7,0.5-1.3,0.5c0,0-0.1,0-0.1,0c-0.1,0-0.1,0-0.2,0V1601.5z M683.2,1593.2h-1v-1.1h1V1593.2z"/>
		<path class="st5" d="M684.6,1592.1h1v1.1h-1V1592.1z M684.6,1594.3h1v5.7h-1V1594.3z"/>
		<path class="st5" d="M691.3,1594.8c0.5,0.5,0.8,1.2,0.8,2.2c0,0.9-0.2,1.7-0.7,2.3c-0.4,0.6-1.1,0.9-2.1,0.9
			c-0.8,0-1.4-0.3-1.9-0.8c-0.5-0.5-0.7-1.3-0.7-2.2c0-1,0.2-1.7,0.7-2.3c0.5-0.6,1.1-0.9,2-0.9
			C690.1,1594.1,690.8,1594.3,691.3,1594.8z M690.7,1598.6c0.2-0.5,0.4-1,0.4-1.6c0-0.5-0.1-1-0.3-1.3c-0.3-0.5-0.7-0.8-1.4-0.8
			c-0.6,0-1,0.2-1.3,0.7c-0.3,0.5-0.4,1-0.4,1.6c0,0.6,0.1,1.1,0.4,1.5c0.3,0.4,0.7,0.6,1.3,0.6
			C690,1599.4,690.4,1599.1,690.7,1598.6z"/>
		<path class="st5" d="M693.2,1592.1h0.9v4.6l2.5-2.4h1.2l-2.2,2.1l2.3,3.6h-1.2l-1.8-2.9l-0.8,0.8v2.2h-0.9V1592.1z"/>
		<path class="st5" d="M701.8,1596.5c0.2,0,0.4-0.1,0.4-0.3c0-0.1,0.1-0.2,0.1-0.4c0-0.3-0.1-0.6-0.4-0.7c-0.2-0.1-0.6-0.2-1-0.2
			c-0.5,0-0.9,0.1-1.1,0.4c-0.1,0.2-0.2,0.4-0.2,0.7h-0.9c0-0.7,0.2-1.2,0.7-1.5s1-0.4,1.5-0.4c0.7,0,1.2,0.1,1.6,0.4
			c0.4,0.3,0.6,0.7,0.6,1.2v3.3c0,0.1,0,0.2,0.1,0.2c0,0.1,0.1,0.1,0.3,0.1c0,0,0.1,0,0.1,0c0.1,0,0.1,0,0.2,0v0.7
			c-0.2,0-0.3,0.1-0.3,0.1c-0.1,0-0.2,0-0.3,0c-0.3,0-0.6-0.1-0.7-0.4c-0.1-0.1-0.1-0.3-0.2-0.5c-0.2,0.3-0.5,0.5-0.8,0.7
			c-0.4,0.2-0.8,0.3-1.2,0.3c-0.5,0-1-0.2-1.3-0.5c-0.3-0.3-0.5-0.7-0.5-1.2c0-0.5,0.2-0.9,0.5-1.2s0.8-0.5,1.3-0.5L701.8,1596.5z
			 M699.8,1599.1c0.2,0.2,0.4,0.2,0.7,0.2c0.3,0,0.7-0.1,1-0.2c0.5-0.3,0.8-0.7,0.8-1.3v-0.8c-0.1,0.1-0.3,0.1-0.5,0.2
			c-0.2,0.1-0.4,0.1-0.5,0.1l-0.6,0.1c-0.4,0-0.6,0.1-0.8,0.2c-0.3,0.2-0.4,0.4-0.4,0.8C699.5,1598.8,699.6,1599,699.8,1599.1z"/>
		<path class="st5" d="M711.9,1597.6c0,0.7-0.1,1.2-0.3,1.6c-0.4,0.7-1.1,1-2.1,1c-0.6,0-1.1-0.2-1.5-0.5c-0.4-0.3-0.6-0.9-0.6-1.7
			v-0.6h1v0.6c0,0.4,0.1,0.8,0.3,1s0.5,0.3,0.9,0.3c0.6,0,0.9-0.2,1.1-0.6c0.1-0.2,0.2-0.7,0.2-1.4v-5.3h1.1V1597.6z"/>
		<path class="st5" d="M719.1,1592.7c0.5,0.5,0.8,1.1,0.9,1.8h-1c-0.1-0.5-0.3-0.9-0.7-1.2c-0.3-0.3-0.8-0.4-1.5-0.4
			c-0.8,0-1.4,0.3-1.8,0.8c-0.5,0.5-0.7,1.4-0.7,2.5c0,0.9,0.2,1.7,0.6,2.2s1.1,0.9,1.9,0.9c0.8,0,1.4-0.3,1.8-0.9
			c0.2-0.3,0.4-0.7,0.5-1.3h1c-0.1,0.8-0.4,1.5-0.9,2.1c-0.6,0.7-1.5,1-2.5,1c-0.9,0-1.7-0.3-2.3-0.8c-0.8-0.7-1.2-1.9-1.2-3.4
			c0-1.2,0.3-2.1,0.9-2.9c0.7-0.8,1.6-1.2,2.7-1.2C717.8,1591.9,718.5,1592.2,719.1,1592.7z"/>
		<path class="st5" d="M727.2,1592.1v0.9h-2.7v7h-1.1v-7h-2.7v-0.9H727.2z"/>
	</g>
</g>
</svg>
