<?xml version="1.0" encoding="utf-8"?>
<!-- Generator: Adobe Illustrator 28.1.0, SVG Export Plug-In . SVG Version: 6.00 Build 0)  -->
<svg version="1.1" id="レイヤー_1" xmlns="http://www.w3.org/2000/svg" xmlns:xlink="http://www.w3.org/1999/xlink" x="0px"
	 y="0px" viewBox="0 0 180 216.3" style="enable-background:new 0 0 180 216.3;" xml:space="preserve">
<style type="text/css">
	.st0{fill:#7F4F21;}
	.st1{fill:#2B2624;}
	.st2{enable-background:new    ;}
	.st3{fill:#FFFFFF;}
</style>
<g id="グループ_1386" transform="translate(-870 -1150.293)">
	<path id="パス_1706" class="st0" d="M960,1204.9h1v156.3h-1V1204.9z"/>
	<path id="パス_1751" class="st1" d="M902.5,1150.3h115c6.9,0,12.5,5.6,12.5,12.5s-5.6,12.5-12.5,12.5l0,0h-115
		c-6.9,0-12.5-5.6-12.5-12.5S895.6,1150.3,902.5,1150.3z"/>
	<g class="st2">
		<path class="st3" d="M915.2,1158.2h7v1.2h-5.6v3h4.9v1.2h-4.9v4.6h-1.4V1158.2z"/>
		<path class="st3" d="M924.2,1160.9h1.2v1.3c0.1-0.2,0.3-0.5,0.7-0.9c0.4-0.4,0.8-0.5,1.3-0.5c0,0,0.1,0,0.1,0s0.1,0,0.3,0v1.3
			c-0.1,0-0.1,0-0.2,0s-0.1,0-0.2,0c-0.6,0-1.1,0.2-1.4,0.6c-0.3,0.4-0.5,0.9-0.5,1.4v4.2h-1.2V1160.9z"/>
		<path class="st3" d="M934.8,1161.7c0.6,0.6,1,1.6,1,2.8c0,1.2-0.3,2.2-0.9,2.9c-0.6,0.8-1.5,1.2-2.7,1.2c-1,0-1.8-0.3-2.4-1
			c-0.6-0.7-0.9-1.6-0.9-2.7c0-1.2,0.3-2.2,0.9-2.9c0.6-0.7,1.5-1.1,2.5-1.1C933.4,1160.7,934.2,1161,934.8,1161.7z M934.1,1166.5
			c0.3-0.6,0.4-1.3,0.4-2.1c0-0.7-0.1-1.2-0.3-1.7c-0.3-0.7-0.9-1-1.8-1c-0.7,0-1.3,0.3-1.6,0.9s-0.5,1.3-0.5,2.1
			c0,0.8,0.2,1.4,0.5,1.9s0.9,0.8,1.6,0.8C933.2,1167.5,933.8,1167.2,934.1,1166.5z"/>
		<path class="st3" d="M938,1160.9h1.2v1c0.3-0.4,0.6-0.6,0.8-0.8c0.4-0.3,0.9-0.4,1.4-0.4c0.6,0,1.1,0.1,1.4,0.4
			c0.2,0.2,0.4,0.4,0.5,0.7c0.3-0.4,0.6-0.7,1-0.9c0.4-0.2,0.8-0.3,1.2-0.3c1,0,1.7,0.4,2,1.1c0.2,0.4,0.3,0.9,0.3,1.5v4.9h-1.3
			v-5.1c0-0.5-0.1-0.8-0.4-1s-0.5-0.3-0.9-0.3c-0.5,0-0.9,0.2-1.2,0.5s-0.5,0.9-0.5,1.6v4.3h-1.3v-4.8c0-0.5-0.1-0.9-0.2-1.1
			c-0.2-0.3-0.5-0.5-1-0.5c-0.5,0-0.9,0.2-1.3,0.5s-0.6,1-0.6,2v3.9H938V1160.9z"/>
		<path class="st3" d="M955.1,1158.2h1.6l5,8.1v-8.1h1.3v10h-1.5l-5.1-8.1v8.1h-1.3V1158.2z"/>
		<path class="st3" d="M969.7,1163.8c0.3,0,0.5-0.2,0.6-0.4c0.1-0.1,0.1-0.3,0.1-0.5c0-0.4-0.1-0.7-0.4-0.9
			c-0.3-0.2-0.7-0.3-1.3-0.3c-0.6,0-1.1,0.2-1.4,0.5c-0.2,0.2-0.2,0.5-0.3,0.9h-1.1c0-0.9,0.3-1.5,0.9-1.9c0.6-0.4,1.2-0.5,2-0.5
			c0.9,0,1.6,0.2,2.1,0.5c0.5,0.3,0.8,0.8,0.8,1.5v4.2c0,0.1,0,0.2,0.1,0.3c0.1,0.1,0.2,0.1,0.3,0.1c0.1,0,0.1,0,0.2,0
			c0.1,0,0.1,0,0.2,0v0.9c-0.2,0.1-0.3,0.1-0.4,0.1s-0.2,0-0.4,0c-0.4,0-0.7-0.2-0.9-0.5c-0.1-0.2-0.2-0.4-0.2-0.7
			c-0.2,0.3-0.6,0.6-1.1,0.9s-1,0.4-1.6,0.4c-0.7,0-1.2-0.2-1.7-0.6c-0.4-0.4-0.6-0.9-0.6-1.5c0-0.7,0.2-1.2,0.6-1.6s1-0.6,1.7-0.7
			L969.7,1163.8z M967.1,1167.2c0.3,0.2,0.6,0.3,0.9,0.3c0.4,0,0.9-0.1,1.3-0.3c0.7-0.3,1-0.9,1-1.6v-1c-0.2,0.1-0.3,0.2-0.6,0.2
			c-0.2,0.1-0.5,0.1-0.7,0.1l-0.7,0.1c-0.4,0.1-0.8,0.2-1,0.3c-0.4,0.2-0.6,0.6-0.6,1C966.7,1166.7,966.8,1167,967.1,1167.2z"/>
		<path class="st3" d="M978.3,1161.2c0.2,0.2,0.5,0.4,0.7,0.7v-0.9h1.1v6.7c0,0.9-0.1,1.7-0.4,2.2c-0.5,1-1.5,1.5-2.9,1.5
			c-0.8,0-1.4-0.2-2-0.5c-0.5-0.4-0.8-0.9-0.9-1.7h1.3c0.1,0.3,0.2,0.6,0.4,0.8c0.3,0.3,0.7,0.4,1.3,0.4c0.9,0,1.6-0.3,1.8-1
			c0.2-0.4,0.3-1.1,0.2-2.1c-0.2,0.4-0.5,0.7-0.9,0.8c-0.3,0.2-0.8,0.3-1.4,0.3c-0.8,0-1.5-0.3-2.1-0.8c-0.6-0.6-0.9-1.5-0.9-2.8
			c0-1.2,0.3-2.2,0.9-2.9c0.6-0.7,1.3-1,2.2-1C977.4,1160.8,977.9,1161,978.3,1161.2z M978.5,1162.6c-0.4-0.4-0.8-0.7-1.4-0.7
			c-0.9,0-1.5,0.4-1.8,1.2c-0.2,0.4-0.3,1-0.3,1.7c0,0.8,0.2,1.5,0.5,1.9c0.3,0.4,0.8,0.6,1.3,0.6c0.9,0,1.5-0.4,1.9-1.2
			c0.2-0.5,0.3-1,0.3-1.6C979,1163.7,978.8,1163,978.5,1162.6z"/>
		<path class="st3" d="M988,1161.7c0.6,0.6,1,1.6,1,2.8c0,1.2-0.3,2.2-0.9,2.9c-0.6,0.8-1.5,1.2-2.7,1.2c-1,0-1.8-0.3-2.4-1
			c-0.6-0.7-0.9-1.6-0.9-2.7c0-1.2,0.3-2.2,0.9-2.9c0.6-0.7,1.5-1.1,2.5-1.1C986.6,1160.7,987.4,1161,988,1161.7z M987.3,1166.5
			c0.3-0.6,0.4-1.3,0.4-2.1c0-0.7-0.1-1.2-0.3-1.7c-0.3-0.7-0.9-1-1.8-1c-0.7,0-1.3,0.3-1.6,0.9s-0.5,1.3-0.5,2.1
			c0,0.8,0.2,1.4,0.5,1.9s0.9,0.8,1.6,0.8C986.4,1167.5,987,1167.2,987.3,1166.5z"/>
		<path class="st3" d="M995.8,1160.9h1.4c-0.2,0.5-0.6,1.5-1.2,3.2c-0.4,1.3-0.8,2.3-1.1,3.1c-0.7,1.9-1.2,3-1.5,3.4
			c-0.3,0.4-0.8,0.6-1.5,0.6c-0.2,0-0.3,0-0.4,0s-0.2,0-0.3-0.1v-1.1c0.2,0.1,0.4,0.1,0.5,0.1s0.2,0,0.3,0c0.2,0,0.4,0,0.5-0.1
			c0.1-0.1,0.2-0.2,0.3-0.3c0,0,0.1-0.2,0.2-0.6s0.2-0.6,0.3-0.8l-2.7-7.5h1.4l2,6L995.8,1160.9z"/>
		<path class="st3" d="M1002.8,1163.8c0.3,0,0.5-0.2,0.6-0.4c0.1-0.1,0.1-0.3,0.1-0.5c0-0.4-0.1-0.7-0.4-0.9
			c-0.3-0.2-0.7-0.3-1.3-0.3c-0.6,0-1.1,0.2-1.4,0.5c-0.2,0.2-0.2,0.5-0.3,0.9H999c0-0.9,0.3-1.5,0.9-1.9c0.6-0.4,1.2-0.5,2-0.5
			c0.9,0,1.6,0.2,2.1,0.5c0.5,0.3,0.8,0.8,0.8,1.5v4.2c0,0.1,0,0.2,0.1,0.3c0.1,0.1,0.2,0.1,0.3,0.1c0.1,0,0.1,0,0.2,0
			c0.1,0,0.1,0,0.2,0v0.9c-0.2,0.1-0.3,0.1-0.4,0.1s-0.2,0-0.4,0c-0.4,0-0.7-0.2-0.9-0.5c-0.1-0.2-0.2-0.4-0.2-0.7
			c-0.2,0.3-0.6,0.6-1.1,0.9s-1,0.4-1.6,0.4c-0.7,0-1.2-0.2-1.7-0.6c-0.4-0.4-0.6-0.9-0.6-1.5c0-0.7,0.2-1.2,0.6-1.6s1-0.6,1.7-0.7
			L1002.8,1163.8z M1000.3,1167.2c0.3,0.2,0.6,0.3,0.9,0.3c0.4,0,0.9-0.1,1.3-0.3c0.7-0.3,1-0.9,1-1.6v-1c-0.2,0.1-0.3,0.2-0.6,0.2
			c-0.2,0.1-0.5,0.1-0.7,0.1l-0.7,0.1c-0.4,0.1-0.8,0.2-1,0.3c-0.4,0.2-0.6,0.6-0.6,1C999.9,1166.7,1000,1167,1000.3,1167.2z"/>
	</g>
	<g id="パス_1778" transform="translate(870 1196.563)">
		<path class="st3" d="M179.5,43.5H0.5v-43h179V43.5z"/>
		<path class="st0" d="M1,1v42h178V1H1 M0,0h180v44H0V0z"/>
	</g>
	<g id="パス_1894" transform="translate(870 1266.563)">
		<path class="st3" d="M179.5,43.5H0.5v-43h179V43.5z"/>
		<path class="st0" d="M1,1v42h178V1H1 M0,0h180v44H0V0z"/>
	</g>
	<g class="st2">
		<path class="st1" d="M916.8,1208.8v1h-2.9v7.6h-1.2v-7.6h-2.9v-1H916.8z"/>
		<path class="st1" d="M919.8,1213.6c0.2,0,0.4-0.1,0.5-0.3c0-0.1,0.1-0.2,0.1-0.4c0-0.4-0.1-0.6-0.4-0.8c-0.3-0.2-0.6-0.2-1.1-0.2
			c-0.5,0-0.9,0.1-1.2,0.4c-0.1,0.2-0.2,0.4-0.3,0.7h-1c0-0.8,0.3-1.3,0.8-1.6s1-0.5,1.7-0.5c0.7,0,1.3,0.1,1.8,0.4
			c0.5,0.3,0.7,0.7,0.7,1.3v3.6c0,0.1,0,0.2,0.1,0.3s0.1,0.1,0.3,0.1c0,0,0.1,0,0.2,0s0.1,0,0.2,0v0.8c-0.2,0-0.3,0.1-0.4,0.1
			s-0.2,0-0.4,0c-0.4,0-0.6-0.1-0.8-0.4c-0.1-0.1-0.1-0.3-0.2-0.6c-0.2,0.3-0.5,0.5-0.9,0.7s-0.8,0.3-1.3,0.3
			c-0.6,0-1.1-0.2-1.4-0.5c-0.4-0.4-0.6-0.8-0.6-1.3c0-0.6,0.2-1,0.5-1.4c0.4-0.3,0.8-0.5,1.4-0.6L919.8,1213.6z M917.6,1216.5
			c0.2,0.2,0.5,0.3,0.8,0.3c0.4,0,0.7-0.1,1.1-0.3c0.6-0.3,0.9-0.8,0.9-1.4v-0.8c-0.1,0.1-0.3,0.2-0.5,0.2s-0.4,0.1-0.6,0.1
			l-0.6,0.1c-0.4,0.1-0.7,0.1-0.9,0.2c-0.3,0.2-0.5,0.5-0.5,0.9C917.2,1216.1,917.3,1216.3,917.6,1216.5z"/>
		<path class="st1" d="M923.1,1208.8h1v5l2.7-2.7h1.3l-2.4,2.3l2.5,3.9h-1.3l-2-3.2l-0.9,0.8v2.4h-1V1208.8z"/>
		<path class="st1" d="M933,1211.3c0.4,0.2,0.7,0.5,0.9,0.8c0.2,0.3,0.3,0.7,0.4,1.1c0.1,0.3,0.1,0.8,0.1,1.4h-4.6
			c0,0.6,0.2,1.2,0.4,1.5c0.3,0.4,0.7,0.6,1.3,0.6c0.5,0,1-0.2,1.3-0.5c0.2-0.2,0.3-0.5,0.4-0.7h1c0,0.2-0.1,0.5-0.3,0.8
			s-0.3,0.5-0.5,0.7c-0.3,0.3-0.7,0.5-1.2,0.6c-0.3,0.1-0.5,0.1-0.9,0.1c-0.8,0-1.4-0.3-2-0.9c-0.5-0.6-0.8-1.4-0.8-2.4
			c0-1,0.3-1.8,0.8-2.5c0.5-0.6,1.3-0.9,2.1-0.9C932.1,1211,932.6,1211.1,933,1211.3z M933.3,1213.8c0-0.5-0.1-0.8-0.3-1.1
			c-0.3-0.5-0.8-0.8-1.4-0.8c-0.5,0-0.9,0.2-1.2,0.5s-0.5,0.8-0.5,1.3H933.3z"/>
		<path class="st1" d="M943.5,1214.9c0,0.7-0.1,1.3-0.3,1.7c-0.4,0.7-1.2,1.1-2.3,1.1c-0.6,0-1.2-0.2-1.7-0.5s-0.7-1-0.7-1.9v-0.6
			h1.1v0.6c0,0.5,0.1,0.8,0.3,1.1s0.5,0.4,1,0.4c0.6,0,1-0.2,1.2-0.6c0.1-0.3,0.2-0.8,0.2-1.5v-5.7h1.2V1214.9z"/>
		<path class="st1" d="M945.4,1208.8h3.9c0.6,0,1.2,0.1,1.6,0.3c0.8,0.4,1.2,1,1.2,2c0,0.5-0.1,0.9-0.3,1.3s-0.5,0.6-0.9,0.8
			c0.3,0.1,0.6,0.3,0.8,0.5s0.3,0.6,0.3,1.1l0,1.2c0,0.3,0,0.6,0.1,0.7c0.1,0.3,0.2,0.4,0.4,0.5v0.2H951c0-0.1-0.1-0.2-0.1-0.3
			s0-0.3-0.1-0.7l-0.1-1.4c0-0.6-0.2-0.9-0.6-1.1c-0.2-0.1-0.6-0.2-1-0.2h-2.6v3.7h-1.2V1208.8z M949.2,1212.8c0.5,0,1-0.1,1.3-0.3
			s0.5-0.6,0.5-1.2c0-0.6-0.2-1-0.6-1.3c-0.2-0.1-0.5-0.2-0.9-0.2h-2.8v2.9H949.2z"/>
		<path class="st1" d="M963.3,1209.5c0.6,0.6,0.9,1.2,1,2h-1.1c-0.1-0.6-0.4-1-0.8-1.3s-0.9-0.5-1.6-0.5c-0.8,0-1.5,0.3-2,0.9
			c-0.5,0.6-0.8,1.5-0.8,2.7c0,1,0.2,1.8,0.7,2.5c0.5,0.6,1.2,0.9,2.1,0.9c0.8,0,1.5-0.3,1.9-1c0.2-0.3,0.4-0.8,0.5-1.4h1.1
			c-0.1,0.9-0.4,1.7-1,2.3c-0.7,0.7-1.6,1.1-2.7,1.1c-1,0-1.8-0.3-2.5-0.9c-0.9-0.8-1.3-2-1.3-3.7c0-1.3,0.3-2.3,1-3.1
			c0.7-0.9,1.7-1.3,3-1.3C961.9,1208.6,962.7,1208.9,963.3,1209.5z"/>
		<path class="st1" d="M965.8,1208.8h1.1v3.2c0.2-0.3,0.5-0.5,0.7-0.7c0.3-0.2,0.8-0.3,1.3-0.3c0.9,0,1.5,0.3,1.9,1
			c0.2,0.3,0.3,0.8,0.3,1.4v4h-1.1v-4c0-0.5-0.1-0.8-0.2-1c-0.2-0.3-0.6-0.5-1.1-0.5c-0.4,0-0.8,0.2-1.2,0.5s-0.5,0.9-0.5,1.7v3.3
			h-1.1V1208.8z"/>
		<path class="st1" d="M973.5,1211.2v4.2c0,0.3,0,0.6,0.1,0.8c0.2,0.4,0.5,0.6,1,0.6c0.7,0,1.2-0.3,1.5-1c0.1-0.4,0.2-0.8,0.2-1.4
			v-3.1h1.1v6.3h-1l0-0.9c-0.1,0.2-0.3,0.4-0.5,0.6c-0.4,0.3-0.9,0.5-1.4,0.5c-0.9,0-1.5-0.3-1.8-0.9c-0.2-0.3-0.3-0.7-0.3-1.3v-4.3
			H973.5z"/>
		<path class="st1" d="M983.7,1211.8c0.6,0.5,0.8,1.3,0.8,2.4c0,1-0.2,1.8-0.7,2.5c-0.5,0.7-1.2,1-2.3,1c-0.9,0-1.5-0.3-2-0.9
			c-0.5-0.6-0.8-1.4-0.8-2.4c0-1.1,0.3-1.9,0.8-2.5c0.5-0.6,1.2-0.9,2.1-0.9C982.4,1211,983.1,1211.3,983.7,1211.8z M983,1216
			c0.3-0.5,0.4-1.1,0.4-1.8c0-0.6-0.1-1.1-0.3-1.4c-0.3-0.6-0.8-0.9-1.5-0.9c-0.6,0-1.1,0.2-1.4,0.7c-0.3,0.5-0.4,1.1-0.4,1.8
			c0,0.7,0.1,1.2,0.4,1.7c0.3,0.4,0.7,0.7,1.4,0.7C982.3,1216.8,982.7,1216.5,983,1216z"/>
		<path class="st1" d="M989.1,1208.8h1.1v8.6h-1.1V1208.8z"/>
		<path class="st1" d="M991.8,1208.8h1.1v1.2h-1.1V1208.8z M991.8,1211.2h1.1v6.2h-1.1V1211.2z"/>
		<path class="st1" d="M994.5,1211.2h1v0.9c0.3-0.4,0.6-0.6,0.9-0.8s0.7-0.2,1.1-0.2c0.9,0,1.5,0.3,1.8,0.9c0.2,0.3,0.3,0.8,0.3,1.5
			v4h-1.1v-4c0-0.4-0.1-0.7-0.2-0.9c-0.2-0.4-0.5-0.6-1-0.6c-0.2,0-0.5,0-0.6,0.1c-0.3,0.1-0.5,0.3-0.8,0.5
			c-0.2,0.2-0.3,0.4-0.3,0.6s-0.1,0.5-0.1,0.9v3.3h-1.1V1211.2z"/>
		<path class="st1" d="M1005,1211.3c0.4,0.2,0.7,0.5,0.9,0.8c0.2,0.3,0.3,0.7,0.4,1.1c0.1,0.3,0.1,0.8,0.1,1.4h-4.6
			c0,0.6,0.2,1.2,0.4,1.5c0.3,0.4,0.7,0.6,1.3,0.6c0.5,0,1-0.2,1.3-0.5c0.2-0.2,0.3-0.5,0.4-0.7h1c0,0.2-0.1,0.5-0.3,0.8
			s-0.3,0.5-0.5,0.7c-0.3,0.3-0.7,0.5-1.2,0.6c-0.3,0.1-0.5,0.1-0.9,0.1c-0.8,0-1.4-0.3-2-0.9s-0.8-1.4-0.8-2.4c0-1,0.3-1.8,0.8-2.5
			s1.3-0.9,2.1-0.9C1004.2,1211,1004.6,1211.1,1005,1211.3z M1005.4,1213.8c0-0.5-0.1-0.8-0.3-1.1c-0.3-0.5-0.8-0.8-1.4-0.8
			c-0.5,0-0.9,0.2-1.2,0.5s-0.5,0.8-0.5,1.3H1005.4z"/>
	</g>
	<g class="st2">
		<path class="st1" d="M907.6,1223.2c0.2-0.4,0.7-0.5,1.4-0.5c0.1,0,0.1,0,0.2,0s0.2,0,0.2,0v1c-0.1,0-0.2,0-0.2,0c0,0-0.1,0-0.1,0
			c-0.3,0-0.5,0.1-0.6,0.2s-0.1,0.6-0.1,1.3h1.1v0.8h-1.1v5.4h-1v-5.4h-0.9v-0.8h0.9v-1C907.4,1223.8,907.4,1223.5,907.6,1223.2z"/>
		<path class="st1" d="M910.4,1225.2h1v1.1c0.1-0.2,0.3-0.5,0.6-0.8s0.7-0.5,1.1-0.5c0,0,0.1,0,0.1,0s0.1,0,0.2,0v1.1
			c-0.1,0-0.1,0-0.2,0s-0.1,0-0.2,0c-0.5,0-0.9,0.2-1.2,0.5s-0.4,0.7-0.4,1.2v3.6h-1.1V1225.2z"/>
		<path class="st1" d="M919,1225.8c0.6,0.5,0.8,1.3,0.8,2.4c0,1-0.2,1.8-0.7,2.5c-0.5,0.7-1.2,1-2.3,1c-0.9,0-1.5-0.3-2-0.9
			c-0.5-0.6-0.8-1.4-0.8-2.4c0-1.1,0.3-1.9,0.8-2.5c0.5-0.6,1.2-0.9,2.1-0.9C917.7,1225,918.4,1225.3,919,1225.8z M918.3,1230
			c0.3-0.5,0.4-1.1,0.4-1.8c0-0.6-0.1-1.1-0.3-1.4c-0.3-0.6-0.8-0.9-1.5-0.9c-0.6,0-1.1,0.2-1.4,0.7c-0.3,0.5-0.4,1.1-0.4,1.8
			c0,0.7,0.1,1.2,0.4,1.7c0.3,0.4,0.7,0.7,1.4,0.7C917.6,1230.8,918,1230.5,918.3,1230z"/>
		<path class="st1" d="M921.1,1225.2h1v0.9c0.2-0.3,0.5-0.5,0.7-0.7c0.3-0.2,0.7-0.4,1.2-0.4c0.5,0,0.9,0.1,1.2,0.4
			c0.2,0.1,0.3,0.3,0.5,0.6c0.2-0.3,0.5-0.6,0.8-0.7s0.7-0.2,1.1-0.2c0.8,0,1.4,0.3,1.7,0.9c0.2,0.3,0.2,0.8,0.2,1.3v4.2h-1.1v-4.4
			c0-0.4-0.1-0.7-0.3-0.9s-0.5-0.2-0.8-0.2c-0.4,0-0.8,0.1-1.1,0.4s-0.4,0.7-0.4,1.4v3.7h-1.1v-4.1c0-0.4-0.1-0.7-0.2-0.9
			c-0.2-0.3-0.5-0.4-0.9-0.4c-0.4,0-0.8,0.2-1.1,0.5s-0.5,0.9-0.5,1.7v3.3h-1.1V1225.2z"/>
		<path class="st1" d="M934.6,1222.8h1.4l4.3,7v-7h1.1v8.6H940l-4.4-6.9v6.9h-1.1V1222.8z"/>
		<path class="st1" d="M946.4,1227.6c0.2,0,0.4-0.1,0.5-0.3c0-0.1,0.1-0.2,0.1-0.4c0-0.4-0.1-0.6-0.4-0.8c-0.3-0.2-0.6-0.2-1.1-0.2
			c-0.5,0-0.9,0.1-1.2,0.4c-0.1,0.2-0.2,0.4-0.3,0.7h-1c0-0.8,0.3-1.3,0.8-1.6s1-0.5,1.7-0.5c0.7,0,1.3,0.1,1.8,0.4
			c0.5,0.3,0.7,0.7,0.7,1.3v3.6c0,0.1,0,0.2,0.1,0.3s0.1,0.1,0.3,0.1c0,0,0.1,0,0.2,0s0.1,0,0.2,0v0.8c-0.2,0-0.3,0.1-0.4,0.1
			s-0.2,0-0.4,0c-0.4,0-0.6-0.1-0.8-0.4c-0.1-0.1-0.1-0.3-0.2-0.6c-0.2,0.3-0.5,0.5-0.9,0.7s-0.8,0.3-1.3,0.3
			c-0.6,0-1.1-0.2-1.4-0.5c-0.4-0.4-0.6-0.8-0.6-1.3c0-0.6,0.2-1,0.5-1.4c0.4-0.3,0.8-0.5,1.4-0.6L946.4,1227.6z M944.2,1230.5
			c0.2,0.2,0.5,0.3,0.8,0.3c0.4,0,0.7-0.1,1.1-0.3c0.6-0.3,0.9-0.8,0.9-1.4v-0.8c-0.1,0.1-0.3,0.2-0.5,0.2s-0.4,0.1-0.6,0.1
			l-0.6,0.1c-0.4,0.1-0.7,0.1-0.9,0.2c-0.3,0.2-0.5,0.5-0.5,0.9C943.9,1230.1,944,1230.3,944.2,1230.5z"/>
		<path class="st1" d="M953.2,1225.4c0.2,0.1,0.4,0.3,0.6,0.6v-0.8h1v5.7c0,0.8-0.1,1.4-0.4,1.9c-0.4,0.9-1.3,1.3-2.5,1.3
			c-0.7,0-1.2-0.2-1.7-0.5s-0.7-0.8-0.8-1.4h1.1c0.1,0.3,0.2,0.5,0.3,0.7c0.2,0.2,0.6,0.4,1.1,0.4c0.8,0,1.3-0.3,1.6-0.9
			c0.1-0.3,0.2-0.9,0.2-1.8c-0.2,0.3-0.5,0.6-0.8,0.7c-0.3,0.2-0.7,0.2-1.2,0.2c-0.7,0-1.3-0.2-1.8-0.7s-0.8-1.3-0.8-2.4
			c0-1.1,0.3-1.9,0.8-2.5s1.1-0.9,1.9-0.9C952.5,1225.1,952.9,1225.2,953.2,1225.4z M953.4,1226.5c-0.3-0.4-0.7-0.6-1.2-0.6
			c-0.7,0-1.2,0.3-1.5,1c-0.1,0.4-0.2,0.9-0.2,1.5c0,0.7,0.1,1.2,0.4,1.6c0.3,0.4,0.7,0.6,1.2,0.6c0.8,0,1.3-0.3,1.6-1
			c0.2-0.4,0.3-0.8,0.3-1.4C953.9,1227.5,953.7,1226.9,953.4,1226.5z"/>
		<path class="st1" d="M961,1225.8c0.6,0.5,0.8,1.3,0.8,2.4c0,1-0.2,1.8-0.7,2.5c-0.5,0.7-1.2,1-2.3,1c-0.9,0-1.5-0.3-2-0.9
			c-0.5-0.6-0.8-1.4-0.8-2.4c0-1.1,0.3-1.9,0.8-2.5c0.5-0.6,1.2-0.9,2.1-0.9C959.7,1225,960.4,1225.3,961,1225.8z M960.3,1230
			c0.3-0.5,0.4-1.1,0.4-1.8c0-0.6-0.1-1.1-0.3-1.4c-0.3-0.6-0.8-0.9-1.5-0.9c-0.6,0-1.1,0.2-1.4,0.7c-0.3,0.5-0.4,1.1-0.4,1.8
			c0,0.7,0.1,1.2,0.4,1.7c0.3,0.4,0.7,0.7,1.4,0.7C959.6,1230.8,960.1,1230.5,960.3,1230z"/>
		<path class="st1" d="M967,1225.2h1.2c-0.1,0.4-0.5,1.3-1,2.8c-0.4,1.1-0.7,2-1,2.6c-0.6,1.6-1,2.6-1.3,2.9
			c-0.2,0.4-0.7,0.5-1.3,0.5c-0.1,0-0.3,0-0.3,0s-0.2,0-0.3-0.1v-1c0.2,0.1,0.3,0.1,0.4,0.1c0.1,0,0.2,0,0.2,0c0.2,0,0.3,0,0.4-0.1
			c0.1-0.1,0.2-0.1,0.2-0.2c0,0,0.1-0.2,0.2-0.5c0.1-0.3,0.2-0.5,0.3-0.6l-2.3-6.5h1.2l1.7,5.1L967,1225.2z"/>
		<path class="st1" d="M972.5,1227.6c0.2,0,0.4-0.1,0.5-0.3c0-0.1,0.1-0.2,0.1-0.4c0-0.4-0.1-0.6-0.4-0.8s-0.6-0.2-1.1-0.2
			c-0.5,0-0.9,0.1-1.2,0.4c-0.1,0.2-0.2,0.4-0.3,0.7h-1c0-0.8,0.3-1.3,0.8-1.6c0.5-0.3,1-0.5,1.7-0.5c0.7,0,1.3,0.1,1.8,0.4
			c0.5,0.3,0.7,0.7,0.7,1.3v3.6c0,0.1,0,0.2,0.1,0.3s0.1,0.1,0.3,0.1c0,0,0.1,0,0.2,0s0.1,0,0.2,0v0.8c-0.2,0-0.3,0.1-0.4,0.1
			s-0.2,0-0.4,0c-0.4,0-0.6-0.1-0.8-0.4c-0.1-0.1-0.1-0.3-0.2-0.6c-0.2,0.3-0.5,0.5-0.9,0.7s-0.8,0.3-1.3,0.3
			c-0.6,0-1.1-0.2-1.4-0.5c-0.4-0.4-0.6-0.8-0.6-1.3c0-0.6,0.2-1,0.5-1.4c0.4-0.3,0.8-0.5,1.4-0.6L972.5,1227.6z M970.2,1230.5
			c0.2,0.2,0.5,0.3,0.8,0.3c0.4,0,0.7-0.1,1.1-0.3c0.6-0.3,0.9-0.8,0.9-1.4v-0.8c-0.1,0.1-0.3,0.2-0.5,0.2c-0.2,0.1-0.4,0.1-0.6,0.1
			l-0.6,0.1c-0.4,0.1-0.7,0.1-0.9,0.2c-0.3,0.2-0.5,0.5-0.5,0.9C969.9,1230.1,970,1230.3,970.2,1230.5z"/>
		<path class="st1" d="M979.7,1229.5c0,0.4,0.1,0.6,0.3,0.8c0.3,0.3,0.7,0.5,1.4,0.5c0.4,0,0.7-0.1,1.1-0.3c0.3-0.2,0.5-0.4,0.5-0.8
			c0-0.3-0.1-0.5-0.4-0.6c-0.2-0.1-0.5-0.2-0.9-0.3l-0.9-0.2c-0.5-0.1-0.9-0.3-1.2-0.4c-0.5-0.3-0.7-0.7-0.7-1.2
			c0-0.6,0.2-1.1,0.7-1.4s1-0.6,1.7-0.6c1,0,1.6,0.3,2.1,0.8c0.3,0.4,0.4,0.7,0.4,1.1h-1c0-0.2-0.1-0.5-0.3-0.6
			c-0.2-0.3-0.7-0.4-1.3-0.4c-0.4,0-0.7,0.1-0.9,0.2c-0.2,0.2-0.3,0.4-0.3,0.6c0,0.3,0.1,0.5,0.4,0.7c0.2,0.1,0.4,0.2,0.7,0.3
			l0.7,0.2c0.8,0.2,1.3,0.4,1.6,0.5c0.4,0.3,0.6,0.7,0.6,1.3c0,0.6-0.2,1-0.6,1.4s-1.1,0.6-2,0.6c-0.9,0-1.6-0.2-2-0.6
			s-0.6-0.9-0.6-1.6H979.7z"/>
		<path class="st1" d="M985.3,1223.4h1.1v1.8h1v0.9h-1v4.1c0,0.2,0.1,0.4,0.2,0.4c0.1,0,0.2,0.1,0.4,0.1c0.1,0,0.1,0,0.2,0
			s0.1,0,0.2,0v0.8c-0.1,0-0.2,0.1-0.4,0.1s-0.3,0-0.4,0c-0.5,0-0.8-0.1-1-0.4s-0.3-0.6-0.3-1v-4.2h-0.8v-0.9h0.8V1223.4z"/>
		<path class="st1" d="M991.8,1227.6c0.2,0,0.4-0.1,0.5-0.3c0-0.1,0.1-0.2,0.1-0.4c0-0.4-0.1-0.6-0.4-0.8s-0.6-0.2-1.1-0.2
			c-0.5,0-0.9,0.1-1.2,0.4c-0.1,0.2-0.2,0.4-0.3,0.7h-1c0-0.8,0.3-1.3,0.8-1.6c0.5-0.3,1-0.5,1.7-0.5c0.7,0,1.3,0.1,1.8,0.4
			c0.5,0.3,0.7,0.7,0.7,1.3v3.6c0,0.1,0,0.2,0.1,0.3s0.1,0.1,0.3,0.1c0,0,0.1,0,0.2,0s0.1,0,0.2,0v0.8c-0.2,0-0.3,0.1-0.4,0.1
			s-0.2,0-0.4,0c-0.4,0-0.6-0.1-0.8-0.4c-0.1-0.1-0.1-0.3-0.2-0.6c-0.2,0.3-0.5,0.5-0.9,0.7s-0.8,0.3-1.3,0.3
			c-0.6,0-1.1-0.2-1.4-0.5c-0.4-0.4-0.6-0.8-0.6-1.3c0-0.6,0.2-1,0.5-1.4c0.4-0.3,0.8-0.5,1.4-0.6L991.8,1227.6z M989.6,1230.5
			c0.2,0.2,0.5,0.3,0.8,0.3c0.4,0,0.7-0.1,1.1-0.3c0.6-0.3,0.9-0.8,0.9-1.4v-0.8c-0.1,0.1-0.3,0.2-0.5,0.2c-0.2,0.1-0.4,0.1-0.6,0.1
			l-0.6,0.1c-0.4,0.1-0.7,0.1-0.9,0.2c-0.3,0.2-0.5,0.5-0.5,0.9C989.3,1230.1,989.4,1230.3,989.6,1230.5z"/>
		<path class="st1" d="M995.3,1223.4h1.1v1.8h1v0.9h-1v4.1c0,0.2,0.1,0.4,0.2,0.4c0.1,0,0.2,0.1,0.4,0.1c0.1,0,0.1,0,0.2,0
			s0.1,0,0.2,0v0.8c-0.1,0-0.2,0.1-0.4,0.1s-0.3,0-0.4,0c-0.5,0-0.8-0.1-1-0.4s-0.3-0.6-0.3-1v-4.2h-0.8v-0.9h0.8V1223.4z"/>
		<path class="st1" d="M998.5,1222.8h1.1v1.2h-1.1V1222.8z M998.5,1225.2h1.1v6.2h-1.1V1225.2z"/>
		<path class="st1" d="M1005.7,1225.8c0.6,0.5,0.8,1.3,0.8,2.4c0,1-0.2,1.8-0.7,2.5c-0.5,0.7-1.2,1-2.3,1c-0.9,0-1.5-0.3-2-0.9
			c-0.5-0.6-0.8-1.4-0.8-2.4c0-1.1,0.3-1.9,0.8-2.5c0.5-0.6,1.2-0.9,2.1-0.9C1004.4,1225,1005.1,1225.3,1005.7,1225.8z M1005,1230
			c0.3-0.5,0.4-1.1,0.4-1.8c0-0.6-0.1-1.1-0.3-1.4c-0.3-0.6-0.8-0.9-1.5-0.9c-0.6,0-1.1,0.2-1.4,0.7c-0.3,0.5-0.4,1.1-0.4,1.8
			c0,0.7,0.1,1.2,0.4,1.7c0.3,0.4,0.7,0.7,1.4,0.7C1004.3,1230.8,1004.8,1230.5,1005,1230z"/>
		<path class="st1" d="M1007.8,1225.2h1v0.9c0.3-0.4,0.6-0.6,0.9-0.8s0.7-0.2,1.1-0.2c0.9,0,1.5,0.3,1.8,0.9
			c0.2,0.3,0.3,0.8,0.3,1.5v4h-1.1v-4c0-0.4-0.1-0.7-0.2-0.9c-0.2-0.4-0.5-0.6-1-0.6c-0.2,0-0.5,0-0.6,0.1c-0.3,0.1-0.5,0.3-0.8,0.5
			c-0.2,0.2-0.3,0.4-0.3,0.6s-0.1,0.5-0.1,0.9v3.3h-1.1V1225.2z"/>
	</g>
	<g class="st2">
		<path class="st1" d="M894.4,1278.8h1.3l3.1,8.6h-1.3l-0.9-2.6h-3.4l-0.9,2.6h-1.2L894.4,1278.8z M896.3,1283.9l-1.3-3.8l-1.4,3.8
			H896.3z"/>
		<path class="st1" d="M899.8,1281.2h1v1.1c0.1-0.2,0.3-0.5,0.6-0.8s0.7-0.5,1.1-0.5c0,0,0.1,0,0.1,0s0.1,0,0.2,0v1.1
			c-0.1,0-0.1,0-0.2,0s-0.1,0-0.2,0c-0.5,0-0.9,0.2-1.2,0.5s-0.4,0.7-0.4,1.2v3.6h-1.1V1281.2z"/>
		<path class="st1" d="M903.8,1281.2h1v1.1c0.1-0.2,0.3-0.5,0.6-0.8s0.7-0.5,1.1-0.5c0,0,0.1,0,0.1,0s0.1,0,0.2,0v1.1
			c-0.1,0-0.1,0-0.2,0s-0.1,0-0.2,0c-0.5,0-0.9,0.2-1.2,0.5s-0.4,0.7-0.4,1.2v3.6h-1.1V1281.2z"/>
		<path class="st1" d="M907.7,1278.8h1.1v1.2h-1.1V1278.8z M907.7,1281.2h1.1v6.2h-1.1V1281.2z"/>
		<path class="st1" d="M910.9,1281.2l1.7,5.1l1.7-5.1h1.2l-2.4,6.3H912l-2.3-6.3H910.9z"/>
		<path class="st1" d="M919.8,1283.6c0.2,0,0.4-0.1,0.5-0.3c0-0.1,0.1-0.2,0.1-0.4c0-0.4-0.1-0.6-0.4-0.8c-0.3-0.2-0.6-0.2-1.1-0.2
			c-0.5,0-0.9,0.1-1.2,0.4c-0.1,0.2-0.2,0.4-0.3,0.7h-1c0-0.8,0.3-1.3,0.8-1.6s1-0.5,1.7-0.5c0.7,0,1.3,0.1,1.8,0.4
			c0.5,0.3,0.7,0.7,0.7,1.3v3.6c0,0.1,0,0.2,0.1,0.3s0.1,0.1,0.3,0.1c0,0,0.1,0,0.2,0s0.1,0,0.2,0v0.8c-0.2,0-0.3,0.1-0.4,0.1
			s-0.2,0-0.4,0c-0.4,0-0.6-0.1-0.8-0.4c-0.1-0.1-0.1-0.3-0.2-0.6c-0.2,0.3-0.5,0.5-0.9,0.7s-0.8,0.3-1.3,0.3
			c-0.6,0-1.1-0.2-1.4-0.5c-0.4-0.4-0.6-0.8-0.6-1.3c0-0.6,0.2-1,0.5-1.4c0.4-0.3,0.8-0.5,1.4-0.6L919.8,1283.6z M917.5,1286.5
			c0.2,0.2,0.5,0.3,0.8,0.3c0.4,0,0.7-0.1,1.1-0.3c0.6-0.3,0.9-0.8,0.9-1.4v-0.8c-0.1,0.1-0.3,0.2-0.5,0.2s-0.4,0.1-0.6,0.1
			l-0.6,0.1c-0.4,0.1-0.7,0.1-0.9,0.2c-0.3,0.2-0.5,0.5-0.5,0.9C917.2,1286.1,917.3,1286.3,917.5,1286.5z"/>
		<path class="st1" d="M923.1,1278.8h1.1v8.6h-1.1V1278.8z"/>
		<path class="st1" d="M932.4,1283.6c0.2,0,0.4-0.1,0.5-0.3c0-0.1,0.1-0.2,0.1-0.4c0-0.4-0.1-0.6-0.4-0.8c-0.3-0.2-0.6-0.2-1.1-0.2
			c-0.5,0-0.9,0.1-1.2,0.4c-0.1,0.2-0.2,0.4-0.3,0.7h-1c0-0.8,0.3-1.3,0.8-1.6s1-0.5,1.7-0.5c0.7,0,1.3,0.1,1.8,0.4
			c0.5,0.3,0.7,0.7,0.7,1.3v3.6c0,0.1,0,0.2,0.1,0.3s0.1,0.1,0.3,0.1c0,0,0.1,0,0.2,0s0.1,0,0.2,0v0.8c-0.2,0-0.3,0.1-0.4,0.1
			s-0.2,0-0.4,0c-0.4,0-0.6-0.1-0.8-0.4c-0.1-0.1-0.1-0.3-0.2-0.6c-0.2,0.3-0.5,0.5-0.9,0.7s-0.8,0.3-1.3,0.3
			c-0.6,0-1.1-0.2-1.4-0.5c-0.4-0.4-0.6-0.8-0.6-1.3c0-0.6,0.2-1,0.5-1.4c0.4-0.3,0.8-0.5,1.4-0.6L932.4,1283.6z M930.2,1286.5
			c0.2,0.2,0.5,0.3,0.8,0.3c0.4,0,0.7-0.1,1.1-0.3c0.6-0.3,0.9-0.8,0.9-1.4v-0.8c-0.1,0.1-0.3,0.2-0.5,0.2s-0.4,0.1-0.6,0.1
			l-0.6,0.1c-0.4,0.1-0.7,0.1-0.9,0.2c-0.3,0.2-0.5,0.5-0.5,0.9C929.9,1286.1,930,1286.3,930.2,1286.5z"/>
		<path class="st1" d="M936,1279.4h1.1v1.8h1v0.9h-1v4.1c0,0.2,0.1,0.4,0.2,0.4c0.1,0,0.2,0.1,0.4,0.1c0.1,0,0.1,0,0.2,0
			s0.1,0,0.2,0v0.8c-0.1,0-0.2,0.1-0.4,0.1s-0.3,0-0.4,0c-0.5,0-0.8-0.1-1-0.4s-0.3-0.6-0.3-1v-4.2h-0.8v-0.9h0.8V1279.4z"/>
		<path class="st1" d="M943.3,1284.7c0,0.5,0.1,0.9,0.3,1.2c0.4,0.6,1,0.9,2,0.9c0.4,0,0.8-0.1,1.2-0.2c0.7-0.2,1-0.7,1-1.3
			c0-0.5-0.1-0.8-0.4-1c-0.3-0.2-0.7-0.4-1.4-0.5l-1.1-0.3c-0.7-0.2-1.3-0.4-1.6-0.6c-0.5-0.4-0.8-0.9-0.8-1.6
			c0-0.8,0.3-1.4,0.8-1.9c0.5-0.5,1.3-0.7,2.2-0.7c0.9,0,1.6,0.2,2.2,0.7s0.9,1.1,0.9,2.1h-1.1c-0.1-0.5-0.2-0.8-0.4-1.1
			c-0.3-0.4-0.9-0.7-1.7-0.7c-0.7,0-1.1,0.1-1.4,0.4c-0.3,0.3-0.4,0.6-0.4,1c0,0.4,0.2,0.7,0.5,0.9c0.2,0.1,0.7,0.3,1.5,0.5l1.2,0.3
			c0.6,0.1,1,0.3,1.3,0.5c0.5,0.4,0.8,1,0.8,1.8c0,1-0.3,1.6-1,2s-1.5,0.6-2.4,0.6c-1,0-1.9-0.3-2.5-0.8c-0.6-0.5-0.9-1.3-0.9-2.2
			H943.3z"/>
		<path class="st1" d="M950.4,1278.8h1.1v3.2c0.2-0.3,0.5-0.5,0.7-0.7c0.3-0.2,0.8-0.3,1.3-0.3c0.9,0,1.5,0.3,1.9,1
			c0.2,0.3,0.3,0.8,0.3,1.4v4h-1.1v-4c0-0.5-0.1-0.8-0.2-1c-0.2-0.3-0.6-0.5-1.1-0.5c-0.4,0-0.8,0.2-1.2,0.5s-0.5,0.9-0.5,1.7v3.3
			h-1.1V1278.8z"/>
		<path class="st1" d="M957.1,1278.8h1.1v1.2h-1.1V1278.8z M957.1,1281.2h1.1v6.2h-1.1V1281.2z"/>
		<path class="st1" d="M959.8,1281.2h1v0.9c0.3-0.4,0.6-0.6,0.9-0.8s0.7-0.2,1.1-0.2c0.9,0,1.5,0.3,1.8,0.9c0.2,0.3,0.3,0.8,0.3,1.5
			v4h-1.1v-4c0-0.4-0.1-0.7-0.2-0.9c-0.2-0.4-0.5-0.6-1-0.6c-0.2,0-0.5,0-0.6,0.1c-0.3,0.1-0.5,0.3-0.8,0.5
			c-0.2,0.2-0.3,0.4-0.3,0.6s-0.1,0.5-0.1,0.9v3.3h-1.1V1281.2z"/>
		<path class="st1" d="M971,1281.8c0.6,0.5,0.8,1.3,0.8,2.4c0,1-0.2,1.8-0.7,2.5c-0.5,0.7-1.2,1-2.3,1c-0.9,0-1.5-0.3-2-0.9
			c-0.5-0.6-0.8-1.4-0.8-2.4c0-1.1,0.3-1.9,0.8-2.5c0.5-0.6,1.2-0.9,2.1-0.9C969.7,1281,970.4,1281.3,971,1281.8z M970.3,1286
			c0.3-0.5,0.4-1.1,0.4-1.8c0-0.6-0.1-1.1-0.3-1.4c-0.3-0.6-0.8-0.9-1.5-0.9c-0.6,0-1.1,0.2-1.4,0.7c-0.3,0.5-0.4,1.1-0.4,1.8
			c0,0.7,0.1,1.2,0.4,1.7c0.3,0.4,0.7,0.7,1.4,0.7C969.6,1286.8,970.1,1286.5,970.3,1286z"/>
		<path class="st1" d="M973.1,1281.2h1v0.9c0.3-0.4,0.6-0.6,0.9-0.8s0.7-0.2,1.1-0.2c0.9,0,1.5,0.3,1.8,0.9c0.2,0.3,0.3,0.8,0.3,1.5
			v4h-1.1v-4c0-0.4-0.1-0.7-0.2-0.9c-0.2-0.4-0.5-0.6-1-0.6c-0.2,0-0.5,0-0.6,0.1c-0.3,0.1-0.5,0.3-0.8,0.5
			c-0.2,0.2-0.3,0.4-0.3,0.6s-0.1,0.5-0.1,0.9v3.3h-1.1V1281.2z"/>
		<path class="st1" d="M984.3,1281.8c0.6,0.5,0.8,1.3,0.8,2.4c0,1-0.2,1.8-0.7,2.5c-0.5,0.7-1.2,1-2.3,1c-0.9,0-1.5-0.3-2-0.9
			c-0.5-0.6-0.8-1.4-0.8-2.4c0-1.1,0.3-1.9,0.8-2.5c0.5-0.6,1.2-0.9,2.1-0.9C983.1,1281,983.8,1281.3,984.3,1281.8z M983.7,1286
			c0.3-0.5,0.4-1.1,0.4-1.8c0-0.6-0.1-1.1-0.3-1.4c-0.3-0.6-0.8-0.9-1.5-0.9c-0.6,0-1.1,0.2-1.4,0.7c-0.3,0.5-0.4,1.1-0.4,1.8
			c0,0.7,0.1,1.2,0.4,1.7c0.3,0.4,0.7,0.7,1.4,0.7C982.9,1286.8,983.4,1286.5,983.7,1286z"/>
		<path class="st1" d="M986.5,1278.8h1.1v1.2h-1.1V1278.8z M986.5,1281.2h1.1v6.2h-1.1V1281.2z"/>
		<path class="st1" d="M993.4,1284.7c0,0.5,0.1,0.9,0.3,1.2c0.4,0.6,1,0.9,2,0.9c0.4,0,0.8-0.1,1.2-0.2c0.7-0.2,1-0.7,1-1.3
			c0-0.5-0.1-0.8-0.4-1c-0.3-0.2-0.7-0.4-1.4-0.5l-1.1-0.3c-0.7-0.2-1.3-0.4-1.6-0.6c-0.5-0.4-0.8-0.9-0.8-1.6
			c0-0.8,0.3-1.4,0.8-1.9s1.3-0.7,2.2-0.7c0.9,0,1.6,0.2,2.2,0.7c0.6,0.4,0.9,1.1,0.9,2.1h-1.1c-0.1-0.5-0.2-0.8-0.4-1.1
			c-0.3-0.4-0.9-0.7-1.7-0.7c-0.7,0-1.1,0.1-1.4,0.4s-0.4,0.6-0.4,1c0,0.4,0.2,0.7,0.5,0.9c0.2,0.1,0.7,0.3,1.5,0.5l1.2,0.3
			c0.6,0.1,1,0.3,1.3,0.5c0.5,0.4,0.8,1,0.8,1.8c0,1-0.3,1.6-1,2c-0.7,0.4-1.5,0.6-2.4,0.6c-1,0-1.9-0.3-2.5-0.8
			c-0.6-0.5-0.9-1.3-0.9-2.2H993.4z"/>
		<path class="st1" d="M1000.7,1279.4h1.1v1.8h1v0.9h-1v4.1c0,0.2,0.1,0.4,0.2,0.4c0.1,0,0.2,0.1,0.4,0.1c0.1,0,0.1,0,0.2,0
			s0.1,0,0.2,0v0.8c-0.1,0-0.2,0.1-0.4,0.1s-0.3,0-0.4,0c-0.5,0-0.8-0.1-1-0.4s-0.3-0.6-0.3-1v-4.2h-0.8v-0.9h0.8V1279.4z"/>
		<path class="st1" d="M1007.2,1283.6c0.2,0,0.4-0.1,0.5-0.3c0-0.1,0.1-0.2,0.1-0.4c0-0.4-0.1-0.6-0.4-0.8s-0.6-0.2-1.1-0.2
			c-0.5,0-0.9,0.1-1.2,0.4c-0.1,0.2-0.2,0.4-0.3,0.7h-1c0-0.8,0.3-1.3,0.8-1.6c0.5-0.3,1-0.5,1.7-0.5c0.7,0,1.3,0.1,1.8,0.4
			c0.5,0.3,0.7,0.7,0.7,1.3v3.6c0,0.1,0,0.2,0.1,0.3s0.1,0.1,0.3,0.1c0,0,0.1,0,0.2,0s0.1,0,0.2,0v0.8c-0.2,0-0.3,0.1-0.4,0.1
			s-0.2,0-0.4,0c-0.4,0-0.6-0.1-0.8-0.4c-0.1-0.1-0.1-0.3-0.2-0.6c-0.2,0.3-0.5,0.5-0.9,0.7s-0.8,0.3-1.3,0.3
			c-0.6,0-1.1-0.2-1.4-0.5c-0.4-0.4-0.6-0.8-0.6-1.3c0-0.6,0.2-1,0.5-1.4c0.4-0.3,0.8-0.5,1.4-0.6L1007.2,1283.6z M1004.9,1286.5
			c0.2,0.2,0.5,0.3,0.8,0.3c0.4,0,0.7-0.1,1.1-0.3c0.6-0.3,0.9-0.8,0.9-1.4v-0.8c-0.1,0.1-0.3,0.2-0.5,0.2c-0.2,0.1-0.4,0.1-0.6,0.1
			l-0.6,0.1c-0.4,0.1-0.7,0.1-0.9,0.2c-0.3,0.2-0.5,0.5-0.5,0.9C1004.6,1286.1,1004.7,1286.3,1004.9,1286.5z"/>
		<path class="st1" d="M1010.7,1279.4h1.1v1.8h1v0.9h-1v4.1c0,0.2,0.1,0.4,0.2,0.4c0.1,0,0.2,0.1,0.4,0.1c0.1,0,0.1,0,0.2,0
			s0.1,0,0.2,0v0.8c-0.1,0-0.2,0.1-0.4,0.1s-0.3,0-0.4,0c-0.5,0-0.8-0.1-1-0.4s-0.3-0.6-0.3-1v-4.2h-0.8v-0.9h0.8V1279.4z"/>
		<path class="st1" d="M1013.8,1278.8h1.1v1.2h-1.1V1278.8z M1013.8,1281.2h1.1v6.2h-1.1V1281.2z"/>
		<path class="st1" d="M1021,1281.8c0.6,0.5,0.8,1.3,0.8,2.4c0,1-0.2,1.8-0.7,2.5c-0.5,0.7-1.2,1-2.3,1c-0.9,0-1.5-0.3-2-0.9
			c-0.5-0.6-0.8-1.4-0.8-2.4c0-1.1,0.3-1.9,0.8-2.5c0.5-0.6,1.2-0.9,2.1-0.9C1019.8,1281,1020.5,1281.3,1021,1281.8z M1020.4,1286
			c0.3-0.5,0.4-1.1,0.4-1.8c0-0.6-0.1-1.1-0.3-1.4c-0.3-0.6-0.8-0.9-1.5-0.9c-0.6,0-1.1,0.2-1.4,0.7c-0.3,0.5-0.4,1.1-0.4,1.8
			c0,0.7,0.1,1.2,0.4,1.7c0.3,0.4,0.7,0.7,1.4,0.7C1019.6,1286.8,1020.1,1286.5,1020.4,1286z"/>
		<path class="st1" d="M1023.1,1281.2h1v0.9c0.3-0.4,0.6-0.6,0.9-0.8s0.7-0.2,1.1-0.2c0.9,0,1.5,0.3,1.8,0.9
			c0.2,0.3,0.3,0.8,0.3,1.5v4h-1.1v-4c0-0.4-0.1-0.7-0.2-0.9c-0.2-0.4-0.5-0.6-1-0.6c-0.2,0-0.5,0-0.6,0.1c-0.3,0.1-0.5,0.3-0.8,0.5
			c-0.2,0.2-0.3,0.4-0.3,0.6s-0.1,0.5-0.1,0.9v3.3h-1.1V1281.2z"/>
	</g>
	<g class="st2">
		<path class="st1" d="M892,1292.8v1h-2.9v7.6h-1.2v-7.6H885v-1H892z"/>
		<path class="st1" d="M892.5,1295.2h1v1.1c0.1-0.2,0.3-0.5,0.6-0.8s0.7-0.5,1.1-0.5c0,0,0.1,0,0.1,0s0.1,0,0.2,0v1.1
			c-0.1,0-0.1,0-0.2,0s-0.1,0-0.2,0c-0.5,0-0.9,0.2-1.2,0.5s-0.4,0.7-0.4,1.2v3.6h-1.1V1295.2z"/>
		<path class="st1" d="M899.9,1297.6c0.2,0,0.4-0.1,0.5-0.3c0-0.1,0.1-0.2,0.1-0.4c0-0.4-0.1-0.6-0.4-0.8c-0.3-0.2-0.6-0.2-1.1-0.2
			c-0.5,0-0.9,0.1-1.2,0.4c-0.1,0.2-0.2,0.4-0.3,0.7h-1c0-0.8,0.3-1.3,0.8-1.6s1-0.5,1.7-0.5c0.7,0,1.3,0.1,1.8,0.4
			c0.5,0.3,0.7,0.7,0.7,1.3v3.6c0,0.1,0,0.2,0.1,0.3s0.1,0.1,0.3,0.1c0,0,0.1,0,0.2,0s0.1,0,0.2,0v0.8c-0.2,0-0.3,0.1-0.4,0.1
			s-0.2,0-0.4,0c-0.4,0-0.6-0.1-0.8-0.4c-0.1-0.1-0.1-0.3-0.2-0.6c-0.2,0.3-0.5,0.5-0.9,0.7s-0.8,0.3-1.3,0.3
			c-0.6,0-1.1-0.2-1.4-0.5c-0.4-0.4-0.6-0.8-0.6-1.3c0-0.6,0.2-1,0.5-1.4c0.4-0.3,0.8-0.5,1.4-0.6L899.9,1297.6z M897.7,1300.5
			c0.2,0.2,0.5,0.3,0.8,0.3c0.4,0,0.7-0.1,1.1-0.3c0.6-0.3,0.9-0.8,0.9-1.4v-0.8c-0.1,0.1-0.3,0.2-0.5,0.2s-0.4,0.1-0.6,0.1
			l-0.6,0.1c-0.4,0.1-0.7,0.1-0.9,0.2c-0.3,0.2-0.5,0.5-0.5,0.9C897.3,1300.1,897.4,1300.3,897.7,1300.5z"/>
		<path class="st1" d="M903.2,1295.2h1v0.9c0.3-0.4,0.6-0.6,0.9-0.8s0.7-0.2,1.1-0.2c0.9,0,1.5,0.3,1.8,0.9c0.2,0.3,0.3,0.8,0.3,1.5
			v4h-1.1v-4c0-0.4-0.1-0.7-0.2-0.9c-0.2-0.4-0.5-0.6-1-0.6c-0.2,0-0.5,0-0.6,0.1c-0.3,0.1-0.5,0.3-0.8,0.5
			c-0.2,0.2-0.3,0.4-0.3,0.6s-0.1,0.5-0.1,0.9v3.3h-1.1V1295.2z"/>
		<path class="st1" d="M910.5,1299.5c0,0.4,0.1,0.6,0.3,0.8c0.3,0.3,0.7,0.5,1.4,0.5c0.4,0,0.7-0.1,1.1-0.3s0.5-0.4,0.5-0.8
			c0-0.3-0.1-0.5-0.4-0.6c-0.2-0.1-0.5-0.2-0.9-0.3l-0.9-0.2c-0.5-0.1-0.9-0.3-1.2-0.4c-0.5-0.3-0.7-0.7-0.7-1.2
			c0-0.6,0.2-1.1,0.7-1.4c0.4-0.4,1-0.6,1.7-0.6c1,0,1.6,0.3,2.1,0.8c0.3,0.4,0.4,0.7,0.4,1.1h-1c0-0.2-0.1-0.5-0.3-0.6
			c-0.2-0.3-0.7-0.4-1.3-0.4c-0.4,0-0.7,0.1-0.9,0.2c-0.2,0.2-0.3,0.4-0.3,0.6c0,0.3,0.1,0.5,0.4,0.7c0.2,0.1,0.4,0.2,0.7,0.3
			l0.7,0.2c0.8,0.2,1.3,0.4,1.6,0.5c0.4,0.3,0.6,0.7,0.6,1.3c0,0.6-0.2,1-0.6,1.4c-0.4,0.4-1.1,0.6-2,0.6c-0.9,0-1.6-0.2-2-0.6
			s-0.6-0.9-0.6-1.6H910.5z"/>
		<path class="st1" d="M916.4,1293.2c0.2-0.4,0.7-0.5,1.4-0.5c0.1,0,0.1,0,0.2,0s0.2,0,0.2,0v1c-0.1,0-0.2,0-0.2,0c0,0-0.1,0-0.1,0
			c-0.3,0-0.5,0.1-0.6,0.2s-0.1,0.6-0.1,1.3h1.1v0.8h-1.1v5.4h-1v-5.4h-0.9v-0.8h0.9v-1C916.1,1293.8,916.2,1293.5,916.4,1293.2z"/>
		<path class="st1" d="M923.1,1295.3c0.4,0.2,0.7,0.5,0.9,0.8c0.2,0.3,0.3,0.7,0.4,1.1c0.1,0.3,0.1,0.8,0.1,1.4H920
			c0,0.6,0.2,1.2,0.4,1.5c0.3,0.4,0.7,0.6,1.3,0.6c0.5,0,1-0.2,1.3-0.5c0.2-0.2,0.3-0.5,0.4-0.7h1c0,0.2-0.1,0.5-0.3,0.8
			s-0.3,0.5-0.5,0.7c-0.3,0.3-0.7,0.5-1.2,0.6c-0.3,0.1-0.5,0.1-0.9,0.1c-0.8,0-1.4-0.3-2-0.9c-0.5-0.6-0.8-1.4-0.8-2.4
			c0-1,0.3-1.8,0.8-2.5c0.5-0.6,1.3-0.9,2.1-0.9C922.2,1295,922.7,1295.1,923.1,1295.3z M923.4,1297.8c0-0.5-0.1-0.8-0.3-1.1
			c-0.3-0.5-0.8-0.8-1.4-0.8c-0.5,0-0.9,0.2-1.2,0.5s-0.5,0.8-0.5,1.3H923.4z"/>
		<path class="st1" d="M925.9,1295.2h1v1.1c0.1-0.2,0.3-0.5,0.6-0.8s0.7-0.5,1.1-0.5c0,0,0.1,0,0.1,0s0.1,0,0.2,0v1.1
			c-0.1,0-0.1,0-0.2,0s-0.1,0-0.2,0c-0.5,0-0.9,0.2-1.2,0.5s-0.4,0.7-0.4,1.2v3.6h-1.1V1295.2z"/>
		<path class="st1" d="M933.4,1293.4h1.1v1.8h1v0.9h-1v4.1c0,0.2,0.1,0.4,0.2,0.4c0.1,0,0.2,0.1,0.4,0.1c0.1,0,0.1,0,0.2,0
			s0.1,0,0.2,0v0.8c-0.1,0-0.2,0.1-0.4,0.1s-0.3,0-0.4,0c-0.5,0-0.8-0.1-1-0.4s-0.3-0.6-0.3-1v-4.2h-0.8v-0.9h0.8V1293.4z"/>
		<path class="st1" d="M941.1,1295.8c0.6,0.5,0.8,1.3,0.8,2.4c0,1-0.2,1.8-0.7,2.5c-0.5,0.7-1.2,1-2.3,1c-0.9,0-1.5-0.3-2-0.9
			c-0.5-0.6-0.8-1.4-0.8-2.4c0-1.1,0.3-1.9,0.8-2.5c0.5-0.6,1.2-0.9,2.1-0.9C939.8,1295,940.5,1295.3,941.1,1295.8z M940.4,1300
			c0.3-0.5,0.4-1.1,0.4-1.8c0-0.6-0.1-1.1-0.3-1.4c-0.3-0.6-0.8-0.9-1.5-0.9c-0.6,0-1.1,0.2-1.4,0.7c-0.3,0.5-0.4,1.1-0.4,1.8
			c0,0.7,0.1,1.2,0.4,1.7c0.3,0.4,0.7,0.7,1.4,0.7C939.7,1300.8,940.2,1300.5,940.4,1300z"/>
		<path class="st1" d="M947.4,1298.7c0,0.5,0.1,0.9,0.3,1.2c0.4,0.6,1,0.9,2,0.9c0.4,0,0.8-0.1,1.2-0.2c0.7-0.2,1-0.7,1-1.3
			c0-0.5-0.1-0.8-0.4-1c-0.3-0.2-0.7-0.4-1.4-0.5l-1.1-0.3c-0.7-0.2-1.3-0.4-1.6-0.6c-0.5-0.4-0.8-0.9-0.8-1.6
			c0-0.8,0.3-1.4,0.8-1.9c0.5-0.5,1.3-0.7,2.2-0.7c0.9,0,1.6,0.2,2.2,0.7s0.9,1.1,0.9,2.1h-1.1c-0.1-0.5-0.2-0.8-0.4-1.1
			c-0.3-0.4-0.9-0.7-1.7-0.7c-0.7,0-1.1,0.1-1.4,0.4c-0.3,0.3-0.4,0.6-0.4,1c0,0.4,0.2,0.7,0.5,0.9c0.2,0.1,0.7,0.3,1.5,0.5l1.2,0.3
			c0.6,0.1,1,0.3,1.3,0.5c0.5,0.4,0.8,1,0.8,1.8c0,1-0.3,1.6-1,2s-1.5,0.6-2.4,0.6c-1,0-1.9-0.3-2.5-0.8c-0.6-0.5-0.9-1.3-0.9-2.2
			H947.4z"/>
		<path class="st1" d="M954.5,1292.8h1.1v3.2c0.2-0.3,0.5-0.5,0.7-0.7c0.3-0.2,0.8-0.3,1.3-0.3c0.9,0,1.5,0.3,1.9,1
			c0.2,0.3,0.3,0.8,0.3,1.4v4h-1.1v-4c0-0.5-0.1-0.8-0.2-1c-0.2-0.3-0.6-0.5-1.1-0.5c-0.4,0-0.8,0.2-1.2,0.5s-0.5,0.9-0.5,1.7v3.3
			h-1.1V1292.8z"/>
		<path class="st1" d="M961.2,1292.8h1.1v1.2h-1.1V1292.8z M961.2,1295.2h1.1v6.2h-1.1V1295.2z"/>
		<path class="st1" d="M963.9,1295.2h1v0.9c0.3-0.4,0.6-0.6,0.9-0.8s0.7-0.2,1.1-0.2c0.9,0,1.5,0.3,1.8,0.9c0.2,0.3,0.3,0.8,0.3,1.5
			v4h-1.1v-4c0-0.4-0.1-0.7-0.2-0.9c-0.2-0.4-0.5-0.6-1-0.6c-0.2,0-0.5,0-0.6,0.1c-0.3,0.1-0.5,0.3-0.8,0.5
			c-0.2,0.2-0.3,0.4-0.3,0.6s-0.1,0.5-0.1,0.9v3.3h-1.1V1295.2z"/>
		<path class="st1" d="M973.9,1297.6c0.2,0,0.4-0.1,0.5-0.3c0-0.1,0.1-0.2,0.1-0.4c0-0.4-0.1-0.6-0.4-0.8s-0.6-0.2-1.1-0.2
			c-0.5,0-0.9,0.1-1.2,0.4c-0.1,0.2-0.2,0.4-0.3,0.7h-1c0-0.8,0.3-1.3,0.8-1.6c0.5-0.3,1-0.5,1.7-0.5c0.7,0,1.3,0.1,1.8,0.4
			c0.5,0.3,0.7,0.7,0.7,1.3v3.6c0,0.1,0,0.2,0.1,0.3s0.1,0.1,0.3,0.1c0,0,0.1,0,0.2,0s0.1,0,0.2,0v0.8c-0.2,0-0.3,0.1-0.4,0.1
			s-0.2,0-0.4,0c-0.4,0-0.6-0.1-0.8-0.4c-0.1-0.1-0.1-0.3-0.2-0.6c-0.2,0.3-0.5,0.5-0.9,0.7s-0.8,0.3-1.3,0.3
			c-0.6,0-1.1-0.2-1.4-0.5c-0.4-0.4-0.6-0.8-0.6-1.3c0-0.6,0.2-1,0.5-1.4c0.4-0.3,0.8-0.5,1.4-0.6L973.9,1297.6z M971.7,1300.5
			c0.2,0.2,0.5,0.3,0.8,0.3c0.4,0,0.7-0.1,1.1-0.3c0.6-0.3,0.9-0.8,0.9-1.4v-0.8c-0.1,0.1-0.3,0.2-0.5,0.2c-0.2,0.1-0.4,0.1-0.6,0.1
			l-0.6,0.1c-0.4,0.1-0.7,0.1-0.9,0.2c-0.3,0.2-0.5,0.5-0.5,0.9C971.4,1300.1,971.5,1300.3,971.7,1300.5z"/>
		<path class="st1" d="M977.2,1295.2h1v0.9c0.3-0.4,0.6-0.6,0.9-0.8s0.7-0.2,1.1-0.2c0.9,0,1.5,0.3,1.8,0.9c0.2,0.3,0.3,0.8,0.3,1.5
			v4h-1.1v-4c0-0.4-0.1-0.7-0.2-0.9c-0.2-0.4-0.5-0.6-1-0.6c-0.2,0-0.5,0-0.6,0.1c-0.3,0.1-0.5,0.3-0.8,0.5
			c-0.2,0.2-0.3,0.4-0.3,0.6s-0.1,0.5-0.1,0.9v3.3h-1.1V1295.2z"/>
		<path class="st1" d="M988.5,1295.8c0.6,0.5,0.8,1.3,0.8,2.4c0,1-0.2,1.8-0.7,2.5c-0.5,0.7-1.2,1-2.3,1c-0.9,0-1.5-0.3-2-0.9
			c-0.5-0.6-0.8-1.4-0.8-2.4c0-1.1,0.3-1.9,0.8-2.5c0.5-0.6,1.2-0.9,2.1-0.9C987.2,1295,987.9,1295.3,988.5,1295.8z M987.8,1300
			c0.3-0.5,0.4-1.1,0.4-1.8c0-0.6-0.1-1.1-0.3-1.4c-0.3-0.6-0.8-0.9-1.5-0.9c-0.6,0-1.1,0.2-1.4,0.7c-0.3,0.5-0.4,1.1-0.4,1.8
			c0,0.7,0.1,1.2,0.4,1.7c0.3,0.4,0.7,0.7,1.4,0.7C987.1,1300.8,987.5,1300.5,987.8,1300z"/>
		<path class="st1" d="M994.2,1292.8h3.9c0.6,0,1.2,0.1,1.6,0.3c0.8,0.4,1.2,1,1.2,2c0,0.5-0.1,0.9-0.3,1.3s-0.5,0.6-0.9,0.8
			c0.3,0.1,0.6,0.3,0.8,0.5s0.3,0.6,0.3,1.1l0,1.2c0,0.3,0,0.6,0.1,0.7c0.1,0.3,0.2,0.4,0.4,0.5v0.2h-1.4c0-0.1-0.1-0.2-0.1-0.3
			s0-0.3-0.1-0.7l-0.1-1.4c0-0.6-0.2-0.9-0.6-1.1c-0.2-0.1-0.6-0.2-1-0.2h-2.6v3.7h-1.2V1292.8z M998,1296.8c0.5,0,1-0.1,1.3-0.3
			s0.5-0.6,0.5-1.2c0-0.6-0.2-1-0.6-1.3c-0.2-0.1-0.5-0.2-0.9-0.2h-2.8v2.9H998z"/>
		<path class="st1" d="M1005.9,1297.6c0.2,0,0.4-0.1,0.5-0.3c0-0.1,0.1-0.2,0.1-0.4c0-0.4-0.1-0.6-0.4-0.8s-0.6-0.2-1.1-0.2
			c-0.5,0-0.9,0.1-1.2,0.4c-0.1,0.2-0.2,0.4-0.3,0.7h-1c0-0.8,0.3-1.3,0.8-1.6c0.5-0.3,1-0.5,1.7-0.5c0.7,0,1.3,0.1,1.8,0.4
			c0.5,0.3,0.7,0.7,0.7,1.3v3.6c0,0.1,0,0.2,0.1,0.3s0.1,0.1,0.3,0.1c0,0,0.1,0,0.2,0s0.1,0,0.2,0v0.8c-0.2,0-0.3,0.1-0.4,0.1
			s-0.2,0-0.4,0c-0.4,0-0.6-0.1-0.8-0.4c-0.1-0.1-0.1-0.3-0.2-0.6c-0.2,0.3-0.5,0.5-0.9,0.7s-0.8,0.3-1.3,0.3
			c-0.6,0-1.1-0.2-1.4-0.5c-0.4-0.4-0.6-0.8-0.6-1.3c0-0.6,0.2-1,0.5-1.4c0.4-0.3,0.8-0.5,1.4-0.6L1005.9,1297.6z M1003.7,1300.5
			c0.2,0.2,0.5,0.3,0.8,0.3c0.4,0,0.7-0.1,1.1-0.3c0.6-0.3,0.9-0.8,0.9-1.4v-0.8c-0.1,0.1-0.3,0.2-0.5,0.2c-0.2,0.1-0.4,0.1-0.6,0.1
			l-0.6,0.1c-0.4,0.1-0.7,0.1-0.9,0.2c-0.3,0.2-0.5,0.5-0.5,0.9C1003.4,1300.1,1003.5,1300.3,1003.7,1300.5z"/>
		<path class="st1" d="M1009.3,1292.8h1.1v1.2h-1.1V1292.8z M1009.3,1295.2h1.1v6.2h-1.1V1295.2z"/>
		<path class="st1" d="M1011.9,1292.8h1.1v8.6h-1.1V1292.8z"/>
		<path class="st1" d="M1015.1,1295.2l1.2,4.9l1.2-4.9h1.2l1.2,4.9l1.3-4.9h1.1l-1.8,6.3h-1.1l-1.3-4.9l-1.2,4.9h-1.1l-1.8-6.3
			H1015.1z"/>
		<path class="st1" d="M1026.6,1297.6c0.2,0,0.4-0.1,0.5-0.3c0-0.1,0.1-0.2,0.1-0.4c0-0.4-0.1-0.6-0.4-0.8s-0.6-0.2-1.1-0.2
			c-0.5,0-0.9,0.1-1.2,0.4c-0.1,0.2-0.2,0.4-0.3,0.7h-1c0-0.8,0.3-1.3,0.8-1.6c0.5-0.3,1-0.5,1.7-0.5c0.7,0,1.3,0.1,1.8,0.4
			c0.5,0.3,0.7,0.7,0.7,1.3v3.6c0,0.1,0,0.2,0.1,0.3s0.1,0.1,0.3,0.1c0,0,0.1,0,0.2,0s0.1,0,0.2,0v0.8c-0.2,0-0.3,0.1-0.4,0.1
			s-0.2,0-0.4,0c-0.4,0-0.6-0.1-0.8-0.4c-0.1-0.1-0.1-0.3-0.2-0.6c-0.2,0.3-0.5,0.5-0.9,0.7s-0.8,0.3-1.3,0.3
			c-0.6,0-1.1-0.2-1.4-0.5c-0.4-0.4-0.6-0.8-0.6-1.3c0-0.6,0.2-1,0.5-1.4c0.4-0.3,0.8-0.5,1.4-0.6L1026.6,1297.6z M1024.4,1300.5
			c0.2,0.2,0.5,0.3,0.8,0.3c0.4,0,0.7-0.1,1.1-0.3c0.6-0.3,0.9-0.8,0.9-1.4v-0.8c-0.1,0.1-0.3,0.2-0.5,0.2c-0.2,0.1-0.4,0.1-0.6,0.1
			l-0.6,0.1c-0.4,0.1-0.7,0.1-0.9,0.2c-0.3,0.2-0.5,0.5-0.5,0.9C1024.1,1300.1,1024.2,1300.3,1024.4,1300.5z"/>
		<path class="st1" d="M1033.8,1295.2h1.2c-0.1,0.4-0.5,1.3-1,2.8c-0.4,1.1-0.7,2-1,2.6c-0.6,1.6-1,2.6-1.3,2.9
			c-0.2,0.4-0.7,0.5-1.3,0.5c-0.1,0-0.3,0-0.3,0s-0.2,0-0.3-0.1v-1c0.2,0.1,0.3,0.1,0.4,0.1c0.1,0,0.2,0,0.2,0c0.2,0,0.3,0,0.4-0.1
			c0.1-0.1,0.2-0.1,0.2-0.2c0,0,0.1-0.2,0.2-0.5c0.1-0.3,0.2-0.5,0.3-0.6l-2.3-6.5h1.2l1.7,5.1L1033.8,1295.2z"/>
	</g>
	<g id="パス_1782" transform="translate(900 1341.563)">
		<path class="st3" d="M119.5,24.5H0.5v-24h119V24.5z"/>
		<path class="st0" d="M1,1v23h118V1H1 M0,0h120v25H0V0z"/>
	</g>
	<g class="st2">
		<path class="st1" d="M928.5,1350.7v1h-2.9v7.6h-1.2v-7.6h-2.9v-1H928.5z"/>
		<path class="st1" d="M932.6,1353.6c0.6,0.5,0.8,1.3,0.8,2.4c0,1-0.2,1.8-0.7,2.5c-0.5,0.7-1.2,1-2.3,1c-0.9,0-1.5-0.3-2-0.9
			c-0.5-0.6-0.8-1.4-0.8-2.4c0-1.1,0.3-1.9,0.8-2.5c0.5-0.6,1.2-0.9,2.1-0.9C931.4,1352.8,932.1,1353.1,932.6,1353.6z M932,1357.8
			c0.3-0.5,0.4-1.1,0.4-1.8c0-0.6-0.1-1.1-0.3-1.4c-0.3-0.6-0.8-0.9-1.5-0.9c-0.6,0-1.1,0.2-1.4,0.7c-0.3,0.5-0.4,1.1-0.4,1.8
			c0,0.7,0.1,1.2,0.4,1.7c0.3,0.4,0.7,0.7,1.4,0.7C931.2,1358.6,931.7,1358.3,932,1357.8z"/>
		<path class="st1" d="M938.2,1353.2c0.2,0.1,0.4,0.3,0.6,0.6v-0.8h1v5.7c0,0.8-0.1,1.4-0.4,1.9c-0.4,0.9-1.3,1.3-2.5,1.3
			c-0.7,0-1.2-0.2-1.7-0.5s-0.7-0.8-0.8-1.4h1.1c0.1,0.3,0.2,0.5,0.3,0.7c0.2,0.2,0.6,0.4,1.1,0.4c0.8,0,1.3-0.3,1.6-0.9
			c0.1-0.3,0.2-0.9,0.2-1.8c-0.2,0.3-0.5,0.6-0.8,0.7c-0.3,0.2-0.7,0.2-1.2,0.2c-0.7,0-1.3-0.2-1.8-0.7s-0.8-1.3-0.8-2.4
			c0-1.1,0.3-1.9,0.8-2.5s1.1-0.9,1.9-0.9C937.5,1352.9,937.9,1353,938.2,1353.2z M938.4,1354.4c-0.3-0.4-0.7-0.6-1.2-0.6
			c-0.7,0-1.2,0.3-1.5,1c-0.1,0.4-0.2,0.9-0.2,1.5c0,0.7,0.1,1.2,0.4,1.6c0.3,0.4,0.7,0.6,1.2,0.6c0.8,0,1.3-0.3,1.6-1
			c0.2-0.4,0.3-0.8,0.3-1.4C938.9,1355.3,938.7,1354.7,938.4,1354.4z"/>
		<path class="st1" d="M942.5,1353v4.2c0,0.3,0,0.6,0.1,0.8c0.2,0.4,0.5,0.6,1,0.6c0.7,0,1.2-0.3,1.5-1c0.1-0.4,0.2-0.8,0.2-1.4
			v-3.1h1.1v6.3h-1l0-0.9c-0.1,0.2-0.3,0.4-0.5,0.6c-0.4,0.3-0.9,0.5-1.4,0.5c-0.9,0-1.5-0.3-1.8-0.9c-0.2-0.3-0.3-0.7-0.3-1.3v-4.3
			H942.5z"/>
		<path class="st1" d="M948.1,1353h1v1.1c0.1-0.2,0.3-0.5,0.6-0.8s0.7-0.5,1.1-0.5c0,0,0.1,0,0.1,0s0.1,0,0.2,0v1.1
			c-0.1,0-0.1,0-0.2,0s-0.1,0-0.2,0c-0.5,0-0.9,0.2-1.2,0.5s-0.4,0.7-0.4,1.2v3.6h-1.1V1353z"/>
		<path class="st1" d="M955.5,1355.5c0.2,0,0.4-0.1,0.5-0.3c0-0.1,0.1-0.2,0.1-0.4c0-0.4-0.1-0.6-0.4-0.8c-0.3-0.2-0.6-0.2-1.1-0.2
			c-0.5,0-0.9,0.1-1.2,0.4c-0.1,0.2-0.2,0.4-0.3,0.7h-1c0-0.8,0.3-1.3,0.8-1.6s1-0.5,1.7-0.5c0.7,0,1.3,0.1,1.8,0.4
			c0.5,0.3,0.7,0.7,0.7,1.3v3.6c0,0.1,0,0.2,0.1,0.3s0.1,0.1,0.3,0.1c0,0,0.1,0,0.2,0s0.1,0,0.2,0v0.8c-0.2,0-0.3,0.1-0.4,0.1
			s-0.2,0-0.4,0c-0.4,0-0.6-0.1-0.8-0.4c-0.1-0.1-0.1-0.3-0.2-0.6c-0.2,0.3-0.5,0.5-0.9,0.7s-0.8,0.3-1.3,0.3
			c-0.6,0-1.1-0.2-1.4-0.5c-0.4-0.4-0.6-0.8-0.6-1.3c0-0.6,0.2-1,0.5-1.4c0.4-0.3,0.8-0.5,1.4-0.6L955.5,1355.5z M953.2,1358.3
			c0.2,0.2,0.5,0.3,0.8,0.3c0.4,0,0.7-0.1,1.1-0.3c0.6-0.3,0.9-0.8,0.9-1.4v-0.8c-0.1,0.1-0.3,0.2-0.5,0.2s-0.4,0.1-0.6,0.1
			l-0.6,0.1c-0.4,0.1-0.7,0.1-0.9,0.2c-0.3,0.2-0.5,0.5-0.5,0.9C952.9,1357.9,953,1358.1,953.2,1358.3z"/>
		<path class="st1" d="M963,1356.5c0,0.5,0.1,0.9,0.3,1.2c0.4,0.6,1,0.9,2,0.9c0.4,0,0.8-0.1,1.2-0.2c0.7-0.2,1-0.7,1-1.3
			c0-0.5-0.1-0.8-0.4-1c-0.3-0.2-0.7-0.4-1.4-0.5l-1.1-0.3c-0.7-0.2-1.3-0.4-1.6-0.6c-0.5-0.4-0.8-0.9-0.8-1.6
			c0-0.8,0.3-1.4,0.8-1.9s1.3-0.7,2.2-0.7c0.9,0,1.6,0.2,2.2,0.7c0.6,0.4,0.9,1.1,0.9,2.1h-1.1c-0.1-0.5-0.2-0.8-0.4-1.1
			c-0.3-0.4-0.9-0.7-1.7-0.7c-0.7,0-1.1,0.1-1.4,0.4s-0.4,0.6-0.4,1c0,0.4,0.2,0.7,0.5,0.9c0.2,0.1,0.7,0.3,1.5,0.5l1.2,0.3
			c0.6,0.1,1,0.3,1.3,0.5c0.5,0.4,0.8,1,0.8,1.8c0,1-0.3,1.6-1,2c-0.7,0.4-1.5,0.6-2.4,0.6c-1,0-1.9-0.3-2.5-0.8
			c-0.6-0.5-0.9-1.3-0.9-2.2H963z"/>
		<path class="st1" d="M970.3,1351.2h1.1v1.8h1v0.9h-1v4.1c0,0.2,0.1,0.4,0.2,0.4c0.1,0,0.2,0.1,0.4,0.1c0.1,0,0.1,0,0.2,0
			s0.1,0,0.2,0v0.8c-0.1,0-0.2,0.1-0.4,0.1s-0.3,0-0.4,0c-0.5,0-0.8-0.1-1-0.4s-0.3-0.6-0.3-1v-4.2h-0.8v-0.9h0.8V1351.2z"/>
		<path class="st1" d="M976.8,1355.5c0.2,0,0.4-0.1,0.5-0.3c0-0.1,0.1-0.2,0.1-0.4c0-0.4-0.1-0.6-0.4-0.8s-0.6-0.2-1.1-0.2
			c-0.5,0-0.9,0.1-1.2,0.4c-0.1,0.2-0.2,0.4-0.3,0.7h-1c0-0.8,0.3-1.3,0.8-1.6c0.5-0.3,1-0.5,1.7-0.5c0.7,0,1.3,0.1,1.8,0.4
			c0.5,0.3,0.7,0.7,0.7,1.3v3.6c0,0.1,0,0.2,0.1,0.3s0.1,0.1,0.3,0.1c0,0,0.1,0,0.2,0s0.1,0,0.2,0v0.8c-0.2,0-0.3,0.1-0.4,0.1
			s-0.2,0-0.4,0c-0.4,0-0.6-0.1-0.8-0.4c-0.1-0.1-0.1-0.3-0.2-0.6c-0.2,0.3-0.5,0.5-0.9,0.7s-0.8,0.3-1.3,0.3
			c-0.6,0-1.1-0.2-1.4-0.5c-0.4-0.4-0.6-0.8-0.6-1.3c0-0.6,0.2-1,0.5-1.4c0.4-0.3,0.8-0.5,1.4-0.6L976.8,1355.5z M974.6,1358.3
			c0.2,0.2,0.5,0.3,0.8,0.3c0.4,0,0.7-0.1,1.1-0.3c0.6-0.3,0.9-0.8,0.9-1.4v-0.8c-0.1,0.1-0.3,0.2-0.5,0.2c-0.2,0.1-0.4,0.1-0.6,0.1
			l-0.6,0.1c-0.4,0.1-0.7,0.1-0.9,0.2c-0.3,0.2-0.5,0.5-0.5,0.9C974.3,1357.9,974.4,1358.1,974.6,1358.3z"/>
		<path class="st1" d="M980.3,1351.2h1.1v1.8h1v0.9h-1v4.1c0,0.2,0.1,0.4,0.2,0.4c0.1,0,0.2,0.1,0.4,0.1c0.1,0,0.1,0,0.2,0
			s0.1,0,0.2,0v0.8c-0.1,0-0.2,0.1-0.4,0.1s-0.3,0-0.4,0c-0.5,0-0.8-0.1-1-0.4s-0.3-0.6-0.3-1v-4.2h-0.8v-0.9h0.8V1351.2z"/>
		<path class="st1" d="M983.5,1350.7h1.1v1.2h-1.1V1350.7z M983.5,1353h1.1v6.2h-1.1V1353z"/>
		<path class="st1" d="M990.7,1353.6c0.6,0.5,0.8,1.3,0.8,2.4c0,1-0.2,1.8-0.7,2.5c-0.5,0.7-1.2,1-2.3,1c-0.9,0-1.5-0.3-2-0.9
			c-0.5-0.6-0.8-1.4-0.8-2.4c0-1.1,0.3-1.9,0.8-2.5c0.5-0.6,1.2-0.9,2.1-0.9C989.4,1352.8,990.1,1353.1,990.7,1353.6z M990,1357.8
			c0.3-0.5,0.4-1.1,0.4-1.8c0-0.6-0.1-1.1-0.3-1.4c-0.3-0.6-0.8-0.9-1.5-0.9c-0.6,0-1.1,0.2-1.4,0.7c-0.3,0.5-0.4,1.1-0.4,1.8
			c0,0.7,0.1,1.2,0.4,1.7c0.3,0.4,0.7,0.7,1.4,0.7C989.3,1358.6,989.8,1358.3,990,1357.8z"/>
		<path class="st1" d="M992.8,1353h1v0.9c0.3-0.4,0.6-0.6,0.9-0.8s0.7-0.2,1.1-0.2c0.9,0,1.5,0.3,1.8,0.9c0.2,0.3,0.3,0.8,0.3,1.5v4
			h-1.1v-4c0-0.4-0.1-0.7-0.2-0.9c-0.2-0.4-0.5-0.6-1-0.6c-0.2,0-0.5,0-0.6,0.1c-0.3,0.1-0.5,0.3-0.8,0.5c-0.2,0.2-0.3,0.4-0.3,0.6
			s-0.1,0.5-0.1,0.9v3.3h-1.1V1353z"/>
	</g>
</g>
</svg>
