<?xml version="1.0" encoding="utf-8"?>
<!-- Generator: Adobe Illustrator 28.1.0, SVG Export Plug-In . SVG Version: 6.00 Build 0)  -->
<svg version="1.1" id="レイヤー_1" xmlns="http://www.w3.org/2000/svg" xmlns:xlink="http://www.w3.org/1999/xlink" x="0px"
	 y="0px" viewBox="0 0 140 320.4" style="enable-background:new 0 0 140 320.4;" xml:space="preserve">
<style type="text/css">
	.st0{fill:#7F4F21;}
	.st1{fill:#2B2624;}
	.st2{enable-background:new    ;}
	.st3{fill:#FFFFFF;}
	.st4{fill:#009139;}
	.st5{fill:#07913A;}
</style>
<g id="グループ_1400" transform="translate(-225 -1038.815)">
	<rect id="長方形_654" x="295" y="1094.2" class="st0" width="1" height="225.7"/>
	<path id="長方形_652" class="st1" d="M237.5,1038.8h115c6.9,0,12.5,5.6,12.5,12.5l0,0c0,6.9-5.6,12.5-12.5,12.5h-115
		c-6.9,0-12.5-5.6-12.5-12.5l0,0C225,1044.4,230.6,1038.8,237.5,1038.8z"/>
	<g class="st2">
		<path class="st3" d="M253.8,1046.7h7v1.2h-5.6v3h4.9v1.2h-4.9v4.6h-1.4V1046.7z"/>
		<path class="st3" d="M262.1,1049.5h1.2v1.3c0.1-0.2,0.3-0.5,0.7-0.9c0.4-0.4,0.8-0.5,1.3-0.5c0,0,0.1,0,0.1,0s0.1,0,0.3,0v1.3
			c-0.1,0-0.1,0-0.2,0s-0.1,0-0.2,0c-0.6,0-1.1,0.2-1.4,0.6c-0.3,0.4-0.5,0.9-0.5,1.4v4.2h-1.2V1049.5z"/>
		<path class="st3" d="M272,1050.2c0.6,0.6,1,1.6,1,2.8c0,1.2-0.3,2.2-0.9,2.9c-0.6,0.8-1.5,1.2-2.7,1.2c-1,0-1.8-0.3-2.4-1
			c-0.6-0.7-0.9-1.6-0.9-2.7c0-1.2,0.3-2.2,0.9-2.9c0.6-0.7,1.5-1.1,2.5-1.1C270.6,1049.3,271.4,1049.6,272,1050.2z M271.3,1055.1
			c0.3-0.6,0.4-1.3,0.4-2.1c0-0.7-0.1-1.2-0.3-1.7c-0.3-0.7-0.9-1-1.8-1c-0.7,0-1.3,0.3-1.6,0.9s-0.5,1.3-0.5,2.1
			c0,0.8,0.2,1.4,0.5,1.9s0.9,0.8,1.6,0.8C270.4,1056,271,1055.7,271.3,1055.1z"/>
		<path class="st3" d="M274.5,1049.5h1.2v1c0.3-0.4,0.6-0.6,0.8-0.8c0.4-0.3,0.9-0.4,1.4-0.4c0.6,0,1.1,0.1,1.4,0.4
			c0.2,0.2,0.4,0.4,0.5,0.7c0.3-0.4,0.6-0.7,1-0.9c0.4-0.2,0.8-0.3,1.2-0.3c1,0,1.7,0.4,2,1.1c0.2,0.4,0.3,0.9,0.3,1.5v4.9h-1.3
			v-5.1c0-0.5-0.1-0.8-0.4-1s-0.5-0.3-0.9-0.3c-0.5,0-0.9,0.2-1.2,0.5s-0.5,0.9-0.5,1.6v4.3h-1.3v-4.8c0-0.5-0.1-0.9-0.2-1.1
			c-0.2-0.3-0.5-0.5-1-0.5c-0.5,0-0.9,0.2-1.3,0.5s-0.6,1-0.6,2v3.9h-1.2V1049.5z"/>
		<path class="st3" d="M290.2,1046.7h1.6l5,8.1v-8.1h1.3v10h-1.5l-5.1-8.1v8.1h-1.3V1046.7z"/>
		<path class="st3" d="M304.1,1052.4c0.3,0,0.5-0.2,0.6-0.4c0.1-0.1,0.1-0.3,0.1-0.5c0-0.4-0.1-0.7-0.4-0.9
			c-0.3-0.2-0.7-0.3-1.3-0.3c-0.6,0-1.1,0.2-1.4,0.5c-0.2,0.2-0.2,0.5-0.3,0.9h-1.1c0-0.9,0.3-1.5,0.9-1.9c0.6-0.4,1.2-0.5,2-0.5
			c0.9,0,1.6,0.2,2.1,0.5c0.5,0.3,0.8,0.8,0.8,1.5v4.2c0,0.1,0,0.2,0.1,0.3c0.1,0.1,0.2,0.1,0.3,0.1c0.1,0,0.1,0,0.2,0
			c0.1,0,0.1,0,0.2,0v0.9c-0.2,0.1-0.3,0.1-0.4,0.1c-0.1,0-0.2,0-0.4,0c-0.4,0-0.7-0.2-0.9-0.5c-0.1-0.2-0.2-0.4-0.2-0.7
			c-0.2,0.3-0.6,0.6-1.1,0.9c-0.5,0.2-1,0.4-1.6,0.4c-0.7,0-1.2-0.2-1.7-0.6c-0.4-0.4-0.6-0.9-0.6-1.5c0-0.7,0.2-1.2,0.6-1.6
			s1-0.6,1.7-0.7L304.1,1052.4z M301.5,1055.7c0.3,0.2,0.6,0.3,0.9,0.3c0.4,0,0.9-0.1,1.3-0.3c0.7-0.3,1-0.9,1-1.6v-1
			c-0.2,0.1-0.3,0.2-0.6,0.2c-0.2,0.1-0.5,0.1-0.7,0.1l-0.7,0.1c-0.4,0.1-0.8,0.2-1,0.3c-0.4,0.2-0.6,0.6-0.6,1
			C301.1,1055.2,301.2,1055.5,301.5,1055.7z"/>
		<path class="st3" d="M312,1049.8c0.2,0.2,0.5,0.4,0.7,0.7v-0.9h1.1v6.7c0,0.9-0.1,1.7-0.4,2.2c-0.5,1-1.5,1.5-2.9,1.5
			c-0.8,0-1.4-0.2-2-0.5c-0.5-0.4-0.8-0.9-0.9-1.7h1.3c0.1,0.3,0.2,0.6,0.4,0.8c0.3,0.3,0.7,0.4,1.3,0.4c0.9,0,1.6-0.3,1.8-1
			c0.2-0.4,0.3-1.1,0.2-2.1c-0.2,0.4-0.5,0.7-0.9,0.8s-0.8,0.3-1.4,0.3c-0.8,0-1.5-0.3-2.1-0.8c-0.6-0.6-0.9-1.5-0.9-2.8
			c0-1.2,0.3-2.2,0.9-2.9s1.3-1,2.2-1C311.1,1049.3,311.6,1049.5,312,1049.8z M312.2,1051.1c-0.4-0.4-0.8-0.7-1.4-0.7
			c-0.9,0-1.5,0.4-1.8,1.2c-0.2,0.4-0.3,1-0.3,1.7c0,0.8,0.2,1.5,0.5,1.9c0.3,0.4,0.8,0.6,1.3,0.6c0.9,0,1.5-0.4,1.9-1.2
			c0.2-0.5,0.3-1,0.3-1.6C312.7,1052.2,312.5,1051.5,312.2,1051.1z"/>
		<path class="st3" d="M321,1050.2c0.6,0.6,1,1.6,1,2.8c0,1.2-0.3,2.2-0.9,2.9c-0.6,0.8-1.5,1.2-2.7,1.2c-1,0-1.8-0.3-2.4-1
			c-0.6-0.7-0.9-1.6-0.9-2.7c0-1.2,0.3-2.2,0.9-2.9c0.6-0.7,1.5-1.1,2.5-1.1C319.6,1049.3,320.4,1049.6,321,1050.2z M320.3,1055.1
			c0.3-0.6,0.4-1.3,0.4-2.1c0-0.7-0.1-1.2-0.3-1.7c-0.3-0.7-0.9-1-1.8-1c-0.7,0-1.3,0.3-1.6,0.9s-0.5,1.3-0.5,2.1
			c0,0.8,0.2,1.4,0.5,1.9s0.9,0.8,1.6,0.8C319.4,1056,320,1055.7,320.3,1055.1z"/>
		<path class="st3" d="M328.1,1049.5h1.4c-0.2,0.5-0.6,1.5-1.2,3.2c-0.4,1.3-0.8,2.3-1.1,3.1c-0.7,1.9-1.2,3-1.5,3.4
			c-0.3,0.4-0.8,0.6-1.5,0.6c-0.2,0-0.3,0-0.4,0c-0.1,0-0.2,0-0.3-0.1v-1.1c0.2,0.1,0.4,0.1,0.5,0.1c0.1,0,0.2,0,0.3,0
			c0.2,0,0.4,0,0.5-0.1c0.1-0.1,0.2-0.2,0.3-0.3c0,0,0.1-0.2,0.2-0.6c0.1-0.3,0.2-0.6,0.3-0.8l-2.7-7.5h1.4l2,6L328.1,1049.5z"/>
		<path class="st3" d="M334.4,1052.4c0.3,0,0.5-0.2,0.6-0.4c0.1-0.1,0.1-0.3,0.1-0.5c0-0.4-0.1-0.7-0.4-0.9
			c-0.3-0.2-0.7-0.3-1.3-0.3c-0.6,0-1.1,0.2-1.4,0.5c-0.2,0.2-0.2,0.5-0.3,0.9h-1.1c0-0.9,0.3-1.5,0.9-1.9c0.6-0.4,1.2-0.5,2-0.5
			c0.9,0,1.6,0.2,2.1,0.5c0.5,0.3,0.8,0.8,0.8,1.5v4.2c0,0.1,0,0.2,0.1,0.3c0.1,0.1,0.2,0.1,0.3,0.1c0.1,0,0.1,0,0.2,0
			c0.1,0,0.1,0,0.2,0v0.9c-0.2,0.1-0.3,0.1-0.4,0.1c-0.1,0-0.2,0-0.4,0c-0.4,0-0.7-0.2-0.9-0.5c-0.1-0.2-0.2-0.4-0.2-0.7
			c-0.2,0.3-0.6,0.6-1.1,0.9c-0.5,0.2-1,0.4-1.6,0.4c-0.7,0-1.2-0.2-1.7-0.6c-0.4-0.4-0.6-0.9-0.6-1.5c0-0.7,0.2-1.2,0.6-1.6
			s1-0.6,1.7-0.7L334.4,1052.4z M331.9,1055.7c0.3,0.2,0.6,0.3,0.9,0.3c0.4,0,0.9-0.1,1.3-0.3c0.7-0.3,1-0.9,1-1.6v-1
			c-0.2,0.1-0.3,0.2-0.6,0.2c-0.2,0.1-0.5,0.1-0.7,0.1l-0.7,0.1c-0.4,0.1-0.8,0.2-1,0.3c-0.4,0.2-0.6,0.6-0.6,1
			C331.5,1055.2,331.6,1055.5,331.9,1055.7z"/>
	</g>
	<rect id="長方形_652-2" x="225" y="1084.3" class="st0" width="140" height="20"/>
	<g class="st2">
		<path class="st3" d="M255.7,1090.9v0.9h-2.7v7H252v-7h-2.7v-0.9H255.7z"/>
		<path class="st3" d="M259.5,1093.6c0.5,0.5,0.8,1.2,0.8,2.2c0,0.9-0.2,1.7-0.7,2.3c-0.4,0.6-1.1,0.9-2.1,0.9
			c-0.8,0-1.4-0.3-1.9-0.8c-0.5-0.5-0.7-1.3-0.7-2.2c0-1,0.2-1.7,0.7-2.3c0.5-0.6,1.1-0.9,2-0.9
			C258.4,1092.8,259,1093.1,259.5,1093.6z M258.9,1097.4c0.2-0.5,0.4-1,0.4-1.6c0-0.5-0.1-1-0.3-1.3c-0.3-0.5-0.7-0.8-1.4-0.8
			c-0.6,0-1,0.2-1.3,0.7c-0.3,0.5-0.4,1-0.4,1.6c0,0.6,0.1,1.1,0.4,1.5c0.3,0.4,0.7,0.6,1.3,0.6
			C258.3,1098.1,258.7,1097.9,258.9,1097.4z"/>
		<path class="st3" d="M261.5,1093h1v0.8c0.2-0.3,0.4-0.5,0.6-0.6c0.3-0.2,0.7-0.3,1.1-0.3c0.5,0,0.8,0.1,1.1,0.3
			c0.2,0.1,0.3,0.3,0.4,0.6c0.2-0.3,0.5-0.5,0.8-0.7s0.6-0.2,1-0.2c0.8,0,1.3,0.3,1.6,0.8c0.2,0.3,0.2,0.7,0.2,1.2v3.8h-1v-4
			c0-0.4-0.1-0.6-0.3-0.8c-0.2-0.1-0.4-0.2-0.7-0.2c-0.4,0-0.7,0.1-1,0.4c-0.3,0.3-0.4,0.7-0.4,1.3v3.3h-1v-3.8c0-0.4,0-0.7-0.1-0.9
			c-0.1-0.3-0.4-0.4-0.8-0.4c-0.4,0-0.7,0.1-1,0.4c-0.3,0.3-0.4,0.8-0.4,1.5v3.1h-1V1093z"/>
		<path class="st3" d="M274.2,1093.2c0.4,0.2,0.7,0.4,0.9,0.7c0.2,0.3,0.3,0.6,0.4,1c0.1,0.3,0.1,0.7,0.1,1.3h-4.2
			c0,0.6,0.2,1.1,0.4,1.4c0.3,0.4,0.7,0.5,1.2,0.5c0.5,0,0.9-0.2,1.2-0.5c0.2-0.2,0.3-0.4,0.4-0.7h1c0,0.2-0.1,0.4-0.2,0.7
			c-0.1,0.3-0.3,0.5-0.5,0.6c-0.3,0.3-0.7,0.5-1.1,0.6c-0.2,0.1-0.5,0.1-0.8,0.1c-0.7,0-1.3-0.3-1.8-0.8c-0.5-0.5-0.7-1.3-0.7-2.2
			c0-0.9,0.2-1.7,0.7-2.3c0.5-0.6,1.1-0.9,2-0.9C273.4,1092.9,273.8,1093,274.2,1093.2z M274.5,1095.4c0-0.4-0.1-0.8-0.3-1
			c-0.3-0.5-0.7-0.7-1.3-0.7c-0.4,0-0.8,0.2-1.1,0.5s-0.5,0.7-0.5,1.2H274.5z"/>
		<path class="st3" d="M276.8,1090.9h1v1.1h-1V1090.9z M276.8,1093h1v5.7h-1V1093z"/>
		<path class="st3" d="M282.5,1090.9h5.7v1h-4.7v2.4h4.3v0.9h-4.3v2.7h4.8v0.9h-5.8V1090.9z"/>
		<path class="st3" d="M289,1093h1.3l1.3,2l1.3-2l1.2,0l-1.9,2.8l2,2.9H293l-1.4-2.2l-1.4,2.2h-1.2l2-2.9L289,1093z"/>
		<path class="st3" d="M295,1093h0.9v0.8c0.2-0.3,0.4-0.5,0.6-0.6c0.3-0.2,0.7-0.3,1.2-0.3c0.7,0,1.2,0.2,1.7,0.8
			c0.5,0.5,0.7,1.2,0.7,2.1c0,1.3-0.3,2.1-1,2.7c-0.4,0.3-0.9,0.5-1.5,0.5c-0.4,0-0.8-0.1-1.1-0.3c-0.2-0.1-0.4-0.3-0.6-0.6v2.9h-1
			V1093z M298.7,1097.5c0.3-0.4,0.5-0.9,0.5-1.7c0-0.5-0.1-0.9-0.2-1.2c-0.3-0.6-0.7-1-1.4-1c-0.7,0-1.1,0.3-1.4,1
			c-0.1,0.4-0.2,0.8-0.2,1.4c0,0.4,0.1,0.8,0.2,1.1c0.3,0.6,0.7,0.9,1.4,0.9C298,1098.1,298.4,1097.9,298.7,1097.5z"/>
		<path class="st3" d="M301.2,1093h0.9v1c0.1-0.2,0.3-0.4,0.6-0.7c0.3-0.3,0.6-0.4,1-0.4c0,0,0,0,0.1,0s0.1,0,0.2,0v1
			c-0.1,0-0.1,0-0.2,0c0,0-0.1,0-0.2,0c-0.5,0-0.9,0.2-1.1,0.5c-0.3,0.3-0.4,0.7-0.4,1.1v3.3h-1V1093z"/>
		<path class="st3" d="M308.4,1093.2c0.4,0.2,0.7,0.4,0.9,0.7c0.2,0.3,0.3,0.6,0.4,1c0.1,0.3,0.1,0.7,0.1,1.3h-4.2
			c0,0.6,0.2,1.1,0.4,1.4c0.3,0.4,0.7,0.5,1.2,0.5c0.5,0,0.9-0.2,1.2-0.5c0.2-0.2,0.3-0.4,0.4-0.7h1c0,0.2-0.1,0.4-0.2,0.7
			c-0.1,0.3-0.3,0.5-0.5,0.6c-0.3,0.3-0.7,0.5-1.1,0.6c-0.2,0.1-0.5,0.1-0.8,0.1c-0.7,0-1.3-0.3-1.8-0.8c-0.5-0.5-0.7-1.3-0.7-2.2
			c0-0.9,0.2-1.7,0.7-2.3s1.1-0.9,2-0.9C307.7,1092.9,308,1093,308.4,1093.2z M308.8,1095.4c0-0.4-0.1-0.8-0.3-1
			c-0.3-0.5-0.7-0.7-1.3-0.7c-0.4,0-0.8,0.2-1.1,0.5c-0.3,0.3-0.5,0.7-0.5,1.2H308.8z"/>
		<path class="st3" d="M311.6,1097c0,0.3,0.1,0.6,0.2,0.7c0.2,0.3,0.7,0.5,1.3,0.5c0.4,0,0.7-0.1,1-0.2c0.3-0.2,0.4-0.4,0.4-0.7
			c0-0.2-0.1-0.4-0.3-0.6c-0.1-0.1-0.4-0.2-0.8-0.3l-0.8-0.2c-0.5-0.1-0.9-0.3-1.1-0.4c-0.4-0.3-0.6-0.6-0.6-1.1
			c0-0.5,0.2-1,0.6-1.3c0.4-0.3,0.9-0.5,1.6-0.5c0.9,0,1.5,0.3,1.9,0.8c0.2,0.3,0.4,0.7,0.4,1h-0.9c0-0.2-0.1-0.4-0.2-0.6
			c-0.2-0.3-0.6-0.4-1.2-0.4c-0.4,0-0.7,0.1-0.8,0.2c-0.2,0.1-0.3,0.3-0.3,0.6c0,0.2,0.1,0.5,0.4,0.6c0.1,0.1,0.4,0.2,0.6,0.2
			l0.7,0.2c0.7,0.2,1.2,0.3,1.4,0.5c0.4,0.2,0.6,0.6,0.6,1.2c0,0.5-0.2,1-0.6,1.3c-0.4,0.4-1,0.6-1.8,0.6c-0.9,0-1.5-0.2-1.8-0.6
			c-0.4-0.4-0.6-0.9-0.6-1.4H311.6z"/>
		<path class="st3" d="M317.1,1097c0,0.3,0.1,0.6,0.2,0.7c0.2,0.3,0.7,0.5,1.3,0.5c0.4,0,0.7-0.1,1-0.2c0.3-0.2,0.4-0.4,0.4-0.7
			c0-0.2-0.1-0.4-0.3-0.6c-0.1-0.1-0.4-0.2-0.8-0.3l-0.8-0.2c-0.5-0.1-0.9-0.3-1.1-0.4c-0.4-0.3-0.6-0.6-0.6-1.1
			c0-0.5,0.2-1,0.6-1.3c0.4-0.3,0.9-0.5,1.6-0.5c0.9,0,1.5,0.3,1.9,0.8c0.2,0.3,0.4,0.7,0.4,1h-0.9c0-0.2-0.1-0.4-0.2-0.6
			c-0.2-0.3-0.6-0.4-1.2-0.4c-0.4,0-0.7,0.1-0.8,0.2c-0.2,0.1-0.3,0.3-0.3,0.6c0,0.2,0.1,0.5,0.4,0.6c0.1,0.1,0.4,0.2,0.6,0.2
			l0.7,0.2c0.7,0.2,1.2,0.3,1.4,0.5c0.4,0.2,0.6,0.6,0.6,1.2c0,0.5-0.2,1-0.6,1.3c-0.4,0.4-1,0.6-1.8,0.6c-0.9,0-1.5-0.2-1.8-0.6
			c-0.4-0.4-0.6-0.9-0.6-1.4H317.1z"/>
		<path class="st3" d="M322.4,1093l1.1,4.5l1.1-4.5h1.1l1.1,4.5l1.2-4.5h1l-1.7,5.8h-1l-1.2-4.5l-1.1,4.5h-1l-1.7-5.8H322.4z"/>
		<path class="st3" d="M333,1095.3c0.2,0,0.4-0.1,0.4-0.3c0-0.1,0.1-0.2,0.1-0.4c0-0.3-0.1-0.6-0.4-0.7c-0.2-0.1-0.6-0.2-1-0.2
			c-0.5,0-0.9,0.1-1.1,0.4c-0.1,0.2-0.2,0.4-0.2,0.7H330c0-0.7,0.2-1.2,0.7-1.5s1-0.4,1.5-0.4c0.7,0,1.2,0.1,1.6,0.4
			c0.4,0.3,0.6,0.7,0.6,1.2v3.3c0,0.1,0,0.2,0.1,0.2c0,0.1,0.1,0.1,0.3,0.1c0,0,0.1,0,0.1,0c0.1,0,0.1,0,0.2,0v0.7
			c-0.2,0-0.3,0.1-0.3,0.1c-0.1,0-0.2,0-0.3,0c-0.3,0-0.6-0.1-0.7-0.4c-0.1-0.1-0.1-0.3-0.2-0.5c-0.2,0.3-0.5,0.5-0.8,0.7
			c-0.4,0.2-0.8,0.3-1.2,0.3c-0.5,0-1-0.2-1.3-0.5c-0.3-0.3-0.5-0.7-0.5-1.2c0-0.5,0.2-0.9,0.5-1.2s0.8-0.5,1.3-0.5L333,1095.3z
			 M331,1097.9c0.2,0.2,0.4,0.2,0.7,0.2c0.3,0,0.7-0.1,1-0.2c0.5-0.3,0.8-0.7,0.8-1.3v-0.8c-0.1,0.1-0.3,0.1-0.5,0.2
			c-0.2,0.1-0.4,0.1-0.5,0.1l-0.6,0.1c-0.4,0-0.6,0.1-0.8,0.2c-0.3,0.2-0.4,0.4-0.4,0.8C330.7,1097.5,330.8,1097.7,331,1097.9z"/>
		<path class="st3" d="M339.7,1093h1.1c-0.1,0.4-0.4,1.2-0.9,2.5c-0.4,1-0.6,1.8-0.9,2.4c-0.6,1.5-1,2.4-1.2,2.7
			c-0.2,0.3-0.6,0.5-1.2,0.5c-0.1,0-0.2,0-0.3,0s-0.2,0-0.3-0.1v-0.9c0.2,0,0.3,0.1,0.4,0.1c0.1,0,0.1,0,0.2,0c0.2,0,0.3,0,0.4-0.1
			c0.1-0.1,0.2-0.1,0.2-0.2c0,0,0.1-0.2,0.2-0.4c0.1-0.3,0.2-0.5,0.2-0.6l-2.1-5.9h1.1l1.5,4.7L339.7,1093z"/>
	</g>
	<rect id="長方形_652-3" x="225" y="1163.2" class="st0" width="140" height="20"/>
	<g class="st2">
		<path class="st3" d="M257.1,1170.3c0.5,0.5,0.8,1.1,0.9,1.8h-1c-0.1-0.5-0.3-0.9-0.7-1.2c-0.3-0.3-0.8-0.4-1.5-0.4
			c-0.8,0-1.4,0.3-1.8,0.8c-0.5,0.5-0.7,1.4-0.7,2.5c0,0.9,0.2,1.7,0.6,2.2s1.1,0.9,1.9,0.9c0.8,0,1.4-0.3,1.8-0.9
			c0.2-0.3,0.4-0.7,0.5-1.3h1c-0.1,0.8-0.4,1.5-0.9,2.1c-0.6,0.7-1.5,1-2.5,1c-0.9,0-1.7-0.3-2.3-0.8c-0.8-0.7-1.2-1.9-1.2-3.4
			c0-1.2,0.3-2.1,0.9-2.9c0.7-0.8,1.6-1.2,2.7-1.2C255.8,1169.5,256.5,1169.8,257.1,1170.3z"/>
		<path class="st3" d="M259.3,1169.7h1v2.9c0.2-0.3,0.4-0.5,0.6-0.6c0.3-0.2,0.7-0.3,1.2-0.3c0.8,0,1.4,0.3,1.7,0.9
			c0.2,0.3,0.2,0.8,0.2,1.3v3.7h-1v-3.6c0-0.4-0.1-0.7-0.2-0.9c-0.2-0.3-0.5-0.5-1-0.5c-0.4,0-0.8,0.1-1.1,0.4
			c-0.3,0.3-0.5,0.8-0.5,1.6v3.1h-1V1169.7z"/>
		<path class="st3" d="M266.4,1171.9v3.8c0,0.3,0,0.5,0.1,0.7c0.2,0.3,0.5,0.5,0.9,0.5c0.7,0,1.1-0.3,1.3-0.9
			c0.1-0.3,0.2-0.8,0.2-1.3v-2.8h1v5.8h-0.9l0-0.8c-0.1,0.2-0.3,0.4-0.5,0.6c-0.4,0.3-0.8,0.5-1.3,0.5c-0.8,0-1.4-0.3-1.6-0.8
			c-0.2-0.3-0.2-0.7-0.2-1.2v-3.9H266.4z"/>
		<path class="st3" d="M275.7,1172.5c0.5,0.5,0.8,1.2,0.8,2.2c0,0.9-0.2,1.7-0.7,2.3c-0.4,0.6-1.1,0.9-2.1,0.9
			c-0.8,0-1.4-0.3-1.9-0.8c-0.5-0.5-0.7-1.3-0.7-2.2c0-1,0.2-1.7,0.7-2.3c0.5-0.6,1.1-0.9,2-0.9
			C274.6,1171.7,275.2,1172,275.7,1172.5z M275.1,1176.3c0.2-0.5,0.4-1,0.4-1.6c0-0.5-0.1-1-0.3-1.3c-0.3-0.5-0.7-0.8-1.4-0.8
			c-0.6,0-1,0.2-1.3,0.7c-0.3,0.5-0.4,1-0.4,1.6c0,0.6,0.1,1.1,0.4,1.5c0.3,0.4,0.7,0.6,1.3,0.6
			C274.5,1177,274.9,1176.8,275.1,1176.3z"/>
		<path class="st3" d="M281,1169.8h5.7v1H282v2.4h4.3v0.9H282v2.7h4.8v0.9H281V1169.8z"/>
		<path class="st3" d="M287.5,1171.9h1.3l1.3,2l1.3-2l1.2,0l-1.9,2.8l2,2.9h-1.2l-1.4-2.2l-1.4,2.2h-1.2l2-2.9L287.5,1171.9z"/>
		<path class="st3" d="M293.5,1171.9h0.9v0.8c0.2-0.3,0.4-0.5,0.6-0.6c0.3-0.2,0.7-0.3,1.2-0.3c0.7,0,1.2,0.2,1.7,0.8
			c0.5,0.5,0.7,1.2,0.7,2.1c0,1.3-0.3,2.1-1,2.7c-0.4,0.3-0.9,0.5-1.5,0.5c-0.4,0-0.8-0.1-1.1-0.3c-0.2-0.1-0.4-0.3-0.6-0.6v2.9h-1
			V1171.9z M297.1,1176.4c0.3-0.4,0.5-0.9,0.5-1.7c0-0.5-0.1-0.9-0.2-1.2c-0.3-0.6-0.7-1-1.4-1c-0.7,0-1.1,0.3-1.4,1
			c-0.1,0.4-0.2,0.8-0.2,1.4c0,0.4,0.1,0.8,0.2,1.1c0.3,0.6,0.7,0.9,1.4,0.9C296.5,1177,296.8,1176.8,297.1,1176.4z"/>
		<path class="st3" d="M299.7,1171.9h0.9v1c0.1-0.2,0.3-0.4,0.6-0.7c0.3-0.3,0.6-0.4,1-0.4c0,0,0,0,0.1,0s0.1,0,0.2,0v1
			c-0.1,0-0.1,0-0.2,0c0,0-0.1,0-0.2,0c-0.5,0-0.9,0.2-1.1,0.5c-0.3,0.3-0.4,0.7-0.4,1.1v3.3h-1V1171.9z"/>
		<path class="st3" d="M306.9,1172.1c0.4,0.2,0.7,0.4,0.9,0.7c0.2,0.3,0.3,0.6,0.4,1c0.1,0.3,0.1,0.7,0.1,1.3h-4.2
			c0,0.6,0.2,1.1,0.4,1.4c0.3,0.4,0.7,0.5,1.2,0.5c0.5,0,0.9-0.2,1.2-0.5c0.2-0.2,0.3-0.4,0.4-0.7h1c0,0.2-0.1,0.4-0.2,0.7
			c-0.1,0.3-0.3,0.5-0.5,0.6c-0.3,0.3-0.7,0.5-1.1,0.6c-0.2,0.1-0.5,0.1-0.8,0.1c-0.7,0-1.3-0.3-1.8-0.8c-0.5-0.5-0.7-1.3-0.7-2.2
			c0-0.9,0.2-1.7,0.7-2.3s1.1-0.9,2-0.9C306.1,1171.8,306.5,1171.9,306.9,1172.1z M307.3,1174.3c0-0.4-0.1-0.8-0.3-1
			c-0.3-0.5-0.7-0.7-1.3-0.7c-0.4,0-0.8,0.2-1.1,0.5c-0.3,0.3-0.5,0.7-0.5,1.2H307.3z"/>
		<path class="st3" d="M310,1175.8c0,0.3,0.1,0.6,0.2,0.7c0.2,0.3,0.7,0.5,1.3,0.5c0.4,0,0.7-0.1,1-0.2c0.3-0.2,0.4-0.4,0.4-0.7
			c0-0.2-0.1-0.4-0.3-0.6c-0.1-0.1-0.4-0.2-0.8-0.3l-0.8-0.2c-0.5-0.1-0.9-0.3-1.1-0.4c-0.4-0.3-0.6-0.6-0.6-1.1
			c0-0.5,0.2-1,0.6-1.3c0.4-0.3,0.9-0.5,1.6-0.5c0.9,0,1.5,0.3,1.9,0.8c0.2,0.3,0.4,0.7,0.4,1h-0.9c0-0.2-0.1-0.4-0.2-0.6
			c-0.2-0.3-0.6-0.4-1.2-0.4c-0.4,0-0.7,0.1-0.8,0.2c-0.2,0.1-0.3,0.3-0.3,0.6c0,0.2,0.1,0.5,0.4,0.6c0.1,0.1,0.4,0.2,0.6,0.2
			l0.7,0.2c0.7,0.2,1.2,0.3,1.4,0.5c0.4,0.2,0.6,0.6,0.6,1.2c0,0.5-0.2,1-0.6,1.3c-0.4,0.4-1,0.6-1.8,0.6c-0.9,0-1.5-0.2-1.8-0.6
			c-0.4-0.4-0.6-0.9-0.6-1.4H310z"/>
		<path class="st3" d="M315.5,1175.8c0,0.3,0.1,0.6,0.2,0.7c0.2,0.3,0.7,0.5,1.3,0.5c0.4,0,0.7-0.1,1-0.2c0.3-0.2,0.4-0.4,0.4-0.7
			c0-0.2-0.1-0.4-0.3-0.6c-0.1-0.1-0.4-0.2-0.8-0.3l-0.8-0.2c-0.5-0.1-0.9-0.3-1.1-0.4c-0.4-0.3-0.6-0.6-0.6-1.1
			c0-0.5,0.2-1,0.6-1.3c0.4-0.3,0.9-0.5,1.6-0.5c0.9,0,1.5,0.3,1.9,0.8c0.2,0.3,0.4,0.7,0.4,1h-0.9c0-0.2-0.1-0.4-0.2-0.6
			c-0.2-0.3-0.6-0.4-1.2-0.4c-0.4,0-0.7,0.1-0.8,0.2c-0.2,0.1-0.3,0.3-0.3,0.6c0,0.2,0.1,0.5,0.4,0.6c0.1,0.1,0.4,0.2,0.6,0.2
			l0.7,0.2c0.7,0.2,1.2,0.3,1.4,0.5c0.4,0.2,0.6,0.6,0.6,1.2c0,0.5-0.2,1-0.6,1.3c-0.4,0.4-1,0.6-1.8,0.6c-0.9,0-1.5-0.2-1.8-0.6
			c-0.4-0.4-0.6-0.9-0.6-1.4H315.5z"/>
		<path class="st3" d="M320.9,1171.9l1.1,4.5l1.1-4.5h1.1l1.1,4.5l1.2-4.5h1l-1.7,5.8h-1l-1.2-4.5l-1.1,4.5h-1l-1.7-5.8H320.9z"/>
		<path class="st3" d="M331.5,1174.2c0.2,0,0.4-0.1,0.4-0.3c0-0.1,0.1-0.2,0.1-0.4c0-0.3-0.1-0.6-0.4-0.7c-0.2-0.1-0.6-0.2-1-0.2
			c-0.5,0-0.9,0.1-1.1,0.4c-0.1,0.2-0.2,0.4-0.2,0.7h-0.9c0-0.7,0.2-1.2,0.7-1.5s1-0.4,1.5-0.4c0.7,0,1.2,0.1,1.6,0.4
			c0.4,0.3,0.6,0.7,0.6,1.2v3.3c0,0.1,0,0.2,0.1,0.2c0,0.1,0.1,0.1,0.3,0.1c0,0,0.1,0,0.1,0c0.1,0,0.1,0,0.2,0v0.7
			c-0.2,0-0.3,0.1-0.3,0.1c-0.1,0-0.2,0-0.3,0c-0.3,0-0.6-0.1-0.7-0.4c-0.1-0.1-0.1-0.3-0.2-0.5c-0.2,0.3-0.5,0.5-0.8,0.7
			c-0.4,0.2-0.8,0.3-1.2,0.3c-0.5,0-1-0.2-1.3-0.5c-0.3-0.3-0.5-0.7-0.5-1.2c0-0.5,0.2-0.9,0.5-1.2s0.8-0.5,1.3-0.5L331.5,1174.2z
			 M329.5,1176.8c0.2,0.2,0.4,0.2,0.7,0.2c0.3,0,0.7-0.1,1-0.2c0.5-0.3,0.8-0.7,0.8-1.3v-0.8c-0.1,0.1-0.3,0.1-0.5,0.2
			c-0.2,0.1-0.4,0.1-0.5,0.1l-0.6,0.1c-0.4,0-0.6,0.1-0.8,0.2c-0.3,0.2-0.4,0.4-0.4,0.8C329.2,1176.4,329.3,1176.6,329.5,1176.8z"/>
		<path class="st3" d="M338.1,1171.9h1.1c-0.1,0.4-0.4,1.2-0.9,2.5c-0.4,1-0.6,1.8-0.9,2.4c-0.6,1.5-1,2.4-1.2,2.7
			c-0.2,0.3-0.6,0.5-1.2,0.5c-0.1,0-0.2,0-0.3,0s-0.2,0-0.3-0.1v-0.9c0.2,0,0.3,0.1,0.4,0.1c0.1,0,0.1,0,0.2,0c0.2,0,0.3,0,0.4-0.1
			c0.1-0.1,0.2-0.1,0.2-0.2c0,0,0.1-0.2,0.2-0.4c0.1-0.3,0.2-0.5,0.2-0.6l-2.1-5.9h1.1l1.5,4.7L338.1,1171.9z"/>
	</g>
	<rect id="長方形_652-4" x="225" y="1242.4" class="st0" width="140" height="20"/>
	<g class="st2">
		<path class="st3" d="M245.4,1249h1.3l3.9,6.4v-6.4h1v7.9h-1.2l-4-6.4v6.4h-1V1249z"/>
		<path class="st3" d="M256.3,1253.4c0.2,0,0.4-0.1,0.4-0.3c0-0.1,0.1-0.2,0.1-0.4c0-0.3-0.1-0.6-0.4-0.7c-0.2-0.1-0.6-0.2-1-0.2
			c-0.5,0-0.9,0.1-1.1,0.4c-0.1,0.2-0.2,0.4-0.2,0.7h-0.9c0-0.7,0.2-1.2,0.7-1.5c0.4-0.3,1-0.4,1.5-0.4c0.7,0,1.2,0.1,1.6,0.4
			c0.4,0.3,0.6,0.7,0.6,1.2v3.3c0,0.1,0,0.2,0.1,0.2c0,0.1,0.1,0.1,0.3,0.1c0,0,0.1,0,0.1,0c0.1,0,0.1,0,0.2,0v0.7
			c-0.2,0-0.3,0.1-0.3,0.1s-0.2,0-0.3,0c-0.3,0-0.6-0.1-0.7-0.4c-0.1-0.1-0.1-0.3-0.2-0.5c-0.2,0.3-0.5,0.5-0.8,0.7
			c-0.4,0.2-0.8,0.3-1.2,0.3c-0.5,0-1-0.2-1.3-0.5c-0.3-0.3-0.5-0.7-0.5-1.2c0-0.5,0.2-0.9,0.5-1.2s0.8-0.5,1.3-0.5L256.3,1253.4z
			 M254.3,1256c0.2,0.2,0.4,0.2,0.7,0.2c0.3,0,0.7-0.1,1-0.2c0.5-0.3,0.8-0.7,0.8-1.3v-0.8c-0.1,0.1-0.3,0.1-0.5,0.2
			c-0.2,0.1-0.4,0.1-0.5,0.1l-0.6,0.1c-0.4,0-0.6,0.1-0.8,0.2c-0.3,0.2-0.4,0.4-0.4,0.8C254,1255.7,254.1,1255.9,254.3,1256z"/>
		<path class="st3" d="M262.5,1251.4c0.2,0.1,0.4,0.3,0.6,0.5v-0.7h0.9v5.2c0,0.7-0.1,1.3-0.3,1.7c-0.4,0.8-1.2,1.2-2.3,1.2
			c-0.6,0-1.1-0.1-1.6-0.4c-0.4-0.3-0.7-0.7-0.7-1.3h1c0,0.3,0.1,0.5,0.3,0.6c0.2,0.2,0.6,0.3,1,0.3c0.7,0,1.2-0.3,1.4-0.8
			c0.1-0.3,0.2-0.9,0.2-1.6c-0.2,0.3-0.4,0.5-0.7,0.7c-0.3,0.1-0.6,0.2-1.1,0.2c-0.6,0-1.2-0.2-1.6-0.7s-0.7-1.2-0.7-2.2
			c0-1,0.2-1.7,0.7-2.3c0.5-0.5,1-0.8,1.7-0.8C261.8,1251.1,262.2,1251.2,262.5,1251.4z M262.6,1252.4c-0.3-0.3-0.7-0.5-1.1-0.5
			c-0.7,0-1.1,0.3-1.4,1c-0.1,0.3-0.2,0.8-0.2,1.3c0,0.6,0.1,1.1,0.4,1.5c0.3,0.3,0.6,0.5,1.1,0.5c0.7,0,1.2-0.3,1.5-0.9
			c0.2-0.4,0.2-0.8,0.2-1.2C263.1,1253.3,262.9,1252.8,262.6,1252.4z"/>
		<path class="st3" d="M268.5,1253.4c0.2,0,0.4-0.1,0.4-0.3c0-0.1,0.1-0.2,0.1-0.4c0-0.3-0.1-0.6-0.4-0.7c-0.2-0.1-0.6-0.2-1-0.2
			c-0.5,0-0.9,0.1-1.1,0.4c-0.1,0.2-0.2,0.4-0.2,0.7h-0.9c0-0.7,0.2-1.2,0.7-1.5c0.4-0.3,1-0.4,1.5-0.4c0.7,0,1.2,0.1,1.6,0.4
			c0.4,0.3,0.6,0.7,0.6,1.2v3.3c0,0.1,0,0.2,0.1,0.2c0,0.1,0.1,0.1,0.3,0.1c0,0,0.1,0,0.1,0c0.1,0,0.1,0,0.2,0v0.7
			c-0.2,0-0.3,0.1-0.3,0.1s-0.2,0-0.3,0c-0.3,0-0.6-0.1-0.7-0.4c-0.1-0.1-0.1-0.3-0.2-0.5c-0.2,0.3-0.5,0.5-0.8,0.7
			c-0.4,0.2-0.8,0.3-1.2,0.3c-0.5,0-1-0.2-1.3-0.5c-0.3-0.3-0.5-0.7-0.5-1.2c0-0.5,0.2-0.9,0.5-1.2s0.8-0.5,1.3-0.5L268.5,1253.4z
			 M266.5,1256c0.2,0.2,0.4,0.2,0.7,0.2c0.3,0,0.7-0.1,1-0.2c0.5-0.3,0.8-0.7,0.8-1.3v-0.8c-0.1,0.1-0.3,0.1-0.5,0.2
			c-0.2,0.1-0.4,0.1-0.5,0.1l-0.6,0.1c-0.4,0-0.6,0.1-0.8,0.2c-0.3,0.2-0.4,0.4-0.4,0.8C266.2,1255.7,266.3,1255.9,266.5,1256z"/>
		<path class="st3" d="M271.6,1251.2h0.9v0.8c0.3-0.3,0.6-0.6,0.9-0.7s0.6-0.2,1-0.2c0.8,0,1.4,0.3,1.7,0.9c0.2,0.3,0.2,0.8,0.2,1.3
			v3.7h-1v-3.6c0-0.4-0.1-0.6-0.2-0.8c-0.2-0.4-0.5-0.5-0.9-0.5c-0.2,0-0.4,0-0.6,0.1c-0.3,0.1-0.5,0.2-0.7,0.5
			c-0.2,0.2-0.3,0.4-0.3,0.6c0,0.2-0.1,0.5-0.1,0.9v3h-1V1251.2z"/>
		<path class="st3" d="M281.8,1251.7c0.5,0.5,0.8,1.2,0.8,2.2c0,0.9-0.2,1.7-0.7,2.3c-0.4,0.6-1.1,0.9-2.1,0.9
			c-0.8,0-1.4-0.3-1.9-0.8c-0.5-0.5-0.7-1.3-0.7-2.2c0-1,0.2-1.7,0.7-2.3c0.5-0.6,1.1-0.9,2-0.9
			C280.7,1251,281.3,1251.2,281.8,1251.7z M281.2,1255.6c0.2-0.5,0.4-1,0.4-1.6c0-0.5-0.1-1-0.3-1.3c-0.3-0.5-0.7-0.8-1.4-0.8
			c-0.6,0-1,0.2-1.3,0.7c-0.3,0.5-0.4,1-0.4,1.6c0,0.6,0.1,1.1,0.4,1.5c0.3,0.4,0.7,0.6,1.3,0.6C280.6,1256.3,281,1256,281.2,1255.6
			z"/>
		<path class="st3" d="M287.1,1249h5.7v1h-4.7v2.4h4.3v0.9h-4.3v2.7h4.8v0.9h-5.8V1249z"/>
		<path class="st3" d="M293.6,1251.2h1.3l1.3,2l1.3-2l1.2,0l-1.9,2.8l2,2.9h-1.2l-1.4-2.2l-1.4,2.2h-1.2l2-2.9L293.6,1251.2z"/>
		<path class="st3" d="M299.6,1251.2h0.9v0.8c0.2-0.3,0.4-0.5,0.6-0.6c0.3-0.2,0.7-0.3,1.2-0.3c0.7,0,1.2,0.2,1.7,0.8
			c0.5,0.5,0.7,1.2,0.7,2.1c0,1.3-0.3,2.1-1,2.7c-0.4,0.3-0.9,0.5-1.5,0.5c-0.4,0-0.8-0.1-1.1-0.3c-0.2-0.1-0.4-0.3-0.6-0.6v2.9h-1
			V1251.2z M303.2,1255.7c0.3-0.4,0.5-0.9,0.5-1.7c0-0.5-0.1-0.9-0.2-1.2c-0.3-0.6-0.7-1-1.4-1c-0.7,0-1.1,0.3-1.4,1
			c-0.1,0.4-0.2,0.8-0.2,1.4c0,0.4,0.1,0.8,0.2,1.1c0.3,0.6,0.7,0.9,1.4,0.9C302.6,1256.3,302.9,1256.1,303.2,1255.7z"/>
		<path class="st3" d="M305.8,1251.2h0.9v1c0.1-0.2,0.3-0.4,0.6-0.7c0.3-0.3,0.6-0.4,1-0.4c0,0,0,0,0.1,0s0.1,0,0.2,0v1
			c-0.1,0-0.1,0-0.2,0c0,0-0.1,0-0.2,0c-0.5,0-0.9,0.2-1.1,0.5c-0.3,0.3-0.4,0.7-0.4,1.1v3.3h-1V1251.2z"/>
		<path class="st3" d="M313,1251.3c0.4,0.2,0.7,0.4,0.9,0.7c0.2,0.3,0.3,0.6,0.4,1c0.1,0.3,0.1,0.7,0.1,1.3h-4.2
			c0,0.6,0.2,1.1,0.4,1.4c0.3,0.4,0.7,0.5,1.2,0.5c0.5,0,0.9-0.2,1.2-0.5c0.2-0.2,0.3-0.4,0.4-0.7h1c0,0.2-0.1,0.4-0.2,0.7
			c-0.1,0.3-0.3,0.5-0.5,0.6c-0.3,0.3-0.7,0.5-1.1,0.6c-0.2,0.1-0.5,0.1-0.8,0.1c-0.7,0-1.3-0.3-1.8-0.8c-0.5-0.5-0.7-1.3-0.7-2.2
			c0-0.9,0.2-1.7,0.7-2.3s1.1-0.9,2-0.9C312.3,1251,312.6,1251.1,313,1251.3z M313.4,1253.6c0-0.4-0.1-0.8-0.3-1
			c-0.3-0.5-0.7-0.7-1.3-0.7c-0.4,0-0.8,0.2-1.1,0.5c-0.3,0.3-0.5,0.7-0.5,1.2H313.4z"/>
		<path class="st3" d="M316.2,1255.1c0,0.3,0.1,0.6,0.2,0.7c0.2,0.3,0.7,0.5,1.3,0.5c0.4,0,0.7-0.1,1-0.2c0.3-0.2,0.4-0.4,0.4-0.7
			c0-0.2-0.1-0.4-0.3-0.6c-0.1-0.1-0.4-0.2-0.8-0.3l-0.8-0.2c-0.5-0.1-0.9-0.3-1.1-0.4c-0.4-0.3-0.6-0.6-0.6-1.1
			c0-0.5,0.2-1,0.6-1.3c0.4-0.3,0.9-0.5,1.6-0.5c0.9,0,1.5,0.3,1.9,0.8c0.2,0.3,0.4,0.7,0.4,1h-0.9c0-0.2-0.1-0.4-0.2-0.6
			c-0.2-0.3-0.6-0.4-1.2-0.4c-0.4,0-0.7,0.1-0.8,0.2c-0.2,0.1-0.3,0.3-0.3,0.6c0,0.2,0.1,0.5,0.4,0.6c0.1,0.1,0.4,0.2,0.6,0.2
			l0.7,0.2c0.7,0.2,1.2,0.3,1.4,0.5c0.4,0.2,0.6,0.6,0.6,1.2c0,0.5-0.2,1-0.6,1.3c-0.4,0.4-1,0.6-1.8,0.6c-0.9,0-1.5-0.2-1.8-0.6
			c-0.4-0.4-0.6-0.9-0.6-1.4H316.2z"/>
		<path class="st3" d="M321.7,1255.1c0,0.3,0.1,0.6,0.2,0.7c0.2,0.3,0.7,0.5,1.3,0.5c0.4,0,0.7-0.1,1-0.2c0.3-0.2,0.4-0.4,0.4-0.7
			c0-0.2-0.1-0.4-0.3-0.6c-0.1-0.1-0.4-0.2-0.8-0.3l-0.8-0.2c-0.5-0.1-0.9-0.3-1.1-0.4c-0.4-0.3-0.6-0.6-0.6-1.1
			c0-0.5,0.2-1,0.6-1.3c0.4-0.3,0.9-0.5,1.6-0.5c0.9,0,1.5,0.3,1.9,0.8c0.2,0.3,0.4,0.7,0.4,1h-0.9c0-0.2-0.1-0.4-0.2-0.6
			c-0.2-0.3-0.6-0.4-1.2-0.4c-0.4,0-0.7,0.1-0.8,0.2c-0.2,0.1-0.3,0.3-0.3,0.6c0,0.2,0.1,0.5,0.4,0.6c0.1,0.1,0.4,0.2,0.6,0.2
			l0.7,0.2c0.7,0.2,1.2,0.3,1.4,0.5c0.4,0.2,0.6,0.6,0.6,1.2c0,0.5-0.2,1-0.6,1.3c-0.4,0.4-1,0.6-1.8,0.6c-0.9,0-1.5-0.2-1.8-0.6
			c-0.4-0.4-0.6-0.9-0.6-1.4H321.7z"/>
		<path class="st3" d="M327,1251.2l1.1,4.5l1.1-4.5h1.1l1.1,4.5l1.2-4.5h1l-1.7,5.8h-1l-1.2-4.5l-1.1,4.5h-1l-1.7-5.8H327z"/>
		<path class="st3" d="M337.6,1253.4c0.2,0,0.4-0.1,0.4-0.3c0-0.1,0.1-0.2,0.1-0.4c0-0.3-0.1-0.6-0.4-0.7c-0.2-0.1-0.6-0.2-1-0.2
			c-0.5,0-0.9,0.1-1.1,0.4c-0.1,0.2-0.2,0.4-0.2,0.7h-0.9c0-0.7,0.2-1.2,0.7-1.5s1-0.4,1.5-0.4c0.7,0,1.2,0.1,1.6,0.4
			c0.4,0.3,0.6,0.7,0.6,1.2v3.3c0,0.1,0,0.2,0.1,0.2c0,0.1,0.1,0.1,0.3,0.1c0,0,0.1,0,0.1,0c0.1,0,0.1,0,0.2,0v0.7
			c-0.2,0-0.3,0.1-0.3,0.1c-0.1,0-0.2,0-0.3,0c-0.3,0-0.6-0.1-0.7-0.4c-0.1-0.1-0.1-0.3-0.2-0.5c-0.2,0.3-0.5,0.5-0.8,0.7
			c-0.4,0.2-0.8,0.3-1.2,0.3c-0.5,0-1-0.2-1.3-0.5c-0.3-0.3-0.5-0.7-0.5-1.2c0-0.5,0.2-0.9,0.5-1.2s0.8-0.5,1.3-0.5L337.6,1253.4z
			 M335.6,1256c0.2,0.2,0.4,0.2,0.7,0.2c0.3,0,0.7-0.1,1-0.2c0.5-0.3,0.8-0.7,0.8-1.3v-0.8c-0.1,0.1-0.3,0.1-0.5,0.2
			c-0.2,0.1-0.4,0.1-0.5,0.1l-0.6,0.1c-0.4,0-0.6,0.1-0.8,0.2c-0.3,0.2-0.4,0.4-0.4,0.8C335.3,1255.7,335.4,1255.9,335.6,1256z"/>
		<path class="st3" d="M344.2,1251.2h1.1c-0.1,0.4-0.4,1.2-0.9,2.5c-0.4,1-0.6,1.8-0.9,2.4c-0.6,1.5-1,2.4-1.2,2.7
			c-0.2,0.3-0.6,0.5-1.2,0.5c-0.1,0-0.2,0-0.3,0s-0.2,0-0.3-0.1v-0.9c0.2,0,0.3,0.1,0.4,0.1c0.1,0,0.1,0,0.2,0c0.2,0,0.3,0,0.4-0.1
			c0.1-0.1,0.2-0.1,0.2-0.2c0,0,0.1-0.2,0.2-0.4c0.1-0.3,0.2-0.5,0.2-0.6l-2.1-5.9h1.1l1.5,4.7L344.2,1251.2z"/>
	</g>
	<rect id="長方形_652-5" x="225" y="1280.8" class="st4" width="140" height="20"/>
	<g class="st2">
		<path class="st3" d="M249.5,1288.3c0.5,0.7,0.8,1.6,0.8,2.7c0,1.2-0.3,2.2-0.9,2.9c-0.7,0.9-1.7,1.4-3,1.4c-1.2,0-2.2-0.4-2.9-1.2
			c-0.6-0.8-0.9-1.8-0.9-2.9c0-1.1,0.3-2,0.8-2.7c0.7-1,1.7-1.5,3-1.5C247.8,1287,248.8,1287.4,249.5,1288.3z M248.5,1293.3
			c0.4-0.7,0.6-1.5,0.6-2.3c0-0.9-0.2-1.7-0.7-2.2c-0.5-0.6-1.1-0.8-2-0.8c-0.8,0-1.5,0.3-2,0.8c-0.5,0.6-0.8,1.4-0.8,2.5
			c0,0.9,0.2,1.6,0.7,2.2c0.4,0.6,1.2,0.9,2.2,0.9C247.4,1294.4,248.1,1294,248.5,1293.3z"/>
		<path class="st3" d="M251.3,1287.2h0.9v2.9c0.2-0.3,0.5-0.5,0.8-0.6c0.3-0.1,0.6-0.2,1-0.2c0.7,0,1.3,0.2,1.7,0.7
			c0.4,0.5,0.7,1.2,0.7,2.2c0,0.9-0.2,1.7-0.7,2.3c-0.4,0.6-1.1,0.9-1.8,0.9c-0.4,0-0.8-0.1-1.1-0.3c-0.2-0.1-0.4-0.3-0.6-0.6v0.7
			h-0.9V1287.2z M255,1293.8c0.3-0.4,0.4-1,0.4-1.6c0-0.6-0.1-1.1-0.4-1.5c-0.3-0.4-0.6-0.6-1.2-0.6c-0.4,0-0.8,0.2-1.2,0.5
			c-0.3,0.3-0.5,0.9-0.5,1.6c0,0.5,0.1,1,0.2,1.3c0.3,0.6,0.7,1,1.4,1C254.3,1294.4,254.7,1294.2,255,1293.8z"/>
		<path class="st3" d="M260.6,1291.6c0.2,0,0.4-0.1,0.4-0.3c0-0.1,0.1-0.2,0.1-0.4c0-0.3-0.1-0.6-0.4-0.7c-0.2-0.1-0.6-0.2-1-0.2
			c-0.5,0-0.9,0.1-1.1,0.4c-0.1,0.2-0.2,0.4-0.2,0.7h-0.9c0-0.7,0.2-1.2,0.7-1.5c0.4-0.3,1-0.4,1.5-0.4c0.7,0,1.2,0.1,1.6,0.4
			c0.4,0.3,0.6,0.7,0.6,1.2v3.3c0,0.1,0,0.2,0.1,0.2c0,0.1,0.1,0.1,0.3,0.1c0,0,0.1,0,0.1,0c0.1,0,0.1,0,0.2,0v0.7
			c-0.2,0-0.3,0.1-0.3,0.1s-0.2,0-0.3,0c-0.3,0-0.6-0.1-0.7-0.4c-0.1-0.1-0.1-0.3-0.2-0.5c-0.2,0.3-0.5,0.5-0.8,0.7
			c-0.4,0.2-0.8,0.3-1.2,0.3c-0.5,0-1-0.2-1.3-0.5c-0.3-0.3-0.5-0.7-0.5-1.2c0-0.5,0.2-0.9,0.5-1.2s0.8-0.5,1.3-0.5L260.6,1291.6z
			 M258.5,1294.2c0.2,0.2,0.4,0.2,0.7,0.2c0.3,0,0.7-0.1,1-0.2c0.5-0.3,0.8-0.7,0.8-1.3v-0.8c-0.1,0.1-0.3,0.1-0.5,0.2
			c-0.2,0.1-0.4,0.1-0.5,0.1l-0.6,0.1c-0.4,0-0.6,0.1-0.8,0.2c-0.3,0.2-0.4,0.4-0.4,0.8C258.2,1293.8,258.3,1294,258.5,1294.2z"/>
		<path class="st3" d="M264.2,1293.3c0,0.3,0.1,0.6,0.2,0.7c0.2,0.3,0.7,0.5,1.3,0.5c0.4,0,0.7-0.1,1-0.2c0.3-0.2,0.4-0.4,0.4-0.7
			c0-0.2-0.1-0.4-0.3-0.6c-0.1-0.1-0.4-0.2-0.8-0.3l-0.8-0.2c-0.5-0.1-0.9-0.3-1.1-0.4c-0.4-0.3-0.6-0.6-0.6-1.1
			c0-0.5,0.2-1,0.6-1.3c0.4-0.3,0.9-0.5,1.6-0.5c0.9,0,1.5,0.3,1.9,0.8c0.2,0.3,0.4,0.7,0.4,1H267c0-0.2-0.1-0.4-0.2-0.6
			c-0.2-0.3-0.6-0.4-1.2-0.4c-0.4,0-0.7,0.1-0.8,0.2c-0.2,0.1-0.3,0.3-0.3,0.6c0,0.2,0.1,0.5,0.4,0.6c0.1,0.1,0.4,0.2,0.6,0.2
			l0.7,0.2c0.7,0.2,1.2,0.3,1.4,0.5c0.4,0.2,0.6,0.6,0.6,1.2c0,0.5-0.2,1-0.6,1.3c-0.4,0.4-1,0.6-1.8,0.6c-0.9,0-1.5-0.2-1.8-0.6
			s-0.6-0.9-0.6-1.4H264.2z"/>
		<path class="st3" d="M270.1,1289.3v3.8c0,0.3,0,0.5,0.1,0.7c0.2,0.3,0.5,0.5,0.9,0.5c0.7,0,1.1-0.3,1.3-0.9
			c0.1-0.3,0.2-0.8,0.2-1.3v-2.8h1v5.8h-0.9l0-0.8c-0.1,0.2-0.3,0.4-0.5,0.6c-0.4,0.3-0.8,0.5-1.3,0.5c-0.8,0-1.4-0.3-1.6-0.8
			c-0.2-0.3-0.2-0.7-0.2-1.2v-3.9H270.1z"/>
		<path class="st3" d="M275.4,1287.7h1v1.6h0.9v0.8h-0.9v3.8c0,0.2,0.1,0.3,0.2,0.4c0.1,0,0.2,0.1,0.4,0.1c0,0,0.1,0,0.2,0
			c0.1,0,0.1,0,0.2,0v0.8c-0.1,0-0.2,0.1-0.3,0.1c-0.1,0-0.2,0-0.4,0c-0.5,0-0.8-0.1-0.9-0.3c-0.2-0.2-0.2-0.5-0.2-0.9v-3.8h-0.8
			v-0.8h0.8V1287.7z"/>
		<path class="st3" d="M281.8,1289.5c0.4,0.2,0.7,0.4,0.9,0.7c0.2,0.3,0.3,0.6,0.4,1c0.1,0.3,0.1,0.7,0.1,1.3H279
			c0,0.6,0.2,1.1,0.4,1.4c0.3,0.4,0.7,0.5,1.2,0.5c0.5,0,0.9-0.2,1.2-0.5c0.2-0.2,0.3-0.4,0.4-0.7h1c0,0.2-0.1,0.4-0.2,0.7
			c-0.1,0.3-0.3,0.5-0.5,0.6c-0.3,0.3-0.7,0.5-1.1,0.6c-0.2,0.1-0.5,0.1-0.8,0.1c-0.7,0-1.3-0.3-1.8-0.8c-0.5-0.5-0.7-1.3-0.7-2.2
			c0-0.9,0.2-1.7,0.7-2.3c0.5-0.6,1.1-0.9,2-0.9C281.1,1289.2,281.5,1289.3,281.8,1289.5z M282.2,1291.7c0-0.4-0.1-0.8-0.3-1
			c-0.3-0.5-0.7-0.7-1.3-0.7c-0.4,0-0.8,0.2-1.1,0.5s-0.5,0.7-0.5,1.2H282.2z"/>
		<path class="st3" d="M288.3,1292.5c0,0.4,0.1,0.8,0.3,1.1c0.3,0.5,0.9,0.8,1.8,0.8c0.4,0,0.7-0.1,1.1-0.2c0.6-0.2,0.9-0.6,0.9-1.2
			c0-0.4-0.1-0.7-0.4-0.9c-0.3-0.2-0.7-0.3-1.2-0.5l-1-0.2c-0.7-0.2-1.2-0.3-1.4-0.5c-0.5-0.3-0.7-0.8-0.7-1.5
			c0-0.7,0.2-1.3,0.7-1.7c0.5-0.5,1.2-0.7,2-0.7c0.8,0,1.5,0.2,2.1,0.6c0.6,0.4,0.8,1,0.8,1.9h-1c-0.1-0.4-0.2-0.7-0.3-1
			c-0.3-0.4-0.8-0.6-1.6-0.6c-0.6,0-1,0.1-1.3,0.4s-0.4,0.6-0.4,0.9c0,0.4,0.2,0.7,0.5,0.8c0.2,0.1,0.7,0.3,1.4,0.4l1.1,0.3
			c0.5,0.1,0.9,0.3,1.2,0.5c0.5,0.4,0.7,0.9,0.7,1.6c0,0.9-0.3,1.5-0.9,1.9c-0.6,0.4-1.3,0.6-2.2,0.6c-1,0-1.7-0.2-2.2-0.8
			c-0.5-0.5-0.8-1.2-0.8-2H288.3z"/>
		<path class="st3" d="M297.2,1287.2h1.2l2.9,7.9h-1.2l-0.8-2.4h-3.1l-0.9,2.4h-1.1L297.2,1287.2z M299,1291.8l-1.2-3.5l-1.3,3.5
			H299z"/>
		<path class="st3" d="M303.9,1287.2h0.8l-2.5,7.9h-0.8L303.9,1287.2z"/>
		<path class="st3" d="M306,1292.5c0,0.4,0.1,0.8,0.3,1.1c0.3,0.5,0.9,0.8,1.8,0.8c0.4,0,0.7-0.1,1.1-0.2c0.6-0.2,0.9-0.6,0.9-1.2
			c0-0.4-0.1-0.7-0.4-0.9c-0.3-0.2-0.7-0.3-1.2-0.5l-1-0.2c-0.7-0.2-1.2-0.3-1.4-0.5c-0.5-0.3-0.7-0.8-0.7-1.5
			c0-0.7,0.2-1.3,0.7-1.7c0.5-0.5,1.2-0.7,2-0.7c0.8,0,1.5,0.2,2.1,0.6c0.6,0.4,0.8,1,0.8,1.9h-1c-0.1-0.4-0.2-0.7-0.3-1
			c-0.3-0.4-0.8-0.6-1.6-0.6c-0.6,0-1,0.1-1.3,0.4c-0.3,0.3-0.4,0.6-0.4,0.9c0,0.4,0.2,0.7,0.5,0.8c0.2,0.1,0.7,0.3,1.4,0.4l1.1,0.3
			c0.5,0.1,0.9,0.3,1.2,0.5c0.5,0.4,0.7,0.9,0.7,1.6c0,0.9-0.3,1.5-0.9,1.9s-1.3,0.6-2.2,0.6c-1,0-1.7-0.2-2.2-0.8
			c-0.5-0.5-0.8-1.2-0.8-2H306z"/>
		<path class="st3" d="M312.5,1289.3h1v0.8c0.2-0.3,0.4-0.5,0.6-0.6c0.3-0.2,0.7-0.3,1.1-0.3c0.5,0,0.8,0.1,1.1,0.3
			c0.2,0.1,0.3,0.3,0.4,0.6c0.2-0.3,0.5-0.5,0.8-0.7s0.6-0.2,1-0.2c0.8,0,1.3,0.3,1.6,0.8c0.2,0.3,0.2,0.7,0.2,1.2v3.8h-1v-4
			c0-0.4-0.1-0.6-0.3-0.8c-0.2-0.1-0.4-0.2-0.7-0.2c-0.4,0-0.7,0.1-1,0.4c-0.3,0.3-0.4,0.7-0.4,1.3v3.3h-1v-3.8c0-0.4,0-0.7-0.1-0.9
			c-0.1-0.3-0.4-0.4-0.8-0.4c-0.4,0-0.7,0.1-1,0.4s-0.4,0.8-0.4,1.5v3.1h-1V1289.3z"/>
		<path class="st3" d="M324.8,1291.6c0.2,0,0.4-0.1,0.4-0.3c0-0.1,0.1-0.2,0.1-0.4c0-0.3-0.1-0.6-0.4-0.7c-0.2-0.1-0.6-0.2-1-0.2
			c-0.5,0-0.9,0.1-1.1,0.4c-0.1,0.2-0.2,0.4-0.2,0.7h-0.9c0-0.7,0.2-1.2,0.7-1.5c0.4-0.3,1-0.4,1.5-0.4c0.7,0,1.2,0.1,1.6,0.4
			c0.4,0.3,0.6,0.7,0.6,1.2v3.3c0,0.1,0,0.2,0.1,0.2c0,0.1,0.1,0.1,0.3,0.1c0,0,0.1,0,0.1,0c0.1,0,0.1,0,0.2,0v0.7
			c-0.2,0-0.3,0.1-0.3,0.1c-0.1,0-0.2,0-0.3,0c-0.3,0-0.6-0.1-0.7-0.4c-0.1-0.1-0.1-0.3-0.2-0.5c-0.2,0.3-0.5,0.5-0.8,0.7
			c-0.4,0.2-0.8,0.3-1.2,0.3c-0.5,0-1-0.2-1.3-0.5c-0.3-0.3-0.5-0.7-0.5-1.2c0-0.5,0.2-0.9,0.5-1.2s0.8-0.5,1.3-0.5L324.8,1291.6z
			 M322.7,1294.2c0.2,0.2,0.4,0.2,0.7,0.2c0.3,0,0.7-0.1,1-0.2c0.5-0.3,0.8-0.7,0.8-1.3v-0.8c-0.1,0.1-0.3,0.1-0.5,0.2
			c-0.2,0.1-0.4,0.1-0.5,0.1l-0.6,0.1c-0.4,0-0.6,0.1-0.8,0.2c-0.3,0.2-0.4,0.4-0.4,0.8C322.4,1293.8,322.5,1294,322.7,1294.2z"/>
		<path class="st3" d="M327.8,1289.3h0.9v1c0.1-0.2,0.3-0.4,0.6-0.7c0.3-0.3,0.6-0.4,1-0.4c0,0,0,0,0.1,0s0.1,0,0.2,0v1
			c-0.1,0-0.1,0-0.2,0c0,0-0.1,0-0.2,0c-0.5,0-0.9,0.2-1.1,0.5c-0.3,0.3-0.4,0.7-0.4,1.1v3.3h-1V1289.3z"/>
		<path class="st3" d="M331.7,1287.7h1v1.6h0.9v0.8h-0.9v3.8c0,0.2,0.1,0.3,0.2,0.4c0.1,0,0.2,0.1,0.4,0.1c0,0,0.1,0,0.2,0
			c0.1,0,0.1,0,0.2,0v0.8c-0.1,0-0.2,0.1-0.3,0.1c-0.1,0-0.2,0-0.4,0c-0.5,0-0.8-0.1-0.9-0.3c-0.2-0.2-0.2-0.5-0.2-0.9v-3.8h-0.8
			v-0.8h0.8V1287.7z"/>
		<path class="st3" d="M338,1287.2h1.1v7.9H338V1287.2z"/>
		<path class="st3" d="M346.4,1287.8c0.5,0.5,0.8,1.1,0.9,1.8h-1c-0.1-0.5-0.3-0.9-0.7-1.2c-0.3-0.3-0.8-0.4-1.5-0.4
			c-0.8,0-1.4,0.3-1.8,0.8c-0.5,0.5-0.7,1.4-0.7,2.5c0,0.9,0.2,1.7,0.6,2.2s1.1,0.9,1.9,0.9c0.8,0,1.4-0.3,1.8-0.9
			c0.2-0.3,0.4-0.7,0.5-1.3h1c-0.1,0.8-0.4,1.5-0.9,2.1c-0.6,0.7-1.5,1-2.5,1c-0.9,0-1.7-0.3-2.3-0.8c-0.8-0.7-1.2-1.9-1.2-3.4
			c0-1.2,0.3-2.1,0.9-2.9c0.7-0.8,1.6-1.2,2.7-1.2C345,1287,345.8,1287.2,346.4,1287.8z"/>
	</g>
	<g id="パス_1701" transform="translate(225 1319.242)">
		<path class="st3" d="M139.5,39.5H0.5v-39h139V39.5z"/>
		<path class="st4" d="M1,1v38h138V1H1 M0,0h140v40H0V0z"/>
	</g>
	<g class="st2">
		<path class="st5" d="M272.6,1330.2v0.9H270v7h-1.1v-7h-2.7v-0.9H272.6z"/>
		<path class="st5" d="M274,1332.4v3.8c0,0.3,0,0.5,0.1,0.7c0.2,0.3,0.5,0.5,0.9,0.5c0.7,0,1.1-0.3,1.3-0.9c0.1-0.3,0.2-0.8,0.2-1.3
			v-2.8h1v5.8h-0.9l0-0.8c-0.1,0.2-0.3,0.4-0.5,0.6c-0.4,0.3-0.8,0.5-1.3,0.5c-0.8,0-1.4-0.3-1.6-0.8c-0.2-0.3-0.2-0.7-0.2-1.2v-3.9
			H274z"/>
		<path class="st5" d="M279.2,1332.4h0.9v1c0.1-0.2,0.3-0.4,0.6-0.7s0.6-0.4,1-0.4c0,0,0,0,0.1,0s0.1,0,0.2,0v1c-0.1,0-0.1,0-0.2,0
			c0,0-0.1,0-0.2,0c-0.5,0-0.9,0.2-1.1,0.5s-0.4,0.7-0.4,1.1v3.3h-1V1332.4z"/>
		<path class="st5" d="M282.9,1332.4h0.9v0.8c0.3-0.3,0.6-0.6,0.9-0.7s0.6-0.2,1-0.2c0.8,0,1.4,0.3,1.7,0.9c0.2,0.3,0.2,0.8,0.2,1.3
			v3.7h-1v-3.6c0-0.4-0.1-0.6-0.2-0.8c-0.2-0.4-0.5-0.5-0.9-0.5c-0.2,0-0.4,0-0.6,0.1c-0.3,0.1-0.5,0.2-0.7,0.5
			c-0.2,0.2-0.3,0.4-0.3,0.6c0,0.2-0.1,0.5-0.1,0.9v3h-1V1332.4z"/>
		<path class="st5" d="M292.1,1332.4h0.9v1c0.1-0.2,0.3-0.4,0.6-0.7s0.6-0.4,1-0.4c0,0,0,0,0.1,0s0.1,0,0.2,0v1c-0.1,0-0.1,0-0.2,0
			c0,0-0.1,0-0.2,0c-0.5,0-0.9,0.2-1.1,0.5s-0.4,0.7-0.4,1.1v3.3h-1V1332.4z"/>
		<path class="st5" d="M295.7,1330.2h1v1.1h-1V1330.2z M295.7,1332.4h1v5.7h-1V1332.4z"/>
		<path class="st5" d="M301.3,1332.6c0.2,0.1,0.4,0.3,0.6,0.5v-0.7h0.9v5.2c0,0.7-0.1,1.3-0.3,1.7c-0.4,0.8-1.2,1.2-2.3,1.2
			c-0.6,0-1.1-0.1-1.6-0.4s-0.7-0.7-0.7-1.3h1c0,0.3,0.1,0.5,0.3,0.6c0.2,0.2,0.6,0.3,1,0.3c0.7,0,1.2-0.3,1.4-0.8
			c0.1-0.3,0.2-0.9,0.2-1.6c-0.2,0.3-0.4,0.5-0.7,0.7c-0.3,0.1-0.6,0.2-1.1,0.2c-0.6,0-1.2-0.2-1.6-0.7c-0.5-0.4-0.7-1.2-0.7-2.2
			c0-1,0.2-1.7,0.7-2.3c0.5-0.5,1-0.8,1.7-0.8C300.6,1332.3,301,1332.4,301.3,1332.6z M301.5,1333.6c-0.3-0.3-0.7-0.5-1.1-0.5
			c-0.7,0-1.1,0.3-1.4,1c-0.1,0.3-0.2,0.8-0.2,1.3c0,0.6,0.1,1.1,0.4,1.5c0.3,0.3,0.6,0.5,1.1,0.5c0.7,0,1.2-0.3,1.5-0.9
			c0.2-0.4,0.2-0.8,0.2-1.2C301.9,1334.5,301.7,1334,301.5,1333.6z"/>
		<path class="st5" d="M304.3,1330.2h1v2.9c0.2-0.3,0.4-0.5,0.6-0.6c0.3-0.2,0.7-0.3,1.2-0.3c0.8,0,1.4,0.3,1.7,0.9
			c0.2,0.3,0.2,0.8,0.2,1.3v3.7h-1v-3.6c0-0.4-0.1-0.7-0.2-0.9c-0.2-0.3-0.5-0.5-1-0.5c-0.4,0-0.8,0.1-1.1,0.4
			c-0.3,0.3-0.5,0.8-0.5,1.6v3.1h-1V1330.2z"/>
		<path class="st5" d="M310.6,1330.8h1v1.6h0.9v0.8h-0.9v3.8c0,0.2,0.1,0.3,0.2,0.4c0.1,0,0.2,0.1,0.4,0.1c0,0,0.1,0,0.2,0
			c0.1,0,0.1,0,0.2,0v0.8c-0.1,0-0.2,0.1-0.3,0.1c-0.1,0-0.2,0-0.4,0c-0.5,0-0.8-0.1-0.9-0.3c-0.2-0.2-0.2-0.5-0.2-0.9v-3.8h-0.8
			v-0.8h0.8V1330.8z"/>
		<path class="st5" d="M319.6,1334.6c0.2,0,0.4-0.1,0.4-0.3c0-0.1,0.1-0.2,0.1-0.4c0-0.3-0.1-0.6-0.4-0.7c-0.2-0.1-0.6-0.2-1-0.2
			c-0.5,0-0.9,0.1-1.1,0.4c-0.1,0.2-0.2,0.4-0.2,0.7h-0.9c0-0.7,0.2-1.2,0.7-1.5s1-0.4,1.5-0.4c0.7,0,1.2,0.1,1.6,0.4
			c0.4,0.3,0.6,0.7,0.6,1.2v3.3c0,0.1,0,0.2,0.1,0.2c0,0.1,0.1,0.1,0.3,0.1c0,0,0.1,0,0.1,0c0.1,0,0.1,0,0.2,0v0.7
			c-0.2,0-0.3,0.1-0.3,0.1c-0.1,0-0.2,0-0.3,0c-0.3,0-0.6-0.1-0.7-0.4c-0.1-0.1-0.1-0.3-0.2-0.5c-0.2,0.3-0.5,0.5-0.8,0.7
			c-0.4,0.2-0.8,0.3-1.2,0.3c-0.5,0-1-0.2-1.3-0.5c-0.3-0.3-0.5-0.7-0.5-1.2c0-0.5,0.2-0.9,0.5-1.2s0.8-0.5,1.3-0.5L319.6,1334.6z
			 M317.5,1337.3c0.2,0.2,0.4,0.2,0.7,0.2c0.3,0,0.7-0.1,1-0.2c0.5-0.3,0.8-0.7,0.8-1.3v-0.8c-0.1,0.1-0.3,0.1-0.5,0.2
			c-0.2,0.1-0.4,0.1-0.5,0.1l-0.6,0.1c-0.4,0-0.6,0.1-0.8,0.2c-0.3,0.2-0.4,0.4-0.4,0.8C317.2,1336.9,317.3,1337.1,317.5,1337.3z"/>
		<path class="st5" d="M322.8,1330.8h1v1.6h0.9v0.8h-0.9v3.8c0,0.2,0.1,0.3,0.2,0.4c0.1,0,0.2,0.1,0.4,0.1c0,0,0.1,0,0.2,0
			c0.1,0,0.1,0,0.2,0v0.8c-0.1,0-0.2,0.1-0.3,0.1c-0.1,0-0.2,0-0.4,0c-0.5,0-0.8-0.1-0.9-0.3c-0.2-0.2-0.2-0.5-0.2-0.9v-3.8H322
			v-0.8h0.8V1330.8z"/>
	</g>
	<g class="st2">
		<path class="st5" d="M239.9,1347.6c0,0.4,0.1,0.8,0.3,1.1c0.3,0.5,0.9,0.8,1.8,0.8c0.4,0,0.7-0.1,1.1-0.2c0.6-0.2,0.9-0.6,0.9-1.2
			c0-0.4-0.1-0.7-0.4-0.9c-0.3-0.2-0.7-0.3-1.2-0.5l-1-0.2c-0.7-0.2-1.2-0.3-1.4-0.5c-0.5-0.3-0.7-0.8-0.7-1.5
			c0-0.7,0.2-1.3,0.7-1.7c0.5-0.5,1.2-0.7,2-0.7c0.8,0,1.5,0.2,2.1,0.6c0.6,0.4,0.8,1,0.8,1.9h-1c-0.1-0.4-0.2-0.7-0.3-1
			c-0.3-0.4-0.8-0.6-1.6-0.6c-0.6,0-1,0.1-1.3,0.4s-0.4,0.6-0.4,0.9c0,0.4,0.2,0.7,0.5,0.8c0.2,0.1,0.7,0.3,1.4,0.4l1.1,0.3
			c0.5,0.1,0.9,0.3,1.2,0.5c0.5,0.4,0.7,0.9,0.7,1.6c0,0.9-0.3,1.5-0.9,1.9c-0.6,0.4-1.3,0.6-2.2,0.6c-1,0-1.7-0.2-2.2-0.8
			c-0.5-0.5-0.8-1.2-0.8-2H239.9z"/>
		<path class="st5" d="M249.5,1346.6c0.2,0,0.4-0.1,0.4-0.3c0-0.1,0.1-0.2,0.1-0.4c0-0.3-0.1-0.6-0.4-0.7c-0.2-0.1-0.6-0.2-1-0.2
			c-0.5,0-0.9,0.1-1.1,0.4c-0.1,0.2-0.2,0.4-0.2,0.7h-0.9c0-0.7,0.2-1.2,0.7-1.5c0.4-0.3,1-0.4,1.5-0.4c0.7,0,1.2,0.1,1.6,0.4
			c0.4,0.3,0.6,0.7,0.6,1.2v3.3c0,0.1,0,0.2,0.1,0.2c0,0.1,0.1,0.1,0.3,0.1c0,0,0.1,0,0.1,0c0.1,0,0.1,0,0.2,0v0.7
			c-0.2,0-0.3,0.1-0.3,0.1s-0.2,0-0.3,0c-0.3,0-0.6-0.1-0.7-0.4c-0.1-0.1-0.1-0.3-0.2-0.5c-0.2,0.3-0.5,0.5-0.8,0.7
			c-0.4,0.2-0.8,0.3-1.2,0.3c-0.5,0-1-0.2-1.3-0.5c-0.3-0.3-0.5-0.7-0.5-1.2c0-0.5,0.2-0.9,0.5-1.2s0.8-0.5,1.3-0.5L249.5,1346.6z
			 M247.4,1349.3c0.2,0.2,0.4,0.2,0.7,0.2c0.3,0,0.7-0.1,1-0.2c0.5-0.3,0.8-0.7,0.8-1.3v-0.8c-0.1,0.1-0.3,0.1-0.5,0.2
			c-0.2,0.1-0.4,0.1-0.5,0.1l-0.6,0.1c-0.4,0-0.6,0.1-0.8,0.2c-0.3,0.2-0.4,0.4-0.4,0.8C247.1,1348.9,247.2,1349.1,247.4,1349.3z"/>
		<path class="st5" d="M252.5,1344.4h0.9v1c0.1-0.2,0.3-0.4,0.6-0.7s0.6-0.4,1-0.4c0,0,0,0,0.1,0s0.1,0,0.2,0v1c-0.1,0-0.1,0-0.2,0
			c0,0-0.1,0-0.2,0c-0.5,0-0.9,0.2-1.1,0.5s-0.4,0.7-0.4,1.1v3.3h-1V1344.4z"/>
		<path class="st5" d="M259.2,1346.6c0.2,0,0.4-0.1,0.4-0.3c0-0.1,0.1-0.2,0.1-0.4c0-0.3-0.1-0.6-0.4-0.7c-0.2-0.1-0.6-0.2-1-0.2
			c-0.5,0-0.9,0.1-1.1,0.4c-0.1,0.2-0.2,0.4-0.2,0.7h-0.9c0-0.7,0.2-1.2,0.7-1.5c0.4-0.3,1-0.4,1.5-0.4c0.7,0,1.2,0.1,1.6,0.4
			c0.4,0.3,0.6,0.7,0.6,1.2v3.3c0,0.1,0,0.2,0.1,0.2c0,0.1,0.1,0.1,0.3,0.1c0,0,0.1,0,0.1,0c0.1,0,0.1,0,0.2,0v0.7
			c-0.2,0-0.3,0.1-0.3,0.1s-0.2,0-0.3,0c-0.3,0-0.6-0.1-0.7-0.4c-0.1-0.1-0.1-0.3-0.2-0.5c-0.2,0.3-0.5,0.5-0.8,0.7
			c-0.4,0.2-0.8,0.3-1.2,0.3c-0.5,0-1-0.2-1.3-0.5c-0.3-0.3-0.5-0.7-0.5-1.2c0-0.5,0.2-0.9,0.5-1.2s0.8-0.5,1.3-0.5L259.2,1346.6z
			 M257.2,1349.3c0.2,0.2,0.4,0.2,0.7,0.2c0.3,0,0.7-0.1,1-0.2c0.5-0.3,0.8-0.7,0.8-1.3v-0.8c-0.1,0.1-0.3,0.1-0.5,0.2
			c-0.2,0.1-0.4,0.1-0.5,0.1l-0.6,0.1c-0.4,0-0.6,0.1-0.8,0.2c-0.3,0.2-0.4,0.4-0.4,0.8C256.9,1348.9,257,1349.1,257.2,1349.3z"/>
		<path class="st5" d="M262.9,1348.3c0,0.3,0.1,0.6,0.2,0.7c0.2,0.3,0.7,0.5,1.3,0.5c0.4,0,0.7-0.1,1-0.2c0.3-0.2,0.4-0.4,0.4-0.7
			c0-0.2-0.1-0.4-0.3-0.6c-0.1-0.1-0.4-0.2-0.8-0.3l-0.8-0.2c-0.5-0.1-0.9-0.3-1.1-0.4c-0.4-0.3-0.6-0.6-0.6-1.1
			c0-0.5,0.2-1,0.6-1.3c0.4-0.3,0.9-0.5,1.6-0.5c0.9,0,1.5,0.3,1.9,0.8c0.2,0.3,0.4,0.7,0.4,1h-0.9c0-0.2-0.1-0.4-0.2-0.6
			c-0.2-0.3-0.6-0.4-1.2-0.4c-0.4,0-0.7,0.1-0.8,0.2c-0.2,0.1-0.3,0.3-0.3,0.6c0,0.2,0.1,0.5,0.4,0.6c0.1,0.1,0.4,0.2,0.6,0.2
			l0.7,0.2c0.7,0.2,1.2,0.3,1.4,0.5c0.4,0.2,0.6,0.6,0.6,1.2c0,0.5-0.2,1-0.6,1.3c-0.4,0.4-1,0.6-1.8,0.6c-0.9,0-1.5-0.2-1.8-0.6
			s-0.6-0.9-0.6-1.4H262.9z"/>
		<path class="st5" d="M267.8,1342.2h1v2.9c0.2-0.3,0.4-0.5,0.6-0.6c0.3-0.2,0.7-0.3,1.2-0.3c0.8,0,1.4,0.3,1.7,0.9
			c0.2,0.3,0.2,0.8,0.2,1.3v3.7h-1v-3.6c0-0.4-0.1-0.7-0.2-0.9c-0.2-0.3-0.5-0.5-1-0.5c-0.4,0-0.8,0.1-1.1,0.4
			c-0.3,0.3-0.5,0.8-0.5,1.6v3.1h-1V1342.2z"/>
		<path class="st5" d="M273.9,1342.2h1v1.1h-1V1342.2z M273.9,1344.4h1v5.7h-1V1344.4z"/>
		<path class="st5" d="M276.3,1344.4h0.9v0.8c0.3-0.3,0.6-0.6,0.9-0.7s0.6-0.2,1-0.2c0.8,0,1.4,0.3,1.7,0.9c0.2,0.3,0.2,0.8,0.2,1.3
			v3.7h-1v-3.6c0-0.4-0.1-0.6-0.2-0.8c-0.2-0.4-0.5-0.5-0.9-0.5c-0.2,0-0.4,0-0.6,0.1c-0.3,0.1-0.5,0.2-0.7,0.5
			c-0.2,0.2-0.3,0.4-0.3,0.6c0,0.2-0.1,0.5-0.1,0.9v3h-1V1344.4z"/>
		<path class="st5" d="M285.5,1346.6c0.2,0,0.4-0.1,0.4-0.3c0-0.1,0.1-0.2,0.1-0.4c0-0.3-0.1-0.6-0.4-0.7c-0.2-0.1-0.6-0.2-1-0.2
			c-0.5,0-0.9,0.1-1.1,0.4c-0.1,0.2-0.2,0.4-0.2,0.7h-0.9c0-0.7,0.2-1.2,0.7-1.5c0.4-0.3,1-0.4,1.5-0.4c0.7,0,1.2,0.1,1.6,0.4
			c0.4,0.3,0.6,0.7,0.6,1.2v3.3c0,0.1,0,0.2,0.1,0.2c0,0.1,0.1,0.1,0.3,0.1c0,0,0.1,0,0.1,0c0.1,0,0.1,0,0.2,0v0.7
			c-0.2,0-0.3,0.1-0.3,0.1s-0.2,0-0.3,0c-0.3,0-0.6-0.1-0.7-0.4c-0.1-0.1-0.1-0.3-0.2-0.5c-0.2,0.3-0.5,0.5-0.8,0.7
			c-0.4,0.2-0.8,0.3-1.2,0.3c-0.5,0-1-0.2-1.3-0.5c-0.3-0.3-0.5-0.7-0.5-1.2c0-0.5,0.2-0.9,0.5-1.2s0.8-0.5,1.3-0.5L285.5,1346.6z
			 M283.5,1349.3c0.2,0.2,0.4,0.2,0.7,0.2c0.3,0,0.7-0.1,1-0.2c0.5-0.3,0.8-0.7,0.8-1.3v-0.8c-0.1,0.1-0.3,0.1-0.5,0.2
			c-0.2,0.1-0.4,0.1-0.5,0.1l-0.6,0.1c-0.4,0-0.6,0.1-0.8,0.2c-0.3,0.2-0.4,0.4-0.4,0.8C283.2,1348.9,283.3,1349.1,283.5,1349.3z"/>
		<path class="st5" d="M291.9,1342.2h5.7v1h-4.7v2.4h4.3v0.9h-4.3v2.7h4.8v0.9h-5.8V1342.2z"/>
		<path class="st5" d="M299.2,1348.9h1.1v1.2h-1.1V1348.9z"/>
		<path class="st5" d="M302.9,1347.6c0,0.4,0.1,0.8,0.3,1.1c0.3,0.5,0.9,0.8,1.8,0.8c0.4,0,0.7-0.1,1.1-0.2c0.6-0.2,0.9-0.6,0.9-1.2
			c0-0.4-0.1-0.7-0.4-0.9c-0.3-0.2-0.7-0.3-1.2-0.5l-1-0.2c-0.7-0.2-1.2-0.3-1.4-0.5c-0.5-0.3-0.7-0.8-0.7-1.5
			c0-0.7,0.2-1.3,0.7-1.7c0.5-0.5,1.2-0.7,2-0.7c0.8,0,1.5,0.2,2.1,0.6c0.6,0.4,0.8,1,0.8,1.9h-1c-0.1-0.4-0.2-0.7-0.3-1
			c-0.3-0.4-0.8-0.6-1.6-0.6c-0.6,0-1,0.1-1.3,0.4c-0.3,0.3-0.4,0.6-0.4,0.9c0,0.4,0.2,0.7,0.5,0.8c0.2,0.1,0.7,0.3,1.4,0.4l1.1,0.3
			c0.5,0.1,0.9,0.3,1.2,0.5c0.5,0.4,0.7,0.9,0.7,1.6c0,0.9-0.3,1.5-0.9,1.9c-0.6,0.4-1.3,0.6-2.2,0.6c-1,0-1.7-0.2-2.2-0.8
			c-0.5-0.5-0.8-1.2-0.8-2H302.9z"/>
		<path class="st5" d="M316.2,1344.7c0.4,0.3,0.7,0.9,0.7,1.6H316c-0.1-0.4-0.2-0.6-0.4-0.9c-0.2-0.2-0.5-0.4-1-0.4
			c-0.6,0-1.1,0.3-1.3,0.9c-0.2,0.4-0.3,0.9-0.3,1.4c0,0.6,0.1,1.1,0.4,1.5s0.6,0.6,1.1,0.6c0.4,0,0.7-0.1,1-0.4s0.4-0.6,0.5-1h0.9
			c-0.1,0.8-0.4,1.3-0.8,1.7s-1,0.5-1.6,0.5c-0.8,0-1.4-0.3-1.8-0.8c-0.4-0.5-0.7-1.2-0.7-2.1c0-1,0.2-1.8,0.7-2.4
			c0.5-0.6,1.1-0.8,1.9-0.8C315.3,1344.2,315.8,1344.4,316.2,1344.7z"/>
		<path class="st5" d="M317.9,1344.4h0.9v1c0.1-0.2,0.3-0.4,0.6-0.7s0.6-0.4,1-0.4c0,0,0,0,0.1,0s0.1,0,0.2,0v1c-0.1,0-0.1,0-0.2,0
			c0,0-0.1,0-0.2,0c-0.5,0-0.9,0.2-1.1,0.5c-0.3,0.3-0.4,0.7-0.4,1.1v3.3h-1V1344.4z"/>
		<path class="st5" d="M325.7,1344.9c0.5,0.5,0.8,1.2,0.8,2.2c0,0.9-0.2,1.7-0.7,2.3c-0.4,0.6-1.1,0.9-2.1,0.9
			c-0.8,0-1.4-0.3-1.9-0.8c-0.5-0.5-0.7-1.3-0.7-2.2c0-1,0.2-1.7,0.7-2.3c0.5-0.6,1.1-0.9,2-0.9
			C324.6,1344.2,325.2,1344.4,325.7,1344.9z M325.1,1348.8c0.2-0.5,0.4-1,0.4-1.6c0-0.5-0.1-1-0.3-1.3c-0.3-0.5-0.7-0.8-1.4-0.8
			c-0.6,0-1,0.2-1.3,0.7c-0.3,0.5-0.4,1-0.4,1.6c0,0.6,0.1,1.1,0.4,1.5c0.3,0.4,0.7,0.6,1.3,0.6
			C324.5,1349.5,324.9,1349.2,325.1,1348.8z"/>
		<path class="st5" d="M328.3,1348.3c0,0.3,0.1,0.6,0.2,0.7c0.2,0.3,0.7,0.5,1.3,0.5c0.4,0,0.7-0.1,1-0.2c0.3-0.2,0.4-0.4,0.4-0.7
			c0-0.2-0.1-0.4-0.3-0.6c-0.1-0.1-0.4-0.2-0.8-0.3l-0.8-0.2c-0.5-0.1-0.9-0.3-1.1-0.4c-0.4-0.3-0.6-0.6-0.6-1.1
			c0-0.5,0.2-1,0.6-1.3c0.4-0.3,0.9-0.5,1.6-0.5c0.9,0,1.5,0.3,1.9,0.8c0.2,0.3,0.4,0.7,0.4,1H331c0-0.2-0.1-0.4-0.2-0.6
			c-0.2-0.3-0.6-0.4-1.2-0.4c-0.4,0-0.7,0.1-0.8,0.2c-0.2,0.1-0.3,0.3-0.3,0.6c0,0.2,0.1,0.5,0.4,0.6c0.1,0.1,0.4,0.2,0.6,0.2
			l0.7,0.2c0.7,0.2,1.2,0.3,1.4,0.5c0.4,0.2,0.6,0.6,0.6,1.2c0,0.5-0.2,1-0.6,1.3c-0.4,0.4-1,0.6-1.8,0.6c-0.9,0-1.5-0.2-1.8-0.6
			s-0.6-0.9-0.6-1.4H328.3z"/>
		<path class="st5" d="M333.8,1348.3c0,0.3,0.1,0.6,0.2,0.7c0.2,0.3,0.7,0.5,1.3,0.5c0.4,0,0.7-0.1,1-0.2c0.3-0.2,0.4-0.4,0.4-0.7
			c0-0.2-0.1-0.4-0.3-0.6c-0.1-0.1-0.4-0.2-0.8-0.3l-0.8-0.2c-0.5-0.1-0.9-0.3-1.1-0.4c-0.4-0.3-0.6-0.6-0.6-1.1
			c0-0.5,0.2-1,0.6-1.3c0.4-0.3,0.9-0.5,1.6-0.5c0.9,0,1.5,0.3,1.9,0.8c0.2,0.3,0.4,0.7,0.4,1h-0.9c0-0.2-0.1-0.4-0.2-0.6
			c-0.2-0.3-0.6-0.4-1.2-0.4c-0.4,0-0.7,0.1-0.8,0.2c-0.2,0.1-0.3,0.3-0.3,0.6c0,0.2,0.1,0.5,0.4,0.6c0.1,0.1,0.4,0.2,0.6,0.2
			l0.7,0.2c0.7,0.2,1.2,0.3,1.4,0.5c0.4,0.2,0.6,0.6,0.6,1.2c0,0.5-0.2,1-0.6,1.3c-0.4,0.4-1,0.6-1.8,0.6c-0.9,0-1.5-0.2-1.8-0.6
			s-0.6-0.9-0.6-1.4H333.8z"/>
		<path class="st5" d="M338.7,1342.2h1v1.1h-1V1342.2z M338.7,1344.4h1v5.7h-1V1344.4z"/>
		<path class="st5" d="M341.1,1344.4h0.9v0.8c0.3-0.3,0.6-0.6,0.9-0.7c0.3-0.1,0.6-0.2,1-0.2c0.8,0,1.4,0.3,1.7,0.9
			c0.2,0.3,0.2,0.8,0.2,1.3v3.7h-1v-3.6c0-0.4-0.1-0.6-0.2-0.8c-0.2-0.4-0.5-0.5-0.9-0.5c-0.2,0-0.4,0-0.6,0.1
			c-0.3,0.1-0.5,0.2-0.7,0.5c-0.2,0.2-0.3,0.4-0.3,0.6c0,0.2-0.1,0.5-0.1,0.9v3h-1V1344.4z"/>
		<path class="st5" d="M350.5,1344.6c0.2,0.1,0.4,0.3,0.6,0.5v-0.7h0.9v5.2c0,0.7-0.1,1.3-0.3,1.7c-0.4,0.8-1.2,1.2-2.3,1.2
			c-0.6,0-1.1-0.1-1.6-0.4c-0.4-0.3-0.7-0.7-0.7-1.3h1c0,0.3,0.1,0.5,0.3,0.6c0.2,0.2,0.6,0.3,1,0.3c0.7,0,1.2-0.3,1.4-0.8
			c0.1-0.3,0.2-0.9,0.2-1.6c-0.2,0.3-0.4,0.5-0.7,0.7c-0.3,0.1-0.6,0.2-1.1,0.2c-0.6,0-1.2-0.2-1.6-0.7c-0.5-0.4-0.7-1.2-0.7-2.2
			c0-1,0.2-1.7,0.7-2.3c0.5-0.5,1-0.8,1.7-0.8C349.7,1344.3,350.1,1344.4,350.5,1344.6z M350.6,1345.6c-0.3-0.3-0.7-0.5-1.1-0.5
			c-0.7,0-1.1,0.3-1.4,1c-0.1,0.3-0.2,0.8-0.2,1.3c0,0.6,0.1,1.1,0.4,1.5c0.3,0.3,0.6,0.5,1.1,0.5c0.7,0,1.2-0.3,1.5-0.9
			c0.2-0.4,0.2-0.8,0.2-1.2C351,1346.5,350.9,1346,350.6,1345.6z"/>
	</g>
	<g id="パス_1701-2" transform="translate(255 1120)">
		<path class="st3" d="M79.5,24.5h-79v-24h79V24.5z"/>
		<path class="st4" d="M1,1v23h78V1H1 M0,0h80v25H0V0z"/>
	</g>
	<g class="st2">
		<path class="st5" d="M265.9,1129.9h1v3.9l3.9-3.9h1.5l-3.4,3.2l3.4,4.7H271l-2.8-4l-1.3,1.2v2.8h-1V1129.9z"/>
		<path class="st5" d="M277.3,1132.6c0.5,0.5,0.8,1.2,0.8,2.2c0,0.9-0.2,1.7-0.7,2.3c-0.4,0.6-1.1,0.9-2.1,0.9
			c-0.8,0-1.4-0.3-1.9-0.8c-0.5-0.5-0.7-1.3-0.7-2.2c0-1,0.2-1.7,0.7-2.3c0.5-0.6,1.1-0.9,2-0.9
			C276.1,1131.9,276.8,1132.1,277.3,1132.6z M276.7,1136.4c0.2-0.5,0.4-1,0.4-1.6c0-0.5-0.1-1-0.3-1.3c-0.3-0.5-0.7-0.8-1.4-0.8
			c-0.6,0-1,0.2-1.3,0.7c-0.3,0.5-0.4,1-0.4,1.6c0,0.6,0.1,1.1,0.4,1.5c0.3,0.4,0.7,0.6,1.3,0.6
			C276,1137.2,276.4,1136.9,276.7,1136.4z"/>
		<path class="st5" d="M279.2,1132h1v0.8c0.2-0.3,0.4-0.5,0.6-0.6c0.3-0.2,0.7-0.3,1.1-0.3c0.5,0,0.8,0.1,1.1,0.3
			c0.2,0.1,0.3,0.3,0.4,0.6c0.2-0.3,0.5-0.5,0.8-0.7s0.6-0.2,1-0.2c0.8,0,1.3,0.3,1.6,0.8c0.2,0.3,0.2,0.7,0.2,1.2v3.8h-1v-4
			c0-0.4-0.1-0.6-0.3-0.8c-0.2-0.1-0.4-0.2-0.7-0.2c-0.4,0-0.7,0.1-1,0.4c-0.3,0.3-0.4,0.7-0.4,1.3v3.3h-1v-3.8c0-0.4,0-0.7-0.1-0.9
			c-0.1-0.3-0.4-0.4-0.8-0.4c-0.4,0-0.7,0.1-1,0.4c-0.3,0.3-0.4,0.8-0.4,1.5v3.1h-1V1132z"/>
		<path class="st5" d="M291.5,1134.3c0.2,0,0.4-0.1,0.4-0.3c0-0.1,0.1-0.2,0.1-0.4c0-0.3-0.1-0.6-0.4-0.7c-0.2-0.1-0.6-0.2-1-0.2
			c-0.5,0-0.9,0.1-1.1,0.4c-0.1,0.2-0.2,0.4-0.2,0.7h-0.9c0-0.7,0.2-1.2,0.7-1.5c0.4-0.3,1-0.4,1.5-0.4c0.7,0,1.2,0.1,1.6,0.4
			c0.4,0.3,0.6,0.7,0.6,1.2v3.3c0,0.1,0,0.2,0.1,0.2c0,0.1,0.1,0.1,0.3,0.1c0,0,0.1,0,0.1,0c0.1,0,0.1,0,0.2,0v0.7
			c-0.2,0-0.3,0.1-0.3,0.1s-0.2,0-0.3,0c-0.3,0-0.6-0.1-0.7-0.4c-0.1-0.1-0.1-0.3-0.2-0.5c-0.2,0.3-0.5,0.5-0.8,0.7
			c-0.4,0.2-0.8,0.3-1.2,0.3c-0.5,0-1-0.2-1.3-0.5c-0.3-0.3-0.5-0.7-0.5-1.2c0-0.5,0.2-0.9,0.5-1.2s0.8-0.5,1.3-0.5L291.5,1134.3z
			 M289.4,1136.9c0.2,0.2,0.4,0.2,0.7,0.2c0.3,0,0.7-0.1,1-0.2c0.5-0.3,0.8-0.7,0.8-1.3v-0.8c-0.1,0.1-0.3,0.1-0.5,0.2
			c-0.2,0.1-0.4,0.1-0.5,0.1l-0.6,0.1c-0.4,0-0.6,0.1-0.8,0.2c-0.3,0.2-0.4,0.4-0.4,0.8C289.1,1136.5,289.2,1136.8,289.4,1136.9z"/>
		<path class="st5" d="M294.5,1129.9h0.9v4.6l2.5-2.4h1.2l-2.2,2.1l2.3,3.6H298l-1.8-2.9l-0.8,0.8v2.2h-0.9V1129.9z"/>
		<path class="st5" d="M300,1129.9h1v1.1h-1V1129.9z M300,1132.1h1v5.7h-1V1132.1z"/>
		<path class="st5" d="M309.5,1135.4c0,0.7-0.1,1.2-0.3,1.6c-0.4,0.7-1.1,1-2.1,1c-0.6,0-1.1-0.2-1.5-0.5c-0.4-0.3-0.6-0.9-0.6-1.7
			v-0.6h1v0.6c0,0.4,0.1,0.8,0.3,1s0.5,0.3,0.9,0.3c0.6,0,0.9-0.2,1.1-0.6c0.1-0.2,0.2-0.7,0.2-1.4v-5.3h1.1V1135.4z"/>
		<path class="st5" d="M316.7,1130.5c0.5,0.5,0.8,1.1,0.9,1.8h-1c-0.1-0.5-0.3-0.9-0.7-1.2c-0.3-0.3-0.8-0.4-1.5-0.4
			c-0.8,0-1.4,0.3-1.8,0.8c-0.5,0.5-0.7,1.4-0.7,2.5c0,0.9,0.2,1.7,0.6,2.2s1.1,0.9,1.9,0.9c0.8,0,1.4-0.3,1.8-0.9
			c0.2-0.3,0.4-0.7,0.5-1.3h1c-0.1,0.8-0.4,1.5-0.9,2.1c-0.6,0.7-1.5,1-2.5,1c-0.9,0-1.7-0.3-2.3-0.8c-0.8-0.7-1.2-1.9-1.2-3.4
			c0-1.2,0.3-2.1,0.9-2.9c0.7-0.8,1.6-1.2,2.7-1.2C315.4,1129.7,316.2,1130,316.7,1130.5z"/>
		<path class="st5" d="M324.8,1129.9v0.9h-2.7v7h-1.1v-7h-2.7v-0.9H324.8z"/>
	</g>
	<g id="パス_1701-3" transform="translate(255 1196.475)">
		<path class="st3" d="M79.5,24.5h-79v-24h79V24.5z"/>
		<path class="st4" d="M1,1v23h78V1H1 M0,0h80v25H0V0z"/>
	</g>
	<g class="st2">
		<path class="st5" d="M274.8,1207.5c0.5,0.7,0.8,1.6,0.8,2.7c0,1.2-0.3,2.2-0.9,2.9c-0.7,0.9-1.7,1.4-3,1.4c-1.2,0-2.2-0.4-2.9-1.2
			c-0.6-0.8-0.9-1.8-0.9-2.9c0-1.1,0.3-2,0.8-2.7c0.7-1,1.7-1.5,3-1.5C273.1,1206.2,274.2,1206.6,274.8,1207.5z M273.9,1212.5
			c0.4-0.7,0.6-1.5,0.6-2.3c0-0.9-0.2-1.7-0.7-2.2c-0.5-0.6-1.1-0.8-2-0.8c-0.8,0-1.5,0.3-2,0.8c-0.5,0.6-0.8,1.4-0.8,2.5
			c0,0.9,0.2,1.6,0.7,2.2c0.4,0.6,1.2,0.9,2.2,0.9C272.8,1213.6,273.5,1213.2,273.9,1212.5z"/>
		<path class="st5" d="M276.7,1206.4h0.9v4.6l2.5-2.4h1.2l-2.2,2.1l2.3,3.6h-1.2l-1.8-2.9l-0.8,0.8v2.2h-0.9V1206.4z"/>
		<path class="st5" d="M285.3,1210.8c0.2,0,0.4-0.1,0.4-0.3c0-0.1,0.1-0.2,0.1-0.4c0-0.3-0.1-0.6-0.4-0.7c-0.2-0.1-0.6-0.2-1-0.2
			c-0.5,0-0.9,0.1-1.1,0.4c-0.1,0.2-0.2,0.4-0.2,0.7h-0.9c0-0.7,0.2-1.2,0.7-1.5c0.4-0.3,1-0.4,1.5-0.4c0.7,0,1.2,0.1,1.6,0.4
			c0.4,0.3,0.6,0.7,0.6,1.2v3.3c0,0.1,0,0.2,0.1,0.2c0,0.1,0.1,0.1,0.3,0.1c0,0,0.1,0,0.1,0c0.1,0,0.1,0,0.2,0v0.7
			c-0.2,0-0.3,0.1-0.3,0.1s-0.2,0-0.3,0c-0.3,0-0.6-0.1-0.7-0.4c-0.1-0.1-0.1-0.3-0.2-0.5c-0.2,0.3-0.5,0.5-0.8,0.7
			c-0.4,0.2-0.8,0.3-1.2,0.3c-0.5,0-1-0.2-1.3-0.5c-0.3-0.3-0.5-0.7-0.5-1.2c0-0.5,0.2-0.9,0.5-1.2s0.8-0.5,1.3-0.5L285.3,1210.8z
			 M283.3,1213.4c0.2,0.2,0.4,0.2,0.7,0.2c0.3,0,0.7-0.1,1-0.2c0.5-0.3,0.8-0.7,0.8-1.3v-0.8c-0.1,0.1-0.3,0.1-0.5,0.2
			c-0.2,0.1-0.4,0.1-0.5,0.1l-0.6,0.1c-0.4,0-0.6,0.1-0.8,0.2c-0.3,0.2-0.4,0.4-0.4,0.8C283,1213,283.1,1213.2,283.3,1213.4z"/>
		<path class="st5" d="M292,1208.5h1.1c-0.1,0.4-0.4,1.2-0.9,2.5c-0.4,1-0.6,1.8-0.9,2.4c-0.6,1.5-1,2.4-1.2,2.7s-0.6,0.5-1.2,0.5
			c-0.1,0-0.2,0-0.3,0s-0.2,0-0.3-0.1v-0.9c0.2,0,0.3,0.1,0.4,0.1c0.1,0,0.1,0,0.2,0c0.2,0,0.3,0,0.4-0.1c0.1-0.1,0.2-0.1,0.2-0.2
			c0,0,0.1-0.2,0.2-0.4s0.2-0.5,0.2-0.6l-2.1-5.9h1.1l1.5,4.7L292,1208.5z"/>
		<path class="st5" d="M297,1210.8c0.2,0,0.4-0.1,0.4-0.3c0-0.1,0.1-0.2,0.1-0.4c0-0.3-0.1-0.6-0.4-0.7c-0.2-0.1-0.6-0.2-1-0.2
			c-0.5,0-0.9,0.1-1.1,0.4c-0.1,0.2-0.2,0.4-0.2,0.7h-0.9c0-0.7,0.2-1.2,0.7-1.5c0.4-0.3,1-0.4,1.5-0.4c0.7,0,1.2,0.1,1.6,0.4
			c0.4,0.3,0.6,0.7,0.6,1.2v3.3c0,0.1,0,0.2,0.1,0.2c0,0.1,0.1,0.1,0.3,0.1c0,0,0.1,0,0.1,0c0.1,0,0.1,0,0.2,0v0.7
			c-0.2,0-0.3,0.1-0.3,0.1c-0.1,0-0.2,0-0.3,0c-0.3,0-0.6-0.1-0.7-0.4c-0.1-0.1-0.1-0.3-0.2-0.5c-0.2,0.3-0.5,0.5-0.8,0.7
			c-0.4,0.2-0.8,0.3-1.2,0.3c-0.5,0-1-0.2-1.3-0.5c-0.3-0.3-0.5-0.7-0.5-1.2c0-0.5,0.2-0.9,0.5-1.2s0.8-0.5,1.3-0.5L297,1210.8z
			 M294.9,1213.4c0.2,0.2,0.4,0.2,0.7,0.2c0.3,0,0.7-0.1,1-0.2c0.5-0.3,0.8-0.7,0.8-1.3v-0.8c-0.1,0.1-0.3,0.1-0.5,0.2
			c-0.2,0.1-0.4,0.1-0.5,0.1l-0.6,0.1c-0.4,0-0.6,0.1-0.8,0.2c-0.3,0.2-0.4,0.4-0.4,0.8C294.6,1213,294.7,1213.2,294.9,1213.4z"/>
		<path class="st5" d="M307.1,1211.9c0,0.7-0.1,1.2-0.3,1.6c-0.4,0.7-1.1,1-2.1,1c-0.6,0-1.1-0.2-1.5-0.5c-0.4-0.3-0.6-0.9-0.6-1.7
			v-0.6h1v0.6c0,0.4,0.1,0.8,0.3,1c0.2,0.2,0.5,0.3,0.9,0.3c0.6,0,0.9-0.2,1.1-0.6c0.1-0.2,0.2-0.7,0.2-1.4v-5.3h1.1V1211.9z"/>
		<path class="st5" d="M314.3,1207c0.5,0.5,0.8,1.1,0.9,1.8h-1c-0.1-0.5-0.3-0.9-0.7-1.2c-0.3-0.3-0.8-0.4-1.5-0.4
			c-0.8,0-1.4,0.3-1.8,0.8c-0.5,0.5-0.7,1.4-0.7,2.5c0,0.9,0.2,1.7,0.6,2.2s1.1,0.9,1.9,0.9c0.8,0,1.4-0.3,1.8-0.9
			c0.2-0.3,0.4-0.7,0.5-1.3h1c-0.1,0.8-0.4,1.5-0.9,2.1c-0.6,0.7-1.5,1-2.5,1c-0.9,0-1.7-0.3-2.3-0.8c-0.8-0.7-1.2-1.9-1.2-3.4
			c0-1.2,0.3-2.1,0.9-2.9c0.7-0.8,1.6-1.2,2.7-1.2C312.9,1206.2,313.7,1206.4,314.3,1207z"/>
		<path class="st5" d="M322.4,1206.4v0.9h-2.7v7h-1.1v-7H316v-0.9H322.4z"/>
	</g>
</g>
</svg>
