<?xml version="1.0" encoding="utf-8"?>
<!-- Generator: Adobe Illustrator 24.3.0, SVG Export Plug-In . SVG Version: 6.00 Build 0)  -->
<svg version="1.1" id="レイヤー_1" xmlns="http://www.w3.org/2000/svg" xmlns:xlink="http://www.w3.org/1999/xlink" x="0px"
	 y="0px" viewBox="0 0 374.3 149.3" style="enable-background:new 0 0 374.3 149.3;" xml:space="preserve">
<style type="text/css">
	.st0{fill:#FFFFFF;}
	.st1{fill:none;stroke:#FFFFFF;stroke-width:1.55;stroke-miterlimit:10;}
	.st2{fill:none;stroke:#FFFFFF;stroke-width:1.54;stroke-miterlimit:10;}
	.st3{fill:#5B8DCD;}
</style>
<path class="st0" d="M301.8,109.4l-13.2-15c-1.5-1.7-3.6-2.7-5.9-2.7h-41.9c-5.2,0-9.4-4.2-9.4-9.4V21.6c0-5.2,4.2-9.4,9.4-9.4H319
	c5.2,0,9.4,4.2,9.4,9.4v60.7c0,5.2-4.2,9.4-9.4,9.4h-10c-1.8,0-3.3,1.2-3.8,2.9L301.8,109.4z M240.9,15.3c-3.5,0-6.3,2.8-6.3,6.3
	v60.7c0,3.5,2.8,6.3,6.3,6.3h41.9c3.2,0,6.2,1.4,8.2,3.7l9.2,10.5l2.2-8.9c0.8-3.1,3.6-5.3,6.8-5.3h10c3.5,0,6.3-2.8,6.3-6.3V21.6
	c0-3.5-2.8-6.3-6.3-6.3H240.9z"/>
<rect id="長方形_1811" x="302.8" y="31.4" class="st0" width="19.8" height="10.9"/>
<rect id="長方形_1812" x="310.5" y="38.6" class="st1" width="4.3" height="32.7"/>
<rect id="長方形_1813" x="308" y="71.3" class="st2" width="9.4" height="4.7"/>
<path id="パス_1176" class="st0" d="M277.9,52.7L277.9,52.7l-0.1,0.3h1.3l-0.7-1.9L277.9,52.7z"/>
<path id="パス_1177" class="st0" d="M260.4,62.7c-0.2-0.2-0.4-0.2-0.6,0l0,0l-3,2.6c-0.2,0.1-0.2,0.4-0.1,0.6s0.4,0.2,0.6,0.1
	l3-2.6C260.6,63.1,260.6,62.9,260.4,62.7L260.4,62.7"/>
<path id="パス_1178" class="st0" d="M260.1,64.8l-1.8,1.6c-0.2,0.2-0.2,0.4,0,0.6c0.2,0.1,0.4,0.1,0.6,0l1.8-1.6
	c0.2-0.2,0.2-0.4,0-0.6C260.5,64.7,260.2,64.7,260.1,64.8"/>
<path id="パス_1179" class="st0" d="M266,66c0.1,0,0.2,0,0.3-0.1l3-2.6c0.2-0.1,0.2-0.4,0-0.6c-0.1-0.2-0.4-0.2-0.6,0l-3,2.6
	c-0.2,0.2-0.2,0.4,0,0.6l0,0C265.8,66,266,66,266,66"/>
<path id="パス_1180" class="st0" d="M269,64.8l-1.8,1.6c-0.2,0.2-0.2,0.4,0,0.6c0.2,0.1,0.4,0.1,0.6,0l1.8-1.6
	c0.2-0.2,0.2-0.4,0-0.6l0,0C269.4,64.7,269.1,64.7,269,64.8"/>
<path id="パス_1181" class="st0" d="M296,62.7c-0.2-0.2-0.4-0.2-0.6,0l0,0l-3,2.6c-0.2,0.1-0.2,0.4-0.1,0.6l0,0
	c0.2,0.2,0.4,0.2,0.6,0l0,0l3-2.6C296,63.1,296,62.9,296,62.7"/>
<path id="パス_1182" class="st0" d="M295.6,64.8l-1.8,1.6c-0.2,0.2-0.2,0.4,0,0.6c0.2,0.1,0.4,0.1,0.6,0l1.8-1.6
	c0.2-0.2,0.2-0.4,0-0.6l0,0C296,64.7,295.8,64.7,295.6,64.8"/>
<path id="パス_1183" class="st0" d="M301.5,66c0.1,0,0.2,0,0.3-0.1l3-2.6c0.2-0.2,0.2-0.4,0-0.6l0,0c-0.2-0.2-0.4-0.2-0.6,0l0,0
	l-3,2.6c-0.2,0.1-0.2,0.4,0,0.6C301.2,66,301.4,66,301.5,66"/>
<path id="パス_1184" class="st0" d="M304.5,64.8l-1.8,1.6c-0.2,0.2-0.2,0.4,0,0.6l0,0c0.2,0.1,0.4,0.1,0.5,0l1.8-1.6
	c0.2-0.2,0.2-0.4,0-0.6l0,0C305,64.7,304.6,64.7,304.5,64.8"/>
<path id="パス_1185" class="st0" d="M310.2,56.8h-14.5v-9.5c0-0.2-0.2-0.4-0.4-0.4l0,0h-29.5c-0.2,0-0.4,0.2-0.4,0.4l0,0v9.5H251
	c-0.2,0-0.4,0.2-0.4,0.4l0,0l0,0v3.5c0,0.2,0.2,0.4,0.4,0.4l0,0h2.4V76c0,0.2,0.2,0.4,0.4,0.4l0,0h26.4V61.3h-4.7
	c-0.2,0-0.4,0.2-0.4,0.4l0,0v13.8h-2.8v-18H289v18h-2.8V61.7c0-0.2-0.2-0.4-0.4-0.4l0,0H281v15.1h26.4c0.2,0,0.4-0.2,0.4-0.4l0,0
	V61.1h2.4c0.2,0,0.4-0.2,0.4-0.4l0,0l0,0v-3.5C310.6,57,310.5,56.8,310.2,56.8L310.2,56.8L310.2,56.8 M289.8,61.1h8.2V70h-8.2V61.1z
	 M254.1,61.1h8.2V70h-8.2V61.1z M271.5,75.6h-17.2v-4.8h17.2V75.6z M271.5,70h-8.2v-8.9h8.2V70z M307,75.6h-17.2v-4.8H307V75.6z
	 M307,70h-8.2v-8.9h8.2V70z"/>
<path id="パス_1190" class="st3" d="M275,49.7c-0.2,0-0.3,0.1-0.3,0.3v1.6c0,0.2-0.1,0.3-0.2,0.3s-0.2-0.1-0.2-0.2l0,0V50
	c0-0.2-0.2-0.3-0.3-0.3s-0.3,0.2-0.3,0.3l0,0v1.6c0,0.1-0.1,0.2-0.2,0.2l0,0l0,0c-0.1,0-0.2-0.1-0.2-0.3V50c0-0.2-0.1-0.3-0.3-0.3
	l0,0l0,0c-0.2,0-0.3,0.2-0.3,0.3c0,0.2-0.1,1.2-0.1,2c0,0.5,0.3,1,0.8,1.2c0.2,0.1,0.3,0.3,0.3,0.5l-0.1,3.8h1l-0.1-3.8
	c0-0.2,0.1-0.4,0.3-0.5c0.5-0.2,0.8-0.7,0.8-1.2c0-0.7-0.1-1.8-0.1-2C275.4,49.9,275.1,49.7,275,49.7"/>
<path id="パス_1191" class="st3" d="M287,49.8c-0.7,0-1.5,0.8-1.5,2c0,0.6,0.3,1.1,0.8,1.5c0.2,0.2,0.3,0.3,0.3,0.5l-0.1,3.8h1
	l-0.1-3.8c0-0.2,0.1-0.3,0.3-0.5c0.4-0.4,0.7-0.9,0.8-1.5C288.5,50.5,287.6,49.8,287,49.8"/>
<path id="パス_1192" class="st3" d="M284.8,53c0,2.4-1.9,4.3-4.3,4.3s-4.3-1.9-4.3-4.3c0-2.4,1.9-4.3,4.3-4.3l0,0
	C282.9,48.7,284.8,50.6,284.8,53L284.8,53"/>
<path id="パス_1193" class="st3" d="M307.5,33.1c-0.2,0-0.3,0.1-0.3,0.3l0,0V35c0,0.2-0.1,0.2-0.2,0.2s-0.2-0.1-0.2-0.2l0,0l0,0
	v-1.6c0-0.2-0.2-0.3-0.4-0.3c-0.1,0-0.3,0.1-0.3,0.3V35c0,0.1-0.1,0.2-0.2,0.2l0,0l0,0c-0.1,0-0.2-0.1-0.2-0.2v-1.5
	c0-0.2-0.1-0.3-0.3-0.3l0,0c-0.2,0-0.3,0.1-0.3,0.3s-0.1,1.3-0.1,2c0,0.5,0.3,1,0.8,1.2c0.2,0.1,0.3,0.3,0.3,0.5l-0.2,3.8h1.1
	l-0.1-3.8c0-0.2,0.1-0.4,0.3-0.5c0.5-0.2,0.8-0.7,0.8-1.2c0-0.7-0.1-1.8-0.1-2C307.9,33.2,307.8,33.1,307.5,33.1"/>
<path id="パス_1194" class="st3" d="M319.5,33.1c-1,0.2-1.6,1-1.5,2c0,0.6,0.3,1.1,0.8,1.5c0.2,0.2,0.3,0.3,0.3,0.5L319,41h1.1
	l-0.1-3.8c0-0.2,0.1-0.3,0.3-0.5c0.4-0.4,0.7-0.9,0.8-1.5C321,33.9,320.2,33.2,319.5,33.1"/>
<path id="パス_1195" class="st3" d="M317.4,36.4c0,2.4-1.9,4.3-4.3,4.3s-4.3-1.9-4.3-4.3c0-2.4,1.9-4.3,4.3-4.3l0,0l0,0
	C315.4,32.1,317.4,34,317.4,36.4L317.4,36.4"/>
</svg>
