<?xml version="1.0" encoding="utf-8"?>
<!-- Generator: Adobe Illustrator 24.3.0, SVG Export Plug-In . SVG Version: 6.00 Build 0)  -->
<svg version="1.1" id="レイヤー_1" xmlns="http://www.w3.org/2000/svg" xmlns:xlink="http://www.w3.org/1999/xlink" x="0px"
	 y="0px" viewBox="0 0 374.3 149.3" style="enable-background:new 0 0 374.3 149.3;" xml:space="preserve">
<style type="text/css">
	.st0{fill:#FFFFFF;}
</style>
<g>
	<path id="パス_1196" class="st0" d="M283.1,50.8c5.3,0,9.6-4.3,9.6-9.6l3.5-36.8h-15.4l-7.4,36.8
		C273.5,46.5,277.8,50.8,283.1,50.8"/>
	<path id="パス_1197" class="st0" d="M310.3,50.8c5.3,0,9.6-4.3,9.6-9.6L318,4.4h-15.4l-1.9,36.8C300.7,46.5,305,50.8,310.3,50.8"
		/>
	<path id="パス_1198" class="st0" d="M337.5,50.8c5.3,0,9.6-4.3,9.6-9.6l-7.4-36.8h-15.4l3.5,36.8
		C327.9,46.5,332.2,50.8,337.5,50.8"/>
	<path id="パス_1199" class="st0" d="M361.5,4.4h-15.4l9,36.8c0,4.4,3,8.2,7.3,9.3v62.8h-14.5V70.8h-36.6v42.5h-53V50.5
		c4.3-1.1,7.3-4.9,7.3-9.3l9-36.8h-15.4l-12.8,36.8c0,3,1.5,5.9,3.9,7.7v72.4h120.2V48.9c2.5-1.8,3.9-4.7,3.9-7.7L361.5,4.4z
		 M341.8,113.3h-24.5V76.8h24.5V113.3z"/>
	<rect id="長方形_1821" x="273.7" y="67.9" class="st0" width="21.4" height="21.4"/>
</g>
</svg>
