<svg xmlns="http://www.w3.org/2000/svg" viewBox="0 0 274.49 53.37"><defs><style>.cls-1{isolation:isolate;}.cls-2{fill:#fff;}.cls-3{fill:none;stroke:#b9b9b9;}</style></defs><g id="レイヤー_2" data-name="レイヤー 2"><g id="レイヤー_1-2" data-name="レイヤー 1"><g id="NILAX_People" data-name="NILAX People" class="cls-1"><g class="cls-1"><path class="cls-2" d="M25.26,3.11,27,2.72a1.93,1.93,0,0,1,1.1.29c.27.2.41.38.41.55a3.49,3.49,0,0,1-.12.75c-.08.32-.74,3.5-2,9.52s-2.14,10.51-2.71,13.48q4.16-5.64,9.69-13.89t6.47-11a3.45,3.45,0,0,1,.76-1.32,1.9,1.9,0,0,1,.83-.54A5.15,5.15,0,0,1,42.61.5a6.06,6.06,0,0,1,1.8.33c.69.22,1,.58,1,1.09q0,1.44-4.28,8.3T31.42,24.79Q25.95,32.52,22.25,37a2,2,0,0,1-1.6.8,6.21,6.21,0,0,1-2-.33c-.7-.21-1-.6-1-1.15q0-2.68,4.71-25.81-4,5.22-9.79,14.55-6,9.65-6.79,12c-.29.93-.62,1.47-1,1.61a1.94,1.94,0,0,1-.83.18L2,39a1.82,1.82,0,0,1-1-.32Q.5,38.39.5,38.05q0-1,2.7-5.84T9.5,21.65Q13.1,16,17,10.56a46.35,46.35,0,0,1,6.08-7.25,1.45,1.45,0,0,1,1-.39Z"/><path class="cls-2" d="M58.65,2.4l1.15,0c.42,0,.64.16.64.48a.42.42,0,0,1,0,.22Q48.72,20.23,38.59,36.71c-.36.58-.68.92-1,1l-.24.09a5.82,5.82,0,0,1-1.71.47,3.94,3.94,0,0,0-.54,0,.65.65,0,0,1-.52.25h-.4a4.47,4.47,0,0,1-.57-.2c-.3-.12-.46-.22-.46-.28a5.45,5.45,0,0,1,.1-1.44q.51-1.74,5.64-9.78t10.43-15.7Q54.67,3.48,55.8,2.6a1.42,1.42,0,0,1,.9-.27Z"/><path class="cls-2" d="M61.29,34.75a15.7,15.7,0,0,1-10.84,4.06q-3.81,0-5.44-1.62a4.15,4.15,0,0,1-.93-3.1c0-2.27,1.73-3.75,5.2-4.42a21.14,21.14,0,0,1,3.93-.31,31.65,31.65,0,0,1,6.27.85,55.4,55.4,0,0,0,5.07-7q2.94-4.6,4.65-7.09t3.88-5.09a44.15,44.15,0,0,1,4.54-4.7q4.81-4.29,9.53-4.3a3.86,3.86,0,0,1,3,1.06,3.71,3.71,0,0,1,.93,2.52A6.19,6.19,0,0,1,89.77,9a17.35,17.35,0,0,1-3.08,3.42A27,27,0,0,1,83.25,15a5.63,5.63,0,0,1-2.67,1,2.15,2.15,0,0,1-1.69-.83,2.49,2.49,0,0,1-.7-1.6,2,2,0,0,1,.2-1.07c.14-.2.28-.31.43-.31s.24.09.27.27a10.36,10.36,0,0,0,2.5-1.52,31.05,31.05,0,0,0,3.14-2.68c.94-.92,1.41-1.51,1.41-1.74s-.14-.36-.42-.36a3.28,3.28,0,0,0-1.16.3,9,9,0,0,0-2,1.21A23.7,23.7,0,0,0,80,10a65.49,65.49,0,0,0-7.62,9.69c-.65.95-1.57,2.32-2.76,4.13q-3.63,5.49-5.2,7.52,12.52,3.3,17.9,3.3A7,7,0,0,0,85.78,34a1.25,1.25,0,0,1,.49-.22c.08,0,.12.07.12.2a1.32,1.32,0,0,1-.22.58c-.15.26-.51.82-1.09,1.66a5.9,5.9,0,0,1-1.28,1.52,8.52,8.52,0,0,1-4.06.7,34.22,34.22,0,0,1-5.47-.41c-1.74-.28-3.13-.55-4.19-.82s-2.62-.7-4.7-1.31Zm-8.91-1.49c-2.13,0-3.2.26-3.2.76,0,.2.18.37.55.51a3.46,3.46,0,0,0,1.31.22,9.1,9.1,0,0,0,4.56-1.24A26.24,26.24,0,0,0,52.38,33.26Z"/><path class="cls-2" d="M117.88,3.55q.77-1.68,1.08-1.68h.12a3.86,3.86,0,0,1,1.49.78c.75.52,1.12,1,1.12,1.46q0,1-6.25,14.75t-7.16,15.47c-.61,1.11-1,1.86-1.26,2.23a10,10,0,0,1-.93,1.24,3.22,3.22,0,0,1-2.61,1.3,3.48,3.48,0,0,0-1.12.16,4.23,4.23,0,0,1-.59.16c-.52,0-.78-.13-.78-.37a3.47,3.47,0,0,1,.21-.6q.19-.53,5.57-11.85-5.73-.23-10.08-.34a98.68,98.68,0,0,0-7.57,11,3.82,3.82,0,0,1-.78,1.14,1.44,1.44,0,0,1-1,.33A2.18,2.18,0,0,1,86,38.06a2,2,0,0,1-.73-1.5q0-2.45,6.3-10.45a27.4,27.4,0,0,0-3.75.15,8.62,8.62,0,0,1-1,.14q-.66,0-.66-1.11a2.37,2.37,0,0,1,1.31-1.95,6.38,6.38,0,0,1,3.5-.84l.61,0c1,0,2-.09,3.1-.12a133.4,133.4,0,0,1,11.13-11.6,47.92,47.92,0,0,1,10.06-7.49,2.44,2.44,0,0,1,1.09-.33A1.59,1.59,0,0,1,117.88,3.55ZM116.17,7A105,105,0,0,0,99.89,22.35q4.32.11,8.74.37Q113.07,13.36,116.17,7Z"/><path class="cls-2" d="M114.25,38.27l-.15,0c-.12,0-.35-.16-.7-.47l-.64-.59c-.09-.07-.18-.15-.3-.23l-.23-.17-.16-.15a.76.76,0,0,1-.13-.16l-.09-.13a1,1,0,0,1-.07-.43,3.12,3.12,0,0,1,.17-.82q.24-.82,5-4.7t13.79-10.9c.23-.88.51-1.95.85-3.22s.62-2.29.82-3.06.41-1.58.62-2.41a21.28,21.28,0,0,0,.61-2.71c0-.23-.07-.34-.22-.34-.6,0-1.94.93-4,2.8s-3.13,3.08-3.13,3.65c0,.37-.14.56-.42.56s-.44-.19-.79-.58a2,2,0,0,1-.59-1.05c0-.31-.08-.59-.13-.81a8.33,8.33,0,0,1-.12-1.23c0-.83.78-2,2.34-3.43a29.82,29.82,0,0,1,5.16-3.84,9.76,9.76,0,0,1,4.09-1.66,2.56,2.56,0,0,1,2,.88,3.74,3.74,0,0,1,.77,2.54c0,1.1-.7,4.25-2.1,9.42q13.69-10.52,14.43-11a4.52,4.52,0,0,1,2.2-.43,8.27,8.27,0,0,1,3,.59c.3.13.46.3.46.5a1,1,0,0,1-.18.57,3.68,3.68,0,0,1-.66.65c-.32.25-1,.73-1.92,1.42l-3.47,2.52q-4.71,3.48-15.65,12-2.34,9-2.34,11.65c0,.45,0,.68.16.68A.79.79,0,0,0,133,34a38.3,38.3,0,0,0,4.72-3.72,49,49,0,0,0,3.93-3.64c.43-.51.73-.76.89-.74s.37.29.37.88l0,.41s.08.25.24.7a4.93,4.93,0,0,1,.23,1.56,2.64,2.64,0,0,1-.34,1.42,13.17,13.17,0,0,1-1,1.3,25.75,25.75,0,0,1-1.86,1.92,25.6,25.6,0,0,1-2.54,2.11,10.61,10.61,0,0,1-6.18,2.42,3.51,3.51,0,0,1-2.47-1,4.48,4.48,0,0,1-1.1-3.36,40.13,40.13,0,0,1,1.27-7.75q-14,11.72-14.13,11.79a.83.83,0,0,1-.32.08Z"/><path class="cls-2" d="M168,11.61a1.63,1.63,0,0,0-.81,1.3q0,.72,1.08.72a3.51,3.51,0,0,0,1.19-.26h0c.08,0,.12.16.12.5s0,.53-.1.59a7.88,7.88,0,0,1-4.25,1.79,3,3,0,0,1-2.51-1,4,4,0,0,1-.78-2.55,5,5,0,0,1,1.73-3.34A17.67,17.67,0,0,1,168.4,6.1a31.3,31.3,0,0,1,7.26-2.48,44.49,44.49,0,0,1,9.74-1,17.8,17.8,0,0,1,9,2.11q3.63,2.12,3.63,4.81a9.72,9.72,0,0,1-1.89,5.48,19.61,19.61,0,0,1-4.73,4.85,27.28,27.28,0,0,1-6.32,3.38,17.65,17.65,0,0,1-6.2,1.32,4.89,4.89,0,0,1-4.25-2.2q-3.7,5.84-5,8L167.43,34q-.92,1.45-1.41,2.28c-.34.56-.51.84-.53.86a1.5,1.5,0,0,1-1.1.56l-1.19.22-.59-.05h-.42q-1.44,0-1.44-.9,0-1.16,4.81-8.65t9.07-13.6q4.26-6.09,5-6.86a2.85,2.85,0,0,1,1.26-.89,8.22,8.22,0,0,1,1.77-.13h1.22c.21,0,.32.17.32.5A1.33,1.33,0,0,1,184,8q-2.14,3-7.76,11.86a.92.92,0,0,0,.65.49,4.87,4.87,0,0,0,1,.1h.71a12.8,12.8,0,0,0,4.86-1.09,20.26,20.26,0,0,0,4.59-2.6,19.32,19.32,0,0,0,3.31-3.16,4.92,4.92,0,0,0,1.33-2.82,3.35,3.35,0,0,0-.73-2.1,5,5,0,0,0-2-1.47,15.52,15.52,0,0,0-6-1A25.65,25.65,0,0,0,175.34,8,29.14,29.14,0,0,0,168,11.61Z"/><path class="cls-2" d="M207.36,19.54a3.79,3.79,0,0,1-1.31,2.84,4.24,4.24,0,0,1-3,1.22.8.8,0,0,1-.71-.26,1.21,1.21,0,0,1-.17-.67,3.1,3.1,0,0,1,.1-.81,11.44,11.44,0,0,0-2,.91,24.68,24.68,0,0,0-2.63,1.8c-1.05.8-1.57,1.39-1.57,1.78,0,.14.2.2.58.2a6.22,6.22,0,0,0,1.77-.4,6.26,6.26,0,0,1,1.67-.41,2.48,2.48,0,0,1,.62.05,2.33,2.33,0,0,1,.69.75,1.88,1.88,0,0,1,.36.9q0,.33-.63.87a4.36,4.36,0,0,1-1.44.81,10.55,10.55,0,0,0-1.08.43q-5.15,2.88-5.15,4c0,1.27,1.08,1.9,3.25,1.9A7.79,7.79,0,0,0,201,34.09a31.61,31.61,0,0,0,3.21-2.28c1-.77,1.56-1.25,1.81-1.43a1.16,1.16,0,0,1,.57-.27c.43,0,.64.48.64,1.42A6.61,6.61,0,0,1,207,33.4a3.21,3.21,0,0,1-1,1.11q-5.22,4.25-9.89,4.25a9.61,9.61,0,0,1-4-.69,4,4,0,0,1-2.73-3.81q0-3.36,4.66-5.1a2.11,2.11,0,0,1-1.19-1.06,5.78,5.78,0,0,1-.27-2.07A4.81,4.81,0,0,1,194,23a10.79,10.79,0,0,1,3.26-2.63,16.59,16.59,0,0,1,7.66-2.32,3.82,3.82,0,0,1,1.64.39A1.23,1.23,0,0,1,207.36,19.54Z"/><path class="cls-2" d="M223,19.2a2.33,2.33,0,0,1,1.5.66,2.52,2.52,0,0,1,.77,2,9.34,9.34,0,0,1-.95,3.51,23.93,23.93,0,0,1-2.61,4.4A38.17,38.17,0,0,1,218.07,34a19.3,19.3,0,0,1-4.3,3.23,9,9,0,0,1-4.19,1.25,4,4,0,0,1-3-1.18,4.56,4.56,0,0,1-1.14-3.3,12.64,12.64,0,0,1,1-4.67,16.92,16.92,0,0,1,2.67-4.53,26.23,26.23,0,0,1,3.54-3.53c2.66-2.13,5-3.2,7-3.2a2.79,2.79,0,0,1,2,.66.63.63,0,0,1,.25.39v.15A8.68,8.68,0,0,1,223,19.2Zm-2.47,3.25h-.17c-.57,0-.85-.42-.85-1.25a13.33,13.33,0,0,0-3.74,2.05,18.49,18.49,0,0,0-3.49,3.47q-3.12,4-3.17,6.76c0,.92.33,1.37,1,1.37a6.34,6.34,0,0,0,3-1.32A17.74,17.74,0,0,0,217,29.77a29.65,29.65,0,0,0,2.9-4.23,6.93,6.93,0,0,0,1-2.44C220.89,22.66,220.77,22.45,220.54,22.45Z"/><path class="cls-2" d="M238.34,11.83l.44-.05c.25,0,.44.21.59.63a3.71,3.71,0,0,1,.22.86,2,2,0,0,1-.49.83l-7,10.59a25,25,0,0,1,7.45-5.34,6.63,6.63,0,0,1,2.65-.64,2.49,2.49,0,0,1,1.9.77,2.69,2.69,0,0,1,.72,1.92,8.4,8.4,0,0,1-.63,2.83,25.78,25.78,0,0,1-1.73,3.59,28.82,28.82,0,0,1-2.63,3.83,32.12,32.12,0,0,1-3.25,3.49,15,15,0,0,1-3.7,2.54,8.22,8.22,0,0,1-3.51,1c-2,0-3.06-.94-3.06-2.81q-2.85,4.36-6.59,10.35t-4,6.33c-.18.22-.33.34-.45.34a1.41,1.41,0,0,1-.56-.22,3.08,3.08,0,0,1-.8-.73,2.38,2.38,0,0,1-.42-1.49,3.8,3.8,0,0,1,.57-2q3.3-5.49,12.71-20.67T237,12.1a1.53,1.53,0,0,1,.88-.3Zm2.15,11.23c0-.34-.16-.51-.49-.51q-1.32,0-5.58,4.05a61.07,61.07,0,0,0-6.77,7.4,2.28,2.28,0,0,0,1.88.78,6.28,6.28,0,0,0,3.22-1.35,20.27,20.27,0,0,0,3.66-3.18,22.58,22.58,0,0,0,2.88-3.87A7,7,0,0,0,240.49,23.06Z"/><path class="cls-2" d="M266.6,1.86a2.43,2.43,0,0,1,.89,2.06A10.86,10.86,0,0,1,266,8.2a52.76,52.76,0,0,1-3.64,6q-2.13,3-4.81,6.46-4.24,5.41-8.15,9.74c0,.19-.09.56-.21,1.09A7.11,7.11,0,0,0,249,33a1.89,1.89,0,0,0,.74,1.46,2.71,2.71,0,0,0,1.84.64,4.51,4.51,0,0,0,2.36-.78,11.69,11.69,0,0,0,2.19-1.73c1.62-1.68,2.63-2.52,3-2.52s.59.6.59,1.79v.48a2.36,2.36,0,0,1-.34,1.4,13.61,13.61,0,0,1-4.62,3.74,11.15,11.15,0,0,1-4.86,1.24,4.32,4.32,0,0,1-3.49-1.41,5.69,5.69,0,0,1-1.19-3.84,31.15,31.15,0,0,1,2.55-11.2,52.3,52.3,0,0,1,5.75-10.95q7.2-10.2,11-10.2A3.21,3.21,0,0,1,266.6,1.86Zm-3.16,3.35q0-.36-.24-.36c-.58,0-2.07,1.62-4.5,4.88a76.42,76.42,0,0,0-5.26,7.79,41.8,41.8,0,0,0-3.06,7.3q2.88-3.42,8-10.66T263.44,5.21Z"/><path class="cls-2" d="M274,19.54a3.79,3.79,0,0,1-1.31,2.84,4.24,4.24,0,0,1-3,1.22.79.79,0,0,1-.7-.26,1.13,1.13,0,0,1-.18-.67,3.59,3.59,0,0,1,.1-.81,11.73,11.73,0,0,0-1.95.91,23.69,23.69,0,0,0-2.64,1.8c-1,.8-1.56,1.39-1.56,1.78,0,.14.19.2.57.2a6.08,6.08,0,0,0,1.77-.4,6.39,6.39,0,0,1,1.68-.41,2.6,2.6,0,0,1,.62.05,2.22,2.22,0,0,1,.68.75,1.82,1.82,0,0,1,.37.9c0,.22-.21.51-.64.87a4.26,4.26,0,0,1-1.44.81,11.11,11.11,0,0,0-1.07.43c-3.44,1.92-5.15,3.24-5.15,4,0,1.27,1.08,1.9,3.25,1.9a7.79,7.79,0,0,0,4.17-1.32,31.61,31.61,0,0,0,3.21-2.28c.95-.77,1.55-1.25,1.81-1.43a1.16,1.16,0,0,1,.57-.27c.42,0,.64.48.64,1.42a6.14,6.14,0,0,1-.18,1.87,3.05,3.05,0,0,1-1,1.11q-5.24,4.25-9.89,4.25a9.58,9.58,0,0,1-4-.69,4,4,0,0,1-2.73-3.81q0-3.36,4.66-5.1a2.13,2.13,0,0,1-1.2-1.06,5.78,5.78,0,0,1-.27-2.07,4.83,4.83,0,0,1,1.34-3,10.75,10.75,0,0,1,3.25-2.63,16.62,16.62,0,0,1,7.67-2.32,3.86,3.86,0,0,1,1.64.39A1.23,1.23,0,0,1,274,19.54Z"/></g><g class="cls-1"><path class="cls-3" d="M25.26,3.11,27,2.72a1.93,1.93,0,0,1,1.1.29c.27.2.41.38.41.55a3.49,3.49,0,0,1-.12.75c-.08.32-.74,3.5-2,9.52s-2.14,10.51-2.71,13.48q4.16-5.64,9.69-13.89t6.47-11a3.45,3.45,0,0,1,.76-1.32,1.9,1.9,0,0,1,.83-.54A5.15,5.15,0,0,1,42.61.5a6.06,6.06,0,0,1,1.8.33c.69.22,1,.58,1,1.09q0,1.44-4.28,8.3T31.42,24.79Q25.95,32.52,22.25,37a2,2,0,0,1-1.6.8,6.21,6.21,0,0,1-2-.33c-.7-.21-1-.6-1-1.15q0-2.68,4.71-25.81-4,5.22-9.79,14.55-6,9.65-6.79,12c-.29.93-.62,1.47-1,1.61a1.94,1.94,0,0,1-.83.18L2,39a1.82,1.82,0,0,1-1-.32Q.5,38.39.5,38.05q0-1,2.7-5.84T9.5,21.65Q13.1,16,17,10.56a46.35,46.35,0,0,1,6.08-7.25,1.45,1.45,0,0,1,1-.39Z"/><path class="cls-3" d="M58.65,2.4l1.15,0c.42,0,.64.16.64.48a.42.42,0,0,1,0,.22Q48.72,20.23,38.59,36.71c-.36.58-.68.92-1,1l-.24.09a5.82,5.82,0,0,1-1.71.47,3.94,3.94,0,0,0-.54,0,.65.65,0,0,1-.52.25h-.4a4.47,4.47,0,0,1-.57-.2c-.3-.12-.46-.22-.46-.28a5.45,5.45,0,0,1,.1-1.44q.51-1.74,5.64-9.78t10.43-15.7Q54.67,3.48,55.8,2.6a1.42,1.42,0,0,1,.9-.27Z"/><path class="cls-3" d="M61.29,34.75a15.7,15.7,0,0,1-10.84,4.06q-3.81,0-5.44-1.62a4.15,4.15,0,0,1-.93-3.1c0-2.27,1.73-3.75,5.2-4.42a21.14,21.14,0,0,1,3.93-.31,31.65,31.65,0,0,1,6.27.85,55.4,55.4,0,0,0,5.07-7q2.94-4.6,4.65-7.09t3.88-5.09a44.15,44.15,0,0,1,4.54-4.7q4.81-4.29,9.53-4.3a3.86,3.86,0,0,1,3,1.06,3.71,3.71,0,0,1,.93,2.52A6.19,6.19,0,0,1,89.77,9a17.35,17.35,0,0,1-3.08,3.42A27,27,0,0,1,83.25,15a5.63,5.63,0,0,1-2.67,1,2.15,2.15,0,0,1-1.69-.83,2.49,2.49,0,0,1-.7-1.6,2,2,0,0,1,.2-1.07c.14-.2.28-.31.43-.31s.24.09.27.27a10.36,10.36,0,0,0,2.5-1.52,31.05,31.05,0,0,0,3.14-2.68c.94-.92,1.41-1.51,1.41-1.74s-.14-.36-.42-.36a3.28,3.28,0,0,0-1.16.3,9,9,0,0,0-2,1.21A23.7,23.7,0,0,0,80,10a65.49,65.49,0,0,0-7.62,9.69c-.65.95-1.57,2.32-2.76,4.13q-3.63,5.49-5.2,7.52,12.52,3.3,17.9,3.3A7,7,0,0,0,85.78,34a1.25,1.25,0,0,1,.49-.22c.08,0,.12.07.12.2a1.32,1.32,0,0,1-.22.58c-.15.26-.51.82-1.09,1.66a5.9,5.9,0,0,1-1.28,1.52,8.52,8.52,0,0,1-4.06.7,34.22,34.22,0,0,1-5.47-.41c-1.74-.28-3.13-.55-4.19-.82s-2.62-.7-4.7-1.31Zm-8.91-1.49c-2.13,0-3.2.26-3.2.76,0,.2.18.37.55.51a3.46,3.46,0,0,0,1.31.22,9.1,9.1,0,0,0,4.56-1.24A26.24,26.24,0,0,0,52.38,33.26Z"/><path class="cls-3" d="M117.88,3.55q.77-1.68,1.08-1.68h.12a3.86,3.86,0,0,1,1.49.78c.75.52,1.12,1,1.12,1.46q0,1-6.25,14.75t-7.16,15.47c-.61,1.11-1,1.86-1.26,2.23a10,10,0,0,1-.93,1.24,3.22,3.22,0,0,1-2.61,1.3,3.48,3.48,0,0,0-1.12.16,4.23,4.23,0,0,1-.59.16c-.52,0-.78-.13-.78-.37a3.47,3.47,0,0,1,.21-.6q.19-.53,5.57-11.85-5.73-.23-10.08-.34a98.68,98.68,0,0,0-7.57,11,3.82,3.82,0,0,1-.78,1.14,1.44,1.44,0,0,1-1,.33A2.18,2.18,0,0,1,86,38.06a2,2,0,0,1-.73-1.5q0-2.45,6.3-10.45a27.4,27.4,0,0,0-3.75.15,8.62,8.62,0,0,1-1,.14q-.66,0-.66-1.11a2.37,2.37,0,0,1,1.31-1.95,6.38,6.38,0,0,1,3.5-.84l.61,0c1,0,2-.09,3.1-.12a133.4,133.4,0,0,1,11.13-11.6,47.92,47.92,0,0,1,10.06-7.49,2.44,2.44,0,0,1,1.09-.33A1.59,1.59,0,0,1,117.88,3.55ZM116.17,7A105,105,0,0,0,99.89,22.35q4.32.11,8.74.37Q113.07,13.36,116.17,7Z"/><path class="cls-3" d="M114.25,38.27l-.15,0c-.12,0-.35-.16-.7-.47l-.64-.59c-.09-.07-.18-.15-.3-.23l-.23-.17-.16-.15a.76.76,0,0,1-.13-.16l-.09-.13a1,1,0,0,1-.07-.43,3.12,3.12,0,0,1,.17-.82q.24-.82,5-4.7t13.79-10.9c.23-.88.51-1.95.85-3.22s.62-2.29.82-3.06.41-1.58.62-2.41a21.28,21.28,0,0,0,.61-2.71c0-.23-.07-.34-.22-.34-.6,0-1.94.93-4,2.8s-3.13,3.08-3.13,3.65c0,.37-.14.56-.42.56s-.44-.19-.79-.58a2,2,0,0,1-.59-1.05c0-.31-.08-.59-.13-.81a8.33,8.33,0,0,1-.12-1.23c0-.83.78-2,2.34-3.43a29.82,29.82,0,0,1,5.16-3.84,9.76,9.76,0,0,1,4.09-1.66,2.56,2.56,0,0,1,2,.88,3.74,3.74,0,0,1,.77,2.54c0,1.1-.7,4.25-2.1,9.42q13.69-10.52,14.43-11a4.52,4.52,0,0,1,2.2-.43,8.27,8.27,0,0,1,3,.59c.3.13.46.3.46.5a1,1,0,0,1-.18.57,3.68,3.68,0,0,1-.66.65c-.32.25-1,.73-1.92,1.42l-3.47,2.52q-4.71,3.48-15.65,12-2.34,9-2.34,11.65c0,.45,0,.68.16.68A.79.79,0,0,0,133,34a38.3,38.3,0,0,0,4.72-3.72,49,49,0,0,0,3.93-3.64c.43-.51.73-.76.89-.74s.37.29.37.88l0,.41s.08.25.24.7a4.93,4.93,0,0,1,.23,1.56,2.64,2.64,0,0,1-.34,1.42,13.17,13.17,0,0,1-1,1.3,25.75,25.75,0,0,1-1.86,1.92,25.6,25.6,0,0,1-2.54,2.11,10.61,10.61,0,0,1-6.18,2.42,3.51,3.51,0,0,1-2.47-1,4.48,4.48,0,0,1-1.1-3.36,40.13,40.13,0,0,1,1.27-7.75q-14,11.72-14.13,11.79a.83.83,0,0,1-.32.08Z"/><path class="cls-3" d="M168,11.61a1.63,1.63,0,0,0-.81,1.3q0,.72,1.08.72a3.51,3.51,0,0,0,1.19-.26h0c.08,0,.12.16.12.5s0,.53-.1.59a7.88,7.88,0,0,1-4.25,1.79,3,3,0,0,1-2.51-1,4,4,0,0,1-.78-2.55,5,5,0,0,1,1.73-3.34A17.67,17.67,0,0,1,168.4,6.1a31.3,31.3,0,0,1,7.26-2.48,44.49,44.49,0,0,1,9.74-1,17.8,17.8,0,0,1,9,2.11q3.63,2.12,3.63,4.81a9.72,9.72,0,0,1-1.89,5.48,19.61,19.61,0,0,1-4.73,4.85,27.28,27.28,0,0,1-6.32,3.38,17.65,17.65,0,0,1-6.2,1.32,4.89,4.89,0,0,1-4.25-2.2q-3.7,5.84-5,8L167.43,34q-.92,1.45-1.41,2.28c-.34.56-.51.84-.53.86a1.5,1.5,0,0,1-1.1.56l-1.19.22-.59-.05h-.42q-1.44,0-1.44-.9,0-1.16,4.81-8.65t9.07-13.6q4.26-6.09,5-6.86a2.85,2.85,0,0,1,1.26-.89,8.22,8.22,0,0,1,1.77-.13h1.22c.21,0,.32.17.32.5A1.33,1.33,0,0,1,184,8q-2.14,3-7.76,11.86a.92.92,0,0,0,.65.49,4.87,4.87,0,0,0,1,.1h.71a12.8,12.8,0,0,0,4.86-1.09,20.26,20.26,0,0,0,4.59-2.6,19.32,19.32,0,0,0,3.31-3.16,4.92,4.92,0,0,0,1.33-2.82,3.35,3.35,0,0,0-.73-2.1,5,5,0,0,0-2-1.47,15.52,15.52,0,0,0-6-1A25.65,25.65,0,0,0,175.34,8,29.14,29.14,0,0,0,168,11.61Z"/><path class="cls-3" d="M207.36,19.54a3.79,3.79,0,0,1-1.31,2.84,4.24,4.24,0,0,1-3,1.22.8.8,0,0,1-.71-.26,1.21,1.21,0,0,1-.17-.67,3.1,3.1,0,0,1,.1-.81,11.44,11.44,0,0,0-2,.91,24.68,24.68,0,0,0-2.63,1.8c-1.05.8-1.57,1.39-1.57,1.78,0,.14.2.2.58.2a6.22,6.22,0,0,0,1.77-.4,6.26,6.26,0,0,1,1.67-.41,2.48,2.48,0,0,1,.62.05,2.33,2.33,0,0,1,.69.75,1.88,1.88,0,0,1,.36.9q0,.33-.63.87a4.36,4.36,0,0,1-1.44.81,10.55,10.55,0,0,0-1.08.43q-5.15,2.88-5.15,4c0,1.27,1.08,1.9,3.25,1.9A7.79,7.79,0,0,0,201,34.09a31.61,31.61,0,0,0,3.21-2.28c1-.77,1.56-1.25,1.81-1.43a1.16,1.16,0,0,1,.57-.27c.43,0,.64.48.64,1.42A6.61,6.61,0,0,1,207,33.4a3.21,3.21,0,0,1-1,1.11q-5.22,4.25-9.89,4.25a9.61,9.61,0,0,1-4-.69,4,4,0,0,1-2.73-3.81q0-3.36,4.66-5.1a2.11,2.11,0,0,1-1.19-1.06,5.78,5.78,0,0,1-.27-2.07A4.81,4.81,0,0,1,194,23a10.79,10.79,0,0,1,3.26-2.63,16.59,16.59,0,0,1,7.66-2.32,3.82,3.82,0,0,1,1.64.39A1.23,1.23,0,0,1,207.36,19.54Z"/><path class="cls-3" d="M223,19.2a2.33,2.33,0,0,1,1.5.66,2.52,2.52,0,0,1,.77,2,9.34,9.34,0,0,1-.95,3.51,23.93,23.93,0,0,1-2.61,4.4A38.17,38.17,0,0,1,218.07,34a19.3,19.3,0,0,1-4.3,3.23,9,9,0,0,1-4.19,1.25,4,4,0,0,1-3-1.18,4.56,4.56,0,0,1-1.14-3.3,12.64,12.64,0,0,1,1-4.67,16.92,16.92,0,0,1,2.67-4.53,26.23,26.23,0,0,1,3.54-3.53c2.66-2.13,5-3.2,7-3.2a2.79,2.79,0,0,1,2,.66.63.63,0,0,1,.25.39v.15A8.68,8.68,0,0,1,223,19.2Zm-2.47,3.25h-.17c-.57,0-.85-.42-.85-1.25a13.33,13.33,0,0,0-3.74,2.05,18.49,18.49,0,0,0-3.49,3.47q-3.12,4-3.17,6.76c0,.92.33,1.37,1,1.37a6.34,6.34,0,0,0,3-1.32A17.74,17.74,0,0,0,217,29.77a29.65,29.65,0,0,0,2.9-4.23,6.93,6.93,0,0,0,1-2.44C220.89,22.66,220.77,22.45,220.54,22.45Z"/><path class="cls-3" d="M238.34,11.83l.44-.05c.25,0,.44.21.59.63a3.71,3.71,0,0,1,.22.86,2,2,0,0,1-.49.83l-7,10.59a25,25,0,0,1,7.45-5.34,6.63,6.63,0,0,1,2.65-.64,2.49,2.49,0,0,1,1.9.77,2.69,2.69,0,0,1,.72,1.92,8.4,8.4,0,0,1-.63,2.83,25.78,25.78,0,0,1-1.73,3.59,28.82,28.82,0,0,1-2.63,3.83,32.12,32.12,0,0,1-3.25,3.49,15,15,0,0,1-3.7,2.54,8.22,8.22,0,0,1-3.51,1c-2,0-3.06-.94-3.06-2.81q-2.85,4.36-6.59,10.35t-4,6.33c-.18.22-.33.34-.45.34a1.41,1.41,0,0,1-.56-.22,3.08,3.08,0,0,1-.8-.73,2.38,2.38,0,0,1-.42-1.49,3.8,3.8,0,0,1,.57-2q3.3-5.49,12.71-20.67T237,12.1a1.53,1.53,0,0,1,.88-.3Zm2.15,11.23c0-.34-.16-.51-.49-.51q-1.32,0-5.58,4.05a61.07,61.07,0,0,0-6.77,7.4,2.28,2.28,0,0,0,1.88.78,6.28,6.28,0,0,0,3.22-1.35,20.27,20.27,0,0,0,3.66-3.18,22.58,22.58,0,0,0,2.88-3.87A7,7,0,0,0,240.49,23.06Z"/><path class="cls-3" d="M266.6,1.86a2.43,2.43,0,0,1,.89,2.06A10.86,10.86,0,0,1,266,8.2a52.76,52.76,0,0,1-3.64,6q-2.13,3-4.81,6.46-4.24,5.41-8.15,9.74c0,.19-.09.56-.21,1.09A7.11,7.11,0,0,0,249,33a1.89,1.89,0,0,0,.74,1.46,2.71,2.71,0,0,0,1.84.64,4.51,4.51,0,0,0,2.36-.78,11.69,11.69,0,0,0,2.19-1.73c1.62-1.68,2.63-2.52,3-2.52s.59.6.59,1.79v.48a2.36,2.36,0,0,1-.34,1.4,13.61,13.61,0,0,1-4.62,3.74,11.15,11.15,0,0,1-4.86,1.24,4.32,4.32,0,0,1-3.49-1.41,5.69,5.69,0,0,1-1.19-3.84,31.15,31.15,0,0,1,2.55-11.2,52.3,52.3,0,0,1,5.75-10.95q7.2-10.2,11-10.2A3.21,3.21,0,0,1,266.6,1.86Zm-3.16,3.35q0-.36-.24-.36c-.58,0-2.07,1.62-4.5,4.88a76.42,76.42,0,0,0-5.26,7.79,41.8,41.8,0,0,0-3.06,7.3q2.88-3.42,8-10.66T263.44,5.21Z"/><path class="cls-3" d="M274,19.54a3.79,3.79,0,0,1-1.31,2.84,4.24,4.24,0,0,1-3,1.22.79.79,0,0,1-.7-.26,1.13,1.13,0,0,1-.18-.67,3.59,3.59,0,0,1,.1-.81,11.73,11.73,0,0,0-1.95.91,23.69,23.69,0,0,0-2.64,1.8c-1,.8-1.56,1.39-1.56,1.78,0,.14.19.2.57.2a6.08,6.08,0,0,0,1.77-.4,6.39,6.39,0,0,1,1.68-.41,2.6,2.6,0,0,1,.62.05,2.22,2.22,0,0,1,.68.75,1.82,1.82,0,0,1,.37.9c0,.22-.21.51-.64.87a4.26,4.26,0,0,1-1.44.81,11.11,11.11,0,0,0-1.07.43c-3.44,1.92-5.15,3.24-5.15,4,0,1.27,1.08,1.9,3.25,1.9a7.79,7.79,0,0,0,4.17-1.32,31.61,31.61,0,0,0,3.21-2.28c.95-.77,1.55-1.25,1.81-1.43a1.16,1.16,0,0,1,.57-.27c.42,0,.64.48.64,1.42a6.14,6.14,0,0,1-.18,1.87,3.05,3.05,0,0,1-1,1.11q-5.24,4.25-9.89,4.25a9.58,9.58,0,0,1-4-.69,4,4,0,0,1-2.73-3.81q0-3.36,4.66-5.1a2.13,2.13,0,0,1-1.2-1.06,5.78,5.78,0,0,1-.27-2.07,4.83,4.83,0,0,1,1.34-3,10.75,10.75,0,0,1,3.25-2.63,16.62,16.62,0,0,1,7.67-2.32,3.86,3.86,0,0,1,1.64.39A1.23,1.23,0,0,1,274,19.54Z"/></g></g></g></g></svg>