<svg xmlns="http://www.w3.org/2000/svg" viewBox="0 0 311.3 103.34"><defs><style>.cls-1{isolation:isolate;}.cls-2{fill:none;stroke:#cbdaee;}</style></defs><g id="レイヤー_2" data-name="レイヤー 2"><g id="レイヤー_1-2" data-name="レイヤー 1"><g id="Message" class="cls-1"><g class="cls-1"><path class="cls-2" d="M86.83,54.85l.39,1.85A4.93,4.93,0,0,1,86,59.48a56.6,56.6,0,0,1-10.33,9.65q-7.11,5.45-10.47,5.44a7,7,0,0,1-5.28-2A6.3,6.3,0,0,1,58,68.08q0-3,6.35-13.38,9.51-15.37,24.31-35.94Q85.56,22,72.08,36.14,42.25,67.4,37.22,71.54a3.69,3.69,0,0,1-2.42.69,5.66,5.66,0,0,1-3.34-1.3A3.64,3.64,0,0,1,29.7,68v-.24q.19-2.06,9.42-20.07T54.6,19.05Q45.38,29.22,36,41.71,18,65.44,9.73,82.14c-.49,1-1.09,1.56-1.81,1.56a13.79,13.79,0,0,1-3.12-.53C1.93,82.38.5,81,.5,79.06q0-1.75,7.18-12.57T24.33,42.86Q33.8,30,44,18.18,58,1.77,62,1.77a2.59,2.59,0,0,1,1.23.32,2.36,2.36,0,0,0,.73.31.4.4,0,0,0,.29-.14,3.16,3.16,0,0,1,2.52-.78,9.52,9.52,0,0,1,3.66.73c1.19.49,1.78,1,1.78,1.66q0,.59-4.88,9.33-16.36,29-22,39.84,5.37-6.49,15.36-17.24t21-21.43Q96,.49,98.74.5a10.54,10.54,0,0,1,2.83.49,21.08,21.08,0,0,0,5.81.88,2.57,2.57,0,0,1,1.35.66,1.46,1.46,0,0,1,.56,1.05,1.35,1.35,0,0,1-.29.88Q93.13,25.55,82.24,41.66T68.81,63.44q5.13-1.08,15.28-12.26a9.6,9.6,0,0,1,.64-.78,4,4,0,0,0,.34-.39c.55-.65,1-.24,1.27,1.22.13.85.22,1.44.27,1.78s.1.7.14,1.08A7.46,7.46,0,0,1,86.83,54.85Z"/><path class="cls-2" d="M123,36.34A7.52,7.52,0,0,1,120.35,42a8.45,8.45,0,0,1-5.93,2.45,1.61,1.61,0,0,1-1.42-.52,2.36,2.36,0,0,1-.34-1.34,6.63,6.63,0,0,1,.19-1.61,21.9,21.9,0,0,0-3.9,1.81,47.22,47.22,0,0,0-5.28,3.61q-3.12,2.39-3.12,3.56c0,.26.38.39,1.15.39a12.8,12.8,0,0,0,3.54-.8,12.54,12.54,0,0,1,3.34-.81,5.17,5.17,0,0,1,1.25.1,4.19,4.19,0,0,1,1.36,1.49,3.77,3.77,0,0,1,.74,1.81c0,.44-.43,1-1.27,1.73a8.92,8.92,0,0,1-2.88,1.63,16.21,16.21,0,0,0-2.15.86q-10.3,5.76-10.31,7.91,0,3.81,6.5,3.81a15.62,15.62,0,0,0,8.35-2.64,69.11,69.11,0,0,0,6.42-4.56c1.9-1.55,3.11-2.5,3.61-2.86a2.37,2.37,0,0,1,1.15-.54c.85,0,1.27,1,1.27,2.83a13.17,13.17,0,0,1-.34,3.74,6.31,6.31,0,0,1-2,2.22q-10.44,8.51-19.77,8.5a19.37,19.37,0,0,1-8-1.37q-5.48-2.49-5.47-7.62,0-6.73,9.33-10.2a4.28,4.28,0,0,1-2.4-2.13,11.86,11.86,0,0,1-.53-4.15c0-1.9.88-3.92,2.66-6A21.56,21.56,0,0,1,102.7,38q8.6-4.64,15.33-4.64a7.67,7.67,0,0,1,3.27.78A2.42,2.42,0,0,1,123,36.34Z"/><path class="cls-2" d="M126.48,63.1l0,.78a2.8,2.8,0,0,0,.93,2.1,2.62,2.62,0,0,0,1.7.88,28.51,28.51,0,0,0,10.38-1.76Q144,63.35,144,61.58c0-.55-.55-1-1.64-1.44a51.77,51.77,0,0,0-5.52-1.51q-3.87-.9-5.64-1.42a25.52,25.52,0,0,1-2.78-1,11,11,0,0,1-2.1-1.22A5.49,5.49,0,0,1,124,50.23a10.57,10.57,0,0,1,2.36-6.35,22,22,0,0,1,5.94-5.39,51.17,51.17,0,0,1,7.66-4q8.12-3.36,13.63-3.37c3.61,0,5.84.79,6.69,2.35a4.29,4.29,0,0,1,.39,1.85v.35a6.65,6.65,0,0,1-1.1,4,9.54,9.54,0,0,1-3.47,2.63,9.12,9.12,0,0,1-3.76,1.18,4.73,4.73,0,0,1-1.76-.2,2,2,0,0,1-.61-.51,1.42,1.42,0,0,0-.61-.47c-.24-.09-.36-.34-.36-.73a1.92,1.92,0,0,1,.48-1.19,3.64,3.64,0,0,0,.69-1.3,21.85,21.85,0,0,0-6.74,1.49,32,32,0,0,0-6,3,34.49,34.49,0,0,0-4.18,3.18c-1.1,1-1.66,1.75-1.66,2.22s.75.85,2.25,1.15q10.11,2,13.28,3.46a10.35,10.35,0,0,1,4.4,3.32,6.33,6.33,0,0,1,1.22,3.37,8.73,8.73,0,0,1-2.49,5.91,19.24,19.24,0,0,1-6.16,4.54q-7.86,3.85-13.69,3.86t-8.06-1.78a5.3,5.3,0,0,1-2.22-4.23,8.61,8.61,0,0,1,1.25-4.51,3.65,3.65,0,0,1,3.19-2.08C125.83,62.07,126.48,62.41,126.48,63.1Z"/><path class="cls-2" d="M163.24,63.1l0,.78a2.79,2.79,0,0,0,.92,2.1,2.66,2.66,0,0,0,1.71.88,28.51,28.51,0,0,0,10.38-1.76q4.51-1.75,4.51-3.52c0-.55-.54-1-1.63-1.44a51.77,51.77,0,0,0-5.52-1.51q-3.88-.9-5.64-1.42a25.52,25.52,0,0,1-2.78-1,10.43,10.43,0,0,1-2.1-1.22,5.49,5.49,0,0,1-2.3-4.81,10.52,10.52,0,0,1,2.37-6.35,22.12,22.12,0,0,1,5.93-5.39,51.78,51.78,0,0,1,7.67-4c5.4-2.24,9.95-3.37,13.62-3.37s5.85.79,6.69,2.35a4.29,4.29,0,0,1,.39,1.85v.35a6.65,6.65,0,0,1-1.09,4,9.63,9.63,0,0,1-3.47,2.63,9.12,9.12,0,0,1-3.76,1.18,4.69,4.69,0,0,1-1.76-.2,1.89,1.89,0,0,1-.61-.51,1.48,1.48,0,0,0-.61-.47c-.24-.09-.37-.34-.37-.73a1.93,1.93,0,0,1,.49-1.19,3.81,3.81,0,0,0,.69-1.3,21.85,21.85,0,0,0-6.74,1.49,31.36,31.36,0,0,0-6,3A34.49,34.49,0,0,0,170,46.84c-1.1,1-1.66,1.75-1.66,2.22s.75.85,2.25,1.15q10.11,2,13.28,3.46A10.31,10.31,0,0,1,188.24,57a6.25,6.25,0,0,1,1.22,3.37A8.73,8.73,0,0,1,187,66.27a19.31,19.31,0,0,1-6.15,4.54q-7.86,3.85-13.69,3.86t-8.06-1.78a5.3,5.3,0,0,1-2.22-4.23,8.6,8.6,0,0,1,1.24-4.51,3.67,3.67,0,0,1,3.2-2.08C162.59,62.07,163.24,62.41,163.24,63.1Z"/><path class="cls-2" d="M231.9,35.75q3.71,0,3.71,2.54a2.68,2.68,0,0,1-.64,2,31.34,31.34,0,0,0-2.71,4.23q-2.07,3.58-4.59,9.18a43.43,43.43,0,0,0-3.24,9.54,4.94,4.94,0,0,0-.15,1.37c0,1.79.49,2.69,1.46,2.69a6.46,6.46,0,0,0,3.47-1.39,25.86,25.86,0,0,0,3.57-3c1-1.06,2.05-2.14,3.05-3.25s1.58-1.74,1.78-1.9a1.3,1.3,0,0,1,.88-.25c.62,0,1,.47,1.12,1.42a21.4,21.4,0,0,1,.2,2.93,5.08,5.08,0,0,1-.3,2.1q-1.41,2.77-6.22,6.69t-8.74,3.9q-3.93,0-5.79-2.39a8.43,8.43,0,0,1-1.85-5.3,12.47,12.47,0,0,1,1-5.1,42,42,0,0,1-9.3,8.93q-5.25,3.67-8.57,3.67a7.56,7.56,0,0,1-5.42-2,9,9,0,0,1-2.68-6.91,21.94,21.94,0,0,1,2-8.89,32.32,32.32,0,0,1,5.2-8.16,52.88,52.88,0,0,1,7.08-6.71q8.11-6.35,15-6.35a9.24,9.24,0,0,1,4.29.88,4,4,0,0,1,2.1,2.2,7.27,7.27,0,0,1,2-2.22A5,5,0,0,1,231.9,35.75Zm-6.5,5.42q-8.34,0-17.28,9.28a41.28,41.28,0,0,0-5.84,8q-2.66,4.64-2.66,6.35c0,1.14.33,1.71,1,1.71q1.36,0,7.61-5.4a76.09,76.09,0,0,0,8.31-7.93Q218.76,50.31,225.4,41.17Z"/><path class="cls-2" d="M250.57,40.42a44.75,44.75,0,0,1,9.26-5,22.34,22.34,0,0,1,7.86-1.76q3.31,0,4.25,1.91a6.47,6.47,0,0,1,4.73-2.35c.55,0,1.24,0,2.05,0s1.32.1,1.52.31a3.16,3.16,0,0,1,.53,1.2c.17.59.26.91.3,1a.76.76,0,0,1,.05.31,1,1,0,0,1-.25.54,4.55,4.55,0,0,1-.56.61l-.37.34q-10.79,15.48-22.07,35.31,11.63-10.3,20.8-14.8a2.6,2.6,0,0,1,1.13-.29c.52,0,.86.33,1,1a12.91,12.91,0,0,1,.25,2.86,7.05,7.05,0,0,1-.22,2.29,8.88,8.88,0,0,1-2.27,1.76L273.25,69q-3.27,2.1-6.93,4.63a73,73,0,0,0-14.45,12.85,115.54,115.54,0,0,0-10.5,14.25,4.16,4.16,0,0,1-4,2.1q-5.5,0-5.51-5.22t5.22-10.89a72.77,72.77,0,0,1,7.18-6.79c2.18-1.75,3.37-2.75,3.56-3q3.62-5.42,9.82-15.38a60.93,60.93,0,0,1-10.23,8.79c-3.31,2.18-5.77,3.27-7.4,3.27q-7.47,0-7.47-6.39A22.77,22.77,0,0,1,235.17,57a35.6,35.6,0,0,1,6.64-9.25A61.16,61.16,0,0,1,250.57,40.42Zm18.58-1.25a40.06,40.06,0,0,0-18.85,10,48.06,48.06,0,0,0-5.56,6.56q-4.4,6.3-4.4,9.77c0,.55.14.83.42.83a5.28,5.28,0,0,0,1.85-.88,44.54,44.54,0,0,0,4.08-3c1.76-1.42,3.71-3.1,5.86-5.06A168.48,168.48,0,0,0,269.15,39.17Z"/><path class="cls-2" d="M310.8,36.34A7.52,7.52,0,0,1,308.19,42a8.45,8.45,0,0,1-5.93,2.45,1.61,1.61,0,0,1-1.42-.52,2.36,2.36,0,0,1-.34-1.34,6.18,6.18,0,0,1,.2-1.61,21.64,21.64,0,0,0-3.91,1.81,47.24,47.24,0,0,0-5.27,3.61q-3.13,2.39-3.13,3.56c0,.26.38.39,1.15.39a12.8,12.8,0,0,0,3.54-.8,12.54,12.54,0,0,1,3.34-.81,5.17,5.17,0,0,1,1.25.1A4.29,4.29,0,0,1,299,50.33a3.84,3.84,0,0,1,.73,1.81c0,.44-.43,1-1.27,1.73a8.92,8.92,0,0,1-2.88,1.63,16.83,16.83,0,0,0-2.15.86q-10.31,5.76-10.3,7.91,0,3.81,6.49,3.81A15.6,15.6,0,0,0,298,65.44a66.53,66.53,0,0,0,6.42-4.56c1.9-1.55,3.11-2.5,3.61-2.86a2.37,2.37,0,0,1,1.15-.54c.85,0,1.27,1,1.27,2.83a12.8,12.8,0,0,1-.34,3.74,6.37,6.37,0,0,1-1.95,2.22q-10.46,8.51-19.78,8.5a19.37,19.37,0,0,1-8-1.37Q275,70.91,275,65.78q0-6.73,9.33-10.2a4.22,4.22,0,0,1-2.39-2.13,11.58,11.58,0,0,1-.54-4.15q0-2.85,2.66-6A21.56,21.56,0,0,1,290.54,38q8.59-4.64,15.33-4.64a7.6,7.6,0,0,1,3.27.78A2.42,2.42,0,0,1,310.8,36.34Z"/></g></g></g></g></svg>