<?xml version="1.0" encoding="utf-8"?>
<!-- Generator: Adobe Illustrator 24.3.0, SVG Export Plug-In . SVG Version: 6.00 Build 0)  -->
<svg version="1.1" id="レイヤー_1" xmlns="http://www.w3.org/2000/svg" xmlns:xlink="http://www.w3.org/1999/xlink" x="0px"
	 y="0px" viewBox="0 0 1280 117.8" style="enable-background:new 0 0 1280 117.8;" xml:space="preserve">
<style type="text/css">
	.st0{fill:#FFFFFF;}
	.st1{fill:none;stroke:#B9B9B9;}
</style>
<g id="レイヤー_2_1_">
	<g id="レイヤー_1-2">
		<g id="About_NILAX">
			<g>
				<path class="st0" d="M98.4,9.7c1.5-3.4,2.6-5.1,3.2-5.1h0.3c0.7,0,2.2,0.8,4.5,2.3s3.4,3,3.4,4.4c0,1.9-6.2,16.6-18.8,44.2
					S71.4,98.6,69.6,102c-1.8,3.3-3.1,5.6-3.8,6.7c-0.8,1.3-1.8,2.6-2.8,3.7c-1.8,2.5-4.8,3.9-7.8,3.9c-1.1,0-2.3,0.1-3.4,0.5
					c-0.6,0.2-1.2,0.4-1.8,0.5c-1.6,0-2.3-0.4-2.3-1.1c0.2-0.6,0.4-1.2,0.6-1.8c0.4-1.1,6-12.9,16.7-35.6c-11.5-0.4-21.6-0.8-30.2-1
					c-8.3,10.5-15.9,21.5-22.7,33c-0.6,1.3-1.4,2.4-2.4,3.4c-0.8,0.7-1.9,1.1-3,1c-1.6-0.1-3-0.8-4.1-1.9c-1.4-1.1-2.2-2.7-2.2-4.5
					c0-4.9,6.3-15.3,18.9-31.3c-3.8-0.1-7.5,0-11.2,0.4c-1,0.2-2,0.4-3,0.4c-1.3,0-2-1.1-2-3.3s1.3-4.3,3.9-6s6.1-2.5,10.5-2.5
					c0.3,0,1,0,1.8-0.1c3-0.2,6.1-0.3,9.3-0.4c10.4-12.3,21.6-23.9,33.4-34.8C73.7,20.6,83.8,13.1,92.3,8.8c1-0.6,2.1-0.9,3.3-1
					C96.3,7.8,97.3,8.4,98.4,9.7z M93.3,20C75.4,33.6,59,49,44.5,66.1c8.7,0.2,17.4,0.6,26.2,1.1C79.6,48.5,87.1,32.7,93.3,20z"/>
				<path class="st0" d="M149,7.9c-10.3,15.5-20.3,31.7-30.1,48.6c2.4-1.2,4.9-2.1,7.6-2.5c2-0.4,3.9-0.7,5.9-0.8c1.1,0,2.1,0,3,0.1
					c1.1,0.1,2.2,0.4,3.2,0.8c1.2,0.4,2.4,1.1,3.3,1.9c2.3,2,3.4,4.8,3.4,8.5c-0.1,4.2-1.2,8.3-3,12c-2.2,4.7-4.9,9.1-8.1,13.2
					c-3.4,4.4-7.1,8.5-11.1,12.4c-3.9,3.7-8.3,6.8-13,9.3c-4,2.2-8.4,3.4-13,3.6c-1.9,0-4-1.2-6.4-3.6c-2.5-2.5-3.8-5.9-3.6-9.4
					c0-3.9,1.7-10,5-18.2c3.6-8.6,7.7-16.9,12.3-25c4.8-8.5,9.7-16.7,14.7-24.8c5-8.1,9.3-14.7,12.9-19.8c2-3.1,4.1-6,6.4-8.9
					c1.2-1,2.7-1.7,4.3-2c1.8-0.5,3.6-0.8,5.4-0.8c1.5,0,2.3,0.7,2.3,2.1C150.2,5.7,149.8,6.9,149,7.9z M129.3,78.2
					c1.8-2.9,2.8-6.2,3-9.6c0-2.9-0.9-4.3-2.7-4.3c-1.8,0-4.6,0.8-8.4,2.4s-5.9,2.4-6.5,2.4c-0.8-0.2-1.6-0.6-2.1-1.3
					c-9.5,17.1-14.3,28.1-14.3,32.8c0,2.2,0.7,3.3,2.1,3.3c3.4,0,8.2-2.8,14.6-8.5C120.6,90.5,125.5,84.7,129.3,78.2z"/>
				<path class="st0" d="M194.4,56.6c1.7,0.1,3.3,0.8,4.5,2c1.5,1.3,2.3,3.3,2.3,6c0,2.7-1,6.2-2.9,10.6c-2.1,4.7-4.7,9.1-7.8,13.2
					c-3.3,4.5-7,8.7-11,12.6c-3.8,3.8-8.2,7.1-12.9,9.7c-4.6,2.5-8.8,3.8-12.6,3.8c-3.4,0.1-6.7-1.1-9.1-3.6
					c-2.3-2.4-3.4-5.7-3.4-9.9c0.1-4.8,1.2-9.6,3.1-14c1.9-4.9,4.6-9.5,8-13.6c3.2-3.9,6.8-7.4,10.6-10.6c8-6.4,15-9.6,21-9.6
					c2.7,0,4.7,0.7,6.1,2c0.4,0.3,0.7,0.7,0.7,1.2v0.4C192.2,56.6,193.3,56.6,194.4,56.6z M187,66.3h-0.5c-1.7,0-2.6-1.2-2.6-3.7
					c-4,1.4-7.8,3.5-11.2,6.1c-3.9,3-7.5,6.5-10.5,10.4c-6.2,8-9.4,14.8-9.5,20.3c0,2.7,1,4.1,3,4.1s5-1.3,8.9-4
					c4.5-3.1,8.4-6.9,11.8-11.3c3.3-4,6.2-8.2,8.7-12.7c1.9-3.6,2.9-6,2.9-7.3C188,67,187.7,66.3,187,66.3z"/>
				<path class="st0" d="M261.6,89.4c0.9,0,1.5,0.7,1.7,2.1c0.2,1.5,0.3,2.9,0.3,4.4c0.1,1.1-0.1,2.1-0.4,3.2
					c-1.4,2.7-4.5,6.1-9.3,10c-4.8,3.9-9.3,5.9-13.6,5.9c-2.6,0-5.2-0.8-7.3-2.4c-2.2-1.6-3.4-4.4-3.4-8.3c0-4.1,1.1-8.1,3.1-11.6
					c-12.1,15.2-21.6,22.8-28.5,22.8c-2.5,0.1-5-1-6.6-2.9c-1.5-1.6-2.4-3.8-2.5-6c0-2.2,0.3-4.3,0.9-6.4c0.6-2.2,1.2-4.2,1.9-6
					c0.9-2.2,1.8-4.4,2.9-6.5c1.3-2.6,2.3-4.5,2.9-5.7s1.6-2.9,3-5.3s3.3-5.6,5.5-9.6c1.7-3.1,3.6-6.1,5.6-8.9
					c1.5-1.9,2.9-2.9,4.4-2.9c1.4,0,2.8,0.6,3.7,1.7c0.8,0.7,1.4,1.7,1.6,2.8c0,0.7-1.6,4-4.9,9.9c-9.7,17.5-14.5,27.7-14.5,30.5
					c0,0.7,0.3,1.1,0.8,1.1c2.3,0,8.2-5.1,17.5-15.2s14.7-16.7,16.2-19.5c1.3-2.5,2.7-4.9,4.3-7.2c0.9-1.4,1.9-2.6,3.1-3.6
					c2.5-1.5,5.3-2.2,8.1-2.2c0.4,0,0.8,0,1.2,0.1c0.3,0,0.6,0.5,1,1.2c0.3,0.6,0.5,1.2,0.6,1.8c-0.4,1.3-2.4,5-5.8,10.9
					c-3.4,5.9-5.4,9.3-5.8,10c-5.8,11.9-8.6,19.7-8.6,23.3c0,2,0.8,3.1,2.4,3.1c2.8-0.4,6.2-2.7,10.2-6.8c1.5-1.5,2.9-3,4.4-4.6
					c0.8-1,1.7-1.9,2.7-2.8C260.7,89.5,261.2,89.4,261.6,89.4z"/>
				<path class="st0" d="M309.3,18.1l3,0.7c0.5,0,0.9,0.3,1.2,0.7c0.3,0.3,0.5,0.8,0.5,1.2c-0.3,1.1-0.9,2.2-1.5,3.1
					c-1,1.7-2.2,3.7-3.6,5.8c-1.4,2.2-2.1,3.3-2.2,3.5c3.8-0.3,6.5-0.4,8.1-0.4c1.1-0.1,2.2,0.1,3.3,0.3c0.8,0.4,1.6,1.1,2.1,1.9
					c0.6,0.8,1.2,1.6,2,2.2c0.7,0.6,1.1,1.4,1,2.3c-0.1,1.1-0.8,2.2-1.9,2.6c-1.2,0.7-2.6,1.1-4,1.3c-11.3,1.1-17.6,1.7-18.8,1.8
					c-4,6-9.5,15.5-16.6,28.3c-7.1,12.8-10.9,20.8-11.3,24.1c-0.2,1.2-0.3,2.4-0.3,3.6c0,1.9,1,2.9,3,2.9c2.4-0.1,4.7-0.9,6.7-2.3
					c2.4-1.5,4.6-3.2,6.7-5c5.5-4.9,8.4-7.3,8.8-7.3c1.3,0,1.9,2.2,1.9,6.6c-0.1,2.5-1.3,4.9-3.3,6.4c-3.9,3.5-8.1,6.7-12.5,9.6
					c-3,2-6.5,3.2-10.1,3.2c-0.7,0-1.4-0.1-2-0.2c-3.9-0.7-6.8-2.2-8.6-4.3c-1.8-2.1-2.7-5-2.7-8.6s1.1-8,3.2-13.2
					c2.3-5.6,5-11.1,8-16.4c5.3-9.5,10.5-18.4,15.8-26.7l-2.8,0.4c-5.7,0.6-9,1-9.9,1h-0.7c-1.4,0-2.8-0.3-4.1-0.8
					c-1.3-0.6-2-1.2-2-2.1c0-0.9,0.4-1.8,1.1-2.4c0.6-0.5,1-1.2,1.3-1.9c0.3-1.1,1.6-2.3,3.9-3.6c1.5-1,3.2-1.7,5-2.1l3.3-0.2
					l3.5-0.2c1.3,0,2.3-0.1,3-0.1l6.6-0.3c2.6-4.1,5.4-8.1,8.5-11.9c0.8-1,1.7-2,2.7-2.9c0.5-0.2,1-0.3,1.5-0.2L309.3,18.1z"/>
				<path class="st0" d="M389.3,8.3l5.4-1.2c1.2-0.1,2.3,0.2,3.3,0.8c0.8,0.6,1.2,1.1,1.2,1.6c0,0.8-0.2,1.5-0.4,2.2
					c-0.2,1-2.2,10.5-5.9,28.6c-3.7,18.1-6.4,31.6-8.1,40.5c8.3-11.3,18-25.2,29.1-41.7s17.6-27.5,19.4-32.9c0.4-1.5,1.2-2.9,2.3-4
					c0.7-0.7,1.5-1.3,2.5-1.6c1.1-0.2,2.2-0.3,3.4-0.3c1.8,0.1,3.6,0.4,5.4,1c2.1,0.7,3.1,1.8,3.1,3.3c0,2.9-4.3,11.2-12.8,24.9
					c-8.5,13.7-18.3,28.3-29.3,43.7c-11,15.4-20.1,27.6-27.5,36.6c-1.1,1.5-2.9,2.4-4.8,2.4c-2,0-4-0.4-5.9-1
					c-2.1-0.7-3.1-1.8-3.1-3.5c0-5.4,4.7-31.2,14.1-77.4c-8.1,10.4-17.8,25-29.4,43.7c-12,19.3-18.8,31.2-20.4,35.9
					c-0.9,2.8-1.9,4.4-3,4.8c-0.8,0.3-1.6,0.5-2.5,0.5l-5.8,0.7c-1.1,0-2.2-0.4-3.1-1c-1-0.6-1.4-1.3-1.4-2c0-2,2.7-7.8,8.1-17.5
					c5.4-9.7,11.7-20.2,18.9-31.6c7.2-11.4,14.7-22.5,22.6-33.3c7.9-10.8,13.9-18.1,18.2-21.8c0.8-0.8,1.9-1.2,3-1.2L389.3,8.3z"/>
				<path class="st0" d="M489.5,6.2l3.5-0.1c1.3,0,1.9,0.5,1.9,1.5c0,0.2,0,0.5-0.1,0.7c-23.3,34.3-45.1,68-65.4,100.9
					c-1.1,1.8-2,2.8-2.9,3c-0.3,0.1-0.5,0.2-0.7,0.3c-1.6,0.7-3.4,1.2-5.1,1.4c-0.5,0-1.1,0-1.6,0.1c-0.4,0.5-1,0.7-1.6,0.7
					c-0.4,0-0.8,0-1.2,0c-0.6-0.1-1.1-0.3-1.7-0.6c-0.9-0.4-1.4-0.7-1.4-0.8c-0.1-1.4,0-2.9,0.3-4.3c1-3.5,6.7-13.2,16.9-29.3
					s20.7-31.8,31.3-47.1C472.3,17.1,478.7,8.6,481,6.8c0.8-0.6,1.7-0.8,2.7-0.8L489.5,6.2z"/>
				<path class="st0" d="M497.5,103.3c-9.1,8.1-19.9,12.2-32.5,12.2c-7.6,0-13.1-1.6-16.3-4.8c-1.9-1.8-2.8-4.9-2.8-9.3
					c0-6.8,5.2-11.3,15.6-13.3c3.9-0.7,7.8-1,11.8-1c4.6,0,10.9,0.9,18.8,2.6c4.3-4.7,9.3-11.7,15.2-20.9c5.9-9.2,10.5-16.3,14-21.3
					c3.4-5,7.3-10.1,11.6-15.3c4.2-5,8.7-9.7,13.6-14.1c9.6-8.6,19.1-12.8,28.5-12.8c4.2,0,7.2,1.1,9.1,3.2c1.8,2.1,2.8,4.8,2.8,7.6
					c0,2.9-1.3,6.3-4,10.1c-2.6,3.8-5.7,7.3-9.2,10.3c-3.2,2.8-6.7,5.3-10.3,7.6c-3.4,2.1-6.1,3.1-8,3.1c-2,0-3.8-0.9-5-2.5
					c-1.3-1.3-2-3-2.1-4.8c-0.1-1.1,0.1-2.2,0.6-3.2c0.4-0.6,0.8-0.9,1.3-0.9s0.7,0.3,0.8,0.8c1.6-0.5,4.1-2,7.5-4.6
					c3.3-2.4,6.5-5.1,9.4-8c2.8-2.8,4.2-4.5,4.2-5.3c0-0.7-0.4-1.1-1.3-1.1c-1.2,0.1-2.4,0.4-3.5,0.9c-2.1,1-4.1,2.2-5.8,3.6
					c-2.8,2.2-5.5,4.5-7.9,7.1c-6.8,6.8-14.5,16.5-22.8,29.1c-2,2.8-4.7,7-8.3,12.4c-7.3,11-12.5,18.5-15.6,22.6
					c25,6.6,42.9,9.9,53.7,9.9c5,0,8.5-0.6,10.5-1.9c0.4-0.3,0.9-0.5,1.5-0.7c0.2,0,0.4,0.2,0.4,0.6c-0.1,0.6-0.3,1.2-0.7,1.8
					c-0.4,0.8-1.5,2.4-3.3,5s-3,4-3.8,4.5c-2.4,1.4-6.5,2.1-12.2,2.1c-5.5,0-11-0.4-16.4-1.2c-5.2-0.8-9.4-1.7-12.6-2.5
					c-3.2-0.8-7.9-2.1-14.1-3.9C503.5,105,499.4,103.8,497.5,103.3z M470.7,98.8c-6.4,0-9.6,0.8-9.6,2.3c0,0.6,0.5,1.1,1.6,1.5
					c1.3,0.5,2.6,0.7,3.9,0.7c4.8,0,9.5-1.3,13.7-3.7C477.2,99.1,473.9,98.8,470.7,98.8L470.7,98.8z"/>
				<path class="st0" d="M667.2,9.7c1.5-3.4,2.6-5.1,3.2-5.1h0.4c0.7,0,2.2,0.8,4.5,2.3s3.4,3,3.4,4.4c0,1.9-6.2,16.6-18.8,44.2
					s-19.7,43.1-21.5,46.4c-1.8,3.3-3.1,5.6-3.8,6.7c-0.8,1.3-1.8,2.6-2.8,3.7c-1.9,2.5-4.8,3.9-7.8,3.9c-1.1,0-2.3,0.1-3.4,0.5
					c-0.6,0.2-1.2,0.4-1.8,0.5c-1.6,0-2.3-0.4-2.3-1.1c0.2-0.6,0.4-1.2,0.6-1.8c0.4-1.1,6-12.9,16.7-35.6c-11.5-0.4-21.6-0.8-30.2-1
					c-8.3,10.5-15.9,21.5-22.7,33c-0.6,1.3-1.4,2.4-2.3,3.4c-0.8,0.7-1.9,1.1-3,1c-1.6-0.1-3-0.8-4.1-1.9c-1.4-1.1-2.2-2.7-2.2-4.5
					c0-4.9,6.3-15.3,18.9-31.3c-3.8-0.1-7.5,0-11.2,0.4c-1,0.2-2,0.4-3,0.4c-1.3,0-2-1.1-2-3.3s1.3-4.2,3.9-5.9s6.1-2.5,10.5-2.5
					c0.3,0,1,0,1.8-0.1c3-0.2,6.1-0.3,9.3-0.4c10.4-12.3,21.6-23.9,33.4-34.8c11.6-10.7,21.7-18.2,30.2-22.5c1-0.6,2.1-0.9,3.3-1
					C665.1,7.8,666.1,8.4,667.2,9.7z M662.1,20c-17.9,13.6-34.3,29-48.9,46.1c8.7,0.2,17.4,0.6,26.2,1.1
					C648.4,48.5,655.9,32.7,662.1,20z"/>
				<path class="st0" d="M656.3,113.8l-0.4,0.1c-0.3,0-1-0.5-2.1-1.4l-1.9-1.8c-0.3-0.2-0.5-0.5-0.8-0.7l-0.7-0.5
					c-0.2-0.1-0.3-0.3-0.5-0.4c-0.2-0.1-0.3-0.3-0.4-0.5c-0.1-0.1-0.2-0.3-0.3-0.4c-0.2-0.4-0.2-0.8-0.2-1.3
					c0.1-0.8,0.2-1.7,0.5-2.4c0.5-1.7,5.5-6.4,15-14.1s23.3-18.6,41.4-32.7c0.7-2.7,1.5-5.9,2.6-9.7s1.9-6.8,2.5-9.2
					c0.6-2.3,1.2-4.7,1.9-7.2c0.8-2.7,1.4-5.4,1.8-8.1c0-0.7-0.2-1-0.7-1c-1.8,0-5.8,2.8-12.1,8.4s-9.4,9.3-9.4,11
					c0,1.1-0.4,1.7-1.2,1.7c-0.5,0-1.3-0.6-2.4-1.7c-0.9-0.9-1.5-2-1.8-3.2c-0.1-1-0.2-1.8-0.4-2.5c-0.2-1.2-0.3-2.4-0.4-3.7
					c0-2.5,2.3-5.9,7-10.3c4.7-4.4,9.9-8.3,15.5-11.5c5.6-3.3,9.7-5,12.3-5c2.3-0.1,4.6,0.9,6.1,2.6c1.5,1.8,2.3,4.3,2.3,7.6
					s-2.1,12.7-6.3,28.3c27.4-21,41.8-32,43.3-32.8c2.1-1,4.3-1.4,6.6-1.3c3.1,0,6.1,0.6,8.9,1.8c0.9,0.4,1.4,0.9,1.4,1.5
					c0,0.6-0.2,1.2-0.5,1.7c-0.6,0.7-1.2,1.4-2,1.9c-1,0.8-2.9,2.2-5.8,4.2s-6.3,4.6-10.4,7.6c-9.4,6.9-25.1,18.9-47,36
					c-4.7,18-7,29.6-7,34.9c0,1.4,0.2,2,0.5,2c0.5-0.1,0.9-0.3,1.3-0.6c2.9-1.7,7.6-5.4,14.2-11.2c6.6-5.7,10.5-9.4,11.8-10.9
					c1.3-1.5,2.2-2.3,2.7-2.2c0.7,0,1.1,0.9,1.1,2.6l-0.1,1.2c0,0,0.2,0.8,0.7,2.1c0.5,1.5,0.7,3.1,0.7,4.7c0.1,1.5-0.3,3-1,4.2
					c-0.9,1.4-1.9,2.7-3,3.9c-1.3,1.6-3.2,3.5-5.6,5.8c-2.4,2.3-4.9,4.4-7.6,6.3c-6.6,4.9-12.8,7.3-18.6,7.3c-2.8,0-5.4-1.2-7.4-3.2
					c-2.2-2.1-3.3-5.5-3.3-10.1s1.3-12.4,3.8-23.3c-27.9,23.4-42.1,35.2-42.4,35.4c-0.3,0.1-0.7,0.2-1,0.2L656.3,113.8z"/>
			</g>
			<g>
				<path class="st1" d="M98.4,9.7c1.5-3.4,2.6-5.1,3.2-5.1h0.3c0.7,0,2.2,0.8,4.5,2.3s3.4,3,3.4,4.4c0,1.9-6.2,16.6-18.8,44.2
					S71.4,98.6,69.6,102c-1.8,3.3-3.1,5.6-3.8,6.7c-0.8,1.3-1.8,2.6-2.8,3.7c-1.8,2.5-4.8,3.9-7.8,3.9c-1.1,0-2.3,0.1-3.4,0.5
					c-0.6,0.2-1.2,0.4-1.8,0.5c-1.6,0-2.3-0.4-2.3-1.1c0.2-0.6,0.4-1.2,0.6-1.8c0.4-1.1,6-12.9,16.7-35.6c-11.5-0.4-21.6-0.8-30.2-1
					c-8.3,10.5-15.9,21.5-22.7,33c-0.6,1.3-1.4,2.4-2.4,3.4c-0.8,0.7-1.9,1.1-3,1c-1.6-0.1-3-0.8-4.1-1.9c-1.4-1.1-2.2-2.7-2.2-4.5
					c0-4.9,6.3-15.3,18.9-31.3c-3.8-0.1-7.5,0-11.2,0.4c-1,0.2-2,0.4-3,0.4c-1.3,0-2-1.1-2-3.3s1.3-4.3,3.9-6s6.1-2.5,10.5-2.5
					c0.3,0,1,0,1.8-0.1c3-0.2,6.1-0.3,9.3-0.4c10.4-12.3,21.6-23.9,33.4-34.8C73.7,20.6,83.8,13.1,92.3,8.8c1-0.6,2.1-0.9,3.3-1
					C96.3,7.8,97.3,8.4,98.4,9.7z M93.3,20C75.4,33.6,59,49,44.5,66.1c8.7,0.2,17.4,0.6,26.2,1.1C79.6,48.5,87.1,32.7,93.3,20z"/>
				<path class="st1" d="M149,7.9c-10.3,15.5-20.3,31.7-30.1,48.6c2.4-1.2,4.9-2.1,7.6-2.5c2-0.4,3.9-0.7,5.9-0.8c1.1,0,2.1,0,3,0.1
					c1.1,0.1,2.2,0.4,3.2,0.8c1.2,0.4,2.4,1.1,3.3,1.9c2.3,2,3.4,4.8,3.4,8.5c-0.1,4.2-1.2,8.3-3,12c-2.2,4.7-4.9,9.1-8.1,13.2
					c-3.4,4.4-7.1,8.5-11.1,12.4c-3.9,3.7-8.3,6.8-13,9.3c-4,2.2-8.4,3.4-13,3.6c-1.9,0-4-1.2-6.4-3.6c-2.5-2.5-3.8-5.9-3.6-9.4
					c0-3.9,1.7-10,5-18.2c3.6-8.6,7.7-16.9,12.3-25c4.8-8.5,9.7-16.7,14.7-24.8c5-8.1,9.3-14.7,12.9-19.8c2-3.1,4.1-6,6.4-8.9
					c1.2-1,2.7-1.7,4.3-2c1.8-0.5,3.6-0.8,5.4-0.8c1.5,0,2.3,0.7,2.3,2.1C150.2,5.7,149.8,6.9,149,7.9z M129.3,78.2
					c1.8-2.9,2.8-6.2,3-9.6c0-2.9-0.9-4.3-2.7-4.3c-1.8,0-4.6,0.8-8.4,2.4s-5.9,2.4-6.5,2.4c-0.8-0.2-1.6-0.6-2.1-1.3
					c-9.5,17.1-14.3,28.1-14.3,32.8c0,2.2,0.7,3.3,2.1,3.3c3.4,0,8.2-2.8,14.6-8.5C120.6,90.5,125.5,84.7,129.3,78.2z"/>
				<path class="st1" d="M194.4,56.6c1.7,0.1,3.3,0.8,4.5,2c1.5,1.3,2.3,3.3,2.3,6c0,2.7-1,6.2-2.9,10.6c-2.1,4.7-4.7,9.1-7.8,13.2
					c-3.3,4.5-7,8.7-11,12.6c-3.8,3.8-8.2,7.1-12.9,9.7c-4.6,2.5-8.8,3.8-12.6,3.8c-3.4,0.1-6.7-1.1-9.1-3.6
					c-2.3-2.4-3.4-5.7-3.4-9.9c0.1-4.8,1.2-9.6,3.1-14c1.9-4.9,4.6-9.5,8-13.6c3.2-3.9,6.8-7.4,10.6-10.6c8-6.4,15-9.6,21-9.6
					c2.7,0,4.7,0.7,6.1,2c0.4,0.3,0.7,0.7,0.7,1.2v0.4C192.2,56.6,193.3,56.6,194.4,56.6z M187,66.3h-0.5c-1.7,0-2.6-1.2-2.6-3.7
					c-4,1.4-7.8,3.5-11.2,6.1c-3.9,3-7.5,6.5-10.5,10.4c-6.2,8-9.4,14.8-9.5,20.3c0,2.7,1,4.1,3,4.1s5-1.3,8.9-4
					c4.5-3.1,8.4-6.9,11.8-11.3c3.3-4,6.2-8.2,8.7-12.7c1.9-3.6,2.9-6,2.9-7.3C188,67,187.7,66.3,187,66.3z"/>
				<path class="st1" d="M261.6,89.4c0.9,0,1.5,0.7,1.7,2.1c0.2,1.5,0.3,2.9,0.3,4.4c0.1,1.1-0.1,2.1-0.4,3.2
					c-1.4,2.7-4.5,6.1-9.3,10c-4.8,3.9-9.3,5.9-13.6,5.9c-2.6,0-5.2-0.8-7.3-2.4c-2.2-1.6-3.4-4.4-3.4-8.3c0-4.1,1.1-8.1,3.1-11.6
					c-12.1,15.2-21.6,22.8-28.5,22.8c-2.5,0.1-5-1-6.6-2.9c-1.5-1.6-2.4-3.8-2.5-6c0-2.2,0.3-4.3,0.9-6.4c0.6-2.2,1.2-4.2,1.9-6
					c0.9-2.2,1.8-4.4,2.9-6.5c1.3-2.6,2.3-4.5,2.9-5.7s1.6-2.9,3-5.3s3.3-5.6,5.5-9.6c1.7-3.1,3.6-6.1,5.6-8.9
					c1.5-1.9,2.9-2.9,4.4-2.9c1.4,0,2.8,0.6,3.7,1.7c0.8,0.7,1.4,1.7,1.6,2.8c0,0.7-1.6,4-4.9,9.9c-9.7,17.5-14.5,27.7-14.5,30.5
					c0,0.7,0.3,1.1,0.8,1.1c2.3,0,8.2-5.1,17.5-15.2s14.7-16.7,16.2-19.5c1.3-2.5,2.7-4.9,4.3-7.2c0.9-1.4,1.9-2.6,3.1-3.6
					c2.5-1.5,5.3-2.2,8.1-2.2c0.4,0,0.8,0,1.2,0.1c0.3,0,0.6,0.5,1,1.2c0.3,0.6,0.5,1.2,0.6,1.8c-0.4,1.3-2.4,5-5.8,10.9
					c-3.4,5.9-5.4,9.3-5.8,10c-5.8,11.9-8.6,19.7-8.6,23.3c0,2,0.8,3.1,2.4,3.1c2.8-0.4,6.2-2.7,10.2-6.8c1.5-1.5,2.9-3,4.4-4.6
					c0.8-1,1.7-1.9,2.7-2.8C260.7,89.5,261.2,89.4,261.6,89.4z"/>
				<path class="st1" d="M309.3,18.1l3,0.7c0.5,0,0.9,0.3,1.2,0.7c0.3,0.3,0.5,0.8,0.5,1.2c-0.3,1.1-0.9,2.2-1.5,3.1
					c-1,1.7-2.2,3.7-3.6,5.8c-1.4,2.2-2.1,3.3-2.2,3.5c3.8-0.3,6.5-0.4,8.1-0.4c1.1-0.1,2.2,0.1,3.3,0.3c0.8,0.4,1.6,1.1,2.1,1.9
					c0.6,0.8,1.2,1.6,2,2.2c0.7,0.6,1.1,1.4,1,2.3c-0.1,1.1-0.8,2.2-1.9,2.6c-1.2,0.7-2.6,1.1-4,1.3c-11.3,1.1-17.6,1.7-18.8,1.8
					c-4,6-9.5,15.5-16.6,28.3c-7.1,12.8-10.9,20.8-11.3,24.1c-0.2,1.2-0.3,2.4-0.3,3.6c0,1.9,1,2.9,3,2.9c2.4-0.1,4.7-0.9,6.7-2.3
					c2.4-1.5,4.6-3.2,6.7-5c5.5-4.9,8.4-7.3,8.8-7.3c1.3,0,1.9,2.2,1.9,6.6c-0.1,2.5-1.3,4.9-3.3,6.4c-3.9,3.5-8.1,6.7-12.5,9.6
					c-3,2-6.5,3.2-10.1,3.2c-0.7,0-1.4-0.1-2-0.2c-3.9-0.7-6.8-2.2-8.6-4.3c-1.8-2.1-2.7-5-2.7-8.6s1.1-8,3.2-13.2
					c2.3-5.6,5-11.1,8-16.4c5.3-9.5,10.5-18.4,15.8-26.7l-2.8,0.4c-5.7,0.6-9,1-9.9,1h-0.7c-1.4,0-2.8-0.3-4.1-0.8
					c-1.3-0.6-2-1.2-2-2.1c0-0.9,0.4-1.8,1.1-2.4c0.6-0.5,1-1.2,1.3-1.9c0.3-1.1,1.6-2.3,3.9-3.6c1.5-1,3.2-1.7,5-2.1l3.3-0.2
					l3.5-0.2c1.3,0,2.3-0.1,3-0.1l6.6-0.3c2.6-4.1,5.4-8.1,8.5-11.9c0.8-1,1.7-2,2.7-2.9c0.5-0.2,1-0.3,1.5-0.2L309.3,18.1z"/>
				<path class="st1" d="M389.3,8.3l5.4-1.2c1.2-0.1,2.3,0.2,3.3,0.8c0.8,0.6,1.2,1.1,1.2,1.6c0,0.8-0.2,1.5-0.4,2.2
					c-0.2,1-2.2,10.5-5.9,28.6c-3.7,18.1-6.4,31.6-8.1,40.5c8.3-11.3,18-25.2,29.1-41.7s17.6-27.5,19.4-32.9c0.4-1.5,1.2-2.9,2.3-4
					c0.7-0.7,1.5-1.3,2.5-1.6c1.1-0.2,2.2-0.3,3.4-0.3c1.8,0.1,3.6,0.4,5.4,1c2.1,0.7,3.1,1.8,3.1,3.3c0,2.9-4.3,11.2-12.8,24.9
					c-8.5,13.7-18.3,28.3-29.3,43.7c-11,15.4-20.1,27.6-27.5,36.6c-1.1,1.5-2.9,2.4-4.8,2.4c-2,0-4-0.4-5.9-1
					c-2.1-0.7-3.1-1.8-3.1-3.5c0-5.4,4.7-31.2,14.1-77.4c-8.1,10.4-17.8,25-29.4,43.7c-12,19.3-18.8,31.2-20.4,35.9
					c-0.9,2.8-1.9,4.4-3,4.8c-0.8,0.3-1.6,0.5-2.5,0.5l-5.8,0.7c-1.1,0-2.2-0.4-3.1-1c-1-0.6-1.4-1.3-1.4-2c0-2,2.7-7.8,8.1-17.5
					c5.4-9.7,11.7-20.2,18.9-31.6c7.2-11.4,14.7-22.5,22.6-33.3c7.9-10.8,13.9-18.1,18.2-21.8c0.8-0.8,1.9-1.2,3-1.2L389.3,8.3z"/>
				<path class="st1" d="M489.5,6.2l3.5-0.1c1.3,0,1.9,0.5,1.9,1.5c0,0.2,0,0.5-0.1,0.7c-23.3,34.3-45.1,68-65.4,100.9
					c-1.1,1.8-2,2.8-2.9,3c-0.3,0.1-0.5,0.2-0.7,0.3c-1.6,0.7-3.4,1.2-5.1,1.4c-0.5,0-1.1,0-1.6,0.1c-0.4,0.5-1,0.7-1.6,0.7
					c-0.4,0-0.8,0-1.2,0c-0.6-0.1-1.1-0.3-1.7-0.6c-0.9-0.4-1.4-0.7-1.4-0.8c-0.1-1.4,0-2.9,0.3-4.3c1-3.5,6.7-13.2,16.9-29.3
					s20.7-31.8,31.3-47.1C472.3,17.1,478.7,8.6,481,6.8c0.8-0.6,1.7-0.8,2.7-0.8L489.5,6.2z"/>
				<path class="st1" d="M497.5,103.3c-9.1,8.1-19.9,12.2-32.5,12.2c-7.6,0-13.1-1.6-16.3-4.8c-1.9-1.8-2.8-4.9-2.8-9.3
					c0-6.8,5.2-11.3,15.6-13.3c3.9-0.7,7.8-1,11.8-1c4.6,0,10.9,0.9,18.8,2.6c4.3-4.7,9.3-11.7,15.2-20.9c5.9-9.2,10.5-16.3,14-21.3
					c3.4-5,7.3-10.1,11.6-15.3c4.2-5,8.7-9.7,13.6-14.1c9.6-8.6,19.1-12.8,28.5-12.8c4.2,0,7.2,1.1,9.1,3.2c1.8,2.1,2.8,4.8,2.8,7.6
					c0,2.9-1.3,6.3-4,10.1c-2.6,3.8-5.7,7.3-9.2,10.3c-3.2,2.8-6.7,5.3-10.3,7.6c-3.4,2.1-6.1,3.1-8,3.1c-2,0-3.8-0.9-5-2.5
					c-1.3-1.3-2-3-2.1-4.8c-0.1-1.1,0.1-2.2,0.6-3.2c0.4-0.6,0.8-0.9,1.3-0.9s0.7,0.3,0.8,0.8c1.6-0.5,4.1-2,7.5-4.6
					c3.3-2.4,6.5-5.1,9.4-8c2.8-2.8,4.2-4.5,4.2-5.3c0-0.7-0.4-1.1-1.3-1.1c-1.2,0.1-2.4,0.4-3.5,0.9c-2.1,1-4.1,2.2-5.8,3.6
					c-2.8,2.2-5.5,4.5-7.9,7.1c-6.8,6.8-14.5,16.5-22.8,29.1c-2,2.8-4.7,7-8.3,12.4c-7.3,11-12.5,18.5-15.6,22.6
					c25,6.6,42.9,9.9,53.7,9.9c5,0,8.5-0.6,10.5-1.9c0.4-0.3,0.9-0.5,1.5-0.7c0.2,0,0.4,0.2,0.4,0.6c-0.1,0.6-0.3,1.2-0.7,1.8
					c-0.4,0.8-1.5,2.4-3.3,5s-3,4-3.8,4.5c-2.4,1.4-6.5,2.1-12.2,2.1c-5.5,0-11-0.4-16.4-1.2c-5.2-0.8-9.4-1.7-12.6-2.5
					c-3.2-0.8-7.9-2.1-14.1-3.9C503.5,105,499.4,103.8,497.5,103.3z M470.7,98.8c-6.4,0-9.6,0.8-9.6,2.3c0,0.6,0.5,1.1,1.6,1.5
					c1.3,0.5,2.6,0.7,3.9,0.7c4.8,0,9.5-1.3,13.7-3.7C477.2,99.1,473.9,98.8,470.7,98.8L470.7,98.8z"/>
				<path class="st1" d="M667.2,9.7c1.5-3.4,2.6-5.1,3.2-5.1h0.4c0.7,0,2.2,0.8,4.5,2.3s3.4,3,3.4,4.4c0,1.9-6.2,16.6-18.8,44.2
					s-19.7,43.1-21.5,46.4c-1.8,3.3-3.1,5.6-3.8,6.7c-0.8,1.3-1.8,2.6-2.8,3.7c-1.9,2.5-4.8,3.9-7.8,3.9c-1.1,0-2.3,0.1-3.4,0.5
					c-0.6,0.2-1.2,0.4-1.8,0.5c-1.6,0-2.3-0.4-2.3-1.1c0.2-0.6,0.4-1.2,0.6-1.8c0.4-1.1,6-12.9,16.7-35.6c-11.5-0.4-21.6-0.8-30.2-1
					c-8.3,10.5-15.9,21.5-22.7,33c-0.6,1.3-1.4,2.4-2.3,3.4c-0.8,0.7-1.9,1.1-3,1c-1.6-0.1-3-0.8-4.1-1.9c-1.4-1.1-2.2-2.7-2.2-4.5
					c0-4.9,6.3-15.3,18.9-31.3c-3.8-0.1-7.5,0-11.2,0.4c-1,0.2-2,0.4-3,0.4c-1.3,0-2-1.1-2-3.3s1.3-4.2,3.9-5.9s6.1-2.5,10.5-2.5
					c0.3,0,1,0,1.8-0.1c3-0.2,6.1-0.3,9.3-0.4c10.4-12.3,21.6-23.9,33.4-34.8c11.6-10.7,21.7-18.2,30.2-22.5c1-0.6,2.1-0.9,3.3-1
					C665.1,7.8,666.1,8.4,667.2,9.7z M662.1,20c-17.9,13.6-34.3,29-48.9,46.1c8.7,0.2,17.4,0.6,26.2,1.1
					C648.4,48.5,655.9,32.7,662.1,20z"/>
				<path class="st1" d="M656.3,113.8l-0.4,0.1c-0.3,0-1-0.5-2.1-1.4l-1.9-1.8c-0.3-0.2-0.5-0.5-0.8-0.7l-0.7-0.5
					c-0.2-0.1-0.3-0.3-0.5-0.4c-0.2-0.1-0.3-0.3-0.4-0.5c-0.1-0.1-0.2-0.3-0.3-0.4c-0.2-0.4-0.2-0.8-0.2-1.3
					c0.1-0.8,0.2-1.7,0.5-2.4c0.5-1.7,5.5-6.4,15-14.1s23.3-18.6,41.4-32.7c0.7-2.7,1.5-5.9,2.6-9.7s1.9-6.8,2.5-9.2
					c0.6-2.3,1.2-4.7,1.9-7.2c0.8-2.7,1.4-5.4,1.8-8.1c0-0.7-0.2-1-0.7-1c-1.8,0-5.8,2.8-12.1,8.4s-9.4,9.3-9.4,11
					c0,1.1-0.4,1.7-1.2,1.7c-0.5,0-1.3-0.6-2.4-1.7c-0.9-0.9-1.5-2-1.8-3.2c-0.1-1-0.2-1.8-0.4-2.5c-0.2-1.2-0.3-2.4-0.4-3.7
					c0-2.5,2.3-5.9,7-10.3c4.7-4.4,9.9-8.3,15.5-11.5c5.6-3.3,9.7-5,12.3-5c2.3-0.1,4.6,0.9,6.1,2.6c1.5,1.8,2.3,4.3,2.3,7.6
					s-2.1,12.7-6.3,28.3c27.4-21,41.8-32,43.3-32.8c2.1-1,4.3-1.4,6.6-1.3c3.1,0,6.1,0.6,8.9,1.8c0.9,0.4,1.4,0.9,1.4,1.5
					c0,0.6-0.2,1.2-0.5,1.7c-0.6,0.7-1.2,1.4-2,1.9c-1,0.8-2.9,2.2-5.8,4.2s-6.3,4.6-10.4,7.6c-9.4,6.9-25.1,18.9-47,36
					c-4.7,18-7,29.6-7,34.9c0,1.4,0.2,2,0.5,2c0.5-0.1,0.9-0.3,1.3-0.6c2.9-1.7,7.6-5.4,14.2-11.2c6.6-5.7,10.5-9.4,11.8-10.9
					c1.3-1.5,2.2-2.3,2.7-2.2c0.7,0,1.1,0.9,1.1,2.6l-0.1,1.2c0,0,0.2,0.8,0.7,2.1c0.5,1.5,0.7,3.1,0.7,4.7c0.1,1.5-0.3,3-1,4.2
					c-0.9,1.4-1.9,2.7-3,3.9c-1.3,1.6-3.2,3.5-5.6,5.8c-2.4,2.3-4.9,4.4-7.6,6.3c-6.6,4.9-12.8,7.3-18.6,7.3c-2.8,0-5.4-1.2-7.4-3.2
					c-2.2-2.1-3.3-5.5-3.3-10.1s1.3-12.4,3.8-23.3c-27.9,23.4-42.1,35.2-42.4,35.4c-0.3,0.1-0.7,0.2-1,0.2L656.3,113.8z"/>
			</g>
		</g>
	</g>
</g>
</svg>
