<svg xmlns="http://www.w3.org/2000/svg" viewBox="0 0 203.69 91.2"><defs><style>.cls-1{isolation:isolate;}.cls-2{fill:#fff;}.cls-3{fill:none;stroke:#b9b9b9;}</style></defs><g id="レイヤー_2" data-name="レイヤー 2"><g id="レイヤー_1-2" data-name="レイヤー 1"><g id="Recruit_Information" data-name="Recruit Information" class="cls-1"><g class="cls-1"><path class="cls-2" d="M7.85,10.63q.36,0,.36.42a.41.41,0,0,1-.12.27,6.51,6.51,0,0,1-4.73,2,2.21,2.21,0,0,1-1.42-.72,2.71,2.71,0,0,1-.78-2.09,4.62,4.62,0,0,1,1.66-3A17.75,17.75,0,0,1,7.45,4.35a37.05,37.05,0,0,1,7.41-2.68,31.66,31.66,0,0,1,8-1.17,24.46,24.46,0,0,1,5.81.57A12,12,0,0,1,32.2,2.49a8.64,8.64,0,0,1,2.11,1.89A5.74,5.74,0,0,1,35.71,8a7.27,7.27,0,0,1-1.18,3.75,13.29,13.29,0,0,1-3,3.43,27.27,27.27,0,0,1-4.28,2.79,37.5,37.5,0,0,1-9.67,3.52q.88.9,3.72,4.53c1.9,2.41,3.63,4.44,5.2,6.06s2.79,2.44,3.65,2.44l.81-.29q.27,0,.27.21c0,.14-.3.54-.89,1.2a14.7,14.7,0,0,1-1.55,1.5,2.87,2.87,0,0,1-1.8.51,4.47,4.47,0,0,1-2.57-1.1,21,21,0,0,1-3.15-3.1q-1.71-2-3.08-3.77T15,25.46c-1.18-1.6-2-2.69-2.42-3.26-.16.26-.58.91-1.25,1.94L9.9,26.43,8.56,28.56c-.59.94-1.05,1.69-1.37,2.26-.9,1.52-1.52,2.65-1.87,3.4A1.78,1.78,0,0,1,3.6,35.34l-.85,0-.74,0C1,35.34.5,34.92.5,34.07a7.1,7.1,0,0,1,.82-2.72Q2.13,29.58,10,18.14T18.66,5.93a3.41,3.41,0,0,1,1.2-.86,1,1,0,0,1,.39-.22l.44.07.42-.07A.54.54,0,0,1,21.5,5a1.49,1.49,0,0,0,.24.23c.68.51,1,.93,1,1.27a2.09,2.09,0,0,1-.26,1c-.17.32-.64,1-1.4,2.14s-1.77,2.54-3,4.3l-2.7,3.85a15.18,15.18,0,0,0,4.81-1.22,31,31,0,0,0,5.26-2.7,22.15,22.15,0,0,0,4.2-3.42,5.12,5.12,0,0,0,1.75-3.21,1.69,1.69,0,0,0-.76-1.33A5.63,5.63,0,0,0,28.75,5a18.36,18.36,0,0,0-5.18-.68,28,28,0,0,0-7.3,1.24A32.19,32.19,0,0,0,9.83,7.93,18.17,18.17,0,0,0,6.9,9.86c-.61.53-.91.9-.91,1.11s.17.17.5.17a1.57,1.57,0,0,0,.89-.25A2,2,0,0,1,7.85,10.63Z"/><path class="cls-2" d="M47.18,17.44a3.79,3.79,0,0,1-1.31,2.84,4.24,4.24,0,0,1-3,1.22.8.8,0,0,1-.71-.26,1.13,1.13,0,0,1-.17-.67,3.1,3.1,0,0,1,.1-.81,11.44,11.44,0,0,0-2,.91,24.68,24.68,0,0,0-2.63,1.8c-1,.8-1.57,1.39-1.57,1.78,0,.14.19.2.58.2a6.22,6.22,0,0,0,1.77-.4A6.26,6.26,0,0,1,40,23.64a2.54,2.54,0,0,1,.62.05,2.33,2.33,0,0,1,.69.75,1.88,1.88,0,0,1,.36.9q0,.33-.63.87a4.68,4.68,0,0,1-1.44.82,9.07,9.07,0,0,0-1.08.42q-5.15,2.88-5.15,4c0,1.27,1.08,1.9,3.25,1.9A7.79,7.79,0,0,0,40.78,32,31.61,31.61,0,0,0,44,29.71c1-.77,1.56-1.25,1.81-1.43a1.16,1.16,0,0,1,.57-.27c.43,0,.64.48.64,1.42a6.56,6.56,0,0,1-.17,1.87,3.21,3.21,0,0,1-1,1.11Q40.64,36.66,36,36.66A9.61,9.61,0,0,1,32,36a4,4,0,0,1-2.73-3.8q0-3.37,4.66-5.11A2.11,2.11,0,0,1,32.73,26a5.78,5.78,0,0,1-.27-2.07,4.81,4.81,0,0,1,1.33-3,10.79,10.79,0,0,1,3.26-2.63A16.59,16.59,0,0,1,44.71,16a3.82,3.82,0,0,1,1.64.39A1.23,1.23,0,0,1,47.18,17.44Z"/><path class="cls-2" d="M62.13,30.29a19.63,19.63,0,0,0,1.63-1.12l.85-.72a1.46,1.46,0,0,1,.81-.41c.32,0,.49.37.49,1.11a3.84,3.84,0,0,1-1.09,2.39,9.38,9.38,0,0,1-2.7,2.17,22.94,22.94,0,0,1-3.44,1.56,18.61,18.61,0,0,1-6.19,1.34,7.1,7.1,0,0,1-4.6-1.67,5.38,5.38,0,0,1-2-4.37,12,12,0,0,1,1.34-5.4,17.19,17.19,0,0,1,3.45-4.74,17.43,17.43,0,0,1,4.91-3.3,13.24,13.24,0,0,1,5.53-1.27,4,4,0,0,1,2.37.75,2.43,2.43,0,0,1,1,2.08,5.83,5.83,0,0,1-1.31,3.16c-.87,1.23-1.75,1.84-2.65,1.84S59,23.2,59,22.2a3.28,3.28,0,0,1,.73-1.39,3.28,3.28,0,0,0,.74-1.35q0-.36-.27-.36a5.59,5.59,0,0,0-2.88.93A24.6,24.6,0,0,0,54.49,22a20.59,20.59,0,0,0-2.38,2.3A8.58,8.58,0,0,0,49.67,30a3,3,0,0,0,.77,2.06A3.3,3.3,0,0,0,53,33a16.31,16.31,0,0,0,3.65-.43,19.88,19.88,0,0,0,3-.93A16.66,16.66,0,0,0,62.13,30.29Z"/><path class="cls-2" d="M72.47,22.4q5.76-6.54,9.82-6.54a2.36,2.36,0,0,1,1.65.6A2,2,0,0,1,84.58,18a7.66,7.66,0,0,1-1.35,3.19c-.91,1.49-1.74,2.75-2.51,3.77a1.72,1.72,0,0,1-1.37.78,1.39,1.39,0,0,1-1.2-.56,2.07,2.07,0,0,1-.43-1.32,6.17,6.17,0,0,1,1.81-3.8l0,0c-.54,0-1.87,1.1-4,3.17s-3.93,3.92-5.42,5.55-3.11,3.63-4.85,6c-.5.7-.93,1-1.28,1a4.17,4.17,0,0,1-1.39-.33,4.6,4.6,0,0,1-1-.47.6.6,0,0,1-.18-.49,2,2,0,0,1,.19-.79,10.82,10.82,0,0,1,.72-1.29c.35-.55.88-1.44,1.59-2.68s1.81-3.11,3.31-5.62,2.39-4,2.68-4.54a19.25,19.25,0,0,1,1.52-2.34A4.43,4.43,0,0,1,75,15.81c.39,0,.58.24.58.73q0,1.16-2.12,4.32Z"/><path class="cls-2" d="M102.62,28c.31,0,.5.24.57.71a11.56,11.56,0,0,1,.09,1.46,2.74,2.74,0,0,1-.14,1.05,12.5,12.5,0,0,1-3.1,3.33,7.34,7.34,0,0,1-4.54,2,4.23,4.23,0,0,1-2.45-.79A3.17,3.17,0,0,1,91.93,33a8,8,0,0,1,1-3.89q-6.06,7.61-9.5,7.6a2.8,2.8,0,0,1-2.21-1,3.07,3.07,0,0,1-.84-2,8.59,8.59,0,0,1,.29-2.14c.2-.74.41-1.41.63-2s.54-1.31,1-2.18.76-1.48,1-1.88.55-1,1-1.77,1.08-1.85,1.83-3.18a28.55,28.55,0,0,1,1.88-3,2.07,2.07,0,0,1,1.45-1,2,2,0,0,1,1.79,1.53,17.56,17.56,0,0,1-1.64,3.3q-4.83,8.73-4.83,10.18,0,.36.27.36,1.17,0,5.83-5.07t5.4-6.51A20,20,0,0,1,97.7,18a5.28,5.28,0,0,1,1-1.19,5.13,5.13,0,0,1,2.71-.73,2.43,2.43,0,0,1,.42,0c.09,0,.21.16.34.42a1.46,1.46,0,0,1,.19.61,28.88,28.88,0,0,1-1.94,3.63c-1.14,2-1.78,3.09-1.91,3.35q-2.88,6-2.88,7.76c0,.69.26,1,.78,1a6.77,6.77,0,0,0,3.42-2.27c.48-.51,1-1,1.45-1.54a12.13,12.13,0,0,1,.89-.92A.63.63,0,0,1,102.62,28Z"/><path class="cls-2" d="M113.66,30.21a2.64,2.64,0,0,1-.15,1.05,9.21,9.21,0,0,1-3.81,3.95,9.46,9.46,0,0,1-4.54,1.5,4.74,4.74,0,0,1-3.32-1.3,3.69,3.69,0,0,1-1.39-2.63,9.59,9.59,0,0,1,1.34-3.91c.9-1.71,1.79-3.29,2.69-4.74a16,16,0,0,0,1.34-2.35c0-.13-.16-.36-.5-.72s-.5-.63-.5-.8.34-.62,1-1.34a18.05,18.05,0,0,1,2.47-2.15,4.43,4.43,0,0,1,2.22-1.06,1.83,1.83,0,0,1,1.38.68,2,2,0,0,1,.61,1.25q0,.55-5.81,10.57c0,.1-.18.31-.4.65s-.39.61-.51.83-.27.48-.43.79a3.8,3.8,0,0,0-.49,1.64c0,.55.37.83,1.12.83a4.36,4.36,0,0,0,2.33-.77,10.89,10.89,0,0,0,2.09-1.7c1.53-1.64,2.4-2.47,2.61-2.47C113.45,28,113.66,28.75,113.66,30.21Zm4-21.31a4.15,4.15,0,0,1-1.29,2.79,3.69,3.69,0,0,1-2.7,1.41c-.93,0-1.4-.49-1.4-1.47a4.07,4.07,0,0,1,1.23-2.79,3.65,3.65,0,0,1,2.72-1.33,1.49,1.49,0,0,1,1,.36A1.36,1.36,0,0,1,117.61,8.9Z"/><path class="cls-2" d="M128.65,4.26l1,.24a.5.5,0,0,1,.39.22.74.74,0,0,1,.17.42,3.54,3.54,0,0,1-.51,1.05c-.34.57-.74,1.22-1.21,1.94s-.71,1.12-.74,1.18c1.27-.09,2.16-.14,2.69-.14a3.4,3.4,0,0,1,1.09.11,1.63,1.63,0,0,1,.67.61,4.36,4.36,0,0,0,.7.75.93.93,0,0,1,.31.77,1,1,0,0,1-.62.87,3.31,3.31,0,0,1-1.33.43c-3.77.37-5.86.57-6.25.58q-2,3-5.53,9.44c-2.37,4.27-3.62,6.94-3.77,8a8.71,8.71,0,0,0-.1,1.2c0,.63.34.95,1,.95a4.27,4.27,0,0,0,2.22-.77,16.83,16.83,0,0,0,2.25-1.67A23.09,23.09,0,0,1,124,28c.42,0,.64.74.64,2.2a2.8,2.8,0,0,1-1.1,2.15,39.14,39.14,0,0,1-4.15,3.2A6.3,6.3,0,0,1,116,36.63a3,3,0,0,1-.69-.07,4.83,4.83,0,0,1-2.87-1.43,4.24,4.24,0,0,1-.9-2.87,12.17,12.17,0,0,1,1.08-4.38,52.37,52.37,0,0,1,2.67-5.48q2.64-4.74,5.27-8.89l-.92.12c-1.89.22-3,.32-3.3.32h-.22a3.43,3.43,0,0,1-1.37-.28q-.66-.28-.66-.69a1.19,1.19,0,0,1,.36-.81,1.88,1.88,0,0,0,.42-.61,2.79,2.79,0,0,1,1.29-1.2,4.21,4.21,0,0,1,1.67-.69L119,9.61l1.17,0,1-.05,2.19-.1a47.45,47.45,0,0,1,2.82-3.95,11.84,11.84,0,0,1,.89-1,.94.94,0,0,1,.49-.08Z"/></g><g class="cls-1"><path class="cls-3" d="M7.85,10.63q.36,0,.36.42a.41.41,0,0,1-.12.27,6.51,6.51,0,0,1-4.73,2,2.21,2.21,0,0,1-1.42-.72,2.71,2.71,0,0,1-.78-2.09,4.62,4.62,0,0,1,1.66-3A17.75,17.75,0,0,1,7.45,4.35a37.05,37.05,0,0,1,7.41-2.68,31.66,31.66,0,0,1,8-1.17,24.46,24.46,0,0,1,5.81.57A12,12,0,0,1,32.2,2.49a8.64,8.64,0,0,1,2.11,1.89A5.74,5.74,0,0,1,35.71,8a7.27,7.27,0,0,1-1.18,3.75,13.29,13.29,0,0,1-3,3.43,27.27,27.27,0,0,1-4.28,2.79,37.5,37.5,0,0,1-9.67,3.52q.88.9,3.72,4.53c1.9,2.41,3.63,4.44,5.2,6.06s2.79,2.44,3.65,2.44l.81-.29q.27,0,.27.21c0,.14-.3.54-.89,1.2a14.7,14.7,0,0,1-1.55,1.5,2.87,2.87,0,0,1-1.8.51,4.47,4.47,0,0,1-2.57-1.1,21,21,0,0,1-3.15-3.1q-1.71-2-3.08-3.77T15,25.46c-1.18-1.6-2-2.69-2.42-3.26-.16.26-.58.91-1.25,1.94L9.9,26.43,8.56,28.56c-.59.94-1.05,1.69-1.37,2.26-.9,1.52-1.52,2.65-1.87,3.4A1.78,1.78,0,0,1,3.6,35.34l-.85,0-.74,0C1,35.34.5,34.92.5,34.07a7.1,7.1,0,0,1,.82-2.72Q2.13,29.58,10,18.14T18.66,5.93a3.41,3.41,0,0,1,1.2-.86,1,1,0,0,1,.39-.22l.44.07.42-.07A.54.54,0,0,1,21.5,5a1.49,1.49,0,0,0,.24.23c.68.51,1,.93,1,1.27a2.09,2.09,0,0,1-.26,1c-.17.32-.64,1-1.4,2.14s-1.77,2.54-3,4.3l-2.7,3.85a15.18,15.18,0,0,0,4.81-1.22,31,31,0,0,0,5.26-2.7,22.15,22.15,0,0,0,4.2-3.42,5.12,5.12,0,0,0,1.75-3.21,1.69,1.69,0,0,0-.76-1.33A5.63,5.63,0,0,0,28.75,5a18.36,18.36,0,0,0-5.18-.68,28,28,0,0,0-7.3,1.24A32.19,32.19,0,0,0,9.83,7.93,18.17,18.17,0,0,0,6.9,9.86c-.61.53-.91.9-.91,1.11s.17.17.5.17a1.57,1.57,0,0,0,.89-.25A2,2,0,0,1,7.85,10.63Z"/><path class="cls-3" d="M47.18,17.44a3.79,3.79,0,0,1-1.31,2.84,4.24,4.24,0,0,1-3,1.22.8.8,0,0,1-.71-.26,1.13,1.13,0,0,1-.17-.67,3.1,3.1,0,0,1,.1-.81,11.44,11.44,0,0,0-2,.91,24.68,24.68,0,0,0-2.63,1.8c-1,.8-1.57,1.39-1.57,1.78,0,.14.19.2.58.2a6.22,6.22,0,0,0,1.77-.4A6.26,6.26,0,0,1,40,23.64a2.54,2.54,0,0,1,.62.05,2.33,2.33,0,0,1,.69.75,1.88,1.88,0,0,1,.36.9q0,.33-.63.87a4.68,4.68,0,0,1-1.44.82,9.07,9.07,0,0,0-1.08.42q-5.15,2.88-5.15,4c0,1.27,1.08,1.9,3.25,1.9A7.79,7.79,0,0,0,40.78,32,31.61,31.61,0,0,0,44,29.71c1-.77,1.56-1.25,1.81-1.43a1.16,1.16,0,0,1,.57-.27c.43,0,.64.48.64,1.42a6.56,6.56,0,0,1-.17,1.87,3.21,3.21,0,0,1-1,1.11Q40.64,36.66,36,36.66A9.61,9.61,0,0,1,32,36a4,4,0,0,1-2.73-3.8q0-3.37,4.66-5.11A2.11,2.11,0,0,1,32.73,26a5.78,5.78,0,0,1-.27-2.07,4.81,4.81,0,0,1,1.33-3,10.79,10.79,0,0,1,3.26-2.63A16.59,16.59,0,0,1,44.71,16a3.82,3.82,0,0,1,1.64.39A1.23,1.23,0,0,1,47.18,17.44Z"/><path class="cls-3" d="M62.13,30.29a19.63,19.63,0,0,0,1.63-1.12l.85-.72a1.46,1.46,0,0,1,.81-.41c.32,0,.49.37.49,1.11a3.84,3.84,0,0,1-1.09,2.39,9.38,9.38,0,0,1-2.7,2.17,22.94,22.94,0,0,1-3.44,1.56,18.61,18.61,0,0,1-6.19,1.34,7.1,7.1,0,0,1-4.6-1.67,5.38,5.38,0,0,1-2-4.37,12,12,0,0,1,1.34-5.4,17.19,17.19,0,0,1,3.45-4.74,17.43,17.43,0,0,1,4.91-3.3,13.24,13.24,0,0,1,5.53-1.27,4,4,0,0,1,2.37.75,2.43,2.43,0,0,1,1,2.08,5.83,5.83,0,0,1-1.31,3.16c-.87,1.23-1.75,1.84-2.65,1.84S59,23.2,59,22.2a3.28,3.28,0,0,1,.73-1.39,3.28,3.28,0,0,0,.74-1.35q0-.36-.27-.36a5.59,5.59,0,0,0-2.88.93A24.6,24.6,0,0,0,54.49,22a20.59,20.59,0,0,0-2.38,2.3A8.58,8.58,0,0,0,49.67,30a3,3,0,0,0,.77,2.06A3.3,3.3,0,0,0,53,33a16.31,16.31,0,0,0,3.65-.43,19.88,19.88,0,0,0,3-.93A16.66,16.66,0,0,0,62.13,30.29Z"/><path class="cls-3" d="M72.47,22.4q5.76-6.54,9.82-6.54a2.36,2.36,0,0,1,1.65.6A2,2,0,0,1,84.58,18a7.66,7.66,0,0,1-1.35,3.19c-.91,1.49-1.74,2.75-2.51,3.77a1.72,1.72,0,0,1-1.37.78,1.39,1.39,0,0,1-1.2-.56,2.07,2.07,0,0,1-.43-1.32,6.17,6.17,0,0,1,1.81-3.8l0,0c-.54,0-1.87,1.1-4,3.17s-3.93,3.92-5.42,5.55-3.11,3.63-4.85,6c-.5.7-.93,1-1.28,1a4.17,4.17,0,0,1-1.39-.33,4.6,4.6,0,0,1-1-.47.6.6,0,0,1-.18-.49,2,2,0,0,1,.19-.79,10.82,10.82,0,0,1,.72-1.29c.35-.55.88-1.44,1.59-2.68s1.81-3.11,3.31-5.62,2.39-4,2.68-4.54a19.25,19.25,0,0,1,1.52-2.34A4.43,4.43,0,0,1,75,15.81c.39,0,.58.24.58.73q0,1.16-2.12,4.32Z"/><path class="cls-3" d="M102.62,28c.31,0,.5.24.57.71a11.56,11.56,0,0,1,.09,1.46,2.74,2.74,0,0,1-.14,1.05,12.5,12.5,0,0,1-3.1,3.33,7.34,7.34,0,0,1-4.54,2,4.23,4.23,0,0,1-2.45-.79A3.17,3.17,0,0,1,91.93,33a8,8,0,0,1,1-3.89q-6.06,7.61-9.5,7.6a2.8,2.8,0,0,1-2.21-1,3.07,3.07,0,0,1-.84-2,8.59,8.59,0,0,1,.29-2.14c.2-.74.41-1.41.63-2s.54-1.31,1-2.18.76-1.48,1-1.88.55-1,1-1.77,1.08-1.85,1.83-3.18a28.55,28.55,0,0,1,1.88-3,2.07,2.07,0,0,1,1.45-1,2,2,0,0,1,1.79,1.53,17.56,17.56,0,0,1-1.64,3.3q-4.83,8.73-4.83,10.18,0,.36.27.36,1.17,0,5.83-5.07t5.4-6.51A20,20,0,0,1,97.7,18a5.28,5.28,0,0,1,1-1.19,5.13,5.13,0,0,1,2.71-.73,2.43,2.43,0,0,1,.42,0c.09,0,.21.16.34.42a1.46,1.46,0,0,1,.19.61,28.88,28.88,0,0,1-1.94,3.63c-1.14,2-1.78,3.09-1.91,3.35q-2.88,6-2.88,7.76c0,.69.26,1,.78,1a6.77,6.77,0,0,0,3.42-2.27c.48-.51,1-1,1.45-1.54a12.13,12.13,0,0,1,.89-.92A.63.63,0,0,1,102.62,28Z"/><path class="cls-3" d="M113.66,30.21a2.64,2.64,0,0,1-.15,1.05,9.21,9.21,0,0,1-3.81,3.95,9.46,9.46,0,0,1-4.54,1.5,4.74,4.74,0,0,1-3.32-1.3,3.69,3.69,0,0,1-1.39-2.63,9.59,9.59,0,0,1,1.34-3.91c.9-1.71,1.79-3.29,2.69-4.74a16,16,0,0,0,1.34-2.35c0-.13-.16-.36-.5-.72s-.5-.63-.5-.8.34-.62,1-1.34a18.05,18.05,0,0,1,2.47-2.15,4.43,4.43,0,0,1,2.22-1.06,1.83,1.83,0,0,1,1.38.68,2,2,0,0,1,.61,1.25q0,.55-5.81,10.57c0,.1-.18.31-.4.65s-.39.61-.51.83-.27.48-.43.79a3.8,3.8,0,0,0-.49,1.64c0,.55.37.83,1.12.83a4.36,4.36,0,0,0,2.33-.77,10.89,10.89,0,0,0,2.09-1.7c1.53-1.64,2.4-2.47,2.61-2.47C113.45,28,113.66,28.75,113.66,30.21Zm4-21.31a4.15,4.15,0,0,1-1.29,2.79,3.69,3.69,0,0,1-2.7,1.41c-.93,0-1.4-.49-1.4-1.47a4.07,4.07,0,0,1,1.23-2.79,3.65,3.65,0,0,1,2.72-1.33,1.49,1.49,0,0,1,1,.36A1.36,1.36,0,0,1,117.61,8.9Z"/><path class="cls-3" d="M128.65,4.26l1,.24a.5.5,0,0,1,.39.22.74.74,0,0,1,.17.42,3.54,3.54,0,0,1-.51,1.05c-.34.57-.74,1.22-1.21,1.94s-.71,1.12-.74,1.18c1.27-.09,2.16-.14,2.69-.14a3.4,3.4,0,0,1,1.09.11,1.63,1.63,0,0,1,.67.61,4.36,4.36,0,0,0,.7.75.93.93,0,0,1,.31.77,1,1,0,0,1-.62.87,3.31,3.31,0,0,1-1.33.43c-3.77.37-5.86.57-6.25.58q-2,3-5.53,9.44c-2.37,4.27-3.62,6.94-3.77,8a8.71,8.71,0,0,0-.1,1.2c0,.63.34.95,1,.95a4.27,4.27,0,0,0,2.22-.77,16.83,16.83,0,0,0,2.25-1.67A23.09,23.09,0,0,1,124,28c.42,0,.64.74.64,2.2a2.8,2.8,0,0,1-1.1,2.15,39.14,39.14,0,0,1-4.15,3.2A6.3,6.3,0,0,1,116,36.63a3,3,0,0,1-.69-.07,4.83,4.83,0,0,1-2.87-1.43,4.24,4.24,0,0,1-.9-2.87,12.17,12.17,0,0,1,1.08-4.38,52.37,52.37,0,0,1,2.67-5.48q2.64-4.74,5.27-8.89l-.92.12c-1.89.22-3,.32-3.3.32h-.22a3.43,3.43,0,0,1-1.37-.28q-.66-.28-.66-.69a1.19,1.19,0,0,1,.36-.81,1.88,1.88,0,0,0,.42-.61,2.79,2.79,0,0,1,1.29-1.2,4.21,4.21,0,0,1,1.67-.69L119,9.61l1.17,0,1-.05,2.19-.1a47.45,47.45,0,0,1,2.82-3.95,11.84,11.84,0,0,1,.89-1,.94.94,0,0,1,.49-.08Z"/></g><g class="cls-1"><path class="cls-2" d="M27.5,40.3l1.15,0q.63,0,.63.48a.41.41,0,0,1,0,.22Q17.57,58.13,7.43,74.61c-.35.58-.67.92-.95,1a1,1,0,0,0-.24.1,6.2,6.2,0,0,1-1.71.46,3.82,3.82,0,0,0-.54,0,.67.67,0,0,1-.52.25H3.06a5.33,5.33,0,0,1-.56-.2C2.19,76.11,2,76,2,76a5.45,5.45,0,0,1,.1-1.44q.51-1.74,5.64-9.78T18.21,49q5.31-7.65,6.44-8.53a1.38,1.38,0,0,1,.9-.27Z"/><path class="cls-2" d="M30.85,72c0,.71.48,1.07,1.46,1.07a3.88,3.88,0,0,0,2-.78,14,14,0,0,0,2.13-1.71Q39,68,39.29,68c.43,0,.64.61.64,1.84a2.66,2.66,0,0,1-1.15,2.51,19.24,19.24,0,0,1-5.39,3.83,6.94,6.94,0,0,1-2.37.35,4.1,4.1,0,0,1-2.57-1.13,3.42,3.42,0,0,1-1.27-2.67A9.6,9.6,0,0,1,28,69.16a26.09,26.09,0,0,1,1.7-3.43c.58-1,1.29-2.06,2.14-3.32a10.07,10.07,0,0,0,1.34-2.35l0-.05c-.54.05-1.87,1.1-4,3.17s-3.88,3.87-5.26,5.4-3,3.57-5,6.12q-.8,1-1.32,1a4.18,4.18,0,0,1-1.38-.33A5.3,5.3,0,0,1,15.17,75a.52.52,0,0,1-.19-.44,1.85,1.85,0,0,1,.17-.72,4.82,4.82,0,0,1,.33-.71c.1-.19.28-.48.52-.87s.73-1.21,1.46-2.47,1.83-3.15,3.33-5.66,2.39-4,2.68-4.54A20.54,20.54,0,0,1,25,57.2a4.45,4.45,0,0,1,3.71-1.39c.39,0,.58.24.58.73,0,.77-.7,2.21-2.12,4.32l-1,1.54q4.23-4.69,7.13-5.93a6.53,6.53,0,0,1,2.55-.61,2.58,2.58,0,0,1,1.81.61,1.79,1.79,0,0,1,.67,1.35,4.16,4.16,0,0,1-.51,1.78,18.45,18.45,0,0,1-1,1.86c-.35.54-.81,1.23-1.38,2.06s-.88,1.28-.92,1.36l-.38.58-.45.7c-.1.15-.27.4-.49.77s-.41.67-.55.91l-.51.91c-.21.36-.37.67-.49.92s-.25.55-.38.86A3.94,3.94,0,0,0,30.85,72Z"/><path class="cls-2" d="M36.27,67.84l-.2-.68a.4.4,0,0,1,.2-.33,2.59,2.59,0,0,0,.5-.55,4.41,4.41,0,0,1,.44-.54l.39-.35L38,65a2.8,2.8,0,0,1,.69-.47l.68-.21A22.14,22.14,0,0,1,42,63.64q6.23-10.39,10-16.27c2.52-3.91,3.95-6.08,4.3-6.49a4.28,4.28,0,0,1,1.87-1.11,6.07,6.07,0,0,1,2-.48c.42,0,.63.19.63.55a1.74,1.74,0,0,1-.16.59q-.16.36-2.68,4.32Q48.57,59.32,46,63.64l.61.22c3.78-.69,5.74-1,5.9-1a5.44,5.44,0,0,1,1.17.33,8.93,8.93,0,0,0,1.23.38c.37.07.56.37.56.92s-.17.85-.51.91-.94.21-2,.48-1.89.48-2.53.62a5,5,0,0,1,1.3,3.27,10.48,10.48,0,0,1-1.54,4.58,32.65,32.65,0,0,1-3.93,5.63,71.36,71.36,0,0,1-5,5.25,34.46,34.46,0,0,1-5,4,8,8,0,0,1-3.58,1.53,3.56,3.56,0,0,1-2.07-.63,2.08,2.08,0,0,1-.92-1.84,10.07,10.07,0,0,1,.5-2.85,30.6,30.6,0,0,1,1.09-3c.39-.91,1.06-2.2,2-3.9s2.83-4.94,5.47-9.35a6.66,6.66,0,0,1-1,.12,1.35,1.35,0,0,1-.68-.17.89.89,0,0,1-.44-.44A2,2,0,0,1,36.27,67.84Zm6.87,10.53a25.27,25.27,0,0,0,3.06-4.46,8.66,8.66,0,0,0,1.25-3.81A3.26,3.26,0,0,0,46,67.5l-2.71.61c-.28.46-.71,1.18-1.28,2.16L40.6,72.68c-.37.62-.83,1.41-1.4,2.39s-1.05,1.8-1.43,2.47S37,79,36.5,79.79s-.85,1.56-1.15,2.15-.59,1.19-.87,1.77a7.5,7.5,0,0,0-.8,2.22c0,.35.09.52.27.52a5.18,5.18,0,0,0,2-1.11,32,32,0,0,0,3.44-3Q41.32,80.49,43.14,78.37Z"/><path class="cls-2" d="M72.2,57.1a2.37,2.37,0,0,1,1.51.66,2.52,2.52,0,0,1,.76,2,9.15,9.15,0,0,1-1,3.51,22.56,22.56,0,0,1-2.61,4.4,37.14,37.14,0,0,1-3.65,4.19A19.3,19.3,0,0,1,63,75.11a8.83,8.83,0,0,1-4.18,1.25,4,4,0,0,1-3-1.18,4.56,4.56,0,0,1-1.13-3.3,12.61,12.61,0,0,1,1-4.67,17,17,0,0,1,2.68-4.53,26.23,26.23,0,0,1,3.54-3.53q4-3.19,7-3.2a2.83,2.83,0,0,1,2,.66.61.61,0,0,1,.24.39v.15A8.92,8.92,0,0,1,72.2,57.1Zm-2.46,3.25h-.17c-.57,0-.86-.42-.86-1.25a13.29,13.29,0,0,0-3.73,2,18.2,18.2,0,0,0-3.49,3.47q-3.14,4-3.18,6.76c0,.92.34,1.37,1,1.37a6.34,6.34,0,0,0,3-1.32,17.52,17.52,0,0,0,3.92-3.76,30.7,30.7,0,0,0,2.91-4.23,6.83,6.83,0,0,0,1-2.44C70.08,60.56,70,60.35,69.74,60.35Z"/><path class="cls-2" d="M81.92,62.4q5.76-6.54,9.82-6.54a2.32,2.32,0,0,1,1.64.6A2,2,0,0,1,94,58a7.66,7.66,0,0,1-1.35,3.19c-.91,1.49-1.74,2.75-2.51,3.77a1.73,1.73,0,0,1-1.38.78,1.39,1.39,0,0,1-1.19-.56,2.07,2.07,0,0,1-.43-1.32A6.17,6.17,0,0,1,89,60.06l0-.05c-.54.05-1.87,1.1-4,3.17S81,67.1,79.52,68.73s-3.11,3.63-4.85,6c-.5.7-.93,1-1.28,1A4.12,4.12,0,0,1,72,75.42,4.6,4.6,0,0,1,71,75a.57.57,0,0,1-.19-.49,2,2,0,0,1,.2-.79,10.82,10.82,0,0,1,.72-1.29c.35-.55.88-1.44,1.59-2.68s1.81-3.11,3.3-5.62,2.4-4,2.69-4.54a20.77,20.77,0,0,1,1.51-2.34,4.46,4.46,0,0,1,3.71-1.39c.4,0,.59.24.59.73q0,1.16-2.12,4.32Z"/><path class="cls-2" d="M91.39,75.85l-1.19,0h-.44a1.66,1.66,0,0,1-.53-.29c-.18-.15-.33-.25-.42-.32a.38.38,0,0,1-.15-.35,3.51,3.51,0,0,1,.19-.89A104.05,104.05,0,0,1,98.06,57.2a3,3,0,0,1,1.57-1,7,7,0,0,1,2.12-.35c.4,0,.61.31.61.95a2,2,0,0,1-.2.72,9.08,9.08,0,0,1-1,1.48c-.52.68-1.14,1.46-1.85,2.34s-1.12,1.38-1.22,1.51a33.8,33.8,0,0,1,6-5.16c1.8-1.13,3.1-1.7,3.91-1.7a2.42,2.42,0,0,1,1.85.7,2.16,2.16,0,0,1,.65,1.49,6.85,6.85,0,0,1-.11,1.32,4.61,4.61,0,0,1-.4,1.1l-.51,1a7.28,7.28,0,0,1-.69,1l-.67.89c-.12.17-.38.48-.76.93s-.59.71-.62.76c.45-.46,1.09-1.13,1.9-2l2.07-2.24a28.3,28.3,0,0,1,2.11-2A18.88,18.88,0,0,1,115.25,57a10,10,0,0,1,5.34-1.66,2.25,2.25,0,0,1,1.57.59,1.85,1.85,0,0,1,.63,1.4c0,.55-.66,1.85-2,3.91s-2.63,4.13-3.94,6.2-2,3.38-2,3.92c0,.75.14,1.19.42,1.33a1.87,1.87,0,0,0,1,.16,4,4,0,0,0,1.65-.76,15.65,15.65,0,0,0,1.89-1.46q1.35-1.23,2.49-2.37a.76.76,0,0,1,.54-.22c.31,0,.49.24.56.71a11.54,11.54,0,0,1,.1,1.46,2.51,2.51,0,0,1-.15,1.05,12.31,12.31,0,0,1-3.12,3.35,7.51,7.51,0,0,1-4.64,2,2,2,0,0,1-.39,0,5,5,0,0,1-3.48-1.38,4,4,0,0,1-1-2.7,9.11,9.11,0,0,1,1.07-3.78,27.29,27.29,0,0,1,2.33-4c.84-1.2,1.62-2.29,2.33-3.26a10.58,10.58,0,0,0,1.06-1.57c0-.09-.07-.13-.2-.13-.5,0-1.62.82-3.36,2.45a90,90,0,0,0-7.72,8q-.86,1-4,5.2a1.35,1.35,0,0,1-1.16.49,5,5,0,0,1-1.65-.3c-.57-.21-.85-.47-.85-.8q0-.24,3.88-6.85t3.88-7.2q0-.6-.72-.6c-.48,0-1.47.72-3,2.15A54.54,54.54,0,0,0,93.1,74a10.19,10.19,0,0,1-.85,1.08C91.82,75.61,91.54,75.85,91.39,75.85Z"/><path class="cls-2" d="M140.44,57.15c1.24,0,1.86.42,1.86,1.27a1.36,1.36,0,0,1-.32,1,15.8,15.8,0,0,0-1.36,2.11q-1,1.8-2.29,4.59a21.51,21.51,0,0,0-1.62,4.78,2.38,2.38,0,0,0-.08.68c0,.89.25,1.34.74,1.34a3.25,3.25,0,0,0,1.73-.69,12.64,12.64,0,0,0,1.78-1.49c.52-.53,1-1.07,1.53-1.63s.79-.87.89-1a.68.68,0,0,1,.44-.12c.31,0,.49.24.56.71a11.54,11.54,0,0,1,.1,1.46,2.51,2.51,0,0,1-.15,1.05,12,12,0,0,1-3.11,3.35,7.26,7.26,0,0,1-4.37,2,3.44,3.44,0,0,1-2.9-1.2,4.25,4.25,0,0,1-.92-2.65,6.37,6.37,0,0,1,.48-2.55,20.93,20.93,0,0,1-4.65,4.47,8.23,8.23,0,0,1-4.28,1.83,3.75,3.75,0,0,1-2.71-1A4.45,4.45,0,0,1,120.45,72a10.9,10.9,0,0,1,1-4.45,15.41,15.41,0,0,1,2.6-4.07,25.59,25.59,0,0,1,3.54-3.36c2.7-2.12,5.19-3.17,7.47-3.17a4.6,4.6,0,0,1,2.14.43,2,2,0,0,1,1.05,1.1,3.77,3.77,0,0,1,1-1.11A2.54,2.54,0,0,1,140.44,57.15Zm-3.25,2.71q-4.17,0-8.64,4.64a20.49,20.49,0,0,0-2.92,4,8.53,8.53,0,0,0-1.33,3.17c0,.57.17.86.49.86s1.73-.9,3.81-2.7a37.29,37.29,0,0,0,4.15-4C133.5,64.9,135,62.9,137.19,59.86Z"/><path class="cls-2" d="M159,44.26l1,.24a.5.5,0,0,1,.39.22.67.67,0,0,1,.17.42,3.54,3.54,0,0,1-.51,1c-.34.57-.74,1.22-1.21,1.94s-.71,1.12-.74,1.18c1.27-.09,2.17-.14,2.7-.14a3.33,3.33,0,0,1,1.08.11,1.63,1.63,0,0,1,.67.61,4.79,4.79,0,0,0,.7.75.94.94,0,0,1,.32.77,1,1,0,0,1-.63.87,3.26,3.26,0,0,1-1.33.43c-3.77.37-5.86.57-6.25.58q-2,3-5.53,9.44t-3.77,8a10.64,10.64,0,0,0-.1,1.2c0,.63.34,1,1,1a4.32,4.32,0,0,0,2.22-.77,17.39,17.39,0,0,0,2.24-1.67A24,24,0,0,1,154.33,68c.43,0,.64.74.64,2.2a2.8,2.8,0,0,1-1.1,2.15,39.14,39.14,0,0,1-4.15,3.2,6.27,6.27,0,0,1-3.37,1.07,3,3,0,0,1-.68-.07,4.77,4.77,0,0,1-2.87-1.43,4.24,4.24,0,0,1-.91-2.87A12.17,12.17,0,0,1,143,67.88a54.44,54.44,0,0,1,2.67-5.48q2.64-4.74,5.28-8.89l-.93.12c-1.89.22-3,.32-3.3.32h-.22a3.43,3.43,0,0,1-1.37-.28c-.43-.19-.65-.42-.65-.69a1.18,1.18,0,0,1,.35-.81,2,2,0,0,0,.43-.61c.11-.36.54-.76,1.28-1.2a4.27,4.27,0,0,1,1.67-.69l1.09-.06,1.17,0,1-.05,2.19-.1a44.44,44.44,0,0,1,2.83-3.95,10.09,10.09,0,0,1,.89-1,.89.89,0,0,1,.48-.08Z"/><path class="cls-2" d="M164.86,70.21a2.64,2.64,0,0,1-.15,1.05,9.27,9.27,0,0,1-3.81,3.95,9.49,9.49,0,0,1-4.54,1.5,4.72,4.72,0,0,1-3.32-1.3,3.65,3.65,0,0,1-1.39-2.63A9.43,9.43,0,0,1,153,68.87q1.33-2.57,2.69-4.74A17.19,17.19,0,0,0,157,61.78c0-.13-.17-.36-.5-.72s-.5-.63-.5-.8.34-.62,1-1.34a18.05,18.05,0,0,1,2.47-2.15,4.39,4.39,0,0,1,2.22-1.06,1.84,1.84,0,0,1,1.38.68,2,2,0,0,1,.61,1.25q0,.55-5.81,10.57c-.05.1-.19.31-.41.65s-.39.61-.51.83l-.43.79a3.91,3.91,0,0,0-.48,1.64c0,.55.37.83,1.12.83a4.38,4.38,0,0,0,2.33-.77,11.21,11.21,0,0,0,2.09-1.7c1.53-1.64,2.4-2.47,2.61-2.47C164.64,68,164.86,68.75,164.86,70.21Zm3.95-21.31a4.15,4.15,0,0,1-1.29,2.79,3.72,3.72,0,0,1-2.7,1.41c-.94,0-1.4-.49-1.4-1.47a4.07,4.07,0,0,1,1.23-2.79,3.65,3.65,0,0,1,2.72-1.33,1.49,1.49,0,0,1,1,.36A1.36,1.36,0,0,1,168.81,48.9Z"/><path class="cls-2" d="M179.63,57.1a2.35,2.35,0,0,1,1.5.66,2.52,2.52,0,0,1,.77,2,9.2,9.2,0,0,1-1,3.51,22.56,22.56,0,0,1-2.61,4.4,37.14,37.14,0,0,1-3.65,4.19,19.07,19.07,0,0,1-4.3,3.23,8.83,8.83,0,0,1-4.18,1.25,4,4,0,0,1-3-1.18,4.6,4.6,0,0,1-1.13-3.3,12.44,12.44,0,0,1,1-4.67,16.92,16.92,0,0,1,2.67-4.53,26.23,26.23,0,0,1,3.54-3.53q4-3.19,7-3.2a2.82,2.82,0,0,1,2,.66.61.61,0,0,1,.24.39v.15A9,9,0,0,1,179.63,57.1Zm-2.47,3.25H177c-.57,0-.86-.42-.86-1.25a13.43,13.43,0,0,0-3.73,2,18.2,18.2,0,0,0-3.49,3.47c-2.09,2.67-3.14,4.92-3.18,6.76,0,.92.34,1.37,1,1.37a6.32,6.32,0,0,0,3-1.32,17.52,17.52,0,0,0,3.92-3.76,29.83,29.83,0,0,0,2.91-4.23,6.83,6.83,0,0,0,1-2.44C177.5,60.56,177.39,60.35,177.16,60.35Z"/><path class="cls-2" d="M194.1,72c0,.71.49,1.07,1.47,1.07a3.85,3.85,0,0,0,2-.78,14.08,14.08,0,0,0,2.14-1.71Q202.21,68,202.55,68c.42,0,.64.61.64,1.84A2.68,2.68,0,0,1,202,72.36a19.24,19.24,0,0,1-5.4,3.83,6.86,6.86,0,0,1-2.37.35,4.1,4.1,0,0,1-2.56-1.13,3.39,3.39,0,0,1-1.27-2.67,9.6,9.6,0,0,1,.83-3.58,24.91,24.91,0,0,1,1.7-3.43c.58-1,1.29-2.06,2.13-3.32a9.89,9.89,0,0,0,1.35-2.35l0-.05c-.54.05-1.87,1.1-4,3.17s-3.88,3.87-5.26,5.4-3,3.57-5,6.12q-.81,1-1.32,1a4.18,4.18,0,0,1-1.38-.33,5,5,0,0,1-1.06-.47.53.53,0,0,1-.2-.44,1.89,1.89,0,0,1,.18-.72,6.28,6.28,0,0,1,.32-.71l.53-.87c.24-.39.73-1.21,1.45-2.47s1.84-3.15,3.33-5.66,2.4-4,2.69-4.54a20.77,20.77,0,0,1,1.51-2.34A4.47,4.47,0,0,1,192,55.81c.39,0,.58.24.58.73q0,1.16-2.12,4.32l-1,1.54q4.23-4.69,7.13-5.93a6.45,6.45,0,0,1,2.55-.61,2.58,2.58,0,0,1,1.81.61,1.79,1.79,0,0,1,.67,1.35A4.16,4.16,0,0,1,201,59.6a18.45,18.45,0,0,1-1,1.86c-.35.54-.81,1.23-1.38,2.06l-.93,1.36c-.05.07-.17.27-.38.58l-.45.7-.49.77-.55.91c-.13.25-.3.55-.51.91s-.36.67-.49.92l-.37.86A4,4,0,0,0,194.1,72Z"/></g><g class="cls-1"><path class="cls-3" d="M27.5,40.3l1.15,0q.63,0,.63.48a.41.41,0,0,1,0,.22Q17.57,58.13,7.43,74.61c-.35.58-.67.92-.95,1a1,1,0,0,0-.24.1,6.2,6.2,0,0,1-1.71.46,3.82,3.82,0,0,0-.54,0,.67.67,0,0,1-.52.25H3.06a5.33,5.33,0,0,1-.56-.2C2.19,76.11,2,76,2,76a5.45,5.45,0,0,1,.1-1.44q.51-1.74,5.64-9.78T18.21,49q5.31-7.65,6.44-8.53a1.38,1.38,0,0,1,.9-.27Z"/><path class="cls-3" d="M30.85,72c0,.71.48,1.07,1.46,1.07a3.88,3.88,0,0,0,2-.78,14,14,0,0,0,2.13-1.71Q39,68,39.29,68c.43,0,.64.61.64,1.84a2.66,2.66,0,0,1-1.15,2.51,19.24,19.24,0,0,1-5.39,3.83,6.94,6.94,0,0,1-2.37.35,4.1,4.1,0,0,1-2.57-1.13,3.42,3.42,0,0,1-1.27-2.67A9.6,9.6,0,0,1,28,69.16a26.09,26.09,0,0,1,1.7-3.43c.58-1,1.29-2.06,2.14-3.32a10.07,10.07,0,0,0,1.34-2.35l0-.05c-.54.05-1.87,1.1-4,3.17s-3.88,3.87-5.26,5.4-3,3.57-5,6.12q-.8,1-1.32,1a4.18,4.18,0,0,1-1.38-.33A5.3,5.3,0,0,1,15.17,75a.52.52,0,0,1-.19-.44,1.85,1.85,0,0,1,.17-.72,4.82,4.82,0,0,1,.33-.71c.1-.19.28-.48.52-.87s.73-1.21,1.46-2.47,1.83-3.15,3.33-5.66,2.39-4,2.68-4.54A20.54,20.54,0,0,1,25,57.2a4.45,4.45,0,0,1,3.71-1.39c.39,0,.58.24.58.73,0,.77-.7,2.21-2.12,4.32l-1,1.54q4.23-4.69,7.13-5.93a6.53,6.53,0,0,1,2.55-.61,2.58,2.58,0,0,1,1.81.61,1.79,1.79,0,0,1,.67,1.35,4.16,4.16,0,0,1-.51,1.78,18.45,18.45,0,0,1-1,1.86c-.35.54-.81,1.23-1.38,2.06s-.88,1.28-.92,1.36l-.38.58-.45.7c-.1.15-.27.4-.49.77s-.41.67-.55.91l-.51.91c-.21.36-.37.67-.49.92s-.25.55-.38.86A3.94,3.94,0,0,0,30.85,72Z"/><path class="cls-3" d="M36.27,67.84l-.2-.68a.4.4,0,0,1,.2-.33,2.59,2.59,0,0,0,.5-.55,4.41,4.41,0,0,1,.44-.54l.39-.35L38,65a2.8,2.8,0,0,1,.69-.47l.68-.21A22.14,22.14,0,0,1,42,63.64q6.23-10.39,10-16.27c2.52-3.91,3.95-6.08,4.3-6.49a4.28,4.28,0,0,1,1.87-1.11,6.07,6.07,0,0,1,2-.48c.42,0,.63.19.63.55a1.74,1.74,0,0,1-.16.59q-.16.36-2.68,4.32Q48.57,59.32,46,63.64l.61.22c3.78-.69,5.74-1,5.9-1a5.44,5.44,0,0,1,1.17.33,8.93,8.93,0,0,0,1.23.38c.37.07.56.37.56.92s-.17.85-.51.91-.94.21-2,.48-1.89.48-2.53.62a5,5,0,0,1,1.3,3.27,10.48,10.48,0,0,1-1.54,4.58,32.65,32.65,0,0,1-3.93,5.63,71.36,71.36,0,0,1-5,5.25,34.46,34.46,0,0,1-5,4,8,8,0,0,1-3.58,1.53,3.56,3.56,0,0,1-2.07-.63,2.08,2.08,0,0,1-.92-1.84,10.07,10.07,0,0,1,.5-2.85,30.6,30.6,0,0,1,1.09-3c.39-.91,1.06-2.2,2-3.9s2.83-4.94,5.47-9.35a6.66,6.66,0,0,1-1,.12,1.35,1.35,0,0,1-.68-.17.89.89,0,0,1-.44-.44A2,2,0,0,1,36.27,67.84Zm6.87,10.53a25.27,25.27,0,0,0,3.06-4.46,8.66,8.66,0,0,0,1.25-3.81A3.26,3.26,0,0,0,46,67.5l-2.71.61c-.28.46-.71,1.18-1.28,2.16L40.6,72.68c-.37.62-.83,1.41-1.4,2.39s-1.05,1.8-1.43,2.47S37,79,36.5,79.79s-.85,1.56-1.15,2.15-.59,1.19-.87,1.77a7.5,7.5,0,0,0-.8,2.22c0,.35.09.52.27.52a5.18,5.18,0,0,0,2-1.11,32,32,0,0,0,3.44-3Q41.32,80.49,43.14,78.37Z"/><path class="cls-3" d="M72.2,57.1a2.37,2.37,0,0,1,1.51.66,2.52,2.52,0,0,1,.76,2,9.15,9.15,0,0,1-1,3.51,22.56,22.56,0,0,1-2.61,4.4,37.14,37.14,0,0,1-3.65,4.19A19.3,19.3,0,0,1,63,75.11a8.83,8.83,0,0,1-4.18,1.25,4,4,0,0,1-3-1.18,4.56,4.56,0,0,1-1.13-3.3,12.61,12.61,0,0,1,1-4.67,17,17,0,0,1,2.68-4.53,26.23,26.23,0,0,1,3.54-3.53q4-3.19,7-3.2a2.83,2.83,0,0,1,2,.66.61.61,0,0,1,.24.39v.15A8.92,8.92,0,0,1,72.2,57.1Zm-2.46,3.25h-.17c-.57,0-.86-.42-.86-1.25a13.29,13.29,0,0,0-3.73,2,18.2,18.2,0,0,0-3.49,3.47q-3.14,4-3.18,6.76c0,.92.34,1.37,1,1.37a6.34,6.34,0,0,0,3-1.32,17.52,17.52,0,0,0,3.92-3.76,30.7,30.7,0,0,0,2.91-4.23,6.83,6.83,0,0,0,1-2.44C70.08,60.56,70,60.35,69.74,60.35Z"/><path class="cls-3" d="M81.92,62.4q5.76-6.54,9.82-6.54a2.32,2.32,0,0,1,1.64.6A2,2,0,0,1,94,58a7.66,7.66,0,0,1-1.35,3.19c-.91,1.49-1.74,2.75-2.51,3.77a1.73,1.73,0,0,1-1.38.78,1.39,1.39,0,0,1-1.19-.56,2.07,2.07,0,0,1-.43-1.32A6.17,6.17,0,0,1,89,60.06l0-.05c-.54.05-1.87,1.1-4,3.17S81,67.1,79.52,68.73s-3.11,3.63-4.85,6c-.5.7-.93,1-1.28,1A4.12,4.12,0,0,1,72,75.42,4.6,4.6,0,0,1,71,75a.57.57,0,0,1-.19-.49,2,2,0,0,1,.2-.79,10.82,10.82,0,0,1,.72-1.29c.35-.55.88-1.44,1.59-2.68s1.81-3.11,3.3-5.62,2.4-4,2.69-4.54a20.77,20.77,0,0,1,1.51-2.34,4.46,4.46,0,0,1,3.71-1.39c.4,0,.59.24.59.73q0,1.16-2.12,4.32Z"/><path class="cls-3" d="M91.39,75.85l-1.19,0h-.44a1.66,1.66,0,0,1-.53-.29c-.18-.15-.33-.25-.42-.32a.38.38,0,0,1-.15-.35,3.51,3.51,0,0,1,.19-.89A104.05,104.05,0,0,1,98.06,57.2a3,3,0,0,1,1.57-1,7,7,0,0,1,2.12-.35c.4,0,.61.31.61.95a2,2,0,0,1-.2.72,9.08,9.08,0,0,1-1,1.48c-.52.68-1.14,1.46-1.85,2.34s-1.12,1.38-1.22,1.51a33.8,33.8,0,0,1,6-5.16c1.8-1.13,3.1-1.7,3.91-1.7a2.42,2.42,0,0,1,1.85.7,2.16,2.16,0,0,1,.65,1.49,6.85,6.85,0,0,1-.11,1.32,4.61,4.61,0,0,1-.4,1.1l-.51,1a7.28,7.28,0,0,1-.69,1l-.67.89c-.12.17-.38.48-.76.93s-.59.71-.62.76c.45-.46,1.09-1.13,1.9-2l2.07-2.24a28.3,28.3,0,0,1,2.11-2A18.88,18.88,0,0,1,115.25,57a10,10,0,0,1,5.34-1.66,2.25,2.25,0,0,1,1.57.59,1.85,1.85,0,0,1,.63,1.4c0,.55-.66,1.85-2,3.91s-2.63,4.13-3.94,6.2-2,3.38-2,3.92c0,.75.14,1.19.42,1.33a1.87,1.87,0,0,0,1,.16,4,4,0,0,0,1.65-.76,15.65,15.65,0,0,0,1.89-1.46q1.35-1.23,2.49-2.37a.76.76,0,0,1,.54-.22c.31,0,.49.24.56.71a11.54,11.54,0,0,1,.1,1.46,2.51,2.51,0,0,1-.15,1.05,12.31,12.31,0,0,1-3.12,3.35,7.51,7.51,0,0,1-4.64,2,2,2,0,0,1-.39,0,5,5,0,0,1-3.48-1.38,4,4,0,0,1-1-2.7,9.11,9.11,0,0,1,1.07-3.78,27.29,27.29,0,0,1,2.33-4c.84-1.2,1.62-2.29,2.33-3.26a10.58,10.58,0,0,0,1.06-1.57c0-.09-.07-.13-.2-.13-.5,0-1.62.82-3.36,2.45a90,90,0,0,0-7.72,8q-.86,1-4,5.2a1.35,1.35,0,0,1-1.16.49,5,5,0,0,1-1.65-.3c-.57-.21-.85-.47-.85-.8q0-.24,3.88-6.85t3.88-7.2q0-.6-.72-.6c-.48,0-1.47.72-3,2.15A54.54,54.54,0,0,0,93.1,74a10.19,10.19,0,0,1-.85,1.08C91.82,75.61,91.54,75.85,91.39,75.85Z"/><path class="cls-3" d="M140.44,57.15c1.24,0,1.86.42,1.86,1.27a1.36,1.36,0,0,1-.32,1,15.8,15.8,0,0,0-1.36,2.11q-1,1.8-2.29,4.59a21.51,21.51,0,0,0-1.62,4.78,2.38,2.38,0,0,0-.08.68c0,.89.25,1.34.74,1.34a3.25,3.25,0,0,0,1.73-.69,12.64,12.64,0,0,0,1.78-1.49c.52-.53,1-1.07,1.53-1.63s.79-.87.89-1a.68.68,0,0,1,.44-.12c.31,0,.49.24.56.71a11.54,11.54,0,0,1,.1,1.46,2.51,2.51,0,0,1-.15,1.05,12,12,0,0,1-3.11,3.35,7.26,7.26,0,0,1-4.37,2,3.44,3.44,0,0,1-2.9-1.2,4.25,4.25,0,0,1-.92-2.65,6.37,6.37,0,0,1,.48-2.55,20.93,20.93,0,0,1-4.65,4.47,8.23,8.23,0,0,1-4.28,1.83,3.75,3.75,0,0,1-2.71-1A4.45,4.45,0,0,1,120.45,72a10.9,10.9,0,0,1,1-4.45,15.41,15.41,0,0,1,2.6-4.07,25.59,25.59,0,0,1,3.54-3.36c2.7-2.12,5.19-3.17,7.47-3.17a4.6,4.6,0,0,1,2.14.43,2,2,0,0,1,1.05,1.1,3.77,3.77,0,0,1,1-1.11A2.54,2.54,0,0,1,140.44,57.15Zm-3.25,2.71q-4.17,0-8.64,4.64a20.49,20.49,0,0,0-2.92,4,8.53,8.53,0,0,0-1.33,3.17c0,.57.17.86.49.86s1.73-.9,3.81-2.7a37.29,37.29,0,0,0,4.15-4C133.5,64.9,135,62.9,137.19,59.86Z"/><path class="cls-3" d="M159,44.26l1,.24a.5.5,0,0,1,.39.22.67.67,0,0,1,.17.42,3.54,3.54,0,0,1-.51,1c-.34.57-.74,1.22-1.21,1.94s-.71,1.12-.74,1.18c1.27-.09,2.17-.14,2.7-.14a3.33,3.33,0,0,1,1.08.11,1.63,1.63,0,0,1,.67.61,4.79,4.79,0,0,0,.7.75.94.94,0,0,1,.32.77,1,1,0,0,1-.63.87,3.26,3.26,0,0,1-1.33.43c-3.77.37-5.86.57-6.25.58q-2,3-5.53,9.44t-3.77,8a10.64,10.64,0,0,0-.1,1.2c0,.63.34,1,1,1a4.32,4.32,0,0,0,2.22-.77,17.39,17.39,0,0,0,2.24-1.67A24,24,0,0,1,154.33,68c.43,0,.64.74.64,2.2a2.8,2.8,0,0,1-1.1,2.15,39.14,39.14,0,0,1-4.15,3.2,6.27,6.27,0,0,1-3.37,1.07,3,3,0,0,1-.68-.07,4.77,4.77,0,0,1-2.87-1.43,4.24,4.24,0,0,1-.91-2.87A12.17,12.17,0,0,1,143,67.88a54.44,54.44,0,0,1,2.67-5.48q2.64-4.74,5.28-8.89l-.93.12c-1.89.22-3,.32-3.3.32h-.22a3.43,3.43,0,0,1-1.37-.28c-.43-.19-.65-.42-.65-.69a1.18,1.18,0,0,1,.35-.81,2,2,0,0,0,.43-.61c.11-.36.54-.76,1.28-1.2a4.27,4.27,0,0,1,1.67-.69l1.09-.06,1.17,0,1-.05,2.19-.1a44.44,44.44,0,0,1,2.83-3.95,10.09,10.09,0,0,1,.89-1,.89.89,0,0,1,.48-.08Z"/><path class="cls-3" d="M164.86,70.21a2.64,2.64,0,0,1-.15,1.05,9.27,9.27,0,0,1-3.81,3.95,9.49,9.49,0,0,1-4.54,1.5,4.72,4.72,0,0,1-3.32-1.3,3.65,3.65,0,0,1-1.39-2.63A9.43,9.43,0,0,1,153,68.87q1.33-2.57,2.69-4.74A17.19,17.19,0,0,0,157,61.78c0-.13-.17-.36-.5-.72s-.5-.63-.5-.8.34-.62,1-1.34a18.05,18.05,0,0,1,2.47-2.15,4.39,4.39,0,0,1,2.22-1.06,1.84,1.84,0,0,1,1.38.68,2,2,0,0,1,.61,1.25q0,.55-5.81,10.57c-.05.1-.19.31-.41.65s-.39.61-.51.83l-.43.79a3.91,3.91,0,0,0-.48,1.64c0,.55.37.83,1.12.83a4.38,4.38,0,0,0,2.33-.77,11.21,11.21,0,0,0,2.09-1.7c1.53-1.64,2.4-2.47,2.61-2.47C164.64,68,164.86,68.75,164.86,70.21Zm3.95-21.31a4.15,4.15,0,0,1-1.29,2.79,3.72,3.72,0,0,1-2.7,1.41c-.94,0-1.4-.49-1.4-1.47a4.07,4.07,0,0,1,1.23-2.79,3.65,3.65,0,0,1,2.72-1.33,1.49,1.49,0,0,1,1,.36A1.36,1.36,0,0,1,168.81,48.9Z"/><path class="cls-3" d="M179.63,57.1a2.35,2.35,0,0,1,1.5.66,2.52,2.52,0,0,1,.77,2,9.2,9.2,0,0,1-1,3.51,22.56,22.56,0,0,1-2.61,4.4,37.14,37.14,0,0,1-3.65,4.19,19.07,19.07,0,0,1-4.3,3.23,8.83,8.83,0,0,1-4.18,1.25,4,4,0,0,1-3-1.18,4.6,4.6,0,0,1-1.13-3.3,12.44,12.44,0,0,1,1-4.67,16.92,16.92,0,0,1,2.67-4.53,26.23,26.23,0,0,1,3.54-3.53q4-3.19,7-3.2a2.82,2.82,0,0,1,2,.66.61.61,0,0,1,.24.39v.15A9,9,0,0,1,179.63,57.1Zm-2.47,3.25H177c-.57,0-.86-.42-.86-1.25a13.43,13.43,0,0,0-3.73,2,18.2,18.2,0,0,0-3.49,3.47c-2.09,2.67-3.14,4.92-3.18,6.76,0,.92.34,1.37,1,1.37a6.32,6.32,0,0,0,3-1.32,17.52,17.52,0,0,0,3.92-3.76,29.83,29.83,0,0,0,2.91-4.23,6.83,6.83,0,0,0,1-2.44C177.5,60.56,177.39,60.35,177.16,60.35Z"/><path class="cls-3" d="M194.1,72c0,.71.49,1.07,1.47,1.07a3.85,3.85,0,0,0,2-.78,14.08,14.08,0,0,0,2.14-1.71Q202.21,68,202.55,68c.42,0,.64.61.64,1.84A2.68,2.68,0,0,1,202,72.36a19.24,19.24,0,0,1-5.4,3.83,6.86,6.86,0,0,1-2.37.35,4.1,4.1,0,0,1-2.56-1.13,3.39,3.39,0,0,1-1.27-2.67,9.6,9.6,0,0,1,.83-3.58,24.91,24.91,0,0,1,1.7-3.43c.58-1,1.29-2.06,2.13-3.32a9.89,9.89,0,0,0,1.35-2.35l0-.05c-.54.05-1.87,1.1-4,3.17s-3.88,3.87-5.26,5.4-3,3.57-5,6.12q-.81,1-1.32,1a4.18,4.18,0,0,1-1.38-.33,5,5,0,0,1-1.06-.47.53.53,0,0,1-.2-.44,1.89,1.89,0,0,1,.18-.72,6.28,6.28,0,0,1,.32-.71l.53-.87c.24-.39.73-1.21,1.45-2.47s1.84-3.15,3.33-5.66,2.4-4,2.69-4.54a20.77,20.77,0,0,1,1.51-2.34A4.47,4.47,0,0,1,192,55.81c.39,0,.58.24.58.73q0,1.16-2.12,4.32l-1,1.54q4.23-4.69,7.13-5.93a6.45,6.45,0,0,1,2.55-.61,2.58,2.58,0,0,1,1.81.61,1.79,1.79,0,0,1,.67,1.35A4.16,4.16,0,0,1,201,59.6a18.45,18.45,0,0,1-1,1.86c-.35.54-.81,1.23-1.38,2.06l-.93,1.36c-.05.07-.17.27-.38.58l-.45.7-.49.77-.55.91c-.13.25-.3.55-.51.91s-.36.67-.49.92l-.37.86A4,4,0,0,0,194.1,72Z"/></g></g></g></g></svg>