<?xml version="1.0" encoding="utf-8"?>
<!-- Generator: Adobe Illustrator 24.3.0, SVG Export Plug-In . SVG Version: 6.00 Build 0)  -->
<svg version="1.1" id="レイヤー_1" xmlns="http://www.w3.org/2000/svg" xmlns:xlink="http://www.w3.org/1999/xlink" x="0px"
	 y="0px" viewBox="0 0 1280 122.1" style="enable-background:new 0 0 1280 122.1;" xml:space="preserve">
<style type="text/css">
	.st0{fill:#FFFFFF;}
	.st1{fill:none;stroke:#B9B9B9;}
</style>
<g id="レイヤー_2_1_">
	<g id="レイヤー_1-2">
		<g id="Work_Career">
			<g>
				<path class="st0" d="M134.4,7.9c-0.5,0-0.8-0.4-0.8-1.1c-0.1-0.6,0.2-1.1,0.6-1.4l2.1-1.1c1-0.5,1.7-0.8,2.1-1s1-0.5,1.8-0.8
					c0.6-0.3,1.3-0.6,2-0.8c0.5-0.1,1.1-0.3,1.9-0.6c1.5-0.4,3-0.6,4.6-0.5c2,0.1,4,0.7,5.6,1.9c1.8,1,2.9,2.9,2.9,5
					c0,4.3-1.9,9.9-5.6,16.9c-4.1,7.7-8.9,15-14.3,21.9c-5.8,7.6-12.3,15.3-19.6,23.1c-7.2,7.8-14.3,14.8-21.2,21
					c-6.1,5.5-12.6,10.6-19.4,15.1c-6.1,3.9-10.7,5.9-14,5.9c-6.9,0-10.4-3.2-10.4-9.4c0-8.8,5-21.6,15-38.3
					C48.3,86.4,32,101.3,18.9,108c-3.4,1.8-6,2.6-7.8,2.6s-4-1.1-6.6-3.3s-3.9-4.5-3.9-6.6c0-12.2,8.4-29.2,25.3-51
					c6.5-8.3,14.5-17.7,24.1-28c-8.4,7.3-14.8,10.9-19.2,10.9c-2.3,0-4.3-1.3-5.2-3.4c-1-1.4-1.5-3-1.5-4.7c0-1.5,1-3.1,2.9-4.9
					s3.1-2.6,3.4-2.6c0.3,0,0.7,0.1,1,0.4c0.3,0.2,0.4,0.5,0.4,0.7c-0.7,0.7-1,1.2-1,1.4s0.3,0.3,0.9,0.3s5.5-2.8,14.6-8.4
					s14.2-8.4,15.1-8.4c2.6,0,5.1,0.7,7.3,2.1c2.3,1.4,3.5,2.6,3.5,3.5c-0.1,1.4-0.6,2.7-1.5,3.8c-1,1.6-6.8,9.2-17.4,23
					S34.9,59.4,30.1,66.5c-3.9,5.5-7.5,11.3-10.6,17.4c-2.2,4.5-3.4,7.3-3.4,8.2c0,1,0.1,1.5,0.4,1.5c2.1,0,9.4-6.2,22-18.6
					s24.6-24.6,36.1-36.7C86,26.2,92.3,19.5,93.3,18.2c0.8-1.2,2-2.2,3.3-2.8c1.7-0.6,3.5-0.9,5.3-0.8c6.6,0,9.8,1.2,9.8,3.7
					c0,1-1.4,3.2-4.3,6.5s-4.9,5.7-6,7.2c-6.1,7.8-12.9,18.7-20.4,32.8C73.4,78.9,69.7,88,69.6,91.9c0,1.1,0.3,1.6,1.1,1.6
					s2.8-1.4,6.3-4.1s8.1-6.9,13.8-12.4s12.2-12.3,19.5-20.4c7.6-8.5,14.5-17.5,20.8-27c6.6-9.9,9.9-16.1,9.9-18.6
					c0-2.5-0.9-3.8-2.9-3.8L134.4,7.9z"/>
				<path class="st0" d="M178.6,53.5c1.7,0.1,3.3,0.8,4.5,2c1.5,1.3,2.3,3.3,2.3,6c0,2.7-1,6.2-2.9,10.5c-2.1,4.7-4.7,9.1-7.8,13.2
					c-3.3,4.5-7,8.7-10.9,12.6c-3.8,3.8-8.2,7.1-12.9,9.7c-4.6,2.5-8.8,3.8-12.6,3.8c-3.4,0.1-6.7-1.1-9.1-3.6
					c-2.3-2.4-3.4-5.7-3.4-9.9c0.1-4.8,1.2-9.6,3.1-14c1.9-4.9,4.6-9.5,8-13.6c3.2-3.9,6.8-7.4,10.6-10.6c8-6.4,15-9.6,21-9.6
					c2.7,0,4.7,0.7,6.1,2c0.4,0.3,0.7,0.7,0.7,1.2v0.4C176.4,53.5,177.5,53.4,178.6,53.5z M171.2,63.2h-0.5c-1.7,0-2.6-1.2-2.6-3.7
					c-4,1.4-7.8,3.5-11.2,6.2c-3.9,3-7.5,6.5-10.5,10.4c-6.3,8-9.4,14.8-9.5,20.3c0,2.7,1,4.1,3,4.1s5-1.3,8.9-4
					c4.5-3.1,8.4-6.9,11.8-11.3c3.3-4,6.2-8.2,8.7-12.7c1.9-3.6,2.9-6,2.9-7.3S171.8,63.2,171.2,63.2L171.2,63.2z"/>
				<path class="st0" d="M207.7,69.4c11.5-13.1,21.4-19.6,29.4-19.6c1.8-0.1,3.6,0.6,4.9,1.8c1.3,1.2,2,2.9,1.9,4.6
					c0,1.9-1.3,5.1-4,9.6s-5.2,8.2-7.5,11.3c-0.9,1.4-2.5,2.3-4.1,2.3c-1.4,0.1-2.7-0.6-3.6-1.7c-0.9-1.2-1.3-2.6-1.3-4
					c0-3.4,1.8-7.2,5.4-11.4l-0.1-0.2c-1.6,0.1-5.6,3.3-12,9.5c-6.4,6.2-11.8,11.8-16.2,16.7c-4.5,4.9-9.3,10.9-14.5,17.9
					c-1.5,2.1-2.8,3.2-3.9,3.2c-1.4-0.1-2.8-0.4-4.2-1c-1.1-0.4-2.2-0.8-3.1-1.4c-0.4-0.4-0.6-0.9-0.6-1.5c0-0.8,0.2-1.6,0.6-2.4
					c0.6-1.3,1.4-2.6,2.2-3.8c1.1-1.7,2.6-4.3,4.8-8s5.4-9.3,9.9-16.8c4.5-7.5,7.2-12.1,8.1-13.6c1.3-2.4,2.9-4.8,4.5-7
					c2.2-2.8,5.9-4.2,11.1-4.2c1.2,0,1.8,0.7,1.8,2.2c0,2.3-2.1,6.6-6.4,13L207.7,69.4z"/>
			</g>
			<g>
				<path class="st1" d="M134.4,7.9c-0.5,0-0.8-0.4-0.8-1.1c-0.1-0.6,0.2-1.1,0.6-1.4l2.1-1.1c1-0.5,1.7-0.8,2.1-1s1-0.5,1.8-0.8
					c0.6-0.3,1.3-0.6,2-0.8c0.5-0.1,1.1-0.3,1.9-0.6c1.5-0.4,3-0.6,4.6-0.5c2,0.1,4,0.7,5.6,1.9c1.8,1,2.9,2.9,2.9,5
					c0,4.3-1.9,9.9-5.6,16.9c-4.1,7.7-8.9,15-14.3,21.9c-5.8,7.6-12.3,15.3-19.6,23.1c-7.2,7.8-14.3,14.8-21.2,21
					c-6.1,5.5-12.6,10.6-19.4,15.1c-6.1,3.9-10.7,5.9-14,5.9c-6.9,0-10.4-3.2-10.4-9.4c0-8.8,5-21.6,15-38.3
					C48.3,86.4,32,101.3,18.9,108c-3.4,1.8-6,2.6-7.8,2.6s-4-1.1-6.6-3.3s-3.9-4.5-3.9-6.6c0-12.2,8.4-29.2,25.3-51
					c6.5-8.3,14.5-17.7,24.1-28c-8.4,7.3-14.8,10.9-19.2,10.9c-2.3,0-4.3-1.3-5.2-3.4c-1-1.4-1.5-3-1.5-4.7c0-1.5,1-3.1,2.9-4.9
					s3.1-2.6,3.4-2.6c0.3,0,0.7,0.1,1,0.4c0.3,0.2,0.4,0.5,0.4,0.7c-0.7,0.7-1,1.2-1,1.4s0.3,0.3,0.9,0.3s5.5-2.8,14.6-8.4
					s14.2-8.4,15.1-8.4c2.6,0,5.1,0.7,7.3,2.1c2.3,1.4,3.5,2.6,3.5,3.5c-0.1,1.4-0.6,2.7-1.5,3.8c-1,1.6-6.8,9.2-17.4,23
					S34.9,59.4,30.1,66.5c-3.9,5.5-7.5,11.3-10.6,17.4c-2.2,4.5-3.4,7.3-3.4,8.2c0,1,0.1,1.5,0.4,1.5c2.1,0,9.4-6.2,22-18.6
					s24.6-24.6,36.1-36.7C86,26.2,92.3,19.5,93.3,18.2c0.8-1.2,2-2.2,3.3-2.8c1.7-0.6,3.5-0.9,5.3-0.8c6.6,0,9.8,1.2,9.8,3.7
					c0,1-1.4,3.2-4.3,6.5s-4.9,5.7-6,7.2c-6.1,7.8-12.9,18.7-20.4,32.8C73.4,78.9,69.7,88,69.6,91.9c0,1.1,0.3,1.6,1.1,1.6
					s2.8-1.4,6.3-4.1s8.1-6.9,13.8-12.4s12.2-12.3,19.5-20.4c7.6-8.5,14.5-17.5,20.8-27c6.6-9.9,9.9-16.1,9.9-18.6
					c0-2.5-0.9-3.8-2.9-3.8L134.4,7.9z"/>
				<path class="st1" d="M178.6,53.5c1.7,0.1,3.3,0.8,4.5,2c1.5,1.3,2.3,3.3,2.3,6c0,2.7-1,6.2-2.9,10.5c-2.1,4.7-4.7,9.1-7.8,13.2
					c-3.3,4.5-7,8.7-10.9,12.6c-3.8,3.8-8.2,7.1-12.9,9.7c-4.6,2.5-8.8,3.8-12.6,3.8c-3.4,0.1-6.7-1.1-9.1-3.6
					c-2.3-2.4-3.4-5.7-3.4-9.9c0.1-4.8,1.2-9.6,3.1-14c1.9-4.9,4.6-9.5,8-13.6c3.2-3.9,6.8-7.4,10.6-10.6c8-6.4,15-9.6,21-9.6
					c2.7,0,4.7,0.7,6.1,2c0.4,0.3,0.7,0.7,0.7,1.2v0.4C176.4,53.5,177.5,53.4,178.6,53.5z M171.2,63.2h-0.5c-1.7,0-2.6-1.2-2.6-3.7
					c-4,1.4-7.8,3.5-11.2,6.2c-3.9,3-7.5,6.5-10.5,10.4c-6.3,8-9.4,14.8-9.5,20.3c0,2.7,1,4.1,3,4.1s5-1.3,8.9-4
					c4.5-3.1,8.4-6.9,11.8-11.3c3.3-4,6.2-8.2,8.7-12.7c1.9-3.6,2.9-6,2.9-7.3S171.8,63.2,171.2,63.2L171.2,63.2z"/>
				<path class="st1" d="M207.7,69.4c11.5-13.1,21.4-19.6,29.4-19.6c1.8-0.1,3.6,0.6,4.9,1.8c1.3,1.2,2,2.9,1.9,4.6
					c0,1.9-1.3,5.1-4,9.6s-5.2,8.2-7.5,11.3c-0.9,1.4-2.5,2.3-4.1,2.3c-1.4,0.1-2.7-0.6-3.6-1.7c-0.9-1.2-1.3-2.6-1.3-4
					c0-3.4,1.8-7.2,5.4-11.4l-0.1-0.2c-1.6,0.1-5.6,3.3-12,9.5c-6.4,6.2-11.8,11.8-16.2,16.7c-4.5,4.9-9.3,10.9-14.5,17.9
					c-1.5,2.1-2.8,3.2-3.9,3.2c-1.4-0.1-2.8-0.4-4.2-1c-1.1-0.4-2.2-0.8-3.1-1.4c-0.4-0.4-0.6-0.9-0.6-1.5c0-0.8,0.2-1.6,0.6-2.4
					c0.6-1.3,1.4-2.6,2.2-3.8c1.1-1.7,2.6-4.3,4.8-8s5.4-9.3,9.9-16.8c4.5-7.5,7.2-12.1,8.1-13.6c1.3-2.4,2.9-4.8,4.5-7
					c2.2-2.8,5.9-4.2,11.1-4.2c1.2,0,1.8,0.7,1.8,2.2c0,2.3-2.1,6.6-6.4,13L207.7,69.4z"/>
			</g>
			<g>
				<path class="st0" d="M237.3,111l-4.7-1c-1.6-0.3-2.9-1.3-3.5-2.7c-0.1-0.3-0.3-0.6-0.5-0.8c-0.1-0.1-0.1-0.2-0.1-0.4
					c0-0.2,0.1-0.4,0.1-0.6c0.1-0.3,0.2-0.6,0.4-1.1c0.2-0.5,0.4-0.9,0.5-1.4c1-3.5,9.6-19.8,25.7-48.9s24.5-44.2,25.3-45
					c0.8-0.9,1.3-1.6,1.7-2c0.4-0.4,0.8-0.8,1.2-1.1c0.3-0.2,0.7-0.4,1-0.6c0.2-0.1,0.7-0.2,1.3-0.5l2-0.7c0.8-0.3,1.5-0.6,2.2-1
					c0.8-0.4,1.3-0.7,1.6-0.9c0.4-0.2,0.8-0.3,1.2-0.3c0.5,0,1,0.3,1.3,0.7c0.4,0.5,0.6,1.1,0.6,1.7v0.5
					c-0.2,0.9-6.6,12.5-19.1,34.7s-19.3,34.4-20.4,36.5c3.8-1.5,9.4-5.3,16.9-11.2s11.2-9.9,11.2-11.8c-0.1-1.7,0.7-3.2,2-4.2
					c1.2-0.9,2.6-1.3,4.1-1.3c1.4,0,2.8,0.5,3.8,1.5c1,1,1.5,2.6,1.5,4.9c0,2.3-1.3,5.2-3.8,8.6c-2.6,3.6-5.6,6.8-8.9,9.7
					c-7.4,6.4-13.7,10.6-18.7,12.6c4,10.7,8.5,16,13.6,16c2.8-0.4,6.2-2.7,10.2-6.8c1.5-1.5,3-3,4.4-4.6s2.3-2.4,2.6-2.7
					c0.4-0.3,0.9-0.5,1.4-0.4c0.9,0,1.5,0.7,1.7,2.1c0.2,1.5,0.3,2.9,0.3,4.4c0.1,1.1-0.1,2.1-0.4,3.1c-1.4,2.7-4.5,6.1-9.3,10
					c-4.8,3.9-9.3,5.9-13.6,5.9c-2.6,0.1-5.1-0.5-7.3-1.8c-1.8-1.2-3.2-2.2-4.2-2.9c-1.2-0.9-2.2-2-3.1-3.2l-2.6-3.3
					c-0.9-1.1-1.7-2.4-2.5-3.6c-0.9-1.6-1.6-2.7-1.9-3.3s-1-1.7-1.7-3.2s-1.2-2.3-1.3-2.4c-0.9,1.8-1.9,3.8-2.9,5.9
					c-1.1,2.1-2,4-2.9,5.9s-1.7,3.4-2.4,4.9s-1.3,2.7-1.8,3.7s-0.7,1.5-0.8,1.5C238.4,110.6,237.9,111,237.3,111z"/>
			</g>
			<g>
				<path class="st1" d="M237.3,111l-4.7-1c-1.6-0.3-2.9-1.3-3.5-2.7c-0.1-0.3-0.3-0.6-0.5-0.8c-0.1-0.1-0.1-0.2-0.1-0.4
					c0-0.2,0.1-0.4,0.1-0.6c0.1-0.3,0.2-0.6,0.4-1.1c0.2-0.5,0.4-0.9,0.5-1.4c1-3.5,9.6-19.8,25.7-48.9s24.5-44.2,25.3-45
					c0.8-0.9,1.3-1.6,1.7-2c0.4-0.4,0.8-0.8,1.2-1.1c0.3-0.2,0.7-0.4,1-0.6c0.2-0.1,0.7-0.2,1.3-0.5l2-0.7c0.8-0.3,1.5-0.6,2.2-1
					c0.8-0.4,1.3-0.7,1.6-0.9c0.4-0.2,0.8-0.3,1.2-0.3c0.5,0,1,0.3,1.3,0.7c0.4,0.5,0.6,1.1,0.6,1.7v0.5
					c-0.2,0.9-6.6,12.5-19.1,34.7s-19.3,34.4-20.4,36.5c3.8-1.5,9.4-5.3,16.9-11.2s11.2-9.9,11.2-11.8c-0.1-1.7,0.7-3.2,2-4.2
					c1.2-0.9,2.6-1.3,4.1-1.3c1.4,0,2.8,0.5,3.8,1.5c1,1,1.5,2.6,1.5,4.9c0,2.3-1.3,5.2-3.8,8.6c-2.6,3.6-5.6,6.8-8.9,9.7
					c-7.4,6.4-13.7,10.6-18.7,12.6c4,10.7,8.5,16,13.6,16c2.8-0.4,6.2-2.7,10.2-6.8c1.5-1.5,3-3,4.4-4.6s2.3-2.4,2.6-2.7
					c0.4-0.3,0.9-0.5,1.4-0.4c0.9,0,1.5,0.7,1.7,2.1c0.2,1.5,0.3,2.9,0.3,4.4c0.1,1.1-0.1,2.1-0.4,3.1c-1.4,2.7-4.5,6.1-9.3,10
					c-4.8,3.9-9.3,5.9-13.6,5.9c-2.6,0.1-5.1-0.5-7.3-1.8c-1.8-1.2-3.2-2.2-4.2-2.9c-1.2-0.9-2.2-2-3.1-3.2l-2.6-3.3
					c-0.9-1.1-1.7-2.4-2.5-3.6c-0.9-1.6-1.6-2.7-1.9-3.3s-1-1.7-1.7-3.2s-1.2-2.3-1.3-2.4c-0.9,1.8-1.9,3.8-2.9,5.9
					c-1.1,2.1-2,4-2.9,5.9s-1.7,3.4-2.4,4.9s-1.3,2.7-1.8,3.7s-0.7,1.5-0.8,1.5C238.4,110.6,237.9,111,237.3,111z"/>
			</g>
			<g>
				<path class="st0" d="M386.9,121.6c-4.4,0-7.6-1-9.8-3.1c-7.5-7.6-11.2-12-11.2-13.2c-6.3,2.8-13.2,4.2-20.2,4.1
					c-7.6,0-13.7-1.4-18.5-4.3s-7.2-7.3-7.2-13.4c0-10.1,6.9-18.8,20.9-26.2c-4-7.6-6-14.3-6-20c-0.1-5.6,2.3-10.9,6.5-14.6
					c3.9-3.9,9.2-6,14.7-6c5.5,0,9.9,1.4,13,4.1c3.2,2.7,5,6.8,4.8,11c0,9.4-6.1,17.8-18.3,25.2c4.5,8.9,9.7,17.4,15.5,25.5
					c3.1-1.3,5.9-3.2,8.2-5.6c1.8-2.3,2.8-5.2,2.6-8.2c0-1.1,0.9-1.7,2.7-1.7c1.9,0,3.8,0.6,5.4,1.6c1.8,1.1,2.7,2.3,2.7,3.8
					c0,6.8-5.2,13.1-15.8,18.8c4.2,3.9,7.5,6.8,9.8,8.8c1.5,0.9,3,1.7,4.6,2.4c1.9,0.8,3.7,1.8,5.4,2.8c1.4,0.9,2.2,1.8,2.2,2.9
					s-1.1,2.1-3.5,3.4C392.7,121,389.8,121.6,386.9,121.6z M345.7,98.9c4.8,0,9.6-0.9,14.1-2.6c-6-7.7-11.3-16-15.6-24.8
					c-7.3,5.5-11,11.6-11,18.2c-0.2,2.8,1.1,5.4,3.5,6.9C339.4,98.3,342.5,99.1,345.7,98.9z M349,44.9c0,4.1,1.4,8.6,4.2,13.5
					c0.1-0.1,0.7-0.6,1.8-1.6c0.7-0.6,1.3-1.2,2-1.8c0.2-0.2,0.8-0.8,1.7-1.8c0.7-0.6,1.3-1.4,1.9-2.1l2.1-3.1
					c1.1-1.6,1.6-3.9,1.6-7c0-3.7-2.3-5.5-6.9-5.5C351.8,35.5,349,38.6,349,44.9L349,44.9z"/>
			</g>
			<g>
				<path class="st1" d="M386.9,121.6c-4.4,0-7.6-1-9.8-3.1c-7.5-7.6-11.2-12-11.2-13.2c-6.3,2.8-13.2,4.2-20.2,4.1
					c-7.6,0-13.7-1.4-18.5-4.3s-7.2-7.3-7.2-13.4c0-10.1,6.9-18.8,20.9-26.2c-4-7.6-6-14.3-6-20c-0.1-5.6,2.3-10.9,6.5-14.6
					c3.9-3.9,9.2-6,14.7-6c5.5,0,9.9,1.4,13,4.1c3.2,2.7,5,6.8,4.8,11c0,9.4-6.1,17.8-18.3,25.2c4.5,8.9,9.7,17.4,15.5,25.5
					c3.1-1.3,5.9-3.2,8.2-5.6c1.8-2.3,2.8-5.2,2.6-8.2c0-1.1,0.9-1.7,2.7-1.7c1.9,0,3.8,0.6,5.4,1.6c1.8,1.1,2.7,2.3,2.7,3.8
					c0,6.8-5.2,13.1-15.8,18.8c4.2,3.9,7.5,6.8,9.8,8.8c1.5,0.9,3,1.7,4.6,2.4c1.9,0.8,3.7,1.8,5.4,2.8c1.4,0.9,2.2,1.8,2.2,2.9
					s-1.1,2.1-3.5,3.4C392.7,121,389.8,121.6,386.9,121.6z M345.7,98.9c4.8,0,9.6-0.9,14.1-2.6c-6-7.7-11.3-16-15.6-24.8
					c-7.3,5.5-11,11.6-11,18.2c-0.2,2.8,1.1,5.4,3.5,6.9C339.4,98.3,342.5,99.1,345.7,98.9z M349,44.9c0,4.1,1.4,8.6,4.2,13.5
					c0.1-0.1,0.7-0.6,1.8-1.6c0.7-0.6,1.3-1.2,2-1.8c0.2-0.2,0.8-0.8,1.7-1.8c0.7-0.6,1.3-1.4,1.9-2.1l2.1-3.1
					c1.1-1.6,1.6-3.9,1.6-7c0-3.7-2.3-5.5-6.9-5.5C351.8,35.5,349,38.6,349,44.9L349,44.9z"/>
			</g>
			<g>
				<path class="st0" d="M487.2,66.6c1.2,0,1.8,0.9,1.8,2.8c-0.2,3.3-0.6,6.5-1.2,9.7c-0.7,3.1-4.2,7.5-10.5,13.2
					c-7.3,6.6-16,11.6-25.4,14.7c-5.3,1.7-10.8,2.6-16.3,2.6c-5.3,0-10.1-2.2-14.5-6.7c-4.2-4.2-6.6-9.9-6.6-15.9
					c0.1-6.5,1.3-12.9,3.7-19c2.5-6.7,5.9-13,10-18.8c4.4-6.2,9.3-12,14.8-17.2c5.5-5.3,11.4-10.1,17.8-14.4c6-4,12.5-7.2,19.3-9.7
					c6.1-2.3,12.6-3.5,19.2-3.6c4.6-0.1,9.1,1.8,12.2,5.2c1.8,1.9,2.7,4.4,2.6,7c0,2.8-1.4,6.3-4.1,10.6c-2.7,4.3-6,8.2-9.7,11.7
					c-3.5,3.4-7.4,6.4-11.6,8.9c-4,2.4-7.2,3.7-9.6,3.7c-2.3,0.1-4.5-0.7-6.1-2.2c-1.7-1.5-2.6-2.8-2.6-4c0-1.3,0.3-2.6,0.8-3.9
					c0.5-1.4,1.2-2.1,1.9-2.1c-0.2,0.2-0.3,0.5-0.3,0.7c0,0.6,0.8,0.9,2.5,0.9s4.5-1.5,8.5-4.5c3.9-2.9,7.5-6.3,10.7-10
					c3.2-3.7,4.8-6.5,4.8-8.4c0-1.3-0.9-1.9-2.6-1.9c-4.6,0-10.9,2.1-19,6.4c-8.4,4.5-16.2,10.1-23.2,16.5c-7.6,7-14.1,15.1-19.2,24
					c-5.4,9.3-8.2,17.6-8.2,24.9c-0.1,2.7,0.7,5.3,2.5,7.4c1.6,1.9,4.1,2.8,7.5,2.8s7.4-1,12-2.9c4.6-2,9.1-4.4,13.2-7.2
					c4.2-2.8,8.1-5.7,11.8-8.7c3.1-2.4,6.1-5.1,8.9-7.8c2.2-2.2,3.4-3.6,3.4-4.1C486.6,66.8,486.8,66.6,487.2,66.6z"/>
				<path class="st0" d="M548.1,53.6c3.7,0,5.6,1.3,5.6,3.8c0.1,1.1-0.3,2.2-1,3c-1.5,2-2.9,4.1-4.1,6.3c-2.1,3.6-4.4,8.2-6.9,13.8
					c-2.2,4.6-3.8,9.4-4.9,14.3c-0.2,0.7-0.2,1.3-0.2,2c0,2.7,0.7,4,2.2,4c1.9-0.2,3.7-0.9,5.2-2.1c1.9-1.3,3.7-2.8,5.3-4.5
					c1.6-1.5,3.1-3.1,4.7-4.8c1.5-1.7,2.4-2.6,2.7-2.9c0.4-0.3,0.9-0.4,1.3-0.4c0.9,0,1.5,0.7,1.7,2.1c0.2,1.5,0.3,2.9,0.3,4.4
					c0.1,1.1-0.1,2.1-0.4,3.1c-1.4,2.8-4.5,6.1-9.3,10c-4.8,3.9-9.2,5.8-13.2,5.9c-3.9,0-6.8-1.2-8.7-3.6c-1.8-2.3-2.8-5.1-2.8-7.9
					c-0.1-2.6,0.4-5.2,1.5-7.7c-4,5.2-8.7,9.7-14,13.4c-5.2,3.7-9.5,5.5-12.9,5.5c-3,0.1-5.9-1-8.1-3c-2.7-2.5-4-5.9-4-10.4
					c0-4.6,1.1-9.1,3-13.3c2-4.4,4.6-8.6,7.8-12.2c3.2-3.7,6.8-7.1,10.6-10.1c8.1-6.4,15.6-9.5,22.4-9.5c2.2-0.1,4.4,0.4,6.5,1.3
					c1.4,0.6,2.6,1.8,3.2,3.3c0.8-1.3,1.8-2.4,3-3.3C545.6,53.8,546.8,53.5,548.1,53.6z M538.3,61.7c-8.3,0-17,4.6-25.9,13.9
					c-3.4,3.6-6.3,7.6-8.8,11.9c-2.7,4.7-4,7.8-4,9.5c0,1.7,0.5,2.6,1.5,2.6c1.4,0,5.2-2.7,11.4-8.1c6.2-5.4,10.4-9.4,12.5-11.9
					C527.2,76.8,531.7,70.9,538.3,61.7z"/>
				<path class="st0" d="M577.2,69.4c11.5-13.1,21.3-19.6,29.4-19.6c1.8-0.1,3.6,0.6,5,1.8c1.3,1.2,2,2.9,1.9,4.7
					c0,1.9-1.4,5.1-4.1,9.6s-5.2,8.2-7.5,11.3c-0.9,1.4-2.5,2.3-4.1,2.3c-1.4,0.1-2.7-0.6-3.6-1.7c-0.9-1.1-1.3-2.6-1.3-4
					c0-3.4,1.8-7.2,5.4-11.4l-0.2-0.2c-1.6,0.1-5.6,3.3-12,9.5S574.5,83.4,570,88.4c-4.5,4.9-9.3,10.9-14.5,17.9
					c-1.5,2.1-2.8,3.2-3.8,3.2c-1.4-0.1-2.8-0.4-4.2-1c-1.1-0.4-2.2-0.8-3.2-1.4c-0.4-0.4-0.6-0.9-0.5-1.5c0-0.8,0.2-1.6,0.6-2.4
					c0.6-1.3,1.3-2.6,2.2-3.8c1-1.7,2.6-4.3,4.8-8c2.1-3.7,5.4-9.3,9.9-16.8c4.5-7.5,7.2-12.1,8.1-13.6c1.3-2.4,2.9-4.8,4.5-7
					c2.2-2.8,5.9-4.2,11.1-4.2c1.2,0,1.8,0.7,1.8,2.2c0,2.3-2.1,6.6-6.4,13L577.2,69.4z"/>
				<path class="st0" d="M656,54.5c0,3.3-1.4,6.4-3.9,8.5c-2.4,2.3-5.6,3.7-8.9,3.7c-0.8,0.1-1.6-0.2-2.1-0.8
					c-0.4-0.6-0.6-1.3-0.5-2c0-0.8,0.1-1.6,0.3-2.4c-2,0.7-4,1.6-5.9,2.7c-2.8,1.6-5.4,3.4-7.9,5.4c-3.1,2.4-4.7,4.2-4.7,5.3
					c0,0.4,0.6,0.6,1.7,0.6c1.8-0.1,3.6-0.5,5.3-1.2c1.6-0.6,3.3-1,5-1.2c0.6,0,1.3,0,1.9,0.2c0.8,0.6,1.5,1.3,2,2.2
					c0.6,0.8,1,1.7,1.1,2.7c0,0.7-0.6,1.5-1.9,2.6c-1.3,1.1-2.7,1.9-4.3,2.5c-1.1,0.4-2.1,0.8-3.2,1.3c-10.3,5.8-15.5,9.7-15.5,11.9
					c0,3.8,3.2,5.7,9.7,5.7c4.5-0.1,8.8-1.5,12.5-4c3.3-2.1,6.6-4.4,9.6-6.8c2.9-2.3,4.7-3.7,5.4-4.3c0.5-0.4,1.1-0.7,1.7-0.8
					c1.3,0,1.9,1.4,1.9,4.2c0.1,1.9,0,3.8-0.5,5.6c-0.7,1.3-1.7,2.5-2.9,3.3c-10.4,8.5-20.3,12.7-29.7,12.7c-5,0-9-0.7-11.9-2.1
					c-5.5-2.5-8.2-6.3-8.2-11.4c0-6.7,4.7-11.8,14-15.3c-1.6-0.6-2.9-1.7-3.6-3.2c-0.6-2-0.9-4.1-0.8-6.2c0-2.9,1.3-5.9,4-9.1
					c2.7-3.2,6-5.9,9.8-7.8c8.6-4.7,16.3-7,23-7c1.7,0,3.4,0.4,4.9,1.2C655.2,52,656,53.1,656,54.5z"/>
				<path class="st0" d="M703.6,54.5c0,3.3-1.4,6.4-3.9,8.5c-2.4,2.3-5.6,3.7-8.9,3.7c-0.8,0.1-1.6-0.2-2.1-0.8
					c-0.4-0.6-0.5-1.3-0.5-2c0-0.8,0.1-1.6,0.3-2.4c-2,0.7-4,1.6-5.9,2.7c-2.8,1.6-5.4,3.4-7.9,5.4c-3.1,2.4-4.7,4.2-4.7,5.3
					c0,0.4,0.6,0.6,1.7,0.6c1.8-0.1,3.6-0.6,5.3-1.2c1.6-0.6,3.3-1,5-1.2c0.6,0,1.2,0,1.9,0.2c0.9,0.6,1.6,1.3,2.1,2.2
					c0.6,0.8,1,1.7,1.1,2.7c0,0.7-0.6,1.5-1.9,2.6c-1.3,1.1-2.7,1.9-4.3,2.5c-1.1,0.4-2.2,0.8-3.2,1.3c-10.3,5.8-15.5,9.7-15.5,11.9
					c0,3.8,3.2,5.7,9.7,5.7c4.5-0.1,8.8-1.5,12.5-4c3.3-2.1,6.6-4.4,9.6-6.8c2.8-2.3,4.7-3.7,5.4-4.3c0.5-0.4,1.1-0.7,1.7-0.8
					c1.3,0,1.9,1.4,1.9,4.2c0.1,1.9-0.1,3.8-0.5,5.6c-0.7,1.3-1.7,2.5-2.9,3.3c-10.5,8.5-20.4,12.8-29.7,12.8c-5,0-9-0.7-11.9-2.1
					c-5.5-2.5-8.2-6.3-8.2-11.4c0-6.7,4.7-11.8,14-15.3c-1.6-0.6-2.8-1.7-3.6-3.2c-0.6-2-0.9-4.1-0.8-6.2c0-2.9,1.3-5.9,4-9.1
					c2.7-3.2,6-5.9,9.8-7.8c8.6-4.7,16.3-7,23-7c1.7,0,3.4,0.4,4.9,1.2C702.8,52,703.6,53.1,703.6,54.5z"/>
				<path class="st0" d="M724.8,69.4c11.5-13.1,21.3-19.6,29.5-19.6c1.8-0.1,3.6,0.6,4.9,1.8c1.3,1.2,2,2.9,1.9,4.7
					c0,1.9-1.4,5.1-4.1,9.6s-5.2,8.2-7.5,11.3c-0.9,1.4-2.5,2.3-4.1,2.3c-1.4,0.1-2.7-0.6-3.6-1.7c-0.9-1.2-1.3-2.6-1.3-4
					c0-3.4,1.8-7.2,5.4-11.4l-0.2-0.2c-1.6,0.1-5.6,3.3-12,9.5c-6.4,6.2-11.8,11.8-16.2,16.7c-4.5,4.9-9.3,10.9-14.5,17.9
					c-1.5,2.1-2.8,3.2-3.8,3.2c-1.4-0.1-2.8-0.4-4.2-1c-1.1-0.4-2.2-0.8-3.2-1.4c-0.4-0.4-0.6-0.9-0.5-1.5c0-0.8,0.2-1.6,0.6-2.4
					c0.6-1.3,1.3-2.6,2.2-3.8c1-1.7,2.6-4.3,4.8-8c2.1-3.7,5.4-9.3,9.9-16.8c4.5-7.5,7.2-12.1,8.1-13.6c1.3-2.4,2.9-4.8,4.5-7
					c2.2-2.8,5.9-4.2,11.1-4.2c1.2,0,1.8,0.7,1.8,2.2c0,2.3-2.1,6.6-6.4,13L724.8,69.4z"/>
			</g>
			<g>
				<path class="st1" d="M487.2,66.6c1.2,0,1.8,0.9,1.8,2.8c-0.2,3.3-0.6,6.5-1.2,9.7c-0.7,3.1-4.2,7.5-10.5,13.2
					c-7.3,6.6-16,11.6-25.4,14.7c-5.3,1.7-10.8,2.6-16.3,2.6c-5.3,0-10.1-2.2-14.5-6.7c-4.2-4.2-6.6-9.9-6.6-15.9
					c0.1-6.5,1.3-12.9,3.7-19c2.5-6.7,5.9-13,10-18.8c4.4-6.2,9.3-12,14.8-17.2c5.5-5.3,11.4-10.1,17.8-14.4c6-4,12.5-7.2,19.3-9.7
					c6.1-2.3,12.6-3.5,19.2-3.6c4.6-0.1,9.1,1.8,12.2,5.2c1.8,1.9,2.7,4.4,2.6,7c0,2.8-1.4,6.3-4.1,10.6c-2.7,4.3-6,8.2-9.7,11.7
					c-3.5,3.4-7.4,6.4-11.6,8.9c-4,2.4-7.2,3.7-9.6,3.7c-2.3,0.1-4.5-0.7-6.1-2.2c-1.7-1.5-2.6-2.8-2.6-4c0-1.3,0.3-2.6,0.8-3.9
					c0.5-1.4,1.2-2.1,1.9-2.1c-0.2,0.2-0.3,0.5-0.3,0.7c0,0.6,0.8,0.9,2.5,0.9s4.5-1.5,8.5-4.5c3.9-2.9,7.5-6.3,10.7-10
					c3.2-3.7,4.8-6.5,4.8-8.4c0-1.3-0.9-1.9-2.6-1.9c-4.6,0-10.9,2.1-19,6.4c-8.4,4.5-16.2,10.1-23.2,16.5c-7.6,7-14.1,15.1-19.2,24
					c-5.4,9.3-8.2,17.6-8.2,24.9c-0.1,2.7,0.7,5.3,2.5,7.4c1.6,1.9,4.1,2.8,7.5,2.8s7.4-1,12-2.9c4.6-2,9.1-4.4,13.2-7.2
					c4.2-2.8,8.1-5.7,11.8-8.7c3.1-2.4,6.1-5.1,8.9-7.8c2.2-2.2,3.4-3.6,3.4-4.1C486.6,66.8,486.8,66.6,487.2,66.6z"/>
				<path class="st1" d="M548.1,53.6c3.7,0,5.6,1.3,5.6,3.8c0.1,1.1-0.3,2.2-1,3c-1.5,2-2.9,4.1-4.1,6.3c-2.1,3.6-4.4,8.2-6.9,13.8
					c-2.2,4.6-3.8,9.4-4.9,14.3c-0.2,0.7-0.2,1.3-0.2,2c0,2.7,0.7,4,2.2,4c1.9-0.2,3.7-0.9,5.2-2.1c1.9-1.3,3.7-2.8,5.3-4.5
					c1.6-1.5,3.1-3.1,4.7-4.8c1.5-1.7,2.4-2.6,2.7-2.9c0.4-0.3,0.9-0.4,1.3-0.4c0.9,0,1.5,0.7,1.7,2.1c0.2,1.5,0.3,2.9,0.3,4.4
					c0.1,1.1-0.1,2.1-0.4,3.1c-1.4,2.8-4.5,6.1-9.3,10c-4.8,3.9-9.2,5.8-13.2,5.9c-3.9,0-6.8-1.2-8.7-3.6c-1.8-2.3-2.8-5.1-2.8-7.9
					c-0.1-2.6,0.4-5.2,1.5-7.7c-4,5.2-8.7,9.7-14,13.4c-5.2,3.7-9.5,5.5-12.9,5.5c-3,0.1-5.9-1-8.1-3c-2.7-2.5-4-5.9-4-10.4
					c0-4.6,1.1-9.1,3-13.3c2-4.4,4.6-8.6,7.8-12.2c3.2-3.7,6.8-7.1,10.6-10.1c8.1-6.4,15.6-9.5,22.4-9.5c2.2-0.1,4.4,0.4,6.5,1.3
					c1.4,0.6,2.6,1.8,3.2,3.3c0.8-1.3,1.8-2.4,3-3.3C545.6,53.8,546.8,53.5,548.1,53.6z M538.3,61.7c-8.3,0-17,4.6-25.9,13.9
					c-3.4,3.6-6.3,7.6-8.8,11.9c-2.7,4.7-4,7.8-4,9.5c0,1.7,0.5,2.6,1.5,2.6c1.4,0,5.2-2.7,11.4-8.1c6.2-5.4,10.4-9.4,12.5-11.9
					C527.2,76.8,531.7,70.9,538.3,61.7z"/>
				<path class="st1" d="M577.2,69.4c11.5-13.1,21.3-19.6,29.4-19.6c1.8-0.1,3.6,0.6,5,1.8c1.3,1.2,2,2.9,1.9,4.7
					c0,1.9-1.4,5.1-4.1,9.6s-5.2,8.2-7.5,11.3c-0.9,1.4-2.5,2.3-4.1,2.3c-1.4,0.1-2.7-0.6-3.6-1.7c-0.9-1.1-1.3-2.6-1.3-4
					c0-3.4,1.8-7.2,5.4-11.4l-0.2-0.2c-1.6,0.1-5.6,3.3-12,9.5S574.5,83.4,570,88.4c-4.5,4.9-9.3,10.9-14.5,17.9
					c-1.5,2.1-2.8,3.2-3.8,3.2c-1.4-0.1-2.8-0.4-4.2-1c-1.1-0.4-2.2-0.8-3.2-1.4c-0.4-0.4-0.6-0.9-0.5-1.5c0-0.8,0.2-1.6,0.6-2.4
					c0.6-1.3,1.3-2.6,2.2-3.8c1-1.7,2.6-4.3,4.8-8c2.1-3.7,5.4-9.3,9.9-16.8c4.5-7.5,7.2-12.1,8.1-13.6c1.3-2.4,2.9-4.8,4.5-7
					c2.2-2.8,5.9-4.2,11.1-4.2c1.2,0,1.8,0.7,1.8,2.2c0,2.3-2.1,6.6-6.4,13L577.2,69.4z"/>
				<path class="st1" d="M656,54.5c0,3.3-1.4,6.4-3.9,8.5c-2.4,2.3-5.6,3.7-8.9,3.7c-0.8,0.1-1.6-0.2-2.1-0.8
					c-0.4-0.6-0.6-1.3-0.5-2c0-0.8,0.1-1.6,0.3-2.4c-2,0.7-4,1.6-5.9,2.7c-2.8,1.6-5.4,3.4-7.9,5.4c-3.1,2.4-4.7,4.2-4.7,5.3
					c0,0.4,0.6,0.6,1.7,0.6c1.8-0.1,3.6-0.5,5.3-1.2c1.6-0.6,3.3-1,5-1.2c0.6,0,1.3,0,1.9,0.2c0.8,0.6,1.5,1.3,2,2.2
					c0.6,0.8,1,1.7,1.1,2.7c0,0.7-0.6,1.5-1.9,2.6c-1.3,1.1-2.7,1.9-4.3,2.5c-1.1,0.4-2.1,0.8-3.2,1.3c-10.3,5.8-15.5,9.7-15.5,11.9
					c0,3.8,3.2,5.7,9.7,5.7c4.5-0.1,8.8-1.5,12.5-4c3.3-2.1,6.6-4.4,9.6-6.8c2.9-2.3,4.7-3.7,5.4-4.3c0.5-0.4,1.1-0.7,1.7-0.8
					c1.3,0,1.9,1.4,1.9,4.2c0.1,1.9,0,3.8-0.5,5.6c-0.7,1.3-1.7,2.5-2.9,3.3c-10.4,8.5-20.3,12.7-29.7,12.7c-5,0-9-0.7-11.9-2.1
					c-5.5-2.5-8.2-6.3-8.2-11.4c0-6.7,4.7-11.8,14-15.3c-1.6-0.6-2.9-1.7-3.6-3.2c-0.6-2-0.9-4.1-0.8-6.2c0-2.9,1.3-5.9,4-9.1
					c2.7-3.2,6-5.9,9.8-7.8c8.6-4.7,16.3-7,23-7c1.7,0,3.4,0.4,4.9,1.2C655.2,52,656,53.1,656,54.5z"/>
				<path class="st1" d="M703.6,54.5c0,3.3-1.4,6.4-3.9,8.5c-2.4,2.3-5.6,3.7-8.9,3.7c-0.8,0.1-1.6-0.2-2.1-0.8
					c-0.4-0.6-0.5-1.3-0.5-2c0-0.8,0.1-1.6,0.3-2.4c-2,0.7-4,1.6-5.9,2.7c-2.8,1.6-5.4,3.4-7.9,5.4c-3.1,2.4-4.7,4.2-4.7,5.3
					c0,0.4,0.6,0.6,1.7,0.6c1.8-0.1,3.6-0.6,5.3-1.2c1.6-0.6,3.3-1,5-1.2c0.6,0,1.2,0,1.9,0.2c0.9,0.6,1.6,1.3,2.1,2.2
					c0.6,0.8,1,1.7,1.1,2.7c0,0.7-0.6,1.5-1.9,2.6c-1.3,1.1-2.7,1.9-4.3,2.5c-1.1,0.4-2.2,0.8-3.2,1.3c-10.3,5.8-15.5,9.7-15.5,11.9
					c0,3.8,3.2,5.7,9.7,5.7c4.5-0.1,8.8-1.5,12.5-4c3.3-2.1,6.6-4.4,9.6-6.8c2.8-2.3,4.7-3.7,5.4-4.3c0.5-0.4,1.1-0.7,1.7-0.8
					c1.3,0,1.9,1.4,1.9,4.2c0.1,1.9-0.1,3.8-0.5,5.6c-0.7,1.3-1.7,2.5-2.9,3.3c-10.5,8.5-20.4,12.8-29.7,12.8c-5,0-9-0.7-11.9-2.1
					c-5.5-2.5-8.2-6.3-8.2-11.4c0-6.7,4.7-11.8,14-15.3c-1.6-0.6-2.8-1.7-3.6-3.2c-0.6-2-0.9-4.1-0.8-6.2c0-2.9,1.3-5.9,4-9.1
					c2.7-3.2,6-5.9,9.8-7.8c8.6-4.7,16.3-7,23-7c1.7,0,3.4,0.4,4.9,1.2C702.8,52,703.6,53.1,703.6,54.5z"/>
				<path class="st1" d="M724.8,69.4c11.5-13.1,21.3-19.6,29.5-19.6c1.8-0.1,3.6,0.6,4.9,1.8c1.3,1.2,2,2.9,1.9,4.7
					c0,1.9-1.4,5.1-4.1,9.6s-5.2,8.2-7.5,11.3c-0.9,1.4-2.5,2.3-4.1,2.3c-1.4,0.1-2.7-0.6-3.6-1.7c-0.9-1.2-1.3-2.6-1.3-4
					c0-3.4,1.8-7.2,5.4-11.4l-0.2-0.2c-1.6,0.1-5.6,3.3-12,9.5c-6.4,6.2-11.8,11.8-16.2,16.7c-4.5,4.9-9.3,10.9-14.5,17.9
					c-1.5,2.1-2.8,3.2-3.8,3.2c-1.4-0.1-2.8-0.4-4.2-1c-1.1-0.4-2.2-0.8-3.2-1.4c-0.4-0.4-0.6-0.9-0.5-1.5c0-0.8,0.2-1.6,0.6-2.4
					c0.6-1.3,1.3-2.6,2.2-3.8c1-1.7,2.6-4.3,4.8-8c2.1-3.7,5.4-9.3,9.9-16.8c4.5-7.5,7.2-12.1,8.1-13.6c1.3-2.4,2.9-4.8,4.5-7
					c2.2-2.8,5.9-4.2,11.1-4.2c1.2,0,1.8,0.7,1.8,2.2c0,2.3-2.1,6.6-6.4,13L724.8,69.4z"/>
			</g>
		</g>
	</g>
</g>
</svg>
