<?xml version="1.0" encoding="utf-8"?>
<!-- Generator: Adobe Illustrator 24.3.0, SVG Export Plug-In . SVG Version: 6.00 Build 0)  -->
<svg version="1.1" id="レイヤー_1" xmlns="http://www.w3.org/2000/svg" xmlns:xlink="http://www.w3.org/1999/xlink" x="0px"
	 y="0px" viewBox="0 0 1280 155.2" style="enable-background:new 0 0 1280 155.2;" xml:space="preserve">
<style type="text/css">
	.st0{fill:#FFFFFF;}
	.st1{fill:none;stroke:#B9B9B9;}
</style>
<g id="レイヤー_2_1_">
	<g id="レイヤー_1-2">
		<g id="Recruit_Information">
			<g>
				<path class="st0" d="M22.5,34.5c0.7,0,1.1,0.4,1.1,1.2c0,0.3-0.1,0.6-0.4,0.8c-3.7,3.9-8.8,6.1-14.2,6.2c-1.3,0-2.7-0.7-4.2-2.2
					c-1.6-1.7-2.5-3.9-2.3-6.3c0-2.7,1.7-5.8,5-9.1c4.1-3.9,8.8-7.1,13.9-9.5c7.1-3.4,14.6-6.1,22.2-8c7.8-2.2,15.8-3.4,23.9-3.5
					C73.4,4,79.3,4.6,85,5.9c3.7,0.8,7.3,2.3,10.6,4.2c2.4,1.5,4.5,3.5,6.3,5.7c2.8,3.5,4.2,7.1,4.2,10.7c-0.1,4-1.3,7.9-3.5,11.2
					c-2.4,3.9-5.5,7.4-9.1,10.3c-4,3.2-8.3,6-12.8,8.4c-9.1,4.8-18.9,8.4-29,10.6c1.8,1.8,5.5,6.3,11.2,13.6
					c4.9,6.3,10.1,12.4,15.6,18.2c4.7,4.9,8.4,7.3,11,7.3l2.4-0.9c0.5,0,0.8,0.2,0.8,0.6s-0.9,1.6-2.7,3.6c-1.4,1.6-3,3.1-4.7,4.5
					c-1.6,1.1-3.5,1.6-5.4,1.5c-2.3,0-4.8-1.1-7.7-3.3c-3.5-2.8-6.6-5.9-9.5-9.3c-3.4-4-6.5-7.8-9.2-11.3c-2.7-3.5-5.9-7.7-9.4-12.6
					c-3.5-4.8-5.9-8.1-7.2-9.8c-0.5,0.8-1.7,2.7-3.7,5.8c-2,3.1-3.5,5.4-4.4,6.8s-2.3,3.6-4,6.4s-3.1,5.1-4.1,6.8
					c-2.7,4.5-4.5,7.9-5.6,10.2c-0.8,2.1-2.9,3.5-5.2,3.4l-2.6-0.1l-2.2,0.1c-3,0-4.5-1.3-4.5-3.8c0-1.9,0.8-4.6,2.5-8.1
					C4.7,93.1,13.3,79.9,29,57c15.7-22.9,24.4-35.1,26-36.6c1-1.1,2.2-2,3.6-2.6c0.3-0.3,0.7-0.5,1.2-0.7l1.3,0.2l1.2-0.2
					c0.5,0,0.9,0.2,1.2,0.5c0.2,0.3,0.5,0.5,0.7,0.7c2,1.5,3.1,2.8,3.1,3.8c0,1-0.3,2.1-0.8,3c-0.5,1-1.9,3.1-4.2,6.4
					s-5.3,7.6-9,12.9s-6.4,9.1-8.1,11.5c4-0.2,8.8-1.4,14.4-3.7c5.5-2.2,10.7-4.9,15.7-8.1C80,41.4,84.2,38,88,34.1
					c3.5-3.7,5.2-6.9,5.2-9.6c-0.1-1.6-0.9-3.1-2.3-4c-1.7-1.3-3.6-2.2-5.7-2.8c-5.1-1.4-10.3-2.1-15.5-2.1
					c-5.8,0-13.1,1.2-21.9,3.7s-15.3,4.9-19.3,7.1c-3.1,1.6-6.1,3.6-8.8,5.8c-1.8,1.6-2.7,2.7-2.7,3.3c0,0.3,0.5,0.5,1.5,0.5
					c0.9,0,1.9-0.3,2.7-0.8C21.6,35,22.1,34.7,22.5,34.5z"/>
				<path class="st0" d="M140.5,55c0,3.3-1.4,6.4-3.9,8.5c-2.4,2.3-5.6,3.7-8.9,3.7c-0.8,0.1-1.6-0.2-2.1-0.8
					c-0.4-0.6-0.5-1.3-0.5-2c0-0.8,0.1-1.6,0.3-2.4c-2,0.7-4,1.6-5.9,2.7c-2.8,1.6-5.4,3.4-7.9,5.3c-3.1,2.4-4.7,4.2-4.7,5.3
					c0,0.4,0.6,0.6,1.7,0.6c1.8-0.1,3.6-0.5,5.4-1.2c1.6-0.6,3.3-1,5-1.2c0.6,0,1.3,0,1.9,0.2c0.8,0.6,1.5,1.3,2,2.2
					c0.6,0.8,1,1.7,1.1,2.7c0,0.7-0.6,1.5-1.9,2.6c-1.3,1.1-2.7,1.9-4.3,2.4c-1.1,0.4-2.2,0.8-3.2,1.3c-10.3,5.8-15.5,9.7-15.5,11.8
					c0,3.8,3.2,5.7,9.8,5.7c4.5-0.1,8.8-1.5,12.5-4c3.3-2.1,6.6-4.3,9.6-6.8c2.9-2.3,4.7-3.8,5.4-4.3c0.5-0.4,1.1-0.7,1.7-0.8
					c1.3,0,1.9,1.4,1.9,4.2c0.1,1.9-0.1,3.8-0.5,5.6c-0.7,1.3-1.7,2.5-2.9,3.3c-10.5,8.5-20.4,12.7-29.7,12.7c-5,0-9-0.7-11.9-2
					c-5.5-2.5-8.2-6.3-8.2-11.4c0-6.7,4.7-11.8,14-15.3c-1.6-0.6-2.8-1.7-3.6-3.2c-0.6-2-0.9-4.1-0.8-6.2c0-2.9,1.3-5.9,4-9.1
					c2.7-3.2,6-5.9,9.8-7.9c8.6-4.7,16.3-7,23-7c1.7,0,3.4,0.4,4.9,1.2C139.7,52.4,140.5,53.6,140.5,55z"/>
				<path class="st0" d="M185.4,93.5c2.5-1.6,4.1-2.7,4.9-3.3s1.6-1.3,2.6-2.2c0.6-0.7,1.5-1.1,2.4-1.2c1,0,1.5,1.1,1.5,3.3
					s-1.1,4.6-3.3,7.2c-2.3,2.7-5,4.9-8.1,6.5c-3.3,1.8-6.8,3.4-10.4,4.7c-7.3,2.7-13.5,4-18.6,4c-5.1,0-9.9-1.7-13.8-5
					c-4-3.1-6.3-8-6.1-13.1c0-5.6,1.4-11.2,4-16.2c2.6-5.3,6.2-10.1,10.4-14.2c4.3-4.1,9.3-7.5,14.7-9.9c5.2-2.4,10.9-3.7,16.6-3.8
					c2.6,0,5,0.8,7.1,2.3c2,1.4,3.2,3.7,3.1,6.2c0,2.7-1.3,5.8-3.9,9.5c-2.6,3.7-5.3,5.5-8,5.5c-3.1,0-4.7-1.5-4.7-4.5
					c0-0.8,0.7-2.2,2.2-4.2s2.2-3.4,2.2-4.1c0-0.7-0.3-1.1-0.8-1.1c-3.1,0.1-6.1,1.1-8.6,2.8c-2.9,1.8-5.7,3.7-8.4,5.9
					c-2.6,2.1-5,4.4-7.1,6.9c-4.9,5.5-7.3,11.3-7.3,17.2c0,2.3,0.8,4.5,2.3,6.2c1.5,1.7,4.1,2.6,7.8,2.6c3.7,0,7.3-0.4,10.9-1.3
					c3.1-0.7,6.1-1.6,9.1-2.8C180.6,96.3,183.1,95,185.4,93.5z"/>
				<path class="st0" d="M216.4,69.8c11.5-13.1,21.3-19.6,29.4-19.6c1.8-0.1,3.6,0.6,4.9,1.8c1.3,1.2,2,2.9,1.9,4.7
					c0,1.9-1.4,5.1-4.1,9.6c-2.7,4.5-5.2,8.2-7.5,11.3c-0.9,1.4-2.5,2.3-4.2,2.3c-1.4,0.1-2.7-0.6-3.6-1.7c-0.9-1.1-1.3-2.6-1.3-4
					c0-3.4,1.8-7.2,5.4-11.4l-0.1-0.1c-1.6,0.1-5.6,3.3-12,9.5c-6.4,6.2-11.8,11.8-16.2,16.7c-4.5,4.9-9.3,10.9-14.5,17.9
					c-1.5,2.1-2.8,3.2-3.9,3.2c-1.4-0.1-2.8-0.4-4.2-1c-1.1-0.4-2.2-0.8-3.1-1.4c-0.4-0.4-0.6-0.9-0.5-1.5c0-0.8,0.2-1.6,0.6-2.4
					c0.6-1.3,1.3-2.6,2.2-3.8c1.1-1.7,2.6-4.3,4.8-8.1s5.4-9.3,9.9-16.8c4.5-7.5,7.2-12.1,8.1-13.6c1.4-2.4,2.9-4.8,4.6-7
					c2.2-2.8,5.9-4.2,11.1-4.2c1.2,0,1.8,0.7,1.8,2.2c0,2.3-2.1,6.6-6.4,13L216.4,69.8z"/>
				<path class="st0" d="M306.9,86.7c0.9,0,1.5,0.7,1.7,2.1c0.2,1.5,0.3,2.9,0.3,4.4c0.1,1.1-0.1,2.1-0.4,3.2
					c-1.4,2.7-4.5,6.1-9.3,10c-4.8,3.9-9.3,5.9-13.6,5.9c-2.6,0-5.2-0.8-7.3-2.4c-2.2-1.6-3.4-4.3-3.4-8.3c0-4.1,1.1-8.1,3.1-11.6
					c-12.1,15.2-21.6,22.8-28.5,22.8c-2.5,0.1-5-1-6.6-2.9c-1.5-1.6-2.4-3.8-2.5-6c0-2.2,0.3-4.3,0.9-6.4c0.6-2.2,1.2-4.2,1.9-6
					c0.7-1.8,1.6-4,3-6.6c1.3-2.6,2.3-4.5,2.9-5.6s1.6-2.9,3-5.3s3.2-5.6,5.5-9.6c1.7-3.1,3.6-6.1,5.6-8.9c1.5-1.9,2.9-2.9,4.4-2.9
					c1.4,0,2.8,0.6,3.7,1.7c0.8,0.7,1.4,1.8,1.6,2.9c0,0.7-1.6,4-4.9,9.9c-9.7,17.5-14.5,27.7-14.5,30.5c0,0.7,0.3,1.1,0.8,1.1
					c2.3,0,8.2-5.1,17.5-15.2s14.7-16.7,16.2-19.5c1.3-2.5,2.7-4.9,4.3-7.2c0.9-1.3,1.9-2.6,3.1-3.6c2.5-1.5,5.3-2.2,8.1-2.2
					c0.4,0,0.8,0,1.2,0.1c0.3,0,0.6,0.5,1,1.2c0.3,0.6,0.5,1.2,0.6,1.8c-0.4,1.4-2.4,5-5.8,10.9s-5.4,9.2-5.8,10
					c-5.7,11.9-8.6,19.7-8.6,23.3c0,2.1,0.8,3.1,2.3,3.1c2.8-0.4,6.3-2.7,10.3-6.8c1.5-1.5,2.9-3.1,4.4-4.6c0.8-1,1.7-1.9,2.7-2.7
					C306,86.9,306.4,86.7,306.9,86.7z"/>
				<path class="st0" d="M340,93.3c0.1,1.1-0.1,2.1-0.4,3.2c-2.5,5-6.5,9.1-11.4,11.8c-5.2,3-9.8,4.5-13.6,4.5
					c-3.7,0.1-7.3-1.3-10-3.9c-2.8-2.6-4.2-5.2-4.2-7.9s1.3-6.6,4-11.7c2.7-5.1,5.4-9.9,8.1-14.2c2.7-4.3,4-6.7,4-7.1
					s-0.5-1.1-1.5-2.2s-1.5-1.9-1.5-2.4s1-1.8,3-4c2.3-2.4,4.7-4.5,7.4-6.5c2.9-2.1,5.1-3.2,6.7-3.2c1.6,0,3.1,0.8,4.1,2
					c1,1,1.7,2.3,1.8,3.7c0,1.1-5.8,11.7-17.4,31.7c-0.1,0.3-0.5,0.9-1.2,1.9s-1.2,1.8-1.5,2.5s-0.8,1.4-1.3,2.4
					c-0.9,1.5-1.4,3.2-1.5,4.9c0,1.7,1.1,2.5,3.4,2.5c2.5-0.1,4.9-0.9,7-2.3c2.3-1.4,4.4-3.1,6.3-5.1c4.6-4.9,7.2-7.4,7.8-7.4
					C339.3,86.7,340,88.9,340,93.3z M351.9,29.3c0,2.8-1.3,5.6-3.9,8.4s-5.3,4.2-8.1,4.2c-2.8,0-4.2-1.5-4.2-4.4
					c0.1-3.2,1.4-6.2,3.7-8.4c2.5-2.7,5.2-4,8.2-4c1.2-0.1,2.3,0.3,3.1,1.1C351.5,27.1,351.9,28.2,351.9,29.3L351.9,29.3z"/>
				<path class="st0" d="M385,15.4l3,0.7c0.5,0,0.9,0.3,1.2,0.7c0.3,0.3,0.5,0.8,0.5,1.2c-0.3,1.1-0.9,2.2-1.5,3.1
					c-1,1.7-2.2,3.6-3.6,5.8c-1.4,2.2-2.1,3.4-2.2,3.6c3.8-0.3,6.5-0.4,8.1-0.4c1.1-0.1,2.2,0.1,3.3,0.3c0.8,0.4,1.5,1.1,2,1.8
					c0.6,0.8,1.3,1.6,2.1,2.3c0.7,0.6,1,1.4,1,2.3c-0.1,1.1-0.8,2.2-1.9,2.6c-1.2,0.7-2.6,1.1-4,1.3c-11.3,1.1-17.6,1.7-18.8,1.8
					c-4,6.1-9.5,15.5-16.6,28.3c-7.1,12.8-10.9,20.8-11.4,24.1c-0.2,1.2-0.3,2.4-0.3,3.6c0,1.9,1,2.9,3,2.9c2.4-0.1,4.7-0.9,6.7-2.3
					c2.4-1.5,4.6-3.2,6.7-5c5.5-4.9,8.4-7.3,8.8-7.3c1.3,0,1.9,2.2,1.9,6.6c-0.1,2.5-1.3,4.9-3.3,6.4c-3.9,3.5-8.1,6.7-12.5,9.6
					c-3,2-6.5,3.1-10.1,3.2c-0.7,0-1.4-0.1-2-0.2c-3.9-0.7-6.8-2.2-8.6-4.3c-1.8-2.1-2.7-5-2.7-8.6c0-3.6,1.1-8,3.2-13.1
					c2.4-5.6,5-11.1,8-16.4c5.3-9.5,10.5-18.4,15.8-26.7l-2.8,0.4c-5.7,0.6-9,0.9-9.9,1h-0.7c-1.4,0-2.8-0.3-4.1-0.8
					c-1.3-0.6-2-1.3-2-2.1c0-0.9,0.4-1.8,1.1-2.4c0.5-0.5,1-1.2,1.3-1.8c0.3-1.1,1.6-2.3,3.9-3.6c1.5-1,3.2-1.8,5-2.1
					c1.1-0.1,2.2-0.1,3.2-0.2l3.5-0.1c1.3,0,2.3-0.1,3-0.1l6.6-0.3c2.6-4.1,5.5-8.1,8.5-11.9c0.8-1,1.7-2,2.6-2.9
					c0.5-0.2,1-0.3,1.5-0.3L385,15.4z"/>
				<path class="st0" d="M468.1,3.5l3.4-0.2c1.3,0,1.9,0.5,1.9,1.5c0,0.2,0,0.5-0.1,0.7c-23.3,34.3-45.1,68-65.4,100.9
					c-1.1,1.8-2,2.8-2.9,3c-0.3,0.1-0.5,0.2-0.7,0.3c-1.6,0.7-3.4,1.2-5.1,1.4c-0.5,0-1.1,0-1.6,0.1c-0.4,0.5-1,0.7-1.6,0.7
					c-0.4,0-0.8,0-1.2,0c-0.6-0.1-1.1-0.3-1.7-0.6c-0.9-0.4-1.4-0.7-1.4-0.8c-0.1-1.4,0-2.9,0.3-4.3c1-3.5,6.6-13.2,16.9-29.4
					s20.7-31.8,31.3-47.1c10.6-15.3,17.1-23.8,19.3-25.6c0.8-0.6,1.7-0.9,2.7-0.8L468.1,3.5z"/>
				<path class="st0" d="M478.2,98.5c0,2.2,1.5,3.2,4.4,3.2c1.6,0,3.5-0.8,5.9-2.3c2.3-1.5,4.4-3.2,6.4-5.1c5.1-5,8-7.5,8.6-7.5
					c1.3,0,1.9,1.8,1.9,5.5c0,3.7-1.1,6.2-3.4,7.6c-7,6.3-12.4,10.1-16.2,11.5c-2.3,0.7-4.7,1.1-7.1,1c-2.9-0.2-5.6-1.4-7.7-3.4
					c-2.4-1.9-3.8-4.9-3.8-8c0.1-3.7,1-7.3,2.5-10.7c1.4-3.6,3.1-7,5.1-10.3c1.7-2.8,3.9-6.2,6.4-10c2.5-3.8,3.9-6.2,4-7.1l-0.1-0.1
					c-1.6,0.1-5.6,3.3-12,9.5s-11.6,11.6-15.7,16.2c-4.1,4.6-9.1,10.7-14.9,18.4c-1.6,2.1-2.9,3.1-4,3.2c-1.4-0.1-2.8-0.4-4.1-1
					c-1.1-0.4-2.2-0.9-3.2-1.4c-0.4-0.3-0.6-0.8-0.6-1.3c0-0.7,0.2-1.5,0.5-2.2c0.3-0.7,0.6-1.4,1-2.1c0.3-0.6,0.8-1.4,1.6-2.6
					s2.2-3.7,4.4-7.4s5.5-9.4,10-17s7.2-12.1,8.1-13.6c1.3-2.4,2.9-4.8,4.5-7c2.2-2.8,5.9-4.2,11.1-4.2c1.2,0,1.8,0.7,1.8,2.2
					c0,2.3-2.1,6.6-6.4,13l-3.1,4.6c8.4-9.4,15.6-15.3,21.4-17.8c2.4-1.1,5-1.7,7.6-1.8c2-0.1,3.9,0.6,5.4,1.8c1.2,1,2,2.5,2,4.1
					c-0.1,1.9-0.6,3.7-1.5,5.4c-0.9,1.9-2,3.8-3.1,5.6c-1.1,1.6-2.4,3.7-4.1,6.2l-2.7,4.1l-1.2,1.7c-0.6,1-1.1,1.6-1.4,2.1
					s-0.8,1.2-1.5,2.3s-1.2,2-1.6,2.8l-1.5,2.7c-0.6,1.1-1.1,2-1.5,2.8s-0.8,1.6-1.1,2.6C478.6,95.5,478.3,97,478.2,98.5z"/>
				<path class="st0" d="M494.5,86.2l-0.6-2c0-0.4,0.2-0.8,0.6-1c0.6-0.5,1.1-1,1.5-1.7c0.4-0.6,0.8-1.1,1.3-1.6
					c0.3-0.2,0.6-0.6,1.2-1.1s0.9-0.8,1.3-1.1c0.6-0.6,1.3-1.1,2-1.4l2-0.6c2.5-0.8,5.1-1.5,7.7-2c12.5-20.8,22.5-37.1,30-48.8
					c7.5-11.7,11.9-18.3,12.9-19.6c1.6-1.6,3.5-2.7,5.6-3.3c1.9-0.8,3.9-1.3,5.9-1.4c1.2,0,1.9,0.6,1.9,1.7c0,0.6-0.2,1.2-0.5,1.8
					c-0.3,0.7-3,5.1-8,13c-18.6,29.1-30.5,48-35.7,56.7l1.8,0.7c11.3-2.1,17.2-3.2,17.7-3.2c1.2,0.2,2.4,0.5,3.5,1
					c1.2,0.5,2.4,0.8,3.7,1.1c1.1,0.2,1.7,1.1,1.7,2.8s-0.5,2.6-1.5,2.8c-0.8,0.1-2.8,0.6-6,1.4s-5.7,1.4-7.6,1.9
					c2.4,2.7,3.8,6.2,3.9,9.8c0,3.5-1.5,8-4.6,13.7c-3.3,6-7.3,11.7-11.8,16.9c-4.7,5.5-9.8,10.8-15,15.7c-4.7,4.5-9.7,8.5-15.1,12
					c-4.8,3.1-8.4,4.6-10.7,4.6c-2.2,0-4.4-0.6-6.2-1.9c-1.8-1.2-2.9-3.3-2.8-5.5c0.1-2.9,0.6-5.8,1.5-8.5c0.9-3,2-6,3.3-8.9
					c1.2-2.7,3.2-6.6,6-11.7c3-5.5,8.5-14.8,16.4-28c-1,0.2-2.1,0.3-3.1,0.4c-0.7,0-1.4-0.2-2-0.5c-0.6-0.3-1-0.8-1.3-1.3
					C494.7,88,494.5,87.1,494.5,86.2z M515.1,117.7c3.5-4.1,6.6-8.6,9.2-13.4c2.5-4.7,3.7-8.5,3.7-11.4c0-3-1.4-5.6-4.3-7.8
					l-8.1,1.9c-0.8,1.4-2.1,3.5-3.9,6.5c-1.7,3-3.1,5.4-4.2,7.2s-2.5,4.2-4.2,7.2s-3.1,5.4-4.3,7.4s-2.4,4.3-3.8,6.8
					s-2.5,4.7-3.4,6.4s-1.8,3.6-2.6,5.3c-1.6,3.4-2.4,5.6-2.4,6.7c0,1,0.3,1.5,0.8,1.5c1,0,3-1.1,6-3.3c3.6-2.7,7.1-5.7,10.3-8.9
					C507.7,126,511.4,122,515.1,117.7z"/>
				<path class="st0" d="M602.3,53.9c1.7,0.1,3.3,0.8,4.5,2c1.5,1.3,2.3,3.3,2.3,6c0,2.7-1,6.2-2.9,10.6c-2.1,4.7-4.7,9.1-7.8,13.2
					c-3.3,4.5-7,8.7-11,12.6c-3.8,3.8-8.1,7.1-12.8,9.7c-4.6,2.5-8.8,3.8-12.6,3.8c-3.4,0.1-6.6-1.2-9-3.6c-2.3-2.4-3.4-5.7-3.4-9.9
					c0.1-4.8,1.2-9.6,3.1-14c1.9-4.9,4.6-9.5,8-13.6c3.2-3.9,6.8-7.4,10.6-10.6c8-6.4,14.9-9.6,20.9-9.6c2.7,0,4.7,0.7,6.1,2
					c0.4,0.3,0.7,0.7,0.7,1.2v0.4C600.1,54,601.2,53.9,602.3,53.9z M594.9,63.7h-0.5c-1.7,0-2.6-1.2-2.6-3.7
					c-4,1.4-7.8,3.5-11.2,6.1c-4,3-7.5,6.5-10.5,10.4c-6.2,8-9.4,14.8-9.5,20.3c0,2.7,1,4.1,3,4.1s5-1.3,8.9-4
					c4.5-3.1,8.5-6.9,11.8-11.3c3.3-4,6.2-8.2,8.7-12.7c1.9-3.6,2.9-6,2.9-7.3C595.9,64.3,595.5,63.7,594.9,63.7z"/>
				<path class="st0" d="M631.4,69.8c11.5-13.1,21.3-19.6,29.4-19.6c1.8-0.1,3.6,0.6,5,1.8c1.3,1.2,2,2.9,1.9,4.7
					c0,1.9-1.4,5.1-4.1,9.6c-2.7,4.5-5.2,8.2-7.5,11.3c-0.9,1.4-2.5,2.3-4.2,2.3c-1.4,0.1-2.7-0.6-3.6-1.7c-0.9-1.1-1.3-2.6-1.3-4
					c0-3.4,1.8-7.2,5.4-11.4l-0.2-0.1c-1.6,0.1-5.6,3.3-12,9.5s-11.8,11.8-16.2,16.7c-4.5,4.9-9.3,10.9-14.5,17.9
					c-1.5,2.1-2.8,3.2-3.8,3.2c-1.4-0.1-2.8-0.4-4.2-1c-1.1-0.4-2.2-0.8-3.2-1.4c-0.4-0.4-0.6-0.9-0.5-1.5c0-0.8,0.2-1.6,0.6-2.4
					c0.6-1.3,1.3-2.6,2.2-3.8c1.1-1.7,2.6-4.3,4.8-8.1s5.4-9.3,9.9-16.8c4.5-7.5,7.2-12.1,8-13.6c1.4-2.4,2.9-4.8,4.5-7
					c2.2-2.8,5.9-4.2,11.1-4.2c1.2,0,1.8,0.7,1.8,2.2c0,2.3-2.1,6.6-6.4,13L631.4,69.8z"/>
				<path class="st0" d="M659.8,110.2l-3.6-0.2h-1.3c-0.6-0.2-1.1-0.5-1.6-0.9c-0.6-0.4-1-0.8-1.3-1c-0.3-0.3-0.5-0.7-0.4-1.1
					c0.1-0.9,0.3-1.8,0.6-2.7c9.5-21,18.7-37.7,27.6-50.2c1.2-1.5,2.9-2.6,4.7-3.1c2-0.7,4.2-1,6.3-1.1c1.2,0,1.8,1,1.8,2.9
					c-0.1,0.8-0.3,1.5-0.6,2.2c-0.8,1.6-1.8,3.1-2.9,4.4c-1.6,2-3.4,4.4-5.6,7c-2.2,2.6-3.4,4.2-3.7,4.5
					c6.7-6.9,12.7-12.1,18.1-15.5c5.4-3.4,9.3-5.1,11.7-5.1c2.1-0.1,4.1,0.6,5.6,2.1c1.2,1.2,1.9,2.8,1.9,4.4c0,1.3-0.1,2.7-0.3,4
					c-0.3,1.1-0.7,2.3-1.2,3.3c-0.6,1.2-1.1,2.1-1.5,2.9c-0.6,1.1-1.3,2.2-2.1,3.2l-2,2.7c-0.4,0.5-1.1,1.4-2.3,2.8
					s-1.8,2.2-1.9,2.3c1.4-1.4,3.3-3.4,5.7-6.1s4.5-4.9,6.2-6.7s3.8-3.8,6.3-6.1c2.2-2,4.6-3.9,7.1-5.5c4.7-3.2,10.3-4.9,16-5
					c1.7,0,3.4,0.6,4.7,1.8c1.2,1.1,2,2.6,2,4.2c0,1.6-2,5.5-5.9,11.7c-4,6.2-7.9,12.4-11.8,18.7c-3.9,6.2-5.9,10.1-5.9,11.8
					c0,2.2,0.4,3.6,1.2,4c0.9,0.4,2,0.6,3,0.5c1.8-0.4,3.5-1.1,4.9-2.3c2-1.3,3.9-2.8,5.7-4.4c2.7-2.4,5.2-4.8,7.5-7.1
					c0.4-0.4,1-0.7,1.6-0.7c0.9,0,1.5,0.7,1.7,2.1c0.2,1.5,0.3,2.9,0.3,4.4c0.1,1.1-0.1,2.1-0.4,3.2c-1.4,2.7-4.5,6.1-9.4,10
					c-4.8,3.9-9.5,5.9-13.9,5.9c-0.4,0-0.8,0-1.2-0.1c-5-0.5-8.5-1.9-10.4-4.1c-1.9-2.3-3-5.1-2.9-8.1c0-3.1,1.1-6.9,3.2-11.3
					c2-4.2,4.3-8.3,7-12.1c2.5-3.6,4.9-6.9,7-9.8c2.1-2.9,3.2-4.5,3.2-4.7s-0.2-0.4-0.6-0.4c-1.5,0-4.9,2.4-10.1,7.3
					c-8.2,7.6-15.9,15.7-23.1,24.2c-1.7,2.1-5.8,7.3-12.2,15.6c-0.8,1-2.1,1.6-3.5,1.5c-1.7,0-3.4-0.3-4.9-0.9
					c-1.7-0.6-2.6-1.4-2.6-2.4c0-0.5,3.9-7.3,11.7-20.5c7.8-13.2,11.6-20.4,11.6-21.6c0-1.2-0.7-1.8-2.2-1.8s-4.4,2.2-8.9,6.4
					c-12.3,11.8-21.9,23.6-28.7,35.2c-0.8,1.1-1.6,2.2-2.6,3.2C661.1,109.5,660.3,110.2,659.8,110.2z"/>
				<path class="st0" d="M807,54.1c3.7,0,5.6,1.3,5.6,3.8c0.1,1.1-0.3,2.2-1,3c-1.5,2-2.9,4.1-4.1,6.3c-2.1,3.6-4.4,8.2-6.9,13.8
					c-2.2,4.6-3.8,9.4-4.9,14.3c-0.2,0.7-0.2,1.3-0.2,2c0,2.7,0.7,4,2.2,4c1.9-0.2,3.7-0.9,5.2-2.1c1.9-1.3,3.7-2.8,5.3-4.5
					c1.6-1.6,3.1-3.2,4.6-4.9c1.5-1.7,2.4-2.6,2.7-2.9c0.4-0.3,0.9-0.4,1.3-0.4c0.9,0,1.5,0.7,1.7,2.1c0.2,1.5,0.3,2.9,0.3,4.4
					c0.1,1.1-0.1,2.1-0.4,3.2c-1.4,2.8-4.5,6.1-9.3,10c-4.8,3.9-9.2,5.9-13.1,6c-3.9,0-6.8-1.2-8.7-3.6c-1.8-2.3-2.8-5.1-2.8-8
					c0-2.6,0.5-5.2,1.5-7.6c-3.9,5.2-8.7,9.7-14,13.4c-5.2,3.7-9.5,5.5-12.9,5.5c-3,0.1-5.9-1-8.1-3c-2.7-2.5-4-5.9-4-10.4
					c0-4.6,1.1-9.1,3-13.3c2-4.5,4.6-8.6,7.8-12.2c3.2-3.7,6.7-7,10.6-10.1c8.1-6.3,15.6-9.5,22.4-9.5c2.2-0.1,4.4,0.4,6.5,1.3
					c1.4,0.6,2.6,1.8,3.2,3.3c0.8-1.3,1.8-2.4,3-3.3C804.5,54.2,805.8,54,807,54.1z M797.3,62.2c-8.4,0-17,4.6-25.9,13.9
					c-3.4,3.6-6.3,7.6-8.8,11.9c-2.7,4.7-4,7.8-4,9.5c0,1.7,0.5,2.6,1.5,2.6c1.4,0,5.2-2.7,11.4-8.1c6.2-5.4,10.4-9.4,12.5-11.9
					C786.1,77.3,790.6,71.3,797.3,62.2L797.3,62.2z"/>
				<path class="st0" d="M862.6,15.4l3,0.7c0.5,0,0.9,0.3,1.2,0.7c0.3,0.3,0.5,0.8,0.5,1.2c-0.3,1.1-0.9,2.2-1.5,3.1
					c-1,1.7-2.2,3.6-3.6,5.8s-2.1,3.4-2.2,3.6c3.8-0.3,6.5-0.4,8.1-0.4c1.1-0.1,2.2,0.1,3.3,0.3c0.8,0.4,1.5,1.1,2,1.8
					c0.6,0.8,1.3,1.6,2.1,2.3c0.7,0.6,1.1,1.4,1,2.3c-0.1,1.1-0.8,2.2-1.9,2.6c-1.2,0.7-2.6,1.1-4,1.3c-11.3,1.1-17.6,1.7-18.8,1.8
					c-4,6.1-9.5,15.5-16.6,28.3s-10.9,20.8-11.3,24.1c-0.2,1.2-0.3,2.4-0.3,3.6c0,1.9,1,2.9,3,2.9c2.4-0.1,4.7-0.9,6.7-2.3
					c2.4-1.5,4.6-3.2,6.7-5c5.5-4.9,8.4-7.3,8.8-7.3c1.3,0,1.9,2.2,1.9,6.6c-0.1,2.5-1.3,4.9-3.3,6.4c-3.9,3.5-8.1,6.7-12.5,9.6
					c-3,2-6.5,3.1-10.1,3.2c-0.7,0-1.4-0.1-2-0.2c-3.9-0.7-6.8-2.2-8.6-4.3c-1.8-2.1-2.7-5-2.7-8.6s1.1-8,3.2-13.1
					c2.4-5.6,5-11.1,8-16.4c5.3-9.5,10.5-18.4,15.8-26.7l-2.8,0.4c-5.7,0.6-9,1-9.9,1H825c-1.4,0-2.8-0.3-4.1-0.8
					c-1.3-0.6-2-1.3-2-2.1c0-0.9,0.4-1.8,1.1-2.4c0.5-0.5,1-1.2,1.3-1.8c0.3-1.1,1.6-2.3,3.8-3.6c1.5-1,3.2-1.8,5-2.1
					c1.1-0.1,2.2-0.1,3.3-0.2l3.6-0.2c1.3,0,2.3-0.1,3-0.1l6.6-0.3c2.6-4.1,5.4-8.1,8.4-11.9c0.8-1,1.7-2,2.7-2.9
					c0.5-0.2,1-0.3,1.5-0.3L862.6,15.4z"/>
				<path class="st0" d="M880.2,93.3c0.1,1.1-0.1,2.1-0.4,3.2c-2.5,5-6.5,9.1-11.4,11.8c-5.2,3-9.8,4.5-13.6,4.5
					c-3.7,0.1-7.3-1.3-10-3.9c-2.8-2.6-4.2-5.2-4.2-7.9s1.3-6.6,4-11.7c2.7-5.1,5.3-9.9,8-14.2c2.7-4.3,4-6.7,4-7.1
					s-0.5-1.1-1.5-2.2s-1.5-1.9-1.5-2.4s1-1.8,3-4c2.3-2.4,4.7-4.5,7.4-6.5c2.9-2.1,5.1-3.2,6.7-3.2c1.6,0,3.1,0.8,4.1,2
					c1,1,1.7,2.3,1.8,3.7c0,1.1-5.8,11.7-17.4,31.7c-0.2,0.3-0.5,0.9-1.2,1.9s-0.9,1.8-1.4,2.5s-0.8,1.4-1.3,2.4
					c-0.9,1.5-1.4,3.2-1.5,4.9c0,1.7,1.1,2.5,3.4,2.5c2.5-0.1,4.9-0.9,7-2.3c2.3-1.4,4.4-3.1,6.3-5.1c4.6-4.9,7.2-7.4,7.8-7.4
					C879.6,86.7,880.2,88.9,880.2,93.3z M892.1,29.3c0,2.8-1.3,5.6-3.9,8.4s-5.3,4.2-8.1,4.2c-2.8,0-4.2-1.5-4.2-4.4
					c0.1-3.2,1.4-6.2,3.7-8.4c2.5-2.7,5.2-4,8.2-4c1.2-0.1,2.3,0.3,3.2,1.1C891.7,27.1,892.2,28.2,892.1,29.3z"/>
				<path class="st0" d="M924.5,53.9c1.7,0.1,3.3,0.8,4.5,2c1.5,1.3,2.3,3.3,2.3,6s-1,6.2-2.8,10.6c-2.1,4.7-4.7,9.1-7.8,13.2
					c-3.3,4.5-7,8.7-11,12.6c-3.8,3.8-8.2,7.1-12.9,9.7c-4.6,2.5-8.8,3.8-12.6,3.8c-3.4,0.1-6.6-1.2-9-3.6c-2.3-2.4-3.4-5.7-3.4-9.9
					c0.1-4.8,1.2-9.6,3.1-14c1.9-4.9,4.6-9.5,8-13.6c3.2-3.9,6.8-7.4,10.6-10.6c8-6.4,15-9.6,21-9.6c2.7,0,4.7,0.7,6.1,2
					c0.4,0.3,0.7,0.7,0.7,1.2v0.4C922.4,54,923.5,53.9,924.5,53.9z M917.1,63.7h-0.5c-1.7,0-2.6-1.2-2.6-3.7
					c-4,1.4-7.8,3.5-11.2,6.1c-3.9,3-7.5,6.5-10.5,10.4c-6.2,8-9.4,14.8-9.5,20.3c0,2.7,1,4.1,3,4.1c2,0,5-1.3,8.9-4
					c4.5-3.1,8.4-6.9,11.8-11.3c3.3-4,6.2-8.2,8.7-12.7c1.9-3.6,2.9-6,2.9-7.3C918.2,64.3,917.8,63.7,917.1,63.7z"/>
				<path class="st0" d="M968,98.5c0,2.2,1.5,3.2,4.4,3.2c1.6,0,3.5-0.8,5.9-2.3c2.3-1.5,4.4-3.2,6.4-5.1c5.1-5,8-7.5,8.6-7.5
					c1.3,0,1.9,1.8,1.9,5.5c0,3.7-1.2,6.2-3.4,7.6c-7,6.3-12.4,10.1-16.2,11.5c-2.3,0.7-4.7,1.1-7.1,1c-2.9-0.2-5.6-1.4-7.7-3.4
					c-2.4-1.9-3.8-4.9-3.8-8c0.1-3.7,1-7.3,2.5-10.7c1.4-3.6,3.1-7,5.1-10.3c1.7-2.8,3.9-6.2,6.4-10c2.5-3.8,3.9-6.2,4-7.1l-0.2-0.1
					c-1.6,0.1-5.6,3.3-12,9.5c-6.4,6.2-11.6,11.6-15.8,16.2c-4.2,4.6-9.1,10.7-14.9,18.4c-1.6,2.1-2.9,3.1-4,3.2
					c-1.4-0.1-2.8-0.4-4.1-1c-1.1-0.4-2.2-0.9-3.2-1.4c-0.4-0.3-0.6-0.8-0.6-1.3c0-0.7,0.2-1.5,0.5-2.2c0.3-0.7,0.6-1.4,1-2.1
					c0.3-0.6,0.8-1.4,1.6-2.6s2.2-3.7,4.4-7.4s5.5-9.4,10-17s7.2-12.1,8.1-13.6c1.3-2.4,2.9-4.8,4.5-7c2.2-2.8,5.9-4.2,11.1-4.2
					c1.2,0,1.8,0.7,1.8,2.2c0,2.3-2.1,6.6-6.4,13l-3.1,4.6c8.5-9.4,15.6-15.3,21.4-17.8c2.4-1.1,5-1.7,7.7-1.8
					c2-0.1,3.9,0.6,5.4,1.8c1.2,1,2,2.5,2,4.1c-0.1,1.9-0.6,3.7-1.5,5.3c-0.9,1.9-2,3.8-3.1,5.6c-1,1.6-2.4,3.7-4.1,6.2l-2.8,4.1
					l-1.1,1.7c-0.6,1-1.1,1.6-1.4,2.1s-0.8,1.2-1.5,2.3s-1.2,2-1.7,2.8l-1.5,2.7c-0.6,1.1-1.1,2-1.5,2.8s-0.8,1.6-1.1,2.6
					C968.4,95.5,968.1,97,968,98.5z"/>
			</g>
			<g>
				<path class="st1" d="M22.5,34.5c0.7,0,1.1,0.4,1.1,1.2c0,0.3-0.1,0.6-0.4,0.8c-3.7,3.9-8.8,6.1-14.2,6.2c-1.3,0-2.7-0.7-4.2-2.2
					c-1.6-1.7-2.5-3.9-2.3-6.3c0-2.7,1.7-5.8,5-9.1c4.1-3.9,8.8-7.1,13.9-9.5c7.1-3.4,14.6-6.1,22.2-8c7.8-2.2,15.8-3.4,23.9-3.5
					C73.4,4,79.3,4.6,85,5.9c3.7,0.8,7.3,2.3,10.6,4.2c2.4,1.5,4.5,3.5,6.3,5.7c2.8,3.5,4.2,7.1,4.2,10.7c-0.1,4-1.3,7.9-3.5,11.2
					c-2.4,3.9-5.5,7.4-9.1,10.3c-4,3.2-8.3,6-12.8,8.4c-9.1,4.8-18.9,8.4-29,10.6c1.8,1.8,5.5,6.3,11.2,13.6
					c4.9,6.3,10.1,12.4,15.6,18.2c4.7,4.9,8.4,7.3,11,7.3l2.4-0.9c0.5,0,0.8,0.2,0.8,0.6s-0.9,1.6-2.7,3.6c-1.4,1.6-3,3.1-4.7,4.5
					c-1.6,1.1-3.5,1.6-5.4,1.5c-2.3,0-4.8-1.1-7.7-3.3c-3.5-2.8-6.6-5.9-9.5-9.3c-3.4-4-6.5-7.8-9.2-11.3c-2.7-3.5-5.9-7.7-9.4-12.6
					c-3.5-4.8-5.9-8.1-7.2-9.8c-0.5,0.8-1.7,2.7-3.7,5.8c-2,3.1-3.5,5.4-4.4,6.8s-2.3,3.6-4,6.4s-3.1,5.1-4.1,6.8
					c-2.7,4.5-4.5,7.9-5.6,10.2c-0.8,2.1-2.9,3.5-5.2,3.4l-2.6-0.1l-2.2,0.1c-3,0-4.5-1.3-4.5-3.8c0-1.9,0.8-4.6,2.5-8.1
					C4.7,93.1,13.3,79.9,29,57c15.7-22.9,24.4-35.1,26-36.6c1-1.1,2.2-2,3.6-2.6c0.3-0.3,0.7-0.5,1.2-0.7l1.3,0.2l1.2-0.2
					c0.5,0,0.9,0.2,1.2,0.5c0.2,0.3,0.5,0.5,0.7,0.7c2,1.5,3.1,2.8,3.1,3.8c0,1-0.3,2.1-0.8,3c-0.5,1-1.9,3.1-4.2,6.4
					s-5.3,7.6-9,12.9s-6.4,9.1-8.1,11.5c4-0.2,8.8-1.4,14.4-3.7c5.5-2.2,10.7-4.9,15.7-8.1C80,41.4,84.2,38,88,34.1
					c3.5-3.7,5.2-6.9,5.2-9.6c-0.1-1.6-0.9-3.1-2.3-4c-1.7-1.3-3.6-2.2-5.7-2.8c-5.1-1.4-10.3-2.1-15.5-2.1
					c-5.8,0-13.1,1.2-21.9,3.7s-15.3,4.9-19.3,7.1c-3.1,1.6-6.1,3.6-8.8,5.8c-1.8,1.6-2.7,2.7-2.7,3.3c0,0.3,0.5,0.5,1.5,0.5
					c0.9,0,1.9-0.3,2.7-0.8C21.6,35,22.1,34.7,22.5,34.5z"/>
				<path class="st1" d="M140.5,55c0,3.3-1.4,6.4-3.9,8.5c-2.4,2.3-5.6,3.7-8.9,3.7c-0.8,0.1-1.6-0.2-2.1-0.8
					c-0.4-0.6-0.5-1.3-0.5-2c0-0.8,0.1-1.6,0.3-2.4c-2,0.7-4,1.6-5.9,2.7c-2.8,1.6-5.4,3.4-7.9,5.3c-3.1,2.4-4.7,4.2-4.7,5.3
					c0,0.4,0.6,0.6,1.7,0.6c1.8-0.1,3.6-0.5,5.4-1.2c1.6-0.6,3.3-1,5-1.2c0.6,0,1.3,0,1.9,0.2c0.8,0.6,1.5,1.3,2,2.2
					c0.6,0.8,1,1.7,1.1,2.7c0,0.7-0.6,1.5-1.9,2.6c-1.3,1.1-2.7,1.9-4.3,2.4c-1.1,0.4-2.2,0.8-3.2,1.3c-10.3,5.8-15.5,9.7-15.5,11.8
					c0,3.8,3.2,5.7,9.8,5.7c4.5-0.1,8.8-1.5,12.5-4c3.3-2.1,6.6-4.3,9.6-6.8c2.9-2.3,4.7-3.8,5.4-4.3c0.5-0.4,1.1-0.7,1.7-0.8
					c1.3,0,1.9,1.4,1.9,4.2c0.1,1.9-0.1,3.8-0.5,5.6c-0.7,1.3-1.7,2.5-2.9,3.3c-10.5,8.5-20.4,12.7-29.7,12.7c-5,0-9-0.7-11.9-2
					c-5.5-2.5-8.2-6.3-8.2-11.4c0-6.7,4.7-11.8,14-15.3c-1.6-0.6-2.8-1.7-3.6-3.2c-0.6-2-0.9-4.1-0.8-6.2c0-2.9,1.3-5.9,4-9.1
					c2.7-3.2,6-5.9,9.8-7.9c8.6-4.7,16.3-7,23-7c1.7,0,3.4,0.4,4.9,1.2C139.7,52.4,140.5,53.6,140.5,55z"/>
				<path class="st1" d="M185.4,93.5c2.5-1.6,4.1-2.7,4.9-3.3s1.6-1.3,2.6-2.2c0.6-0.7,1.5-1.1,2.4-1.2c1,0,1.5,1.1,1.5,3.3
					s-1.1,4.6-3.3,7.2c-2.3,2.7-5,4.9-8.1,6.5c-3.3,1.8-6.8,3.4-10.4,4.7c-7.3,2.7-13.5,4-18.6,4c-5.1,0-9.9-1.7-13.8-5
					c-4-3.1-6.3-8-6.1-13.1c0-5.6,1.4-11.2,4-16.2c2.6-5.3,6.2-10.1,10.4-14.2c4.3-4.1,9.3-7.5,14.7-9.9c5.2-2.4,10.9-3.7,16.6-3.8
					c2.6,0,5,0.8,7.1,2.3c2,1.4,3.2,3.7,3.1,6.2c0,2.7-1.3,5.8-3.9,9.5c-2.6,3.7-5.3,5.5-8,5.5c-3.1,0-4.7-1.5-4.7-4.5
					c0-0.8,0.7-2.2,2.2-4.2s2.2-3.4,2.2-4.1c0-0.7-0.3-1.1-0.8-1.1c-3.1,0.1-6.1,1.1-8.6,2.8c-2.9,1.8-5.7,3.7-8.4,5.9
					c-2.6,2.1-5,4.4-7.1,6.9c-4.9,5.5-7.3,11.3-7.3,17.2c0,2.3,0.8,4.5,2.3,6.2c1.5,1.7,4.1,2.6,7.8,2.6c3.7,0,7.3-0.4,10.9-1.3
					c3.1-0.7,6.1-1.6,9.1-2.8C180.6,96.3,183.1,95,185.4,93.5z"/>
				<path class="st1" d="M216.4,69.8c11.5-13.1,21.3-19.6,29.4-19.6c1.8-0.1,3.6,0.6,4.9,1.8c1.3,1.2,2,2.9,1.9,4.7
					c0,1.9-1.4,5.1-4.1,9.6c-2.7,4.5-5.2,8.2-7.5,11.3c-0.9,1.4-2.5,2.3-4.2,2.3c-1.4,0.1-2.7-0.6-3.6-1.7c-0.9-1.1-1.3-2.6-1.3-4
					c0-3.4,1.8-7.2,5.4-11.4l-0.1-0.1c-1.6,0.1-5.6,3.3-12,9.5c-6.4,6.2-11.8,11.8-16.2,16.7c-4.5,4.9-9.3,10.9-14.5,17.9
					c-1.5,2.1-2.8,3.2-3.9,3.2c-1.4-0.1-2.8-0.4-4.2-1c-1.1-0.4-2.2-0.8-3.1-1.4c-0.4-0.4-0.6-0.9-0.5-1.5c0-0.8,0.2-1.6,0.6-2.4
					c0.6-1.3,1.3-2.6,2.2-3.8c1.1-1.7,2.6-4.3,4.8-8.1s5.4-9.3,9.9-16.8c4.5-7.5,7.2-12.1,8.1-13.6c1.4-2.4,2.9-4.8,4.6-7
					c2.2-2.8,5.9-4.2,11.1-4.2c1.2,0,1.8,0.7,1.8,2.2c0,2.3-2.1,6.6-6.4,13L216.4,69.8z"/>
				<path class="st1" d="M306.9,86.7c0.9,0,1.5,0.7,1.7,2.1c0.2,1.5,0.3,2.9,0.3,4.4c0.1,1.1-0.1,2.1-0.4,3.2
					c-1.4,2.7-4.5,6.1-9.3,10c-4.8,3.9-9.3,5.9-13.6,5.9c-2.6,0-5.2-0.8-7.3-2.4c-2.2-1.6-3.4-4.3-3.4-8.3c0-4.1,1.1-8.1,3.1-11.6
					c-12.1,15.2-21.6,22.8-28.5,22.8c-2.5,0.1-5-1-6.6-2.9c-1.5-1.6-2.4-3.8-2.5-6c0-2.2,0.3-4.3,0.9-6.4c0.6-2.2,1.2-4.2,1.9-6
					c0.7-1.8,1.6-4,3-6.6c1.3-2.6,2.3-4.5,2.9-5.6s1.6-2.9,3-5.3s3.2-5.6,5.5-9.6c1.7-3.1,3.6-6.1,5.6-8.9c1.5-1.9,2.9-2.9,4.4-2.9
					c1.4,0,2.8,0.6,3.7,1.7c0.8,0.7,1.4,1.8,1.6,2.9c0,0.7-1.6,4-4.9,9.9c-9.7,17.5-14.5,27.7-14.5,30.5c0,0.7,0.3,1.1,0.8,1.1
					c2.3,0,8.2-5.1,17.5-15.2s14.7-16.7,16.2-19.5c1.3-2.5,2.7-4.9,4.3-7.2c0.9-1.3,1.9-2.6,3.1-3.6c2.5-1.5,5.3-2.2,8.1-2.2
					c0.4,0,0.8,0,1.2,0.1c0.3,0,0.6,0.5,1,1.2c0.3,0.6,0.5,1.2,0.6,1.8c-0.4,1.4-2.4,5-5.8,10.9s-5.4,9.2-5.8,10
					c-5.7,11.9-8.6,19.7-8.6,23.3c0,2.1,0.8,3.1,2.3,3.1c2.8-0.4,6.3-2.7,10.3-6.8c1.5-1.5,2.9-3.1,4.4-4.6c0.8-1,1.7-1.9,2.7-2.7
					C306,86.9,306.4,86.7,306.9,86.7z"/>
				<path class="st1" d="M340,93.3c0.1,1.1-0.1,2.1-0.4,3.2c-2.5,5-6.5,9.1-11.4,11.8c-5.2,3-9.8,4.5-13.6,4.5
					c-3.7,0.1-7.3-1.3-10-3.9c-2.8-2.6-4.2-5.2-4.2-7.9s1.3-6.6,4-11.7c2.7-5.1,5.4-9.9,8.1-14.2c2.7-4.3,4-6.7,4-7.1
					s-0.5-1.1-1.5-2.2s-1.5-1.9-1.5-2.4s1-1.8,3-4c2.3-2.4,4.7-4.5,7.4-6.5c2.9-2.1,5.1-3.2,6.7-3.2c1.6,0,3.1,0.8,4.1,2
					c1,1,1.7,2.3,1.8,3.7c0,1.1-5.8,11.7-17.4,31.7c-0.1,0.3-0.5,0.9-1.2,1.9s-1.2,1.8-1.5,2.5s-0.8,1.4-1.3,2.4
					c-0.9,1.5-1.4,3.2-1.5,4.9c0,1.7,1.1,2.5,3.4,2.5c2.5-0.1,4.9-0.9,7-2.3c2.3-1.4,4.4-3.1,6.3-5.1c4.6-4.9,7.2-7.4,7.8-7.4
					C339.3,86.7,340,88.9,340,93.3z M351.9,29.3c0,2.8-1.3,5.6-3.9,8.4s-5.3,4.2-8.1,4.2c-2.8,0-4.2-1.5-4.2-4.4
					c0.1-3.2,1.4-6.2,3.7-8.4c2.5-2.7,5.2-4,8.2-4c1.2-0.1,2.3,0.3,3.1,1.1C351.5,27.1,351.9,28.2,351.9,29.3L351.9,29.3z"/>
				<path class="st1" d="M385,15.4l3,0.7c0.5,0,0.9,0.3,1.2,0.7c0.3,0.3,0.5,0.8,0.5,1.2c-0.3,1.1-0.9,2.2-1.5,3.1
					c-1,1.7-2.2,3.6-3.6,5.8c-1.4,2.2-2.1,3.4-2.2,3.6c3.8-0.3,6.5-0.4,8.1-0.4c1.1-0.1,2.2,0.1,3.3,0.3c0.8,0.4,1.5,1.1,2,1.8
					c0.6,0.8,1.3,1.6,2.1,2.3c0.7,0.6,1,1.4,1,2.3c-0.1,1.1-0.8,2.2-1.9,2.6c-1.2,0.7-2.6,1.1-4,1.3c-11.3,1.1-17.6,1.7-18.8,1.8
					c-4,6.1-9.5,15.5-16.6,28.3c-7.1,12.8-10.9,20.8-11.4,24.1c-0.2,1.2-0.3,2.4-0.3,3.6c0,1.9,1,2.9,3,2.9c2.4-0.1,4.7-0.9,6.7-2.3
					c2.4-1.5,4.6-3.2,6.7-5c5.5-4.9,8.4-7.3,8.8-7.3c1.3,0,1.9,2.2,1.9,6.6c-0.1,2.5-1.3,4.9-3.3,6.4c-3.9,3.5-8.1,6.7-12.5,9.6
					c-3,2-6.5,3.1-10.1,3.2c-0.7,0-1.4-0.1-2-0.2c-3.9-0.7-6.8-2.2-8.6-4.3c-1.8-2.1-2.7-5-2.7-8.6c0-3.6,1.1-8,3.2-13.1
					c2.4-5.6,5-11.1,8-16.4c5.3-9.5,10.5-18.4,15.8-26.7l-2.8,0.4c-5.7,0.6-9,0.9-9.9,1h-0.7c-1.4,0-2.8-0.3-4.1-0.8
					c-1.3-0.6-2-1.3-2-2.1c0-0.9,0.4-1.8,1.1-2.4c0.5-0.5,1-1.2,1.3-1.8c0.3-1.1,1.6-2.3,3.9-3.6c1.5-1,3.2-1.8,5-2.1
					c1.1-0.1,2.2-0.1,3.2-0.2l3.5-0.1c1.3,0,2.3-0.1,3-0.1l6.6-0.3c2.6-4.1,5.5-8.1,8.5-11.9c0.8-1,1.7-2,2.6-2.9
					c0.5-0.2,1-0.3,1.5-0.3L385,15.4z"/>
				<path class="st1" d="M468.1,3.5l3.4-0.2c1.3,0,1.9,0.5,1.9,1.5c0,0.2,0,0.5-0.1,0.7c-23.3,34.3-45.1,68-65.4,100.9
					c-1.1,1.8-2,2.8-2.9,3c-0.3,0.1-0.5,0.2-0.7,0.3c-1.6,0.7-3.4,1.2-5.1,1.4c-0.5,0-1.1,0-1.6,0.1c-0.4,0.5-1,0.7-1.6,0.7
					c-0.4,0-0.8,0-1.2,0c-0.6-0.1-1.1-0.3-1.7-0.6c-0.9-0.4-1.4-0.7-1.4-0.8c-0.1-1.4,0-2.9,0.3-4.3c1-3.5,6.6-13.2,16.9-29.4
					s20.7-31.8,31.3-47.1c10.6-15.3,17.1-23.8,19.3-25.6c0.8-0.6,1.7-0.9,2.7-0.8L468.1,3.5z"/>
				<path class="st1" d="M478.2,98.5c0,2.2,1.5,3.2,4.4,3.2c1.6,0,3.5-0.8,5.9-2.3c2.3-1.5,4.4-3.2,6.4-5.1c5.1-5,8-7.5,8.6-7.5
					c1.3,0,1.9,1.8,1.9,5.5c0,3.7-1.1,6.2-3.4,7.6c-7,6.3-12.4,10.1-16.2,11.5c-2.3,0.7-4.7,1.1-7.1,1c-2.9-0.2-5.6-1.4-7.7-3.4
					c-2.4-1.9-3.8-4.9-3.8-8c0.1-3.7,1-7.3,2.5-10.7c1.4-3.6,3.1-7,5.1-10.3c1.7-2.8,3.9-6.2,6.4-10c2.5-3.8,3.9-6.2,4-7.1l-0.1-0.1
					c-1.6,0.1-5.6,3.3-12,9.5s-11.6,11.6-15.7,16.2c-4.1,4.6-9.1,10.7-14.9,18.4c-1.6,2.1-2.9,3.1-4,3.2c-1.4-0.1-2.8-0.4-4.1-1
					c-1.1-0.4-2.2-0.9-3.2-1.4c-0.4-0.3-0.6-0.8-0.6-1.3c0-0.7,0.2-1.5,0.5-2.2c0.3-0.7,0.6-1.4,1-2.1c0.3-0.6,0.8-1.4,1.6-2.6
					s2.2-3.7,4.4-7.4s5.5-9.4,10-17s7.2-12.1,8.1-13.6c1.3-2.4,2.9-4.8,4.5-7c2.2-2.8,5.9-4.2,11.1-4.2c1.2,0,1.8,0.7,1.8,2.2
					c0,2.3-2.1,6.6-6.4,13l-3.1,4.6c8.4-9.4,15.6-15.3,21.4-17.8c2.4-1.1,5-1.7,7.6-1.8c2-0.1,3.9,0.6,5.4,1.8c1.2,1,2,2.5,2,4.1
					c-0.1,1.9-0.6,3.7-1.5,5.4c-0.9,1.9-2,3.8-3.1,5.6c-1.1,1.6-2.4,3.7-4.1,6.2l-2.7,4.1l-1.2,1.7c-0.6,1-1.1,1.6-1.4,2.1
					s-0.8,1.2-1.5,2.3s-1.2,2-1.6,2.8l-1.5,2.7c-0.6,1.1-1.1,2-1.5,2.8s-0.8,1.6-1.1,2.6C478.6,95.5,478.3,97,478.2,98.5z"/>
				<path class="st1" d="M494.5,86.2l-0.6-2c0-0.4,0.2-0.8,0.6-1c0.6-0.5,1.1-1,1.5-1.7c0.4-0.6,0.8-1.1,1.3-1.6
					c0.3-0.2,0.6-0.6,1.2-1.1s0.9-0.8,1.3-1.1c0.6-0.6,1.3-1.1,2-1.4l2-0.6c2.5-0.8,5.1-1.5,7.7-2c12.5-20.8,22.5-37.1,30-48.8
					c7.5-11.7,11.9-18.3,12.9-19.6c1.6-1.6,3.5-2.7,5.6-3.3c1.9-0.8,3.9-1.3,5.9-1.4c1.2,0,1.9,0.6,1.9,1.7c0,0.6-0.2,1.2-0.5,1.8
					c-0.3,0.7-3,5.1-8,13c-18.6,29.1-30.5,48-35.7,56.7l1.8,0.7c11.3-2.1,17.2-3.2,17.7-3.2c1.2,0.2,2.4,0.5,3.5,1
					c1.2,0.5,2.4,0.8,3.7,1.1c1.1,0.2,1.7,1.1,1.7,2.8s-0.5,2.6-1.5,2.8c-0.8,0.1-2.8,0.6-6,1.4s-5.7,1.4-7.6,1.9
					c2.4,2.7,3.8,6.2,3.9,9.8c0,3.5-1.5,8-4.6,13.7c-3.3,6-7.3,11.7-11.8,16.9c-4.7,5.5-9.8,10.8-15,15.7c-4.7,4.5-9.7,8.5-15.1,12
					c-4.8,3.1-8.4,4.6-10.7,4.6c-2.2,0-4.4-0.6-6.2-1.9c-1.8-1.2-2.9-3.3-2.8-5.5c0.1-2.9,0.6-5.8,1.5-8.5c0.9-3,2-6,3.3-8.9
					c1.2-2.7,3.2-6.6,6-11.7c3-5.5,8.5-14.8,16.4-28c-1,0.2-2.1,0.3-3.1,0.4c-0.7,0-1.4-0.2-2-0.5c-0.6-0.3-1-0.8-1.3-1.3
					C494.7,88,494.5,87.1,494.5,86.2z M515.1,117.7c3.5-4.1,6.6-8.6,9.2-13.4c2.5-4.7,3.7-8.5,3.7-11.4c0-3-1.4-5.6-4.3-7.8
					l-8.1,1.9c-0.8,1.4-2.1,3.5-3.9,6.5c-1.7,3-3.1,5.4-4.2,7.2s-2.5,4.2-4.2,7.2s-3.1,5.4-4.3,7.4s-2.4,4.3-3.8,6.8
					s-2.5,4.7-3.4,6.4s-1.8,3.6-2.6,5.3c-1.6,3.4-2.4,5.6-2.4,6.7c0,1,0.3,1.5,0.8,1.5c1,0,3-1.1,6-3.3c3.6-2.7,7.1-5.7,10.3-8.9
					C507.7,126,511.4,122,515.1,117.7z"/>
				<path class="st1" d="M602.3,53.9c1.7,0.1,3.3,0.8,4.5,2c1.5,1.3,2.3,3.3,2.3,6c0,2.7-1,6.2-2.9,10.6c-2.1,4.7-4.7,9.1-7.8,13.2
					c-3.3,4.5-7,8.7-11,12.6c-3.8,3.8-8.1,7.1-12.8,9.7c-4.6,2.5-8.8,3.8-12.6,3.8c-3.4,0.1-6.6-1.2-9-3.6c-2.3-2.4-3.4-5.7-3.4-9.9
					c0.1-4.8,1.2-9.6,3.1-14c1.9-4.9,4.6-9.5,8-13.6c3.2-3.9,6.8-7.4,10.6-10.6c8-6.4,14.9-9.6,20.9-9.6c2.7,0,4.7,0.7,6.1,2
					c0.4,0.3,0.7,0.7,0.7,1.2v0.4C600.1,54,601.2,53.9,602.3,53.9z M594.9,63.7h-0.5c-1.7,0-2.6-1.2-2.6-3.7
					c-4,1.4-7.8,3.5-11.2,6.1c-4,3-7.5,6.5-10.5,10.4c-6.2,8-9.4,14.8-9.5,20.3c0,2.7,1,4.1,3,4.1s5-1.3,8.9-4
					c4.5-3.1,8.5-6.9,11.8-11.3c3.3-4,6.2-8.2,8.7-12.7c1.9-3.6,2.9-6,2.9-7.3C595.9,64.3,595.5,63.7,594.9,63.7z"/>
				<path class="st1" d="M631.4,69.8c11.5-13.1,21.3-19.6,29.4-19.6c1.8-0.1,3.6,0.6,5,1.8c1.3,1.2,2,2.9,1.9,4.7
					c0,1.9-1.4,5.1-4.1,9.6c-2.7,4.5-5.2,8.2-7.5,11.3c-0.9,1.4-2.5,2.3-4.2,2.3c-1.4,0.1-2.7-0.6-3.6-1.7c-0.9-1.1-1.3-2.6-1.3-4
					c0-3.4,1.8-7.2,5.4-11.4l-0.2-0.1c-1.6,0.1-5.6,3.3-12,9.5s-11.8,11.8-16.2,16.7c-4.5,4.9-9.3,10.9-14.5,17.9
					c-1.5,2.1-2.8,3.2-3.8,3.2c-1.4-0.1-2.8-0.4-4.2-1c-1.1-0.4-2.2-0.8-3.2-1.4c-0.4-0.4-0.6-0.9-0.5-1.5c0-0.8,0.2-1.6,0.6-2.4
					c0.6-1.3,1.3-2.6,2.2-3.8c1.1-1.7,2.6-4.3,4.8-8.1s5.4-9.3,9.9-16.8c4.5-7.5,7.2-12.1,8-13.6c1.4-2.4,2.9-4.8,4.5-7
					c2.2-2.8,5.9-4.2,11.1-4.2c1.2,0,1.8,0.7,1.8,2.2c0,2.3-2.1,6.6-6.4,13L631.4,69.8z"/>
				<path class="st1" d="M659.8,110.2l-3.6-0.2h-1.3c-0.6-0.2-1.1-0.5-1.6-0.9c-0.6-0.4-1-0.8-1.3-1c-0.3-0.3-0.5-0.7-0.4-1.1
					c0.1-0.9,0.3-1.8,0.6-2.7c9.5-21,18.7-37.7,27.6-50.2c1.2-1.5,2.9-2.6,4.7-3.1c2-0.7,4.2-1,6.3-1.1c1.2,0,1.8,1,1.8,2.9
					c-0.1,0.8-0.3,1.5-0.6,2.2c-0.8,1.6-1.8,3.1-2.9,4.4c-1.6,2-3.4,4.4-5.6,7c-2.2,2.6-3.4,4.2-3.7,4.5
					c6.7-6.9,12.7-12.1,18.1-15.5c5.4-3.4,9.3-5.1,11.7-5.1c2.1-0.1,4.1,0.6,5.6,2.1c1.2,1.2,1.9,2.8,1.9,4.4c0,1.3-0.1,2.7-0.3,4
					c-0.3,1.1-0.7,2.3-1.2,3.3c-0.6,1.2-1.1,2.1-1.5,2.9c-0.6,1.1-1.3,2.2-2.1,3.2l-2,2.7c-0.4,0.5-1.1,1.4-2.3,2.8
					s-1.8,2.2-1.9,2.3c1.4-1.4,3.3-3.4,5.7-6.1s4.5-4.9,6.2-6.7s3.8-3.8,6.3-6.1c2.2-2,4.6-3.9,7.1-5.5c4.7-3.2,10.3-4.9,16-5
					c1.7,0,3.4,0.6,4.7,1.8c1.2,1.1,2,2.6,2,4.2c0,1.6-2,5.5-5.9,11.7c-4,6.2-7.9,12.4-11.8,18.7c-3.9,6.2-5.9,10.1-5.9,11.8
					c0,2.2,0.4,3.6,1.2,4c0.9,0.4,2,0.6,3,0.5c1.8-0.4,3.5-1.1,4.9-2.3c2-1.3,3.9-2.8,5.7-4.4c2.7-2.4,5.2-4.8,7.5-7.1
					c0.4-0.4,1-0.7,1.6-0.7c0.9,0,1.5,0.7,1.7,2.1c0.2,1.5,0.3,2.9,0.3,4.4c0.1,1.1-0.1,2.1-0.4,3.2c-1.4,2.7-4.5,6.1-9.4,10
					c-4.8,3.9-9.5,5.9-13.9,5.9c-0.4,0-0.8,0-1.2-0.1c-5-0.5-8.5-1.9-10.4-4.1c-1.9-2.3-3-5.1-2.9-8.1c0-3.1,1.1-6.9,3.2-11.3
					c2-4.2,4.3-8.3,7-12.1c2.5-3.6,4.9-6.9,7-9.8c2.1-2.9,3.2-4.5,3.2-4.7s-0.2-0.4-0.6-0.4c-1.5,0-4.9,2.4-10.1,7.3
					c-8.2,7.6-15.9,15.7-23.1,24.2c-1.7,2.1-5.8,7.3-12.2,15.6c-0.8,1-2.1,1.6-3.5,1.5c-1.7,0-3.4-0.3-4.9-0.9
					c-1.7-0.6-2.6-1.4-2.6-2.4c0-0.5,3.9-7.3,11.7-20.5c7.8-13.2,11.6-20.4,11.6-21.6c0-1.2-0.7-1.8-2.2-1.8s-4.4,2.2-8.9,6.4
					c-12.3,11.8-21.9,23.6-28.7,35.2c-0.8,1.1-1.6,2.2-2.6,3.2C661.1,109.5,660.3,110.2,659.8,110.2z"/>
				<path class="st1" d="M807,54.1c3.7,0,5.6,1.3,5.6,3.8c0.1,1.1-0.3,2.2-1,3c-1.5,2-2.9,4.1-4.1,6.3c-2.1,3.6-4.4,8.2-6.9,13.8
					c-2.2,4.6-3.8,9.4-4.9,14.3c-0.2,0.7-0.2,1.3-0.2,2c0,2.7,0.7,4,2.2,4c1.9-0.2,3.7-0.9,5.2-2.1c1.9-1.3,3.7-2.8,5.3-4.5
					c1.6-1.6,3.1-3.2,4.6-4.9c1.5-1.7,2.4-2.6,2.7-2.9c0.4-0.3,0.9-0.4,1.3-0.4c0.9,0,1.5,0.7,1.7,2.1c0.2,1.5,0.3,2.9,0.3,4.4
					c0.1,1.1-0.1,2.1-0.4,3.2c-1.4,2.8-4.5,6.1-9.3,10c-4.8,3.9-9.2,5.9-13.1,6c-3.9,0-6.8-1.2-8.7-3.6c-1.8-2.3-2.8-5.1-2.8-8
					c0-2.6,0.5-5.2,1.5-7.6c-3.9,5.2-8.7,9.7-14,13.4c-5.2,3.7-9.5,5.5-12.9,5.5c-3,0.1-5.9-1-8.1-3c-2.7-2.5-4-5.9-4-10.4
					c0-4.6,1.1-9.1,3-13.3c2-4.5,4.6-8.6,7.8-12.2c3.2-3.7,6.7-7,10.6-10.1c8.1-6.3,15.6-9.5,22.4-9.5c2.2-0.1,4.4,0.4,6.5,1.3
					c1.4,0.6,2.6,1.8,3.2,3.3c0.8-1.3,1.8-2.4,3-3.3C804.5,54.2,805.8,54,807,54.1z M797.3,62.2c-8.4,0-17,4.6-25.9,13.9
					c-3.4,3.6-6.3,7.6-8.8,11.9c-2.7,4.7-4,7.8-4,9.5c0,1.7,0.5,2.6,1.5,2.6c1.4,0,5.2-2.7,11.4-8.1c6.2-5.4,10.4-9.4,12.5-11.9
					C786.1,77.3,790.6,71.3,797.3,62.2L797.3,62.2z"/>
				<path class="st1" d="M862.6,15.4l3,0.7c0.5,0,0.9,0.3,1.2,0.7c0.3,0.3,0.5,0.8,0.5,1.2c-0.3,1.1-0.9,2.2-1.5,3.1
					c-1,1.7-2.2,3.6-3.6,5.8s-2.1,3.4-2.2,3.6c3.8-0.3,6.5-0.4,8.1-0.4c1.1-0.1,2.2,0.1,3.3,0.3c0.8,0.4,1.5,1.1,2,1.8
					c0.6,0.8,1.3,1.6,2.1,2.3c0.7,0.6,1.1,1.4,1,2.3c-0.1,1.1-0.8,2.2-1.9,2.6c-1.2,0.7-2.6,1.1-4,1.3c-11.3,1.1-17.6,1.7-18.8,1.8
					c-4,6.1-9.5,15.5-16.6,28.3s-10.9,20.8-11.3,24.1c-0.2,1.2-0.3,2.4-0.3,3.6c0,1.9,1,2.9,3,2.9c2.4-0.1,4.7-0.9,6.7-2.3
					c2.4-1.5,4.6-3.2,6.7-5c5.5-4.9,8.4-7.3,8.8-7.3c1.3,0,1.9,2.2,1.9,6.6c-0.1,2.5-1.3,4.9-3.3,6.4c-3.9,3.5-8.1,6.7-12.5,9.6
					c-3,2-6.5,3.1-10.1,3.2c-0.7,0-1.4-0.1-2-0.2c-3.9-0.7-6.8-2.2-8.6-4.3c-1.8-2.1-2.7-5-2.7-8.6s1.1-8,3.2-13.1
					c2.4-5.6,5-11.1,8-16.4c5.3-9.5,10.5-18.4,15.8-26.7l-2.8,0.4c-5.7,0.6-9,1-9.9,1H825c-1.4,0-2.8-0.3-4.1-0.8
					c-1.3-0.6-2-1.3-2-2.1c0-0.9,0.4-1.8,1.1-2.4c0.5-0.5,1-1.2,1.3-1.8c0.3-1.1,1.6-2.3,3.8-3.6c1.5-1,3.2-1.8,5-2.1
					c1.1-0.1,2.2-0.1,3.3-0.2l3.6-0.2c1.3,0,2.3-0.1,3-0.1l6.6-0.3c2.6-4.1,5.4-8.1,8.4-11.9c0.8-1,1.7-2,2.7-2.9
					c0.5-0.2,1-0.3,1.5-0.3L862.6,15.4z"/>
				<path class="st1" d="M880.2,93.3c0.1,1.1-0.1,2.1-0.4,3.2c-2.5,5-6.5,9.1-11.4,11.8c-5.2,3-9.8,4.5-13.6,4.5
					c-3.7,0.1-7.3-1.3-10-3.9c-2.8-2.6-4.2-5.2-4.2-7.9s1.3-6.6,4-11.7c2.7-5.1,5.3-9.9,8-14.2c2.7-4.3,4-6.7,4-7.1
					s-0.5-1.1-1.5-2.2s-1.5-1.9-1.5-2.4s1-1.8,3-4c2.3-2.4,4.7-4.5,7.4-6.5c2.9-2.1,5.1-3.2,6.7-3.2c1.6,0,3.1,0.8,4.1,2
					c1,1,1.7,2.3,1.8,3.7c0,1.1-5.8,11.7-17.4,31.7c-0.2,0.3-0.5,0.9-1.2,1.9s-0.9,1.8-1.4,2.5s-0.8,1.4-1.3,2.4
					c-0.9,1.5-1.4,3.2-1.5,4.9c0,1.7,1.1,2.5,3.4,2.5c2.5-0.1,4.9-0.9,7-2.3c2.3-1.4,4.4-3.1,6.3-5.1c4.6-4.9,7.2-7.4,7.8-7.4
					C879.6,86.7,880.2,88.9,880.2,93.3z M892.1,29.3c0,2.8-1.3,5.6-3.9,8.4s-5.3,4.2-8.1,4.2c-2.8,0-4.2-1.5-4.2-4.4
					c0.1-3.2,1.4-6.2,3.7-8.4c2.5-2.7,5.2-4,8.2-4c1.2-0.1,2.3,0.3,3.2,1.1C891.7,27.1,892.2,28.2,892.1,29.3z"/>
				<path class="st1" d="M924.5,53.9c1.7,0.1,3.3,0.8,4.5,2c1.5,1.3,2.3,3.3,2.3,6s-1,6.2-2.8,10.6c-2.1,4.7-4.7,9.1-7.8,13.2
					c-3.3,4.5-7,8.7-11,12.6c-3.8,3.8-8.2,7.1-12.9,9.7c-4.6,2.5-8.8,3.8-12.6,3.8c-3.4,0.1-6.6-1.2-9-3.6c-2.3-2.4-3.4-5.7-3.4-9.9
					c0.1-4.8,1.2-9.6,3.1-14c1.9-4.9,4.6-9.5,8-13.6c3.2-3.9,6.8-7.4,10.6-10.6c8-6.4,15-9.6,21-9.6c2.7,0,4.7,0.7,6.1,2
					c0.4,0.3,0.7,0.7,0.7,1.2v0.4C922.4,54,923.5,53.9,924.5,53.9z M917.1,63.7h-0.5c-1.7,0-2.6-1.2-2.6-3.7
					c-4,1.4-7.8,3.5-11.2,6.1c-3.9,3-7.5,6.5-10.5,10.4c-6.2,8-9.4,14.8-9.5,20.3c0,2.7,1,4.1,3,4.1c2,0,5-1.3,8.9-4
					c4.5-3.1,8.4-6.9,11.8-11.3c3.3-4,6.2-8.2,8.7-12.7c1.9-3.6,2.9-6,2.9-7.3C918.2,64.3,917.8,63.7,917.1,63.7z"/>
				<path class="st1" d="M968,98.5c0,2.2,1.5,3.2,4.4,3.2c1.6,0,3.5-0.8,5.9-2.3c2.3-1.5,4.4-3.2,6.4-5.1c5.1-5,8-7.5,8.6-7.5
					c1.3,0,1.9,1.8,1.9,5.5c0,3.7-1.2,6.2-3.4,7.6c-7,6.3-12.4,10.1-16.2,11.5c-2.3,0.7-4.7,1.1-7.1,1c-2.9-0.2-5.6-1.4-7.7-3.4
					c-2.4-1.9-3.8-4.9-3.8-8c0.1-3.7,1-7.3,2.5-10.7c1.4-3.6,3.1-7,5.1-10.3c1.7-2.8,3.9-6.2,6.4-10c2.5-3.8,3.9-6.2,4-7.1l-0.2-0.1
					c-1.6,0.1-5.6,3.3-12,9.5c-6.4,6.2-11.6,11.6-15.8,16.2c-4.2,4.6-9.1,10.7-14.9,18.4c-1.6,2.1-2.9,3.1-4,3.2
					c-1.4-0.1-2.8-0.4-4.1-1c-1.1-0.4-2.2-0.9-3.2-1.4c-0.4-0.3-0.6-0.8-0.6-1.3c0-0.7,0.2-1.5,0.5-2.2c0.3-0.7,0.6-1.4,1-2.1
					c0.3-0.6,0.8-1.4,1.6-2.6s2.2-3.7,4.4-7.4s5.5-9.4,10-17s7.2-12.1,8.1-13.6c1.3-2.4,2.9-4.8,4.5-7c2.2-2.8,5.9-4.2,11.1-4.2
					c1.2,0,1.8,0.7,1.8,2.2c0,2.3-2.1,6.6-6.4,13l-3.1,4.6c8.5-9.4,15.6-15.3,21.4-17.8c2.4-1.1,5-1.7,7.7-1.8
					c2-0.1,3.9,0.6,5.4,1.8c1.2,1,2,2.5,2,4.1c-0.1,1.9-0.6,3.7-1.5,5.3c-0.9,1.9-2,3.8-3.1,5.6c-1,1.6-2.4,3.7-4.1,6.2l-2.8,4.1
					l-1.1,1.7c-0.6,1-1.1,1.6-1.4,2.1s-0.8,1.2-1.5,2.3s-1.2,2-1.7,2.8l-1.5,2.7c-0.6,1.1-1.1,2-1.5,2.8s-0.8,1.6-1.1,2.6
					C968.4,95.5,968.1,97,968,98.5z"/>
			</g>
		</g>
	</g>
</g>
</svg>
