<svg xmlns="http://www.w3.org/2000/svg" viewBox="0 0 82.6 30.2"><defs><style>.cls-1{isolation:isolate;}.cls-2{fill:#fff;}.cls-3{fill:none;stroke:#b9b9b9;}</style></defs><g id="レイヤー_2" data-name="レイヤー 2"><g id="レイヤー_1-2" data-name="レイヤー 1"><g id="Event" class="cls-1"><g class="cls-1"><path class="cls-2" d="M8.14,9.84c0,.84,1.47,1.27,4.43,1.27a4.11,4.11,0,0,0,1.62-.24,7.91,7.91,0,0,1,3.41-.66c1.35,0,2,.34,2,1a3.25,3.25,0,0,1-.34,1.2,4.36,4.36,0,0,1-.51,1,3.71,3.71,0,0,1-1.26.48,11.34,11.34,0,0,1-1.41.33l-.43,0-.26,0-.65.11a1.59,1.59,0,0,1-.74,0q-6.46,3.18-8.89,7a5.76,5.76,0,0,0-1.09,3c0,1.29.89,1.93,2.67,1.93A12.47,12.47,0,0,0,12,24.64a24.7,24.7,0,0,0,5.72-4q2.49-2.34,2.49-4.06c0-.36.27-.54.82-.54,1.26,0,1.89.75,1.89,2.24A4.85,4.85,0,0,1,22,20.82a14.25,14.25,0,0,1-2.56,2.95,26,26,0,0,1-3.65,2.78,19.7,19.7,0,0,1-4.46,2.11,13.41,13.41,0,0,1-4.15.82,9.34,9.34,0,0,1-2.74-.32,7.06,7.06,0,0,1-2-1A4.78,4.78,0,0,1,.5,24a6.63,6.63,0,0,1,.82-3.1A11.13,11.13,0,0,1,3.47,18,24.93,24.93,0,0,1,8.7,14q-4-.93-4-4.14,0-3.65,5.59-6.65A24.35,24.35,0,0,1,17,.85,15.24,15.24,0,0,1,19.88.5a12.52,12.52,0,0,1,3.53.37,3,3,0,0,1,1.17,1A2,2,0,0,1,25,3a2.68,2.68,0,0,1-.12.83,1.1,1.1,0,0,1-.39.59,3.18,3.18,0,0,1-.88.45L23.08,5a7,7,0,0,1-2.62.65q-2,0-2.13-.51A2.86,2.86,0,0,1,18.76,4a13.72,13.72,0,0,0-3.85.75,16.92,16.92,0,0,0-3.44,1.58A12.47,12.47,0,0,0,9.07,8.2,2.68,2.68,0,0,0,8.14,9.84Z"/><path class="cls-2" d="M38.43,13.9a9,9,0,0,1-1.5,3.93,33.13,33.13,0,0,1-3.86,5.25,32.44,32.44,0,0,1-5,4.6Q25.44,29.62,24,29.62A2.16,2.16,0,0,1,22.49,29a2.4,2.4,0,0,1-.66-1.87,11.53,11.53,0,0,1,1.21-4,38.11,38.11,0,0,1,2.38-4.65,4,4,0,0,1-1.26.76c-.15,0-.34-.17-.56-.51a1.63,1.63,0,0,1-.35-.79.76.76,0,0,1,.1-.42q3.86-4.28,5.43-4.28a1.64,1.64,0,0,1,1.11.39,1.23,1.23,0,0,1,.45.94A12,12,0,0,1,29,17.73q-1.34,2.6-2.66,5.24A11.34,11.34,0,0,0,25,26.3a.11.11,0,0,0,.12.12c.34,0,1.25-.68,2.74-2a33.47,33.47,0,0,0,3.63-3.76A32.48,32.48,0,0,0,34,17.14a6.6,6.6,0,0,0,1-2.3,1.68,1.68,0,0,0-.22-.91,1.45,1.45,0,0,1-.23-.78,1.37,1.37,0,0,1,.58-.94,2.08,2.08,0,0,1,1.47-.52C37.82,11.69,38.43,12.43,38.43,13.9Z"/><path class="cls-2" d="M50.13,14.33a3,3,0,0,1-1.05,2.26,3.32,3.32,0,0,1-2.37,1,.67.67,0,0,1-.57-.2,1,1,0,0,1-.13-.54,2.36,2.36,0,0,1,.08-.65,9.24,9.24,0,0,0-1.57.73,19.15,19.15,0,0,0-2.11,1.44c-.83.64-1.25,1.11-1.25,1.43,0,.1.16.15.46.15A4.82,4.82,0,0,0,43,19.61a5.2,5.2,0,0,1,1.34-.32,1.82,1.82,0,0,1,.5,0,1.76,1.76,0,0,1,.54.59,1.47,1.47,0,0,1,.29.73c0,.17-.17.4-.5.69a3.58,3.58,0,0,1-1.16.65,5.82,5.82,0,0,0-.85.35c-2.75,1.53-4.13,2.59-4.13,3.16,0,1,.87,1.52,2.6,1.52A6.26,6.26,0,0,0,45,26a26.22,26.22,0,0,0,2.57-1.83c.76-.62,1.24-1,1.45-1.14a.94.94,0,0,1,.45-.21c.34,0,.51.37.51,1.13a5.24,5.24,0,0,1-.13,1.49,2.65,2.65,0,0,1-.79.89q-4.17,3.4-7.91,3.4A7.63,7.63,0,0,1,38,29.15a3.23,3.23,0,0,1-2.19-3c0-1.8,1.25-3.16,3.73-4.09a1.69,1.69,0,0,1-1-.85,4.45,4.45,0,0,1-.22-1.66,3.88,3.88,0,0,1,1.07-2.42A8.65,8.65,0,0,1,42,15a13.18,13.18,0,0,1,6.14-1.85,3,3,0,0,1,1.3.31A1,1,0,0,1,50.13,14.33Z"/><path class="cls-2" d="M59.58,25.93c0,.57.39.86,1.17.86a3.11,3.11,0,0,0,1.58-.63A11.61,11.61,0,0,0,64,24.8a10.64,10.64,0,0,1,2.3-2c.34,0,.51.48.51,1.46a2.14,2.14,0,0,1-.92,2,15.55,15.55,0,0,1-4.32,3.07,5.69,5.69,0,0,1-1.89.27,3.19,3.19,0,0,1-2-.9,2.72,2.72,0,0,1-1-2.14,7.48,7.48,0,0,1,.67-2.86A20.6,20.6,0,0,1,58.67,21c.47-.76,1-1.65,1.71-2.66a7.91,7.91,0,0,0,1.08-1.88l0,0c-.43,0-1.5.88-3.2,2.54S55.12,22,54,23.23s-2.43,2.86-4,4.91q-.64.84-1,.84a3.25,3.25,0,0,1-1.11-.27,4.38,4.38,0,0,1-.85-.38.41.41,0,0,1-.15-.35A1.62,1.62,0,0,1,47,27.4a6,6,0,0,1,.27-.56c.08-.15.22-.38.42-.7s.58-1,1.16-2,1.47-2.51,2.67-4.52,1.91-3.22,2.14-3.63a17.14,17.14,0,0,1,1.21-1.88,3.58,3.58,0,0,1,3-1.11c.32,0,.47.19.47.59,0,.61-.56,1.76-1.7,3.45l-.82,1.23c2.25-2.5,4.16-4.08,5.71-4.74a5.12,5.12,0,0,1,2-.49,2,2,0,0,1,1.44.49,1.42,1.42,0,0,1,.54,1.08,3.42,3.42,0,0,1-.41,1.43,15.34,15.34,0,0,1-.83,1.48c-.28.44-.65,1-1.1,1.65l-.75,1.09s-.14.21-.3.46-.28.44-.36.56-.21.32-.39.62-.33.53-.44.73l-.41.72c-.16.29-.29.54-.39.74s-.2.44-.3.69A3,3,0,0,0,59.58,25.93Z"/><path class="cls-2" d="M78.45,3.78l.8.2a.4.4,0,0,1,.31.17.58.58,0,0,1,.14.33,2.78,2.78,0,0,1-.41.84c-.27.46-.6,1-1,1.56s-.57.89-.59.94c1-.07,1.73-.11,2.15-.11a3.2,3.2,0,0,1,.87.08,1.44,1.44,0,0,1,.54.49,3.45,3.45,0,0,0,.56.61.74.74,0,0,1,.25.61.8.8,0,0,1-.5.7,2.64,2.64,0,0,1-1.06.34c-3,.3-4.69.46-5,.47Q74,13.43,71.12,18.56T68.1,25a6.35,6.35,0,0,0-.08,1c0,.51.27.76.8.76a3.42,3.42,0,0,0,1.78-.61,13.68,13.68,0,0,0,1.79-1.34,17.77,17.77,0,0,1,2.35-1.95c.34,0,.51.58.51,1.75a2.26,2.26,0,0,1-.88,1.72,30.91,30.91,0,0,1-3.32,2.56,5,5,0,0,1-2.7.86,2.44,2.44,0,0,1-.55-.06,3.86,3.86,0,0,1-2.29-1.14,3.34,3.34,0,0,1-.72-2.3,9.47,9.47,0,0,1,.86-3.5,40.69,40.69,0,0,1,2.14-4.39c1.4-2.52,2.81-4.89,4.21-7.11l-.74.1c-1.51.17-2.39.26-2.64.26h-.17a2.73,2.73,0,0,1-1.09-.23c-.36-.15-.53-.33-.53-.56a.94.94,0,0,1,.28-.64,1.6,1.6,0,0,0,.34-.49c.09-.29.44-.6,1-1a3.47,3.47,0,0,1,1.34-.55l.87,0,.93,0,.79,0,1.76-.08c1.1-1.64,1.85-2.69,2.26-3.16A9,9,0,0,1,77.14,4a.73.73,0,0,1,.39-.07Z"/></g><g class="cls-1"><path class="cls-3" d="M8.14,9.84c0,.84,1.47,1.27,4.43,1.27a4.11,4.11,0,0,0,1.62-.24,7.91,7.91,0,0,1,3.41-.66c1.35,0,2,.34,2,1a3.25,3.25,0,0,1-.34,1.2,4.36,4.36,0,0,1-.51,1,3.71,3.71,0,0,1-1.26.48,11.34,11.34,0,0,1-1.41.33l-.43,0-.26,0-.65.11a1.59,1.59,0,0,1-.74,0q-6.46,3.18-8.89,7a5.76,5.76,0,0,0-1.09,3c0,1.29.89,1.93,2.67,1.93A12.47,12.47,0,0,0,12,24.64a24.7,24.7,0,0,0,5.72-4q2.49-2.34,2.49-4.06c0-.36.27-.54.82-.54,1.26,0,1.89.75,1.89,2.24A4.85,4.85,0,0,1,22,20.82a14.25,14.25,0,0,1-2.56,2.95,26,26,0,0,1-3.65,2.78,19.7,19.7,0,0,1-4.46,2.11,13.41,13.41,0,0,1-4.15.82,9.34,9.34,0,0,1-2.74-.32,7.06,7.06,0,0,1-2-1A4.78,4.78,0,0,1,.5,24a6.63,6.63,0,0,1,.82-3.1A11.13,11.13,0,0,1,3.47,18,24.93,24.93,0,0,1,8.7,14q-4-.93-4-4.14,0-3.65,5.59-6.65A24.35,24.35,0,0,1,17,.85,15.24,15.24,0,0,1,19.88.5a12.52,12.52,0,0,1,3.53.37,3,3,0,0,1,1.17,1A2,2,0,0,1,25,3a2.68,2.68,0,0,1-.12.83,1.1,1.1,0,0,1-.39.59,3.18,3.18,0,0,1-.88.45L23.08,5a7,7,0,0,1-2.62.65q-2,0-2.13-.51A2.86,2.86,0,0,1,18.76,4a13.72,13.72,0,0,0-3.85.75,16.92,16.92,0,0,0-3.44,1.58A12.47,12.47,0,0,0,9.07,8.2,2.68,2.68,0,0,0,8.14,9.84Z"/><path class="cls-3" d="M38.43,13.9a9,9,0,0,1-1.5,3.93,33.13,33.13,0,0,1-3.86,5.25,32.44,32.44,0,0,1-5,4.6Q25.44,29.62,24,29.62A2.16,2.16,0,0,1,22.49,29a2.4,2.4,0,0,1-.66-1.87,11.53,11.53,0,0,1,1.21-4,38.11,38.11,0,0,1,2.38-4.65,4,4,0,0,1-1.26.76c-.15,0-.34-.17-.56-.51a1.63,1.63,0,0,1-.35-.79.76.76,0,0,1,.1-.42q3.86-4.28,5.43-4.28a1.64,1.64,0,0,1,1.11.39,1.23,1.23,0,0,1,.45.94A12,12,0,0,1,29,17.73q-1.34,2.6-2.66,5.24A11.34,11.34,0,0,0,25,26.3a.11.11,0,0,0,.12.12c.34,0,1.25-.68,2.74-2a33.47,33.47,0,0,0,3.63-3.76A32.48,32.48,0,0,0,34,17.14a6.6,6.6,0,0,0,1-2.3,1.68,1.68,0,0,0-.22-.91,1.45,1.45,0,0,1-.23-.78,1.37,1.37,0,0,1,.58-.94,2.08,2.08,0,0,1,1.47-.52C37.82,11.69,38.43,12.43,38.43,13.9Z"/><path class="cls-3" d="M50.13,14.33a3,3,0,0,1-1.05,2.26,3.32,3.32,0,0,1-2.37,1,.67.67,0,0,1-.57-.2,1,1,0,0,1-.13-.54,2.36,2.36,0,0,1,.08-.65,9.24,9.24,0,0,0-1.57.73,19.15,19.15,0,0,0-2.11,1.44c-.83.64-1.25,1.11-1.25,1.43,0,.1.16.15.46.15A4.82,4.82,0,0,0,43,19.61a5.2,5.2,0,0,1,1.34-.32,1.82,1.82,0,0,1,.5,0,1.76,1.76,0,0,1,.54.59,1.47,1.47,0,0,1,.29.73c0,.17-.17.4-.5.69a3.58,3.58,0,0,1-1.16.65,5.82,5.82,0,0,0-.85.35c-2.75,1.53-4.13,2.59-4.13,3.16,0,1,.87,1.52,2.6,1.52A6.26,6.26,0,0,0,45,26a26.22,26.22,0,0,0,2.57-1.83c.76-.62,1.24-1,1.45-1.14a.94.94,0,0,1,.45-.21c.34,0,.51.37.51,1.13a5.24,5.24,0,0,1-.13,1.49,2.65,2.65,0,0,1-.79.89q-4.17,3.4-7.91,3.4A7.63,7.63,0,0,1,38,29.15a3.23,3.23,0,0,1-2.19-3c0-1.8,1.25-3.16,3.73-4.09a1.69,1.69,0,0,1-1-.85,4.45,4.45,0,0,1-.22-1.66,3.88,3.88,0,0,1,1.07-2.42A8.65,8.65,0,0,1,42,15a13.18,13.18,0,0,1,6.14-1.85,3,3,0,0,1,1.3.31A1,1,0,0,1,50.13,14.33Z"/><path class="cls-3" d="M59.58,25.93c0,.57.39.86,1.17.86a3.11,3.11,0,0,0,1.58-.63A11.61,11.61,0,0,0,64,24.8a10.64,10.64,0,0,1,2.3-2c.34,0,.51.48.51,1.46a2.14,2.14,0,0,1-.92,2,15.55,15.55,0,0,1-4.32,3.07,5.69,5.69,0,0,1-1.89.27,3.19,3.19,0,0,1-2-.9,2.72,2.72,0,0,1-1-2.14,7.48,7.48,0,0,1,.67-2.86A20.6,20.6,0,0,1,58.67,21c.47-.76,1-1.65,1.71-2.66a7.91,7.91,0,0,0,1.08-1.88l0,0c-.43,0-1.5.88-3.2,2.54S55.12,22,54,23.23s-2.43,2.86-4,4.91q-.64.84-1,.84a3.25,3.25,0,0,1-1.11-.27,4.38,4.38,0,0,1-.85-.38.41.41,0,0,1-.15-.35A1.62,1.62,0,0,1,47,27.4a6,6,0,0,1,.27-.56c.08-.15.22-.38.42-.7s.58-1,1.16-2,1.47-2.51,2.67-4.52,1.91-3.22,2.14-3.63a17.14,17.14,0,0,1,1.21-1.88,3.58,3.58,0,0,1,3-1.11c.32,0,.47.19.47.59,0,.61-.56,1.76-1.7,3.45l-.82,1.23c2.25-2.5,4.16-4.08,5.71-4.74a5.12,5.12,0,0,1,2-.49,2,2,0,0,1,1.44.49,1.42,1.42,0,0,1,.54,1.08,3.42,3.42,0,0,1-.41,1.43,15.34,15.34,0,0,1-.83,1.48c-.28.44-.65,1-1.1,1.65l-.75,1.09s-.14.21-.3.46-.28.44-.36.56-.21.32-.39.62-.33.53-.44.73l-.41.72c-.16.29-.29.54-.39.74s-.2.44-.3.69A3,3,0,0,0,59.58,25.93Z"/><path class="cls-3" d="M78.45,3.78l.8.2a.4.4,0,0,1,.31.17.58.58,0,0,1,.14.33,2.78,2.78,0,0,1-.41.84c-.27.46-.6,1-1,1.56s-.57.89-.59.94c1-.07,1.73-.11,2.15-.11a3.2,3.2,0,0,1,.87.08,1.44,1.44,0,0,1,.54.49,3.45,3.45,0,0,0,.56.61.74.74,0,0,1,.25.61.8.8,0,0,1-.5.7,2.64,2.64,0,0,1-1.06.34c-3,.3-4.69.46-5,.47Q74,13.43,71.12,18.56T68.1,25a6.35,6.35,0,0,0-.08,1c0,.51.27.76.8.76a3.42,3.42,0,0,0,1.78-.61,13.68,13.68,0,0,0,1.79-1.34,17.77,17.77,0,0,1,2.35-1.95c.34,0,.51.58.51,1.75a2.26,2.26,0,0,1-.88,1.72,30.91,30.91,0,0,1-3.32,2.56,5,5,0,0,1-2.7.86,2.44,2.44,0,0,1-.55-.06,3.86,3.86,0,0,1-2.29-1.14,3.34,3.34,0,0,1-.72-2.3,9.47,9.47,0,0,1,.86-3.5,40.69,40.69,0,0,1,2.14-4.39c1.4-2.52,2.81-4.89,4.21-7.11l-.74.1c-1.51.17-2.39.26-2.64.26h-.17a2.73,2.73,0,0,1-1.09-.23c-.36-.15-.53-.33-.53-.56a.94.94,0,0,1,.28-.64,1.6,1.6,0,0,0,.34-.49c.09-.29.44-.6,1-1a3.47,3.47,0,0,1,1.34-.55l.87,0,.93,0,.79,0,1.76-.08c1.1-1.64,1.85-2.69,2.26-3.16A9,9,0,0,1,77.14,4a.73.73,0,0,1,.39-.07Z"/></g></g></g></g></svg>