<?xml version="1.0" encoding="utf-8"?>
<!-- Generator: Adobe Illustrator 24.3.0, SVG Export Plug-In . SVG Version: 6.00 Build 0)  -->
<svg version="1.1" xmlns="http://www.w3.org/2000/svg" xmlns:xlink="http://www.w3.org/1999/xlink" x="0px" y="0px"
	 viewBox="0 0 205 74" style="enable-background:new 0 0 205 74;" xml:space="preserve">
<style type="text/css">
	.st0{fill:#FFFFFF;}
	.st1{fill:none;stroke:#B9B9B9;}
</style>
<g id="レイヤー_2">
	<g id="レイヤー_2_2_">
		<g id="レイヤー_1-2_1_">
			<g id="Event_1_">
				<g>
					<path class="st0" d="M19.6,23.8c0,2.1,3.7,3.2,11.1,3.2c1.4,0.1,2.7-0.1,4-0.6c2.7-1.2,5.6-1.8,8.5-1.7c3.4,0,5,0.9,5,2.6
						c-0.1,1-0.4,2.1-0.8,3c-0.3,0.9-0.7,1.7-1.3,2.4c-0.9,0.6-2,1-3.1,1.2c-1.2,0.4-2.3,0.6-3.5,0.8c-0.5,0-0.9,0.1-1.1,0.1
						S38,35,37.8,35.1s-0.8,0.1-1.6,0.3c-0.6,0.2-1.2,0.2-1.8,0c-10.8,5.3-18.2,11.1-22.2,17.4c-1.8,2.8-2.7,5.3-2.7,7.4
						c0,3.3,2.2,4.9,6.7,4.9c3.5,0,7.9-1.4,13.3-4.1c5.2-2.6,10-6,14.3-9.9C47.9,47.2,50,43.8,50,41c0-0.9,0.7-1.4,2-1.4
						c3.2,0,4.7,1.9,4.7,5.6c-0.2,2.3-1,4.4-2.3,6.3c-1.8,2.7-3.9,5.2-6.4,7.4c-2.8,2.6-5.9,4.9-9.1,7c-3.5,2.2-7.2,4-11.2,5.3
						c-3.3,1.2-6.8,1.9-10.4,2c-2.3,0.1-4.6-0.2-6.9-0.8C8.6,71.9,7,71,5.5,70c-3.3-2.3-5-5.8-5-10.5c0.1-2.7,0.8-5.4,2.2-7.8
						c1.4-2.7,3.2-5.1,5.4-7.2c3.9-3.9,8.3-7.3,13.1-10.1c-6.7-1.5-10-5-10-10.3c0-6.1,4.7-11.6,14-16.6c5.3-2.8,11-4.8,16.8-6
						c2.3-0.5,4.7-0.8,7.1-0.8c3-0.1,6,0.2,8.8,0.9c1,0.4,2.1,1.2,2.8,2.3c0.6,0.8,1,1.7,1.1,2.7c0,0.7-0.1,1.4-0.3,2.1
						c-0.2,0.6-0.5,1.1-1,1.5c-0.7,0.5-1.4,0.9-2.2,1.1c-0.5,0.1-0.9,0.3-1.4,0.5c-2.1,1-4.3,1.5-6.5,1.6c-3.2,0-5-0.4-5.3-1.3
						c0.1-1,0.5-2,1.1-2.9c-3.3,0.2-6.5,0.8-9.6,1.9c-3,1-5.9,2.3-8.6,4c-2.2,1.3-4.2,2.9-6,4.7C20.4,21.4,19.6,22.7,19.6,23.8z"/>
					<path class="st0" d="M95.3,34c0,2.2-1.3,5.5-3.8,9.8c-2.8,4.7-6,9.1-9.6,13.2c-3.7,4.2-7.9,8.1-12.5,11.4
						c-4.4,3.2-7.8,4.9-10.3,4.9c-1.4,0-2.7-0.5-3.7-1.5c-1.1-1-1.7-2.5-1.7-4.7s1-5.5,3-10.1c1.7-4,3.7-7.9,6-11.6
						c-1.7,1.3-2.8,1.9-3.1,1.9s-0.8-0.4-1.4-1.3c-0.5-0.6-0.8-1.3-0.9-2c0-0.4,0.1-0.7,0.2-1c6.4-7.1,10.9-10.7,13.6-10.7
						c1,0,2,0.3,2.8,1c0.7,0.6,1.1,1.4,1.1,2.3c0,0.9-1.1,3.5-3.3,7.9s-4.4,8.7-6.6,13.1c-2.2,4.4-3.3,7.2-3.3,8.3
						c0,0.1,0.1,0.3,0.2,0.3h0.1c0.8,0,3.1-1.7,6.9-5c3.3-2.9,6.3-6,9-9.4c2.2-2.8,4.3-5.7,6.1-8.7c1.7-2.9,2.6-4.9,2.6-5.8
						c0-0.8-0.2-1.6-0.6-2.3c-0.4-0.6-0.6-1.3-0.6-2c0.1-0.9,0.7-1.8,1.4-2.3c1-0.9,2.3-1.3,3.7-1.3C93.8,28.5,95.3,30.3,95.3,34z"
						/>
					<path class="st0" d="M124.6,35.1c0,2.2-0.9,4.2-2.6,5.7c-1.6,1.6-3.8,2.5-6,2.5c-0.5,0.1-1.1-0.1-1.4-0.5
						c-0.2-0.4-0.4-0.9-0.3-1.3c0-0.5,0.1-1.1,0.2-1.6c-1.4,0.5-2.7,1.1-3.9,1.8c-1.8,1.1-3.6,2.3-5.3,3.6c-2.1,1.6-3.1,2.8-3.1,3.6
						c0,0.3,0.4,0.4,1.2,0.4c1.2-0.1,2.4-0.4,3.5-0.8c1.1-0.4,2.2-0.7,3.3-0.8c0.4,0,0.8,0,1.2,0.1c0.6,0.4,1,0.9,1.4,1.5
						c0.4,0.5,0.7,1.2,0.7,1.8c0,0.4-0.4,1-1.3,1.7s-1.8,1.3-2.9,1.6c-0.7,0.2-1.5,0.5-2.2,0.8c-6.8,3.8-10.3,6.5-10.3,7.9
						c0,2.5,2.2,3.8,6.5,3.8c3-0.1,5.9-1,8.3-2.6c2.2-1.4,4.4-2.9,6.4-4.6c1.9-1.5,3.1-2.5,3.6-2.9c0.3-0.3,0.7-0.5,1.2-0.5
						c0.8,0,1.3,1,1.3,2.8c0.1,1.3,0,2.5-0.3,3.7c-0.5,0.9-1.2,1.6-2,2.2c-7,5.7-13.6,8.5-19.8,8.5c-2.7,0.1-5.5-0.4-8-1.4
						c-3.6-1.7-5.5-4.2-5.5-7.6c0-4.5,3.1-7.9,9.3-10.2c-1-0.4-1.9-1.1-2.4-2.1c-0.4-1.4-0.6-2.8-0.5-4.2c0-1.9,0.9-3.9,2.7-6
						c1.8-2.2,4-3.9,6.5-5.2c5.7-3.1,10.8-4.6,15.3-4.6c1.1,0,2.3,0.3,3.3,0.8C123.9,33.2,124.5,34.1,124.6,35.1z"/>
					<path class="st0" d="M148.2,64.1c0,1.4,1,2.2,2.9,2.2c1.4-0.1,2.8-0.7,3.9-1.6c1.5-1,3-2.1,4.3-3.4c3.4-3.3,5.3-5,5.8-5
						c0.9,0,1.3,1.2,1.3,3.7s-0.8,4.1-2.3,5c-4.7,4.2-8.3,6.8-10.8,7.7c-1.5,0.5-3.1,0.7-4.7,0.7c-1.9-0.1-3.7-0.9-5.1-2.3
						c-1.6-1.3-2.5-3.3-2.5-5.3c0.1-2.5,0.6-4.9,1.7-7.2c1-2.4,2.1-4.7,3.4-6.9c1.2-1.9,2.6-4.1,4.3-6.6s2.6-4.1,2.7-4.7l-0.1-0.1
						c-1.1,0.1-3.7,2.2-8,6.3s-7.8,7.7-10.5,10.8c-2.8,3.1-6.1,7.1-9.9,12.3c-1.1,1.4-2,2.1-2.6,2.1c-0.9-0.1-1.9-0.3-2.7-0.7
						c-0.7-0.3-1.4-0.6-2.1-1c-0.3-0.2-0.4-0.5-0.4-0.9c0-0.5,0.1-1,0.3-1.4c0.2-0.5,0.4-1,0.7-1.4c0.2-0.4,0.6-1,1-1.7
						s1.4-2.4,2.9-5s3.7-6.3,6.7-11.3c3-5,4.8-8,5.4-9.1c0.9-1.6,1.9-3.2,3-4.7c1.5-1.9,3.9-2.8,7.4-2.8c0.8,0,1.2,0.5,1.2,1.5
						c0,1.5-1.4,4.4-4.2,8.6l-2,3.2c5.6-6.3,10.4-10.2,14.2-11.9c1.6-0.7,3.3-1.2,5.1-1.2c1.3-0.1,2.6,0.4,3.6,1.2
						c0.8,0.7,1.3,1.7,1.4,2.7c-0.1,1.2-0.4,2.5-1,3.6c-0.6,1.3-1.3,2.5-2.1,3.7c-0.7,1.1-1.6,2.5-2.8,4.1l-1.9,2.7l-0.8,1.2
						c-0.4,0.6-0.7,1.1-0.9,1.4s-0.5,0.8-1,1.5s-0.8,1.3-1.1,1.8l-1,1.8c-0.4,0.7-0.7,1.3-1,1.8s-0.5,1.1-0.8,1.7
						C148.5,62.1,148.3,63.1,148.2,64.1z"/>
					<path class="st0" d="M195.4,8.7l2,0.5c0.3,0,0.6,0.2,0.8,0.4s0.3,0.5,0.3,0.8c-0.2,0.8-0.6,1.5-1,2.1c-0.7,1.1-1.5,2.4-2.4,3.9
						s-1.4,2.2-1.5,2.4c2.5-0.2,4.3-0.3,5.4-0.3c0.7,0,1.5,0,2.2,0.2c0.5,0.3,1,0.7,1.3,1.3c0.4,0.6,0.9,1.1,1.4,1.5
						c0.4,0.4,0.7,0.9,0.6,1.5c0,0.8-0.5,1.4-1.2,1.7c-0.8,0.5-1.7,0.8-2.7,0.9c-7.6,0.8-11.7,1.1-12.5,1.2
						c-2.7,4-6.4,10.3-11.1,18.9s-7.2,13.9-7.6,16c-0.1,0.8-0.2,1.6-0.2,2.4c0,1.3,0.7,1.9,2,1.9c1.6-0.1,3.1-0.6,4.4-1.5
						c1.6-1,3.1-2.1,4.5-3.3c3.6-3.3,5.6-4.9,5.9-4.9c0.8,0,1.3,1.5,1.3,4.4c-0.1,1.7-0.9,3.3-2.2,4.3c-2.6,2.3-5.4,4.5-8.3,6.4
						c-2,1.4-4.3,2.1-6.7,2.2c-0.5,0-0.9,0-1.4-0.2c-2.2-0.3-4.2-1.2-5.8-2.8c-1.3-1.6-1.9-3.7-1.8-5.7c0.2-3,0.9-6,2.1-8.8
						c1.6-3.8,3.3-7.4,5.3-11c3.5-6.3,7-12.2,10.6-17.8l-1.9,0.2c-3.8,0.4-6,0.6-6.6,0.6h-0.4c-0.9,0-1.9-0.2-2.7-0.6
						c-0.9-0.4-1.3-0.8-1.3-1.4s0.3-1.2,0.7-1.6c0.4-0.3,0.6-0.8,0.9-1.2c0.2-0.7,1.1-1.5,2.6-2.4c1-0.7,2.1-1.2,3.3-1.4l2.2-0.1
						c0.7,0,1.5-0.1,2.4-0.1s1.5-0.1,2-0.1l4.4-0.2c1.7-2.7,3.6-5.4,5.6-7.9c0.6-0.7,1.1-1.3,1.8-1.9c0.3-0.2,0.7-0.2,1-0.2
						L195.4,8.7z"/>
				</g>
			</g>
		</g>
	</g>
</g>
<g id="レイヤー_1">
	<g id="レイヤー_2_1_">
		<g id="レイヤー_1-2">
			<g id="Event">
				<g>
					<path class="st1" d="M19.6,23.8c0,2.1,3.7,3.2,11.1,3.2c1.4,0.1,2.7-0.1,4-0.6c2.7-1.2,5.6-1.8,8.5-1.7c3.4,0,5,0.9,5,2.6
						c-0.1,1-0.4,2.1-0.8,3c-0.3,0.9-0.7,1.7-1.3,2.4c-0.9,0.6-2,1-3.1,1.2c-1.2,0.4-2.3,0.6-3.5,0.8c-0.5,0-0.9,0.1-1.1,0.1
						S38,35,37.8,35.1s-0.8,0.1-1.6,0.3c-0.6,0.2-1.2,0.2-1.8,0c-10.8,5.3-18.2,11.1-22.2,17.4c-1.8,2.8-2.7,5.3-2.7,7.4
						c0,3.3,2.2,4.9,6.7,4.9c3.5,0,7.9-1.4,13.3-4.1c5.2-2.6,10-6,14.3-9.9C47.9,47.2,50,43.8,50,41c0-0.9,0.7-1.4,2-1.4
						c3.2,0,4.7,1.9,4.7,5.6c-0.2,2.3-1,4.4-2.3,6.3c-1.8,2.7-3.9,5.2-6.4,7.4c-2.8,2.6-5.9,4.9-9.1,7c-3.5,2.2-7.2,4-11.2,5.3
						c-3.3,1.2-6.8,1.9-10.4,2c-2.3,0.1-4.6-0.2-6.9-0.8C8.6,71.9,7,71,5.5,70c-3.3-2.3-5-5.8-5-10.5c0.1-2.7,0.8-5.4,2.2-7.8
						c1.4-2.7,3.2-5.1,5.4-7.2c3.9-3.9,8.3-7.3,13.1-10.1c-6.7-1.5-10-5-10-10.3c0-6.1,4.7-11.6,14-16.6c5.3-2.8,11-4.8,16.8-6
						c2.3-0.5,4.7-0.8,7.1-0.8c3-0.1,6,0.2,8.8,0.9c1,0.4,2.1,1.2,2.8,2.3c0.6,0.8,1,1.7,1.1,2.7c0,0.7-0.1,1.4-0.3,2.1
						c-0.2,0.6-0.5,1.1-1,1.5c-0.7,0.5-1.4,0.9-2.2,1.1c-0.5,0.1-0.9,0.3-1.4,0.5c-2.1,1-4.3,1.5-6.5,1.6c-3.2,0-5-0.4-5.3-1.3
						c0.1-1,0.5-2,1.1-2.9c-3.3,0.2-6.5,0.8-9.6,1.9c-3,1-5.9,2.3-8.6,4c-2.2,1.3-4.2,2.9-6,4.7C20.4,21.4,19.6,22.7,19.6,23.8z"/>
					<path class="st1" d="M95.3,34c0,2.2-1.3,5.5-3.8,9.8c-2.8,4.7-6,9.1-9.6,13.2c-3.7,4.2-7.9,8.1-12.5,11.4
						c-4.4,3.2-7.8,4.9-10.3,4.9c-1.4,0-2.7-0.5-3.7-1.5c-1.1-1-1.7-2.5-1.7-4.7s1-5.5,3-10.1c1.7-4,3.7-7.9,6-11.6
						c-1.7,1.3-2.8,1.9-3.1,1.9s-0.8-0.4-1.4-1.3c-0.5-0.6-0.8-1.3-0.9-2c0-0.4,0.1-0.7,0.2-1c6.4-7.1,10.9-10.7,13.6-10.7
						c1,0,2,0.3,2.8,1c0.7,0.6,1.1,1.4,1.1,2.3c0,0.9-1.1,3.5-3.3,7.9s-4.4,8.7-6.6,13.1c-2.2,4.4-3.3,7.2-3.3,8.3
						c0,0.1,0.1,0.3,0.2,0.3h0.1c0.8,0,3.1-1.7,6.9-5c3.3-2.9,6.3-6,9-9.4c2.2-2.8,4.3-5.7,6.1-8.7c1.7-2.9,2.6-4.9,2.6-5.8
						c0-0.8-0.2-1.6-0.6-2.3c-0.4-0.6-0.6-1.3-0.6-2c0.1-0.9,0.7-1.8,1.4-2.3c1-0.9,2.3-1.3,3.7-1.3C93.8,28.5,95.3,30.3,95.3,34z"
						/>
					<path class="st1" d="M124.6,35.1c0,2.2-0.9,4.2-2.6,5.7c-1.6,1.6-3.8,2.5-6,2.5c-0.5,0.1-1.1-0.1-1.4-0.5
						c-0.2-0.4-0.4-0.9-0.3-1.3c0-0.5,0.1-1.1,0.2-1.6c-1.4,0.5-2.7,1.1-3.9,1.8c-1.8,1.1-3.6,2.3-5.3,3.6c-2.1,1.6-3.1,2.8-3.1,3.6
						c0,0.3,0.4,0.4,1.2,0.4c1.2-0.1,2.4-0.4,3.5-0.8c1.1-0.4,2.2-0.7,3.3-0.8c0.4,0,0.8,0,1.2,0.1c0.6,0.4,1,0.9,1.4,1.5
						c0.4,0.5,0.7,1.2,0.7,1.8c0,0.4-0.4,1-1.3,1.7s-1.8,1.3-2.9,1.6c-0.7,0.2-1.5,0.5-2.2,0.8c-6.8,3.8-10.3,6.5-10.3,7.9
						c0,2.5,2.2,3.8,6.5,3.8c3-0.1,5.9-1,8.3-2.6c2.2-1.4,4.4-2.9,6.4-4.6c1.9-1.5,3.1-2.5,3.6-2.9c0.3-0.3,0.7-0.5,1.2-0.5
						c0.8,0,1.3,1,1.3,2.8c0.1,1.3,0,2.5-0.3,3.7c-0.5,0.9-1.2,1.6-2,2.2c-7,5.7-13.6,8.5-19.8,8.5c-2.7,0.1-5.5-0.4-8-1.4
						c-3.6-1.7-5.5-4.2-5.5-7.6c0-4.5,3.1-7.9,9.3-10.2c-1-0.4-1.9-1.1-2.4-2.1c-0.4-1.4-0.6-2.8-0.5-4.2c0-1.9,0.9-3.9,2.7-6
						c1.8-2.2,4-3.9,6.5-5.2c5.7-3.1,10.8-4.6,15.3-4.6c1.1,0,2.3,0.3,3.3,0.8C123.9,33.2,124.5,34.1,124.6,35.1z"/>
					<path class="st1" d="M148.2,64.1c0,1.4,1,2.2,2.9,2.2c1.4-0.1,2.8-0.7,3.9-1.6c1.5-1,3-2.1,4.3-3.4c3.4-3.3,5.3-5,5.8-5
						c0.9,0,1.3,1.2,1.3,3.7s-0.8,4.1-2.3,5c-4.7,4.2-8.3,6.8-10.8,7.7c-1.5,0.5-3.1,0.7-4.7,0.7c-1.9-0.1-3.7-0.9-5.1-2.3
						c-1.6-1.3-2.5-3.3-2.5-5.3c0.1-2.5,0.6-4.9,1.7-7.2c1-2.4,2.1-4.7,3.4-6.9c1.2-1.9,2.6-4.1,4.3-6.6s2.6-4.1,2.7-4.7l-0.1-0.1
						c-1.1,0.1-3.7,2.2-8,6.3s-7.8,7.7-10.5,10.8c-2.8,3.1-6.1,7.1-9.9,12.3c-1.1,1.4-2,2.1-2.6,2.1c-0.9-0.1-1.9-0.3-2.7-0.7
						c-0.7-0.3-1.4-0.6-2.1-1c-0.3-0.2-0.4-0.5-0.4-0.9c0-0.5,0.1-1,0.3-1.4c0.2-0.5,0.4-1,0.7-1.4c0.2-0.4,0.6-1,1-1.7
						s1.4-2.4,2.9-5s3.7-6.3,6.7-11.3c3-5,4.8-8,5.4-9.1c0.9-1.6,1.9-3.2,3-4.7c1.5-1.9,3.9-2.8,7.4-2.8c0.8,0,1.2,0.5,1.2,1.5
						c0,1.5-1.4,4.4-4.2,8.6l-2,3.2c5.6-6.3,10.4-10.2,14.2-11.9c1.6-0.7,3.3-1.2,5.1-1.2c1.3-0.1,2.6,0.4,3.6,1.2
						c0.8,0.7,1.3,1.7,1.4,2.7c-0.1,1.2-0.4,2.5-1,3.6c-0.6,1.3-1.3,2.5-2.1,3.7c-0.7,1.1-1.6,2.5-2.8,4.1l-1.9,2.7l-0.8,1.2
						c-0.4,0.6-0.7,1.1-0.9,1.4s-0.5,0.8-1,1.5s-0.8,1.3-1.1,1.8l-1,1.8c-0.4,0.7-0.7,1.3-1,1.8s-0.5,1.1-0.8,1.7
						C148.5,62.1,148.3,63.1,148.2,64.1z"/>
					<path class="st1" d="M195.4,8.7l2,0.5c0.3,0,0.6,0.2,0.8,0.4s0.3,0.5,0.3,0.8c-0.2,0.8-0.6,1.5-1,2.1c-0.7,1.1-1.5,2.4-2.4,3.9
						s-1.4,2.2-1.5,2.4c2.5-0.2,4.3-0.3,5.4-0.3c0.7,0,1.5,0,2.2,0.2c0.5,0.3,1,0.7,1.3,1.3c0.4,0.6,0.9,1.1,1.4,1.5
						c0.4,0.4,0.7,0.9,0.6,1.5c0,0.8-0.5,1.4-1.2,1.7c-0.8,0.5-1.7,0.8-2.7,0.9c-7.6,0.8-11.7,1.1-12.5,1.2
						c-2.7,4-6.4,10.3-11.1,18.9s-7.2,13.9-7.6,16c-0.1,0.8-0.2,1.6-0.2,2.4c0,1.3,0.7,1.9,2,1.9c1.6-0.1,3.1-0.6,4.4-1.5
						c1.6-1,3.1-2.1,4.5-3.3c3.6-3.3,5.6-4.9,5.9-4.9c0.8,0,1.3,1.5,1.3,4.4c-0.1,1.7-0.9,3.3-2.2,4.3c-2.6,2.3-5.4,4.5-8.3,6.4
						c-2,1.4-4.3,2.1-6.7,2.2c-0.5,0-0.9,0-1.4-0.2c-2.2-0.3-4.2-1.2-5.8-2.8c-1.3-1.6-1.9-3.7-1.8-5.7c0.2-3,0.9-6,2.1-8.8
						c1.6-3.8,3.3-7.4,5.3-11c3.5-6.3,7-12.2,10.6-17.8l-1.9,0.2c-3.8,0.4-6,0.6-6.6,0.6h-0.4c-0.9,0-1.9-0.2-2.7-0.6
						c-0.9-0.4-1.3-0.8-1.3-1.4s0.3-1.2,0.7-1.6c0.4-0.3,0.6-0.8,0.9-1.2c0.2-0.7,1.1-1.5,2.6-2.4c1-0.7,2.1-1.2,3.3-1.4l2.2-0.1
						c0.7,0,1.5-0.1,2.4-0.1s1.5-0.1,2-0.1l4.4-0.2c1.7-2.7,3.6-5.4,5.6-7.9c0.6-0.7,1.1-1.3,1.8-1.9c0.3-0.2,0.7-0.2,1-0.2
						L195.4,8.7z"/>
				</g>
			</g>
		</g>
	</g>
</g>
</svg>
