<svg id="グループ_1993" data-name="グループ 1993" xmlns="http://www.w3.org/2000/svg" xmlns:xlink="http://www.w3.org/1999/xlink" width="763.931" height="207.992" viewBox="0 0 763.931 207.992">
  <defs>
    <clipPath id="clip-path">
      <rect id="長方形_1952" data-name="長方形 1952" width="763.931" height="207.992" fill="none" stroke="#fff" stroke-width="3"/>
    </clipPath>
  </defs>
  <g id="グループ_1992" data-name="グループ 1992" clip-path="url(#clip-path)">
    <path id="パス_1480" data-name="パス 1480" d="M654.282,202.757c-1.821.477-2.461-.373-2.906-2.095-3.642-14.094-7.38-28.164-11.1-42.237q-6.264-23.682-12.554-47.357c-5.633-21.158-11.322-42.3-16.9-63.475a12.8,12.8,0,0,0-4.9-7.542c-3.472-2.543-10.58-1.979-13.388,3.081-1.522,2.742-2.117,5.759-2.935,8.726q-6.884,24.983-13.824,49.951-11.544,41.754-23.067,83.514c-1.511,5.475-3.013,10.953-4.453,16.446-.242.924-.667,1.15-1.493.971-.368-.905-1.163-.645-1.836-.648-3.1-.014-6.2-.006-9.3-.006q-32.206,0-64.412.034c-1.074,0-2.4-.709-3.248.649a48.049,48.049,0,0,1-49.128-36.016,46.97,46.97,0,0,1-1.554-11.98Q417.2,80.8,417.241,6.837V4.516h38.6V8.44q0,72,.012,144a16.389,16.389,0,0,0,.348,4.243c1.325,5.113,4.649,8.089,9.841,8.109,16.947.064,33.9.024,51,.024,1.775-2.9,2.154-6.254,3.064-9.379,4.071-13.988,7.929-28.036,11.875-42.06q7.407-26.328,14.836-52.65c2.515-8.891,4.851-17.842,7.693-26.629,5.839-18.047,18.36-28.95,36.7-33.322.567-.135,1.208-.028,1.422-.771h15.049c2.126,1.378,4.685,1.22,7.011,1.952,17.179,5.407,28.093,16.864,32.981,34.042,3.339,11.734,6.28,23.58,9.469,35.357,3.994,14.749,8.086,29.472,12.086,44.219q6.607,24.36,13.133,48.742a14.406,14.406,0,0,0,.77,1.787H694.7c1.382-2.836,1.688-6.169,2.47-9.33,3.273-13.22,6.073-26.562,9.544-39.728,4.191-15.9,14.317-26.829,29.466-33.131.424-.176.933-.176,1.172-1.147-2.1-.489-4.316-.507-6.415-1.04-6.914-1.754-13.266-4.561-18.429-9.6a31.462,31.462,0,0,1-8.513-14.231q-7.13-25.5-14.312-50.976a4.216,4.216,0,0,1-.08-2.969H731.26c1.625,2.909,2.168,6.456,3.131,9.817,4.468,15.6,8.537,31.313,13.2,46.851,2.2,7.346,7.137,13.143,13.125,17.906a10.306,10.306,0,0,0,6.715,1.95c14.57-.077,29.144-.277,43.708.024,17.556.363,31.641,7.624,41.564,22.363a48.759,48.759,0,0,1,6.364,14.631q10.9,40.117,22.144,80.138c.434,1.542,1.272,3.106.844,5.052H841.931c-1.149-4.121-2.325-8.2-3.421-12.3q-6.652-24.888-13.262-49.786c-1.127-4.234-2.217-8.478-3.381-12.7-.888-3.225-2.02-6.348-4.358-8.87a8.639,8.639,0,0,0-6.633-2.938q-27.945.034-55.89,0c-4.368-.006-6.925,2.624-9.1,5.937-1.683,2.567-2.017,5.572-2.675,8.435-4.987,21.7-9.724,43.457-14.938,65.106-.525,2.181-.71,4.443-1.629,6.527q-34.552,0-69.105.034c-1.076,0-2.4-.7-3.258.636" transform="translate(-118.239)" fill="none" stroke="#fff" stroke-width="3"/>
    <path id="パス_1481" data-name="パス 1481" d="M53.746,0c1.808,1.387,4.065.847,6.083,1.3A53.049,53.049,0,0,1,86.6,16.094,47.718,47.718,0,0,1,99.079,38.158c2.063,8.02,4.666,15.905,7.125,23.82q10.12,32.564,20.32,65.1c3.423,10.966,6.874,21.923,10.245,32.9a14.626,14.626,0,0,0,7.12,8.567A10.081,10.081,0,0,0,159,160.277c.055-.952.01-1.91.01-2.865v-153h38.4a7.267,7.267,0,0,1,.288,3.319q.02,76.117.009,152.236A47.981,47.981,0,0,1,158.027,207.2c-15.738,2.57-29.963-1.133-42.732-10.506a51.138,51.138,0,0,1-16.784-20.5,89.473,89.473,0,0,1-3.54-10.8Q84.866,132.066,74.858,98.707,67.17,73.187,59.5,47.661a17.077,17.077,0,0,0-2.214-4.836,10.219,10.219,0,0,0-11.025-4.1c-3.9,1.009-6.225,3.648-7.04,7.679a22.918,22.918,0,0,0-.44,4.6q0,73.61,0,147.22v4.553H.727Q.721,126.283.716,49.794c0-.955,0-1.911.017-2.866A1,1,0,0,0,0,45.863V43c.225-.247.621-.476.651-.745A44.562,44.562,0,0,1,5.289,27.06C11.693,14.375,21.836,6.268,35.317,2.07,37.86,1.278,40.678,1.564,43,0Z" fill="none" stroke="#fff" stroke-width="3"/>
    <rect id="長方形_1951" data-name="長方形 1951" width="38.891" height="198.255" transform="translate(230.235 4.455)" fill="none" stroke="#fff" stroke-width="3"/>
    <path id="パス_1482" data-name="パス 1482" d="M960.728,72.33c7.221-22.528,14.349-44.769,21.5-67.087h41.1c-7.218,22.482-14.359,44.726-21.537,67.087Z" transform="translate(-272.256 -1.486)" fill="none" stroke="#fff" stroke-width="3"/>
  </g>
</svg>
