<svg xmlns="http://www.w3.org/2000/svg" width="198.27" height="91.57" viewBox="0 0 198.27 91.57">
  <g id="グループ_2005" data-name="グループ 2005" transform="translate(-38.71 -103.51)">
    <path id="パス_1485" data-name="パス 1485" d="M16.83-26.01c0-1.125.225-1.35,1.35-1.35h1.44c1.89,0,5.76.135,6.075.135.945,0,1.125-.27,1.125-1.305v-2.475c0-1.035-.18-1.305-1.125-1.305-.315,0-4.41.09-6.525.09H9.36c-2.115,0-6.21-.09-6.525-.09-.945,0-1.125.27-1.125,1.305v2.475c0,1.035.18,1.305,1.125,1.305.315,0,4.185-.135,6.075-.135h1.4c1.125,0,1.35.225,1.35,1.35V-9.36c0,2.61-.135,7.56-.135,7.875,0,.945.27,1.125,1.3,1.125H15.66c1.035,0,1.305-.18,1.305-1.125,0-.315-.135-5.265-.135-7.875Zm25.425-6.48c-9.36,0-16.065,6.48-16.065,16.425C26.19-7.65,31.77-.09,41.535-.09c8.64,0,16.155-6.03,16.155-16.6C57.69-25.11,52.065-32.49,42.255-32.49Zm-.135,5.175c6.435,0,10.17,4.86,10.17,10.89,0,7.11-4.725,11.385-10.575,11.385-6.435,0-10.125-4.9-10.125-10.98C31.59-22.5,35.685-27.315,42.12-27.315ZM67.365-.36c1.035,0,1.305-.18,1.305-1.125,0-.315-.135-5.265-.135-7.875V-10.4c0-1.125.225-1.35,1.35-1.35H73.44c8.325,0,11.97-4.725,11.97-11.16,0-6.345-3.87-9.315-10.26-9.315H70.56c-2.115,0-5.67-.09-5.985-.09-.99,0-1.26.36-1.26,1.44.045,2.565.09,5.355.09,7.56V-9.36c0,2.61-.135,7.56-.135,7.875,0,.945.27,1.125,1.3,1.125Zm1.17-25.875c0-1.125.225-1.35,1.35-1.35h4.32c3.33,0,5.895,1.26,5.895,5.175,0,4.455-2.925,6.21-6.66,6.21H69.885c-1.125,0-1.35-.225-1.35-1.35ZM69.93,33.61c-.5,0-.54.495-.585.9a26.112,26.112,0,0,1-3.69,10.215c-3.24,5.265-8.145,7.92-13.95,9.5-.45.135-.72.315-.72.81,0,.63,1.665,3.1,2.52,3.1a7.955,7.955,0,0,0,1.4-.36,25.7,25.7,0,0,0,12.24-7.83c3.105-3.735,4.815-7.965,6.165-12.6.18-.54.225-.675.585-.945.225-.18.54-.36.54-.675,0-.45-.45-.675-.81-.81A30.542,30.542,0,0,0,69.93,33.61Zm-7.965,1.62c-.765-1.26-1.62-2.52-2.25-2.52-.585,0-3.015,1.125-3.015,1.89a1.518,1.518,0,0,0,.4.9,48.474,48.474,0,0,1,3.15,5.31c.18.36.45.855.9.855.63,0,3.24-1.17,3.24-2.07,0-.585-1.62-3.06-2.025-3.69Zm-11.385,0c-.585,0-3.015,1.125-3.015,1.935a1.667,1.667,0,0,0,.36.81,44.505,44.505,0,0,1,3.24,5.445c.18.36.4.765.855.765.54,0,3.24-1.125,3.24-2.07,0-.585-1.53-2.925-1.935-3.555-.45-.72-1.485-2.34-1.98-2.925A1,1,0,0,0,50.58,35.23Zm48.51,5.04a1.411,1.411,0,0,1,1.17-1.44l8.145-1.62c.315-.045,1.305-.27,1.575-.27a.284.284,0,0,1,.315.315c0,.585-4.32,4.68-5.04,5.355-.315.315-.81.675-.81.99,0,.99,2.655,2.655,3.465,2.655.765,0,1.35-.765,1.8-1.305,2.115-2.385,4.185-4.815,6.255-7.335.63-.81,1.305-1.62,2.025-2.385a1.9,1.9,0,0,0,.45-.9c0-.9-2.475-3.24-3.33-3.24-.045,0-4.59.99-5.175,1.125L100.26,34.1a.947.947,0,0,1-1.17-.945v-3.1c0-1.3,0-2.565.045-3.87a1.809,1.809,0,0,1,.36-1.26,2.859,2.859,0,0,0,.405-.945c0-.45-.855-.54-1.17-.585-.495-.045-4.05-.495-4.275-.495-.36,0-.5.135-.5.45,0,.18.045.4.045.54a29.635,29.635,0,0,1,.18,4.5v5.805a1.308,1.308,0,0,1-1.08,1.305l-3.24.63c-1.62.315-2.835.5-3.825.675-2.295.36-2.97.495-2.97,1.26a17.492,17.492,0,0,0,.54,2.925c.18.585.315,1.035.9,1.035.27,0,5.4-1.08,6.165-1.215l2.295-.45a.966.966,0,0,1,1.215.945V49.81c0,2.025.135,4.275,1.8,5.445,1.485,1.08,5.085,1.215,7.785,1.215h2.2c1.485,0,6.3-.225,7.965-.315a4.32,4.32,0,0,0,1.485-.27c.81-.45.765-1.53.765-2.655,0-1.035,0-2.25-.855-2.25-.18,0-.45.045-.63.045-3.24.225-8.01.765-11.25.765-4.815,0-4.365-.63-4.365-5.31Zm32.31-2.565c-1.89,0-4.995-.135-5.58-.135-1.17,0-1.26.36-1.26,2.88,0,1.4.045,2.25,1.215,2.25,1.89,0,3.78-.09,5.625-.09h20.7c1.845,0,3.735.09,5.625.09,1.17,0,1.215-.855,1.215-2.3,0-2.475-.045-2.835-1.26-2.835-.585,0-3.51.135-5.58.135Zm61.515-16.02c0,.27.315.45.495.63a40.662,40.662,0,0,1,3.645,3.15c.135.135.36.36.585.36.585,0,1.98-1.575,1.98-2.25,0-.585-4.23-3.96-4.725-3.96S192.915,21.19,192.915,21.685Zm3.825,9.135c-.585,0-.765.585-.9.99-1.89,4.905-3.78,8.865-7.56,12.645a30.786,30.786,0,0,1-11.205,7.065c-1.4.54-3.96,1.485-5.355,1.845-.27.045-.855.18-.855.54a1.059,1.059,0,0,0,.09.36c.54,1.215,1.08,2.43,1.665,3.645.135.36.495,1.17.945,1.17.315,0,.5-.405.675-.63a2.512,2.512,0,0,1,1.485-.945c5.49-2.025,11.205-5.04,15.39-9.135a38.82,38.82,0,0,0,7.875-11.7,16.455,16.455,0,0,0,.99-2.835C199.98,33.025,197.46,30.82,196.74,30.82Zm-7.83-5.265c0,.225.225.4.405.54,1.08.9,2.16,1.755,3.195,2.745.36.315.81.855,1.08.855.585,0,1.98-1.575,1.98-2.25,0-.36-1.17-1.35-1.8-1.89a16.034,16.034,0,0,0-2.88-2.07A3.878,3.878,0,0,0,188.91,25.555ZM167.67,37.48c0,.36.36.585.675.72a76.319,76.319,0,0,1,7.29,4.59,2.287,2.287,0,0,0,.99.495c.945,0,2.745-2.745,2.745-3.42s-1.35-1.35-2.835-2.295c-.9-.54-5.67-3.51-6.3-3.51C169.335,34.06,167.67,36.76,167.67,37.48Zm8.1-13.185c-.765,0-2.745,2.43-2.745,3.15,0,.4.495.63.81.855a67.377,67.377,0,0,1,6.57,4.725c.27.18.765.585,1.08.585.855,0,2.745-2.475,2.745-3.285,0-.63-1.8-1.755-2.79-2.475C180.63,27.265,176.445,24.295,175.77,24.295Z" transform="translate(37 136)" fill="#396cae"/>
    <path id="パス_1486" data-name="パス 1486" d="M24.03,37.705a1.886,1.886,0,0,1-.675-.18c-1.17-.585-5.535-2.565-6.615-2.565-1.17,0-2.295,3.105-2.295,3.6,0,.54.495.765.945.9a36.8,36.8,0,0,1,5.355,2.115.984.984,0,0,1,.585.9c0,.45-.45.945-.72,1.26a32.642,32.642,0,0,1-12.465,9,3.1,3.1,0,0,1-.36.135C7.2,53.1,6.48,53.365,6.48,53.9c0,.63,2.205,3.375,3.2,3.375,1.08,0,6.165-3.1,7.245-3.87a37.839,37.839,0,0,0,8.01-7.38c.315-.36.585-.72,1.125-.72.765,0,2.565,1.845,3.15,2.475a1.831,1.831,0,0,0,1.125.675c.855,0,2.925-2.835,2.925-3.645,0-.585-2.745-2.745-3.33-3.195-.45-.36-.855-.675-.855-1.26a1.734,1.734,0,0,1,.27-.81,70.544,70.544,0,0,0,4.32-9.81,2.41,2.41,0,0,1,1.035-1.575c.225-.135.495-.315.495-.585,0-.495-1.53-1.035-2.385-1.35a21.184,21.184,0,0,0-3.15-1.035c-.405,0-.45.63-.495.99-.36,3.015-2.205,7.425-3.645,10.17C25.155,36.985,24.93,37.705,24.03,37.705Z" transform="translate(37 136)" fill="#ff1901"/>
  </g>
</svg>
