<svg xmlns="http://www.w3.org/2000/svg" width="619.9" height="87.7" viewBox="0 0 619.9 87.7">
  <g id="グループ_2004" data-name="グループ 2004" transform="translate(-111.8 -244.7)">
    <path id="パス_1483" data-name="パス 1483" d="M37.4-57.8c0-2.5.5-3,3-3h3.2c4.2,0,12.8.3,13.5.3,2.1,0,2.5-.6,2.5-2.9v-5.5c0-2.3-.4-2.9-2.5-2.9-.7,0-9.8.2-14.5.2H20.8c-4.7,0-13.8-.2-14.5-.2-2.1,0-2.5.6-2.5,2.9v5.5c0,2.3.4,2.9,2.5,2.9.7,0,9.3-.3,13.5-.3h3.1c2.5,0,3,.5,3,3v37c0,5.8-.3,16.8-.3,17.5,0,2.1.6,2.5,2.9,2.5h6.3c2.3,0,2.9-.4,2.9-2.5,0-.7-.3-11.7-.3-17.5ZM93.9-72.2c-20.8,0-35.7,14.4-35.7,36.5C58.2-17,70.6-.2,92.3-.2c19.2,0,35.9-13.4,35.9-36.9C128.2-55.8,115.7-72.2,93.9-72.2Zm-.3,11.5c14.3,0,22.6,10.8,22.6,24.2,0,15.8-10.5,25.3-23.5,25.3-14.3,0-22.5-10.9-22.5-24.4C70.2-50,79.3-60.7,93.6-60.7ZM149.7-.8c2.3,0,2.9-.4,2.9-2.5,0-.7-.3-11.7-.3-17.5v-2.3c0-2.5.5-3,3-3h7.9c18.5,0,26.6-10.5,26.6-24.8,0-14.1-8.6-20.7-22.8-20.7H156.8c-4.7,0-12.6-.2-13.3-.2-2.2,0-2.8.8-2.8,3.2.1,5.7.2,11.9.2,16.8v31c0,5.8-.3,16.8-.3,17.5,0,2.1.6,2.5,2.9,2.5Zm2.6-57.5c0-2.5.5-3,3-3h9.6c7.4,0,13.1,2.8,13.1,11.5,0,9.9-6.5,13.8-14.8,13.8h-7.9c-2.5,0-3-.5-3-3Zm182.4,4.1c-1.1,0-1.2,1.1-1.3,2a58.025,58.025,0,0,1-8.2,22.7c-7.2,11.7-18.1,17.6-31,21.1-1,.3-1.6.7-1.6,1.8,0,1.4,3.7,6.9,5.6,6.9a17.677,17.677,0,0,0,3.1-.8c10.7-3.4,19.9-8.8,27.2-17.4,6.9-8.3,10.7-17.7,13.7-28,.4-1.2.5-1.5,1.3-2.1.5-.4,1.2-.8,1.2-1.5,0-1-1-1.5-1.8-1.8C341.7-51.8,335.6-54.2,334.7-54.2ZM317-50.6c-1.7-2.8-3.6-5.6-5-5.6-1.3,0-6.7,2.5-6.7,4.2a3.373,3.373,0,0,0,.9,2,107.721,107.721,0,0,1,7,11.8c.4.8,1,1.9,2,1.9,1.4,0,7.2-2.6,7.2-4.6,0-1.3-3.6-6.8-4.5-8.2Zm-25.3,0c-1.3,0-6.7,2.5-6.7,4.3a3.7,3.7,0,0,0,.8,1.8A98.9,98.9,0,0,1,293-32.4c.4.8.9,1.7,1.9,1.7,1.2,0,7.2-2.5,7.2-4.6,0-1.3-3.4-6.5-4.3-7.9-1-1.6-3.3-5.2-4.4-6.5A2.227,2.227,0,0,0,291.7-50.6ZM399.5-39.4c.2-1.7.8-2.8,2.6-3.2l18.1-3.6c.7-.1,2.9-.6,3.5-.6a.632.632,0,0,1,.7.7c0,1.3-9.6,10.4-11.2,11.9-.7.7-1.8,1.5-1.8,2.2,0,2.2,5.9,5.9,7.7,5.9,1.7,0,3-1.7,4-2.9,4.7-5.3,9.3-10.7,13.9-16.3,1.4-1.8,2.9-3.6,4.5-5.3a4.213,4.213,0,0,0,1-2c0-2-5.5-7.2-7.4-7.2-.1,0-10.2,2.2-11.5,2.5l-21.5,4.2a2.1,2.1,0,0,1-2.6-2.1v-6.9c0-2.9,0-5.7.1-8.6a4.019,4.019,0,0,1,.8-2.8,6.353,6.353,0,0,0,.9-2.1c0-1-1.9-1.2-2.6-1.3-1.1-.1-9-1.1-9.5-1.1-.8,0-1.1.3-1.1,1,0,.4.1.9.1,1.2a65.858,65.858,0,0,1,.4,10v12.9a2.908,2.908,0,0,1-2.4,2.9L379-48.6c-3.6.7-6.3,1.1-8.5,1.5-5.1.8-6.6,1.1-6.6,2.8a38.871,38.871,0,0,0,1.2,6.5c.4,1.3.7,2.3,2,2.3.6,0,12-2.4,13.7-2.7l5.1-1a2.147,2.147,0,0,1,2.7,2.1v18.9c0,4.5.3,9.5,4,12.1,3.3,2.4,11.3,2.7,17.3,2.7h4.9c3.3,0,14-.5,17.7-.7a9.6,9.6,0,0,0,3.3-.6c1.8-1,1.7-3.4,1.7-5.9,0-2.3,0-5-1.9-5-.4,0-1,.1-1.4.1-7.2.5-17.8,1.7-25,1.7-10.7,0-9.7-1.4-9.7-11.8Zm71.8-5.7c-4.2,0-11.1-.3-12.4-.3-2.6,0-2.8.8-2.8,6.4,0,3.1.1,5,2.7,5,4.2,0,8.4-.2,12.5-.2h46c4.1,0,8.3.2,12.5.2,2.6,0,2.7-1.9,2.7-5.1,0-5.5-.1-6.3-2.8-6.3-1.3,0-7.8.3-12.4.3ZM608-80.7c0,.6.7,1,1.1,1.4a90.363,90.363,0,0,1,8.1,7c.3.3.8.8,1.3.8,1.3,0,4.4-3.5,4.4-5,0-1.3-9.4-8.8-10.5-8.8S608-81.8,608-80.7Zm8.5,20.3c-1.3,0-1.7,1.3-2,2.2-4.2,10.9-8.4,19.7-16.8,28.1-7.5,7.5-15.1,11.8-24.9,15.7-3.1,1.2-8.8,3.3-11.9,4.1-.6.1-1.9.4-1.9,1.2a2.353,2.353,0,0,0,.2.8c1.2,2.7,2.4,5.4,3.7,8.1.3.8,1.1,2.6,2.1,2.6.7,0,1.1-.9,1.5-1.4.8-1.3,2-1.6,3.3-2.1C582-5.6,594.7-12.3,604-21.4a86.266,86.266,0,0,0,17.5-26c.5-1.2,2.2-5.3,2.2-6.3C623.7-55.5,618.1-60.4,616.5-60.4ZM599.1-72.1c0,.5.5.9.9,1.2,2.4,2,4.8,3.9,7.1,6.1.8.7,1.8,1.9,2.4,1.9,1.3,0,4.4-3.5,4.4-5,0-.8-2.6-3-4-4.2-1.2-1-5.6-4.6-6.4-4.6C602.4-76.7,599.1-73.3,599.1-72.1ZM551.9-45.6c0,.8.8,1.3,1.5,1.6a169.6,169.6,0,0,1,16.2,10.2,5.082,5.082,0,0,0,2.2,1.1c2.1,0,6.1-6.1,6.1-7.6s-3-3-6.3-5.1c-2-1.2-12.6-7.8-14-7.8C555.6-53.2,551.9-47.2,551.9-45.6Zm18-29.3c-1.7,0-6.1,5.4-6.1,7,0,.9,1.1,1.4,1.8,1.9a149.723,149.723,0,0,1,14.6,10.5c.6.4,1.7,1.3,2.4,1.3,1.9,0,6.1-5.5,6.1-7.3,0-1.4-4-3.9-6.2-5.5C580.7-68.3,571.4-74.9,569.9-74.9Z" transform="translate(108 330)" fill="#396cae"/>
    <path id="パス_1484" data-name="パス 1484" d="M53.4-45.1a4.191,4.191,0,0,1-1.5-.4c-2.6-1.3-12.3-5.7-14.7-5.7-2.6,0-5.1,6.9-5.1,8,0,1.2,1.1,1.7,2.1,2,3.7,1.3,8.5,2.8,11.9,4.7a2.188,2.188,0,0,1,1.3,2c0,1-1,2.1-1.6,2.8a72.538,72.538,0,0,1-27.7,20,6.89,6.89,0,0,1-.8.3c-1.3.5-2.9,1.1-2.9,2.3,0,1.4,4.9,7.5,7.1,7.5,2.4,0,13.7-6.9,16.1-8.6A84.086,84.086,0,0,0,55.4-26.6c.7-.8,1.3-1.6,2.5-1.6,1.7,0,5.7,4.1,7,5.5a4.068,4.068,0,0,0,2.5,1.5c1.9,0,6.5-6.3,6.5-8.1,0-1.3-6.1-6.1-7.4-7.1-1-.8-1.9-1.5-1.9-2.8a3.854,3.854,0,0,1,.6-1.8,156.766,156.766,0,0,0,9.6-21.8c.6-1.7.8-2.5,2.3-3.5.5-.3,1.1-.7,1.1-1.3,0-1.1-3.4-2.3-5.3-3-1.5-.6-6.1-2.3-7-2.3s-1,1.4-1.1,2.2C64-64,59.9-54.2,56.7-48.1,55.9-46.7,55.4-45.1,53.4-45.1Z" transform="translate(292 330)" fill="#ff1901"/>
  </g>
</svg>
