<?xml version="1.0" encoding="utf-8"?>
<!-- Generator: Adobe Illustrator 27.8.1, SVG Export Plug-In . SVG Version: 6.00 Build 0)  -->
<svg version="1.1" id="レイヤー_1" xmlns="http://www.w3.org/2000/svg" xmlns:xlink="http://www.w3.org/1999/xlink" x="0px"
	 y="0px" viewBox="0 0 34 55" style="enable-background:new 0 0 34 55;" xml:space="preserve">
<style type="text/css">
	.st0{enable-background:new    ;}
	.st1{fill:#F5A302;}
</style>
<g class="st0">
	<path class="st1" d="M15.9,41.5C7.6,41.4,1.5,35.2,1.5,26.9c0-8.3,6.3-14.7,14.7-14.7c8.4,0,14.7,6.3,14.7,14.7
		c0,3.7-1.3,7-3.4,9.5c1-0.1,1.8-0.1,2.6-0.1h2.6v5.3H15.9z M24.6,26.9c0-5-3.7-8.9-8.4-8.9c-4.7,0-8.4,3.9-8.4,8.9s3.7,8.9,8.4,8.9
		C20.9,35.7,24.6,31.9,24.6,26.9z"/>
</g>
</svg>
