<svg xmlns="http://www.w3.org/2000/svg" viewBox="0 0 64.83 55"><defs><style>.cls-1{fill:#9dc138;}</style></defs><g id="レイヤー_2" data-name="レイヤー 2"><g id="rayout"><path class="cls-1" d="M42.28,27.52a15.79,15.79,0,0,1-.41,2.62,13.78,13.78,0,0,1-.64,1.94,11.13,11.13,0,0,1-8.14,6.56c0-.15,0-.31,0-.47a12.37,12.37,0,0,1,.19-1.58c.14-1,.39-2.1.6-3.13,0,0,0,0,0-.06.08-.37.15-.74.23-1.11.14-.63.28-1.27.4-1.89.18-1,.35-2,.45-2.95a22.06,22.06,0,0,0,.14-2.77v-.34c0-.19,0-.37,0-.55s0-.27,0-.39,0-.42-.07-.62,0-.4-.07-.6c-.05-.38-.09-.76-.14-1.13s-.16-.71-.24-1c-.14-.49-.24-1-.37-1.38a3.53,3.53,0,0,0-.15-.46c-.21-.55-.41-1.05-.6-1.51a6.26,6.26,0,0,0-.53-1.1.56.56,0,0,0-.05-.08,22.68,22.68,0,0,0-1.27-2s.19.51.51,1.4c.07.24.18.5.28.79a8.12,8.12,0,0,1,.26.83c.16.64.33,1.36.52,2.15a.11.11,0,0,1,0,.05c.12.79.23,1.65.33,2.55,0,.62,0,1.26,0,1.92,0,.24,0,.48,0,.72s0,.19,0,.28,0,.38-.05.57,0,.65-.09,1c-.08.51-.17,1-.26,1.56-.21,1-.44,2.1-.72,3.15s-.57,2.09-.84,3.11-.52,2-.71,3c-.11.5-.15,1-.22,1.48,0,.3-.07.6-.09.9a3.08,3.08,0,0,0,0,.52q0,.71,0,1.35c0,.44.08.86.11,1.27a11.67,11.67,0,0,0,.4,2.17,8.12,8.12,0,0,0,.5,1.63c.26.68.38.94.38.94l-2.59.78c-.14-.39-.47-1-.6-1.39A22.82,22.82,0,0,1,28.16,44a18.31,18.31,0,0,1-.22-4.4A8.22,8.22,0,0,1,28,38.7c-4.06-1.07-6.74-5-7.09-10a10.75,10.75,0,0,1,.44-3.95,21.66,21.66,0,0,1,2.82-5.41c.43-.67.87-1.4,1.29-2.16A21.1,21.1,0,0,0,28.23,4.65a47.07,47.07,0,0,1,9.49,9.89A34,34,0,0,1,40,18.24a22.65,22.65,0,0,1,1.28,2.93c.19.52.35,1,.49,1.57.05.19.11.39.15.58a14,14,0,0,1,.37,4.2m20-2.93a3.32,3.32,0,1,0-1.65-6.43L43.83,22.24c-.14-.54-.31-1.07-.49-1.61l11.32-2.94A3.32,3.32,0,1,0,53,11.26l-13,2.8A48.43,48.43,0,0,0,29.54,3L25.73,0l.37,4.82a19.8,19.8,0,0,1-3.45,13l-4.48.95A33.46,33.46,0,0,0,20.2,5a6.24,6.24,0,0,0-1.52-3.7,3.45,3.45,0,0,0-4.55,0C12.91,2.55,12.69,5,12.2,7.12,9.91,17.2-2.48,24.28.44,35.67c1.59,6.2,3,11.06,3,11.06,1.59,6.2,9.3,9.4,15.16,7.9l38-10.74a3.32,3.32,0,1,0-1.65-6.43L35.71,42.52c-.53.14-1-.05-1.13-.43s.25-.8.78-1L60,34.42A3.32,3.32,0,1,0,58.34,28l-14.65,3.5a15.73,15.73,0,0,0,.48-2Z"/></g></g></svg>