<svg xmlns="http://www.w3.org/2000/svg" viewBox="0 0 58.07 55"><defs><style>.cls-1{fill:#9dc138;}</style></defs><g id="レイヤー_2" data-name="レイヤー 2"><g id="rayout"><path class="cls-1" d="M48.78,26.73a4.89,4.89,0,0,0-.68,5l-.24.32c-.36.57-.76,1.15-1.09,1.8a16.41,16.41,0,0,0-1,2,15.46,15.46,0,0,0-.56,1.53c0-1.1,0-2.21,0-3.32,0-4.74-.2-9.48-.28-13,0-.27,0-.52,0-.77A6.51,6.51,0,0,0,48.18,12C47,8.6,46,6.2,45.81,4.69c-.89,2.2-5.34,6.31-5,10.7A5.71,5.71,0,0,0,44,20.22c0,.26,0,.51,0,.79-.13,3-.35,6.92-.49,10.93-.23-.61-.53-1.2-.8-1.78s-.63-1.15-1-1.65a15.48,15.48,0,0,0-1.09-1.44c-.14-.18-.29-.34-.44-.5a4.5,4.5,0,0,0-.87-4.47c-2.22-2.65-7-2.51-8.69-3.26a32.9,32.9,0,0,1,2.66,5.38,5.11,5.11,0,0,0,6.17,2.93c.12.17.25.34.36.53a13.52,13.52,0,0,1,.86,1.45,22.18,22.18,0,0,1,1.44,3.37c.17.6.4,1.18.51,1.79a46.84,46.84,0,0,1,.6,10.45c-.1,2.87,0,5.75-.09,8.63,0,.54,0,1.08,0,1.63h2.65a93.68,93.68,0,0,1-.06-10.33,34.44,34.44,0,0,1,.85-6.24,20.35,20.35,0,0,1,.61-2.1,19.49,19.49,0,0,1,.74-2c.24-.64.57-1.22.84-1.79.07-.1.12-.2.18-.3a5.59,5.59,0,0,0,6.58-3.55,35.83,35.83,0,0,1,2.59-6c-1.82.92-7,1-9.29,4.06M16.94,33.21l3.41-4.77,3.35,5.24ZM29.06,29l-4.58-8.45c-.93-1.64-1.86-3.82-3.52-4.83-3.88-2.37-8.21-.9-10.84,3.46,0,0-4.6,7-8.75,13.58-3.22,5.08-.27,9.52,3.8,9.52h6.51L5.12,47.45a3.91,3.91,0,0,0,4.72,6.22L26.58,41.55a4.33,4.33,0,0,0,1.78-3.21,4.28,4.28,0,0,0-.69-2.64l9.39,2a3.14,3.14,0,0,0,1.52-6.09ZM23.93,15a7.68,7.68,0,1,0-5.05-9.61A7.68,7.68,0,0,0,23.93,15"/></g></g></svg>