<?xml version="1.0" encoding="utf-8"?>
<!-- Generator: Adobe Illustrator 28.1.0, SVG Export Plug-In . SVG Version: 6.00 Build 0)  -->
<svg version="1.1" id="レイヤー_1" xmlns="http://www.w3.org/2000/svg" xmlns:xlink="http://www.w3.org/1999/xlink" x="0px"
	 y="0px" viewBox="0 0 180 231.4" style="enable-background:new 0 0 180 231.4;" xml:space="preserve">
<style type="text/css">
	.st0{fill:#7F4F21;}
	.st1{fill:#FFFFFF;}
	.st2{enable-background:new    ;}
	.st3{fill:#2B2624;}
</style>
<g id="グループ_1385" transform="translate(-870 -814.107)">
	<path id="パス_1705" class="st0" d="M960,859.5h1v167.6h-1V859.5z"/>
	<g id="パス_1701" transform="translate(900 1056.406)">
		<path class="st1" d="M119.5-11.4H63H0.5v-24h119V-11.4z"/>
		<path class="st0" d="M1-34.9v23h118v-23H1 M0-35.9h120v25H0V-35.9z"/>
	</g>
	<g class="st2">
		<path class="st3" d="M928.5,1029.5v1h-2.9v7.6h-1.2v-7.6h-2.9v-1H928.5z"/>
		<path class="st3" d="M932.6,1032.4c0.6,0.5,0.8,1.3,0.8,2.4c0,1-0.2,1.8-0.7,2.5c-0.5,0.7-1.2,1-2.3,1c-0.9,0-1.5-0.3-2-0.9
			c-0.5-0.6-0.8-1.4-0.8-2.4c0-1.1,0.3-1.9,0.8-2.5c0.5-0.6,1.2-0.9,2.1-0.9C931.4,1031.6,932.1,1031.9,932.6,1032.4z M932,1036.6
			c0.3-0.5,0.4-1.1,0.4-1.8c0-0.6-0.1-1.1-0.3-1.4c-0.3-0.6-0.8-0.9-1.5-0.9c-0.6,0-1.1,0.2-1.4,0.7c-0.3,0.5-0.4,1.1-0.4,1.8
			c0,0.7,0.1,1.2,0.4,1.7c0.3,0.4,0.7,0.7,1.4,0.7C931.2,1037.4,931.7,1037.1,932,1036.6z"/>
		<path class="st3" d="M938.2,1032.1c0.2,0.1,0.4,0.3,0.6,0.6v-0.8h1v5.7c0,0.8-0.1,1.4-0.4,1.9c-0.4,0.9-1.3,1.3-2.5,1.3
			c-0.7,0-1.2-0.2-1.7-0.5s-0.7-0.8-0.8-1.4h1.1c0.1,0.3,0.2,0.5,0.3,0.7c0.2,0.2,0.6,0.4,1.1,0.4c0.8,0,1.3-0.3,1.6-0.9
			c0.1-0.3,0.2-0.9,0.2-1.8c-0.2,0.3-0.5,0.6-0.8,0.7c-0.3,0.2-0.7,0.2-1.2,0.2c-0.7,0-1.3-0.2-1.8-0.7s-0.8-1.3-0.8-2.4
			c0-1.1,0.3-1.9,0.8-2.5s1.1-0.9,1.9-0.9C937.5,1031.7,937.9,1031.8,938.2,1032.1z M938.4,1033.2c-0.3-0.4-0.7-0.6-1.2-0.6
			c-0.7,0-1.2,0.3-1.5,1c-0.1,0.4-0.2,0.9-0.2,1.5c0,0.7,0.1,1.2,0.4,1.6c0.3,0.4,0.7,0.6,1.2,0.6c0.8,0,1.3-0.3,1.6-1
			c0.2-0.4,0.3-0.8,0.3-1.4C938.9,1034.1,938.7,1033.6,938.4,1033.2z"/>
		<path class="st3" d="M942.5,1031.8v4.2c0,0.3,0,0.6,0.1,0.8c0.2,0.4,0.5,0.6,1,0.6c0.7,0,1.2-0.3,1.5-1c0.1-0.4,0.2-0.8,0.2-1.4
			v-3.1h1.1v6.3h-1l0-0.9c-0.1,0.2-0.3,0.4-0.5,0.6c-0.4,0.3-0.9,0.5-1.4,0.5c-0.9,0-1.5-0.3-1.8-0.9c-0.2-0.3-0.3-0.7-0.3-1.3v-4.3
			H942.5z"/>
		<path class="st3" d="M948.1,1031.8h1v1.1c0.1-0.2,0.3-0.5,0.6-0.8s0.7-0.5,1.1-0.5c0,0,0.1,0,0.1,0s0.1,0,0.2,0v1.1
			c-0.1,0-0.1,0-0.2,0s-0.1,0-0.2,0c-0.5,0-0.9,0.2-1.2,0.5s-0.4,0.7-0.4,1.2v3.6h-1.1V1031.8z"/>
		<path class="st3" d="M955.5,1034.3c0.2,0,0.4-0.1,0.5-0.3c0-0.1,0.1-0.2,0.1-0.4c0-0.4-0.1-0.6-0.4-0.8c-0.3-0.2-0.6-0.2-1.1-0.2
			c-0.5,0-0.9,0.1-1.2,0.4c-0.1,0.2-0.2,0.4-0.3,0.7h-1c0-0.8,0.3-1.3,0.8-1.6s1-0.5,1.7-0.5c0.7,0,1.3,0.1,1.8,0.4
			c0.5,0.3,0.7,0.7,0.7,1.3v3.6c0,0.1,0,0.2,0.1,0.3s0.1,0.1,0.3,0.1c0,0,0.1,0,0.2,0s0.1,0,0.2,0v0.8c-0.2,0-0.3,0.1-0.4,0.1
			s-0.2,0-0.4,0c-0.4,0-0.6-0.1-0.8-0.4c-0.1-0.1-0.1-0.3-0.2-0.6c-0.2,0.3-0.5,0.5-0.9,0.7s-0.8,0.3-1.3,0.3
			c-0.6,0-1.1-0.2-1.4-0.5c-0.4-0.4-0.6-0.8-0.6-1.3c0-0.6,0.2-1,0.5-1.4c0.4-0.3,0.8-0.5,1.4-0.6L955.5,1034.3z M953.2,1037.1
			c0.2,0.2,0.5,0.3,0.8,0.3c0.4,0,0.7-0.1,1.1-0.3c0.6-0.3,0.9-0.8,0.9-1.4v-0.8c-0.1,0.1-0.3,0.2-0.5,0.2s-0.4,0.1-0.6,0.1
			l-0.6,0.1c-0.4,0.1-0.7,0.1-0.9,0.2c-0.3,0.2-0.5,0.5-0.5,0.9C952.9,1036.7,953,1037,953.2,1037.1z"/>
		<path class="st3" d="M963,1035.3c0,0.5,0.1,0.9,0.3,1.2c0.4,0.6,1,0.9,2,0.9c0.4,0,0.8-0.1,1.2-0.2c0.7-0.2,1-0.7,1-1.3
			c0-0.5-0.1-0.8-0.4-1c-0.3-0.2-0.7-0.4-1.4-0.5l-1.1-0.3c-0.7-0.2-1.3-0.4-1.6-0.6c-0.5-0.4-0.8-0.9-0.8-1.6
			c0-0.8,0.3-1.4,0.8-1.9s1.3-0.7,2.2-0.7c0.9,0,1.6,0.2,2.2,0.7c0.6,0.4,0.9,1.1,0.9,2.1h-1.1c-0.1-0.5-0.2-0.8-0.4-1.1
			c-0.3-0.4-0.9-0.7-1.7-0.7c-0.7,0-1.1,0.1-1.4,0.4s-0.4,0.6-0.4,1c0,0.4,0.2,0.7,0.5,0.9c0.2,0.1,0.7,0.3,1.5,0.5l1.2,0.3
			c0.6,0.1,1,0.3,1.3,0.5c0.5,0.4,0.8,1,0.8,1.8c0,1-0.3,1.6-1,2c-0.7,0.4-1.5,0.6-2.4,0.6c-1,0-1.9-0.3-2.5-0.8
			c-0.6-0.5-0.9-1.3-0.9-2.2H963z"/>
		<path class="st3" d="M970.3,1030.1h1.1v1.8h1v0.9h-1v4.1c0,0.2,0.1,0.4,0.2,0.4c0.1,0,0.2,0.1,0.4,0.1c0.1,0,0.1,0,0.2,0
			s0.1,0,0.2,0v0.8c-0.1,0-0.2,0.1-0.4,0.1s-0.3,0-0.4,0c-0.5,0-0.8-0.1-1-0.4s-0.3-0.6-0.3-1v-4.2h-0.8v-0.9h0.8V1030.1z"/>
		<path class="st3" d="M976.8,1034.3c0.2,0,0.4-0.1,0.5-0.3c0-0.1,0.1-0.2,0.1-0.4c0-0.4-0.1-0.6-0.4-0.8s-0.6-0.2-1.1-0.2
			c-0.5,0-0.9,0.1-1.2,0.4c-0.1,0.2-0.2,0.4-0.3,0.7h-1c0-0.8,0.3-1.3,0.8-1.6c0.5-0.3,1-0.5,1.7-0.5c0.7,0,1.3,0.1,1.8,0.4
			c0.5,0.3,0.7,0.7,0.7,1.3v3.6c0,0.1,0,0.2,0.1,0.3s0.1,0.1,0.3,0.1c0,0,0.1,0,0.2,0s0.1,0,0.2,0v0.8c-0.2,0-0.3,0.1-0.4,0.1
			s-0.2,0-0.4,0c-0.4,0-0.6-0.1-0.8-0.4c-0.1-0.1-0.1-0.3-0.2-0.6c-0.2,0.3-0.5,0.5-0.9,0.7s-0.8,0.3-1.3,0.3
			c-0.6,0-1.1-0.2-1.4-0.5c-0.4-0.4-0.6-0.8-0.6-1.3c0-0.6,0.2-1,0.5-1.4c0.4-0.3,0.8-0.5,1.4-0.6L976.8,1034.3z M974.6,1037.1
			c0.2,0.2,0.5,0.3,0.8,0.3c0.4,0,0.7-0.1,1.1-0.3c0.6-0.3,0.9-0.8,0.9-1.4v-0.8c-0.1,0.1-0.3,0.2-0.5,0.2c-0.2,0.1-0.4,0.1-0.6,0.1
			l-0.6,0.1c-0.4,0.1-0.7,0.1-0.9,0.2c-0.3,0.2-0.5,0.5-0.5,0.9C974.3,1036.7,974.4,1037,974.6,1037.1z"/>
		<path class="st3" d="M980.3,1030.1h1.1v1.8h1v0.9h-1v4.1c0,0.2,0.1,0.4,0.2,0.4c0.1,0,0.2,0.1,0.4,0.1c0.1,0,0.1,0,0.2,0
			s0.1,0,0.2,0v0.8c-0.1,0-0.2,0.1-0.4,0.1s-0.3,0-0.4,0c-0.5,0-0.8-0.1-1-0.4s-0.3-0.6-0.3-1v-4.2h-0.8v-0.9h0.8V1030.1z"/>
		<path class="st3" d="M983.5,1029.5h1.1v1.2h-1.1V1029.5z M983.5,1031.8h1.1v6.2h-1.1V1031.8z"/>
		<path class="st3" d="M990.7,1032.4c0.6,0.5,0.8,1.3,0.8,2.4c0,1-0.2,1.8-0.7,2.5c-0.5,0.7-1.2,1-2.3,1c-0.9,0-1.5-0.3-2-0.9
			c-0.5-0.6-0.8-1.4-0.8-2.4c0-1.1,0.3-1.9,0.8-2.5c0.5-0.6,1.2-0.9,2.1-0.9C989.4,1031.6,990.1,1031.9,990.7,1032.4z M990,1036.6
			c0.3-0.5,0.4-1.1,0.4-1.8c0-0.6-0.1-1.1-0.3-1.4c-0.3-0.6-0.8-0.9-1.5-0.9c-0.6,0-1.1,0.2-1.4,0.7c-0.3,0.5-0.4,1.1-0.4,1.8
			c0,0.7,0.1,1.2,0.4,1.7c0.3,0.4,0.7,0.7,1.4,0.7C989.3,1037.4,989.8,1037.1,990,1036.6z"/>
		<path class="st3" d="M992.8,1031.8h1v0.9c0.3-0.4,0.6-0.6,0.9-0.8s0.7-0.2,1.1-0.2c0.9,0,1.5,0.3,1.8,0.9c0.2,0.3,0.3,0.8,0.3,1.5
			v4h-1.1v-4c0-0.4-0.1-0.7-0.2-0.9c-0.2-0.4-0.5-0.6-1-0.6c-0.2,0-0.5,0-0.6,0.1c-0.3,0.1-0.5,0.3-0.8,0.5
			c-0.2,0.2-0.3,0.4-0.3,0.6s-0.1,0.5-0.1,0.9v3.3h-1.1V1031.8z"/>
	</g>
	<path id="長方形_652" class="st3" d="M902.5,814.1h115c6.9,0,12.5,5.6,12.5,12.5l0,0c0,6.9-5.6,12.5-12.5,12.5h-115
		c-6.9,0-12.5-5.6-12.5-12.5l0,0C890,819.7,895.6,814.1,902.5,814.1z"/>
	<g class="st2">
		<path class="st1" d="M921.2,822h7v1.2h-5.6v3h4.9v1.2h-4.9v4.6h-1.4V822z"/>
		<path class="st1" d="M930.2,824.8h1.2v1.3c0.1-0.2,0.3-0.5,0.7-0.9c0.4-0.4,0.8-0.5,1.3-0.5c0,0,0.1,0,0.1,0s0.1,0,0.3,0v1.3
			c-0.1,0-0.1,0-0.2,0s-0.1,0-0.2,0c-0.6,0-1.1,0.2-1.4,0.6c-0.3,0.4-0.5,0.9-0.5,1.4v4.2h-1.2V824.8z"/>
		<path class="st1" d="M940.8,825.5c0.6,0.6,1,1.6,1,2.8c0,1.2-0.3,2.2-0.9,2.9c-0.6,0.8-1.5,1.2-2.7,1.2c-1,0-1.8-0.3-2.4-1
			c-0.6-0.7-0.9-1.6-0.9-2.7c0-1.2,0.3-2.2,0.9-2.9c0.6-0.7,1.5-1.1,2.5-1.1C939.4,824.5,940.2,824.9,940.8,825.5z M940.1,830.4
			c0.3-0.6,0.4-1.3,0.4-2.1c0-0.7-0.1-1.2-0.3-1.7c-0.3-0.7-0.9-1-1.8-1c-0.7,0-1.3,0.3-1.6,0.9s-0.5,1.3-0.5,2.1
			c0,0.8,0.2,1.4,0.5,1.9s0.9,0.8,1.6,0.8C939.2,831.3,939.8,831,940.1,830.4z"/>
		<path class="st1" d="M944,824.8h1.2v1c0.3-0.4,0.6-0.6,0.8-0.8c0.4-0.3,0.9-0.4,1.4-0.4c0.6,0,1.1,0.1,1.4,0.4
			c0.2,0.2,0.4,0.4,0.5,0.7c0.3-0.4,0.6-0.7,1-0.9c0.4-0.2,0.8-0.3,1.2-0.3c1,0,1.7,0.4,2,1.1c0.2,0.4,0.3,0.9,0.3,1.5v4.9h-1.3V827
			c0-0.5-0.1-0.8-0.4-1s-0.5-0.3-0.9-0.3c-0.5,0-0.9,0.2-1.2,0.5s-0.5,0.9-0.5,1.6v4.3h-1.3v-4.8c0-0.5-0.1-0.9-0.2-1.1
			c-0.2-0.3-0.5-0.5-1-0.5c-0.5,0-0.9,0.2-1.3,0.5s-0.6,1-0.6,2v3.9H944V824.8z"/>
		<path class="st1" d="M968.2,822v1.2h-3.4v8.8h-1.4v-8.8H960V822H968.2z"/>
		<path class="st1" d="M973.7,825.5c0.6,0.6,1,1.6,1,2.8c0,1.2-0.3,2.2-0.9,2.9s-1.5,1.2-2.7,1.2c-1,0-1.8-0.3-2.4-1
			c-0.6-0.7-0.9-1.6-0.9-2.7c0-1.2,0.3-2.2,0.9-2.9s1.5-1.1,2.5-1.1C972.3,824.5,973.1,824.9,973.7,825.5z M972.9,830.4
			c0.3-0.6,0.4-1.3,0.4-2.1c0-0.7-0.1-1.2-0.3-1.7c-0.3-0.7-0.9-1-1.8-1c-0.7,0-1.3,0.3-1.6,0.9s-0.5,1.3-0.5,2.1
			c0,0.8,0.2,1.4,0.5,1.9s0.9,0.8,1.6,0.8C972.1,831.3,972.6,831,972.9,830.4z"/>
		<path class="st1" d="M976.9,822h1.2v5.8l3.2-3.1h1.6l-2.8,2.7l3,4.6h-1.6l-2.3-3.7l-1,1v2.7h-1.2V822z"/>
		<path class="st1" d="M989.2,824.8h1.4c-0.2,0.5-0.6,1.5-1.2,3.2c-0.4,1.3-0.8,2.3-1.1,3.1c-0.7,1.9-1.2,3-1.5,3.4
			c-0.3,0.4-0.8,0.6-1.5,0.6c-0.2,0-0.3,0-0.4,0c-0.1,0-0.2,0-0.3-0.1v-1.1c0.2,0.1,0.4,0.1,0.5,0.1c0.1,0,0.2,0,0.3,0
			c0.2,0,0.4,0,0.5-0.1s0.2-0.2,0.3-0.3c0,0,0.1-0.2,0.2-0.6c0.1-0.3,0.2-0.6,0.3-0.8l-2.7-7.5h1.4l2,6L989.2,824.8z"/>
		<path class="st1" d="M997.6,825.5c0.6,0.6,1,1.6,1,2.8c0,1.2-0.3,2.2-0.9,2.9c-0.6,0.8-1.5,1.2-2.7,1.2c-1,0-1.8-0.3-2.4-1
			c-0.6-0.7-0.9-1.6-0.9-2.7c0-1.2,0.3-2.2,0.9-2.9c0.6-0.7,1.5-1.1,2.5-1.1C996.2,824.5,997,824.9,997.6,825.5z M996.8,830.4
			c0.3-0.6,0.5-1.3,0.5-2.1c0-0.7-0.1-1.2-0.3-1.7c-0.3-0.7-0.9-1-1.8-1c-0.7,0-1.3,0.3-1.6,0.9s-0.5,1.3-0.5,2.1
			c0,0.8,0.2,1.4,0.5,1.9s0.9,0.8,1.6,0.8C996,831.3,996.5,831,996.8,830.4z"/>
	</g>
	<g id="パス_1701-2" transform="translate(870 892.906)">
		<path class="st1" d="M179.5,7.4H0.5v-42.8h179V7.4z"/>
		<path class="st0" d="M1-34.9V6.9h178v-41.8H1 M0-35.9h180V7.9H0V-35.9z"/>
	</g>
	<g id="パス_1893" transform="translate(870 974.906)">
		<path class="st1" d="M179.5,7.4H0.5v-42.8h179V7.4z"/>
		<path class="st0" d="M1-34.9V6.9h178v-41.8H1 M0-35.9h180V7.9H0V-35.9z"/>
	</g>
	<g class="st2">
		<path class="st3" d="M894.5,868.5v1h-2.9v7.6h-1.2v-7.6h-2.9v-1H894.5z"/>
		<path class="st3" d="M897.4,873.3c0.2,0,0.4-0.1,0.5-0.3c0-0.1,0.1-0.2,0.1-0.4c0-0.4-0.1-0.6-0.4-0.8c-0.3-0.2-0.6-0.2-1.1-0.2
			c-0.5,0-0.9,0.1-1.2,0.4c-0.1,0.2-0.2,0.4-0.3,0.7h-1c0-0.8,0.3-1.3,0.8-1.6s1-0.5,1.7-0.5c0.7,0,1.3,0.1,1.8,0.4
			c0.5,0.3,0.7,0.7,0.7,1.3v3.6c0,0.1,0,0.2,0.1,0.3s0.1,0.1,0.3,0.1c0,0,0.1,0,0.2,0s0.1,0,0.2,0v0.8c-0.2,0-0.3,0.1-0.4,0.1
			s-0.2,0-0.4,0c-0.4,0-0.6-0.1-0.8-0.4c-0.1-0.1-0.1-0.3-0.2-0.6c-0.2,0.3-0.5,0.5-0.9,0.7s-0.8,0.3-1.3,0.3
			c-0.6,0-1.1-0.2-1.4-0.5c-0.4-0.4-0.6-0.8-0.6-1.3c0-0.6,0.2-1,0.5-1.4c0.4-0.3,0.8-0.5,1.4-0.6L897.4,873.3z M895.2,876.1
			c0.2,0.2,0.5,0.3,0.8,0.3c0.4,0,0.7-0.1,1.1-0.3c0.6-0.3,0.9-0.8,0.9-1.4v-0.8c-0.1,0.1-0.3,0.2-0.5,0.2s-0.4,0.1-0.6,0.1
			l-0.6,0.1c-0.4,0.1-0.7,0.1-0.9,0.2c-0.3,0.2-0.5,0.5-0.5,0.9C894.9,875.7,895,876,895.2,876.1z"/>
		<path class="st3" d="M900.7,868.5h1v5l2.7-2.7h1.3l-2.4,2.3l2.5,3.9h-1.3l-2-3.2l-0.9,0.8v2.4h-1V868.5z"/>
		<path class="st3" d="M910.6,871c0.4,0.2,0.7,0.5,0.9,0.8c0.2,0.3,0.3,0.7,0.4,1.1c0.1,0.3,0.1,0.8,0.1,1.4h-4.6
			c0,0.6,0.2,1.2,0.4,1.5c0.3,0.4,0.7,0.6,1.3,0.6c0.5,0,1-0.2,1.3-0.5c0.2-0.2,0.3-0.5,0.4-0.7h1c0,0.2-0.1,0.5-0.3,0.8
			s-0.3,0.5-0.5,0.7c-0.3,0.3-0.7,0.5-1.2,0.6c-0.3,0.1-0.5,0.1-0.9,0.1c-0.8,0-1.4-0.3-2-0.9c-0.5-0.6-0.8-1.4-0.8-2.4
			c0-1,0.3-1.8,0.8-2.5c0.5-0.6,1.3-0.9,2.1-0.9C909.8,870.7,910.2,870.8,910.6,871z M911,873.4c0-0.5-0.1-0.8-0.3-1.1
			c-0.3-0.5-0.8-0.8-1.4-0.8c-0.5,0-0.9,0.2-1.2,0.5s-0.5,0.8-0.5,1.3H911z"/>
		<path class="st3" d="M916.9,868.5h1.2v3.6h4.4v-3.6h1.2v8.6h-1.2v-4h-4.4v4h-1.2V868.5z"/>
		<path class="st3" d="M930,871.4c0.6,0.5,0.8,1.3,0.8,2.4c0,1-0.2,1.8-0.7,2.5c-0.5,0.7-1.2,1-2.3,1c-0.9,0-1.5-0.3-2-0.9
			c-0.5-0.6-0.8-1.4-0.8-2.4c0-1.1,0.3-1.9,0.8-2.5c0.5-0.6,1.2-0.9,2.1-0.9C928.7,870.6,929.4,870.9,930,871.4z M929.3,875.6
			c0.3-0.5,0.4-1.1,0.4-1.8c0-0.6-0.1-1.1-0.3-1.4c-0.3-0.6-0.8-0.9-1.5-0.9c-0.6,0-1.1,0.2-1.4,0.7c-0.3,0.5-0.4,1.1-0.4,1.8
			c0,0.7,0.1,1.2,0.4,1.7c0.3,0.4,0.7,0.7,1.4,0.7C928.6,876.4,929.1,876.1,929.3,875.6z"/>
		<path class="st3" d="M932.1,868.5h1v5l2.7-2.7h1.3l-2.4,2.3l2.5,3.9h-1.3l-2-3.2l-0.9,0.8v2.4h-1V868.5z"/>
		<path class="st3" d="M939.1,870.8v4.2c0,0.3,0,0.6,0.1,0.8c0.2,0.4,0.5,0.6,1,0.6c0.7,0,1.2-0.3,1.5-1c0.1-0.4,0.2-0.8,0.2-1.4
			v-3.1h1.1v6.3h-1l0-0.9c-0.1,0.2-0.3,0.4-0.5,0.6c-0.4,0.3-0.9,0.5-1.4,0.5c-0.9,0-1.5-0.3-1.8-0.9c-0.2-0.3-0.3-0.7-0.3-1.3v-4.3
			H939.1z"/>
		<path class="st3" d="M944.8,870.8h1v1.1c0.1-0.2,0.3-0.5,0.6-0.8s0.7-0.5,1.1-0.5c0,0,0.1,0,0.1,0s0.1,0,0.2,0v1.1
			c-0.1,0-0.1,0-0.2,0s-0.1,0-0.2,0c-0.5,0-0.9,0.2-1.2,0.5s-0.4,0.7-0.4,1.2v3.6h-1.1V870.8z"/>
		<path class="st3" d="M948.8,868.5h1.1v1.2h-1.1V868.5z M948.8,870.8h1.1v6.2h-1.1V870.8z"/>
		<path class="st3" d="M951.4,868.5h1v5l2.7-2.7h1.3l-2.4,2.3l2.5,3.9h-1.3l-2-3.2l-0.9,0.8v2.4h-1V868.5z"/>
		<path class="st3" d="M958.5,870.8v4.2c0,0.3,0,0.6,0.1,0.8c0.2,0.4,0.5,0.6,1,0.6c0.7,0,1.2-0.3,1.5-1c0.1-0.4,0.2-0.8,0.2-1.4
			v-3.1h1.1v6.3h-1l0-0.9c-0.1,0.2-0.3,0.4-0.5,0.6c-0.4,0.3-0.9,0.5-1.4,0.5c-0.9,0-1.5-0.3-1.8-0.9c-0.2-0.3-0.3-0.7-0.3-1.3v-4.3
			H958.5z"/>
		<path class="st3" d="M968.3,874.3c0,0.5,0.1,0.9,0.3,1.2c0.4,0.6,1,0.9,2,0.9c0.4,0,0.8-0.1,1.2-0.2c0.7-0.2,1-0.7,1-1.3
			c0-0.5-0.1-0.8-0.4-1c-0.3-0.2-0.7-0.4-1.4-0.5l-1.1-0.3c-0.7-0.2-1.3-0.4-1.6-0.6c-0.5-0.4-0.8-0.9-0.8-1.6
			c0-0.8,0.3-1.4,0.8-1.9s1.3-0.7,2.2-0.7c0.9,0,1.6,0.2,2.2,0.7c0.6,0.4,0.9,1.1,0.9,2.1h-1.1c-0.1-0.5-0.2-0.8-0.4-1.1
			c-0.3-0.4-0.9-0.7-1.7-0.7c-0.7,0-1.1,0.1-1.4,0.4s-0.4,0.6-0.4,1c0,0.4,0.2,0.7,0.5,0.9c0.2,0.1,0.7,0.3,1.5,0.5l1.2,0.3
			c0.6,0.1,1,0.3,1.3,0.5c0.5,0.4,0.8,1,0.8,1.8c0,1-0.3,1.6-1,2c-0.7,0.4-1.5,0.6-2.4,0.6c-1,0-1.9-0.3-2.5-0.8
			c-0.6-0.5-0.9-1.3-0.9-2.2H968.3z"/>
		<path class="st3" d="M975.4,868.4h1.1v3.2c0.2-0.3,0.5-0.5,0.7-0.7c0.3-0.2,0.8-0.3,1.3-0.3c0.9,0,1.5,0.3,1.9,1
			c0.2,0.3,0.3,0.8,0.3,1.4v4h-1.1v-4c0-0.5-0.1-0.8-0.2-1c-0.2-0.3-0.6-0.5-1.1-0.5c-0.4,0-0.8,0.2-1.2,0.5s-0.5,0.9-0.5,1.7v3.3
			h-1.1V868.4z"/>
		<path class="st3" d="M982.1,868.5h1.1v1.2h-1.1V868.5z M982.1,870.8h1.1v6.2h-1.1V870.8z"/>
		<path class="st3" d="M984.8,870.8h1v0.9c0.3-0.4,0.6-0.6,0.9-0.8s0.7-0.2,1.1-0.2c0.9,0,1.5,0.3,1.8,0.9c0.2,0.3,0.3,0.8,0.3,1.5
			v4h-1.1v-4c0-0.4-0.1-0.7-0.2-0.9c-0.2-0.4-0.5-0.6-1-0.6c-0.2,0-0.5,0-0.6,0.1c-0.3,0.1-0.5,0.3-0.8,0.5
			c-0.2,0.2-0.3,0.4-0.3,0.6s-0.1,0.5-0.1,0.9v3.3h-1.1V870.8z"/>
		<path class="st3" d="M991.4,868.5h1v5l2.7-2.7h1.3l-2.4,2.3l2.5,3.9h-1.3l-2-3.2l-0.9,0.8v2.4h-1V868.5z"/>
		<path class="st3" d="M1000.8,873.3c0.2,0,0.4-0.1,0.5-0.3c0-0.1,0.1-0.2,0.1-0.4c0-0.4-0.1-0.6-0.4-0.8s-0.6-0.2-1.1-0.2
			c-0.5,0-0.9,0.1-1.2,0.4c-0.1,0.2-0.2,0.4-0.3,0.7h-1c0-0.8,0.3-1.3,0.8-1.6c0.5-0.3,1-0.5,1.7-0.5c0.7,0,1.3,0.1,1.8,0.4
			c0.5,0.3,0.7,0.7,0.7,1.3v3.6c0,0.1,0,0.2,0.1,0.3s0.1,0.1,0.3,0.1c0,0,0.1,0,0.2,0s0.1,0,0.2,0v0.8c-0.2,0-0.3,0.1-0.4,0.1
			s-0.2,0-0.4,0c-0.4,0-0.6-0.1-0.8-0.4c-0.1-0.1-0.1-0.3-0.2-0.6c-0.2,0.3-0.5,0.5-0.9,0.7s-0.8,0.3-1.3,0.3
			c-0.6,0-1.1-0.2-1.4-0.5c-0.4-0.4-0.6-0.8-0.6-1.3c0-0.6,0.2-1,0.5-1.4c0.4-0.3,0.8-0.5,1.4-0.6L1000.8,873.3z M998.6,876.1
			c0.2,0.2,0.5,0.3,0.8,0.3c0.4,0,0.7-0.1,1.1-0.3c0.6-0.3,0.9-0.8,0.9-1.4v-0.8c-0.1,0.1-0.3,0.2-0.5,0.2c-0.2,0.1-0.4,0.1-0.6,0.1
			l-0.6,0.1c-0.4,0.1-0.7,0.1-0.9,0.2c-0.3,0.2-0.5,0.5-0.5,0.9C998.3,875.7,998.4,876,998.6,876.1z"/>
		<path class="st3" d="M1004.1,870.8h1v0.9c0.3-0.4,0.6-0.6,0.9-0.8s0.7-0.2,1.1-0.2c0.9,0,1.5,0.3,1.8,0.9c0.2,0.3,0.3,0.8,0.3,1.5
			v4h-1.1v-4c0-0.4-0.1-0.7-0.2-0.9c-0.2-0.4-0.5-0.6-1-0.6c-0.2,0-0.5,0-0.6,0.1c-0.3,0.1-0.5,0.3-0.8,0.5
			c-0.2,0.2-0.3,0.4-0.3,0.6s-0.1,0.5-0.1,0.9v3.3h-1.1V870.8z"/>
		<path class="st3" d="M1011.4,875.1c0,0.4,0.1,0.6,0.3,0.8c0.3,0.3,0.7,0.5,1.4,0.5c0.4,0,0.7-0.1,1.1-0.3c0.3-0.2,0.5-0.4,0.5-0.8
			c0-0.3-0.1-0.5-0.4-0.6c-0.2-0.1-0.5-0.2-0.9-0.3l-0.9-0.2c-0.5-0.1-0.9-0.3-1.2-0.4c-0.5-0.3-0.7-0.7-0.7-1.2
			c0-0.6,0.2-1.1,0.7-1.4s1-0.6,1.7-0.6c1,0,1.6,0.3,2.1,0.8c0.3,0.4,0.4,0.7,0.4,1.1h-1c0-0.2-0.1-0.5-0.3-0.6
			c-0.2-0.3-0.7-0.4-1.3-0.4c-0.4,0-0.7,0.1-0.9,0.2c-0.2,0.2-0.3,0.4-0.3,0.6c0,0.3,0.1,0.5,0.4,0.7c0.2,0.1,0.4,0.2,0.7,0.3
			l0.7,0.2c0.8,0.2,1.3,0.4,1.6,0.5c0.4,0.3,0.6,0.7,0.6,1.3c0,0.6-0.2,1-0.6,1.4s-1.1,0.6-2,0.6c-0.9,0-1.6-0.2-2-0.6
			s-0.6-0.9-0.6-1.6H1011.4z"/>
		<path class="st3" d="M1020.7,871c0.4,0.2,0.7,0.5,0.9,0.8c0.2,0.3,0.3,0.7,0.4,1.1c0.1,0.3,0.1,0.8,0.1,1.4h-4.6
			c0,0.6,0.2,1.2,0.4,1.5c0.3,0.4,0.7,0.6,1.3,0.6c0.5,0,1-0.2,1.3-0.5c0.2-0.2,0.3-0.5,0.4-0.7h1c0,0.2-0.1,0.5-0.3,0.8
			s-0.3,0.5-0.5,0.7c-0.3,0.3-0.7,0.5-1.2,0.6c-0.3,0.1-0.5,0.1-0.9,0.1c-0.8,0-1.4-0.3-2-0.9s-0.8-1.4-0.8-2.4c0-1,0.3-1.8,0.8-2.5
			s1.3-0.9,2.1-0.9C1019.8,870.7,1020.3,870.8,1020.7,871z M1021.1,873.4c0-0.5-0.1-0.8-0.3-1.1c-0.3-0.5-0.8-0.8-1.4-0.8
			c-0.5,0-0.9,0.2-1.2,0.5s-0.5,0.8-0.5,1.3H1021.1z"/>
		<path class="st3" d="M1023.5,870.8h1v0.9c0.3-0.4,0.6-0.6,0.9-0.8s0.7-0.2,1.1-0.2c0.9,0,1.5,0.3,1.8,0.9c0.2,0.3,0.3,0.8,0.3,1.5
			v4h-1.1v-4c0-0.4-0.1-0.7-0.2-0.9c-0.2-0.4-0.5-0.6-1-0.6c-0.2,0-0.5,0-0.6,0.1c-0.3,0.1-0.5,0.3-0.8,0.5
			c-0.2,0.2-0.3,0.4-0.3,0.6s-0.1,0.5-0.1,0.9v3.3h-1.1V870.8z"/>
	</g>
	<g class="st2">
		<path class="st3" d="M912.7,882.9c0.2-0.4,0.7-0.5,1.4-0.5c0.1,0,0.1,0,0.2,0s0.2,0,0.2,0v1c-0.1,0-0.2,0-0.2,0c0,0-0.1,0-0.1,0
			c-0.3,0-0.5,0.1-0.6,0.2s-0.1,0.6-0.1,1.3h1.1v0.8h-1.1v5.4h-1v-5.4h-0.9v-0.8h0.9v-1C912.5,883.4,912.5,883.1,912.7,882.9z"/>
		<path class="st3" d="M915.6,884.8h1v1.1c0.1-0.2,0.3-0.5,0.6-0.8s0.7-0.5,1.1-0.5c0,0,0.1,0,0.1,0s0.1,0,0.2,0v1.1
			c-0.1,0-0.1,0-0.2,0s-0.1,0-0.2,0c-0.5,0-0.9,0.2-1.2,0.5s-0.4,0.7-0.4,1.2v3.6h-1.1V884.8z"/>
		<path class="st3" d="M924.1,885.4c0.6,0.5,0.8,1.3,0.8,2.4c0,1-0.2,1.8-0.7,2.5c-0.5,0.7-1.2,1-2.3,1c-0.9,0-1.5-0.3-2-0.9
			c-0.5-0.6-0.8-1.4-0.8-2.4c0-1.1,0.3-1.9,0.8-2.5c0.5-0.6,1.2-0.9,2.1-0.9C922.8,884.6,923.5,884.9,924.1,885.4z M923.4,889.6
			c0.3-0.5,0.4-1.1,0.4-1.8c0-0.6-0.1-1.1-0.3-1.4c-0.3-0.6-0.8-0.9-1.5-0.9c-0.6,0-1.1,0.2-1.4,0.7c-0.3,0.5-0.4,1.1-0.4,1.8
			c0,0.7,0.1,1.2,0.4,1.7c0.3,0.4,0.7,0.7,1.4,0.7C922.7,890.4,923.2,890.1,923.4,889.6z"/>
		<path class="st3" d="M926.2,884.8h1v0.9c0.2-0.3,0.5-0.5,0.7-0.7c0.3-0.2,0.7-0.4,1.2-0.4c0.5,0,0.9,0.1,1.2,0.4
			c0.2,0.1,0.3,0.3,0.5,0.6c0.2-0.3,0.5-0.6,0.8-0.7s0.7-0.2,1.1-0.2c0.8,0,1.4,0.3,1.7,0.9c0.2,0.3,0.2,0.8,0.2,1.3v4.2h-1.1v-4.4
			c0-0.4-0.1-0.7-0.3-0.9s-0.5-0.2-0.8-0.2c-0.4,0-0.8,0.1-1.1,0.4s-0.4,0.7-0.4,1.4v3.7h-1.1V887c0-0.4-0.1-0.7-0.2-0.9
			c-0.2-0.3-0.5-0.4-0.9-0.4c-0.4,0-0.8,0.2-1.1,0.5s-0.5,0.9-0.5,1.7v3.3h-1.1V884.8z"/>
		<path class="st3" d="M945.7,882.5v1h-2.9v7.6h-1.2v-7.6h-2.9v-1H945.7z"/>
		<path class="st3" d="M949.9,885.4c0.6,0.5,0.8,1.3,0.8,2.4c0,1-0.2,1.8-0.7,2.5c-0.5,0.7-1.2,1-2.3,1c-0.9,0-1.5-0.3-2-0.9
			c-0.5-0.6-0.8-1.4-0.8-2.4c0-1.1,0.3-1.9,0.8-2.5c0.5-0.6,1.2-0.9,2.1-0.9C948.6,884.6,949.3,884.9,949.9,885.4z M949.2,889.6
			c0.3-0.5,0.4-1.1,0.4-1.8c0-0.6-0.1-1.1-0.3-1.4c-0.3-0.6-0.8-0.9-1.5-0.9c-0.6,0-1.1,0.2-1.4,0.7c-0.3,0.5-0.4,1.1-0.4,1.8
			c0,0.7,0.1,1.2,0.4,1.7c0.3,0.4,0.7,0.7,1.4,0.7C948.5,890.4,949,890.1,949.2,889.6z"/>
		<path class="st3" d="M952,882.5h1v5l2.7-2.7h1.3l-2.4,2.3l2.5,3.9h-1.3l-2-3.2l-0.9,0.8v2.4h-1V882.5z"/>
		<path class="st3" d="M961.9,884.8h1.2c-0.1,0.4-0.5,1.3-1,2.8c-0.4,1.1-0.7,2-1,2.6c-0.6,1.6-1,2.6-1.3,2.9
			c-0.2,0.4-0.7,0.5-1.3,0.5c-0.1,0-0.3,0-0.3,0c-0.1,0-0.2,0-0.3-0.1v-1c0.2,0.1,0.3,0.1,0.4,0.1c0.1,0,0.2,0,0.2,0
			c0.2,0,0.3,0,0.4-0.1c0.1-0.1,0.2-0.1,0.2-0.2c0,0,0.1-0.2,0.2-0.5c0.1-0.3,0.2-0.5,0.3-0.6l-2.3-6.5h1.2l1.7,5.1L961.9,884.8z"/>
		<path class="st3" d="M968.5,885.4c0.6,0.5,0.8,1.3,0.8,2.4c0,1-0.2,1.8-0.7,2.5c-0.5,0.7-1.2,1-2.3,1c-0.9,0-1.5-0.3-2-0.9
			c-0.5-0.6-0.8-1.4-0.8-2.4c0-1.1,0.3-1.9,0.8-2.5c0.5-0.6,1.2-0.9,2.1-0.9C967.3,884.6,968,884.9,968.5,885.4z M967.9,889.6
			c0.3-0.5,0.4-1.1,0.4-1.8c0-0.6-0.1-1.1-0.3-1.4c-0.3-0.6-0.8-0.9-1.5-0.9c-0.6,0-1.1,0.2-1.4,0.7c-0.3,0.5-0.4,1.1-0.4,1.8
			c0,0.7,0.1,1.2,0.4,1.7c0.3,0.4,0.7,0.7,1.4,0.7C967.2,890.4,967.6,890.1,967.9,889.6z"/>
		<path class="st3" d="M974.6,889.1c0,0.4,0.1,0.6,0.3,0.8c0.3,0.3,0.7,0.5,1.4,0.5c0.4,0,0.7-0.1,1.1-0.3c0.3-0.2,0.5-0.4,0.5-0.8
			c0-0.3-0.1-0.5-0.4-0.6c-0.2-0.1-0.5-0.2-0.9-0.3l-0.9-0.2c-0.5-0.1-0.9-0.3-1.2-0.4c-0.5-0.3-0.7-0.7-0.7-1.2
			c0-0.6,0.2-1.1,0.7-1.4s1-0.6,1.7-0.6c1,0,1.6,0.3,2.1,0.8c0.3,0.4,0.4,0.7,0.4,1.1h-1c0-0.2-0.1-0.5-0.3-0.6
			c-0.2-0.3-0.7-0.4-1.3-0.4c-0.4,0-0.7,0.1-0.9,0.2c-0.2,0.2-0.3,0.4-0.3,0.6c0,0.3,0.1,0.5,0.4,0.7c0.2,0.1,0.4,0.2,0.7,0.3
			l0.7,0.2c0.8,0.2,1.3,0.4,1.6,0.5c0.4,0.3,0.6,0.7,0.6,1.3c0,0.6-0.2,1-0.6,1.4s-1.1,0.6-2,0.6c-0.9,0-1.6-0.2-2-0.6
			s-0.6-0.9-0.6-1.6H974.6z"/>
		<path class="st3" d="M980.2,883.1h1.1v1.8h1v0.9h-1v4.1c0,0.2,0.1,0.4,0.2,0.4c0.1,0,0.2,0.1,0.4,0.1c0.1,0,0.1,0,0.2,0
			s0.1,0,0.2,0v0.8c-0.1,0-0.2,0.1-0.4,0.1s-0.3,0-0.4,0c-0.5,0-0.8-0.1-1-0.4s-0.3-0.6-0.3-1v-4.2h-0.8v-0.9h0.8V883.1z"/>
		<path class="st3" d="M986.7,887.3c0.2,0,0.4-0.1,0.5-0.3c0-0.1,0.1-0.2,0.1-0.4c0-0.4-0.1-0.6-0.4-0.8s-0.6-0.2-1.1-0.2
			c-0.5,0-0.9,0.1-1.2,0.4c-0.1,0.2-0.2,0.4-0.3,0.7h-1c0-0.8,0.3-1.3,0.8-1.6c0.5-0.3,1-0.5,1.7-0.5c0.7,0,1.3,0.1,1.8,0.4
			c0.5,0.3,0.7,0.7,0.7,1.3v3.6c0,0.1,0,0.2,0.1,0.3s0.1,0.1,0.3,0.1c0,0,0.1,0,0.2,0s0.1,0,0.2,0v0.8c-0.2,0-0.3,0.1-0.4,0.1
			s-0.2,0-0.4,0c-0.4,0-0.6-0.1-0.8-0.4c-0.1-0.1-0.1-0.3-0.2-0.6c-0.2,0.3-0.5,0.5-0.9,0.7s-0.8,0.3-1.3,0.3
			c-0.6,0-1.1-0.2-1.4-0.5c-0.4-0.4-0.6-0.8-0.6-1.3c0-0.6,0.2-1,0.5-1.4c0.4-0.3,0.8-0.5,1.4-0.6L986.7,887.3z M984.5,890.1
			c0.2,0.2,0.5,0.3,0.8,0.3c0.4,0,0.7-0.1,1.1-0.3c0.6-0.3,0.9-0.8,0.9-1.4v-0.8c-0.1,0.1-0.3,0.2-0.5,0.2c-0.2,0.1-0.4,0.1-0.6,0.1
			l-0.6,0.1c-0.4,0.1-0.7,0.1-0.9,0.2c-0.3,0.2-0.5,0.5-0.5,0.9C984.1,889.7,984.3,890,984.5,890.1z"/>
		<path class="st3" d="M990.2,883.1h1.1v1.8h1v0.9h-1v4.1c0,0.2,0.1,0.4,0.2,0.4c0.1,0,0.2,0.1,0.4,0.1c0.1,0,0.1,0,0.2,0
			s0.1,0,0.2,0v0.8c-0.1,0-0.2,0.1-0.4,0.1s-0.3,0-0.4,0c-0.5,0-0.8-0.1-1-0.4s-0.3-0.6-0.3-1v-4.2h-0.8v-0.9h0.8V883.1z"/>
		<path class="st3" d="M993.3,882.5h1.1v1.2h-1.1V882.5z M993.3,884.8h1.1v6.2h-1.1V884.8z"/>
		<path class="st3" d="M1000.6,885.4c0.6,0.5,0.8,1.3,0.8,2.4c0,1-0.2,1.8-0.7,2.5c-0.5,0.7-1.2,1-2.3,1c-0.9,0-1.5-0.3-2-0.9
			c-0.5-0.6-0.8-1.4-0.8-2.4c0-1.1,0.3-1.9,0.8-2.5c0.5-0.6,1.2-0.9,2.1-0.9C999.3,884.6,1000,884.9,1000.6,885.4z M999.9,889.6
			c0.3-0.5,0.4-1.1,0.4-1.8c0-0.6-0.1-1.1-0.3-1.4c-0.3-0.6-0.8-0.9-1.5-0.9c-0.6,0-1.1,0.2-1.4,0.7c-0.3,0.5-0.4,1.1-0.4,1.8
			c0,0.7,0.1,1.2,0.4,1.7c0.3,0.4,0.7,0.7,1.4,0.7C999.2,890.4,999.6,890.1,999.9,889.6z"/>
		<path class="st3" d="M1002.7,884.8h1v0.9c0.3-0.4,0.6-0.6,0.9-0.8s0.7-0.2,1.1-0.2c0.9,0,1.5,0.3,1.8,0.9c0.2,0.3,0.3,0.8,0.3,1.5
			v4h-1.1v-4c0-0.4-0.1-0.7-0.2-0.9c-0.2-0.4-0.5-0.6-1-0.6c-0.2,0-0.5,0-0.6,0.1c-0.3,0.1-0.5,0.3-0.8,0.5
			c-0.2,0.2-0.3,0.4-0.3,0.6s-0.1,0.5-0.1,0.9v3.3h-1.1V884.8z"/>
	</g>
	<g class="st2">
		<path class="st3" d="M903.4,950h1.3l3.1,8.6h-1.3l-0.9-2.6h-3.4l-0.9,2.6h-1.2L903.4,950z M905.3,955.1l-1.3-3.8l-1.4,3.8H905.3z"
			/>
		<path class="st3" d="M908.8,952.3h1v1.1c0.1-0.2,0.3-0.5,0.6-0.8s0.7-0.5,1.1-0.5c0,0,0.1,0,0.1,0s0.1,0,0.2,0v1.1
			c-0.1,0-0.1,0-0.2,0s-0.1,0-0.2,0c-0.5,0-0.9,0.2-1.2,0.5s-0.4,0.7-0.4,1.2v3.6h-1.1V952.3z"/>
		<path class="st3" d="M912.8,952.3h1v1.1c0.1-0.2,0.3-0.5,0.6-0.8s0.7-0.5,1.1-0.5c0,0,0.1,0,0.1,0s0.1,0,0.2,0v1.1
			c-0.1,0-0.1,0-0.2,0s-0.1,0-0.2,0c-0.5,0-0.9,0.2-1.2,0.5s-0.4,0.7-0.4,1.2v3.6h-1.1V952.3z"/>
		<path class="st3" d="M916.7,950h1.1v1.2h-1.1V950z M916.7,952.3h1.1v6.2h-1.1V952.3z"/>
		<path class="st3" d="M919.9,952.3l1.7,5.1l1.7-5.1h1.2l-2.4,6.3H921l-2.3-6.3H919.9z"/>
		<path class="st3" d="M928.8,954.8c0.2,0,0.4-0.1,0.5-0.3c0-0.1,0.1-0.2,0.1-0.4c0-0.4-0.1-0.6-0.4-0.8c-0.3-0.2-0.6-0.2-1.1-0.2
			c-0.5,0-0.9,0.1-1.2,0.4c-0.1,0.2-0.2,0.4-0.3,0.7h-1c0-0.8,0.3-1.3,0.8-1.6s1-0.5,1.7-0.5c0.7,0,1.3,0.1,1.8,0.4
			c0.5,0.3,0.7,0.7,0.7,1.3v3.6c0,0.1,0,0.2,0.1,0.3s0.1,0.1,0.3,0.1c0,0,0.1,0,0.2,0s0.1,0,0.2,0v0.8c-0.2,0-0.3,0.1-0.4,0.1
			s-0.2,0-0.4,0c-0.4,0-0.6-0.1-0.8-0.4c-0.1-0.1-0.1-0.3-0.2-0.6c-0.2,0.3-0.5,0.5-0.9,0.7s-0.8,0.3-1.3,0.3
			c-0.6,0-1.1-0.2-1.4-0.5c-0.4-0.4-0.6-0.8-0.6-1.3c0-0.6,0.2-1,0.5-1.4c0.4-0.3,0.8-0.5,1.4-0.6L928.8,954.8z M926.5,957.6
			c0.2,0.2,0.5,0.3,0.8,0.3c0.4,0,0.7-0.1,1.1-0.3c0.6-0.3,0.9-0.8,0.9-1.4v-0.8c-0.1,0.1-0.3,0.2-0.5,0.2s-0.4,0.1-0.6,0.1
			l-0.6,0.1c-0.4,0.1-0.7,0.1-0.9,0.2c-0.3,0.2-0.5,0.5-0.5,0.9C926.2,957.2,926.3,957.5,926.5,957.6z"/>
		<path class="st3" d="M932.1,950h1.1v8.6h-1.1V950z"/>
		<path class="st3" d="M941.4,954.8c0.2,0,0.4-0.1,0.5-0.3c0-0.1,0.1-0.2,0.1-0.4c0-0.4-0.1-0.6-0.4-0.8c-0.3-0.2-0.6-0.2-1.1-0.2
			c-0.5,0-0.9,0.1-1.2,0.4c-0.1,0.2-0.2,0.4-0.3,0.7h-1c0-0.8,0.3-1.3,0.8-1.6s1-0.5,1.7-0.5c0.7,0,1.3,0.1,1.8,0.4
			c0.5,0.3,0.7,0.7,0.7,1.3v3.6c0,0.1,0,0.2,0.1,0.3s0.1,0.1,0.3,0.1c0,0,0.1,0,0.2,0s0.1,0,0.2,0v0.8c-0.2,0-0.3,0.1-0.4,0.1
			s-0.2,0-0.4,0c-0.4,0-0.6-0.1-0.8-0.4c-0.1-0.1-0.1-0.3-0.2-0.6c-0.2,0.3-0.5,0.5-0.9,0.7s-0.8,0.3-1.3,0.3
			c-0.6,0-1.1-0.2-1.4-0.5c-0.4-0.4-0.6-0.8-0.6-1.3c0-0.6,0.2-1,0.5-1.4c0.4-0.3,0.8-0.5,1.4-0.6L941.4,954.8z M939.2,957.6
			c0.2,0.2,0.5,0.3,0.8,0.3c0.4,0,0.7-0.1,1.1-0.3c0.6-0.3,0.9-0.8,0.9-1.4v-0.8c-0.1,0.1-0.3,0.2-0.5,0.2s-0.4,0.1-0.6,0.1
			l-0.6,0.1c-0.4,0.1-0.7,0.1-0.9,0.2c-0.3,0.2-0.5,0.5-0.5,0.9C938.9,957.2,939,957.5,939.2,957.6z"/>
		<path class="st3" d="M945,950.6h1.1v1.8h1v0.9h-1v4.1c0,0.2,0.1,0.4,0.2,0.4c0.1,0,0.2,0.1,0.4,0.1c0.1,0,0.1,0,0.2,0s0.1,0,0.2,0
			v0.8c-0.1,0-0.2,0.1-0.4,0.1s-0.3,0-0.4,0c-0.5,0-0.8-0.1-1-0.4s-0.3-0.6-0.3-1v-4.2h-0.8v-0.9h0.8V950.6z"/>
		<path class="st3" d="M952.8,950v5.3c0,0.6,0.1,1.1,0.4,1.6c0.4,0.6,0.9,0.9,1.8,0.9c1,0,1.7-0.3,2-1c0.2-0.4,0.3-0.9,0.3-1.5V950
			h1.2v4.8c0,1.1-0.1,1.9-0.4,2.4c-0.5,1-1.5,1.6-3,1.6s-2.4-0.5-3-1.6c-0.3-0.6-0.4-1.4-0.4-2.4V950H952.8z"/>
		<path class="st3" d="M964,952.5c0.4,0.2,0.7,0.5,0.9,0.8c0.2,0.3,0.3,0.7,0.4,1.1c0.1,0.3,0.1,0.8,0.1,1.4h-4.6
			c0,0.6,0.2,1.2,0.4,1.5c0.3,0.4,0.7,0.6,1.3,0.6c0.5,0,1-0.2,1.3-0.5c0.2-0.2,0.3-0.5,0.4-0.7h1c0,0.2-0.1,0.5-0.3,0.8
			s-0.3,0.5-0.5,0.7c-0.3,0.3-0.7,0.5-1.2,0.6c-0.3,0.1-0.5,0.1-0.9,0.1c-0.8,0-1.4-0.3-2-0.9c-0.5-0.6-0.8-1.4-0.8-2.4
			c0-1,0.3-1.8,0.8-2.5c0.5-0.6,1.3-0.9,2.1-0.9C963.1,952.2,963.5,952.3,964,952.5z M964.3,954.9c0-0.5-0.1-0.8-0.3-1.1
			c-0.3-0.5-0.8-0.8-1.4-0.8c-0.5,0-0.9,0.2-1.2,0.5s-0.5,0.8-0.5,1.3H964.3z"/>
		<path class="st3" d="M970.2,952.5c0.2,0.1,0.4,0.3,0.6,0.6v-3.2h1v8.6h-0.9v-0.9c-0.2,0.4-0.5,0.7-0.9,0.8
			c-0.3,0.2-0.7,0.3-1.2,0.3c-0.7,0-1.3-0.3-1.8-0.9s-0.8-1.4-0.8-2.3c0-0.9,0.2-1.7,0.7-2.4c0.5-0.7,1.1-1,2-1
			C969.5,952.2,969.9,952.3,970.2,952.5z M967.9,957.2c0.3,0.5,0.7,0.7,1.4,0.7c0.5,0,0.9-0.2,1.2-0.6c0.3-0.4,0.5-1,0.5-1.8
			c0-0.8-0.2-1.4-0.5-1.8c-0.3-0.4-0.7-0.6-1.2-0.6c-0.5,0-1,0.2-1.3,0.6c-0.3,0.4-0.5,1-0.5,1.8
			C967.4,956.2,967.6,956.7,967.9,957.2z"/>
		<path class="st3" d="M976.8,954.8c0.2,0,0.4-0.1,0.5-0.3c0-0.1,0.1-0.2,0.1-0.4c0-0.4-0.1-0.6-0.4-0.8s-0.6-0.2-1.1-0.2
			c-0.5,0-0.9,0.1-1.2,0.4c-0.1,0.2-0.2,0.4-0.3,0.7h-1c0-0.8,0.3-1.3,0.8-1.6c0.5-0.3,1-0.5,1.7-0.5c0.7,0,1.3,0.1,1.8,0.4
			c0.5,0.3,0.7,0.7,0.7,1.3v3.6c0,0.1,0,0.2,0.1,0.3s0.1,0.1,0.3,0.1c0,0,0.1,0,0.2,0s0.1,0,0.2,0v0.8c-0.2,0-0.3,0.1-0.4,0.1
			s-0.2,0-0.4,0c-0.4,0-0.6-0.1-0.8-0.4c-0.1-0.1-0.1-0.3-0.2-0.6c-0.2,0.3-0.5,0.5-0.9,0.7s-0.8,0.3-1.3,0.3
			c-0.6,0-1.1-0.2-1.4-0.5c-0.4-0.4-0.6-0.8-0.6-1.3c0-0.6,0.2-1,0.5-1.4c0.4-0.3,0.8-0.5,1.4-0.6L976.8,954.8z M974.6,957.6
			c0.2,0.2,0.5,0.3,0.8,0.3c0.4,0,0.7-0.1,1.1-0.3c0.6-0.3,0.9-0.8,0.9-1.4v-0.8c-0.1,0.1-0.3,0.2-0.5,0.2c-0.2,0.1-0.4,0.1-0.6,0.1
			l-0.6,0.1c-0.4,0.1-0.7,0.1-0.9,0.2c-0.3,0.2-0.5,0.5-0.5,0.9C974.2,957.2,974.4,957.5,974.6,957.6z"/>
		<path class="st3" d="M984.3,955.8c0,0.5,0.1,0.9,0.3,1.2c0.4,0.6,1,0.9,2,0.9c0.4,0,0.8-0.1,1.2-0.2c0.7-0.2,1-0.7,1-1.3
			c0-0.5-0.1-0.8-0.4-1c-0.3-0.2-0.7-0.4-1.4-0.5l-1.1-0.3c-0.7-0.2-1.3-0.4-1.6-0.6c-0.5-0.4-0.8-0.9-0.8-1.6
			c0-0.8,0.3-1.4,0.8-1.9s1.3-0.7,2.2-0.7c0.9,0,1.6,0.2,2.2,0.7c0.6,0.4,0.9,1.1,0.9,2.1h-1.1c-0.1-0.5-0.2-0.8-0.4-1.1
			c-0.3-0.4-0.9-0.7-1.7-0.7c-0.7,0-1.1,0.1-1.4,0.4s-0.4,0.6-0.4,1c0,0.4,0.2,0.7,0.5,0.9c0.2,0.1,0.7,0.3,1.5,0.5l1.2,0.3
			c0.6,0.1,1,0.3,1.3,0.5c0.5,0.4,0.8,1,0.8,1.8c0,1-0.3,1.6-1,2c-0.7,0.4-1.5,0.6-2.4,0.6c-1,0-1.9-0.3-2.5-0.8
			c-0.6-0.5-0.9-1.3-0.9-2.2H984.3z"/>
		<path class="st3" d="M991.7,950.6h1.1v1.8h1v0.9h-1v4.1c0,0.2,0.1,0.4,0.2,0.4c0.1,0,0.2,0.1,0.4,0.1c0.1,0,0.1,0,0.2,0
			s0.1,0,0.2,0v0.8c-0.1,0-0.2,0.1-0.4,0.1s-0.3,0-0.4,0c-0.5,0-0.8-0.1-1-0.4s-0.3-0.6-0.3-1v-4.2h-0.8v-0.9h0.8V950.6z"/>
		<path class="st3" d="M998.1,954.8c0.2,0,0.4-0.1,0.5-0.3c0-0.1,0.1-0.2,0.1-0.4c0-0.4-0.1-0.6-0.4-0.8s-0.6-0.2-1.1-0.2
			c-0.5,0-0.9,0.1-1.2,0.4c-0.1,0.2-0.2,0.4-0.3,0.7h-1c0-0.8,0.3-1.3,0.8-1.6c0.5-0.3,1-0.5,1.7-0.5c0.7,0,1.3,0.1,1.8,0.4
			c0.5,0.3,0.7,0.7,0.7,1.3v3.6c0,0.1,0,0.2,0.1,0.3s0.1,0.1,0.3,0.1c0,0,0.1,0,0.2,0s0.1,0,0.2,0v0.8c-0.2,0-0.3,0.1-0.4,0.1
			s-0.2,0-0.4,0c-0.4,0-0.6-0.1-0.8-0.4c-0.1-0.1-0.1-0.3-0.2-0.6c-0.2,0.3-0.5,0.5-0.9,0.7s-0.8,0.3-1.3,0.3
			c-0.6,0-1.1-0.2-1.4-0.5c-0.4-0.4-0.6-0.8-0.6-1.3c0-0.6,0.2-1,0.5-1.4c0.4-0.3,0.8-0.5,1.4-0.6L998.1,954.8z M995.9,957.6
			c0.2,0.2,0.5,0.3,0.8,0.3c0.4,0,0.7-0.1,1.1-0.3c0.6-0.3,0.9-0.8,0.9-1.4v-0.8c-0.1,0.1-0.3,0.2-0.5,0.2c-0.2,0.1-0.4,0.1-0.6,0.1
			l-0.6,0.1c-0.4,0.1-0.7,0.1-0.9,0.2c-0.3,0.2-0.5,0.5-0.5,0.9C995.6,957.2,995.7,957.5,995.9,957.6z"/>
		<path class="st3" d="M1001.7,950.6h1.1v1.8h1v0.9h-1v4.1c0,0.2,0.1,0.4,0.2,0.4c0.1,0,0.2,0.1,0.4,0.1c0.1,0,0.1,0,0.2,0
			s0.1,0,0.2,0v0.8c-0.1,0-0.2,0.1-0.4,0.1s-0.3,0-0.4,0c-0.5,0-0.8-0.1-1-0.4s-0.3-0.6-0.3-1v-4.2h-0.8v-0.9h0.8V950.6z"/>
		<path class="st3" d="M1004.8,950h1.1v1.2h-1.1V950z M1004.8,952.3h1.1v6.2h-1.1V952.3z"/>
		<path class="st3" d="M1012,952.9c0.6,0.5,0.8,1.3,0.8,2.4c0,1-0.2,1.8-0.7,2.5c-0.5,0.7-1.2,1-2.3,1c-0.9,0-1.5-0.3-2-0.9
			c-0.5-0.6-0.8-1.4-0.8-2.4c0-1.1,0.3-1.9,0.8-2.5c0.5-0.6,1.2-0.9,2.1-0.9C1010.8,952.1,1011.4,952.4,1012,952.9z M1011.3,957.1
			c0.3-0.5,0.4-1.1,0.4-1.8c0-0.6-0.1-1.1-0.3-1.4c-0.3-0.6-0.8-0.9-1.5-0.9c-0.6,0-1.1,0.2-1.4,0.7c-0.3,0.5-0.4,1.1-0.4,1.8
			c0,0.7,0.1,1.2,0.4,1.7c0.3,0.4,0.7,0.7,1.4,0.7C1010.6,957.9,1011.1,957.6,1011.3,957.1z"/>
		<path class="st3" d="M1014.1,952.3h1v0.9c0.3-0.4,0.6-0.6,0.9-0.8s0.7-0.2,1.1-0.2c0.9,0,1.5,0.3,1.8,0.9c0.2,0.3,0.3,0.8,0.3,1.5
			v4h-1.1v-4c0-0.4-0.1-0.7-0.2-0.9c-0.2-0.4-0.5-0.6-1-0.6c-0.2,0-0.5,0-0.6,0.1c-0.3,0.1-0.5,0.3-0.8,0.5
			c-0.2,0.2-0.3,0.4-0.3,0.6s-0.1,0.5-0.1,0.9v3.3h-1.1V952.3z"/>
	</g>
	<g class="st2">
		<path class="st3" d="M892,964v1h-2.9v7.6h-1.2V965H885v-1H892z"/>
		<path class="st3" d="M892.5,966.3h1v1.1c0.1-0.2,0.3-0.5,0.6-0.8s0.7-0.5,1.1-0.5c0,0,0.1,0,0.1,0s0.1,0,0.2,0v1.1
			c-0.1,0-0.1,0-0.2,0s-0.1,0-0.2,0c-0.5,0-0.9,0.2-1.2,0.5s-0.4,0.7-0.4,1.2v3.6h-1.1V966.3z"/>
		<path class="st3" d="M899.9,968.8c0.2,0,0.4-0.1,0.5-0.3c0-0.1,0.1-0.2,0.1-0.4c0-0.4-0.1-0.6-0.4-0.8c-0.3-0.2-0.6-0.2-1.1-0.2
			c-0.5,0-0.9,0.1-1.2,0.4c-0.1,0.2-0.2,0.4-0.3,0.7h-1c0-0.8,0.3-1.3,0.8-1.6s1-0.5,1.7-0.5c0.7,0,1.3,0.1,1.8,0.4
			c0.5,0.3,0.7,0.7,0.7,1.3v3.6c0,0.1,0,0.2,0.1,0.3s0.1,0.1,0.3,0.1c0,0,0.1,0,0.2,0s0.1,0,0.2,0v0.8c-0.2,0-0.3,0.1-0.4,0.1
			s-0.2,0-0.4,0c-0.4,0-0.6-0.1-0.8-0.4c-0.1-0.1-0.1-0.3-0.2-0.6c-0.2,0.3-0.5,0.5-0.9,0.7s-0.8,0.3-1.3,0.3
			c-0.6,0-1.1-0.2-1.4-0.5c-0.4-0.4-0.6-0.8-0.6-1.3c0-0.6,0.2-1,0.5-1.4c0.4-0.3,0.8-0.5,1.4-0.6L899.9,968.8z M897.7,971.6
			c0.2,0.2,0.5,0.3,0.8,0.3c0.4,0,0.7-0.1,1.1-0.3c0.6-0.3,0.9-0.8,0.9-1.4v-0.8c-0.1,0.1-0.3,0.2-0.5,0.2s-0.4,0.1-0.6,0.1
			l-0.6,0.1c-0.4,0.1-0.7,0.1-0.9,0.2c-0.3,0.2-0.5,0.5-0.5,0.9C897.3,971.2,897.4,971.5,897.7,971.6z"/>
		<path class="st3" d="M903.2,966.3h1v0.9c0.3-0.4,0.6-0.6,0.9-0.8s0.7-0.2,1.1-0.2c0.9,0,1.5,0.3,1.8,0.9c0.2,0.3,0.3,0.8,0.3,1.5
			v4h-1.1v-4c0-0.4-0.1-0.7-0.2-0.9c-0.2-0.4-0.5-0.6-1-0.6c-0.2,0-0.5,0-0.6,0.1c-0.3,0.1-0.5,0.3-0.8,0.5
			c-0.2,0.2-0.3,0.4-0.3,0.6s-0.1,0.5-0.1,0.9v3.3h-1.1V966.3z"/>
		<path class="st3" d="M910.5,970.6c0,0.4,0.1,0.6,0.3,0.8c0.3,0.3,0.7,0.5,1.4,0.5c0.4,0,0.7-0.1,1.1-0.3s0.5-0.4,0.5-0.8
			c0-0.3-0.1-0.5-0.4-0.6c-0.2-0.1-0.5-0.2-0.9-0.3l-0.9-0.2c-0.5-0.1-0.9-0.3-1.2-0.4c-0.5-0.3-0.7-0.7-0.7-1.2
			c0-0.6,0.2-1.1,0.7-1.4c0.4-0.4,1-0.6,1.7-0.6c1,0,1.6,0.3,2.1,0.8c0.3,0.4,0.4,0.7,0.4,1.1h-1c0-0.2-0.1-0.5-0.3-0.6
			c-0.2-0.3-0.7-0.4-1.3-0.4c-0.4,0-0.7,0.1-0.9,0.2c-0.2,0.2-0.3,0.4-0.3,0.6c0,0.3,0.1,0.5,0.4,0.7c0.2,0.1,0.4,0.2,0.7,0.3
			l0.7,0.2c0.8,0.2,1.3,0.4,1.6,0.5c0.4,0.3,0.6,0.7,0.6,1.3c0,0.6-0.2,1-0.6,1.4c-0.4,0.4-1.1,0.6-2,0.6c-0.9,0-1.6-0.2-2-0.6
			s-0.6-0.9-0.6-1.6H910.5z"/>
		<path class="st3" d="M916.4,964.4c0.2-0.4,0.7-0.5,1.4-0.5c0.1,0,0.1,0,0.2,0s0.2,0,0.2,0v1c-0.1,0-0.2,0-0.2,0c0,0-0.1,0-0.1,0
			c-0.3,0-0.5,0.1-0.6,0.2s-0.1,0.6-0.1,1.3h1.1v0.8h-1.1v5.4h-1v-5.4h-0.9v-0.8h0.9v-1C916.1,964.9,916.2,964.6,916.4,964.4z"/>
		<path class="st3" d="M923.1,966.5c0.4,0.2,0.7,0.5,0.9,0.8c0.2,0.3,0.3,0.7,0.4,1.1c0.1,0.3,0.1,0.8,0.1,1.4H920
			c0,0.6,0.2,1.2,0.4,1.5c0.3,0.4,0.7,0.6,1.3,0.6c0.5,0,1-0.2,1.3-0.5c0.2-0.2,0.3-0.5,0.4-0.7h1c0,0.2-0.1,0.5-0.3,0.8
			s-0.3,0.5-0.5,0.7c-0.3,0.3-0.7,0.5-1.2,0.6c-0.3,0.1-0.5,0.1-0.9,0.1c-0.8,0-1.4-0.3-2-0.9c-0.5-0.6-0.8-1.4-0.8-2.4
			c0-1,0.3-1.8,0.8-2.5c0.5-0.6,1.3-0.9,2.1-0.9C922.2,966.2,922.7,966.3,923.1,966.5z M923.4,968.9c0-0.5-0.1-0.8-0.3-1.1
			c-0.3-0.5-0.8-0.8-1.4-0.8c-0.5,0-0.9,0.2-1.2,0.5s-0.5,0.8-0.5,1.3H923.4z"/>
		<path class="st3" d="M925.9,966.3h1v1.1c0.1-0.2,0.3-0.5,0.6-0.8s0.7-0.5,1.1-0.5c0,0,0.1,0,0.1,0s0.1,0,0.2,0v1.1
			c-0.1,0-0.1,0-0.2,0s-0.1,0-0.2,0c-0.5,0-0.9,0.2-1.2,0.5s-0.4,0.7-0.4,1.2v3.6h-1.1V966.3z"/>
		<path class="st3" d="M933.4,964.6h1.1v1.8h1v0.9h-1v4.1c0,0.2,0.1,0.4,0.2,0.4c0.1,0,0.2,0.1,0.4,0.1c0.1,0,0.1,0,0.2,0
			s0.1,0,0.2,0v0.8c-0.1,0-0.2,0.1-0.4,0.1s-0.3,0-0.4,0c-0.5,0-0.8-0.1-1-0.4s-0.3-0.6-0.3-1v-4.2h-0.8v-0.9h0.8V964.6z"/>
		<path class="st3" d="M941.1,966.9c0.6,0.5,0.8,1.3,0.8,2.4c0,1-0.2,1.8-0.7,2.5c-0.5,0.7-1.2,1-2.3,1c-0.9,0-1.5-0.3-2-0.9
			c-0.5-0.6-0.8-1.4-0.8-2.4c0-1.1,0.3-1.9,0.8-2.5c0.5-0.6,1.2-0.9,2.1-0.9C939.8,966.1,940.5,966.4,941.1,966.9z M940.4,971.1
			c0.3-0.5,0.4-1.1,0.4-1.8c0-0.6-0.1-1.1-0.3-1.4c-0.3-0.6-0.8-0.9-1.5-0.9c-0.6,0-1.1,0.2-1.4,0.7c-0.3,0.5-0.4,1.1-0.4,1.8
			c0,0.7,0.1,1.2,0.4,1.7c0.3,0.4,0.7,0.7,1.4,0.7C939.7,971.9,940.2,971.6,940.4,971.1z"/>
		<path class="st3" d="M947.4,969.8c0,0.5,0.1,0.9,0.3,1.2c0.4,0.6,1,0.9,2,0.9c0.4,0,0.8-0.1,1.2-0.2c0.7-0.2,1-0.7,1-1.3
			c0-0.5-0.1-0.8-0.4-1c-0.3-0.2-0.7-0.4-1.4-0.5l-1.1-0.3c-0.7-0.2-1.3-0.4-1.6-0.6c-0.5-0.4-0.8-0.9-0.8-1.6
			c0-0.8,0.3-1.4,0.8-1.9c0.5-0.5,1.3-0.7,2.2-0.7c0.9,0,1.6,0.2,2.2,0.7s0.9,1.1,0.9,2.1h-1.1c-0.1-0.5-0.2-0.8-0.4-1.1
			c-0.3-0.4-0.9-0.7-1.7-0.7c-0.7,0-1.1,0.1-1.4,0.4c-0.3,0.3-0.4,0.6-0.4,1c0,0.4,0.2,0.7,0.5,0.9c0.2,0.1,0.7,0.3,1.5,0.5l1.2,0.3
			c0.6,0.1,1,0.3,1.3,0.5c0.5,0.4,0.8,1,0.8,1.8c0,1-0.3,1.6-1,2s-1.5,0.6-2.4,0.6c-1,0-1.9-0.3-2.5-0.8c-0.6-0.5-0.9-1.3-0.9-2.2
			H947.4z"/>
		<path class="st3" d="M954.5,963.9h1.1v3.2c0.2-0.3,0.5-0.5,0.7-0.7c0.3-0.2,0.8-0.3,1.3-0.3c0.9,0,1.5,0.3,1.9,1
			c0.2,0.3,0.3,0.8,0.3,1.4v4h-1.1v-4c0-0.5-0.1-0.8-0.2-1c-0.2-0.3-0.6-0.5-1.1-0.5c-0.4,0-0.8,0.2-1.2,0.5s-0.5,0.9-0.5,1.7v3.3
			h-1.1V963.9z"/>
		<path class="st3" d="M961.2,964h1.1v1.2h-1.1V964z M961.2,966.3h1.1v6.2h-1.1V966.3z"/>
		<path class="st3" d="M963.9,966.3h1v0.9c0.3-0.4,0.6-0.6,0.9-0.8s0.7-0.2,1.1-0.2c0.9,0,1.5,0.3,1.8,0.9c0.2,0.3,0.3,0.8,0.3,1.5
			v4h-1.1v-4c0-0.4-0.1-0.7-0.2-0.9c-0.2-0.4-0.5-0.6-1-0.6c-0.2,0-0.5,0-0.6,0.1c-0.3,0.1-0.5,0.3-0.8,0.5
			c-0.2,0.2-0.3,0.4-0.3,0.6s-0.1,0.5-0.1,0.9v3.3h-1.1V966.3z"/>
		<path class="st3" d="M973.9,968.8c0.2,0,0.4-0.1,0.5-0.3c0-0.1,0.1-0.2,0.1-0.4c0-0.4-0.1-0.6-0.4-0.8s-0.6-0.2-1.1-0.2
			c-0.5,0-0.9,0.1-1.2,0.4c-0.1,0.2-0.2,0.4-0.3,0.7h-1c0-0.8,0.3-1.3,0.8-1.6c0.5-0.3,1-0.5,1.7-0.5c0.7,0,1.3,0.1,1.8,0.4
			c0.5,0.3,0.7,0.7,0.7,1.3v3.6c0,0.1,0,0.2,0.1,0.3s0.1,0.1,0.3,0.1c0,0,0.1,0,0.2,0s0.1,0,0.2,0v0.8c-0.2,0-0.3,0.1-0.4,0.1
			s-0.2,0-0.4,0c-0.4,0-0.6-0.1-0.8-0.4c-0.1-0.1-0.1-0.3-0.2-0.6c-0.2,0.3-0.5,0.5-0.9,0.7s-0.8,0.3-1.3,0.3
			c-0.6,0-1.1-0.2-1.4-0.5c-0.4-0.4-0.6-0.8-0.6-1.3c0-0.6,0.2-1,0.5-1.4c0.4-0.3,0.8-0.5,1.4-0.6L973.9,968.8z M971.7,971.6
			c0.2,0.2,0.5,0.3,0.8,0.3c0.4,0,0.7-0.1,1.1-0.3c0.6-0.3,0.9-0.8,0.9-1.4v-0.8c-0.1,0.1-0.3,0.2-0.5,0.2c-0.2,0.1-0.4,0.1-0.6,0.1
			l-0.6,0.1c-0.4,0.1-0.7,0.1-0.9,0.2c-0.3,0.2-0.5,0.5-0.5,0.9C971.4,971.2,971.5,971.5,971.7,971.6z"/>
		<path class="st3" d="M977.2,966.3h1v0.9c0.3-0.4,0.6-0.6,0.9-0.8s0.7-0.2,1.1-0.2c0.9,0,1.5,0.3,1.8,0.9c0.2,0.3,0.3,0.8,0.3,1.5
			v4h-1.1v-4c0-0.4-0.1-0.7-0.2-0.9c-0.2-0.4-0.5-0.6-1-0.6c-0.2,0-0.5,0-0.6,0.1c-0.3,0.1-0.5,0.3-0.8,0.5
			c-0.2,0.2-0.3,0.4-0.3,0.6s-0.1,0.5-0.1,0.9v3.3h-1.1V966.3z"/>
		<path class="st3" d="M988.5,966.9c0.6,0.5,0.8,1.3,0.8,2.4c0,1-0.2,1.8-0.7,2.5c-0.5,0.7-1.2,1-2.3,1c-0.9,0-1.5-0.3-2-0.9
			c-0.5-0.6-0.8-1.4-0.8-2.4c0-1.1,0.3-1.9,0.8-2.5c0.5-0.6,1.2-0.9,2.1-0.9C987.2,966.1,987.9,966.4,988.5,966.9z M987.8,971.1
			c0.3-0.5,0.4-1.1,0.4-1.8c0-0.6-0.1-1.1-0.3-1.4c-0.3-0.6-0.8-0.9-1.5-0.9c-0.6,0-1.1,0.2-1.4,0.7c-0.3,0.5-0.4,1.1-0.4,1.8
			c0,0.7,0.1,1.2,0.4,1.7c0.3,0.4,0.7,0.7,1.4,0.7C987.1,971.9,987.5,971.6,987.8,971.1z"/>
		<path class="st3" d="M994.2,964h3.9c0.6,0,1.2,0.1,1.6,0.3c0.8,0.4,1.2,1,1.2,2c0,0.5-0.1,0.9-0.3,1.3s-0.5,0.6-0.9,0.8
			c0.3,0.1,0.6,0.3,0.8,0.5s0.3,0.6,0.3,1.1l0,1.2c0,0.3,0,0.6,0.1,0.7c0.1,0.3,0.2,0.4,0.4,0.5v0.2h-1.4c0-0.1-0.1-0.2-0.1-0.3
			s0-0.3-0.1-0.7l-0.1-1.4c0-0.6-0.2-0.9-0.6-1.1c-0.2-0.1-0.6-0.2-1-0.2h-2.6v3.7h-1.2V964z M998,967.9c0.5,0,1-0.1,1.3-0.3
			s0.5-0.6,0.5-1.2c0-0.6-0.2-1-0.6-1.3c-0.2-0.1-0.5-0.2-0.9-0.2h-2.8v2.9H998z"/>
		<path class="st3" d="M1005.9,968.8c0.2,0,0.4-0.1,0.5-0.3c0-0.1,0.1-0.2,0.1-0.4c0-0.4-0.1-0.6-0.4-0.8s-0.6-0.2-1.1-0.2
			c-0.5,0-0.9,0.1-1.2,0.4c-0.1,0.2-0.2,0.4-0.3,0.7h-1c0-0.8,0.3-1.3,0.8-1.6c0.5-0.3,1-0.5,1.7-0.5c0.7,0,1.3,0.1,1.8,0.4
			c0.5,0.3,0.7,0.7,0.7,1.3v3.6c0,0.1,0,0.2,0.1,0.3s0.1,0.1,0.3,0.1c0,0,0.1,0,0.2,0s0.1,0,0.2,0v0.8c-0.2,0-0.3,0.1-0.4,0.1
			s-0.2,0-0.4,0c-0.4,0-0.6-0.1-0.8-0.4c-0.1-0.1-0.1-0.3-0.2-0.6c-0.2,0.3-0.5,0.5-0.9,0.7s-0.8,0.3-1.3,0.3
			c-0.6,0-1.1-0.2-1.4-0.5c-0.4-0.4-0.6-0.8-0.6-1.3c0-0.6,0.2-1,0.5-1.4c0.4-0.3,0.8-0.5,1.4-0.6L1005.9,968.8z M1003.7,971.6
			c0.2,0.2,0.5,0.3,0.8,0.3c0.4,0,0.7-0.1,1.1-0.3c0.6-0.3,0.9-0.8,0.9-1.4v-0.8c-0.1,0.1-0.3,0.2-0.5,0.2c-0.2,0.1-0.4,0.1-0.6,0.1
			l-0.6,0.1c-0.4,0.1-0.7,0.1-0.9,0.2c-0.3,0.2-0.5,0.5-0.5,0.9C1003.4,971.2,1003.5,971.5,1003.7,971.6z"/>
		<path class="st3" d="M1009.3,964h1.1v1.2h-1.1V964z M1009.3,966.3h1.1v6.2h-1.1V966.3z"/>
		<path class="st3" d="M1011.9,964h1.1v8.6h-1.1V964z"/>
		<path class="st3" d="M1015.1,966.3l1.2,4.9l1.2-4.9h1.2l1.2,4.9l1.3-4.9h1.1l-1.8,6.3h-1.1l-1.3-4.9l-1.2,4.9h-1.1l-1.8-6.3
			H1015.1z"/>
		<path class="st3" d="M1026.6,968.8c0.2,0,0.4-0.1,0.5-0.3c0-0.1,0.1-0.2,0.1-0.4c0-0.4-0.1-0.6-0.4-0.8s-0.6-0.2-1.1-0.2
			c-0.5,0-0.9,0.1-1.2,0.4c-0.1,0.2-0.2,0.4-0.3,0.7h-1c0-0.8,0.3-1.3,0.8-1.6c0.5-0.3,1-0.5,1.7-0.5c0.7,0,1.3,0.1,1.8,0.4
			c0.5,0.3,0.7,0.7,0.7,1.3v3.6c0,0.1,0,0.2,0.1,0.3s0.1,0.1,0.3,0.1c0,0,0.1,0,0.2,0s0.1,0,0.2,0v0.8c-0.2,0-0.3,0.1-0.4,0.1
			s-0.2,0-0.4,0c-0.4,0-0.6-0.1-0.8-0.4c-0.1-0.1-0.1-0.3-0.2-0.6c-0.2,0.3-0.5,0.5-0.9,0.7s-0.8,0.3-1.3,0.3
			c-0.6,0-1.1-0.2-1.4-0.5c-0.4-0.4-0.6-0.8-0.6-1.3c0-0.6,0.2-1,0.5-1.4c0.4-0.3,0.8-0.5,1.4-0.6L1026.6,968.8z M1024.4,971.6
			c0.2,0.2,0.5,0.3,0.8,0.3c0.4,0,0.7-0.1,1.1-0.3c0.6-0.3,0.9-0.8,0.9-1.4v-0.8c-0.1,0.1-0.3,0.2-0.5,0.2c-0.2,0.1-0.4,0.1-0.6,0.1
			l-0.6,0.1c-0.4,0.1-0.7,0.1-0.9,0.2c-0.3,0.2-0.5,0.5-0.5,0.9C1024.1,971.2,1024.2,971.5,1024.4,971.6z"/>
		<path class="st3" d="M1033.8,966.3h1.2c-0.1,0.4-0.5,1.3-1,2.8c-0.4,1.1-0.7,2-1,2.6c-0.6,1.6-1,2.6-1.3,2.9
			c-0.2,0.4-0.7,0.5-1.3,0.5c-0.1,0-0.3,0-0.3,0s-0.2,0-0.3-0.1v-1c0.2,0.1,0.3,0.1,0.4,0.1c0.1,0,0.2,0,0.2,0c0.2,0,0.3,0,0.4-0.1
			c0.1-0.1,0.2-0.1,0.2-0.2c0,0,0.1-0.2,0.2-0.5c0.1-0.3,0.2-0.5,0.3-0.6l-2.3-6.5h1.2l1.7,5.1L1033.8,966.3z"/>
	</g>
</g>
</svg>
