<?xml version="1.0" encoding="utf-8"?>
<!-- Generator: Adobe Illustrator 28.1.0, SVG Export Plug-In . SVG Version: 6.00 Build 0)  -->
<svg version="1.1" id="レイヤー_1" xmlns="http://www.w3.org/2000/svg" xmlns:xlink="http://www.w3.org/1999/xlink" x="0px"
	 y="0px" viewBox="0 0 120 312.2" style="enable-background:new 0 0 120 312.2;" xml:space="preserve">
<style type="text/css">
	.st0{fill:#7F4F21;}
	.st1{fill:#2B2624;}
	.st2{enable-background:new    ;}
	.st3{fill:#FFFFFF;}
	.st4{fill:#009139;}
	.st5{fill:#07913A;}
</style>
<g id="グループ_1402" transform="translate(-930 -1504.815)">
	<path id="パス_1704" class="st0" d="M990,1556.5h1v223.7h-1V1556.5z"/>
	<path id="長方形_652" class="st1" d="M942.5,1504.8h95c6.9,0,12.5,5.6,12.5,12.5l0,0c0,6.9-5.6,12.5-12.5,12.5h-95
		c-6.9,0-12.5-5.6-12.5-12.5l0,0C930,1510.4,935.6,1504.8,942.5,1504.8z"/>
	<g class="st2">
		<path class="st3" d="M942,1514.9h5.5v1h-4.4v2.4h3.9v0.9h-3.9v3.6H942V1514.9z"/>
		<path class="st3" d="M948.5,1517h0.9v1c0.1-0.2,0.3-0.4,0.6-0.7c0.3-0.3,0.6-0.4,1-0.4c0,0,0,0,0.1,0s0.1,0,0.2,0v1
			c-0.1,0-0.1,0-0.2,0c0,0-0.1,0-0.2,0c-0.5,0-0.9,0.2-1.1,0.5c-0.3,0.3-0.4,0.7-0.4,1.1v3.3h-1V1517z"/>
		<path class="st3" d="M956.4,1517.6c0.5,0.5,0.8,1.2,0.8,2.2c0,0.9-0.2,1.7-0.7,2.3c-0.4,0.6-1.1,0.9-2.1,0.9
			c-0.8,0-1.4-0.3-1.9-0.8c-0.5-0.5-0.7-1.3-0.7-2.2c0-1,0.2-1.7,0.7-2.3c0.5-0.6,1.1-0.9,2-0.9
			C955.2,1516.9,955.8,1517.1,956.4,1517.6z M955.8,1521.4c0.2-0.5,0.4-1,0.4-1.6c0-0.5-0.1-1-0.3-1.3c-0.3-0.5-0.7-0.8-1.4-0.8
			c-0.6,0-1,0.2-1.3,0.7c-0.3,0.5-0.4,1-0.4,1.6c0,0.6,0.1,1.1,0.4,1.5c0.3,0.4,0.7,0.6,1.3,0.6
			C955.1,1522.2,955.5,1521.9,955.8,1521.4z"/>
		<path class="st3" d="M958.3,1517h1v0.8c0.2-0.3,0.4-0.5,0.6-0.6c0.3-0.2,0.7-0.3,1.1-0.3c0.5,0,0.8,0.1,1.1,0.3
			c0.2,0.1,0.3,0.3,0.4,0.6c0.2-0.3,0.5-0.5,0.8-0.7s0.6-0.2,1-0.2c0.8,0,1.3,0.3,1.6,0.8c0.2,0.3,0.2,0.7,0.2,1.2v3.8h-1v-4
			c0-0.4-0.1-0.6-0.3-0.8c-0.2-0.1-0.4-0.2-0.7-0.2c-0.4,0-0.7,0.1-1,0.4c-0.3,0.3-0.4,0.7-0.4,1.3v3.3h-1v-3.8c0-0.4,0-0.7-0.1-0.9
			c-0.1-0.3-0.4-0.4-0.8-0.4c-0.4,0-0.7,0.1-1,0.4c-0.3,0.3-0.4,0.8-0.4,1.5v3.1h-1V1517z"/>
		<path class="st3" d="M970.7,1514.9h1.1v3.3h4.1v-3.3h1.1v7.9h-1.1v-3.7h-4.1v3.7h-1.1V1514.9z"/>
		<path class="st3" d="M982.6,1517.6c0.5,0.5,0.8,1.2,0.8,2.2c0,0.9-0.2,1.7-0.7,2.3s-1.1,0.9-2.1,0.9c-0.8,0-1.4-0.3-1.9-0.8
			c-0.5-0.5-0.7-1.3-0.7-2.2c0-1,0.2-1.7,0.7-2.3s1.1-0.9,2-0.9C981.5,1516.9,982.1,1517.1,982.6,1517.6z M982,1521.4
			c0.2-0.5,0.4-1,0.4-1.6c0-0.5-0.1-1-0.3-1.3c-0.3-0.5-0.7-0.8-1.4-0.8c-0.6,0-1,0.2-1.3,0.7c-0.3,0.5-0.4,1-0.4,1.6
			c0,0.6,0.1,1.1,0.4,1.5c0.3,0.4,0.7,0.6,1.3,0.6C981.4,1522.2,981.8,1521.9,982,1521.4z"/>
		<path class="st3" d="M984.6,1514.9h0.9v4.6l2.5-2.4h1.2l-2.2,2.1l2.3,3.6h-1.2l-1.8-2.9l-0.8,0.8v2.2h-0.9V1514.9z"/>
		<path class="st3" d="M991.1,1517v3.8c0,0.3,0,0.5,0.1,0.7c0.2,0.3,0.5,0.5,0.9,0.5c0.7,0,1.1-0.3,1.3-0.9c0.1-0.3,0.2-0.8,0.2-1.3
			v-2.8h1v5.8h-0.9l0-0.8c-0.1,0.2-0.3,0.4-0.5,0.6c-0.4,0.3-0.8,0.5-1.3,0.5c-0.8,0-1.4-0.3-1.6-0.8c-0.2-0.3-0.2-0.7-0.2-1.2v-3.9
			H991.1z"/>
		<path class="st3" d="M996.2,1517h0.9v1c0.1-0.2,0.3-0.4,0.6-0.7c0.3-0.3,0.6-0.4,1-0.4c0,0,0,0,0.1,0s0.1,0,0.2,0v1
			c-0.1,0-0.1,0-0.2,0c0,0-0.1,0-0.2,0c-0.5,0-0.9,0.2-1.1,0.5c-0.3,0.3-0.4,0.7-0.4,1.1v3.3h-1V1517z"/>
		<path class="st3" d="M999.9,1514.9h1v1.1h-1V1514.9z M999.9,1517.1h1v5.7h-1V1517.1z"/>
		<path class="st3" d="M1002.3,1514.9h0.9v4.6l2.5-2.4h1.2l-2.2,2.1l2.3,3.6h-1.2l-1.8-2.9l-0.8,0.8v2.2h-0.9V1514.9z"/>
		<path class="st3" d="M1008.8,1517v3.8c0,0.3,0,0.5,0.1,0.7c0.2,0.3,0.5,0.5,0.9,0.5c0.7,0,1.1-0.3,1.3-0.9
			c0.1-0.3,0.2-0.8,0.2-1.3v-2.8h1v5.8h-0.9l0-0.8c-0.1,0.2-0.3,0.4-0.5,0.6c-0.4,0.3-0.8,0.5-1.3,0.5c-0.8,0-1.4-0.3-1.6-0.8
			c-0.2-0.3-0.2-0.7-0.2-1.2v-3.9H1008.8z"/>
		<path class="st3" d="M1018.8,1514.9h1.2l2.9,7.9h-1.2l-0.8-2.4h-3.1l-0.9,2.4h-1.1L1018.8,1514.9z M1020.6,1519.6l-1.2-3.5
			l-1.3,3.5H1020.6z"/>
		<path class="st3" d="M1023.7,1517h0.9v1c0.1-0.2,0.3-0.4,0.6-0.7c0.3-0.3,0.6-0.4,1-0.4c0,0,0,0,0.1,0s0.1,0,0.2,0v1
			c-0.1,0-0.1,0-0.2,0c0,0-0.1,0-0.2,0c-0.5,0-0.9,0.2-1.1,0.5c-0.3,0.3-0.4,0.7-0.4,1.1v3.3h-1V1517z"/>
		<path class="st3" d="M1030.9,1517.2c0.4,0.2,0.7,0.4,0.9,0.7c0.2,0.3,0.3,0.6,0.4,1c0.1,0.3,0.1,0.7,0.1,1.3h-4.2
			c0,0.6,0.2,1.1,0.4,1.4s0.7,0.5,1.2,0.5c0.5,0,0.9-0.2,1.2-0.5c0.2-0.2,0.3-0.4,0.4-0.7h1c0,0.2-0.1,0.4-0.2,0.7s-0.3,0.5-0.5,0.6
			c-0.3,0.3-0.7,0.5-1.1,0.6c-0.2,0.1-0.5,0.1-0.8,0.1c-0.7,0-1.3-0.3-1.8-0.8c-0.5-0.5-0.7-1.3-0.7-2.2c0-0.9,0.2-1.7,0.7-2.3
			c0.5-0.6,1.1-0.9,2-0.9C1030.2,1516.9,1030.6,1517,1030.9,1517.2z M1031.3,1519.4c0-0.4-0.1-0.8-0.3-1c-0.3-0.5-0.7-0.7-1.3-0.7
			c-0.4,0-0.8,0.2-1.1,0.5c-0.3,0.3-0.5,0.7-0.5,1.2H1031.3z"/>
		<path class="st3" d="M1036.6,1519.3c0.2,0,0.4-0.1,0.4-0.3c0-0.1,0.1-0.2,0.1-0.4c0-0.3-0.1-0.6-0.4-0.7c-0.2-0.1-0.6-0.2-1-0.2
			c-0.5,0-0.9,0.1-1.1,0.4c-0.1,0.2-0.2,0.4-0.2,0.7h-0.9c0-0.7,0.2-1.2,0.7-1.5s1-0.4,1.5-0.4c0.7,0,1.2,0.1,1.6,0.4
			c0.4,0.3,0.6,0.7,0.6,1.2v3.3c0,0.1,0,0.2,0.1,0.2c0,0.1,0.1,0.1,0.3,0.1c0,0,0.1,0,0.1,0c0.1,0,0.1,0,0.2,0v0.7
			c-0.2,0-0.3,0.1-0.3,0.1c-0.1,0-0.2,0-0.3,0c-0.3,0-0.6-0.1-0.7-0.4c-0.1-0.1-0.1-0.3-0.2-0.5c-0.2,0.3-0.5,0.5-0.8,0.7
			c-0.4,0.2-0.8,0.3-1.2,0.3c-0.5,0-1-0.2-1.3-0.5c-0.3-0.3-0.5-0.7-0.5-1.2c0-0.5,0.2-0.9,0.5-1.2s0.8-0.5,1.3-0.5L1036.6,1519.3z
			 M1034.5,1521.9c0.2,0.2,0.4,0.2,0.7,0.2c0.3,0,0.7-0.1,1-0.2c0.5-0.3,0.8-0.7,0.8-1.3v-0.8c-0.1,0.1-0.3,0.1-0.5,0.2
			c-0.2,0.1-0.4,0.1-0.5,0.1l-0.6,0.1c-0.4,0-0.6,0.1-0.8,0.2c-0.3,0.2-0.4,0.4-0.4,0.8C1034.2,1521.5,1034.3,1521.8,1034.5,1521.9z
			"/>
	</g>
	<rect id="長方形_652-2" x="930" y="1550.3" class="st0" width="120" height="20"/>
	<g class="st2">
		<path class="st3" d="M938,1556.9h1.1v3.3h4.1v-3.3h1.1v7.9h-1.1v-3.7h-4.1v3.7H938V1556.9z"/>
		<path class="st3" d="M949.9,1559.6c0.5,0.5,0.8,1.2,0.8,2.2c0,0.9-0.2,1.7-0.7,2.3c-0.4,0.6-1.1,0.9-2.1,0.9
			c-0.8,0-1.4-0.3-1.9-0.8c-0.5-0.5-0.7-1.3-0.7-2.2c0-1,0.2-1.7,0.7-2.3c0.5-0.6,1.1-0.9,2-0.9
			C948.8,1558.8,949.4,1559.1,949.9,1559.6z M949.3,1563.4c0.2-0.5,0.4-1,0.4-1.6c0-0.5-0.1-1-0.3-1.3c-0.3-0.5-0.7-0.8-1.4-0.8
			c-0.6,0-1,0.2-1.3,0.7c-0.3,0.5-0.4,1-0.4,1.6c0,0.6,0.1,1.1,0.4,1.5c0.3,0.4,0.7,0.6,1.3,0.6
			C948.7,1564.1,949.1,1563.9,949.3,1563.4z"/>
		<path class="st3" d="M951.9,1556.9h0.9v4.6l2.5-2.4h1.2l-2.2,2.1l2.3,3.6h-1.2l-1.8-2.9l-0.8,0.8v2.2h-0.9V1556.9z"/>
		<path class="st3" d="M958.4,1559v3.8c0,0.3,0,0.5,0.1,0.7c0.2,0.3,0.5,0.5,0.9,0.5c0.7,0,1.1-0.3,1.3-0.9c0.1-0.3,0.2-0.8,0.2-1.3
			v-2.8h1v5.8H961l0-0.8c-0.1,0.2-0.3,0.4-0.5,0.6c-0.4,0.3-0.8,0.5-1.3,0.5c-0.8,0-1.4-0.3-1.6-0.8c-0.2-0.3-0.2-0.7-0.2-1.2v-3.9
			H958.4z"/>
		<path class="st3" d="M963.5,1559h0.9v1c0.1-0.2,0.3-0.4,0.6-0.7s0.6-0.4,1-0.4c0,0,0,0,0.1,0s0.1,0,0.2,0v1c-0.1,0-0.1,0-0.2,0
			c0,0-0.1,0-0.2,0c-0.5,0-0.9,0.2-1.1,0.5s-0.4,0.7-0.4,1.1v3.3h-1V1559z"/>
		<path class="st3" d="M967.2,1556.9h1v1.1h-1V1556.9z M967.2,1559h1v5.7h-1V1559z"/>
		<path class="st3" d="M969.6,1556.9h0.9v4.6l2.5-2.4h1.2l-2.2,2.1l2.3,3.6h-1.2l-1.8-2.9l-0.8,0.8v2.2h-0.9V1556.9z"/>
		<path class="st3" d="M976.1,1559v3.8c0,0.3,0,0.5,0.1,0.7c0.2,0.3,0.5,0.5,0.9,0.5c0.7,0,1.1-0.3,1.3-0.9c0.1-0.3,0.2-0.8,0.2-1.3
			v-2.8h1v5.8h-0.9l0-0.8c-0.1,0.2-0.3,0.4-0.5,0.6c-0.4,0.3-0.8,0.5-1.3,0.5c-0.8,0-1.4-0.3-1.6-0.8c-0.2-0.3-0.2-0.7-0.2-1.2v-3.9
			H976.1z"/>
		<path class="st3" d="M984.5,1556.9h5.7v1h-4.7v2.4h4.3v0.9h-4.3v2.7h4.8v0.9h-5.8V1556.9z"/>
		<path class="st3" d="M991.1,1559h1.3l1.3,2l1.3-2l1.2,0l-1.9,2.8l2,2.9H995l-1.4-2.2l-1.4,2.2H991l2-2.9L991.1,1559z"/>
		<path class="st3" d="M997,1559h0.9v0.8c0.2-0.3,0.4-0.5,0.6-0.6c0.3-0.2,0.7-0.3,1.2-0.3c0.7,0,1.2,0.2,1.7,0.8
			c0.5,0.5,0.7,1.2,0.7,2.1c0,1.3-0.3,2.1-1,2.7c-0.4,0.3-0.9,0.5-1.5,0.5c-0.4,0-0.8-0.1-1.1-0.3c-0.2-0.1-0.4-0.3-0.6-0.6v2.9h-1
			V1559z M1000.7,1563.5c0.3-0.4,0.5-0.9,0.5-1.7c0-0.5-0.1-0.9-0.2-1.2c-0.3-0.6-0.7-1-1.4-1c-0.7,0-1.1,0.3-1.4,1
			c-0.1,0.4-0.2,0.8-0.2,1.4c0,0.4,0.1,0.8,0.2,1.1c0.3,0.6,0.7,0.9,1.4,0.9C1000,1564.1,1000.4,1563.9,1000.7,1563.5z"/>
		<path class="st3" d="M1003.3,1559h0.9v1c0.1-0.2,0.3-0.4,0.6-0.7c0.3-0.3,0.6-0.4,1-0.4c0,0,0,0,0.1,0s0.1,0,0.2,0v1
			c-0.1,0-0.1,0-0.2,0c0,0-0.1,0-0.2,0c-0.5,0-0.9,0.2-1.1,0.5c-0.3,0.3-0.4,0.7-0.4,1.1v3.3h-1V1559z"/>
		<path class="st3" d="M1010.5,1559.2c0.4,0.2,0.7,0.4,0.9,0.7c0.2,0.3,0.3,0.6,0.4,1c0.1,0.3,0.1,0.7,0.1,1.3h-4.2
			c0,0.6,0.2,1.1,0.4,1.4c0.3,0.4,0.7,0.5,1.2,0.5c0.5,0,0.9-0.2,1.2-0.5c0.2-0.2,0.3-0.4,0.4-0.7h1c0,0.2-0.1,0.4-0.2,0.7
			c-0.1,0.3-0.3,0.5-0.5,0.6c-0.3,0.3-0.7,0.5-1.1,0.6c-0.2,0.1-0.5,0.1-0.8,0.1c-0.7,0-1.3-0.3-1.8-0.8c-0.5-0.5-0.7-1.3-0.7-2.2
			c0-0.9,0.2-1.7,0.7-2.3s1.1-0.9,2-0.9C1009.7,1558.9,1010.1,1559,1010.5,1559.2z M1010.8,1561.4c0-0.4-0.1-0.8-0.3-1
			c-0.3-0.5-0.7-0.7-1.3-0.7c-0.4,0-0.8,0.2-1.1,0.5c-0.3,0.3-0.5,0.7-0.5,1.2H1010.8z"/>
		<path class="st3" d="M1013.6,1563c0,0.3,0.1,0.6,0.2,0.7c0.2,0.3,0.7,0.5,1.3,0.5c0.4,0,0.7-0.1,1-0.2c0.3-0.2,0.4-0.4,0.4-0.7
			c0-0.2-0.1-0.4-0.3-0.6c-0.1-0.1-0.4-0.2-0.8-0.3l-0.8-0.2c-0.5-0.1-0.9-0.3-1.1-0.4c-0.4-0.3-0.6-0.6-0.6-1.1
			c0-0.5,0.2-1,0.6-1.3c0.4-0.3,0.9-0.5,1.6-0.5c0.9,0,1.5,0.3,1.9,0.8c0.2,0.3,0.4,0.7,0.4,1h-0.9c0-0.2-0.1-0.4-0.2-0.6
			c-0.2-0.3-0.6-0.4-1.2-0.4c-0.4,0-0.7,0.1-0.8,0.2c-0.2,0.1-0.3,0.3-0.3,0.6c0,0.2,0.1,0.5,0.4,0.6c0.1,0.1,0.4,0.2,0.6,0.2
			l0.7,0.2c0.7,0.2,1.2,0.3,1.4,0.5c0.4,0.2,0.6,0.6,0.6,1.2c0,0.5-0.2,1-0.6,1.3c-0.4,0.4-1,0.6-1.8,0.6c-0.9,0-1.5-0.2-1.8-0.6
			c-0.4-0.4-0.6-0.9-0.6-1.4H1013.6z"/>
		<path class="st3" d="M1019.1,1563c0,0.3,0.1,0.6,0.2,0.7c0.2,0.3,0.7,0.5,1.3,0.5c0.4,0,0.7-0.1,1-0.2c0.3-0.2,0.4-0.4,0.4-0.7
			c0-0.2-0.1-0.4-0.3-0.6c-0.1-0.1-0.4-0.2-0.8-0.3l-0.8-0.2c-0.5-0.1-0.9-0.3-1.1-0.4c-0.4-0.3-0.6-0.6-0.6-1.1
			c0-0.5,0.2-1,0.6-1.3c0.4-0.3,0.9-0.5,1.6-0.5c0.9,0,1.5,0.3,1.9,0.8c0.2,0.3,0.4,0.7,0.4,1h-0.9c0-0.2-0.1-0.4-0.2-0.6
			c-0.2-0.3-0.6-0.4-1.2-0.4c-0.4,0-0.7,0.1-0.8,0.2c-0.2,0.1-0.3,0.3-0.3,0.6c0,0.2,0.1,0.5,0.4,0.6c0.1,0.1,0.4,0.2,0.6,0.2
			l0.7,0.2c0.7,0.2,1.2,0.3,1.4,0.5c0.4,0.2,0.6,0.6,0.6,1.2c0,0.5-0.2,1-0.6,1.3c-0.4,0.4-1,0.6-1.8,0.6c-0.9,0-1.5-0.2-1.8-0.6
			c-0.4-0.4-0.6-0.9-0.6-1.4H1019.1z"/>
		<path class="st3" d="M1024.5,1559l1.1,4.5l1.1-4.5h1.1l1.1,4.5l1.2-4.5h1l-1.7,5.8h-1l-1.2-4.5l-1.1,4.5h-1l-1.7-5.8H1024.5z"/>
		<path class="st3" d="M1035.1,1561.3c0.2,0,0.4-0.1,0.4-0.3c0-0.1,0.1-0.2,0.1-0.4c0-0.3-0.1-0.6-0.4-0.7c-0.2-0.1-0.6-0.2-1-0.2
			c-0.5,0-0.9,0.1-1.1,0.4c-0.1,0.2-0.2,0.4-0.2,0.7h-0.9c0-0.7,0.2-1.2,0.7-1.5s1-0.4,1.5-0.4c0.7,0,1.2,0.1,1.6,0.4
			c0.4,0.3,0.6,0.7,0.6,1.2v3.3c0,0.1,0,0.2,0.1,0.2c0,0.1,0.1,0.1,0.3,0.1c0,0,0.1,0,0.1,0c0.1,0,0.1,0,0.2,0v0.7
			c-0.2,0-0.3,0.1-0.3,0.1c-0.1,0-0.2,0-0.3,0c-0.3,0-0.6-0.1-0.7-0.4c-0.1-0.1-0.1-0.3-0.2-0.5c-0.2,0.3-0.5,0.5-0.8,0.7
			c-0.4,0.2-0.8,0.3-1.2,0.3c-0.5,0-1-0.2-1.3-0.5c-0.3-0.3-0.5-0.7-0.5-1.2c0-0.5,0.2-0.9,0.5-1.2s0.8-0.5,1.3-0.5L1035.1,1561.3z
			 M1033,1563.9c0.2,0.2,0.4,0.2,0.7,0.2c0.3,0,0.7-0.1,1-0.2c0.5-0.3,0.8-0.7,0.8-1.3v-0.8c-0.1,0.1-0.3,0.1-0.5,0.2
			c-0.2,0.1-0.4,0.1-0.5,0.1l-0.6,0.1c-0.4,0-0.6,0.1-0.8,0.2c-0.3,0.2-0.4,0.4-0.4,0.8C1032.7,1563.5,1032.8,1563.7,1033,1563.9z"
			/>
		<path class="st3" d="M1041.7,1559h1.1c-0.1,0.4-0.4,1.2-0.9,2.5c-0.4,1-0.6,1.8-0.9,2.4c-0.6,1.5-1,2.4-1.2,2.7
			c-0.2,0.3-0.6,0.5-1.2,0.5c-0.1,0-0.2,0-0.3,0s-0.2,0-0.3-0.1v-0.9c0.2,0,0.3,0.1,0.4,0.1c0.1,0,0.1,0,0.2,0c0.2,0,0.3,0,0.4-0.1
			c0.1-0.1,0.2-0.1,0.2-0.2c0,0,0.1-0.2,0.2-0.4c0.1-0.3,0.2-0.5,0.2-0.6l-2.1-5.9h1.1l1.5,4.7L1041.7,1559z"/>
	</g>
	<rect id="長方形_652-3" x="930" y="1631.3" class="st0" width="120" height="35"/>
	<g class="st2">
		<path class="st3" d="M965.1,1643.6c0,0.7-0.1,1.2-0.3,1.6c-0.4,0.7-1.1,1-2.1,1c-0.6,0-1.1-0.2-1.5-0.5s-0.6-0.9-0.6-1.7v-0.6h1
			v0.6c0,0.4,0.1,0.8,0.3,1c0.2,0.2,0.5,0.3,0.9,0.3c0.6,0,0.9-0.2,1.1-0.6c0.1-0.2,0.2-0.7,0.2-1.4v-5.3h1.1V1643.6z"/>
		<path class="st3" d="M970.7,1640.8c0.5,0.5,0.8,1.2,0.8,2.2c0,0.9-0.2,1.7-0.7,2.3c-0.4,0.6-1.1,0.9-2.1,0.9
			c-0.8,0-1.4-0.3-1.9-0.8c-0.5-0.5-0.7-1.3-0.7-2.2c0-1,0.2-1.7,0.7-2.3c0.5-0.6,1.1-0.9,2-0.9
			C969.6,1640.1,970.2,1640.3,970.7,1640.8z M970.1,1644.6c0.2-0.5,0.4-1,0.4-1.6c0-0.5-0.1-1-0.3-1.3c-0.3-0.5-0.7-0.8-1.4-0.8
			c-0.6,0-1,0.2-1.3,0.7c-0.3,0.5-0.4,1-0.4,1.6c0,0.6,0.1,1.1,0.4,1.5c0.3,0.4,0.7,0.6,1.3,0.6
			C969.5,1645.4,969.9,1645.1,970.1,1644.6z"/>
		<path class="st3" d="M973.2,1644.2c0,0.3,0.1,0.6,0.2,0.7c0.2,0.3,0.7,0.5,1.3,0.5c0.4,0,0.7-0.1,1-0.2c0.3-0.2,0.4-0.4,0.4-0.7
			c0-0.2-0.1-0.4-0.3-0.6c-0.1-0.1-0.4-0.2-0.8-0.3l-0.8-0.2c-0.5-0.1-0.9-0.3-1.1-0.4c-0.4-0.3-0.6-0.6-0.6-1.1
			c0-0.5,0.2-1,0.6-1.3c0.4-0.3,0.9-0.5,1.6-0.5c0.9,0,1.5,0.3,1.9,0.8c0.2,0.3,0.4,0.7,0.4,1H976c0-0.2-0.1-0.4-0.2-0.6
			c-0.2-0.3-0.6-0.4-1.2-0.4c-0.4,0-0.7,0.1-0.8,0.2c-0.2,0.1-0.3,0.3-0.3,0.6c0,0.2,0.1,0.5,0.4,0.6c0.1,0.1,0.4,0.2,0.6,0.2
			l0.7,0.2c0.7,0.2,1.2,0.3,1.4,0.5c0.4,0.2,0.6,0.6,0.6,1.2c0,0.5-0.2,1-0.6,1.3c-0.4,0.4-1,0.6-1.8,0.6c-0.9,0-1.5-0.2-1.8-0.6
			s-0.6-0.9-0.6-1.4H973.2z"/>
		<path class="st3" d="M978.2,1638.1h1v2.9c0.2-0.3,0.4-0.5,0.6-0.6c0.3-0.2,0.7-0.3,1.2-0.3c0.8,0,1.4,0.3,1.7,0.9
			c0.2,0.3,0.2,0.8,0.2,1.3v3.7h-1v-3.6c0-0.4-0.1-0.7-0.2-0.9c-0.2-0.3-0.5-0.5-1-0.5c-0.4,0-0.8,0.1-1.1,0.4
			c-0.3,0.3-0.5,0.8-0.5,1.6v3.1h-1V1638.1z"/>
		<path class="st3" d="M984.3,1638.1h1v1.1h-1V1638.1z M984.3,1640.3h1v5.7h-1V1640.3z"/>
		<path class="st3" d="M986.7,1640.2h0.9v0.8c0.3-0.3,0.6-0.6,0.9-0.7s0.6-0.2,1-0.2c0.8,0,1.4,0.3,1.7,0.9c0.2,0.3,0.2,0.8,0.2,1.3
			v3.7h-1v-3.6c0-0.4-0.1-0.6-0.2-0.8c-0.2-0.4-0.5-0.5-0.9-0.5c-0.2,0-0.4,0-0.6,0.1c-0.3,0.1-0.5,0.2-0.7,0.5
			c-0.2,0.2-0.3,0.4-0.3,0.6c0,0.2-0.1,0.5-0.1,0.9v3h-1V1640.2z"/>
		<path class="st3" d="M992.6,1642.4h2.7v1h-2.7V1642.4z"/>
		<path class="st3" d="M1000.1,1640.4c0.4,0.2,0.7,0.4,0.9,0.7c0.2,0.3,0.3,0.6,0.4,1c0.1,0.3,0.1,0.7,0.1,1.3h-4.2
			c0,0.6,0.2,1.1,0.4,1.4c0.3,0.4,0.7,0.5,1.2,0.5c0.5,0,0.9-0.2,1.2-0.5c0.2-0.2,0.3-0.4,0.4-0.7h1c0,0.2-0.1,0.4-0.2,0.7
			c-0.1,0.3-0.3,0.5-0.5,0.6c-0.3,0.3-0.7,0.5-1.1,0.6c-0.2,0.1-0.5,0.1-0.8,0.1c-0.7,0-1.3-0.3-1.8-0.8c-0.5-0.5-0.7-1.3-0.7-2.2
			c0-0.9,0.2-1.7,0.7-2.3s1.1-0.9,2-0.9C999.3,1640.1,999.7,1640.2,1000.1,1640.4z M1000.4,1642.7c0-0.4-0.1-0.8-0.3-1
			c-0.3-0.5-0.7-0.7-1.3-0.7c-0.4,0-0.8,0.2-1.1,0.5c-0.3,0.3-0.5,0.7-0.5,1.2H1000.4z"/>
		<path class="st3" d="M1002.8,1638.6h1v1.6h0.9v0.8h-0.9v3.8c0,0.2,0.1,0.3,0.2,0.4c0.1,0,0.2,0.1,0.4,0.1c0,0,0.1,0,0.2,0
			c0.1,0,0.1,0,0.2,0v0.8c-0.1,0-0.2,0.1-0.3,0.1c-0.1,0-0.2,0-0.4,0c-0.5,0-0.8-0.1-0.9-0.3c-0.2-0.2-0.2-0.5-0.2-0.9v-3.8h-0.8
			v-0.8h0.8V1638.6z"/>
		<path class="st3" d="M1006.3,1644.2c0,0.3,0.1,0.6,0.2,0.7c0.2,0.3,0.7,0.5,1.3,0.5c0.4,0,0.7-0.1,1-0.2c0.3-0.2,0.4-0.4,0.4-0.7
			c0-0.2-0.1-0.4-0.3-0.6c-0.1-0.1-0.4-0.2-0.8-0.3l-0.8-0.2c-0.5-0.1-0.9-0.3-1.1-0.4c-0.4-0.3-0.6-0.6-0.6-1.1
			c0-0.5,0.2-1,0.6-1.3c0.4-0.3,0.9-0.5,1.6-0.5c0.9,0,1.5,0.3,1.9,0.8c0.2,0.3,0.4,0.7,0.4,1h-0.9c0-0.2-0.1-0.4-0.2-0.6
			c-0.2-0.3-0.6-0.4-1.2-0.4c-0.4,0-0.7,0.1-0.8,0.2c-0.2,0.1-0.3,0.3-0.3,0.6c0,0.2,0.1,0.5,0.4,0.6c0.1,0.1,0.4,0.2,0.6,0.2
			l0.7,0.2c0.7,0.2,1.2,0.3,1.4,0.5c0.4,0.2,0.6,0.6,0.6,1.2c0,0.5-0.2,1-0.6,1.3c-0.4,0.4-1,0.6-1.8,0.6c-0.9,0-1.5-0.2-1.8-0.6
			c-0.4-0.4-0.6-0.9-0.6-1.4H1006.3z"/>
		<path class="st3" d="M1012.2,1640.2v3.8c0,0.3,0,0.5,0.1,0.7c0.2,0.3,0.5,0.5,0.9,0.5c0.7,0,1.1-0.3,1.3-0.9
			c0.1-0.3,0.2-0.8,0.2-1.3v-2.8h1v5.8h-0.9l0-0.8c-0.1,0.2-0.3,0.4-0.5,0.6c-0.4,0.3-0.8,0.5-1.3,0.5c-0.8,0-1.4-0.3-1.6-0.8
			c-0.2-0.3-0.2-0.7-0.2-1.2v-3.9H1012.2z"/>
	</g>
	<g class="st2">
		<path class="st3" d="M961.3,1650.1h5.7v1h-4.7v2.4h4.3v0.9h-4.3v2.7h4.8v0.9h-5.8V1650.1z"/>
		<path class="st3" d="M967.9,1652.2h1.3l1.3,2l1.3-2l1.2,0l-1.9,2.8l2,2.9h-1.2l-1.4-2.2l-1.4,2.2h-1.2l2-2.9L967.9,1652.2z"/>
		<path class="st3" d="M973.8,1652.3h0.9v0.8c0.2-0.3,0.4-0.5,0.6-0.6c0.3-0.2,0.7-0.3,1.2-0.3c0.7,0,1.2,0.2,1.7,0.8
			c0.5,0.5,0.7,1.2,0.7,2.1c0,1.3-0.3,2.1-1,2.7c-0.4,0.3-0.9,0.5-1.5,0.5c-0.4,0-0.8-0.1-1.1-0.3c-0.2-0.1-0.4-0.3-0.6-0.6v2.9h-1
			V1652.3z M977.5,1656.8c0.3-0.4,0.5-0.9,0.5-1.7c0-0.5-0.1-0.9-0.2-1.2c-0.3-0.6-0.7-1-1.4-1c-0.7,0-1.1,0.3-1.4,1
			c-0.1,0.4-0.2,0.8-0.2,1.4c0,0.4,0.1,0.8,0.2,1.1c0.3,0.6,0.7,0.9,1.4,0.9C976.8,1657.3,977.2,1657.2,977.5,1656.8z"/>
		<path class="st3" d="M980,1652.2h0.9v1c0.1-0.2,0.3-0.4,0.6-0.7s0.6-0.4,1-0.4c0,0,0,0,0.1,0s0.1,0,0.2,0v1c-0.1,0-0.1,0-0.2,0
			c0,0-0.1,0-0.2,0c-0.5,0-0.9,0.2-1.1,0.5s-0.4,0.7-0.4,1.1v3.3h-1V1652.2z"/>
		<path class="st3" d="M987.2,1652.4c0.4,0.2,0.7,0.4,0.9,0.7c0.2,0.3,0.3,0.6,0.4,1c0.1,0.3,0.1,0.7,0.1,1.3h-4.2
			c0,0.6,0.2,1.1,0.4,1.4c0.3,0.4,0.7,0.5,1.2,0.5c0.5,0,0.9-0.2,1.2-0.5c0.2-0.2,0.3-0.4,0.4-0.7h1c0,0.2-0.1,0.4-0.2,0.7
			c-0.1,0.3-0.3,0.5-0.5,0.6c-0.3,0.3-0.7,0.5-1.1,0.6c-0.2,0.1-0.5,0.1-0.8,0.1c-0.7,0-1.3-0.3-1.8-0.8c-0.5-0.5-0.7-1.3-0.7-2.2
			c0-0.9,0.2-1.7,0.7-2.3c0.5-0.6,1.1-0.9,2-0.9C986.5,1652.1,986.9,1652.2,987.2,1652.4z M987.6,1654.7c0-0.4-0.1-0.8-0.3-1
			c-0.3-0.5-0.7-0.7-1.3-0.7c-0.4,0-0.8,0.2-1.1,0.5s-0.5,0.7-0.5,1.2H987.6z"/>
		<path class="st3" d="M990.4,1656.2c0,0.3,0.1,0.6,0.2,0.7c0.2,0.3,0.7,0.5,1.3,0.5c0.4,0,0.7-0.1,1-0.2c0.3-0.2,0.4-0.4,0.4-0.7
			c0-0.2-0.1-0.4-0.3-0.6c-0.1-0.1-0.4-0.2-0.8-0.3l-0.8-0.2c-0.5-0.1-0.9-0.3-1.1-0.4c-0.4-0.3-0.6-0.6-0.6-1.1
			c0-0.5,0.2-1,0.6-1.3c0.4-0.3,0.9-0.5,1.6-0.5c0.9,0,1.5,0.3,1.9,0.8c0.2,0.3,0.4,0.7,0.4,1h-0.9c0-0.2-0.1-0.4-0.2-0.6
			c-0.2-0.3-0.6-0.4-1.2-0.4c-0.4,0-0.7,0.1-0.8,0.2c-0.2,0.1-0.3,0.3-0.3,0.6c0,0.2,0.1,0.5,0.4,0.6c0.1,0.1,0.4,0.2,0.6,0.2
			l0.7,0.2c0.7,0.2,1.2,0.3,1.4,0.5c0.4,0.2,0.6,0.6,0.6,1.2c0,0.5-0.2,1-0.6,1.3c-0.4,0.4-1,0.6-1.8,0.6c-0.9,0-1.5-0.2-1.8-0.6
			s-0.6-0.9-0.6-1.4H990.4z"/>
		<path class="st3" d="M995.9,1656.2c0,0.3,0.1,0.6,0.2,0.7c0.2,0.3,0.7,0.5,1.3,0.5c0.4,0,0.7-0.1,1-0.2c0.3-0.2,0.4-0.4,0.4-0.7
			c0-0.2-0.1-0.4-0.3-0.6c-0.1-0.1-0.4-0.2-0.8-0.3l-0.8-0.2c-0.5-0.1-0.9-0.3-1.1-0.4c-0.4-0.3-0.6-0.6-0.6-1.1
			c0-0.5,0.2-1,0.6-1.3c0.4-0.3,0.9-0.5,1.6-0.5c0.9,0,1.5,0.3,1.9,0.8c0.2,0.3,0.4,0.7,0.4,1h-0.9c0-0.2-0.1-0.4-0.2-0.6
			c-0.2-0.3-0.6-0.4-1.2-0.4c-0.4,0-0.7,0.1-0.8,0.2c-0.2,0.1-0.3,0.3-0.3,0.6c0,0.2,0.1,0.5,0.4,0.6c0.1,0.1,0.4,0.2,0.6,0.2
			l0.7,0.2c0.7,0.2,1.2,0.3,1.4,0.5c0.4,0.2,0.6,0.6,0.6,1.2c0,0.5-0.2,1-0.6,1.3c-0.4,0.4-1,0.6-1.8,0.6c-0.9,0-1.5-0.2-1.8-0.6
			c-0.4-0.4-0.6-0.9-0.6-1.4H995.9z"/>
		<path class="st3" d="M1001.2,1652.2l1.1,4.5l1.1-4.5h1.1l1.1,4.5l1.2-4.5h1l-1.7,5.8h-1l-1.2-4.5l-1.1,4.5h-1l-1.7-5.8H1001.2z"/>
		<path class="st3" d="M1011.8,1654.5c0.2,0,0.4-0.1,0.4-0.3c0-0.1,0.1-0.2,0.1-0.4c0-0.3-0.1-0.6-0.4-0.7c-0.2-0.1-0.6-0.2-1-0.2
			c-0.5,0-0.9,0.1-1.1,0.4c-0.1,0.2-0.2,0.4-0.2,0.7h-0.9c0-0.7,0.2-1.2,0.7-1.5c0.4-0.3,1-0.4,1.5-0.4c0.7,0,1.2,0.1,1.6,0.4
			c0.4,0.3,0.6,0.7,0.6,1.2v3.3c0,0.1,0,0.2,0.1,0.2c0,0.1,0.1,0.1,0.3,0.1c0,0,0.1,0,0.1,0c0.1,0,0.1,0,0.2,0v0.7
			c-0.2,0-0.3,0.1-0.3,0.1c-0.1,0-0.2,0-0.3,0c-0.3,0-0.6-0.1-0.7-0.4c-0.1-0.1-0.1-0.3-0.2-0.5c-0.2,0.3-0.5,0.5-0.8,0.7
			c-0.4,0.2-0.8,0.3-1.2,0.3c-0.5,0-1-0.2-1.3-0.5c-0.3-0.3-0.5-0.7-0.5-1.2c0-0.5,0.2-0.9,0.5-1.2s0.8-0.5,1.3-0.5L1011.8,1654.5z
			 M1009.8,1657.1c0.2,0.2,0.4,0.2,0.7,0.2c0.3,0,0.7-0.1,1-0.2c0.5-0.3,0.8-0.7,0.8-1.3v-0.8c-0.1,0.1-0.3,0.1-0.5,0.2
			c-0.2,0.1-0.4,0.1-0.5,0.1l-0.6,0.1c-0.4,0-0.6,0.1-0.8,0.2c-0.3,0.2-0.4,0.4-0.4,0.8C1009.5,1656.7,1009.6,1657,1009.8,1657.1z"
			/>
		<path class="st3" d="M1018.5,1652.2h1.1c-0.1,0.4-0.4,1.2-0.9,2.5c-0.4,1-0.6,1.8-0.9,2.4c-0.6,1.5-1,2.4-1.2,2.7
			c-0.2,0.3-0.6,0.5-1.2,0.5c-0.1,0-0.2,0-0.3,0s-0.2,0-0.3-0.1v-0.9c0.2,0,0.3,0.1,0.4,0.1c0.1,0,0.1,0,0.2,0c0.2,0,0.3,0,0.4-0.1
			c0.1-0.1,0.2-0.1,0.2-0.2c0,0,0.1-0.2,0.2-0.4c0.1-0.3,0.2-0.5,0.2-0.6l-2.1-5.9h1.1l1.5,4.7L1018.5,1652.2z"/>
	</g>
	<rect id="長方形_652-4" x="930" y="1731.6" class="st0" width="120" height="20"/>
	<g class="st2">
		<path class="st3" d="M946.8,1738.8h1.3l3.9,6.4v-6.4h1v7.9h-1.2l-4-6.4v6.4h-1V1738.8z"/>
		<path class="st3" d="M957.7,1743.2c0.2,0,0.4-0.1,0.4-0.3c0-0.1,0.1-0.2,0.1-0.4c0-0.3-0.1-0.6-0.4-0.7c-0.2-0.1-0.6-0.2-1-0.2
			c-0.5,0-0.9,0.1-1.1,0.4c-0.1,0.2-0.2,0.4-0.2,0.7h-0.9c0-0.7,0.2-1.2,0.7-1.5c0.4-0.3,1-0.4,1.5-0.4c0.7,0,1.2,0.1,1.6,0.4
			c0.4,0.3,0.6,0.7,0.6,1.2v3.3c0,0.1,0,0.2,0.1,0.2c0,0.1,0.1,0.1,0.3,0.1c0,0,0.1,0,0.1,0c0.1,0,0.1,0,0.2,0v0.7
			c-0.2,0-0.3,0.1-0.3,0.1s-0.2,0-0.3,0c-0.3,0-0.6-0.1-0.7-0.4c-0.1-0.1-0.1-0.3-0.2-0.5c-0.2,0.3-0.5,0.5-0.8,0.7
			c-0.4,0.2-0.8,0.3-1.2,0.3c-0.5,0-1-0.2-1.3-0.5c-0.3-0.3-0.5-0.7-0.5-1.2c0-0.5,0.2-0.9,0.5-1.2s0.8-0.5,1.3-0.5L957.7,1743.2z
			 M955.7,1745.8c0.2,0.2,0.4,0.2,0.7,0.2c0.3,0,0.7-0.1,1-0.2c0.5-0.3,0.8-0.7,0.8-1.3v-0.8c-0.1,0.1-0.3,0.1-0.5,0.2
			c-0.2,0.1-0.4,0.1-0.5,0.1l-0.6,0.1c-0.4,0-0.6,0.1-0.8,0.2c-0.3,0.2-0.4,0.4-0.4,0.8C955.4,1745.4,955.5,1745.7,955.7,1745.8z"/>
		<path class="st3" d="M960.9,1739.3h1v1.6h0.9v0.8h-0.9v3.8c0,0.2,0.1,0.3,0.2,0.4c0.1,0,0.2,0.1,0.4,0.1c0,0,0.1,0,0.2,0
			c0.1,0,0.1,0,0.2,0v0.8c-0.1,0-0.2,0.1-0.3,0.1c-0.1,0-0.2,0-0.4,0c-0.5,0-0.8-0.1-0.9-0.3c-0.2-0.2-0.2-0.5-0.2-0.9v-3.8h-0.8
			v-0.8h0.8V1739.3z"/>
		<path class="st3" d="M963.8,1738.8h1v1.1h-1V1738.8z M963.8,1741h1v5.7h-1V1741z"/>
		<path class="st3" d="M970.4,1741.5c0.5,0.5,0.8,1.2,0.8,2.2c0,0.9-0.2,1.7-0.7,2.3c-0.4,0.6-1.1,0.9-2.1,0.9
			c-0.8,0-1.4-0.3-1.9-0.8c-0.5-0.5-0.7-1.3-0.7-2.2c0-1,0.2-1.7,0.7-2.3c0.5-0.6,1.1-0.9,2-0.9
			C969.3,1740.8,969.9,1741,970.4,1741.5z M969.8,1745.3c0.2-0.5,0.4-1,0.4-1.6c0-0.5-0.1-1-0.3-1.3c-0.3-0.5-0.7-0.8-1.4-0.8
			c-0.6,0-1,0.2-1.3,0.7c-0.3,0.5-0.4,1-0.4,1.6c0,0.6,0.1,1.1,0.4,1.5c0.3,0.4,0.7,0.6,1.3,0.6
			C969.1,1746.1,969.6,1745.8,969.8,1745.3z"/>
		<path class="st3" d="M972.4,1740.9h0.9v0.8c0.3-0.3,0.6-0.6,0.9-0.7s0.6-0.2,1-0.2c0.8,0,1.4,0.3,1.7,0.9c0.2,0.3,0.2,0.8,0.2,1.3
			v3.7h-1v-3.6c0-0.4-0.1-0.6-0.2-0.8c-0.2-0.4-0.5-0.5-0.9-0.5c-0.2,0-0.4,0-0.6,0.1c-0.3,0.1-0.5,0.2-0.7,0.5
			c-0.2,0.2-0.3,0.4-0.3,0.6c0,0.2-0.1,0.5-0.1,0.9v3h-1V1740.9z"/>
		<path class="st3" d="M981.6,1743.2c0.2,0,0.4-0.1,0.4-0.3c0-0.1,0.1-0.2,0.1-0.4c0-0.3-0.1-0.6-0.4-0.7c-0.2-0.1-0.6-0.2-1-0.2
			c-0.5,0-0.9,0.1-1.1,0.4c-0.1,0.2-0.2,0.4-0.2,0.7h-0.9c0-0.7,0.2-1.2,0.7-1.5c0.4-0.3,1-0.4,1.5-0.4c0.7,0,1.2,0.1,1.6,0.4
			c0.4,0.3,0.6,0.7,0.6,1.2v3.3c0,0.1,0,0.2,0.1,0.2c0,0.1,0.1,0.1,0.3,0.1c0,0,0.1,0,0.1,0c0.1,0,0.1,0,0.2,0v0.7
			c-0.2,0-0.3,0.1-0.3,0.1s-0.2,0-0.3,0c-0.3,0-0.6-0.1-0.7-0.4c-0.1-0.1-0.1-0.3-0.2-0.5c-0.2,0.3-0.5,0.5-0.8,0.7
			c-0.4,0.2-0.8,0.3-1.2,0.3c-0.5,0-1-0.2-1.3-0.5c-0.3-0.3-0.5-0.7-0.5-1.2c0-0.5,0.2-0.9,0.5-1.2s0.8-0.5,1.3-0.5L981.6,1743.2z
			 M979.5,1745.8c0.2,0.2,0.4,0.2,0.7,0.2c0.3,0,0.7-0.1,1-0.2c0.5-0.3,0.8-0.7,0.8-1.3v-0.8c-0.1,0.1-0.3,0.1-0.5,0.2
			c-0.2,0.1-0.4,0.1-0.5,0.1l-0.6,0.1c-0.4,0-0.6,0.1-0.8,0.2c-0.3,0.2-0.4,0.4-0.4,0.8C979.2,1745.4,979.3,1745.7,979.5,1745.8z"/>
		<path class="st3" d="M984.6,1738.8h1v7.9h-1V1738.8z"/>
		<path class="st3" d="M990.4,1738.8h3.6c0.6,0,1.1,0.1,1.5,0.3c0.7,0.3,1.1,1,1.1,1.9c0,0.5-0.1,0.9-0.3,1.2
			c-0.2,0.3-0.5,0.5-0.8,0.7c0.3,0.1,0.5,0.3,0.7,0.5c0.2,0.2,0.2,0.5,0.3,1l0,1.1c0,0.3,0,0.5,0.1,0.7c0.1,0.2,0.2,0.4,0.3,0.5v0.2
			h-1.3c0-0.1-0.1-0.2-0.1-0.3s0-0.3-0.1-0.6l-0.1-1.3c0-0.5-0.2-0.9-0.6-1c-0.2-0.1-0.5-0.1-0.9-0.1h-2.4v3.4h-1.1V1738.8z
			 M993.8,1742.4c0.5,0,0.9-0.1,1.2-0.3c0.3-0.2,0.4-0.6,0.4-1.1c0-0.6-0.2-0.9-0.6-1.1c-0.2-0.1-0.5-0.2-0.9-0.2h-2.5v2.7H993.8z"
			/>
		<path class="st3" d="M1002.2,1741.5c0.5,0.5,0.8,1.2,0.8,2.2c0,0.9-0.2,1.7-0.7,2.3s-1.1,0.9-2.1,0.9c-0.8,0-1.4-0.3-1.9-0.8
			c-0.5-0.5-0.7-1.3-0.7-2.2c0-1,0.2-1.7,0.7-2.3s1.1-0.9,2-0.9C1001.1,1740.8,1001.7,1741,1002.2,1741.5z M1001.6,1745.3
			c0.2-0.5,0.4-1,0.4-1.6c0-0.5-0.1-1-0.3-1.3c-0.3-0.5-0.7-0.8-1.4-0.8c-0.6,0-1,0.2-1.3,0.7c-0.3,0.5-0.4,1-0.4,1.6
			c0,0.6,0.1,1.1,0.4,1.5c0.3,0.4,0.7,0.6,1.3,0.6C1000.9,1746.1,1001.4,1745.8,1001.6,1745.3z"/>
		<path class="st3" d="M1005.1,1740.9v3.8c0,0.3,0,0.5,0.1,0.7c0.2,0.3,0.5,0.5,0.9,0.5c0.7,0,1.1-0.3,1.3-0.9
			c0.1-0.3,0.2-0.8,0.2-1.3v-2.8h1v5.8h-0.9l0-0.8c-0.1,0.2-0.3,0.4-0.5,0.6c-0.4,0.3-0.8,0.5-1.3,0.5c-0.8,0-1.4-0.3-1.6-0.8
			c-0.2-0.3-0.2-0.7-0.2-1.2v-3.9H1005.1z"/>
		<path class="st3" d="M1010.5,1739.3h1v1.6h0.9v0.8h-0.9v3.8c0,0.2,0.1,0.3,0.2,0.4c0.1,0,0.2,0.1,0.4,0.1c0,0,0.1,0,0.2,0
			c0.1,0,0.1,0,0.2,0v0.8c-0.1,0-0.2,0.1-0.3,0.1c-0.1,0-0.2,0-0.4,0c-0.5,0-0.8-0.1-0.9-0.3c-0.2-0.2-0.2-0.5-0.2-0.9v-3.8h-0.8
			v-0.8h0.8V1739.3z"/>
		<path class="st3" d="M1016.9,1741.1c0.4,0.2,0.7,0.4,0.9,0.7c0.2,0.3,0.3,0.6,0.4,1c0.1,0.3,0.1,0.7,0.1,1.3h-4.2
			c0,0.6,0.2,1.1,0.4,1.4s0.7,0.5,1.2,0.5c0.5,0,0.9-0.2,1.2-0.5c0.2-0.2,0.3-0.4,0.4-0.7h1c0,0.2-0.1,0.4-0.2,0.7s-0.3,0.5-0.5,0.6
			c-0.3,0.3-0.7,0.5-1.1,0.6c-0.2,0.1-0.5,0.1-0.8,0.1c-0.7,0-1.3-0.3-1.8-0.8c-0.5-0.5-0.7-1.3-0.7-2.2c0-0.9,0.2-1.7,0.7-2.3
			c0.5-0.6,1.1-0.9,2-0.9C1016.1,1740.8,1016.5,1740.9,1016.9,1741.1z M1017.2,1743.4c0-0.4-0.1-0.8-0.3-1c-0.3-0.5-0.7-0.7-1.3-0.7
			c-0.4,0-0.8,0.2-1.1,0.5c-0.3,0.3-0.5,0.7-0.5,1.2H1017.2z"/>
		<path class="st3" d="M1022.8,1741.2v-0.7c0.7-0.1,1.2-0.2,1.5-0.3c0.3-0.2,0.5-0.5,0.6-1.1h0.8v7.7h-1v-5.4H1022.8z"/>
		<path class="st3" d="M1029,1742.2c-0.3-0.3-0.4-0.7-0.4-1.1c0-0.6,0.2-1.1,0.6-1.5c0.4-0.4,1-0.6,1.8-0.6c0.7,0,1.3,0.2,1.7,0.6
			c0.4,0.4,0.6,0.8,0.6,1.4c0,0.5-0.1,0.9-0.4,1.2c-0.1,0.2-0.3,0.3-0.6,0.5c0.3,0.1,0.6,0.3,0.8,0.5c0.3,0.4,0.5,0.8,0.5,1.4
			c0,0.7-0.2,1.2-0.7,1.7c-0.5,0.5-1.1,0.7-1.9,0.7c-0.7,0-1.4-0.2-1.9-0.6s-0.8-1-0.8-1.8c0-0.5,0.1-0.8,0.3-1.2s0.6-0.6,1-0.8
			C1029.3,1742.5,1029.1,1742.3,1029,1742.2z M1032.1,1745.7c0.3-0.2,0.4-0.6,0.4-1.1c0-0.5-0.2-0.9-0.5-1.1
			c-0.3-0.3-0.7-0.4-1.2-0.4c-0.5,0-0.8,0.1-1.1,0.4c-0.3,0.3-0.4,0.6-0.4,1.1c0,0.4,0.1,0.7,0.4,1c0.3,0.3,0.7,0.4,1.2,0.4
			C1031.4,1746,1031.8,1745.9,1032.1,1745.7z M1031.9,1741.9c0.2-0.2,0.4-0.5,0.4-0.9c0-0.3-0.1-0.6-0.3-0.8c-0.2-0.2-0.6-0.4-1-0.4
			c-0.5,0-0.8,0.1-1,0.4c-0.2,0.2-0.3,0.5-0.3,0.8c0,0.4,0.1,0.6,0.4,0.9c0.3,0.2,0.6,0.3,0.9,0.3
			C1031.3,1742.2,1031.7,1742.1,1031.9,1741.9z"/>
	</g>
	<rect id="長方形_652-5" x="945" y="1688.6" class="st4" width="90" height="20"/>
	<g class="st2">
		<path class="st3" d="M962.4,1695.1h1v3.9l3.9-3.9h1.5l-3.4,3.2l3.4,4.7h-1.4l-2.8-4l-1.3,1.2v2.8h-1V1695.1z"/>
		<path class="st3" d="M973.8,1697.8c0.5,0.5,0.8,1.2,0.8,2.2c0,0.9-0.2,1.7-0.7,2.3c-0.4,0.6-1.1,0.9-2.1,0.9
			c-0.8,0-1.4-0.3-1.9-0.8c-0.5-0.5-0.7-1.3-0.7-2.2c0-1,0.2-1.7,0.7-2.3c0.5-0.6,1.1-0.9,2-0.9
			C972.7,1697,973.3,1697.3,973.8,1697.8z M973.2,1701.6c0.2-0.5,0.4-1,0.4-1.6c0-0.5-0.1-1-0.3-1.3c-0.3-0.5-0.7-0.8-1.4-0.8
			c-0.6,0-1,0.2-1.3,0.7c-0.3,0.5-0.4,1-0.4,1.6c0,0.6,0.1,1.1,0.4,1.5c0.3,0.4,0.7,0.6,1.3,0.6
			C972.5,1702.3,972.9,1702.1,973.2,1701.6z"/>
		<path class="st3" d="M976.3,1701.1c0,0.3,0.1,0.6,0.2,0.7c0.2,0.3,0.7,0.5,1.3,0.5c0.4,0,0.7-0.1,1-0.2c0.3-0.2,0.4-0.4,0.4-0.7
			c0-0.2-0.1-0.4-0.3-0.6c-0.1-0.1-0.4-0.2-0.8-0.3l-0.8-0.2c-0.5-0.1-0.9-0.3-1.1-0.4c-0.4-0.3-0.6-0.6-0.6-1.1
			c0-0.5,0.2-1,0.6-1.3c0.4-0.3,0.9-0.5,1.6-0.5c0.9,0,1.5,0.3,1.9,0.8c0.2,0.3,0.4,0.7,0.4,1h-0.9c0-0.2-0.1-0.4-0.2-0.6
			c-0.2-0.3-0.6-0.4-1.2-0.4c-0.4,0-0.7,0.1-0.8,0.2c-0.2,0.1-0.3,0.3-0.3,0.6c0,0.2,0.1,0.5,0.4,0.6c0.1,0.1,0.4,0.2,0.6,0.2
			l0.7,0.2c0.7,0.2,1.2,0.3,1.4,0.5c0.4,0.2,0.6,0.6,0.6,1.2c0,0.5-0.2,1-0.6,1.3c-0.4,0.4-1,0.6-1.8,0.6c-0.9,0-1.5-0.2-1.8-0.6
			s-0.6-0.9-0.6-1.4H976.3z"/>
		<path class="st3" d="M981.2,1695h1v2.9c0.2-0.3,0.4-0.5,0.6-0.6c0.3-0.2,0.7-0.3,1.2-0.3c0.8,0,1.4,0.3,1.7,0.9
			c0.2,0.3,0.2,0.8,0.2,1.3v3.7h-1v-3.6c0-0.4-0.1-0.7-0.2-0.9c-0.2-0.3-0.5-0.5-1-0.5c-0.4,0-0.8,0.1-1.1,0.4
			c-0.3,0.3-0.5,0.8-0.5,1.6v3.1h-1V1695z"/>
		<path class="st3" d="M991.5,1697.8c0.5,0.5,0.8,1.2,0.8,2.2c0,0.9-0.2,1.7-0.7,2.3c-0.4,0.6-1.1,0.9-2.1,0.9
			c-0.8,0-1.4-0.3-1.9-0.8c-0.5-0.5-0.7-1.3-0.7-2.2c0-1,0.2-1.7,0.7-2.3c0.5-0.6,1.1-0.9,2-0.9C990.4,1697,991,1697.3,991.5,1697.8
			z M990.9,1701.6c0.2-0.5,0.4-1,0.4-1.6c0-0.5-0.1-1-0.3-1.3c-0.3-0.5-0.7-0.8-1.4-0.8c-0.6,0-1,0.2-1.3,0.7
			c-0.3,0.5-0.4,1-0.4,1.6c0,0.6,0.1,1.1,0.4,1.5c0.3,0.4,0.7,0.6,1.3,0.6C990.2,1702.3,990.7,1702.1,990.9,1701.6z"/>
		<path class="st3" d="M993.4,1695.1h0.9v4.6l2.5-2.4h1.2l-2.2,2.1l2.3,3.6H997l-1.8-2.9l-0.8,0.8v2.2h-0.9V1695.1z"/>
		<path class="st3" d="M999.9,1697.2v3.8c0,0.3,0,0.5,0.1,0.7c0.2,0.3,0.5,0.5,0.9,0.5c0.7,0,1.1-0.3,1.3-0.9
			c0.1-0.3,0.2-0.8,0.2-1.3v-2.8h1v5.8h-0.9l0-0.8c-0.1,0.2-0.3,0.4-0.5,0.6c-0.4,0.3-0.8,0.5-1.3,0.5c-0.8,0-1.4-0.3-1.6-0.8
			c-0.2-0.3-0.2-0.7-0.2-1.2v-3.9H999.9z"/>
		<path class="st3" d="M1008.5,1695.1h1.1v7.9h-1.1V1695.1z"/>
		<path class="st3" d="M1016.9,1695.6c0.5,0.5,0.8,1.1,0.9,1.8h-1c-0.1-0.5-0.3-0.9-0.7-1.2c-0.3-0.3-0.8-0.4-1.5-0.4
			c-0.8,0-1.4,0.3-1.8,0.8c-0.5,0.5-0.7,1.4-0.7,2.5c0,0.9,0.2,1.7,0.6,2.2s1.1,0.9,1.9,0.9c0.8,0,1.4-0.3,1.8-0.9
			c0.2-0.3,0.4-0.7,0.5-1.3h1c-0.1,0.8-0.4,1.5-0.9,2.1c-0.6,0.7-1.5,1-2.5,1c-0.9,0-1.7-0.3-2.3-0.8c-0.8-0.7-1.2-1.9-1.2-3.4
			c0-1.2,0.3-2.1,0.9-2.9c0.7-0.8,1.6-1.2,2.7-1.2C1015.6,1694.8,1016.4,1695.1,1016.9,1695.6z"/>
	</g>
	<g id="パス_1701" transform="translate(930 1777)">
		<path class="st3" d="M119.5,39.5H0.5v-39h119V39.5z"/>
		<path class="st4" d="M1,1v38h118V1H1 M0,0h120v40H0V0z"/>
	</g>
	<g class="st2">
		<path class="st5" d="M967.1,1787.1v0.9h-2.7v7h-1.1v-7h-2.7v-0.9H967.1z"/>
		<path class="st5" d="M968.5,1789.2v3.8c0,0.3,0,0.5,0.1,0.7c0.2,0.3,0.5,0.5,0.9,0.5c0.7,0,1.1-0.3,1.3-0.9
			c0.1-0.3,0.2-0.8,0.2-1.3v-2.8h1v5.8h-0.9l0-0.8c-0.1,0.2-0.3,0.4-0.5,0.6c-0.4,0.3-0.8,0.5-1.3,0.5c-0.8,0-1.4-0.3-1.6-0.8
			c-0.2-0.3-0.2-0.7-0.2-1.2v-3.9H968.5z"/>
		<path class="st5" d="M973.7,1789.2h0.9v1c0.1-0.2,0.3-0.4,0.6-0.7s0.6-0.4,1-0.4c0,0,0,0,0.1,0s0.1,0,0.2,0v1c-0.1,0-0.1,0-0.2,0
			c0,0-0.1,0-0.2,0c-0.5,0-0.9,0.2-1.1,0.5s-0.4,0.7-0.4,1.1v3.3h-1V1789.2z"/>
		<path class="st5" d="M977.4,1789.2h0.9v0.8c0.3-0.3,0.6-0.6,0.9-0.7s0.6-0.2,1-0.2c0.8,0,1.4,0.3,1.7,0.9c0.2,0.3,0.2,0.8,0.2,1.3
			v3.7h-1v-3.6c0-0.4-0.1-0.6-0.2-0.8c-0.2-0.4-0.5-0.5-0.9-0.5c-0.2,0-0.4,0-0.6,0.1c-0.3,0.1-0.5,0.2-0.7,0.5
			c-0.2,0.2-0.3,0.4-0.3,0.6c0,0.2-0.1,0.5-0.1,0.9v3h-1V1789.2z"/>
		<path class="st5" d="M986.6,1789.2h0.9v1c0.1-0.2,0.3-0.4,0.6-0.7s0.6-0.4,1-0.4c0,0,0,0,0.1,0s0.1,0,0.2,0v1c-0.1,0-0.1,0-0.2,0
			c0,0-0.1,0-0.2,0c-0.5,0-0.9,0.2-1.1,0.5s-0.4,0.7-0.4,1.1v3.3h-1V1789.2z"/>
		<path class="st5" d="M990.2,1787.1h1v1.1h-1V1787.1z M990.2,1789.3h1v5.7h-1V1789.3z"/>
		<path class="st5" d="M995.8,1789.5c0.2,0.1,0.4,0.3,0.6,0.5v-0.7h0.9v5.2c0,0.7-0.1,1.3-0.3,1.7c-0.4,0.8-1.2,1.2-2.3,1.2
			c-0.6,0-1.1-0.1-1.6-0.4s-0.7-0.7-0.7-1.3h1c0,0.3,0.1,0.5,0.3,0.6c0.2,0.2,0.6,0.3,1,0.3c0.7,0,1.2-0.3,1.4-0.8
			c0.1-0.3,0.2-0.9,0.2-1.6c-0.2,0.3-0.4,0.5-0.7,0.7c-0.3,0.1-0.6,0.2-1.1,0.2c-0.6,0-1.2-0.2-1.6-0.7c-0.5-0.4-0.7-1.2-0.7-2.2
			c0-1,0.2-1.7,0.7-2.3c0.5-0.5,1-0.8,1.7-0.8C995.1,1789.1,995.5,1789.3,995.8,1789.5z M996,1790.5c-0.3-0.3-0.7-0.5-1.1-0.5
			c-0.7,0-1.1,0.3-1.4,1c-0.1,0.3-0.2,0.8-0.2,1.3c0,0.6,0.1,1.1,0.4,1.5c0.3,0.3,0.6,0.5,1.1,0.5c0.7,0,1.2-0.3,1.5-0.9
			c0.2-0.4,0.2-0.8,0.2-1.2C996.4,1791.4,996.2,1790.9,996,1790.5z"/>
		<path class="st5" d="M998.8,1787.1h1v2.9c0.2-0.3,0.4-0.5,0.6-0.6c0.3-0.2,0.7-0.3,1.2-0.3c0.8,0,1.4,0.3,1.7,0.9
			c0.2,0.3,0.2,0.8,0.2,1.3v3.7h-1v-3.6c0-0.4-0.1-0.7-0.2-0.9c-0.2-0.3-0.5-0.5-1-0.5c-0.4,0-0.8,0.1-1.1,0.4
			c-0.3,0.3-0.5,0.8-0.5,1.6v3.1h-1V1787.1z"/>
		<path class="st5" d="M1005.1,1787.6h1v1.6h0.9v0.8h-0.9v3.8c0,0.2,0.1,0.3,0.2,0.4c0.1,0,0.2,0.1,0.4,0.1c0,0,0.1,0,0.2,0
			c0.1,0,0.1,0,0.2,0v0.8c-0.1,0-0.2,0.1-0.3,0.1c-0.1,0-0.2,0-0.4,0c-0.5,0-0.8-0.1-0.9-0.3c-0.2-0.2-0.2-0.5-0.2-0.9v-3.8h-0.8
			v-0.8h0.8V1787.6z"/>
		<path class="st5" d="M1014.1,1791.5c0.2,0,0.4-0.1,0.4-0.3c0-0.1,0.1-0.2,0.1-0.4c0-0.3-0.1-0.6-0.4-0.7c-0.2-0.1-0.6-0.2-1-0.2
			c-0.5,0-0.9,0.1-1.1,0.4c-0.1,0.2-0.2,0.4-0.2,0.7h-0.9c0-0.7,0.2-1.2,0.7-1.5s1-0.4,1.5-0.4c0.7,0,1.2,0.1,1.6,0.4
			c0.4,0.3,0.6,0.7,0.6,1.2v3.3c0,0.1,0,0.2,0.1,0.2c0,0.1,0.1,0.1,0.3,0.1c0,0,0.1,0,0.1,0c0.1,0,0.1,0,0.2,0v0.7
			c-0.2,0-0.3,0.1-0.3,0.1c-0.1,0-0.2,0-0.3,0c-0.3,0-0.6-0.1-0.7-0.4c-0.1-0.1-0.1-0.3-0.2-0.5c-0.2,0.3-0.5,0.5-0.8,0.7
			c-0.4,0.2-0.8,0.3-1.2,0.3c-0.5,0-1-0.2-1.3-0.5c-0.3-0.3-0.5-0.7-0.5-1.2c0-0.5,0.2-0.9,0.5-1.2s0.8-0.5,1.3-0.5L1014.1,1791.5z
			 M1012,1794.1c0.2,0.2,0.4,0.2,0.7,0.2c0.3,0,0.7-0.1,1-0.2c0.5-0.3,0.8-0.7,0.8-1.3v-0.8c-0.1,0.1-0.3,0.1-0.5,0.2
			c-0.2,0.1-0.4,0.1-0.5,0.1l-0.6,0.1c-0.4,0-0.6,0.1-0.8,0.2c-0.3,0.2-0.4,0.4-0.4,0.8C1011.7,1793.7,1011.8,1794,1012,1794.1z"/>
		<path class="st5" d="M1017.3,1787.6h1v1.6h0.9v0.8h-0.9v3.8c0,0.2,0.1,0.3,0.2,0.4c0.1,0,0.2,0.1,0.4,0.1c0,0,0.1,0,0.2,0
			c0.1,0,0.1,0,0.2,0v0.8c-0.1,0-0.2,0.1-0.3,0.1c-0.1,0-0.2,0-0.4,0c-0.5,0-0.8-0.1-0.9-0.3c-0.2-0.2-0.2-0.5-0.2-0.9v-3.8h-0.8
			v-0.8h0.8V1787.6z"/>
	</g>
	<g class="st2">
		<path class="st5" d="M957.7,1799.1v0.9h-2.7v7H954v-7h-2.7v-0.9H957.7z"/>
		<path class="st5" d="M961.6,1801.8c0.5,0.5,0.8,1.2,0.8,2.2c0,0.9-0.2,1.7-0.7,2.3c-0.4,0.6-1.1,0.9-2.1,0.9
			c-0.8,0-1.4-0.3-1.9-0.8c-0.5-0.5-0.7-1.3-0.7-2.2c0-1,0.2-1.7,0.7-2.3c0.5-0.6,1.1-0.9,2-0.9
			C960.4,1801.1,961,1801.3,961.6,1801.8z M961,1805.6c0.2-0.5,0.4-1,0.4-1.6c0-0.5-0.1-1-0.3-1.3c-0.3-0.5-0.7-0.8-1.4-0.8
			c-0.6,0-1,0.2-1.3,0.7c-0.3,0.5-0.4,1-0.4,1.6c0,0.6,0.1,1.1,0.4,1.5c0.3,0.4,0.7,0.6,1.3,0.6
			C960.3,1806.4,960.7,1806.1,961,1805.6z"/>
		<path class="st5" d="M966.7,1801.5c0.2,0.1,0.4,0.3,0.6,0.5v-0.7h0.9v5.2c0,0.7-0.1,1.3-0.3,1.7c-0.4,0.8-1.2,1.2-2.3,1.2
			c-0.6,0-1.1-0.1-1.6-0.4c-0.4-0.3-0.7-0.7-0.7-1.3h1c0,0.3,0.1,0.5,0.3,0.6c0.2,0.2,0.6,0.3,1,0.3c0.7,0,1.2-0.3,1.4-0.8
			c0.1-0.3,0.2-0.9,0.2-1.6c-0.2,0.3-0.4,0.5-0.7,0.7c-0.3,0.1-0.6,0.2-1.1,0.2c-0.6,0-1.2-0.2-1.6-0.7s-0.7-1.2-0.7-2.2
			c0-1,0.2-1.7,0.7-2.3c0.5-0.5,1-0.8,1.7-0.8C966,1801.1,966.4,1801.3,966.7,1801.5z M966.8,1802.5c-0.3-0.3-0.7-0.5-1.1-0.5
			c-0.7,0-1.1,0.3-1.4,1c-0.1,0.3-0.2,0.8-0.2,1.3c0,0.6,0.1,1.1,0.4,1.5c0.3,0.3,0.6,0.5,1.1,0.5c0.7,0,1.2-0.3,1.5-0.9
			c0.2-0.4,0.2-0.8,0.2-1.2C967.3,1803.4,967.1,1802.9,966.8,1802.5z"/>
		<path class="st5" d="M970.6,1801.2v3.8c0,0.3,0,0.5,0.1,0.7c0.2,0.3,0.5,0.5,0.9,0.5c0.7,0,1.1-0.3,1.3-0.9
			c0.1-0.3,0.2-0.8,0.2-1.3v-2.8h1v5.8h-0.9l0-0.8c-0.1,0.2-0.3,0.4-0.5,0.6c-0.4,0.3-0.8,0.5-1.3,0.5c-0.8,0-1.4-0.3-1.6-0.8
			c-0.2-0.3-0.2-0.7-0.2-1.2v-3.9H970.6z"/>
		<path class="st5" d="M975.8,1801.2h0.9v1c0.1-0.2,0.3-0.4,0.6-0.7s0.6-0.4,1-0.4c0,0,0,0,0.1,0s0.1,0,0.2,0v1c-0.1,0-0.1,0-0.2,0
			c0,0-0.1,0-0.2,0c-0.5,0-0.9,0.2-1.1,0.5s-0.4,0.7-0.4,1.1v3.3h-1V1801.2z"/>
		<path class="st5" d="M982.5,1803.5c0.2,0,0.4-0.1,0.4-0.3c0-0.1,0.1-0.2,0.1-0.4c0-0.3-0.1-0.6-0.4-0.7c-0.2-0.1-0.6-0.2-1-0.2
			c-0.5,0-0.9,0.1-1.1,0.4c-0.1,0.2-0.2,0.4-0.2,0.7h-0.9c0-0.7,0.2-1.2,0.7-1.5c0.4-0.3,1-0.4,1.5-0.4c0.7,0,1.2,0.1,1.6,0.4
			c0.4,0.3,0.6,0.7,0.6,1.2v3.3c0,0.1,0,0.2,0.1,0.2c0,0.1,0.1,0.1,0.3,0.1c0,0,0.1,0,0.1,0c0.1,0,0.1,0,0.2,0v0.7
			c-0.2,0-0.3,0.1-0.3,0.1s-0.2,0-0.3,0c-0.3,0-0.6-0.1-0.7-0.4c-0.1-0.1-0.1-0.3-0.2-0.5c-0.2,0.3-0.5,0.5-0.8,0.7
			c-0.4,0.2-0.8,0.3-1.2,0.3c-0.5,0-1-0.2-1.3-0.5c-0.3-0.3-0.5-0.7-0.5-1.2c0-0.5,0.2-0.9,0.5-1.2s0.8-0.5,1.3-0.5L982.5,1803.5z
			 M980.4,1806.1c0.2,0.2,0.4,0.2,0.7,0.2c0.3,0,0.7-0.1,1-0.2c0.5-0.3,0.8-0.7,0.8-1.3v-0.8c-0.1,0.1-0.3,0.1-0.5,0.2
			c-0.2,0.1-0.4,0.1-0.5,0.1l-0.6,0.1c-0.4,0-0.6,0.1-0.8,0.2c-0.3,0.2-0.4,0.4-0.4,0.8C980.1,1805.7,980.2,1806,980.4,1806.1z"/>
		<path class="st5" d="M992.4,1801.6c0.4,0.3,0.7,0.9,0.7,1.6h-0.9c-0.1-0.4-0.2-0.6-0.4-0.9s-0.5-0.4-1-0.4c-0.6,0-1.1,0.3-1.3,0.9
			c-0.2,0.4-0.3,0.9-0.3,1.4c0,0.6,0.1,1.1,0.4,1.5s0.6,0.6,1.1,0.6c0.4,0,0.7-0.1,1-0.4c0.2-0.2,0.4-0.6,0.5-1h0.9
			c-0.1,0.8-0.4,1.3-0.8,1.7s-1,0.5-1.6,0.5c-0.8,0-1.4-0.3-1.8-0.8s-0.7-1.2-0.7-2.1c0-1,0.2-1.8,0.7-2.4c0.5-0.6,1.1-0.8,1.9-0.8
			C991.4,1801.1,992,1801.2,992.4,1801.6z"/>
		<path class="st5" d="M994.1,1801.2h0.9v1c0.1-0.2,0.3-0.4,0.6-0.7c0.3-0.3,0.6-0.4,1-0.4c0,0,0,0,0.1,0s0.1,0,0.2,0v1
			c-0.1,0-0.1,0-0.2,0c0,0-0.1,0-0.2,0c-0.5,0-0.9,0.2-1.1,0.5c-0.3,0.3-0.4,0.7-0.4,1.1v3.3h-1V1801.2z"/>
		<path class="st5" d="M1001.9,1801.8c0.5,0.5,0.8,1.2,0.8,2.2c0,0.9-0.2,1.7-0.7,2.3c-0.4,0.6-1.1,0.9-2.1,0.9
			c-0.8,0-1.4-0.3-1.9-0.8c-0.5-0.5-0.7-1.3-0.7-2.2c0-1,0.2-1.7,0.7-2.3c0.5-0.6,1.1-0.9,2-0.9
			C1000.8,1801.1,1001.4,1801.3,1001.9,1801.8z M1001.3,1805.6c0.2-0.5,0.4-1,0.4-1.6c0-0.5-0.1-1-0.3-1.3c-0.3-0.5-0.7-0.8-1.4-0.8
			c-0.6,0-1,0.2-1.3,0.7c-0.3,0.5-0.4,1-0.4,1.6c0,0.6,0.1,1.1,0.4,1.5c0.3,0.4,0.7,0.6,1.3,0.6
			C1000.6,1806.4,1001.1,1806.1,1001.3,1805.6z"/>
		<path class="st5" d="M1004.4,1805.2c0,0.3,0.1,0.6,0.2,0.7c0.2,0.3,0.7,0.5,1.3,0.5c0.4,0,0.7-0.1,1-0.2c0.3-0.2,0.4-0.4,0.4-0.7
			c0-0.2-0.1-0.4-0.3-0.6c-0.1-0.1-0.4-0.2-0.8-0.3l-0.8-0.2c-0.5-0.1-0.9-0.3-1.1-0.4c-0.4-0.3-0.6-0.6-0.6-1.1
			c0-0.5,0.2-1,0.6-1.3c0.4-0.3,0.9-0.5,1.6-0.5c0.9,0,1.5,0.3,1.9,0.8c0.2,0.3,0.4,0.7,0.4,1h-0.9c0-0.2-0.1-0.4-0.2-0.6
			c-0.2-0.3-0.6-0.4-1.2-0.4c-0.4,0-0.7,0.1-0.8,0.2c-0.2,0.1-0.3,0.3-0.3,0.6c0,0.2,0.1,0.5,0.4,0.6c0.1,0.1,0.4,0.2,0.6,0.2
			l0.7,0.2c0.7,0.2,1.2,0.3,1.4,0.5c0.4,0.2,0.6,0.6,0.6,1.2c0,0.5-0.2,1-0.6,1.3c-0.4,0.4-1,0.6-1.8,0.6c-0.9,0-1.5-0.2-1.8-0.6
			c-0.4-0.4-0.6-0.9-0.6-1.4H1004.4z"/>
		<path class="st5" d="M1009.9,1805.2c0,0.3,0.1,0.6,0.2,0.7c0.2,0.3,0.7,0.5,1.3,0.5c0.4,0,0.7-0.1,1-0.2c0.3-0.2,0.4-0.4,0.4-0.7
			c0-0.2-0.1-0.4-0.3-0.6c-0.1-0.1-0.4-0.2-0.8-0.3l-0.8-0.2c-0.5-0.1-0.9-0.3-1.1-0.4c-0.4-0.3-0.6-0.6-0.6-1.1
			c0-0.5,0.2-1,0.6-1.3c0.4-0.3,0.9-0.5,1.6-0.5c0.9,0,1.5,0.3,1.9,0.8c0.2,0.3,0.4,0.7,0.4,1h-0.9c0-0.2-0.1-0.4-0.2-0.6
			c-0.2-0.3-0.6-0.4-1.2-0.4c-0.4,0-0.7,0.1-0.8,0.2c-0.2,0.1-0.3,0.3-0.3,0.6c0,0.2,0.1,0.5,0.4,0.6c0.1,0.1,0.4,0.2,0.6,0.2
			l0.7,0.2c0.7,0.2,1.2,0.3,1.4,0.5c0.4,0.2,0.6,0.6,0.6,1.2c0,0.5-0.2,1-0.6,1.3c-0.4,0.4-1,0.6-1.8,0.6c-0.9,0-1.5-0.2-1.8-0.6
			c-0.4-0.4-0.6-0.9-0.6-1.4H1009.9z"/>
		<path class="st5" d="M1014.9,1799.1h1v1.1h-1V1799.1z M1014.9,1801.3h1v5.7h-1V1801.3z"/>
		<path class="st5" d="M1017.3,1801.2h0.9v0.8c0.3-0.3,0.6-0.6,0.9-0.7c0.3-0.1,0.6-0.2,1-0.2c0.8,0,1.4,0.3,1.7,0.9
			c0.2,0.3,0.2,0.8,0.2,1.3v3.7h-1v-3.6c0-0.4-0.1-0.6-0.2-0.8c-0.2-0.4-0.5-0.5-0.9-0.5c-0.2,0-0.4,0-0.6,0.1
			c-0.3,0.1-0.5,0.2-0.7,0.5c-0.2,0.2-0.3,0.4-0.3,0.6c0,0.2-0.1,0.5-0.1,0.9v3h-1V1801.2z"/>
		<path class="st5" d="M1026.6,1801.5c0.2,0.1,0.4,0.3,0.6,0.5v-0.7h0.9v5.2c0,0.7-0.1,1.3-0.3,1.7c-0.4,0.8-1.2,1.2-2.3,1.2
			c-0.6,0-1.1-0.1-1.6-0.4s-0.7-0.7-0.7-1.3h1c0,0.3,0.1,0.5,0.3,0.6c0.2,0.2,0.6,0.3,1,0.3c0.7,0,1.2-0.3,1.4-0.8
			c0.1-0.3,0.2-0.9,0.2-1.6c-0.2,0.3-0.4,0.5-0.7,0.7c-0.3,0.1-0.6,0.2-1.1,0.2c-0.6,0-1.2-0.2-1.6-0.7c-0.5-0.4-0.7-1.2-0.7-2.2
			c0-1,0.2-1.7,0.7-2.3c0.5-0.5,1-0.8,1.7-0.8C1025.9,1801.1,1026.3,1801.3,1026.6,1801.5z M1026.7,1802.5c-0.3-0.3-0.7-0.5-1.1-0.5
			c-0.7,0-1.1,0.3-1.4,1c-0.1,0.3-0.2,0.8-0.2,1.3c0,0.6,0.1,1.1,0.4,1.5c0.3,0.3,0.6,0.5,1.1,0.5c0.7,0,1.2-0.3,1.5-0.9
			c0.2-0.4,0.2-0.8,0.2-1.2C1027.2,1803.4,1027,1802.9,1026.7,1802.5z"/>
	</g>
	<g id="パス_1701-2" transform="translate(950 1587)">
		<path class="st3" d="M79.5,24.5h-79v-24h79V24.5z"/>
		<path class="st4" d="M1,1v23h78V1H1 M0,0h80v25H0V0z"/>
	</g>
	<g class="st2">
		<path class="st5" d="M966.9,1600.6c0,0.7-0.1,1.2-0.3,1.6c-0.4,0.7-1.1,1-2.1,1c-0.6,0-1.1-0.2-1.5-0.5s-0.6-0.9-0.6-1.7v-0.6h1
			v0.6c0,0.4,0.1,0.8,0.3,1c0.2,0.2,0.5,0.3,0.9,0.3c0.6,0,0.9-0.2,1.1-0.6c0.1-0.2,0.2-0.7,0.2-1.4v-5.3h1.1V1600.6z"/>
		<path class="st5" d="M972.6,1597.8c0.5,0.5,0.8,1.2,0.8,2.2c0,0.9-0.2,1.7-0.7,2.3c-0.4,0.6-1.1,0.9-2.1,0.9
			c-0.8,0-1.4-0.3-1.9-0.8c-0.5-0.5-0.7-1.3-0.7-2.2c0-1,0.2-1.7,0.7-2.3c0.5-0.6,1.1-0.9,2-0.9
			C971.4,1597.1,972.1,1597.3,972.6,1597.8z M972,1601.6c0.2-0.5,0.4-1,0.4-1.6c0-0.5-0.1-1-0.3-1.3c-0.3-0.5-0.7-0.8-1.4-0.8
			c-0.6,0-1,0.2-1.3,0.7c-0.3,0.5-0.4,1-0.4,1.6c0,0.6,0.1,1.1,0.4,1.5c0.3,0.4,0.7,0.6,1.3,0.6
			C971.3,1602.4,971.7,1602.1,972,1601.6z"/>
		<path class="st5" d="M978.1,1597.4c0.4,0.2,0.7,0.4,0.9,0.7c0.2,0.3,0.3,0.6,0.4,1c0.1,0.3,0.1,0.7,0.1,1.3h-4.2
			c0,0.6,0.2,1.1,0.4,1.4c0.3,0.4,0.7,0.5,1.2,0.5c0.5,0,0.9-0.2,1.2-0.5c0.2-0.2,0.3-0.4,0.4-0.7h1c0,0.2-0.1,0.4-0.2,0.7
			c-0.1,0.3-0.3,0.5-0.5,0.6c-0.3,0.3-0.7,0.5-1.1,0.6c-0.2,0.1-0.5,0.1-0.8,0.1c-0.7,0-1.3-0.3-1.8-0.8c-0.5-0.5-0.7-1.3-0.7-2.2
			c0-0.9,0.2-1.7,0.7-2.3c0.5-0.6,1.1-0.9,2-0.9C977.3,1597.1,977.7,1597.2,978.1,1597.4z M978.4,1599.7c0-0.4-0.1-0.8-0.3-1
			c-0.3-0.5-0.7-0.7-1.3-0.7c-0.4,0-0.8,0.2-1.1,0.5s-0.5,0.7-0.5,1.2H978.4z"/>
		<path class="st5" d="M980.8,1595.6h1v1.6h0.9v0.8h-0.9v3.8c0,0.2,0.1,0.3,0.2,0.4c0.1,0,0.2,0.1,0.4,0.1c0,0,0.1,0,0.2,0
			c0.1,0,0.1,0,0.2,0v0.8c-0.1,0-0.2,0.1-0.3,0.1c-0.1,0-0.2,0-0.4,0c-0.5,0-0.8-0.1-0.9-0.3c-0.2-0.2-0.2-0.5-0.2-0.9v-3.8H980
			v-0.8h0.8V1595.6z"/>
		<path class="st5" d="M984.3,1601.2c0,0.3,0.1,0.6,0.2,0.7c0.2,0.3,0.7,0.5,1.3,0.5c0.4,0,0.7-0.1,1-0.2c0.3-0.2,0.4-0.4,0.4-0.7
			c0-0.2-0.1-0.4-0.3-0.6c-0.1-0.1-0.4-0.2-0.8-0.3l-0.8-0.2c-0.5-0.1-0.9-0.3-1.1-0.4c-0.4-0.3-0.6-0.6-0.6-1.1
			c0-0.5,0.2-1,0.6-1.3c0.4-0.3,0.9-0.5,1.6-0.5c0.9,0,1.5,0.3,1.9,0.8c0.2,0.3,0.4,0.7,0.4,1H987c0-0.2-0.1-0.4-0.2-0.6
			c-0.2-0.3-0.6-0.4-1.2-0.4c-0.4,0-0.7,0.1-0.8,0.2c-0.2,0.1-0.3,0.3-0.3,0.6c0,0.2,0.1,0.5,0.4,0.6c0.1,0.1,0.4,0.2,0.6,0.2
			l0.7,0.2c0.7,0.2,1.2,0.3,1.4,0.5c0.4,0.2,0.6,0.6,0.6,1.2c0,0.5-0.2,1-0.6,1.3c-0.4,0.4-1,0.6-1.8,0.6c-0.9,0-1.5-0.2-1.8-0.6
			s-0.6-0.9-0.6-1.4H984.3z"/>
		<path class="st5" d="M990.2,1597.2v3.8c0,0.3,0,0.5,0.1,0.7c0.2,0.3,0.5,0.5,0.9,0.5c0.7,0,1.1-0.3,1.3-0.9
			c0.1-0.3,0.2-0.8,0.2-1.3v-2.8h1v5.8h-0.9l0-0.8c-0.1,0.2-0.3,0.4-0.5,0.6c-0.4,0.3-0.8,0.5-1.3,0.5c-0.8,0-1.4-0.3-1.6-0.8
			c-0.2-0.3-0.2-0.7-0.2-1.2v-3.9H990.2z"/>
		<path class="st5" d="M1002.4,1600.6c0,0.7-0.1,1.2-0.3,1.6c-0.4,0.7-1.1,1-2.1,1c-0.6,0-1.1-0.2-1.5-0.5c-0.4-0.3-0.6-0.9-0.6-1.7
			v-0.6h1v0.6c0,0.4,0.1,0.8,0.3,1c0.2,0.2,0.5,0.3,0.9,0.3c0.6,0,0.9-0.2,1.1-0.6c0.1-0.2,0.2-0.7,0.2-1.4v-5.3h1.1V1600.6z"/>
		<path class="st5" d="M1009.6,1595.7c0.5,0.5,0.8,1.1,0.9,1.8h-1c-0.1-0.5-0.3-0.9-0.7-1.2c-0.3-0.3-0.8-0.4-1.5-0.4
			c-0.8,0-1.4,0.3-1.8,0.8c-0.5,0.5-0.7,1.4-0.7,2.5c0,0.9,0.2,1.7,0.6,2.2s1.1,0.9,1.9,0.9c0.8,0,1.4-0.3,1.8-0.9
			c0.2-0.3,0.4-0.7,0.5-1.3h1c-0.1,0.8-0.4,1.5-0.9,2.1c-0.6,0.7-1.5,1-2.5,1c-0.9,0-1.7-0.3-2.3-0.8c-0.8-0.7-1.2-1.9-1.2-3.4
			c0-1.2,0.3-2.1,0.9-2.9c0.7-0.8,1.6-1.2,2.7-1.2C1008.3,1594.9,1009,1595.2,1009.6,1595.7z"/>
		<path class="st5" d="M1017.7,1595.1v0.9h-2.7v7h-1.1v-7h-2.7v-0.9H1017.7z"/>
	</g>
</g>
</svg>
