<?xml version="1.0" encoding="utf-8"?>
<!-- Generator: Adobe Illustrator 28.1.0, SVG Export Plug-In . SVG Version: 6.00 Build 0)  -->
<svg version="1.1" id="レイヤー_1" xmlns="http://www.w3.org/2000/svg" xmlns:xlink="http://www.w3.org/1999/xlink" x="0px"
	 y="0px" viewBox="0 0 120 312.2" style="enable-background:new 0 0 120 312.2;" xml:space="preserve">
<style type="text/css">
	.st0{fill:#7F4F21;}
	.st1{fill:#2B2624;}
	.st2{enable-background:new    ;}
	.st3{fill:#FFFFFF;}
	.st4{fill:#009139;}
	.st5{fill:#07913A;}
</style>
<g id="グループ_1403" transform="translate(-784 -1504.815)">
	<rect id="長方形_654" x="844" y="1560.2" class="st0" width="1" height="225.7"/>
	<path id="長方形_652" class="st1" d="M796.5,1504.8h95c6.9,0,12.5,5.6,12.5,12.5l0,0c0,6.9-5.6,12.5-12.5,12.5h-95
		c-6.9,0-12.5-5.6-12.5-12.5l0,0C784,1510.4,789.6,1504.8,796.5,1504.8z"/>
	<g class="st2">
		<path class="st3" d="M799.3,1512.7h7v1.2h-5.6v3h4.9v1.2h-4.9v4.6h-1.4V1512.7z"/>
		<path class="st3" d="M808.3,1515.5h1.2v1.3c0.1-0.2,0.3-0.5,0.7-0.9c0.4-0.4,0.8-0.5,1.3-0.5c0,0,0.1,0,0.1,0s0.1,0,0.3,0v1.3
			c-0.1,0-0.1,0-0.2,0s-0.1,0-0.2,0c-0.6,0-1.1,0.2-1.4,0.6c-0.3,0.4-0.5,0.9-0.5,1.4v4.2h-1.2V1515.5z"/>
		<path class="st3" d="M818.9,1516.2c0.6,0.6,1,1.6,1,2.8c0,1.2-0.3,2.2-0.9,2.9c-0.6,0.8-1.5,1.2-2.7,1.2c-1,0-1.8-0.3-2.4-1
			c-0.6-0.7-0.9-1.6-0.9-2.7c0-1.2,0.3-2.2,0.9-2.9c0.6-0.7,1.5-1.1,2.5-1.1C817.5,1515.3,818.3,1515.6,818.9,1516.2z M818.2,1521.1
			c0.3-0.6,0.4-1.3,0.4-2.1c0-0.7-0.1-1.2-0.3-1.7c-0.3-0.7-0.9-1-1.8-1c-0.7,0-1.3,0.3-1.6,0.9s-0.5,1.3-0.5,2.1
			c0,0.8,0.2,1.4,0.5,1.9s0.9,0.8,1.6,0.8C817.3,1522,817.9,1521.7,818.2,1521.1z"/>
		<path class="st3" d="M822.1,1515.5h1.2v1c0.3-0.4,0.6-0.6,0.8-0.8c0.4-0.3,0.9-0.4,1.4-0.4c0.6,0,1.1,0.1,1.4,0.4
			c0.2,0.2,0.4,0.4,0.5,0.7c0.3-0.4,0.6-0.7,1-0.9c0.4-0.2,0.8-0.3,1.2-0.3c1,0,1.7,0.4,2,1.1c0.2,0.4,0.3,0.9,0.3,1.5v4.9h-1.3
			v-5.1c0-0.5-0.1-0.8-0.4-1s-0.5-0.3-0.9-0.3c-0.5,0-0.9,0.2-1.2,0.5s-0.5,0.9-0.5,1.6v4.3h-1.3v-4.8c0-0.5-0.1-0.9-0.2-1.1
			c-0.2-0.3-0.5-0.5-1-0.5c-0.5,0-0.9,0.2-1.3,0.5s-0.6,1-0.6,2v3.9h-1.2V1515.5z"/>
		<path class="st3" d="M839.2,1512.7h1.6l5,8.1v-8.1h1.3v10h-1.5l-5.1-8.1v8.1h-1.3V1512.7z"/>
		<path class="st3" d="M853.8,1518.4c0.3,0,0.5-0.2,0.6-0.4c0.1-0.1,0.1-0.3,0.1-0.5c0-0.4-0.1-0.7-0.4-0.9
			c-0.3-0.2-0.7-0.3-1.3-0.3c-0.6,0-1.1,0.2-1.4,0.5c-0.2,0.2-0.2,0.5-0.3,0.9h-1.1c0-0.9,0.3-1.5,0.9-1.9c0.6-0.4,1.2-0.5,2-0.5
			c0.9,0,1.6,0.2,2.1,0.5c0.5,0.3,0.8,0.8,0.8,1.5v4.2c0,0.1,0,0.2,0.1,0.3c0.1,0.1,0.2,0.1,0.3,0.1c0.1,0,0.1,0,0.2,0
			c0.1,0,0.1,0,0.2,0v0.9c-0.2,0.1-0.3,0.1-0.4,0.1c-0.1,0-0.2,0-0.4,0c-0.4,0-0.7-0.2-0.9-0.5c-0.1-0.2-0.2-0.4-0.2-0.7
			c-0.2,0.3-0.6,0.6-1.1,0.9c-0.5,0.2-1,0.4-1.6,0.4c-0.7,0-1.2-0.2-1.7-0.6c-0.4-0.4-0.6-0.9-0.6-1.5c0-0.7,0.2-1.2,0.6-1.6
			s1-0.6,1.7-0.7L853.8,1518.4z M851.2,1521.7c0.3,0.2,0.6,0.3,0.9,0.3c0.4,0,0.9-0.1,1.3-0.3c0.7-0.3,1-0.9,1-1.6v-1
			c-0.2,0.1-0.3,0.2-0.6,0.2c-0.2,0.1-0.5,0.1-0.7,0.1l-0.7,0.1c-0.4,0.1-0.8,0.2-1,0.3c-0.4,0.2-0.6,0.6-0.6,1
			C850.8,1521.2,850.9,1521.5,851.2,1521.7z"/>
		<path class="st3" d="M862.4,1515.8c0.2,0.2,0.5,0.4,0.7,0.7v-0.9h1.1v6.7c0,0.9-0.1,1.7-0.4,2.2c-0.5,1-1.5,1.5-2.9,1.5
			c-0.8,0-1.4-0.2-2-0.5c-0.5-0.4-0.8-0.9-0.9-1.7h1.3c0.1,0.3,0.2,0.6,0.4,0.8c0.3,0.3,0.7,0.4,1.3,0.4c0.9,0,1.6-0.3,1.8-1
			c0.2-0.4,0.3-1.1,0.2-2.1c-0.2,0.4-0.5,0.7-0.9,0.8c-0.3,0.2-0.8,0.3-1.4,0.3c-0.8,0-1.5-0.3-2.1-0.8c-0.6-0.6-0.9-1.5-0.9-2.8
			c0-1.2,0.3-2.2,0.9-2.9c0.6-0.7,1.3-1,2.2-1C861.5,1515.3,862,1515.5,862.4,1515.8z M862.6,1517.1c-0.4-0.4-0.8-0.7-1.4-0.7
			c-0.9,0-1.5,0.4-1.8,1.2c-0.2,0.4-0.3,1-0.3,1.7c0,0.8,0.2,1.5,0.5,1.9c0.3,0.4,0.8,0.6,1.3,0.6c0.9,0,1.5-0.4,1.9-1.2
			c0.2-0.5,0.3-1,0.3-1.6C863.1,1518.2,862.9,1517.5,862.6,1517.1z"/>
		<path class="st3" d="M872.1,1516.2c0.6,0.6,1,1.6,1,2.8c0,1.2-0.3,2.2-0.9,2.9s-1.5,1.2-2.7,1.2c-1,0-1.8-0.3-2.4-1
			c-0.6-0.7-0.9-1.6-0.9-2.7c0-1.2,0.3-2.2,0.9-2.9s1.5-1.1,2.5-1.1C870.7,1515.3,871.5,1515.6,872.1,1516.2z M871.4,1521.1
			c0.3-0.6,0.5-1.3,0.5-2.1c0-0.7-0.1-1.2-0.3-1.7c-0.3-0.7-0.9-1-1.8-1c-0.7,0-1.3,0.3-1.6,0.9s-0.5,1.3-0.5,2.1
			c0,0.8,0.2,1.4,0.5,1.9s0.9,0.8,1.6,0.8C870.5,1522,871.1,1521.7,871.4,1521.1z"/>
		<path class="st3" d="M879.9,1515.5h1.4c-0.2,0.5-0.6,1.5-1.2,3.2c-0.4,1.3-0.8,2.3-1.1,3.1c-0.7,1.9-1.2,3-1.5,3.4
			c-0.3,0.4-0.8,0.6-1.5,0.6c-0.2,0-0.3,0-0.4,0c-0.1,0-0.2,0-0.3-0.1v-1.1c0.2,0.1,0.4,0.1,0.5,0.1c0.1,0,0.2,0,0.3,0
			c0.2,0,0.4,0,0.5-0.1c0.1-0.1,0.2-0.2,0.3-0.3c0,0,0.1-0.2,0.2-0.6c0.1-0.3,0.2-0.6,0.3-0.8l-2.7-7.5h1.4l2,6L879.9,1515.5z"/>
		<path class="st3" d="M886.9,1518.4c0.3,0,0.5-0.2,0.6-0.4c0.1-0.1,0.1-0.3,0.1-0.5c0-0.4-0.1-0.7-0.4-0.9
			c-0.3-0.2-0.7-0.3-1.3-0.3c-0.6,0-1.1,0.2-1.4,0.5c-0.2,0.2-0.2,0.5-0.3,0.9h-1.1c0-0.9,0.3-1.5,0.9-1.9c0.6-0.4,1.2-0.5,2-0.5
			c0.9,0,1.6,0.2,2.1,0.5c0.5,0.3,0.8,0.8,0.8,1.5v4.2c0,0.1,0,0.2,0.1,0.3c0.1,0.1,0.2,0.1,0.3,0.1c0.1,0,0.1,0,0.2,0
			c0.1,0,0.1,0,0.2,0v0.9c-0.2,0.1-0.3,0.1-0.4,0.1c-0.1,0-0.2,0-0.4,0c-0.4,0-0.7-0.2-0.9-0.5c-0.1-0.2-0.2-0.4-0.2-0.7
			c-0.2,0.3-0.6,0.6-1.1,0.9c-0.5,0.2-1,0.4-1.6,0.4c-0.7,0-1.2-0.2-1.7-0.6c-0.4-0.4-0.6-0.9-0.6-1.5c0-0.7,0.2-1.2,0.6-1.6
			s1-0.6,1.7-0.7L886.9,1518.4z M884.4,1521.7c0.3,0.2,0.6,0.3,0.9,0.3c0.4,0,0.9-0.1,1.3-0.3c0.7-0.3,1-0.9,1-1.6v-1
			c-0.2,0.1-0.3,0.2-0.6,0.2c-0.2,0.1-0.5,0.1-0.7,0.1l-0.7,0.1c-0.4,0.1-0.8,0.2-1,0.3c-0.4,0.2-0.6,0.6-0.6,1
			C884,1521.2,884.1,1521.5,884.4,1521.7z"/>
	</g>
	<rect id="長方形_652-2" x="784" y="1550.3" class="st0" width="120" height="19.6"/>
	<g class="st2">
		<path class="st3" d="M804.7,1556.9v0.9h-2.7v7H801v-7h-2.7v-0.9H804.7z"/>
		<path class="st3" d="M808.5,1559.6c0.5,0.5,0.8,1.2,0.8,2.2c0,0.9-0.2,1.7-0.7,2.3c-0.4,0.6-1.1,0.9-2.1,0.9
			c-0.8,0-1.4-0.3-1.9-0.8c-0.5-0.5-0.7-1.3-0.7-2.2c0-1,0.2-1.7,0.7-2.3c0.5-0.6,1.1-0.9,2-0.9
			C807.4,1558.8,808,1559.1,808.5,1559.6z M807.9,1563.4c0.2-0.5,0.4-1,0.4-1.6c0-0.5-0.1-1-0.3-1.3c-0.3-0.5-0.7-0.8-1.4-0.8
			c-0.6,0-1,0.2-1.3,0.7c-0.3,0.5-0.4,1-0.4,1.6c0,0.6,0.1,1.1,0.4,1.5c0.3,0.4,0.7,0.6,1.3,0.6
			C807.3,1564.1,807.7,1563.9,807.9,1563.4z"/>
		<path class="st3" d="M810.5,1559h1v0.8c0.2-0.3,0.4-0.5,0.6-0.6c0.3-0.2,0.7-0.3,1.1-0.3c0.5,0,0.8,0.1,1.1,0.3
			c0.2,0.1,0.3,0.3,0.4,0.6c0.2-0.3,0.5-0.5,0.8-0.7s0.6-0.2,1-0.2c0.8,0,1.3,0.3,1.6,0.8c0.2,0.3,0.2,0.7,0.2,1.2v3.8h-1v-4
			c0-0.4-0.1-0.6-0.3-0.8c-0.2-0.1-0.4-0.2-0.7-0.2c-0.4,0-0.7,0.1-1,0.4c-0.3,0.3-0.4,0.7-0.4,1.3v3.3h-1v-3.8c0-0.4,0-0.7-0.1-0.9
			c-0.1-0.3-0.4-0.4-0.8-0.4c-0.4,0-0.7,0.1-1,0.4c-0.3,0.3-0.4,0.8-0.4,1.5v3.1h-1V1559z"/>
		<path class="st3" d="M823.2,1559.2c0.4,0.2,0.7,0.4,0.9,0.7c0.2,0.3,0.3,0.6,0.4,1c0.1,0.3,0.1,0.7,0.1,1.3h-4.2
			c0,0.6,0.2,1.1,0.4,1.4c0.3,0.4,0.7,0.5,1.2,0.5c0.5,0,0.9-0.2,1.2-0.5c0.2-0.2,0.3-0.4,0.4-0.7h1c0,0.2-0.1,0.4-0.2,0.7
			c-0.1,0.3-0.3,0.5-0.5,0.6c-0.3,0.3-0.7,0.5-1.1,0.6c-0.2,0.1-0.5,0.1-0.8,0.1c-0.7,0-1.3-0.3-1.8-0.8c-0.5-0.5-0.7-1.3-0.7-2.2
			c0-0.9,0.2-1.7,0.7-2.3c0.5-0.6,1.1-0.9,2-0.9C822.4,1558.9,822.8,1559,823.2,1559.2z M823.5,1561.4c0-0.4-0.1-0.8-0.3-1
			c-0.3-0.5-0.7-0.7-1.3-0.7c-0.4,0-0.8,0.2-1.1,0.5s-0.5,0.7-0.5,1.2H823.5z"/>
		<path class="st3" d="M825.8,1556.9h1v1.1h-1V1556.9z M825.8,1559h1v5.7h-1V1559z"/>
		<path class="st3" d="M831.5,1556.9h5.7v1h-4.7v2.4h4.3v0.9h-4.3v2.7h4.8v0.9h-5.8V1556.9z"/>
		<path class="st3" d="M838,1559h1.3l1.3,2l1.3-2l1.2,0l-1.9,2.8l2,2.9H842l-1.4-2.2l-1.4,2.2h-1.2l2-2.9L838,1559z"/>
		<path class="st3" d="M844,1559h0.9v0.8c0.2-0.3,0.4-0.5,0.6-0.6c0.3-0.2,0.7-0.3,1.2-0.3c0.7,0,1.2,0.2,1.7,0.8
			c0.5,0.5,0.7,1.2,0.7,2.1c0,1.3-0.3,2.1-1,2.7c-0.4,0.3-0.9,0.5-1.5,0.5c-0.4,0-0.8-0.1-1.1-0.3c-0.2-0.1-0.4-0.3-0.6-0.6v2.9h-1
			V1559z M847.7,1563.5c0.3-0.4,0.5-0.9,0.5-1.7c0-0.5-0.1-0.9-0.2-1.2c-0.3-0.6-0.7-1-1.4-1c-0.7,0-1.1,0.3-1.4,1
			c-0.1,0.4-0.2,0.8-0.2,1.4c0,0.4,0.1,0.8,0.2,1.1c0.3,0.6,0.7,0.9,1.4,0.9C847,1564.1,847.4,1563.9,847.7,1563.5z"/>
		<path class="st3" d="M850.2,1559h0.9v1c0.1-0.2,0.3-0.4,0.6-0.7c0.3-0.3,0.6-0.4,1-0.4c0,0,0,0,0.1,0s0.1,0,0.2,0v1
			c-0.1,0-0.1,0-0.2,0c0,0-0.1,0-0.2,0c-0.5,0-0.9,0.2-1.1,0.5c-0.3,0.3-0.4,0.7-0.4,1.1v3.3h-1V1559z"/>
		<path class="st3" d="M857.4,1559.2c0.4,0.2,0.7,0.4,0.9,0.7c0.2,0.3,0.3,0.6,0.4,1c0.1,0.3,0.1,0.7,0.1,1.3h-4.2
			c0,0.6,0.2,1.1,0.4,1.4c0.3,0.4,0.7,0.5,1.2,0.5c0.5,0,0.9-0.2,1.2-0.5c0.2-0.2,0.3-0.4,0.4-0.7h1c0,0.2-0.1,0.4-0.2,0.7
			c-0.1,0.3-0.3,0.5-0.5,0.6c-0.3,0.3-0.7,0.5-1.1,0.6c-0.2,0.1-0.5,0.1-0.8,0.1c-0.7,0-1.3-0.3-1.8-0.8c-0.5-0.5-0.7-1.3-0.7-2.2
			c0-0.9,0.2-1.7,0.7-2.3s1.1-0.9,2-0.9C856.7,1558.9,857,1559,857.4,1559.2z M857.8,1561.4c0-0.4-0.1-0.8-0.3-1
			c-0.3-0.5-0.7-0.7-1.3-0.7c-0.4,0-0.8,0.2-1.1,0.5c-0.3,0.3-0.5,0.7-0.5,1.2H857.8z"/>
		<path class="st3" d="M860.6,1563c0,0.3,0.1,0.6,0.2,0.7c0.2,0.3,0.7,0.5,1.3,0.5c0.4,0,0.7-0.1,1-0.2c0.3-0.2,0.4-0.4,0.4-0.7
			c0-0.2-0.1-0.4-0.3-0.6c-0.1-0.1-0.4-0.2-0.8-0.3l-0.8-0.2c-0.5-0.1-0.9-0.3-1.1-0.4c-0.4-0.3-0.6-0.6-0.6-1.1
			c0-0.5,0.2-1,0.6-1.3c0.4-0.3,0.9-0.5,1.6-0.5c0.9,0,1.5,0.3,1.9,0.8c0.2,0.3,0.4,0.7,0.4,1h-0.9c0-0.2-0.1-0.4-0.2-0.6
			c-0.2-0.3-0.6-0.4-1.2-0.4c-0.4,0-0.7,0.1-0.8,0.2c-0.2,0.1-0.3,0.3-0.3,0.6c0,0.2,0.1,0.5,0.4,0.6c0.1,0.1,0.4,0.2,0.6,0.2
			l0.7,0.2c0.7,0.2,1.2,0.3,1.4,0.5c0.4,0.2,0.6,0.6,0.6,1.2c0,0.5-0.2,1-0.6,1.3c-0.4,0.4-1,0.6-1.8,0.6c-0.9,0-1.5-0.2-1.8-0.6
			c-0.4-0.4-0.6-0.9-0.6-1.4H860.6z"/>
		<path class="st3" d="M866.1,1563c0,0.3,0.1,0.6,0.2,0.7c0.2,0.3,0.7,0.5,1.3,0.5c0.4,0,0.7-0.1,1-0.2c0.3-0.2,0.4-0.4,0.4-0.7
			c0-0.2-0.1-0.4-0.3-0.6c-0.1-0.1-0.4-0.2-0.8-0.3l-0.8-0.2c-0.5-0.1-0.9-0.3-1.1-0.4c-0.4-0.3-0.6-0.6-0.6-1.1
			c0-0.5,0.2-1,0.6-1.3c0.4-0.3,0.9-0.5,1.6-0.5c0.9,0,1.5,0.3,1.9,0.8c0.2,0.3,0.4,0.7,0.4,1h-0.9c0-0.2-0.1-0.4-0.2-0.6
			c-0.2-0.3-0.6-0.4-1.2-0.4c-0.4,0-0.7,0.1-0.8,0.2c-0.2,0.1-0.3,0.3-0.3,0.6c0,0.2,0.1,0.5,0.4,0.6c0.1,0.1,0.4,0.2,0.6,0.2
			l0.7,0.2c0.7,0.2,1.2,0.3,1.4,0.5c0.4,0.2,0.6,0.6,0.6,1.2c0,0.5-0.2,1-0.6,1.3c-0.4,0.4-1,0.6-1.8,0.6c-0.9,0-1.5-0.2-1.8-0.6
			c-0.4-0.4-0.6-0.9-0.6-1.4H866.1z"/>
		<path class="st3" d="M871.4,1559l1.1,4.5l1.1-4.5h1.1l1.1,4.5l1.2-4.5h1l-1.7,5.8h-1l-1.2-4.5l-1.1,4.5h-1l-1.7-5.8H871.4z"/>
		<path class="st3" d="M882,1561.3c0.2,0,0.4-0.1,0.4-0.3c0-0.1,0.1-0.2,0.1-0.4c0-0.3-0.1-0.6-0.4-0.7c-0.2-0.1-0.6-0.2-1-0.2
			c-0.5,0-0.9,0.1-1.1,0.4c-0.1,0.2-0.2,0.4-0.2,0.7H879c0-0.7,0.2-1.2,0.7-1.5s1-0.4,1.5-0.4c0.7,0,1.2,0.1,1.6,0.4
			c0.4,0.3,0.6,0.7,0.6,1.2v3.3c0,0.1,0,0.2,0.1,0.2c0,0.1,0.1,0.1,0.3,0.1c0,0,0.1,0,0.1,0c0.1,0,0.1,0,0.2,0v0.7
			c-0.2,0-0.3,0.1-0.3,0.1c-0.1,0-0.2,0-0.3,0c-0.3,0-0.6-0.1-0.7-0.4c-0.1-0.1-0.1-0.3-0.2-0.5c-0.2,0.3-0.5,0.5-0.8,0.7
			c-0.4,0.2-0.8,0.3-1.2,0.3c-0.5,0-1-0.2-1.3-0.5c-0.3-0.3-0.5-0.7-0.5-1.2c0-0.5,0.2-0.9,0.5-1.2s0.8-0.5,1.3-0.5L882,1561.3z
			 M880,1563.9c0.2,0.2,0.4,0.2,0.7,0.2c0.3,0,0.7-0.1,1-0.2c0.5-0.3,0.8-0.7,0.8-1.3v-0.8c-0.1,0.1-0.3,0.1-0.5,0.2
			c-0.2,0.1-0.4,0.1-0.5,0.1l-0.6,0.1c-0.4,0-0.6,0.1-0.8,0.2c-0.3,0.2-0.4,0.4-0.4,0.8C879.7,1563.5,879.8,1563.7,880,1563.9z"/>
		<path class="st3" d="M888.7,1559h1.1c-0.1,0.4-0.4,1.2-0.9,2.5c-0.4,1-0.6,1.8-0.9,2.4c-0.6,1.5-1,2.4-1.2,2.7
			c-0.2,0.3-0.6,0.5-1.2,0.5c-0.1,0-0.2,0-0.3,0s-0.2,0-0.3-0.1v-0.9c0.2,0,0.3,0.1,0.4,0.1c0.1,0,0.1,0,0.2,0c0.2,0,0.3,0,0.4-0.1
			c0.1-0.1,0.2-0.1,0.2-0.2c0,0,0.1-0.2,0.2-0.4c0.1-0.3,0.2-0.5,0.2-0.6l-2.1-5.9h1.1l1.5,4.7L888.7,1559z"/>
	</g>
	<rect id="長方形_652-3" x="784" y="1618.6" class="st0" width="120" height="20"/>
	<g class="st2">
		<path class="st3" d="M806.1,1624.7c0.5,0.5,0.8,1.1,0.9,1.8h-1c-0.1-0.5-0.3-0.9-0.7-1.2c-0.3-0.3-0.8-0.4-1.5-0.4
			c-0.8,0-1.4,0.3-1.8,0.8c-0.5,0.5-0.7,1.4-0.7,2.5c0,0.9,0.2,1.7,0.6,2.2s1.1,0.9,1.9,0.9c0.8,0,1.4-0.3,1.8-0.9
			c0.2-0.3,0.4-0.7,0.5-1.3h1c-0.1,0.8-0.4,1.5-0.9,2.1c-0.6,0.7-1.5,1-2.5,1c-0.9,0-1.7-0.3-2.3-0.8c-0.8-0.7-1.2-1.9-1.2-3.4
			c0-1.2,0.3-2.1,0.9-2.9c0.7-0.8,1.6-1.2,2.7-1.2C804.8,1623.9,805.5,1624.2,806.1,1624.7z"/>
		<path class="st3" d="M808.3,1624.1h1v2.9c0.2-0.3,0.4-0.5,0.6-0.6c0.3-0.2,0.7-0.3,1.2-0.3c0.8,0,1.4,0.3,1.7,0.9
			c0.2,0.3,0.2,0.8,0.2,1.3v3.7h-1v-3.6c0-0.4-0.1-0.7-0.2-0.9c-0.2-0.3-0.5-0.5-1-0.5c-0.4,0-0.8,0.1-1.1,0.4
			c-0.3,0.3-0.5,0.8-0.5,1.6v3.1h-1V1624.1z"/>
		<path class="st3" d="M815.4,1626.2v3.8c0,0.3,0,0.5,0.1,0.7c0.2,0.3,0.5,0.5,0.9,0.5c0.7,0,1.1-0.3,1.3-0.9
			c0.1-0.3,0.2-0.8,0.2-1.3v-2.8h1v5.8h-0.9l0-0.8c-0.1,0.2-0.3,0.4-0.5,0.6c-0.4,0.3-0.8,0.5-1.3,0.5c-0.8,0-1.4-0.3-1.6-0.8
			c-0.2-0.3-0.2-0.7-0.2-1.2v-3.9H815.4z"/>
		<path class="st3" d="M824.7,1626.8c0.5,0.5,0.8,1.2,0.8,2.2c0,0.9-0.2,1.7-0.7,2.3c-0.4,0.6-1.1,0.9-2.1,0.9
			c-0.8,0-1.4-0.3-1.9-0.8c-0.5-0.5-0.7-1.3-0.7-2.2c0-1,0.2-1.7,0.7-2.3c0.5-0.6,1.1-0.9,2-0.9
			C823.6,1626.1,824.2,1626.3,824.7,1626.8z M824.1,1630.6c0.2-0.5,0.4-1,0.4-1.6c0-0.5-0.1-1-0.3-1.3c-0.3-0.5-0.7-0.8-1.4-0.8
			c-0.6,0-1,0.2-1.3,0.7c-0.3,0.5-0.4,1-0.4,1.6c0,0.6,0.1,1.1,0.4,1.5c0.3,0.4,0.7,0.6,1.3,0.6
			C823.5,1631.4,823.9,1631.1,824.1,1630.6z"/>
		<path class="st3" d="M830,1624.1h5.7v1H831v2.4h4.3v0.9H831v2.7h4.8v0.9H830V1624.1z"/>
		<path class="st3" d="M836.5,1626.2h1.3l1.3,2l1.3-2l1.2,0l-1.9,2.8l2,2.9h-1.2l-1.4-2.2l-1.4,2.2h-1.2l2-2.9L836.5,1626.2z"/>
		<path class="st3" d="M842.5,1626.3h0.9v0.8c0.2-0.3,0.4-0.5,0.6-0.6c0.3-0.2,0.7-0.3,1.2-0.3c0.7,0,1.2,0.2,1.7,0.8
			c0.5,0.5,0.7,1.2,0.7,2.1c0,1.3-0.3,2.1-1,2.7c-0.4,0.3-0.9,0.5-1.5,0.5c-0.4,0-0.8-0.1-1.1-0.3c-0.2-0.1-0.4-0.3-0.6-0.6v2.9h-1
			V1626.3z M846.1,1630.8c0.3-0.4,0.5-0.9,0.5-1.7c0-0.5-0.1-0.9-0.2-1.2c-0.3-0.6-0.7-1-1.4-1c-0.7,0-1.1,0.3-1.4,1
			c-0.1,0.4-0.2,0.8-0.2,1.4c0,0.4,0.1,0.8,0.2,1.1c0.3,0.6,0.7,0.9,1.4,0.9C845.5,1631.3,845.8,1631.2,846.1,1630.8z"/>
		<path class="st3" d="M848.7,1626.2h0.9v1c0.1-0.2,0.3-0.4,0.6-0.7c0.3-0.3,0.6-0.4,1-0.4c0,0,0,0,0.1,0s0.1,0,0.2,0v1
			c-0.1,0-0.1,0-0.2,0c0,0-0.1,0-0.2,0c-0.5,0-0.9,0.2-1.1,0.5c-0.3,0.3-0.4,0.7-0.4,1.1v3.3h-1V1626.2z"/>
		<path class="st3" d="M855.9,1626.4c0.4,0.2,0.7,0.4,0.9,0.7c0.2,0.3,0.3,0.6,0.4,1c0.1,0.3,0.1,0.7,0.1,1.3h-4.2
			c0,0.6,0.2,1.1,0.4,1.4c0.3,0.4,0.7,0.5,1.2,0.5c0.5,0,0.9-0.2,1.2-0.5c0.2-0.2,0.3-0.4,0.4-0.7h1c0,0.2-0.1,0.4-0.2,0.7
			c-0.1,0.3-0.3,0.5-0.5,0.6c-0.3,0.3-0.7,0.5-1.1,0.6c-0.2,0.1-0.5,0.1-0.8,0.1c-0.7,0-1.3-0.3-1.8-0.8c-0.5-0.5-0.7-1.3-0.7-2.2
			c0-0.9,0.2-1.7,0.7-2.3s1.1-0.9,2-0.9C855.1,1626.1,855.5,1626.2,855.9,1626.4z M856.3,1628.7c0-0.4-0.1-0.8-0.3-1
			c-0.3-0.5-0.7-0.7-1.3-0.7c-0.4,0-0.8,0.2-1.1,0.5c-0.3,0.3-0.5,0.7-0.5,1.2H856.3z"/>
		<path class="st3" d="M859,1630.2c0,0.3,0.1,0.6,0.2,0.7c0.2,0.3,0.7,0.5,1.3,0.5c0.4,0,0.7-0.1,1-0.2c0.3-0.2,0.4-0.4,0.4-0.7
			c0-0.2-0.1-0.4-0.3-0.6c-0.1-0.1-0.4-0.2-0.8-0.3l-0.8-0.2c-0.5-0.1-0.9-0.3-1.1-0.4c-0.4-0.3-0.6-0.6-0.6-1.1
			c0-0.5,0.2-1,0.6-1.3c0.4-0.3,0.9-0.5,1.6-0.5c0.9,0,1.5,0.3,1.9,0.8c0.2,0.3,0.4,0.7,0.4,1h-0.9c0-0.2-0.1-0.4-0.2-0.6
			c-0.2-0.3-0.6-0.4-1.2-0.4c-0.4,0-0.7,0.1-0.8,0.2c-0.2,0.1-0.3,0.3-0.3,0.6c0,0.2,0.1,0.5,0.4,0.6c0.1,0.1,0.4,0.2,0.6,0.2
			l0.7,0.2c0.7,0.2,1.2,0.3,1.4,0.5c0.4,0.2,0.6,0.6,0.6,1.2c0,0.5-0.2,1-0.6,1.3c-0.4,0.4-1,0.6-1.8,0.6c-0.9,0-1.5-0.2-1.8-0.6
			c-0.4-0.4-0.6-0.9-0.6-1.4H859z"/>
		<path class="st3" d="M864.5,1630.2c0,0.3,0.1,0.6,0.2,0.7c0.2,0.3,0.7,0.5,1.3,0.5c0.4,0,0.7-0.1,1-0.2c0.3-0.2,0.4-0.4,0.4-0.7
			c0-0.2-0.1-0.4-0.3-0.6c-0.1-0.1-0.4-0.2-0.8-0.3l-0.8-0.2c-0.5-0.1-0.9-0.3-1.1-0.4c-0.4-0.3-0.6-0.6-0.6-1.1
			c0-0.5,0.2-1,0.6-1.3c0.4-0.3,0.9-0.5,1.6-0.5c0.9,0,1.5,0.3,1.9,0.8c0.2,0.3,0.4,0.7,0.4,1h-0.9c0-0.2-0.1-0.4-0.2-0.6
			c-0.2-0.3-0.6-0.4-1.2-0.4c-0.4,0-0.7,0.1-0.8,0.2c-0.2,0.1-0.3,0.3-0.3,0.6c0,0.2,0.1,0.5,0.4,0.6c0.1,0.1,0.4,0.2,0.6,0.2
			l0.7,0.2c0.7,0.2,1.2,0.3,1.4,0.5c0.4,0.2,0.6,0.6,0.6,1.2c0,0.5-0.2,1-0.6,1.3c-0.4,0.4-1,0.6-1.8,0.6c-0.9,0-1.5-0.2-1.8-0.6
			c-0.4-0.4-0.6-0.9-0.6-1.4H864.5z"/>
		<path class="st3" d="M869.9,1626.2l1.1,4.5l1.1-4.5h1.1l1.1,4.5l1.2-4.5h1l-1.7,5.8h-1l-1.2-4.5l-1.1,4.5h-1l-1.7-5.8H869.9z"/>
		<path class="st3" d="M880.5,1628.5c0.2,0,0.4-0.1,0.4-0.3c0-0.1,0.1-0.2,0.1-0.4c0-0.3-0.1-0.6-0.4-0.7c-0.2-0.1-0.6-0.2-1-0.2
			c-0.5,0-0.9,0.1-1.1,0.4c-0.1,0.2-0.2,0.4-0.2,0.7h-0.9c0-0.7,0.2-1.2,0.7-1.5s1-0.4,1.5-0.4c0.7,0,1.2,0.1,1.6,0.4
			c0.4,0.3,0.6,0.7,0.6,1.2v3.3c0,0.1,0,0.2,0.1,0.2c0,0.1,0.1,0.1,0.3,0.1c0,0,0.1,0,0.1,0c0.1,0,0.1,0,0.2,0v0.7
			c-0.2,0-0.3,0.1-0.3,0.1c-0.1,0-0.2,0-0.3,0c-0.3,0-0.6-0.1-0.7-0.4c-0.1-0.1-0.1-0.3-0.2-0.5c-0.2,0.3-0.5,0.5-0.8,0.7
			c-0.4,0.2-0.8,0.3-1.2,0.3c-0.5,0-1-0.2-1.3-0.5c-0.3-0.3-0.5-0.7-0.5-1.2c0-0.5,0.2-0.9,0.5-1.2s0.8-0.5,1.3-0.5L880.5,1628.5z
			 M878.5,1631.1c0.2,0.2,0.4,0.2,0.7,0.2c0.3,0,0.7-0.1,1-0.2c0.5-0.3,0.8-0.7,0.8-1.3v-0.8c-0.1,0.1-0.3,0.1-0.5,0.2
			c-0.2,0.1-0.4,0.1-0.5,0.1l-0.6,0.1c-0.4,0-0.6,0.1-0.8,0.2c-0.3,0.2-0.4,0.4-0.4,0.8C878.2,1630.7,878.3,1631,878.5,1631.1z"/>
		<path class="st3" d="M887.1,1626.2h1.1c-0.1,0.4-0.4,1.2-0.9,2.5c-0.4,1-0.6,1.8-0.9,2.4c-0.6,1.5-1,2.4-1.2,2.7
			c-0.2,0.3-0.6,0.5-1.2,0.5c-0.1,0-0.2,0-0.3,0s-0.2,0-0.3-0.1v-0.9c0.2,0,0.3,0.1,0.4,0.1c0.1,0,0.1,0,0.2,0c0.2,0,0.3,0,0.4-0.1
			c0.1-0.1,0.2-0.1,0.2-0.2c0,0,0.1-0.2,0.2-0.4c0.1-0.3,0.2-0.5,0.2-0.6l-2.1-5.9h1.1l1.5,4.7L887.1,1626.2z"/>
	</g>
	<rect id="長方形_652-4" x="784" y="1693.6" class="st0" width="120" height="20"/>
	<g class="st2">
		<path class="st3" d="M794.4,1700.3h1.3l3.9,6.4v-6.4h1v7.9h-1.2l-4-6.4v6.4h-1V1700.3z"/>
		<path class="st3" d="M805.3,1704.7c0.2,0,0.4-0.1,0.4-0.3c0-0.1,0.1-0.2,0.1-0.4c0-0.3-0.1-0.6-0.4-0.7c-0.2-0.1-0.6-0.2-1-0.2
			c-0.5,0-0.9,0.1-1.1,0.4c-0.1,0.2-0.2,0.4-0.2,0.7h-0.9c0-0.7,0.2-1.2,0.7-1.5c0.4-0.3,1-0.4,1.5-0.4c0.7,0,1.2,0.1,1.6,0.4
			c0.4,0.3,0.6,0.7,0.6,1.2v3.3c0,0.1,0,0.2,0.1,0.2c0,0.1,0.1,0.1,0.3,0.1c0,0,0.1,0,0.1,0c0.1,0,0.1,0,0.2,0v0.7
			c-0.2,0-0.3,0.1-0.3,0.1s-0.2,0-0.3,0c-0.3,0-0.6-0.1-0.7-0.4c-0.1-0.1-0.1-0.3-0.2-0.5c-0.2,0.3-0.5,0.5-0.8,0.7
			c-0.4,0.2-0.8,0.3-1.2,0.3c-0.5,0-1-0.2-1.3-0.5c-0.3-0.3-0.5-0.7-0.5-1.2c0-0.5,0.2-0.9,0.5-1.2s0.8-0.5,1.3-0.5L805.3,1704.7z
			 M803.3,1707.3c0.2,0.2,0.4,0.2,0.7,0.2c0.3,0,0.7-0.1,1-0.2c0.5-0.3,0.8-0.7,0.8-1.3v-0.8c-0.1,0.1-0.3,0.1-0.5,0.2
			c-0.2,0.1-0.4,0.1-0.5,0.1l-0.6,0.1c-0.4,0-0.6,0.1-0.8,0.2c-0.3,0.2-0.4,0.4-0.4,0.8C803,1706.9,803.1,1707.1,803.3,1707.3z"/>
		<path class="st3" d="M811.5,1702.7c0.2,0.1,0.4,0.3,0.6,0.5v-0.7h0.9v5.2c0,0.7-0.1,1.3-0.3,1.7c-0.4,0.8-1.2,1.2-2.3,1.2
			c-0.6,0-1.1-0.1-1.6-0.4c-0.4-0.3-0.7-0.7-0.7-1.3h1c0,0.3,0.1,0.5,0.3,0.6c0.2,0.2,0.6,0.3,1,0.3c0.7,0,1.2-0.3,1.4-0.8
			c0.1-0.3,0.2-0.9,0.2-1.6c-0.2,0.3-0.4,0.5-0.7,0.7c-0.3,0.1-0.6,0.2-1.1,0.2c-0.6,0-1.2-0.2-1.6-0.7s-0.7-1.2-0.7-2.2
			c0-1,0.2-1.7,0.7-2.3c0.5-0.5,1-0.8,1.7-0.8C810.8,1702.3,811.2,1702.4,811.5,1702.7z M811.6,1703.7c-0.3-0.3-0.7-0.5-1.1-0.5
			c-0.7,0-1.1,0.3-1.4,1c-0.1,0.3-0.2,0.8-0.2,1.3c0,0.6,0.1,1.1,0.4,1.5c0.3,0.3,0.6,0.5,1.1,0.5c0.7,0,1.2-0.3,1.5-0.9
			c0.2-0.4,0.2-0.8,0.2-1.2C812.1,1704.6,811.9,1704,811.6,1703.7z"/>
		<path class="st3" d="M817.5,1704.7c0.2,0,0.4-0.1,0.4-0.3c0-0.1,0.1-0.2,0.1-0.4c0-0.3-0.1-0.6-0.4-0.7c-0.2-0.1-0.6-0.2-1-0.2
			c-0.5,0-0.9,0.1-1.1,0.4c-0.1,0.2-0.2,0.4-0.2,0.7h-0.9c0-0.7,0.2-1.2,0.7-1.5c0.4-0.3,1-0.4,1.5-0.4c0.7,0,1.2,0.1,1.6,0.4
			c0.4,0.3,0.6,0.7,0.6,1.2v3.3c0,0.1,0,0.2,0.1,0.2c0,0.1,0.1,0.1,0.3,0.1c0,0,0.1,0,0.1,0c0.1,0,0.1,0,0.2,0v0.7
			c-0.2,0-0.3,0.1-0.3,0.1s-0.2,0-0.3,0c-0.3,0-0.6-0.1-0.7-0.4c-0.1-0.1-0.1-0.3-0.2-0.5c-0.2,0.3-0.5,0.5-0.8,0.7
			c-0.4,0.2-0.8,0.3-1.2,0.3c-0.5,0-1-0.2-1.3-0.5c-0.3-0.3-0.5-0.7-0.5-1.2c0-0.5,0.2-0.9,0.5-1.2s0.8-0.5,1.3-0.5L817.5,1704.7z
			 M815.5,1707.3c0.2,0.2,0.4,0.2,0.7,0.2c0.3,0,0.7-0.1,1-0.2c0.5-0.3,0.8-0.7,0.8-1.3v-0.8c-0.1,0.1-0.3,0.1-0.5,0.2
			c-0.2,0.1-0.4,0.1-0.5,0.1l-0.6,0.1c-0.4,0-0.6,0.1-0.8,0.2c-0.3,0.2-0.4,0.4-0.4,0.8C815.2,1706.9,815.3,1707.1,815.5,1707.3z"/>
		<path class="st3" d="M820.6,1702.4h0.9v0.8c0.3-0.3,0.6-0.6,0.9-0.7s0.6-0.2,1-0.2c0.8,0,1.4,0.3,1.7,0.9c0.2,0.3,0.2,0.8,0.2,1.3
			v3.7h-1v-3.6c0-0.4-0.1-0.6-0.2-0.8c-0.2-0.4-0.5-0.5-0.9-0.5c-0.2,0-0.4,0-0.6,0.1c-0.3,0.1-0.5,0.2-0.7,0.5
			c-0.2,0.2-0.3,0.4-0.3,0.6c0,0.2-0.1,0.5-0.1,0.9v3h-1V1702.4z"/>
		<path class="st3" d="M830.8,1703c0.5,0.5,0.8,1.2,0.8,2.2c0,0.9-0.2,1.7-0.7,2.3c-0.4,0.6-1.1,0.9-2.1,0.9c-0.8,0-1.4-0.3-1.9-0.8
			c-0.5-0.5-0.7-1.3-0.7-2.2c0-1,0.2-1.7,0.7-2.3c0.5-0.6,1.1-0.9,2-0.9C829.7,1702.3,830.3,1702.5,830.8,1703z M830.2,1706.8
			c0.2-0.5,0.4-1,0.4-1.6c0-0.5-0.1-1-0.3-1.3c-0.3-0.5-0.7-0.8-1.4-0.8c-0.6,0-1,0.2-1.3,0.7c-0.3,0.5-0.4,1-0.4,1.6
			c0,0.6,0.1,1.1,0.4,1.5c0.3,0.4,0.7,0.6,1.3,0.6C829.6,1707.5,830,1707.3,830.2,1706.8z"/>
		<path class="st3" d="M836.1,1700.3h5.7v1h-4.7v2.4h4.3v0.9h-4.3v2.7h4.8v0.9h-5.8V1700.3z"/>
		<path class="st3" d="M842.6,1702.4h1.3l1.3,2l1.3-2l1.2,0l-1.9,2.8l2,2.9h-1.2l-1.4-2.2l-1.4,2.2h-1.2l2-2.9L842.6,1702.4z"/>
		<path class="st3" d="M848.6,1702.5h0.9v0.8c0.2-0.3,0.4-0.5,0.6-0.6c0.3-0.2,0.7-0.3,1.2-0.3c0.7,0,1.2,0.2,1.7,0.8
			c0.5,0.5,0.7,1.2,0.7,2.1c0,1.3-0.3,2.1-1,2.7c-0.4,0.3-0.9,0.5-1.5,0.5c-0.4,0-0.8-0.1-1.1-0.3c-0.2-0.1-0.4-0.3-0.6-0.6v2.9h-1
			V1702.5z M852.2,1707c0.3-0.4,0.5-0.9,0.5-1.7c0-0.5-0.1-0.9-0.2-1.2c-0.3-0.6-0.7-1-1.4-1c-0.7,0-1.1,0.3-1.4,1
			c-0.1,0.4-0.2,0.8-0.2,1.4c0,0.4,0.1,0.8,0.2,1.1c0.3,0.6,0.7,0.9,1.4,0.9C851.6,1707.5,851.9,1707.3,852.2,1707z"/>
		<path class="st3" d="M854.8,1702.4h0.9v1c0.1-0.2,0.3-0.4,0.6-0.7c0.3-0.3,0.6-0.4,1-0.4c0,0,0,0,0.1,0s0.1,0,0.2,0v1
			c-0.1,0-0.1,0-0.2,0c0,0-0.1,0-0.2,0c-0.5,0-0.9,0.2-1.1,0.5c-0.3,0.3-0.4,0.7-0.4,1.1v3.3h-1V1702.4z"/>
		<path class="st3" d="M862,1702.6c0.4,0.2,0.7,0.4,0.9,0.7c0.2,0.3,0.3,0.6,0.4,1c0.1,0.3,0.1,0.7,0.1,1.3h-4.2
			c0,0.6,0.2,1.1,0.4,1.4c0.3,0.4,0.7,0.5,1.2,0.5c0.5,0,0.9-0.2,1.2-0.5c0.2-0.2,0.3-0.4,0.4-0.7h1c0,0.2-0.1,0.4-0.2,0.7
			c-0.1,0.3-0.3,0.5-0.5,0.6c-0.3,0.3-0.7,0.5-1.1,0.6c-0.2,0.1-0.5,0.1-0.8,0.1c-0.7,0-1.3-0.3-1.8-0.8c-0.5-0.5-0.7-1.3-0.7-2.2
			c0-0.9,0.2-1.7,0.7-2.3s1.1-0.9,2-0.9C861.3,1702.3,861.6,1702.4,862,1702.6z M862.4,1704.8c0-0.4-0.1-0.8-0.3-1
			c-0.3-0.5-0.7-0.7-1.3-0.7c-0.4,0-0.8,0.2-1.1,0.5c-0.3,0.3-0.5,0.7-0.5,1.2H862.4z"/>
		<path class="st3" d="M865.2,1706.4c0,0.3,0.1,0.6,0.2,0.7c0.2,0.3,0.7,0.5,1.3,0.5c0.4,0,0.7-0.1,1-0.2c0.3-0.2,0.4-0.4,0.4-0.7
			c0-0.2-0.1-0.4-0.3-0.6c-0.1-0.1-0.4-0.2-0.8-0.3l-0.8-0.2c-0.5-0.1-0.9-0.3-1.1-0.4c-0.4-0.3-0.6-0.6-0.6-1.1
			c0-0.5,0.2-1,0.6-1.3c0.4-0.3,0.9-0.5,1.6-0.5c0.9,0,1.5,0.3,1.9,0.8c0.2,0.3,0.4,0.7,0.4,1h-0.9c0-0.2-0.1-0.4-0.2-0.6
			c-0.2-0.3-0.6-0.4-1.2-0.4c-0.4,0-0.7,0.1-0.8,0.2c-0.2,0.1-0.3,0.3-0.3,0.6c0,0.2,0.1,0.5,0.4,0.6c0.1,0.1,0.4,0.2,0.6,0.2
			l0.7,0.2c0.7,0.2,1.2,0.3,1.4,0.5c0.4,0.2,0.6,0.6,0.6,1.2c0,0.5-0.2,1-0.6,1.3c-0.4,0.4-1,0.6-1.8,0.6c-0.9,0-1.5-0.2-1.8-0.6
			c-0.4-0.4-0.6-0.9-0.6-1.4H865.2z"/>
		<path class="st3" d="M870.7,1706.4c0,0.3,0.1,0.6,0.2,0.7c0.2,0.3,0.7,0.5,1.3,0.5c0.4,0,0.7-0.1,1-0.2c0.3-0.2,0.4-0.4,0.4-0.7
			c0-0.2-0.1-0.4-0.3-0.6c-0.1-0.1-0.4-0.2-0.8-0.3l-0.8-0.2c-0.5-0.1-0.9-0.3-1.1-0.4c-0.4-0.3-0.6-0.6-0.6-1.1
			c0-0.5,0.2-1,0.6-1.3c0.4-0.3,0.9-0.5,1.6-0.5c0.9,0,1.5,0.3,1.9,0.8c0.2,0.3,0.4,0.7,0.4,1h-0.9c0-0.2-0.1-0.4-0.2-0.6
			c-0.2-0.3-0.6-0.4-1.2-0.4c-0.4,0-0.7,0.1-0.8,0.2c-0.2,0.1-0.3,0.3-0.3,0.6c0,0.2,0.1,0.5,0.4,0.6c0.1,0.1,0.4,0.2,0.6,0.2
			l0.7,0.2c0.7,0.2,1.2,0.3,1.4,0.5c0.4,0.2,0.6,0.6,0.6,1.2c0,0.5-0.2,1-0.6,1.3c-0.4,0.4-1,0.6-1.8,0.6c-0.9,0-1.5-0.2-1.8-0.6
			c-0.4-0.4-0.6-0.9-0.6-1.4H870.7z"/>
		<path class="st3" d="M876,1702.4l1.1,4.5l1.1-4.5h1.1l1.1,4.5l1.2-4.5h1l-1.7,5.8h-1l-1.2-4.5l-1.1,4.5h-1l-1.7-5.8H876z"/>
		<path class="st3" d="M886.6,1704.7c0.2,0,0.4-0.1,0.4-0.3c0-0.1,0.1-0.2,0.1-0.4c0-0.3-0.1-0.6-0.4-0.7c-0.2-0.1-0.6-0.2-1-0.2
			c-0.5,0-0.9,0.1-1.1,0.4c-0.1,0.2-0.2,0.4-0.2,0.7h-0.9c0-0.7,0.2-1.2,0.7-1.5s1-0.4,1.5-0.4c0.7,0,1.2,0.1,1.6,0.4
			c0.4,0.3,0.6,0.7,0.6,1.2v3.3c0,0.1,0,0.2,0.1,0.2c0,0.1,0.1,0.1,0.3,0.1c0,0,0.1,0,0.1,0c0.1,0,0.1,0,0.2,0v0.7
			c-0.2,0-0.3,0.1-0.3,0.1c-0.1,0-0.2,0-0.3,0c-0.3,0-0.6-0.1-0.7-0.4c-0.1-0.1-0.1-0.3-0.2-0.5c-0.2,0.3-0.5,0.5-0.8,0.7
			c-0.4,0.2-0.8,0.3-1.2,0.3c-0.5,0-1-0.2-1.3-0.5c-0.3-0.3-0.5-0.7-0.5-1.2c0-0.5,0.2-0.9,0.5-1.2s0.8-0.5,1.3-0.5L886.6,1704.7z
			 M884.6,1707.3c0.2,0.2,0.4,0.2,0.7,0.2c0.3,0,0.7-0.1,1-0.2c0.5-0.3,0.8-0.7,0.8-1.3v-0.8c-0.1,0.1-0.3,0.1-0.5,0.2
			c-0.2,0.1-0.4,0.1-0.5,0.1l-0.6,0.1c-0.4,0-0.6,0.1-0.8,0.2c-0.3,0.2-0.4,0.4-0.4,0.8C884.3,1706.9,884.4,1707.1,884.6,1707.3z"/>
		<path class="st3" d="M893.2,1702.4h1.1c-0.1,0.4-0.4,1.2-0.9,2.5c-0.4,1-0.6,1.8-0.9,2.4c-0.6,1.5-1,2.4-1.2,2.7
			c-0.2,0.3-0.6,0.5-1.2,0.5c-0.1,0-0.2,0-0.3,0s-0.2,0-0.3-0.1v-0.9c0.2,0,0.3,0.1,0.4,0.1c0.1,0,0.1,0,0.2,0c0.2,0,0.3,0,0.4-0.1
			c0.1-0.1,0.2-0.1,0.2-0.2c0,0,0.1-0.2,0.2-0.4c0.1-0.3,0.2-0.5,0.2-0.6l-2.1-5.9h1.1l1.5,4.7L893.2,1702.4z"/>
	</g>
	<rect id="長方形_652-5" x="784" y="1732.2" class="st4" width="120" height="20"/>
	<g class="st2">
		<path class="st3" d="M798.5,1739.7c0.5,0.7,0.8,1.6,0.8,2.7c0,1.2-0.3,2.2-0.9,2.9c-0.7,0.9-1.7,1.4-3,1.4c-1.2,0-2.2-0.4-2.9-1.2
			c-0.6-0.8-0.9-1.8-0.9-2.9c0-1.1,0.3-2,0.8-2.7c0.7-1,1.7-1.5,3-1.5C796.8,1738.3,797.8,1738.8,798.5,1739.7z M797.5,1744.7
			c0.4-0.7,0.6-1.5,0.6-2.3c0-0.9-0.2-1.7-0.7-2.2c-0.5-0.6-1.1-0.8-2-0.8c-0.8,0-1.5,0.3-2,0.8c-0.5,0.6-0.8,1.4-0.8,2.5
			c0,0.9,0.2,1.6,0.7,2.2c0.4,0.6,1.2,0.9,2.2,0.9C796.4,1745.7,797.1,1745.4,797.5,1744.7z"/>
		<path class="st3" d="M800.3,1738.5h0.9v2.9c0.2-0.3,0.5-0.5,0.8-0.6c0.3-0.1,0.6-0.2,1-0.2c0.7,0,1.3,0.2,1.7,0.7
			c0.4,0.5,0.7,1.2,0.7,2.2c0,0.9-0.2,1.7-0.7,2.3c-0.4,0.6-1.1,0.9-1.8,0.9c-0.4,0-0.8-0.1-1.1-0.3c-0.2-0.1-0.4-0.3-0.6-0.6v0.7
			h-0.9V1738.5z M804,1745.1c0.3-0.4,0.4-1,0.4-1.6c0-0.6-0.1-1.1-0.4-1.5c-0.3-0.4-0.6-0.6-1.2-0.6c-0.4,0-0.8,0.2-1.2,0.5
			c-0.3,0.3-0.5,0.9-0.5,1.6c0,0.5,0.1,1,0.2,1.3c0.3,0.6,0.7,1,1.4,1C803.3,1745.8,803.7,1745.6,804,1745.1z"/>
		<path class="st3" d="M809.6,1743c0.2,0,0.4-0.1,0.4-0.3c0-0.1,0.1-0.2,0.1-0.4c0-0.3-0.1-0.6-0.4-0.7c-0.2-0.1-0.6-0.2-1-0.2
			c-0.5,0-0.9,0.1-1.1,0.4c-0.1,0.2-0.2,0.4-0.2,0.7h-0.9c0-0.7,0.2-1.2,0.7-1.5c0.4-0.3,1-0.4,1.5-0.4c0.7,0,1.2,0.1,1.6,0.4
			c0.4,0.3,0.6,0.7,0.6,1.2v3.3c0,0.1,0,0.2,0.1,0.2c0,0.1,0.1,0.1,0.3,0.1c0,0,0.1,0,0.1,0c0.1,0,0.1,0,0.2,0v0.7
			c-0.2,0-0.3,0.1-0.3,0.1s-0.2,0-0.3,0c-0.3,0-0.6-0.1-0.7-0.4c-0.1-0.1-0.1-0.3-0.2-0.5c-0.2,0.3-0.5,0.5-0.8,0.7
			c-0.4,0.2-0.8,0.3-1.2,0.3c-0.5,0-1-0.2-1.3-0.5c-0.3-0.3-0.5-0.7-0.5-1.2c0-0.5,0.2-0.9,0.5-1.2s0.8-0.5,1.3-0.5L809.6,1743z
			 M807.5,1745.6c0.2,0.2,0.4,0.2,0.7,0.2c0.3,0,0.7-0.1,1-0.2c0.5-0.3,0.8-0.7,0.8-1.3v-0.8c-0.1,0.1-0.3,0.1-0.5,0.2
			c-0.2,0.1-0.4,0.1-0.5,0.1l-0.6,0.1c-0.4,0-0.6,0.1-0.8,0.2c-0.3,0.2-0.4,0.4-0.4,0.8C807.2,1745.2,807.3,1745.4,807.5,1745.6z"/>
		<path class="st3" d="M813.2,1744.6c0,0.3,0.1,0.6,0.2,0.7c0.2,0.3,0.7,0.5,1.3,0.5c0.4,0,0.7-0.1,1-0.2c0.3-0.2,0.4-0.4,0.4-0.7
			c0-0.2-0.1-0.4-0.3-0.6c-0.1-0.1-0.4-0.2-0.8-0.3l-0.8-0.2c-0.5-0.1-0.9-0.3-1.1-0.4c-0.4-0.3-0.6-0.6-0.6-1.1
			c0-0.5,0.2-1,0.6-1.3c0.4-0.3,0.9-0.5,1.6-0.5c0.9,0,1.5,0.3,1.9,0.8c0.2,0.3,0.4,0.7,0.4,1H816c0-0.2-0.1-0.4-0.2-0.6
			c-0.2-0.3-0.6-0.4-1.2-0.4c-0.4,0-0.7,0.1-0.8,0.2c-0.2,0.1-0.3,0.3-0.3,0.6c0,0.2,0.1,0.5,0.4,0.6c0.1,0.1,0.4,0.2,0.6,0.2
			l0.7,0.2c0.7,0.2,1.2,0.3,1.4,0.5c0.4,0.2,0.6,0.6,0.6,1.2c0,0.5-0.2,1-0.6,1.3c-0.4,0.4-1,0.6-1.8,0.6c-0.9,0-1.5-0.2-1.8-0.6
			s-0.6-0.9-0.6-1.4H813.2z"/>
		<path class="st3" d="M819.1,1740.7v3.8c0,0.3,0,0.5,0.1,0.7c0.2,0.3,0.5,0.5,0.9,0.5c0.7,0,1.1-0.3,1.3-0.9
			c0.1-0.3,0.2-0.8,0.2-1.3v-2.8h1v5.8h-0.9l0-0.8c-0.1,0.2-0.3,0.4-0.5,0.6c-0.4,0.3-0.8,0.5-1.3,0.5c-0.8,0-1.4-0.3-1.6-0.8
			c-0.2-0.3-0.2-0.7-0.2-1.2v-3.9H819.1z"/>
		<path class="st3" d="M824.4,1739.1h1v1.6h0.9v0.8h-0.9v3.8c0,0.2,0.1,0.3,0.2,0.4c0.1,0,0.2,0.1,0.4,0.1c0,0,0.1,0,0.2,0
			c0.1,0,0.1,0,0.2,0v0.8c-0.1,0-0.2,0.1-0.3,0.1c-0.1,0-0.2,0-0.4,0c-0.5,0-0.8-0.1-0.9-0.3c-0.2-0.2-0.2-0.5-0.2-0.9v-3.8h-0.8
			v-0.8h0.8V1739.1z"/>
		<path class="st3" d="M830.8,1740.8c0.4,0.2,0.7,0.4,0.9,0.7c0.2,0.3,0.3,0.6,0.4,1c0.1,0.3,0.1,0.7,0.1,1.3H828
			c0,0.6,0.2,1.1,0.4,1.4c0.3,0.4,0.7,0.5,1.2,0.5c0.5,0,0.9-0.2,1.2-0.5c0.2-0.2,0.3-0.4,0.4-0.7h1c0,0.2-0.1,0.4-0.2,0.7
			c-0.1,0.3-0.3,0.5-0.5,0.6c-0.3,0.3-0.7,0.5-1.1,0.6c-0.2,0.1-0.5,0.1-0.8,0.1c-0.7,0-1.3-0.3-1.8-0.8c-0.5-0.5-0.7-1.3-0.7-2.2
			c0-0.9,0.2-1.7,0.7-2.3c0.5-0.6,1.1-0.9,2-0.9C830.1,1740.6,830.5,1740.7,830.8,1740.8z M831.2,1743.1c0-0.4-0.1-0.8-0.3-1
			c-0.3-0.5-0.7-0.7-1.3-0.7c-0.4,0-0.8,0.2-1.1,0.5s-0.5,0.7-0.5,1.2H831.2z"/>
		<path class="st3" d="M837.3,1743.9c0,0.4,0.1,0.8,0.3,1.1c0.3,0.5,0.9,0.8,1.8,0.8c0.4,0,0.7-0.1,1.1-0.2c0.6-0.2,0.9-0.6,0.9-1.2
			c0-0.4-0.1-0.7-0.4-0.9c-0.3-0.2-0.7-0.3-1.2-0.5l-1-0.2c-0.7-0.2-1.2-0.3-1.4-0.5c-0.5-0.3-0.7-0.8-0.7-1.5
			c0-0.7,0.2-1.3,0.7-1.7c0.5-0.5,1.2-0.7,2-0.7c0.8,0,1.5,0.2,2.1,0.6c0.6,0.4,0.8,1,0.8,1.9h-1c-0.1-0.4-0.2-0.7-0.3-1
			c-0.3-0.4-0.8-0.6-1.6-0.6c-0.6,0-1,0.1-1.3,0.4s-0.4,0.6-0.4,0.9c0,0.4,0.2,0.7,0.5,0.8c0.2,0.1,0.7,0.3,1.4,0.4l1.1,0.3
			c0.5,0.1,0.9,0.3,1.2,0.5c0.5,0.4,0.7,0.9,0.7,1.6c0,0.9-0.3,1.5-0.9,1.9c-0.6,0.4-1.3,0.6-2.2,0.6c-1,0-1.7-0.2-2.2-0.8
			c-0.5-0.5-0.8-1.2-0.8-2H837.3z"/>
		<path class="st3" d="M846.2,1738.6h1.2l2.9,7.9h-1.2l-0.8-2.4h-3.1l-0.9,2.4h-1.1L846.2,1738.6z M848,1743.2l-1.2-3.5l-1.3,3.5
			H848z"/>
		<path class="st3" d="M852.9,1738.6h0.8l-2.5,7.9h-0.8L852.9,1738.6z"/>
		<path class="st3" d="M855,1743.9c0,0.4,0.1,0.8,0.3,1.1c0.3,0.5,0.9,0.8,1.8,0.8c0.4,0,0.7-0.1,1.1-0.2c0.6-0.2,0.9-0.6,0.9-1.2
			c0-0.4-0.1-0.7-0.4-0.9c-0.3-0.2-0.7-0.3-1.2-0.5l-1-0.2c-0.7-0.2-1.2-0.3-1.4-0.5c-0.5-0.3-0.7-0.8-0.7-1.5
			c0-0.7,0.2-1.3,0.7-1.7c0.5-0.5,1.2-0.7,2-0.7c0.8,0,1.5,0.2,2.1,0.6c0.6,0.4,0.8,1,0.8,1.9h-1c-0.1-0.4-0.2-0.7-0.3-1
			c-0.3-0.4-0.8-0.6-1.6-0.6c-0.6,0-1,0.1-1.3,0.4c-0.3,0.3-0.4,0.6-0.4,0.9c0,0.4,0.2,0.7,0.5,0.8c0.2,0.1,0.7,0.3,1.4,0.4l1.1,0.3
			c0.5,0.1,0.9,0.3,1.2,0.5c0.5,0.4,0.7,0.9,0.7,1.6c0,0.9-0.3,1.5-0.9,1.9s-1.3,0.6-2.2,0.6c-1,0-1.7-0.2-2.2-0.8
			c-0.5-0.5-0.8-1.2-0.8-2H855z"/>
		<path class="st3" d="M861.5,1740.7h1v0.8c0.2-0.3,0.4-0.5,0.6-0.6c0.3-0.2,0.7-0.3,1.1-0.3c0.5,0,0.8,0.1,1.1,0.3
			c0.2,0.1,0.3,0.3,0.4,0.6c0.2-0.3,0.5-0.5,0.8-0.7s0.6-0.2,1-0.2c0.8,0,1.3,0.3,1.6,0.8c0.2,0.3,0.2,0.7,0.2,1.2v3.8h-1v-4
			c0-0.4-0.1-0.6-0.3-0.8c-0.2-0.1-0.4-0.2-0.7-0.2c-0.4,0-0.7,0.1-1,0.4c-0.3,0.3-0.4,0.7-0.4,1.3v3.3h-1v-3.8c0-0.4,0-0.7-0.1-0.9
			c-0.1-0.3-0.4-0.4-0.8-0.4c-0.4,0-0.7,0.1-1,0.4s-0.4,0.8-0.4,1.5v3.1h-1V1740.7z"/>
		<path class="st3" d="M873.8,1743c0.2,0,0.4-0.1,0.4-0.3c0-0.1,0.1-0.2,0.1-0.4c0-0.3-0.1-0.6-0.4-0.7c-0.2-0.1-0.6-0.2-1-0.2
			c-0.5,0-0.9,0.1-1.1,0.4c-0.1,0.2-0.2,0.4-0.2,0.7h-0.9c0-0.7,0.2-1.2,0.7-1.5c0.4-0.3,1-0.4,1.5-0.4c0.7,0,1.2,0.1,1.6,0.4
			c0.4,0.3,0.6,0.7,0.6,1.2v3.3c0,0.1,0,0.2,0.1,0.2c0,0.1,0.1,0.1,0.3,0.1c0,0,0.1,0,0.1,0c0.1,0,0.1,0,0.2,0v0.7
			c-0.2,0-0.3,0.1-0.3,0.1c-0.1,0-0.2,0-0.3,0c-0.3,0-0.6-0.1-0.7-0.4c-0.1-0.1-0.1-0.3-0.2-0.5c-0.2,0.3-0.5,0.5-0.8,0.7
			c-0.4,0.2-0.8,0.3-1.2,0.3c-0.5,0-1-0.2-1.3-0.5c-0.3-0.3-0.5-0.7-0.5-1.2c0-0.5,0.2-0.9,0.5-1.2s0.8-0.5,1.3-0.5L873.8,1743z
			 M871.7,1745.6c0.2,0.2,0.4,0.2,0.7,0.2c0.3,0,0.7-0.1,1-0.2c0.5-0.3,0.8-0.7,0.8-1.3v-0.8c-0.1,0.1-0.3,0.1-0.5,0.2
			c-0.2,0.1-0.4,0.1-0.5,0.1l-0.6,0.1c-0.4,0-0.6,0.1-0.8,0.2c-0.3,0.2-0.4,0.4-0.4,0.8C871.4,1745.2,871.5,1745.4,871.7,1745.6z"/>
		<path class="st3" d="M876.8,1740.7h0.9v1c0.1-0.2,0.3-0.4,0.6-0.7c0.3-0.3,0.6-0.4,1-0.4c0,0,0,0,0.1,0s0.1,0,0.2,0v1
			c-0.1,0-0.1,0-0.2,0c0,0-0.1,0-0.2,0c-0.5,0-0.9,0.2-1.1,0.5c-0.3,0.3-0.4,0.7-0.4,1.1v3.3h-1V1740.7z"/>
		<path class="st3" d="M880.7,1739.1h1v1.6h0.9v0.8h-0.9v3.8c0,0.2,0.1,0.3,0.2,0.4c0.1,0,0.2,0.1,0.4,0.1c0,0,0.1,0,0.2,0
			c0.1,0,0.1,0,0.2,0v0.8c-0.1,0-0.2,0.1-0.3,0.1c-0.1,0-0.2,0-0.4,0c-0.5,0-0.8-0.1-0.9-0.3c-0.2-0.2-0.2-0.5-0.2-0.9v-3.8h-0.8
			v-0.8h0.8V1739.1z"/>
		<path class="st3" d="M887,1738.6h1.1v7.9H887V1738.6z"/>
		<path class="st3" d="M895.4,1739.1c0.5,0.5,0.8,1.1,0.9,1.8h-1c-0.1-0.5-0.3-0.9-0.7-1.2c-0.3-0.3-0.8-0.4-1.5-0.4
			c-0.8,0-1.4,0.3-1.8,0.8c-0.5,0.5-0.7,1.4-0.7,2.5c0,0.9,0.2,1.7,0.6,2.2s1.1,0.9,1.9,0.9c0.8,0,1.4-0.3,1.8-0.9
			c0.2-0.3,0.4-0.7,0.5-1.3h1c-0.1,0.8-0.4,1.5-0.9,2.1c-0.6,0.7-1.5,1-2.5,1c-0.9,0-1.7-0.3-2.3-0.8c-0.8-0.7-1.2-1.9-1.2-3.4
			c0-1.2,0.3-2.1,0.9-2.9c0.7-0.8,1.6-1.2,2.7-1.2C894,1738.3,894.8,1738.6,895.4,1739.1z"/>
	</g>
	<g id="パス_1701" transform="translate(784 1772)">
		<path class="st3" d="M119.5,44.5H0.5v-44h119V44.5z"/>
		<path class="st4" d="M1,1v43h118V1H1 M0,0h120v45H0V0z"/>
	</g>
	<g class="st2">
		<path class="st5" d="M821.6,1778.4v0.9H819v7h-1.1v-7h-2.7v-0.9H821.6z"/>
		<path class="st5" d="M823,1780.5v3.8c0,0.3,0,0.5,0.1,0.7c0.2,0.3,0.5,0.5,0.9,0.5c0.7,0,1.1-0.3,1.3-0.9c0.1-0.3,0.2-0.8,0.2-1.3
			v-2.8h1v5.8h-0.9l0-0.8c-0.1,0.2-0.3,0.4-0.5,0.6c-0.4,0.3-0.8,0.5-1.3,0.5c-0.8,0-1.4-0.3-1.6-0.8c-0.2-0.3-0.2-0.7-0.2-1.2v-3.9
			H823z"/>
		<path class="st5" d="M828.2,1780.5h0.9v1c0.1-0.2,0.3-0.4,0.6-0.7s0.6-0.4,1-0.4c0,0,0,0,0.1,0s0.1,0,0.2,0v1c-0.1,0-0.1,0-0.2,0
			c0,0-0.1,0-0.2,0c-0.5,0-0.9,0.2-1.1,0.5s-0.4,0.7-0.4,1.1v3.3h-1V1780.5z"/>
		<path class="st5" d="M831.9,1780.5h0.9v0.8c0.3-0.3,0.6-0.6,0.9-0.7s0.6-0.2,1-0.2c0.8,0,1.4,0.3,1.7,0.9c0.2,0.3,0.2,0.8,0.2,1.3
			v3.7h-1v-3.6c0-0.4-0.1-0.6-0.2-0.8c-0.2-0.4-0.5-0.5-0.9-0.5c-0.2,0-0.4,0-0.6,0.1c-0.3,0.1-0.5,0.2-0.7,0.5
			c-0.2,0.2-0.3,0.4-0.3,0.6c0,0.2-0.1,0.5-0.1,0.9v3h-1V1780.5z"/>
		<path class="st5" d="M841.1,1780.5h0.9v1c0.1-0.2,0.3-0.4,0.6-0.7s0.6-0.4,1-0.4c0,0,0,0,0.1,0s0.1,0,0.2,0v1c-0.1,0-0.1,0-0.2,0
			c0,0-0.1,0-0.2,0c-0.5,0-0.9,0.2-1.1,0.5s-0.4,0.7-0.4,1.1v3.3h-1V1780.5z"/>
		<path class="st5" d="M844.7,1778.4h1v1.1h-1V1778.4z M844.7,1780.6h1v5.7h-1V1780.6z"/>
		<path class="st5" d="M850.3,1780.8c0.2,0.1,0.4,0.3,0.6,0.5v-0.7h0.9v5.2c0,0.7-0.1,1.3-0.3,1.7c-0.4,0.8-1.2,1.2-2.3,1.2
			c-0.6,0-1.1-0.1-1.6-0.4s-0.7-0.7-0.7-1.3h1c0,0.3,0.1,0.5,0.3,0.6c0.2,0.2,0.6,0.3,1,0.3c0.7,0,1.2-0.3,1.4-0.8
			c0.1-0.3,0.2-0.9,0.2-1.6c-0.2,0.3-0.4,0.5-0.7,0.7c-0.3,0.1-0.6,0.2-1.1,0.2c-0.6,0-1.2-0.2-1.6-0.7c-0.5-0.4-0.7-1.2-0.7-2.2
			c0-1,0.2-1.7,0.7-2.3c0.5-0.5,1-0.8,1.7-0.8C849.6,1780.4,850,1780.6,850.3,1780.8z M850.5,1781.8c-0.3-0.3-0.7-0.5-1.1-0.5
			c-0.7,0-1.1,0.3-1.4,1c-0.1,0.3-0.2,0.8-0.2,1.3c0,0.6,0.1,1.1,0.4,1.5c0.3,0.3,0.6,0.5,1.1,0.5c0.7,0,1.2-0.3,1.5-0.9
			c0.2-0.4,0.2-0.8,0.2-1.2C850.9,1782.7,850.7,1782.2,850.5,1781.8z"/>
		<path class="st5" d="M853.3,1778.4h1v2.9c0.2-0.3,0.4-0.5,0.6-0.6c0.3-0.2,0.7-0.3,1.2-0.3c0.8,0,1.4,0.3,1.7,0.9
			c0.2,0.3,0.2,0.8,0.2,1.3v3.7h-1v-3.6c0-0.4-0.1-0.7-0.2-0.9c-0.2-0.3-0.5-0.5-1-0.5c-0.4,0-0.8,0.1-1.1,0.4
			c-0.3,0.3-0.5,0.8-0.5,1.6v3.1h-1V1778.4z"/>
		<path class="st5" d="M859.6,1778.9h1v1.6h0.9v0.8h-0.9v3.8c0,0.2,0.1,0.3,0.2,0.4c0.1,0,0.2,0.1,0.4,0.1c0,0,0.1,0,0.2,0
			c0.1,0,0.1,0,0.2,0v0.8c-0.1,0-0.2,0.1-0.3,0.1c-0.1,0-0.2,0-0.4,0c-0.5,0-0.8-0.1-0.9-0.3c-0.2-0.2-0.2-0.5-0.2-0.9v-3.8h-0.8
			v-0.8h0.8V1778.9z"/>
		<path class="st5" d="M868.6,1782.8c0.2,0,0.4-0.1,0.4-0.3c0-0.1,0.1-0.2,0.1-0.4c0-0.3-0.1-0.6-0.4-0.7c-0.2-0.1-0.6-0.2-1-0.2
			c-0.5,0-0.9,0.1-1.1,0.4c-0.1,0.2-0.2,0.4-0.2,0.7h-0.9c0-0.7,0.2-1.2,0.7-1.5s1-0.4,1.5-0.4c0.7,0,1.2,0.1,1.6,0.4
			c0.4,0.3,0.6,0.7,0.6,1.2v3.3c0,0.1,0,0.2,0.1,0.2c0,0.1,0.1,0.1,0.3,0.1c0,0,0.1,0,0.1,0c0.1,0,0.1,0,0.2,0v0.7
			c-0.2,0-0.3,0.1-0.3,0.1c-0.1,0-0.2,0-0.3,0c-0.3,0-0.6-0.1-0.7-0.4c-0.1-0.1-0.1-0.3-0.2-0.5c-0.2,0.3-0.5,0.5-0.8,0.7
			c-0.4,0.2-0.8,0.3-1.2,0.3c-0.5,0-1-0.2-1.3-0.5c-0.3-0.3-0.5-0.7-0.5-1.2c0-0.5,0.2-0.9,0.5-1.2s0.8-0.5,1.3-0.5L868.6,1782.8z
			 M866.5,1785.4c0.2,0.2,0.4,0.2,0.7,0.2c0.3,0,0.7-0.1,1-0.2c0.5-0.3,0.8-0.7,0.8-1.3v-0.8c-0.1,0.1-0.3,0.1-0.5,0.2
			c-0.2,0.1-0.4,0.1-0.5,0.1l-0.6,0.1c-0.4,0-0.6,0.1-0.8,0.2c-0.3,0.2-0.4,0.4-0.4,0.8C866.2,1785,866.3,1785.3,866.5,1785.4z"/>
		<path class="st5" d="M871.8,1778.9h1v1.6h0.9v0.8h-0.9v3.8c0,0.2,0.1,0.3,0.2,0.4c0.1,0,0.2,0.1,0.4,0.1c0,0,0.1,0,0.2,0
			c0.1,0,0.1,0,0.2,0v0.8c-0.1,0-0.2,0.1-0.3,0.1c-0.1,0-0.2,0-0.4,0c-0.5,0-0.8-0.1-0.9-0.3c-0.2-0.2-0.2-0.5-0.2-0.9v-3.8H871
			v-0.8h0.8V1778.9z"/>
	</g>
	<g class="st2">
		<path class="st5" d="M810.9,1795.8c0,0.4,0.1,0.8,0.3,1.1c0.3,0.5,0.9,0.8,1.8,0.8c0.4,0,0.7-0.1,1.1-0.2c0.6-0.2,0.9-0.6,0.9-1.2
			c0-0.4-0.1-0.7-0.4-0.9c-0.3-0.2-0.7-0.3-1.2-0.5l-1-0.2c-0.7-0.2-1.2-0.3-1.4-0.5c-0.5-0.3-0.7-0.8-0.7-1.5
			c0-0.7,0.2-1.3,0.7-1.7c0.5-0.5,1.2-0.7,2-0.7c0.8,0,1.5,0.2,2.1,0.6c0.6,0.4,0.8,1,0.8,1.9h-1c-0.1-0.4-0.2-0.7-0.3-1
			c-0.3-0.4-0.8-0.6-1.6-0.6c-0.6,0-1,0.1-1.3,0.4s-0.4,0.6-0.4,0.9c0,0.4,0.2,0.7,0.5,0.8c0.2,0.1,0.7,0.3,1.4,0.4l1.1,0.3
			c0.5,0.1,0.9,0.3,1.2,0.5c0.5,0.4,0.7,0.9,0.7,1.6c0,0.9-0.3,1.5-0.9,1.9c-0.6,0.4-1.3,0.6-2.2,0.6c-1,0-1.7-0.2-2.2-0.8
			c-0.5-0.5-0.8-1.2-0.8-2H810.9z"/>
		<path class="st5" d="M820.5,1794.8c0.2,0,0.4-0.1,0.4-0.3c0-0.1,0.1-0.2,0.1-0.4c0-0.3-0.1-0.6-0.4-0.7c-0.2-0.1-0.6-0.2-1-0.2
			c-0.5,0-0.9,0.1-1.1,0.4c-0.1,0.2-0.2,0.4-0.2,0.7h-0.9c0-0.7,0.2-1.2,0.7-1.5c0.4-0.3,1-0.4,1.5-0.4c0.7,0,1.2,0.1,1.6,0.4
			c0.4,0.3,0.6,0.7,0.6,1.2v3.3c0,0.1,0,0.2,0.1,0.2c0,0.1,0.1,0.1,0.3,0.1c0,0,0.1,0,0.1,0c0.1,0,0.1,0,0.2,0v0.7
			c-0.2,0-0.3,0.1-0.3,0.1s-0.2,0-0.3,0c-0.3,0-0.6-0.1-0.7-0.4c-0.1-0.1-0.1-0.3-0.2-0.5c-0.2,0.3-0.5,0.5-0.8,0.7
			c-0.4,0.2-0.8,0.3-1.2,0.3c-0.5,0-1-0.2-1.3-0.5c-0.3-0.3-0.5-0.7-0.5-1.2c0-0.5,0.2-0.9,0.5-1.2s0.8-0.5,1.3-0.5L820.5,1794.8z
			 M818.4,1797.4c0.2,0.2,0.4,0.2,0.7,0.2c0.3,0,0.7-0.1,1-0.2c0.5-0.3,0.8-0.7,0.8-1.3v-0.8c-0.1,0.1-0.3,0.1-0.5,0.2
			c-0.2,0.1-0.4,0.1-0.5,0.1l-0.6,0.1c-0.4,0-0.6,0.1-0.8,0.2c-0.3,0.2-0.4,0.4-0.4,0.8C818.1,1797,818.2,1797.3,818.4,1797.4z"/>
		<path class="st5" d="M823.5,1792.5h0.9v1c0.1-0.2,0.3-0.4,0.6-0.7s0.6-0.4,1-0.4c0,0,0,0,0.1,0s0.1,0,0.2,0v1c-0.1,0-0.1,0-0.2,0
			c0,0-0.1,0-0.2,0c-0.5,0-0.9,0.2-1.1,0.5s-0.4,0.7-0.4,1.1v3.3h-1V1792.5z"/>
		<path class="st5" d="M830.3,1794.8c0.2,0,0.4-0.1,0.4-0.3c0-0.1,0.1-0.2,0.1-0.4c0-0.3-0.1-0.6-0.4-0.7c-0.2-0.1-0.6-0.2-1-0.2
			c-0.5,0-0.9,0.1-1.1,0.4c-0.1,0.2-0.2,0.4-0.2,0.7h-0.9c0-0.7,0.2-1.2,0.7-1.5c0.4-0.3,1-0.4,1.5-0.4c0.7,0,1.2,0.1,1.6,0.4
			c0.4,0.3,0.6,0.7,0.6,1.2v3.3c0,0.1,0,0.2,0.1,0.2c0,0.1,0.1,0.1,0.3,0.1c0,0,0.1,0,0.1,0c0.1,0,0.1,0,0.2,0v0.7
			c-0.2,0-0.3,0.1-0.3,0.1s-0.2,0-0.3,0c-0.3,0-0.6-0.1-0.7-0.4c-0.1-0.1-0.1-0.3-0.2-0.5c-0.2,0.3-0.5,0.5-0.8,0.7
			c-0.4,0.2-0.8,0.3-1.2,0.3c-0.5,0-1-0.2-1.3-0.5c-0.3-0.3-0.5-0.7-0.5-1.2c0-0.5,0.2-0.9,0.5-1.2s0.8-0.5,1.3-0.5L830.3,1794.8z
			 M828.2,1797.4c0.2,0.2,0.4,0.2,0.7,0.2c0.3,0,0.7-0.1,1-0.2c0.5-0.3,0.8-0.7,0.8-1.3v-0.8c-0.1,0.1-0.3,0.1-0.5,0.2
			c-0.2,0.1-0.4,0.1-0.5,0.1l-0.6,0.1c-0.4,0-0.6,0.1-0.8,0.2c-0.3,0.2-0.4,0.4-0.4,0.8C827.9,1797,828,1797.3,828.2,1797.4z"/>
		<path class="st5" d="M833.9,1796.5c0,0.3,0.1,0.6,0.2,0.7c0.2,0.3,0.7,0.5,1.3,0.5c0.4,0,0.7-0.1,1-0.2c0.3-0.2,0.4-0.4,0.4-0.7
			c0-0.2-0.1-0.4-0.3-0.6c-0.1-0.1-0.4-0.2-0.8-0.3l-0.8-0.2c-0.5-0.1-0.9-0.3-1.1-0.4c-0.4-0.3-0.6-0.6-0.6-1.1
			c0-0.5,0.2-1,0.6-1.3c0.4-0.3,0.9-0.5,1.6-0.5c0.9,0,1.5,0.3,1.9,0.8c0.2,0.3,0.4,0.7,0.4,1h-0.9c0-0.2-0.1-0.4-0.2-0.6
			c-0.2-0.3-0.6-0.4-1.2-0.4c-0.4,0-0.7,0.1-0.8,0.2c-0.2,0.1-0.3,0.3-0.3,0.6c0,0.2,0.1,0.5,0.4,0.6c0.1,0.1,0.4,0.2,0.6,0.2
			l0.7,0.2c0.7,0.2,1.2,0.3,1.4,0.5c0.4,0.2,0.6,0.6,0.6,1.2c0,0.5-0.2,1-0.6,1.3c-0.4,0.4-1,0.6-1.8,0.6c-0.9,0-1.5-0.2-1.8-0.6
			s-0.6-0.9-0.6-1.4H833.9z"/>
		<path class="st5" d="M838.8,1790.4h1v2.9c0.2-0.3,0.4-0.5,0.6-0.6c0.3-0.2,0.7-0.3,1.2-0.3c0.8,0,1.4,0.3,1.7,0.9
			c0.2,0.3,0.2,0.8,0.2,1.3v3.7h-1v-3.6c0-0.4-0.1-0.7-0.2-0.9c-0.2-0.3-0.5-0.5-1-0.5c-0.4,0-0.8,0.1-1.1,0.4
			c-0.3,0.3-0.5,0.8-0.5,1.6v3.1h-1V1790.4z"/>
		<path class="st5" d="M844.9,1790.4h1v1.1h-1V1790.4z M844.9,1792.6h1v5.7h-1V1792.6z"/>
		<path class="st5" d="M847.3,1792.5h0.9v0.8c0.3-0.3,0.6-0.6,0.9-0.7c0.3-0.1,0.6-0.2,1-0.2c0.8,0,1.4,0.3,1.7,0.9
			c0.2,0.3,0.2,0.8,0.2,1.3v3.7h-1v-3.6c0-0.4-0.1-0.6-0.2-0.8c-0.2-0.4-0.5-0.5-0.9-0.5c-0.2,0-0.4,0-0.6,0.1
			c-0.3,0.1-0.5,0.2-0.7,0.5c-0.2,0.2-0.3,0.4-0.3,0.6c0,0.2-0.1,0.5-0.1,0.9v3h-1V1792.5z"/>
		<path class="st5" d="M856.5,1794.8c0.2,0,0.4-0.1,0.4-0.3c0-0.1,0.1-0.2,0.1-0.4c0-0.3-0.1-0.6-0.4-0.7c-0.2-0.1-0.6-0.2-1-0.2
			c-0.5,0-0.9,0.1-1.1,0.4c-0.1,0.2-0.2,0.4-0.2,0.7h-0.9c0-0.7,0.2-1.2,0.7-1.5c0.4-0.3,1-0.4,1.5-0.4c0.7,0,1.2,0.1,1.6,0.4
			c0.4,0.3,0.6,0.7,0.6,1.2v3.3c0,0.1,0,0.2,0.1,0.2c0,0.1,0.1,0.1,0.3,0.1c0,0,0.1,0,0.1,0c0.1,0,0.1,0,0.2,0v0.7
			c-0.2,0-0.3,0.1-0.3,0.1c-0.1,0-0.2,0-0.3,0c-0.3,0-0.6-0.1-0.7-0.4c-0.1-0.1-0.1-0.3-0.2-0.5c-0.2,0.3-0.5,0.5-0.8,0.7
			c-0.4,0.2-0.8,0.3-1.2,0.3c-0.5,0-1-0.2-1.3-0.5c-0.3-0.3-0.5-0.7-0.5-1.2c0-0.5,0.2-0.9,0.5-1.2s0.8-0.5,1.3-0.5L856.5,1794.8z
			 M854.5,1797.4c0.2,0.2,0.4,0.2,0.7,0.2c0.3,0,0.7-0.1,1-0.2c0.5-0.3,0.8-0.7,0.8-1.3v-0.8c-0.1,0.1-0.3,0.1-0.5,0.2
			c-0.2,0.1-0.4,0.1-0.5,0.1l-0.6,0.1c-0.4,0-0.6,0.1-0.8,0.2c-0.3,0.2-0.4,0.4-0.4,0.8C854.2,1797,854.3,1797.3,854.5,1797.4z"/>
		<path class="st5" d="M862.9,1790.4h5.7v1h-4.7v2.4h4.3v0.9h-4.3v2.7h4.8v0.9h-5.8V1790.4z"/>
		<path class="st5" d="M870.2,1797.1h1.1v1.2h-1.1V1797.1z"/>
		<path class="st5" d="M873.9,1795.8c0,0.4,0.1,0.8,0.3,1.1c0.3,0.5,0.9,0.8,1.8,0.8c0.4,0,0.7-0.1,1.1-0.2c0.6-0.2,0.9-0.6,0.9-1.2
			c0-0.4-0.1-0.7-0.4-0.9c-0.3-0.2-0.7-0.3-1.2-0.5l-1-0.2c-0.7-0.2-1.2-0.3-1.4-0.5c-0.5-0.3-0.7-0.8-0.7-1.5
			c0-0.7,0.2-1.3,0.7-1.7c0.5-0.5,1.2-0.7,2-0.7c0.8,0,1.5,0.2,2.1,0.6s0.8,1,0.8,1.9h-1c-0.1-0.4-0.2-0.7-0.3-1
			c-0.3-0.4-0.8-0.6-1.6-0.6c-0.6,0-1,0.1-1.3,0.4c-0.3,0.3-0.4,0.6-0.4,0.9c0,0.4,0.2,0.7,0.5,0.8c0.2,0.1,0.7,0.3,1.4,0.4l1.1,0.3
			c0.5,0.1,0.9,0.3,1.2,0.5c0.5,0.4,0.7,0.9,0.7,1.6c0,0.9-0.3,1.5-0.9,1.9c-0.6,0.4-1.3,0.6-2.2,0.6c-1,0-1.7-0.2-2.2-0.8
			c-0.5-0.5-0.8-1.2-0.8-2H873.9z"/>
	</g>
	<g class="st2">
		<path class="st5" d="M828.5,1804.9c0.4,0.3,0.7,0.9,0.7,1.6h-0.9c-0.1-0.4-0.2-0.6-0.4-0.9s-0.5-0.4-1-0.4c-0.6,0-1.1,0.3-1.3,0.9
			c-0.2,0.4-0.3,0.9-0.3,1.4c0,0.6,0.1,1.1,0.4,1.5s0.6,0.6,1.1,0.6c0.4,0,0.7-0.1,1-0.4c0.2-0.2,0.4-0.6,0.5-1h0.9
			c-0.1,0.8-0.4,1.3-0.8,1.7s-1,0.5-1.6,0.5c-0.8,0-1.4-0.3-1.8-0.8s-0.7-1.2-0.7-2.1c0-1,0.2-1.8,0.7-2.4c0.5-0.6,1.1-0.8,1.9-0.8
			C827.6,1804.4,828.1,1804.5,828.5,1804.9z"/>
		<path class="st5" d="M830.3,1804.5h0.9v1c0.1-0.2,0.3-0.4,0.6-0.7s0.6-0.4,1-0.4c0,0,0,0,0.1,0s0.1,0,0.2,0v1c-0.1,0-0.1,0-0.2,0
			c0,0-0.1,0-0.2,0c-0.5,0-0.9,0.2-1.1,0.5s-0.4,0.7-0.4,1.1v3.3h-1V1804.5z"/>
		<path class="st5" d="M838.1,1805.1c0.5,0.5,0.8,1.2,0.8,2.2c0,0.9-0.2,1.7-0.7,2.3c-0.4,0.6-1.1,0.9-2.1,0.9
			c-0.8,0-1.4-0.3-1.9-0.8c-0.5-0.5-0.7-1.3-0.7-2.2c0-1,0.2-1.7,0.7-2.3c0.5-0.6,1.1-0.9,2-0.9
			C836.9,1804.4,837.6,1804.6,838.1,1805.1z M837.5,1808.9c0.2-0.5,0.4-1,0.4-1.6c0-0.5-0.1-1-0.3-1.3c-0.3-0.5-0.7-0.8-1.4-0.8
			c-0.6,0-1,0.2-1.3,0.7c-0.3,0.5-0.4,1-0.4,1.6c0,0.6,0.1,1.1,0.4,1.5c0.3,0.4,0.7,0.6,1.3,0.6
			C836.8,1809.7,837.2,1809.4,837.5,1808.9z"/>
		<path class="st5" d="M840.6,1808.5c0,0.3,0.1,0.6,0.2,0.7c0.2,0.3,0.7,0.5,1.3,0.5c0.4,0,0.7-0.1,1-0.2c0.3-0.2,0.4-0.4,0.4-0.7
			c0-0.2-0.1-0.4-0.3-0.6c-0.1-0.1-0.4-0.2-0.8-0.3l-0.8-0.2c-0.5-0.1-0.9-0.3-1.1-0.4c-0.4-0.3-0.6-0.6-0.6-1.1
			c0-0.5,0.2-1,0.6-1.3c0.4-0.3,0.9-0.5,1.6-0.5c0.9,0,1.5,0.3,1.9,0.8c0.2,0.3,0.4,0.7,0.4,1h-0.9c0-0.2-0.1-0.4-0.2-0.6
			c-0.2-0.3-0.6-0.4-1.2-0.4c-0.4,0-0.7,0.1-0.8,0.2c-0.2,0.1-0.3,0.3-0.3,0.6c0,0.2,0.1,0.5,0.4,0.6c0.1,0.1,0.4,0.2,0.6,0.2
			l0.7,0.2c0.7,0.2,1.2,0.3,1.4,0.5c0.4,0.2,0.6,0.6,0.6,1.2c0,0.5-0.2,1-0.6,1.3c-0.4,0.4-1,0.6-1.8,0.6c-0.9,0-1.5-0.2-1.8-0.6
			s-0.6-0.9-0.6-1.4H840.6z"/>
		<path class="st5" d="M846.1,1808.5c0,0.3,0.1,0.6,0.2,0.7c0.2,0.3,0.7,0.5,1.3,0.5c0.4,0,0.7-0.1,1-0.2c0.3-0.2,0.4-0.4,0.4-0.7
			c0-0.2-0.1-0.4-0.3-0.6c-0.1-0.1-0.4-0.2-0.8-0.3l-0.8-0.2c-0.5-0.1-0.9-0.3-1.1-0.4c-0.4-0.3-0.6-0.6-0.6-1.1
			c0-0.5,0.2-1,0.6-1.3c0.4-0.3,0.9-0.5,1.6-0.5c0.9,0,1.5,0.3,1.9,0.8c0.2,0.3,0.4,0.7,0.4,1h-0.9c0-0.2-0.1-0.4-0.2-0.6
			c-0.2-0.3-0.6-0.4-1.2-0.4c-0.4,0-0.7,0.1-0.8,0.2c-0.2,0.1-0.3,0.3-0.3,0.6c0,0.2,0.1,0.5,0.4,0.6c0.1,0.1,0.4,0.2,0.6,0.2
			l0.7,0.2c0.7,0.2,1.2,0.3,1.4,0.5c0.4,0.2,0.6,0.6,0.6,1.2c0,0.5-0.2,1-0.6,1.3c-0.4,0.4-1,0.6-1.8,0.6c-0.9,0-1.5-0.2-1.8-0.6
			c-0.4-0.4-0.6-0.9-0.6-1.4H846.1z"/>
		<path class="st5" d="M851,1802.4h1v1.1h-1V1802.4z M851,1804.6h1v5.7h-1V1804.6z"/>
		<path class="st5" d="M853.5,1804.5h0.9v0.8c0.3-0.3,0.6-0.6,0.9-0.7c0.3-0.1,0.6-0.2,1-0.2c0.8,0,1.4,0.3,1.7,0.9
			c0.2,0.3,0.2,0.8,0.2,1.3v3.7h-1v-3.6c0-0.4-0.1-0.6-0.2-0.8c-0.2-0.4-0.5-0.5-0.9-0.5c-0.2,0-0.4,0-0.6,0.1
			c-0.3,0.1-0.5,0.2-0.7,0.5c-0.2,0.2-0.3,0.4-0.3,0.6c0,0.2-0.1,0.5-0.1,0.9v3h-1V1804.5z"/>
		<path class="st5" d="M862.8,1804.8c0.2,0.1,0.4,0.3,0.6,0.5v-0.7h0.9v5.2c0,0.7-0.1,1.3-0.3,1.7c-0.4,0.8-1.2,1.2-2.3,1.2
			c-0.6,0-1.1-0.1-1.6-0.4c-0.4-0.3-0.7-0.7-0.7-1.3h1c0,0.3,0.1,0.5,0.3,0.6c0.2,0.2,0.6,0.3,1,0.3c0.7,0,1.2-0.3,1.4-0.8
			c0.1-0.3,0.2-0.9,0.2-1.6c-0.2,0.3-0.4,0.5-0.7,0.7c-0.3,0.1-0.6,0.2-1.1,0.2c-0.6,0-1.2-0.2-1.6-0.7c-0.5-0.4-0.7-1.2-0.7-2.2
			c0-1,0.2-1.7,0.7-2.3c0.5-0.5,1-0.8,1.7-0.8C862,1804.4,862.4,1804.6,862.8,1804.8z M862.9,1805.8c-0.3-0.3-0.7-0.5-1.1-0.5
			c-0.7,0-1.1,0.3-1.4,1c-0.1,0.3-0.2,0.8-0.2,1.3c0,0.6,0.1,1.1,0.4,1.5c0.3,0.3,0.6,0.5,1.1,0.5c0.7,0,1.2-0.3,1.5-0.9
			c0.2-0.4,0.2-0.8,0.2-1.2C863.3,1806.7,863.2,1806.2,862.9,1805.8z"/>
	</g>
	<g id="パス_1701-2" transform="translate(804 1584)">
		<path class="st3" d="M79.5,24.5h-79v-24h79V24.5z"/>
		<path class="st4" d="M1,1v23h78V1H1 M0,0h80v25H0V0z"/>
	</g>
	<g class="st2">
		<path class="st5" d="M814.9,1592.1h1v3.9l3.9-3.9h1.5l-3.4,3.2l3.4,4.7H820l-2.8-4l-1.3,1.2v2.8h-1V1592.1z"/>
		<path class="st5" d="M826.3,1594.8c0.5,0.5,0.8,1.2,0.8,2.2c0,0.9-0.2,1.7-0.7,2.3c-0.4,0.6-1.1,0.9-2.1,0.9
			c-0.8,0-1.4-0.3-1.9-0.8c-0.5-0.5-0.7-1.3-0.7-2.2c0-1,0.2-1.7,0.7-2.3c0.5-0.6,1.1-0.9,2-0.9
			C825.1,1594.1,825.8,1594.3,826.3,1594.8z M825.7,1598.6c0.2-0.5,0.4-1,0.4-1.6c0-0.5-0.1-1-0.3-1.3c-0.3-0.5-0.7-0.8-1.4-0.8
			c-0.6,0-1,0.2-1.3,0.7c-0.3,0.5-0.4,1-0.4,1.6c0,0.6,0.1,1.1,0.4,1.5c0.3,0.4,0.7,0.6,1.3,0.6
			C825,1599.4,825.4,1599.1,825.7,1598.6z"/>
		<path class="st5" d="M828.2,1594.2h1v0.8c0.2-0.3,0.4-0.5,0.6-0.6c0.3-0.2,0.7-0.3,1.1-0.3c0.5,0,0.8,0.1,1.1,0.3
			c0.2,0.1,0.3,0.3,0.4,0.6c0.2-0.3,0.5-0.5,0.8-0.7s0.6-0.2,1-0.2c0.8,0,1.3,0.3,1.6,0.8c0.2,0.3,0.2,0.7,0.2,1.2v3.8h-1v-4
			c0-0.4-0.1-0.6-0.3-0.8c-0.2-0.1-0.4-0.2-0.7-0.2c-0.4,0-0.7,0.1-1,0.4c-0.3,0.3-0.4,0.7-0.4,1.3v3.3h-1v-3.8c0-0.4,0-0.7-0.1-0.9
			c-0.1-0.3-0.4-0.4-0.8-0.4c-0.4,0-0.7,0.1-1,0.4c-0.3,0.3-0.4,0.8-0.4,1.5v3.1h-1V1594.2z"/>
		<path class="st5" d="M840.5,1596.5c0.2,0,0.4-0.1,0.4-0.3c0-0.1,0.1-0.2,0.1-0.4c0-0.3-0.1-0.6-0.4-0.7c-0.2-0.1-0.6-0.2-1-0.2
			c-0.5,0-0.9,0.1-1.1,0.4c-0.1,0.2-0.2,0.4-0.2,0.7h-0.9c0-0.7,0.2-1.2,0.7-1.5c0.4-0.3,1-0.4,1.5-0.4c0.7,0,1.2,0.1,1.6,0.4
			c0.4,0.3,0.6,0.7,0.6,1.2v3.3c0,0.1,0,0.2,0.1,0.2c0,0.1,0.1,0.1,0.3,0.1c0,0,0.1,0,0.1,0c0.1,0,0.1,0,0.2,0v0.7
			c-0.2,0-0.3,0.1-0.3,0.1s-0.2,0-0.3,0c-0.3,0-0.6-0.1-0.7-0.4c-0.1-0.1-0.1-0.3-0.2-0.5c-0.2,0.3-0.5,0.5-0.8,0.7
			c-0.4,0.2-0.8,0.3-1.2,0.3c-0.5,0-1-0.2-1.3-0.5c-0.3-0.3-0.5-0.7-0.5-1.2c0-0.5,0.2-0.9,0.5-1.2s0.8-0.5,1.3-0.5L840.5,1596.5z
			 M838.4,1599.1c0.2,0.2,0.4,0.2,0.7,0.2c0.3,0,0.7-0.1,1-0.2c0.5-0.3,0.8-0.7,0.8-1.3v-0.8c-0.1,0.1-0.3,0.1-0.5,0.2
			c-0.2,0.1-0.4,0.1-0.5,0.1l-0.6,0.1c-0.4,0-0.6,0.1-0.8,0.2c-0.3,0.2-0.4,0.4-0.4,0.8C838.1,1598.8,838.2,1599,838.4,1599.1z"/>
		<path class="st5" d="M843.5,1592.1h0.9v4.6l2.5-2.4h1.2l-2.2,2.1l2.3,3.6H847l-1.8-2.9l-0.8,0.8v2.2h-0.9V1592.1z"/>
		<path class="st5" d="M849,1592.1h1v1.1h-1V1592.1z M849,1594.3h1v5.7h-1V1594.3z"/>
		<path class="st5" d="M858.5,1597.6c0,0.7-0.1,1.2-0.3,1.6c-0.4,0.7-1.1,1-2.1,1c-0.6,0-1.1-0.2-1.5-0.5c-0.4-0.3-0.6-0.9-0.6-1.7
			v-0.6h1v0.6c0,0.4,0.1,0.8,0.3,1s0.5,0.3,0.9,0.3c0.6,0,0.9-0.2,1.1-0.6c0.1-0.2,0.2-0.7,0.2-1.4v-5.3h1.1V1597.6z"/>
		<path class="st5" d="M865.7,1592.7c0.5,0.5,0.8,1.1,0.9,1.8h-1c-0.1-0.5-0.3-0.9-0.7-1.2c-0.3-0.3-0.8-0.4-1.5-0.4
			c-0.8,0-1.4,0.3-1.8,0.8c-0.5,0.5-0.7,1.4-0.7,2.5c0,0.9,0.2,1.7,0.6,2.2s1.1,0.9,1.9,0.9c0.8,0,1.4-0.3,1.8-0.9
			c0.2-0.3,0.4-0.7,0.5-1.3h1c-0.1,0.8-0.4,1.5-0.9,2.1c-0.6,0.7-1.5,1-2.5,1c-0.9,0-1.7-0.3-2.3-0.8c-0.8-0.7-1.2-1.9-1.2-3.4
			c0-1.2,0.3-2.1,0.9-2.9c0.7-0.8,1.6-1.2,2.7-1.2C864.4,1591.9,865.2,1592.2,865.7,1592.7z"/>
		<path class="st5" d="M873.8,1592.1v0.9h-2.7v7h-1.1v-7h-2.7v-0.9H873.8z"/>
	</g>
	<g id="パス_1701-3" transform="translate(804 1652.851)">
		<path class="st3" d="M79.5,24.5h-79v-24h79V24.5z"/>
		<path class="st4" d="M1,1v23h78V1H1 M0,0h80v25H0V0z"/>
	</g>
	<g class="st2">
		<path class="st5" d="M823.8,1662.9c0.5,0.7,0.8,1.6,0.8,2.7c0,1.2-0.3,2.2-0.9,2.9c-0.7,0.9-1.7,1.4-3,1.4c-1.2,0-2.2-0.4-2.9-1.2
			c-0.6-0.8-0.9-1.8-0.9-2.9c0-1.1,0.3-2,0.8-2.7c0.7-1,1.7-1.5,3-1.5C822.1,1661.5,823.2,1662,823.8,1662.9z M822.9,1667.9
			c0.4-0.7,0.6-1.5,0.6-2.3c0-0.9-0.2-1.7-0.7-2.2c-0.5-0.6-1.1-0.8-2-0.8c-0.8,0-1.5,0.3-2,0.8c-0.5,0.6-0.8,1.4-0.8,2.5
			c0,0.9,0.2,1.6,0.7,2.2c0.4,0.6,1.2,0.9,2.2,0.9C821.8,1668.9,822.5,1668.6,822.9,1667.9z"/>
		<path class="st5" d="M825.7,1661.8h0.9v4.6l2.5-2.4h1.2l-2.2,2.1l2.3,3.6h-1.2l-1.8-2.9l-0.8,0.8v2.2h-0.9V1661.8z"/>
		<path class="st5" d="M834.3,1666.2c0.2,0,0.4-0.1,0.4-0.3c0-0.1,0.1-0.2,0.1-0.4c0-0.3-0.1-0.6-0.4-0.7c-0.2-0.1-0.6-0.2-1-0.2
			c-0.5,0-0.9,0.1-1.1,0.4c-0.1,0.2-0.2,0.4-0.2,0.7h-0.9c0-0.7,0.2-1.2,0.7-1.5c0.4-0.3,1-0.4,1.5-0.4c0.7,0,1.2,0.1,1.6,0.4
			c0.4,0.3,0.6,0.7,0.6,1.2v3.3c0,0.1,0,0.2,0.1,0.2c0,0.1,0.1,0.1,0.3,0.1c0,0,0.1,0,0.1,0c0.1,0,0.1,0,0.2,0v0.7
			c-0.2,0-0.3,0.1-0.3,0.1s-0.2,0-0.3,0c-0.3,0-0.6-0.1-0.7-0.4c-0.1-0.1-0.1-0.3-0.2-0.5c-0.2,0.3-0.5,0.5-0.8,0.7
			c-0.4,0.2-0.8,0.3-1.2,0.3c-0.5,0-1-0.2-1.3-0.5c-0.3-0.3-0.5-0.7-0.5-1.2c0-0.5,0.2-0.9,0.5-1.2s0.8-0.5,1.3-0.5L834.3,1666.2z
			 M832.3,1668.8c0.2,0.2,0.4,0.2,0.7,0.2c0.3,0,0.7-0.1,1-0.2c0.5-0.3,0.8-0.7,0.8-1.3v-0.8c-0.1,0.1-0.3,0.1-0.5,0.2
			c-0.2,0.1-0.4,0.1-0.5,0.1l-0.6,0.1c-0.4,0-0.6,0.1-0.8,0.2c-0.3,0.2-0.4,0.4-0.4,0.8C832,1668.4,832.1,1668.6,832.3,1668.8z"/>
		<path class="st5" d="M841,1663.9h1.1c-0.1,0.4-0.4,1.2-0.9,2.5c-0.4,1-0.6,1.8-0.9,2.4c-0.6,1.5-1,2.4-1.2,2.7s-0.6,0.5-1.2,0.5
			c-0.1,0-0.2,0-0.3,0s-0.2,0-0.3-0.1v-0.9c0.2,0,0.3,0.1,0.4,0.1c0.1,0,0.1,0,0.2,0c0.2,0,0.3,0,0.4-0.1c0.1-0.1,0.2-0.1,0.2-0.2
			c0,0,0.1-0.2,0.2-0.4s0.2-0.5,0.2-0.6l-2.1-5.9h1.1l1.5,4.7L841,1663.9z"/>
		<path class="st5" d="M846,1666.2c0.2,0,0.4-0.1,0.4-0.3c0-0.1,0.1-0.2,0.1-0.4c0-0.3-0.1-0.6-0.4-0.7c-0.2-0.1-0.6-0.2-1-0.2
			c-0.5,0-0.9,0.1-1.1,0.4c-0.1,0.2-0.2,0.4-0.2,0.7h-0.9c0-0.7,0.2-1.2,0.7-1.5c0.4-0.3,1-0.4,1.5-0.4c0.7,0,1.2,0.1,1.6,0.4
			c0.4,0.3,0.6,0.7,0.6,1.2v3.3c0,0.1,0,0.2,0.1,0.2c0,0.1,0.1,0.1,0.3,0.1c0,0,0.1,0,0.1,0c0.1,0,0.1,0,0.2,0v0.7
			c-0.2,0-0.3,0.1-0.3,0.1c-0.1,0-0.2,0-0.3,0c-0.3,0-0.6-0.1-0.7-0.4c-0.1-0.1-0.1-0.3-0.2-0.5c-0.2,0.3-0.5,0.5-0.8,0.7
			c-0.4,0.2-0.8,0.3-1.2,0.3c-0.5,0-1-0.2-1.3-0.5c-0.3-0.3-0.5-0.7-0.5-1.2c0-0.5,0.2-0.9,0.5-1.2s0.8-0.5,1.3-0.5L846,1666.2z
			 M843.9,1668.8c0.2,0.2,0.4,0.2,0.7,0.2c0.3,0,0.7-0.1,1-0.2c0.5-0.3,0.8-0.7,0.8-1.3v-0.8c-0.1,0.1-0.3,0.1-0.5,0.2
			c-0.2,0.1-0.4,0.1-0.5,0.1l-0.6,0.1c-0.4,0-0.6,0.1-0.8,0.2c-0.3,0.2-0.4,0.4-0.4,0.8C843.6,1668.4,843.7,1668.6,843.9,1668.8z"/>
		<path class="st5" d="M856.1,1667.3c0,0.7-0.1,1.2-0.3,1.6c-0.4,0.7-1.1,1-2.1,1c-0.6,0-1.1-0.2-1.5-0.5c-0.4-0.3-0.6-0.9-0.6-1.7
			v-0.6h1v0.6c0,0.4,0.1,0.8,0.3,1c0.2,0.2,0.5,0.3,0.9,0.3c0.6,0,0.9-0.2,1.1-0.6c0.1-0.2,0.2-0.7,0.2-1.4v-5.3h1.1V1667.3z"/>
		<path class="st5" d="M863.3,1662.3c0.5,0.5,0.8,1.1,0.9,1.8h-1c-0.1-0.5-0.3-0.9-0.7-1.2c-0.3-0.3-0.8-0.4-1.5-0.4
			c-0.8,0-1.4,0.3-1.8,0.8c-0.5,0.5-0.7,1.4-0.7,2.5c0,0.9,0.2,1.7,0.6,2.2s1.1,0.9,1.9,0.9c0.8,0,1.4-0.3,1.8-0.9
			c0.2-0.3,0.4-0.7,0.5-1.3h1c-0.1,0.8-0.4,1.5-0.9,2.1c-0.6,0.7-1.5,1-2.5,1c-0.9,0-1.7-0.3-2.3-0.8c-0.8-0.7-1.2-1.9-1.2-3.4
			c0-1.2,0.3-2.1,0.9-2.9c0.7-0.8,1.6-1.2,2.7-1.2C861.9,1661.5,862.7,1661.8,863.3,1662.3z"/>
		<path class="st5" d="M871.4,1661.8v0.9h-2.7v7h-1.1v-7H865v-0.9H871.4z"/>
	</g>
</g>
</svg>
