<svg xmlns="http://www.w3.org/2000/svg" viewBox="0 0 47.46 31.78"><defs><style>.cls-1,.cls-2,.cls-3{fill:none;stroke:#9dc138;stroke-linecap:round;}.cls-1,.cls-3{stroke-linejoin:round;}.cls-1,.cls-2{stroke-width:1.78px;}.cls-2{stroke-miterlimit:10;}.cls-3{stroke-width:1.64px;}</style></defs><g id="レイヤー_2" data-name="レイヤー 2"><g id="rayout"><path class="cls-1" d="M22.16,28.39h0a2.41,2.41,0,0,0-1.32-2.17l-.63-.34h2a2.5,2.5,0,0,0,2.51-2.5h0a2.49,2.49,0,0,0-1-2,2.42,2.42,0,0,0-.55-.29l-.47-.18h2.07a2.51,2.51,0,0,0,2.51-2.51h0a2.49,2.49,0,0,0-2.14-2.47h11a3,3,0,0,0,3-2.95h0a3,3,0,0,0-3-2.95H16.68l.64-.43,4.8-3.25A2.94,2.94,0,0,0,22.9,2.2v0A2.94,2.94,0,0,0,18.8,1.4s-.79.48-1,.61L14.39,4.38,6.81,9.63a18.88,18.88,0,0,0-2.24,1.6A11.22,11.22,0,0,0,.89,19.55,14.12,14.12,0,0,0,1.25,23a10.24,10.24,0,0,0,9.59,7.93h8.81A2.5,2.5,0,0,0,22.16,28.39Z"/><path class="cls-2" d="M21.93,25.87h-3.4m5.91-5H20.22m6.37-5h-4.8"/><path class="cls-3" d="M45.08,17.42a8.07,8.07,0,0,1-10.57,2.26M33.77,6.1A8.11,8.11,0,0,1,44,6.64m0,0a8.09,8.09,0,0,1,1.11,10.78"/></g></g></svg>