<?xml version="1.0" encoding="utf-8"?>
<!-- Generator: Adobe Illustrator 28.1.0, SVG Export Plug-In . SVG Version: 6.00 Build 0)  -->
<svg version="1.1" id="レイヤー_1" xmlns="http://www.w3.org/2000/svg" xmlns:xlink="http://www.w3.org/1999/xlink" x="0px"
	 y="0px" viewBox="0 0 260 162.8" style="enable-background:new 0 0 260 162.8;" xml:space="preserve">
<style type="text/css">
	.st0{opacity:0.4;fill:#231815;enable-background:new    ;}
	.st1{fill:#FFFFFF;}
	.st2{enable-background:new    ;}
</style>
<rect class="st0" width="260" height="162.8"/>
<g>
	<rect id="長方形_685" x="6.1" y="152.4" class="st1" width="248.1" height="0.9"/>
	<rect id="長方形_686" x="6.1" y="110.7" class="st1" width="248.1" height="0.9"/>
</g>
<g class="st2">
	<path class="st1" d="M26.9,17.2l0.7-0.5H28c2.1,2,2.4,2.3,2.4,2.7c0,0.3-0.2,0.5-1,1c-3.6,8.8-7.9,13.7-16.8,17.4
		c-0.4-0.9-1-1.7-1.8-2.4c8-3.2,12.5-7.5,15.5-15.5h-7.8c-1.6,2.5-3.7,4.9-6.7,7.4c-0.6-0.7-1.3-1.3-2.3-1.9
		C13.6,22,16.2,19,17.8,15C17,14.5,17,14.3,17,14.1c0-0.3,0.1-0.4,0.5-0.4c0.5,0,1.2,0.2,3.7,1.3c-0.4,0.9-0.7,1.5-1.1,2.2H26.9z"/>
	<path class="st1" d="M60.7,22.1c0,0.7-0.1,1.5-0.1,2.2c-0.3,7.6-6.7,12.3-15.2,13.3c-0.3-0.9-0.6-1.7-1.4-2.7
		c8.3-1,13.1-4.4,13.6-10.2H44.7L40,24.8v-2.9l4.7,0.1h11.2l4.6-0.1L60.7,22.1z M47.4,15.8h5.9l4.8-0.1v2.9l-4.8-0.1h-5.9l-4.8,0.1
		v-2.9L47.4,15.8z"/>
	<path class="st1" d="M90,17.2c0,0.7,0,1.4-0.1,2.1c-0.6,9.6-6,16.2-16,18.2c-0.4-0.9-0.9-1.8-1.6-2.7c9.2-1.6,13.8-7,14.4-15H75.4
		l-4.8,0.1V17l4.8,0.1h9.7l4.6-0.1L90,17.2z M88.9,13.2c1.8,1.4,3,2.6,4.3,4.5L91.7,19c-1.2-1.8-2.5-3.2-4.3-4.6L88.9,13.2z
		 M91.9,11.1c1.8,1.4,2.7,2.3,4.1,4.2l-1.4,1.2c-1.3-1.8-2.2-2.8-4.1-4.3L91.9,11.1z"/>
	<path class="st1" d="M114.7,18.3h3.9l4.5-0.1l0.2,0.1c0,1.7-0.1,3.1-0.1,4c-0.4,7.8-5.3,13.8-15.2,15.3c-0.4-1-0.9-1.8-1.6-2.7
		c9.5-1.2,13.7-6.1,13.7-13.6v-0.4h-13.6v2.2l0.1,3.9h-3.3l0.1-3.9v-1.6l-0.1-3.2l0.1-0.2l5.4,0.1h2.7v-3.4
		c-0.6-0.4-0.8-0.6-0.8-0.8c0-0.3,0.2-0.4,0.8-0.4c0.5,0,1.4,0.1,3.4,0.5l-0.3,1.7v2.5H114.7z"/>
	<path class="st1" d="M148.6,21.9c-1.6,1.8-3,2.9-4.4,3.9c0.3,0.1,0.8,0.2,1.1,0.3l-0.1,1.7v6.4l0.1,4h-2.9l0.1-4v-6.8l-0.2-0.1
		c-2.2,1.5-4.7,2.8-8.1,4.3c-0.4-0.7-0.9-1.3-1.7-1.9c6.8-2.9,11.4-6.1,14.4-9.9c-0.4-0.3-0.6-0.6-0.6-0.8c0-0.3,0.2-0.4,0.5-0.4
		c0.4,0,1,0.3,3.3,1.9L148.6,21.9z"/>
	<path class="st1" d="M162.6,16.5c2.9,1.2,5.6,2.5,8.4,4.2l-1.6,2.6c-2.6-1.7-5.5-3.3-8.3-4.4L162.6,16.5z M163,37
		c-0.9-2.3-1.3-3.3-1.3-3.6c0-0.3,0.1-0.5,0.4-0.5c0.2,0,0.5,0.1,1.1,0.7c9.1-2.7,14-7.4,17-15.5c0.8,0.9,1.5,1.5,2.4,2.1
		c-3.6,8.4-8.8,12.9-17.7,16.1L163,37z"/>
	<path class="st1" d="M209.3,16.8c2.2,2,2.3,2.1,2.3,2.5c0,0.3-0.2,0.5-0.9,1c-1.2,3.6-2.4,6.1-4.4,8.6c0.8,0.7,1.8,1.7,2.9,2.7
		l-2.1,2.1c-0.9-1-1.9-2-2.6-2.7c-3,3.2-5.9,5.2-11.2,7.2c-0.5-0.8-1.1-1.6-1.9-2.3c5.3-2,8-3.7,10.9-6.9c-1.5-1.4-2.6-2.3-4.4-3.4
		l1.7-2c1.8,1.2,2.9,2,4.5,3.4c1.6-2.2,2.6-4.4,3.5-7.1l-7.7,0.1c-2.4,3.5-4.1,5.4-7.4,7.9c-0.6-0.8-1.3-1.4-2.2-2
		c3.9-2.7,7.1-6.3,9.1-10.9c-0.6-0.4-0.8-0.6-0.8-0.9c0-0.3,0.1-0.3,0.6-0.3c0.4,0,1.2,0.2,3.6,1.3c-0.5,0.9-0.9,1.6-1.3,2.2
		l6.8-0.1l0.8-0.6h0.2L209.3,16.8L209.3,16.8z M210.4,13.2c1.8,1.4,3,2.6,4.3,4.5l-1.5,1.3c-1.2-1.8-2.5-3.2-4.3-4.6L210.4,13.2z
		 M213.4,11.1c1.8,1.4,2.7,2.3,4.1,4.2l-1.4,1.2c-1.3-1.8-2.2-2.8-4.1-4.3L213.4,11.1z"/>
	<path class="st1" d="M242.3,37.4c-0.6-1.3-1.2-2.4-1.9-3.6c-5.8,0.9-10.6,1.7-17.5,2.5l-0.2-0.1l-0.4-2.6l0.2-0.2
		c0.5,0,1.1-0.1,1.7-0.1c2.7-6,4.9-11.6,6.9-17.6c-0.7-0.5-0.9-0.8-0.9-1s0.1-0.3,0.6-0.3s1.4,0.3,3.9,1.1l-0.7,1.6
		c-2.4,6.5-4.4,11-6.5,15.7c3.7-0.4,7.7-0.9,11.5-1.5c-1-1.6-2.2-3.4-3.7-5.4l2.4-1.4c2.8,3.6,5.1,7.2,7.5,11.6L242.3,37.4z"/>
</g>
<g class="st2">
	<path class="st1" d="M41.4,72.1c2.6,0,2.8,0,3.6-1.4c1.3-2,1.3-2.1,1.9-2.1c1,0,6,3.7,6,4.2c0,0.7-1,0.7-2.7,0.7H33.4
		c-1.5,0-1.5,0.8-1.5,1.9c0,3.9,0.1,10,0.1,13.9c0,1,0.2,5.2,0.2,6c0,2.6-2.2,2.8-3.1,2.8c-1.5,0-1.6-1.2-1.6-1.7
		c0-1.2,0.4-11.5,0.4-13.6c0.1-1.6,0.1-5.4,0.1-7.2s-0.4-2.2-1.8-2.2H16c-4.5,0-5.9,0.1-6.4,0.2c-0.2,0-0.9,0.1-1.1,0.1
		c-0.2,0-0.3-0.1-0.5-0.4l-1-1.1c-0.2-0.3-0.3-0.3-0.3-0.4s0.1-0.1,0.2-0.1c0.4,0,1.9,0.2,2.2,0.2c2.5,0.1,4.6,0.2,7,0.2h10
		c1.5,0,1.6-0.4,1.6-3.9c0-0.9-0.1-7.9-0.1-8.2c-0.3-0.7-0.9-0.8-1.2-0.8c-0.5,0-12.2,0.6-14.5,0.6c-0.2,0-1-0.1-1-0.3
		c0-0.3,0.3-0.3,1-0.4c7.1-1.1,16.8-2.7,22.7-4.7c2.1-0.8,3-1.2,3.8-1.8c0.4-0.3,0.6-0.4,0.7-0.4c0.1,0,6.6,3.7,6.6,4.5
		c0,0.5-0.3,0.5-2.1,0.7c-1.7,0.2-10.1,0.9-10.9,1.1c-0.9,0.2-0.9,0.8-0.9,2.2c0,1.2,0,9.8,0.1,10.4c0.2,0.8,0.8,0.9,1.5,0.9
		L41.4,72.1C41.4,72,41.4,72.1,41.4,72.1z"/>
	<path class="st1" d="M75.8,94.1c-0.6,0-1.5,0-1.6,1.2s-0.2,2.6-2.9,2.6c-1.2,0-1.5-0.4-1.5-1.5c0-2.4,0.3-13.8,0.3-16.3
		c0-3.8-0.2-15.3-0.3-16.9c0-0.3-0.4-1.7-0.4-1.9c0-0.4,0.3-0.5,0.7-0.5c0.6,0,1.8,0.5,4,1.4c1.2,0.5,1.9,0.5,2.4,0.5h4
		c1.1,0,1.4-0.6,1.4-1.5c0-1.5-0.3-5.9-0.6-7.4c-0.1-0.3-0.6-1.7-0.6-1.9c0-0.4,0.3-0.5,0.5-0.5c0.4,0,3,0.8,3.5,1
		c1.9,0.7,2.1,0.7,2.1,1.3c0,0.3-0.2,0.6-0.7,1s-0.6,0.6-0.6,1.1c0,0.7,0.1,4,0.1,4.8c0,1.1,0,2,1.5,2H92c1.5,0,1.5-0.1,1.5-5.3
		c0-1.8-0.1-3.2-0.2-4.1C93.2,53,93,51.9,93,51.7s0.1-0.4,0.6-0.4c0.8,0,2.1,0.6,3.4,1.1c1.5,0.7,1.7,0.7,1.7,1.3
		c0,0.3-1,1.2-1.1,1.4c-0.3,0.7-0.3,5.2-0.3,6c0,1.4,0.9,1.4,1.6,1.4h4.4c0.9,0,1.2-0.2,1.5-0.4s1.3-1.7,1.7-1.7
		c0.4,0,4.4,2.5,4.4,3.3c0,0.3-0.2,0.5-0.5,0.8c-0.1,0.1-1.1,0.9-1.1,1c-0.2,0.3-0.2,9.3-0.2,10.5c0,1.1,0.5,15.9,0.5,18.9
		c0,1.7-1.2,2.6-2.8,2.6c-1.5,0-1.5-0.7-1.6-2.2c0-1.2-1-1.2-1.5-1.2H75.8z M75.7,78.9c-1.7,0-1.7,0.7-1.7,1.8
		c0,0.5,0.2,10.9,0.2,11c0.2,0.7,0.7,0.9,1.6,0.9h4.7c0.4,0,1.5,0,1.5-1.2V80.3c0-0.6-0.2-1.3-1.5-1.3L75.7,78.9L75.7,78.9z
		 M75.7,63.9c-0.5,0-1.2,0-1.5,0.9c-0.1,0.4-0.1,5-0.1,5.9c0,0.7,0,5.7,0.1,6.1c0.3,0.8,1.1,0.8,1.4,0.8h4.7c0.5,0,1.2,0,1.5-0.8
		c0.1-0.4,0.1-5.1,0.1-5.8c0-0.8,0-6-0.3-6.4C81.3,64,80.7,64,80.2,64L75.7,63.9L75.7,63.9z M87.3,63.9c-1.6,0-1.6,0.8-1.6,2.4
		c0,0.8,0,10,0.1,10.4c0.2,0.6,0.6,0.8,1.4,0.8H92c0.7,0,1.3-0.2,1.5-0.8c0.1-0.4,0.1-5.2,0.1-6c0-0.9,0-5.9-0.2-6.3
		c-0.3-0.6-1-0.6-1.3-0.6L87.3,63.9L87.3,63.9z M87.3,78.9c-1.5,0-1.5,0.4-1.5,4.6c0,2.3,0.1,7.8,0.2,8.3s0.5,0.9,1.4,0.9H92
		c0.8,0,1.1-0.2,1.3-0.6c0.2-0.4,0.2-7.4,0.2-8.4c0-4.4,0-4.7-1.5-4.7h-4.7V78.9z M98.9,63.9c-0.5,0-1.2,0-1.5,0.9
		c-0.1,0.3-0.1,9.4-0.1,10.9c0,1,0,1.9,1.5,1.9h5.1c0.4,0,1.2,0,1.4-0.9c0.1-0.3,0.1-5,0.1-5.7c0-0.8,0-6.1-0.3-6.5
		c-0.4-0.6-1-0.6-1.3-0.6C103.8,63.9,98.9,63.9,98.9,63.9z M98.9,78.9c-0.4,0-1.2,0-1.4,0.9c-0.1,0.2-0.1,9.8-0.1,11.4
		c0,0.5,0,1.5,1.5,1.5h5.2c0.7,0,1.2-0.1,1.4-0.9c0.1-0.3,0.1-10.2,0.1-11.4c0-0.5,0-1.5-1.5-1.5H98.9z"/>
	<path class="st1" d="M135.1,81.3c-1.5,0-1.5,0.7-1.5,1.7s-0.1,5.4,0,6.2c0,0.5,0.3,1.1,0.9,1.1c0.6,0,4-1.4,4.9-1.8
		c0.5-0.2,1-0.4,1-0.9c0-0.6-2.4-3-2.4-3.2s0.2-0.2,0.3-0.2c0.3,0,9.7,3.3,9.7,9.8c0,1.7-1.2,1.9-1.5,1.9c-1,0-1.6-1-2.3-2.5
		c-0.6-1.2-1.3-2.5-2-3.6c-0.3-0.4-0.5-0.6-1-0.6c-0.6,0-7.6,4.1-9.8,5.9c-1.3,1.1-1.7,1.8-1.9,2.1c-0.5,0.9-0.5,0.9-0.8,0.9
		c-1.2,0-2.4-4.8-2.4-5.1c0-0.6,0.5-0.6,0.6-0.6c3.3,0,3.7-0.7,3.7-2.6c0-16.8,0-18.7-0.1-20.4c-0.1-0.6-0.2-3-0.8-3
		s-3.7,3.3-4.2,3.3c-0.1,0-0.2,0-0.2-0.1s2.3-3.4,2.7-4c4-6.3,6.9-11.9,7.2-13.1c0.3-1.1,0.3-1.1,0.7-1.1c0.3,0,4.1,1.6,4.1,2.7
		c0,0.2-0.3,0.6-0.3,0.7s0.8,0.5,1,0.6c1.2,0.5,4.7,2.2,4.7,4.9c0,0.9-0.3,2-1.5,2c-1.7,0-2.4-1.5-3.6-4.3c-0.2-0.3-0.9-2-1.7-2
		c-0.4,0-0.7,0.3-1.1,0.8c-1.9,2.5-5.3,6.7-5.8,7.3c-0.4,0.4-0.5,0.6-0.5,0.8c0,0.5,2.4,2,3.8,2c1.2,0,1.2-0.5,1.2-1.5
		c0-2.1,0-2.5-0.2-3.7c-0.1-0.2-0.4-1.2-0.4-1.4c0-0.1,0.1-0.3,0.5-0.3s4.3,0.6,4.3,1.8c0,0.3,0,0.3-0.4,0.6c-0.5,0.4-0.5,1-0.5,1.7
		c0,2.6,0,2.8,1.2,2.8c0.4,0,0.8-0.1,1.4-0.8c0.5-0.6,0.8-0.9,1.2-0.9c0.5,0,3.6,1.6,3.6,2.6c0,0.4-0.3,0.6-0.8,0.8
		c-0.7,0.4-0.9,0.7-0.9,2.8c0,1.4,0.1,7.6,0.1,8.8c0,1.1-0.4,2.4-2.1,2.4c-0.3,0-0.9-0.1-1.2-0.7c-0.2-0.6-0.3-0.8-1.4-0.8h-5.5
		L135.1,81.3L135.1,81.3z M140.7,73.5c1.4,0,1.4-0.7,1.4-1.9c0-2.9,0-3.2-1.4-3.2h-5.6c-1.4,0-1.4,0.7-1.4,1.9c0,2.9,0,3.2,1.4,3.2
		H140.7z M140.6,80c1.5,0,1.5-0.4,1.5-2.5c0-2.2,0-2.7-1.5-2.7h-5.5c-1.5,0-1.5,0.4-1.5,2.5c0,2.3,0,2.7,1.5,2.7H140.6z M152,61.1
		c-1.2,0-1.3,0.3-1.5,1.4c-0.7,3.6-3.4,3.9-3.9,3.9c-1.3,0-1.5-1.2-1.5-1.5c0-0.7,0.3-1,0.9-1.6c1.6-1.5,2.5-3.4,2.5-4.8
		c0-0.2-0.1-0.7-0.1-0.8s0-0.3,0.2-0.3c0.3,0,0.9,0.9,1.2,1.3c0.7,1.1,1.2,1.1,2,1.1h3.7c1.5,0,1.5-1.1,1.5-1.8c0-1.6,0-3.8-0.3-4.9
		c-0.1-0.2-0.5-1-0.5-1.2c0-0.3,0.3-0.4,0.5-0.4c0.5,0,6.1,1,6.1,2.3c0,0.4-0.3,0.6-1.4,1.3c-0.6,0.4-0.7,0.8-0.7,3
		c0,1.6,0.7,1.7,1.6,1.7h3.8c0.6,0,0.9,0,1.6-0.4c0.3-0.2,1.3-0.9,1.5-0.9c0.6,0,4.1,2.3,4.1,3.4c0,0.7-0.2,0.7-2.1,0.9
		c-1.3,0.2-1.6,0.4-4.1,2.1c-0.4,0.3-0.7,0.5-0.9,0.5c-0.1,0-0.1-0.1-0.1-0.1c0-0.3,0.8-2.9,0.8-3.4c0-0.8-0.7-0.8-1.4-0.8H152z
		 M163.8,83.8c0.8,0,1.3-0.1,1.8-0.7c0.7-1,0.8-1.1,1.2-1.1c0.7,0,3.7,2.1,3.7,3.1c0,0.4-0.1,0.4-0.9,1c-0.3,0.3-0.3,1.1-0.3,1.4
		c0,1,0.3,5.9,0.3,6.5c0,1.2-0.5,2.8-2.4,2.8c-1,0-1.2-0.6-1.5-1.3c-0.3-0.7-0.9-0.7-1.4-0.7h-8.4c-1,0-1.4,0.2-1.6,1.1
		c-0.1,0.8-0.4,2.4-2.5,2.4c-1.7,0-1.7-1.6-1.7-2.8c0-2,0.3-11.8,0.3-14c0-2.7,0-8.1-0.3-11c-0.1-0.5-0.6-2.9-0.6-3.4
		c0-0.3,0.2-0.5,0.5-0.5c0.5,0,0.7,0.1,2.7,0.9c1.2,0.5,1.9,0.5,2.5,0.5h6.1c0.5,0,1.1,0,1.6-0.4c0.3-0.2,1.2-1.2,1.5-1.2
		c0.7,0,3.4,1.4,3.4,2.3c0,0.3-0.2,0.5-0.9,1.1c-0.3,0.3-0.4,0.6-0.4,1.3c0,0.9,0.1,5.2,0.1,5.8c0,0.8,0,2.2-2.2,2.2
		c-1.3,0-1.5-0.6-1.6-1.3c-0.2-0.9-1-0.9-1.4-0.9h-5.9c-0.6,0-1.4,0-1.6,0.9v3.5c0,1.7,0,2.3,1.6,2.3h8.3L163.8,83.8L163.8,83.8z
		 M161.5,75.7c1.7,0,1.7-0.4,1.7-2.8c0-3.2,0-3.5-1.7-3.5h-5.9c-1.7,0-1.7,0.4-1.7,2.8c0,3.2,0,3.5,1.7,3.5H161.5z M164,93.6
		c1.7,0,1.7,0,1.7-6.1c0-1.7-0.1-2.3-1.6-2.3h-8.5c-0.9,0-1.7,0-1.7,1.6c0,6.8,0.2,6.8,1.8,6.8H164z"/>
</g>
<g class="st2">
	<path class="st1" d="M215.4,80.1c1,0,1.5,0,2-0.4c0.2-0.2,1-1.2,1.2-1.2c0.3,0,2.4,1.7,2.4,2s-0.7,0.3-1.6,0.3h-11.3
		c-0.3,0-0.5,0.1-0.5,0.3c0,0.5,2.4,4.3,3,4.3c0.4,0,3-2.4,3.4-3.5c0.2-0.5,0.3-0.8,0.5-0.8s2.6,1.5,2.7,1.8V83
		c0,0.3-0.1,0.3-1.1,0.4c-0.8,0.1-2.9,1.3-4,2c-0.7,0.5-0.8,0.5-0.8,0.7c0,0.3,3.7,3.8,8.7,4.5c0.4,0.1,0.5,0.1,0.5,0.2
		s-0.2,0.2-0.5,0.3c-0.7,0.3-1.2,0.7-1.9,1.2c-0.1,0.1-0.5,0.4-0.6,0.4c-0.2,0-3.4-1.4-5.8-3.7c-0.9-0.9-1-1-1.3-1
		c-0.2,0-2.2,0.7-3.4,1.1c-1.4,0.5-8.2,2.7-8.6,2.9c-0.1,0.1-0.5,0.5-0.7,0.6c-0.1,0-0.1,0-0.2,0c-0.3,0-0.4-0.1-1.1-1.4
		c-0.1-0.1-0.5-0.8-0.5-1c-0.1-0.1-0.1-0.3-0.1-0.4c0-0.3,0.4-0.3,0.7-0.3c1.5,0,1.9,0,3.1-0.2c0.5-0.1,0.5-0.3,0.5-1
		c0-1.1,0-5.6,0-6.6s-0.2-1.2-1-1.2c-0.7,0-2.2,0.1-2.8,0.1c-0.1,0-0.3,0-0.4,0c-0.1,0-0.2-0.1-0.3-0.2l-0.6-0.7
		c-0.1-0.1-0.1-0.1-0.1-0.2c0,0,0-0.1,0.1-0.1c0.6,0,3.7,0.2,4.3,0.2c1,0,1-0.3,1-1.1c0-5.7,0-6.3-0.1-7.4c0-0.5-0.3-3-0.3-3.1
		s0-0.2,0.2-0.2s1.6,0.6,1.9,0.7c0.8,0.4,1.2,0.4,1.6,0.4h7.8c1.3,0,1.4,0,1.8-0.5c0.8-0.9,0.9-1.1,1.2-1.1c0.2,0,2.7,1.6,2.7,1.9
		c0,0.4-0.6,0.4-1.5,0.4h-12.3c-0.9,0-1,0.3-1,1.1c0,1.3,0,1.6,0.8,1.6h6.6c1.2,0,1.4,0,1.6-0.2c0.7,0.3,1.5-0.7,1.7-0.7
		c0.4,0,2.4,1.5,2.4,1.8s-0.7,0.3-1.5,0.3h-10.2c-0.8,0-0.8,0.5-0.8,1.1c0,1.5,0,1.8,0.9,1.8h6.7c1.2,0,1.3,0,1.6-0.2
		c0.2-0.2,0.9-1.1,1.2-1.1c0.4,0,2.4,1.5,2.4,1.8s-0.7,0.3-1.5,0.3h-10.3c-0.8,0-0.9,0.4-0.9,1.1c0,1.4,0,1.8,0.9,1.8L215.4,80.1
		L215.4,80.1z M203.3,80.8c-0.3,0-0.7,0-0.8,0.5c0,0.1,0,1.8,0,2.2c0,1.4,0,3.5,0.1,4.9c0,0.4,0,0.7,0.5,0.7c0.4,0,4.6-1,5.7-1.3
		c1.2-0.3,1.4-0.4,1.4-0.7c0-0.1-0.1-0.1-0.5-0.8c-0.7-1.2-1.6-3.1-2-4.1c-0.5-1.2-0.6-1.3-1.2-1.3L203.3,80.8L203.3,80.8z"/>
	<path class="st1" d="M233.8,85.6c-0.5,0-1.1,0-1.1,0.8v2.7c0,0.5,0,0.7,0.4,0.7c0.7,0,5-0.8,5.5-0.8c0.1,0,0.3,0,0.3,0.1
		c0,0.2-2.2,1.1-2.7,1.2c-1.3,0.4-8.1,2.2-8.3,2.4c-0.1,0.1-0.8,0.7-1,0.7s-0.3-0.1-0.3-0.3c-0.5-1-1.3-2.4-1.3-2.6
		c0-0.1,1.7-0.1,2-0.1s3.1-0.1,3.5-0.5c0.2-0.3,0.2-2.9,0.2-3.4c0-0.9-0.4-0.9-1.2-0.9c-1.2,0-2.2,0.1-2.4,0.1
		c-0.1,0-0.5,0.1-0.6,0.1s-0.2-0.1-0.3-0.2L226,85c-0.1-0.1-0.1-0.2-0.1-0.2c0-0.1,0.1-0.1,0.1-0.1c0.1,0,0.9,0.1,1,0.1
		c0.3,0,2.4,0.1,2.9,0.1c0.9,0,1.1-0.1,1.1-1c0-0.2,0-3,0-3.1c0-0.7-0.5-0.7-0.9-0.7h-0.7c-0.5,0-0.7,0-0.9,0.4
		c-0.3,0.7-0.8,1-1.3,1c-0.6,0-0.6-0.7-0.6-0.9c0-0.9,0.1-5.4,0.1-6.4c0-2.3,0-2.6-0.1-4.8c0-0.1,0-0.7,0-0.9c0-0.2,0-0.3,0.2-0.3
		c0.3,0,1,0.5,1.4,0.7c0.7,0.4,0.7,0.4,1.1,0.4h5.4c0.4,0,0.5-0.1,0.9-0.4c0.2-0.2,0.5-0.5,0.8-0.5s1.8,1.2,1.8,1.6
		c0,0.3-0.1,0.3-0.7,0.9c-0.1,0.1-0.2,0.2-0.2,1.4c0,1.1,0.1,6.3,0.1,7.5c0,1-0.7,1.3-1.4,1.3c-0.4,0-0.5-0.2-0.6-0.6
		s-0.5-0.4-1-0.4h-0.6c-0.3,0-0.7,0-0.8,0.3s-0.1,3.2-0.1,3.7c0,0.4,0,0.8,0.7,0.8c0.6,0,1.1,0,1.4-0.5c0.4-0.7,0.5-0.9,0.8-0.9
		c0.4,0,2.2,1.4,2.2,1.8c0,0.3-0.1,0.3-1.5,0.3H233.8z M230.2,74.2c0.9,0,1-0.1,1-1.2v-2.3c0-0.6-0.3-0.7-1-0.7h-0.8
		c-0.5,0-0.9,0-1,0.5c0,0.2,0,2,0,2.4c0,1.2,0,1.4,1,1.4h0.8V74.2z M230.2,79.3c0.3,0,0.7,0,0.9-0.3c0.1-0.3,0.1-2.7,0.1-3.1
		c0-0.7-0.2-0.9-1-0.9h-0.7c-0.7,0-1,0-1,0.8s0,2,0,2.7s0.2,0.8,0.9,0.8H230.2z M233.8,75c-0.6,0-1,0-1,0.8v2.7c0,0.8,0.4,0.8,1,0.8
		h0.5c0.5,0,0.9,0,0.9-0.5c0-0.1,0-2,0-3c0-0.8-0.4-0.8-1-0.8H233.8z M233.8,70c-0.6,0-0.9,0-0.9,0.8v2.6c0,0.8,0.3,0.8,0.9,0.8h0.5
		c0.6,0,0.9,0,0.9-0.8v-2.7c0-0.8-0.3-0.8-0.9-0.8L233.8,70L233.8,70z M245.9,77.9c-0.9,0-1,0.2-1,1c0,0.9-0.1,5.6-0.1,6.7
		c0,0.3,0,4.3,0,5.2c0,1.4-0.1,1.8-0.7,2.2c-0.6,0.3-0.9,0.4-1.7,0.4c-0.2,0-0.3-0.1-0.3-0.2c-0.3-0.6-0.6-1-1.1-1.4
		c-0.2-0.1-1.5-0.7-1.5-0.9c0-0.1,0.1-0.1,0.2-0.1c0.1,0,0.7,0.1,0.8,0.1c0.4,0,0.9,0.1,1.3,0.1c1.2,0,1.2-0.3,1.2-0.9
		c0-0.7,0-9.9,0-11.3c0-0.5-0.1-0.9-0.9-0.9c-0.8,0-2.2,0-2.9,0.1c-0.1,0-0.5,0.1-0.6,0.1s-0.2-0.1-0.3-0.2l-0.5-0.7
		c-0.1-0.1-0.1-0.1-0.1-0.2s0.1-0.1,0.1-0.1c0.2,0,1.1,0.1,1.3,0.1c0.8,0,2.3,0.1,3.9,0.1h4.3c0.5,0,0.6-0.1,0.9-0.4
		c0.4-0.4,0.4-0.5,0.6-0.5c0.6,0,2.4,1.9,2.4,2.2c0,0.3-0.3,0.4-0.5,0.4c-0.7,0.1-0.9,0.1-1.8,0.7c-0.4,0.3-2,1.6-2.2,1.6
		c-0.1,0-0.1-0.1-0.1-0.1c0-0.3,1.3-2.7,1.3-3.1c0-0.2-0.2-0.2-0.4-0.2h-1.6L245.9,77.9L245.9,77.9z M245.8,69.2c0.5,0,0.7,0,1-0.3
		c0.6-0.8,0.7-0.9,1-0.9s2.7,1.7,2.7,2.2c0,0.3-0.2,0.3-0.9,0.3c-1.3,0-1.8,0.4-4.7,2.6c-0.1,0.1-0.3,0.2-0.3,0.3
		c0,0.1,0.3,0.6,0.4,0.7c0.1,0.2,0.3,0.6,0.3,0.9c0,0.6-0.5,1.3-1,1.3c-0.4,0-0.7-0.5-0.9-0.9c-0.4-0.8-0.8-1.4-1.5-2.2
		c-0.2-0.1-1-0.9-1-1s0.1-0.1,0.2-0.1c0.2,0,1.1,0.1,1.8,0.3c0.3,0.1,1.2,0.5,1.4,0.5c0.5,0,2-2.7,2-3c0-0.2-0.2-0.3-0.5-0.3h-2.1
		c-0.8,0-2.2,0-3.4,0.1c-0.1,0-0.8,0.1-0.8,0.1c-0.1,0-0.2-0.1-0.3-0.2l-0.5-0.7c-0.1-0.1-0.1-0.1-0.1-0.2c0-0.1,0.1-0.1,0.1-0.1
		c0.2,0,1.1,0.1,1.3,0.1c0.8,0.1,2.3,0.1,3.9,0.1h1.9L245.8,69.2L245.8,69.2z"/>
</g>
<g class="st2">
	<path class="st1" d="M39.3,124.3c-1,0-2,0.2-2.8,0.5c-0.9,0.3-1.6,0.9-2.2,1.5s-1.1,1.4-1.5,2.4c-0.3,0.9-0.5,2-0.5,3.1
		c0,1.2,0.2,2.2,0.6,3.1c0.4,0.9,0.9,1.7,1.6,2.4s1.4,1.2,2.3,1.5c0.9,0.3,1.8,0.5,2.9,0.5c0.4,0,0.7,0,1.1-0.1
		c0.4-0.1,0.7-0.2,1-0.3s0.6-0.2,0.9-0.4c0.3-0.1,0.5-0.3,0.7-0.4v-5.7h-3.1v-1h5.4v7.3c-0.5,0.2-0.9,0.5-1.4,0.6
		c-0.5,0.2-1,0.3-1.5,0.5c-0.5,0.1-1.1,0.2-1.8,0.3s-1.4,0.1-2.2,0.1c-0.9,0-1.7-0.1-2.5-0.3s-1.5-0.5-2.2-0.9s-1.3-0.8-1.8-1.3
		s-1-1.1-1.4-1.7c-0.4-0.6-0.7-1.3-0.9-2c-0.2-0.7-0.3-1.5-0.3-2.2c0-0.8,0.1-1.5,0.3-2.2c0.2-0.7,0.5-1.4,0.8-2.1
		c0.4-0.6,0.8-1.2,1.3-1.8c0.5-0.5,1.1-1,1.8-1.4s1.4-0.7,2.2-0.9c0.8-0.2,1.6-0.3,2.5-0.3c0.8,0,1.6,0.1,2.3,0.4s1.4,0.5,2,0.9
		s1.1,0.8,1.6,1.4c0.5,0.5,0.9,1,1.2,1.6l-1,0.7c-0.3-0.6-0.7-1.2-1.1-1.7c-0.4-0.5-0.9-0.9-1.3-1.2c-0.5-0.3-0.9-0.5-1.4-0.7
		C40.1,124.4,39.7,124.3,39.3,124.3z"/>
	<path class="st1" d="M53.2,123.5h5.4c0.9,0,1.8,0.1,2.5,0.3c0.7,0.2,1.3,0.5,1.8,0.9s0.8,0.8,1.1,1.4c0.2,0.5,0.4,1.1,0.4,1.7
		c0,0.5-0.1,1-0.3,1.5c-0.2,0.4-0.5,0.9-0.8,1.2c-0.3,0.4-0.8,0.7-1.2,0.9c-0.5,0.3-1,0.5-1.6,0.6l6,7.9h-2.8l-5.7-7.7h-2.4v7.7
		h-2.3L53.2,123.5L53.2,123.5z M55.5,131.4h1.8c0.6,0,1.3-0.1,1.8-0.2c0.6-0.2,1-0.4,1.4-0.7c0.4-0.3,0.7-0.7,0.9-1.1
		c0.2-0.4,0.3-0.9,0.3-1.4c0-0.5-0.1-0.9-0.3-1.4c-0.2-0.4-0.4-0.8-0.8-1.1c-0.3-0.3-0.7-0.5-1.2-0.7s-1-0.2-1.5-0.2h-2.7v6.8
		L55.5,131.4L55.5,131.4z"/>
	<path class="st1" d="M77.9,123.2l7.7,16.7h-2.4l-2.5-5.5h-7.2l-2.6,5.5h-1.2l7.8-16.7H77.9z M74,133.4h6.2l-3.1-6.7L74,133.4z"/>
	<path class="st1" d="M91.1,123.5h1.4l11,12.3v-12.3h1.2v16.7h-0.6l-11.7-13.5v13.1h-1.2v-16.3C91.2,123.5,91.1,123.5,91.1,123.5z"
		/>
	<path class="st1" d="M112.4,123.5h5.2c1.4,0,2.7,0.2,3.9,0.5s2.3,0.8,3.1,1.5c0.9,0.7,1.6,1.5,2.1,2.5s0.7,2.2,0.7,3.6
		c0,1.2-0.2,2.2-0.6,3.2s-1,1.9-1.8,2.6c-0.8,0.8-1.8,1.3-2.9,1.8c-1.1,0.4-2.5,0.7-3.9,0.7h-5.9v-16.4H112.4z M114.7,138.7h3.2
		c1,0,1.9-0.2,2.7-0.5s1.6-0.8,2.2-1.4c0.6-0.6,1.1-1.3,1.5-2.2c0.4-0.9,0.5-1.9,0.5-3c0-1-0.2-1.9-0.5-2.8
		c-0.3-0.8-0.8-1.6-1.4-2.2s-1.3-1.1-2.2-1.4c-0.8-0.3-1.8-0.5-2.8-0.5h-3.2C114.7,124.7,114.7,138.7,114.7,138.7z"/>
	<path class="st1" d="M156.8,140.3c-1.2,0-2.4-0.2-3.5-0.7s-2-1.1-2.8-1.9c-0.8-0.8-1.4-1.7-1.9-2.8c-0.5-1-0.7-2.2-0.7-3.4
		c0-1.2,0.2-2.3,0.7-3.3s1.1-1.9,1.9-2.7s1.7-1.4,2.8-1.8s2.2-0.7,3.5-0.7s2.4,0.2,3.5,0.7c1.1,0.4,2,1,2.8,1.8s1.4,1.7,1.9,2.7
		s0.7,2.1,0.7,3.3s-0.2,2.3-0.7,3.4c-0.5,1-1.1,2-1.9,2.8c-0.8,0.8-1.7,1.4-2.8,1.9S158,140.3,156.8,140.3z M156.8,139.5
		c1,0,1.8-0.2,2.6-0.6s1.4-0.9,1.9-1.6c0.5-0.7,0.9-1.5,1.2-2.5s0.4-2,0.4-3.1c0-1.1-0.1-2.2-0.4-3.1c-0.3-0.9-0.7-1.7-1.2-2.4
		c-0.5-0.7-1.1-1.2-1.9-1.6c-0.8-0.4-1.6-0.6-2.6-0.6s-1.9,0.2-2.6,0.6c-0.8,0.4-1.4,0.9-1.9,1.6s-0.9,1.5-1.1,2.4
		c-0.3,0.9-0.4,2-0.4,3.1c0,1.1,0.1,2.2,0.4,3.1c0.3,1,0.6,1.8,1.1,2.5s1.1,1.2,1.9,1.6C155,139.3,155.8,139.5,156.8,139.5z"/>
	<path class="st1" d="M172.8,123.5h4.9c0.8,0,1.6,0.1,2.3,0.3c0.7,0.2,1.3,0.5,1.9,0.9c0.5,0.4,0.9,0.9,1.3,1.5
		c0.3,0.6,0.5,1.2,0.5,2c0,0.7-0.2,1.4-0.5,2c-0.3,0.6-0.7,1.1-1.2,1.4s-1,0.7-1.7,0.9c-0.6,0.2-1.2,0.3-1.9,0.3c-0.3,0-0.6,0-0.9,0
		s-0.6-0.1-0.9-0.1c-0.3,0-0.6-0.1-0.9-0.1c-0.3-0.1-0.5-0.1-0.8-0.2v7.6h-2.3v-16.5L172.8,123.5L172.8,123.5z M175,131.3
		c0.4,0.1,0.8,0.3,1.2,0.4c0.4,0.1,0.8,0.1,1.2,0.1c0.6,0,1.2-0.1,1.7-0.3c0.5-0.2,0.9-0.4,1.2-0.7s0.6-0.7,0.7-1.1
		c0.2-0.4,0.2-0.9,0.2-1.3c0-0.6-0.1-1-0.3-1.5c-0.2-0.4-0.5-0.8-0.8-1.1c-0.4-0.3-0.8-0.6-1.2-0.7c-0.5-0.2-1-0.3-1.5-0.3h-2.2v6.5
		H175z"/>
	<path class="st1" d="M201.3,123.5v1.1h-8.6v5.9h5.8v1.1h-5.8v7.3h8.6v1.1h-10.9v-16.4h10.9V123.5z"/>
	<path class="st1" d="M207.7,123.5h1.4l11,12.3v-12.3h1.2v16.7h-0.6L209,126.7v13.1h-1.3V123.5z"/>
</g>
</svg>
