<svg xmlns="http://www.w3.org/2000/svg" xmlns:xlink="http://www.w3.org/1999/xlink" width="470.287" height="256.097" viewBox="0 0 470.287 256.097">
  <defs>
    <clipPath id="clip-path">
      <path id="パス_22402" data-name="パス 22402" d="M59.152,465.068V483.41a45.657,45.657,0,1,0,0-18.342" transform="translate(-59.152 -428.582)" fill="none"/>
    </clipPath>
  </defs>
  <g id="deco02" opacity="0.399">
    <g id="グループ_1004" data-name="グループ 1004" transform="translate(119.735 64.934)">
      <path id="パス_22357" data-name="パス 22357" d="M111.767,414.037a6.564,6.564,0,1,0,6.563-6.563,6.564,6.564,0,0,0-6.563,6.563" transform="translate(-111.767 -407.474)" fill="#45a748"/>
      <path id="パス_22358" data-name="パス 22358" d="M124.475,426.2a12.957,12.957,0,1,0,12.955-12.955A12.954,12.954,0,0,0,124.475,426.2" transform="translate(-95.556 -400.115)" fill="#1b9540"/>
      <path id="パス_22359" data-name="パス 22359" d="M166.277,413.243a36.107,36.107,0,1,1-28.146,58.726q-1.707-2.874-3.684-5.557a36.227,36.227,0,0,1-2.795-27.34,12.973,12.973,0,0,0,10.839-16.888,35.97,35.97,0,0,1,23.785-8.941" transform="translate(-88.292 -400.115)" fill="#b6c836"/>
      <path id="パス_22360" data-name="パス 22360" d="M141.658,417.172a12.966,12.966,0,0,1-10.837,16.888,36.107,36.107,0,0,1,10.837-16.888" transform="translate(-87.46 -395.102)" fill="#00893d"/>
    </g>
    <g id="グループ_1006" data-name="グループ 1006" transform="translate(0 112.97)">
      <g id="グループ_1005" data-name="グループ 1005" clip-path="url(#clip-path)">
        <path id="パス_22361" data-name="パス 22361" d="M87.228,430.442a2.024,2.024,0,1,1-2.025,2.023,2.025,2.025,0,0,1,2.025-2.023" transform="translate(-25.919 -426.209)" fill="#e6efe2"/>
        <path id="パス_22362" data-name="パス 22362" d="M82.372,430.442a2.024,2.024,0,1,1-2.025,2.023,2.025,2.025,0,0,1,2.025-2.023" transform="translate(-32.114 -426.209)" fill="#e6efe2"/>
        <path id="パス_22363" data-name="パス 22363" d="M77.516,430.442a2.024,2.024,0,1,1-2.025,2.023,2.025,2.025,0,0,1,2.025-2.023" transform="translate(-38.309 -426.209)" fill="#e6efe2"/>
        <path id="パス_22364" data-name="パス 22364" d="M72.659,430.442a2.024,2.024,0,1,1-2.025,2.023,2.025,2.025,0,0,1,2.025-2.023" transform="translate(-44.505 -426.209)" fill="#e6efe2"/>
        <path id="パス_22365" data-name="パス 22365" d="M87.228,434.29a2.005,2.005,0,0,1,.833.18q-1.3,1.444-2.517,2.965a2,2,0,0,1-.341-1.12,2.027,2.027,0,0,1,2.025-2.025" transform="translate(-25.919 -421.3)" fill="#e6efe2"/>
        <path id="パス_22366" data-name="パス 22366" d="M82.372,434.29a2.024,2.024,0,1,1-2.025,2.025,2.027,2.027,0,0,1,2.025-2.025" transform="translate(-32.114 -421.3)" fill="#e6efe2"/>
        <path id="パス_22367" data-name="パス 22367" d="M77.516,434.29a2.024,2.024,0,1,1-2.025,2.025,2.027,2.027,0,0,1,2.025-2.025" transform="translate(-38.309 -421.3)" fill="#e6efe2"/>
        <path id="パス_22368" data-name="パス 22368" d="M72.659,434.29a2.024,2.024,0,1,1-2.025,2.025,2.027,2.027,0,0,1,2.025-2.025" transform="translate(-44.505 -421.3)" fill="#e6efe2"/>
        <path id="パス_22369" data-name="パス 22369" d="M67.8,434.29a2.024,2.024,0,1,1-2.025,2.025A2.023,2.023,0,0,1,67.8,434.29" transform="translate(-50.699 -421.3)" fill="#e6efe2"/>
        <path id="パス_22370" data-name="パス 22370" d="M82.372,438.137a2.024,2.024,0,1,1-2.025,2.025,2.025,2.025,0,0,1,2.025-2.025" transform="translate(-32.114 -416.393)" fill="#e6efe2"/>
        <path id="パス_22371" data-name="パス 22371" d="M77.516,438.137a2.024,2.024,0,1,1-2.025,2.025,2.025,2.025,0,0,1,2.025-2.025" transform="translate(-38.309 -416.393)" fill="#e6efe2"/>
        <path id="パス_22372" data-name="パス 22372" d="M72.659,438.137a2.024,2.024,0,1,1-2.025,2.025,2.025,2.025,0,0,1,2.025-2.025" transform="translate(-44.505 -416.393)" fill="#e6efe2"/>
        <path id="パス_22373" data-name="パス 22373" d="M67.8,438.137a2.024,2.024,0,1,1-2.025,2.025,2.022,2.022,0,0,1,2.025-2.025" transform="translate(-50.699 -416.393)" fill="#e6efe2"/>
        <path id="パス_22374" data-name="パス 22374" d="M62.844,438.137A2.024,2.024,0,1,1,61,441c.505-.969,1.045-1.923,1.616-2.851.075-.007.15-.011.228-.011" transform="translate(-56.793 -416.393)" fill="#e6efe2"/>
        <path id="パス_22375" data-name="パス 22375" d="M82.372,441.985a2.037,2.037,0,0,1,.544.073q-.819,1.833-1.534,3.718a2.025,2.025,0,0,1,.99-3.791" transform="translate(-32.114 -411.484)" fill="#e6efe2"/>
        <path id="パス_22376" data-name="パス 22376" d="M77.516,441.985a2.024,2.024,0,1,1-2.025,2.025,2.025,2.025,0,0,1,2.025-2.025" transform="translate(-38.309 -411.484)" fill="#e6efe2"/>
        <path id="パス_22377" data-name="パス 22377" d="M72.659,441.985a2.024,2.024,0,1,1-2.025,2.025,2.025,2.025,0,0,1,2.025-2.025" transform="translate(-44.505 -411.484)" fill="#e6efe2"/>
        <path id="パス_22378" data-name="パス 22378" d="M67.8,441.985a2.024,2.024,0,1,1-2.025,2.025,2.022,2.022,0,0,1,2.025-2.025" transform="translate(-50.699 -411.484)" fill="#e6efe2"/>
        <path id="パス_22379" data-name="パス 22379" d="M62.946,441.985a2.024,2.024,0,1,1-2.025,2.025,2.022,2.022,0,0,1,2.025-2.025" transform="translate(-56.895 -411.484)" fill="#e6efe2"/>
        <path id="パス_22380" data-name="パス 22380" d="M77.516,445.833a2.023,2.023,0,1,1-2.025,2.021,2.023,2.023,0,0,1,2.025-2.021" transform="translate(-38.309 -406.575)" fill="#e6efe2"/>
        <path id="パス_22381" data-name="パス 22381" d="M72.659,445.833a2.023,2.023,0,1,1-2.025,2.021,2.023,2.023,0,0,1,2.025-2.021" transform="translate(-44.505 -406.575)" fill="#e6efe2"/>
        <path id="パス_22382" data-name="パス 22382" d="M67.8,445.833a2.023,2.023,0,1,1-2.025,2.021,2.019,2.019,0,0,1,2.025-2.021" transform="translate(-50.699 -406.575)" fill="#e6efe2"/>
        <path id="パス_22383" data-name="パス 22383" d="M62.946,445.833a2.023,2.023,0,1,1-2.025,2.021,2.019,2.019,0,0,1,2.025-2.021" transform="translate(-56.895 -406.575)" fill="#e6efe2"/>
        <path id="パス_22384" data-name="パス 22384" d="M77.516,449.68a2.024,2.024,0,1,1-2.025,2.021,2.023,2.023,0,0,1,2.025-2.021" transform="translate(-38.309 -401.668)" fill="#e6efe2"/>
        <path id="パス_22385" data-name="パス 22385" d="M72.659,449.68a2.024,2.024,0,1,1-2.025,2.021,2.023,2.023,0,0,1,2.025-2.021" transform="translate(-44.505 -401.668)" fill="#e6efe2"/>
        <path id="パス_22386" data-name="パス 22386" d="M67.8,449.68a2.024,2.024,0,1,1-2.025,2.021A2.019,2.019,0,0,1,67.8,449.68" transform="translate(-50.699 -401.668)" fill="#e6efe2"/>
        <path id="パス_22387" data-name="パス 22387" d="M62.946,449.68a2.024,2.024,0,1,1-2.025,2.021,2.019,2.019,0,0,1,2.025-2.021" transform="translate(-56.895 -401.668)" fill="#e6efe2"/>
        <path id="パス_22388" data-name="パス 22388" d="M77.516,453.527a2.024,2.024,0,1,1-2.025,2.025,2.025,2.025,0,0,1,2.025-2.025" transform="translate(-38.309 -396.76)" fill="#e6efe2"/>
        <path id="パス_22389" data-name="パス 22389" d="M72.659,453.527a2.024,2.024,0,1,1-2.025,2.025,2.025,2.025,0,0,1,2.025-2.025" transform="translate(-44.505 -396.76)" fill="#e6efe2"/>
        <path id="パス_22390" data-name="パス 22390" d="M67.8,453.527a2.024,2.024,0,1,1-2.025,2.025,2.022,2.022,0,0,1,2.025-2.025" transform="translate(-50.699 -396.76)" fill="#e6efe2"/>
        <path id="パス_22391" data-name="パス 22391" d="M62.946,453.527a2.024,2.024,0,1,1-2.025,2.025,2.022,2.022,0,0,1,2.025-2.025" transform="translate(-56.895 -396.76)" fill="#e6efe2"/>
        <path id="パス_22392" data-name="パス 22392" d="M77.516,457.375a2.024,2.024,0,1,1-2.025,2.025,2.027,2.027,0,0,1,2.025-2.025" transform="translate(-38.309 -391.851)" fill="#e6efe2"/>
        <path id="パス_22393" data-name="パス 22393" d="M72.659,457.375a2.024,2.024,0,1,1-2.025,2.025,2.027,2.027,0,0,1,2.025-2.025" transform="translate(-44.505 -391.851)" fill="#e6efe2"/>
        <path id="パス_22394" data-name="パス 22394" d="M67.8,457.375a2.024,2.024,0,1,1-2.025,2.025,2.023,2.023,0,0,1,2.025-2.025" transform="translate(-50.699 -391.851)" fill="#e6efe2"/>
        <path id="パス_22395" data-name="パス 22395" d="M62.844,457.375a2.024,2.024,0,0,1,0,4.048c-.075,0-.15,0-.225-.011q-.857-1.4-1.618-2.854a2.029,2.029,0,0,1,1.843-1.183" transform="translate(-56.793 -391.851)" fill="#e6efe2"/>
        <path id="パス_22396" data-name="パス 22396" d="M77.516,461.222a2.025,2.025,0,1,1-2.025,2.025,2.027,2.027,0,0,1,2.025-2.025" transform="translate(-38.309 -386.944)" fill="#e6efe2"/>
        <path id="パス_22397" data-name="パス 22397" d="M72.659,461.222a2.025,2.025,0,1,1-2.025,2.025,2.027,2.027,0,0,1,2.025-2.025" transform="translate(-44.505 -386.944)" fill="#e6efe2"/>
        <path id="パス_22398" data-name="パス 22398" d="M67.8,461.222a2.025,2.025,0,1,1-2.025,2.025,2.023,2.023,0,0,1,2.025-2.025" transform="translate(-50.699 -386.944)" fill="#e6efe2"/>
        <path id="パス_22399" data-name="パス 22399" d="M81.959,465.089q.744,1.84,1.6,3.623a2.024,2.024,0,1,1-1.6-3.623" transform="translate(-32.113 -382.01)" fill="#e6efe2"/>
        <path id="パス_22400" data-name="パス 22400" d="M77.516,465.07a2.023,2.023,0,1,1-2.025,2.025,2.025,2.025,0,0,1,2.025-2.025" transform="translate(-38.309 -382.035)" fill="#e6efe2"/>
        <path id="パス_22401" data-name="パス 22401" d="M72.659,465.07a2.023,2.023,0,1,1-2.025,2.025,2.025,2.025,0,0,1,2.025-2.025" transform="translate(-44.505 -382.035)" fill="#e6efe2"/>
      </g>
    </g>
    <g id="グループ_1007" data-name="グループ 1007" transform="translate(0.221 69.261)">
      <path id="パス_22403" data-name="パス 22403" d="M59.249,441.686a20.169,20.169,0,1,0,20.167-20.169,20.169,20.169,0,0,0-20.167,20.169" transform="translate(-59.249 -393.886)" fill="#e2a5a7"/>
      <path id="パス_22404" data-name="パス 22404" d="M275.9,409.375a82.5,82.5,0,0,1,7.1,164.68c-2.451.214-4.877.319-7.291.319a82.422,82.422,0,0,1-63.155-29.529,58.454,58.454,0,0,0-19.245-52.186,82.5,82.5,0,0,1,75.3-82.965q3.673-.321,7.289-.319" transform="translate(111.763 -409.375)" fill="#e5b2b4"/>
      <path id="パス_22405" data-name="パス 22405" d="M145.882,424.618a66.871,66.871,0,0,1,53.95,27.281,36.055,36.055,0,0,0,3.684,5.56A66.982,66.982,0,1,1,85.383,520.34a2.023,2.023,0,0,0-1.181-3.666,2.076,2.076,0,0,0-.414.041,67.227,67.227,0,0,1-.576-48.786,2.024,2.024,0,1,0,1.534-3.716,66.9,66.9,0,0,1,8.823-14.439,2.024,2.024,0,1,0,2.517-2.967,66.8,66.8,0,0,1,49.8-22.188M106.3,450.677a2.025,2.025,0,1,0-2.023-2.025,2.027,2.027,0,0,0,2.023,2.025m-11.051,8.755a2.024,2.024,0,1,0-2.025-2.023,2.025,2.025,0,0,0,2.025,2.023m11.051,0a2.024,2.024,0,1,0-2.023-2.023,2.025,2.025,0,0,0,2.023,2.023m11.281-4.037c-.075-.007-.15-.011-.228-.011a2.024,2.024,0,1,0,1.843,2.863c-.505-.969-1.047-1.923-1.616-2.851M95.252,468.186a2.024,2.024,0,1,0-2.025-2.021,2.023,2.023,0,0,0,2.025,2.021m11.051,0a2.024,2.024,0,1,0-2.023-2.021,2.023,2.023,0,0,0,2.023,2.021m11.053,0a2.024,2.024,0,1,0-2.023-2.021,2.023,2.023,0,0,0,2.023,2.021M84.2,476.94a2.023,2.023,0,1,0-2.025-2.023A2.022,2.022,0,0,0,84.2,476.94m11.051,0a2.023,2.023,0,1,0-2.025-2.023,2.023,2.023,0,0,0,2.025,2.023m11.051,0a2.023,2.023,0,1,0-2.023-2.023,2.023,2.023,0,0,0,2.023,2.023m11.053,0a2.023,2.023,0,1,0-2.023-2.023,2.023,2.023,0,0,0,2.023,2.023M84.2,485.7a2.024,2.024,0,1,0-2.025-2.028A2.025,2.025,0,0,0,84.2,485.7m11.051,0a2.024,2.024,0,1,0-2.025-2.028,2.027,2.027,0,0,0,2.025,2.028m11.051,0a2.024,2.024,0,1,0-2.023-2.028A2.027,2.027,0,0,0,106.3,485.7m11.053,0a2.024,2.024,0,1,0-2.023-2.028,2.027,2.027,0,0,0,2.023,2.028M84.2,494.454a2.024,2.024,0,1,0-2.025-2.025,2.025,2.025,0,0,0,2.025,2.025m11.051,0a2.024,2.024,0,1,0-2.025-2.025,2.027,2.027,0,0,0,2.025,2.025m11.051,0a2.024,2.024,0,1,0-2.023-2.025,2.027,2.027,0,0,0,2.023,2.025m11.053,0a2.024,2.024,0,1,0-2.023-2.025,2.027,2.027,0,0,0,2.023,2.025M84.2,503.211a2.025,2.025,0,1,0-2.025-2.025,2.025,2.025,0,0,0,2.025,2.025m11.051,0a2.025,2.025,0,1,0-2.025-2.025,2.027,2.027,0,0,0,2.025,2.025m11.051,0a2.025,2.025,0,1,0-2.023-2.025,2.027,2.027,0,0,0,2.023,2.025m12.894-2.865a2.024,2.024,0,1,0-1.841,2.865,1.885,1.885,0,0,0,.225-.014q.857-1.393,1.616-2.851m-35,11.622a2.025,2.025,0,1,0-2.025-2.028,2.026,2.026,0,0,0,2.025,2.028m11.051,0a2.025,2.025,0,1,0-2.025-2.028,2.027,2.027,0,0,0,2.025,2.028m11.051,0a2.025,2.025,0,1,0-2.023-2.028,2.027,2.027,0,0,0,2.023,2.028M95.252,520.72a2.023,2.023,0,1,0-2.025-2.023,2.023,2.023,0,0,0,2.025,2.023" transform="translate(-34.164 -389.93)" fill="#45a748"/>
      <path id="パス_22406" data-name="パス 22406" d="M132.048,436.606q1.976,2.68,3.684,5.56a36.222,36.222,0,0,1-3.684-5.56" transform="translate(33.62 -374.637)" fill="#00973d"/>
      <path id="パス_22407" data-name="パス 22407" d="M92.085,434.29a2.024,2.024,0,1,1-2.025,2.025,2.027,2.027,0,0,1,2.025-2.025" transform="translate(-19.944 -377.591)" fill="#2ea146"/>
      <path id="パス_22408" data-name="パス 22408" d="M87.87,434.369a2.024,2.024,0,1,1-2.517,2.965c.81-1.01,1.65-2,2.517-2.965" transform="translate(-25.949 -377.49)" fill="#2ea146"/>
      <path id="パス_22409" data-name="パス 22409" d="M96.939,438.137c.077,0,.152,0,.228.011.571.928,1.111,1.882,1.616,2.851a2.023,2.023,0,1,1-1.843-2.863" transform="translate(-13.747 -372.684)" fill="#2ea146"/>
      <path id="パス_22410" data-name="パス 22410" d="M92.085,438.137a2.024,2.024,0,1,1-2.025,2.025,2.025,2.025,0,0,1,2.025-2.025" transform="translate(-19.944 -372.684)" fill="#2ea146"/>
      <path id="パス_22411" data-name="パス 22411" d="M87.228,438.137a2.024,2.024,0,1,1-2.025,2.025,2.025,2.025,0,0,1,2.025-2.025" transform="translate(-26.14 -372.684)" fill="#2ea146"/>
      <path id="パス_22412" data-name="パス 22412" d="M96.939,441.985a2.024,2.024,0,1,1-2.021,2.025,2.025,2.025,0,0,1,2.021-2.025" transform="translate(-13.747 -367.775)" fill="#2ea146"/>
      <path id="パス_22413" data-name="パス 22413" d="M92.085,441.985a2.024,2.024,0,1,1-2.025,2.025,2.025,2.025,0,0,1,2.025-2.025" transform="translate(-19.944 -367.775)" fill="#2ea146"/>
      <path id="パス_22414" data-name="パス 22414" d="M87.228,441.985A2.024,2.024,0,1,1,85.2,444.01a2.025,2.025,0,0,1,2.025-2.025" transform="translate(-26.14 -367.775)" fill="#2ea146"/>
      <path id="パス_22415" data-name="パス 22415" d="M82.336,442.017a2.024,2.024,0,1,1-1.534,3.716c.476-1.258.988-2.494,1.534-3.716" transform="translate(-31.754 -367.734)" fill="#2ea146"/>
      <path id="パス_22416" data-name="パス 22416" d="M96.939,445.833a2.023,2.023,0,1,1-2.021,2.021,2.023,2.023,0,0,1,2.021-2.021" transform="translate(-13.747 -362.866)" fill="#2ea146"/>
      <path id="パス_22417" data-name="パス 22417" d="M92.085,445.833a2.023,2.023,0,1,1-2.025,2.021,2.023,2.023,0,0,1,2.025-2.021" transform="translate(-19.944 -362.866)" fill="#2ea146"/>
      <path id="パス_22418" data-name="パス 22418" d="M87.228,445.833a2.023,2.023,0,1,1-2.025,2.021,2.023,2.023,0,0,1,2.025-2.021" transform="translate(-26.14 -362.866)" fill="#2ea146"/>
      <path id="パス_22419" data-name="パス 22419" d="M82.372,445.833a2.023,2.023,0,1,1-2.025,2.021,2.023,2.023,0,0,1,2.025-2.021" transform="translate(-32.335 -362.866)" fill="#2ea146"/>
      <path id="パス_22420" data-name="パス 22420" d="M96.939,449.68a2.024,2.024,0,1,1-2.021,2.021,2.023,2.023,0,0,1,2.021-2.021" transform="translate(-13.747 -357.958)" fill="#2ea146"/>
      <path id="パス_22421" data-name="パス 22421" d="M92.085,449.68A2.024,2.024,0,1,1,90.06,451.7a2.023,2.023,0,0,1,2.025-2.021" transform="translate(-19.944 -357.958)" fill="#2ea146"/>
      <path id="パス_22422" data-name="パス 22422" d="M87.228,449.68A2.024,2.024,0,1,1,85.2,451.7a2.023,2.023,0,0,1,2.025-2.021" transform="translate(-26.14 -357.958)" fill="#2ea146"/>
      <path id="パス_22423" data-name="パス 22423" d="M82.372,449.68a2.024,2.024,0,1,1-2.025,2.021,2.023,2.023,0,0,1,2.025-2.021" transform="translate(-32.335 -357.958)" fill="#2ea146"/>
      <path id="パス_22424" data-name="パス 22424" d="M96.939,453.527a2.024,2.024,0,1,1-2.021,2.025,2.025,2.025,0,0,1,2.021-2.025" transform="translate(-13.747 -353.051)" fill="#2ea146"/>
      <path id="パス_22425" data-name="パス 22425" d="M92.085,453.527a2.024,2.024,0,1,1-2.025,2.025,2.025,2.025,0,0,1,2.025-2.025" transform="translate(-19.944 -353.051)" fill="#2ea146"/>
      <path id="パス_22426" data-name="パス 22426" d="M87.228,453.527a2.024,2.024,0,1,1-2.025,2.025,2.025,2.025,0,0,1,2.025-2.025" transform="translate(-26.14 -353.051)" fill="#2ea146"/>
      <path id="パス_22427" data-name="パス 22427" d="M82.372,453.527a2.024,2.024,0,1,1-2.025,2.025,2.025,2.025,0,0,1,2.025-2.025" transform="translate(-32.335 -353.051)" fill="#2ea146"/>
      <path id="パス_22428" data-name="パス 22428" d="M96.939,457.375a2.029,2.029,0,0,1,1.843,1.183q-.761,1.458-1.618,2.854c-.075.007-.15.011-.225.011a2.024,2.024,0,0,1,0-4.048" transform="translate(-13.747 -348.142)" fill="#2ea146"/>
      <path id="パス_22429" data-name="パス 22429" d="M92.085,457.375A2.024,2.024,0,1,1,90.06,459.4a2.027,2.027,0,0,1,2.025-2.025" transform="translate(-19.944 -348.142)" fill="#2ea146"/>
      <path id="パス_22430" data-name="パス 22430" d="M87.228,457.375A2.024,2.024,0,1,1,85.2,459.4a2.027,2.027,0,0,1,2.025-2.025" transform="translate(-26.14 -348.142)" fill="#2ea146"/>
      <path id="パス_22431" data-name="パス 22431" d="M82.372,457.375a2.024,2.024,0,1,1-2.025,2.025,2.027,2.027,0,0,1,2.025-2.025" transform="translate(-32.335 -348.142)" fill="#2ea146"/>
      <path id="パス_22432" data-name="パス 22432" d="M92.085,461.222a2.025,2.025,0,1,1-2.025,2.025,2.027,2.027,0,0,1,2.025-2.025" transform="translate(-19.944 -343.234)" fill="#2ea146"/>
      <path id="パス_22433" data-name="パス 22433" d="M87.228,461.222a2.025,2.025,0,1,1-2.025,2.025,2.027,2.027,0,0,1,2.025-2.025" transform="translate(-26.14 -343.234)" fill="#2ea146"/>
      <path id="パス_22434" data-name="パス 22434" d="M82.372,461.222a2.025,2.025,0,1,1-2.025,2.025,2.027,2.027,0,0,1,2.025-2.025" transform="translate(-32.335 -343.234)" fill="#2ea146"/>
      <path id="パス_22435" data-name="パス 22435" d="M87.228,465.07A2.023,2.023,0,1,1,85.2,467.1a2.025,2.025,0,0,1,2.025-2.025" transform="translate(-26.14 -338.326)" fill="#2ea146"/>
      <path id="パス_22436" data-name="パス 22436" d="M81.468,465.07a2.023,2.023,0,0,1,1.183,3.666q-.85-1.785-1.6-3.625a2.037,2.037,0,0,1,.412-.041" transform="translate(-31.43 -338.326)" fill="#2ea146"/>
      <path id="パス_22437" data-name="パス 22437" d="M209.129,439.446c.562,0,1.133.009,1.7.023A59.217,59.217,0,0,1,248.512,454.3c.023,2.121.125,4.262.314,6.411a82.139,82.139,0,0,0,18.929,45.775,58.974,58.974,0,0,1-58.5,50.3c-.564,0-1.133-.009-1.7-.023a59.48,59.48,0,0,1-22.051-4.879l.009-.014a58.866,58.866,0,0,1-34.752-44.537l0-.011-.02-.13,0-.011c-.014-.077-.025-.152-.036-.23l-.007-.043-.014-.093-.011-.077-.011-.071c-.007-.046-.011-.089-.018-.134l0-.027c-.007-.055-.016-.111-.025-.166l0-.034c0-.048-.011-.093-.018-.141l0-.032a58.7,58.7,0,0,1-.537-9.276v-.027c0-.05,0-.1,0-.153v-.032l.007-.177c.888-31.828,27.174-57.022,59.074-57.02" transform="translate(56.559 -371.014)" fill="#b6c836"/>
      <path id="パス_22438" data-name="パス 22438" d="M193.306,445.972a58.353,58.353,0,0,1,19.817,45.47,59.252,59.252,0,0,1-.571,6.716,82.118,82.118,0,0,1-18.931-45.773q-.283-3.226-.314-6.413" transform="translate(111.766 -362.689)" fill="#aa9133"/>
      <path id="パス_22439" data-name="パス 22439" d="M213.037,436.414q.942,0,1.887.027l-.193,6.9c-.567-.016-1.136-.025-1.7-.025-31.9,0-58.189,25.192-59.077,57.02,0,.059,0,.118,0,.177v.034c0,.05,0,.1,0,.152v.025a58.437,58.437,0,0,0,.535,9.278l0,.032.02.139,0,.034c.009.057.016.112.023.168l0,.025.021.134a.66.66,0,0,0,.011.071c0,.027.007.052.011.077l.014.1.007.041.034.232,0,.011.02.127,0,.014a58.876,58.876,0,0,0,34.745,44.549,61.757,61.757,0,0,0-3.548,5.967A65.672,65.672,0,0,1,147,500.14c.992-35.517,30.435-63.726,66.038-63.726" transform="translate(52.659 -374.882)" fill="#e6efe2"/>
      <path id="パス_22440" data-name="パス 22440" d="M150.042,464.579v0m0,.187v0m.535,9.3,0,.032,0-.032m.025.173,0,.034,0-.034m.027.2,0,.025,0-.025m.025.162.009.068-.009-.068m.023.148.014.093-.014-.093m.02.136.034.23-.034-.23m.036.241.02.13-.02-.13m.023.141A58.87,58.87,0,0,0,185.5,519.807l-.007.011a58.876,58.876,0,0,1-34.745-44.549" transform="translate(56.568 -338.952)" fill="#a5bf37"/>
    </g>
    <g id="グループ_1008" data-name="グループ 1008" transform="translate(155.186 0)">
      <path id="パス_22441" data-name="パス 22441" d="M127.345,404.1A25.157,25.157,0,1,0,152.5,378.94,25.157,25.157,0,0,0,127.345,404.1" transform="translate(-127.345 -378.94)" fill="#e2a5a7"/>
    </g>
  </g>
</svg>
