<svg xmlns="http://www.w3.org/2000/svg" xmlns:xlink="http://www.w3.org/1999/xlink" width="645.265" height="262.283" viewBox="0 0 645.265 262.283">
  <defs>
    <clipPath id="clip-path">
      <path id="パス_22190" data-name="パス 22190" d="M386.623,863.28a62.65,62.65,0,0,0,124.021,12.583V850.694A62.65,62.65,0,0,0,386.623,863.28" transform="translate(-386.623 -800.636)" fill="none"/>
    </clipPath>
  </defs>
  <g id="deco01" opacity="0.247">
    <path id="パス_22139" data-name="パス 22139" d="M332.753,781.429a113.191,113.191,0,0,0-9.748,225.951c3.363.293,6.691.437,10,.437A113.089,113.089,0,0,0,419.661,967.3a80.2,80.2,0,0,1,26.406-71.6A113.2,113.2,0,0,0,342.754,781.866q-5.04-.44-10-.437" transform="translate(-219.685 -775.494)" fill="#dea2a6"/>
    <path id="パス_22140" data-name="パス 22140" d="M364.171,811.5c-.771,0-1.555.013-2.329.031a81.248,81.248,0,0,0-51.707,20.346c-.031,2.91-.172,5.848-.431,8.8a112.7,112.7,0,0,1-25.972,62.807C289.362,942.7,323.358,972.5,364,972.5c.774,0,1.555-.012,2.332-.031a81.612,81.612,0,0,0,30.256-6.694l-.013-.019a80.768,80.768,0,0,0,47.682-61.108l0-.016.028-.178,0-.016c.019-.106.034-.209.05-.315l.009-.059.019-.128.016-.106.016-.1.025-.184.006-.037c.009-.075.022-.153.034-.228l.006-.047c.006-.066.016-.128.025-.194L444.5,903a80.529,80.529,0,0,0,.737-12.727v-.037c0-.069-.006-.14-.006-.209v-.044l-.009-.243c-1.218-43.67-37.284-78.238-81.054-78.234" transform="translate(-83.752 -711.671)" fill="#b4bd20"/>
    <path id="パス_22141" data-name="パス 22141" d="M310.691,818.025a80.063,80.063,0,0,0-27.19,62.388,81.291,81.291,0,0,0,.784,9.214,112.669,112.669,0,0,0,25.975-62.8q.389-4.426.431-8.8" transform="translate(-84.309 -697.823)" fill="#a07f23"/>
    <path id="パス_22142" data-name="パス 22142" d="M311.25,808.467q-1.293,0-2.589.038l.265,9.464c.777-.022,1.558-.034,2.329-.034,43.772,0,79.839,34.565,81.057,78.234,0,.081,0,.162.006.244v.047c0,.069.006.137.006.209v.034a80.17,80.17,0,0,1-.734,12.73l-.006.044-.028.19-.006.047c-.013.078-.022.153-.031.231l-.006.035-.028.184a.889.889,0,0,1-.016.1c0,.037-.009.072-.016.106l-.019.131-.009.056-.047.319,0,.016-.028.175,0,.019A80.782,80.782,0,0,1,343.673,972.2a84.772,84.772,0,0,1,4.868,8.187c32.267-14.535,54.357-47.22,53.318-84.488-1.361-48.731-41.759-87.436-90.608-87.436" transform="translate(-30.841 -718.109)" fill="#e3ebdb"/>
    <path id="パス_22143" data-name="パス 22143" d="M385.971,788.533a9.006,9.006,0,1,1-9-9,9.007,9.007,0,0,1,9,9" transform="translate(95.007 -779.528)" fill="#499935"/>
    <path id="パス_22144" data-name="パス 22144" d="M385.187,803.073A17.777,17.777,0,1,1,367.411,785.3a17.774,17.774,0,0,1,17.776,17.776" transform="translate(56.113 -767.284)" fill="#30862f"/>
    <path id="パス_22145" data-name="パス 22145" d="M373.132,785.3a49.541,49.541,0,1,0,38.618,80.576q2.342-3.944,5.055-7.625a49.7,49.7,0,0,0,3.834-37.512,17.8,17.8,0,0,1-14.872-23.171A49.353,49.353,0,0,0,373.132,785.3" transform="translate(0.846 -767.286)" fill="#b4bd20"/>
    <path id="パス_22146" data-name="パス 22146" d="M350.5,789.225A17.791,17.791,0,0,0,365.372,812.4,49.545,49.545,0,0,0,350.5,789.225" transform="translate(56.113 -758.947)" fill="#14792d"/>
    <path id="パス_22147" data-name="パス 22147" d="M463.866,821.245a27.674,27.674,0,1,1-27.67-27.674,27.672,27.672,0,0,1,27.67,27.674" transform="translate(181.093 -749.724)" fill="#da9397"/>
    <path id="パス_22148" data-name="パス 22148" d="M439.613,796.672A91.751,91.751,0,0,0,365.59,834.1a49.488,49.488,0,0,1-5.055,7.628,91.9,91.9,0,1,0,162.086,86.277,2.776,2.776,0,0,1,1.62-5.03,2.851,2.851,0,0,1,.568.056,92.238,92.238,0,0,0,.79-66.938,2.778,2.778,0,1,1-2.1-5.1,91.784,91.784,0,0,0-12.105-19.811,2.778,2.778,0,1,1-3.453-4.072,91.647,91.647,0,0,0-68.324-30.443m54.3,35.754a2.779,2.779,0,1,1,2.776-2.779,2.781,2.781,0,0,1-2.776,2.779m15.162,12.012a2.777,2.777,0,1,1,2.779-2.776,2.778,2.778,0,0,1-2.779,2.776m-15.162,0a2.777,2.777,0,1,1,2.776-2.776,2.778,2.778,0,0,1-2.776,2.776M478.439,838.9c.1-.009.206-.016.312-.016a2.777,2.777,0,1,1-2.529,3.928c.693-1.33,1.436-2.638,2.217-3.912m30.64,17.551a2.777,2.777,0,1,1,2.779-2.773,2.776,2.776,0,0,1-2.779,2.773m-15.162,0a2.777,2.777,0,1,1,2.776-2.773,2.776,2.776,0,0,1-2.776,2.773m-15.165,0a2.777,2.777,0,1,1,2.776-2.773,2.776,2.776,0,0,1-2.776,2.773m45.49,12.012a2.776,2.776,0,1,1,2.779-2.776,2.774,2.774,0,0,1-2.779,2.776m-15.162,0a2.776,2.776,0,1,1,2.779-2.776,2.776,2.776,0,0,1-2.779,2.776m-15.162,0a2.776,2.776,0,1,1,2.776-2.776,2.776,2.776,0,0,1-2.776,2.776m-15.165,0a2.776,2.776,0,1,1,2.776-2.776,2.776,2.776,0,0,1-2.776,2.776m45.49,12.018a2.777,2.777,0,1,1,2.779-2.782,2.779,2.779,0,0,1-2.779,2.782m-15.162,0a2.777,2.777,0,1,1,2.779-2.782,2.782,2.782,0,0,1-2.779,2.782m-15.162,0a2.777,2.777,0,1,1,2.776-2.782,2.782,2.782,0,0,1-2.776,2.782m-15.165,0a2.777,2.777,0,1,1,2.776-2.782,2.782,2.782,0,0,1-2.776,2.782m45.49,12.012a2.777,2.777,0,1,1,2.779-2.779,2.778,2.778,0,0,1-2.779,2.779m-15.162,0a2.777,2.777,0,1,1,2.779-2.779,2.781,2.781,0,0,1-2.779,2.779m-15.162,0a2.777,2.777,0,1,1,2.776-2.779,2.781,2.781,0,0,1-2.776,2.779m-15.165,0a2.777,2.777,0,1,1,2.776-2.779,2.781,2.781,0,0,1-2.776,2.779m45.49,12.015a2.779,2.779,0,1,1,2.779-2.779,2.778,2.778,0,0,1-2.779,2.779m-15.162,0a2.779,2.779,0,1,1,2.779-2.779,2.781,2.781,0,0,1-2.779,2.779m-15.162,0a2.779,2.779,0,1,1,2.776-2.779,2.781,2.781,0,0,1-2.776,2.779m-17.691-3.931a2.777,2.777,0,1,1,2.526,3.931,2.6,2.6,0,0,1-.309-.019q-1.175-1.911-2.217-3.913m48.016,15.946a2.779,2.779,0,1,1,2.779-2.782,2.779,2.779,0,0,1-2.779,2.782m-15.162,0a2.779,2.779,0,1,1,2.779-2.782,2.782,2.782,0,0,1-2.779,2.782m-15.162,0a2.779,2.779,0,1,1,2.776-2.782,2.782,2.782,0,0,1-2.776,2.782m15.162,12.008a2.776,2.776,0,1,1,2.779-2.776,2.776,2.776,0,0,1-2.779,2.776" transform="translate(52.063 -743.142)" fill="#499935"/>
    <g id="グループ_914" data-name="グループ 914" transform="translate(521.244 65.907)">
      <g id="グループ_913" data-name="グループ 913" clip-path="url(#clip-path)">
        <path id="パス_22149" data-name="パス 22149" d="M401.29,802.5a2.777,2.777,0,1,0,2.779,2.776,2.778,2.778,0,0,0-2.779-2.776" transform="translate(-361.392 -796.689)" fill="#e3ebdb"/>
        <path id="パス_22150" data-name="パス 22150" d="M406.146,802.5a2.777,2.777,0,1,0,2.779,2.776,2.778,2.778,0,0,0-2.779-2.776" transform="translate(-351.086 -796.689)" fill="#e3ebdb"/>
        <path id="パス_22151" data-name="パス 22151" d="M411,802.5a2.777,2.777,0,1,0,2.779,2.776A2.778,2.778,0,0,0,411,802.5" transform="translate(-340.78 -796.689)" fill="#e3ebdb"/>
        <path id="パス_22152" data-name="パス 22152" d="M415.859,802.5a2.777,2.777,0,1,0,2.779,2.776,2.778,2.778,0,0,0-2.779-2.776" transform="translate(-330.471 -796.689)" fill="#e3ebdb"/>
        <path id="パス_22153" data-name="パス 22153" d="M400.178,806.343a2.75,2.75,0,0,0-1.143.246c1.19,1.321,2.345,2.679,3.453,4.068a2.737,2.737,0,0,0,.468-1.536,2.781,2.781,0,0,0-2.779-2.779" transform="translate(-360.28 -788.524)" fill="#e3ebdb"/>
        <path id="パス_22154" data-name="パス 22154" d="M406.146,806.343a2.777,2.777,0,1,0,2.779,2.779,2.781,2.781,0,0,0-2.779-2.779" transform="translate(-351.086 -788.524)" fill="#e3ebdb"/>
        <path id="パス_22155" data-name="パス 22155" d="M411,806.343a2.777,2.777,0,1,0,2.779,2.779A2.781,2.781,0,0,0,411,806.343" transform="translate(-340.78 -788.524)" fill="#e3ebdb"/>
        <path id="パス_22156" data-name="パス 22156" d="M415.859,806.343a2.777,2.777,0,1,0,2.779,2.779,2.781,2.781,0,0,0-2.779-2.779" transform="translate(-330.471 -788.524)" fill="#e3ebdb"/>
        <path id="パス_22157" data-name="パス 22157" d="M420.711,806.343a2.777,2.777,0,1,0,2.779,2.779,2.776,2.776,0,0,0-2.779-2.779" transform="translate(-320.161 -788.524)" fill="#e3ebdb"/>
        <path id="パス_22158" data-name="パス 22158" d="M406.146,810.191a2.777,2.777,0,1,0,2.779,2.779,2.779,2.779,0,0,0-2.779-2.779" transform="translate(-351.086 -780.357)" fill="#e3ebdb"/>
        <path id="パス_22159" data-name="パス 22159" d="M411,810.191a2.777,2.777,0,1,0,2.779,2.779A2.779,2.779,0,0,0,411,810.191" transform="translate(-340.78 -780.357)" fill="#e3ebdb"/>
        <path id="パス_22160" data-name="パス 22160" d="M415.859,810.191a2.777,2.777,0,1,0,2.779,2.779,2.779,2.779,0,0,0-2.779-2.779" transform="translate(-330.471 -780.357)" fill="#e3ebdb"/>
        <path id="パス_22161" data-name="パス 22161" d="M420.711,810.191a2.777,2.777,0,1,0,2.779,2.779,2.774,2.774,0,0,0-2.779-2.779" transform="translate(-320.161 -780.357)" fill="#e3ebdb"/>
        <path id="パス_22162" data-name="パス 22162" d="M425.568,810.191a2.777,2.777,0,1,0,2.529,3.928c-.693-1.33-1.433-2.638-2.217-3.912-.1-.009-.206-.016-.312-.016" transform="translate(-309.852 -780.357)" fill="#e3ebdb"/>
        <path id="パス_22163" data-name="パス 22163" d="M404.764,814.038a2.794,2.794,0,0,0-.746.1q1.124,2.515,2.1,5.1a2.778,2.778,0,0,0-1.358-5.2" transform="translate(-349.704 -772.192)" fill="#e3ebdb"/>
        <path id="パス_22164" data-name="パス 22164" d="M411,814.038a2.777,2.777,0,1,0,2.779,2.779A2.779,2.779,0,0,0,411,814.038" transform="translate(-340.78 -772.192)" fill="#e3ebdb"/>
        <path id="パス_22165" data-name="パス 22165" d="M415.859,814.038a2.777,2.777,0,1,0,2.779,2.779,2.779,2.779,0,0,0-2.779-2.779" transform="translate(-330.471 -772.192)" fill="#e3ebdb"/>
        <path id="パス_22166" data-name="パス 22166" d="M420.711,814.038a2.777,2.777,0,1,0,2.779,2.779,2.774,2.774,0,0,0-2.779-2.779" transform="translate(-320.161 -772.192)" fill="#e3ebdb"/>
        <path id="パス_22167" data-name="パス 22167" d="M425.568,814.038a2.777,2.777,0,1,0,2.779,2.779,2.774,2.774,0,0,0-2.779-2.779" transform="translate(-309.852 -772.192)" fill="#e3ebdb"/>
        <path id="パス_22168" data-name="パス 22168" d="M411,817.886a2.776,2.776,0,1,0,2.779,2.773A2.776,2.776,0,0,0,411,817.886" transform="translate(-340.78 -764.025)" fill="#e3ebdb"/>
        <path id="パス_22169" data-name="パス 22169" d="M415.859,817.886a2.776,2.776,0,1,0,2.779,2.773,2.776,2.776,0,0,0-2.779-2.773" transform="translate(-330.471 -764.025)" fill="#e3ebdb"/>
        <path id="パス_22170" data-name="パス 22170" d="M420.711,817.886a2.776,2.776,0,1,0,2.779,2.773,2.77,2.77,0,0,0-2.779-2.773" transform="translate(-320.161 -764.025)" fill="#e3ebdb"/>
        <path id="パス_22171" data-name="パス 22171" d="M425.568,817.886a2.776,2.776,0,1,0,2.779,2.773,2.77,2.77,0,0,0-2.779-2.773" transform="translate(-309.852 -764.025)" fill="#e3ebdb"/>
        <path id="パス_22172" data-name="パス 22172" d="M411,821.734a2.777,2.777,0,1,0,2.779,2.773A2.776,2.776,0,0,0,411,821.734" transform="translate(-340.78 -755.858)" fill="#e3ebdb"/>
        <path id="パス_22173" data-name="パス 22173" d="M415.859,821.734a2.777,2.777,0,1,0,2.779,2.773,2.776,2.776,0,0,0-2.779-2.773" transform="translate(-330.471 -755.858)" fill="#e3ebdb"/>
        <path id="パス_22174" data-name="パス 22174" d="M420.711,821.734a2.777,2.777,0,1,0,2.779,2.773,2.77,2.77,0,0,0-2.779-2.773" transform="translate(-320.161 -755.858)" fill="#e3ebdb"/>
        <path id="パス_22175" data-name="パス 22175" d="M425.568,821.734a2.777,2.777,0,1,0,2.779,2.773,2.77,2.77,0,0,0-2.779-2.773" transform="translate(-309.852 -755.858)" fill="#e3ebdb"/>
        <path id="パス_22176" data-name="パス 22176" d="M411,825.581a2.777,2.777,0,1,0,2.779,2.779A2.779,2.779,0,0,0,411,825.581" transform="translate(-340.78 -747.693)" fill="#e3ebdb"/>
        <path id="パス_22177" data-name="パス 22177" d="M415.859,825.581a2.777,2.777,0,1,0,2.779,2.779,2.779,2.779,0,0,0-2.779-2.779" transform="translate(-330.471 -747.693)" fill="#e3ebdb"/>
        <path id="パス_22178" data-name="パス 22178" d="M420.711,825.581a2.777,2.777,0,1,0,2.779,2.779,2.774,2.774,0,0,0-2.779-2.779" transform="translate(-320.161 -747.693)" fill="#e3ebdb"/>
        <path id="パス_22179" data-name="パス 22179" d="M425.568,825.581a2.777,2.777,0,1,0,2.779,2.779,2.774,2.774,0,0,0-2.779-2.779" transform="translate(-309.852 -747.693)" fill="#e3ebdb"/>
        <path id="パス_22180" data-name="パス 22180" d="M411,829.428a2.777,2.777,0,1,0,2.779,2.779A2.781,2.781,0,0,0,411,829.428" transform="translate(-340.78 -739.529)" fill="#e3ebdb"/>
        <path id="パス_22181" data-name="パス 22181" d="M415.859,829.428a2.777,2.777,0,1,0,2.779,2.779,2.781,2.781,0,0,0-2.779-2.779" transform="translate(-330.471 -739.529)" fill="#e3ebdb"/>
        <path id="パス_22182" data-name="パス 22182" d="M420.711,829.428a2.777,2.777,0,1,0,2.779,2.779,2.776,2.776,0,0,0-2.779-2.779" transform="translate(-320.161 -739.529)" fill="#e3ebdb"/>
        <path id="パス_22183" data-name="パス 22183" d="M425.568,829.428a2.777,2.777,0,0,0,0,5.555c.1,0,.206-.006.309-.015q1.175-1.916,2.22-3.915a2.784,2.784,0,0,0-2.529-1.624" transform="translate(-309.852 -739.529)" fill="#e3ebdb"/>
        <path id="パス_22184" data-name="パス 22184" d="M411,833.276a2.779,2.779,0,1,0,2.779,2.779A2.781,2.781,0,0,0,411,833.276" transform="translate(-340.78 -731.362)" fill="#e3ebdb"/>
        <path id="パス_22185" data-name="パス 22185" d="M415.859,833.276a2.779,2.779,0,1,0,2.779,2.779,2.781,2.781,0,0,0-2.779-2.779" transform="translate(-330.471 -731.362)" fill="#e3ebdb"/>
        <path id="パス_22186" data-name="パス 22186" d="M420.711,833.276a2.779,2.779,0,1,0,2.779,2.779,2.776,2.776,0,0,0-2.779-2.779" transform="translate(-320.161 -731.362)" fill="#e3ebdb"/>
        <path id="パス_22187" data-name="パス 22187" d="M405.926,837.142q-1.021,2.524-2.189,4.971a2.776,2.776,0,1,0,2.189-4.971" transform="translate(-350.301 -723.156)" fill="#e3ebdb"/>
        <path id="パス_22188" data-name="パス 22188" d="M411,837.124a2.776,2.776,0,1,0,2.779,2.779A2.779,2.779,0,0,0,411,837.124" transform="translate(-340.78 -723.195)" fill="#e3ebdb"/>
        <path id="パス_22189" data-name="パス 22189" d="M415.859,837.124a2.776,2.776,0,1,0,2.779,2.779,2.779,2.779,0,0,0-2.779-2.779" transform="translate(-330.471 -723.195)" fill="#e3ebdb"/>
      </g>
    </g>
  </g>
</svg>
