<svg xmlns="http://www.w3.org/2000/svg" width="151.324" height="141.728" viewBox="0 0 151.324 141.728">
  <g id="decoration" transform="translate(-297.709 -2918.001)">
    <g id="deco03" transform="matrix(-0.978, -0.208, 0.208, -0.978, 425.099, 3062.924)" opacity="0.404">
      <path id="パス_22442" data-name="パス 22442" d="M97.009,125.982a14.466,14.466,0,0,0,5.227,3.814.835.835,0,0,1,1.291-.042.842.842,0,0,1,.2.589c.207.062.415.12.626.176a14.561,14.561,0,0,0,15.157-23,3.079,3.079,0,1,1-1.1-1.268,14.491,14.491,0,0,0-5.349-3.48q-.292.266-.589.526a30.147,30.147,0,0,1-6.612,4.373.832.832,0,0,1-.99.521c-.028-.008-.056-.017-.083-.026a29.892,29.892,0,0,1-7.033,2.093.832.832,0,0,1-1.471.21c-.551.065-1.1.114-1.652.148a14.578,14.578,0,0,0,2.374,15.368m.674-2.429a.833.833,0,0,1-.836,1.354.841.841,0,0,1-.421-.261.833.833,0,0,1,.836-1.353.822.822,0,0,1,.421.259m-2.354-5.3a.832.832,0,1,1-.421-.261.841.841,0,0,1,.421.261m5.842,6.2a.833.833,0,1,1-.42-.259.817.817,0,0,1,.42.259m-2.354-5.3a.832.832,0,1,1-.421-.261.838.838,0,0,1,.421.261m5.842,6.2a.833.833,0,0,1-.836,1.354.818.818,0,0,1-.42-.259.833.833,0,0,1,1.255-1.1m-8.2-11.5a.833.833,0,1,1-.42-.259.833.833,0,0,1,.42.259m5.844,6.2a.833.833,0,1,1-.421-.259.849.849,0,0,1,.421.259m5.842,6.2a.832.832,0,1,1-.42-.261.829.829,0,0,1,.42.261m-8.2-11.506a.832.832,0,0,1-.836,1.353.818.818,0,0,1-.42-.259.832.832,0,0,1,.836-1.353.818.818,0,0,1,.42.259m5.844,6.2a.834.834,0,0,1-.836,1.354.841.841,0,0,1-.421-.261.833.833,0,0,1,1.257-1.094m-2.354-5.3A.833.833,0,0,1,102.6,117a.832.832,0,1,1,.837-1.353m5.842,6.2a.833.833,0,1,1-.42-.259.834.834,0,0,1,.42.259m-8.2-11.5a.832.832,0,0,1-.836,1.353.818.818,0,0,1-.42-.259.832.832,0,1,1,1.255-1.094m5.844,6.2a.833.833,0,0,1-.836,1.353.822.822,0,0,1-.421-.259.833.833,0,0,1,1.257-1.094m-2.355-5.3a.832.832,0,0,1-.836,1.353.818.818,0,0,1-.42-.259.832.832,0,1,1,1.255-1.094m5.844,6.2a.833.833,0,0,1-.836,1.353.822.822,0,0,1-.421-.259.833.833,0,0,1,.836-1.354.841.841,0,0,1,.421.261m-2.355-5.3a.832.832,0,1,1-.42-.261.829.829,0,0,1,.42.261m3.49.9a.834.834,0,1,1-.421-.259.835.835,0,0,1,.421.259m-2.355-5.3a.833.833,0,1,1-.421-.259.828.828,0,0,1,.421.259" transform="translate(-62.674 4.449)" fill="#edf1d3"/>
      <path id="パス_22443" data-name="パス 22443" d="M93.917,114a.818.818,0,0,0,.42.259.833.833,0,1,0-.42-.259" transform="translate(-62.519 9.791)" fill="#dde4ac"/>
      <path id="パス_22444" data-name="パス 22444" d="M94.652,111.146a.822.822,0,0,0,.421.259.83.83,0,1,0-.421-.259" transform="translate(-62.12 8.243)" fill="#dde4ac"/>
      <path id="パス_22445" data-name="パス 22445" d="M95.335,107.9a.822.822,0,0,0,.421.259.834.834,0,0,0,1-.538c-.489.082-.981.151-1.471.21a.763.763,0,0,0,.054.069" transform="translate(-61.668 7.081)" fill="#dde4ac"/>
      <path id="パス_22446" data-name="パス 22446" d="M95.443,117.439a.822.822,0,0,0,.421.259.832.832,0,1,0-.421-.259" transform="translate(-61.692 11.656)" fill="#dde4ac"/>
      <path id="パス_22447" data-name="パス 22447" d="M96.179,114.584a.822.822,0,0,0,.421.259.833.833,0,0,0,.836-1.353A.833.833,0,0,0,96,113.83a.83.83,0,0,0,.179.754" transform="translate(-61.292 10.108)" fill="#dde4ac"/>
      <path id="パス_22448" data-name="パス 22448" d="M96.915,111.728a.818.818,0,0,0,.42.259.833.833,0,1,0-.42-.259" transform="translate(-60.893 8.559)" fill="#dde4ac"/>
      <path id="パス_22449" data-name="パス 22449" d="M97.65,108.873a.822.822,0,0,0,.421.259.83.83,0,1,0-.421-.259" transform="translate(-60.494 7.01)" fill="#dde4ac"/>
      <path id="パス_22450" data-name="パス 22450" d="M97.705,118.022a.824.824,0,0,0,.42.259.833.833,0,1,0-.42-.259" transform="translate(-60.465 11.973)" fill="#dde4ac"/>
      <path id="パス_22451" data-name="パス 22451" d="M98.441,115.166a.832.832,0,1,0-.179-.754.824.824,0,0,0,.179.754" transform="translate(-60.066 10.424)" fill="#dde4ac"/>
      <path id="パス_22452" data-name="パス 22452" d="M99.176,112.311a.833.833,0,0,0,1.434-.339A.832.832,0,1,0,99,111.557a.824.824,0,0,0,.177.754" transform="translate(-59.667 8.875)" fill="#dde4ac"/>
      <path id="パス_22453" data-name="パス 22453" d="M99.912,109.456a.818.818,0,0,0,.42.259.833.833,0,1,0-.42-.259" transform="translate(-59.268 7.326)" fill="#dde4ac"/>
      <path id="パス_22454" data-name="パス 22454" d="M100.795,106.441c.026.009.054.019.082.026a.832.832,0,0,0,.99-.52q-.532.257-1.072.494" transform="translate(-58.678 6.172)" fill="#dde4ac"/>
      <path id="パス_22455" data-name="パス 22455" d="M99.137,120.408a14.594,14.594,0,0,0,1.495.546.833.833,0,0,0-.2-.588.822.822,0,0,0-.421-.259.831.831,0,0,0-.87.3" transform="translate(-59.577 13.837)" fill="#dde4ac"/>
      <path id="パス_22456" data-name="パス 22456" d="M99.967,118.605a.818.818,0,0,0,.42.259.832.832,0,0,0,.836-1.353.817.817,0,0,0-.42-.259.832.832,0,0,0-.836,1.353" transform="translate(-59.238 12.289)" fill="#dde4ac"/>
      <path id="パス_22457" data-name="パス 22457" d="M100.7,115.749a.822.822,0,0,0,.421.259.832.832,0,1,0-.421-.259" transform="translate(-58.839 10.74)" fill="#dde4ac"/>
      <path id="パス_22458" data-name="パス 22458" d="M101.439,112.894a.824.824,0,0,0,.42.259.833.833,0,1,0-.42-.259" transform="translate(-58.44 9.191)" fill="#dde4ac"/>
      <path id="パス_22459" data-name="パス 22459" d="M102.175,110.039a.817.817,0,0,0,.42.259.832.832,0,0,0,.836-1.353.818.818,0,0,0-.42-.259.832.832,0,0,0-.836,1.353" transform="translate(-58.04 7.643)" fill="#dde4ac"/>
      <path id="パス_22460" data-name="パス 22460" d="M102.91,107.183a.818.818,0,0,0,.42.259.833.833,0,1,0-.42-.259" transform="translate(-57.642 6.094)" fill="#dde4ac"/>
      <path id="パス_22461" data-name="パス 22461" d="M102.229,119.187a.81.81,0,0,0,.42.261.832.832,0,0,0,.836-1.353.808.808,0,0,0-.42-.259.831.831,0,0,0-.836,1.351" transform="translate(-58.011 12.605)" fill="#dde4ac"/>
      <path id="パス_22462" data-name="パス 22462" d="M102.965,116.332a.818.818,0,0,0,.42.259.832.832,0,0,0,.836-1.353.817.817,0,0,0-.42-.259.832.832,0,0,0-.836,1.353" transform="translate(-57.612 11.056)" fill="#dde4ac"/>
      <path id="パス_22463" data-name="パス 22463" d="M103.7,113.477a.822.822,0,0,0,.421.259.833.833,0,0,0,.836-1.353.833.833,0,0,0-1.436.339.831.831,0,0,0,.179.754" transform="translate(-57.213 9.507)" fill="#dde4ac"/>
      <path id="パス_22464" data-name="パス 22464" d="M104.436,110.622a.822.822,0,0,0,.421.259.833.833,0,0,0,.836-1.353.833.833,0,0,0-1.436.339.831.831,0,0,0,.179.754" transform="translate(-56.814 7.959)" fill="#dde4ac"/>
      <path id="パス_22465" data-name="パス 22465" d="M113.88,94.809a5.053,5.053,0,1,1-.5,7.129,5.054,5.054,0,0,1,.5-7.129" transform="translate(-52.523 -0.541)" fill="#489c46"/>
      <path id="パス_22466" data-name="パス 22466" d="M124.569,93.533a32.911,32.911,0,0,0,51.44-40.963q-.865-1.189-1.812-2.278a32.65,32.65,0,0,0-5.713-5.19.8.8,0,0,1-1.1-.748,32.868,32.868,0,0,0-7.258-3.55.8.8,0,0,1-.868-.228c-.02-.025-.039-.049-.057-.076a33.289,33.289,0,0,0-4.157-1.006.846.846,0,0,1-.123.136.8.8,0,0,1-1.28-.35A32.894,32.894,0,0,0,138.629,40.8a.8.8,0,0,1,.157,1.313.8.8,0,0,1-1.26-.908,32.94,32.94,0,0,0-14.77,50.052q.865,1.189,1.812,2.278m17.156-49.26a.8.8,0,1,1-1.126-.079.8.8,0,0,1,1.126.079m2.858,3.288a.8.8,0,1,1-1.126-.079.8.8,0,0,1,1.126.079m2.86,3.288a.8.8,0,1,1-1.127-.079.8.8,0,0,1,1.127.079m-3.112-8.841a.8.8,0,1,1-1.126-.08.8.8,0,0,1,1.126.08m2.858,3.288a.8.8,0,1,1-1.126-.08.8.8,0,0,1,1.126.08m2.858,3.288a.8.8,0,1,1-1.124-.08.8.8,0,0,1,1.124.08m2.858,3.287a.8.8,0,1,1-1.124-.079.8.8,0,0,1,1.124.079m-5.969-12.129a.8.8,0,1,1-1.126-.079.8.8,0,0,1,1.126.079m2.858,3.288a.8.8,0,1,1-1.126-.079.8.8,0,0,1,1.126.079m2.86,3.288a.8.8,0,1,1-1.127-.079.8.8,0,0,1,1.127.079m2.858,3.288a.8.8,0,1,1-1.126-.079.8.8,0,0,1,1.126.079m1.715,4.4c-.022-.02-.042-.042-.062-.063a.8.8,0,1,1,1.328-.193c-.42.1-.841.187-1.266.256M152.4,40.768a.8.8,0,1,1-1.126-.079.8.8,0,0,1,1.126.079m2.859,3.288a.8.8,0,1,1-1.126-.079.8.8,0,0,1,1.126.079m2.858,3.288a.8.8,0,1,1-1.126-.079.8.8,0,0,1,1.126.079m2.858,3.287a.8.8,0,1,1-1.126-.077.8.8,0,0,1,1.126.077m-3.112-8.839a.8.8,0,1,1-1.124-.079.8.8,0,0,1,1.124.079m2.858,3.288A.8.8,0,1,1,159.594,45a.8.8,0,0,1,1.124.079m2.86,3.288a.8.8,0,1,1-1.126-.079.8.8,0,0,1,1.126.079m-.253-5.554a.8.8,0,1,1-1.126-.077.8.8,0,0,1,1.126.077m2.858,3.288a.8.8,0,1,1-1.126-.079.8.8,0,0,1,1.126.079" transform="translate(-50.176 -30.137)" fill="#e5b2b4"/>
      <path id="パス_22467" data-name="パス 22467" d="M80.865,118.7a30.024,30.024,0,0,0,24.582,10.284,14.479,14.479,0,0,1,2.947-4.38.816.816,0,0,1-.1-.1.833.833,0,1,1,1.255-1.1.728.728,0,0,1,.066.088,14.656,14.656,0,0,1,3.782-2.226.423.423,0,0,1-.06-.014.831.831,0,0,1-.6-1.013.83.83,0,0,1,1.013-.6.818.818,0,0,1,.42.259.834.834,0,0,1,.017,1.075,14.5,14.5,0,0,1,8.25-.29,15.072,15.072,0,0,1,1.442.452,30.072,30.072,0,1,0-43.013-2.44m10.1,4.618a.832.832,0,0,1-.836,1.353.818.818,0,0,1-.42-.259.832.832,0,1,1,1.255-1.094m3.489.9a.832.832,0,1,1-.42-.261.829.829,0,0,1,.42.261m3.49.9a.834.834,0,0,1-.837,1.354.833.833,0,0,1,.416-1.613.839.839,0,0,1,.421.259m-2.355-5.3a.833.833,0,1,1-.42-.259.83.83,0,0,1,.42.259m5.844,6.2a.833.833,0,1,1-1.257,1.094.833.833,0,0,1,.836-1.353.839.839,0,0,1,.421.259m-2.355-5.3a.833.833,0,1,1-.42-.259.818.818,0,0,1,.42.259m5.842,6.2a.833.833,0,1,1-1.255,1.1.824.824,0,0,1-.177-.754.831.831,0,0,1,1.433-.341m-2.354-5.3a.832.832,0,0,1-.836,1.353.817.817,0,0,1-.42-.259.832.832,0,0,1,.836-1.353.817.817,0,0,1,.42.259m-2.354-5.3a.833.833,0,0,1-.836,1.353.833.833,0,0,1-.6-1.015c.009-.029.019-.059.029-.088q.643-.2,1.3-.352a.816.816,0,0,1,.1.1m5.842,6.2a.833.833,0,1,1-.42-.259.833.833,0,0,1,.42.259m-2.354-5.3a.833.833,0,0,1-.836,1.354.828.828,0,0,1-.421-.259.834.834,0,0,1,1.257-1.1m3.489.9a.833.833,0,0,1-.836,1.354.849.849,0,0,1-.421-.259.834.834,0,0,1,1.257-1.1m3.489.9a.833.833,0,1,1-.42-.259.817.817,0,0,1,.42.259" transform="translate(-73.488 -13.922)" fill="#45a748"/>
      <path id="パス_22468" data-name="パス 22468" d="M84.078,105.376a.818.818,0,0,0,.42.259.833.833,0,1,0-.42-.259" transform="translate(-67.855 5.114)" fill="#37a244"/>
      <path id="パス_22469" data-name="パス 22469" d="M86.34,105.959a.817.817,0,0,0,.42.259.832.832,0,0,0,.836-1.353.818.818,0,0,0-.42-.259.832.832,0,0,0-.836,1.353" transform="translate(-66.629 5.43)" fill="#37a244"/>
      <path id="パス_22470" data-name="パス 22470" d="M87.075,103.1a.818.818,0,0,0,.42.259.833.833,0,1,0-.42-.259" transform="translate(-66.23 3.881)" fill="#37a244"/>
      <path id="パス_22471" data-name="パス 22471" d="M88.6,106.542a.818.818,0,0,0,.42.259.833.833,0,1,0-.42-.259" transform="translate(-65.402 5.746)" fill="#37a244"/>
      <path id="パス_22472" data-name="パス 22472" d="M89.337,103.686a.818.818,0,0,0,.42.259.833.833,0,1,0-.42-.259" transform="translate(-65.003 4.197)" fill="#37a244"/>
      <path id="パス_22473" data-name="パス 22473" d="M90.073,100.766a.832.832,0,1,0,1.255-1.094.729.729,0,0,0-.1-.1c-.438.1-.873.219-1.3.352a.861.861,0,0,0-.028.089.831.831,0,0,0,.179.754" transform="translate(-64.604 2.714)" fill="#37a244"/>
      <path id="パス_22474" data-name="パス 22474" d="M90.864,107.125a.822.822,0,0,0,.421.259.833.833,0,0,0,.836-1.353.841.841,0,0,0-.421-.261.834.834,0,0,0-.836,1.354" transform="translate(-64.175 6.062)" fill="#37a244"/>
      <path id="パス_22475" data-name="パス 22475" d="M91.6,104.27a.824.824,0,0,0,.42.259.831.831,0,1,0-.42-.259" transform="translate(-63.776 4.514)" fill="#37a244"/>
      <path id="パス_22476" data-name="パス 22476" d="M92.335,101.414a.824.824,0,0,0,.42.259.833.833,0,1,0-.42-.259" transform="translate(-63.377 2.965)" fill="#37a244"/>
      <path id="パス_22477" data-name="パス 22477" d="M93.126,107.708a.824.824,0,0,0,.42.259.833.833,0,0,0,.836-1.354.818.818,0,0,0-.42-.259.834.834,0,0,0-.836,1.354" transform="translate(-62.948 6.378)" fill="#37a244"/>
      <path id="パス_22478" data-name="パス 22478" d="M93.862,104.852a.832.832,0,1,0,1.255-1.094.818.818,0,0,0-.42-.259.833.833,0,0,0-.836,1.353" transform="translate(-62.549 4.83)" fill="#37a244"/>
      <path id="パス_22479" data-name="パス 22479" d="M94.6,102a.822.822,0,0,0,.421.259.833.833,0,0,0,.836-1.353.841.841,0,0,0-.421-.261A.834.834,0,0,0,94.6,102" transform="translate(-62.15 3.281)" fill="#37a244"/>
      <path id="パス_22480" data-name="パス 22480" d="M96.124,105.435a.815.815,0,0,0,.1.1,14.751,14.751,0,0,1,1.217-1.109.727.727,0,0,0-.066-.088.832.832,0,0,0-1.433.341.826.826,0,0,0,.177.754" transform="translate(-61.322 5.146)" fill="#37a244"/>
      <path id="パス_22481" data-name="パス 22481" d="M96.859,102.58a.817.817,0,0,0,.42.259.831.831,0,1,0-.42-.259" transform="translate(-60.923 3.597)" fill="#37a244"/>
      <path id="パス_22482" data-name="パス 22482" d="M99.121,103.163a.817.817,0,0,0,.42.259c.02.006.04.009.06.014q.393-.157.793-.292a.81.81,0,0,0,.162-.321.832.832,0,1,0-1.434.339" transform="translate(-59.696 3.914)" fill="#37a244"/>
      <path id="パス_22483" data-name="パス 22483" d="M94.209,110.936q.828-.051,1.652-.148a.833.833,0,0,1,.891-1.283.817.817,0,0,1,.42.259.83.83,0,0,1,.179.754c0,.02-.011.04-.017.06a29.988,29.988,0,0,0,7.033-2.093.821.821,0,0,1-.338-.233.833.833,0,0,1,.836-1.354.818.818,0,0,1,.42.259.833.833,0,0,1,.179.756c-.008.026-.015.052-.025.077a30.146,30.146,0,0,0,6.612-4.373c.2-.173.4-.349.589-.526-.467-.173-.95-.324-1.442-.452a14.5,14.5,0,0,0-8.252.29.83.83,0,0,1-.791.292,14.63,14.63,0,0,0-3.782,2.226.832.832,0,0,1-.9,1.266.828.828,0,0,1-.315-.157,14.451,14.451,0,0,0-2.947,4.38m7.587-4.678a.833.833,0,0,1-.836,1.354.818.818,0,0,1-.42-.259.833.833,0,0,1,.836-1.354.818.818,0,0,1,.42.259m4.82-2.841c0,.031-.011.06-.019.091a.832.832,0,0,1-1.013.6.841.841,0,0,1-.421-.261.834.834,0,0,1,.483-1.367q.5.451.97.936" transform="translate(-62.25 4.127)" fill="#37a244"/>
      <path id="パス_22484" data-name="パス 22484" d="M95.334,108.22c.492-.057.982-.128,1.471-.21.006-.02.012-.039.017-.059a.832.832,0,1,0-1.488.268" transform="translate(-61.721 6.695)" fill="#2a9f43"/>
      <path id="パス_22485" data-name="パス 22485" d="M96.12,105.406a.833.833,0,0,0,1.217-1.109,14.506,14.506,0,0,0-1.217,1.109" transform="translate(-61.213 5.277)" fill="#2a9f43"/>
      <path id="パス_22486" data-name="パス 22486" d="M98.386,106.018a.833.833,0,0,0,1.434-.339.837.837,0,0,0-.177-.756.834.834,0,0,0-1.257,1.1" transform="translate(-60.095 5.462)" fill="#2a9f43"/>
      <path id="パス_22487" data-name="パス 22487" d="M99.361,102.956a.831.831,0,0,0,.793-.292c-.267.089-.532.187-.793.292" transform="translate(-59.455 4.392)" fill="#2a9f43"/>
      <path id="パス_22488" data-name="パス 22488" d="M100.648,106.6a.831.831,0,0,0,.338.233c.361-.157.717-.321,1.072-.494a.767.767,0,0,0,.025-.079.837.837,0,0,0-.177-.756.849.849,0,0,0-.421-.259.833.833,0,0,0-.836,1.354" transform="translate(-58.868 5.778)" fill="#2a9f43"/>
      <path id="パス_22489" data-name="パス 22489" d="M101.384,103.742a.818.818,0,0,0,.42.259.833.833,0,0,0,1.015-.6c.008-.031.014-.062.019-.091q-.467-.486-.97-.938a.835.835,0,0,0-.483,1.368" transform="translate(-58.469 4.234)" fill="#2a9f43"/>
      <path id="パス_22490" data-name="パス 22490" d="M110.727,106.294a3.088,3.088,0,0,0-1.1-1.268q.287.3.558.606c.187.214.367.436.541.662" transform="translate(-53.888 5.672)" fill="#4e484c"/>
      <path id="パス_22491" data-name="パス 22491" d="M107.288,109.8a3.083,3.083,0,0,0,5.118-3.333q-.261-.338-.543-.66c-.179-.208-.366-.41-.557-.606a3.083,3.083,0,0,0-4.018,4.6" transform="translate(-55.566 5.495)" fill="#4d4748"/>
      <path id="パス_22492" data-name="パス 22492" d="M89.863,77.126c.162.185.327.372.5.554A26.447,26.447,0,0,0,127.171,79.6c.193-.168.386-.339.575-.514a26.464,26.464,0,0,0,2.218-36.819q-.243-.28-.5-.554a26.616,26.616,0,0,0-43.423,6.739l.008,0A26.375,26.375,0,0,0,89.1,76.2l.009.011.032.04.012.015c.031.04.063.079.094.119l.02.025.025.029.025.031.02.025c.014.017.029.037.045.054l.012.015c.012.014.023.029.037.045l.014.017.035.043.012.015.1.117.009.012c.015.017.031.034.045.052l.006.006.1.123,0,0c.019.02.035.042.052.062l0,0c.017.02.035.042.054.062" transform="translate(-68.083 -33.254)" fill="#b6c836"/>
      <path id="パス_22493" data-name="パス 22493" d="M88.6,74.177q.271.312.551.617a29.6,29.6,0,0,0,41.785,1.578l-2.1-2.281q-.285.261-.575.514A26.448,26.448,0,0,1,91.45,72.679q-.252-.273-.5-.554l-.056-.063v0c-.019-.02-.035-.04-.052-.06l0,0c-.035-.04-.071-.082-.106-.123l0-.006-.045-.052-.009-.011c-.034-.04-.066-.079-.1-.119l-.012-.014-.037-.043-.014-.019-.037-.045-.012-.014c-.014-.019-.029-.037-.043-.054l-.02-.025-.026-.031-.023-.031-.02-.025c-.032-.039-.063-.079-.1-.117l-.012-.017-.031-.039-.009-.012a26.377,26.377,0,0,1-3.051-27.747,27.458,27.458,0,0,1-2.96-.978,29.5,29.5,0,0,0,4.42,31.7" transform="translate(-69.174 -28.251)" fill="#e6efe2"/>
      <path id="パス_22494" data-name="パス 22494" d="M89.81,71.719v0m-.052-.062,0,0,0,0m-.108-.126,0-.006,0,.006m-.049-.059-.009-.011.009.011m-.108-.128-.012-.015.012.015m-.049-.059-.014-.019.014.019m-.051-.063-.012-.014.012.014m-.057-.068-.019-.025.019.025m-.045-.056-.023-.031.023.031m-.043-.056c-.032-.039-.063-.079-.1-.117.032.039.063.079.1.117m-.108-.134-.032-.039.032.039m-.04-.051a26.373,26.373,0,0,1-3.045-27.744l-.006,0A26.377,26.377,0,0,0,89.1,70.858m38.073,3.4q.292-.252.575-.514-.285.261-.575.514" transform="translate(-68.085 -27.907)" fill="#a5bf37"/>
    </g>
  </g>
</svg>
