<svg xmlns="http://www.w3.org/2000/svg" xmlns:xlink="http://www.w3.org/1999/xlink" viewBox="0 0 59.34 47.24"><defs><style>.cls-1,.cls-4,.cls-6{fill:none;}.cls-2{clip-path:url(#clip-path);}.cls-3{fill:#b5b5b6;}.cls-4,.cls-6{stroke:#b5b5b6;stroke-miterlimit:10;}.cls-4{stroke-width:0.35px;}.cls-5{fill:#fff;}.cls-6{stroke-width:0.14px;}</style><clipPath id="clip-path" transform="translate(-0.31 -0.26)"><rect class="cls-1" width="60" height="47.95"/></clipPath></defs><g id="レイヤー_2" data-name="レイヤー 2"><g id="特集1-1"><g class="cls-2"><path class="cls-3" d="M.53,14.9l2.8-.75-.09-.35.25-.31A20.79,20.79,0,0,1,13.48,7a20.92,20.92,0,0,1,11.73.45l.36.13.24-.29A21,21,0,0,1,35.75,1a20.79,20.79,0,0,1,11.88.62l.38.15.09.34,2.67-.71L59.41,33.7l-1.22-.17c-.08,0-8.29-1.16-13.85.33-1.26.34-3.17.85-7.38,3.81-.55.39-1,.73-1.44,1l-.1.06-2.78.74-.16,0c-.23,0-.5-.07-.81-.13a19.4,19.4,0,0,0-9.23.44c-6.05,1.62-12.22,6.61-12.28,6.66l-1,.8Z" transform="translate(-0.31 -0.26)"/><path class="cls-4" d="M.53,14.9l2.8-.75-.09-.35.25-.31A20.79,20.79,0,0,1,13.48,7a20.92,20.92,0,0,1,11.73.45l.36.13.24-.29A21,21,0,0,1,35.75,1a20.79,20.79,0,0,1,11.88.62l.38.15.09.34,2.67-.71L59.41,33.7l-1.22-.17c-.08,0-8.29-1.16-13.85.33-1.26.34-3.17.85-7.38,3.81-.55.39-1,.73-1.44,1l-.1.06-2.78.74-.16,0c-.23,0-.5-.07-.81-.13a19.4,19.4,0,0,0-9.23.44c-6.05,1.62-12.22,6.61-12.28,6.66l-1,.8Z" transform="translate(-0.31 -0.26)"/><path class="cls-5" d="M54.49,29.13,47.33,2.42A20.18,20.18,0,0,0,36,1.82a20.42,20.42,0,0,0-9.51,6l7.21,26.91s4.26-4.29,9.4-5.67,11.44.08,11.44.08m-22.36,6L24.92,8.22a20.28,20.28,0,0,0-11.23-.43A20.21,20.21,0,0,0,4.13,14l7.16,26.72S16,36.3,21.15,34.92s11,.21,11,.21M48.45,2.9l7.49,27.43A24.89,24.89,0,0,0,43.31,30a21.18,21.18,0,0,0-10.16,6.42s-6.23-2-11.74-.55-10.6,6.53-10.6,6.53L3.45,15l-1.92.51L9.64,45.76s6.3-5.13,12.59-6.82a20.71,20.71,0,0,1,10.35-.32l2.52-.68c1.63-1,4.69-3.7,9-4.86,5.79-1.55,14.18-.36,14.18-.36L50.19,2.43Z" transform="translate(-0.31 -0.26)"/><path class="cls-6" d="M54.49,29.13,47.33,2.42A20.18,20.18,0,0,0,36,1.82a20.42,20.42,0,0,0-9.51,6l7.21,26.91s4.26-4.29,9.4-5.67S54.49,29.13,54.49,29.13Zm-22.36,6L24.92,8.22a20.28,20.28,0,0,0-11.23-.43A20.21,20.21,0,0,0,4.13,14l7.16,26.72S16,36.3,21.15,34.92,32.13,35.13,32.13,35.13ZM48.45,2.9l7.49,27.43A24.89,24.89,0,0,0,43.31,30a21.18,21.18,0,0,0-10.16,6.42s-6.23-2-11.74-.55-10.6,6.53-10.6,6.53L3.45,15l-1.92.51L9.64,45.76s6.3-5.13,12.59-6.82a20.71,20.71,0,0,1,10.35-.32l2.52-.68c1.63-1,4.69-3.7,9-4.86,5.79-1.55,14.18-.36,14.18-.36L50.19,2.43Z" transform="translate(-0.31 -0.26)"/></g></g></g></svg>