<?xml version="1.0" encoding="utf-8"?>
<!-- Generator: Adobe Illustrator 24.3.0, SVG Export Plug-In . SVG Version: 6.00 Build 0)  -->
<svg version="1.1" id="レイヤー_1" xmlns="http://www.w3.org/2000/svg" xmlns:xlink="http://www.w3.org/1999/xlink" x="0px"
	 y="0px" viewBox="0 0 47.5 31.8" style="enable-background:new 0 0 47.5 31.8;" xml:space="preserve">
<style type="text/css">
	.st0{fill:none;stroke:#00A2D9;stroke-width:1.78;stroke-linecap:round;stroke-linejoin:round;}
	.st1{fill:none;stroke:#00A2D9;stroke-width:1.78;stroke-linecap:round;stroke-miterlimit:10;}
	.st2{fill:none;stroke:#00A2D9;stroke-width:1.64;stroke-linecap:round;stroke-linejoin:round;}
</style>
<g id="レイヤー_2_1_">
	<g id="rayout">
		<path class="st0" d="M22.2,28.4L22.2,28.4c0-0.9-0.5-1.8-1.3-2.2l-0.6-0.3h2c1.4,0,2.5-1.1,2.5-2.5c0,0,0,0,0,0l0,0
			c0-0.8-0.4-1.5-1-2c-0.2-0.1-0.4-0.2-0.5-0.3l-0.5-0.2h2.1c1.4,0,2.5-1.1,2.5-2.5l0,0l0,0c0-1.2-0.9-2.3-2.1-2.5h11
			c1.6,0,3-1.3,3-2.9l0,0c0-1.6-1.4-3-3-2.9H16.7l0.6-0.4l4.8-3.3c1.4-0.9,1.7-2.7,0.8-4.1c0,0,0-0.1-0.1-0.1l0,0
			c-0.9-1.4-2.7-1.7-4.1-0.8c0,0,0,0,0,0c0,0-0.8,0.5-1,0.6l-3.4,2.4L6.8,9.6c-0.8,0.5-1.5,1-2.2,1.6c-2.3,2.1-3.7,5.2-3.7,8.3
			c0,1.2,0.1,2.3,0.4,3.5c1,4.5,5,7.8,9.6,7.9h8.8C21,30.9,22.2,29.8,22.2,28.4C22.2,28.4,22.2,28.4,22.2,28.4z"/>
		<path class="st1" d="M21.9,25.9h-3.4 M24.4,20.9h-4.2 M26.6,15.9h-4.8"/>
		<path class="st2" d="M45.1,17.4c-2.4,3.4-7,4.3-10.6,2.3 M33.8,6.1c3.1-2.3,7.4-2,10.2,0.5 M44,6.6c3.1,2.8,3.6,7.4,1.1,10.8"/>
	</g>
</g>
</svg>
