<svg xmlns="http://www.w3.org/2000/svg" width="156.125" height="153.543" viewBox="0 0 156.125 153.543">
  <g id="グループ_366" data-name="グループ 366" transform="translate(156.125) rotate(90)">
    <path id="パス_20944" data-name="パス 20944" d="M0,96.4,146.393,72.68a74.616,74.616,0,0,0,7.148-31.953V0L0,75.852Z" transform="translate(0.001 40.466)" fill="#0068b2"/>
    <path id="パス_20945" data-name="パス 20945" d="M0,72.869v5.089L153.542,39.74V0H90.909L.759,62.413A73.28,73.28,0,0,0,0,72.869" transform="translate(0.001 0)" fill="#0083c1"/>
    <path id="パス_20946" data-name="パス 20946" d="M0,42.978H78.609A74.933,74.933,0,0,0,146.393,0L0,23.72Z" transform="translate(0.001 113.147)" fill="#005aab"/>
    <path id="パス_20947" data-name="パス 20947" d="M0,76.578,153.542.727V0L0,38.218Z" transform="translate(0.001 39.739)" fill="#0076ba"/>
    <path id="パス_20948" data-name="パス 20948" d="M0,62.413,90.152,0H72.11A72.875,72.875,0,0,0,0,62.413" transform="translate(0.759 0)" fill="#008fc6"/>
    <path id="パス_20949" data-name="パス 20949" d="M.759,62.413A73.5,73.5,0,0,0,0,72.869v83.256H78.61a74.915,74.915,0,0,0,74.931-74.933V0H72.869A72.875,72.875,0,0,0,.759,62.413Z" transform="translate(0 0)" fill="none"/>
  </g>
</svg>
