<svg xmlns="http://www.w3.org/2000/svg" width="156.125" height="153.543" viewBox="0 0 156.125 153.543">
  <g id="グループ_366" data-name="グループ 366" transform="translate(156.125) rotate(90)">
    <path id="パス_20944" data-name="パス 20944" d="M0,0,146.393,23.722a74.615,74.615,0,0,1,7.148,31.953V96.4L0,20.549Z" transform="translate(0.001 19.258)" fill="#0068b2"/>
    <path id="パス_20945" data-name="パス 20945" d="M0,5.089V0L153.542,38.218v39.74H90.909L.759,15.545A73.28,73.28,0,0,1,0,5.089" transform="translate(0.001 78.167)" fill="#0083c1"/>
    <path id="パス_20946" data-name="パス 20946" d="M0,0H78.609a74.933,74.933,0,0,1,67.784,42.978L0,19.258Z" transform="translate(0.001 0)" fill="#005aab"/>
    <path id="パス_20947" data-name="パス 20947" d="M0,0,153.542,75.851v.727L0,38.36Z" transform="translate(0.001 39.808)" fill="#0076ba"/>
    <path id="パス_20948" data-name="パス 20948" d="M0,0,90.152,62.413H72.11A72.875,72.875,0,0,1,0,0" transform="translate(0.759 93.712)" fill="#008fc6"/>
    <path id="パス_20949" data-name="パス 20949" d="M.759,93.712A73.5,73.5,0,0,1,0,83.256V0H78.61a74.915,74.915,0,0,1,74.931,74.933v81.192H72.869A72.875,72.875,0,0,1,.759,93.712Z" transform="translate(0 0)" fill="none"/>
  </g>
</svg>
