<svg id="logo" xmlns="http://www.w3.org/2000/svg" width="236.03" height="70.143" viewBox="0 0 236.03 70.143">
  <path id="パス_3979" data-name="パス 3979" d="M12.77,36.56,31.43,23.82V18.05L12.76,30.92Z" fill="#004ea2"/>
  <g id="グループ_84" data-name="グループ 84">
    <path id="パス_3980" data-name="パス 3980" d="M35.91,3.43V9.56L24.64,17.29a9.909,9.909,0,0,0-4.31,8.18v.24l11.11-7.66v5.77L20.33,31.41v17.9l-5.07-.12V25.46a15,15,0,0,1,6.5-12.32Z" fill="#00afec"/>
    <path id="パス_3981" data-name="パス 3981" d="M35.91,3.43V21a9.9,9.9,0,0,1-4.29,8.17l-8.77,6.05v6.11l11.59-8A15,15,0,0,0,40.94,21V0Z" fill="#abcd03"/>
    <path id="パス_3982" data-name="パス 3982" d="M15.26,49.19v1.08a2.49,2.49,0,0,0,3.9,2.06l3.29-2.24-.1-5.75Z" fill="#004ea2"/>
    <path id="パス_3983" data-name="パス 3983" d="M9.47,63.12h.58a1.65,1.65,0,0,0,1.8-1.482,1.515,1.515,0,0,0,.008-.178,1.69,1.69,0,0,0-1.68-1.7h-.03a1.629,1.629,0,0,0-1.61,1.42H6.86a3.342,3.342,0,1,1,6.68.24,2.69,2.69,0,0,1-1.25,2.42,3,3,0,0,1,1.38,2.57A3.441,3.441,0,0,1,10.385,70c-.088,0-.177,0-.265,0a3.34,3.34,0,0,1-3.33-3H8.47a1.751,1.751,0,0,0,1.74,1.33,1.86,1.86,0,0,0,0-3.72H9.47Z" fill="#848485"/>
    <path id="パス_3984" data-name="パス 3984" d="M14.94,61.46a3.33,3.33,0,0,1,6.65-.365,3.175,3.175,0,0,1,0,.365v5.17A3.23,3.23,0,0,1,18.5,70c-.078,0-.156,0-.234,0a3.239,3.239,0,0,1-3.331-3.146c0-.075,0-.149,0-.224Zm5,.1a1.65,1.65,0,0,0-3.29-.257,1.575,1.575,0,0,0,0,.257v5a1.65,1.65,0,0,0,3.29.257,1.575,1.575,0,0,0,0-.257Z" fill="#848485"/>
    <path id="パス_3985" data-name="パス 3985" d="M27.39,58.18h6.24v1.68H29v2.65a2.884,2.884,0,0,1,1.88-.64,2.94,2.94,0,0,1,2.09.85c.64.69.92,1.27.92,3.21a3.883,3.883,0,0,1-.73,2.82A3.231,3.231,0,0,1,30.6,70a3.28,3.28,0,0,1-3.43-3h1.68a1.6,1.6,0,0,0,1.68,1.37c1.65,0,1.65-1.41,1.65-2.52,0-1.3-.31-2.25-1.7-2.25a1.6,1.6,0,0,0-1.51,1H27.39Z" fill="#848485"/>
    <path id="パス_3986" data-name="パス 3986" d="M35,61.46a3.33,3.33,0,0,1,6.65-.365,3.175,3.175,0,0,1,0,.365v5.17A3.33,3.33,0,0,1,35,67a3.175,3.175,0,0,1,0-.365Zm5,.1a1.65,1.65,0,0,0-3.29-.257,1.575,1.575,0,0,0,0,.257v5a1.65,1.65,0,0,0,3.29.257,1.575,1.575,0,0,0,0-.257Z" fill="#848485"/>
    <path id="パス_3987" data-name="パス 3987" d="M23.37,62.56l2.23,1.53-2.23,1.53Z" fill="#848485"/>
    <path id="パス_3988" data-name="パス 3988" d="M2.86,62.56l2.22,1.53L2.86,65.62Z" fill="#848485"/>
    <path id="パス_3989" data-name="パス 3989" d="M0,62.56l2.23,1.53L0,65.62Z" fill="#848485"/>
    <path id="パス_3990" data-name="パス 3990" d="M46.32,62.56l2.23,1.53-2.23,1.53Z" fill="#848485"/>
    <path id="パス_3991" data-name="パス 3991" d="M43.46,62.56l2.23,1.53-2.23,1.53Z" fill="#848485"/>
    <path id="パス_3992" data-name="パス 3992" d="M62.25,42.12l-2-4.13H58.77v4.13h-2V31.76h4.06a3.13,3.13,0,0,1,3.352,2.891c.007.093.009.186.008.279a2.81,2.81,0,0,1-1.89,2.73l2.31,4.46Zm-1.57-8.55H58.77V36.3h1.91a1.37,1.37,0,0,0,.234-2.73,1.306,1.306,0,0,0-.234,0" fill="#e60012"/>
    <path id="パス_3993" data-name="パス 3993" d="M72.75,42.12l-4.1-6.36v6.36H66.63V31.76h1.8l4.1,6.35V31.76h2.03V42.12Z" fill="#e60012"/>
    <path id="パス_3994" data-name="パス 3994" d="M85.18,33.57v8.55H83.16V33.57H80.45V31.76h7.43v1.81Z" fill="#848485"/>
    <path id="パス_3995" data-name="パス 3995" d="M95.42,42.12V37.79h-3.5v4.33H89.89V31.76h2.03V36h3.5V31.76h2.03V42.12Z" fill="#848485"/>
    <path id="パス_3996" data-name="パス 3996" d="M100.14,42.12V31.76h6.82v1.81h-4.8V36h4.09v1.8h-4.09v2.52h4.8v1.8Z" fill="#848485"/>
    <path id="パス_3997" data-name="パス 3997" d="M115.21,33.57v2.54h4.09v1.81h-4.09v4.2h-2.02V31.76h6.83v1.81Z"/>
    <path id="パス_3998" data-name="パス 3998" d="M125.82,42.21a3.6,3.6,0,0,1-3.814-3.373Q122,38.7,122,38.57V31.76h2V38.5a1.8,1.8,0,1,0,3.59.268,1.712,1.712,0,0,0,0-.268V31.76h2v6.81a3.6,3.6,0,0,1-3.554,3.646c-.085,0-.171,0-.256-.006"/>
    <path id="パス_3999" data-name="パス 3999" d="M136.3,33.57v8.55h-2.02V33.57h-2.71V31.76H139v1.81Z"/>
    <path id="パス_4000" data-name="パス 4000" d="M144.75,42.21a3.6,3.6,0,0,1-3.8-3.384c-.005-.085-.007-.17-.006-.256V31.76h2V38.5a1.8,1.8,0,1,0,3.59.268,1.712,1.712,0,0,0,0-.268V31.76h2v6.81a3.6,3.6,0,0,1-3.554,3.646c-.085,0-.171,0-.256-.006"/>
    <path id="パス_4001" data-name="パス 4001" d="M156.65,42.12l-2-4.13h-1.46v4.13h-2V31.76h4.06a3.13,3.13,0,0,1,3.352,2.891c.007.093.009.186.008.279a2.809,2.809,0,0,1-1.89,2.73L159,42.12Zm-1.57-8.55h-1.91V36.3h1.91a1.37,1.37,0,0,0,.234-2.73,1.306,1.306,0,0,0-.234,0"/>
    <path id="パス_4002" data-name="パス 4002" d="M161.02,42.12V31.76h6.83v1.81h-4.8V36h4.08v1.8h-4.08v2.52h4.8v1.8Z"/>
    <path id="パス_4003" data-name="パス 4003" d="M178.09,38.22h-2v3.9h-2V31.76h4a3.24,3.24,0,0,1,.509,6.46,3.326,3.326,0,0,1-.509,0m-.1-4.65H176.1V36.4H178a1.42,1.42,0,0,0,.238-2.83,1.351,1.351,0,0,0-.238,0"/>
    <path id="パス_4004" data-name="パス 4004" d="M189.06,42.12,187,38h-1.46v4.13h-2V31.76h4.06a3.128,3.128,0,0,1,3.4,3.17,2.809,2.809,0,0,1-1.89,2.73l2.31,4.46Zm-1.57-8.55h-1.91V36.3h1.91a1.37,1.37,0,0,0,.234-2.73,1.306,1.306,0,0,0-.234,0"/>
    <path id="パス_4005" data-name="パス 4005" d="M199.65,41.07a4,4,0,0,1-5.6,0c-1.05-1-1-2.34-1-4.13s0-3.08,1-4.13a4,4,0,0,1,5.6,0c1,1,1,2.34,1,4.13s0,3.09-1,4.13m-1.5-7a1.693,1.693,0,0,0-1.29-.55,1.718,1.718,0,0,0-1.31.55c-.4.44-.5.92-.5,2.91s.1,2.48.5,2.91a1.687,1.687,0,0,0,1.31.56,1.658,1.658,0,0,0,1.29-.56c.39-.43.51-.91.51-2.91s-.12-2.47-.51-2.91"/>
    <path id="パス_4006" data-name="パス 4006" d="M204.57,42.21a3.389,3.389,0,0,1-2.66-1.06l1.34-1.33a1.622,1.622,0,0,0,1.32.59c1,0,1.63-.59,1.63-1.78V31.76h2v7a3.409,3.409,0,0,1-3.32,3.5c-.11,0-.22,0-.33-.007"/>
    <path id="パス_4007" data-name="パス 4007" d="M210.82,42.12V31.76h6.83v1.81h-4.8V36h4.09v1.8h-4.09v2.52h4.8v1.8Z"/>
    <path id="パス_4008" data-name="パス 4008" d="M223.29,42.21a3.821,3.821,0,0,1-2.8-1.14c-1-1-1-2.34-1-4.13s0-3.08,1-4.13a3.811,3.811,0,0,1,2.8-1.13A3.65,3.65,0,0,1,227.1,35h-2a1.72,1.72,0,0,0-1.75-1.47A1.647,1.647,0,0,0,222,34c-.4.43-.51.93-.51,2.92s.11,2.49.51,2.93a1.68,1.68,0,0,0,1.29.54,1.72,1.72,0,0,0,1.75-1.47h2a3.67,3.67,0,0,1-3.81,3.27"/>
    <path id="パス_4009" data-name="パス 4009" d="M233.32,33.57v8.55H231.3V33.57h-2.7V31.76h7.43v1.81Z"/>
    <path id="パス_4010" data-name="パス 4010" d="M107.3,47.56a9.94,9.94,0,0,0,.4,1.82l.73-.28.76-.25a1,1,0,0,0,.21-.09l.22.6a13.112,13.112,0,0,0-1.81.55c-.86.33-1.3.71-1.3,1.15,0,.27.18.46.54.55a4.828,4.828,0,0,0,.89.07,5.748,5.748,0,0,0,1.72-.22v.66a2.487,2.487,0,0,0-.44,0,11.3,11.3,0,0,1-1.3.07,3,3,0,0,1-1.58-.28,1,1,0,0,1-.48-.91,1.3,1.3,0,0,1,.5-1,3.976,3.976,0,0,1,.76-.48,11.794,11.794,0,0,1-.39-1.55,1.4,1.4,0,0,0-.1-.37Z"/>
    <path id="パス_4011" data-name="パス 4011" d="M111.86,49.75a2.031,2.031,0,0,0,.55.16l.45.07a7.275,7.275,0,0,1,.12-.89,7.527,7.527,0,0,1-.83-.14h-.18v-.53a3.567,3.567,0,0,0,1,.21,8.6,8.6,0,0,0,.13-1v-.09l.62.06a1.911,1.911,0,0,0-.09.38v.32l-.05.31h.22a4.989,4.989,0,0,0,1.11-.11v.55h-1.38c-.08.53-.09.65-.12.89h.32a4.426,4.426,0,0,0,1.07-.11v.54h-.17a7.477,7.477,0,0,1-.82,0h-.42v.46a.788.788,0,0,0,.23.62,1.1,1.1,0,0,0,.75.22c.72,0,1.17-.35,1.17-.91a1.293,1.293,0,0,0-.52-1,2.059,2.059,0,0,0,.58-.13,3.532,3.532,0,0,1,.27.34,1.572,1.572,0,0,1,.25.82,1.311,1.311,0,0,1-.52,1,2,2,0,0,1-1.23.36,1.736,1.736,0,0,1-1.15-.35,1.292,1.292,0,0,1-.38-1,3.341,3.341,0,0,1,0-.49,6.884,6.884,0,0,1-.82-.14.836.836,0,0,0-.2,0Z"/>
    <path id="パス_4012" data-name="パス 4012" d="M119.05,47.75a5.725,5.725,0,0,0-.31,1.38,11,11,0,0,0-.11,1.55v.51a3.439,3.439,0,0,1,.31-.88l.39.18a4.657,4.657,0,0,0-.49,1.65.6.6,0,0,0,0,.12h-.59a1.3,1.3,0,0,0,0-.25,10.173,10.173,0,0,1,.1-3.88,3.011,3.011,0,0,0,.08-.5Zm1.49,2.34a1.281,1.281,0,0,0-.41.82c0,.36.33.54,1,.54a3.674,3.674,0,0,0,1.33-.21v.61h-.21a6.125,6.125,0,0,1-1.17.11,1.619,1.619,0,0,1-1.36-.46,1.008,1.008,0,0,1-.17-.56,1.749,1.749,0,0,1,.51-1.11Zm-.85-1.8a3.777,3.777,0,0,0,1,.09,6,6,0,0,0,1.58-.15v.57l-.39.05a11.181,11.181,0,0,1-1.2.07,6.759,6.759,0,0,1-.83,0h-.16Z"/>
    <path id="パス_4013" data-name="パス 4013" d="M124,48.78a8.175,8.175,0,0,0,1.23-.25,7.575,7.575,0,0,1,1.65-.2c1.08,0,1.78.6,1.78,1.52a1.939,1.939,0,0,1-1.22,1.75,4.916,4.916,0,0,1-1.94.46,2.4,2.4,0,0,0-.25-.61,5.022,5.022,0,0,0,1.53-.22c.79-.26,1.25-.76,1.25-1.37s-.43-1-1.18-1a8.468,8.468,0,0,0-2.27.4,2.145,2.145,0,0,0-.44.16Z"/>
    <path id="パス_4014" data-name="パス 4014" d="M132.2,47.57a1.43,1.43,0,0,0-.09.37,2.5,2.5,0,0,1-.13.55,4.47,4.47,0,0,0,.94-.17v.55a.551.551,0,0,0-.19,0c-.21,0-.54.08-.91.11a11.031,11.031,0,0,1-.62,1.64,8.64,8.64,0,0,1-.4.77,1.49,1.49,0,0,0-.11.19l-.55-.31a4.128,4.128,0,0,0,.55-.9,8.17,8.17,0,0,0,.55-1.38h-.92v-.54a4.554,4.554,0,0,0,.72,0h.34a5.233,5.233,0,0,0,.18-1Zm2.61,4.51a3.33,3.33,0,0,0-.91-.73.6.6,0,0,1,0,.12,1,1,0,0,1-.21.6,1.2,1.2,0,0,1-.92.33c-.72,0-1.18-.34-1.18-.88s.48-.94,1.17-.94a2.7,2.7,0,0,1,.58.07,6.837,6.837,0,0,1,0-.73,2.387,2.387,0,0,1,.05-.54h.55a1.685,1.685,0,0,0-.08.55,7.035,7.035,0,0,0,.06.82,3.711,3.711,0,0,1,.93.54l.18.14a.29.29,0,0,0,.08.08Zm-2-1c-.41,0-.67.17-.67.43s.23.41.62.41.62-.18.62-.52v-.22a1.673,1.673,0,0,0-.56-.1m2-1.56a6.85,6.85,0,0,0-1.58-.79l.28-.45a8.448,8.448,0,0,1,1.56.75Z"/>
    <path id="パス_4015" data-name="パス 4015" d="M139.92,47.92a7.062,7.062,0,0,0-.71.64c-.28.26-.65.56-1.32,1.07-.19.14-.23.19-.23.26s0,.11.5.48a18.029,18.029,0,0,1,1.8,1.51l.16.14-.48.49a5.283,5.283,0,0,0-.74-.77,17.884,17.884,0,0,0-1.45-1.2c-.35-.27-.45-.42-.45-.65a.59.59,0,0,1,.18-.42,2.856,2.856,0,0,1,.49-.4,9.177,9.177,0,0,0,1.7-1.57Zm-.06,1.65a3.654,3.654,0,0,0-.54-.77l.36-.19a3.2,3.2,0,0,1,.54.75Zm.58-.33a4.068,4.068,0,0,0-.54-.75l.35-.19a3.538,3.538,0,0,1,.54.73Z"/>
    <path id="パス_4016" data-name="パス 4016" d="M151.55,47.5v.55a6.408,6.408,0,0,0,.15,1.31,4.833,4.833,0,0,0,.84,1.58,4.369,4.369,0,0,0,1.34,1.12,1.787,1.787,0,0,0-.38.52A5.7,5.7,0,0,1,152,51.2a4.765,4.765,0,0,1-.74-1.66,4.534,4.534,0,0,1-.42,1.19,3.9,3.9,0,0,1-.85,1.12,4.531,4.531,0,0,1-.95.72,1.611,1.611,0,0,0-.38-.48,3.89,3.89,0,0,0,1.31-1A4.587,4.587,0,0,0,151,48v-.47Z"/>
    <path id="パス_4017" data-name="パス 4017" d="M157,47.55a9.675,9.675,0,0,0,.39,1.82l.74-.27.76-.26.21-.08.21.59a13.446,13.446,0,0,0-1.8.55c-.87.33-1.3.71-1.3,1.15,0,.28.18.46.53.55a5.026,5.026,0,0,0,.9.07,6.129,6.129,0,0,0,1.71-.21v.65a2.693,2.693,0,0,0-.44,0,11.587,11.587,0,0,1-1.29.08,3.141,3.141,0,0,1-1.58-.29,1,1,0,0,1-.48-.91,1.31,1.31,0,0,1,.5-1,4.007,4.007,0,0,1,.76-.48,11.522,11.522,0,0,1-.4-1.55,2.624,2.624,0,0,0-.09-.37Z"/>
    <path id="パス_4018" data-name="パス 4018" d="M162.49,52.05a4.514,4.514,0,0,0,0,.57h-.57a3.121,3.121,0,0,0,0-.58V50.47a5.172,5.172,0,0,1-.7.57,1.814,1.814,0,0,0-.25-.48,4.218,4.218,0,0,0,1.64-1.74h-1a3.351,3.351,0,0,0-.47,0v-.53a3.073,3.073,0,0,0,.45,0H162v-.5a1.931,1.931,0,0,0,0-.43h.58a2.691,2.691,0,0,0,0,.44v.49h.27a1.9,1.9,0,0,0,.32,0l.24.25-.13.23a4.576,4.576,0,0,1-.59,1,3.449,3.449,0,0,0,.9.74,2.316,2.316,0,0,0-.26.46,3.015,3.015,0,0,1-.75-.67Zm2.37-.2h.76a4.881,4.881,0,0,0,.64,0v.59a4.022,4.022,0,0,0-.64,0h-2a3.9,3.9,0,0,0-.63,0v-.59a4.881,4.881,0,0,0,.64,0h.68V49.56h-.48a5.229,5.229,0,0,0-.56,0V49a2.758,2.758,0,0,0,.56,0h.48V48a5.225,5.225,0,0,0,0-.56h.6a2.5,2.5,0,0,0,0,.56v1.09h.65a2.758,2.758,0,0,0,.56,0v.56a4.755,4.755,0,0,0-.56,0h-.65Z"/>
    <path id="パス_4019" data-name="パス 4019" d="M168.49,49.2a5.6,5.6,0,0,1-1,.53,1.691,1.691,0,0,0-.29-.47,5,5,0,0,0,2.35-1.81h.56a3.783,3.783,0,0,0,.95,1,6.127,6.127,0,0,0,1.5.82,2.437,2.437,0,0,0-.28.52,6.948,6.948,0,0,1-1-.56v.45H169a3.21,3.21,0,0,0-.46,0Zm-.34,1.48a5.589,5.589,0,0,0-.66,0v-.55a6.056,6.056,0,0,0,.66,0h3.51a5.421,5.421,0,0,0,.65,0v.55a5.872,5.872,0,0,0-.65,0h-2a6.706,6.706,0,0,1-.64,1.2c1.33-.1,1.33-.1,2-.18-.24-.26-.35-.38-.62-.64l.44-.23a11.838,11.838,0,0,1,1.33,1.5l-.45.31c-.18-.28-.25-.37-.36-.52-.94.12-2,.23-2.86.29a3.232,3.232,0,0,0-.82.09l-.09-.58h.86a6.95,6.95,0,0,0,.65-1.23Zm2.66-1.53h.4a5.086,5.086,0,0,1-1.33-1.22,5.25,5.25,0,0,1-1.29,1.22,2.079,2.079,0,0,0,.37,0Z"/>
    <path id="パス_4020" data-name="パス 4020" d="M175.61,47.55a10.018,10.018,0,0,0,.39,1.82l.74-.28.76-.25.21-.09.21.6a13.16,13.16,0,0,0-1.8.55c-.87.33-1.3.71-1.3,1.15,0,.27.17.46.53.55a4.842,4.842,0,0,0,.9.07,6.1,6.1,0,0,0,1.71-.22v.65h-.44a9.6,9.6,0,0,1-1.29.08,3.159,3.159,0,0,1-1.58-.28,1,1,0,0,1-.49-.91,1.31,1.31,0,0,1,.51-1,3.328,3.328,0,0,1,.76-.48,11.525,11.525,0,0,1-.4-1.55,2.624,2.624,0,0,0-.09-.37Z"/>
    <path id="パス_4021" data-name="パス 4021" d="M180.15,48.151a2.266,2.266,0,0,0-.42,0v-.51a3.2,3.2,0,0,0,.48,0h.56a3.641,3.641,0,0,0,.49,0v.51a2.308,2.308,0,0,0-.39,0h-.07v1.2a2.192,2.192,0,0,0,.38,0v.48a2.192,2.192,0,0,0-.38,0V51l.59-.26v.49c-.53.24-.84.37-1.32.55a1.884,1.884,0,0,0-.29.12l-.14-.55a3.236,3.236,0,0,0,.67-.18v-1.38h-.11a2.117,2.117,0,0,0-.39,0V49.3a2.308,2.308,0,0,0,.39,0h.11V48.1Zm4.55,3c-.09.08-.49.39-.6.46a3.122,3.122,0,0,0,.93.4,3.964,3.964,0,0,0-.27.48,3.77,3.77,0,0,1-1-.57,2.39,2.39,0,0,1-.6-.62,4.093,4.093,0,0,1,0,.47v.37a3.21,3.21,0,0,0,0,.5h-.54a3.471,3.471,0,0,0,0-.52v-.6a1.206,1.206,0,0,1,0-.17,4.465,4.465,0,0,1-1.56,1.09,1.455,1.455,0,0,0-.32-.43,4.881,4.881,0,0,0,1-.49,3.189,3.189,0,0,0,.72-.61H182a2.487,2.487,0,0,0-.44,0,3.407,3.407,0,0,0,0-.35v-.8h3a3.407,3.407,0,0,0,0,.35v.46a3.215,3.215,0,0,0,0,.34.617.617,0,0,0-.21,0Zm-3.39-2.1a2.865,2.865,0,0,0,.54,0h2.49a4.422,4.422,0,0,0,.54,0v.47a4.26,4.26,0,0,0-.53,0h-2.51a3.906,3.906,0,0,0-.53,0Zm.12-1.12a2.115,2.115,0,0,0,0-.39h3.3v1.29h-3.3a1.955,1.955,0,0,0,0-.39Zm1,0h-.51v.49h.51Zm-.34,2.57h2v-.36h-2Zm1.22-2.5h-.5v.49h.5Zm-.05,2.95a4.18,4.18,0,0,0,.48.47,2.112,2.112,0,0,0,.54-.47h-1.02Zm1-2.95h-.53v.49h.53Z"/>
    <path id="パス_4022" data-name="パス 4022" d="M186.54,48.1a3.565,3.565,0,0,0,0-.62h.56a3.681,3.681,0,0,0,0,.63v.78h.42v.5a2.677,2.677,0,0,0-.42,0v1.49l.55-.27v.51c-.41.2-.74.34-1.37.6l-.25.11-.12-.55a3.52,3.52,0,0,0,.68-.21V49.35h-.16a2.357,2.357,0,0,0-.46,0v-.52a3.352,3.352,0,0,0,.47,0h.15Zm1.72,3.11h-.48a3.507,3.507,0,0,0,0-.41V49.35a3.743,3.743,0,0,0,.54,0h2.43a2.819,2.819,0,0,0,0,.45v.93a2.7,2.7,0,0,0,0,.44h-.92V52c0,.11,0,.13.42.13s.35,0,.38-.08a1.891,1.891,0,0,0,.06-.58,1.645,1.645,0,0,0,.47.17c0,.51-.08.68-.22.8s-.29.13-.75.13-.58,0-.7-.1a.31.31,0,0,1-.14-.3v-.92h-.47a1.6,1.6,0,0,1-.08.38,1.38,1.38,0,0,1-.69.78,3.415,3.415,0,0,1-.84.28,1.368,1.368,0,0,0-.28-.46c1-.13,1.35-.39,1.41-1Zm2.07-3.33a4.84,4.84,0,0,0,.59,0v.45a5.278,5.278,0,0,0-.59,0c-.09.2-.14.32-.22.47h.39a3.873,3.873,0,0,0,.57,0v.48a4.841,4.841,0,0,0-.59,0h-2.89v-.47a3.618,3.618,0,0,0,.51,0h.28a2.423,2.423,0,0,0-.19-.47h-.07a3.2,3.2,0,0,0-.48,0v-.45a4.839,4.839,0,0,0,.59,0H189v-.14a1.86,1.86,0,0,0,0-.35h.56a1.86,1.86,0,0,0,0,.35v.14Zm-2.06,2.24h2v-.29h-2Zm0,.7h2v-.33h-2Zm1.33-2.07a2.484,2.484,0,0,0,.22-.47h-1.13a2.327,2.327,0,0,1,.18.47Z"/>
    <rect id="長方形_64" data-name="長方形 64" width="236.03" height="70.142" transform="translate(0 0.001)" fill="none"/>
  </g>
</svg>
