<svg xmlns="http://www.w3.org/2000/svg" viewBox="0 0 256.35 73.25"><defs><style>.cls-1,.cls-4{fill:#8d8d8d;}.cls-2{fill:#3a96a5;}.cls-3{fill:#f49c00;}.cls-4{stroke:#8d8d8d;stroke-miterlimit:10;stroke-width:1.7px;}.cls-5{fill:none;}</style></defs><g id="レイヤー_2" data-name="レイヤー 2"><g id="レイヤー_1-2" data-name="レイヤー 1"><path class="cls-1" d="M104.76,69a18.19,18.19,0,0,1-3.23-1.15,12,12,0,0,1-4.33-3.32l.5-.33a13.84,13.84,0,0,0,4.47,3.68A17.31,17.31,0,0,0,104.76,69Zm11.1-.36A11.52,11.52,0,0,0,118,67.4a10.7,10.7,0,0,0,2.81-3A8.38,8.38,0,0,0,122,59.92a7.45,7.45,0,0,0-2.77-6.19A16.08,16.08,0,0,0,114,51.1a56.32,56.32,0,0,0-6.08-1.43,22.2,22.2,0,0,1-5.23-1.58,9.82,9.82,0,0,1-3.57-2.65,6.62,6.62,0,0,1-1.21-4.36,8.12,8.12,0,0,1,.91-4,8.81,8.81,0,0,1,2.52-2.86,10.31,10.31,0,0,1,1.81-1.08c-.31.16-.61.34-.9.52a9.67,9.67,0,0,0-2.79,2.73,7.39,7.39,0,0,0-1.27,4.22A7.1,7.1,0,0,0,101,46.71a16.57,16.57,0,0,0,5.25,2.46,54.82,54.82,0,0,0,6.08,1.33A21.25,21.25,0,0,1,117.54,52a9.45,9.45,0,0,1,3.53,2.72,7.7,7.7,0,0,1,1.25,4.82,9.54,9.54,0,0,1-.92,4.37A8.81,8.81,0,0,1,118.85,67,11.87,11.87,0,0,1,115.86,68.66Zm3.86-32.19a12.64,12.64,0,0,0-3.18-3,9.21,9.21,0,0,0-1.35-.73,12.61,12.61,0,0,1,1.68.7,9.65,9.65,0,0,1,3.32,2.74Z"/><path class="cls-1" d="M109.32,29.37a18.22,18.22,0,0,0-5,.7,13.89,13.89,0,0,0-4.44,2.16,11.43,11.43,0,0,0-3.22,3.65,10.52,10.52,0,0,0-1.23,5.2,8.93,8.93,0,0,0,1.81,6,12.42,12.42,0,0,0,4.44,3.3,25,25,0,0,0,5.81,1.76,52.64,52.64,0,0,1,5.82,1.37,13.18,13.18,0,0,1,4.44,2.2,5,5,0,0,1,1.81,4.22,5.84,5.84,0,0,1-.84,3.13,8.12,8.12,0,0,1-2.16,2.33,10.11,10.11,0,0,1-3,1.5,11.16,11.16,0,0,1-3.35.53,14.45,14.45,0,0,1-6.86-1.72,11.35,11.35,0,0,1-4.94-5l-4.66,3.17a14.66,14.66,0,0,0,6.73,6.25,22.63,22.63,0,0,0,9.65,2,19.12,19.12,0,0,0,5.54-.79A14.52,14.52,0,0,0,120.37,69a11.26,11.26,0,0,0,3.26-3.92,12,12,0,0,0,1.19-5.5,10,10,0,0,0-1.8-6.38,12,12,0,0,0-4.45-3.44A23.55,23.55,0,0,0,112.76,48,55,55,0,0,1,107,46.76a13.8,13.8,0,0,1-4.45-2.07,4.67,4.67,0,0,1-1.81-4,4.9,4.9,0,0,1,.84-2.82,7.11,7.11,0,0,1,2.07-2,10.58,10.58,0,0,1,2.77-1.24,10.88,10.88,0,0,1,2.95-.44,10.62,10.62,0,0,1,5.86,1.46,11.17,11.17,0,0,1,3.74,4.27L123.68,37A12.89,12.89,0,0,0,118,31.22a18.93,18.93,0,0,0-8.68-1.85Z"/><path class="cls-1" d="M78.9,60.91a3.16,3.16,0,0,1-2.51-1.24c-.41-.52-9.24-11.29-31.84-3.59-14.22,4.84-25.4,1.23-32.28-2.66A40.44,40.44,0,0,1,.63,43.67a3.16,3.16,0,0,1,5.06-3.8A34.69,34.69,0,0,0,15.59,48C23.9,52.66,33,53.35,42.51,50.09,69.75,40.81,81,55.23,81.43,55.85a3.17,3.17,0,0,1-2.53,5.06Z"/><path class="cls-2" d="M30.21,21.65a3.25,3.25,0,0,1-1.66-.47,3.17,3.17,0,0,1-1.39-3.53C28.24,13.43,31.59,6,41.91,2.82a3.31,3.31,0,0,1,3.94,1.56,3.17,3.17,0,0,1-1.93,4.44C36.76,11,34.18,15.67,33.27,19.26A3.17,3.17,0,0,1,30.21,21.65Z"/><path class="cls-3" d="M63.8,73.25H22.23A3.24,3.24,0,0,1,19,70V28.44a3.23,3.23,0,0,1,3.24-3.23H63.8A3.23,3.23,0,0,1,67,28.44V70A3.24,3.24,0,0,1,63.8,73.25ZM25.39,66.93H60.64a.07.07,0,0,0,.07-.08V31.6a.07.07,0,0,0-.07-.07H25.39a.08.08,0,0,0-.08.07V66.85A.08.08,0,0,0,25.39,66.93Z"/><path class="cls-2" d="M34.58,38a3.11,3.11,0,1,0,3.14,3.11A3.12,3.12,0,0,0,34.58,38Z"/><path class="cls-2" d="M51,38a3.11,3.11,0,1,0,3.13,3.11A3.12,3.12,0,0,0,51,38Z"/><path class="cls-4" d="M134.55.85h3.8V37.43a13,13,0,0,1,11.88-6.94c6.93,0,9.88,4.09,10.73,5.42,1.71,2.75,1.9,6.36,1.9,9.78V70.11h-3.8V45.69c0-2.66-.09-5.6-1.52-7.79-.85-1.42-2.94-3.8-7.6-3.8a10.2,10.2,0,0,0-9.5,5.42c-1.71,3-2.09,6.65-2.09,10.45V70.11h-3.8Z"/><path class="cls-4" d="M175.22,18.43a3.42,3.42,0,1,1,6.84,0,3.42,3.42,0,1,1-6.84,0Zm5.32,12.92V70.11h-3.8V31.35Z"/><path class="cls-4" d="M194.59,31.35h3.8v5a9.16,9.16,0,0,1,8.55-5.89,9,9,0,0,1,4.08,1l-1.9,3.42a4.42,4.42,0,0,0-2.85-.76c-7.79,0-7.88,10.36-7.88,15.2V70.11h-3.8Z"/><path class="cls-4" d="M255.5,50.82a20.33,20.33,0,0,1-40.66,0,20.33,20.33,0,0,1,40.66,0Zm-4,0c0-9.4-7-16.72-16.34-16.72s-16.34,7.32-16.34,16.72,7,16.72,16.34,16.72S251.51,60.23,251.51,50.82Z"/><line class="cls-5" x1="97.61" y1="71.5" x2="255.61" y2="71.5"/></g></g></svg>