<svg xmlns="http://www.w3.org/2000/svg" viewBox="0 0 48.81 33.02"><defs><style>.cls-1,.cls-2,.cls-3,.cls-4,.cls-5{fill:none;stroke-linecap:round;}.cls-1,.cls-2{stroke:#fff;stroke-width:3px;}.cls-1,.cls-3,.cls-5{stroke-linejoin:round;}.cls-2,.cls-4{stroke-miterlimit:10;}.cls-3,.cls-4,.cls-5{stroke:#3e8369;}.cls-3,.cls-4{stroke-width:1.78px;}.cls-5{stroke-width:1.64px;}</style></defs><g id="レイヤー_2" data-name="レイヤー 2"><g id="レイヤー_1-2" data-name="レイヤー 1"><g id="レイヤー_2-2" data-name="レイヤー 2"><g id="レイヤー_1-2-2" data-name="レイヤー 1-2"><g id="レイヤー_2-2-2" data-name="レイヤー 2-2"><g id="rayout"><path class="cls-1" d="M22.8,29h0a2.47,2.47,0,0,0-1.3-2.2l-.6-.3h2a2.48,2.48,0,0,0,2.5-2.46v0h0a2.61,2.61,0,0,0-1-2,2.29,2.29,0,0,1-.5-.3l-.5-.2h2.1A2.48,2.48,0,0,0,28,19.06v0h0a2.57,2.57,0,0,0-2.1-2.5h11a3,3,0,0,0,3-2.9h0A2.92,2.92,0,0,0,37,10.72H17.3l.6-.4L22.7,7a2.91,2.91,0,0,0,.85-4l-.05-.07a.1.1,0,0,0-.1-.1h0a2.92,2.92,0,0,0-4-.85L19.3,2h0s-.8.5-1,.6L14.9,5l-7.5,5.2a18.16,18.16,0,0,0-2.2,1.6,11.49,11.49,0,0,0-3.7,8.3,14.19,14.19,0,0,0,.4,3.5,10.13,10.13,0,0,0,9.6,7.9h8.8A2.54,2.54,0,0,0,22.8,29Z"/><path class="cls-2" d="M22.5,26.52H19.1m5.9-5H20.8m6.4-5H22.4"/><path class="cls-1" d="M45.7,18a8.12,8.12,0,0,1-10.6,2.3m-.7-13.6a8.14,8.14,0,0,1,10.21.5m0,0A8,8,0,0,1,45.71,18"/></g></g></g></g></g><g id="レイヤー_2-3" data-name="レイヤー 2"><g id="レイヤー_2-4" data-name="レイヤー 2"><g id="レイヤー_1-2-3" data-name="レイヤー 1-2"><g id="レイヤー_2-2-3" data-name="レイヤー 2-2"><g id="rayout-2" data-name="rayout"><path class="cls-3" d="M22.8,29h0a2.47,2.47,0,0,0-1.3-2.2l-.6-.3h2a2.48,2.48,0,0,0,2.5-2.46v0h0a2.61,2.61,0,0,0-1-2,2.29,2.29,0,0,1-.5-.3l-.5-.2h2.1A2.48,2.48,0,0,0,28,19.06v0h0a2.57,2.57,0,0,0-2.1-2.5h11a3,3,0,0,0,3-2.9h0A2.92,2.92,0,0,0,37,10.72H17.3l.6-.4L22.7,7a2.91,2.91,0,0,0,.85-4l-.05-.07a.1.1,0,0,0-.1-.1h0a2.92,2.92,0,0,0-4-.85L19.3,2h0s-.8.5-1,.6L14.9,5l-7.5,5.2a18.16,18.16,0,0,0-2.2,1.6,11.49,11.49,0,0,0-3.7,8.3,14.19,14.19,0,0,0,.4,3.5,10.13,10.13,0,0,0,9.6,7.9h8.8A2.54,2.54,0,0,0,22.8,29Z"/><path class="cls-4" d="M22.5,26.52H19.1m5.9-5H20.8m6.4-5H22.4"/><path class="cls-5" d="M45.7,18a8.12,8.12,0,0,1-10.6,2.3m-.7-13.6a8.14,8.14,0,0,1,10.21.5m0,0A8,8,0,0,1,45.71,18"/></g></g></g></g></g></g></svg>