<svg xmlns="http://www.w3.org/2000/svg" width="244.937" height="251.08" viewBox="0 0 244.937 251.08">
  <g id="deco03" opacity="0.251">
    <path id="パス_22442" data-name="パス 22442" d="M100.069,145.8a26.818,26.818,0,0,0,9.69,7.071,1.548,1.548,0,0,1,2.393-.077,1.56,1.56,0,0,1,.377,1.092c.383.114.769.223,1.161.326a27,27,0,0,0,28.1-42.645,5.708,5.708,0,1,1-2.036-2.35,26.865,26.865,0,0,0-9.916-6.451q-.54.493-1.092.975a55.889,55.889,0,0,1-12.258,8.106,1.543,1.543,0,0,1-1.836.966c-.051-.014-.1-.031-.154-.049a55.418,55.418,0,0,1-13.039,3.88,1.543,1.543,0,0,1-2.728.389c-1.021.12-2.039.212-3.062.275a27.027,27.027,0,0,0,4.4,28.491m1.25-4.5a1.545,1.545,0,0,1-1.55,2.511,1.559,1.559,0,0,1-.781-.483,1.544,1.544,0,0,1,1.55-2.508,1.524,1.524,0,0,1,.781.48m-4.363-9.831a1.542,1.542,0,1,1-.781-.483,1.56,1.56,0,0,1,.781.483m10.831,11.5a1.544,1.544,0,1,1-.778-.48,1.515,1.515,0,0,1,.778.48m-4.363-9.831a1.542,1.542,0,1,1-.781-.483,1.553,1.553,0,0,1,.781.483m10.831,11.495a1.544,1.544,0,0,1-1.55,2.511,1.516,1.516,0,0,1-.778-.48,1.544,1.544,0,0,1,2.328-2.03M99.056,123.3a1.544,1.544,0,1,1-.778-.48,1.544,1.544,0,0,1,.778.48m10.834,11.5a1.545,1.545,0,1,1-.781-.48,1.575,1.575,0,0,1,.781.48m10.831,11.5a1.542,1.542,0,1,1-.778-.483,1.537,1.537,0,0,1,.778.483m-15.2-21.331a1.542,1.542,0,0,1-1.55,2.508,1.516,1.516,0,0,1-.778-.48,1.543,1.543,0,0,1,1.55-2.508,1.516,1.516,0,0,1,.778.48m10.834,11.5a1.546,1.546,0,0,1-1.55,2.511,1.56,1.56,0,0,1-.781-.483,1.544,1.544,0,0,1,2.33-2.027M112,126.637a1.545,1.545,0,0,1-1.553,2.508A1.543,1.543,0,1,1,112,126.637m10.831,11.5a1.544,1.544,0,1,1-.778-.48,1.547,1.547,0,0,1,.778.48m-15.2-21.328a1.543,1.543,0,0,1-1.55,2.508,1.516,1.516,0,0,1-.778-.48,1.543,1.543,0,1,1,2.328-2.027m10.834,11.5a1.544,1.544,0,0,1-1.55,2.508,1.524,1.524,0,0,1-.781-.48,1.544,1.544,0,0,1,2.33-2.027m-4.366-9.831a1.543,1.543,0,0,1-1.55,2.508,1.516,1.516,0,0,1-.778-.48,1.543,1.543,0,1,1,2.328-2.027m10.834,11.5a1.544,1.544,0,0,1-1.55,2.508,1.524,1.524,0,0,1-.781-.48,1.545,1.545,0,0,1,1.55-2.511,1.56,1.56,0,0,1,.781.483m-4.366-9.831a1.542,1.542,0,1,1-.778-.483,1.537,1.537,0,0,1,.778.483m6.471,1.664a1.547,1.547,0,1,1-.781-.48,1.547,1.547,0,0,1,.781.48m-4.366-9.831a1.545,1.545,0,1,1-.781-.48,1.535,1.535,0,0,1,.781.48" transform="translate(-36.415 96.004)" fill="#edf1d3"/>
    <path id="パス_22443" data-name="パス 22443" d="M94.093,115.18a1.516,1.516,0,0,0,.778.48,1.544,1.544,0,1,0-.778-.48" transform="translate(-35.884 114.321)" fill="#dde4ac"/>
    <path id="パス_22444" data-name="パス 22444" d="M94.827,112.325a1.524,1.524,0,0,0,.781.48,1.538,1.538,0,1,0-.781-.48" transform="translate(-34.516 109.012)" fill="#dde4ac"/>
    <path id="パス_22445" data-name="パス 22445" d="M95.381,108.142a1.523,1.523,0,0,0,.781.48,1.545,1.545,0,0,0,1.847-1c-.906.152-1.819.28-2.728.389a1.414,1.414,0,0,0,.1.129" transform="translate(-32.966 105.029)" fill="#dde4ac"/>
    <path id="パス_22446" data-name="パス 22446" d="M95.619,118.618a1.524,1.524,0,0,0,.781.48,1.543,1.543,0,1,0-.781-.48" transform="translate(-33.046 120.713)" fill="#dde4ac"/>
    <path id="パス_22447" data-name="パス 22447" d="M96.355,115.763a1.524,1.524,0,0,0,.781.48,1.544,1.544,0,0,0,1.55-2.508,1.544,1.544,0,0,0-2.662.629,1.539,1.539,0,0,0,.332,1.4" transform="translate(-31.678 115.405)" fill="#dde4ac"/>
    <path id="パス_22448" data-name="パス 22448" d="M97.091,112.907a1.516,1.516,0,0,0,.778.48,1.544,1.544,0,1,0-.778-.48" transform="translate(-30.31 110.094)" fill="#dde4ac"/>
    <path id="パス_22449" data-name="パス 22449" d="M97.824,110.052a1.524,1.524,0,0,0,.781.48,1.538,1.538,0,1,0-.781-.48" transform="translate(-28.941 104.786)" fill="#dde4ac"/>
    <path id="パス_22450" data-name="パス 22450" d="M97.88,119.2a1.527,1.527,0,0,0,.778.48,1.544,1.544,0,1,0-.778-.48" transform="translate(-28.839 121.798)" fill="#dde4ac"/>
    <path id="パス_22451" data-name="パス 22451" d="M98.617,116.344a1.543,1.543,0,1,0-.332-1.4,1.527,1.527,0,0,0,.332,1.4" transform="translate(-27.472 116.488)" fill="#dde4ac"/>
    <path id="パス_22452" data-name="パス 22452" d="M99.351,113.489a1.544,1.544,0,0,0,2.659-.629,1.543,1.543,0,1,0-2.988-.769,1.528,1.528,0,0,0,.329,1.4" transform="translate(-26.104 111.179)" fill="#dde4ac"/>
    <path id="パス_22453" data-name="パス 22453" d="M100.088,110.635a1.516,1.516,0,0,0,.778.48,1.545,1.545,0,1,0-.778-.48" transform="translate(-24.737 105.87)" fill="#dde4ac"/>
    <path id="パス_22454" data-name="パス 22454" d="M100.8,106.862c.049.017.1.034.152.049a1.543,1.543,0,0,0,1.836-.964q-.986.476-1.987.915" transform="translate(-22.713 101.911)" fill="#dde4ac"/>
    <path id="パス_22455" data-name="パス 22455" d="M99.137,120.688a27.057,27.057,0,0,0,2.771,1.012,1.545,1.545,0,0,0-.377-1.089,1.524,1.524,0,0,0-.781-.48,1.54,1.54,0,0,0-1.613.558" transform="translate(-25.796 128.191)" fill="#dde4ac"/>
    <path id="パス_22456" data-name="パス 22456" d="M100.143,119.783a1.516,1.516,0,0,0,.778.48,1.543,1.543,0,0,0,1.55-2.508,1.516,1.516,0,0,0-.778-.48,1.543,1.543,0,0,0-1.55,2.508" transform="translate(-24.634 122.882)" fill="#dde4ac"/>
    <path id="パス_22457" data-name="パス 22457" d="M100.879,116.927a1.524,1.524,0,0,0,.781.48,1.542,1.542,0,1,0-.781-.48" transform="translate(-23.266 117.572)" fill="#dde4ac"/>
    <path id="パス_22458" data-name="パス 22458" d="M101.615,114.073a1.527,1.527,0,0,0,.778.48,1.545,1.545,0,1,0-.778-.48" transform="translate(-21.897 112.262)" fill="#dde4ac"/>
    <path id="パス_22459" data-name="パス 22459" d="M102.351,111.217a1.516,1.516,0,0,0,.778.48,1.543,1.543,0,0,0,1.55-2.508,1.516,1.516,0,0,0-.778-.48,1.543,1.543,0,0,0-1.55,2.508" transform="translate(-20.529 106.955)" fill="#dde4ac"/>
    <path id="パス_22460" data-name="パス 22460" d="M103.086,108.362a1.516,1.516,0,0,0,.778.48,1.545,1.545,0,1,0-.778-.48" transform="translate(-19.162 101.643)" fill="#dde4ac"/>
    <path id="パス_22461" data-name="パス 22461" d="M102.4,120.363a1.5,1.5,0,0,0,.778.483,1.543,1.543,0,0,0,1.55-2.508,1.5,1.5,0,0,0-.778-.48,1.541,1.541,0,0,0-1.55,2.5" transform="translate(-20.428 123.966)" fill="#dde4ac"/>
    <path id="パス_22462" data-name="パス 22462" d="M103.141,117.51a1.516,1.516,0,0,0,.778.48,1.543,1.543,0,0,0,1.55-2.508,1.516,1.516,0,0,0-.778-.48,1.543,1.543,0,0,0-1.55,2.508" transform="translate(-19.06 118.656)" fill="#dde4ac"/>
    <path id="パス_22463" data-name="パス 22463" d="M103.877,114.656a1.524,1.524,0,0,0,.781.48,1.544,1.544,0,0,0,1.55-2.508,1.544,1.544,0,0,0-2.662.629,1.541,1.541,0,0,0,.332,1.4" transform="translate(-17.691 113.346)" fill="#dde4ac"/>
    <path id="パス_22464" data-name="パス 22464" d="M104.612,111.8a1.524,1.524,0,0,0,.781.48,1.544,1.544,0,0,0,1.55-2.508,1.544,1.544,0,0,0-2.662.629,1.541,1.541,0,0,0,.332,1.4" transform="translate(-16.325 108.038)" fill="#dde4ac"/>
    <path id="パス_22465" data-name="パス 22465" d="M115.364,95.867a9.368,9.368,0,1,1-.924,13.216,9.37,9.37,0,0,1,.924-13.216" transform="translate(-1.615 78.897)" fill="#489c46"/>
    <path id="パス_22466" data-name="パス 22466" d="M131.484,140.1A61.015,61.015,0,0,0,226.85,64.157q-1.6-2.2-3.36-4.223A60.529,60.529,0,0,0,212.9,50.312a1.479,1.479,0,0,1-2.033-1.387,60.935,60.935,0,0,0-13.456-6.582,1.489,1.489,0,0,1-1.61-.423c-.037-.046-.072-.092-.106-.14a61.714,61.714,0,0,0-7.706-1.864,1.569,1.569,0,0,1-.229.252,1.477,1.477,0,0,1-2.373-.649,60.982,60.982,0,0,0-27.836,2.816,1.48,1.48,0,0,1,.292,2.433,1.48,1.48,0,0,1-2.336-1.684,61.068,61.068,0,0,0-27.381,92.793q1.6,2.2,3.36,4.223m31.8-91.323a1.479,1.479,0,1,1-2.087-.146,1.483,1.483,0,0,1,2.087.146m5.3,6.1a1.478,1.478,0,1,1-2.087-.146,1.478,1.478,0,0,1,2.087.146m5.3,6.1a1.479,1.479,0,1,1-2.09-.146,1.48,1.48,0,0,1,2.09.146m-5.77-16.39a1.479,1.479,0,1,1-2.087-.149,1.479,1.479,0,0,1,2.087.149m5.3,6.1a1.479,1.479,0,1,1-2.087-.149,1.477,1.477,0,0,1,2.087.149m5.3,6.1a1.478,1.478,0,1,1-2.085-.149,1.474,1.474,0,0,1,2.085.149m5.3,6.093a1.478,1.478,0,1,1-2.084-.146,1.48,1.48,0,0,1,2.084.146M172.948,40.378a1.48,1.48,0,1,1-2.087-.146,1.48,1.48,0,0,1,2.087.146m5.3,6.1a1.478,1.478,0,1,1-2.087-.146,1.477,1.477,0,0,1,2.087.146m5.3,6.1a1.48,1.48,0,1,1-2.09-.146,1.48,1.48,0,0,1,2.09.146m5.3,6.1a1.48,1.48,0,1,1-2.087-.146,1.483,1.483,0,0,1,2.087.146m3.18,8.155c-.04-.037-.077-.077-.114-.117a1.48,1.48,0,1,1,2.462-.357c-.778.186-1.558.346-2.348.475m-8.95-24.545a1.48,1.48,0,1,1-2.087-.146,1.477,1.477,0,0,1,2.087.146m5.3,6.1a1.48,1.48,0,1,1-2.087-.146,1.48,1.48,0,0,1,2.087.146m5.3,6.1a1.48,1.48,0,1,1-2.087-.146,1.483,1.483,0,0,1,2.087.146m5.3,6.093a1.48,1.48,0,1,1-2.087-.143,1.483,1.483,0,0,1,2.087.143M193.2,44.176a1.478,1.478,0,1,1-2.085-.146,1.477,1.477,0,0,1,2.085.146m5.3,6.1a1.478,1.478,0,1,1-2.084-.146,1.478,1.478,0,0,1,2.084.146m5.3,6.1a1.479,1.479,0,1,1-2.087-.146,1.48,1.48,0,0,1,2.087.146m-.469-10.3a1.481,1.481,0,1,1-2.087-.143,1.482,1.482,0,0,1,2.087.143m5.3,6.1a1.48,1.48,0,1,1-2.087-.146,1.48,1.48,0,0,1,2.087.146" transform="translate(6.433 -22.569)" fill="#e5b2b4"/>
    <path id="パス_22467" data-name="パス 22467" d="M87.165,161.227a55.661,55.661,0,0,0,45.573,19.066,26.843,26.843,0,0,1,5.464-8.121,1.512,1.512,0,0,1-.194-.189,1.544,1.544,0,1,1,2.328-2.03,1.353,1.353,0,0,1,.123.163,27.171,27.171,0,0,1,7.011-4.126.785.785,0,0,1-.112-.026,1.54,1.54,0,0,1-1.107-1.879,1.538,1.538,0,0,1,1.879-1.109,1.516,1.516,0,0,1,.778.48,1.546,1.546,0,0,1,.031,1.993,26.876,26.876,0,0,1,15.295-.538,27.946,27.946,0,0,1,2.674.838,55.751,55.751,0,1,0-79.742-4.524m18.726,8.561a1.543,1.543,0,0,1-1.55,2.508,1.516,1.516,0,0,1-.778-.48,1.543,1.543,0,1,1,2.328-2.027m6.468,1.667a1.542,1.542,0,1,1-.778-.483,1.537,1.537,0,0,1,.778.483m6.471,1.664a1.546,1.546,0,0,1-1.553,2.511,1.544,1.544,0,0,1,.772-2.991,1.555,1.555,0,0,1,.781.48m-4.366-9.831a1.544,1.544,0,1,1-.778-.48,1.539,1.539,0,0,1,.778.48m10.834,11.5a1.544,1.544,0,1,1-2.33,2.027,1.544,1.544,0,0,1,1.55-2.508,1.555,1.555,0,0,1,.781.48m-4.366-9.831a1.544,1.544,0,1,1-.778-.48,1.516,1.516,0,0,1,.778.48m10.831,11.495a1.544,1.544,0,1,1-2.328,2.03,1.528,1.528,0,0,1-.329-1.4,1.542,1.542,0,0,1,2.656-.632m-4.363-9.828a1.543,1.543,0,0,1-1.55,2.508,1.516,1.516,0,0,1-.778-.48,1.542,1.542,0,0,1,1.55-2.508,1.516,1.516,0,0,1,.778.48m-4.363-9.831a1.544,1.544,0,0,1-1.55,2.508,1.544,1.544,0,0,1-1.112-1.881c.017-.054.034-.109.054-.163q1.192-.369,2.413-.652a1.513,1.513,0,0,1,.194.189m10.831,11.495a1.544,1.544,0,1,1-.778-.48,1.544,1.544,0,0,1,.778.48m-4.363-9.831a1.544,1.544,0,0,1-1.55,2.511,1.536,1.536,0,0,1-.781-.48,1.545,1.545,0,0,1,2.33-2.03m6.468,1.667a1.544,1.544,0,0,1-1.55,2.511,1.574,1.574,0,0,1-.781-.48,1.545,1.545,0,0,1,2.33-2.03m6.468,1.667a1.544,1.544,0,1,1-.778-.48,1.515,1.515,0,0,1,.778.48" transform="translate(-73.488 33.023)" fill="#45a748"/>
    <path id="パス_22468" data-name="パス 22468" d="M84.254,106.555a1.516,1.516,0,0,0,.778.48,1.544,1.544,0,1,0-.778-.48" transform="translate(-54.178 98.283)" fill="#37a244"/>
    <path id="パス_22469" data-name="パス 22469" d="M86.516,107.137a1.515,1.515,0,0,0,.778.48,1.543,1.543,0,0,0,1.55-2.508,1.516,1.516,0,0,0-.778-.48,1.543,1.543,0,0,0-1.55,2.508" transform="translate(-49.972 99.368)" fill="#37a244"/>
    <path id="パス_22470" data-name="パス 22470" d="M87.251,104.283a1.516,1.516,0,0,0,.778.48,1.544,1.544,0,1,0-.778-.48" transform="translate(-48.605 94.059)" fill="#37a244"/>
    <path id="パス_22471" data-name="パス 22471" d="M88.778,107.721a1.516,1.516,0,0,0,.778.48,1.545,1.545,0,1,0-.778-.48" transform="translate(-45.766 100.451)" fill="#37a244"/>
    <path id="パス_22472" data-name="パス 22472" d="M89.513,104.865a1.516,1.516,0,0,0,.778.48,1.544,1.544,0,1,0-.778-.48" transform="translate(-44.399 95.141)" fill="#37a244"/>
    <path id="パス_22473" data-name="パス 22473" d="M90.249,101.787a1.543,1.543,0,1,0,2.328-2.027,1.351,1.351,0,0,0-.194-.189c-.812.189-1.618.406-2.413.652a1.591,1.591,0,0,0-.051.166,1.541,1.541,0,0,0,.332,1.4" transform="translate(-43.031 90.056)" fill="#37a244"/>
    <path id="パス_22474" data-name="パス 22474" d="M91.039,108.3a1.524,1.524,0,0,0,.781.48,1.544,1.544,0,0,0,1.55-2.508,1.559,1.559,0,0,0-.781-.483,1.546,1.546,0,0,0-1.55,2.511" transform="translate(-41.559 101.535)" fill="#37a244"/>
    <path id="パス_22475" data-name="パス 22475" d="M91.775,105.449a1.527,1.527,0,0,0,.778.48,1.541,1.541,0,1,0-.778-.48" transform="translate(-40.191 96.227)" fill="#37a244"/>
    <path id="パス_22476" data-name="パス 22476" d="M92.511,102.593a1.527,1.527,0,0,0,.778.48,1.545,1.545,0,1,0-.778-.48" transform="translate(-38.825 90.916)" fill="#37a244"/>
    <path id="パス_22477" data-name="パス 22477" d="M93.3,108.887a1.527,1.527,0,0,0,.778.48,1.544,1.544,0,0,0,1.55-2.511,1.515,1.515,0,0,0-.778-.48,1.546,1.546,0,0,0-1.55,2.511" transform="translate(-37.354 102.619)" fill="#37a244"/>
    <path id="パス_22478" data-name="パス 22478" d="M94.037,106.03A1.543,1.543,0,1,0,96.364,104a1.515,1.515,0,0,0-.778-.48,1.544,1.544,0,0,0-1.55,2.508" transform="translate(-35.985 97.31)" fill="#37a244"/>
    <path id="パス_22479" data-name="パス 22479" d="M94.771,103.176a1.524,1.524,0,0,0,.781.48,1.544,1.544,0,0,0,1.55-2.508,1.559,1.559,0,0,0-.781-.483,1.546,1.546,0,0,0-1.55,2.511" transform="translate(-34.618 92.001)" fill="#37a244"/>
    <path id="パス_22480" data-name="パス 22480" d="M96.3,106.614a1.513,1.513,0,0,0,.194.189,27.342,27.342,0,0,1,2.256-2.056,1.351,1.351,0,0,0-.123-.163,1.542,1.542,0,0,0-2.656.632,1.532,1.532,0,0,0,.329,1.4" transform="translate(-31.779 98.393)" fill="#37a244"/>
    <path id="パス_22481" data-name="パス 22481" d="M97.034,103.759a1.515,1.515,0,0,0,.778.48,1.541,1.541,0,1,0-.778-.48" transform="translate(-30.412 93.084)" fill="#37a244"/>
    <path id="パス_22482" data-name="パス 22482" d="M99.295,104.341a1.516,1.516,0,0,0,.778.48c.037.011.074.017.112.026q.729-.292,1.47-.54a1.5,1.5,0,0,0,.3-.595,1.543,1.543,0,1,0-2.659.629" transform="translate(-26.205 94.17)" fill="#37a244"/>
    <path id="パス_22483" data-name="パス 22483" d="M94.209,118.416q1.535-.094,3.062-.275a1.544,1.544,0,0,1,1.653-2.379,1.515,1.515,0,0,1,.778.48,1.539,1.539,0,0,1,.332,1.4c-.009.037-.02.074-.031.112a55.593,55.593,0,0,0,13.039-3.88,1.522,1.522,0,0,1-.626-.432,1.544,1.544,0,0,1,1.55-2.511,1.516,1.516,0,0,1,.778.48,1.544,1.544,0,0,1,.332,1.4c-.014.049-.029.1-.046.143a55.89,55.89,0,0,0,12.258-8.106c.369-.32.735-.646,1.092-.975-.866-.32-1.761-.6-2.674-.838a26.887,26.887,0,0,0-15.3.538,1.539,1.539,0,0,1-1.467.54,27.124,27.124,0,0,0-7.011,4.126,1.543,1.543,0,0,1-1.673,2.348,1.535,1.535,0,0,1-.583-.292,26.791,26.791,0,0,0-5.464,8.121m14.065-8.673a1.544,1.544,0,0,1-1.55,2.511,1.515,1.515,0,0,1-.778-.48,1.544,1.544,0,0,1,1.55-2.511,1.516,1.516,0,0,1,.778.48m8.936-5.267c-.009.057-.02.112-.034.169a1.543,1.543,0,0,1-1.879,1.112,1.56,1.56,0,0,1-.781-.483,1.545,1.545,0,0,1,.9-2.533q.935.836,1.8,1.736" transform="translate(-34.959 94.9)" fill="#37a244"/>
    <path id="パス_22484" data-name="パス 22484" d="M95.462,109.339c.912-.106,1.821-.237,2.728-.389.011-.037.023-.071.031-.109a1.543,1.543,0,1,0-2.759.5" transform="translate(-33.147 103.703)" fill="#2a9f43"/>
    <path id="パス_22485" data-name="パス 22485" d="M96.12,106.353a1.544,1.544,0,0,0,2.256-2.056,26.892,26.892,0,0,0-2.256,2.056" transform="translate(-31.406 98.843)" fill="#2a9f43"/>
    <path id="パス_22486" data-name="パス 22486" d="M98.561,107.2a1.544,1.544,0,0,0,2.659-.629,1.551,1.551,0,0,0-.329-1.4,1.545,1.545,0,0,0-2.33,2.03" transform="translate(-27.573 99.477)" fill="#2a9f43"/>
    <path id="パス_22487" data-name="パス 22487" d="M99.361,103.205a1.541,1.541,0,0,0,1.47-.54c-.495.166-.986.346-1.47.54" transform="translate(-25.38 95.809)" fill="#2a9f43"/>
    <path id="パス_22488" data-name="パス 22488" d="M100.823,107.78a1.541,1.541,0,0,0,.626.432c.669-.292,1.33-.595,1.987-.915a1.422,1.422,0,0,0,.046-.146,1.551,1.551,0,0,0-.329-1.4,1.575,1.575,0,0,0-.781-.48,1.544,1.544,0,0,0-1.55,2.511" transform="translate(-23.367 100.561)" fill="#2a9f43"/>
    <path id="パス_22489" data-name="パス 22489" d="M101.559,104.91a1.516,1.516,0,0,0,.778.48,1.544,1.544,0,0,0,1.881-1.109c.014-.057.026-.114.034-.169q-.866-.9-1.8-1.739a1.547,1.547,0,0,0-.895,2.536" transform="translate(-21.999 95.268)" fill="#2a9f43"/>
    <path id="パス_22490" data-name="パス 22490" d="M111.666,107.376a5.724,5.724,0,0,0-2.039-2.35q.532.549,1.035,1.124c.346.4.681.809,1,1.227" transform="translate(-6.291 100.199)" fill="#4e484c"/>
    <path id="パス_22491" data-name="パス 22491" d="M107.934,114.163a5.716,5.716,0,0,0,9.487-6.179q-.485-.626-1.006-1.224c-.332-.386-.678-.761-1.032-1.124a5.715,5.715,0,0,0-7.449,8.527" transform="translate(-12.046 99.591)" fill="#4d4748"/>
    <path id="パス_22492" data-name="パス 22492" d="M95.337,114.59c.3.343.606.689.918,1.027a49.03,49.03,0,0,0,68.248,3.569c.357-.312.715-.629,1.067-.952a49.061,49.061,0,0,0,4.112-68.259q-.45-.519-.918-1.027A49.343,49.343,0,0,0,88.26,61.44l.014,0a48.9,48.9,0,0,0,5.642,51.437l.017.02.06.074.023.029c.057.074.117.146.174.22l.037.046.046.054.046.057.037.046c.026.031.054.069.083.1l.023.029c.023.026.043.054.069.083l.026.031.066.08.023.029.183.217.017.023c.029.031.057.063.083.1l.011.011.194.229,0,0c.034.037.066.077.1.114l0,0c.031.037.066.077.1.114" transform="translate(-54.959 -33.254)" fill="#b6c836"/>
    <path id="パス_22493" data-name="パス 22493" d="M94.709,101.246q.5.579,1.021,1.144c20.373,22.157,55.123,23.467,77.466,2.925l-3.889-4.229q-.528.485-1.067.952A49.032,49.032,0,0,1,100,98.469q-.468-.506-.918-1.026l-.1-.117v0c-.034-.037-.066-.074-.1-.112l0-.006c-.066-.074-.132-.152-.2-.229l-.009-.011-.083-.1-.017-.02c-.063-.074-.123-.146-.183-.22l-.023-.026-.069-.08-.026-.034L98.2,96.4l-.023-.026c-.026-.034-.054-.069-.08-.1l-.037-.046-.049-.057-.043-.057-.037-.046c-.06-.071-.117-.146-.177-.217l-.023-.031-.057-.071-.017-.023A48.9,48.9,0,0,1,92,44.29a50.906,50.906,0,0,1-5.487-1.813,54.69,54.69,0,0,0,8.195,58.769" transform="translate(-58.698 -16.104)" fill="#e6efe2"/>
    <path id="パス_22494" data-name="パス 22494" d="M95.242,96.147v0m-.1-.114-.006-.006.006.006m-.2-.234-.009-.011.009.011m-.091-.109-.017-.02.017.02m-.2-.237-.023-.029.023.029m-.092-.109-.026-.034.026.034m-.094-.117-.023-.026.023.026m-.106-.126-.034-.046.034.046m-.083-.1-.043-.057.043.057m-.08-.1c-.06-.071-.117-.146-.177-.217.06.071.117.146.177.217m-.2-.249-.06-.071.06.071m-.074-.094a48.893,48.893,0,0,1-5.644-51.435l-.011-.006a48.9,48.9,0,0,0,5.656,51.44m70.584,6.308q.54-.468,1.067-.952-.528.485-1.067.952" transform="translate(-54.964 -14.925)" fill="#a5bf37"/>
  </g>
</svg>
