<?xml version="1.0" encoding="utf-8"?>
<!-- Generator: Adobe Illustrator 24.3.0, SVG Export Plug-In . SVG Version: 6.00 Build 0)  -->
<svg version="1.1" id="レイヤー_1" xmlns="http://www.w3.org/2000/svg" xmlns:xlink="http://www.w3.org/1999/xlink" x="0px"
	 y="0px" viewBox="0 0 9.5 9.4" style="enable-background:new 0 0 9.5 9.4;" xml:space="preserve">
<style type="text/css">
	.st0{fill:#0078A3;}
</style>
<g id="レイヤー_2_1_">
	<g id="レイヤー_1-2">
		<g id="icon">
			<g id="グループ_1079">
				<path class="st0" d="M3.5,6.3c-0.1,0-0.3,0-0.4-0.1C3,6,3,5.6,3.2,5.4L7.6,1H5.3C5,1,4.8,0.8,4.8,0.5S5,0,5.3,0l3.5,0.1
					c0.2,0,0.4,0.1,0.5,0.3s0,0.4-0.1,0.5L3.9,6.2C3.8,6.3,3.6,6.3,3.5,6.3z"/>
				<path class="st0" d="M9,4.5C8.7,4.5,8.5,4.3,8.5,4L8.4,0.6c0-0.3,0.2-0.5,0.5-0.5s0.5,0.2,0.5,0.5L9.5,4C9.5,4.3,9.3,4.5,9,4.5
					L9,4.5z"/>
			</g>
			<g id="グループ_1078">
				<path class="st0" d="M3.4,1.3H0.5C0.2,1.3,0,1.1,0,0.8s0.2-0.5,0.5-0.5h2.9c0.3,0,0.5,0.2,0.5,0.5S3.7,1.3,3.4,1.3z"/>
				<path class="st0" d="M8.6,9.4H0.5C0.2,9.4,0,9.2,0,8.9s0.2-0.5,0.5-0.5h8.1c0.3,0,0.5,0.2,0.5,0.5S8.8,9.4,8.6,9.4z"/>
				<path class="st0" d="M8.6,9.4c-0.3,0-0.5-0.2-0.5-0.5v-3c0-0.3,0.2-0.5,0.5-0.5s0.5,0.2,0.5,0.5v3C9.1,9.2,8.8,9.4,8.6,9.4z"/>
				<path class="st0" d="M0.5,9.4C0.2,9.4,0,9.2,0,8.9V0.8c0-0.3,0.2-0.5,0.5-0.5S1,0.5,1,0.8v8.1C1,9.2,0.8,9.4,0.5,9.4z"/>
			</g>
		</g>
	</g>
</g>
</svg>
