<?xml version="1.0" encoding="utf-8"?>
<!-- Generator: Adobe Illustrator 24.3.0, SVG Export Plug-In . SVG Version: 6.00 Build 0)  -->
<svg version="1.1" id="レイヤー_1" xmlns="http://www.w3.org/2000/svg" xmlns:xlink="http://www.w3.org/1999/xlink" x="0px"
	 y="0px" viewBox="0 0 350 229.6" style="enable-background:new 0 0 350 229.6;" xml:space="preserve">
<style type="text/css">
	.st0{fill:#174E9D;}
	.st1{fill:#44ADE9;}
	.st2{fill:#B3CB31;}
	.st3{fill:#868687;}
	.st4{fill:#E60012;}
</style>
<g id="レイヤー_2_1_">
	<g id="rayout">
		<polygon class="st0" points="148.2,85.5 191.8,55.7 191.8,42.2 148.1,72.3 		"/>
		<path class="st1" d="M202.3,8v14.4l-26.4,18.1c-6.3,4.3-10.1,11.5-10.1,19.2v0.6l26-17.9v13.5l-26,17.8v41.9l-11.9-0.3l0.1-55.5
			c0-11.5,5.7-22.3,15.2-28.8L202.3,8z"/>
		<path class="st2" d="M202.3,8v41c0,7.6-3.7,14.8-10,19.1l-20.6,14.2v14.3l27.1-18.6c9.5-6.5,15.2-17.4,15.2-28.9V0L202.3,8z"/>
		<path class="st0" d="M154,115.1v2.5c0,3.2,2.6,5.8,5.8,5.8c1.2,0,2.3-0.4,3.3-1l7.7-5.2l-0.2-13.4L154,115.1z"/>
		<path class="st3" d="M140.5,147.6h1.4c2.6,0,4.2-1.6,4.2-3.9c0-2.2-1.8-4-4-4c-1.9,0-3.5,1.4-3.8,3.3h-3.9
			c0.4-4.3,4.2-7.5,8.5-7.1c4,0.3,7.1,3.7,7.2,7.7c0.1,2.3-1,4.4-2.9,5.7c2.1,1.3,3.3,3.6,3.2,6c0.2,4.4-3.2,8.2-7.6,8.4
			c-0.2,0-0.5,0-0.7,0c-3.7,0-7-2.5-7.8-7.1h3.9c0.7,1.9,1.9,3.1,4.1,3.1c2.4,0,4.3-2,4.3-4.4c0-2.4-2-4.3-4.4-4.3h-1.7L140.5,147.6
			z"/>
		<path class="st3" d="M153.3,143.8c0-4.3,3.5-7.8,7.8-7.8c4.3,0,7.8,3.5,7.8,7.8c0,0,0,0,0,0v12.1c0,4.3-3.5,7.8-7.8,7.8
			c-4.3,0-7.8-3.5-7.8-7.8c0,0,0,0,0,0V143.8z M164.9,144c0-2.7-1.5-4.2-3.9-4.2s-3.9,1.5-3.9,4.2v11.6c0,2.6,1.5,4.2,3.9,4.2
			s3.9-1.5,3.9-4.2V144z"/>
		<path class="st3" d="M182.4,136.1H197v3.9h-10.9v6.2c1.2-1,2.8-1.5,4.4-1.5c1.8,0,3.6,0.7,4.9,2c1.5,1.6,2.2,3,2.2,7.5
			c0,3.7-0.5,5.1-1.7,6.6c-2.7,3.4-7.7,3.9-11,1.2c-1.7-1.3-2.7-3.3-2.9-5.4h3.9c0.3,1.9,2,3.3,3.9,3.2c3.9,0,3.9-3.3,3.9-5.9
			c0-3-0.7-5.3-4-5.3c-1.5,0-2.9,0.9-3.5,2.3h-3.7V136.1z"/>
		<path class="st3" d="M200.3,143.8c0-4.3,3.5-7.8,7.8-7.8c4.3,0,7.8,3.5,7.8,7.8c0,0,0,0,0,0v12.1c0,4.3-3.5,7.8-7.8,7.8
			c-4.3,0-7.8-3.5-7.8-7.8c0,0,0,0,0,0V143.8z M211.9,144c0-2.7-1.5-4.2-3.9-4.2s-3.9,1.5-3.9,4.2v11.6c0,2.6,1.5,4.2,3.9,4.2
			s3.9-1.5,3.9-4.2V144z"/>
		<polygon class="st3" points="173,146.4 178.2,149.9 173,153.5 		"/>
		<polygon class="st3" points="125,146.4 130.2,149.9 125,153.5 		"/>
		<polygon class="st3" points="118.3,146.4 123.5,149.9 118.3,153.5 		"/>
		<polygon class="st3" points="226.7,146.4 231.9,149.9 226.7,153.5 		"/>
		<polygon class="st3" points="220,146.4 225.2,149.9 220,153.5 		"/>
		<path class="st4" d="M10.7,204.6l-3.9-8.1H4v8.1H0v-20.2h7.9c4.1,0,6.6,2.8,6.6,6.2c0.1,2.4-1.4,4.5-3.7,5.3l4.5,8.7H10.7z
			 M7.7,187.9H4v5.3h3.7c1.5,0.1,2.8-1,2.9-2.4s-1-2.8-2.4-2.9C8,187.9,7.8,187.9,7.7,187.9"/>
		<polygon class="st4" points="31.2,204.6 23.2,192.2 23.2,204.6 19.3,204.6 19.3,184.4 22.8,184.4 30.8,196.8 30.8,184.4 
			34.8,184.4 34.8,204.6 		"/>
		<polygon class="st3" points="55.5,187.9 55.5,204.6 51.5,204.6 51.5,187.9 46.3,187.9 46.3,184.4 60.8,184.4 60.8,187.9 		"/>
		<polygon class="st3" points="75.5,204.6 75.5,196.2 68.7,196.2 68.7,204.6 64.7,204.6 64.7,184.4 68.7,184.4 68.7,192.7 
			75.5,192.7 75.5,184.4 79.4,184.4 79.4,204.6 		"/>
		<polygon class="st3" points="84.7,204.6 84.7,184.4 98,184.4 98,187.9 88.7,187.9 88.7,192.7 96.6,192.7 96.6,196.2 88.7,196.2 
			88.7,201.1 98,201.1 98,204.6 		"/>
		<polygon points="114.1,187.9 114.1,192.9 122.1,192.9 122.1,196.4 114.1,196.4 114.1,204.6 110.2,204.6 110.2,184.4 123.5,184.4 
			123.5,187.9 		"/>
		<path d="M134.8,204.8c-4.1,0-7.4-2.8-7.4-7.1v-13.3h4v13.1c0,2.3,1.4,3.7,3.5,3.7c1.9,0.1,3.4-1.3,3.5-3.2c0-0.2,0-0.4,0-0.5
			v-13.1h3.9v13.3C142.3,202,139,204.8,134.8,204.8"/>
		<polygon points="155.3,187.9 155.3,204.6 151.4,204.6 151.4,187.9 146.1,187.9 146.1,184.4 160.6,184.4 160.6,187.9 		"/>
		<path d="M171.8,204.8c-4.1,0-7.4-2.8-7.4-7.1v-13.3h3.9v13.1c0,2.3,1.4,3.7,3.5,3.7c1.9,0.1,3.4-1.3,3.5-3.2c0-0.2,0-0.3,0-0.5
			v-13.1h3.9v13.3C179.2,202,175.9,204.8,171.8,204.8"/>
		<path d="M195,204.6l-3.9-8.1h-2.8v8.1h-4v-20.2h7.9c4.1,0,6.6,2.8,6.6,6.2c0.1,2.4-1.4,4.5-3.7,5.3l4.5,8.7H195z M192,187.9h-3.7
			v5.3h3.7c1.5,0.1,2.8-1,2.9-2.4s-1-2.8-2.4-2.9C192.3,187.9,192.2,187.9,192,187.9"/>
		<polygon points="203.6,204.6 203.6,184.4 216.9,184.4 216.9,187.9 207.5,187.9 207.5,192.7 215.5,192.7 215.5,196.2 207.5,196.2 
			207.5,201.1 216.9,201.1 216.9,204.6 		"/>
		<path d="M236.9,197H233v7.6h-3.9v-20.2h7.8c4.2,0,6.7,2.9,6.7,6.3S241.1,197,236.9,197 M236.7,187.9H233v5.5h3.7
			c1.5,0,2.8-1.2,2.8-2.8S238.2,187.9,236.7,187.9C236.7,187.9,236.7,187.9,236.7,187.9"/>
		<path d="M258.3,204.6l-3.9-8.1h-2.8v8.1h-3.9v-20.2h7.9c4.1,0,6.6,2.8,6.6,6.2c0.1,2.4-1.4,4.5-3.7,5.3l4.5,8.7H258.3z
			 M255.2,187.9h-3.7v5.3h3.7c1.5,0.1,2.8-1,2.9-2.4c0.1-1.5-1-2.8-2.4-2.9C255.5,187.9,255.4,187.9,255.2,187.9"/>
		<path d="M279,202.6c-3.1,2.9-7.9,2.9-10.9,0c-2-2-2-4.6-2-8.1s0-6,2-8.1c3.1-2.9,7.9-2.9,10.9,0c2,2,2,4.6,2,8.1
			S281,200.5,279,202.6 M276.1,188.9c-1.4-1.4-3.6-1.4-5-0.1c0,0-0.1,0.1-0.1,0.1c-0.8,0.9-1,1.8-1,5.7s0.2,4.8,1,5.7
			c1.4,1.4,3.6,1.4,5,0.1c0,0,0.1-0.1,0.1-0.1c0.8-0.9,1-1.8,1-5.7S276.9,189.7,276.1,188.9"/>
		<path d="M288.6,204.8c-2,0.1-3.9-0.6-5.2-2.1l2.6-2.6c0.6,0.8,1.6,1.2,2.6,1.1c1.9,0,3.2-1.1,3.2-3.5v-13.4h4V198
			C295.7,202.5,292.3,204.8,288.6,204.8"/>
		<polygon points="300.8,204.6 300.8,184.4 314.1,184.4 314.1,187.9 304.7,187.9 304.7,192.7 312.7,192.7 312.7,196.2 304.7,196.2 
			304.7,201.1 314.1,201.1 314.1,204.6 		"/>
		<path d="M325.1,204.8c-2,0-4-0.8-5.5-2.2c-2-2-2-4.6-2-8.1s-0.1-6,2-8.1c1.4-1.5,3.4-2.3,5.5-2.2c3.8-0.2,7.1,2.6,7.4,6.4h-4
			c-0.2-1.7-1.7-2.9-3.4-2.9c-0.9,0-1.9,0.3-2.5,1c-0.8,0.9-1,1.8-1,5.7s0.2,4.9,1,5.7c0.7,0.7,1.6,1,2.5,1c1.7,0,3.2-1.2,3.4-2.9h4
			C332.2,202.1,328.9,204.9,325.1,204.8"/>
		<polygon points="344.7,187.9 344.7,204.6 340.8,204.6 340.8,187.9 335.5,187.9 335.5,184.4 350,184.4 350,187.9 		"/>
		<path d="M75.8,217.7c0.2,1.4,0.5,2.9,0.9,4.3c0.6-0.2,1.1-0.4,1.7-0.6l1.8-0.6c0.2-0.1,0.3-0.1,0.5-0.2l0.5,1.4
			c-1.4,0.3-2.8,0.8-4.2,1.3c-2,0.8-3,1.7-3,2.7c0,0.6,0.4,1.1,1.2,1.3c0.7,0.1,1.4,0.2,2.1,0.2c1.4,0,2.7-0.1,4-0.5l0.1,1.5
			c-0.3,0-0.7,0-1,0.1c-1,0.1-2,0.2-3,0.2c-1.3,0.1-2.5-0.1-3.7-0.7c-0.7-0.4-1.2-1.3-1.1-2.1c0-0.9,0.5-1.8,1.2-2.3
			c0.5-0.5,1.1-0.8,1.8-1.1c-0.4-1.2-0.7-2.4-0.9-3.6c0-0.3-0.1-0.6-0.2-0.9L75.8,217.7z"/>
		<path d="M86.5,222.8c0.4,0.2,0.8,0.3,1.3,0.4l1.1,0.2c0.1-0.5,0.2-1.5,0.3-2.1c-0.7-0.1-1.3-0.2-1.9-0.3l-0.4-0.1l0.1-1.2
			c0.8,0.3,1.6,0.4,2.4,0.5c0.1-0.7,0.2-1.5,0.3-2.2v-0.2l1.5,0.1c-0.1,0.3-0.2,0.6-0.2,0.9c-0.1,0.2-0.1,0.5-0.1,0.8
			c-0.1,0.3-0.1,0.4-0.1,0.7h0.5c0.9,0,1.7-0.1,2.6-0.3l-0.1,1.3h-0.6c-0.8,0.1-1.3,0.1-1.7,0.1h-1c-0.2,1.2-0.2,1.5-0.3,2.1h0.8
			c0.8,0,1.7-0.1,2.5-0.2v1.3c-0.1,0-0.2,0-0.4,0c-0.6,0.1-1.3,0.1-1.9,0.1c-0.2,0-0.4,0-1,0c0,0.5,0,0.8,0,1.1
			c-0.1,0.5,0.1,1.1,0.5,1.4c0.5,0.4,1.1,0.6,1.7,0.5c1.7,0,2.8-0.8,2.8-2.2c-0.1-0.9-0.5-1.7-1.2-2.3c0.5,0,0.9-0.1,1.4-0.3
			c0.2,0.2,0.4,0.5,0.6,0.8c0.4,0.6,0.6,1.2,0.6,1.9c0,0.9-0.5,1.8-1.2,2.4c-0.8,0.6-1.9,0.9-2.9,0.9c-1,0.1-1.9-0.2-2.7-0.8
			c-0.6-0.6-1-1.5-0.9-2.4c0-0.4,0-0.8,0.1-1.2c-0.6-0.1-1.3-0.2-1.9-0.3c-0.2,0-0.3-0.1-0.5-0.1L86.5,222.8z"/>
		<path d="M103.3,218.1c-0.4,1-0.6,2.1-0.7,3.2c-0.2,1.2-0.2,2.4-0.2,3.6v1.2l0,0c0.2-0.7,0.4-1.4,0.7-2.1l0.9,0.4
			c-0.6,1.2-1,2.5-1.1,3.9c0,0.1,0,0.2,0,0.3l-1.4,0.1c0-0.2,0-0.3-0.1-0.6c-0.2-1.3-0.4-2.6-0.3-3.9c0-1.7,0.2-3.5,0.6-5.2
			c0.1-0.4,0.2-0.8,0.2-1.2L103.3,218.1z M106.8,223.6c-0.6,0.5-0.9,1.2-1,1.9c0,0.8,0.8,1.3,2.3,1.3c1.1,0,2.1-0.1,3.1-0.5l0.1,1.4
			l-0.5,0.1c-0.9,0.2-1.8,0.2-2.7,0.2c-1.6,0-2.6-0.4-3.2-1.1c-0.3-0.4-0.4-0.8-0.4-1.3c0.1-1,0.5-1.9,1.2-2.6L106.8,223.6z
			 M104.8,219.4c0.7,0.2,1.5,0.2,2.3,0.2c1.3,0,2.5-0.1,3.7-0.4l0.1,1.4c-0.1,0-0.2,0-0.9,0.1c-0.9,0.1-1.9,0.2-2.8,0.2
			c-0.6,0-1.3,0-1.9-0.1h-0.4L104.8,219.4z"/>
		<path d="M115,220.5c1-0.1,1.9-0.3,2.9-0.6c1.3-0.3,2.6-0.5,3.8-0.5c2.6,0,4.2,1.4,4.2,3.6c0,1.8-1.2,3.4-2.9,4.1
			c-1.4,0.7-3,1-4.6,1.1c-0.1-0.5-0.3-1-0.6-1.4c1.2,0,2.4-0.2,3.6-0.5c1.9-0.6,2.9-1.8,2.9-3.2s-1-2.3-2.8-2.3
			c-1.8,0.1-3.6,0.4-5.3,0.9c-0.3,0.1-0.7,0.2-1,0.4L115,220.5z"/>
		<path d="M134.2,217.7c-0.1,0.3-0.2,0.6-0.2,0.9c-0.1,0.4-0.2,0.7-0.3,1.3c0.8,0,1.5-0.2,2.2-0.4l0.1,1.3c-0.2,0-0.3,0-0.4,0.1
			c-0.5,0.1-1.3,0.2-2.1,0.2c-0.4,1.3-0.9,2.6-1.5,3.9c-0.3,0.7-0.4,0.9-0.9,1.8c-0.1,0.2-0.2,0.3-0.3,0.5l-1.3-0.7
			c0.5-0.7,0.9-1.4,1.3-2.1c0.5-1,0.9-2.1,1.3-3.2h-2.2v-1.3c0.6,0.1,1.1,0.1,1.7,0.1h0.8c0.2-0.8,0.4-1.6,0.4-2.4L134.2,217.7z
			 M140.3,228.3c-0.6-0.7-1.3-1.3-2.1-1.7c0,0.1,0,0.2,0,0.3c0,0.5-0.2,1-0.5,1.4c-0.6,0.6-1.4,0.8-2.2,0.8c-1.7,0-2.8-0.8-2.8-2.1
			s1.1-2.2,2.8-2.2c0.5,0,0.9,0.1,1.3,0.1c0-0.7-0.1-1.2-0.1-1.7c0-0.4,0-0.8,0.1-1.3l1.3,0.1c-0.1,0.4-0.2,0.8-0.2,1.3
			c0,0.6,0.1,1.3,0.1,1.9c0.8,0.3,1.5,0.7,2.2,1.3c0.3,0.2,0.3,0.2,0.4,0.3l0.2,0.2L140.3,228.3z M135.6,225.9c-1,0-1.6,0.4-1.6,1
			s0.5,1,1.4,1s1.5-0.4,1.5-1.2c0-0.1,0-0.5,0-0.5C136.5,226,136.1,225.9,135.6,225.9 M140.4,222.3c-1.1-0.8-2.4-1.4-3.7-1.8l0.7-1
			c1.3,0.5,2.5,1,3.6,1.8L140.4,222.3z"/>
		<path d="M152.3,218.5c-0.6,0.5-1.1,1-1.6,1.5c-1,0.9-2,1.7-3.1,2.5c-0.4,0.3-0.5,0.4-0.5,0.6s0,0.2,1.2,1.1
			c1.5,1.1,2.9,2.3,4.2,3.5c0.2,0.2,0.2,0.2,0.4,0.3l-1.1,1.1c-0.5-0.7-1.1-1.3-1.7-1.8c-1.1-1-2.2-1.9-3.4-2.8c-0.8-0.6-1-1-1-1.5
			c0-0.4,0.2-0.7,0.4-1c0.4-0.3,0.7-0.7,1.2-0.9c1.5-1,2.8-2.3,4-3.7L152.3,218.5z M152.2,222.4c-0.3-0.6-0.8-1.2-1.3-1.8l0.8-0.5
			c0.5,0.5,0.9,1.1,1.3,1.8L152.2,222.4z M153.5,221.6c-0.3-0.6-0.8-1.2-1.3-1.7l0.8-0.4c0.5,0.5,0.9,1.1,1.3,1.7L153.5,221.6z"/>
		<path d="M179.6,217.5c-0.1,0.4-0.1,0.9-0.1,1.3c0,1,0.1,2.1,0.4,3.1c0.4,1.4,1.1,2.6,2,3.7c0.5,0.7,1.2,1.2,1.8,1.8
			c0.4,0.3,0.8,0.6,1.3,0.9c-0.4,0.4-0.7,0.8-0.9,1.2c-1.3-0.9-2.5-2-3.4-3.2c-0.8-1.2-1.4-2.5-1.8-3.9c-0.2,1-0.5,1.9-1,2.8
			c-0.5,1-1.2,1.9-2,2.6c-0.7,0.7-1.4,1.2-2.2,1.7c-0.2-0.4-0.5-0.8-0.9-1.1c1.2-0.6,2.2-1.4,3.1-2.4c1.6-2.1,2.4-4.6,2.3-7.2
			c0-0.4,0-0.7-0.1-1.1L179.6,217.5z"/>
		<path d="M192.3,217.7c0.2,1.4,0.5,2.9,0.9,4.3c0.6-0.2,1.1-0.4,1.7-0.6l1.8-0.6c0.2-0.1,0.3-0.1,0.5-0.2l0.5,1.4
			c-1.4,0.3-2.9,0.8-4.2,1.3c-2,0.8-3,1.7-3,2.7c0,0.6,0.4,1.1,1.2,1.3c0.7,0.1,1.4,0.2,2.1,0.2c1.4,0,2.7-0.2,4-0.5l0.1,1.5
			c-0.3,0-0.7,0-1,0.1c-1,0.1-2,0.2-3,0.2c-1.3,0.1-2.5-0.1-3.7-0.7c-0.7-0.4-1.2-1.3-1.1-2.1c0-0.9,0.5-1.8,1.2-2.3
			c0.5-0.4,1.1-0.8,1.7-1.1c-0.4-1.2-0.7-2.4-0.9-3.6c0-0.3-0.1-0.6-0.2-0.9L192.3,217.7z"/>
		<path d="M205.3,228.2c0,0.4,0,0.9,0.1,1.3H204c0.1-0.4,0.1-0.9,0.1-1.4v-3.7c-0.5,0.5-1,0.9-1.6,1.3c-0.1-0.4-0.3-0.8-0.6-1.1
			c0.9-0.5,1.7-1.2,2.4-1.9c0.6-0.6,1.1-1.4,1.5-2.2h-2.3c-0.4,0-0.7,0-1.1,0.1v-1.2c0.3,0,0.7,0.1,1.1,0.1h0.7v-1.2
			c0-0.3,0-0.7-0.1-1h1.4c-0.1,0.3-0.1,0.7-0.1,1v1.1h0.6c0.3,0,0.5,0,0.8,0l0.6,0.6c-0.1,0.2-0.2,0.3-0.3,0.5
			c-0.4,0.8-0.8,1.6-1.4,2.3c0.6,0.7,1.3,1.3,2.1,1.7c-0.3,0.3-0.5,0.7-0.6,1.1c-0.7-0.4-1.3-1-1.8-1.6L205.3,228.2z M210.8,227.7
			h1.8c0.5,0,1,0,1.5-0.1v1.3c-0.5-0.1-1-0.1-1.5-0.1H208c-0.5,0-1,0-1.5,0.1v-1.4c0.5,0.1,1,0.1,1.5,0.1h1.6v-5.4h-1.1
			c-0.5,0-0.9,0-1.3,0.1v-1.3c0.4,0.1,0.9,0.1,1.3,0.1h1.1v-2.6c0-0.4,0-0.9-0.1-1.3h1.4c-0.1,0.4-0.1,0.9-0.1,1.3v2.6h1.5
			c0.4,0,0.9,0,1.3-0.1v1.3c-0.4,0-0.9-0.1-1.3-0.1h-1.5L210.8,227.7z"/>
		<path d="M219.3,221.5c-0.7,0.5-1.4,0.9-2.2,1.2c-0.2-0.4-0.4-0.8-0.7-1.1c2.2-0.8,4.2-2.3,5.5-4.3h1.3c0.6,0.9,1.4,1.7,2.2,2.3
			c1.1,0.8,2.3,1.5,3.5,1.9c-0.3,0.4-0.5,0.8-0.6,1.2c-0.8-0.4-1.6-0.8-2.4-1.3v1.1c-0.4,0-0.8-0.1-1.2-0.1h-4.4
			c-0.4,0-0.7,0-1.1,0.1L219.3,221.5z M218.5,225c-0.5,0-1,0-1.6,0.1v-1.3c0.5,0.1,1,0.1,1.6,0.1h8.2c0.5,0,1,0,1.5-0.1v1.3
			c-0.5-0.1-1-0.1-1.5-0.1h-4.6c-0.4,1-0.9,1.9-1.5,2.8c3.1-0.2,3.1-0.2,4.6-0.4c-0.6-0.6-0.8-0.9-1.4-1.5l1-0.6
			c1.1,1.1,2.2,2.3,3.1,3.5l-1.1,0.7c-0.4-0.6-0.6-0.9-0.9-1.2c-2.2,0.3-4.7,0.6-6.7,0.7c-1.1,0.1-1.6,0.1-1.9,0.2l-0.2-1.4h0.8h0.6
			h0.6c0.6-0.9,1.1-1.9,1.5-2.9L218.5,225z M224.8,221.4c0.4,0,0.6,0,0.9,0c-1.2-0.8-2.3-1.7-3.1-2.9c-0.8,1.1-1.8,2.1-3,2.9
			c0.3,0,0.6,0,0.9,0H224.8z"/>
		<path d="M236,217.7c0.2,1.4,0.5,2.9,0.9,4.3c0.6-0.2,1.1-0.4,1.7-0.6l1.8-0.6c0.2-0.1,0.3-0.1,0.5-0.2l0.5,1.4
			c-1.4,0.3-2.9,0.8-4.2,1.3c-2,0.8-3.1,1.7-3.1,2.7c0,0.6,0.4,1.1,1.2,1.3c0.7,0.1,1.4,0.2,2.1,0.2c1.4,0,2.7-0.1,4-0.5l0.1,1.5
			c-0.3,0-0.3,0-1,0.1c-1,0.1-2,0.2-3,0.2c-1.3,0.1-2.6-0.1-3.7-0.7c-0.7-0.5-1.2-1.3-1.1-2.1c0-0.9,0.5-1.7,1.2-2.3
			c0.5-0.5,1.1-0.8,1.8-1.1c-0.4-1.2-0.7-2.4-0.9-3.6c0-0.3-0.1-0.6-0.2-0.9L236,217.7z"/>
		<path d="M246.7,219.1c-0.3,0-0.7,0-1,0.1v-1.2c0.4,0.1,0.8,0.1,1.1,0.1h1.3c0.4,0,0.8,0,1.1-0.1v1.2c-0.3-0.1-0.6-0.1-0.9-0.1
			h-0.2v2.8c0.3,0,0.6,0,0.9-0.1v1.2c-0.3,0-0.6,0-0.9,0v2.8c0.5-0.2,0.7-0.3,1.4-0.6v1.2c-1.2,0.6-2,0.9-3.1,1.3
			c-0.2,0.1-0.5,0.2-0.7,0.3l-0.3-1.3c0.5-0.1,1-0.2,1.6-0.4V223h-0.2c-0.3,0-0.6,0-0.9,0.1v-1.1c0.3,0,0.6,0.1,0.9,0.1h0.2v-2.8
			L246.7,219.1z M257.4,226.1c-0.2,0.2-1.1,0.9-1.4,1.1c0.7,0.4,1.4,0.7,2.2,0.9c-0.2,0.4-0.4,0.7-0.6,1.1c-0.9-0.3-1.7-0.8-2.4-1.3
			c-0.5-0.4-1-0.9-1.4-1.5c0,0.5,0.1,0.7,0.1,1.1v0.9c0,0.4,0,0.8,0.1,1.2h-1.3c0-0.4,0.1-0.8,0.1-1.2v-0.8c0-0.2,0-0.6,0-0.7
			c0-0.1,0-0.3,0-0.4c-1,1.1-2.3,2-3.6,2.6c-0.2-0.4-0.4-0.7-0.8-1c0.9-0.3,1.7-0.7,2.4-1.2c0.6-0.4,1.2-0.9,1.7-1.4H251
			c-0.3,0-0.7,0-1.1,0c0-0.3,0-0.5,0-0.8v-1c0-0.3,0-0.6,0-0.8c0.3,0,0.7,0,1.1,0h4.8c0.5,0,0.8,0,1.1,0c0,0.3,0,0.6,0,0.8v1.1
			c0,0.3,0,0.5,0,0.8c-0.2,0-0.3,0-0.5,0L257.4,226.1z M249.4,221.2c0.4,0.1,0.8,0.1,1.3,0.1h5.8c0.4,0,0.8,0,1.3-0.1v1.1
			c-0.4-0.1-0.8-0.1-1.2-0.1h-5.9c-0.4,0-0.8,0-1.3,0.1L249.4,221.2z M249.7,218.6c0-0.3,0-0.6-0.1-0.9c0.4,0,0.7,0,1.1,0h5.6
			c0.4,0,0.8,0,1.1,0c0,0.3-0.1,0.6-0.1,0.9v1.2c0,0.3,0,0.6,0.1,0.9c-0.3,0-0.7,0-1,0h-5.7c-0.3,0-0.7,0-1,0c0-0.3,0-0.6,0-0.9
			L249.7,218.6z M251.9,218.6h-1.2v1.1h1.3L251.9,218.6z M251.1,224.6h4.6v-0.9h-4.6V224.6z M254.1,218.6h-1.2v1.1h1.2V218.6z
			 M254,225.5c0.3,0.4,0.7,0.8,1.1,1.1c0.5-0.3,0.9-0.7,1.3-1.1H254L254,225.5z M256.3,218.6h-1.2v1.1h1.2V218.6z"/>
		<path d="M261.7,219c0-0.5,0-1-0.1-1.5h1.3c-0.1,0.5-0.1,1-0.1,1.5v1.8h0.1c0.3,0,0.7,0,1-0.1v1.2c-0.3,0-0.7,0-1,0h-0.1v3.5
			c0.4-0.2,0.6-0.3,1.3-0.6l0,1.2c-1,0.5-1.7,0.8-3.2,1.4c-0.2,0.1-0.4,0.2-0.6,0.3l-0.3-1.3c0.5-0.1,1.1-0.3,1.6-0.5v-4h-0.4
			c-0.4,0-0.7,0-1.1,0.1v-1.2c0.4,0.1,0.7,0.1,1.1,0.1h0.3L261.7,219z M265.7,226.3c-0.4,0-0.7,0-1.1,0c0-0.3,0.1-0.6,0.1-0.9v-2.3
			c0-0.3,0-0.7-0.1-1c0.3,0,0.7,0,1.3,0h4.5c0.6,0,0.9,0,1.2,0c0,0.3-0.1,0.7-0.1,1.1v2.2c0,0.3,0,0.7,0.1,1c-0.4,0-0.7,0-1.1,0h-1
			v1.7c0,0.3,0.1,0.3,1,0.3c0.6,0,0.8-0.1,0.9-0.2c0.1-0.4,0.2-0.9,0.1-1.4c0.3,0.2,0.7,0.3,1.1,0.4c-0.1,1.2-0.2,1.6-0.5,1.9
			s-0.7,0.3-1.8,0.3s-1.4,0-1.6-0.2c-0.2-0.2-0.4-0.4-0.3-0.7v-2.1h-1.1c0,0.3-0.1,0.6-0.2,0.9c-0.3,0.8-0.9,1.4-1.6,1.8
			c-0.6,0.3-1.3,0.5-2,0.7c-0.1-0.4-0.4-0.8-0.6-1.1c2.3-0.3,3.2-0.9,3.3-2.3L265.7,226.3z M270.6,218.5c0.5,0,0.9,0,1.4-0.1v1
			c-0.5,0-0.9,0-1.4,0c-0.2,0.4-0.3,0.7-0.5,1.1h0.9c0.4,0,0.9,0,1.3-0.1v1.1c-0.5,0-0.9-0.1-1.4-0.1h-5.5c-0.6,0-0.8,0-1.2,0v-1.1
			c0.4,0,0.8,0.1,1.2,0.1h0.6c-0.1-0.4-0.3-0.7-0.4-1.1h-0.2c-0.4,0-0.8,0-1.1,0v-1c0.5,0.1,0.9,0.1,1.4,0.1h1.8v-0.3
			c0-0.3,0-0.5-0.1-0.8h1.3c-0.1,0.3-0.1,0.5-0.1,0.8v0.3L270.6,218.5z M265.8,223.7h4.6V223h-4.6V223.7z M265.8,225.4h4.6v-0.8
			h-4.6V225.4z M268.9,220.5c0.2-0.4,0.4-0.7,0.5-1.1h-2.6c0.2,0.4,0.3,0.7,0.4,1.1H268.9z"/>
	</g>
</g>
</svg>
