<svg xmlns="http://www.w3.org/2000/svg" xmlns:xlink="http://www.w3.org/1999/xlink" width="157.32" height="104.478" viewBox="0 0 157.32 104.478">
  <defs>
    <clipPath id="clip-path">
      <path id="パス_22190" data-name="パス 22190" d="M386.623,822.339A21.7,21.7,0,0,0,429.59,826.7v-8.72a21.7,21.7,0,0,0-42.966,4.36" transform="translate(-386.623 -800.636)" fill="none"/>
    </clipPath>
  </defs>
  <g id="deco01" transform="translate(-75.361 26.308) rotate(-9)">
    <path id="パス_22140" data-name="パス 22140" d="M311.6,811.5c-.267,0-.539,0-.807.011a28.148,28.148,0,0,0-17.914,7.049c-.011,1.008-.06,2.026-.149,3.047a39.044,39.044,0,0,1-9,21.759,28.033,28.033,0,0,0,27.808,23.911c.268,0,.539,0,.808-.011a28.275,28.275,0,0,0,10.482-2.319l0-.007a27.982,27.982,0,0,0,16.519-21.171v-.005l.01-.062V843.7c.006-.037.012-.072.017-.109l0-.021.006-.044.005-.037.005-.033.009-.064,0-.013c0-.026.008-.053.012-.079l0-.016c0-.023.005-.044.009-.067l0-.015a27.893,27.893,0,0,0,.255-4.409v-.013c0-.024,0-.049,0-.072v-.015l0-.084A28,28,0,0,0,311.6,811.5" transform="translate(-212.909 -776.915)" fill="#b4bd20"/>
    <path id="パス_22141" data-name="パス 22141" d="M292.9,818.025a27.738,27.738,0,0,0-9.42,21.614,28.162,28.162,0,0,0,.272,3.192,39.034,39.034,0,0,0,9-21.758q.135-1.533.149-3.048" transform="translate(-212.931 -776.382)" fill="#b4bd20"/>
    <path id="パス_22142" data-name="パス 22142" d="M309.559,808.467q-.448,0-.9.013l.092,3.279c.269-.008.54-.012.807-.012a28,28,0,0,1,28.082,27.1c0,.028,0,.056,0,.084v.016c0,.024,0,.048,0,.073v.012a27.77,27.77,0,0,1-.254,4.41l0,.015-.01.066,0,.016c0,.027-.008.053-.011.08l0,.012-.01.064a.3.3,0,0,1-.005.034c0,.013,0,.025-.005.037l-.007.045,0,.019-.016.11v.005l-.01.061v.006a27.986,27.986,0,0,1-16.516,21.176,29.36,29.36,0,0,1,1.686,2.836,31.123,31.123,0,0,0-12.919-59.563" transform="translate(-210.872 -777.163)" fill="#e3ebdb"/>
    <path id="パス_22143" data-name="パス 22143" d="M374.2,782.648a3.12,3.12,0,1,1-3.12-3.12,3.12,3.12,0,0,1,3.12,3.12" transform="translate(-206.025 -779.528)" fill="#499935"/>
    <path id="パス_22144" data-name="パス 22144" d="M361.95,791.455a6.159,6.159,0,1,1-6.158-6.158,6.158,6.158,0,0,1,6.158,6.158" transform="translate(-207.523 -779.057)" fill="#30862f"/>
    <path id="パス_22145" data-name="パス 22145" d="M340.755,785.3a17.163,17.163,0,1,0,13.379,27.915q.811-1.366,1.751-2.642a17.219,17.219,0,0,0,1.328-13,6.167,6.167,0,0,1-5.152-8.028,17.1,17.1,0,0,0-11.306-4.25" transform="translate(-209.651 -779.057)" fill="#b4bd20"/>
    <path id="パス_22146" data-name="パス 22146" d="M349.934,789.225a6.164,6.164,0,0,0,5.151,8.028,17.165,17.165,0,0,0-5.151-8.028" transform="translate(-207.523 -778.735)" fill="#14792d"/>
    <path id="パス_22147" data-name="パス 22147" d="M427.694,803.159a9.587,9.587,0,1,1-9.586-9.588,9.587,9.587,0,0,1,9.586,9.588" transform="translate(-202.71 -778.38)" fill="#da9397"/>
    <path id="パス_22148" data-name="パス 22148" d="M379.558,796.672a31.787,31.787,0,0,0-25.645,12.968,17.144,17.144,0,0,1-1.751,2.643,31.839,31.839,0,1,0,56.154,29.89.962.962,0,0,1,.561-1.743.987.987,0,0,1,.2.02,31.956,31.956,0,0,0,.274-23.19.962.962,0,1,1-.729-1.766,31.8,31.8,0,0,0-4.194-6.864.962.962,0,1,1-1.2-1.411,31.751,31.751,0,0,0-23.671-10.547m18.814,12.387a.963.963,0,1,1,.962-.963.963.963,0,0,1-.962.963m5.253,4.161a.962.962,0,1,1,.963-.962.963.963,0,0,1-.963.962m-5.253,0a.962.962,0,1,1,.962-.962.963.963,0,0,1-.962.962M393.01,811.3c.036,0,.071-.005.108-.005a.962.962,0,1,1-.876,1.361c.24-.461.5-.914.768-1.355m10.615,6.081a.962.962,0,1,1,.963-.961.962.962,0,0,1-.963.961m-5.253,0a.962.962,0,1,1,.962-.961.962.962,0,0,1-.962.961m-5.254,0a.962.962,0,1,1,.962-.961.962.962,0,0,1-.962.961m15.76,4.161a.962.962,0,1,1,.963-.962.961.961,0,0,1-.963.962m-5.253,0a.962.962,0,1,1,.963-.962.962.962,0,0,1-.963.962m-5.253,0a.962.962,0,1,1,.962-.962.962.962,0,0,1-.962.962m-5.254,0a.962.962,0,1,1,.962-.962.962.962,0,0,1-.962.962m15.76,4.164a.962.962,0,1,1,.963-.964.963.963,0,0,1-.963.964m-5.253,0a.962.962,0,1,1,.963-.964.964.964,0,0,1-.963.964m-5.253,0a.962.962,0,1,1,.962-.964.964.964,0,0,1-.962.964m-5.254,0a.962.962,0,1,1,.962-.964.964.964,0,0,1-.962.964m15.76,4.161a.962.962,0,1,1,.963-.963.962.962,0,0,1-.963.963m-5.253,0a.962.962,0,1,1,.963-.963.963.963,0,0,1-.963.963m-5.253,0a.962.962,0,1,1,.962-.963.963.963,0,0,1-.962.963m-5.254,0a.962.962,0,1,1,.962-.963.963.963,0,0,1-.962.963m15.76,4.163a.963.963,0,1,1,.963-.963.963.963,0,0,1-.963.963m-5.253,0a.963.963,0,1,1,.963-.963.964.964,0,0,1-.963.963m-5.253,0a.963.963,0,1,1,.962-.963.963.963,0,0,1-.962.963m-6.129-1.362a.962.962,0,1,1,.875,1.362.915.915,0,0,1-.107-.006q-.407-.662-.768-1.355m16.635,5.524a.963.963,0,1,1,.963-.964.963.963,0,0,1-.963.964m-5.253,0a.963.963,0,1,1,.963-.964.964.964,0,0,1-.963.964m-5.253,0a.963.963,0,1,1,.962-.964.964.964,0,0,1-.962.964m5.253,4.16a.962.962,0,1,1,.963-.962.962.962,0,0,1-.963.962" transform="translate(-207.679 -778.127)" fill="#499935"/>
    <g id="グループ_914" data-name="グループ 914" transform="translate(182.123 22.833)">
      <g id="グループ_913" data-name="グループ 913" clip-path="url(#clip-path)">
        <path id="パス_22149" data-name="パス 22149" d="M399.474,802.5a.962.962,0,1,0,.963.962.963.963,0,0,0-.963-.962" transform="translate(-385.651 -800.484)" fill="#e3ebdb"/>
        <path id="パス_22150" data-name="パス 22150" d="M404.33,802.5a.962.962,0,1,0,.963.962.963.963,0,0,0-.963-.962" transform="translate(-385.254 -800.484)" fill="#e3ebdb"/>
        <path id="パス_22151" data-name="パス 22151" d="M409.186,802.5a.962.962,0,1,0,.963.962.963.963,0,0,0-.963-.962" transform="translate(-384.858 -800.484)" fill="#e3ebdb"/>
        <path id="パス_22152" data-name="パス 22152" d="M414.043,802.5a.962.962,0,1,0,.963.962.963.963,0,0,0-.963-.962" transform="translate(-384.461 -800.484)" fill="#e3ebdb"/>
        <path id="パス_22153" data-name="パス 22153" d="M399.431,806.343a.953.953,0,0,0-.4.085q.618.686,1.2,1.409a.948.948,0,0,0,.162-.532.963.963,0,0,0-.963-.963" transform="translate(-385.609 -800.17)" fill="#e3ebdb"/>
        <path id="パス_22154" data-name="パス 22154" d="M404.33,806.343a.962.962,0,1,0,.963.963.963.963,0,0,0-.963-.963" transform="translate(-385.254 -800.17)" fill="#e3ebdb"/>
        <path id="パス_22155" data-name="パス 22155" d="M409.186,806.343a.962.962,0,1,0,.963.963.963.963,0,0,0-.963-.963" transform="translate(-384.858 -800.17)" fill="#e3ebdb"/>
        <path id="パス_22156" data-name="パス 22156" d="M414.043,806.343a.962.962,0,1,0,.963.963.963.963,0,0,0-.963-.963" transform="translate(-384.461 -800.17)" fill="#e3ebdb"/>
        <path id="パス_22157" data-name="パス 22157" d="M418.9,806.343a.962.962,0,1,0,.963.963.962.962,0,0,0-.963-.963" transform="translate(-384.063 -800.17)" fill="#e3ebdb"/>
        <path id="パス_22158" data-name="パス 22158" d="M404.33,810.191a.962.962,0,1,0,.963.963.963.963,0,0,0-.963-.963" transform="translate(-385.254 -799.855)" fill="#e3ebdb"/>
        <path id="パス_22159" data-name="パス 22159" d="M409.186,810.191a.962.962,0,1,0,.963.963.963.963,0,0,0-.963-.963" transform="translate(-384.858 -799.855)" fill="#e3ebdb"/>
        <path id="パス_22160" data-name="パス 22160" d="M414.043,810.191a.962.962,0,1,0,.963.963.963.963,0,0,0-.963-.963" transform="translate(-384.461 -799.855)" fill="#e3ebdb"/>
        <path id="パス_22161" data-name="パス 22161" d="M418.9,810.191a.962.962,0,1,0,.963.963.961.961,0,0,0-.963-.963" transform="translate(-384.063 -799.855)" fill="#e3ebdb"/>
        <path id="パス_22162" data-name="パス 22162" d="M423.756,810.191a.962.962,0,1,0,.876,1.361c-.24-.461-.5-.914-.768-1.355-.036,0-.071-.005-.108-.005" transform="translate(-383.666 -799.855)" fill="#e3ebdb"/>
        <path id="パス_22163" data-name="パス 22163" d="M404.277,814.038a.966.966,0,0,0-.259.035q.389.871.729,1.767a.962.962,0,0,0-.471-1.8" transform="translate(-385.201 -799.541)" fill="#e3ebdb"/>
        <path id="パス_22164" data-name="パス 22164" d="M409.186,814.038a.962.962,0,1,0,.963.963.963.963,0,0,0-.963-.963" transform="translate(-384.858 -799.541)" fill="#e3ebdb"/>
        <path id="パス_22165" data-name="パス 22165" d="M414.043,814.038a.962.962,0,1,0,.963.963.963.963,0,0,0-.963-.963" transform="translate(-384.461 -799.541)" fill="#e3ebdb"/>
        <path id="パス_22166" data-name="パス 22166" d="M418.9,814.038a.962.962,0,1,0,.963.963.961.961,0,0,0-.963-.963" transform="translate(-384.063 -799.541)" fill="#e3ebdb"/>
        <path id="パス_22167" data-name="パス 22167" d="M423.756,814.038a.962.962,0,1,0,.963.963.961.961,0,0,0-.963-.963" transform="translate(-383.666 -799.541)" fill="#e3ebdb"/>
        <path id="パス_22168" data-name="パス 22168" d="M409.186,817.886a.962.962,0,1,0,.963.961.962.962,0,0,0-.963-.961" transform="translate(-384.858 -799.226)" fill="#e3ebdb"/>
        <path id="パス_22169" data-name="パス 22169" d="M414.043,817.886a.962.962,0,1,0,.963.961.962.962,0,0,0-.963-.961" transform="translate(-384.461 -799.226)" fill="#e3ebdb"/>
        <path id="パス_22170" data-name="パス 22170" d="M418.9,817.886a.962.962,0,1,0,.963.961.96.96,0,0,0-.963-.961" transform="translate(-384.063 -799.226)" fill="#e3ebdb"/>
        <path id="パス_22171" data-name="パス 22171" d="M423.756,817.886a.962.962,0,1,0,.963.961.96.96,0,0,0-.963-.961" transform="translate(-383.666 -799.226)" fill="#e3ebdb"/>
        <path id="パス_22172" data-name="パス 22172" d="M409.186,821.734a.962.962,0,1,0,.963.961.962.962,0,0,0-.963-.961" transform="translate(-384.858 -798.912)" fill="#e3ebdb"/>
        <path id="パス_22173" data-name="パス 22173" d="M414.043,821.734a.962.962,0,1,0,.963.961.962.962,0,0,0-.963-.961" transform="translate(-384.461 -798.912)" fill="#e3ebdb"/>
        <path id="パス_22174" data-name="パス 22174" d="M418.9,821.734a.962.962,0,1,0,.963.961.96.96,0,0,0-.963-.961" transform="translate(-384.063 -798.912)" fill="#e3ebdb"/>
        <path id="パス_22175" data-name="パス 22175" d="M423.756,821.734a.962.962,0,1,0,.963.961.96.96,0,0,0-.963-.961" transform="translate(-383.666 -798.912)" fill="#e3ebdb"/>
        <path id="パス_22176" data-name="パス 22176" d="M409.186,825.581a.962.962,0,1,0,.963.963.963.963,0,0,0-.963-.963" transform="translate(-384.858 -798.597)" fill="#e3ebdb"/>
        <path id="パス_22177" data-name="パス 22177" d="M414.043,825.581a.962.962,0,1,0,.963.963.963.963,0,0,0-.963-.963" transform="translate(-384.461 -798.597)" fill="#e3ebdb"/>
        <path id="パス_22178" data-name="パス 22178" d="M418.9,825.581a.962.962,0,1,0,.963.963.961.961,0,0,0-.963-.963" transform="translate(-384.063 -798.597)" fill="#e3ebdb"/>
        <path id="パス_22179" data-name="パス 22179" d="M423.756,825.581a.962.962,0,1,0,.963.963.961.961,0,0,0-.963-.963" transform="translate(-383.666 -798.597)" fill="#e3ebdb"/>
        <path id="パス_22180" data-name="パス 22180" d="M409.186,829.428a.962.962,0,1,0,.963.963.963.963,0,0,0-.963-.963" transform="translate(-384.858 -798.283)" fill="#e3ebdb"/>
        <path id="パス_22181" data-name="パス 22181" d="M414.043,829.428a.962.962,0,1,0,.963.963.963.963,0,0,0-.963-.963" transform="translate(-384.461 -798.283)" fill="#e3ebdb"/>
        <path id="パス_22182" data-name="パス 22182" d="M418.9,829.428a.962.962,0,1,0,.963.963.962.962,0,0,0-.963-.963" transform="translate(-384.063 -798.283)" fill="#e3ebdb"/>
        <path id="パス_22183" data-name="パス 22183" d="M423.756,829.428a.962.962,0,0,0,0,1.924c.036,0,.071,0,.107-.005q.407-.664.769-1.357a.964.964,0,0,0-.876-.562" transform="translate(-383.666 -798.283)" fill="#e3ebdb"/>
        <path id="パス_22184" data-name="パス 22184" d="M409.186,833.276a.963.963,0,1,0,.963.963.963.963,0,0,0-.963-.963" transform="translate(-384.858 -797.968)" fill="#e3ebdb"/>
        <path id="パス_22185" data-name="パス 22185" d="M414.043,833.276a.963.963,0,1,0,.963.963.963.963,0,0,0-.963-.963" transform="translate(-384.461 -797.968)" fill="#e3ebdb"/>
        <path id="パス_22186" data-name="パス 22186" d="M418.9,833.276a.963.963,0,1,0,.963.963.962.962,0,0,0-.963-.963" transform="translate(-384.063 -797.968)" fill="#e3ebdb"/>
        <path id="パス_22187" data-name="パス 22187" d="M404.5,837.142q-.354.875-.758,1.722a.962.962,0,1,0,.758-1.722" transform="translate(-385.224 -797.652)" fill="#e3ebdb"/>
        <path id="パス_22188" data-name="パス 22188" d="M409.186,837.124a.962.962,0,1,0,.963.963.963.963,0,0,0-.963-.963" transform="translate(-384.858 -797.654)" fill="#e3ebdb"/>
        <path id="パス_22189" data-name="パス 22189" d="M414.043,837.124a.962.962,0,1,0,.963.963.963.963,0,0,0-.963-.963" transform="translate(-384.461 -797.654)" fill="#e3ebdb"/>
      </g>
    </g>
  </g>
</svg>
