<svg xmlns="http://www.w3.org/2000/svg" xmlns:xlink="http://www.w3.org/1999/xlink" viewBox="0 0 165.67 45.3"><defs><style>.cls-1{fill:none;}.cls-2{clip-path:url(#clip-path);}.cls-3{fill:#231815;}.cls-4{fill:#e60012;}.cls-5{fill:#004ea2;}.cls-6{fill:#040000;}</style><clipPath id="clip-path" transform="translate(-3.4 -3.92)"><rect class="cls-1" width="172.35" height="53.52"/></clipPath></defs><g id="レイヤー_2" data-name="レイヤー 2"><g id="レイヤー_1-2" data-name="レイヤー 1"><g class="cls-2"><path class="cls-3" d="M12.81,27.93A7.85,7.85,0,0,0,9.35,26a10.89,10.89,0,0,1-3-1.36,2.32,2.32,0,0,1-.5-.49,1.64,1.64,0,0,1,0-2,3.3,3.3,0,0,1,2.71-1.3,3.42,3.42,0,0,1,2.93,1.46A3.72,3.72,0,0,1,12,24.11h1.71a4.81,4.81,0,0,0-5.07-4.79,5.24,5.24,0,0,0-3.52,1.23,3.45,3.45,0,0,0-.75,4.65c1,1.3,2.58,1.87,4,2.38,2.95,1,3.85,1.86,3.85,3.62a3.44,3.44,0,0,1-3.75,3.44A3.2,3.2,0,0,1,5,31.39H3.4v.12A4.45,4.45,0,0,0,4,33.81a4.78,4.78,0,0,0,4.57,2.38c3.23,0,5.4-2.06,5.4-5.13a4.64,4.64,0,0,0-1.15-3.13" transform="translate(-3.4 -3.92)"/><path class="cls-3" d="M17.63,25.39v1.5a3.38,3.38,0,0,1,3.07-1.75,2.78,2.78,0,0,1,2.9,2,3.53,3.53,0,0,1,3.42-2,3.26,3.26,0,0,1,2.74,1.14c.51.68.65,1.29.65,3v6.9H28.63V29.7c0-1.31,0-1.61-.3-2.06a2.11,2.11,0,0,0-1.87-.91c-1.57,0-2.44,1.05-2.44,3v6.48H22.24V29.72a4,4,0,0,0-.35-2.06,1.86,1.86,0,0,0-1.75-.93c-1.57,0-2.51,1.12-2.51,3v6.46H15.85V25.39Z" transform="translate(-3.4 -3.92)"/><path class="cls-3" d="M35.07,22.38A1.14,1.14,0,1,1,34,21.21a1.12,1.12,0,0,1,1.12,1.17m-.25,13.8H33V25.4h1.78Z" transform="translate(-3.4 -3.92)"/><rect class="cls-3" x="34.11" y="16.66" width="1.78" height="15.61"/><path class="cls-3" d="M43,31.36a3.31,3.31,0,0,0,.7,2,3.5,3.5,0,0,0,2.9,1.47A3.71,3.71,0,0,0,49.85,33l1.57.59a5.29,5.29,0,0,1-4.8,2.9,5.35,5.35,0,0,1-5.5-5.62A5.46,5.46,0,1,1,52,30.66a6.39,6.39,0,0,1,0,.7Zm7.11-1.31a3.31,3.31,0,0,0-.61-1.85,3.71,3.71,0,0,0-3-1.47,3.46,3.46,0,0,0-2.9,1.5A4.22,4.22,0,0,0,43,30.05Z" transform="translate(-3.4 -3.92)"/><path class="cls-3" d="M93.84,25.39v1.53A3.85,3.85,0,0,1,99.55,26c.68.65.91,1.4.91,2.88v7.27H98.69V29.3a3,3,0,0,0-.4-1.85,2.1,2.1,0,0,0-1.69-.72,2.69,2.69,0,0,0-2.06.91,2.57,2.57,0,0,0-.7,2v6.57H92.06V25.39Z" transform="translate(-3.4 -3.92)"/><path class="cls-3" d="M113.2,30.82a5.51,5.51,0,0,1-5.52,5.62,5.33,5.33,0,0,1-5.46-5.66,5.49,5.49,0,1,1,11,0m-9.15,0c0,2.39,1.47,4,3.67,4a3.69,3.69,0,0,0,3.65-4c0-2.41-1.45-4-3.62-4s-3.7,1.61-3.7,4" transform="translate(-3.4 -3.92)"/><polygon class="cls-3" points="120.26 21.48 116.19 32.27 114.32 32.27 110.36 21.48 112.23 21.48 115.28 29.72 118.41 21.48 120.26 21.48"/><path class="cls-3" d="M140.16,34c0,.54.16.66.82.66h.82v1.54h-1.66c-1.27,0-1.76-.49-1.76-1.68V27h-1.5V25.4h1.5V22h1.78v3.4h1.64V27h-1.64Z" transform="translate(-3.4 -3.92)"/><path class="cls-3" d="M146,22.38a1.14,1.14,0,1,1-1.12-1.17A1.12,1.12,0,0,1,146,22.38m-.25,13.8h-1.78V25.4h1.78Z" transform="translate(-3.4 -3.92)"/><path class="cls-3" d="M158.84,30.82a5.52,5.52,0,0,1-5.53,5.62,5.33,5.33,0,0,1-5.45-5.66,5.49,5.49,0,1,1,11,0m-9.15,0c0,2.39,1.47,4,3.67,4a3.69,3.69,0,0,0,3.65-4c0-2.41-1.45-4-3.63-4s-3.69,1.61-3.69,4" transform="translate(-3.4 -3.92)"/><path class="cls-3" d="M162.45,25.39v1.53a3.66,3.66,0,0,1,3.2-1.78,3.75,3.75,0,0,1,2.51.89,3.52,3.52,0,0,1,.91,2.88v7.27h-1.78V29.3a3,3,0,0,0-.4-1.85,2.09,2.09,0,0,0-1.68-.72,2.67,2.67,0,0,0-2.06.91,2.53,2.53,0,0,0-.7,2v6.57h-1.78V25.39Z" transform="translate(-3.4 -3.92)"/><path class="cls-4" d="M67.92,34.32h-.41a2.47,2.47,0,0,1-2-1L63,29.7a6.5,6.5,0,0,0,2.88-.65,4.26,4.26,0,0,0,2.25-3.94c0-2.83-2-4.54-5.34-4.54H58.48V36.18h2V29.63l3.65,5a3.87,3.87,0,0,0,3.13,1.58H68V34.31h0m-7.47-6v-6h2.29c2.15,0,3.32,1,3.32,3s-1.28,3.05-3.65,3.05Z" transform="translate(-3.4 -3.92)"/><path class="cls-5" d="M88,20.57V32.32L79.62,20.57h-1.8V33.21a1.11,1.11,0,0,1-1.06,1.11h0v1.87h0a3,3,0,0,0,3-3V24.25l8.4,11.93h1.73V20.57Z" transform="translate(-3.4 -3.92)"/><path class="cls-3" d="M106.39,31a1.44,1.44,0,0,0,2.12.65A1.28,1.28,0,0,0,109,31a.1.1,0,0,1,.12-.06c.18.07-.07.48-.14.58a1.59,1.59,0,0,1-2.8-.45.1.1,0,0,1,.18-.07" transform="translate(-3.4 -3.92)"/><path class="cls-3" d="M108.54,29.82a.38.38,0,1,0,.75,0,.38.38,0,0,0-.75,0" transform="translate(-3.4 -3.92)"/><path class="cls-3" d="M106.88,29.82a.37.37,0,0,1-.37.38.38.38,0,0,1-.38-.38.37.37,0,0,1,.38-.37.36.36,0,0,1,.37.37" transform="translate(-3.4 -3.92)"/><path class="cls-3" d="M152,31a1.44,1.44,0,0,0,2.12.65,1.28,1.28,0,0,0,.52-.65.1.1,0,0,1,.12-.06c.18.07-.07.48-.14.58a1.59,1.59,0,0,1-2.81-.45A.1.1,0,0,1,152,31" transform="translate(-3.4 -3.92)"/><path class="cls-3" d="M154.18,29.82a.37.37,0,0,0,.37.38.38.38,0,0,0,.38-.38.37.37,0,0,0-.38-.37.36.36,0,0,0-.37.37" transform="translate(-3.4 -3.92)"/><path class="cls-3" d="M152.52,29.82a.38.38,0,1,1-.75,0,.38.38,0,0,1,.75,0" transform="translate(-3.4 -3.92)"/><path class="cls-3" d="M128,31a1.44,1.44,0,0,0,2.12.65,1.28,1.28,0,0,0,.52-.65.1.1,0,0,1,.12-.06c.18.07-.07.48-.14.58a1.59,1.59,0,0,1-2.81-.45A.1.1,0,0,1,128,31" transform="translate(-3.4 -3.92)"/><path class="cls-3" d="M130.11,29.82a.37.37,0,0,0,.37.38.38.38,0,0,0,.38-.38.37.37,0,0,0-.38-.37.36.36,0,0,0-.37.37" transform="translate(-3.4 -3.92)"/><path class="cls-3" d="M128.45,29.82a.38.38,0,1,1-.75,0,.38.38,0,0,1,.75,0" transform="translate(-3.4 -3.92)"/><path class="cls-3" d="M133.62,25.39v1.79a5.54,5.54,0,0,0-9.83,3.6,5.33,5.33,0,0,0,5.45,5.66,5.46,5.46,0,0,0,4.38-2.15v1.89h1.78V25.39Zm-4.33,9.41c-2.2,0-3.67-1.61-3.67-4s1.47-4,3.69-4,3.63,1.61,3.63,4a3.69,3.69,0,0,1-3.65,4" transform="translate(-3.4 -3.92)"/><path class="cls-3" d="M73.47,22.38a1.13,1.13,0,0,1-1.15,1.12,1.15,1.15,0,0,1,0-2.29,1.13,1.13,0,0,1,1.12,1.17" transform="translate(-3.4 -3.92)"/><path class="cls-6" d="M73.15,29.11V25.23H71.52v3.88c0,2.59-1.36,5.18-3.57,5.21v1.86a5,5,0,0,0,4.38-3.27,5,5,0,0,0,4.39,3.27V34.32c-2.21,0-3.57-2.62-3.57-5.21" transform="translate(-3.4 -3.92)"/><path class="cls-3" d="M53.81,6.35a5.08,5.08,0,0,0,.53,0,3.14,3.14,0,0,0-.05.41,6.69,6.69,0,0,1-.54,2,2.25,2.25,0,0,0,.88.67,4.77,4.77,0,0,0,1.82.27c.73,0,1.53,0,2.2-.09a1.52,1.52,0,0,0-.16.55c-.55,0-1.37,0-1.94,0-1.62,0-2.3-.22-3-1a5.14,5.14,0,0,1-.94,1.17,1.42,1.42,0,0,0-.37-.43,3.79,3.79,0,0,0,1-1.15,4.27,4.27,0,0,1-.33-.58,6.63,6.63,0,0,0-.3-.66L53,7.26a4.36,4.36,0,0,0,.4,1A5,5,0,0,0,53.8,6.8h-.62l-.6,0a11.35,11.35,0,0,0,1.09-1.95h-.79a2.35,2.35,0,0,0-.47,0V4.38a2.43,2.43,0,0,0,.49,0h.66a3.13,3.13,0,0,0,.51,0l.24.31c0,.07-.08.14-.16.31a10.54,10.54,0,0,1-.75,1.34ZM56,4.94h-.86a3.63,3.63,0,0,0-.5,0V4.49a2.49,2.49,0,0,0,.52,0H56A2.33,2.33,0,0,0,56,4h.55a2.39,2.39,0,0,0,0,.51h1.07l.51,0a3.47,3.47,0,0,0,0,.43v.49h0a2.41,2.41,0,0,0,.5,0v.48a3.34,3.34,0,0,0-.5,0h0V6.4c0,.15,0,.31,0,.4l-.49,0H56.5v.53h1.09a5.34,5.34,0,0,0,.6,0v.47a5,5,0,0,0-.6,0H56.5v.55h1.38a4.61,4.61,0,0,0,.63,0v.49a5.06,5.06,0,0,0-.63,0H56.5v.12a3.58,3.58,0,0,0,0,.62H56a3.52,3.52,0,0,0,0-.61V8.69H54.94a3.32,3.32,0,0,0-.6,0v-.5a3.3,3.3,0,0,0,.61,0H56V7.72h-.9a4.61,4.61,0,0,0-.56,0V7.28a4.5,4.5,0,0,0,.56,0H56V6.78h-.89a3.53,3.53,0,0,0-.48,0V6.35a3.34,3.34,0,0,0,.5,0H56V5.84H54.89a3.42,3.42,0,0,0-.62,0V5.39a2.62,2.62,0,0,0,.63,0H56Zm1.57,0H56.5v.49h1.09ZM56.5,6.38h1.09V5.84H56.5Z" transform="translate(-3.4 -3.92)"/><path class="cls-3" d="M59.29,5.22a2.73,2.73,0,0,0,.56,0h1.34a3.6,3.6,0,0,0,.56,0v.53a3.21,3.21,0,0,0-.51,0H59.85a4.73,4.73,0,0,0-.56,0Zm.23,5.13a4.44,4.44,0,0,0,0-.68V8.72a4.5,4.5,0,0,0,0-.56,4.7,4.7,0,0,0,.54,0h1a2.79,2.79,0,0,0,.49,0c0,.17,0,.28,0,.53v1a4.73,4.73,0,0,0,0,.56h-.49V10H60v.36Zm0-6.08a2.81,2.81,0,0,0,.54,0H61a2.81,2.81,0,0,0,.54,0v.5a4.44,4.44,0,0,0-.54,0h-.94a4.36,4.36,0,0,0-.54,0Zm0,2,.49,0h1l.47,0v.47l-.47,0H60l-.49,0Zm0,1a3.4,3.4,0,0,0,.49,0h1a3.18,3.18,0,0,0,.48,0v.48a3.7,3.7,0,0,0-.48,0H60l-.48,0ZM60,9.56h1v-1H60Zm5.06-2.28a1.83,1.83,0,0,0-.14.26A5.49,5.49,0,0,1,64,9a5.16,5.16,0,0,0,1.68.8,2.87,2.87,0,0,0-.28.52,5.74,5.74,0,0,1-1.77-1,5.5,5.5,0,0,1-1.72,1,1.39,1.39,0,0,0-.31-.45A5.39,5.39,0,0,0,63.22,9a4.49,4.49,0,0,1-1-1.54l-.38,0V7a2.27,2.27,0,0,0,.48,0h2a2.73,2.73,0,0,0,.51,0ZM62.94,4.77a2.92,2.92,0,0,1-.31,1.47,1.92,1.92,0,0,1-.55.64,2.09,2.09,0,0,0-.42-.34,1.89,1.89,0,0,0,.8-1.84,2,2,0,0,0,0-.41,4.75,4.75,0,0,0,.54,0h.9a4.68,4.68,0,0,0,.59,0,5.34,5.34,0,0,0,0,.62V6c0,.11.06.14.29.14s.3,0,.34-.1a2.4,2.4,0,0,0,.09-.76,2,2,0,0,0,.45.2c-.08,1-.16,1.1-.94,1.1-.6,0-.72-.07-.72-.4V4.77Zm-.2,2.7a3.18,3.18,0,0,0,.85,1.21,3.89,3.89,0,0,0,.84-1.21Z" transform="translate(-3.4 -3.92)"/><path class="cls-3" d="M67,4.46a1.42,1.42,0,0,1,.52.08A19.89,19.89,0,0,0,67.17,8a14,14,0,0,0,.17,2,1.41,1.41,0,0,1-.45.07h-.13A13.16,13.16,0,0,1,66.6,8,19.26,19.26,0,0,1,67,4.46Zm3.26,1.79c-.44,0-.87,0-1.29,0h-.45a.89.89,0,0,1,0-.28,1.14,1.14,0,0,1,0-.27l.87,0,.88,0c0-.44,0-.88,0-1.32a2,2,0,0,1,.57,0c0,.42,0,.86,0,1.28.4,0,.78-.07,1.16-.12a1.79,1.79,0,0,1,0,.34,1.27,1.27,0,0,1,0,.2l-1.18.11c0,.65,0,1.24.09,2A6.07,6.07,0,0,1,72.32,9a1.41,1.41,0,0,1-.36.5,4.25,4.25,0,0,0-1-.66c0,.81-.43,1.19-1.32,1.19s-1.24-.39-1.24-1,.48-1,1.36-1a3.52,3.52,0,0,1,.63.06c-.05-.61-.08-1.22-.08-1.83m-.55,2.26c-.6,0-.84.26-.84.52s.2.44.72.44.8-.21.8-.65a1.34,1.34,0,0,0,0-.22,2,2,0,0,0-.65-.09" transform="translate(-3.4 -3.92)"/><path class="cls-3" d="M73.35,8.53a7,7,0,0,1,1.49,1.4,1.58,1.58,0,0,1-.46.47,6.74,6.74,0,0,0-1.46-1.46,2.4,2.4,0,0,1,.43-.41" transform="translate(-3.4 -3.92)"/><path class="cls-3" d="M82,5.29a11.69,11.69,0,0,1-1.61.16c0-.11,0-.22,0-.33a1.55,1.55,0,0,1,0-.22,18.81,18.81,0,0,0,2.34-.14,1.3,1.3,0,0,1,.15.42,3.46,3.46,0,0,0-1.78,3A1.28,1.28,0,0,0,82.39,9.5c1.12,0,1.85-.8,1.85-2.61A8.57,8.57,0,0,0,84,4.7a1.46,1.46,0,0,1,.5-.12,7.18,7.18,0,0,0,1.71,3,1.15,1.15,0,0,1-.45.45,6.44,6.44,0,0,1-1-1.89h0a5.91,5.91,0,0,1,.11,1c0,1.94-1,2.94-2.33,2.94a1.82,1.82,0,0,1-1.88-1.94A3.71,3.71,0,0,1,82,5.32Z" transform="translate(-3.4 -3.92)"/><path class="cls-3" d="M91.7,5.64a1.12,1.12,0,0,1,.19.59,11.79,11.79,0,0,0-2.41.93c-.84.47-1.14,1-1.14,1.42s.4.78,1.5.78a11.33,11.33,0,0,0,2.28-.24,1.32,1.32,0,0,1,.1.53.34.34,0,0,1,0,.1,12.89,12.89,0,0,1-2.34.2c-1.49,0-2.13-.52-2.13-1.36a2.33,2.33,0,0,1,1.37-1.82,11.68,11.68,0,0,1-.61-2.43,1.09,1.09,0,0,1,.48-.1h.13a11.62,11.62,0,0,0,.5,2.24,14.7,14.7,0,0,1,2.09-.85" transform="translate(-3.4 -3.92)"/><path class="cls-3" d="M95.83,9.18c2-.22,2.9-.88,2.9-2,0-.69-.46-1.16-1.47-1.16A12.61,12.61,0,0,0,94,6.67a1.34,1.34,0,0,1-.17-.58,13.15,13.15,0,0,1,3.44-.6c1.42,0,2.1.77,2.1,1.72,0,1.35-1,2.24-3.27,2.56ZM98.68,4.3a4.72,4.72,0,0,1,.76,1.14L99,5.66a4.41,4.41,0,0,0-.73-1.15Zm.76-.38A4.92,4.92,0,0,1,100.22,5l-.41.23a4.67,4.67,0,0,0-.74-1.14Z" transform="translate(-3.4 -3.92)"/><path class="cls-3" d="M102.9,5.83a12.18,12.18,0,0,0,1.58-1.49,1.41,1.41,0,0,1,.48.43c-.54.49-1.08,1-1.69,1.44l-.85.69a.28.28,0,0,0-.13.21.25.25,0,0,0,.13.19l.54.39a28.88,28.88,0,0,1,2.33,1.91,1.49,1.49,0,0,1-.49.51,20.35,20.35,0,0,0-2.2-2l-.54-.42a.72.72,0,0,1-.35-.57c0-.21.09-.39.41-.67Z" transform="translate(-3.4 -3.92)"/><path class="cls-3" d="M109.81,9.72a2.71,2.71,0,0,0,2-2.7c0-1.33-.41-1.84-.94-1.84s-1.06.62-1.34,1.5a5.9,5.9,0,0,0-.29,1.41l-.27,0-.28,0c0-.34,0-.62,0-.93a21.21,21.21,0,0,1,.26-2.88h.17a1.9,1.9,0,0,1,.4.05,19.75,19.75,0,0,0-.32,2.12h0c.4-1.3,1-1.79,1.71-1.79s1.51.73,1.51,2.37a3.18,3.18,0,0,1-2.18,3.19Z" transform="translate(-3.4 -3.92)"/><path class="cls-3" d="M116.43,9.29a1.06,1.06,0,0,1-1.06,1.07,1.07,1.07,0,1,1,0-2.13,1.05,1.05,0,0,1,1.06,1.06m-1.74,0a.67.67,0,1,0,1.34,0,.65.65,0,0,0-.66-.66.66.66,0,0,0-.68.66" transform="translate(-3.4 -3.92)"/><path class="cls-3" d="M27.83,46.56a12.5,12.5,0,0,1-1.49,1.36l-.24.2-.36-.54a2.6,2.6,0,0,0,.61-.39,6.73,6.73,0,0,0,1.18-1.08Zm-1.49-3.31a9.06,9.06,0,0,1,1.2,1.1l-.42.4a5.9,5.9,0,0,0-1.2-1.14Zm3.35,1.54a1.55,1.55,0,0,0,0,.33,3.49,3.49,0,0,0,.68,2.21,3.87,3.87,0,0,0,1.73,1.24,2.22,2.22,0,0,0-.34.52A4.92,4.92,0,0,1,30.26,48a3.26,3.26,0,0,1-.84-1.61,3.66,3.66,0,0,1-.65,1.49,3.88,3.88,0,0,1-1.6,1.21,2.43,2.43,0,0,0-.33-.46,3.35,3.35,0,0,0,1.56-1.12,3.86,3.86,0,0,0,.73-2.43,1.6,1.6,0,0,0,0-.3Zm1.22-.85a4,4,0,0,0,.68,0l.31.32-.16.32a5.58,5.58,0,0,1-1,1.54,1.69,1.69,0,0,0-.46-.32,3.63,3.63,0,0,0,1-1.34H28.7a6,6,0,0,1-1,1.47,1.22,1.22,0,0,0-.42-.38,4.57,4.57,0,0,0,1-1.39,4.65,4.65,0,0,0,.37-1.22l.59.12c0,.13-.07.19-.15.43l-.19.49Z" transform="translate(-3.4 -3.92)"/><path class="cls-3" d="M36,48.35c1.38-.39,2.06-1.16,2.06-2.25a2,2,0,0,0-2-2,7,7,0,0,1-.79,3.35,1.43,1.43,0,0,1-1.27.91c-.66,0-1.25-.7-1.25-1.91a3,3,0,0,1,3.13-2.88A2.57,2.57,0,0,1,38.7,46.1a2.86,2.86,0,0,1-2.32,2.8Zm-.54-4.22a2.34,2.34,0,0,0-2.13,2.32c0,.92.37,1.3.68,1.3s.51-.14.75-.57a6.7,6.7,0,0,0,.7-3" transform="translate(-3.4 -3.92)"/><polygon class="cls-3" points="37.66 44.76 37.66 40.13 36.31 40.59 36.31 40.02 37.92 39.44 38.31 39.44 38.31 44.76 37.66 44.76"/><path class="cls-3" d="M43.47,46.05c0-1.82.54-2.72,1.77-2.72S47,44.25,47,46.05s-.53,2.72-1.76,2.72-1.77-.91-1.77-2.72m2.86,0c0-1.44-.31-2.18-1.09-2.18s-1.08.74-1.08,2.18.29,2.18,1.08,2.18,1.09-.75,1.09-2.18" transform="translate(-3.4 -3.92)"/><path class="cls-3" d="M47.54,46.05c0-1.82.53-2.72,1.76-2.72s1.77.92,1.77,2.72-.54,2.72-1.77,2.72-1.76-.91-1.76-2.72m2.85,0c0-1.44-.31-2.18-1.09-2.18s-1.08.74-1.08,2.18.3,2.18,1.08,2.18,1.09-.75,1.09-2.18" transform="translate(-3.4 -3.92)"/><path class="cls-3" d="M52.85,45.58a2.68,2.68,0,0,0,0-.41,3.58,3.58,0,0,0,.49,0h1.5V44.13H53.25a5.75,5.75,0,0,1-1.14,1.4,1.37,1.37,0,0,0-.38-.41,4.52,4.52,0,0,0,1.36-1.82,2.68,2.68,0,0,0,.17-.5l.58.14a1.07,1.07,0,0,1-.09.19l-.14.32-.1.21h3.37a3.41,3.41,0,0,0,.63,0v.55a3.55,3.55,0,0,0-.63,0H55.36V45.2h1.21a3.55,3.55,0,0,0,.63,0v.54a3.71,3.71,0,0,0-.63,0H55.36V47h1.7a4.78,4.78,0,0,0,.71,0v.58a4.87,4.87,0,0,0-.71,0h-1.7v1.06a4,4,0,0,0,0,.67h-.62a3.15,3.15,0,0,0,0-.68v-1H52.38a4.87,4.87,0,0,0-.71,0v-.58a4.69,4.69,0,0,0,.71,0h.47Zm2,.09H53.38V47h1.44Z" transform="translate(-3.4 -3.92)"/><path class="cls-3" d="M60.13,44.67a.82.82,0,0,1,.65-.4.89.89,0,0,1,.65.36,19.75,19.75,0,0,0,3.21,2.94,1.27,1.27,0,0,1-.47.57A26.48,26.48,0,0,1,61,45a.31.31,0,0,0-.23-.13.33.33,0,0,0-.25.15A11.93,11.93,0,0,1,59,46.81a2,2,0,0,1-.39-.46,11,11,0,0,0,1.55-1.68" transform="translate(-3.4 -3.92)"/><path class="cls-3" d="M65.62,47.34a7,7,0,0,1,1.49,1.4,2,2,0,0,1-.46.46,6.52,6.52,0,0,0-1.47-1.45,2.14,2.14,0,0,1,.44-.41" transform="translate(-3.4 -3.92)"/><path class="cls-3" d="M72.8,44a4,4,0,0,1-.71.88,1.18,1.18,0,0,0-.39-.34,3.66,3.66,0,0,0,.72-.85,2.86,2.86,0,0,0,.38-.88l.56.13a5,5,0,0,1-.3.61h1.09a3.07,3.07,0,0,0,.59,0v.51l-.55,0h-.43a6.24,6.24,0,0,1,.32.77l-.5.16a4.93,4.93,0,0,0-.33-.93Zm2.4,2.86a2.82,2.82,0,0,0,1,1.11,4.23,4.23,0,0,0,1.73.57,1.94,1.94,0,0,0-.32.55A5.22,5.22,0,0,1,76,48.45a3.47,3.47,0,0,1-1.19-1.33,2.84,2.84,0,0,1-1,1.24,4.72,4.72,0,0,1-1.73.74,1.71,1.71,0,0,0-.3-.52A5.1,5.1,0,0,0,73,48.25a2.33,2.33,0,0,0,1.38-1.35H72.56a4.91,4.91,0,0,0-.73.05v-.57a4.81,4.81,0,0,0,.73,0h1.92a4.75,4.75,0,0,0,.07-.78c-.72.06-1.16.08-1.87.09a2.1,2.1,0,0,0-.19-.47h.41a18.75,18.75,0,0,0,2.46-.18,6.27,6.27,0,0,0,1.4-.31l.39.45-.8.16c-.31.07-.76.14-1.28.2a4.68,4.68,0,0,1-.07.83h2.07a4.88,4.88,0,0,0,.74,0V47a4.76,4.76,0,0,0-.74-.05Zm.25-2.84a3.69,3.69,0,0,1-.52.79,1.17,1.17,0,0,0-.42-.29,3.29,3.29,0,0,0,.55-.84,2.9,2.9,0,0,0,.3-.85l.54.12c-.09.26-.13.36-.23.6h1.65a3.34,3.34,0,0,0,.61,0v.53a3.4,3.4,0,0,0-.6,0h-.82a5.46,5.46,0,0,1,.28.55l-.49.14a3.11,3.11,0,0,0-.32-.69Z" transform="translate(-3.4 -3.92)"/><path class="cls-3" d="M81.15,45a2.59,2.59,0,0,0,.53,0v.52a3.51,3.51,0,0,0-.53,0H79.39a15.44,15.44,0,0,1-.15,2.36,3.94,3.94,0,0,1-.38,1.2,1.58,1.58,0,0,0-.38-.49,2.61,2.61,0,0,0,.27-.8,12.92,12.92,0,0,0,.16-2.1c0-.24,0-.44,0-.66a4.1,4.1,0,0,0,.64,0h1a5.69,5.69,0,0,0,.4-1l.42.16A6.27,6.27,0,0,1,81,45Zm-1.09-1.63a1.87,1.87,0,0,0,0-.45h.58a1.9,1.9,0,0,0,0,.45v.13h.52a3,3,0,0,0,.55,0v.52a3.85,3.85,0,0,0-.54,0H79.31a3.49,3.49,0,0,0-.51,0v-.52a2.92,2.92,0,0,0,.56,0h.7Zm1.69,4.42-.22.19a6.05,6.05,0,0,1-2.12,1.15,1.83,1.83,0,0,0-.28-.46,5,5,0,0,0,1.65-.71,2.61,2.61,0,0,0,.61-.52Zm-2.14-2.82a3.4,3.4,0,0,0-.29-.85l.42-.14a4.49,4.49,0,0,1,.28.83Zm2,1.71a1.79,1.79,0,0,0-.27.21,5,5,0,0,1-1.63.91,1.22,1.22,0,0,0-.28-.43,3.69,3.69,0,0,0,1.8-1Zm-.31-.9-.44.32a5.17,5.17,0,0,1-1.08.53,1.2,1.2,0,0,0-.28-.41,3,3,0,0,0,1.42-.74Zm1.63,2.48a4.23,4.23,0,0,1-1.48,1,1.53,1.53,0,0,0-.33-.41,3.48,3.48,0,0,0,.82-.38,2.89,2.89,0,0,0,.62-.51Zm-.46-4.63a4.33,4.33,0,0,0-.69,0v-.54a4,4,0,0,0,.69,0h1.66a4,4,0,0,0,.7,0v.54a4.39,4.39,0,0,0-.7,0h-.58a4.4,4.4,0,0,1-.26.68H84a5.19,5.19,0,0,0,.64,0c0,.17,0,.36,0,.64v2.27c0,.27,0,.45,0,.67l-.59,0H82.46l-.57,0c0-.22,0-.4,0-.62V44.9c0-.27,0-.47,0-.65a5,5,0,0,0,.59,0h.27a3.74,3.74,0,0,0,.25-.68Zm-.07,1.71H84.1v-.59H82.38Zm0,1H84.1v-.59H82.38Zm0,1H84.1v-.62H82.38Zm1.35.55a4.21,4.21,0,0,0,1.26.87,1.47,1.47,0,0,0-.35.43,5.43,5.43,0,0,1-1.26-1Z" transform="translate(-3.4 -3.92)"/><path class="cls-3" d="M88.9,48.35C90.28,48,91,47.19,91,46.1a2,2,0,0,0-2-2,7,7,0,0,1-.79,3.35,1.44,1.44,0,0,1-1.28.91c-.66,0-1.25-.7-1.25-1.91a3,3,0,0,1,3.14-2.88,2.57,2.57,0,0,1,2.79,2.52,2.86,2.86,0,0,1-2.32,2.8Zm-.55-4.22a2.35,2.35,0,0,0-2.13,2.32c0,.92.38,1.3.69,1.3s.51-.14.75-.57a6.7,6.7,0,0,0,.69-3" transform="translate(-3.4 -3.92)"/><path class="cls-3" d="M94.73,48.53a2.71,2.71,0,0,0,2-2.71c0-1.32-.41-1.83-.94-1.83s-1.06.61-1.34,1.49a6,6,0,0,0-.29,1.42h-.55c0-.35,0-.62,0-.93a21,21,0,0,1,.26-2.88H94a1.41,1.41,0,0,1,.4.05,17.09,17.09,0,0,0-.32,2.11h0c.41-1.3,1-1.78,1.72-1.78s1.51.72,1.51,2.37A3.17,3.17,0,0,1,95.15,49Z" transform="translate(-3.4 -3.92)"/><path class="cls-3" d="M101.84,43.07a1.8,1.8,0,0,1,.58.19c-.47,1-.9,2-1.31,3l0,0a1.58,1.58,0,0,1,1.15-.67c.63,0,1,.38,1,1.33v.4c0,.74.19,1,.52,1s.88-.31,1.35-1.34l.43.44c-.52,1.07-1.16,1.47-1.83,1.47s-1-.39-1-1.43V47c0-.7-.15-.94-.54-.94a1.36,1.36,0,0,0-1,.63,10.35,10.35,0,0,0-1.08,2,1.85,1.85,0,0,1-.56-.19Z" transform="translate(-3.4 -3.92)"/><path class="cls-3" d="M108.1,48.16a2.47,2.47,0,0,0,.75.16c.28,0,.43-.09.54-.42a7.17,7.17,0,0,0,.25-2c0-.6-.13-.78-.6-.78l-.65,0A16.64,16.64,0,0,1,107,48.68a1.5,1.5,0,0,1-.52-.26,13.75,13.75,0,0,0,1.37-3.25c-.43.06-.9.14-1.37.23a1.36,1.36,0,0,1-.08-.39v0a.41.41,0,0,1,0-.11c.56-.08,1.09-.15,1.57-.2a13.83,13.83,0,0,0,.32-1.58,1.7,1.7,0,0,1,.58.11c-.08.45-.18.93-.32,1.44l.54,0c.88,0,1.15.44,1.15,1.26a8,8,0,0,1-.27,2.2,1,1,0,0,1-1.09.82,2,2,0,0,1-.77-.16Zm3-4.14a5.71,5.71,0,0,1,1.47,2.32,1.36,1.36,0,0,1-.53.3,5.58,5.58,0,0,0-1.38-2.35,1,1,0,0,1,.44-.27" transform="translate(-3.4 -3.92)"/><path class="cls-3" d="M116.27,46.92a4.26,4.26,0,0,1-.45,1.17.8.8,0,0,1-.75.45c-.3,0-.64-.17-.94-.75a9.15,9.15,0,0,1-.57-4.08,1.09,1.09,0,0,1,.26,0,1.49,1.49,0,0,1,.36,0c0,.28,0,.5,0,.69a7.11,7.11,0,0,0,.48,3c.17.33.3.42.44.42s.21,0,.31-.21a4.64,4.64,0,0,0,.35-1.12Zm1.43-2.78a6.66,6.66,0,0,1,1.49,3,1.18,1.18,0,0,1-.6.23,6.83,6.83,0,0,0-1.37-2.94.88.88,0,0,1,.48-.24" transform="translate(-3.4 -3.92)"/><path class="cls-3" d="M120.76,43.92c0-.27,0-.49,0-.7a5.22,5.22,0,0,0,.74,0h3.17a4.67,4.67,0,0,0,.72,0,4.44,4.44,0,0,0,0,.66V48.3a4.13,4.13,0,0,0,0,.76h-.6v-.43h-3.45v.43h-.6a5.38,5.38,0,0,0,0-.75Zm.56,1.68h3.45V43.77h-3.45Zm0,2.52h3.45v-2h-3.45Z" transform="translate(-3.4 -3.92)"/><path class="cls-3" d="M129.75,43.3a3.42,3.42,0,0,0,0-.45h.62a2.22,2.22,0,0,0,0,.45v.13h1.79a4.61,4.61,0,0,0,.75,0v.53a7.1,7.1,0,0,0-.72,0h-.59a6.84,6.84,0,0,1-.37.76h1a5.43,5.43,0,0,0,.79,0v.52a5.37,5.37,0,0,0-.79,0h-4.29a11.67,11.67,0,0,1-.21,2.65,3.64,3.64,0,0,1-.56,1.35,1.14,1.14,0,0,0-.4-.44,3,3,0,0,0,.45-1,9.26,9.26,0,0,0,.21-2.08c0-.38,0-.74,0-.94a6.28,6.28,0,0,0,.79,0h.76a3.67,3.67,0,0,0-.31-.76h-.61a6.13,6.13,0,0,0-.68,0v-.53a4.07,4.07,0,0,0,.71,0h1.78Zm-.84,3a4.1,4.1,0,0,1-.71,1.06,1.51,1.51,0,0,0-.39-.37,2.94,2.94,0,0,0,.76-1.05,3.38,3.38,0,0,0,.24-.72l.52.12c-.12.28-.12.28-.21.51h1v-.09a2.37,2.37,0,0,0,0-.52h.58a2.49,2.49,0,0,0,0,.52v.09H132a3.49,3.49,0,0,0,.67,0v.52a5.89,5.89,0,0,0-.68,0h-1.33v.77h1.11a4.64,4.64,0,0,0,.63,0v.5a5.41,5.41,0,0,0-.63,0h-1.11v.9h1.72a3.72,3.72,0,0,0,.64,0V49a4.28,4.28,0,0,0-.65,0h-3.9a6.25,6.25,0,0,0-.64,0v-.53a3.71,3.71,0,0,0,.63,0h1.7v-.9h-.83a6.11,6.11,0,0,0-.64,0v-.5a4.74,4.74,0,0,0,.63,0h.84v-.77Zm1.7-1.68a5.06,5.06,0,0,0,.35-.76H129.1a4.82,4.82,0,0,1,.31.76Z" transform="translate(-3.4 -3.92)"/><path class="cls-3" d="M135.18,45.15a3.21,3.21,0,0,0,.53,0,3.84,3.84,0,0,0-.05.41,6.76,6.76,0,0,1-.54,2,2.35,2.35,0,0,0,.88.67,5,5,0,0,0,1.82.26c.73,0,1.53,0,2.2-.09a1.63,1.63,0,0,0-.16.56l-1.94,0c-1.62,0-2.3-.23-3-1a5.1,5.1,0,0,1-.94,1.16,1.51,1.51,0,0,0-.37-.42,4.26,4.26,0,0,0,1-1.15,3.5,3.5,0,0,1-.33-.59c-.22-.49-.22-.49-.31-.66l.47-.21a4,4,0,0,0,.4,1,4.81,4.81,0,0,0,.38-1.45h-.61l-.61,0A11.3,11.3,0,0,0,135,43.68h-.79a2.37,2.37,0,0,0-.47,0v-.53a2.37,2.37,0,0,0,.49,0h.67a2.75,2.75,0,0,0,.5,0l.24.32a1.58,1.58,0,0,0-.15.3,11.19,11.19,0,0,1-.76,1.34Zm2.21-1.4h-.86a2.53,2.53,0,0,0-.5,0V43.3a2.59,2.59,0,0,0,.52,0h.84a2.29,2.29,0,0,0,0-.5h.55a2.28,2.28,0,0,0,0,.5h1.07a3.71,3.71,0,0,0,.51,0,3.71,3.71,0,0,0,0,.44v.49h0a2.41,2.41,0,0,0,.5,0v.48a2.38,2.38,0,0,0-.5,0h0v.55a3.74,3.74,0,0,0,0,.4h-1.58v.53H139a5.34,5.34,0,0,0,.6,0v.46a5.26,5.26,0,0,0-.6,0h-1.09v.54h1.38a5,5,0,0,0,.63,0v.48a5.06,5.06,0,0,0-.63,0h-1.38v.12a3.52,3.52,0,0,0,0,.62h-.55a3.44,3.44,0,0,0,0-.61v-.13h-1.08a3.32,3.32,0,0,0-.6,0V47a3.46,3.46,0,0,0,.61,0h1.07v-.54h-.89a4.67,4.67,0,0,0-.57,0v-.47a4.56,4.56,0,0,0,.57,0h.89v-.53h-.89a3.53,3.53,0,0,0-.48,0v-.47a3.34,3.34,0,0,0,.5,0h.87v-.53h-1.13a3.58,3.58,0,0,0-.62,0V44.2a3.27,3.27,0,0,0,.63,0h1.12Zm1.57,0h-1.09v.49H139Zm-1.09,1.43H139v-.53h-1.09Z" transform="translate(-3.4 -3.92)"/><path class="cls-3" d="M140.66,44a2.92,2.92,0,0,0,.56,0h1.34a4,4,0,0,0,.56,0v.52a3.21,3.21,0,0,0-.51,0h-1.39a4.73,4.73,0,0,0-.56,0Zm.23,5.12a4.38,4.38,0,0,0,0-.67v-1a4.73,4.73,0,0,0,0-.56,4.63,4.63,0,0,0,.54,0h1a2.79,2.79,0,0,0,.49,0c0,.17,0,.27,0,.53v1a4.44,4.44,0,0,0,0,.55h-.49V48.8h-1v.35Zm0-6.08a2.7,2.7,0,0,0,.54,0h.94a2.7,2.7,0,0,0,.54,0v.51a4.16,4.16,0,0,0-.54,0h-.94a4.16,4.16,0,0,0-.54,0Zm0,2a3.26,3.26,0,0,0,.49,0h1.05a3,3,0,0,0,.47,0v.48l-.47,0h-1.05l-.49,0Zm0,1,.49,0h1l.48,0v.48a2.42,2.42,0,0,0-.48,0h-1.05a3.14,3.14,0,0,0-.48,0Zm.5,2.37h1v-1h-1Zm5.06-2.29-.14.26a5.38,5.38,0,0,1-1,1.46,5,5,0,0,0,1.68.79,3.25,3.25,0,0,0-.28.52,5.54,5.54,0,0,1-1.77-1,5.5,5.5,0,0,1-1.72,1,1.38,1.38,0,0,0-.31-.46,5.18,5.18,0,0,0,1.66-.85,4.44,4.44,0,0,1-1-1.53l-.38,0v-.52a3.33,3.33,0,0,0,.48,0h1.95a2.73,2.73,0,0,0,.51,0Zm-2.15-2.5A2.91,2.91,0,0,1,144,45a1.75,1.75,0,0,1-.55.64,2.51,2.51,0,0,0-.42-.34,1.88,1.88,0,0,0,.8-1.83,2.12,2.12,0,0,0,0-.42,4.75,4.75,0,0,0,.54,0h.9a4.68,4.68,0,0,0,.59,0,5.66,5.66,0,0,0,0,.63v1.06c0,.11.06.14.29.14s.3,0,.34-.1a2.76,2.76,0,0,0,.09-.76,2,2,0,0,0,.45.21c-.08,1-.16,1.09-.94,1.09-.6,0-.72-.07-.72-.4V43.58Zm-.2,2.7a3.34,3.34,0,0,0,.85,1.21,4,4,0,0,0,.84-1.21Z" transform="translate(-3.4 -3.92)"/></g></g></g></svg>