<svg xmlns="http://www.w3.org/2000/svg" viewBox="0 0 323.47 200.02"><defs><style>.cls-1{fill:#3e8369;}</style></defs><g id="レイヤー_2" data-name="レイヤー 2"><g id="レイヤー_1-2" data-name="レイヤー 1"><g id="レイヤー_2-2" data-name="レイヤー 2"><g id="レイヤー_1-2-2" data-name="レイヤー 1-2"><path class="cls-1" d="M76.51,0a75,75,0,1,0,43.85,134.71L185.63,200l14.55-14.57-65.26-65.27A75,75,0,0,0,76.51,0Zm1.26,15A60,60,0,1,1,20.26,50.83,60,60,0,0,1,77.77,15Zm-1,14.7a4.5,4.5,0,0,0-.29,9h.3a31.63,31.63,0,0,1,31.77,31.51v.26a4.5,4.5,0,1,0,9,.3v-.3A40.77,40.77,0,0,0,76.81,29.78Z"/></g></g><path class="cls-1" d="M169.89,134.2a32.94,32.94,0,0,0-.45-3.76c-.24-1.49-.52-2.94-.85-4.38a16.85,16.85,0,0,0-1.05-3.36h4.86a4,4,0,0,0,2.23-.48,2.38,2.38,0,0,0,.69-2V109.9c-1.52.54-2.89,1-4.14,1.42s-2.21.72-2.91.93l-2.51-12.63c1.24-.27,2.68-.62,4.33-1.06s3.39-.91,5.23-1.45V85.44h-8.59V74.59h8.59v-14h11.17v14h6.4V85.44h-6.4v8.18c2.6-.91,4.65-1.67,6.16-2.26v11.58c-.59.32-1.43.71-2.51,1.17l-3.65,1.58v19.6a40.62,40.62,0,0,0,6.81-15.51,98.78,98.78,0,0,0,1.94-20.86V71.75h16.53V60.25h11.82v11.5H240V82.61H206.66v6.31a115.72,115.72,0,0,1-1.17,16.33,76.27,76.27,0,0,1-3.77,15.35c1.19-.11,2.4-.27,3.65-.49q.81-2.67,1.78-6.44t1.9-8c.62-2.81,1.22-5.59,1.78-8.34s1-5.28,1.42-7.57.65-4.15.81-5.55l11.83,2.43c-.38,2-.89,4.34-1.54,7s-1.37,5.54-2.15,8.51-1.56,5.86-2.35,8.67-1.5,5.32-2.14,7.53l4.41-.77,4-.69q-1.29-2.83-2.55-5.26a33.78,33.78,0,0,0-2.55-4.22l9.31-4.94a63.21,63.21,0,0,1,3.69,6q1.91,3.44,3.68,7.13t3.28,7.2c1,2.35,1.8,4.45,2.39,6.28a41.42,41.42,0,0,0-5.62,1.9,31.46,31.46,0,0,0-5.15,2.64c-.32-1.08-.67-2.19-1.05-3.32s-.79-2.3-1.22-3.49c-1.94.49-4.2,1-6.76,1.54s-5.18,1.07-7.86,1.58l-7.41,1.42c-2.27.43-4.1.76-5.51,1l-1.7-7.69a50.69,50.69,0,0,1-2.31,4.53,33.2,33.2,0,0,1-2.71,4,24.54,24.54,0,0,0-4.09-3,35.72,35.72,0,0,0-4.74-2.43,6.52,6.52,0,0,1-3.24,4.91,15.27,15.27,0,0,1-7.37,1.49Z"/><path class="cls-1" d="M253.08,135.1a33.87,33.87,0,0,0-2.11-3.85q-1.29-2.07-2.75-4a21.4,21.4,0,0,0-2.76-3q13.46-4.77,21.75-13.44a37.94,37.94,0,0,0,10.33-19.69H248.22V79.61h30v-19h12.63v19h30v11.5H291.47a36.91,36.91,0,0,0,5.83,13.61,47.13,47.13,0,0,0,11.06,11.34A57.89,57.89,0,0,0,323.47,124a37,37,0,0,0-2.92,3.32,45.55,45.55,0,0,0-2.84,4,28.57,28.57,0,0,0-2,3.77A74.85,74.85,0,0,1,303.3,128a63.85,63.85,0,0,1-11-9.84,49.51,49.51,0,0,1-7.9-12,46.94,46.94,0,0,1-8,12,68.46,68.46,0,0,1-11.09,9.8A83.13,83.13,0,0,1,253.08,135.1Z"/></g></g></svg>