<?xml version="1.0" encoding="utf-8"?>
<!-- Generator: Adobe Illustrator 28.1.0, SVG Export Plug-In . SVG Version: 6.00 Build 0)  -->
<svg version="1.1" id="レイヤー_1" xmlns="http://www.w3.org/2000/svg" xmlns:xlink="http://www.w3.org/1999/xlink" x="0px"
	 y="0px" viewBox="0 0 420.5 286.8" style="enable-background:new 0 0 420.5 286.8;" xml:space="preserve">
<style type="text/css">
	.st0{fill:none;stroke:#666666;stroke-width:1.0003;stroke-miterlimit:4.001;}
</style>
<path id="パス_1324" class="st0" d="M50.1,15.9l4.6-1.9c1-0.2,2.1-0.1,3.1,0.3c0.8,0.4,1.3,0.8,1.4,1.3c0.1,0.7,0.1,1.4,0,2.1
	c-0.1,0.9-0.3,9.7-0.8,26.4c-0.5,16.7-0.8,29.2-0.9,37.4c5.6-11.4,12.1-25.3,19.4-41.8S88.2,12.4,89,7.3c0.2-1.4,0.6-2.7,1.4-3.9
	c0.5-0.8,1.2-1.4,2-1.9c1-0.4,2-0.6,3-0.8c1.6-0.2,3.3-0.2,5,0c2,0.3,3.1,1.1,3.3,2.4c0.5,2.6-2.1,10.7-7.5,24.3S84.3,55.6,77,71.1
	c-7.4,15.5-13.6,27.9-18.8,37c-0.8,1.5-2.2,2.6-3.9,2.9c-1.8,0.3-3.6,0.3-5.5,0c-2-0.3-3.1-1.1-3.3-2.6c-0.8-4.8-0.7-28.6,0.4-71.4
	c-5.5,10.6-12,25.1-19.3,43.6c-7.7,19.1-11.9,30.9-12.5,35.3c-0.3,2.6-1,4.2-1.9,4.8c-0.6,0.4-1.4,0.7-2.1,0.9L5,123.1
	c-1,0.2-2,0.1-2.9-0.4c-0.9-0.4-1.5-0.9-1.6-1.5c-0.3-1.7,1.2-7.4,4.5-16.9s7.2-20,11.9-31.3c4.6-11.3,9.6-22.4,14.9-33.3
	s9.6-18.3,12.9-22.3c0.6-0.8,1.5-1.3,2.5-1.5L50.1,15.9z M129.6,47.2c0.5,2.9-0.3,5.9-2.2,8.2c-1.7,2.5-4.4,4.1-7.4,4.7
	c-0.7,0.2-1.4,0.1-2-0.4c-0.4-0.5-0.7-1.1-0.8-1.7c-0.1-0.7-0.2-1.5-0.1-2.2c-1.7,1-3.3,2.1-4.8,3.3c-2.2,1.9-4.3,3.9-6.2,6.1
	c-2.4,2.6-3.5,4.5-3.3,5.5c0.1,0.3,0.6,0.4,1.6,0.3c1.6-0.4,3.1-1.1,4.6-1.9c1.3-0.8,2.8-1.4,4.3-1.9c0.6-0.1,1.1-0.2,1.7-0.2
	c0.9,0.4,1.6,0.9,2.2,1.7c0.7,0.6,1.1,1.4,1.4,2.2c0.1,0.6-0.3,1.5-1.3,2.6c-1,1.2-2.1,2.1-3.5,2.9c-0.9,0.5-1.8,1-2.7,1.7
	c-8.3,6.8-12.3,11.1-11.9,13c0.6,3.4,3.8,4.6,9.6,3.6c4-0.8,7.6-2.7,10.6-5.5c2.7-2.4,5.2-4.9,7.5-7.6c2.2-2.5,3.6-4.1,4.2-4.7
	c0.4-0.5,0.9-0.8,1.4-1c1.1-0.2,1.9,1,2.4,3.5c0.4,1.7,0.5,3.4,0.4,5.1c-0.4,1.3-1.1,2.5-2.1,3.4c-8,9.2-16.1,14.6-24.5,16.1
	c-4.4,0.8-8.1,0.8-11,0.1c-5.3-1.4-8.3-4.3-9.1-8.9c-1.1-6,2.3-11.3,10.1-15.9C97.2,79,95.9,78.2,95,77c-0.9-1.7-1.5-3.5-1.7-5.4
	c-0.5-2.6,0.3-5.5,2.1-8.7c1.9-3.3,4.5-6.2,7.5-8.6c6.9-5.5,13.4-8.8,19.4-9.8c1.5-0.2,3.1-0.2,4.6,0.3
	C128.2,44.9,129.3,45.9,129.6,47.2z M195.1,36l-1.3-3c-0.4-1.6,0.1-3.3,1.1-4.5c1.1-1.3,2.7-2.1,4.4-2.4c3.7-0.6,5.9,1.4,6.7,6
	c0.6,3.4-0.2,8.3-2.5,14.8c-2.3,6.6-5.3,13.1-8.7,19.2c-3.3,6-7.3,11.7-11.8,16.9c-4.3,5-7.9,7.7-10.6,8.2s-4.8,0.1-6.2-1.2
	c-1.2-1-2.1-2.4-2.5-4c-0.2-1.3-0.4-2.6-0.5-3.9c-0.3-4.3,0.2-8.7,1.4-12.9c-3.5,6.7-7.5,13.1-12.1,19.1c-4.5,5.8-8.6,9-12.2,9.7
	c-1.5,0.3-3.2,0.1-4.5-0.8c-1.2-0.9-2.1-2.6-2.5-5.1s0.2-7.5,2-14.9c1.4-6.2,3.3-12.3,5.7-18.2c-0.7,0.7-1.5,1.2-2.5,1.4
	c-1,0.1-1.9-0.2-2.7-0.8c-1-0.7-1.6-1.3-1.7-1.8c0-0.8,0.2-1.6,0.6-2.3c0.5-1,2.6-3.7,6.3-8.1c3.7-4.4,6.4-6.7,8-7s3.2-0.3,4.8,0.1
	c1.6,0.4,2.4,1.1,2.6,2.1s-1.7,7.8-5.8,20.3c-4.1,12.5-6,19.2-5.8,20.1c0,0.1,0.1,0.2,0.2,0.2c0.9-0.2,4.7-5.6,11.2-16.4
	c6.6-10.8,11.7-19.6,15.3-26.5c0.4-1.2,1.4-2,2.7-2.2h0.6l3.5-1.4c0.6-0.1,1.2,0,1.8,0.4c0.6,0.3,1,0.7,1,1
	c-0.3,1.8-0.8,3.5-1.5,5.1c-1.1,3.1-2.6,8.8-4.8,17.2c-2.1,8.4-2.9,14.1-2.3,17.3c0.1,0.8,0.5,1.1,1.1,1c1.7-0.3,4.6-3.9,8.8-10.8
	c3.8-6.2,7.1-12.7,9.8-19.5C194.6,42.4,195.5,38.3,195.1,36L195.1,36z M41.7,199.5c3.4-3.4,7.2-6.4,11.2-8.9c3.1-2,6.5-3.4,10.1-4.2
	c3-0.5,5,0,6.1,1.5c1.2-2.2,3.3-3.7,5.8-4.3c0.7-0.2,1.6-0.4,2.7-0.6c1.1-0.2,1.8-0.2,2.1,0.1c0.4,0.4,0.8,0.9,1,1.5
	c0.4,0.7,0.6,1.2,0.6,1.2c0.1,0.1,0.1,0.3,0.1,0.4c0,0.3-0.1,0.5-0.2,0.8c-0.2,0.3-0.4,0.7-0.6,1s-0.4,0.5-0.4,0.5
	C73,204,65.9,221.5,59,241c8.8-11,16.9-19.3,24.4-24.7c0.4-0.3,0.9-0.6,1.4-0.7c0.7-0.1,1.2,0.2,1.6,1.1c0.5,1.2,0.8,2.5,1,3.8
	c0.3,1,0.3,2.1,0.2,3.1c-0.7,1.1-1.6,2.1-2.6,2.9c-1.6,1.5-3.7,3.4-6.3,5.8s-5.3,5-8.2,7.9c-6.3,6.1-11.8,13.1-16.3,20.6
	c-5.1,9-8.7,16.2-10.7,21.6c-0.7,2.1-2.6,3.5-4.8,3.7c-4.9,0.9-7.8-1-8.6-5.7c-0.8-4.8,0.6-10,4.4-15.8c2.4-3.8,5.1-7.4,8-10.8
	c2.5-2.9,3.9-4.5,4.1-4.8c2.4-5.4,5.5-13.1,9.5-22.9c-3.3,5.1-7.2,9.9-11.6,14.2c-3.9,3.7-7,5.7-9.1,6.1c-6.7,1.2-10.5-1.1-11.5-6.8
	c-0.8-4.8-0.4-9.7,1-14.3c1.5-5,3.7-9.7,6.7-14C34.7,207,38,203.1,41.7,199.5z M66.3,193.3c-4.8,2-9.3,4.6-13.3,7.9
	c-3.6,2.9-6.8,6.2-9.6,10c-2.3,3.2-4.2,6.6-5.9,10.1c-2.9,6.3-4.1,11-3.6,14.1c0.1,0.7,0.4,1.1,0.8,1c0.9-0.4,1.6-0.9,2.3-1.6
	c1.7-1.6,3.3-3.2,4.8-5c2-2.3,4.2-5,6.7-8.2C55,212.7,61,203.2,66.3,193.3L66.3,193.3z M100.2,197.1c8.2-13.5,16-20.9,23.2-22.2
	c1.6-0.3,3.3-0.1,4.7,0.8c1.3,0.9,2.2,2.3,2.5,3.8c0.3,1.7-0.4,4.8-2.1,9.2s-3.4,8.2-4.9,11.3c-0.6,1.4-1.8,2.4-3.3,2.7
	c-1.2,0.3-2.5-0.1-3.5-0.9c-0.9-0.9-1.6-2.1-1.8-3.3c-0.5-3,0.5-6.7,3-11.1l-0.2-0.1c-1.4,0.4-4.5,3.8-9.2,10.4
	c-4.7,6.5-8.7,12.4-11.9,17.4c-3.2,5.1-6.6,11.2-10.2,18.3c-1,2.1-2,3.3-2.9,3.4c-1.3,0.1-2.6,0.1-3.9-0.2c-1-0.1-2.1-0.4-3-0.8
	c-0.4-0.3-0.7-0.7-0.7-1.2c-0.1-0.7-0.1-1.5,0.1-2.2c0.4-1.3,0.8-2.5,1.3-3.8c0.7-1.6,1.7-4.3,3-7.9c1.3-3.6,3.4-9.2,6.2-16.6
	c2.8-7.4,4.5-11.9,5-13.4c0.8-2.4,1.8-4.7,2.9-7c1.5-2.8,4.6-4.7,9.3-5.5c1-0.2,1.7,0.4,1.9,1.7c0.4,2-0.9,6.2-3.6,12.6L100.2,197.1
	z M173,169.8c3.3-0.6,5.2,0.3,5.6,2.5c0.3,1,0.1,2-0.4,2.8c-1.1,2-1.9,4.1-2.6,6.3c-1.3,3.5-2.6,8-4,13.4c-1.2,4.4-1.9,9-2.1,13.6
	c0,0.6,0,1.3,0.1,1.9c0.4,2.4,1.3,3.5,2.6,3.3c1.7-0.4,3.2-1.4,4.3-2.7c1.5-1.5,2.9-3.1,4.1-4.8c1.1-1.7,2.3-3.4,3.3-5.1
	c1.1-1.7,1.7-2.7,1.9-3c0.3-0.3,0.7-0.5,1.1-0.5c0.8-0.1,1.4,0.4,1.8,1.6c0.4,1.3,0.7,2.6,1,3.9c0.2,0.9,0.3,1.9,0.1,2.9
	c-0.8,2.7-3.1,6.2-6.8,10.4s-7.3,6.7-10.8,7.3s-6.3,0-8.3-1.8c-2-1.7-3.3-4.1-3.7-6.7c-0.5-2.3-0.4-4.7,0.1-7.1
	c-2.7,5.2-6.2,10-10.3,14.2c-4.1,4.1-7.6,6.4-10.6,6.9c-2.7,0.6-5.4,0.1-7.7-1.4c-2.8-1.8-4.5-4.7-5.2-8.6
	c-0.7-4.1-0.5-8.3,0.5-12.4c1.1-4.3,2.8-8.4,5-12.2c2.3-3.8,4.9-7.4,7.9-10.7c6.2-6.9,12.4-11,18.5-12c2-0.4,4-0.4,6,0.2
	c1.4,0.3,2.6,1.2,3.3,2.4c0.5-1.3,1.2-2.5,2.1-3.4C170.8,170.3,171.8,169.9,173,169.8z M165.6,178.6c-7.5,1.3-14.4,6.8-21,16.5
	c-2.5,3.8-4.4,7.8-5.9,12c-1.6,4.6-2.3,7.6-2.1,9.1s0.8,2.2,1.7,2.1c1.2-0.2,4.2-3.2,8.9-9c4.7-5.8,7.8-10,9.2-12.6
	C158,193.8,161.1,187.8,165.6,178.6z M251.2,106.1c0.7-0.2,1.5,0,2.1,0.4c0.5,0.3,0.9,0.9,1,1.5c0,1.1-0.3,2.2-0.7,3.2
	c-0.6,1.6-2,5.1-4.2,10.6s-3.9,9.7-5.1,12.8c-7.1,17.8-12.4,32.8-16.1,44.9c-3.7,12.1-5.3,19.3-4.9,21.6l0.1,0.5
	c0.3,1.8,1.1,2.6,2.4,2.3c1.7-0.5,3.2-1.4,4.4-2.7c1.6-1.4,3-3.1,4.2-4.8c1.1-1.6,2.3-3.3,3.5-5.1s1.9-2.8,2.1-3.1
	c0.3-0.3,0.7-0.5,1.1-0.6c0.7-0.1,1.3,0.3,1.7,1.2c0.5,1.2,0.8,2.5,1,3.9c0.3,1.1,0.3,2.2,0.2,3.4c-0.8,2.7-3.1,6.1-6.8,10.4
	s-7.4,6.7-11.3,7.4c-6.5,1.2-10.3-1-11.3-6.6c-0.6-3.4-0.1-8.2,1.5-14.2c-2.5,4.8-5.4,9.4-8.7,13.6c-5.8,7.1-11.1,11.1-16.2,12
	c-2.4,0.6-4.9-0.1-6.7-1.9c-1.7-1.7-2.8-4.4-3.5-8.1c-0.7-3.7,0-8.4,2-14c2-5.7,4.8-11,8.3-15.8s7.7-9.2,12.5-12.9
	c4.7-3.7,9.3-5.9,13.7-6.7c1.4-0.2,3.2,0.3,5.4,1.7c0.9-2.2,2.5-6.7,4.9-13.3c7.5-19.9,12.6-32.1,15.4-36.7
	C244.7,108.5,247.3,106.8,251.2,106.1z M220.1,168.1c-6.2,2.6-11.7,6.7-16,11.9c-4.2,4.7-7.5,10.2-9.7,16.1
	c-1.8,5.3-2.6,8.7-2.4,10.2c0.3,1.4,0.7,2.1,1.3,2c2.6-0.5,8.1-7.5,16.3-21C213.6,181.1,217.1,174.7,220.1,168.1z M293.3,178.6
	c0.8-0.1,1.4,0.4,1.8,1.6c0.4,1.3,0.7,2.6,1,3.9c0.2,0.9,0.3,1.9,0.1,2.9c-0.8,2.7-3.1,6.1-6.7,10.4c-3.7,4.3-7.4,6.7-11.2,7.4
	c-2.4,0.4-4.8,0.1-6.9-1c-2.3-1.1-3.7-3.4-4.3-6.9c-0.6-3.7-0.3-7.4,1-10.9c-8.4,15.5-15.7,23.8-21.9,24.8c-2.3,0.5-4.6-0.1-6.4-1.6
	c-1.6-1.2-2.8-3-3.2-5c-0.3-1.9-0.4-3.9-0.2-5.9c0.1-1.9,0.4-3.8,0.7-5.6c0.4-2.1,1-4.2,1.6-6.3c0.7-2.5,1.3-4.3,1.7-5.5
	c0.4-1.1,1-2.9,1.9-5.2s2-5.5,3.4-9.4c1-3,2.2-6,3.6-8.8c1-2,2.2-3.1,3.4-3.3c1.3-0.2,2.6,0.1,3.6,0.9c0.9,0.5,1.5,1.3,1.9,2.3
	c0.1,0.7-0.8,3.9-2.8,9.6c-5.9,17.1-8.6,27-8.1,29.6c0.1,0.7,0.4,0.9,0.9,0.9c2.1-0.4,6.5-5.8,13.2-16.4c6.7-10.5,10.5-17.2,11.4-20
	c0.7-2.4,1.6-4.8,2.7-7.1c0.5-1.3,1.3-2.6,2.2-3.7c2-1.7,4.4-2.8,6.9-3.2c0.4-0.1,0.7-0.1,1.1-0.1c0.3,0,0.6,0.3,1.1,1
	c0.4,0.4,0.7,1,0.8,1.5c-0.2,1.3-1.3,4.8-3.5,10.7c-2.1,5.8-3.3,9.1-3.6,9.9c-3.3,11.5-4.6,18.9-4,22.2c0.3,1.8,1.2,2.6,2.6,2.4
	c2.5-0.8,5.2-3.4,8.1-7.7c1.1-1.6,2.1-3.2,3.2-4.8c0.6-1,1.3-1.9,2-2.9C292.5,178.9,292.9,178.7,293.3,178.6z M335.6,141
	c3.3-0.6,5.2,0.3,5.6,2.5c0.3,1,0.1,2-0.4,2.8c-1.1,2-1.9,4.1-2.6,6.3c-1.3,3.5-2.6,8-4,13.4c-1.2,4.4-1.9,9-2.1,13.6
	c0,0.6,0,1.3,0.1,1.9c0.4,2.4,1.3,3.5,2.6,3.3c1.7-0.4,3.2-1.4,4.3-2.7c1.5-1.5,2.9-3.1,4.1-4.8c1.1-1.7,2.3-3.4,3.3-5.1
	c1.1-1.7,1.7-2.7,1.9-3c0.3-0.3,0.7-0.5,1.1-0.5c0.8-0.1,1.4,0.4,1.8,1.6c0.4,1.3,0.7,2.6,1,3.9c0.2,0.9,0.3,1.9,0.1,2.9
	c-0.8,2.7-3.1,6.2-6.8,10.4c-3.7,4.2-7.3,6.7-10.8,7.3s-6.3,0-8.3-1.8c-2-1.7-3.3-4.1-3.7-6.7c-0.5-2.3-0.4-4.7,0.1-7.1
	c-2.7,5.2-6.2,10-10.3,14.2c-4.1,4.1-7.6,6.4-10.6,6.9c-2.7,0.6-5.4,0.1-7.7-1.4c-2.8-1.8-4.5-4.7-5.2-8.6
	c-0.7-4.1-0.5-8.3,0.5-12.4c1.1-4.3,2.8-8.4,5-12.2c2.3-3.8,4.9-7.4,7.9-10.7c6.2-6.9,12.4-11,18.5-12c2-0.4,4-0.4,6,0.2
	c1.4,0.3,2.6,1.2,3.3,2.4c0.5-1.3,1.2-2.5,2.1-3.4C333.4,141.6,334.5,141.2,335.6,141z M328.2,149.8c-7.5,1.3-14.4,6.8-21,16.5
	c-2.5,3.8-4.4,7.8-5.9,12c-1.6,4.6-2.3,7.6-2.1,9.1c0.3,1.5,0.8,2.2,1.7,2.1c1.2-0.2,4.2-3.2,8.9-9c4.7-5.8,7.8-10,9.2-12.6
	C320.7,165.1,323.7,159,328.2,149.8z M379.2,97.7l2.8,0.2c0.4-0.1,0.9,0.1,1.2,0.4c0.3,0.3,0.6,0.6,0.7,1c-0.1,1.1-0.4,2.1-0.9,3.1
	c-0.6,1.7-1.4,3.6-2.3,5.8s-1.4,3.3-1.4,3.5c3.4-0.9,5.7-1.4,7.2-1.7c1-0.2,2-0.3,3-0.2c0.8,0.2,1.5,0.7,2.1,1.3
	c0.7,0.7,1.4,1.2,2.2,1.7c0.7,0.4,1.1,1.1,1.2,1.9c0.1,1-0.4,2.1-1.3,2.6c-1,0.8-2.1,1.4-3.4,1.8c-9.9,2.8-15.4,4.3-16.5,4.5
	c-2.6,6-6,15.3-10.3,27.9c-4.3,12.6-6.4,20.3-6.3,23.3c0,1.1,0.1,2.2,0.3,3.3c0.3,1.7,1.3,2.4,3.1,2.1c2.1-0.5,4.1-1.6,5.6-3.1
	c1.9-1.7,3.6-3.6,5.2-5.5c4.1-5.2,6.3-7.9,6.7-7.9c1.1-0.2,2,1.7,2.7,5.6c0.3,2.3-0.4,4.6-1.9,6.3c-3,3.7-6.2,7.2-9.6,10.5
	c-2.3,2.3-5.3,3.8-8.5,4.5c-0.6,0.1-1.2,0.2-1.9,0.1c-3.6,0-6.4-0.9-8.4-2.5c-2.1-1.9-3.5-4.5-3.8-7.3c-0.5-3.2-0.3-7.3,0.8-12.2
	c1.2-5.4,2.7-10.7,4.6-15.9c3.2-9.3,6.5-18.1,9.9-26.3l-2.4,0.8c-5,1.5-7.8,2.3-8.7,2.4l-0.6,0.1c-1.3,0.2-2.6,0.2-3.8-0.1
	c-1.3-0.3-2-0.8-2.1-1.6s0.1-1.7,0.6-2.3c0.4-0.6,0.7-1.2,0.9-1.8c0.1-1,1.1-2.3,2.9-3.8c1.2-1.2,2.6-2.1,4.2-2.7
	c1-0.2,2-0.5,2.9-0.7s2-0.4,3.1-0.7c1.1-0.2,2-0.4,2.6-0.6l5.8-1.3c1.7-4.1,3.6-8.1,5.7-11.9c0.6-1,1.2-2,1.9-3
	c0.4-0.3,0.8-0.4,1.3-0.5L379.2,97.7z M414.2,128c0.5,2.9-0.3,5.9-2.2,8.2c-1.7,2.5-4.4,4.1-7.4,4.7c-0.7,0.2-1.4,0.1-2-0.4
	c-0.4-0.5-0.7-1.1-0.8-1.7c-0.1-0.7-0.2-1.5-0.1-2.2c-1.7,1-3.3,2.1-4.8,3.3c-2.2,1.9-4.3,3.9-6.2,6.1c-2.4,2.6-3.5,4.5-3.3,5.5
	c0.1,0.3,0.6,0.4,1.6,0.3c1.6-0.4,3.1-1.1,4.6-1.9c1.3-0.8,2.8-1.4,4.3-1.9c0.6-0.1,1.1-0.2,1.7-0.2c0.9,0.4,1.6,0.9,2.2,1.7
	c0.7,0.6,1.1,1.4,1.4,2.2c0.1,0.6-0.3,1.5-1.3,2.6c-1,1.2-2.1,2.1-3.5,2.9c-0.9,0.5-1.8,1-2.7,1.7c-8.3,6.8-12.3,11.1-11.9,13
	c0.6,3.4,3.8,4.6,9.6,3.6c4-0.8,7.6-2.7,10.6-5.5c2.7-2.4,5.2-4.9,7.5-7.6c2.2-2.5,3.6-4.1,4.2-4.7c0.4-0.5,0.9-0.8,1.4-1
	c1.1-0.2,1.9,1,2.4,3.5c0.4,1.7,0.5,3.4,0.4,5.1c-0.4,1.3-1.1,2.5-2.1,3.4c-8,9.2-16.2,14.6-24.5,16.1c-4.4,0.8-8.1,0.8-11,0.1
	c-5.3-1.4-8.3-4.3-9.1-8.9c-1.1-6,2.3-11.3,10.1-15.9c-1.5-0.3-2.8-1.1-3.7-2.3c-0.9-1.7-1.5-3.5-1.7-5.4c-0.5-2.6,0.3-5.5,2.1-8.7
	c1.9-3.3,4.5-6.2,7.5-8.6c6.9-5.5,13.4-8.8,19.4-9.8c1.5-0.2,3.1-0.2,4.6,0.3C412.8,125.6,413.9,126.6,414.2,128z"/>
</svg>
