<?xml version="1.0" encoding="utf-8"?>
<!-- Generator: Adobe Illustrator 28.1.0, SVG Export Plug-In . SVG Version: 6.00 Build 0)  -->
<svg version="1.1" id="グループ_1634" xmlns="http://www.w3.org/2000/svg" xmlns:xlink="http://www.w3.org/1999/xlink" x="0px"
	 y="0px" viewBox="0 0 143 112.3" style="enable-background:new 0 0 143 112.3;" xml:space="preserve">
<style type="text/css">
	.st0{fill:#F8F4EA;}
	.st1{fill:#5B8DCD;}
	.st2{fill:#A67C52;}
	.st3{fill:#B3B3B3;}
	.st4{fill:#E6E6E6;}
	.st5{fill:#CCCCCC;}
</style>
<g>
	<g id="グループ_1614">
		<path id="パス_823" class="st0" d="M9.2,12C15.5,5.1,24.5,1.2,34,0.2c4.9-0.5,9.9,0,14.6,1.5c21.2,7.1,26.9,40.2,37.8,46.5
			c15.1,8.7,35.7,6.5,49.1,18.6c5.2,4.9,8,11.9,7.4,19c-0.7,9.3-9.3,14.7-17.4,17.3c-27.9,9.2-62.3,14.1-90,1.9
			C16.3,96.4,5.5,72.8,1.5,53.2c-2.2-10.7-2.4-22.6,2.2-32.8C5,17.3,6.9,14.4,9.2,12"/>
		<path id="パス_824" class="st1" d="M78.8,68l7.3,5.4c0,0,9.2,0,10.6,0.5c1.4,0.5,1.9,1.1,2.2,1.1h22c0.9,0.6,1.6,1.3,2.2,2.2
			c0.5,1.1,0.3,9.2,0,10.1s-0.8,1.9-1.6,1.6c-0.6-0.2-1.3-0.3-1.9-0.3c0,0,0.3,16-0.3,16.6s-3.8,0-3.8,0l-0.5-0.8
			c0,0-0.5,1.6-1.9,1.4s-1.9-1.6-1.9-3.3s0.4-11.6,0.4-11.6s-0.5-1.9-1.9-1.9s-1.9,1.4-1.9,3.8s0.3,11.7-0.5,12.2s-2.7,0-2.7,0
			l-1.1-1.1c-0.4,0.7-1.1,1.2-1.9,1.4c-1.4,0.3-2.2,0.3-2.2-2.4s0.5-12,0.5-12c-0.4-1-1.4-1.7-2.4-1.6c-1.9,0-2.4-1.1-2.4,1.6v15.2
			c0,0-0.3,3-1.6,2.4c-1.1-0.5-2.2-1.2-3.3-1.9c0,0-1.4,1.9-2.4,1.4s-1.6-2.2-1.9-4.1S86,79.9,86,79.9L76.3,72c0,0-0.8-1.9,0.3-3
			C77.1,68.3,78,68,78.8,68"/>
		<path id="パス_825" class="st0" d="M94.7,66.2c0,2.4-1.9,4.3-4.3,4.3c-2.4,0-4.3-1.9-4.3-4.3c0-2.4,1.9-4.3,4.3-4.3
			S94.7,63.8,94.7,66.2L94.7,66.2"/>
		<path id="パス_826" class="st0" d="M108,68.1c0,2.4-1.9,4.3-4.3,4.3c-2.4,0-4.3-1.9-4.3-4.3c0-2.4,1.9-4.3,4.3-4.3
			S108,65.7,108,68.1L108,68.1"/>
		<path id="パス_827" class="st0" d="M119.9,68.4c0,2.4-1.9,4.3-4.3,4.3c-2.4,0-4.3-1.9-4.3-4.3c0-2.4,1.9-4.3,4.3-4.3
			S119.9,66,119.9,68.4L119.9,68.4"/>
		<path id="パス_828" class="st2" d="M90.4,71.9c2.7,0,5.1-2.8,5.1-6.1c0-2.8-2.3-5.1-5.1-5.1s-5.1,2.3-5.1,5.1
			C85.4,69,87.7,71.9,90.4,71.9 M90.5,62.8c1.6-0.1,3,1.1,3,2.7c0,0.1,0,0.2,0,0.3c0,2.1-1.5,4-3,4s-3-1.9-3-4c-0.1-1.6,1.1-3,2.7-3
			C90.2,62.8,90.3,62.8,90.5,62.8"/>
		<path id="パス_829" class="st2" d="M100.4,86.7v-8.9c0-3-2.4-5.4-5.4-5.4h-8.8l-5.7-4.6c-1.5-1.2-3.7-0.9-5,0.6l0,0
			c-1.2,1.5-1,3.8,0.5,5c0,0,0,0,0,0l8.8,7.1v6.3c0,0.2,0,0.3,0,0.5v2.5l0.2,16c-0.3,1.5,0.6,3,2,3.4c0.3,0.1,0.6,0.1,1,0.1
			c1,0,1.9-0.4,2.5-1.1c0.8,1,2.1,1.4,3.4,1c1.5-0.4,2.4-1.9,2-3.4l0.1-16l0,0c1.6,0.7,3.5-0.2,4.1-1.8
			C100.3,87.5,100.4,87.1,100.4,86.7 M98.3,86.7c0,0.6-0.4,1.2-1.1,1.2c-0.3,0-0.7-0.1-0.9-0.3c-0.2-0.2-0.3-0.3-0.3-0.6
			c0-0.1,0-0.2,0-0.2l0,0v-7.5c0-0.6-0.5-1-1-1c0,0,0,0,0,0l0,0c-0.6,0-1,0.5-1,1v7.5l0,0l-0.1,19.1c0,0.1,0,0.2,0,0.3
			c0.1,0.2,0,0.5-0.1,0.7c-0.1,0.2-0.3,0.4-0.6,0.4c-0.3,0.1-0.6,0-0.8-0.1c-0.2-0.1-0.3-0.2-0.4-0.4l-0.6-16c0-0.6-0.5-1-1-1l0,0
			c-0.6,0-1,0.4-1,1L88.9,107c-0.2,0.3-0.8,0.4-1.3,0.3c-0.5-0.1-0.7-0.6-0.6-1.1c0-0.1,0-0.2,0-0.3l-0.2-16.2v-2.5
			c0-0.1,0-0.2,0-0.2c0-0.1,0-0.2,0-0.2V80c0,0,0,0,0,0c0,0,0-0.1,0-0.1c0,0,0-0.1,0-0.1c0,0,0-0.1,0-0.1c0,0,0-0.1,0-0.1
			s0-0.1,0-0.1s0-0.1-0.1-0.1s0-0.1-0.1-0.1c0,0-0.1-0.1-0.1-0.1c0,0,0,0,0,0l-9.1-7.4c-0.6-0.5-0.8-1.5-0.2-2.1c0,0,0,0,0,0l0,0
			c0.5-0.6,1.4-0.7,2.1-0.2l6,4.9c0,0,0,0,0,0c0,0,0.1,0.1,0.1,0.1l0.1,0c0,0,0.1,0,0.1,0.1c0,0,0,0,0.1,0c0,0,0.1,0,0.1,0l0.1,0
			c0,0,0,0,0.1,0H95c1.8,0,3.3,1.5,3.3,3.3L98.3,86.7z"/>
		<path id="パス_830" class="st2" d="M103.8,73.8c2.6,0,4.9-2.7,4.9-5.9c0-2.7-2.2-4.9-4.9-4.9c-2.7,0-5,2.2-5,4.9
			C98.9,71.1,101.2,73.8,103.8,73.8 M103.8,65.1c1.5-0.1,2.8,1.1,2.9,2.6c0,0.1,0,0.2,0,0.3c0,2-1.4,3.8-2.9,3.8s-2.9-1.9-2.9-3.8
			c-0.1-1.5,1.1-2.8,2.6-2.9C103.6,65.1,103.7,65.1,103.8,65.1"/>
		<path id="パス_831" class="st2" d="M112.7,86.7v-7.8c0-2.7-2.2-4.8-4.8-4.8H102c-0.6,0-1,0.5-1,1c0,0.6,0.5,1,1,1h5.9
			c1.5,0,2.8,1.2,2.8,2.8v7.8c0,0.4-0.3,0.8-0.7,0.9c-0.3,0.1-0.6,0-0.8-0.2c-0.1-0.1-0.2-0.3-0.2-0.4c0-0.1,0-0.1,0-0.2v-7.1
			c0-0.6-0.4-1-1-1.1c-0.6,0-1,0.4-1.1,1c0,0,0,0,0,0.1v7.1c0,0.1,0,0.1,0,0.2c0,0,0,0,0,0c0,0,0,0.1,0,0.1c0,0,0,0,0,0.1v0l0,0v2.2
			l-0.1,14.2c0,0.1,0,0.2,0,0.3c0.1,0.3-0.1,0.7-0.4,0.8c-0.3,0.1-0.7,0-1-0.2l-0.4-14.1c0-0.6-0.5-1-1-1l0,0c-0.6,0-1,0.4-1,1
			l-0.5,14c-0.1,0.1-0.2,0.2-0.3,0.2c-0.2,0.1-0.4,0.1-0.6,0.1l-0.1,0c-0.3-0.1-0.5-0.4-0.4-0.8c0-0.1,0-0.2,0-0.3l0-12.5
			c0-0.6-0.5-1-1-1c0,0,0,0,0,0l0,0c-0.6,0-1,0.5-1,1l0,12.4c-0.3,1.4,0.5,2.8,1.9,3.2l0.1,0c0.7,0.2,1.4,0.1,2.1-0.2
			c0.3-0.2,0.6-0.4,0.9-0.6c0.6,0.6,1.4,0.9,2.2,0.9c0.3,0,0.6,0,0.9-0.1c1.4-0.4,2.2-1.8,1.9-3.2l0.1-13.9c1.5,0.5,3.2-0.3,3.7-1.9
			C112.6,87.4,112.7,87.1,112.7,86.7"/>
		<path id="パス_832" class="st2" d="M115.6,73.8c2.6,0,4.9-2.7,4.9-5.9c0-2.7-2.2-4.9-4.9-4.9c-2.7,0-5,2.2-5,4.9
			C110.6,71.1,112.9,73.8,115.6,73.8 M115.6,65.1c1.5-0.1,2.8,1.1,2.9,2.6c0,0.1,0,0.2,0,0.3c0,2-1.4,3.8-2.9,3.8s-2.9-1.9-2.9-3.8
			c-0.1-1.5,1.1-2.8,2.6-2.9C115.3,65.1,115.5,65.1,115.6,65.1"/>
		<path id="パス_833" class="st2" d="M119.6,74.1h-6.2c-0.6,0-1,0.5-1,1c0,0.6,0.5,1,1,1h6.2c1.5,0,2.8,1.2,2.8,2.8v7.8
			c0,0.4-0.3,0.8-0.7,0.9c-0.3,0.1-0.6,0-0.8-0.2c-0.1-0.1-0.2-0.3-0.2-0.4c0-0.1,0-0.1,0-0.2v-7.1c0-0.6-0.5-1-1-1l0,0
			c-0.6,0-1,0.5-1,1v7.1c0,0.1,0,0.1,0,0.2c0,0,0,0,0,0c0,0,0,0.1,0,0.1c0,0,0,0,0,0.1v0l0,0v2.2l-0.1,14.2c0,0.1,0,0.2,0,0.3
			c0.1,0.3-0.1,0.7-0.4,0.8c-0.3,0.1-0.7,0-1-0.2l-0.4-14.1c0-0.6-0.5-1-1-1l0,0c-0.6,0-1,0.4-1,1l-0.5,14c-0.1,0.1-0.2,0.2-0.3,0.2
			c-0.2,0.1-0.4,0.1-0.6,0.1l-0.1,0c-0.3-0.1-0.5-0.4-0.4-0.8c0-0.1,0-0.2,0-0.3l0-12.4c0-0.6-0.5-1-1-1l0,0c-0.6,0-1,0.5-1,1l0,0
			l0,12.3c-0.3,1.4,0.5,2.8,1.9,3.2l0.1,0c0.7,0.2,1.4,0.1,2.1-0.2c0.3-0.2,0.6-0.4,0.9-0.6c0.6,0.6,1.4,0.9,2.2,0.9
			c0.3,0,0.6,0,0.9-0.1c1.4-0.4,2.2-1.8,1.9-3.2l0.1-13.9c1.5,0.5,3.2-0.3,3.7-1.9c0.1-0.3,0.2-0.7,0.1-1v-7.8
			C124.4,76.2,122.2,74.1,119.6,74.1"/>
		<rect id="長方形_1517" x="9.8" y="16.6" class="st3" width="35.6" height="67.4"/>
		<rect id="長方形_1518" x="16" y="22.8" class="st4" width="8.4" height="8.4"/>
		<rect id="長方形_1519" x="30.7" y="22.8" class="st4" width="8.4" height="8.4"/>
		<rect id="長方形_1520" x="16.2" y="36.4" class="st4" width="8.4" height="8.4"/>
		<rect id="長方形_1521" x="30.9" y="36.4" class="st4" width="8.4" height="8.4"/>
		<rect id="長方形_1522" x="16.3" y="50" class="st4" width="8.4" height="8.4"/>
		<rect id="長方形_1523" x="31" y="50" class="st4" width="8.4" height="8.4"/>
		<rect id="長方形_1524" x="16.5" y="63.6" class="st4" width="8.4" height="8.4"/>
		<rect id="長方形_1525" x="31.1" y="63.6" class="st4" width="8.4" height="8.4"/>
		<rect id="長方形_1526" x="19.7" y="76.1" class="st4" width="16" height="7.9"/>
		<rect id="長方形_1527" x="28.4" y="41" class="st5" width="35.6" height="47"/>
		<rect id="長方形_1528" x="32.5" y="45.4" class="st4" width="8.7" height="8.7"/>
		<rect id="長方形_1529" x="44.3" y="45.4" class="st4" width="8.7" height="8.7"/>
		<rect id="長方形_1530" x="32.5" y="58.2" class="st4" width="8.7" height="8.7"/>
		<rect id="長方形_1531" x="44.3" y="58.2" class="st4" width="8.7" height="8.7"/>
		<rect id="長方形_1532" x="32.5" y="70.7" class="st4" width="8.7" height="8.7"/>
		<rect id="長方形_1533" x="44.3" y="70.7" class="st4" width="8.7" height="8.7"/>
		<rect id="長方形_1534" x="56.1" y="45.4" class="st4" width="3.8" height="34"/>
		<rect id="長方形_1535" x="32.5" y="82.1" class="st4" width="12.8" height="6"/>
		<path id="パス_834" class="st2" d="M97.5,46.3h-3.5c-0.3,0-0.6-0.3-0.6-0.6c0-0.3,0.3-0.6,0.6-0.6h3.5c0.8,0,1.5-0.7,1.5-1.5
			V31.7c0-0.8-0.7-1.5-1.5-1.5H80.3c-0.8,0-1.5,0.7-1.5,1.5v3.5c0,0.3-0.3,0.6-0.6,0.6s-0.6-0.3-0.6-0.6v-3.5c0-1.5,1.2-2.7,2.7-2.7
			h17.2c1.5,0,2.7,1.2,2.7,2.7v11.9C100.1,45.1,98.9,46.3,97.5,46.3"/>
		<path id="パス_835" class="st2" d="M88.9,57.1L88.9,57.1c-0.3,0-0.6-0.1-0.8-0.3l-4.5-3.1h-11c-1.5,0-2.7-1.2-2.7-2.7V39.2
			c0-1.5,1.2-2.7,2.7-2.7h17.2c1.5,0,2.7,1.2,2.7,2.7v11.9c0,1.2-0.9,2.3-2.1,2.6v1.9c0,0.4-0.2,0.8-0.4,1
			C89.7,56.9,89.3,57.1,88.9,57.1 M72.6,37.7c-0.8,0-1.5,0.7-1.5,1.5v11.9c0,0.8,0.7,1.5,1.5,1.5h11.2c0.1,0,0.2,0,0.3,0.1l4.6,3.2
			c0,0,0.1,0.1,0.2,0.1c0.1,0,0.2,0,0.2-0.1c0.1-0.1,0.1-0.1,0.1-0.2v-2.5c0-0.3,0.3-0.6,0.6-0.6l0,0c0.8,0,1.5-0.7,1.5-1.5
			c0,0,0,0,0,0V39.2c0-0.8-0.7-1.5-1.5-1.5L72.6,37.7z"/>
		<path id="パス_836" class="st1" d="M81.1,42.5l-2.2-2.1c-0.4-0.3-0.9-0.3-1.3,0c-0.2,0.2-0.2,0.4-0.3,0.6v5.4
			c0,0.4,0.1,0.7,0.4,1l2.7,2.6c0.3,0.3,0.9,0.3,1.2,0l2.7-2.6c0.3-0.3,0.4-0.6,0.4-1V41c0-0.5-0.4-0.9-0.9-0.9
			c-0.2,0-0.5,0.1-0.6,0.3L81.1,42.5z M83.5,46.2c0,0.1,0,0.2-0.1,0.3l-2.3,2.2v-4.6l0.4-0.4l1.6-1.6c0.1-0.1,0.2-0.1,0.3,0
			c0,0,0.1,0.1,0.1,0.2L83.5,46.2z"/>
	</g>
</g>
</svg>
