<?xml version="1.0" encoding="utf-8"?>
<!-- Generator: Adobe Illustrator 28.1.0, SVG Export Plug-In . SVG Version: 6.00 Build 0)  -->
<svg version="1.1" id="レイヤー_1" xmlns="http://www.w3.org/2000/svg" xmlns:xlink="http://www.w3.org/1999/xlink" x="0px"
	 y="0px" viewBox="0 0 853.7 461.2" style="enable-background:new 0 0 853.7 461.2;" xml:space="preserve">
<style type="text/css">
	.st0{fill:none;stroke:#396CAE;stroke-width:2.0005;stroke-miterlimit:4.001;}
</style>
<path id="パス_1323" class="st0" d="M29.3,117.3c1-0.2,1.6,0.3,1.8,1.5c0.1,0.4,0,0.9-0.3,1.2c-4.7,6.8-10.8,10.8-18.4,12.1
	c-1.8,0.3-3.9-0.3-6.5-2c-2.5-1.6-4.2-4.4-4.8-8.2c-0.7-3.8,0.9-8.5,4.7-14c3.8-5.5,9.5-11.1,17.1-16.7C30.5,85.5,40.2,80,52,74.5
	c11.9-5.5,22.7-9.1,32.6-10.8c9.9-1.7,18.2-2.4,24.8-1.9c6.6,0.5,12,1.6,16,3.3c3.7,1.6,7.2,3.7,10.3,6.4c4.8,4.2,7.6,8.9,8.5,14
	c0.9,5.1,0.2,10.6-2.1,16.6c-2.4,6.1-5.9,11.7-10.2,16.6c-4.8,5.4-10.2,10.4-15.9,14.9c-11.6,9-24.4,16.4-38,21.9
	c2.9,2.1,9.2,7.5,19,16.2c8.4,7.6,17.2,14.8,26.3,21.6c7.8,5.7,13.5,8.2,17.1,7.5l3.2-1.8c0.8-0.1,1.2,0.1,1.3,0.7
	c0.1,0.6-0.8,2.5-2.9,5.7c-1.6,2.6-3.4,5.1-5.4,7.5c-1.9,1.9-4.4,3.2-7.1,3.5c-3.2,0.6-7-0.3-11.6-2.7c-5.5-3-10.7-6.6-15.5-10.7
	c-5.8-4.8-11-9.3-15.7-13.5c-4.7-4.3-10.1-9.3-16.2-15.2c-6.1-5.9-10.3-9.8-12.6-11.9c-0.5,1.2-1.8,4.2-3.8,9.1
	c-2,4.8-3.5,8.4-4.5,10.7c-0.9,2.3-2.3,5.6-4.1,10c-1.8,4.4-3.1,7.9-4.1,10.5c-2.6,7-4.4,12.2-5.3,15.6c-0.6,3.1-3.2,5.5-6.4,6
	l-3.6,0.5l-3.1,0.6c-4.2,0.7-6.7-0.7-7.3-4.2c-0.5-2.7,0-6.7,1.4-12c1.4-5.4,10.3-26,26.6-61.9c16.3-35.9,25.4-55.1,27.3-57.6
	c1.9-2.5,3.3-4.1,4.4-4.5c0.4-0.5,0.9-0.9,1.5-1.2l1.9,0l1.7-0.6c0.6-0.1,1.3,0.1,1.8,0.5c0.4,0.3,0.8,0.6,1.2,0.8
	c3.2,1.6,5,3.1,5.2,4.6c0.3,1.5,0.1,2.9-0.3,4.3c-0.5,1.5-1.9,4.8-4.3,10c-2.4,5.2-5.5,12-9.5,20.3c-3.9,8.3-6.7,14.4-8.5,18.1
	c5.6-1.3,12-4.2,19.3-8.7c7.2-4.4,13.9-9.5,20.1-15.2c5.7-5.2,10.8-11,15.1-17.5c4-6,5.6-10.9,4.9-14.8c-0.4-2-1.7-3.7-4.2-5
	c-2.7-1.4-5.7-2.2-8.7-2.5c-7.4-0.8-14.9-0.4-22.2,1c-8.1,1.4-18,5-29.7,10.6c-11.7,5.7-20.2,10.6-25.3,14.8
	c-3.9,3.1-7.6,6.5-10.9,10.3c-2.1,2.7-3.1,4.4-3,5.3c0.1,0.5,0.8,0.6,2.2,0.3c1.3-0.2,2.6-0.8,3.6-1.7
	C28,118.1,28.6,117.7,29.3,117.3z M199.4,116.7c0.8,4.6-0.5,9.3-3.4,12.9c-2.7,3.9-6.9,6.5-11.5,7.3c-1.5,0.3-2.6,0.1-3.2-0.6
	c-0.7-0.8-1.1-1.7-1.2-2.7c-0.2-1.1-0.3-2.3-0.2-3.5c-2.7,1.5-5.2,3.3-7.5,5.2c-3.4,3-6.7,6.1-9.7,9.5c-3.8,4.1-5.5,7-5.2,8.6
	c0.1,0.5,0.9,0.7,2.6,0.4c2.5-0.6,4.9-1.7,7.1-3c2.1-1.3,4.4-2.3,6.7-2.9c0.9-0.2,1.8-0.3,2.6-0.3c1.3,0.6,2.5,1.5,3.4,2.6
	c1,1,1.8,2.2,2.2,3.5c0.2,0.9-0.5,2.3-2,4.1c-1.5,1.8-3.4,3.3-5.4,4.5c-1.5,0.8-2.9,1.6-4.2,2.6c-13,10.6-19.2,17.4-18.7,20.4
	c0.9,5.3,6,7.2,15,5.6c5.8-1,11.3-3.9,16.5-8.6c4.2-3.7,8.1-7.7,11.8-12c3.4-3.9,5.6-6.4,6.5-7.3c0.6-0.7,1.3-1.2,2.2-1.6
	c1.8-0.3,3,1.5,3.7,5.5c0.7,4,0.9,6.6,0.7,8s-1.3,3.1-3.3,5.4c-12.5,14.5-25.3,22.9-38.3,25.2c-7,1.2-12.7,1.3-17.2,0.1
	c-8.3-2.1-13-6.8-14.3-14c-1.7-9.4,3.6-17.7,15.8-24.9c-2.8-0.7-4.7-1.9-5.8-3.6c-1.1-1.7-2-4.5-2.7-8.5c-0.7-4,0.4-8.6,3.3-13.7
	c3-5.2,7-9.8,11.7-13.4c10.9-8.6,21-13.7,30.4-15.4c2.4-0.4,4.8-0.2,7.2,0.4C197.6,113.4,199,114.7,199.4,116.7L199.4,116.7z
	 M271.6,159.5c2.1-1.9,4.1-3.8,6-5.9c0.9-1,1.9-2.3,3.1-3.7c0.7-1.1,1.8-1.9,3.1-2.3c1.4-0.2,2.3,1.2,2.9,4.3
	c0.5,3.1-0.4,6.7-2.8,10.8c-2.5,4.3-5.8,8-9.7,11.1c-4.2,3.4-8.6,6.4-13.3,9.1c-9.5,5.6-17.8,9-25,10.2c-7.1,1.3-14.3,0-20.5-3.6
	c-6.4-3.4-10.8-9.6-11.8-16.8c-1.3-7.9-0.8-16,1.6-23.6c2.3-8.1,6.1-15.6,11-22.4c5-6.8,11.1-12.8,18.1-17.5
	c6.7-4.7,14.3-7.9,22.3-9.4c3.6-0.7,7.2-0.2,10.5,1.4c3.2,1.5,5.4,4.4,5.9,7.9c0.7,3.7-0.4,8.4-3.1,14.2c-2.7,5.8-6,9-9.8,9.7
	c-4.4,0.8-6.9-0.9-7.7-5.1c-0.2-1.1,0.5-3.2,2-6.4c1.6-3.2,2.2-5.2,2.1-6.2c-0.2-1-0.6-1.4-1.4-1.3c-3.8,0.7-7.6,2.7-11.4,6
	c-3.7,3.2-7.1,6.6-10.3,10.3c-3.1,3.6-5.8,7.4-8.3,11.4c-5.5,8.9-7.5,17.6-6,25.9c0.5,3.2,2.2,6.1,4.8,8.1c2.6,2,6.4,2.6,11.5,1.7
	c5.2-0.9,10.2-2.4,15-4.5c4.2-1.7,8.2-3.8,12-6.1C265.6,164.7,268.7,162.2,271.6,159.5z M309.2,118.8c12.9-21.2,25-32.7,36.3-34.7
	c2.5-0.5,5.2-0.1,7.4,1.3c2.1,1.3,3.5,3.5,3.9,6c0.5,2.7-0.6,7.5-3.3,14.4s-5.3,12.8-7.7,17.7c-1.3,2.5-3.1,3.9-5.2,4.3
	c-1.9,0.4-4-0.1-5.4-1.5c-1.5-1.4-2.5-3.2-2.8-5.2c-0.8-4.7,0.8-10.5,4.8-17.3l-0.2-0.2c-2.2,0.6-7,6-14.4,16.3
	s-13.6,19.4-18.6,27.3c-5,8-10.3,17.5-15.9,28.6c-1.6,3.3-3.1,5.1-4.6,5.4c-2,0.2-4.1,0.1-6.1-0.3c-1.6-0.2-3.2-0.6-4.8-1.2
	c-0.7-0.4-1.1-1.1-1.1-1.9c-0.2-1.2-0.1-2.3,0.2-3.5c0.5-2,1.2-4,2.1-5.9c1.1-2.6,2.6-6.7,4.7-12.4c2.1-5.7,5.3-14.4,9.7-26
	c4.4-11.6,7.1-18.6,7.9-21c1.3-3.8,2.8-7.4,4.6-11c2.4-4.4,7.2-7.3,14.5-8.6c1.6-0.3,2.6,0.6,3,2.6c0.6,3.2-1.3,9.8-5.7,19.7
	L309.2,118.8z M439.9,120.1c1.3-0.2,2.3,0.6,2.9,2.6c0.6,2,1.1,4,1.5,6.1c0.4,1.5,0.4,3,0.2,4.5c-1.3,4.2-4.8,9.6-10.5,16.3
	c-5.7,6.7-11.6,10.6-17.6,11.6c-3.7,0.7-7.5,0.1-10.8-1.5c-3.5-1.7-5.8-5.3-6.8-10.8c-1-5.7-0.4-11.6,1.5-17.1
	C387,156,375.6,168.9,366,170.6c-3.5,0.7-7.2-0.2-10-2.5c-2.6-1.9-4.4-4.7-5-7.8c-0.5-3-0.6-6.2-0.4-9.2c0.2-3,0.6-5.9,1.1-8.8
	c0.7-3.3,1.5-6.6,2.5-9.8c1.2-3.9,2.1-6.8,2.7-8.6s1.6-4.5,2.9-8.2c1.4-3.7,3.1-8.6,5.3-14.7c1.6-4.7,3.5-9.4,5.7-13.8
	c1.6-3.1,3.4-4.8,5.4-5.2c2-0.4,4.1,0.2,5.6,1.5c1.8,1.4,2.8,2.6,3,3.6c0.2,1-1.3,6-4.4,15c-9.2,26.8-13.4,42.3-12.7,46.3
	c0.2,1,0.6,1.5,1.4,1.3c3.3-0.6,10.2-9.1,20.7-25.6c10.5-16.5,16.5-26.9,17.8-31.3c1.1-3.8,2.5-7.5,4.2-11.1c1.5-3.1,2.6-5,3.5-5.8
	c2.6-2.4,6.2-4.1,10.8-5.1c0.6-0.1,1.2-0.2,1.8-0.2c0.4,0,1,0.5,1.7,1.5c0.6,0.7,1,1.5,1.3,2.4c-0.3,2-2.1,7.6-5.4,16.7
	s-5.2,14.3-5.6,15.5c-5.1,18.1-7.2,29.7-6.3,34.7c0.5,2.9,1.9,4.1,4,3.7c3.9-1.2,8.1-5.3,12.7-12.1c1.7-2.5,3.3-5,5-7.5
	c0.9-1.6,2-3.1,3.1-4.5C438.7,120.5,439.2,120.2,439.9,120.1z M488.6,28.6c0.7,3.9-0.4,8.1-3.4,12.7c-2.9,4.6-6.4,7.2-10.3,7.9
	c-3.9,0.7-6.3-1-7-5.1c-0.7-4.1,0.3-8.3,3.1-12.6c2.8-4.3,6.3-6.9,10.4-7.6c1.6-0.4,3.3-0.1,4.7,0.8C487.5,25.6,488.4,27,488.6,28.6
	z M487.8,121c0.4,1.5,0.4,3,0.2,4.5c-2.3,7.6-6.8,14.4-13.1,19.4c-6.6,5.5-12.5,8.7-17.9,9.7c-5.2,1-10.5-0.1-14.9-3
	c-4.5-2.9-7.1-6.3-7.8-10c-0.7-3.8,0.2-9.6,2.7-17.4c2.5-7.8,5.1-15.1,7.8-21.9c2.7-6.7,4-10.4,3.9-10.9c-0.1-0.5-1-1.4-2.6-2.7
	c-1.7-1.3-2.6-2.2-2.7-3c-0.1-0.7,1-2.8,3.3-6.4c2.6-3.9,5.5-7.5,8.8-10.8c3.5-3.7,6.4-5.7,8.5-6.1c2.3-0.3,4.6,0.3,6.3,1.8
	c2,1.6,3.2,3.2,3.5,4.8c0.3,1.6-5.2,17.8-16.5,48.7c-0.1,0.4-0.5,1.5-1.2,3c-0.7,1.6-1.2,2.9-1.5,3.9c-0.3,1-0.8,2.2-1.2,3.6
	c-0.8,2.3-1.1,4.8-0.8,7.2c0.4,2.3,2.2,3.2,5.3,2.7c3.5-0.7,6.7-2.5,9.2-5c2.8-2.6,5.4-5.5,7.5-8.7c5.2-8,8.2-12.1,9.1-12.3
	C485.3,112,486.7,114.9,487.8,121z M531.4,1l4.4,0.3c0.7-0.1,1.3,0.1,1.8,0.6c0.5,0.4,0.9,1,1,1.6c0.1,0.5-0.4,2.1-1.4,4.8
	c-1,2.6-2.2,5.7-3.6,9c-1.4,3.4-2.2,5.2-2.2,5.5c5.3-1.4,9-2.2,11.2-2.6c1.5-0.4,3.1-0.5,4.6-0.3c1.3,0.4,2.4,1.1,3.3,2.1
	c1.1,1,2.2,1.9,3.5,2.7c1.1,0.6,1.8,1.8,1.9,3c0.3,1.4-0.4,2.8-2,4.1c-1.5,1.3-3.3,2.2-5.3,2.8c-15.6,4.4-24.2,6.7-25.8,7.1
	c-4,9.4-9.4,24-16.2,43.7s-10.1,31.8-9.9,36.4c0.1,1.7,0.2,3.4,0.5,5.1c0.5,2.7,2.1,3.7,4.9,3.3c2.8-0.5,5.7-2.1,8.8-4.9
	c3-2.7,5.7-5.6,8.2-8.7c6.4-8.2,9.9-12.3,10.5-12.4c1.8-0.3,3.2,2.6,4.3,8.7c0.6,3.3-0.4,6.6-3,9.8c-4.6,5.8-9.7,11.3-15,16.5
	c-3.7,3.6-8.3,6-13.3,7c-1,0.2-1.9,0.2-2.9,0.2c-5.6-0.1-10-1.3-13.1-3.9c-3.1-2.5-5.1-6.3-5.9-11.4c-0.9-5.1-0.4-11.5,1.3-19.2
	c1.9-8.5,4.3-16.8,7.2-25c5-14.6,10.2-28.3,15.5-41.2l-3.8,1.2c-7.8,2.3-12.3,3.5-13.6,3.8l-0.9,0.2c-2,0.3-4,0.3-5.9-0.2
	c-2-0.5-3.1-1.3-3.3-2.4c-0.2-1.3,0.1-2.6,0.9-3.6c0.6-0.9,1.1-1.8,1.3-2.9c0.2-1.6,1.7-3.6,4.5-6s4.9-3.8,6.5-4.2
	c1.6-0.4,3.1-0.7,4.5-1.1c1.5-0.3,3.1-0.7,4.9-1.1c1.8-0.4,3.2-0.7,4.1-0.9l9.1-2c4.2-9.6,7.2-15.8,8.9-18.7c0.9-1.6,1.9-3.2,3-4.7
	c0.6-0.4,1.3-0.7,2-0.7L531.4,1z M93.3,252.3l4.8-1.1c1.8-0.3,2.8,0.2,3,1.6c0.1,0.3,0.1,0.6,0,1C76.9,307.5,54.7,360,34.5,411.1
	c-1.1,2.7-2.2,4.4-3.3,4.9c-0.3,0.2-0.7,0.4-1,0.6c-3.2,1.9-5.5,3-6.8,3.2c-0.8,0.1-1.5,0.3-2.2,0.5c-0.4,0.7-1.2,1.3-2,1.4
	c-0.9,0.2-1.4,0.2-1.7,0.2c-0.8-0.1-1.7-0.2-2.5-0.4c-1.4-0.3-2.1-0.6-2.2-0.8c-0.6-3.3-0.8-5.4-0.7-6.1c0.6-5.1,6-20.2,16.4-45.2
	c10.4-25,21.1-49.6,32.2-73.6c11.1-24,18-37.6,20.7-40.6c1-1,2.2-1.6,3.6-1.8L93.3,252.3z M130.8,382.5c0.5,3,2.8,4.1,6.9,3.4
	c2.2-0.4,4.7-2,7.7-4.7c2.8-2.7,5.4-5.6,7.7-8.8c5.9-8.3,9.3-12.5,10.2-12.7c1.8-0.3,3.1,2.1,4,7.2c0.9,5.1-0.1,8.9-3,11.4
	c-8.2,10.5-14.8,17.2-19.8,20.1c-3,1.6-6.3,2.7-9.7,3.2c-3.6,0.6-7.5-0.4-11.6-2.8c-3.9-2.1-6.6-5.9-7.3-10.3
	c-0.8-4.4-0.5-9.6,0.8-15.6c1.1-5.3,2.7-10.6,4.6-15.7c1.7-4.4,3.9-9.6,6.5-15.5c2.6-5.9,3.9-9.5,3.9-10.9l-0.2-0.2
	c-2.2,0.6-7,6-14.4,16.3c-7.4,10.2-13.4,19.1-18.1,26.5c-4.7,7.4-10.1,17.2-16.3,29.4c-1.7,3.3-3.3,5.1-4.8,5.4
	c-2,0.2-4.1,0.1-6-0.4c-1.6-0.2-3.3-0.6-4.8-1.2c-0.6-0.3-1.1-1-1.1-1.7c-0.1-1.1-0.1-2.1,0.2-3.1c0.2-1.1,0.5-2.2,0.9-3.2
	c0.3-0.9,0.8-2.2,1.6-4c0.7-1.8,2.2-5.6,4.3-11.5c2.1-5.8,5.4-14.6,9.8-26.2c4.4-11.6,7.1-18.6,7.9-21c1.3-3.8,2.8-7.4,4.6-11
	c2.4-4.4,7.2-7.3,14.5-8.6c1.6-0.3,2.6,0.6,3,2.6c0.6,3.2-1.3,9.8-5.7,19.7l-3.2,7.2c9.5-15.2,18-25.3,25.5-30.2
	c3.1-2.2,6.6-3.7,10.3-4.5c2.7-0.6,5.6-0.2,8,1.2c2,1.1,3.4,3,3.8,5.2c0.3,2.6,0,5.3-0.8,7.9c-0.8,2.9-1.8,5.8-3,8.6
	c-1.1,2.5-2.5,5.8-4.3,9.7c-1.8,3.9-2.7,6-2.9,6.4c-0.2,0.3-0.5,1.3-1.2,2.7c-0.6,1.5-1.1,2.6-1.4,3.3c-0.3,0.7-0.8,1.9-1.5,3.6
	c-0.7,1.7-1.2,3.1-1.6,4.2c-0.4,1.1-0.9,2.5-1.5,4.2s-1,3.1-1.4,4.3c-0.3,1.2-0.6,2.5-1,3.9C130.6,378.4,130.5,380.5,130.8,382.5z
	 M150.5,361.3l-1.3-2.7c-0.1-0.6,0.1-1.2,0.6-1.5c0.7-0.8,1.3-1.7,1.7-2.7c0.4-0.9,0.9-1.8,1.4-2.6c0.3-0.4,0.8-1,1.4-1.8
	c0.6-0.8,1.1-1.4,1.5-1.9c0.7-1,1.5-1.8,2.5-2.5c0.5-0.3,1.4-0.7,2.7-1.4c3.3-1.8,6.7-3.4,10.2-4.8c12.3-32.2,22.2-57.4,29.9-75.7
	s12.1-28.4,13.2-30.4c1.2-2,3.5-4,7-6s6.1-3.2,7.9-3.5c1.7-0.3,2.8,0.3,3,1.8c0.1,0.9,0,1.7-0.2,2.6c-0.3,1.1-2.9,7.8-8,20.1
	c-18.8,45.4-30.8,74.7-36,88.1l2.7,0.5c15.3-5.7,23.3-8.7,24-8.8c1.7,0,3.5,0.1,5.2,0.5c1.8,0.3,3.6,0.6,5.5,0.7
	c1.6,0,2.6,1.1,3,3.4c0.4,2.3-0.1,3.7-1.5,4.2c-1.1,0.4-3.8,1.6-8,3.5c-4.2,1.9-7.6,3.4-10.1,4.5c4.4,3.7,7,7.9,7.9,12.8
	c0.9,4.8-0.2,11.6-3.1,20.3c-3.1,9.3-7.3,18.2-12.3,26.5c-5.3,8.9-11,17.5-17.2,25.7c-5.4,7.4-11.5,14.2-18.2,20.5
	c-6,5.5-10.6,8.5-13.9,9.1c-3.1,0.6-6.3,0.2-9.2-1.1c-2.9-1.3-4.8-4-5.2-7.1c-0.6-4.1-0.6-8.2,0-12.3c0.5-4.5,1.3-8.9,2.4-13.3
	c1-4.1,2.8-10,5.5-17.8c2.9-8.4,8.2-22.8,16-43.3c-1.4,0.5-2.8,1-4.3,1.3c-1,0.2-2,0.1-3-0.2c-0.9-0.3-1.6-0.8-2.2-1.5
	C151.3,363.7,150.7,362.5,150.5,361.3L150.5,361.3z M187,400.4c4-6.6,7.2-13.7,9.6-21c2.3-7.1,3.1-12.8,2.4-16.9
	c-0.7-4.1-3.4-7.4-8-9.8l-10.9,4.6c-0.8,2.1-2.1,5.5-3.8,10c-1.7,4.6-3.1,8.3-4.2,11.1c-1.1,2.9-2.5,6.6-4.1,11.1
	c-1.7,4.5-3.1,8.3-4.2,11.4c-1.1,3.1-2.3,6.6-3.7,10.4c-1.3,3.9-2.4,7.1-3.2,9.9c-0.8,2.7-1.6,5.4-2.3,8.1c-1.4,5.2-2,8.5-1.7,9.9
	c0.3,1.4,0.8,2.1,1.5,2c1.4-0.2,3.9-2.3,7.6-6.2c4.4-4.7,8.5-9.8,12.2-15C178.8,413.7,183,407.2,187,400.4L187,400.4z M293.3,289.6
	c2.4-0.3,4.8,0.3,6.8,1.7c2.5,1.5,4.1,4.1,4.7,7.9s0.2,8.9-1.4,15.5c-1.8,7.1-4.4,13.9-7.7,20.4c-3.5,7.1-7.6,13.9-12.2,20.3
	c-4.4,6.3-9.7,11.9-15.6,16.7c-5.8,4.7-11.4,7.5-16.6,8.4s-9.8,0-13.5-2.7c-3.8-2.8-6.2-7.1-7.2-13c-1-5.9-0.7-12.7,0.9-20.4
	c1.5-7.4,4.2-14.4,7.9-21c3.5-6.2,7.6-12,12.2-17.4c9.6-10.9,18.5-17.1,26.9-18.6c3.8-0.7,6.8-0.2,9,1.3c0.6,0.3,1.1,0.8,1.3,1.5
	l0.1,0.6C290.3,290.2,291.8,289.8,293.3,289.6L293.3,289.6z M285.4,305.1l-0.7,0.1c-2.4,0.4-3.9-1.1-4.5-4.6
	c-5.3,3-10.1,6.8-14.2,11.4c-4.8,5.1-8.9,10.9-12.1,17.1c-6.8,12.7-9.5,23-8.3,30.7c0.7,3.8,2.4,5.5,5.2,5c2.8-0.5,6.6-3.1,11.5-7.7
	c5.5-5.5,10.1-11.8,13.7-18.7c3.6-6.4,6.6-13,9.1-19.9c1.8-5.5,2.6-9.1,2.2-11C286.9,305.7,286.3,304.9,285.4,305.1L285.4,305.1z
	 M338,304.6c12.9-21.2,25-32.7,36.3-34.7c2.5-0.5,5.2-0.1,7.4,1.3c2.1,1.3,3.5,3.5,3.9,6c0.5,2.7-0.6,7.5-3.3,14.4
	c-2.7,6.9-5.3,12.8-7.7,17.7c-1.3,2.5-3.1,3.9-5.2,4.3c-1.9,0.4-4-0.1-5.4-1.5c-1.5-1.4-2.5-3.2-2.8-5.2c-0.8-4.7,0.8-10.5,4.8-17.3
	l-0.2-0.2c-2.2,0.6-7,6-14.4,16.3c-7.4,10.2-13.6,19.4-18.6,27.3c-5,8-10.3,17.5-15.9,28.6c-1.6,3.3-3.1,5.1-4.6,5.4
	c-2,0.2-4.1,0.1-6.1-0.3c-1.6-0.2-3.2-0.6-4.8-1.2c-0.7-0.4-1.1-1.1-1.1-1.9c-0.2-1.2-0.1-2.3,0.2-3.5c0.5-2,1.2-4,2.1-5.9
	c1.1-2.6,2.6-6.7,4.7-12.4c2.1-5.7,5.3-14.4,9.7-26c4.4-11.6,7.1-18.6,7.9-21c1.3-3.8,2.8-7.4,4.6-11c2.4-4.4,7.2-7.3,14.5-8.6
	c1.6-0.3,2.6,0.6,3,2.6c0.6,3.2-1.3,9.8-5.7,19.7L338,304.6z M387.7,354.1l-5.1,0.7l-1.8,0.3c-0.9-0.1-1.7-0.4-2.4-0.8
	c-0.9-0.5-1.6-0.8-2-1c-0.5-0.3-0.8-0.8-0.9-1.4c-0.1-1.3-0.1-2.6,0.2-3.9c8.1-31.7,16.9-57.4,26.2-77.1c1.3-2.4,3.3-4.4,5.8-5.5
	c2.7-1.5,5.6-2.5,8.6-3.1c1.7-0.3,2.8,0.9,3.3,3.5c0.1,1.1,0,2.1-0.3,3.2c-0.8,2.4-1.8,4.7-3,6.9c-1.7,3.3-3.7,7-6,11.2
	s-3.7,6.6-4,7.3c7.6-11.4,14.8-20.1,21.5-26.1s11.8-9.4,15.1-10c3.4-0.6,6.1-0.1,8.3,1.5c2,1.4,3.3,3.4,3.8,5.8
	c0.4,1.8,0.5,3.7,0.5,5.6c-0.1,1.7-0.4,3.3-0.9,4.9c-0.5,1.7-1,3.2-1.4,4.5c-0.6,1.7-1.3,3.3-2.1,4.9c-1,2.1-1.8,3.5-2.2,4.2
	c-0.4,0.8-1.2,2.3-2.5,4.5c-1.3,2.2-2,3.4-2.1,3.6c1.6-2.2,3.7-5.6,6.5-9.9c2.8-4.4,5.1-8,7-11c1.9-2.9,4.4-6.3,7.4-10.1
	c2.6-3.4,5.5-6.6,8.6-9.5c6.6-5.9,13.6-9.6,21.2-10.9c2.4-0.5,4.9,0,7,1.3c2,1.2,3.3,3.2,3.7,5.4c0.4,2.3-1.4,8.2-5.4,17.9
	c-4,9.6-8,19.3-12,28.9c-4,9.7-5.7,15.6-5.3,17.9c0.6,3.1,1.5,4.9,2.7,5.3c1.4,0.4,2.9,0.3,4.3-0.1c1.6-0.4,3.7-1.9,6.4-4.4
	c2.5-2.3,4.8-4.9,6.9-7.5c3.2-4.1,6.1-8,8.7-11.8c0.5-0.7,1.3-1.2,2.1-1.3c1.3-0.2,2.3,0.6,2.9,2.6c0.6,2,1.1,4,1.5,6.1
	c0.4,1.5,0.4,3,0.2,4.5c-1.3,4.2-4.9,9.6-10.6,16.4c-5.8,6.7-11.8,10.6-18,11.7c-0.5,0.1-1.1,0.2-1.7,0.2
	c-7.2,0.6-12.4-0.5-15.6-3.2c-3.2-2.7-5.4-6.4-6-10.6c-0.8-4.4-0.2-9.9,1.7-16.7c1.7-6.4,4-12.6,6.8-18.6c2.7-5.7,5.1-10.8,7.4-15.4
	c2.3-4.6,3.3-7.1,3.3-7.4c-0.1-0.3-0.4-0.5-0.9-0.4c-2.1,0.4-6.2,4.6-12.3,12.7c-9.6,12.6-18.4,25.8-26.4,39.5
	c-1.9,3.3-6.3,11.6-13.2,24.8c-0.9,1.7-2.6,2.7-4.5,2.9c-2.4,0.4-4.8,0.4-7.1-0.1c-2.5-0.4-3.9-1.3-4.2-2.7
	c-0.1-0.7,3.6-11.2,11.2-31.6s11.2-31.4,10.9-33.1c-0.3-1.7-1.5-2.3-3.5-2c-2,0.4-5.6,4.1-10.9,11.2c-14.4,19.6-24.8,38.4-31.5,56.4
	c-0.8,1.8-1.8,3.5-2.8,5.1C389.3,352.7,388.3,353.9,387.7,354.1L387.7,354.1z M579.7,239.2c5.2-0.9,8.1,0.4,8.7,4
	c0.4,1.5,0.2,3.1-0.6,4.4c-0.7,1-2.1,4.3-4.1,9.9c-2,5.5-4.1,12.5-6.2,21c-2.1,8.4-3.2,15.5-3.3,21.2c-0.1,1,0,2,0.2,2.9
	c0.7,3.8,2,5.5,4.1,5.1c2-0.4,4.3-1.8,6.8-4.2c2.4-2.3,4.5-4.9,6.4-7.6c1.8-2.6,3.5-5.3,5.2-7.9c1.7-2.7,2.7-4.2,3-4.7
	c0.5-0.5,1.1-0.8,1.8-0.8c1.3-0.2,2.3,0.6,2.9,2.6c0.6,2,1.1,4,1.5,6.1c0.4,1.5,0.4,3,0.2,4.5c-1.3,4.2-4.8,9.7-10.6,16.3
	c-5.8,6.7-11.4,10.5-16.9,11.4c-5.5,1-9.8,0-13-2.9c-3.1-2.7-5.2-6.4-5.9-10.4c-0.7-3.7-0.7-7.4,0.2-11.1
	c-4.2,8.2-9.7,15.7-16.2,22.2c-6.4,6.4-12,10-16.6,10.9c-4.2,0.9-8.5,0.1-12.1-2.2c-4.4-2.8-7.1-7.3-8.2-13.5
	c-1.1-6.4-0.8-13.1,0.9-19.4c1.6-6.7,4.3-13.1,7.9-19c3.6-5.9,7.7-11.5,12.4-16.7c9.8-10.9,19.4-17.2,29-18.9
	c3.1-0.7,6.3-0.6,9.3,0.3c2.2,0.5,4,1.9,5.2,3.8c1.2-2.7,2.3-4.5,3.3-5.4C576.2,240.1,577.9,239.4,579.7,239.2z M568,253
	c-11.7,2.1-22.6,10.7-32.8,25.9c-3.8,5.9-7,12.2-9.3,18.9c-2.6,7.1-3.7,11.9-3.2,14.3c0.4,2.4,1.3,3.5,2.7,3.2
	c1.9-0.3,6.6-5.1,14-14.1c7.4-9.1,12.2-15.7,14.5-19.7C556.3,276.9,561,267.4,568,253z M647.9,171.4l4.4,0.3
	c0.7-0.1,1.3,0.1,1.8,0.6c0.5,0.4,0.9,1,1,1.6c0.1,0.5-0.4,2.1-1.4,4.8c-1,2.6-2.2,5.7-3.6,9c-1.4,3.4-2.2,5.2-2.2,5.5
	c5.3-1.4,9-2.2,11.2-2.6c1.5-0.4,3.1-0.5,4.6-0.3c1.3,0.4,2.4,1.1,3.3,2.1c1.1,1,2.2,1.9,3.5,2.7c1.1,0.6,1.8,1.8,1.9,3
	c0.3,1.4-0.4,2.8-2,4.1c-1.5,1.3-3.3,2.2-5.3,2.8c-15.6,4.4-24.2,6.7-25.8,7.1c-4,9.4-9.4,24-16.2,43.7s-10.1,31.8-9.9,36.4
	c0.1,1.7,0.2,3.4,0.5,5.1c0.5,2.7,2.1,3.7,4.9,3.3c2.8-0.5,5.7-2.1,8.8-4.9c3-2.7,5.7-5.6,8.2-8.7c6.4-8.2,9.9-12.3,10.5-12.4
	c1.8-0.3,3.2,2.6,4.3,8.7c0.6,3.3-0.4,6.6-3,9.8c-4.6,5.8-9.7,11.3-15,16.5c-3.7,3.6-8.3,6-13.3,7c-1,0.2-1.9,0.2-2.9,0.2
	c-5.6-0.1-10-1.3-13.1-3.9c-3.1-2.5-5.1-6.3-5.9-11.4c-0.9-5.1-0.4-11.5,1.3-19.2c1.9-8.5,4.3-16.8,7.2-25
	c5-14.6,10.2-28.3,15.5-41.2l-3.8,1.2c-7.8,2.3-12.3,3.5-13.6,3.8l-0.9,0.2c-2,0.3-4,0.3-5.9-0.2c-2-0.5-3.1-1.3-3.3-2.4
	c-0.2-1.3,0.1-2.6,0.9-3.6c0.6-0.9,1.1-1.8,1.3-2.9c0.2-1.6,1.7-3.6,4.5-6c2.8-2.4,4.9-3.8,6.5-4.2c1.6-0.4,3.1-0.7,4.5-1.1
	s3.1-0.7,4.9-1.1c1.8-0.4,3.2-0.7,4.1-0.9l9.1-2c4.2-9.6,7.2-15.8,8.9-18.7c0.9-1.6,1.9-3.2,3-4.7c0.6-0.4,1.3-0.7,2-0.7
	L647.9,171.4z M692.6,183.6c0.7,3.9-0.4,8.1-3.4,12.7c-2.9,4.6-6.4,7.2-10.3,7.9c-3.9,0.7-6.3-1-7-5.1c-0.7-4.1,0.3-8.3,3.1-12.6
	c2.8-4.3,6.3-6.9,10.4-7.6c1.6-0.4,3.3-0.1,4.7,0.8C691.5,180.5,692.4,182,692.6,183.6z M691.8,275.9c0.4,1.5,0.4,3,0.2,4.5
	c-2.3,7.6-6.8,14.4-13.1,19.4c-6.6,5.5-12.5,8.7-17.9,9.7c-5.2,1-10.5-0.1-14.9-3c-4.5-2.9-7.1-6.3-7.8-10s0.2-9.6,2.7-17.4
	c2.5-7.8,5.1-15.1,7.8-21.9c2.7-6.7,4-10.4,3.9-10.9c-0.1-0.5-1-1.4-2.6-2.7c-1.7-1.3-2.6-2.2-2.7-3c-0.1-0.7,1-2.8,3.3-6.4
	c2.6-3.9,5.5-7.5,8.8-10.8c3.5-3.7,6.4-5.7,8.5-6.1c2.3-0.3,4.6,0.3,6.3,1.8c2,1.6,3.2,3.2,3.5,4.8c0.3,1.6-5.2,17.8-16.5,48.7
	c-0.1,0.4-0.5,1.5-1.2,3c-0.7,1.6-1.2,2.9-1.5,3.9c-0.3,1-0.8,2.2-1.2,3.6c-0.8,2.3-1.1,4.8-0.8,7.2c0.4,2.3,2.2,3.2,5.3,2.7
	c3.5-0.7,6.7-2.5,9.2-5c2.8-2.6,5.4-5.5,7.5-8.7c5.2-8,8.2-12.1,9.1-12.3C689.3,266.9,690.7,269.8,691.8,275.9z M744,210
	c2.4-0.3,4.8,0.3,6.8,1.7c2.5,1.5,4.1,4.1,4.7,7.9s0.2,8.9-1.4,15.5c-1.8,7.1-4.4,13.9-7.7,20.4c-3.5,7.1-7.6,13.9-12.2,20.3
	c-4.4,6.3-9.7,11.9-15.6,16.7c-5.8,4.7-11.4,7.5-16.6,8.4c-5.3,0.9-9.8,0-13.5-2.7c-3.8-2.8-6.2-7.1-7.2-13
	c-1-5.9-0.7-12.7,0.9-20.4c1.5-7.4,4.2-14.4,7.9-21c3.5-6.2,7.6-12,12.2-17.4c9.6-10.9,18.5-17.1,26.9-18.6c3.8-0.7,6.8-0.2,9,1.3
	c0.6,0.3,1.1,0.8,1.3,1.5l0.1,0.6C741,210.6,742.5,210.2,744,210L744,210z M736.1,225.4l-0.7,0.1c-2.4,0.4-3.9-1.1-4.5-4.6
	c-5.3,3-10.1,6.8-14.2,11.4c-4.8,5.1-8.9,10.9-12.1,17.1c-6.8,12.7-9.5,23-8.3,30.7c0.7,3.8,2.4,5.5,5.2,5c2.8-0.5,6.6-3.1,11.5-7.7
	c5.5-5.5,10.1-11.8,13.7-18.7c3.6-6.4,6.6-13,9.1-19.9c1.8-5.5,2.6-9.1,2.2-11C737.7,226.1,737.1,225.3,736.1,225.4L736.1,225.4z
	 M815.8,261.5c0.5,3,2.8,4.1,6.9,3.4c2.2-0.4,4.7-2,7.7-4.7c2.8-2.7,5.4-5.6,7.7-8.8c5.9-8.3,9.3-12.5,10.2-12.7
	c1.8-0.3,3.1,2.1,4,7.2c0.9,5.1-0.1,8.9-3,11.4c-8.2,10.5-14.8,17.2-19.8,20.1c-3,1.6-6.3,2.7-9.7,3.2c-3.6,0.6-7.5-0.4-11.6-2.8
	c-3.9-2.1-6.6-5.9-7.3-10.3c-0.8-4.4-0.5-9.6,0.8-15.6c1.1-5.3,2.7-10.6,4.6-15.7c1.7-4.4,3.9-9.6,6.5-15.5
	c2.6-5.9,3.9-9.5,3.9-10.9l-0.2-0.2c-2.2,0.6-7,6-14.4,16.3c-7.4,10.2-13.4,19.1-18.1,26.5c-4.7,7.4-10.1,17.2-16.3,29.4
	c-1.7,3.3-3.3,5.1-4.8,5.4c-2,0.2-4.1,0.1-6-0.4c-1.6-0.2-3.3-0.6-4.8-1.2c-0.6-0.3-1.1-1-1.1-1.7c-0.1-1.1-0.1-2.1,0.2-3.1
	c0.2-1.1,0.5-2.2,0.9-3.2c0.3-0.9,0.8-2.2,1.6-4c0.7-1.8,2.2-5.6,4.3-11.5c2.1-5.8,5.4-14.6,9.8-26.2c4.4-11.6,7.1-18.6,7.9-21
	c1.3-3.8,2.8-7.4,4.6-11c2.4-4.4,7.2-7.3,14.5-8.6c1.6-0.3,2.6,0.6,3,2.6c0.6,3.2-1.3,9.8-5.7,19.7l-3.2,7.2
	c9.5-15.2,18-25.3,25.5-30.2c3.1-2.2,6.6-3.7,10.3-4.5c2.7-0.6,5.6-0.2,8,1.2c2,1.1,3.4,3,3.8,5.2c0.3,2.6,0,5.3-0.8,7.9
	c-0.8,2.9-1.8,5.8-3,8.6c-1.1,2.5-2.5,5.8-4.3,9.7c-1.8,3.9-2.7,6-2.9,6.4c-0.2,0.3-0.5,1.3-1.2,2.7c-0.6,1.5-1.1,2.6-1.4,3.3
	c-0.3,0.7-0.8,1.9-1.5,3.6s-1.2,3.1-1.6,4.2c-0.4,1.1-0.9,2.5-1.5,4.2c-0.6,1.7-1,3.1-1.4,4.3c-0.3,1.2-0.6,2.5-1,3.9
	C815.7,257.4,815.5,259.5,815.8,261.5L815.8,261.5z"/>
</svg>
