<svg xmlns="http://www.w3.org/2000/svg" width="32.98" height="32.47" viewBox="0 0 32.98 32.47">
  <path id="パス_1323" data-name="パス 1323" d="M6.97-12.682c0-5.406,2.38-8.636,6.12-8.636s6.12,3.23,6.12,8.636c0,5.644-2.38,9.044-6.12,9.044S6.97-7.038,6.97-12.682ZM24.548,2.38a8.885,8.885,0,0,1-2.754.408c-2.278,0-4.556-.782-5.712-2.686,5-1.292,8.262-5.916,8.262-12.784,0-8.16-4.59-12.954-11.254-12.954S1.836-20.876,1.836-12.682c0,7.174,3.57,11.934,8.942,12.954A10.988,10.988,0,0,0,21.216,6.834a10.5,10.5,0,0,0,4.216-.748Zm7.14-1.9a3.131,3.131,0,0,0,3.128-3.264,3.131,3.131,0,0,0-3.128-3.264,3.125,3.125,0,0,0-3.094,3.264A3.125,3.125,0,0,0,31.688.476Z" transform="translate(-1.836 25.636)" fill="#396cae"/>
</svg>
