<svg xmlns="http://www.w3.org/2000/svg" width="175.68" height="98.95" viewBox="0 0 175.68 98.95">
  <g id="グループ_1882" data-name="グループ 1882" transform="translate(-39.43 -98.2)">
    <path id="パス_1322" data-name="パス 1322" d="M11.3-24.885a12.524,12.524,0,0,0-.63-1.98c-.585-1.485-.72-1.89-1.4-1.89-.63,0-3.015.5-3.015,1.26a4.617,4.617,0,0,0,.18.63c.27.765.45,1.26.585,1.71.45,1.4.5,1.485,1.26,1.485a7.705,7.705,0,0,0,2.025-.4C10.755-24.21,11.3-24.345,11.3-24.885ZM32-18.9c.9,0,1.26.405,1.26,1.26V-3.465c0,1.665-.135,3.375-.135,5.04,0,1.35.54,1.395,2.385,1.395,1.89,0,2.385-.045,2.385-1.395,0-1.665-.135-3.375-.135-5.04V-17.64c0-.81.315-1.17,1.17-1.215.81,0,1.575.09,2.34.09,1.17,0,1.125-.585,1.125-2.2,0-1.575.045-2.2-1.125-2.2-1.215,0-2.7.09-4.14.09h-6.39c-.9,0-1.26-.36-1.26-1.26V-27.63c0-2.25.09-2.475,1.71-2.655a51.439,51.439,0,0,0,8.6-1.89,2.259,2.259,0,0,1,.54-.09,2.1,2.1,0,0,1,.765.135A3.588,3.588,0,0,0,41.76-32c.315,0,.63-.135.63-.54,0-.54-.9-1.44-1.215-1.89-.4-.585-1.395-2.025-2.025-2.025a.907.907,0,0,0-.495.135c-2.115,1.125-8.19,2.34-10.665,2.61-2.43.27-3.015.495-3.015,2.385v12.2c0,6.525-.99,12.96-5.175,18.225A2.162,2.162,0,0,0,19.17.225c0,.855,2.745,1.98,3.51,1.98a1.08,1.08,0,0,0,.9-.54,23.668,23.668,0,0,0,2.655-4.5,37.512,37.512,0,0,0,3.24-14.85c.045-.855.4-1.215,1.26-1.215ZM15.255-34.11c0-.81,0-1.305.495-1.665.27-.225.54-.36.54-.63,0-.36-.36-.5-1.17-.585-.72-.09-3.285-.315-3.87-.315-.4,0-.765.09-.765.585v.4a11.665,11.665,0,0,1,.18,2.16c-.045.9-.405,1.215-1.26,1.215H8.64c-1.305,0-2.565-.09-3.87-.09-1.125,0-1.08.63-1.08,1.98s-.045,1.98,1.08,1.98c1.3,0,2.565-.09,3.87-.09h8.82c1.305,0,2.565.09,3.87.09,1.08,0,1.08-.585,1.08-1.98s0-1.98-1.08-1.98c-1.305,0-2.565.09-3.87.09h-.945C15.66-32.94,15.3-33.255,15.255-34.11ZM8.775-10.89A34.668,34.668,0,0,1,3.69-3.78c-.27.27-.54.45-.54.855,0,.9,2.25,2.655,2.97,2.655.855,0,3.555-4.59,4.095-5.49a.272.272,0,0,1,.27-.135c.225,0,.27.18.315.36V-3.33c0,1.665-.135,3.375-.135,5.04,0,1.26.495,1.26,2.3,1.26s2.25,0,2.25-1.26c0-1.71-.09-3.375-.09-5.04V-6.255c0-.225.09-.45.315-.45.135,0,.225.09.36.18.405.585,1.98,2.88,2.655,2.88.81,0,2.385-2.115,2.385-2.88,0-.315-.18-.45-.405-.63a29.014,29.014,0,0,1-3.555-3.87.628.628,0,0,1-.135-.4c0-.405.315-.54.675-.54,1.215,0,2.475.09,3.735.09,1.125,0,1.08-.585,1.08-2.07s.045-2.115-1.08-2.115c-1.44,0-2.88.135-4.365.135H16.38c-.63,0-1.215-.315-1.215-1.035a.811.811,0,0,1,.4-.72c.315-.225.495-.315.495-.585,0-.5-.72-.54-1.08-.54-.81-.045-2.835-.18-3.6-.18-.315,0-.765,0-.765.54a1.117,1.117,0,0,0,.045.4,6.714,6.714,0,0,1,.09.945A1.06,1.06,0,0,1,9.54-15.93H8.955c-1.485,0-2.925-.135-4.365-.135-1.125,0-1.08.54-1.08,2.115,0,1.53-.045,2.07,1.08,2.07.945,0,2.52-.09,3.51-.09.4.045.765.18.765.63A1.6,1.6,0,0,1,8.775-10.89ZM8.28-23.31c-1.575,0-3.15-.09-4.725-.09-1.125,0-1.125.54-1.125,1.98,0,1.395-.045,1.98,1.125,1.98,1.575,0,3.15-.09,4.725-.09H17.6c1.53,0,3.1.09,4.68.09,1.17,0,1.125-.5,1.125-1.98,0-1.4.045-1.98-1.08-1.98-.27,0-2.7.09-3.015.09-.45-.045-.81-.18-.81-.675a16.515,16.515,0,0,1,.855-2.16.917.917,0,0,1,.63-.585c.225-.09.585-.225.585-.54,0-.63-3.42-1.53-4.05-1.53-.405,0-.45.315-.54.63a22.346,22.346,0,0,1-1.53,3.87,1.634,1.634,0,0,1-1.755.99Zm65.43-4.86c.36,0,.72.135.72.585a.726.726,0,0,1-.135.4,49.445,49.445,0,0,1-9.54,10.08c-.315.27-.99.765-.99,1.17,0,.36.4.765.63.99a1.958,1.958,0,0,1,.585,1.125,8.787,8.787,0,0,1,.09,1.035c.045.9-.36,1.215-1.215,1.215H54.27c-1.845,0-3.735-.09-5.58-.09-1.08,0-1.08.54-1.08,2.25,0,1.665-.045,2.25,1.08,2.25,1.845,0,3.735-.135,5.58-.135h9.585c.9,0,1.26.36,1.26,1.26v3.2c0,1.575-.09,3.06-.09,4.41,0,1.485.72,1.44,2.565,1.44,1.89,0,2.34-.09,2.34-1.485,0-1.44-.09-2.925-.09-4.365v-3.2c0-.9.36-1.26,1.215-1.26H80.82c1.89,0,3.735.135,5.58.135,1.125,0,1.08-.585,1.08-2.25,0-1.71.045-2.25-1.08-2.25-1.845,0-3.69.09-5.58.09H71.1c-.81,0-1.215-.315-1.215-1.17a1.13,1.13,0,0,1,.45-.945c.315-.225.54-.36.54-.63,0-.54-.72-.585-1.08-.63-.18,0-.4-.09-.4-.315a.618.618,0,0,1,.225-.36c1.485-1.35,2.52-2.34,3.915-3.78a1.03,1.03,0,0,1,.765-.36,1,1,0,0,1,.765.405c.9.99,5.58,6.03,6.66,6.03.675,0,2.97-1.98,2.97-2.7,0-.405-.54-.81-.81-1.035a45.334,45.334,0,0,1-6.075-5.67,1.452,1.452,0,0,1-.36-.945,1.6,1.6,0,0,1,.36-.9c.18-.27.315-.45.45-.63.45-.63.54-.81,1.125-.855.27,0,.765-.09.765-.495s-.81-.72-1.71-1.125c-.045-.045-.225-.18-.225-.27,0-.18.135-.225.27-.225h1.17c1.755,0,3.51.09,5.31.09,1.08,0,1.08-.5,1.08-2.16,0-1.71.045-2.25-1.08-2.25-1.8,0-3.555.09-5.31.09h-8.6c-.855,0-1.215-.315-1.215-1.215v-.765c0-.72.045-1.17.495-1.485.315-.225.54-.315.54-.585,0-.585-.81-.585-1.215-.63-.855-.09-3.06-.315-3.825-.315-.45,0-.855.09-.855.63,0,.135.045.405.045.54a25.45,25.45,0,0,1,.18,2.565c-.045.9-.4,1.26-1.26,1.26H55.53c-1.755,0-3.555-.09-5.31-.09-1.125,0-1.08.54-1.08,2.25,0,1.665,0,2.16,1.08,2.16,1.755,0,3.555-.09,5.31-.09h1.8c.36,0,.72.135.72.585a.76.76,0,0,1-.135.45,50.406,50.406,0,0,1-8.64,9.675c-.315.225-.99.765-.99,1.17,0,.72,2.16,2.565,2.97,2.565a2.125,2.125,0,0,0,1.215-.63c1.35-1.17,3.6-3.465,4.815-4.815a1.094,1.094,0,0,1,.81-.4,1.177,1.177,0,0,1,.81.4c.5.585,2.79,2.97,3.51,2.97.765,0,2.88-2.07,2.88-2.88,0-.315-.315-.495-.54-.72a37.871,37.871,0,0,1-3.2-2.835,1.2,1.2,0,0,1-.405-.9,1.421,1.421,0,0,1,.315-.855c.225-.315.36-.54.495-.765.45-.675.585-.855,1.17-.9.27-.045.63-.09.63-.45,0-.4-.63-.72-1.35-1.035-.135-.045-.585-.225-.585-.4s.135-.225.27-.225Zm47.7,4.05a33.124,33.124,0,0,0-.765-3.78c-.585-2.43-.72-3.51-1.755-3.51-.36,0-3.1.27-3.1,1.215a3.811,3.811,0,0,0,.18.765,39.025,39.025,0,0,1,1.26,5.4c.09.585.135,1.17,1.215,1.17C119.25-22.86,121.41-23.085,121.41-24.12Zm6.345-8.01c-.36,0-.5.4-.585.72a33.772,33.772,0,0,1-3.465,7.56,1.652,1.652,0,0,0-.4.9c0,.765,2.475,1.71,3.1,1.71.5,0,.72-.45.945-.81a51.889,51.889,0,0,0,3.465-7.11.944.944,0,0,1,.585-.585c.225-.045.765-.135.765-.5,0-.45-.585-.675-.9-.765C130.635-31.185,128.16-32.13,127.755-32.13ZM113.805-23a28.025,28.025,0,0,0-1.26-4.1c-.855-2.385-1.3-3.285-1.98-3.285-.4,0-2.88.63-2.88,1.62a2.222,2.222,0,0,0,.225.72c.495,1.08,1.215,2.88,1.575,4,.585,1.935.63,2.52,1.44,2.52C111.33-21.51,113.805-22.005,113.805-23Zm17.91-10.935c0-.4-.54-.99-.765-1.26-.27-.315-.495-.675-.765-1.035-.585-.81-1.125-1.575-1.575-1.575a1.669,1.669,0,0,0-.63.18C123.3-36,113.9-35.235,108.855-35.19c-.945,0-1.8-.09-1.8.81a6.771,6.771,0,0,0,.5,2.295c.27.54.45.945,1.26.945a91.232,91.232,0,0,0,20.34-2.565,5.072,5.072,0,0,1,.81-.135,1.886,1.886,0,0,1,.675.18,2.233,2.233,0,0,0,.585.135A.454.454,0,0,0,131.715-33.93Zm-5.085,20.7c1.575,0,3.195.09,4.545.09,1.08,0,1.035-.54,1.035-2.2,0-1.575.045-2.115-1.035-2.115-1.53,0-3.015.09-4.545.09H121.9c-.855,0-1.26-.315-1.26-1.215v-.45c0-.72.045-1.17.54-1.53.315-.225.63-.36.63-.63,0-.495-.765-.54-1.125-.585-.855-.09-3.015-.27-3.78-.27-.4,0-.81.09-.81.585,0,.135.045.27.045.405a15.5,15.5,0,0,1,.135,2.475c-.045.9-.36,1.215-1.26,1.215h-3.2c-1.35,0-2.655,0-4-.09-.675-.045-.945-.315-1.035-1.035-.09-.5-.135-1.53-.855-1.53a21.87,21.87,0,0,0-2.565,1.035,1.059,1.059,0,0,1-.36.09c-.54,0-.675-.4-.72-.855v-4.32c0-.855.27-1.17,1.125-1.26.4,0,2.07.09,2.34.09.945,0,.9-.585.9-2.25,0-1.53.045-2.115-.9-2.115-.09,0-2.07.045-2.34.09-.855-.09-1.125-.45-1.125-1.26v-3.06c0-1.26.045-1.845.495-2.115.315-.225.63-.36.63-.72,0-.54-.72-.585-1.125-.63-.855-.045-2.97-.18-3.69-.18-.5,0-.9.045-.9.63,0,.135.045.315.045.4a30.512,30.512,0,0,1,.135,3.51v2.16c0,.855-.36,1.26-1.26,1.26-.99.045-2.115-.09-2.835-.09-1.035,0-.945.675-.945,2.205,0,1.485-.09,2.16.945,2.16.81,0,1.89-.135,2.835-.09.9,0,1.26.36,1.26,1.26v5.9a1.365,1.365,0,0,1-1.125,1.575,38.51,38.51,0,0,1-3.735,1.035c-.5.135-1.215.18-1.215.72,0,.36.765,2.835.9,3.33.27.855.405,1.62.99,1.62.45,0,.585-.54.72-.9.135-.405.315-.45,1.3-.81a3.828,3.828,0,0,1,1.4-.405c.54,0,.765.405.765.9v6.21c0,2.205.09,2.925-1.845,2.925-.63,0-1.26-.09-1.845-.09-.81,0-1.035.45-1.035,1.17,0,3.735,1.35,3.6,2.52,3.6,5.085,0,6.66-1.26,6.66-4.905,0-.945-.045-1.935-.045-2.88v-7.83a1.538,1.538,0,0,1,1.08-1.71c.63-.315,1.305-.585,1.935-.9a1.059,1.059,0,0,1,.36-.09c.36,0,.54.315.585.63,0,1.3-.045,1.845,1.08,1.845,1.26,0,2.925-.09,4.5-.09h.315c.36,0,.72.135.72.585a.726.726,0,0,1-.135.4,40.973,40.973,0,0,1-8.6,9.045c-.27.225-.675.5-.675.9,0,.81,1.8,3.015,2.565,3.015.45,0,.99-.5,1.3-.765a43.583,43.583,0,0,0,8.325-9.18.34.34,0,0,1,.315-.18c.225,0,.315.18.315.405v5.445c0,1.71-.09,3.375-.09,5.085,0,1.4.5,1.44,2.34,1.44,1.755,0,2.205-.045,2.205-1.44,0-1.71-.09-3.375-.09-5.085V-8.82c0-.225.09-.45.315-.45a.468.468,0,0,1,.36.18,59.455,59.455,0,0,0,6.21,7.605c.45.45,1.665,1.8,2.295,1.8.765,0,2.835-1.89,2.835-2.745,0-.4-.4-.72-.675-.945a62.269,62.269,0,0,1-8.01-8.865.868.868,0,0,1-.135-.45c0-.4.36-.54.675-.54Zm33.255-6.975a1.288,1.288,0,0,1,1.26-1.26h7.92a1.193,1.193,0,0,1,1.215,1.26v3.51a1.193,1.193,0,0,1-1.215,1.26h-7.92a1.288,1.288,0,0,1-1.26-1.26Zm-5.9-1.26c.9,0,1.26.36,1.26,1.26v3.51c0,.9-.36,1.26-1.26,1.26h-6.525c-.855,0-1.17-.36-1.215-1.215.045-.99.045-2.025.045-3.015v-.54c0-.9.36-1.26,1.26-1.26Zm7.155-4.185a1.288,1.288,0,0,1-1.26-1.26v-3.42a1.258,1.258,0,0,1,1.26-1.26h7.92c.765.09,1.215.45,1.215,1.26v3.42a1.193,1.193,0,0,1-1.215,1.26Zm-5.9-1.26a1.258,1.258,0,0,1-1.26,1.26h-6.435a1.288,1.288,0,0,1-1.26-1.26v-3.42a1.258,1.258,0,0,1,1.26-1.26h6.435a1.23,1.23,0,0,1,1.26,1.26ZM153.99-11.3c.9,0,1.26.36,1.26,1.215v3.915c0,2.205-.09,4.41-.09,6.615,0,1.4.495,1.44,2.43,1.44s2.43-.045,2.43-1.44c0-2.205-.135-4.41-.135-6.615V-10.08c0-.855.36-1.215,1.26-1.215h7.92c.855,0,1.215.36,1.215,1.215v5.445c0,2.25-.09,2.7-2.25,2.7-.72,0-1.4-.09-2.115-.09-.81,0-.99.45-.99,1.17,0,3.735,1.8,3.6,2.61,3.6,1.89,0,4.365-.045,5.94-1.215,1.35-1.035,1.53-2.7,1.53-4.275,0-1.125-.09-2.295-.09-3.42V-29.43c0-1.44.045-2.835.045-4.275,0-1.845-.72-2.34-2.52-2.34-1.26,0-2.565.09-3.87.09H148.005c-1.305,0-2.565-.09-3.87-.09-1.8,0-2.52.54-2.52,2.34,0,1.44.09,2.835.09,4.275v9.5c0,7.11-.27,13.14-4.32,19.305a1.479,1.479,0,0,0-.315.72c0,.9,2.34,2.565,3.15,2.565.675,0,1.125-.63,1.485-1.125a26.968,26.968,0,0,0,4.05-11.655c.135-.9.54-1.17,1.395-1.17ZM64.035,39.19a1,1,0,0,1,1.035,1.08v.09a1,1,0,0,1-1.035,1.08h-5.4a1.016,1.016,0,0,1-1.08-1.08v-.09a1.016,1.016,0,0,1,1.08-1.08Zm.18-5.175a.781.781,0,0,1,.855.855v.495a.781.781,0,0,1-.855.855h-5.8a.781.781,0,0,1-.855-.855V34.87a.781.781,0,0,1,.855-.855Zm-.18-5.22a1,1,0,0,1,1.035,1.08v.135a1,1,0,0,1-1.035,1.08h-5.4a1.016,1.016,0,0,1-1.08-1.08v-.135a1.016,1.016,0,0,1,1.08-1.08Zm5.535,1.08c0-.765.315-1.08,1.035-1.08H76.86c1.71,0,3.375.09,5.085.09,1.035,0,1.08-.315,1.08-1.575,0-1.3-.045-1.62-1.08-1.62-1.71,0-3.375.09-5.085.09h-5.4c-.4-.045-.72-.18-.72-.63a.669.669,0,0,1,.09-.4c.225-.36.765-1.44.945-1.71a1.045,1.045,0,0,1,.855-.4c.225-.045.54-.09.54-.5,0-.45-.765-.675-1.125-.765a28.734,28.734,0,0,0-3.78-1.08.584.584,0,0,0-.54.45,40.447,40.447,0,0,1-1.71,4.05,1.692,1.692,0,0,1-1.8.99H59.76c-.36-.045-.72-.135-.72-.585a.76.76,0,0,1,.135-.45c.315-.5.54-.9.72-1.215.495-.855.585-1.035,1.26-1.215.27-.045.585-.225.585-.54,0-.4-.45-.54-1.395-.81a23.13,23.13,0,0,0-3.285-.81c-.36,0-.5.315-.63.585a39.513,39.513,0,0,1-8.19,11.2c-.225.18-.72.63-.72.945,0,.72,1.755,2.7,2.43,2.7.63,0,1.935-1.485,2.385-1.98a.67.67,0,0,1,.405-.18c.315,0,.4.27.4.54v5.67c0,1.035-.045,2.07-.045,3.1,0,1.62.945,1.8,2.34,1.8,1.17,0,2.34-.045,3.465-.045H63.72c.765,0,.945.36,1.08,1.08,0,.18.045.315.045.495,0,.855-.36,1.17-1.17,1.17H53.82c-1.755,0-3.555-.09-5.355-.09-1.035,0-1.035.4-1.035,1.89s0,1.89,1.035,1.89c1.8,0,3.6-.09,5.355-.09h5.67c.18.045.45.09.45.36a.4.4,0,0,1-.225.36,46.544,46.544,0,0,1-10.98,5,1.391,1.391,0,0,1-.36.09c-.63.225-1.035.315-1.035.855,0,.72,1.35,2.925,2.34,2.925a9.146,9.146,0,0,0,2.565-.72,44.128,44.128,0,0,0,11.745-6.7.76.76,0,0,1,.45-.135c.36,0,.45.315.495.63v2.16c0,1.305-.09,2.61-.09,3.87,0,1.485.675,1.44,2.43,1.44,1.71,0,2.34,0,2.34-1.44,0-1.305-.135-2.565-.135-3.87V53.41c.045-.315.135-.63.495-.63a.67.67,0,0,1,.405.18,44.571,44.571,0,0,0,7.6,5.04c1.125.63,5.265,2.655,6.3,2.655,1.17,0,2.61-2.34,2.61-3.06,0-.405-.36-.54-.675-.63a46.088,46.088,0,0,1-11.7-5.4.371.371,0,0,1-.225-.36c0-.27.27-.315.45-.36h5.94c1.8,0,3.6.09,5.355.09,1.08,0,1.08-.405,1.08-1.89,0-1.44,0-1.89-1.08-1.89-1.755,0-3.555.09-5.355.09H70.47c-.4,0-.855-.135-.855-.63a.928.928,0,0,1,.45-.765c.36-.225.63-.36.63-.63,0-.36-.315-.54-1.17-.585a.1.1,0,0,1-.09-.09c0-.045.045-.045.09-.045h9.54c1.755,0,3.465.045,5.175.045.99,0,1.035-.315,1.035-1.575,0-1.305-.045-1.62-1.08-1.62-1.71,0-3.42.09-5.13.09H70.6c-.72,0-1.035-.315-1.035-1.08v-.09c0-.765.315-1.08,1.035-1.08h4.32c1.665,0,3.285.09,4.95.09,1.08,0,1.08-.36,1.08-1.575,0-1.26-.045-1.575-1.08-1.575-1.665,0-3.285.09-4.95.09H70.38c-.585,0-.81-.225-.81-.855V34.87c0-.63.225-.855.855-.855H74.97c1.62,0,3.24.09,4.9.09,1.035,0,1.08-.27,1.08-1.575,0-1.26-.045-1.53-1.08-1.53-1.665,0-3.285.09-4.9.09H70.6c-.72,0-1.035-.315-1.035-1.08Zm44.1-4.41a1.04,1.04,0,0,1,1.08,1.08v.45a1.04,1.04,0,0,1-1.08,1.08h-2.43a1.04,1.04,0,0,1-1.08-1.08v-.45a1.04,1.04,0,0,1,1.08-1.08Zm-7.65,8.91a1.288,1.288,0,0,1-1.26,1.26H102.6a1.288,1.288,0,0,1-1.26-1.26V32.89a1.258,1.258,0,0,1,1.26-1.26h2.16a1.258,1.258,0,0,1,1.26,1.26Zm8.73,0a1.288,1.288,0,0,1-1.26,1.26h-2.07a1.288,1.288,0,0,1-1.26-1.26V32.89a1.258,1.258,0,0,1,1.26-1.26h2.07a1.258,1.258,0,0,1,1.26,1.26Zm9.09,0a1.193,1.193,0,0,1-1.215,1.26h-2.43c-.81-.09-1.26-.5-1.26-1.26V32.89a1.23,1.23,0,0,1,1.26-1.26h2.43c.765.09,1.215.45,1.215,1.26ZM113.355,51.2c-1.89-.54-3.78-1.08-5.67-1.575-.315-.135-.63-.27-.63-.675a.745.745,0,0,1,.225-.54,10.211,10.211,0,0,1,.81-1.125,1.621,1.621,0,0,1,1.575-.765h7.29c.4.045.855.18.855.675a.726.726,0,0,1-.135.4,14.42,14.42,0,0,1-2.34,3.1,1.674,1.674,0,0,1-1.26.585A4.487,4.487,0,0,1,113.355,51.2Zm-1.35-9.4c.135-.18.225-.36.315-.495.315-.5.4-.63.945-.72.315-.045.9-.135.9-.54s-.5-.63-.81-.72a.1.1,0,0,1-.09-.09c0-.045.09-.09.135-.09h9.54a1.732,1.732,0,0,1,1.08.765,2.816,2.816,0,0,0,1.62.315H126c1.665,0,2.205,0,2.205-1.17,0-.81-.09-1.62-.09-2.43V32.71c0-.945.09-1.89.09-2.835,0-1.62-1.035-1.845-2.385-1.845-1.305,0-2.61.045-3.87.045h-1.98c-.72,0-1.035-.315-1.035-1.08v-.45c0-.765.315-1.08,1.035-1.08h5.445c1.8,0,3.555.09,5.355.09.99,0,.945-.5.945-1.845s.045-1.89-.945-1.89c-1.8,0-3.555.09-5.355.09H99.855c-1.8,0-3.6-.09-5.355-.09-.945,0-.945.495-.945,1.89,0,1.35-.045,1.845.945,1.845,1.755,0,3.555-.09,5.355-.09h5.085c.765,0,1.08.315,1.08,1.08v.45c0,.765-.315,1.08-1.08,1.08h-1.665c-1.305,0-2.655-.045-3.96-.045-1.35,0-2.385.225-2.385,1.8,0,.9.09,1.8.09,2.88v3.915c0,.855-.135,1.665-.135,2.52,0,1.125.765,1.08,2.295,1.08h.63a2.29,2.29,0,0,0,1.44-.315c.27-.315.54-.72,1.035-.765h4.86c.4.045.765.18.765.63a.628.628,0,0,1-.135.405c-.36.54-.72,1.125-1.08,1.665a1.784,1.784,0,0,1-1.845.945H98.6c-1.62,0-3.195-.09-4.815-.09-1.08,0-1.035.45-1.035,1.98,0,1.44-.045,1.935,1.035,1.935,1.62,0,3.195-.09,4.815-.09h3.465c.36.045.675.135.675.54a.628.628,0,0,1-.135.405c-1.125,1.44-2.25,2.79-3.465,4.095-.27.27-.765.72-.765,1.125,0,.945,2.88,1.665,3.42,1.665.585,0,1.035-.585,1.44-.99a1.641,1.641,0,0,1,1.305-.675,3.1,3.1,0,0,1,.585.09l3.78,1.08a.382.382,0,0,1,.315.36.456.456,0,0,1-.27.4A44.041,44.041,0,0,1,97.11,56.6c-1.845.09-2.25-.045-2.25.945a6.4,6.4,0,0,0,.585,2.25c.315.765.63,1.08,1.485,1.08.54,0,1.215-.09,1.755-.135,4.86-.45,11.34-1.8,15.525-4.23a2.082,2.082,0,0,1,1.125-.36,2.905,2.905,0,0,1,.855.18c3.285,1.26,6.57,2.655,9.72,4.23a5.458,5.458,0,0,0,1.35.5c1.215,0,2.2-2.16,2.2-3.195,0-.585-.45-.81-1.395-1.26-2.61-1.305-5.355-2.25-8.055-3.285a.719.719,0,0,1-.585-.675,1,1,0,0,1,.27-.585A25.513,25.513,0,0,0,121.95,49a1.251,1.251,0,0,1,.54-.54l.495-.135c.315-.09.765-.18.765-.585,0-.45-.765-.675-1.26-.9a.2.2,0,0,1-.135-.135c0-.135.09-.18.225-.18H126.5c1.62,0,3.195.09,4.815.09,1.08,0,1.035-.45,1.035-1.935,0-1.53.045-1.98-1.035-1.98-1.62,0-3.195.09-4.815.09h-13.95c-.36-.045-.675-.135-.675-.585A.726.726,0,0,1,112.005,41.8ZM162.99,55.84c0-.315-.5-.855-.72-1.08a1.435,1.435,0,0,0-.27-.315c-.54-.63-1.53-1.8-2.025-1.8a1.057,1.057,0,0,0-.63.315c-1.44,1.305-7.02,3.465-9.045,4.05-.315.09-.72.18-.72.675,0,.54,1.26,3.015,2.25,3.015,1.575,0,7.695-3.1,9.18-4.1a2.281,2.281,0,0,1,.81-.4h.315a.766.766,0,0,0,.315.045C162.72,56.245,162.99,56.11,162.99,55.84Zm15.12,2.025c0-.36-.36-.5-.675-.63a33.44,33.44,0,0,1-7.29-4.14,1.584,1.584,0,0,0-.855-.45c-.9,0-2.52,2.16-2.52,2.655,0,1.08,7.785,5.58,8.865,5.58C176.625,60.88,178.11,58.765,178.11,57.865ZM159.84,46.7a1.193,1.193,0,0,1,1.215-1.26h8.01a1.193,1.193,0,0,1,1.215,1.26v.45a1.113,1.113,0,0,1-1.215,1.215h-8.01a1.113,1.113,0,0,1-1.215-1.215Zm0-6.165a1,1,0,0,1,1.035-1.08h8.37a1,1,0,0,1,1.035,1.08v.495a1,1,0,0,1-1.035,1.08h-8.37a1,1,0,0,1-1.035-1.08Zm9.4-7.245a1,1,0,0,1,1.035,1.08V35a1,1,0,0,1-1.035,1.08h-8.37A1,1,0,0,1,159.84,35v-.63a1,1,0,0,1,1.035-1.08Zm-2.925-3.87c-.36-.045-.765-.18-.765-.675a.726.726,0,0,1,.135-.405c.225-.495.495-.945.72-1.4a1.581,1.581,0,0,1,1.71-1.035h3.42c1.62,0,3.24.09,4.86.09.99,0,.99-.5.99-2.07s.045-2.115-.99-2.115c-1.62,0-3.24.09-4.86.09H159.12c-1.62,0-3.24-.09-4.86-.09-1.035,0-.99.54-.99,2.115s-.045,2.07.99,2.07c1.62,0,3.24-.09,4.86-.09h1.71c.4,0,.81.135.81.63a.76.76,0,0,1-.135.45c-.27.495-.54.99-.81,1.44a1.663,1.663,0,0,1-1.755.945c-.54,0-1.08-.045-1.665-.045-1.485,0-2.115.45-2.115,2.025,0,1.125.045,2.2.045,3.33V46.975c0,1.125-.045,2.25-.045,3.375,0,1.575.675,1.98,2.16,1.98,1.08,0,2.16-.045,3.24-.045h9c1.125,0,2.205.045,3.285.045,1.485,0,2.115-.45,2.115-1.98,0-1.125-.045-2.25-.045-3.375V34.69c0-1.125.045-2.25.045-3.375,0-1.575-.675-1.98-2.16-1.98-1.08,0-2.16.09-3.24.09Zm-18.5,3.735c0-.9.36-1.215,1.215-1.26,1.17.045,2.385.09,3.555.09.99,0,.945-.54.945-2.115s.09-2.205-.945-2.205c-1.4,0-2.745.09-4.1.09h-5.715c-1.4,0-2.79-.09-4.1-.09-1.035,0-.99.585-.99,2.205,0,1.575-.045,2.115.99,2.115,1.215,0,2.43-.135,3.645-.09.855,0,1.215.405,1.215,1.26V45.445c0,.9-.225,1.305-1.08,1.575-1.35.45-2.34.675-3.1.855-1.845.495-2.25.585-2.25,1.08a5.1,5.1,0,0,0,.4,1.26c.18.45.36.9.495,1.26.45,1.17.675,1.755,1.17,1.755.315,0,.45-.225.54-.495.18-.54.27-.54.99-.765a127.937,127.937,0,0,0,12.06-4.275,1.477,1.477,0,0,0,1.125-1.62c0-.585-.09-2.61-.9-2.61-.18,0-2.25.765-3.375,1.215-.27.09-.54.18-.63.225a1.314,1.314,0,0,1-.4.09c-.54,0-.72-.45-.765-.945Z" transform="translate(37 136)" fill="#396cae"/>
    <path id="パス_1323" data-name="パス 1323" d="M30.375,35.995a.71.71,0,0,1,.72.72v.315a.74.74,0,0,1-.72.72H14.445c-.45-.045-.72-.27-.72-.72v-.315a.662.662,0,0,1,.72-.72Zm.72-3.285a.71.71,0,0,1-.72.72H14.445a.662.662,0,0,1-.72-.72v-.225a.651.651,0,0,1,.72-.675h15.93a.7.7,0,0,1,.72.675ZM25.11,26.5c.81,0,1.17.315,1.17,1.17v.315c0,.585-.225.9-.855.9H19.17c-.5-.045-.585-.315-.585-.765a1.688,1.688,0,0,0-.045-.45c.045-.855.36-1.17,1.215-1.17Zm4.14,22.455C28.215,49,27.225,49,26.19,49h-1.8c-.54,0-.99-.09-.99-.72a.6.6,0,0,1,.405-.63c.27-.135.585-.315.585-.63,0-.405-.45-.405-1.035-.45-.765-.09-2.925-.27-3.6-.27-.54,0-.675.225-.675.675,0,.315.045.585.045.855,0,.9-.495,1.17-1.26,1.17H15.12c-.36-.045-.495-.225-.495-.4s.09-.27.225-.405c.63-.54,1.26-1.08,1.845-1.62a2.371,2.371,0,0,1,1.98-.765H26.01a2.2,2.2,0,0,1,1.98.765c.54.54,1.035,1.08,1.575,1.575.09.135.18.225.18.36C29.745,48.82,29.475,48.91,29.25,48.955ZM17.55,53.59c-1.755,1.935-4.905,3.015-7.47,3.375-.585.09-1.17.135-1.17.765s1.035,3.15,2.2,3.15a17.526,17.526,0,0,0,4.1-1.17A12.284,12.284,0,0,0,22.1,53.68a1.583,1.583,0,0,1,1.71-1.08h2.7c1.44,0,1.935-.045,1.935.81a8.52,8.52,0,0,1-.4,2.34c-.45,1.35-1.125,1.485-2.43,1.485-.765,0-1.485-.09-2.25-.09-.81,0-.945.495-.945,1.215a5.108,5.108,0,0,0,.54,2.16c.36.63,1.395.63,2.3.63,5.625,0,6.885-.9,7.695-9.045.09-.315.225-.675.63-.675a.76.76,0,0,1,.45.135c1.08.675,5.175,3.24,6.255,3.24.855,0,2.34-2.43,2.34-3.015,0-.45-.495-.63-.855-.765a38.665,38.665,0,0,1-8.28-4.455.489.489,0,0,1-.18-.4c0-.27.27-.36.5-.36H35.91c1.8,0,3.6.09,5.4.09,1.035,0,1.035-.4,1.035-1.8,0-1.35,0-1.71-1.035-1.71-1.8,0-3.6.09-5.4.09H20.97c-.225-.045-.405-.09-.405-.315a.344.344,0,0,1,.09-.225,1.316,1.316,0,0,1,.54-.315c.27,0,.63-.09.63-.405s-.45-.45-.675-.54c-.09-.045-.045-.135.045-.135h8.73c1.215,0,2.385.09,3.555.09,1.215,0,2.07-.27,2.07-1.665,0-.72-.045-1.44-.045-2.34V32.8c0-.855.045-1.62.045-2.34,0-1.44-.945-1.665-2.16-1.665-.405,0-.81.045-1.215.045-.855.045-1.305-.225-1.305-1.125,0-.855.36-1.215,1.17-1.215h3.915c1.755,0,3.555.09,5.31.09,1.035,0,1.035-.405,1.035-1.8s.045-1.8-1.035-1.8c-1.755,0-3.555.09-5.31.09h-4.23c-.405-.045-.81-.09-.9-.585a1.876,1.876,0,0,1,.09-.27l.045-.09c.09-.18.18-.225.36-.36.225-.135.495-.27.495-.495,0-.405-.495-.45-.765-.495-.855-.045-3.375-.27-4.14-.27-.36,0-.72.045-.72.5a.877.877,0,0,0,.045.36,3.406,3.406,0,0,1,.045.675c.045.72-.27,1.035-.99,1.035H19.485c-.45-.045-.855-.09-.945-.585,0-.135.045-.18.045-.27l.045-.09a.794.794,0,0,1,.4-.36c.315-.225.45-.315.45-.54,0-.45-.72-.45-1.035-.495-.855-.09-3.06-.27-3.825-.27-.36,0-.72.045-.72.54,0,.09.09.855.09,1.08,0,.72-.315.99-.99.99H8.955c-1.755,0-3.51-.09-5.31-.09-1.035,0-1.035.4-1.035,1.8s0,1.8,1.035,1.8c1.8,0,3.555-.09,5.31-.09H12.96c.72,0,1.035.27,1.035.99-.045.72,0,1.35-.9,1.35H12.87c-.54,0-1.035-.045-1.53-.045-1.26,0-2.115.27-2.115,1.71,0,.765.09,1.53.09,2.3v3.825c0,.765-.09,1.53-.09,2.295,0,1.485.9,1.71,2.16,1.71,1.17,0,2.3-.09,3.465-.09h.585c.315.045.675.135.675.585a.6.6,0,0,1-.135.36c-.09.135-.225.27-.315.4a1.4,1.4,0,0,1-1.305.585H9.045c-1.8,0-3.6-.09-5.4-.09-1.08,0-1.08.36-1.08,1.71,0,1.395,0,1.8,1.035,1.8,1.8,0,3.6-.09,5.445-.09h1.44c.18,0,.45.09.45.36a.365.365,0,0,1-.18.36,29.849,29.849,0,0,1-7.245,3.96c-.36.135-1.08.36-1.08.855,0,.765,1.305,3.06,2.115,3.06,1.035,0,5-2.385,6.03-3.06.09-.045.135-.09.225-.09.225,0,.315.225.315.4.045.72.18,1.035.99,1.035,1.44,0,2.88-.09,4.32-.09h.54c.36,0,.765.135.765.585A.67.67,0,0,1,17.55,53.59Z" transform="translate(37 136)" fill="#ff1901"/>
  </g>
</svg>
