<svg xmlns="http://www.w3.org/2000/svg" width="25.995" height="37.792" viewBox="0 0 25.995 37.792">
  <g id="パス_115" data-name="パス 115" transform="translate(-3080.001 -4472)" fill="#5caac7">
    <path d="M 3093.023193359375 4508.16748046875 L 3092.2197265625 4507.169921875 C 3086.3076171875 4499.82861328125 3081.000732421875 4492.60888671875 3081.000732421875 4484.9990234375 C 3081.000732421875 4481.7939453125 3082.248779296875 4478.78076171875 3084.514892578125 4476.5146484375 C 3086.781005859375 4474.248046875 3089.7939453125 4473 3092.99853515625 4473 C 3096.203125 4473 3099.216064453125 4474.248046875 3101.482177734375 4476.5146484375 C 3103.748046875 4478.78076171875 3104.99609375 4481.7939453125 3104.99609375 4484.9990234375 C 3104.99609375 4492.34423828125 3099.4296875 4499.7001953125 3094.046630859375 4506.814453125 L 3093.796142578125 4507.14599609375 L 3093.023193359375 4508.16748046875 Z M 3092.95263671875 4480.31982421875 C 3090.348388671875 4480.31982421875 3088.2294921875 4482.4384765625 3088.2294921875 4485.04296875 C 3088.2294921875 4487.64794921875 3090.348388671875 4489.76708984375 3092.95263671875 4489.76708984375 C 3095.558349609375 4489.76708984375 3097.67822265625 4487.64794921875 3097.67822265625 4485.04296875 C 3097.67822265625 4482.4384765625 3095.558349609375 4480.31982421875 3092.95263671875 4480.31982421875 Z" stroke="none"/>
    <path d="M 3092.99853515625 4474 C 3086.9248046875 4474 3082.000732421875 4478.9248046875 3082.000732421875 4484.9990234375 C 3082.000732421875 4492.39013671875 3087.409423828125 4499.6025390625 3092.99853515625 4506.54248046875 C 3098.31640625 4499.5126953125 3103.99609375 4492.1201171875 3103.99609375 4484.9990234375 C 3103.99609375 4478.9248046875 3099.072265625 4474 3092.99853515625 4474 M 3092.95263671875 4490.76708984375 C 3089.79248046875 4490.76708984375 3087.2294921875 4488.20556640625 3087.2294921875 4485.04296875 C 3087.2294921875 4481.88134765625 3089.79248046875 4479.31982421875 3092.95263671875 4479.31982421875 C 3096.114501953125 4479.31982421875 3098.67822265625 4481.88134765625 3098.67822265625 4485.04296875 C 3098.67822265625 4488.20556640625 3096.114501953125 4490.76708984375 3092.95263671875 4490.76708984375 M 3092.99853515625 4472 C 3096.47021484375 4472 3099.734375 4473.35205078125 3102.189208984375 4475.8076171875 C 3104.64404296875 4478.2626953125 3105.99609375 4481.52685546875 3105.99609375 4484.9990234375 C 3105.99609375 4488.494140625 3104.795654296875 4492.296875 3102.326416015625 4496.62548828125 C 3100.23095703125 4500.298828125 3097.492431640625 4503.91796875 3094.843994140625 4507.41796875 L 3093.0478515625 4509.79248046875 L 3091.44091796875 4507.796875 C 3085.412109375 4500.31103515625 3080.000732421875 4492.9345703125 3080.000732421875 4484.9990234375 C 3080.000732421875 4481.52685546875 3081.352783203125 4478.2626953125 3083.8076171875 4475.8076171875 C 3086.2626953125 4473.35205078125 3089.52685546875 4472 3092.99853515625 4472 Z M 3092.95263671875 4488.76708984375 C 3095.0068359375 4488.76708984375 3096.67822265625 4487.0966796875 3096.67822265625 4485.04296875 C 3096.67822265625 4482.990234375 3095.0068359375 4481.31982421875 3092.95263671875 4481.31982421875 C 3090.899658203125 4481.31982421875 3089.2294921875 4482.990234375 3089.2294921875 4485.04296875 C 3089.2294921875 4487.0966796875 3090.899658203125 4488.76708984375 3092.95263671875 4488.76708984375 Z" stroke="none" fill="#fff"/>
  </g>
</svg>
