<svg xmlns="http://www.w3.org/2000/svg" width="139.304" height="74.615" viewBox="0 0 139.304 74.615">
  <g id="グループ_95" data-name="グループ 95" transform="translate(-642.383 -3108.385)">
    <g id="長方形_238" data-name="長方形 238" transform="translate(642.383 3108.385)" fill="#002060" stroke="#002060" stroke-width="1">
      <rect width="139.304" height="45.213" stroke="none"/>
      <rect x="0.5" y="0.5" width="138.304" height="44.213" fill="none"/>
    </g>
    <path id="パス_128" data-name="パス 128" d="M12.787-14.706H9.861L4.294-7.98v-6.726H1.767V.038H4.294V-5.111L6.023-7.049,10.317.038h2.907L7.676-8.835Zm4.674,4.313H15.143V.038h2.394V-6.8a3.2,3.2,0,0,1,2.432-1.767c.931,0,1.444.551,1.444,1.748V.038h2.451V-7.486a2.856,2.856,0,0,0-2.983-3.135,4.251,4.251,0,0,0-3.42,2.052Zm20.672-4.313H35.207L29.64-7.98v-6.726H27.113V.038H29.64V-5.111l1.729-1.938L35.663.038H38.57L33.022-8.835Zm19.019,0H54.226L48.659-7.98v-6.726H46.132V.038h2.527V-5.111l1.729-1.938L54.682.038h2.907L52.041-8.835Zm6.46,4.085c-2.831,0-4.731,2.109-4.731,5.491S60.743.3,63.593.3,68.324-1.8,68.324-5.187,66.424-10.621,63.612-10.621Zm0,1.729c1.539,0,2.261,1.33,2.261,3.724,0,2.432-.741,3.743-2.28,3.743s-2.261-1.33-2.261-3.743C61.332-7.562,62.073-8.892,63.612-8.892Zm12.635-1.729c-1.406,0-2.489.741-3.23,2.793v-2.565H70.775V.038h2.356V-5.738c.665-1.824,1.71-2.641,2.964-2.641ZM86.982-4.655v-.494c0-3.534-1.995-5.472-4.655-5.472-2.812,0-4.731,2.109-4.731,5.51C77.6-1.691,79.42.3,82.536.3a4.134,4.134,0,0,0,4.389-3.021l-2.166-.627c-.361,1.368-1.121,1.976-2.2,1.976-1.729,0-2.6-1.311-2.622-3.287ZM79.971-6.232c.114-1.672.95-2.736,2.394-2.736,1.425,0,2.166.988,2.28,2.736Zm11.362-.931a1.987,1.987,0,0,1,2-1.824c1.254,0,1.805.532,1.805,1.843v.589a20.023,20.023,0,0,0-2.983.3c-2.261.437-3.4,1.615-3.4,3.439A2.963,2.963,0,0,0,91.96.285,3.908,3.908,0,0,0,95.247-1.33c.057.608.1.912.171,1.368h2.2a27.666,27.666,0,0,1-.171-3.078V-7.182c0-2.318-1.349-3.458-4.047-3.458-2.261,0-3.781.988-4.313,2.869Zm3.8,4.028A2.844,2.844,0,0,1,92.7-1.425,1.478,1.478,0,0,1,91.029-3c0-.931.589-1.5,1.71-1.767a10.852,10.852,0,0,1,2.394-.3Z" transform="translate(661.322 3137.604)" fill="#fff"/>
    <path id="多角形_1" data-name="多角形 1" d="M4,0,8,31H0Z" transform="translate(716 3183) rotate(180)" fill="#002060"/>
  </g>
</svg>
