<svg xmlns="http://www.w3.org/2000/svg" width="234.666" height="45.213" viewBox="0 0 234.666 45.213">
  <g id="グループ_97" data-name="グループ 97" transform="translate(-373.5 -3464.236)">
    <path id="多角形_6" data-name="多角形 6" d="M6.375,0,12.75,52.594H0Z" transform="translate(373.5 3492.11) rotate(-90)" fill="#002060"/>
    <g id="長方形_241" data-name="長方形 241" transform="translate(426.094 3464.236)" fill="#002060" stroke="#002060" stroke-width="1">
      <rect width="182.072" height="45.213" stroke="none"/>
      <rect x="0.5" y="0.5" width="181.072" height="44.213" fill="none"/>
    </g>
    <path id="パス_125" data-name="パス 125" d="M12.787-14.706H9.861L4.294-7.98v-6.726H1.767V.038H4.294V-5.111L6.023-7.049,10.317.038h2.907L7.676-8.835Zm4.674,4.313H15.143V.038h2.394V-6.8a3.2,3.2,0,0,1,2.432-1.767c.931,0,1.444.551,1.444,1.748V.038h2.451V-7.486a2.856,2.856,0,0,0-2.983-3.135,4.251,4.251,0,0,0-3.42,2.052Zm20.672-4.313H35.207L29.64-7.98v-6.726H27.113V.038H29.64V-5.111l1.729-1.938L35.663.038H38.57L33.022-8.835Zm18.829,0H54.435L52.5-7.7c-.532,1.9-.95,3.61-1.368,5.377h-.266c-.456-1.8-.836-3.534-1.387-5.453l-1.919-6.935H44.8L49.267.038h3.192Zm4.351,4.313H58.919V.038h2.394Zm.095-4.313H58.824v2.451h2.584ZM73.131-4.655v-.494c0-3.534-1.995-5.472-4.655-5.472-2.812,0-4.731,2.109-4.731,5.51,0,3.42,1.824,5.415,4.94,5.415a4.134,4.134,0,0,0,4.389-3.021l-2.166-.627c-.361,1.368-1.121,1.976-2.2,1.976-1.729,0-2.6-1.311-2.622-3.287ZM66.12-6.232c.114-1.672.95-2.736,2.394-2.736,1.425,0,2.166.988,2.28,2.736Zm12.274-7.562-2.356.532v2.869H74.48v1.748h1.558v6.156c0,1.919.931,2.774,2.907,2.774A12.554,12.554,0,0,0,80.807.171l.1-1.71a5.474,5.474,0,0,1-1.216.114c-.874,0-1.292-.456-1.292-1.5V-8.645h2.337v-1.748H78.394Zm6.688,3.4H82.764V.038h2.394V-6.8A3.2,3.2,0,0,1,87.59-8.569c.931,0,1.444.551,1.444,1.748V.038h2.451V-7.486A2.856,2.856,0,0,0,88.5-10.621a4.251,4.251,0,0,0-3.42,2.052Zm11.362,3.23a1.987,1.987,0,0,1,2-1.824c1.254,0,1.805.532,1.805,1.843v.589a20.023,20.023,0,0,0-2.983.3c-2.261.437-3.4,1.615-3.4,3.439a2.963,2.963,0,0,0,3.211,3.1,3.908,3.908,0,0,0,3.287-1.615c.057.608.1.912.171,1.368h2.2a27.666,27.666,0,0,1-.171-3.078V-7.182c0-2.318-1.349-3.458-4.047-3.458-2.261,0-3.781.988-4.313,2.869Zm3.8,4.028a2.844,2.844,0,0,1-2.432,1.71A1.478,1.478,0,0,1,96.14-3c0-.931.589-1.5,1.71-1.767a10.852,10.852,0,0,1,2.394-.3Zm7.6-7.258h-2.28V.038h2.356V-6.8a2.868,2.868,0,0,1,2.261-1.767c.836,0,1.292.551,1.292,1.748V.038h2.356V-6.8a2.756,2.756,0,0,1,2.185-1.767c.931,0,1.444.57,1.444,1.748V.038h2.394V-7.486c0-2.014-1.159-3.135-2.85-3.135A4.018,4.018,0,0,0,113.7-8.588a2.473,2.473,0,0,0-2.565-2.033,3.967,3.967,0,0,0-3.287,2.052Z" transform="translate(454.81 3494.066)" fill="#fff"/>
  </g>
</svg>
