<svg xmlns="http://www.w3.org/2000/svg" width="170.626" height="87.425" viewBox="0 0 170.626 87.425">
  <g id="グループ_98" data-name="グループ 98" transform="translate(-792.907 -3255)">
    <g id="長方形_242" data-name="長方形 242" transform="translate(792.907 3297.213)" fill="#002060" stroke="#002060" stroke-width="1">
      <rect width="170.626" height="45.213" stroke="none"/>
      <rect x="0.5" y="0.5" width="169.626" height="44.213" fill="none"/>
    </g>
    <path id="パス_129" data-name="パス 129" d="M12.787-14.706H9.861L4.294-7.98v-6.726H1.767V.038H4.294V-5.111L6.023-7.049,10.317.038h2.907L7.676-8.835Zm4.674,4.313H15.143V.038h2.394V-6.8a3.2,3.2,0,0,1,2.432-1.767c.931,0,1.444.551,1.444,1.748V.038h2.451V-7.486a2.856,2.856,0,0,0-2.983-3.135,4.251,4.251,0,0,0-3.42,2.052Zm20.672-4.313H35.207L29.64-7.98v-6.726H27.113V.038H29.64V-5.111l1.729-1.938L35.663.038H38.57L33.022-8.835Zm9.177,2.489H43.871c-1.824,0-2.451-.038-2.584-.038-.19,0-.209.019-.209.209,0,.114.038.722.038,2.66v1.957c0,3.04-.038,3.61-.038,3.724,0,.209.019.228.209.228H42.9c.19,0,.209-.019.209-.228v-.874h4.2V-2.2c0,2.242-.038,3.363-.038,3.477,0,.19.019.209.209.209h1.691c.19,0,.209-.019.209-.209,0-.1-.038-1.254-.038-3.515V-4.579h4.446v.8c0,.19.019.209.209.209h1.615c.19,0,.209-.019.209-.209,0-.114-.038-.665-.038-3.7v-2.2c0-1.653.038-2.242.038-2.356,0-.19-.019-.209-.209-.209-.133,0-.76.038-2.584.038H49.343v-1.425a4.523,4.523,0,0,1,.152-1.539.865.865,0,0,0,.095-.38c0-.133-.152-.209-.323-.228-.646-.076-1.406-.114-2.109-.133a14.234,14.234,0,0,1,.152,2.432Zm6.479,1.843v3.952H49.343v-3.952Zm-10.678,0h4.2v3.952h-4.2Zm27.873-4.674c-1.064,0-1.577-.038-1.691-.038-.209,0-.228.019-.228.209,0,.133.038,1.406.038,4.009V-2.66c0,2.584-.038,3.838-.038,3.952,0,.19.019.209.228.209h1.52c.19,0,.209-.019.209-.209,0-.1-.038-1.425-.038-3.971v-10.64h2.66a37.139,37.139,0,0,1-1.957,4.978c2.014,1.862,2.451,2.793,2.451,3.99,0,1.121-.855,1.6-2.641,1.558a2.557,2.557,0,0,1,.532,1.254c.1.627.1.627.684.57,2.223-.209,3.344-1.254,3.344-3.23,0-1.558-.38-2.7-2.318-4.446.646-1.368,1.178-2.66,1.729-4.123.171-.437.266-.608.4-.7a.462.462,0,0,0,.171-.342c0-.152-.057-.323-.456-.779-.494-.494-.646-.57-.8-.57a.842.842,0,0,0-.285.057,1.306,1.306,0,0,1-.475.057ZM61.75,1.273c.19,0,.209-.019.209-.19V.133h3.61v.874c0,.209.019.228.209.228h1.463c.209,0,.228-.019.228-.228,0-.114-.038-.589-.038-3.192V-3.762c0-1.216.038-1.748.038-1.862,0-.19-.019-.209-.228-.209-.114,0-.627.038-2.109.038H62.4c-1.482,0-1.976-.038-2.109-.038-.19,0-.209.019-.209.209,0,.133.038.646.038,2.128v1.368c0,2.6-.038,3.078-.038,3.211,0,.171.019.19.209.19Zm.209-5.415h3.61v2.6h-3.61ZM65.8-7.2c1.71,0,2.3.038,2.413.038.19,0,.209-.019.209-.209V-8.74c0-.19-.019-.209-.209-.209-.114,0-.665.038-2.147.038a17.125,17.125,0,0,0,.646-1.748,1.242,1.242,0,0,1,.247-.437.429.429,0,0,0,.152-.3c0-.133-.114-.19-.285-.247a16.044,16.044,0,0,0-1.653-.38,5.527,5.527,0,0,1-.152.95,18.606,18.606,0,0,1-.7,2.166H61.56c-1.729,0-2.318-.038-2.432-.038-.171,0-.19.019-.19.209v1.368c0,.19.019.209.19.209.114,0,.7-.038,2.432-.038Zm-.171-5.111c1.653,0,2.2.038,2.318.038.19,0,.209-.019.209-.209v-1.33c0-.209-.019-.228-.209-.228-.114,0-.665.038-2.318.038h-.969v-.323a2.725,2.725,0,0,1,.076-.912.833.833,0,0,0,.133-.38c0-.076-.114-.152-.3-.171-.646-.057-1.235-.114-1.919-.133a7.329,7.329,0,0,1,.114,1.577V-14H61.9c-1.672,0-2.223-.038-2.337-.038-.19,0-.209.019-.209.228v1.33c0,.19.019.209.209.209.114,0,.665-.038,2.337-.038Zm-3,2.812c.228-.076.266-.076.228-.285a12.312,12.312,0,0,0-.608-2.09c-.076-.19-.133-.209-.361-.152l-1.045.285c-.247.076-.285.076-.209.285a10.527,10.527,0,0,1,.532,2.09c.038.228.057.266.342.19Zm22.629-1.748v2.356H82.308c-1.843,0-2.47-.038-2.584-.038-.19,0-.209.019-.209.209v1.463c0,.19.019.209.209.209.1,0,.589-.019,1.881-.038A13.381,13.381,0,0,0,84.683-2.7a24.153,24.153,0,0,1-6.859,2.28A5.258,5.258,0,0,1,78.6.931c.133.361.19.494.38.494a1.5,1.5,0,0,0,.418-.076,24.074,24.074,0,0,0,6.878-2.793,21.432,21.432,0,0,0,7.2,2.812,2.321,2.321,0,0,0,.418.057c.209,0,.266-.114.4-.494a6.79,6.79,0,0,1,.817-1.52,20.815,20.815,0,0,1-7.068-2.147,17.328,17.328,0,0,0,3.477-4.047,1.551,1.551,0,0,1,.456-.513c.171-.133.266-.19.266-.342,0-.171-.152-.4-.589-.817-.475-.475-.627-.589-.76-.589a.619.619,0,0,0-.247.076,1.536,1.536,0,0,1-.551.076H87.324v-2.356h4.845c1.71,0,2.3.038,2.413.038.19,0,.209-.019.209-.209v-1.5c0-.209-.019-.228-.209-.228-.114,0-.7.038-2.413.038H87.324V-13.6a5.47,5.47,0,0,1,.114-1.5.993.993,0,0,0,.133-.4c0-.1-.133-.19-.3-.209-.665-.076-1.482-.114-2.166-.133a13.553,13.553,0,0,1,.152,2.432v.3h-4.56c-1.71,0-2.3-.038-2.413-.038-.19,0-.209.019-.209.228v1.5c0,.19.019.209.209.209.114,0,.7-.038,2.413-.038Zm3.971,4.161a11.893,11.893,0,0,1-2.812,3.23,10.865,10.865,0,0,1-2.622-3.23Zm14.06,8.455c.19,0,.209-.019.209-.209V.589h6.745v.475c0,.171.019.19.209.19h1.52c.19,0,.209-.019.209-.19,0-.114-.038-.589-.038-3.021V-3.534c0-1.1.038-1.6.038-1.71,0-.19-.019-.209-.209-.209-.114,0-.741.038-2.546.038H107.35V-7.486h3.173c1.786,0,2.413.038,2.527.038.19,0,.209-.019.209-.209V-9.063c0-.19-.019-.209-.209-.209-.114,0-.741.038-2.527.038H107.35v-.114a4.3,4.3,0,0,1,.133-1.463.9.9,0,0,0,.114-.418c0-.1-.133-.171-.323-.19a16.6,16.6,0,0,0-1.938-.133,16.566,16.566,0,0,1,.114,2.3v3.838h-1.1c-1.786,0-2.413-.038-2.527-.038-.19,0-.209.019-.209.209,0,.133.038.608.038,1.976v1.387c0,2.47-.038,2.926-.038,3.04,0,.19.019.209.209.209Zm.209-5.111h6.745v2.6h-6.745Zm-2.869-8.341h10.45c1.805,0,2.413.038,2.546.038.171,0,.19-.019.19-.209v-1.406c0-.19-.019-.209-.19-.209-.133,0-.741.038-2.546.038h-4.1V-14.5a1.8,1.8,0,0,1,.133-.817.626.626,0,0,0,.114-.361c0-.114-.114-.19-.3-.209-.646-.057-1.311-.095-2.014-.114a7.806,7.806,0,0,1,.114,1.539v.627H101.4c-1.805,0-2.451-.038-2.565-.038-.171,0-.19.019-.19.209,0,.114.038,1.2.038,3.591a29.243,29.243,0,0,1-.4,5.681A12.359,12.359,0,0,1,96.729-.247,6.951,6.951,0,0,1,98,.874c.19.19.3.3.38.3.1,0,.171-.133.3-.38a15.106,15.106,0,0,0,1.52-4.37,33.827,33.827,0,0,0,.418-6.118Z" transform="translate(818.956 3327.043)" fill="#fff"/>
    <path id="多角形_2" data-name="多角形 2" d="M4,0,8,44H0Z" transform="translate(863 3255)" fill="#002060"/>
  </g>
</svg>
