<svg xmlns="http://www.w3.org/2000/svg" width="191.32" height="45.213" viewBox="0 0 191.32 45.213">
  <g id="グループ_99" data-name="グループ 99" transform="translate(-917.628 -3227.669)">
    <g id="長方形_243" data-name="長方形 243" transform="translate(982.313 3227.669)" fill="#002060" stroke="#002060" stroke-width="1">
      <rect width="126.635" height="45.213" stroke="none"/>
      <rect x="0.5" y="0.5" width="125.635" height="44.213" fill="none"/>
    </g>
    <path id="パス_130" data-name="パス 130" d="M12.787-14.706H9.861L4.294-7.98v-6.726H1.767V.038H4.294V-5.111L6.023-7.049,10.317.038h2.907L7.676-8.835Zm4.674,4.313H15.143V.038h2.394V-6.8a3.2,3.2,0,0,1,2.432-1.767c.931,0,1.444.551,1.444,1.748V.038h2.451V-7.486a2.856,2.856,0,0,0-2.983-3.135,4.251,4.251,0,0,0-3.42,2.052Zm20.672-4.313H35.207L29.64-7.98v-6.726H27.113V.038H29.64V-5.111l1.729-1.938L35.663.038H38.57L33.022-8.835Zm8.36,4.465a17.75,17.75,0,0,1-6.935,6.935,4.224,4.224,0,0,1,.988,1.273c.152.3.247.418.361.418a.938.938,0,0,0,.437-.228,18.844,18.844,0,0,0,5.985-6.745c0,1.558-.019,3.306-.057,4.921h-.836c-1.672,0-2.223-.038-2.337-.038-.19,0-.209.019-.209.209v1.444c0,.19.019.209.209.209.114,0,.665-.038,2.337-.038h.817C47.215-.266,47.2.969,47.2,1.292c0,.171.019.19.209.19h1.767c.19,0,.209-.019.209-.19,0-.323-.038-1.558-.057-3.173h.95c1.672,0,2.223.038,2.337.038.209,0,.228-.019.228-.209V-3.5c0-.19-.019-.209-.228-.209-.114,0-.665.038-2.337.038h-.988c-.019-1.691-.057-3.553-.057-5.13a18.118,18.118,0,0,0,6.422,6.954.979.979,0,0,0,.4.209c.133,0,.209-.152.361-.456a5.757,5.757,0,0,1,.931-1.368A17.209,17.209,0,0,1,50.1-10.241h3.933c1.729,0,2.337.038,2.451.038.19,0,.209-.019.209-.209v-1.52c0-.19-.019-.209-.209-.209-.114,0-.722.038-2.451.038H49.305v-1.33a7.326,7.326,0,0,1,.1-1.6,2.082,2.082,0,0,0,.114-.494c0-.1-.114-.171-.285-.19-.665-.076-1.406-.114-2.09-.133a15.29,15.29,0,0,1,.133,2.47V-12.1H42.845c-1.729,0-2.318-.038-2.432-.038-.19,0-.209.019-.209.209v1.52c0,.19.019.209.209.209.114,0,.7-.038,2.432-.038ZM73.378.8c1.805,0,2.413.038,2.527.038.209,0,.228-.019.228-.209v-1.5c0-.19-.019-.209-.228-.209-.114,0-.722.038-2.527.038H71.649V-8.151h1.2c1.691,0,2.28.019,2.394.019.19,0,.209,0,.209-.19v-1.5c0-.19-.019-.19-.209-.19-.114,0-.7.019-2.394.019h-1.2v-3.078a6.2,6.2,0,0,1,.152-2.09.772.772,0,0,0,.1-.4c0-.1-.133-.171-.3-.19-.665-.076-1.387-.114-2.109-.133a17.192,17.192,0,0,1,.152,2.869v3.021H68.78c-1.691,0-2.28-.019-2.394-.019-.171,0-.19,0-.19.19v1.5c0,.19.019.19.19.19.114,0,.7-.019,2.394-.019h.855v7.106h-1.6c-1.805,0-2.432-.038-2.546-.038-.19,0-.209.019-.209.209v1.5c0,.19.019.209.209.209.114,0,.741-.038,2.546-.038ZM61.693-.931c0,1.406-.038,2.128-.038,2.242,0,.19.019.209.228.209H63.4c.209,0,.228-.019.228-.209,0-.095-.038-.836-.038-2.242V-6.27A14.183,14.183,0,0,0,65.227-4.5c.171.152.285.228.38.228.133,0,.228-.133.361-.418a4.557,4.557,0,0,1,.76-1.235,10.829,10.829,0,0,1-2.793-2.223,19.2,19.2,0,0,0,1.615-2.774,1.926,1.926,0,0,1,.437-.551.37.37,0,0,0,.19-.3c0-.133-.152-.323-.513-.684-.4-.38-.589-.494-.7-.494a.564.564,0,0,0-.209.076.639.639,0,0,1-.361.076h-.8v-.855a4.029,4.029,0,0,1,.114-1.52.891.891,0,0,0,.114-.4c0-.076-.114-.171-.3-.19-.684-.076-1.254-.114-1.976-.133a11.709,11.709,0,0,1,.152,2.318v.779h-.361c-1.444,0-1.9-.038-2.014-.038-.19,0-.209.019-.209.209v1.406c0,.19.019.209.209.209.114,0,.57-.038,2.014-.038h2.147A13.122,13.122,0,0,1,58.52-5.434a5.246,5.246,0,0,1,.665,1.349c.114.285.19.437.3.437.095,0,.209-.1.4-.247a19.852,19.852,0,0,0,1.805-1.577Z" transform="translate(1005.916 3257.499)" fill="#fff"/>
    <path id="パス_124" data-name="パス 124" d="M35.707-9.372l-12.933,67.3H7.875Z" transform="translate(927 3268.063) rotate(-90)" fill="#002060"/>
  </g>
</svg>
