<svg xmlns="http://www.w3.org/2000/svg" width="182.072" height="77.986" viewBox="0 0 182.072 77.986">
  <g id="グループ_96" data-name="グループ 96" transform="translate(-417.54 -3316.014)">
    <g id="長方形_240" data-name="長方形 240" transform="translate(417.54 3316.014)" fill="#002060" stroke="#002060" stroke-width="1">
      <rect width="182.072" height="45.213" stroke="none"/>
      <rect x="0.5" y="0.5" width="181.072" height="44.213" fill="none"/>
    </g>
    <path id="パス_126" data-name="パス 126" d="M12.787-14.706H9.861L4.294-7.98v-6.726H1.767V.038H4.294V-5.111L6.023-7.049,10.317.038h2.907L7.676-8.835Zm4.674,4.313H15.143V.038h2.394V-6.8a3.2,3.2,0,0,1,2.432-1.767c.931,0,1.444.551,1.444,1.748V.038h2.451V-7.486a2.856,2.856,0,0,0-2.983-3.135,4.251,4.251,0,0,0-3.42,2.052Zm20.672-4.313H35.207L29.64-7.98v-6.726H27.113V.038H29.64V-5.111l1.729-1.938L35.663.038H38.57L33.022-8.835Zm19.19,4.218a5.347,5.347,0,0,0-5.6-4.484c-3.8,0-6.4,2.774-6.4,7.657C45.315-2.451,47.9.3,51.718.3c3,0,4.9-1.349,5.681-4.389l-2.413-.741c-.418,2.147-1.482,3.154-3.249,3.154-2.147,0-3.705-1.919-3.705-5.662,0-3.762,1.52-5.662,3.705-5.662,1.672,0,2.736,1.064,3.1,3.116Zm4.617-4.484H59.546V.038H61.94v-6.8A3.225,3.225,0,0,1,64.372-8.55c.931,0,1.444.532,1.444,1.748V.038h2.451V-7.486A2.85,2.85,0,0,0,65.284-10.6,4.235,4.235,0,0,0,61.94-8.626Zm11.723,4.579H71.269V.038h2.394Zm.1-4.313H71.174v2.451h2.584Zm5.282,4.313H76.722V.038h2.394V-6.8a3.2,3.2,0,0,1,2.432-1.767c.931,0,1.444.551,1.444,1.748V.038h2.451V-7.486a2.856,2.856,0,0,0-2.983-3.135,4.251,4.251,0,0,0-3.42,2.052ZM90.4-7.163a1.987,1.987,0,0,1,2-1.824c1.254,0,1.805.532,1.805,1.843v.589a20.023,20.023,0,0,0-2.983.3c-2.261.437-3.4,1.615-3.4,3.439a2.963,2.963,0,0,0,3.211,3.1A3.908,3.908,0,0,0,94.316-1.33c.057.608.1.912.171,1.368h2.2A27.666,27.666,0,0,1,96.52-3.04V-7.182c0-2.318-1.349-3.458-4.047-3.458-2.261,0-3.781.988-4.313,2.869Zm3.8,4.028a2.844,2.844,0,0,1-2.432,1.71A1.478,1.478,0,0,1,90.1-3c0-.931.589-1.5,1.71-1.767a10.852,10.852,0,0,1,2.394-.3Zm18.867-1.881A12.482,12.482,0,0,1,108-1.178a5.235,5.235,0,0,1,.855,1.14c.171.3.247.437.38.437a1.03,1.03,0,0,0,.437-.19,12.271,12.271,0,0,0,4.294-3.952c-.019,2.223-.1,4.427-.1,5,0,.171.019.19.209.19h1.5c.19,0,.209-.019.209-.19,0-.57-.1-2.888-.1-5.073a12.37,12.37,0,0,0,4.5,3.933,1.378,1.378,0,0,0,.437.19c.133,0,.19-.133.323-.475a5.26,5.26,0,0,1,.76-1.311,11.927,11.927,0,0,1-5.244-3.534h2c1.881,0,2.527.038,2.641.038.19,0,.209-.019.209-.228V-6.5c0-.209-.019-.228-.209-.228-.114,0-.76.038-2.641.038h-2.717v-.285a2.374,2.374,0,0,1,.076-.874.765.765,0,0,0,.133-.38c0-.095-.114-.19-.285-.209-.665-.076-1.178-.114-1.881-.133a12.2,12.2,0,0,1,.114,1.881H111.72c-1.862,0-2.508-.038-2.622-.038-.19,0-.209.019-.209.228v1.292c0,.209.019.228.209.228.114,0,.76-.038,2.622-.038Zm-.931-10.051c-1.843,0-2.47-.038-2.6-.038-.19,0-.209.019-.209.209,0,.114.038.4.038.95v.532c0,1.463-.038,1.691-.038,1.8,0,.209.019.228.209.228h1.425c.19,0,.209-.019.209-.228v-1.786h7.98v1.52c0,.171.019.19.228.19H120.8c.19,0,.209-.019.209-.19,0-.114-.038-.342-.038-1.71v-.57c0-.361.038-.627.038-.741,0-.19-.019-.209-.209-.209-.133,0-.779.038-2.622.038Zm3.42,5.453c0,.741.209,1.007.57,1.2a4.49,4.49,0,0,0,2.109.247,3.934,3.934,0,0,0,2.356-.418,2.086,2.086,0,0,0,.665-1.406c.057-.494.057-.494-.437-.646a5.483,5.483,0,0,1-1.178-.494c-.019.684-.1.95-.247,1.121-.152.133-.361.19-.988.19s-.817-.038-.931-.114c-.1-.076-.114-.285-.114-.551v-.741a2.089,2.089,0,0,1,.076-.855.667.667,0,0,0,.114-.342c0-.1-.114-.19-.3-.209-.589-.057-1.121-.076-1.805-.1a10.876,10.876,0,0,1,.114,2.052Zm-11.3,9.557A12.087,12.087,0,0,0,105.7.988a.721.721,0,0,0,.342.114.282.282,0,0,0,.266-.247,3.078,3.078,0,0,1,.285-.722,31.68,31.68,0,0,0,1.767-4.028,1.458,1.458,0,0,0,.114-.437c0-.171-.114-.247-.4-.475a7.512,7.512,0,0,1-1.064-.969A28.936,28.936,0,0,1,105.2-1.5,8.211,8.211,0,0,1,104.253-.057Zm8.4-12.673a4.627,4.627,0,0,1-.228,1.178c-.342,1.045-1.254,2.014-3.382,2.565a4.06,4.06,0,0,1,.912,1.007c.19.323.266.437.4.437a1.931,1.931,0,0,0,.437-.133,5.426,5.426,0,0,0,3.439-3.382,2.6,2.6,0,0,1,.285-.722.39.39,0,0,0,.152-.266c0-.114-.1-.19-.285-.247A13.313,13.313,0,0,0,112.651-12.73Zm-8.4,3.04c-.076.095-.114.152-.114.209s.038.1.133.152A13.664,13.664,0,0,1,106.856-7.3c.076.057.114.095.171.095s.114-.057.209-.19l.874-1.14c.114-.19.114-.247,0-.38a16.053,16.053,0,0,0-2.641-1.881c-.171-.095-.247-.076-.38.1Zm.722-4.807c-.171.209-.171.228,0,.342a15.85,15.85,0,0,1,2.565,2.2c.076.057.114.1.171.1s.1-.057.19-.171l.836-1.121c.171-.228.152-.285.019-.4a16.433,16.433,0,0,0-2.546-2.014c-.171-.076-.228-.076-.38.095ZM127.49-9.253c1.273,0,1.672.038,1.786.038.19,0,.209-.019.209-.209v-1.425c0-.209-.019-.228-.209-.228-.114,0-.513.038-1.786.038v-1.767a7.138,7.138,0,0,1,.133-2.109,1.394,1.394,0,0,0,.1-.38c0-.1-.114-.19-.285-.209-.627-.057-1.292-.1-2.014-.114a20.031,20.031,0,0,1,.152,2.869v1.71h-.19c-1.311,0-1.729-.038-1.843-.038-.19,0-.209.019-.209.228v1.425c0,.19.019.209.209.209.114,0,.532-.038,1.843-.038h.19v5.111l-.532.171a10.686,10.686,0,0,1-1.9.475,12.178,12.178,0,0,0,.589,1.729c.076.19.171.247.285.247a.456.456,0,0,0,.3-.171,3.661,3.661,0,0,1,.646-.266,34.229,34.229,0,0,0,3.99-1.748c.551-.266.551-.266.513-.874-.019-.437-.019-.874,0-1.2-.646.323-1.311.627-1.976.912Zm10.431,7.391c0,1.976-.038,2.964-.038,3.1,0,.171.019.19.209.19h1.634c.19,0,.209-.019.209-.19,0-.114-.038-1.121-.038-3.1V-12.236a15.277,15.277,0,0,1,.1-2.28,2.159,2.159,0,0,0,.114-.475c0-.1-.1-.19-.285-.209-.665-.076-1.33-.114-2.033-.133a25.273,25.273,0,0,1,.133,3.116ZM130.4-8.436a18.954,18.954,0,0,1-.494,4.807A9.217,9.217,0,0,1,127.718.152a4.318,4.318,0,0,1,1.311.912c.19.19.323.285.437.285s.228-.1.38-.323a12.834,12.834,0,0,0,1.919-3.933,21.484,21.484,0,0,0,.589-5.529v-3.7a13.254,13.254,0,0,1,.076-2.223,4.322,4.322,0,0,0,.133-.532c0-.095-.114-.152-.3-.171-.646-.076-1.311-.114-1.995-.133a24.868,24.868,0,0,1,.133,3.04Zm3.762,4.2c0,1.938-.038,2.888-.038,3,0,.209.019.228.209.228h1.577c.19,0,.209-.019.209-.228,0-.114-.038-1.064-.038-3v-7.2a12.359,12.359,0,0,1,.1-2.109,1.614,1.614,0,0,0,.1-.456c0-.095-.1-.171-.285-.19-.532-.057-1.33-.095-1.957-.114a20.54,20.54,0,0,1,.133,2.907Z" transform="translate(435.869 3345.845)" fill="#fff"/>
    <path id="多角形_3" data-name="多角形 3" d="M4,0,8,33H0Z" transform="translate(512 3394) rotate(180)" fill="#002060"/>
  </g>
</svg>
