<svg xmlns="http://www.w3.org/2000/svg" width="15.176" height="22.344" viewBox="0 0 15.176 22.344">
  <path id="パス_4074" data-name="パス 4074" d="M1.064-5.656a13.728,13.728,0,0,1-.084-1.4c0-1.708.448-2.492,2.1-3.668a16.063,16.063,0,0,0,2.772-2.1,5.139,5.139,0,0,0,1.6-3.808A4.579,4.579,0,0,0,6.076-20.1,7.553,7.553,0,0,0,.308-22.2a8.3,8.3,0,0,0-5.8,1.876,7.008,7.008,0,0,0-2.24,4.088l3.36.42a4.4,4.4,0,0,1,.84-2.156,4.531,4.531,0,0,1,3.64-1.568c2.52,0,4.088,1.148,4.088,2.968,0,1.344-.644,2.184-2.632,3.528a8.359,8.359,0,0,0-2.576,2.1A5,5,0,0,0-2.072-7.364a10.9,10.9,0,0,1-.084,1.708ZM-2.3-3.22V.14H1.2V-3.22Z" transform="translate(7.728 22.204)" fill="#fff"/>
</svg>
