<?xml version="1.0" encoding="utf-8"?>
<!-- Generator: Adobe Illustrator 26.3.1, SVG Export Plug-In . SVG Version: 6.00 Build 0)  -->
<svg version="1.1" id="レイヤー_1" xmlns="http://www.w3.org/2000/svg" xmlns:xlink="http://www.w3.org/1999/xlink" x="0px"
	 y="0px" viewBox="0 0 256.4 73.2" style="enable-background:new 0 0 256.4 73.2;" xml:space="preserve">
<style type="text/css">
	.st0{fill:#8D8D8D;}
	.st1{fill:#3A96A5;}
	.st2{fill:#F49C00;}
	.st3{fill:none;}
</style>
<g id="レイヤー_2_00000127044389512182264280000005242379234130985351_">
	<g id="レイヤー_1-2">
		<path class="st0" d="M104.8,69c-1.1-0.3-2.2-0.7-3.2-1.2c-1.7-0.8-3.2-1.9-4.3-3.3l0.5-0.3c1.2,1.5,2.7,2.8,4.5,3.7
			C103,68.3,103.9,68.7,104.8,69z M115.9,68.6c0.8-0.3,1.5-0.8,2.1-1.2c1.1-0.8,2.1-1.8,2.8-3c0.8-1.4,1.2-2.9,1.2-4.5
			c0.1-2.4-0.9-4.7-2.8-6.2c-1.6-1.2-3.3-2.1-5.2-2.6c-2-0.6-4-1.1-6.1-1.4c-1.8-0.3-3.6-0.8-5.2-1.6c-1.4-0.6-2.6-1.5-3.6-2.7
			c-0.9-1.3-1.3-2.8-1.2-4.4c0-1.4,0.3-2.8,0.9-4c0.6-1.1,1.5-2.1,2.5-2.9c0.6-0.4,1.2-0.8,1.8-1.1c-0.3,0.2-0.6,0.3-0.9,0.5
			c-1.1,0.7-2.1,1.6-2.8,2.7c-0.8,1.2-1.3,2.7-1.3,4.2c-0.1,2.4,0.9,4.7,2.8,6.1c1.6,1.1,3.4,2,5.2,2.5c2,0.6,4,1,6.1,1.3
			c1.8,0.3,3.5,0.8,5.2,1.5c1.4,0.6,2.6,1.5,3.5,2.7c0.9,1.4,1.4,3.1,1.2,4.8c0,1.5-0.3,3-0.9,4.4c-0.6,1.2-1.5,2.3-2.6,3.1
			C117.9,67.7,116.9,68.3,115.9,68.6L115.9,68.6z M119.7,36.4c-0.9-1.2-2-2.2-3.2-3c-0.4-0.3-0.9-0.5-1.3-0.7
			c0.6,0.2,1.1,0.4,1.7,0.7c1.3,0.7,2.4,1.6,3.3,2.7L119.7,36.4z"/>
		<path class="st0" d="M109.3,29.4c-1.7,0-3.4,0.2-5,0.7c-1.6,0.4-3.1,1.2-4.4,2.2c-1.3,1-2.4,2.2-3.2,3.7c-0.9,1.6-1.3,3.4-1.2,5.2
			c-0.1,2.2,0.5,4.3,1.8,6c1.2,1.4,2.7,2.5,4.4,3.3c1.9,0.8,3.8,1.4,5.8,1.8c2,0.3,3.9,0.8,5.8,1.4c1.6,0.4,3.1,1.2,4.4,2.2
			c1.3,1,1.9,2.6,1.8,4.2c0,1.1-0.3,2.2-0.8,3.1c-0.6,0.9-1.3,1.7-2.2,2.3c-0.9,0.7-1.9,1.2-3,1.5c-1.1,0.3-2.2,0.5-3.3,0.5
			c-2.4,0-4.8-0.6-6.9-1.7c-2.1-1.1-3.9-2.9-4.9-5l-4.7,3.2c1.5,2.8,3.9,4.9,6.7,6.2c3,1.4,6.3,2.1,9.7,2c1.9,0,3.7-0.3,5.5-0.8
			c1.7-0.5,3.3-1.3,4.7-2.3c1.4-1,2.5-2.4,3.3-3.9c0.8-1.7,1.2-3.6,1.2-5.5c0.1-2.3-0.5-4.5-1.8-6.4c-1.2-1.5-2.7-2.7-4.4-3.4
			c-1.9-0.8-3.8-1.4-5.8-1.8c-1.9-0.3-3.9-0.7-5.8-1.2c-1.6-0.4-3.1-1.1-4.4-2.1c-1.2-0.9-1.9-2.4-1.8-4c0-1,0.3-2,0.8-2.8
			c0.5-0.8,1.3-1.5,2.1-2c0.9-0.5,1.8-1,2.8-1.2c1-0.3,2-0.4,2.9-0.4c2.1-0.1,4.1,0.4,5.9,1.5c1.6,1.1,2.9,2.5,3.7,4.3l4.7-2.9
			c-1.2-2.5-3.2-4.5-5.7-5.8C115.3,29.9,112.3,29.3,109.3,29.4z"/>
		<path class="st0" d="M78.9,60.9c-1,0-1.9-0.5-2.5-1.2c-0.4-0.5-9.2-11.3-31.8-3.6c-14.2,4.8-25.4,1.2-32.3-2.7
			c-4.5-2.5-8.4-5.8-11.6-9.8c-1-1.4-0.8-3.4,0.6-4.4c1.4-1,3.4-0.8,4.4,0.6l0,0c2.8,3.3,6.1,6.1,9.9,8.1c8.3,4.7,17.4,5.3,26.9,2.1
			c27.2-9.3,38.5,5.1,38.9,5.8c1,1.4,0.8,3.4-0.7,4.4C80.2,60.7,79.6,60.9,78.9,60.9z"/>
		<path class="st1" d="M30.2,21.6c-0.6,0-1.2-0.2-1.7-0.5c-1.2-0.7-1.8-2.2-1.4-3.5C28.2,13.4,31.6,6,41.9,2.8
			c1.5-0.5,3.2,0.2,3.9,1.6c0.8,1.6,0.1,3.5-1.4,4.2c-0.2,0.1-0.3,0.1-0.5,0.2c-7.2,2.2-9.7,6.9-10.6,10.4
			C32.9,20.7,31.7,21.6,30.2,21.6z"/>
		<path class="st2" d="M63.8,73.2H22.2c-1.8,0-3.2-1.5-3.2-3.2c0,0,0,0,0,0V28.4c0-1.8,1.4-3.2,3.2-3.2c0,0,0,0,0,0h41.6
			c1.8,0,3.2,1.5,3.2,3.2V70C67,71.8,65.6,73.2,63.8,73.2z M25.4,66.9h35.2c0,0,0.1,0,0.1-0.1c0,0,0,0,0,0V31.6c0,0,0-0.1-0.1-0.1
			H25.4c0,0-0.1,0-0.1,0.1L25.4,66.9C25.3,66.9,25.3,66.9,25.4,66.9L25.4,66.9z"/>
		<path class="st1" d="M34.6,38c-1.7,0-3.1,1.4-3.1,3.1c0,1.7,1.4,3.1,3.1,3.1c1.7,0,3.1-1.4,3.1-3.1C37.7,39.4,36.3,38,34.6,38
			C34.6,38,34.6,38,34.6,38z"/>
		<path class="st1" d="M51,38c-1.7,0-3.1,1.4-3.1,3.1c0,1.7,1.4,3.1,3.1,3.1c1.7,0,3.1-1.4,3.1-3.1C54.1,39.4,52.7,38,51,38
			C51,38,51,38,51,38z"/>
		<g>
			<path class="st0" d="M134.6,0.8h3.8v36.6c2.3-4.4,6.9-7.1,11.9-6.9c6.9,0,9.9,4.1,10.7,5.4c1.7,2.8,1.9,6.4,1.9,9.8v24.4h-3.8
				V45.7c0-2.7-0.1-5.6-1.5-7.8c-0.9-1.4-2.9-3.8-7.6-3.8c-3.9-0.2-7.7,1.9-9.5,5.4c-1.7,3-2.1,6.7-2.1,10.5v20.1h-3.8L134.6,0.8z"
				/>
			<path class="st0" d="M163.7,71h-5.5V45.7c0-2.6-0.1-5.4-1.4-7.3c-0.9-1.6-2.9-3.4-6.9-3.4c-3.7-0.2-7.1,1.8-8.7,5
				c-1.8,3.1-2,7-2,10.1v21h-5.5V0h5.5v34.6c2.7-3.2,6.8-5.1,11.1-5c6.7,0,10,3.6,11.4,5.8c1.9,3,2,6.9,2,10.2V71z M159.9,69.3h2.1
				V45.7c0-3.1-0.1-6.7-1.8-9.3c-1.2-1.9-4.1-5-10-5c-4.6-0.1-9,2.4-11.1,6.5l-1.6,3V1.7h-2.1v67.6h2.1V50c0-3.3,0.2-7.4,2.2-10.9
				c2-3.7,6-6,10.3-5.8c0,0,0,0,0,0c5,0,7.3,2.6,8.3,4.2c1.5,2.3,1.6,5.3,1.6,8.2V69.3z"/>
		</g>
		<g>
			<path class="st0" d="M175.2,18.4c0-1.9,1.5-3.4,3.4-3.4c1.9,0,3.4,1.5,3.4,3.4c0,0,0,0,0,0c0,1.9-1.5,3.4-3.4,3.4
				C176.8,21.9,175.2,20.3,175.2,18.4C175.2,18.4,175.2,18.4,175.2,18.4z M180.5,31.3v38.8h-3.8V31.3H180.5z"/>
			<path class="st0" d="M181.4,71h-5.5V30.5h5.5V71z M177.6,69.3h2.1V32.2h-2.1V69.3z M178.6,22.7c-1.1,0-2.2-0.4-3-1.2
				c-0.8-0.8-1.3-1.9-1.3-3v0c0-2.4,1.9-4.3,4.3-4.3c0,0,0,0,0,0c1.1,0,2.2,0.4,3,1.2c0.8,0.8,1.3,1.9,1.3,3
				C182.9,20.8,181,22.7,178.6,22.7C178.6,22.7,178.6,22.7,178.6,22.7z M178.6,15.9C178.6,15.9,178.6,15.9,178.6,15.9
				c-1.4,0-2.6,1.2-2.6,2.6v0c0,0.7,0.3,1.3,0.8,1.8c0.5,0.5,1.1,0.8,1.8,0.8c0,0,0,0,0,0c0.7,0,1.3-0.3,1.8-0.8
				c0.5-0.5,0.8-1.1,0.8-1.8C181.2,17,180.1,15.9,178.6,15.9z"/>
		</g>
		<g>
			<path class="st0" d="M194.6,31.3h3.8v5c1.4-3.5,4.8-5.9,8.6-5.9c1.4,0,2.8,0.3,4.1,1l-1.9,3.4c-0.8-0.6-1.8-0.8-2.9-0.8
				c-7.8,0-7.9,10.4-7.9,15.2v20.8h-3.8V31.3z"/>
			<path class="st0" d="M199.2,71h-5.5V30.5h5.5v2.7c1.9-2.2,4.7-3.6,7.7-3.6c1.6,0,3.1,0.4,4.5,1.1l0.8,0.4l-2.8,5l-0.8-0.5
				c-0.7-0.5-1.5-0.7-2.3-0.6c-6.3,0-7.1,7.7-7.1,14.4V71z M195.4,69.3h2.1V49.3c0-4.8,0-16,8.7-16c0.8-0.1,1.7,0.1,2.5,0.5l1-1.9
				c-0.9-0.4-1.9-0.5-2.9-0.5c-3.4,0-6.5,2.1-7.8,5.3l-1.6,4.3v-8.8h-2.1V69.3z"/>
		</g>
		<g>
			<path class="st0" d="M255.5,50.8c0,11.2-9.1,20.3-20.3,20.3s-20.3-9.1-20.3-20.3s9.1-20.3,20.3-20.3S255.5,39.6,255.5,50.8z
				 M251.5,50.8c0-9.4-7-16.7-16.3-16.7s-16.3,7.3-16.3,16.7s7,16.7,16.3,16.7S251.5,60.2,251.5,50.8L251.5,50.8z"/>
			<path class="st0" d="M235.2,72c-11.7,0-21.2-9.5-21.2-21.2s9.5-21.2,21.2-21.2s21.2,9.5,21.2,21.2S246.8,72,235.2,72z
				 M235.2,31.3c-10.7,0-19.5,8.7-19.5,19.5s8.7,19.5,19.5,19.5s19.5-8.7,19.5-19.5S245.9,31.3,235.2,31.3z M235.2,68.4
				c-9.8,0-17.2-7.6-17.2-17.6s7.4-17.6,17.2-17.6c9.5,0,16.8,7.1,17.2,16.7h0v0.8C252.4,60.8,245,68.4,235.2,68.4z M235.2,35
				c-8.8,0-15.5,6.8-15.5,15.9c0,9,6.7,15.9,15.5,15.9c8.7,0,15.3-6.6,15.5-15.4l0-0.4C250.7,41.8,244,35,235.2,35z"/>
		</g>
		<line class="st3" x1="97.6" y1="71.5" x2="255.6" y2="71.5"/>
	</g>
</g>
</svg>
