<svg xmlns="http://www.w3.org/2000/svg" width="18.018" height="122.021" viewBox="0 0 18.018 122.021">
  <path id="s-contact" d="M14.414-15.454v-.864a.944.944,0,0,1,.168-.63.567.567,0,0,1,.447-.19.567.567,0,0,1,.447.19.944.944,0,0,1,.168.63v3.413a.972.972,0,0,1-.168.645.567.567,0,0,1-.447.19.555.555,0,0,1-.417-.176.909.909,0,0,1-.2-.571A2.956,2.956,0,0,0,13.081-15a6.185,6.185,0,0,0-3.867-1.3,5.914,5.914,0,0,0-2.681.63,4.467,4.467,0,0,0-1.494,1.113A9.461,9.461,0,0,0,3.5-12.026a6.187,6.187,0,0,0-.41,2.314v2.153A6.6,6.6,0,0,0,5.083-2.776,6.3,6.3,0,0,0,9.712-.747a5.786,5.786,0,0,0,2.834-.688,8.745,8.745,0,0,0,2.424-2.08.713.713,0,0,1,.557-.308.574.574,0,0,1,.425.161.556.556,0,0,1,.161.41q0,.337-.63,1.025A8.09,8.09,0,0,1,12.781-.2a7.294,7.294,0,0,1-3.04.681,7.732,7.732,0,0,1-2.71-.513A6.764,6.764,0,0,1,5.288-.952,10.894,10.894,0,0,1,3.6-2.732a8,8,0,0,1-1.37-2.314A7.127,7.127,0,0,1,1.86-7.383v-2.5A8.1,8.1,0,0,1,2.834-13.6,7.087,7.087,0,0,1,5.5-16.516,6.989,6.989,0,0,1,9.17-17.534,7.364,7.364,0,0,1,14.414-15.454ZM33.882-6.313a6.512,6.512,0,0,1-2.014,4.8A6.655,6.655,0,0,1,27.012.483a6.653,6.653,0,0,1-4.878-2,6.531,6.531,0,0,1-2.007-4.8,6.548,6.548,0,0,1,2.007-4.812,6.653,6.653,0,0,1,4.878-2,6.655,6.655,0,0,1,4.856,1.992A6.529,6.529,0,0,1,33.882-6.313Zm-1.245,0a5.33,5.33,0,0,0-1.648-3.94A5.474,5.474,0,0,0,27-11.88a5.461,5.461,0,0,0-3.992,1.633,5.338,5.338,0,0,0-1.648,3.933,5.345,5.345,0,0,0,1.648,3.926A5.449,5.449,0,0,0,27-.747,5.461,5.461,0,0,0,30.989-2.38,5.338,5.338,0,0,0,32.637-6.313Zm8.394-6.372v1.86a8.881,8.881,0,0,1,2.329-1.8,5.359,5.359,0,0,1,2.344-.5,5.481,5.481,0,0,1,2.563.6,4.206,4.206,0,0,1,1.487,1.458,3.767,3.767,0,0,1,.667,2.087V-1.23h1.04a.944.944,0,0,1,.63.168.567.567,0,0,1,.19.447.573.573,0,0,1-.19.439A.916.916,0,0,1,51.46,0h-3.3a.943.943,0,0,1-.645-.176.573.573,0,0,1-.19-.439.567.567,0,0,1,.19-.447.972.972,0,0,1,.645-.168h1.025V-8.774a2.918,2.918,0,0,0-.952-2.2,3.556,3.556,0,0,0-2.549-.9,4.316,4.316,0,0,0-2.109.491A11.316,11.316,0,0,0,41.03-8.95v7.72h1.392a.944.944,0,0,1,.63.168.567.567,0,0,1,.19.447.573.573,0,0,1-.19.439.916.916,0,0,1-.63.176H38.408a.916.916,0,0,1-.63-.176.573.573,0,0,1-.19-.439.567.567,0,0,1,.19-.447.944.944,0,0,1,.63-.168H39.8V-11.44H38.76a.916.916,0,0,1-.63-.176.59.59,0,0,1-.19-.454.573.573,0,0,1,.19-.439.916.916,0,0,1,.63-.176Zm19.453,0h6.68a.916.916,0,0,1,.63.176.59.59,0,0,1,.19.454.573.573,0,0,1-.19.439.916.916,0,0,1-.63.176h-6.68v8.188a2.239,2.239,0,0,0,.857,1.787,3.825,3.825,0,0,0,2.512.718,10.849,10.849,0,0,0,2.7-.374A9.125,9.125,0,0,0,68.8-1.963a.961.961,0,0,1,.483-.19.552.552,0,0,1,.41.183.6.6,0,0,1,.176.432.574.574,0,0,1-.19.41A6.123,6.123,0,0,1,67.4-.081,11.633,11.633,0,0,1,63.94.483,5.365,5.365,0,0,1,60.513-.527a3.3,3.3,0,0,1-1.274-2.725V-11.44H56.968a.916.916,0,0,1-.63-.176.59.59,0,0,1-.19-.454.573.573,0,0,1,.19-.439.916.916,0,0,1,.63-.176h2.271v-3.633a.916.916,0,0,1,.176-.63.573.573,0,0,1,.439-.19.59.59,0,0,1,.454.19.916.916,0,0,1,.176.63ZM84.551,0V-1.772A8.751,8.751,0,0,1,78.823.483,4.983,4.983,0,0,1,75.366-.637a3.554,3.554,0,0,1-1.245-2.747A3.934,3.934,0,0,1,75.762-6.5a7.447,7.447,0,0,1,4.79-1.333,16.914,16.914,0,0,1,1.846.11q1,.11,2.153.344V-9.375a2.2,2.2,0,0,0-.937-1.758A4.456,4.456,0,0,0,80.8-11.88a14.235,14.235,0,0,0-4.028.835,2.805,2.805,0,0,1-.6.146.539.539,0,0,1-.4-.176.61.61,0,0,1-.168-.439.534.534,0,0,1,.146-.4,5.031,5.031,0,0,1,1.655-.6,14.625,14.625,0,0,1,3.457-.615,5.307,5.307,0,0,1,3.633,1.15,3.408,3.408,0,0,1,1.3,2.6V-1.23h1.641a.972.972,0,0,1,.645.168.567.567,0,0,1,.19.447.573.573,0,0,1-.19.439A.943.943,0,0,1,87.437,0Zm0-6.123a11.685,11.685,0,0,0-1.831-.366,16.931,16.931,0,0,0-2.036-.117,6.739,6.739,0,0,0-4.189,1.157,2.535,2.535,0,0,0-1.143,2.065,2.4,2.4,0,0,0,.872,1.875,3.754,3.754,0,0,0,2.542.762,6.945,6.945,0,0,0,2.966-.637,10.688,10.688,0,0,0,2.82-2.029Zm19.6-5.317v-.41a.943.943,0,0,1,.176-.645.573.573,0,0,1,.439-.19.59.59,0,0,1,.454.19.943.943,0,0,1,.176.645v2.783a1.024,1.024,0,0,1-.183.645.567.567,0,0,1-.447.19.567.567,0,0,1-.417-.168.875.875,0,0,1-.2-.564,2.874,2.874,0,0,0-1.37-1.978,5.723,5.723,0,0,0-3.45-.937,5.094,5.094,0,0,0-4.16,1.714A5.977,5.977,0,0,0,93.75-6.24,5.313,5.313,0,0,0,95.317-2.3,5.518,5.518,0,0,0,99.375-.747a8.707,8.707,0,0,0,2.922-.527,7.335,7.335,0,0,0,2.688-1.7.858.858,0,0,1,.542-.293.567.567,0,0,1,.417.168.567.567,0,0,1,.168.417q0,.63-1.479,1.6A9.482,9.482,0,0,1,99.316.483a6.643,6.643,0,0,1-4.885-1.9A6.494,6.494,0,0,1,92.52-6.226a6.707,6.707,0,0,1,1.956-4.937A6.669,6.669,0,0,1,99.4-13.125,6.936,6.936,0,0,1,104.15-11.44Zm10.342-1.245h6.68a.916.916,0,0,1,.63.176.59.59,0,0,1,.19.454.573.573,0,0,1-.19.439.916.916,0,0,1-.63.176h-6.68v8.188a2.239,2.239,0,0,0,.857,1.787,3.825,3.825,0,0,0,2.512.718,10.849,10.849,0,0,0,2.7-.374,9.125,9.125,0,0,0,2.256-.842.961.961,0,0,1,.483-.19.552.552,0,0,1,.41.183.6.6,0,0,1,.176.432.574.574,0,0,1-.19.41,6.123,6.123,0,0,1-2.278,1.047,11.633,11.633,0,0,1-3.464.564,5.365,5.365,0,0,1-3.428-1.011,3.3,3.3,0,0,1-1.274-2.725V-11.44h-2.271a.916.916,0,0,1-.63-.176.59.59,0,0,1-.19-.454.573.573,0,0,1,.19-.439.916.916,0,0,1,.63-.176h2.271v-3.633a.916.916,0,0,1,.176-.63.573.573,0,0,1,.439-.19.59.59,0,0,1,.454.19.916.916,0,0,1,.176.63Z" transform="translate(17.534 123.882) rotate(-90)"/>
</svg>
