<?xml version="1.0" encoding="utf-8"?>
<!-- Generator: Adobe Illustrator 28.1.0, SVG Export Plug-In . SVG Version: 6.00 Build 0)  -->
<svg version="1.1" id="レイヤー_1" xmlns="http://www.w3.org/2000/svg" xmlns:xlink="http://www.w3.org/1999/xlink" x="0px"
	 y="0px" viewBox="0 0 137.5 45" style="enable-background:new 0 0 137.5 45;" xml:space="preserve">
<style type="text/css">
	.st0{fill:#003461;}
	.st1{fill:#FFFFFF;}
</style>
<path class="st0" d="M137.5,45c-11.8,0-22.7-6.9-27.4-17.8C103.2,11.2,87.3,0,68.7,0C50.2,0,34.3,11.2,27.4,27.2
	C22.7,38.1,11.8,45,0,45h-51.3v30c0,8.3,6.7,15,15,15h210c8.3,0,15-6.7,15-15V45H137.5z"/>
<g>
	<path class="st1" d="M68.7,45.3c-1.3,0-2.3-0.2-3.1-0.7c-0.8-0.5-1.4-1.2-1.8-2.1c-0.4-0.9-0.6-1.9-0.6-3.1v-0.6h2.1
		c0,0,0,0.1,0,0.2c0,0.1,0,0.2,0,0.3c0,0.9,0.1,1.6,0.3,2.2c0.2,0.6,0.5,1.1,1,1.5c0.5,0.3,1.1,0.5,1.9,0.5c0.8,0,1.4-0.2,1.9-0.5
		c0.5-0.3,0.9-0.9,1.2-1.6c0.3-0.8,0.4-1.8,0.4-3c0-1.5-0.3-2.7-0.8-3.7c-0.5-0.9-1.5-1.4-2.8-1.5c0,0-0.1,0-0.3,0
		c-0.2,0-0.3,0-0.3,0v-2.1c0,0,0.1,0,0.3,0c0.2,0,0.3,0,0.3,0c1.3,0,2.2-0.4,2.8-1.1c0.6-0.7,0.8-1.9,0.8-3.5c0-1.3-0.2-2.3-0.7-3.1
		c-0.5-0.8-1.3-1.2-2.6-1.2c-1.2,0-2.1,0.3-2.7,1c-0.6,0.7-0.8,1.8-0.9,3.2c0,0,0,0.1,0,0.2c0,0.1,0,0.2,0,0.2h-2.1v-0.6
		c0-1.2,0.2-2.2,0.6-3.1c0.4-0.9,1-1.5,1.8-2c0.8-0.5,1.9-0.7,3.2-0.7c1.3,0,2.3,0.3,3.1,0.8c0.8,0.5,1.4,1.2,1.8,2.1
		c0.4,0.9,0.6,2,0.6,3.1c0,1.7-0.3,3-1,3.9C72.8,31.4,72,32,71,32.2c0.6,0.2,1.2,0.5,1.7,1c0.5,0.5,1,1.1,1.3,2
		c0.3,0.9,0.5,1.9,0.5,3.2c0,1.4-0.2,2.6-0.6,3.6c-0.4,1-1,1.9-1.8,2.4C71.2,45,70.1,45.3,68.7,45.3z"/>
</g>
<g>
	<path class="st1" d="M50,22.6L44.6,16l0.5-0.4l5.4,6.6L50,22.6z"/>
	<path class="st1" d="M53.9,18.4c-0.4,0.2-0.8,0.3-1.1,0.3c-0.3,0-0.6-0.2-0.9-0.4c-0.3-0.3-0.5-0.6-0.7-0.9l-1.4-2.5
		c-0.2-0.4-0.4-0.8-0.4-1.1c-0.1-0.3,0-0.7,0.1-1c0.1-0.3,0.4-0.6,0.8-0.8c0.4-0.2,0.7-0.3,1-0.3c0.3,0,0.6,0.1,0.8,0.4
		c0.2,0.2,0.5,0.5,0.7,0.9l0.2,0.4l-0.6,0.3l-0.2-0.4c-0.2-0.3-0.3-0.5-0.5-0.7c-0.2-0.2-0.3-0.3-0.5-0.3c-0.2,0-0.4,0-0.7,0.2
		c-0.3,0.2-0.5,0.3-0.5,0.5c-0.1,0.2-0.1,0.4,0,0.7c0.1,0.2,0.2,0.5,0.3,0.8l1.5,2.7c0.2,0.3,0.4,0.6,0.5,0.7
		c0.2,0.2,0.4,0.3,0.6,0.3c0.2,0,0.4,0,0.7-0.2c0.3-0.1,0.4-0.3,0.5-0.5c0.1-0.2,0.1-0.4,0-0.6c-0.1-0.2-0.2-0.5-0.3-0.8l-0.2-0.4
		l0.6-0.3l0.2,0.4c0.2,0.4,0.4,0.7,0.4,1.1c0.1,0.3,0,0.6-0.1,0.9C54.6,18,54.3,18.2,53.9,18.4z"/>
	<path class="st1" d="M58.8,17.5L56,9.4l0.6-0.2l2.8,8.1L58.8,17.5z"/>
	<path class="st1" d="M61.9,15.2l0.3-7.4L63,7.6l2.7,6.9L65,14.7l-0.7-1.9l-1.7,0.3l-0.1,2L61.9,15.2z M62.7,12.6l1.5-0.2l-1.4-3.8
		L62.7,12.6z"/>
	<path class="st1" d="M68.8,15.8l0.1-8.6l0.6,0l-0.1,8.6L68.8,15.8z"/>
	<path class="st1" d="M74.4,15.1c-0.4-0.1-0.7-0.2-0.9-0.4c-0.2-0.2-0.4-0.5-0.5-0.8c-0.1-0.3-0.1-0.7-0.1-1.1l0.6-0.1
		c0,0.3,0,0.6,0,0.8c0,0.3,0.1,0.5,0.3,0.6c0.1,0.2,0.4,0.3,0.6,0.3c0.3,0.1,0.6,0,0.8-0.1c0.2-0.1,0.3-0.4,0.4-0.7
		c0.1-0.3,0-0.6-0.1-0.9c-0.1-0.3-0.3-0.5-0.5-0.8l-1-1.4c-0.2-0.3-0.3-0.5-0.4-0.8c-0.1-0.3-0.1-0.5,0-0.8c0.1-0.5,0.3-0.8,0.7-1.1
		c0.3-0.2,0.8-0.3,1.3-0.2c0.3,0,0.5,0.1,0.7,0.2c0.2,0.1,0.3,0.2,0.5,0.4c0.1,0.2,0.2,0.4,0.2,0.6c0,0.2,0,0.5,0,0.9l-0.6,0
		c0-0.3,0-0.6,0-0.8c0-0.2-0.1-0.4-0.3-0.6c-0.1-0.1-0.3-0.2-0.6-0.3c-0.3-0.1-0.6,0-0.8,0.1c-0.2,0.1-0.4,0.3-0.4,0.7
		c0,0.2,0,0.4,0,0.6c0,0.2,0.1,0.4,0.3,0.6l1,1.4c0.2,0.3,0.4,0.7,0.6,1c0.1,0.4,0.2,0.7,0.1,1.2c-0.1,0.4-0.2,0.6-0.4,0.9
		c-0.2,0.2-0.4,0.4-0.7,0.4C75,15.2,74.7,15.2,74.4,15.1z"/>
	<path class="st1" d="M78.6,17.5l3-8.1l0.6,0.2l-3,8.1L78.6,17.5z"/>
	<path class="st1" d="M82.6,17.8l3.6-6.4l2.3,1.3l-0.3,0.5l-1.7-1l-1.3,2.4l1.4,0.8l-0.2,0.4L85,15.1l-1.5,2.6l1.7,1L85,19.1
		L82.6,17.8z"/>
	<path class="st1" d="M86.7,21.9l5.4-6.7l0.5,0.4l-5.3,6.7L86.7,21.9z"/>
</g>
</svg>
