<?xml version="1.0" encoding="utf-8"?>
<!-- Generator: Adobe Illustrator 28.1.0, SVG Export Plug-In . SVG Version: 6.00 Build 0)  -->
<svg version="1.1" id="レイヤー_1" xmlns="http://www.w3.org/2000/svg" xmlns:xlink="http://www.w3.org/1999/xlink" x="0px"
	 y="0px" viewBox="0 0 117.4 122.2" style="enable-background:new 0 0 117.4 122.2;" xml:space="preserve">
<style type="text/css">
	.st0{fill:#003461;}
	.st1{fill:#0091F2;}
	.st2{opacity:0.35;fill:#003461;}
	.st3{fill:#005CE5;}
	.st4{fill:#FAD9C7;}
	.st5{fill:#F6C4AA;}
	.st6{fill:#80C8F8;}
</style>
<g>
	<g>
		<g>
			<g>
				<path class="st0" d="M65.9,34.7c-1.2-5.2-1.8-11.5-4.5-16.2c0,0-0.1,0.9-0.3,2.3c-4.8-0.9-9.5-1.9-14.3-2.8c-0.5,0-1,0-1.5,0
					C40.6,19,35.8,20,31,20.9c-0.2-1.4-0.3-2.3-0.3-2.3c-2.7,4.7-3.2,11-4.5,16.2c-1.9,8.1-2.1,16.4-1.4,24.6
					c0.5,6.6,1.1,13.6,3.2,19.9c0.1,0.3,0.2,0.6,0.4,1c1.4,3.3,2.6,5.9,2.6,5.9c5-0.4,10-0.7,15-1.1c5,0.4,10,0.7,15,1.1
					c0,0,1.3-2.6,2.6-5.9c0.1-0.3,0.2-0.6,0.4-1c2.1-6.3,2.7-13.3,3.2-19.9C68,51.1,67.9,42.8,65.9,34.7z"/>
			</g>
			<path class="st1" d="M92.8,122.2c-30.9,0-61.8,0-92.8,0c0.8-9.3,1.6-18.7,2.4-28c0.3-3.7,0.7-7.5,2.1-10.9
				c1.5-3.4,4.4-6.5,8.1-7.4c3.4-0.8,31-8.8,33.7-9.6c2.7,0.8,30.3,8.8,33.7,9.6c3.8,0.9,6.6,4,8.1,7.4c1.5,3.4,1.8,7.2,2.1,10.9
				C91.1,103.5,91.9,112.9,92.8,122.2z"/>
			<path class="st2" d="M16.4,122.2c0.7-6.9,0.3-14-1.3-20.5c-0.3-1.3-0.7-2.5-1.1-3.7c-0.1,1.9-0.1,3.8-0.2,5.8
				c0,0.7,0,1.4-0.1,2.2c0,5.4,0,10.8,0,16.3C14.6,122.2,15.5,122.2,16.4,122.2z"/>
			<path class="st2" d="M76,122.2c-0.7-6.9-0.3-14,1.3-20.5c0.3-1.3,0.7-2.5,1.1-3.7c0.1,1.9,0.1,3.8,0.2,5.8c0,0.7,0,1.4,0.1,2.2
				c0,5.4,0,10.8,0,16.3C77.8,122.2,76.9,122.2,76,122.2z"/>
			<path class="st3" d="M31.8,70.5c0,17.2,0,34.5,0,51.7c9.7,0,19.4,0,29.1,0c0-17.3,0-34.5,0-51.8c-6.9-2-13.3-3.8-14.5-4.2
				C45.1,66.6,38.7,68.5,31.8,70.5z"/>
			<path class="st4" d="M46.1,66.3c-0.1,0-0.3,0.1-0.5,0.2c-0.1,0-0.3,0.1-0.4,0.1c-0.3,0.1-0.5,0.2-0.9,0.3c-0.1,0-0.1,0-0.2,0
				c-0.1,0-0.1,0-0.2,0.1c0,0,0,0,0,0c-0.4,0.1-0.7,0.2-1.1,0.3c0,0-0.1,0-0.1,0c-0.1,0-0.2,0-0.3,0.1c-0.2,0.1-0.4,0.1-0.6,0.2
				c-0.1,0-0.3,0.1-0.4,0.1c-0.1,0-0.2,0-0.2,0.1c-0.4,0.1-0.9,0.3-1.4,0.4c0,0-0.1,0-0.1,0c-0.2,0-0.3,0.1-0.5,0.1c0,0,0,0-0.1,0
				c-2.2,0.6-4.7,1.4-7.3,2.1c0,1.3,0,2.6,0,3.9c3.1,3.8,8.4,6.3,14.5,6.3c6.1,0,11.4-2.5,14.5-6.3c0-1.3,0-2.6,0-4c0,0-0.1,0-0.1,0
				c0,0,0,0,0,0c-0.4-0.1-0.9-0.3-1.3-0.4c-0.1,0-0.2,0-0.3-0.1c-0.1,0-0.3-0.1-0.4-0.1c-0.1,0-0.3-0.1-0.4-0.1
				c-0.1,0-0.2,0-0.2-0.1c-0.1,0-0.2-0.1-0.3-0.1c-0.6-0.2-1.1-0.3-1.7-0.5c-0.2-0.1-0.5-0.1-0.7-0.2c-0.4-0.1-0.9-0.3-1.3-0.4
				c-0.2,0-0.3-0.1-0.5-0.1c0,0-0.1,0-0.1,0c-0.3-0.1-0.6-0.2-0.8-0.2c-0.3-0.1-0.6-0.2-0.8-0.2c-0.1,0-0.2-0.1-0.3-0.1
				c-0.4-0.1-0.7-0.2-1.1-0.3c-0.2,0-0.3-0.1-0.5-0.1c-0.4-0.1-0.8-0.2-1.1-0.3c-0.1,0-0.2-0.1-0.3-0.1c-0.4-0.1-0.7-0.2-1-0.3
				c-0.2,0-0.3-0.1-0.5-0.1c-0.1,0-0.1,0-0.1,0c-0.1,0-0.2-0.1-0.3-0.1c-0.1,0-0.2-0.1-0.3-0.1c-0.1,0-0.1,0-0.2,0.1
				C46.1,66.3,46.1,66.3,46.1,66.3z"/>
			<g>
				<path class="st4" d="M56.4,68.9c-0.4-6.3-0.8-12.7-1.2-19c-3-1.2-6-2.4-9-3.6c0,0,0,0,0,0c-3,1.2-6,2.4-9,3.6
					c-0.4,6.3-0.8,12.6-1.2,19c-0.1,1.7,0.8,3.3,2.1,4.6c4.5,4.5,11.8,4.5,16.2,0C55.6,72.1,56.5,70.6,56.4,68.9z"/>
				<path class="st5" d="M56.1,65.1C55.8,60,55.5,55,55.2,49.9c-3-1.2-6-2.4-9-3.6c0,0,0,0,0,0c-3,1.2-6,2.4-9,3.6
					C37,51.2,37,52.6,36.9,54C36.9,54,43,64,56.1,65.1z"/>
			</g>
			<g>
				<g>
					<path class="st0" d="M62.9,28.7c-0.1-5.2,0.2-9.4-3.6-13.6c-3.8-4.1-10-5.5-15.3-4.6c-1.4,0.2-8.2,1.6-6.2,4.1
						c0.1,0.1,0.2,0.2,0.3,0.3c0.4,0.3,0.8,1.2,0.2,1.8c-0.8,0.8-0.5,2.3,0.1,3.2c1,1.4,2.5,2.3,4.1,2.8c1.6,0.5,3.4,0.5,5.1,0.4
						c1.4-0.1,3-0.2,4.1,0.7c1.3,1,1.5,2.8,2.1,4.2c1.2,2.8,4.5,4.6,7.5,4.1C61.2,31.6,62.2,28.7,62.9,28.7z"/>
					<path class="st0" d="M29.4,28.7c0.1-5.2-0.2-9.4,3.6-13.6c3.8-4.1,10-5.5,15.3-4.6c1.4,0.2,8.2,1.6,6.2,4.1
						c-0.1,0.1-0.2,0.2-0.3,0.3c-0.4,0.3-0.8,1.2-0.2,1.8c0.8,0.8,0.5,2.3-0.1,3.2c-1,1.4-2.5,2.3-4.1,2.8c-1.6,0.5-3.4,0.5-5.1,0.4
						c-1.4-0.1-3-0.2-4.1,0.7c-1.3,1-1.5,2.8-2.1,4.2c-1.2,2.8-4.5,4.6-7.5,4.1C31.1,31.6,30.1,28.7,29.4,28.7z"/>
				</g>
				<path class="st0" d="M62.9,25.4c-0.3-3.8-1.9-7.6-4.8-10.2c-3.2-2.8-7.7-3.3-11.9-3.3c-3.4,0-6.8,0.4-9.9,1.8
					c-4.5,2-6.5,6.9-6.9,11.6c-0.3,4.1,0.4,8.2,1.2,12.2c0,0,15.5,1,15.5,1c0,0,0,0,0,0c0,0,0,0,0,0c5.2-0.3,10.4-0.7,15.5-1
					C62.5,33.5,63.3,29.5,62.9,25.4z"/>
				<path class="st4" d="M59.5,28.4c-1.6-4.9-4.8-8.5-8.4-9.3c-0.4-0.1-0.9-0.2-1.3-0.2c-1.2,0-5.8,0-7,0c-0.5,0-0.9,0.1-1.3,0.2
					c-3.6,0.8-6.9,4.4-8.4,9.3c-1.3,4.2-1.4,9-1,13.5c0.4,3.9,0.9,5.5,2.6,8.5c1.8,3.3,4.3,5.8,6.9,7.6c1.2,0.8,2.5,1.6,3.8,1.9
					c0.1,0,0.3,0.1,0.4,0.1c0.2,0,0.4,0,0.5,0c0.2,0,0.4,0,0.5,0c0.2,0,0.3-0.1,0.4-0.1c1.3-0.3,2.6-1.2,3.8-1.9
					c2.6-1.8,5.1-4.2,6.9-7.6c1.7-3,2.2-4.6,2.6-8.5C60.9,37.4,60.8,32.6,59.5,28.4z"/>
				<path class="st0" d="M41.3,35.4c0,1.2-0.5,2.1-1.2,2.1c-0.7,0-1.2-0.9-1.2-2.1c0-1.2,0.5-2.1,1.2-2.1
					C40.7,33.3,41.3,34.3,41.3,35.4z"/>
				<path class="st0" d="M51,35.4c0,1.2,0.5,2.1,1.2,2.1c0.7,0,1.2-0.9,1.2-2.1c0-1.2-0.5-2.1-1.2-2.1C51.6,33.3,51,34.3,51,35.4z"
					/>
				<g>
					<path class="st4" d="M32.5,36.7c-0.1-0.8-0.4-1.6-1-2c-0.5-0.3-0.9-0.6-1.4-0.8c-0.8-0.3-1.8-0.2-2.4,0.7
						c-0.7,0.9-0.7,2.4-0.5,3.7c0.5,2.7,1.9,4.9,3.5,6.5c0.3,0.3,0.7,0.4,1,0.4c0.9-0.2,1-1.5,1-2.5C32.7,40.7,32.6,38.7,32.5,36.7z
						"/>
				</g>
				<g>
					<path class="st4" d="M59.8,36.7c0.1-0.8,0.4-1.6,1-2c0.5-0.3,0.9-0.6,1.4-0.8c0.8-0.3,1.8-0.2,2.4,0.7c0.7,0.9,0.7,2.4,0.5,3.7
						c-0.5,2.7-1.9,4.9-3.5,6.5c-0.3,0.3-0.7,0.4-1,0.4c-0.9-0.2-1-1.5-1-2.5C59.6,40.7,59.7,38.7,59.8,36.7z"/>
				</g>
				<g>
					<path class="st0" d="M44.5,42.7c-0.1,0.5,0.2,0.8,0.4,0.9c0.3,0.1,0.6,0.1,0.8,0.1c0.6,0,1.1,0.1,1.7,0c0.1,0,0.3-0.1,0.3-0.3
						c0.1-0.2,0.1-0.5,0-0.7c0-0.1-0.1-0.2-0.2-0.1c-0.1,0.1-0.1,0.2,0,0.4c0,0,0,0.1,0,0.1c0,0.1-0.1,0.1-0.1,0.1
						c-0.1,0-0.3,0-0.4,0c-0.3,0-0.6,0-0.8,0c-0.3,0-0.6,0-0.8-0.1c-0.1,0-0.3,0-0.4,0c-0.1,0-0.2-0.1-0.2-0.3
						C44.8,42.5,44.6,42.4,44.5,42.7L44.5,42.7z"/>
				</g>
				<g>
					<path class="st0" d="M48.2,16.2c-3.6,7.4-10.4,13.1-18.3,15.3c1.2-4.3,2.4-8.7,3.6-13C38.4,17.8,43.3,17,48.2,16.2z"/>
				</g>
				<g>
					<path class="st0" d="M41.5,51.1c2.9-1.8,6.6-1.7,9.4,0.2c0.4,0.3,0.8-0.4,0.4-0.7c-3-2-7-2.1-10.2-0.2
						C40.7,50.7,41.1,51.3,41.5,51.1L41.5,51.1z"/>
				</g>
				<g>
					<path class="st0" d="M41,30.2c-1.2,1.2-2.9,1.9-4.6,1.8c-0.6,0-0.6,0.9,0,1c1.9,0.1,3.9-0.7,5.2-2.1
						C42.1,30.5,41.4,29.8,41,30.2L41,30.2z"/>
				</g>
				<g>
					<path class="st0" d="M51.3,30.2c1.2,1.2,2.9,1.9,4.6,1.8c0.6,0,0.6,0.9,0,1c-1.9,0.1-3.9-0.7-5.2-2.1
						C50.2,30.5,50.9,29.8,51.3,30.2L51.3,30.2z"/>
				</g>
			</g>
		</g>
		<g>
			<g>
				<path class="st4" d="M76.5,122.2c3.7,0,12.6,0,16.3,0c0,0,1.5-21.5,2.7-31.2c7.3-2.1,16.3-8.9,16.7-9.2c0.5-0.3,0.9-0.5,1.4-0.8
					c0.5-0.3,1.6-0.7,1.9-1.4c0.1-0.2,0.1-0.4,0.1-0.6c0,0,0-0.1,0-0.1c0-0.1-0.1-0.2-0.2-0.3c-0.1-0.1-0.3-0.2-0.5-0.3
					c-0.5-0.2-1.2-0.1-1.6,0c-0.2,0.1-0.3,0.1-0.5,0.2c1.1-0.7,2.2-1.3,3.3-2c0.5-0.3,1-0.8,1-1.5c0-0.8-0.7-1.2-1.4-1.1
					c-0.4,0-0.8,0.2-1.2,0.4c-0.7,0.4-1.4,0.8-2.1,1.1c0.3-0.2,0.6-0.4,0.8-0.5c1.2-0.7,2.4-1.4,3.5-2.2c0.5-0.4,0.9-1,0.7-1.6
					c-0.2-0.5-0.6-0.9-1.1-0.9c-1.1-0.1-2.1,0.4-3.1,1c0,0-0.1,0-0.1,0.1c0.4-0.3,0.8-0.8,0.7-1.3c-0.1-0.5-0.7-0.9-1.2-0.9
					c-0.5,0-1.1,0.2-1.6,0.4c-1.6,0.8-11.3,4.7-14.9,6.1c-0.4,0.1-0.7,0.3-1.1,0.4c0,0,0,0-0.1,0c0.1-0.4,0.2-0.9,0.3-1.3
					c0.4-1.8,0.9-3.5,1.2-5.3c0-0.1,0-0.2,0.1-0.4c0.2-0.8,0.4-1.8-0.1-2.4c-0.1-0.1-0.2-0.2-0.3-0.3c-0.8-0.6-1.6,0.8-2,1.6
					c-1,2.1-2.1,4.2-3.1,6.3c-1,2-2.3,3.8-3.5,5.7c-0.3,0.5-0.5,0.9-0.8,1.4c0,0,0,0.1-0.1,0.1c-1.5,1.7-1.6,4-0.7,5.9
					C82.7,98.9,79.6,110.6,76.5,122.2z M110.9,72.5c-0.9,0.5-1.8,1.1-2.7,1.6c0.8-0.4,1.5-0.9,2.3-1.3
					C110.6,72.6,110.8,72.5,110.9,72.5z"/>
				<g>
					<path class="st5" d="M101.1,74.7c-0.3-0.2,0-0.6,0.3-0.4c0.7,0.5,1.4,1.1,2.1,1.7c1.5-1.1,3.2-1.9,4.8-2.7
						c1.7-0.8,3.4-1.6,5.2-2.3c0.3-0.1,0.4,0.4,0.1,0.5c-1.7,0.7-3.4,1.5-5.1,2.3c-1.6,0.8-3.2,1.6-4.6,2.6c0.3,0.3,0.7,0.7,1,1
						c0.3,0.4,0.6,0.8,0.9,1.2c2.7-1.8,5.7-3.2,8.8-4.4c0.3-0.1,0.4,0.4,0.1,0.5c-3,1.1-5.9,2.6-8.6,4.3c0.4,0.6,0.8,1.3,1,2
						c1.8-1,3.7-1.8,5.7-2.6c0.3-0.1,0.4,0.4,0.1,0.5c-2,0.7-3.9,1.6-5.8,2.6c-0.1,0.1-0.2,0-0.3,0c0,0-0.1-0.1-0.1-0.1
						c-0.5-1.4-1.3-2.7-2.3-3.8C103.5,76.5,102.3,75.6,101.1,74.7z"/>
					<path class="st5" d="M96.5,83.6c1.5-1,3.2-1.4,5-1.5c1-0.1,2.1,0,3.1,0c0.3,0,0.3,0.5,0,0.5c-1.7-0.1-3.5-0.1-5.2,0.2
						c-1.6,0.4-3,1.1-4,2.4c-0.6,0.7-1,1.4-1.3,2.2c-0.1,0.3-0.6,0.2-0.5-0.1C94.2,85.8,95.2,84.5,96.5,83.6z"/>
					<path class="st5" d="M86.7,88.9c2.4,0.2,4.6,1.1,6.4,2.7c0.3,0.2-0.1,0.6-0.4,0.4c-1.7-1.4-3.8-2.3-6-2.5
						C86.4,89.4,86.4,88.9,86.7,88.9z"/>
				</g>
			</g>
		</g>
	</g>
	<g>
		<g>
			<path class="st6" d="M15.2,5.1C15.2,5.1,15.2,5.1,15.2,5.1c1.9-1.2,4.7,0.7,5,3.4c0,0,0,0,0,0c0.2,2,0.4,4,0.7,6
				c-1.7-1.1-3.3-2.3-5-3.4c0,0,0,0,0,0C13.6,9.6,13.3,6.3,15.2,5.1C15.2,5.1,15.2,5.1,15.2,5.1z"/>
		</g>
		<g>
			<path class="st6" d="M6.4,14.6C6.4,14.6,6.4,14.6,6.4,14.6c1.2-1.9,4.5-1.4,6,0.8c0,0,0,0,0,0c1.1,1.7,2.2,3.4,3.3,5.1
				c-2-0.3-4-0.5-6-0.8c0,0,0,0,0,0C7,19.3,5.2,16.5,6.4,14.6C6.4,14.6,6.4,14.6,6.4,14.6z"/>
		</g>
		<g>
			<path class="st6" d="M1.3,25.8C1.3,25.8,1.3,25.8,1.3,25.8c0.3-2.2,3.5-3.2,5.8-1.7c0,0,0,0,0,0c1.7,1.1,3.4,2.2,5.1,3.3
				c-1.9,0.6-3.9,1.2-5.8,1.7c0,0,0,0,0,0C3.8,29.8,1,28,1.3,25.8C1.3,25.8,1.3,25.8,1.3,25.8z"/>
		</g>
	</g>
</g>
</svg>
