<?xml version="1.0" encoding="utf-8"?>
<!-- Generator: Adobe Illustrator 28.1.0, SVG Export Plug-In . SVG Version: 6.00 Build 0)  -->
<svg version="1.1" id="レイヤー_1" xmlns="http://www.w3.org/2000/svg" xmlns:xlink="http://www.w3.org/1999/xlink" x="0px"
	 y="0px" viewBox="0 0 131.1 29.5" style="enable-background:new 0 0 131.1 29.5;" xml:space="preserve">
<style type="text/css">
	.st0{fill-rule:evenodd;clip-rule:evenodd;fill:#008CFF;}
</style>
<g>
	<path class="st0" d="M106.7,8.8c0.5,0.9,0.7,1.8,0.7,3l0.1,1.5v10.3l0.1,1.5c0.1,2.4,1.9,4.2,4.4,4.3l1.5,0.1V13.3l0.1-1.5
		c0.1-1.1,0.2-2.1,0.7-3c1.6-2.8,5.2-3.8,8-2.1c0.9,0.5,1.6,1.3,2.1,2.2c0.5,0.9,0.7,1.9,0.7,2.9l0.1,1.5v10.3l0.1,1.5
		c0.2,2.4,1.9,4.2,4.4,4.3l1.5,0.1V11.8c0-6.5-5.3-11.8-11.8-11.8c-3.4,0-6.6,1.5-8.8,4c-2.2-2.5-5.5-4-8.8-4c-2.4,0-4.7,0.7-6.6,2
		c-1.1-1.3-3.7-2-5.2-2v29.5l1.5-0.1c2.5-0.2,4.2-1.9,4.3-4.3l0.1-1.5V13.3l0.1-1.5c0.1-1.1,0.2-2.1,0.7-3c1.1-1.8,3-2.9,5.1-2.9
		C103.7,5.9,105.7,7,106.7,8.8L106.7,8.8z M5.9,29.4l1.5,0.1h22.1L29.4,28c-0.2-2.4-1.9-4.2-4.3-4.3l-1.5-0.1H10.3L28,5.9l-0.1-1.5
		C27.8,2,26,0.2,23.6,0.1L22.1,0L0,0l0.1,1.5C0.3,3.9,2,5.7,4.4,5.8l1.5,0.1h13.3L1.5,23.6L1.5,25C1.7,27.5,3.4,29.2,5.9,29.4
		L5.9,29.4z M84.1,4.3c5.8,5.8,5.8,15.1,0,20.8c0,0,0,0,0,0c-5.8,5.8-15.1,5.8-20.8,0c-5.8-5.8-5.8-15.1,0-20.8
		C66,1.6,69.7,0,73.6,0C77.6,0,81.3,1.5,84.1,4.3L84.1,4.3z M79.9,8.5c3.5,3.5,3.5,9,0,12.5c-3.5,3.5-9,3.5-12.5,0
		c-3.5-3.5-3.5-9,0-12.5C70.9,5,76.5,5,79.9,8.5L79.9,8.5z M42.7,0c3.9,0,7.6,1.6,10.4,4.3c5.8,5.8,5.8,15.1,0,20.8
		c-5.8,5.8-15.1,5.8-20.8,0c-5.8-5.8-5.8-15.1,0-20.8C35.1,1.6,38.8,0,42.7,0L42.7,0L42.7,0z M49,8.5c3.5,3.5,3.5,9,0,12.5
		c-3.5,3.5-9,3.5-12.5,0c-3.5-3.5-3.5-9,0-12.5C39.9,5,45.5,5,49,8.5L49,8.5z"/>
</g>
</svg>
