<?xml version="1.0" encoding="utf-8"?>
<!-- Generator: Adobe Illustrator 28.1.0, SVG Export Plug-In . SVG Version: 6.00 Build 0)  -->
<svg version="1.1" id="レイヤー_1" xmlns="http://www.w3.org/2000/svg" xmlns:xlink="http://www.w3.org/1999/xlink" x="0px"
	 y="0px" viewBox="0 0 172.9 60" style="enable-background:new 0 0 172.9 60;" xml:space="preserve">
<style type="text/css">
	.st0{fill:#E83C00;}
	.st1{fill:#002843;}
</style>
<g>
	<path class="st0" d="M17.2,40.3c-5.6,0-10.2-4.6-10.2-10.2c0-5.7,4.5-10.2,10.2-10.2c5.6,0,10.2,4.6,10.2,10.2
		C27.4,35.7,22.8,40.3,17.2,40.3z M44.8,26.1L34,32.3l0-0.3l0-0.3l0-0.4l0,0l0,0l0-0.5l0-0.6l0-0.4l0-0.6l0-0.6L34,28l0-0.3
		l-0.1-0.6l-0.1-0.6L33.7,26l-0.1-0.5l-0.1-0.3l-0.2-0.5L33.1,24L33,23.6l-0.2-0.5l-0.2-0.5l-0.2-0.5l-0.2-0.5l-0.3-0.5l0,0
		l-0.3-0.5l-0.3-0.4l-0.3-0.4l-0.3-0.4L30.2,19l0,0l-0.4-0.4l-0.4-0.4L29,17.7l-0.4-0.4l0,0L28,16.8l-0.5-0.4L27,16l-0.6-0.4
		l-0.6-0.4l-0.5-0.3l-0.7-0.5l-0.8-0.5l-0.3-0.2l-1-0.6L22.4,13l-0.6-0.4L0.1,0v7.9l10.7,6.2l-0.3,0.1l-0.2,0.1l-0.4,0.2l0,0l0,0
		l-0.5,0.2l-0.5,0.3l-0.4,0.2L8,15.7L7.6,16l-0.5,0.3l-0.3,0.2l-0.5,0.4l-0.4,0.4l-0.4,0.4L5.1,18l-0.2,0.2l-0.4,0.4l-0.4,0.4
		l-0.3,0.3l-0.3,0.4l-0.3,0.4l-0.3,0.4l-0.3,0.5l-0.3,0.5l0,0l-0.2,0.5l-0.2,0.5l-0.2,0.5l-0.2,0.5l-0.2,0.5l0,0.1L1,24.8l-0.2,0.6
		l-0.1,0.6l-0.1,0.6l0,0l-0.1,0.6l-0.1,0.6l-0.1,0.6l-0.1,0.7l-0.1,0.7l0,0.6l0,0.8l0,0.9l0,0.3l0,1.1L0,34l0,0.7V60l6.8-4V43.5
		l0.2,0.2l0.2,0.2l0.4,0.2l0,0l0,0l0.4,0.3l0.5,0.3L9,44.9l0.5,0.3l0.5,0.2l0.5,0.2l0.3,0.1l0.5,0.2l0.5,0.2l0.5,0.2l0.5,0.2
		l0.3,0.1l0.5,0.1l0.5,0.1l0.4,0.1l0.5,0.1l0.5,0.1l0.5,0l0.5,0l0.5,0l0,0l0.5,0l0.5,0l0.5-0.1l0.5-0.1l0.6-0.1l0,0l0.6-0.1l0.6-0.1
		l0.6-0.2l0.6-0.2l0,0l0.6-0.2l0.6-0.2l0.6-0.2l0.6-0.3l0.7-0.3l0.5-0.2l0.7-0.4l0.8-0.4l0.3-0.1l1-0.6l0.2-0.1l0.6-0.4L51.6,30
		L44.8,26.1L44.8,26.1z"/>
	<path class="st1" d="M85.3,16c-7.6-0.1-13.9,5.9-14,13.6c0,0.2,0,0.5,0,0.7v27.1l7-4v-12c2,1.5,4.5,2.3,7.1,2.3
		c7.6,0.2,14-5.9,14.2-13.6s-5.9-14-13.6-14.2C85.8,16,85.6,16,85.3,16L85.3,16z M85.3,36.7c-3.8,0-6.9-3.1-6.9-6.9
		c0-3.8,3.1-6.9,6.9-6.9c3.8,0,6.9,3.1,6.9,6.9l0,0c0.2,3.6-2.6,6.7-6.2,6.9C85.7,36.7,85.5,36.7,85.3,36.7z M133.5,7.2l7-4.1v39.5
		h-7V7.2z M116,16c-7.6,0.1-13.8,6.3-13.7,14c0.1,7.6,6.3,13.8,14,13.7c7.6-0.1,13.7-6.2,13.7-13.9c0-7.6-6.1-13.8-13.7-13.9
		C116.2,16,116.1,16,116,16L116,16z M116,36.7c-3.8,0-6.9-3.1-6.9-6.9c0-3.8,3.1-6.9,6.9-6.9c3.8,0,6.9,3.1,6.9,6.9l0,0
		c0.2,3.6-2.6,6.7-6.2,6.9C116.4,36.7,116.2,36.7,116,36.7L116,36.7z M172.9,17l-16.5,37.6h-7.5l5.7-12.6L143.5,17h7.6l7.2,16.4
		l6.9-16.4H172.9z"/>
</g>
</svg>
