<?xml version="1.0" encoding="utf-8"?>
<!-- Generator: Adobe Illustrator 26.5.3, SVG Export Plug-In . SVG Version: 6.00 Build 0)  -->
<svg version="1.1" id="レイヤー_1" xmlns="http://www.w3.org/2000/svg" xmlns:xlink="http://www.w3.org/1999/xlink" x="0px"
	 y="0px" viewBox="0 0 230 20" style="enable-background:new 0 0 230 20;" xml:space="preserve">
<style type="text/css">
	.st0{fill:#A0D9D6;}
	.st1{fill:#231815;}
</style>
<g id="Layer_2_00000083050545320076377070000005079419001673723839_">
	<g id="レイヤー_1_00000076579304211556132650000003067327980727851709_">
		<path class="st0" d="M13.2,8l2.6,1.9l-2.6,1.9l-2.6-1.9L13.2,8z M0,10.8l4.8,3.6l1.1-0.9l2.6,1.9l-1.1,0.9l4.8,3.6l1.1-0.9
			l1.1,0.9l4.8-3.6L18,15.5l2.6-1.9l1.1,0.9l4.8-3.6L25.3,10l1.1-0.9l-4.8-3.6l-1.1,0.9L18,4.4l1.1-0.9L14.4,0l-1.1,0.9L12.1,0
			L7.2,3.6l1.1,0.9L5.9,6.3L4.8,5.5L0,9.1L1.1,10L0,10.8z"/>
		<path class="st1" d="M117.8,13.7h1.1v-1.6h-1.1V9.7h-6.9V8.8h6.3V4.9h-6.3V4.1h8V2.3h-8V0.8h-2.1v1.5h-8v1.8h8v0.9h-6.3v3.9h6.3
			v0.9h-6.7v1.5h6.7v1h-8v1.6h8v1h-6.7v1.6h6.7v1.1h-2.4v1.8h2.4c1.7,0,2.1-0.3,2.1-1.9v-0.9h6.9V13.7z M115,6.3v1h-4.1v-1H115z
			 M104.6,7.3v-1h4.1v1H104.6z M110.8,11.1h4.8v1h-4.8V11.1z M115.6,14.6h-4.8v-1h4.8V14.6z"/>
		<path class="st1" d="M97.8,4.1v-2h-8V0.8h-2.1v1.3h-8v1.9h4.1L84.2,6h-3.7v13h2.1v-6.3c2.8-0.8,4.6-2.3,5.3-4.8h1.1v2
			c0,0.4,0.1,0.7,0.4,1c0.3,0.3,0.6,0.4,1.1,0.4h4.4v5.6h-1.5v2.1h1.3c1.6,0,2.1-0.5,2.1-2.2V6H93l0.5-1.9L97.8,4.1z M82.6,10.7V8
			h3.1C85.2,9.4,84.1,10.5,82.6,10.7L82.6,10.7z M86.3,6l-0.5-1.9h5.5L90.7,6H86.3z M94.8,8v1.6h-3.7V8H94.8z"/>
		<path class="st1" d="M92.6,12.2h-8v5.6h8V12.2z M86.7,16v-2.1h3.8V16H86.7z"/>
		<path class="st1" d="M71.3,15.2c2.1-2,3.4-4.8,3.7-7.8h-10c0.1-0.6,0.2-1.3,0.2-1.9h11.5V3.4H65.2V0.8H63v2.6h-4.6v2.1h4.5
			c-0.3,4.3-1.9,7.7-4.5,10.1l0.1,2.7c2.3-1.5,4.1-3.7,5.2-6.2c0.4-0.9,0.7-1.7,0.9-2.6h0.2c0.5,2.1,1.6,4.1,3.1,5.6
			c-1.6,1-3.3,1.5-5.1,1.7v2.1c2.5-0.2,4.8-1,6.8-2.4c2.1,1.4,4.5,2.2,7,2.4v-2.1C74.7,16.7,73,16.2,71.3,15.2z M67,9.7h5.5
			c-0.5,1.7-1.5,3.1-2.8,4.3C68.4,12.8,67.4,11.3,67,9.7L67,9.7z"/>
		<polygon class="st1" points="50.3,16.5 50.3,12.2 54.5,12.2 54.5,10 50.3,10 50.3,6.4 54.9,6.4 54.9,4.2 43.4,4.2 43.4,6.4 
			48.1,6.4 48.1,10 43.8,10 43.8,12.2 48.1,12.2 48.1,16.5 42.8,16.5 42.8,18.6 55.4,18.6 55.4,16.5 		"/>
		<path class="st1" d="M43.3,0.8h-2.2c-0.4,3-1.8,5.7-3.9,7.8l0.1,2.8c0.9-0.6,1.7-1.3,2.4-2.1v9.9h2.2V5.7
			C42.6,4.1,43.1,2.5,43.3,0.8z"/>
		<polygon class="st1" points="50.5,3.4 49.8,0.8 47.6,0.8 48.3,3.4 		"/>
		<path class="st1" d="M204.3,2.6c0.2-0.4,0.4-0.8,0.4-1.2h-3.2c-0.8,3-2.7,5.3-6.5,6.7v2.6c3.3-0.8,6.1-2.8,7.9-5.6h6.4
			c-0.5,5.7-2.6,10.5-13.1,11.3V19c10.6-0.6,16-5.6,16-16.2V2.6H204.3z"/>
		<path class="st1" d="M230,18.7c-1.3-2.8-2.9-5.5-4.8-8c1.7-2.6,2.6-5.7,2.8-8.9h-12.9v2.6h9.7c-0.8,4.6-4.2,9.8-11.4,12V19
			c4-0.8,7.6-3,10.1-6.1c1.1,1.9,2.2,3.8,3.1,5.8L230,18.7z"/>
		<path class="st1" d="M148.7,9.7h0.2V7.3h-0.2c-1.9-0.4-5.2-0.9-7.1-1.1h-0.2v2.5h0.2C143.5,8.9,147,9.4,148.7,9.7z"/>
		<path class="st1" d="M148.7,5.4h0.2V2.9h-0.2c-1.9-0.4-5.2-0.9-7.1-1.1h-0.2v2.5h0.2C143.5,4.5,147,5,148.7,5.4z"/>
		<path class="st1" d="M155.4,5.7c-1.4,6.5-5.4,8.7-12.3,9.9c-0.4,0.1-1,0.1-1.4,0.1h-0.2v2.8h0.2c0.6,0,1.1-0.1,1.6-0.2
			c7.8-1,13.5-4.6,14.8-12.5V5.6L155.4,5.7L155.4,5.7z"/>
		<path class="st1" d="M171,10.4c1.9-1.8,3.2-4,3.8-6.5l0.1-0.2h-5.4V1.3H167v2.4h-6.5v2.5h11c-1.6,3.2-6,5.6-12,6.6h-0.2v2.6h0.2
			c2.6-0.4,5.1-1.1,7.5-2.3v5.8h2.5v-6.5c2.4,0.7,4.8,1.6,6.9,2.8l0.3,0.1v-2.8l-0.1-0.1C174.8,11.6,173,10.9,171,10.4z"/>
		<path class="st1" d="M179.4,11.4c-0.2-1.9-0.7-5.1-1-6.8h2.5c0.4,1.9,0.8,4.8,1,6.8H179.4z"/>
		<path class="st1" d="M183.5,11.4c-0.2-1.9-0.7-5.1-1-6.8h2.4c0.4,1.9,0.8,4.8,1,6.8H183.5z"/>
		<path class="st1" d="M190,4.9c0,6.8-3.3,10.3-10,11.5v2.7c7.4-1,12.6-5.4,12.6-14.2H190z"/>
		<path class="st1" d="M138.3,2.2V2h-16.5v2.5h13.5c-0.4,3.7-1.6,6.7-4.9,8.8c-2.3-1.1-4.8-2.1-7-2.8v2.6c3.2,1.3,7.9,3.5,12.8,6
			v-2.7c-0.9-0.5-1.9-1.1-3.2-1.8C136.3,12,138.3,8.1,138.3,2.2z"/>
	</g>
</g>
</svg>
