<?xml version="1.0" encoding="utf-8"?>
<!-- Generator: Adobe Illustrator 28.1.0, SVG Export Plug-In . SVG Version: 6.00 Build 0)  -->
<svg version="1.1" id="レイヤー_1" xmlns="http://www.w3.org/2000/svg" xmlns:xlink="http://www.w3.org/1999/xlink" x="0px"
	 y="0px" viewBox="0 0 420.1 146.6" style="enable-background:new 0 0 420.1 146.6;" xml:space="preserve">
<style type="text/css">
	.st0{fill:#FFFFFF;}
</style>
<g>
	<g>
		<g>
			<path class="st0" d="M3.4,13.6V7.8h16.6V2.1h6v5.7h8.2v5.7h-8.2l0,15.4c0,5.4-4.6,5.4-6.4,5.4c-1.1,0-2.1,0-5-0.1l-0.9-5.9
				c2,0.2,3.7,0.3,4.5,0.3c1,0,1.7-0.2,1.7-1.3l0-8.5c-2.5,3.3-7,7.9-14.8,12l-3.6-4.7C8,23.3,13.5,18.9,18,13.6H3.4z"/>
			<path class="st0" d="M69.5,4.1c-0.6,12-3.4,25.8-24.7,30.2l-2.7-5.7c15.1-2.8,19.1-9.8,20.4-18.5h-23v-6H69.5z"/>
			<path class="st0" d="M91.4,34.8h-5.6V22.6c-3.3,1.9-6.6,3.4-10.1,4.6l-2.5-4.9c8.2-2.4,16.6-7.8,22.2-14.9l4.6,3.5
				c-3.2,3.7-6.1,6.1-8.6,8V34.8z"/>
			<path class="st0" d="M132,3.5c-1.4,7.9-4.3,12.7-6.5,15.9c4.9,3.7,7.6,5.9,12,10.3l-5.1,5c-2.1-2.4-5.7-6.4-10.6-10.7
				c-2.4,2.5-7.4,7.5-14.4,10.5l-3.4-5.1c5-2.1,9.3-5,13.1-8.9c3.5-3.6,5.5-7.2,7-11.2h-17.9V3.5H132z"/>
			<path class="st0" d="M149.6,35c-1.8-2.7-4.3-6-7.5-9.4l4.8-3.2c2.8,2.4,6.4,6.7,8.2,9L149.6,35z"/>
			<path class="st0" d="M158.9,15.5c2.7-3.1,5.6-7.4,6.7-15.4l5.6,0.2c-0.2,1.3-0.3,2.3-0.6,3.8h10.3c-0.2,2-0.4,4.5-0.9,7.9
				l2.6-2.5c0.5,0.8,1,1.6,2.1,3V0.3h5.8v17.4c2.7,1.7,4.7,2.5,5.9,3l-1.8,6.5c-1.1-0.6-2-1-4-2.2V36h-5.8V20.5
				c-0.8-0.7-2.6-2.5-5.2-6.2c-1.5,7.3-4.7,15.6-16.2,22.2l-3.9-5c2.7-1.4,7.3-3.9,10.8-8.9c-1.4-1.3-3.7-3.3-5.5-4.5
				c-1.2,1.6-1.7,2.1-2.4,2.8L158.9,15.5z M169,9.5c-0.8,2.1-0.9,2.4-1.5,3.7c1.6,1,4.1,2.9,5.5,4.1c1.3-3.3,1.6-5.9,1.9-7.8H169z"
				/>
			<path class="st0" d="M206.4,3.2v9.2h6.7V0.2h5.7v12.3h6.7V3.2h5.8v14.7h-12.5v11.9h8v-9.7h5.8v15.2h-33.2V20.1h5.7v9.7h8V17.9
				h-12.4V3.2H206.4z"/>
			<path class="st0" d="M240.9,14.4l-4.3-3c3.5-3.6,5.2-7.5,5.9-10.9l6.1,0.9c-0.2,0.9-0.4,1.6-0.8,3.1h4.3V0.1h6.2v4.3h12.9V10
				h-12.9v4.3h14.4V20h-10.6v8.8c0,1,0.5,1,0.9,1h2.7c0.9,0,1.1-0.6,1.2-1.1c0-0.3,0.3-2,0.3-3.8l5.7,1.3c-0.1,2-0.4,5.8-1.1,7.3
				c-1,2.3-2.9,2.3-3.2,2.3h-9.1c-1.2,0-3.4-0.8-3.4-3.4V20h-4c-0.1,9.5-5.4,14.5-13.1,16.6l-3.2-5.7c7.6-1.6,10.3-4.6,10.3-10.9
				h-9.7v-5.7H240.9z M252.1,14.4V10h-6.8c-1.1,2.1-2.2,3.5-2.8,4.3H252.1z"/>
			<path class="st0" d="M283.4,35c-1.8-2.7-4.3-6-7.5-9.4l4.8-3.2c2.8,2.4,6.4,6.7,8.2,9L283.4,35z"/>
			<path class="st0" d="M306.9,3.9c0.5-1.3,0.9-3.3,1.1-3.9l6.7,0.2c-0.2,0.8-0.9,2.7-1.4,3.7H327v31.7h-30.9V3.9H306.9z M321.2,9.1
				h-19.2v3.8h19.2V9.1z M321.2,17.7h-19.2v3.9h19.2V17.7z M321.2,26.4h-19.2v4h19.2V26.4z"/>
			<path class="st0" d="M343.7,16.5c-4.2,0.4-5.6,0.5-7,0.6l-1.3-4.3h-3.2V2.9h14V0.2h5.8v2.7h14.1v9.9h-5l0.4,0.6
				c-4.3,1.3-7.3,1.6-12.1,2.3v3.2l17.3-1.8l0.3,5.2l-17.7,1.9v4.6c0,0.9,0.1,1.6,1.6,1.6h7.8c0.4,0,0.9-0.3,1.1-1.1
				c0.1-0.3,0.3-3,0.3-4.4l5.8,1.3c-0.2,5.9-0.3,9.5-4.4,9.5h-13.9c-3,0-4-1.8-4-3.9v-7l-12.1,1.3l-0.4-5.3l12.5-1.3V16.5z
				 M360.5,11.7V7.9H338v3.8c3.9-0.2,14.3-1.2,20.5-3.2L360.5,11.7z"/>
			<path class="st0" d="M378,35c-1.8-2.7-4.3-6-7.5-9.4l4.8-3.2c2.8,2.4,6.4,6.7,8.2,9L378,35z"/>
			<path class="st0" d="M32,71.2c-6.6,0.6-20.9,3-20.9,8.6c0,3.3,4.1,3.4,9.7,3.4c2.2,0,6.8,0,12.3-0.6l0,6.2
				c-2.1,0.2-5.4,0.4-10.6,0.4c-6,0-17.9,0-17.9-9c0-5.3,4.9-8.7,9.2-10.8c-0.6-0.9-1-1.8-1.3-3.4c-0.3-2.3-0.3-5.3-0.3-9h6.5
				c0,1.4-0.1,2.4-0.1,5.1c0,2.7,0,4.1,0.7,5.3c2.7-0.8,5.5-1.5,12-2.4L32,71.2z M27.5,54.8c1.2,1.9,2.1,4,3.3,7.6l-3.6,1.4
				c-0.9-3.1-1.7-5.1-3.1-7.7L27.5,54.8z M33.7,54.4c1.6,2.7,2.5,5.4,3.3,7.6l-3.6,1.3c-1-3.2-1.5-4.9-3.1-7.7L33.7,54.4z"/>
			<path class="st0" d="M48,74.9c-1.4,1.8-1.4,3.3-1.4,3.8c0,3.8,6,3.8,9.2,3.8c7.4,0,11.3-0.4,13-0.6l0,6.2
				c-2,0.2-5.3,0.4-10.5,0.4c-6.9,0-18.1,0-18.1-9.1c0-2.8,1-4.9,2.7-7.1L48,74.9z M66.9,64.2c-4.1,0.5-9.2,2.4-12.9,4.8L49.4,66
				c1.6-1,2.2-1.3,3.8-2c-1.8,0-9.6,0.2-11.2,0.3l0-5.9c1.3,0,2.5,0,4.1,0c3.9,0,19.8,0,20.8,0V64.2z"/>
			<path class="st0" d="M73.7,86.5c2.5-4.1,4.7-10.1,6.3-17.9l-5.1,0v-5.8h6c0.3-2.5,0.5-4.5,0.6-6.5l6.3,0.3
				c-0.3,2.3-0.4,3.5-0.8,6.1h3c6.1,0,8.2,3.5,8.2,11.1c0,3-0.5,8.2-1.8,11.2c-1.5,3.3-4.1,4-7.3,4c-2,0-3.5-0.2-4-0.3l-0.5-6
				c1,0.2,2.4,0.4,3.6,0.4c1.7,0,2.4-0.6,2.9-1.8c0.9-2.5,1.3-5.7,1.3-8.3c0-3.4-0.5-4.8-3.6-4.8H86c-1.2,6-3.3,15.3-6.5,20.8
				L73.7,86.5z M101.9,78c-0.1-8-2.2-12.3-4.4-15.5l5.2-2.5c2,2.7,5,7.3,5.5,17L101.9,78z"/>
			<path class="st0" d="M120.6,63.5c-0.5,2.2-0.8,3.7-0.9,8c1.2-0.7,5.4-3.2,11.1-3.2c8.3,0,10.5,5.7,10.5,9.6
				c0,9.9-9.6,11.5-18.4,11.5c-3.5,0-5.2-0.2-6.7-0.3l-0.7-5.9c1.5,0.2,4.5,0.5,7.8,0.5c9.6,0,11.8-2.8,11.8-6c0-3.8-4-4.1-5.1-4.1
				c-3.8,0-8.1,1.6-10.4,4.2c0,0.6,0,0.8,0,1.1l-6-0.2c0.1-9.9,0.4-11.7,0.9-15.6L120.6,63.5z M135.3,64.8
				c-3.9-1.6-9.4-2.7-16.5-3.2l1.1-5.6c3.6,0.1,10,0.4,16.9,2.4L135.3,64.8z"/>
			<path class="st0" d="M175.9,64.2c-1.2-0.1-2.2-0.1-3.1-0.1c-1.3,0-3.2,0.1-4.6,0.5c-5.4,1.6-11.5,7.2-11.5,12.5
				c0,3.6,2.9,5.7,12.6,5.7c1.8,0,2.7-0.1,3.4-0.1l-0.8,6.5c-4.5,0-8.2-0.1-12.3-1.1c-8-2-9.2-7.6-9.2-10.6c0-5.2,3.3-9.6,8.1-12.8
				c-3.4,0.3-12,1-14.9,1.4l-0.3-6.5c2.5,0,3.6-0.1,8-0.4c8.1-0.5,15.5-0.8,24.3-1L175.9,64.2z M168.2,68c1.7,2.1,2.9,4.2,4.3,7.1
				l-3.3,1.9c-1.3-3-2.3-4.8-4.1-7.3L168.2,68z M173.4,65.5c1.8,2.1,3,4.3,4.4,7l-3.4,1.8c-1.4-3-2.2-4.6-4.3-7.2L173.4,65.5z"/>
			<path class="st0" d="M204.2,61v5.5h-10.1l-0.2,4.8h0.6c3.5,0,7.2-0.1,9.2-0.6l0.3,5.5c-1.6,0.5-4.8,0.7-9.4,0.7h-0.9
				c-0.1,5.8,0.1,6.6,6.2,6.6c4.3,0,7.3-0.4,7.3-5.4c0-2.7-0.9-5.2-1.9-7.4l5.5-1.5c0.7,1.4,2.6,4.9,2.6,9.7
				c0,10-7.6,10.5-13.9,10.5c-5,0-7.4-0.6-9.3-2.4c-2.5-2.3-2.8-5.1-2.7-10.1h-6.2v-5.5h6.3l0.1-4.8h-6.2V61h6.3l0.1-4.2l6.5,0
				l-0.2,4.2H204.2z"/>
			<path class="st0" d="M8.7,122.8c-3,1.8-4.4,2.4-5.8,2.9L0,119.9c9.3-3.6,13.2-6.8,15.5-10h6.8c1.6,1.9,5.5,6.2,15.3,9.9l-3,5.7
				c-1.1-0.5-3-1.3-5.7-2.9v2.3H8.7V122.8z M30.5,146.6c-0.4-0.7-0.8-1.5-1.5-2.7c-6.5,0.9-19.4,1.4-26.2,1.6l-0.9-5.9
				c0.2,0,5,0,5.5,0c0.3-0.6,1.6-3.2,2.7-6.6H1.6v-5.5h34.3v5.5H28c1.7,1.9,4.3,4.6,8,10.6L30.5,146.6z M24.7,119.9
				c-3.3-2.5-4.9-4.3-5.9-5.4c-0.9,1.2-2.4,2.8-5.9,5.4H24.7z M27.1,133.1H16.4c-1.4,3.2-1.8,4.2-3,6.6c4.5,0,8.6,0,12.4-0.4
				c-1.6-2.1-2.4-3.1-3.2-4L27.1,133.1z"/>
			<path class="st0" d="M50.4,146.2h-5.8v-12.7c-1.6,1.3-2.9,2.3-4,3l-1.4-6.7c4.3-2.5,7.8-6.6,9-9.1h-8.3v-5.3h4.8v-5.2h5.8v5.2
				h3.9v5.3c-0.6,1.4-1.2,2.8-3,5.5c2.1,2.3,3.8,3.3,5.2,4.1l-2.9,5.4c-0.8-0.8-1.8-1.7-3.2-3.6V146.2z M61.7,110.2h5.9v9.4H75v5.9
				h-7.4v13.9h8v5.8H53v-5.8h8.7v-13.9h-6.8v-5.9h6.8V110.2z"/>
			<path class="st0" d="M94.7,138.4c5-0.4,11.1-2.6,11.1-10.9c0-6.6-4-8.9-7.9-9.3c-0.1,2.4-1.4,22.9-11.8,22.9
				c-5.6,0-7.9-6.2-7.9-11.4c0-11.2,8.5-17.3,17.9-17.3c11.1,0,16.1,7.1,16.1,15.3c0,2.9-0.6,8.7-5.3,12.7
				c-2.7,2.3-6.5,3.4-10.2,3.8L94.7,138.4z M84.1,129.9c0,1.3,0.4,4.7,2.4,4.7c2.1,0,4.7-4.8,5.7-16
				C87.4,119.8,84.1,124.3,84.1,129.9z"/>
			<path class="st0" d="M114.9,125.5c2.7-3.1,5.6-7.4,6.7-15.4l5.6,0.2c-0.2,1.3-0.3,2.3-0.6,3.8h10.3c-0.2,2-0.4,4.5-0.9,7.9
				l2.6-2.5c0.5,0.8,1,1.6,2.1,3v-12.2h5.8v17.4c2.7,1.7,4.7,2.5,5.9,3l-1.8,6.5c-1.1-0.6-2-1-4-2.2V146h-5.8v-15.5
				c-0.8-0.7-2.6-2.5-5.2-6.2c-1.5,7.3-4.7,15.6-16.2,22.2l-3.9-5c2.7-1.4,7.3-3.9,10.8-8.9c-1.4-1.3-3.7-3.3-5.5-4.5
				c-1.2,1.6-1.7,2.1-2.4,2.8L114.9,125.5z M125,119.5c-0.8,2.1-0.9,2.4-1.5,3.7c1.6,1,4.1,2.9,5.5,4.1c1.3-3.3,1.6-5.9,1.9-7.8H125
				z"/>
			<path class="st0" d="M158.9,132.8c0,0.8,0,6.5-1.3,11.6l-3.6-2.6c1.1-3.9,1.2-8.3,1.2-9.3L158.9,132.8z M154.4,126.2
				c0.8,0,1.3,0,2.2,0c0.3-0.5,0.7-1,1.7-2.4c-2-2.4-3-3.3-4.3-4.4l2.3-5c0.6,0.5,0.6,0.6,0.8,0.7c0.5-0.8,1.6-3.1,2.3-5.1l4.8,1.1
				c-1.6,3.5-3.6,6.5-4,7.1c0.3,0.3,0.5,0.5,1.1,1.2c2.1-3.2,2.7-4.4,3.3-5.5l4.4,1.8c-2.1,3.6-4.6,7-7.2,10.2c0.4,0,2.5-0.2,3-0.2
				c-0.3-1.1-0.5-1.6-0.7-2.3l3.5-1.1c0.9,2.1,2.1,5.7,2.4,7.3h6.9c-0.2,1.6-0.6,6.5-3.3,11.2h2.4c1,0,1.1-0.3,1.1-1.2v-11.8h-7.3
				v-14.9h6.5c0.4-1,0.6-2,0.8-2.8l6,0.2c-0.6,1.6-0.6,1.7-0.9,2.5h7.6v14.9H182c0.5,1.3,1,2.4,1.7,3.8c1.1-1.1,2.2-2.2,3.2-3.5
				l4.1,3.3c-1.6,1.8-2.2,2.3-4.4,4c2.1,2.4,3.4,3.3,4.7,4.2l-2.9,5.4c-4-3.3-5.4-6.1-6.4-8.6v6.3c0,2.1-0.5,3.4-3,3.4h-5.2
				l-0.8-4.8c-1.5,2.4-2.5,3.2-3.6,4l-3.1-3.7c0.6-0.5,0.8-0.6,1.3-1l-2,0.4c0-1.5-0.1-5.8-0.5-8.3l3.5-0.6c0.2,1.5,0.5,3.1,0.6,6.6
				c1.4-1.8,1.9-3.2,2.4-4.5h-2.5v-3.8l-3.3,1.1c0-0.6-0.1-0.8-0.2-1.6c-0.6,0.1-0.9,0.2-1.3,0.2v15.9h-4.4v-15.4
				c-3.4,0.3-3.8,0.4-5.1,0.4L154.4,126.2z M174.9,116.8v1.9h9.2v-1.9H174.9z M174.9,122v2.1h9.2V122H174.9z"/>
			<path class="st0" d="M223.9,115.5c-0.5,1.3-0.5,1.5-1.3,3.3h6.7v4.7h-9.2c1.7,1.5,5.1,3.5,10,4.9l-2.2,5.4
				c-0.6-0.3-0.8-0.3-1.9-0.9v12.5h-29.2v-12.7c-0.4,0.2-0.7,0.3-1.7,0.7l-2.3-5.2c3-0.8,6.8-2.3,10.1-4.8h-9.3v-4.7h6.8
				c-0.3-0.9-0.6-1.6-0.9-2.3l3-0.5c-1.9,0-2.7,0.1-5.9,0l-0.9-4.7c1.6,0,3,0,5.2,0c7.5,0,17.5-0.3,24.8-1.5l2.1,4.5
				c-2.3,0.3-3.7,0.5-6.4,0.7L223.9,115.5z M202.3,132.6v2.3h6.3v-2.3H202.3z M202.3,138.3v2.4h6.3v-2.4H202.3z M208.7,128.5v-4.8
				c-1.2,1.5-2.2,2.6-4.9,4.8H208.7z M208.7,115.8c-0.6,0-3.5,0.2-4.2,0.2c0.6,1.9,0.7,2.1,0.9,2.8h3.2V115.8z M214,118.8h3.3
				c0.6-1.3,0.8-2.2,1.2-3.5c-0.3,0-4,0.3-4.5,0.3V118.8z M218.7,128.5c-2.4-1.9-3.5-3.1-4.7-4.7v4.7H218.7z M214,132.6v2.3h6.4
				v-2.3H214z M214,138.3v2.4h6.4v-2.4H214z"/>
			<path class="st0" d="M265.1,131.5c-0.7,12-1.9,14.7-6.9,14.7h-7.7l-1.3-5.5h7.2c1.8,0,2-1.5,2.3-4.2h-23.8c0.7-1.1,2.5-4,3.7-7.2
				h-6.2v-4.9h35.8v4.9h-23.4c-0.2,0.6-0.6,1.6-0.9,2.3H265.1z M264.9,122.4h-29.2v-11.1h29.2V122.4z M259.3,115.7h-18v2.5h18V115.7
				z"/>
			<path class="st0" d="M302.5,119.2c-1.2-0.1-2.2-0.1-3.1-0.1c-1.3,0-3.2,0.1-4.6,0.5c-5.4,1.6-11.5,7.2-11.5,12.5
				c0,3.6,2.9,5.7,12.6,5.7c1.8,0,2.7-0.1,3.4-0.1l-0.8,6.5c-4.5,0-8.2-0.1-12.3-1.1c-8-2-9.2-7.6-9.2-10.6c0-5.2,3.3-9.6,8.1-12.8
				c-3.4,0.3-12,1-14.9,1.4l-0.3-6.5c2.5,0,3.6-0.1,8-0.4c8.1-0.5,15.5-0.8,24.3-1L302.5,119.2z M294.8,123c1.7,2.1,2.9,4.2,4.3,7.1
				l-3.3,1.9c-1.3-3-2.3-4.8-4.1-7.3L294.8,123z M300,120.5c1.8,2.1,3,4.3,4.4,7l-3.4,1.8c-1.4-3-2.2-4.6-4.3-7.2L300,120.5z"/>
			<path class="st0" d="M335.8,127.2h-4v2.9h9.9v5.1h-9.9v4.1c0,0.9,0.3,1.2,1.1,1.2h2.6c1.1,0,1.5-0.3,1.6-4.1l5.5,1
				c-0.3,5.8-1.1,8.4-4.2,8.4h-9.3c-1.9,0-3.1-1.3-3.1-2.9v-7.6h-4.3c-1,4.6-3.6,8.9-12.5,11.2l-2.9-5.5c4.8-0.7,8.3-2.4,9.5-5.7
				h-8.6v-5.1h9.4v-2.9H313v-1.7c-2.1,1.1-3.2,1.7-4.8,2.4l-2.5-5.5c1.7-0.5,2.9-0.9,4.9-1.8c-1.4-1.4-2.9-2.5-3.5-3l2.7-2.7V111h17
				c0.8,1.1,1.2,1.7,2.2,2.8c0.4-0.4,2.2-1.9,3.8-3.9l4.2,2.4c-2,2.3-4.2,4.4-4.5,4.7c0.7,0.5,0.8,0.6,1.6,1.1
				c2.9-2.8,3.9-4.1,4.5-4.9l4.1,2.5c-1.5,1.9-2.4,2.8-4.3,4.7c1.9,0.9,2.8,1.3,4.6,2l-2.4,5.4c-2-0.8-3.2-1.3-4.9-2.2V127.2z
				 M312.1,115.4c1.1,0.8,1.9,1.5,3,2.5c1.7-1.1,2.3-1.7,3.3-2.5H312.1z M330.7,122.2c-2.1-1.6-3.9-3.1-6.3-5.9
				c-1.5,1.8-2.9,3.3-6.3,5.9H330.7z M326,127.2h-3.8v2.9h3.8V127.2z"/>
			<path class="st0" d="M377.8,128.6v17.2h-22.3v-13.7c-0.8,6-2.4,10.3-6.1,14.1l-4.6-4.3c1.9-1.8,5.6-5.6,5.6-14.4h-4.9v-4.2h14.9
				V122h-12.1v-3.3h12.1v-1.1h-13.7v-4h6.6c-0.6-1.4-0.6-1.4-1.4-2.8l6.4-0.4c0.6,1.1,1.1,2.2,1.5,3.3h7.3c0.5-1,0.9-2.3,1.2-3.3
				l6.5,0.6c-0.6,1.4-0.6,1.5-1.3,2.8h6.6v4H366v1.1h12.2v3.3H366v1.2h15.2v4.2h-25.4c0,0.5,0,1,0,1.2H377.8z M372,132.2H361v1.4
				H372V132.2z M372,136.2H361v1.4H372V136.2z M372,140.4H361v1.5H372V140.4z"/>
			<path class="st0" d="M392.2,146.2h-5.5V130c-0.6,0.7-0.8,0.9-1.6,1.6l-1.5-7.9c3-3.8,4.9-9.3,5.4-13.7l5.6,0.5
				c-0.5,4.2-1.2,6.6-2.3,9.6V146.2z M420.1,121h-26.6v-4.5h26.6V121z M418.7,145.3h-23.6v-11.7h23.6V145.3z M418.1,126.5h-22.3
				v-4.2h22.3V126.5z M418.1,132.1h-22.3v-4.2h22.3V132.1z M417.6,115.1h-21.3v-4.2h21.3V115.1z M413,137.7h-12.2v3.3H413V137.7z"/>
		</g>
	</g>
</g>
</svg>
