<?xml version="1.0" encoding="utf-8"?>
<!-- Generator: Adobe Illustrator 28.1.0, SVG Export Plug-In . SVG Version: 6.00 Build 0)  -->
<svg version="1.1" id="レイヤー_1" xmlns="http://www.w3.org/2000/svg" xmlns:xlink="http://www.w3.org/1999/xlink" x="0px"
	 y="0px" viewBox="0 0 318.7 31.2" style="enable-background:new 0 0 318.7 31.2;" xml:space="preserve">
<style type="text/css">
	.st0{fill:#005CE5;}
</style>
<g>
	<path class="st0" d="M0,26.3l14.7-20H0.6V0.8h22.3v4.4L8.4,25.1h14.9v5.5H0V26.3z"/>
	<path class="st0" d="M25.4,19.6C25.4,13.3,30.2,8,37.2,8c7,0,11.8,5.2,11.8,11.6c0,6.4-4.7,11.6-11.8,11.6
		C30.2,31.2,25.4,26,25.4,19.6z M43.3,19.6c0-3.5-2.7-6.2-6.1-6.2c-3.4,0-6.1,2.8-6.1,6.2c0,3.5,2.7,6.3,6.1,6.3
		C40.6,25.9,43.3,23.1,43.3,19.6z"/>
	<path class="st0" d="M51.5,19.6C51.5,13.3,56.2,8,63.3,8S75,13.3,75,19.6c0,6.4-4.7,11.6-11.8,11.6S51.5,26,51.5,19.6z M69.3,19.6
		c0-3.5-2.7-6.2-6.1-6.2c-3.4,0-6.1,2.8-6.1,6.2c0,3.5,2.7,6.3,6.1,6.3C66.7,25.9,69.3,23.1,69.3,19.6z"/>
	<path class="st0" d="M114.3,17.3v13.2h-5.7V18.4c0-3.5-1.9-5.1-4.4-5.1c-2.8,0-4.8,2-4.8,5.3v12h-5.7V18.4c0-3.3-1.8-5.2-4.4-5.2
		c-2.7,0-4.8,1.9-4.8,5.3v12h-5.7V8.7h5.6v3.1C85.6,9.5,88.2,8,91,8c2.6,0,5.2,1.2,6.4,3.9c1.6-2.5,4.6-3.9,7.8-3.9
		C110.3,8,114.3,11.3,114.3,17.3z"/>
	<path class="st0" d="M151.3,10.7c0,5.1-3.2,9.7-10.9,9.7h-4.6v10.3h-6V0.8h11C148.3,0.8,151.3,5.7,151.3,10.7z M145.2,10.6
		c0-2.2-1.5-4.2-4.3-4.2h-5.1v8.6h4.8C143.8,14.9,145.2,12.8,145.2,10.6z"/>
	<path class="st0" d="M154.3,0h5.5v11.5c1.1-1.9,3.7-3.5,6.9-3.5c4.4,0,8.5,2.9,8.5,9.1v13.4h-5.7V18.7c0-3.5-1.9-5.4-4.6-5.4
		c-3,0-5,2.3-5,5.6v11.8h-5.7V0z"/>
	<path class="st0" d="M178.8,19.6c0-6.3,4.7-11.6,11.8-11.6c7,0,11.8,5.2,11.8,11.6c0,6.4-4.8,11.6-11.8,11.6
		C183.6,31.2,178.8,26,178.8,19.6z M196.6,19.6c0-3.5-2.7-6.2-6.1-6.2c-3.4,0-6.1,2.8-6.1,6.2c0,3.5,2.7,6.3,6.1,6.3
		C194,25.9,196.6,23.1,196.6,19.6z"/>
	<path class="st0" d="M206.1,8.7h5.6v3.1c1.1-2.1,3.6-3.7,6.9-3.7c4.4,0,8.6,2.9,8.6,9.1v13.4h-5.7V18.7c0-3.5-1.9-5.4-4.6-5.4
		c-3,0-5,2.3-5,5.6v11.8h-5.7V8.7z"/>
	<path class="st0" d="M252.9,21.6h-16.5c0.7,2.7,2.7,4.7,6.4,4.7c2.4,0,5.2-0.9,7.1-2.2l2.3,4c-2.1,1.5-5.5,3-9.6,3
		c-8.2,0-11.9-5.6-11.9-11.5c0-6.6,4.6-11.5,11.4-11.5c6.2,0,11,4.1,11,11C253.1,20,253.1,20.8,252.9,21.6z M236.5,17.4h11.1
		c-0.5-2.8-2.6-4.6-5.5-4.6C239.3,12.8,237.2,14.5,236.5,17.4z"/>
	<path class="st0" d="M282.2,13.8c-6.1,0.6-19.2,2.8-19.2,7.9c0,3,3.8,3.1,9,3.1c2.1,0,6.3,0,11.3-0.6l0,5.7c-1.9,0.1-5,0.4-9.8,0.4
		c-5.6,0-16.5,0-16.5-8.3c0-4.9,4.5-8,8.4-9.9c-0.6-0.8-0.9-1.6-1.2-3.1C264,6.8,264,3.5,264,0.6h6c0,1.3-0.1,2.2-0.1,4.7
		c0,2.9,0,3.8,0.6,4.9c2.5-0.8,5.1-1.4,11-2.2L282.2,13.8z"/>
	<path class="st0" d="M295.5,1.1c-0.5,2-1.4,6.5-1.4,15c0,7.4,0.8,11.6,1.2,13.6l-5.6,0.6c-0.8-5-1-9.9-1-14.1
		c0-8.5,0.8-13.3,1.2-15.4L295.5,1.1z M317.8,6.2v5.3h-5.7l0,7.4c2.6,1.2,5.4,3.4,6.6,4.6l-3.4,4.9c-1.2-1.4-1.7-1.8-3.5-3.3
		c-0.1,1.3-0.5,2.5-1.3,3.5c-1.1,1.2-3.2,2-5.9,2c-5.5,0-8.1-3.2-8.1-6.7c0-3.6,2.8-6.6,8-6.6c1.1,0,1.6,0.1,2.2,0.2l0-5.8h-9.3V6.2
		h9.2V1h5.7v5.2H317.8z M306.7,22.1c-0.6-0.2-1.2-0.5-2.3-0.5c-1.6,0-3.1,0.7-3.1,2.1c0,1.2,1,2.1,2.9,2.1c2.5,0,2.5-1.5,2.5-2.2
		V22.1z"/>
</g>
</svg>
