<?xml version="1.0" encoding="utf-8"?>
<!-- Generator: Adobe Illustrator 28.1.0, SVG Export Plug-In . SVG Version: 6.00 Build 0)  -->
<svg version="1.1" id="グループ_1916" xmlns="http://www.w3.org/2000/svg" xmlns:xlink="http://www.w3.org/1999/xlink" x="0px"
	 y="0px" viewBox="0 0 276.9 92.9" style="enable-background:new 0 0 276.9 92.9;" xml:space="preserve">
<style type="text/css">
	.st0{fill:#CBDAEE;}
</style>
<g>
	<g id="グループ_1915" transform="translate(0 0)">
		<path id="パス_1285" class="st0" d="M209.5,37.6c3.9,0,7.1-3.2,7.1-7.1l2.6-27.2h-11.4l-5.5,27.2
			C202.4,34.4,205.5,37.6,209.5,37.6"/>
		<path id="パス_1286" class="st0" d="M229.6,37.6c3.9,0,7.1-3.2,7.1-7.1l-1.4-27.2h-11.4l-1.4,27.2
			C222.5,34.4,225.7,37.6,229.6,37.6"/>
		<path id="パス_1287" class="st0" d="M249.7,37.6c3.9,0,7.1-3.2,7.1-7.1l-5.4-27.2H240l2.6,27.2
			C242.6,34.4,245.8,37.6,249.7,37.6"/>
		<path id="パス_1288" class="st0" d="M267.5,3.2h-11.4l6.6,27.2c0,3.3,2.2,6.1,5.4,6.9v46.5h-10.7V52.4h-27.1v31.4h-39.2V37.4
			c3.2-0.8,5.4-3.6,5.4-6.9l6.6-27.2h-11.4l-9.5,27.2c0,2.3,1.1,4.4,2.9,5.7v53.6H274V36.2c1.8-1.3,2.9-3.5,2.9-5.7L267.5,3.2z
			 M252.9,83.8h-18.1v-27h18.1L252.9,83.8z"/>
		<rect id="長方形_1861" x="202.5" y="50.3" class="st0" width="15.8" height="15.8"/>
	</g>
</g>
</svg>
