<?xml version="1.0" encoding="utf-8"?>
<!-- Generator: Adobe Illustrator 28.1.0, SVG Export Plug-In . SVG Version: 6.00 Build 0)  -->
<svg version="1.1" id="レイヤー_1" xmlns="http://www.w3.org/2000/svg" xmlns:xlink="http://www.w3.org/1999/xlink" x="0px"
	 y="0px" viewBox="0 0 122.2 111.3" style="enable-background:new 0 0 122.2 111.3;" xml:space="preserve">
<style type="text/css">
	.st0{fill:#5B8DCD;}
</style>
<g id="グループ_1926" transform="translate(0 0.001)">
	<g id="グループ_2007">
		<path id="パス_1368" class="st0" d="M48.6,21.3c2.4,0,4.4-2,4.4-4.4L54.6,0h-7.1l-3.4,16.9C44.2,19.3,46.2,21.3,48.6,21.3"/>
		<path id="パス_1369" class="st0" d="M61.1,21.3c2.4,0,4.4-2,4.4-4.4L64.6,0h-7.1l-0.9,16.9C56.7,19.3,58.6,21.3,61.1,21.3"/>
		<path id="パス_1370" class="st0" d="M73.5,21.3c2.4,0,4.4-2,4.4-4.4L74.6,0h-7.1l1.6,16.9C69.1,19.3,71.1,21.3,73.5,21.3"/>
		<path id="パス_1371" class="st0" d="M84.5,0h-7.1l4.1,16.9c0,2,1.4,3.8,3.3,4.3v28.8h-6.6V30.4H61.5v19.5H37.2V21.1
			c2-0.5,3.3-2.2,3.3-4.3L44.7,0h-7.1l-5.9,16.9c0,1.4,0.7,2.7,1.8,3.5v33.2h55.1V20.4c1.1-0.8,1.8-2.1,1.8-3.5L84.5,0z M75.5,49.9
			H64.3V33.2h11.2V49.9z"/>
		<rect id="長方形_1884" x="44.3" y="29.1" class="st0" width="9.8" height="9.8"/>
	</g>
</g>
</svg>
