<?xml version="1.0" encoding="utf-8"?>
<!-- Generator: Adobe Illustrator 28.1.0, SVG Export Plug-In . SVG Version: 6.00 Build 0)  -->
<svg version="1.1" id="グループ_1918" xmlns="http://www.w3.org/2000/svg" xmlns:xlink="http://www.w3.org/1999/xlink" x="0px"
	 y="0px" viewBox="0 0 235.6 111.3" style="enable-background:new 0 0 235.6 111.3;" xml:space="preserve">
<style type="text/css">
	.st0{clip-path:url(#SVGID_00000166651172556040749140000009326473075045402803_);}
	.st1{fill:none;stroke:#5B8DCD;stroke-width:4;stroke-miterlimit:10;}
	.st2{fill:#5B8DCD;}
	.st3{fill:#396CAE;}
</style>
<g>
	<defs>
		<rect id="SVGID_1_" y="0" width="235.6" height="111.3"/>
	</defs>
	<clipPath id="SVGID_00000141423009231199843570000007876097182740391583_">
		<use xlink:href="#SVGID_1_"  style="overflow:visible;"/>
	</clipPath>
	<g id="グループ_1917" style="clip-path:url(#SVGID_00000141423009231199843570000007876097182740391583_);">
		<path id="パス_1327" class="st1" d="M84.2,74.9h-9.6c-2.4,0-4.5,1.7-5.1,4l-2.8,11.5L55.9,78c-1.7-2-4.2-3.1-6.8-3.1H8.6
			c-4.2,0-7.6-3.4-7.6-7.6c0,0,0,0,0,0V8.6C1,4.4,4.4,1,8.6,1h75.7c4.2,0,7.6,3.4,7.6,7.6v58.8C91.8,71.5,88.4,74.9,84.2,74.9z"/>
		<path id="パス_1339" class="st2" d="M77.8,27.6h-2.5L72,21H55.1v-3.3c0-0.4-0.3-0.7-0.7-0.7h-2.5l-4.8-5.4H22.5l-4.8,5.4h-2.5
			c-0.4,0-0.7,0.3-0.7,0.7v0V33c0,0.4,0.3,0.7,0.7,0.7h0h1.7v27.9c0,0.4,0.3,0.7,0.7,0.7h56.7c0.4,0,0.7-0.3,0.7-0.7V37.6h2.7
			c0.4,0,0.7-0.3,0.7-0.7v-8.5C78.4,27.9,78.1,27.6,77.8,27.6 M51.3,60.9H18.3V33.7h32.9V60.9z M15.9,18.4h37.8v13.9H15.9V18.4z
			 M73.6,60.9H69V47.4c0-3.2-2.6-5.9-5.9-5.9c0,0,0,0,0,0H63c-3.2,0-5.9,2.6-5.9,5.9v13.5h-4.4V37.6h20.9V60.9z M77,36.2H52.7v-2.5
			h1.7c0.4,0,0.7-0.3,0.7-0.7v-4h22L77,36.2z"/>
		<rect id="長方形_1864" x="23.3" y="38.5" class="st3" width="6.7" height="8.2"/>
		<rect id="長方形_1865" x="39.6" y="38.5" class="st3" width="6.7" height="8.2"/>
		<rect id="長方形_1866" x="31.4" y="38.5" class="st2" width="6.7" height="8.2"/>
		<rect id="長方形_1867" x="39.6" y="48" class="st2" width="6.7" height="8.6"/>
		<rect id="長方形_1868" x="23.3" y="48" class="st2" width="6.7" height="8.6"/>
		<rect id="長方形_1869" x="31.4" y="48" class="st3" width="6.7" height="8.6"/>
		<path id="パス_1340" class="st2" d="M28.9,21.2c-0.2,0-0.3,0.1-0.3,0.3c0,0,0,0,0,0v1.6c0,0.2-0.1,0.3-0.2,0.3
			c-0.1,0-0.2-0.1-0.2-0.2c0,0,0,0,0,0l0-1.7c0-0.2-0.2-0.4-0.4-0.4c-0.2,0-0.4,0.2-0.4,0.4v1.7c0,0.1-0.1,0.2-0.2,0.2c0,0,0,0,0,0
			c-0.1,0-0.2-0.1-0.2-0.3v-1.6c0-0.2-0.1-0.3-0.3-0.3c0,0,0,0,0,0c-0.2,0-0.3,0.2-0.3,0.3c0,0.2-0.1,1.3-0.1,2.1
			c0,0.6,0.3,1.1,0.8,1.3c0.2,0.1,0.4,0.3,0.4,0.5l-0.1,4.1h1.1l-0.1-4.1c0-0.2,0.1-0.5,0.4-0.5c0.5-0.2,0.8-0.8,0.8-1.3
			c0-0.8-0.1-1.9-0.1-2.1C29.2,21.3,29.1,21.2,28.9,21.2"/>
		<path id="パス_1341" class="st2" d="M41.7,21.2c-0.8,0-1.6,0.8-1.6,2.2c0.1,0.6,0.3,1.2,0.8,1.6c0.2,0.2,0.4,0.3,0.4,0.5
			l-0.1,4.1h1.1l-0.1-4.1c0-0.2,0.1-0.3,0.4-0.5c0.5-0.4,0.8-1,0.8-1.6C43.3,22,42.5,21.2,41.7,21.2"/>
		<path id="パス_1342" class="st2" d="M39.4,24.7c0,2.6-2.1,4.6-4.6,4.6s-4.6-2.1-4.6-4.6s2.1-4.6,4.6-4.6l0,0
			C37.3,20.1,39.4,22.2,39.4,24.7C39.4,24.7,39.4,24.7,39.4,24.7"/>
	</g>
</g>
</svg>
