<?xml version="1.0" encoding="utf-8"?>
<!-- Generator: Adobe Illustrator 28.1.0, SVG Export Plug-In . SVG Version: 6.00 Build 0)  -->
<svg version="1.1" id="グループ_1916" xmlns="http://www.w3.org/2000/svg" xmlns:xlink="http://www.w3.org/1999/xlink" x="0px"
	 y="0px" viewBox="0 0 276.9 92.9" style="enable-background:new 0 0 276.9 92.9;" xml:space="preserve">
<style type="text/css">
	.st0{fill:#5B8DCD;}
	.st1{fill:#FFFFFF;}
</style>
<g>
	<g id="グループ_1915" transform="translate(0 0)">
		<path id="パス_1289" class="st0" d="M161.6,16.6c-0.1,0-0.2,0-0.3,0c-4.4-0.2-7.8-3.9-7.6-8.3c0.2-4.2,3.7-7.6,7.9-7.6
			c0.1,0,0.2,0,0.3,0c4.4,0.2,7.8,3.9,7.6,8.3C169.4,13.3,165.9,16.6,161.6,16.6"/>
		<path id="パス_1290" class="st1" d="M161.6,1.5c0.1,0,0.2,0,0.3,0c4,0.2,7.1,3.5,6.9,7.5c-0.2,3.8-3.3,6.9-7.2,6.9
			c-0.1,0-0.2,0-0.3,0c-4-0.2-7.1-3.5-6.9-7.5C154.6,4.5,157.8,1.5,161.6,1.5 M161.6,0c-4.8,0-8.7,3.9-8.7,8.7
			c0,4.6,3.7,8.4,8.3,8.7c0.1,0,0.3,0,0.4,0c4.8,0,8.7-3.9,8.7-8.7c0-4.7-3.7-8.5-8.3-8.7C161.9,0,161.7,0,161.6,0"/>
		<path id="パス_1291" class="st0" d="M151,36l-0.4-0.6l0.2-0.5l3.1-3.5l-2,4.6l-0.5,0L151,36z"/>
		<path id="パス_1292" class="st1" d="M151.4,35.3C151.4,35.3,151.4,35.3,151.4,35.3C151.4,35.3,151.4,35.3,151.4,35.3L151.4,35.3
			z M156.4,27.4l-6.1,6.9l0,0l-0.2,0.2l-0.1,0.2l-0.3,0.7l0.4,0.7l0.4,0.6h1.8l0.4-0.9L156.4,27.4z"/>
		<path id="パス_1293" class="st0" d="M169.8,92.2c-2.2,0-4.1-1.6-4.4-3.8l-3-16.5c-0.3,0.7-0.7,1.4-1.2,1.9l-11.6,12.3
			c-1.5,1.6-4.1,1.7-5.7,0.2c-1.6-1.5-1.7-4.1-0.2-5.7l9-13l3.1-12.7c-0.1-1.8-2.1-14-3.2-20.2l-0.9,1l-7.1,12.8
			c-0.9,1.7-3,2.5-4.8,1.6s-2.5-3-1.6-4.8l5.8-13.2c0.1-0.2,0.2-0.3,0.3-0.5c0.1-0.4,0.3-0.7,0.6-1c0.4-0.8,3.6-7.2,6.5-10
			c2.3-2.4,4.6-3.5,7.3-3.5c4,0,6.9,1.6,8.8,4.6l6.2,10.1l10.7,8.3c1.6,1.1,1.9,3.3,0.8,4.9c-1.1,1.6-3.3,2-4.9,0.8c0,0,0,0,0,0
			l-10.2-6.6c0.6,8.4,3.7,47.5,3.7,47.9c0.3,2.4-1.4,4.6-3.8,4.9C170.2,92.2,170,92.2,169.8,92.2"/>
		<path id="パス_1294" class="st1" d="M159.1,17.9L159.1,17.9c4.4,0,6.8,2.1,8.2,4.3l6.3,10.2l10.8,8.4c1.3,0.9,1.6,2.6,0.7,3.9
			c-0.9,1.3-2.6,1.6-3.9,0.7L169.6,38c0.1,3,3.8,49.4,3.8,49.4c0.3,2-1.1,3.8-3.1,4.1c-0.2,0-0.3,0-0.5,0c-1.8,0-3.4-1.4-3.6-3.2
			l-3.5-19.2l-0.7,2c-0.3,0.8-0.7,1.6-1.3,2.3l-11.6,12.3c-1.3,1.3-3.4,1.3-4.7,0c-1.2-1.3-1.3-3.3-0.1-4.6l9.1-13.1l3.2-12.9
			c0-1.9-3.4-22-3.4-22l-1.9,2.2l0,0c0,0,0,0,0,0l-7.1,12.9c-0.7,1.4-2.4,2-3.8,1.3c-1.4-0.7-2-2.4-1.3-3.8l0,0l5.9-13.2
			c0.1-0.2,0.2-0.3,0.3-0.4c0.1-0.4,0.3-0.7,0.6-1c0,0,3.5-7,6.4-9.8C154,19.2,156.4,18,159.1,17.9 M159.1,16.5L159.1,16.5
			c-2.8,0-5.4,1.2-7.8,3.7c-2.8,2.8-6,9-6.6,10.1c-0.2,0.3-0.5,0.7-0.6,1.1c-0.1,0.2-0.2,0.3-0.3,0.5l0,0l0,0l-5.8,13.2
			c-1.1,2.1-0.2,4.7,1.9,5.7c2.1,1.1,4.7,0.2,5.7-1.9l6.8-12.4c1.2,7.3,2.7,16.7,2.9,18.4l-3.1,12.4l-8.9,12.8
			c-1.8,1.9-1.6,5,0.3,6.7c1.9,1.7,4.9,1.7,6.7-0.2l11.6-12.3l0,0l0,0c0.1-0.1,0.2-0.2,0.2-0.3l2.6,14.5c0.4,2.5,2.5,4.4,5.1,4.4
			c0.2,0,0.5,0,0.7,0c2.8-0.4,4.8-2.9,4.4-5.7c-0.1-1.3-2.9-35.8-3.6-46.4l9,5.8c1.9,1.3,4.6,0.9,6-1.1c1.3-1.9,0.9-4.5-1-5.9
			l-10.6-8.2l-6.2-10C166.5,18.2,162.9,16.3,159.1,16.5L159.1,16.5z"/>
		<path id="パス_1295" class="st0" d="M140.5,16.6c-0.1,0-0.2,0-0.3,0c-4.4-0.2-7.8-3.9-7.6-8.3c0.2-4.2,3.7-7.6,7.9-7.6
			c0.1,0,0.2,0,0.3,0c4.4,0.2,7.8,3.9,7.6,8.3C148.3,13.3,144.8,16.6,140.5,16.6"/>
		<path id="パス_1296" class="st1" d="M140.5,1.5c0.1,0,0.2,0,0.3,0c4,0.2,7.1,3.5,6.9,7.5c-0.2,3.8-3.3,6.9-7.2,6.9
			c-0.1,0-0.2,0-0.3,0c-4-0.2-7.1-3.5-6.9-7.5C133.5,4.5,136.7,1.5,140.5,1.5 M140.5,0c-4.8,0-8.7,3.9-8.7,8.7
			c0,4.6,3.7,8.4,8.3,8.7c0.1,0,0.3,0,0.4,0c4.8,0,8.7-3.9,8.7-8.7c0-4.7-3.7-8.5-8.3-8.7C140.8,0,140.7,0,140.5,0"/>
		<path id="パス_1297" class="st0" d="M129.9,36l-0.4-0.6l0.2-0.5l3.1-3.5l-2,4.6l-0.5,0L129.9,36z"/>
		<path id="パス_1298" class="st1" d="M130.3,35.3C130.3,35.3,130.3,35.3,130.3,35.3C130.3,35.3,130.3,35.3,130.3,35.3L130.3,35.3
			z M135.3,27.4l-6.1,6.9l0,0l-0.2,0.2l-0.1,0.2l-0.3,0.7l0.4,0.7l0.4,0.6h1.8l0.4-0.9L135.3,27.4z"/>
		<path id="パス_1299" class="st0" d="M148.7,92.2c-2.2,0-4.1-1.6-4.4-3.8l-3-16.5c-0.3,0.7-0.7,1.4-1.2,1.9l-11.6,12.3
			c-1.5,1.6-4.1,1.7-5.7,0.2c-1.6-1.5-1.7-4.1-0.2-5.7l0,0l9-13l3.1-12.7c-0.1-1.8-2.1-14-3.2-20.2l-0.9,1l-7.1,12.8
			c-0.9,1.7-3,2.5-4.8,1.6c-1.7-0.9-2.5-3-1.6-4.8l5.8-13.2c0.1-0.2,0.2-0.3,0.3-0.5c0.1-0.4,0.3-0.7,0.6-1c0.4-0.8,3.6-7.2,6.5-10
			c2.3-2.4,4.6-3.5,7.3-3.5c4,0,6.9,1.6,8.8,4.6l6.2,10.1l10.7,8.3c1.6,1.1,1.9,3.3,0.8,4.9c-1.1,1.6-3.3,2-4.9,0.8c0,0,0,0,0,0
			l-10.2-6.6c0.6,8.4,3.7,47.5,3.7,47.9c0.3,2.4-1.4,4.6-3.8,4.9C149.1,92.2,148.9,92.2,148.7,92.2"/>
		<path id="パス_1300" class="st1" d="M138,17.9L138,17.9c4.4,0,6.8,2.1,8.2,4.3l6.3,10.2l10.8,8.4c1.3,0.9,1.6,2.6,0.7,3.9
			c-0.9,1.3-2.6,1.6-3.9,0.7L148.5,38c0.1,3,3.8,49.4,3.8,49.4c0.3,2-1.1,3.8-3.1,4.1c-0.2,0-0.3,0-0.5,0c-1.8,0-3.4-1.4-3.6-3.2
			l-3.5-19.2l-0.7,2c-0.3,0.8-0.7,1.6-1.3,2.3l-11.6,12.3c-1.3,1.3-3.4,1.3-4.7,0c-1.3-1.3-1.3-3.3-0.1-4.6l9.1-13.1l3.2-12.9
			c0-1.9-3.4-22-3.4-22l-1.9,2.2l0,0c0,0,0,0,0,0l-7.1,12.9c-0.7,1.4-2.4,2-3.8,1.3c-1.4-0.7-2-2.4-1.3-3.8l0,0l5.9-13.2
			c0.1-0.2,0.2-0.3,0.3-0.4c0.1-0.4,0.3-0.7,0.6-1c0,0,3.5-7,6.4-9.8C132.9,19.2,135.4,18,138,17.9 M138,16.5L138,16.5
			c-2.8,0-5.4,1.2-7.8,3.7c-2.8,2.8-6,9-6.6,10.1c-0.2,0.3-0.5,0.7-0.6,1.1c-0.1,0.2-0.2,0.3-0.3,0.5l0,0l0,0l-5.8,13.2
			c-1.1,2.1-0.2,4.7,1.9,5.7c2.1,1.1,4.7,0.2,5.7-1.9l6.8-12.4c1.2,7.3,2.7,16.7,2.9,18.4l-3.1,12.4l-8.9,12.8
			c-1.8,1.9-1.6,5,0.3,6.7c1.9,1.7,4.9,1.7,6.7-0.2l11.6-12.3l0,0l0,0c0.1-0.1,0.2-0.2,0.2-0.3l2.6,14.5c0.4,2.5,2.5,4.4,5.1,4.4
			c0.2,0,0.5,0,0.7,0c2.8-0.4,4.8-2.9,4.4-5.7c-0.1-1.3-2.9-35.8-3.6-46.4l9,5.8c1.9,1.3,4.6,0.9,6-1.1c1.3-1.9,0.9-4.5-1-5.9
			l-10.6-8.2l-6.2-10C145.4,18.2,141.8,16.3,138,16.5L138,16.5z"/>
		<path id="パス_1301" class="st0" d="M119.5,16.6c-0.1,0-0.2,0-0.3,0c-4.4-0.2-7.8-3.9-7.6-8.3c0.2-4.2,3.7-7.6,7.9-7.6
			c0.1,0,0.2,0,0.3,0c4.4,0.2,7.8,3.9,7.6,8.3C127.2,13.3,123.7,16.6,119.5,16.6"/>
		<path id="パス_1302" class="st1" d="M119.4,1.5c0.1,0,0.2,0,0.3,0c4,0.2,7.1,3.5,6.9,7.5c-0.2,3.8-3.3,6.9-7.2,6.9
			c-0.1,0-0.2,0-0.3,0c-4-0.2-7.1-3.5-6.9-7.5C112.4,4.5,115.6,1.5,119.4,1.5 M119.4,0c-4.8,0-8.7,3.9-8.7,8.7
			c0,4.6,3.7,8.4,8.3,8.7c0.1,0,0.3,0,0.4,0c4.8,0,8.7-3.9,8.7-8.7c0-4.7-3.7-8.5-8.3-8.7C119.7,0,119.6,0,119.4,0"/>
		<path id="パス_1303" class="st0" d="M108.8,36l-0.4-0.6l0.2-0.5l3.1-3.5l-2,4.6l-0.5,0L108.8,36z"/>
		<path id="パス_1304" class="st1" d="M109.2,35.3C109.2,35.3,109.2,35.3,109.2,35.3C109.2,35.3,109.2,35.3,109.2,35.3L109.2,35.3
			z M114.2,27.4l-6.1,6.9l0,0l-0.2,0.2l-0.1,0.2l-0.3,0.7l0.4,0.7l0.4,0.6h1.8l0.4-0.9L114.2,27.4z"/>
		<path id="パス_1305" class="st0" d="M127.6,92.2c-2.2,0-4.1-1.6-4.4-3.8l-3-16.5c-0.3,0.7-0.7,1.4-1.2,1.9l-11.6,12.3
			c-1.5,1.6-4.1,1.7-5.7,0.2c-1.6-1.5-1.7-4.1-0.2-5.7l0,0l9-13l3.1-12.7c-0.1-1.8-2.1-14-3.2-20.2l-0.9,1l-7.1,12.8
			c-0.9,1.7-3,2.5-4.8,1.6c-1.7-0.9-2.5-3-1.6-4.8l5.8-13.2c0.1-0.2,0.2-0.3,0.3-0.5c0.1-0.4,0.3-0.7,0.6-1c0.4-0.8,3.6-7.2,6.5-10
			c2.3-2.4,4.6-3.5,7.3-3.5c4,0,6.9,1.6,8.8,4.6l6.2,10.1l10.7,8.3c1.6,1.1,1.9,3.3,0.8,4.9c-1.1,1.6-3.3,2-4.9,0.8c0,0,0,0,0,0
			l-10.2-6.6c0.6,8.4,3.7,47.5,3.7,47.9c0.3,2.4-1.4,4.6-3.8,4.9C128,92.2,127.8,92.2,127.6,92.2"/>
		<path id="パス_1306" class="st1" d="M116.9,17.9L116.9,17.9c4.4,0,6.8,2.1,8.2,4.3l6.3,10.2l10.8,8.4c1.3,0.9,1.6,2.6,0.7,3.9
			c-0.9,1.3-2.6,1.6-3.9,0.7l0,0L127.5,38c0.1,3,3.8,49.4,3.8,49.4c0.3,2-1.1,3.8-3.1,4.1c-0.2,0-0.3,0-0.5,0
			c-1.8,0-3.4-1.4-3.6-3.2l-3.5-19.2l-0.7,2c-0.3,0.8-0.7,1.6-1.3,2.3L107,85.6c-1.3,1.3-3.4,1.3-4.7,0c-1.3-1.3-1.3-3.3-0.1-4.6
			l9.1-13.1l3.2-12.9c0-1.9-3.4-22-3.4-22l-1.9,2.2l0,0c0,0,0,0,0,0l-7.1,12.9c-0.7,1.4-2.4,2-3.8,1.3c-1.4-0.7-2-2.4-1.3-3.8l0,0
			l5.9-13.2c0.1-0.2,0.2-0.3,0.3-0.4c0.1-0.4,0.3-0.7,0.6-1c0,0,3.5-7,6.4-9.8C111.8,19.2,114.3,18,116.9,17.9 M116.9,16.5
			L116.9,16.5c-2.8,0-5.4,1.2-7.8,3.7c-2.8,2.8-6,9-6.6,10.1c-0.2,0.3-0.5,0.7-0.6,1.1c-0.1,0.2-0.2,0.3-0.3,0.5l0,0l0,0l-5.8,13.2
			c-1.1,2.1-0.2,4.7,1.9,5.7c2.1,1.1,4.7,0.2,5.7-1.9l6.8-12.4c1.2,7.3,2.7,16.7,2.9,18.4L110,67.3l-8.9,12.8
			c-1.8,1.9-1.6,5,0.3,6.7c1.9,1.7,4.9,1.7,6.7-0.2l11.6-12.3l0,0l0,0c0.1-0.1,0.2-0.2,0.2-0.3l2.6,14.5c0.4,2.5,2.5,4.4,5.1,4.4
			c0.2,0,0.5,0,0.7,0c2.8-0.4,4.8-2.9,4.4-5.7c-0.1-1.3-2.9-35.8-3.6-46.4l9,5.8c1.9,1.3,4.6,0.9,6-1.1c1.3-1.9,0.9-4.5-1-5.9
			l-10.6-8.2l-6.2-10C124.3,18.2,120.7,16.3,116.9,16.5L116.9,16.5z"/>
		<path id="パス_1307" class="st0" d="M99.7,16.9c-4.1,0-7.4-3.3-7.4-7.4s3.3-7.4,7.4-7.4c4.1,0,7.4,3.3,7.4,7.4
			c0,3.8-2.9,7-6.6,7.4C100.2,16.9,100,16.9,99.7,16.9"/>
		<path id="パス_1308" class="st1" d="M99.7,2.9c3.7,0,6.7,3,6.7,6.7c0,3.4-2.6,6.3-6,6.6c-0.2,0-0.5,0-0.7,0
			c-3.7,0-6.7-3-6.7-6.7c0-3.4,2.6-6.3,6-6.6C99.2,2.9,99.5,2.9,99.7,2.9 M99.7,1.4L99.7,1.4c-0.3,0-0.6,0-0.9,0
			c-4.5,0.5-7.7,4.5-7.3,8.9c0.4,4.2,3.9,7.3,8.1,7.3c0.3,0,0.6,0,0.9,0c4.5-0.5,7.7-4.5,7.3-8.9C107.4,4.5,103.9,1.4,99.7,1.4"/>
		<path id="パス_1309" class="st0" d="M94.1,86.7c-2.3,0-4.1-1.8-4.1-4.1c0-0.5,0.1-1.1,0.3-1.6l5-14.5l4.4,13.9l-1.8,3.8
			C97.2,85.7,95.7,86.7,94.1,86.7"/>
		<path id="パス_1310" class="st1" d="M95.3,68.8l3.6,11.5l-1.7,3.5c-0.7,1.7-2.7,2.5-4.4,1.8c-1.7-0.7-2.5-2.7-1.8-4.4L95.3,68.8
			z M95.3,64.1l-1.5,4.2l-4.3,12.4c-1,2.5,0.1,5.3,2.6,6.3c2.5,1,5.3-0.1,6.3-2.6l1.7-3.5l0.2-0.5l-0.2-0.6l-3.6-11.5L95.3,64.1z"/>
		<path id="パス_1311" class="st0" d="M105.5,90.2c-1.9-0.1-3.6-1.5-4.1-3.3L92.2,56c-0.8-3-1.3-6.1-1.6-9.2
			c-0.1-2.7-0.3-8-0.4-10.8L77.7,49.7c-1.2,1.4-3.3,1.6-4.7,0.4c-1.4-1.2-1.6-3.3-0.4-4.7l15.3-22.1c2.2-3.3,6-5.1,11.6-5.4
			c0.3,0,0.6,0,0.9,0c6.3,0,11,3.8,12.8,7.3l4.3,9.1l5.4,11.3c0.8,1.6,0.2,3.6-1.4,4.5c-1.6,0.9-3.6,0.2-4.5-1.4c0,0,0,0,0,0
			L110.6,38l-2.1-3.6l-1.3,29.6l2.4,21.6c0.4,2.2-1.2,4.3-3.4,4.7C105.9,90.2,105.7,90.2,105.5,90.2"/>
		<path id="パス_1312" class="st1" d="M100.4,18.7c5-0.1,9.6,2.5,12.1,6.9l4.3,9.1l5.4,11.3c0.7,1.3,0.2,2.8-1.1,3.5
			c-1.3,0.7-2.8,0.2-3.5-1.1l-6.4-10.7l-3.4-5.8l-1.4,32.1l2.4,21.6c0.3,1.8-0.9,3.6-2.8,3.9c0,0,0,0,0,0c-0.2,0-0.4,0-0.5,0
			c-1.6-0.1-3-1.2-3.4-2.8l-9.2-30.9c-0.8-3-1.3-6-1.5-9C91.2,43,91,34.2,91,34.2L77.1,49.2c-0.9,1.1-2.5,1.3-3.6,0.4
			c-1.1-0.9-1.3-2.5-0.4-3.6c0,0,0,0,0.1-0.1l15.3-22.1c2.3-3.4,6.1-4.8,11.1-5.1C99.8,18.7,100.1,18.7,100.4,18.7 M100.4,17.2
			c-0.3,0-0.7,0-1,0c-5.9,0.3-9.9,2.2-12.2,5.7L72,45c-1.4,1.8-1.1,4.3,0.7,5.7c1.7,1.4,4.2,1.1,5.6-0.5l11.4-12.4
			c0.1,2.9,0.2,6.8,0.3,9c0.2,3.1,0.8,6.3,1.6,9.3l0,0l0,0l9.2,30.9c0.6,2.2,2.5,3.8,4.8,3.9c0.3,0,0.5,0,0.8-0.1
			c2.6-0.4,4.4-2.9,4-5.5l-2.4-21.5l1.2-27l0.8,1.4l6.4,10.7c1.1,2,3.5,2.7,5.5,1.7c2-1.1,2.7-3.5,1.7-5.5L118.2,34l-4.3-9.1
			C111.2,20.1,106,17.1,100.4,17.2"/>
		<path id="パス_1313" class="st0" d="M80.5,16.9c-4.1,0-7.4-3.3-7.4-7.4c0-4.1,3.3-7.4,7.4-7.4s7.4,3.3,7.4,7.4
			c0,3.8-2.9,7-6.6,7.4C81,16.9,80.7,16.9,80.5,16.9"/>
		<path id="パス_1314" class="st1" d="M80.5,2.9c3.7,0,6.7,3,6.7,6.7c0,3.4-2.6,6.3-6,6.6c-0.2,0-0.5,0-0.7,0
			c-3.7,0-6.7-3-6.7-6.7c0-3.4,2.6-6.3,6-6.6C80,2.9,80.2,2.9,80.5,2.9 M80.5,1.4L80.5,1.4c-0.3,0-0.6,0-0.9,0
			c-4.5,0.5-7.7,4.5-7.3,8.9c0.4,4.2,3.9,7.3,8.1,7.3c0.3,0,0.6,0,0.9,0c4.5-0.5,7.7-4.5,7.3-8.9C88.1,4.5,84.7,1.4,80.5,1.4"/>
		<path id="パス_1315" class="st0" d="M74.8,86.7c-2.3,0-4.1-1.8-4.1-4.1c0-0.5,0.1-1.1,0.3-1.6l5-14.5l4.4,13.9l-1.8,3.8
			C78,85.7,76.5,86.7,74.8,86.7"/>
		<path id="パス_1316" class="st1" d="M76,68.8l3.6,11.5l-1.7,3.5c-0.7,1.7-2.7,2.5-4.4,1.8c-1.7-0.7-2.5-2.7-1.8-4.4L76,68.8z
			 M76.1,64.1l-1.5,4.2l-4.3,12.4c-1,2.5,0.1,5.3,2.6,6.4s5.3-0.1,6.4-2.6l1.7-3.5l0.2-0.5L81,79.9l-3.6-11.5L76.1,64.1z"/>
		<path id="パス_1317" class="st0" d="M86.3,90.2c-1.9-0.1-3.6-1.5-4.1-3.3L73,56c-0.8-3-1.3-6.1-1.6-9.2c-0.1-2.7-0.3-8-0.4-10.8
			L58.4,49.7c-1.2,1.4-3.3,1.6-4.7,0.4c-1.4-1.2-1.6-3.3-0.4-4.7l15.3-22.1c2.2-3.3,6-5.1,11.6-5.4c0.3,0,0.6,0,0.9,0
			c6.3,0,11,3.8,12.8,7.3l4.3,9.1l5.4,11.3c0.8,1.6,0.2,3.6-1.4,4.5c-1.6,0.9-3.6,0.2-4.5-1.4c0,0,0,0,0,0L91.4,38l-2.1-3.6
			l-1.3,29.6l2.4,21.6c0.4,2.2-1.2,4.3-3.4,4.7C86.7,90.2,86.5,90.2,86.3,90.2"/>
		<path id="パス_1318" class="st1" d="M81.2,18.7c5-0.1,9.6,2.5,12.1,6.9l4.3,9.1l5.4,11.3c0.7,1.3,0.2,2.8-1.1,3.5
			c-1.3,0.7-2.8,0.2-3.5-1.1L92,37.6l-3.4-5.8l-1.4,32.1l2.4,21.6c0.3,1.8-0.9,3.6-2.8,3.9c0,0,0,0,0,0c-0.2,0-0.4,0-0.5,0
			c-1.6-0.1-3-1.2-3.4-2.8l-9.2-30.9c-0.8-3-1.3-6-1.5-9C72,43,71.7,34.2,71.7,34.2L57.9,49.2c-0.9,1.1-2.5,1.3-3.6,0.4
			c-1.1-0.9-1.3-2.5-0.4-3.6c0,0,0,0,0.1-0.1l15.3-22.1c2.3-3.4,6.1-4.8,11.1-5.1C80.6,18.7,80.9,18.7,81.2,18.7 M81.2,17.2
			c-0.3,0-0.7,0-1,0c-5.9,0.3-9.9,2.2-12.2,5.7L52.7,45c-1.4,1.8-1.1,4.3,0.7,5.7c1.7,1.4,4.2,1.1,5.6-0.5l11.4-12.4
			c0.1,2.9,0.2,6.8,0.3,9c0.2,3.1,0.8,6.3,1.6,9.3l0,0l0,0l9.2,30.9c0.6,2.2,2.5,3.8,4.8,3.9c0.3,0,0.5,0,0.8-0.1
			c2.6-0.4,4.4-2.9,4-5.5l-2.4-21.5l1.2-27l0.8,1.4L97.1,49c1.1,2,3.5,2.7,5.5,1.7c2-1.1,2.7-3.5,1.7-5.5L99,34l-4.3-9.1
			C92,20.1,86.8,17.1,81.2,17.2"/>
	</g>
</g>
</svg>
