<?xml version="1.0" encoding="utf-8"?>
<!-- Generator: Adobe Illustrator 28.1.0, SVG Export Plug-In . SVG Version: 6.00 Build 0)  -->
<svg version="1.1" id="レイヤー_1" xmlns="http://www.w3.org/2000/svg" xmlns:xlink="http://www.w3.org/1999/xlink" x="0px"
	 y="0px" viewBox="0 0 286.4 150.8" style="enable-background:new 0 0 286.4 150.8;" xml:space="preserve">
<style type="text/css">
	.st0{clip-path:url(#SVGID_00000105427525410664871730000018194517471763100095_);}
	.st1{fill:#5B8DCD;}
	.st2{fill:none;stroke:#FFFFFF;stroke-width:2;stroke-linecap:round;stroke-linejoin:round;}
</style>
<g id="グループ_1938" transform="translate(-1446.957 -3138.236)">
	<g id="グループ_2018" transform="translate(1636.457 3152.736)">
		<g>
			<defs>
				<rect id="SVGID_1_" y="0" width="96.9" height="44.3"/>
			</defs>
			<clipPath id="SVGID_00000013156213042376395150000008745541273741591468_">
				<use xlink:href="#SVGID_1_"  style="overflow:visible;"/>
			</clipPath>
			<g id="グループ_1946" style="clip-path:url(#SVGID_00000013156213042376395150000008745541273741591468_);">
				<path id="パス_1424" class="st1" d="M7.9,26.2c1.6-1.7,4.4-2.1,11.2-2.1h12.5L55,2.2c0.6-0.7,1.4-1.1,2.3-1.2l8.4,0
					c0.6,0,0.7,0.8,0.1,1.7L52.4,24.1h19.9L84.6,9.2c0.5-0.6,1.2-1,1.9-1.1h6.4c0.6,0,0.9,0.6,0.7,1.4l-3.9,14.6h3.7
					c3.1,0,3.4,5.1,0.6,7.3S66.5,43.3,63.1,43.3H19.4C10,43.3,1,39,1,33.9C1,31.4,6.3,27.9,7.9,26.2"/>
				<path id="パス_1425" class="st2" d="M7.9,26.2c1.6-1.7,4.4-2.1,11.2-2.1h12.5L55,2.2c0.6-0.7,1.4-1.1,2.3-1.2l8.4,0
					c0.6,0,0.7,0.8,0.1,1.7L52.4,24.1h19.9L84.6,9.2c0.5-0.6,1.2-1,1.9-1.1h6.4c0.6,0,0.9,0.6,0.7,1.4l-3.9,14.6h3.7
					c3.1,0,3.4,5.1,0.6,7.3S66.5,43.3,63.1,43.3H19.4C10,43.3,1,39,1,33.9C1,31.4,6.3,27.9,7.9,26.2z"/>
			</g>
		</g>
	</g>
</g>
</svg>
