<?xml version="1.0" encoding="utf-8"?>
<!-- Generator: Adobe Illustrator 28.1.0, SVG Export Plug-In . SVG Version: 6.00 Build 0)  -->
<svg version="1.1" id="グループ_2022" xmlns="http://www.w3.org/2000/svg" xmlns:xlink="http://www.w3.org/1999/xlink" x="0px"
	 y="0px" viewBox="0 0 137.6 121.1" style="enable-background:new 0 0 137.6 121.1;" xml:space="preserve">
<style type="text/css">
	.st0{fill:#5B8DCD;}
</style>
<path id="パス_1417" class="st0" d="M135.8,56.2l-17.9-17.9c-2.4-2.4-6.3-2.4-8.7-0.1s-2.4,6.3-0.1,8.7c0,0,0,0,0.1,0.1l7.4,7.4
	H76.7c-3.4,0.1-6.1,2.9-6,6.3c0.1,3.3,2.7,5.9,6,6h39.9l-7.4,7.4c-2.4,2.4-2.4,6.3-0.1,8.7s6.3,2.4,8.7,0.1c0,0,0,0,0.1-0.1
	l17.9-17.9C138.2,62.5,138.2,58.6,135.8,56.2C135.8,56.2,135.8,56.2,135.8,56.2"/>
</svg>
