<?xml version="1.0" encoding="utf-8"?>
<!-- Generator: Adobe Illustrator 28.1.0, SVG Export Plug-In . SVG Version: 6.00 Build 0)  -->
<svg version="1.1" id="グループ_1918" xmlns="http://www.w3.org/2000/svg" xmlns:xlink="http://www.w3.org/1999/xlink" x="0px"
	 y="0px" viewBox="0 0 235.6 111.3" style="enable-background:new 0 0 235.6 111.3;" xml:space="preserve">
<style type="text/css">
	.st0{clip-path:url(#SVGID_00000164472644915662524760000015380201191584042120_);}
	.st1{fill:none;stroke:#5B8DCD;stroke-width:3.128;stroke-miterlimit:10;}
	.st2{fill:none;stroke:#396CAE;stroke-width:1.55;stroke-miterlimit:10;}
	.st3{fill:none;stroke:#396CAE;stroke-width:1.542;stroke-miterlimit:10;}
	.st4{fill:#5B8DCD;}
	.st5{fill:#FFFFFF;}
</style>
<g>
	<defs>
		<rect id="SVGID_1_" y="0" width="235.6" height="111.3"/>
	</defs>
	<clipPath id="SVGID_00000121241149025623772250000009200898155582519975_">
		<use xlink:href="#SVGID_1_"  style="overflow:visible;"/>
	</clipPath>
	<g id="グループ_1917" style="clip-path:url(#SVGID_00000121241149025623772250000009200898155582519975_);">
		<path id="パス_1328" class="st1" d="M228.9,67.6h-7.5c-1.9,0-3.5,1.3-4,3.1l-2.2,9l-8.5-9.7c-1.3-1.5-3.3-2.4-5.3-2.4h-31.7
			c-3.3,0-5.9-2.7-5.9-5.9v-46c0-3.3,2.7-5.9,5.9-5.9h59.2c3.3,0,5.9,2.7,5.9,5.9v46C234.9,65,232.2,67.6,228.9,67.6z"/>
		<rect id="長方形_1870" x="222.3" y="28.5" class="st2" width="3.3" height="24.7"/>
		<rect id="長方形_1871" x="220.3" y="53.3" class="st3" width="7.1" height="3.5"/>
		<rect id="長方形_1872" x="216.4" y="23.1" class="st4" width="15" height="8.2"/>
		<path id="パス_1343" class="st5" d="M220,24.4c-0.1,0-0.2,0.1-0.2,0.2c0,0,0,0,0,0v1.2c0,0.1-0.1,0.2-0.2,0.2
			c-0.1,0-0.2-0.1-0.2-0.2c0,0,0,0,0,0l0-1.2c0-0.1-0.1-0.3-0.3-0.3c-0.1,0-0.3,0.1-0.3,0.3v1.2c0,0.1-0.1,0.2-0.1,0.2c0,0,0,0,0,0
			c-0.1,0-0.2-0.1-0.2-0.2v-1.2c0-0.1-0.1-0.2-0.2-0.2c0,0,0,0,0,0c-0.1,0-0.2,0.1-0.2,0.2c0,0.1-0.1,0.9-0.1,1.5
			c0,0.4,0.2,0.8,0.6,0.9c0.2,0.1,0.2,0.2,0.2,0.4l-0.1,2.9h0.8l-0.1-2.9c0-0.2,0.1-0.3,0.2-0.4c0.4-0.2,0.6-0.5,0.6-0.9
			c0-0.5-0.1-1.4-0.1-1.5C220.2,24.5,220.1,24.4,220,24.4"/>
		<path id="パス_1344" class="st5" d="M229,24.4c-0.6,0-1.1,0.6-1.1,1.5c0,0.4,0.2,0.8,0.6,1.1c0.2,0.2,0.2,0.2,0.2,0.4l-0.1,2.9
			h0.8l-0.1-2.9c0-0.2,0.1-0.2,0.2-0.4c0.3-0.3,0.5-0.7,0.6-1.1C230.2,25,229.6,24.4,229,24.4"/>
		<path id="パス_1345" class="st5" d="M227.4,26.9c0,1.8-1.5,3.3-3.3,3.3c-1.8,0-3.3-1.5-3.3-3.3c0-1.8,1.5-3.3,3.3-3.3l0,0
			C225.9,23.7,227.4,25.1,227.4,26.9"/>
		<path id="パス_1346" class="st4" d="M197.8,39.3L197.8,39.3l-0.1,0.2h1l-0.5-1.4L197.8,39.3z"/>
		<path id="パス_1347" class="st4" d="M184.5,46.9c-0.1-0.1-0.3-0.1-0.4,0l-2.3,2c-0.1,0.1-0.1,0.3,0,0.4c0.1,0.1,0.3,0.1,0.4,0
			l0,0l2.3-1.9C184.6,47.2,184.6,47,184.5,46.9"/>
		<path id="パス_1348" class="st4" d="M184.3,48.5l-1.3,1.2c-0.1,0.1-0.1,0.3,0,0.4c0.1,0.1,0.3,0.1,0.4,0l1.3-1.2
			c0.1-0.1,0.1-0.3,0-0.4C184.6,48.4,184.4,48.4,184.3,48.5L184.3,48.5"/>
		<path id="パス_1349" class="st4" d="M188.7,49.3c0.1,0,0.1,0,0.2-0.1l2.3-1.9c0.1-0.1,0.2-0.3,0-0.4c-0.1-0.1-0.3-0.2-0.4,0
			c0,0,0,0,0,0l-2.3,2c-0.1,0.1-0.1,0.3,0,0.4C188.6,49.3,188.7,49.3,188.7,49.3"/>
		<path id="パス_1350" class="st4" d="M191,48.5l-1.3,1.2c-0.1,0.1-0.1,0.3,0,0.4c0.1,0.1,0.3,0.1,0.4,0l1.3-1.2
			c0.1-0.1,0.1-0.3,0-0.4C191.3,48.4,191.1,48.4,191,48.5L191,48.5"/>
		<path id="パス_1351" class="st4" d="M211.4,46.9c-0.1-0.1-0.3-0.1-0.4,0l-2.3,2c-0.1,0.1-0.1,0.3,0,0.4c0.1,0.1,0.3,0.1,0.4,0
			l0,0l2.3-1.9C211.5,47.2,211.5,47,211.4,46.9"/>
		<path id="パス_1352" class="st4" d="M211.2,48.5l-1.3,1.2c-0.1,0.1-0.1,0.3,0,0.4c0.1,0.1,0.3,0.1,0.4,0l1.3-1.2
			c0.1-0.1,0.1-0.3,0-0.4C211.5,48.4,211.3,48.4,211.2,48.5L211.2,48.5"/>
		<path id="パス_1353" class="st4" d="M215.6,49.3c0.1,0,0.1,0,0.2-0.1l2.3-1.9c0.1-0.1,0.2-0.3,0-0.4c-0.1-0.1-0.3-0.2-0.4,0
			c0,0,0,0,0,0l-2.3,2c-0.1,0.1-0.1,0.3,0,0.4C215.5,49.3,215.5,49.3,215.6,49.3"/>
		<path id="パス_1354" class="st4" d="M217.9,48.5l-1.3,1.2c-0.1,0.1-0.1,0.3,0,0.4c0.1,0.1,0.3,0.1,0.4,0l1.3-1.2
			c0.1-0.1,0.1-0.3,0-0.4C218.2,48.4,218,48.4,217.9,48.5L217.9,48.5"/>
		<path id="パス_1355" class="st4" d="M222.2,42.4h-10.9v-7.2c0-0.2-0.1-0.3-0.3-0.3l0,0h-22.4c-0.2,0-0.3,0.1-0.3,0.3v0v7.2
			h-10.9c-0.2,0-0.3,0.1-0.3,0.3v0v2.7c0,0.2,0.1,0.3,0.3,0.3l0,0h1.8v11.2c0,0.2,0.1,0.3,0.3,0.3l0,0h20V45.8h-3.6
			c-0.2,0-0.3,0.1-0.3,0.3v0v10.5h-2.1V43h12.6v13.6H204V46.1c0-0.2-0.1-0.3-0.3-0.3l0,0h-3.6v11.4h20c0.2,0,0.3-0.1,0.3-0.3v0V45.7
			h1.8c0.2,0,0.3-0.1,0.3-0.3v0v-2.7C222.5,42.5,222.4,42.4,222.2,42.4L222.2,42.4 M206.7,45.7h6.2v6.7h-6.2V45.7z M179.8,45.7h6.2
			v6.7h-6.2V45.7z M192.9,56.6h-13V53h13V56.6z M192.9,52.4h-6.2v-6.7h6.2V52.4z M219.8,56.6h-13V53h13L219.8,56.6z M219.8,52.4
			h-6.2v-6.7h6.2V52.4z"/>
		<path id="パス_1356" class="st5" d="M195.6,37.1c-0.1,0-0.2,0.1-0.2,0.2c0,0,0,0,0,0v1.2c0,0.1-0.1,0.2-0.2,0.2
			c-0.1,0-0.2-0.1-0.2-0.2c0,0,0,0,0,0l0-1.2c0-0.1-0.1-0.3-0.3-0.3c-0.1,0-0.3,0.1-0.3,0.3v1.2c0,0.1-0.1,0.2-0.1,0.2c0,0,0,0,0,0
			c-0.1,0-0.2-0.1-0.2-0.2v-1.2c0-0.1-0.1-0.2-0.2-0.2c0,0,0,0,0,0c-0.1,0-0.2,0.1-0.2,0.2c0,0.1-0.1,0.9-0.1,1.5
			c0,0.4,0.2,0.8,0.6,0.9c0.2,0.1,0.2,0.2,0.2,0.4l-0.1,2.9h0.8l-0.1-2.9c0-0.2,0.1-0.3,0.2-0.4c0.4-0.2,0.6-0.5,0.6-0.9
			c0-0.5-0.1-1.4-0.1-1.5C195.8,37.2,195.7,37.1,195.6,37.1"/>
		<path id="パス_1357" class="st5" d="M204.6,37.1c-0.6,0-1.1,0.6-1.1,1.5c0,0.4,0.2,0.8,0.6,1.1c0.2,0.2,0.2,0.2,0.2,0.4
			l-0.1,2.9h0.8l-0.1-2.9c0-0.2,0.1-0.2,0.2-0.4c0.3-0.3,0.5-0.7,0.6-1.1C205.7,37.7,205.1,37.1,204.6,37.1"/>
		<path id="パス_1358" class="st5" d="M202.9,39.6c0,1.8-1.5,3.3-3.3,3.3c-1.8,0-3.3-1.5-3.3-3.3c0-1.8,1.5-3.3,3.3-3.3l0,0
			C201.5,36.3,202.9,37.8,202.9,39.6"/>
	</g>
</g>
</svg>
