<?xml version="1.0" encoding="utf-8"?>
<!-- Generator: Adobe Illustrator 28.1.0, SVG Export Plug-In . SVG Version: 6.00 Build 0)  -->
<svg version="1.1" id="グループ_1918" xmlns="http://www.w3.org/2000/svg" xmlns:xlink="http://www.w3.org/1999/xlink" x="0px"
	 y="0px" viewBox="0 0 235.6 111.3" style="enable-background:new 0 0 235.6 111.3;" xml:space="preserve">
<style type="text/css">
	.st0{clip-path:url(#SVGID_00000021830240217783977040000008553099285847615896_);}
	.st1{fill:none;stroke:#396CAE;stroke-width:4;stroke-miterlimit:10;}
	.st2{fill:#396CAE;}
	.st3{fill:#5B8DCD;}
	.st4{fill:#FFFFFF;}
</style>
<g>
	<defs>
		<rect id="SVGID_1_" y="0" width="235.6" height="111.3"/>
	</defs>
	<clipPath id="SVGID_00000093863484815469467560000017123669608416572082_">
		<use xlink:href="#SVGID_1_"  style="overflow:visible;"/>
	</clipPath>
	<g id="グループ_1917" style="clip-path:url(#SVGID_00000093863484815469467560000017123669608416572082_);">
		<path id="パス_1329" class="st1" d="M90.2,93.8h9.6c2.4,0,4.5,1.7,5.1,4l2.8,11.5l10.8-12.4c1.7-2,4.2-3.1,6.8-3.1h40.5
			c4.2,0,7.6-3.4,7.6-7.6V27.4c0-4.2-3.4-7.6-7.6-7.6c0,0,0,0,0,0H90.2c-4.2,0-7.6,3.4-7.6,7.6v58.8C82.6,90.4,86,93.8,90.2,93.8
			C90.2,93.8,90.2,93.8,90.2,93.8z"/>
		<path id="パス_1330" class="st2" d="M110.1,56.8c-0.3,0-0.5,0.2-0.5,0.5v11.4c0,0.3,0.2,0.5,0.5,0.5c0,0,0,0,0,0h9.3
			c0.3,0,0.5-0.2,0.5-0.5c0,0,0,0,0,0V57.3c0-0.3-0.2-0.5-0.5-0.5H110.1z M118.8,68.2h-8.2v-4.7h8.2V68.2z M118.8,62.5h-8.2v-4.7
			h8.2V62.5z"/>
		<path id="パス_1331" class="st2" d="M136.4,57.3v11.4c0,0.3,0.2,0.5,0.5,0.5c0,0,0,0,0,0h9.3c0.3,0,0.5-0.2,0.5-0.5c0,0,0,0,0,0
			V57.3c0-0.3-0.2-0.5-0.5-0.5l0,0h-9.3C136.6,56.8,136.4,57,136.4,57.3L136.4,57.3 M137.4,57.8h8.2v4.7h-8.2V57.8z M137.4,63.5h8.2
			v4.7h-8.2V63.5z"/>
		<rect id="長方形_1863" x="110.5" y="31.4" class="st3" width="35.3" height="12.1"/>
		<path id="パス_1332" class="st3" d="M150.8,41c0-0.8-0.6-1.4-1.4-1.4h-2.5v4.5c0,0.3-0.2,0.5-0.5,0.5l0,0h-3.7V49
			c0,2.2,1.8,4.1,4.1,4.1h0.1c0.7,0,1.4-0.2,2-0.5v23.8H134V63c0-3.2-2.6-5.8-5.8-5.8c0,0,0,0,0,0h-0.1c-3.2,0-5.8,2.6-5.8,5.8v13.3
			h-14.7V52.5c0.6,0.3,1.3,0.5,2,0.5h0.1c2.2,0,4.1-1.8,4.1-4.1v-4.4H110c-0.3,0-0.5-0.2-0.5-0.5v-4.5h-2.5c-0.8,0-1.4,0.6-1.4,1.4
			v8c0,1,0.4,1.9,1,2.7v25.2c0,0.3,0.2,0.5,0.5,0.5h42.2c0.3,0,0.5-0.2,0.5-0.5v0V51.7c0.7-0.7,1-1.7,1-2.7L150.8,41z"/>
		<path id="パス_1333" class="st3" d="M133.3,49c0,2.2,1.8,4.1,4.1,4.1h0.1c2.2,0,4.1-1.8,4.1-4.1v-4.4h-8.2V49z"/>
		<path id="パス_1334" class="st3" d="M128.1,53.1L128.1,53.1c2.3,0,4.2-1.8,4.2-4.1v-4.4H124V49C124,51.2,125.9,53,128.1,53.1"/>
		<path id="パス_1335" class="st3" d="M123,49v-4.4h-8.2V49c0,2.2,1.8,4.1,4.1,4.1h0.1C121.2,53,123,51.2,123,49"/>
		<path id="パス_1336" class="st4" d="M122.3,33.6c-0.2,0-0.3,0.1-0.3,0.3c0,0,0,0,0,0v1.6c0,0.2-0.1,0.3-0.2,0.3
			c-0.1,0-0.2-0.1-0.2-0.2c0,0,0,0,0,0l0-1.7c0-0.2-0.2-0.4-0.4-0.4c-0.2,0-0.4,0.2-0.4,0.4v1.7c0,0.1-0.1,0.2-0.2,0.2c0,0,0,0,0,0
			c-0.1,0-0.2-0.1-0.2-0.3V34c0-0.2-0.1-0.3-0.3-0.3c0,0,0,0,0,0c-0.2,0-0.3,0.2-0.3,0.3c0,0.2-0.1,1.3-0.1,2.1
			c0,0.6,0.3,1.1,0.8,1.3c0.2,0.1,0.4,0.3,0.4,0.5l-0.1,4.1h1.1l-0.1-4.1c0-0.2,0.1-0.5,0.4-0.5c0.5-0.2,0.8-0.8,0.8-1.3
			c0-0.8-0.1-1.9-0.1-2.1C122.6,33.8,122.5,33.6,122.3,33.6"/>
		<path id="パス_1337" class="st4" d="M135.1,33.7c-0.8,0-1.6,0.8-1.6,2.2c0.1,0.6,0.3,1.2,0.8,1.6c0.2,0.2,0.4,0.3,0.4,0.5
			l-0.1,4.1h1.1l-0.1-4.1c0-0.2,0.1-0.3,0.4-0.5c0.5-0.4,0.8-1,0.8-1.6C136.7,34.5,135.9,33.7,135.1,33.7"/>
		<path id="パス_1338" class="st4" d="M132.8,37.2c0,2.6-2.1,4.6-4.6,4.6s-4.6-2.1-4.6-4.6s2.1-4.6,4.6-4.6c0,0,0,0,0,0
			C130.7,32.6,132.8,34.6,132.8,37.2C132.8,37.2,132.8,37.2,132.8,37.2"/>
	</g>
</g>
</svg>
