<svg xmlns="http://www.w3.org/2000/svg" width="188.01" height="94.585" viewBox="0 0 188.01 94.585">
  <g id="グループ_2044" data-name="グループ 2044" transform="translate(-42.31 -100.865)">
    <path id="パス_1591" data-name="パス 1591" d="M12.15-10.62c-1.8,0-3.6-.09-5.4-.09-1.485,0-1.44.4-1.44,2.7,0,1.53,0,2.385,1.26,2.385,1.845,0,3.735-.09,5.58-.09h20.7c1.845,0,3.735.09,5.58.09,1.26,0,1.26-.855,1.26-2.34,0-2.34.045-2.745-1.44-2.745-1.8,0-3.6.09-5.4.09Zm4.5-18.99c-1.935,0-3.87-.09-5.8-.09-1.125,0-1.26.4-1.26,2.475,0,1.8-.045,2.61,1.35,2.61,1.89,0,3.78-.09,5.67-.09h11.79c1.89,0,3.78.09,5.67.09,1.395,0,1.35-.81,1.35-2.565,0-2.07-.09-2.52-1.26-2.52-1.935,0-3.87.09-5.8.09Zm37.485,5.625c-1.935,0-3.87-.09-5.76-.09-1.26,0-1.305.315-1.305,2.61,0,1.755,0,2.2,1.26,2.2,1.935,0,3.825-.09,5.715-.09h16.74c.72,0,1.935-.09,1.935.99a11.541,11.541,0,0,1-1.215,2.925A32.382,32.382,0,0,1,57.69-2.655c-.45.225-1.575.63-1.575,1.17,0,.765,2.07,3.33,3.105,3.33,1.395,0,6.255-3.465,7.515-4.5a37.57,37.57,0,0,0,9.315-10.62,31.308,31.308,0,0,0,2.61-6.075,11.539,11.539,0,0,0,.585-1.845c0-.81-2.25-2.97-3.195-2.97a4.958,4.958,0,0,0-.81.09c-.945.09-3.015.09-4.05.09Zm3.015-9.72c-1.755,0-4.05-.135-5.31-.135-1.125,0-1.215.54-1.215,2.655,0,1.665,0,2.205,1.26,2.205,1.755,0,3.51-.09,5.265-.09H68.175c1.755,0,3.51.09,5.31.09,1.215,0,1.215-.585,1.215-2.115,0-2.25-.09-2.745-1.215-2.745-1.17,0-3.465.135-5.31.135Zm53.73,9.315c-.5,0-.54.495-.585.9a26.112,26.112,0,0,1-3.69,10.215c-3.24,5.265-8.145,7.92-13.95,9.495-.45.135-.72.315-.72.81,0,.63,1.665,3.105,2.52,3.105a7.955,7.955,0,0,0,1.4-.36,25.7,25.7,0,0,0,12.24-7.83c3.105-3.735,4.815-7.965,6.165-12.6.18-.54.225-.675.585-.945.225-.18.54-.36.54-.675,0-.45-.45-.675-.81-.81A30.542,30.542,0,0,0,110.88-24.39Zm-7.965,1.62c-.765-1.26-1.62-2.52-2.25-2.52-.585,0-3.015,1.125-3.015,1.89a1.518,1.518,0,0,0,.4.9,48.473,48.473,0,0,1,3.15,5.31c.18.36.45.855.9.855.63,0,3.24-1.17,3.24-2.07,0-.585-1.62-3.06-2.025-3.69Zm-11.385,0c-.585,0-3.015,1.125-3.015,1.935a1.667,1.667,0,0,0,.36.81,44.505,44.505,0,0,1,3.24,5.445c.18.36.4.765.855.765.54,0,3.24-1.125,3.24-2.07,0-.585-1.53-2.925-1.935-3.555-.45-.72-1.485-2.34-1.98-2.925A1,1,0,0,0,91.53-22.77Zm48.33-6.075c-.45-.045-.765-.27-.765-.765a6.814,6.814,0,0,1,.81-1.62c.765-1.4.9-1.62,1.53-1.845.18-.09.4-.27.4-.495,0-.5-2.295-1.35-2.7-1.575a15.012,15.012,0,0,0-2.385-.99c-.4,0-.54.63-.72,1.08-2.07,5.67-7.29,12.375-12.015,16.11a.706.706,0,0,0-.4.63c0,.945,3.285,2.655,3.825,2.655,1.215,0,6.39-6.165,7.245-7.38.585-.81.855-1.26,1.89-1.26h8.55c.63,0,1.35.045,1.35.63,0,1.125-2.7,5.49-3.465,6.615a39.876,39.876,0,0,1-17.37,14.4c-.36.135-.9.36-.9.81,0,.855,2.835,3.06,3.825,3.06.945,0,5.175-2.655,6.165-3.285,8.28-5.355,12.69-11.925,17.1-20.475a26.491,26.491,0,0,1,1.4-2.43,2.857,2.857,0,0,0,.54-1.125c0-.585-1.98-3.06-2.88-3.06-.18,0-.36.045-.495.045a10.7,10.7,0,0,1-2.52.27Zm31.5-1.845c-1.98,0-3.915-.09-5.85-.09-1.125,0-1.08.675-1.08,2.25,0,2.07-.09,2.745,1.125,2.745,1.935,0,3.87-.09,5.8-.09h9.315c.675,0,1.305.09,1.305.765a4.445,4.445,0,0,1-.765,1.53c-4.545,7.11-12.105,13.995-20.07,17.055-.4.135-.945.36-.945.9,0,.81,2.07,3.825,3.015,3.825a7.538,7.538,0,0,0,1.98-.855,50.093,50.093,0,0,0,11.25-7.875,2.156,2.156,0,0,1,1.35-.765,1.585,1.585,0,0,1,1.035.4,47.86,47.86,0,0,1,9.945,8.91A1.5,1.5,0,0,0,189.9-1.3c.945,0,3.42-2.655,3.42-3.6a.86.86,0,0,0-.315-.63c-1.035-1.08-2.16-2.115-3.24-3.06a72.263,72.263,0,0,0-7.605-5.8,1.2,1.2,0,0,1-.675-1.08,1.229,1.229,0,0,1,.36-.855,65.236,65.236,0,0,0,5.85-8.55c.18-.315.45-.765.72-1.17a8.71,8.71,0,0,0,.99-1.755c0-.585-1.935-3.06-2.88-3.06-.27,0-.72.09-.99.09a12.1,12.1,0,0,1-1.935.09ZM46.935,34.015c-1.89.585-2.43.765-2.43,1.35,0,1.26,2.025,4.5,3.42,4.5a2.552,2.552,0,0,0,1.17-.36c5.49-2.835,12.465-6.165,18.72-6.165,3.78,0,6.885,2.25,6.885,6.255,0,7.695-9.855,11.07-16.155,11.565-.585.045-1.53.135-1.53.945A9.6,9.6,0,0,0,58.05,55.12c.36.63.675,1.08,1.44,1.08,2.025,0,6.84-1.485,8.775-2.25,6.03-2.475,11.52-7.335,11.52-14.265a11.636,11.636,0,0,0-3.06-7.92A12.1,12.1,0,0,0,67.86,28.48c-5.67,0-11.34,2.3-16.6,4.14C49.365,33.295,47.97,33.7,46.935,34.015ZM109.08,31.63a.742.742,0,0,0,.4.675c4.275,3.285,6.12,7.56,6.66,12.825.09,1.08.045,1.71,1.485,1.71a9.513,9.513,0,0,0,2.52-.4c.765-.225,1.215-.45,1.215-1.305a24.549,24.549,0,0,0-2.655-9.36c-2.16-4.14-5.94-6.975-6.93-6.975C110.88,28.8,109.08,30.775,109.08,31.63ZM88.785,28.7a.56.56,0,0,0-.63.5c-.09.405-.225,6.12-.225,6.84,0,4.77.36,10.44,2.61,14.67,1.485,2.745,4.1,5.76,7.425,5.76,2.115,0,3.51-1.35,4.815-2.835.63-.72,2.655-3.06,2.655-3.915,0-.81-2.295-2.655-3.24-2.655-.585,0-.945.675-1.215,1.125-.54.99-1.845,2.97-3.1,2.97-1.575,0-3.06-2.655-3.6-3.915a25.713,25.713,0,0,1-1.44-9.4,33.533,33.533,0,0,1,.36-4.77c.135-.765.18-1.665.81-2.16.27-.225.45-.315.45-.585,0-.45-.63-.54-.99-.63C92.7,29.56,89.37,28.7,88.785,28.7Zm37.98,1.125c0,.45.4,4.725,1.485,4.725a3.474,3.474,0,0,0,.675-.09,90.146,90.146,0,0,1,9.945-1.845c.495-.09,2.52-.4,2.88-.4.27,0,.675.18.675.54,0,.27-.585.855-.81,1.08a19.986,19.986,0,0,0-4.95,12.915c0,8.775,6.57,11.205,14.22,11.205.495,0,.99,0,1.305-.45A10.781,10.781,0,0,0,153,53.5c0-.72-.36-.765-1.035-.765-.45,0-1.44.045-2.25.045-4.545,0-7.92-1.26-7.92-6.48a16.848,16.848,0,0,1,2.16-7.92,13.62,13.62,0,0,1,7.695-6.7,22,22,0,0,1,7.47-.945c1.035-.045,1.98.045,1.98-.945a27.149,27.149,0,0,0-.36-3.285c-.135-.54-.225-1.125-.9-1.125a2.191,2.191,0,0,0-.54.045c-3.375.54-6.84.99-10.215,1.395-6.57.765-13.14,1.44-19.71,1.845C127.395,28.8,126.765,28.66,126.765,29.83Z" transform="translate(37 137)" fill="#396cae"/>
    <path id="パス_1592" data-name="パス 1592" d="M20.3,47.29c-.855,0-2.43,3.195-2.43,3.825,0,.72,3.015,4.5,10.305,4.5,1.8,0,9.405-.675,10.665-1.35.585-.315.54-1.125.54-1.665,0-2.295-.09-3.375-.81-3.375a3.2,3.2,0,0,0-.945.18,36.829,36.829,0,0,1-9.9,1.44,7.711,7.711,0,0,1-6.84-3.15A.793.793,0,0,0,20.3,47.29ZM21.33,27.805c-.72,0-.945.675-.945,2.835,0,.495-.045,1.44.45,1.755.945.63,6.48.9,7.875.9a52.448,52.448,0,0,0,7.56-.63c.855-.18.855-.54.855-1.485a22.067,22.067,0,0,0-.18-2.43c-.09-.54-.27-1.08-.9-1.08a4.345,4.345,0,0,0-.81.135,29.413,29.413,0,0,1-6.84.9A28.876,28.876,0,0,1,22.5,28.03,5.93,5.93,0,0,0,21.33,27.805Zm-10.8-3.51c-.495,0-.585.585-.675.99a20.7,20.7,0,0,1-.585,2.25,53.846,53.846,0,0,0-2.3,14.9A30.991,30.991,0,0,0,9.72,56.245c.585,1.215,1.125,2.205,1.89,2.205.945,0,3.51-1.08,3.51-2.205a3.993,3.993,0,0,0-.09-.675c-.045-.4-.18-1.44-.18-1.89,0-2.025,1.8-6.12,1.8-6.525,0-.495-1.17-1.44-1.62-1.44-.405,0-.675.495-.945,1.08-.18.45-.81,1.755-1.215,1.755-1.035,0-1.215-5.445-1.215-6.3a35.7,35.7,0,0,1,2.52-12.78c.45-1.125.63-1.53,1.395-1.935.45-.27.63-.315.63-.585,0-.45-.54-.63-.9-.765C14.67,25.915,10.89,24.295,10.53,24.295Z" transform="translate(37 137)" fill="#ff1901"/>
  </g>
</svg>
