<svg xmlns="http://www.w3.org/2000/svg" width="779.2" height="84.4" viewBox="0 0 779.2 84.4">
  <g id="グループ_2044" data-name="グループ 2044" transform="translate(-119.8 -229.7)">
    <path id="パス_1590" data-name="パス 1590" d="M27-23.6c-4,0-8-.2-12-.2-3.3,0-3.2.9-3.2,6,0,3.4,0,5.3,2.8,5.3,4.1,0,8.3-.2,12.4-.2H73c4.1,0,8.3.2,12.4.2,2.8,0,2.8-1.9,2.8-5.2,0-5.2.1-6.1-3.2-6.1-4,0-8,.2-12,.2ZM37-65.8c-4.3,0-8.6-.2-12.9-.2-2.5,0-2.8.9-2.8,5.5,0,4-.1,5.8,3,5.8,4.2,0,8.4-.2,12.6-.2H63.1c4.2,0,8.4.2,12.6.2,3.1,0,3-1.8,3-5.7,0-4.6-.2-5.6-2.8-5.6-4.3,0-8.6.2-12.9.2Zm83.3,12.5c-4.3,0-8.6-.2-12.8-.2-2.8,0-2.9.7-2.9,5.8,0,3.9,0,4.9,2.8,4.9,4.3,0,8.5-.2,12.7-.2h37.2c1.6,0,4.3-.2,4.3,2.2,0,1.3-2,5.2-2.7,6.5-6.4,11.5-18.7,23-30.7,28.4-1,.5-3.5,1.4-3.5,2.6,0,1.7,4.6,7.4,6.9,7.4,3.1,0,13.9-7.7,16.7-10A83.49,83.49,0,0,0,169-29.5,69.571,69.571,0,0,0,174.8-43a25.641,25.641,0,0,0,1.3-4.1c0-1.8-5-6.6-7.1-6.6a11.019,11.019,0,0,0-1.8.2c-2.1.2-6.7.2-9,.2ZM127-74.9c-3.9,0-9-.3-11.8-.3-2.5,0-2.7,1.2-2.7,5.9,0,3.7,0,4.9,2.8,4.9,3.9,0,7.8-.2,11.7-.2h24.5c3.9,0,7.8.2,11.8.2,2.7,0,2.7-1.3,2.7-4.7,0-5-.2-6.1-2.7-6.1-2.6,0-7.7.3-11.8.3ZM246.4-54.2c-1.1,0-1.2,1.1-1.3,2a58.025,58.025,0,0,1-8.2,22.7c-7.2,11.7-18.1,17.6-31,21.1-1,.3-1.6.7-1.6,1.8,0,1.4,3.7,6.9,5.6,6.9A17.677,17.677,0,0,0,213-.5c10.7-3.4,19.9-8.8,27.2-17.4,6.9-8.3,10.7-17.7,13.7-28,.4-1.2.5-1.5,1.3-2.1.5-.4,1.2-.8,1.2-1.5,0-1-1-1.5-1.8-1.8C253.4-51.8,247.3-54.2,246.4-54.2Zm-17.7,3.6c-1.7-2.8-3.6-5.6-5-5.6-1.3,0-6.7,2.5-6.7,4.2a3.373,3.373,0,0,0,.9,2,107.718,107.718,0,0,1,7,11.8c.4.8,1,1.9,2,1.9,1.4,0,7.2-2.6,7.2-4.6,0-1.3-3.6-6.8-4.5-8.2Zm-25.3,0c-1.3,0-6.7,2.5-6.7,4.3a3.7,3.7,0,0,0,.8,1.8,98.9,98.9,0,0,1,7.2,12.1c.4.8.9,1.7,1.9,1.7,1.2,0,7.2-2.5,7.2-4.6,0-1.3-3.4-6.5-4.3-7.9-1-1.6-3.3-5.2-4.4-6.5A2.227,2.227,0,0,0,203.4-50.6ZM310.8-64.1c-1-.1-1.7-.6-1.7-1.7,0-.8,1.4-2.8,1.8-3.6,1.7-3.1,2-3.6,3.4-4.1.4-.2.9-.6.9-1.1,0-1.1-5.1-3-6-3.5a33.359,33.359,0,0,0-5.3-2.2c-.9,0-1.2,1.4-1.6,2.4-4.6,12.6-16.2,27.5-26.7,35.8a1.568,1.568,0,0,0-.9,1.4c0,2.1,7.3,5.9,8.5,5.9,2.7,0,14.2-13.7,16.1-16.4,1.3-1.8,1.9-2.8,4.2-2.8h19c1.4,0,3,.1,3,1.4,0,2.5-6,12.2-7.7,14.7-9.9,14.6-22.5,24.8-38.6,32-.8.3-2,.8-2,1.8,0,1.9,6.3,6.8,8.5,6.8,2.1,0,11.5-5.9,13.7-7.3,18.4-11.9,28.2-26.5,38-45.5a58.888,58.888,0,0,1,3.1-5.4,6.349,6.349,0,0,0,1.2-2.5c0-1.3-4.4-6.8-6.4-6.8-.4,0-.8.1-1.1.1a23.776,23.776,0,0,1-5.6.6Zm70-4.1c-4.4,0-8.7-.2-13-.2-2.5,0-2.4,1.5-2.4,5,0,4.6-.2,6.1,2.5,6.1,4.3,0,8.6-.2,12.9-.2h20.7c1.5,0,2.9.2,2.9,1.7,0,.9-1.2,2.6-1.7,3.4-10.1,15.8-26.9,31.1-44.6,37.9-.9.3-2.1.8-2.1,2,0,1.8,4.6,8.5,6.7,8.5.9,0,3.5-1.4,4.4-1.9a111.318,111.318,0,0,0,25-17.5c.8-.7,1.7-1.7,3-1.7a3.523,3.523,0,0,1,2.3.9c8.9,6.4,14.9,11.2,22.1,19.8A3.343,3.343,0,0,0,422-2.9c2.1,0,7.6-5.9,7.6-8a1.91,1.91,0,0,0-.7-1.4c-2.3-2.4-4.8-4.7-7.2-6.8A160.587,160.587,0,0,0,404.8-32a2.672,2.672,0,0,1-1.5-2.4,2.732,2.732,0,0,1,.8-1.9,144.968,144.968,0,0,0,13-19c.4-.7,1-1.7,1.6-2.6,1.1-1.8,2.2-3.4,2.2-3.9,0-1.3-4.3-6.8-6.4-6.8-.6,0-1.6.2-2.2.2a26.887,26.887,0,0,1-4.3.2ZM537.3-53.3c-4.2,1.3-5.4,1.7-5.4,3,0,2.8,4.5,10,7.6,10a5.672,5.672,0,0,0,2.6-.8c12.2-6.3,27.7-13.7,41.6-13.7,8.4,0,15.3,5,15.3,13.9,0,17.1-21.9,24.6-35.9,25.7-1.3.1-3.4.3-3.4,2.1,0,1.6,1.5,5.2,2.3,6.7.8,1.4,1.5,2.4,3.2,2.4,4.5,0,15.2-3.3,19.5-5,13.4-5.5,25.6-16.3,25.6-31.7a25.857,25.857,0,0,0-6.8-17.6c-5.2-5.3-12.4-7.3-19.7-7.3-12.6,0-25.2,5.1-36.9,9.2C542.7-54.9,539.6-54,537.3-53.3Zm138.1-5.3a1.65,1.65,0,0,0,.9,1.5c9.5,7.3,13.6,16.8,14.8,28.5.2,2.4.1,3.8,3.3,3.8a21.141,21.141,0,0,0,5.6-.9c1.7-.5,2.7-1,2.7-2.9,0-6-3.1-15.5-5.9-20.8-4.8-9.2-13.2-15.5-15.4-15.5C679.4-64.9,675.4-60.5,675.4-58.6Zm-45.1-6.5a1.244,1.244,0,0,0-1.4,1.1c-.2.9-.5,13.6-.5,15.2,0,10.6.8,23.2,5.8,32.6,3.3,6.1,9.1,12.8,16.5,12.8,4.7,0,7.8-3,10.7-6.3,1.4-1.6,5.9-6.8,5.9-8.7,0-1.8-5.1-5.9-7.2-5.9-1.3,0-2.1,1.5-2.7,2.5-1.2,2.2-4.1,6.6-6.9,6.6-3.5,0-6.8-5.9-8-8.7-2.6-6.3-3.2-14.2-3.2-20.9a74.518,74.518,0,0,1,.8-10.6c.3-1.7.4-3.7,1.8-4.8.6-.5,1-.7,1-1.3,0-1-1.4-1.2-2.2-1.4C639-63.2,631.6-65.1,630.3-65.1Zm84.4,2.5c0,1,.9,10.5,3.3,10.5a7.719,7.719,0,0,0,1.5-.2,200.329,200.329,0,0,1,22.1-4.1c1.1-.2,5.6-.9,6.4-.9.6,0,1.5.4,1.5,1.2,0,.6-1.3,1.9-1.8,2.4a44.414,44.414,0,0,0-11,28.7c0,19.5,14.6,24.9,31.6,24.9,1.1,0,2.2,0,2.9-1,1.1-1.8,1.8-6.7,1.8-8.9,0-1.6-.8-1.7-2.3-1.7-1,0-3.2.1-5,.1-10.1,0-17.6-2.8-17.6-14.4a37.439,37.439,0,0,1,4.8-17.6A30.267,30.267,0,0,1,770-58.5c5.6-2,10.7-2,16.6-2.1,2.3-.1,4.4.1,4.4-2.1a60.339,60.339,0,0,0-.8-7.3c-.3-1.2-.5-2.5-2-2.5a4.868,4.868,0,0,0-1.2.1c-7.5,1.2-15.2,2.2-22.7,3.1-14.6,1.7-29.2,3.2-43.8,4.1C716.1-64.9,714.7-65.2,714.7-62.6Z" transform="translate(108 310)" fill="#396cae"/>
    <path id="パス_1589" data-name="パス 1589" d="M45.1-23.8c-1.9,0-5.4,7.1-5.4,8.5,0,1.6,6.7,10,22.9,10,4,0,20.9-1.5,23.7-3,1.3-.7,1.2-2.5,1.2-3.7,0-5.1-.2-7.5-1.8-7.5a7.116,7.116,0,0,0-2.1.4,81.842,81.842,0,0,1-22,3.2c-6.7,0-10.9-1.7-15.2-7A1.761,1.761,0,0,0,45.1-23.8Zm2.3-43.3c-1.6,0-2.1,1.5-2.1,6.3,0,1.1-.1,3.2,1,3.9,2.1,1.4,14.4,2,17.5,2a116.55,116.55,0,0,0,16.8-1.4c1.9-.4,1.9-1.2,1.9-3.3a49.037,49.037,0,0,0-.4-5.4c-.2-1.2-.6-2.4-2-2.4a9.656,9.656,0,0,0-1.8.3,65.363,65.363,0,0,1-15.2,2A64.169,64.169,0,0,1,50-66.6,13.177,13.177,0,0,0,47.4-67.1Zm-24-7.8c-1.1,0-1.3,1.3-1.5,2.2a46,46,0,0,1-1.3,5c-3.1,11.2-5.1,21.4-5.1,33.1,0,10.5,1.4,21.2,6.1,30.7C22.9-1.2,24.1,1,25.8,1c2.1,0,7.8-2.4,7.8-4.9a8.874,8.874,0,0,0-.2-1.5c-.1-.9-.4-3.2-.4-4.2,0-4.5,4-13.6,4-14.5,0-1.1-2.6-3.2-3.6-3.2-.9,0-1.5,1.1-2.1,2.4-.4,1-1.8,3.9-2.7,3.9-2.3,0-2.7-12.1-2.7-14a79.344,79.344,0,0,1,5.6-28.4c1-2.5,1.4-3.4,3.1-4.3,1-.6,1.4-.7,1.4-1.3,0-1-1.2-1.4-2-1.7C32.6-71.3,24.2-74.9,23.4-74.9Z" transform="translate(541 310)" fill="#ff1901"/>
  </g>
</svg>
