<svg xmlns="http://www.w3.org/2000/svg" viewBox="0 0 239.53 84.45"><defs><style>.cls-1{fill:#231815;}.cls-2{fill:#e1f1f0;}.cls-3{fill:#9fa0a0;}.cls-4{fill:none;stroke:#e1f1f0;stroke-miterlimit:10;stroke-width:1.24px;}</style></defs><g id="レイヤー_2" data-name="レイヤー 2"><g id="レイヤー_2-2" data-name="レイヤー 2"><path class="cls-1" d="M96.84.88a3.56,3.56,0,0,0-.57,0V.41a5.53,5.53,0,0,0,.61,0h2.47a3.27,3.27,0,0,0,.58,0V.9l-.56,0V6.42a5.41,5.41,0,0,0,0,.81h-.59a4.88,4.88,0,0,0,0-.81V5.5c-.49.15-1.1.31-2.15.53l-.38.11-.16-.56a4,4,0,0,0,.71-.08V.88ZM97.39,2h1.49V.88H97.39Zm0,1.59h1.49V2.44H97.39Zm0,1.78a12.41,12.41,0,0,0,1.49-.35V4H97.39ZM102.53,1a3.63,3.63,0,0,0,.58,0c0,.08,0,.29-.07.45A9.37,9.37,0,0,1,101.8,5a5.06,5.06,0,0,0,1.7,1.56,1.72,1.72,0,0,0-.31.51,6,6,0,0,1-1.68-1.63A6.19,6.19,0,0,1,99.8,7a1.55,1.55,0,0,0-.31-.46A5.29,5.29,0,0,0,101.24,5a8.51,8.51,0,0,1-1.06-3.52,1.86,1.86,0,0,0-.46,0V.94a4.24,4.24,0,0,0,.66,0Zm-1.87.46A9.73,9.73,0,0,0,101,3.06a7.72,7.72,0,0,0,.57,1.44,8.23,8.23,0,0,0,1-3.07Z"/><path class="cls-1" d="M104,3.52l.32,0h.24c.36-.5.36-.5.5-.71a8,8,0,0,0-1-1.25l.27-.37.32.34a5.82,5.82,0,0,0,.72-1.49l.48.25a4.94,4.94,0,0,0-.29.5c-.23.42-.38.68-.63,1.06a7,7,0,0,1,.44.56A7.18,7.18,0,0,0,106.09,1l.47.26a3.51,3.51,0,0,0-.27.42,20.92,20.92,0,0,1-1.24,1.87c.52,0,.69-.06,1.08-.12a4.71,4.71,0,0,0-.27-.57l.33-.15a7,7,0,0,1,.59,1.46l-.37.16c-.06-.25-.08-.32-.14-.52-.22,0-.3.06-.58.09V6.43a5.59,5.59,0,0,0,0,.77h-.54a6,6,0,0,0,0-.77V3.91l-.68.07a3.61,3.61,0,0,0-.48.05Zm.82,1a7.07,7.07,0,0,1-.4,2.24L104,6.53a6,6,0,0,0,.38-2.14Zm1.57-.08a15.4,15.4,0,0,1,.34,1.72l-.43.09A8.85,8.85,0,0,0,106,4.5Zm1.54-2.06a5.65,5.65,0,0,0-.39-1.08,3.79,3.79,0,0,0-.67,0V.8a4.67,4.67,0,0,0,.72,0h1V.76a3.16,3.16,0,0,0,0-.63h.57a4,4,0,0,0,0,.63V.85h1.14a4.62,4.62,0,0,0,.73,0v.49a5,5,0,0,0-.7,0h0a5.71,5.71,0,0,1-.44,1.08h.64a5.36,5.36,0,0,0,.67,0,2.9,2.9,0,0,0,0,.45v.36a3.38,3.38,0,0,0,0,.47h-.48V2.74h-3.42v.82h-.47c0-.13,0-.28,0-.43V2.75c0-.15,0-.3,0-.43.14,0,.29,0,.62,0Zm2,1.39a4.38,4.38,0,0,0,.69,0,6.6,6.6,0,0,0,0,.69V6c0,.4-.13.51-.61.51l-.52,0a1.33,1.33,0,0,0-.1-.48,2.84,2.84,0,0,0,.6.06c.13,0,.18,0,.18-.14V4.15h-1.08V6.53a4.35,4.35,0,0,0,.05.69h-.56a4.65,4.65,0,0,0,0-.69V4.15h-1V5.76a6,6,0,0,0,0,.8h-.54a6.21,6.21,0,0,0,0-.79V4.38c0-.25,0-.47,0-.67a6.78,6.78,0,0,0,.71,0h.74V3.59a5.66,5.66,0,0,0,0-.6h.54a4.87,4.87,0,0,0,0,.6v.14Zm-.67-1.39a4.39,4.39,0,0,0,.44-1.08H108a6.46,6.46,0,0,1,.38,1.08Z"/><path class="cls-1" d="M113.25,6.25a6.9,6.9,0,0,0,0,1h-.59a9.29,9.29,0,0,0,.05-1V4.65c0-.31,0-.47,0-.89a3.8,3.8,0,0,1-.83.82,1.14,1.14,0,0,0-.27-.46A5.14,5.14,0,0,0,113.51,2l.45.3-.11.16a7.09,7.09,0,0,1-.6.86ZM114,.44a2.31,2.31,0,0,0-.22.25,6,6,0,0,1-1.57,1.46,1.11,1.11,0,0,0-.33-.38A5.26,5.26,0,0,0,113.26.55a2.52,2.52,0,0,0,.28-.43Zm4.12,3.36a1.77,1.77,0,0,0-.21.32,6.39,6.39,0,0,1-1.3,1.6,4.75,4.75,0,0,0,.77.46,5.17,5.17,0,0,0,1.46.53,2.18,2.18,0,0,0-.25.51A6.85,6.85,0,0,1,116.19,6a6.86,6.86,0,0,1-2.31,1.15,1.57,1.57,0,0,0-.29-.48,5.68,5.68,0,0,0,2.21-1A5.17,5.17,0,0,1,114.56,4a4.88,4.88,0,0,0-.62,0V3.46a3.65,3.65,0,0,0,.63,0h2.66a2.27,2.27,0,0,0,.57,0ZM115.41.94A2.7,2.7,0,0,1,115,2.4a2.44,2.44,0,0,1-.72.77,1.34,1.34,0,0,0-.37-.38,1.77,1.77,0,0,0,.79-.93,2.85,2.85,0,0,0,.18-1.09c0-.11,0-.18,0-.3.15,0,.25,0,.56,0h1.3c.32,0,.41,0,.56,0a2.61,2.61,0,0,0,0,.57V2.26c0,.13.06.16.42.16.64,0,.64,0,.67-.91a1.25,1.25,0,0,0,.46.22,2,2,0,0,1-.2.91c-.11.15-.36.21-.91.21-.76,0-.93-.07-.93-.41V.94Zm-.35,3a4.61,4.61,0,0,0,1.13,1.45A4.83,4.83,0,0,0,117.4,4Z"/><path class="cls-1" d="M123.39.18a5.19,5.19,0,0,0,1.31,1.39,8.46,8.46,0,0,0,2.15,1.25,1.79,1.79,0,0,0-.3.5A10.2,10.2,0,0,1,124.38,2,6.28,6.28,0,0,1,123.13.63,6.77,6.77,0,0,1,122,1.91a8.52,8.52,0,0,1-2.1,1.37,1.81,1.81,0,0,0-.33-.44,8.52,8.52,0,0,0,2.07-1.27A6.2,6.2,0,0,0,122.84.18Zm-2.64,4.35a6.92,6.92,0,0,0-.89,0V4a7.21,7.21,0,0,0,.89,0h4.81a7.21,7.21,0,0,0,.89,0v.56a7,7,0,0,0-.89,0h-2.8a11.58,11.58,0,0,1-1,1.84c1.08-.07,1.89-.15,3-.29a11.16,11.16,0,0,0-.95-1l.41-.24a16.74,16.74,0,0,1,1.88,2.05l-.42.32c-.31-.43-.41-.56-.57-.76-1.39.19-2.57.31-3.78.4a11.15,11.15,0,0,0-1.32.14l-.1-.59.4,0,.83,0a12.55,12.55,0,0,0,1-1.88Zm.5-1.94a4.78,4.78,0,0,0,.62,0h2.52a5.32,5.32,0,0,0,.65,0v.52a5.32,5.32,0,0,0-.65,0h-2.53a5.28,5.28,0,0,0-.61,0Z"/><path class="cls-1" d="M136.13,2a1.37,1.37,0,0,0-.28-.49,1.16,1.16,0,0,0-.92-.39,1.43,1.43,0,0,0-1.35,1,4.19,4.19,0,0,0-.33,1.68,1.7,1.7,0,0,1,.39-.5A1.85,1.85,0,0,1,135,2.74a1.81,1.81,0,0,1,1.95,2,1.91,1.91,0,0,1-2,2,2.12,2.12,0,0,1-1.41-.49,3.32,3.32,0,0,1-.79-2.45,4.17,4.17,0,0,1,.59-2.35,2,2,0,0,1,1.65-.85,2.09,2.09,0,0,1,1.19.32,2.07,2.07,0,0,1,.65.88Zm-1.26,1.31a1.57,1.57,0,0,0-1.07.44,1.36,1.36,0,0,0-.39,1,1.48,1.48,0,0,0,2.69.84,1.72,1.72,0,0,0,.2-.83A1.3,1.3,0,0,0,134.87,3.26Z"/><path class="cls-1" d="M140.09,2.17a7.18,7.18,0,0,1,1.14.83,9,9,0,0,0,1.51-1.66h-2.33a8.64,8.64,0,0,1-2.14,1.77,1.13,1.13,0,0,0-.33-.37,7.25,7.25,0,0,0,1.93-1.5A4.49,4.49,0,0,0,140.73,0l.53.2c-.35.51-.35.51-.5.7h1.71c.31,0,.52,0,.73,0l.28.33a2.64,2.64,0,0,0-.27.34A11.37,11.37,0,0,1,140.7,4h2.86a3.15,3.15,0,0,0,.57,0,3,3,0,0,0,0,.63V6.5a4.9,4.9,0,0,0,0,.7h-.54V6.76h-3.26V7.2h-.55a5.49,5.49,0,0,0,.05-.7V4.62a13.82,13.82,0,0,1-1.74.91,1.49,1.49,0,0,0-.31-.46,10.59,10.59,0,0,0,3.07-1.76,6.05,6.05,0,0,0-1.13-.86Zm.24,4.15h3.26V4.48h-3.26Z"/><path class="cls-2" d="M225.35,84.45H14.17A14.18,14.18,0,0,1,0,70.27V24.92A14.17,14.17,0,0,1,14.17,10.75H225.35a14.17,14.17,0,0,1,14.18,14.17V70.27a14.18,14.18,0,0,1-14.18,14.18"/><path class="cls-3" d="M227.23,73.8H202.59V50.93a12.32,12.32,0,1,1,24.64,0Z"/><path class="cls-3" d="M223.71,32.27a8.8,8.8,0,1,1-8.8-8.8,8.8,8.8,0,0,1,8.8,8.8"/><path class="cls-4" d="M223.71,32.27a8.8,8.8,0,1,1-8.8-8.8A8.8,8.8,0,0,1,223.71,32.27Z"/><path class="cls-3" d="M189.19,73.8H164.55V50.93a12.32,12.32,0,1,1,24.64,0Z"/><path class="cls-3" d="M185.67,32.27a8.8,8.8,0,1,1-8.8-8.8,8.8,8.8,0,0,1,8.8,8.8"/><circle class="cls-4" cx="176.87" cy="32.27" r="8.8" transform="translate(17.6 115.68) rotate(-37.98)"/><path class="cls-3" d="M151.15,73.8H126.51V50.93a12.32,12.32,0,1,1,24.64,0Z"/><path class="cls-3" d="M147.63,32.27a8.8,8.8,0,1,1-8.8-8.8,8.8,8.8,0,0,1,8.8,8.8"/><circle class="cls-4" cx="138.83" cy="32.27" r="8.8" transform="translate(9.55 92.27) rotate(-37.98)"/><path class="cls-3" d="M113.11,73.8H88.48V50.93a12.32,12.32,0,1,1,24.63,0Z"/><path class="cls-3" d="M109.59,32.27a8.8,8.8,0,1,1-8.8-8.8,8.8,8.8,0,0,1,8.8,8.8"/><circle class="cls-4" cx="100.79" cy="32.27" r="8.8" transform="translate(1.49 68.86) rotate(-37.98)"/><path class="cls-3" d="M75.08,73.8H50.44V50.93a12.32,12.32,0,0,1,24.64,0Z"/><path class="cls-3" d="M71.56,32.27a8.8,8.8,0,1,1-8.8-8.8,8.8,8.8,0,0,1,8.8,8.8"/><circle class="cls-4" cx="62.76" cy="32.27" r="8.8" transform="translate(-5.65 49.61) rotate(-41.44)"/><path class="cls-3" d="M37,73.8H12.4V50.93a12.32,12.32,0,1,1,24.64,0Z"/><path class="cls-3" d="M33.52,32.27a8.8,8.8,0,1,1-8.8-8.8,8.8,8.8,0,0,1,8.8,8.8"/><circle class="cls-4" cx="24.72" cy="32.27" r="8.8" transform="translate(-15.17 24.44) rotate(-41.44)"/></g></g></svg>